<?xml version="1.0" encoding="UTF-8"?>
<svg width="980px" height="680px" viewBox="0 0 980 680" version="1.1" xmlns="http://www.w3.org/2000/svg" xmlns:xlink="http://www.w3.org/1999/xlink">
    <title>AE Emirates Post alt</title>
    <defs>
        <linearGradient x1="50%" y1="0%" x2="50%" y2="100%" id="linearGradient-1">
            <stop stop-color="#FFFFFF" offset="0%"></stop>
            <stop stop-color="#EDEDED" offset="100%"></stop>
        </linearGradient>
        <rect id="path-2" x="0" y="0" width="900" height="600" rx="80"></rect>
        <filter x="-6.7%" y="-10.0%" width="113.3%" height="120.0%" filterUnits="objectBoundingBox" id="filter-3">
            <feMorphology radius="2.5" operator="dilate" in="SourceAlpha" result="shadowSpreadOuter1"></feMorphology>
            <feOffset dx="0" dy="0" in="shadowSpreadOuter1" result="shadowOffsetOuter1"></feOffset>
            <feGaussianBlur stdDeviation="17.5" in="shadowOffsetOuter1" result="shadowBlurOuter1"></feGaussianBlur>
            <feColorMatrix values="0 0 0 0 0   0 0 0 0 0   0 0 0 0 0  0 0 0 0.5 0" type="matrix" in="shadowBlurOuter1"></feColorMatrix>
        </filter>
    </defs>
    <g id="AE-Emirates-Post-alt" stroke="none" stroke-width="1" fill="none" fill-rule="evenodd">
        <g transform="translate(40, 40)">
            <g id="Rectangle">
                <use fill="black" fill-opacity="1" filter="url(#filter-3)" xlink:href="#path-2"></use>
                <use fill="url(#linearGradient-1)" fill-rule="evenodd" xlink:href="#path-2"></use>
            </g>
            <g id="Logo" transform="translate(114, 50)" fill="#00529C" fill-rule="nonzero">
                <path d="M421.200985,0 C283.066603,0 171.200985,111.865618 171.200985,250 C171.200985,388.134382 283.066603,500 421.200985,500 C559.335366,500 671.200985,388.134382 671.200985,250 C671.200985,111.865618 559.156667,0 421.200985,0 Z M422.273179,442.458899 C315.411135,442.458899 228.920785,355.968549 228.920785,249.106505 C228.920785,142.24446 315.411135,55.7541101 422.273179,55.7541101 C529.135223,55.7541101 615.625574,142.24446 615.625574,249.106505 C615.625574,355.968549 529.135223,442.458899 422.273179,442.458899 Z" id="Shape"></path>
                <path d="M593.645588,132.77341 C593.645588,132.77341 441.215281,96.4974982 336.855023,99.1779843 C232.494766,101.679771 161.729934,108.291637 159.228147,115.975697 C156.72636,123.659757 161.551235,123.12366 171.022286,130.450322 C180.493336,137.776984 190.679183,149.571122 190.679183,149.571122 C190.679183,149.571122 166.912207,154.038599 135.997268,143.137956 C105.082329,132.237312 84.8893335,124.017155 66.4833292,124.91065 C47.8986259,125.804146 15.0179968,139.563974 4.47475166,154.932094 C-3.38800745,166.368835 0.543372105,179.949964 5.36824702,181.915654 C8.22743215,183.166548 10.5505201,174.588992 13.7671033,174.052895 C22.1659597,172.444603 65.0537367,195.318084 81.6727502,206.040029 C87.2124214,209.61401 93.4668889,213.36669 93.4668889,228.198713 C93.4668889,243.030736 95.0751805,250.357398 103.652736,260.721944 C115.625574,275.553967 130.636296,293.781272 160.836439,310.400286 C191.215281,327.019299 598.113065,480.164403 598.113065,480.164403 C598.113065,480.164403 364.553379,379.199428 330.779255,356.147248 C297.18383,333.095068 240.178826,290.564689 271.272464,231.236598 C302.544802,172.087205 472.666317,125.625447 593.645588,132.77341 Z" id="Path"></path>
                <path d="M284.317496,234.63188 C284.317496,234.63188 307.369677,266.082916 332.208847,282.344532 C357.048018,298.606147 366.697768,302.537527 395.468318,309.506791 C429.063744,317.726948 448.899341,318.441744 476.240298,313.795568 C528.420427,304.860615 551.830005,292.172981 565.411135,286.63331 C567.734223,285.739814 540.929362,345.067906 510.371821,366.690493 C492.859312,379.199428 477.84859,387.955683 447.291049,391.708363 C416.733508,395.282345 385.63987,383.845604 364.732078,372.944961 C344.002986,362.044317 319.342514,344.531808 303.259598,328.091494 C287.176682,311.47248 266.983687,281.451036 281.279612,241.958542 C282.173108,239.814153 284.317496,234.63188 284.317496,234.63188 Z" id="Path"></path>
            </g>
        </g>
    </g>
</svg>