<?xml version="1.0" encoding="UTF-8"?>
<svg width="980px" height="680px" viewBox="0 0 980 680" version="1.1" xmlns="http://www.w3.org/2000/svg" xmlns:xlink="http://www.w3.org/1999/xlink">
    <title>AL Posta Shqiptare</title>
    <defs>
        <linearGradient x1="50%" y1="0%" x2="50%" y2="100%" id="linearGradient-1">
            <stop stop-color="#FFFFFF" offset="0%"></stop>
            <stop stop-color="#EDEDED" offset="100%"></stop>
        </linearGradient>
        <rect id="path-2" x="0" y="0" width="900" height="600" rx="80"></rect>
        <filter x="-6.7%" y="-10.0%" width="113.3%" height="120.0%" filterUnits="objectBoundingBox" id="filter-3">
            <feMorphology radius="2.5" operator="dilate" in="SourceAlpha" result="shadowSpreadOuter1"></feMorphology>
            <feOffset dx="0" dy="0" in="shadowSpreadOuter1" result="shadowOffsetOuter1"></feOffset>
            <feGaussianBlur stdDeviation="17.5" in="shadowOffsetOuter1" result="shadowBlurOuter1"></feGaussianBlur>
            <feColorMatrix values="0 0 0 0 0   0 0 0 0 0   0 0 0 0 0  0 0 0 0.5 0" type="matrix" in="shadowBlurOuter1"></feColorMatrix>
        </filter>
    </defs>
    <g id="AL-Posta-Shqiptare" stroke="none" stroke-width="1" fill="none" fill-rule="evenodd">
        <g transform="translate(40, 40)">
            <g id="Rectangle">
                <use fill="black" fill-opacity="1" filter="url(#filter-3)" xlink:href="#path-2"></use>
                <use fill="url(#linearGradient-1)" fill-rule="evenodd" xlink:href="#path-2"></use>
            </g>
            <g id="Logo" transform="translate(50, 77)" fill="#1A3292" fill-rule="nonzero">
                <path d="M702.183227,221.201631 C689.775706,237.039746 676.211954,251.936961 661.603318,265.770984 L664.633101,263.029098 L737.594681,347.794496 C759.494858,334.290427 780.354768,319.167908 800,302.553381 L702.169517,221.133084 M400.562087,387.839737 C358.848373,389.585446 317.087947,385.768088 276.382082,376.48833 C343.229256,352.935531 373.033554,320.279672 373.033554,270.788635 C373.033554,268.965281 372.64969,266.922576 372.567433,265.058094 C416.877297,262.504417 460.984247,257.183927 504.63036,249.127738 L510.662508,248.154368 C525.866265,245.864894 527.607362,236.323131 527.64849,232.347397 C527.64849,232.141755 527.64849,231.936114 527.64849,231.744182 C527.64849,223.861261 525.221921,218.925866 504.054564,212.866299 L511.649587,211.865511 L589.861878,201.240703 L590.739281,190.122357 C590.862666,188.751414 590.972341,187.558693 590.972341,186.461939 C590.972341,179.949961 586.640162,177.194365 558.741474,167.405833 C578.199028,165.135198 597.510644,161.752575 616.581554,157.274566 L625.945094,154.971382 L627.316037,145.306234 C627.524039,143.944227 627.64766,142.570665 627.686191,141.193406 C627.686191,135.174967 623.203208,131.665353 597.881893,117.887377 L603.297118,117.119649 C628.958979,114.401539 654.358684,109.610439 679.247352,102.793296 L689.419748,100.133667 L689.913288,89.4951503 C689.913288,88.7959694 689.913288,88.1242074 689.913288,87.5209926 C689.913288,79.1308222 686.650444,76.7316722 654.268773,65.914933 C716.454742,51.1772972 752.524249,39.6476677 762.57326,25.8971107 L781.492271,0 L749.61785,3.67412688 C663.348459,11.2415032 576.683659,13.2883787 490.153203,9.80224149 C374.994002,6.95068033 351.221853,7.29341605 309.325839,17.8496761 C250.159478,35.1917351 207.080861,86.2092951 199.897179,147.444905 L227.686191,151.434349 C233.193594,101.489814 267.98209,59.6551376 316.084587,45.1314391 C353.333105,35.7404805 371.114234,34.9864619 489.070158,37.9065702 C536.655585,40.0315317 595.784351,40.0041128 649.333379,38.249306 C636.59732,41.2790897 625.31446,43.8427529 618.048463,45.4878843 L588.052233,52.3425986 L588.641738,64.0093224 C589.08044,74.1405902 589.724783,74.3462316 623.902389,85.519416 L624.862049,85.8484423 C616.293656,87.2193851 608.328478,88.2475923 599.842342,89.26209 L541.385338,97.6111321 L540.12407,107.756109 C539.897444,109.037428 539.773665,110.334821 539.753916,111.635878 C539.753916,118.490592 544.730438,121.232478 564.430887,131.802447 C567.172773,133.17339 570.545293,135.09271 574.150872,137.025739 C562.319635,138.862803 550.69404,140.302293 539.260376,141.700655 L485.409741,149.432772 L485.217809,160.633376 C485.121843,162.004318 485.025877,163.16962 485.025877,164.225246 C485.025877,171.230764 489.01532,173.150084 517.174487,182.815231 L507.948041,184.062789 C471.659184,188.84738 434.136477,193.782774 418.521438,196.689173 L408.349042,198.581074 L407.128903,208.849436 C407.046446,209.563929 407.00525,210.282581 407.005518,211.001816 C407.005518,218.528293 412.146554,223.216917 422.30524,224.971724 C431.90184,226.616856 440.127498,228.097474 447.612846,229.482126 C387.387326,237.968263 366.617541,237.817459 359.529767,236.679576 L340.50108,233.622374 L343.434897,252.66477 C349.439627,291.722932 345.395346,332.34397 227.151523,361.928917 L227.151523,362.189396 C147.931505,334.530392 78.4487918,284.460356 27.1446687,218.062172 L7.79290796e-13,240.956918 C44.4714837,284.815723 91.2699622,326.250636 140.192617,365.082085 C222.765097,417.451172 318.281765,445.809018 416.053741,446.982212 C508.392935,445.242996 599.090523,422.256641 681.111835,379.806012 L676.861912,381.725332 L620.790349,301.552593 L625.890256,297.28896 L682.688419,378.997155 C689.85845,375.336738 696.781712,371.662611 703.362237,368.029612 L640.573054,284.977894 C588.12078,330.328684 504.740035,383.91884 400.466121,387.935703 M642.204476,283.579532 L645.535867,281.029578 L708.599239,364.794187 L704.102547,367.632039 C714.178977,362.07972 723.542516,356.554821 732.165747,351.180725 L660.013024,267.279021 C654.529252,272.506883 648.5885,277.926677 642.190767,283.538404" id="Path_15"></path>
            </g>
        </g>
    </g>
</svg>