<?xml version="1.0" encoding="UTF-8"?>
<svg width="980px" height="680px" viewBox="0 0 980 680" version="1.1" xmlns="http://www.w3.org/2000/svg" xmlns:xlink="http://www.w3.org/1999/xlink">
    <title>AL Posta Shqiptare text</title>
    <defs>
        <linearGradient x1="50%" y1="0%" x2="50%" y2="100%" id="linearGradient-1">
            <stop stop-color="#FFFFFF" offset="0%"></stop>
            <stop stop-color="#EDEDED" offset="100%"></stop>
        </linearGradient>
        <rect id="path-2" x="0" y="0" width="900" height="600" rx="80"></rect>
        <filter x="-6.7%" y="-10.0%" width="113.3%" height="120.0%" filterUnits="objectBoundingBox" id="filter-3">
            <feMorphology radius="2.5" operator="dilate" in="SourceAlpha" result="shadowSpreadOuter1"></feMorphology>
            <feOffset dx="0" dy="0" in="shadowSpreadOuter1" result="shadowOffsetOuter1"></feOffset>
            <feGaussianBlur stdDeviation="17.5" in="shadowOffsetOuter1" result="shadowBlurOuter1"></feGaussianBlur>
            <feColorMatrix values="0 0 0 0 0   0 0 0 0 0   0 0 0 0 0  0 0 0 0.5 0" type="matrix" in="shadowBlurOuter1"></feColorMatrix>
        </filter>
    </defs>
    <g id="AL-Posta-Shqiptare-text" stroke="none" stroke-width="1" fill="none" fill-rule="evenodd">
        <g transform="translate(40, 40)">
            <g id="Rectangle">
                <use fill="black" fill-opacity="1" filter="url(#filter-3)" xlink:href="#path-2"></use>
                <use fill="url(#linearGradient-1)" fill-rule="evenodd" xlink:href="#path-2"></use>
            </g>
            <g id="Logo" transform="translate(50, 215)" fill="#1A3292" fill-rule="nonzero">
                <path d="M264.538746,83.3349474 C259.864368,89.3017588 254.754394,94.9140983 249.250773,100.125893 L250.392206,99.0929222 L277.879568,131.027225 C286.130186,125.939736 293.988897,120.242516 301.389992,113.983201 L264.533581,83.3091231 M150.906755,146.113769 C135.191635,146.771443 119.458917,145.333301 104.123492,141.837268 C129.307328,132.964046 140.535725,120.66136 140.535725,102.016231 C140.535725,101.329305 140.391109,100.559741 140.36012,99.8573209 C157.053306,98.8952549 173.670048,96.890827 190.113175,93.8557585 L192.385711,93.4890537 C198.113536,92.6265228 198.769473,89.0317832 198.784968,87.5339751 C198.784968,87.4565022 198.784968,87.3790294 198.784968,87.3067214 C198.784968,84.3369294 197.870788,82.4775813 189.896251,80.1947151 L192.757581,79.8176806 L222.223083,75.8149174 L222.553634,71.6262194 C222.600118,71.1097338 222.641436,70.6603914 222.641436,70.2472029 C222.641436,67.7938964 221.009342,66.7557604 210.498861,63.0680534 C217.82925,62.2126199 225.10466,60.9382591 232.289387,59.251225 L235.816983,58.3835293 L236.333469,54.742306 C236.411831,54.2291868 236.458404,53.7117146 236.47292,53.1928493 C236.47292,50.9254776 234.784012,49.6032745 225.244524,44.4125945 L227.284642,44.1233626 C236.952427,43.0993486 246.521448,41.2943618 255.897942,38.7260883 L259.730265,37.7241063 L259.9162,33.7161783 C259.9162,33.4527706 259.9162,33.1996927 259.9162,32.972439 C259.9162,29.8115473 258.686965,28.9076976 246.487575,24.8326264 C269.915361,19.2804065 283.504096,14.9367628 287.289936,9.75641249 L294.417437,0 L282.409147,1.38418134 C249.908233,4.2350957 217.258354,5.00623044 184.659087,3.69287185 C141.274299,2.61858186 132.318439,2.74770325 116.53464,6.72464217 C94.2444538,13.2580459 78.0151239,32.4782734 75.3087615,55.5480235 L85.7779241,57.0509965 C87.8527694,38.2350177 100.9589,22.4743268 119.080914,17.0027051 C133.113827,13.4647789 139.812645,13.1807118 184.251064,14.2808261 C202.178278,15.0813788 224.454301,15.071049 244.628227,14.4099475 C239.830076,15.5513806 235.5794,16.5172087 232.842026,17.1369913 L221.541322,19.7194192 L221.763411,24.1147114 C221.928686,27.9315398 222.171434,28.0090127 235.04742,32.2183701 L235.40896,32.3423266 C232.180925,32.8588122 229.180144,33.2461764 225.983098,33.6283757 L203.960153,36.7737729 L203.484986,40.5957661 C203.399608,41.078487 203.352975,41.5672635 203.345535,42.0574203 C203.345535,44.6398482 205.220378,45.6728193 212.642276,49.6549231 C213.675247,50.1714086 214.945801,50.8944885 216.304158,51.6227331 C211.846888,52.3148238 207.46709,52.8571336 203.1596,53.3839489 L182.872047,56.2969276 L182.799739,60.5166147 C182.763585,61.0331003 182.727431,61.472113 182.727431,61.8698069 C182.727431,64.5090482 184.230404,65.232128 194.839018,68.8733513 L191.36307,69.3433532 C177.691697,71.1458878 163.555487,73.0052359 157.672716,74.1001853 L153.840393,74.8129354 L153.380721,78.6814123 C153.349656,78.9505886 153.334136,79.2213319 153.334237,79.4922947 C153.334237,82.3278005 155.271058,84.0941811 159.098216,84.7552827 C162.713615,85.3750654 165.812529,85.9328698 168.63254,86.4545202 C145.943329,89.6515659 138.118572,89.5947525 135.448342,89.1660695 L128.279522,88.0143067 L129.384801,95.1882913 C131.647008,109.902965 130.123375,125.206433 85.5764947,136.352192 L85.5764947,136.450324 C55.7313437,126.03014 29.5546009,107.16688 10.2264144,82.1521954 L2.93588058e-13,90.7775045 C16.7540751,107.30076 34.3848164,122.910846 52.8158148,137.540108 C83.9239635,157.269506 119.908673,167.95297 156.743042,168.394957 C191.530678,167.739729 225.69986,159.079907 256.600363,143.087163 L254.999258,143.810243 L233.874998,113.606167 L235.796324,111.999897 L257.194321,142.782437 C259.895541,141.40342 262.503793,140.019239 264.982924,138.650552 L241.327884,107.361856 C221.567146,124.447199 190.154494,144.63662 150.870601,146.149923 M241.942502,106.835041 L243.197562,105.874378 L266.955899,137.431646 L265.261826,138.500772 C269.057995,136.409005 272.585591,134.327568 275.834286,132.302945 L248.65165,100.694027 C246.585708,102.663559 244.347603,104.705399 241.937337,106.819546" id="Path_15"></path>
                <g id="Group_3" transform="translate(349.9913, 2.0076)" stroke="#1A3292" stroke-width="0.3">
                    <path d="M10.9030105,32.9120075 C13.1611736,33.4206496 15.4738748,33.6461944 17.7877632,33.5834388 C27.8230779,33.5834388 33.9434319,28.707815 33.9434319,19.8242631 C33.9434319,11.3177457 27.9160453,7.20135565 18.7432615,7.20135565 C16.1143291,7.128018 13.4856171,7.3550195 10.9081753,7.87795176 L10.9081753,32.9120075 M2.59275758,1.85056511 C7.87088104,0.996904438 13.2106922,0.582295999 18.5573267,0.61099973 C25.0354693,0.115647197 31.4695348,2.0201306 36.6343218,5.96179028 C40.4094472,9.40201805 42.4734252,14.3332624 42.2743442,19.4368989 C42.5267918,24.5050378 40.7371342,29.4628729 37.305753,33.2012394 C31.9798659,38.1417759 24.8697413,40.6970935 17.6173229,40.2770918 C15.3642032,40.3510344 13.1102821,40.1568504 10.9030105,39.698628 L10.9030105,65.5229067 L2.58759273,65.5229067 L2.59275758,1.85056511 Z" id="Path_16"></path>
                    <path d="M58.5178155,33.6764062 C58.5178155,47.4355819 65.9707024,59.7692574 79.0636117,59.7692574 C92.2494884,59.7692574 99.7230346,47.6318464 99.7230346,33.0049749 C99.7230346,20.2012975 93.0087222,6.82432118 79.1720736,6.82432118 C65.4077331,6.82432118 58.5126507,19.5298663 58.5126507,33.681571 M108.498125,32.6485999 C108.498125,54.8213256 95.017851,66.5713724 78.5781152,66.5713724 C61.5650804,66.5713724 49.6239339,53.3854957 49.6239339,33.8881653 C49.6239339,13.4353365 62.3346439,0.0583601661 79.5387784,0.0583601661 C97.0992879,0.0583601661 108.498125,13.5334688 108.498125,32.6485999" id="Path_17"></path>
                    <path d="M118.264867,55.3481409 C122.768068,58.0579673 127.91518,59.5115004 133.17064,59.5574983 C141.677158,59.5574983 146.645749,55.0692386 146.645749,48.5615204 C146.645749,42.5444635 143.205955,39.1046696 134.508338,35.757843 C123.992692,32.0288172 117.495303,26.5798944 117.495303,17.5052429 C117.495303,7.46992815 125.810721,0.0170413202 138.335496,0.0170413202 C143.271838,-0.151496478 148.17051,0.932359029 152.575003,3.16760332 L150.276643,9.95422376 C146.518193,7.93215601 142.314105,6.8811339 138.046264,6.89662916 C129.266009,6.89662916 125.903688,12.1544523 125.903688,16.5497445 C125.903688,22.5719663 129.823814,25.5314287 138.712531,28.9453983 C149.605211,33.1547557 155.147102,38.407414 155.147102,47.8694297 C155.147102,57.8066122 147.787182,66.5042292 132.592177,66.5042292 C126.839314,66.5476789 121.173422,65.0991751 116.147276,62.3000367 L118.254537,55.3223166" id="Path_18"></path>
                    <polygon id="Path_19" points="178.765987 8.15685397 159.175689 8.15685397 159.175689 1.08616646 206.867967 1.08616646 206.867967 8.15685397 187.184702 8.15685397 187.184702 65.4867527 178.771152 65.4867527"></polygon>
                    <path d="M244.468117,38.7431297 L238.161828,20.2064624 C236.731163,15.997105 235.775664,12.1802766 234.820166,8.45125074 L234.623902,8.45125074 C233.673568,12.273244 232.619938,16.1985344 231.380372,20.1083301 L225.074083,38.7431297 L244.473282,38.7431297 M223.349022,45.245683 L216.634709,65.5074121 L208.035224,65.5074121 L229.918718,1.09133131 L239.954033,1.09133131 L261.935659,65.5074121 L253.046942,65.5074121 L246.167354,45.245683 L223.349022,45.245683 Z" id="Path_20"></path>
                    <path d="M2.13825028,148.888843 C6.64356293,151.598158 11.7921877,153.051615 17.0491888,153.098201 C25.5505413,153.098201 30.5191326,148.609941 30.5191326,142.102223 C30.5191326,136.085166 27.0793386,132.645372 18.3868864,129.298545 C7.87124015,125.569519 1.34286249,120.120597 1.34286249,111.045945 C1.34286249,101.01063 9.65828023,93.5577436 22.1830554,93.5577436 C27.1193769,93.389431 32.017993,94.4732742 36.4225627,96.7083056 L34.1242019,103.494926 C30.3662297,101.471625 26.1618229,100.420523 21.8938235,100.437331 C13.1135687,100.437331 9.75641249,105.695155 9.75641249,110.090447 C9.75641249,116.112669 13.676538,119.072131 22.5600899,122.486101 C33.4527706,126.695458 38.9998257,131.948116 38.9998257,141.410132 C38.9998257,151.347314 31.6347414,160.044932 16.4397358,160.044932 C10.6884766,160.088666 5.02418041,158.640115 0,155.840739 L2.10209629,148.863019" id="Path_21"></path>
                    <polygon id="Path_22" points="58.7295746 94.6268687 58.7295746 121.577086 89.8839844 121.577086 89.8839844 94.6268687 98.2975344 94.6268687 98.2975344 159.053279 89.8839844 159.053279 89.8839844 128.854368 58.7295746 128.854368 58.7295746 159.053279 50.4141569 159.053279 50.4141569 94.6268687"></polygon>
                    <path d="M138.459453,153.30996 C151.650494,153.30996 159.118876,141.265516 159.118876,126.550842 C159.118876,113.638703 152.404563,100.365023 138.764179,100.365023 C124.710607,100.365023 117.831019,113.359801 117.923986,127.315241 C117.831019,140.981449 125.376873,153.315125 138.376815,153.315125 L138.474947,153.315125 M166.003628,168.51013 C157.306011,166.211769 148.799494,163.634506 141.346607,161.057243 C140.100444,160.528015 138.776401,160.20529 137.426482,160.101745 C122.133344,159.528446 109.019775,148.253566 109.019775,127.51667 C109.019775,106.857247 121.632353,93.5887327 139.027587,93.5887327 C156.520953,93.5887327 167.893966,107.156809 167.893966,126.178972 C167.893966,142.706511 160.249979,153.320289 149.543233,157.04415 L149.543233,157.431515 C155.952819,159.058444 162.925374,160.587241 168.374297,161.563399 L166.003628,168.51013 Z" id="Path_23"></path>
                    <rect id="Rectangle_4" x="178.791811" y="94.6268687" width="8.31541774" height="64.4160808"></rect>
                    <path d="M209.956551,126.447545 C212.212956,126.956237 214.523956,127.181785 216.836138,127.118976 C226.871453,127.118976 232.991807,122.243352 232.991807,113.359801 C232.991807,104.853283 226.97475,100.736893 217.796802,100.736893 C215.16785,100.662878 212.53906,100.889886 209.961716,101.413489 L209.961716,126.447545 M201.646298,95.3861025 C206.922691,94.5324909 212.260783,94.1178818 217.605702,94.1465372 C224.084052,93.6492289 230.518801,95.5539145 235.682697,99.4973277 C239.457823,102.937555 241.521801,107.8688 241.32272,112.972436 C241.575167,118.040575 239.78551,122.99841 236.354128,126.736777 C231.029196,131.678882 223.918379,134.234448 216.665698,133.812629 C214.421175,133.884864 212.176003,133.690687 209.97721,133.234165 L209.97721,159.058444 L201.661792,159.058444 L201.646298,95.3861025 Z" id="Path_24"></path>
                    <polygon id="Path_25" points="264.740175 101.697556 245.144713 101.697556 245.144713 94.6268687 292.831826 94.6268687 292.831826 101.697556 273.16922 101.697556 273.16922 159.027455 264.760835 159.027455"></polygon>
                    <path d="M327.663613,132.278667 L321.357324,113.742 C319.921494,109.532642 318.971161,105.715814 318.010498,101.986788 L317.819398,101.986788 C316.869064,105.808781 315.815434,109.734072 314.570704,113.643868 L308.264415,132.278667 L327.668778,132.278667 M306.544518,138.78122 L299.830205,159.04295 L291.225556,159.04295 L313.114214,94.6268687 L323.149529,94.6268687 L345.12599,159.04295 L336.237273,159.04295 L329.357686,138.78122 L306.544518,138.78122 Z" id="Path_26"></path>
                    <path d="M362.939578,124.830945 L371.435765,124.830945 C380.324482,124.830945 385.95934,119.955321 385.95934,112.595402 C385.95934,104.279984 379.942283,100.649091 371.146533,100.550958 C368.386653,100.474005 365.62758,100.730663 362.929248,101.315357 L362.929248,124.82578 M354.618995,95.4842348 C359.887711,94.5456812 365.232127,94.0978637 370.583564,94.1465372 C377.23741,93.4698114 383.899529,95.3495336 389.218364,99.4043603 C392.591982,102.561488 394.437238,107.022111 394.279922,111.639904 C394.375453,119.220605 389.415313,125.938957 382.142511,128.079639 L382.142511,128.368871 C387.395051,130.694676 391.003741,135.650716 391.604527,141.363648 C392.729203,147.395039 394.392048,153.313526 396.573118,159.048114 L387.963304,159.048114 C386.058882,154.063108 384.620349,148.9124 383.666144,143.662009 C381.755147,134.768128 378.315353,131.426466 370.754004,131.137234 L362.908589,131.137234 L362.908589,159.027455 L354.598336,159.027455 L354.618995,95.4842348 Z" id="Path_27"></path>
                    <polygon id="Path_28" points="447.168045 128.844038 422.118495 128.844038 422.118495 152.085889 450.008716 152.085889 450.008716 159.053279 413.787582 159.053279 413.787582 94.6268687 448.578051 94.6268687 448.578051 101.604589 422.097835 101.604589 422.097835 121.959285 447.147386 121.959285"></polygon>
                </g>
            </g>
        </g>
    </g>
</svg>