<?xml version="1.0" encoding="UTF-8"?>
<svg width="980px" height="680px" viewBox="0 0 980 680" version="1.1" xmlns="http://www.w3.org/2000/svg" xmlns:xlink="http://www.w3.org/1999/xlink">
    <title>AM HayPost EN</title>
    <defs>
        <linearGradient x1="50%" y1="0%" x2="50%" y2="100%" id="linearGradient-1">
            <stop stop-color="#FFFFFF" offset="0%"></stop>
            <stop stop-color="#EDEDED" offset="100%"></stop>
        </linearGradient>
        <rect id="path-2" x="0" y="0" width="900" height="600" rx="80"></rect>
        <filter x="-6.7%" y="-10.0%" width="113.3%" height="120.0%" filterUnits="objectBoundingBox" id="filter-3">
            <feMorphology radius="2.5" operator="dilate" in="SourceAlpha" result="shadowSpreadOuter1"></feMorphology>
            <feOffset dx="0" dy="0" in="shadowSpreadOuter1" result="shadowOffsetOuter1"></feOffset>
            <feGaussianBlur stdDeviation="17.5" in="shadowOffsetOuter1" result="shadowBlurOuter1"></feGaussianBlur>
            <feColorMatrix values="0 0 0 0 0   0 0 0 0 0   0 0 0 0 0  0 0 0 0.5 0" type="matrix" in="shadowBlurOuter1"></feColorMatrix>
        </filter>
    </defs>
    <g id="AM-HayPost-EN" stroke="none" stroke-width="1" fill="none" fill-rule="evenodd">
        <g transform="translate(40, 40)">
            <g id="Rectangle">
                <use fill="black" fill-opacity="1" filter="url(#filter-3)" xlink:href="#path-2"></use>
                <use fill="url(#linearGradient-1)" fill-rule="evenodd" xlink:href="#path-2"></use>
            </g>
            <g id="Logo" transform="translate(50, 215)" fill-rule="nonzero">
                <polygon id="Path" fill="#281E78" points="118.890977 0 102.819549 49.3421053 57.612782 49.3421053 73.6842105 0 41.7293233 0 0 128.289474 31.9548872 128.289474 48.5902256 77.3496241 93.7969925 77.3496241 77.1616541 128.289474 109.304511 128.289474 151.033835 0"></polygon>
                <g id="Group" transform="translate(133.1468, 0)">
                    <path d="M269.202843,104.511278 L244.484798,104.511278 C238.563745,104.511278 233.018632,107.518797 229.729159,112.406015 L204.823144,149.906015 L239.03367,149.906015 L269.202843,104.511278 Z" id="Path" fill="#FA4616"></path>
                    <path d="M374.090061,52.2556391 C374.090061,23.4022556 350.687805,0 321.834422,0 L321.834422,0 L321.740437,0 L321.740437,0 L221.740437,0 L237.153971,21.2406015 C240.537429,25.8458647 245.894572,28.6654135 251.627655,28.6654135 L321.834422,28.6654135 C335.650211,28.6654135 346.646452,40.5075188 345.424647,54.5112782 C344.296828,66.8233083 333.676527,76.0338346 321.270512,76.0338346 L297.774271,76.0338346 C291.759234,76.0338346 286.120136,79.0413534 282.830662,84.0225564 L269.202843,104.605263 L322.022392,104.605263 L322.022392,104.605263 C350.78179,104.417293 374.090061,81.1090226 374.090061,52.2556391" id="Path" fill="#FA4616"></path>
                    <path d="M313.46976,37.9699248 L249.372016,37.9699248 L264.78555,59.2105263 C268.169008,63.8157895 273.526151,66.6353383 279.259234,66.6353383 L294.390813,66.6353383 L313.46976,37.9699248 Z" id="Path" fill="#FA4616"></path>
                    <path d="M32.7366773,131.390977 C21.9284067,131.390977 13.3757751,127.913534 7.17276756,121.146617 C1.06374501,114.379699 -1.19189409,104.699248 0.593820193,92.1992481 C1.43968485,86.2781955 2.94344425,80.6390977 5.19908335,75.2819549 C7.36073749,69.924812 10.1802864,65.2255639 13.3757751,61.0902256 C16.5712638,56.9548872 20.2366773,53.1015038 24.2780307,49.7180451 C28.2253991,46.3345865 32.4547224,43.6090226 36.7780307,41.4473684 C41.195324,39.2857143 45.8005871,37.5 50.4058503,36.3721805 C55.0111134,35.2443609 59.5223916,34.5864662 63.8456999,34.5864662 C74.8419405,34.5864662 83.3005871,38.0639098 89.0336698,44.924812 L91.195324,47.462406 L100.78179,37.9699248 L123.244196,37.9699248 L94.2028427,128.007519 L70.8005871,128.007519 L67.2291585,118.984962 L63.3757751,121.428571 C53.0374292,128.101504 43.7329179,131.390977 32.7366773,131.390977 M60.5562262,60.7142857 C57.1727676,60.7142857 53.7893089,61.3721805 50.4998352,62.7819549 C47.2103615,64.0977444 44.2028427,66.0714286 41.7592337,68.4210526 C39.3156247,70.7706767 37.1539706,73.4962406 35.3682563,76.5977444 C33.582542,79.7932331 32.4547224,83.0827068 31.8908127,86.6541353 C31.138933,91.9172932 32.1727676,96.4285714 35.0863014,99.906015 C37.9998352,103.383459 42.2291585,105.169173 47.6802864,105.169173 C54.4472037,105.169173 60.7441961,102.537594 66.4772788,97.3684211 C72.1163766,92.1992481 75.4998352,86.1842105 76.4396849,79.3233083 C77.1915646,73.8721805 76.063745,69.3609023 73.1502112,65.9774436 C70.3306623,62.5 66.007354,60.7142857 60.5562262,60.7142857" id="Shape" fill="#281E78"></path>
                    <path d="M414.22164,131.390977 C401.15773,131.390977 390.631414,127.631579 382.924647,120.300752 C375.311865,112.969925 372.492316,103.195489 374.278031,90.4135338 C375.78179,79.6052632 379.917128,69.8308271 386.402091,61.2781955 C392.887053,52.7255639 401.15773,46.0526316 410.932166,41.4473684 C420.800587,36.8421053 431.326903,34.4924812 442.417128,34.4924812 C455.481038,34.4924812 466.101339,38.2518797 473.808106,45.6766917 C481.420888,53.1015038 484.334422,62.8759398 482.454722,75.6578947 C480.950963,86.5601504 476.815625,96.4285714 470.236677,104.887218 C463.65773,113.43985 455.387053,120.018797 445.706602,124.530075 C435.932166,129.135338 425.311865,131.390977 414.22164,131.390977 M435.086301,60.5263158 C428.131414,60.5263158 421.740437,63.0639098 415.913369,68.1390977 C410.180286,73.2142857 406.702843,79.6052632 405.575023,87.1240602 C405.199083,89.6616541 405.293068,92.1052632 405.950963,94.3609023 C406.514873,96.7105263 407.548707,98.6842105 409.052467,100.18797 C410.462241,101.691729 412.247956,102.913534 414.315625,103.853383 C416.477279,104.793233 418.826903,105.169173 421.552467,105.169173 C428.601339,105.169173 435.086301,102.537594 440.819384,97.3684211 C446.552467,92.2932331 449.935925,85.9962406 450.96976,78.6654135 C451.72164,73.3082707 450.687805,68.8909774 447.774271,65.5075188 C444.766753,62.3120301 440.537429,60.5263158 435.086301,60.5263158" id="Shape" fill="#FA4616"></path>
                    <path d="M634.616377,66.1654135 L657.736677,66.1654135 L666.853219,38.1578947 L643.732918,38.1578947 L651.627655,14.2857143 L621.646452,14.2857143 L613.563745,38.1578947 L596.176527,38.1578947 L587.059986,66.1654135 L604.353219,66.1654135 C603.883294,67.7631579 599.747956,80.2631579 595.048707,94.1729323 C589.503595,110.996241 602.003595,128.289474 619.672768,128.289474 L619.672768,128.289474 L636.966001,128.289474 L644.766753,104.229323 L635.274271,104.229323 C628.507354,104.229323 624.090061,97.6503759 626.251715,91.2593985 L634.616377,66.1654135 Z" id="Path" fill="#FA4616"></path>
                    <path d="M571.364497,41.7293233 C565.631414,37.1240602 557.172768,34.7744361 546.270512,34.7744361 C532.642692,34.7744361 521.082542,37.8759398 511.872016,43.9849624 C502.849459,50 497.680286,58.3646617 496.082542,69.6428571 C495.800587,71.8045113 495.706602,73.7781955 496.176527,75.4699248 C497.680286,81.1090226 501.90961,85.4323308 509.146452,88.2518797 C511.308106,89.0977444 513.09382,89.4736842 514.40961,89.8496241 C515.631414,90.2255639 524.184046,92.1992481 525.40585,92.575188 C526.72164,92.9511278 528.037429,93.4210526 529.635174,94.0789474 C531.608858,94.8308271 532.924647,95.8646617 533.770512,96.9924812 C534.710362,98.3082707 535.086301,99.906015 534.804347,101.503759 C534.522392,103.665414 533.676527,105.639098 532.266753,107.236842 C530.950963,108.834586 529.353219,110.056391 527.567504,110.808271 C525.875775,111.56015 524.184046,111.842105 522.398331,111.842105 C519.672768,111.842105 517.511113,111.090226 515.913369,109.680451 C514.78555,108.646617 513.46976,106.672932 513.8457,103.289474 L483.394572,103.289474 C483.112617,104.323308 482.924647,105.357143 482.830662,106.296992 C481.702843,114.097744 483.864497,120.112782 489.40961,124.530075 C495.142692,129.135338 503.977279,131.484962 515.537429,131.484962 C529.447204,131.484962 541.383294,128.195489 551.063745,121.710526 C559.522392,116.071429 565.161489,108.364662 567.323144,98.7781955 C568.075023,94.1729323 568.544948,81.7669173 554.447204,76.5977444 C550.96976,75.1879699 545.800587,74.1541353 543.544948,73.6842105 L543.169008,73.5902256 L543.075023,73.5902256 C542.981038,73.5902256 542.699083,73.5902256 542.699083,73.5902256 L542.323144,73.4962406 C539.973519,72.9323308 538.187805,72.462406 537.153971,72.2744361 C535.932166,71.9924812 534.428407,71.5225564 532.830662,70.8646617 C530.856978,70.018797 529.541189,69.0789474 528.695324,67.8571429 C527.849459,66.5413534 527.567504,65.037594 527.755474,63.4398496 C528.225399,60.3383459 529.447204,57.8007519 531.984798,56.0150376 C534.334422,54.4172932 536.778031,53.5714286 539.315625,53.5714286 C541.195324,53.5714286 542.887053,53.9473684 544.202843,54.6992481 C545.612617,55.5451128 550.687805,59.4924812 546.270512,66.1654135 L576.15773,66.1654135 C577.28555,62.406015 577.755474,59.7744361 577.849459,59.3045113 C579.071264,51.8796992 576.90961,46.1466165 571.364497,41.7293233" id="Path" fill="#FA4616"></path>
                    <path d="M368.826903,144.924812 C370.424647,144.924812 371.834422,145.300752 373.056226,145.958647 C374.372016,146.616541 375.311865,147.650376 376.063745,148.87218 C376.815625,150.093985 377.191565,151.503759 377.191565,153.007519 C377.191565,155.357143 376.439685,157.236842 374.84194,158.740602 C373.244196,160.244361 371.270512,161.090226 368.920888,161.090226 L363.8457,161.090226 L363.8457,169.454887 L359.804347,169.454887 L359.804347,144.924812 L368.826903,144.924812 Z M368.544948,157.236842 C369.202843,157.236842 369.766753,157.142857 370.330662,156.954887 C370.894572,156.766917 371.364497,156.484962 371.740437,156.109023 C372.116377,155.733083 372.492316,155.263158 372.680286,154.699248 C372.868256,154.135338 373.056226,153.571429 373.056226,153.007519 C373.056226,152.161654 372.868256,151.503759 372.492316,150.845865 C372.116377,150.18797 371.552467,149.718045 370.894572,149.342105 C370.236677,148.966165 369.484798,148.778195 368.544948,148.778195 L363.751715,148.778195 L363.751715,157.330827 L368.544948,157.330827 L368.544948,157.236842 Z M399.559986,159.962406 C399.559986,162.781955 398.620136,165.131579 396.646452,167.011278 C394.766753,168.890977 392.323144,169.830827 389.40961,169.830827 C386.496076,169.830827 384.146452,168.890977 382.172768,167.011278 C380.293068,165.131579 379.259234,162.781955 379.259234,159.962406 C379.259234,158.082707 379.729159,156.390977 380.575023,154.887218 C381.420888,153.383459 382.642692,152.161654 384.240437,151.315789 C385.838181,150.469925 387.52991,150 389.40961,150 C391.289309,150 392.981038,150.469925 394.578783,151.315789 C396.176527,152.161654 397.304347,153.383459 398.244196,154.887218 C399.090061,156.390977 399.559986,158.082707 399.559986,159.962406 M389.40961,166.165414 C390.631414,166.165414 391.665249,165.883459 392.605098,165.413534 C393.544948,164.943609 394.296828,164.191729 394.766753,163.25188 C395.330662,162.31203 395.518632,161.278195 395.518632,160.056391 C395.518632,158.270677 394.954722,156.766917 393.826903,155.639098 C392.699083,154.511278 391.195324,153.853383 389.40961,153.853383 C387.623895,153.853383 386.120136,154.417293 384.992316,155.639098 C383.864497,156.766917 383.300587,158.270677 383.300587,160.056391 C383.300587,161.842105 383.864497,163.345865 384.992316,164.473684 C386.120136,165.601504 387.623895,166.165414 389.40961,166.165414 M410.556226,157.988722 C411.214121,158.082707 411.684046,158.176692 411.966001,158.270677 C412.247956,158.364662 412.71788,158.458647 413.28179,158.552632 C413.8457,158.740602 414.315625,158.834586 414.691565,159.022556 C414.973519,159.210526 415.443444,159.398496 415.819384,159.680451 C416.195324,159.962406 416.571264,160.338346 416.759234,160.620301 C416.947204,160.996241 417.135174,161.466165 417.323144,161.93609 C417.511113,162.5 417.605098,163.06391 417.605098,163.721805 C417.605098,165.601504 416.947204,167.011278 415.537429,168.139098 C414.127655,169.266917 412.247956,169.830827 409.992316,169.830827 C407.642692,169.830827 405.856978,169.266917 404.447204,168.045113 C403.037429,166.917293 402.28555,165.319549 402.28555,163.345865 L406.138933,163.345865 C406.232918,164.285714 406.608858,165.037594 407.266753,165.601504 C408.018632,166.165414 408.958482,166.353383 410.180286,166.353383 C410.838181,166.353383 411.496076,166.259398 412.059986,166.071429 C412.623895,165.883459 412.999835,165.601504 413.375775,165.225564 C413.65773,164.849624 413.8457,164.379699 413.8457,163.909774 C413.8457,163.62782 413.751715,163.345865 413.751715,163.157895 C413.65773,162.969925 413.46976,162.68797 413.28179,162.5 C413.09382,162.31203 412.811865,162.218045 412.623895,162.030075 C412.435925,161.93609 412.059986,161.842105 411.684046,161.654135 C411.308106,161.56015 410.932166,161.466165 410.650211,161.37218 C410.368256,161.278195 409.992316,161.278195 409.522392,161.184211 C409.052467,161.090226 408.582542,160.996241 408.300587,160.996241 C408.018632,160.902256 407.548707,160.808271 407.078783,160.714286 C406.608858,160.620301 406.232918,160.432331 405.950963,160.338346 C405.669008,160.244361 405.293068,160.056391 404.917128,159.868421 C404.541189,159.680451 404.259234,159.398496 403.977279,159.210526 C403.789309,158.928571 403.507354,158.646617 403.319384,158.270677 C403.131414,157.894737 402.943444,157.518797 402.849459,157.142857 C402.755474,156.672932 402.661489,156.203008 402.661489,155.639098 C402.661489,153.947368 403.319384,152.537594 404.635174,151.503759 C405.950963,150.469925 407.736677,149.906015 409.898331,149.906015 C412.059986,149.906015 413.8457,150.469925 415.161489,151.597744 C416.477279,152.725564 417.135174,154.135338 417.229159,156.015038 L413.563745,156.015038 C413.563745,155.169173 413.187805,154.417293 412.52991,153.947368 C411.872016,153.477444 410.932166,153.195489 409.804347,153.195489 C408.770512,153.195489 407.924647,153.383459 407.266753,153.853383 C406.608858,154.229323 406.326903,154.793233 406.326903,155.545113 C406.326903,155.827068 406.420888,156.109023 406.420888,156.296992 C406.420888,156.484962 406.702843,156.672932 406.890813,156.860902 C407.078783,157.048872 407.360737,157.142857 407.548707,157.236842 C407.736677,157.330827 408.018632,157.424812 408.394572,157.518797 C408.770512,157.612782 409.146452,157.706767 409.334422,157.706767 C409.710362,157.894737 410.086301,157.894737 410.556226,157.988722 M430.011113,165.883459 L432.172768,165.883459 L432.172768,169.454887 L429.259234,169.454887 C427.191565,169.454887 425.499835,168.890977 424.372016,167.669173 C423.150211,166.447368 422.586301,164.849624 422.586301,162.781955 L422.586301,153.947368 L419.202843,153.947368 L419.202843,153.195489 L425.78179,146.240602 L426.439685,146.240602 L426.439685,150.657895 L432.078783,150.657895 L432.078783,153.947368 L426.439685,153.947368 L426.439685,162.5 C426.439685,163.62782 426.72164,164.473684 427.379534,165.131579 C428.037429,165.601504 428.883294,165.883459 430.011113,165.883459 M464.22164,159.962406 C464.22164,162.781955 463.28179,165.131579 461.308106,167.011278 C459.428407,168.890977 456.984798,169.830827 454.071264,169.830827 C451.15773,169.830827 448.808106,168.890977 446.834422,167.011278 C444.954722,165.131579 443.920888,162.781955 443.920888,159.962406 C443.920888,158.082707 444.390813,156.390977 445.236677,154.887218 C446.082542,153.383459 447.304347,152.161654 448.902091,151.315789 C450.499835,150.469925 452.191565,150 454.071264,150 C455.950963,150 457.642692,150.469925 459.240437,151.315789 C460.744196,152.161654 461.966001,153.383459 462.90585,154.887218 C463.751715,156.390977 464.22164,158.082707 464.22164,159.962406 M454.071264,166.165414 C455.293068,166.165414 456.326903,165.883459 457.266753,165.413534 C458.206602,164.849624 458.958482,164.191729 459.428407,163.25188 C459.992316,162.31203 460.180286,161.278195 460.180286,160.056391 C460.180286,158.270677 459.616377,156.766917 458.488557,155.639098 C457.360737,154.511278 455.856978,153.853383 454.071264,153.853383 C452.28555,153.853383 450.78179,154.417293 449.653971,155.639098 C448.526151,156.766917 447.962241,158.270677 447.962241,160.056391 C447.962241,161.842105 448.526151,163.345865 449.653971,164.473684 C450.875775,165.601504 452.28555,166.165414 454.071264,166.165414 M478.695324,150.657895 L478.695324,153.853383 L473.338181,153.853383 L473.338181,169.360902 L469.484798,169.360902 L469.484798,153.853383 L465.913369,153.853383 L465.913369,150.657895 L469.484798,150.657895 L469.484798,149.06015 C469.484798,145.112782 471.458482,143.045113 475.499835,143.045113 L478.695324,143.045113 L478.695324,146.146617 L476.3457,146.146617 C475.311865,146.146617 474.466001,146.334586 473.996076,146.804511 C473.526151,147.274436 473.244196,148.026316 473.244196,149.06015 L473.244196,150.56391 L478.695324,150.56391 L478.695324,150.657895 Z M506.044948,169.360902 L503.883294,164.003759 L492.981038,164.003759 L490.913369,169.360902 L486.684046,169.360902 L496.552467,144.830827 L500.311865,144.830827 L510.462241,169.360902 L506.044948,169.360902 Z M498.432166,150.18797 L494.390813,160.526316 L502.473519,160.526316 L498.432166,150.18797 Z M516.947204,153.101504 C518.262993,151.315789 520.236677,150.37594 522.680286,150.37594 L524.372016,150.37594 L524.372016,154.041353 L522.304347,154.041353 C519.108858,154.041353 517.511113,155.827068 517.511113,159.304511 L517.511113,169.360902 L513.65773,169.360902 L513.65773,150.469925 L516.289309,150.469925 L516.947204,153.101504 Z M548.620136,150.093985 C550.59382,150.093985 552.191565,150.75188 553.413369,152.161654 C554.635174,153.477444 555.293068,155.263158 555.293068,157.424812 L555.293068,169.454887 L551.439685,169.454887 L551.439685,158.364662 C551.439685,157.330827 551.251715,156.484962 550.96976,155.733083 C550.687805,154.981203 550.21788,154.417293 549.747956,154.041353 C549.184046,153.665414 548.526151,153.477444 547.774271,153.477444 C546.458482,153.477444 545.424647,154.041353 544.578783,155.075188 C543.732918,156.109023 543.356978,157.424812 543.356978,159.022556 L543.356978,169.360902 L539.503595,169.360902 L539.503595,158.270677 C539.503595,156.766917 539.22164,155.545113 538.563745,154.699248 C537.90585,153.853383 537.059986,153.477444 535.838181,153.477444 C534.616377,153.477444 533.488557,154.041353 532.642692,155.075188 C531.796828,156.109023 531.326903,157.424812 531.326903,159.022556 L531.326903,169.360902 L527.473519,169.360902 L527.473519,150.469925 L530.199083,150.469925 L530.856978,152.913534 C531.608858,151.973684 532.454722,151.315789 533.488557,150.75188 C534.522392,150.281955 535.556226,150 536.778031,150 C537.999835,150 539.127655,150.281955 540.161489,150.845865 C541.101339,151.409774 541.947204,152.255639 542.511113,153.289474 C543.169008,152.255639 544.108858,151.503759 545.142692,150.845865 C546.176527,150.37594 547.304347,150.093985 548.620136,150.093985 M578.507354,159.962406 C578.507354,160.338346 578.507354,160.714286 578.413369,161.278195 L563.09382,161.278195 C563.28179,162.781955 563.939685,164.003759 564.973519,164.849624 C566.007354,165.695489 567.323144,166.165414 568.826903,166.165414 C569.578783,166.165414 570.236677,166.071429 570.894572,165.789474 C571.552467,165.601504 572.116377,165.225564 572.586301,164.849624 C573.056226,164.473684 573.526151,163.909774 573.808106,163.345865 L577.943444,163.345865 C577.191565,165.319549 575.96976,166.917293 574.372016,168.045113 C572.774271,169.172932 570.894572,169.736842 568.732918,169.736842 C565.913369,169.736842 563.65773,168.796992 561.778031,166.917293 C559.898331,165.037594 558.958482,162.68797 558.958482,159.868421 C558.958482,157.048872 559.898331,154.699248 561.778031,152.819549 C563.65773,150.93985 565.913369,150 568.732918,150 C570.612617,150 572.304347,150.469925 573.808106,151.315789 C575.311865,152.255639 576.439685,153.383459 577.191565,154.887218 C578.037429,156.484962 578.507354,158.176692 578.507354,159.962406 M568.826903,153.571429 C567.417128,153.571429 566.195324,153.947368 565.161489,154.793233 C564.127655,155.639098 563.46976,156.766917 563.187805,158.176692 L574.559986,158.176692 C574.372016,157.236842 573.902091,156.390977 573.432166,155.733083 C572.868256,155.075188 572.210362,154.511278 571.458482,154.135338 C570.706602,153.759398 569.766753,153.571429 568.826903,153.571429 M592.605098,150.093985 C594.766753,150.093985 596.552467,150.845865 597.868256,152.255639 C599.184046,153.759398 599.84194,155.639098 599.84194,157.988722 L599.84194,169.360902 L595.988557,169.360902 L595.988557,158.834586 C595.988557,157.142857 595.612617,155.827068 594.860737,154.887218 C594.108858,153.947368 593.075023,153.571429 591.665249,153.571429 C590.161489,153.571429 588.939685,154.135338 587.999835,155.169173 C587.059986,156.203008 586.590061,157.612782 586.590061,159.304511 L586.590061,169.454887 L582.736677,169.454887 L582.736677,150.56391 L585.462241,150.56391 L586.214121,153.195489 C586.966001,152.255639 587.90585,151.503759 589.03367,150.93985 C589.973519,150.37594 591.195324,150.093985 592.605098,150.093985 M605.011113,143.609023 L609.052467,143.609023 L609.052467,147.556391 L605.011113,147.556391 L605.011113,143.609023 Z M605.105098,150.469925 L608.958482,150.469925 L608.958482,169.360902 L605.105098,169.360902 L605.105098,150.469925 Z M630.293068,150.469925 L633.300587,150.469925 L633.300587,169.360902 L630.105098,169.360902 L629.729159,167.011278 C627.943444,168.890977 625.59382,169.736842 622.868256,169.736842 C620.048707,169.736842 617.699083,168.796992 615.819384,166.917293 C613.939685,165.037594 612.999835,162.68797 612.999835,159.868421 C612.999835,157.048872 613.939685,154.699248 615.819384,152.819549 C617.699083,150.93985 620.048707,150 622.868256,150 C625.687805,150 627.943444,150.93985 629.729159,152.819549 L630.293068,150.469925 Z M617.041189,159.962406 C617.041189,161.74812 617.605098,163.25188 618.826903,164.379699 C620.048707,165.601504 621.458482,166.165414 623.244196,166.165414 C625.02991,166.165414 626.53367,165.601504 627.661489,164.379699 C628.789309,163.157895 629.353219,161.74812 629.353219,159.962406 C629.353219,158.176692 628.789309,156.672932 627.661489,155.545113 C626.53367,154.417293 625.02991,153.759398 623.244196,153.759398 C622.116377,153.759398 620.988557,154.041353 620.048707,154.605263 C619.108858,155.169173 618.356978,155.921053 617.793068,156.860902 C617.323144,157.706767 617.041189,158.740602 617.041189,159.962406" id="Shape" fill="#FA4616"></path>
                    <path d="M202.379534,37.9699248 L167.793068,90.037594 L159.428407,37.9699248 L130.575023,37.9699248 L143.920888,123.026316 L143.262993,124.06015 C139.503595,129.699248 135.556226,133.740602 131.514873,135.996241 C127.379534,138.25188 122.116377,139.379699 115.161489,139.379699 L111.308106,139.379699 L103.037429,164.943609 L112.71788,164.943609 C125.78179,164.943609 140.537429,162.593985 148.620136,157.894737 C156.796828,153.195489 165.913369,143.609023 175.78179,129.511278 L236.590061,37.9699248 L202.379534,37.9699248 Z" id="Path" fill="#281E78"></path>
                </g>
            </g>
        </g>
    </g>
</svg>