<?xml version="1.0" encoding="UTF-8"?>
<svg width="980px" height="680px" viewBox="0 0 980 680" version="1.1" xmlns="http://www.w3.org/2000/svg" xmlns:xlink="http://www.w3.org/1999/xlink">
    <title>AM HayPost</title>
    <defs>
        <linearGradient x1="50%" y1="0%" x2="50%" y2="100%" id="linearGradient-1">
            <stop stop-color="#FFFFFF" offset="0%"></stop>
            <stop stop-color="#EDEDED" offset="100%"></stop>
        </linearGradient>
        <rect id="path-2" x="0" y="0" width="900" height="600" rx="80"></rect>
        <filter x="-6.7%" y="-10.0%" width="113.3%" height="120.0%" filterUnits="objectBoundingBox" id="filter-3">
            <feMorphology radius="2.5" operator="dilate" in="SourceAlpha" result="shadowSpreadOuter1"></feMorphology>
            <feOffset dx="0" dy="0" in="shadowSpreadOuter1" result="shadowOffsetOuter1"></feOffset>
            <feGaussianBlur stdDeviation="17.5" in="shadowOffsetOuter1" result="shadowBlurOuter1"></feGaussianBlur>
            <feColorMatrix values="0 0 0 0 0   0 0 0 0 0   0 0 0 0 0  0 0 0 0.5 0" type="matrix" in="shadowBlurOuter1"></feColorMatrix>
        </filter>
    </defs>
    <g id="AM-HayPost" stroke="none" stroke-width="1" fill="none" fill-rule="evenodd">
        <g transform="translate(40, 40)">
            <g id="Rectangle">
                <use fill="black" fill-opacity="1" filter="url(#filter-3)" xlink:href="#path-2"></use>
                <use fill="url(#linearGradient-1)" fill-rule="evenodd" xlink:href="#path-2"></use>
            </g>
            <g id="Logo" transform="translate(50, 216)" fill-rule="nonzero">
                <path d="M278.621143,41.5068908 L252.350959,121.893654 C250.774748,126.096883 249.723941,128.198498 246.571519,129.774709 C244.995308,130.300113 242.893693,130.825516 240.266675,130.825516 L236.588849,130.825516 L236.063445,132.401728 L230.284005,149.740049 L229.758601,151.31626 C229.758601,151.31626 240.792078,151.31626 244.469904,151.31626 C252.876363,151.31626 258.655804,149.740049 263.90984,146.062223 C272.841703,139.757379 275.994125,131.876324 278.621143,123.995269 L305.942135,40.9814871 L278.621143,41.5068908 L278.621143,41.5068908 Z" id="Path" fill="#281E78"></path>
                <path d="M129.406498,5.77944049 L1.20800005,5.77944049 L0.682596367,5.77944049 C-0.368210994,15.2367067 -3.52063308,58.3198085 23.2749546,90.8948367 C39.0370651,109.809369 61.1040196,121.893654 90.0012221,126.096883 L98.9330846,99.3012956 C75.289919,97.1996809 56.9007902,87.7424147 44.8165055,73.5565153 C34.3084319,60.9468269 30.1052025,45.1847165 28.5289914,32.5750282 L120.474636,32.5750282 L125.203269,18.3891288 L125.203269,18.3891288 L129.406498,5.77944049 Z" id="Path" fill="#281E78"></path>
                <path d="M796.669172,49.387946 C792.465943,43.0831018 785.110291,39.9306797 775.653025,39.9306797 C773.551411,39.9306797 773.026007,39.9306797 770.924392,40.4560834 C768.822777,40.9814871 766.721163,40.9814871 765.144952,41.5068908 C763.043337,42.0322944 760.941722,42.5576981 759.365511,43.6085055 C757.263896,44.1339092 755.687685,45.1847165 753.586071,46.2355239 C753.060667,46.7609276 752.00986,47.2863313 751.484456,47.8117349 C750.959052,48.3371386 749.908245,48.8625423 749.382841,49.387946 L749.382841,49.387946 L748.332034,42.0322944 L727.315887,42.0322944 L712.604584,87.7424147 C706.299739,106.656947 696.842473,105.080736 694.740858,105.080736 C690.537629,105.080736 682.13117,101.928314 687.385207,87.217011 L702.09651,42.0322944 L674.250115,42.0322944 L656.911793,94.5726625 C653.759371,104.555332 654.284775,112.436388 658.488004,118.741232 C662.691234,125.046076 670.046885,128.198498 679.504152,128.198498 C681.605766,128.198498 682.13117,128.198498 684.232785,127.673094 C686.3344,127.147691 688.436014,127.147691 690.012225,126.622287 C692.11384,126.096883 694.215455,125.57148 695.791666,124.520672 C697.893281,123.995269 699.469492,122.944461 701.571106,121.893654 C703.147317,120.842847 704.723528,120.317443 705.774336,119.266635 L706.825143,126.622287 L727.84129,126.622287 C727.84129,126.622287 743.077997,79.3359558 743.603401,78.8105521 C749.908245,62.523038 758.840107,63.5738454 760.941722,63.5738454 C765.144952,63.5738454 773.551411,66.7262674 768.297374,81.4375705 L753.586071,126.622287 L781.432466,126.622287 L798.770787,74.081919 C800.872402,63.5738454 800.346998,55.6927901 796.669172,49.387946 Z" id="Path" fill="#FA4616"></path>
                <g id="Group" transform="translate(290.18, 0)" fill="#FA4616">
                    <path d="M77.234341,41.5068908 L25.7447803,41.5068908 L39.9306797,61.4722306 C43.0831018,65.6754601 48.3371386,68.3024785 53.5911754,68.3024785 L68.3024785,68.3024785 L77.234341,41.5068908 Z" id="Path"></path>
                    <path d="M138.181168,6.30484417 L130.300113,6.30484417 L132.401728,0 L104.029929,0 L101.928314,6.30484417 L3.73321769e-14,6.30484417 L14.7113031,25.7447803 C17.8637251,29.9480098 23.1177619,32.5750282 28.3717988,32.5750282 L93.5218551,32.5750282 L79.3359558,76.7089374 L67.2516711,76.7089374 C63.0484417,76.7089374 58.8452122,79.3359558 57.7944049,83.5391852 L51.4895607,102.979121 L105.60614,102.979121 C143.960608,102.453718 166.027563,81.9629742 175.484829,57.2690012 C185.467499,29.4226061 167.603774,6.30484417 138.181168,6.30484417 Z M147.113031,55.1673865 C142.384397,67.2516711 129.249305,77.234341 111.38558,77.234341 L106.656947,77.234341 L120.842847,33.1004319 L130.300113,33.1004319 C146.062223,32.5750282 152.367067,42.5576981 147.113031,55.1673865 Z" id="Shape"></path>
                    <polygon id="Path" points="90.8948367 126.622287 63.0484417 126.622287 68.3024785 109.809369 96.1488735 109.809369"></polygon>
                </g>
                <g id="Group" transform="translate(445.1741, 137.1304)" fill="#FA4616">
                    <path d="M60.4214233,17.8637251 L60.4214233,6.83024785 L56.7435975,6.83024785 L56.7435975,17.8637251 L56.7435975,21.0161472 C56.7435975,21.0161472 56.7435975,22.5923583 56.2181938,23.6431656 C55.6927901,25.7447803 54.1165791,26.7955877 52.0149644,27.3209914 L52.0149644,30.9988172 C56.2181938,30.4734135 58.3198085,28.3717988 59.3706159,24.1685693 C59.8960196,22.5923583 59.8960196,20.4907435 59.8960196,20.4907435 L60.4214233,17.8637251 Z" id="Path"></path>
                    <path d="M243.261904,24.1685693 L243.261904,21.0161472 L243.261904,21.0161472 C236.431656,20.4907435 232.228427,16.8129178 232.228427,12.0842847 C232.228427,6.83024785 236.431656,3.67782576 243.261904,3.15242208 L243.261904,3.15242208 L243.261904,0.525403681 L246.93973,0.525403681 L246.93973,3.15242208 L246.93973,3.15242208 C253.769978,3.67782576 257.973207,6.83024785 257.973207,12.0842847 C257.973207,17.3383215 253.769978,20.4907435 246.93973,21.0161472 L246.93973,21.0161472 L246.93973,24.1685693 L243.261904,24.1685693 Z M246.93973,17.8637251 L246.93973,17.8637251 C252.193767,17.3383215 254.820785,15.2367067 254.820785,12.0842847 C254.820785,8.93186257 252.193767,6.83024785 247.465134,6.30484417 L246.93973,6.30484417 L246.93973,17.8637251 Z M242.7365,6.30484417 C236.431656,6.83024785 235.380849,9.45726625 235.380849,12.0842847 C235.380849,14.1858994 236.431656,17.3383215 242.7365,17.8637251 L243.261904,17.8637251 L242.7365,6.30484417 L242.7365,6.30484417 Z" id="Shape"></path>
                    <path d="M21.5415509,21.0161472 C19.4399362,20.4907435 17.3383215,20.4907435 16.8129178,19.9653399 C13.135092,18.9145325 9.98266993,17.3383215 7.88105521,14.7113031 C5.77944049,12.0842847 4.72863313,8.93186257 4.20322944,5.25403681 L4.20322944,4.20322944 L21.5415509,4.20322944 L21.5415509,0.525403681 L0,0.525403681 L0,0.525403681 C0,3.67782576 0,11.0334773 4.72863313,17.3383215 C7.35565153,20.4907435 11.0334773,23.1177619 15.7621104,24.1685693 L15.7621104,24.1685693 C15.7621104,24.1685693 16.2875141,24.1685693 16.8129178,24.1685693 C17.3383215,24.1685693 17.3383215,24.1685693 17.8637251,24.1685693 L17.8637251,24.1685693 L17.8637251,24.1685693 C18.9145325,24.1685693 19.9653399,24.693973 21.5415509,24.693973 L21.5415509,21.0161472 Z" id="Path"></path>
                    <path d="M104.029929,24.693973 C101.928314,24.693973 100.352103,24.1685693 99.3012956,22.5923583 C98.2504883,21.0161472 97.7250846,19.4399362 97.7250846,17.3383215 L97.7250846,6.83024785 L101.40291,6.83024785 L101.40291,16.8129178 C101.40291,18.3891288 101.928314,19.4399362 102.453718,20.4907435 C102.979121,21.5415509 104.029929,21.5415509 105.60614,21.5415509 C107.182351,21.5415509 108.233158,21.0161472 108.758562,19.9653399 C109.809369,18.9145325 110.334773,17.8637251 110.334773,16.2875141 L110.334773,6.83024785 L114.012599,6.83024785 L114.012599,24.1685693 L111.38558,24.1685693 L110.860177,21.5415509 C110.334773,22.5923583 109.283966,23.1177619 108.233158,23.6431656 C106.656947,24.693973 105.080736,24.693973 104.029929,24.693973 Z" id="Path"></path>
                    <path d="M290.548235,24.693973 C288.446621,24.693973 286.87041,24.1685693 285.819602,22.5923583 C284.768795,21.0161472 284.243391,19.4399362 284.243391,17.3383215 L284.243391,6.83024785 L287.921217,6.83024785 L287.921217,16.8129178 C287.921217,18.3891288 288.446621,19.4399362 288.972024,20.4907435 C289.497428,21.5415509 290.548235,21.5415509 292.124446,21.5415509 C293.700657,21.5415509 294.751465,21.0161472 295.276868,19.9653399 C296.327676,18.9145325 296.85308,17.8637251 296.85308,16.2875141 L296.85308,6.83024785 L300.530905,6.83024785 L300.530905,24.1685693 L297.903887,24.1685693 L297.378483,21.5415509 C296.85308,22.5923583 295.802272,23.1177619 294.751465,23.6431656 C292.64985,24.693973 291.599043,24.693973 290.548235,24.693973 Z" id="Path"></path>
                    <path d="M272.159107,6.83024785 C274.260721,6.83024785 275.836932,7.35565153 276.88774,8.93186257 C277.938547,10.5080736 278.463951,12.0842847 278.463951,14.1858994 L278.463951,24.693973 L274.786125,24.693973 L274.786125,14.7113031 C274.786125,13.135092 274.260721,12.0842847 273.735318,11.0334773 C273.209914,9.98266993 272.159107,9.98266993 270.582896,9.98266993 C269.006684,9.98266993 267.955877,10.5080736 267.430473,11.558881 C266.379666,12.6096883 265.854262,13.6604957 265.854262,15.2367067 L265.854262,24.693973 L262.176437,24.693973 L262.176437,7.35565153 L264.803455,7.35565153 L265.328859,9.98266993 C265.854262,8.93186257 266.90507,8.40645889 267.955877,7.88105521 C269.532088,7.35565153 271.108299,6.83024785 272.159107,6.83024785 Z" id="Path"></path>
                    <path d="M32.0496245,24.693973 C30.4734135,24.693973 28.8972024,24.1685693 27.8463951,22.5923583 C26.7955877,21.5415509 26.270184,19.9653399 26.270184,17.8637251 L26.270184,6.83024785 L29.9480098,6.83024785 L29.9480098,17.3383215 C29.9480098,18.3891288 29.9480098,18.9145325 30.4734135,19.9653399 C30.9988172,20.4907435 30.9988172,21.0161472 31.5242208,21.5415509 C32.0496245,22.0669546 32.5750282,22.0669546 33.1004319,22.0669546 C34.1512392,22.0669546 35.2020466,21.5415509 36.252854,20.4907435 C36.7782576,19.4399362 37.3036613,18.3891288 37.3036613,16.8129178 L37.3036613,6.83024785 L40.9814871,6.83024785 L40.9814871,17.3383215 C40.9814871,18.9145325 41.5068908,19.9653399 42.0322944,20.4907435 C42.5576981,21.0161472 43.6085055,21.5415509 44.6593129,21.5415509 C45.7101202,21.5415509 46.7609276,21.0161472 47.8117349,19.9653399 C48.3371386,18.9145325 48.8625423,17.8637251 48.8625423,16.2875141 L48.8625423,6.83024785 L52.5403681,6.83024785 L52.5403681,24.1685693 L48.8625423,24.1685693 L48.3371386,22.0669546 C47.8117349,23.1177619 46.7609276,23.6431656 45.7101202,24.1685693 C44.6593129,24.693973 43.6085055,24.693973 42.5576981,24.693973 C41.5068908,24.693973 40.4560834,24.1685693 39.405276,23.6431656 C38.3544687,23.1177619 37.829065,22.5923583 37.3036613,21.5415509 C36.7782576,22.5923583 35.7274503,23.1177619 34.6766429,23.6431656 C34.1512392,24.693973 33.1004319,24.693973 32.0496245,24.693973 Z" id="Path"></path>
                    <path d="M72.5057079,24.693973 C70.9294969,24.693973 69.3532858,24.1685693 68.3024785,22.5923583 C67.2516711,21.5415509 66.7262674,19.9653399 66.7262674,17.8637251 L66.7262674,6.83024785 L70.4040932,6.83024785 L70.4040932,17.3383215 C70.4040932,18.3891288 70.4040932,18.9145325 70.9294969,19.9653399 C71.4549006,20.4907435 71.4549006,21.0161472 71.9803042,21.5415509 C72.5057079,22.0669546 73.0311116,22.0669546 73.5565153,22.0669546 C74.6073226,22.0669546 75.65813,21.5415509 76.7089374,20.4907435 C77.234341,19.4399362 77.7597447,18.3891288 77.7597447,16.8129178 L77.7597447,6.83024785 L81.4375705,6.83024785 L81.4375705,17.3383215 C81.4375705,18.9145325 81.9629742,19.9653399 82.4883779,20.4907435 C83.0137815,21.0161472 84.0645889,21.5415509 85.1153963,21.5415509 C86.1662036,21.5415509 87.217011,21.0161472 88.2678183,19.9653399 C88.793222,18.9145325 89.3186257,17.8637251 89.3186257,16.2875141 L89.3186257,6.83024785 L92.9964515,6.83024785 L92.9964515,24.1685693 L90.3694331,24.1685693 L89.8440294,22.0669546 C89.3186257,23.1177619 88.2678183,23.6431656 87.217011,24.1685693 C86.1662036,24.693973 85.1153963,24.693973 84.0645889,24.693973 C83.0137815,24.693973 81.9629742,24.1685693 80.9121668,23.6431656 C79.8613595,23.1177619 79.3359558,22.5923583 78.8105521,21.5415509 C78.2851484,22.5923583 77.234341,23.1177619 76.1835337,23.6431656 C75.1327263,24.693973 74.081919,24.693973 72.5057079,24.693973 Z" id="Path"></path>
                    <path d="M154.994086,24.693973 C153.417875,24.693973 151.841664,24.1685693 150.790856,22.5923583 C149.740049,21.5415509 149.214645,19.9653399 149.214645,17.8637251 L149.214645,6.83024785 L152.892471,6.83024785 L152.892471,17.3383215 C152.892471,18.3891288 152.892471,18.9145325 153.417875,19.9653399 C153.943278,20.4907435 153.943278,21.0161472 154.468682,21.5415509 C154.994086,22.0669546 155.519489,22.0669546 156.044893,22.0669546 C157.0957,22.0669546 158.146508,21.5415509 159.197315,20.4907435 C159.722719,19.4399362 160.248123,18.3891288 160.248123,16.8129178 L160.248123,6.83024785 L163.925948,6.83024785 L163.925948,17.3383215 C163.925948,18.9145325 164.451352,19.9653399 164.976756,20.4907435 C165.502159,21.0161472 166.552967,21.5415509 167.603774,21.5415509 C168.654581,21.5415509 169.705389,21.0161472 170.756196,19.9653399 C171.2816,18.9145325 171.807004,17.8637251 171.807004,16.2875141 L171.807004,6.83024785 L175.484829,6.83024785 L175.484829,24.1685693 L172.857811,24.1685693 L172.332407,22.0669546 C171.807004,23.1177619 170.756196,23.6431656 169.705389,24.1685693 C168.654581,24.693973 167.603774,24.693973 166.552967,24.693973 C165.502159,24.693973 164.451352,24.1685693 163.400545,23.6431656 C162.349737,23.1177619 161.824334,22.5923583 161.29893,21.5415509 C160.773526,22.5923583 159.722719,23.1177619 158.671912,23.6431656 C157.0957,24.693973 156.044893,24.693973 154.994086,24.693973 Z" id="Path"></path>
                    <path d="M141.33359,7.35565153 C140.282783,6.83024785 139.231975,6.30484417 138.181168,6.30484417 C137.130361,6.30484417 136.079553,6.30484417 135.028746,6.83024785 C134.503342,7.35565153 133.452535,7.88105521 132.927131,8.40645889 L132.927131,6.83024785 L129.249305,6.83024785 L129.249305,6.83024785 L129.249305,6.83024785 L129.249305,16.2875141 C129.249305,17.8637251 128.723902,18.9145325 128.198498,19.9653399 C127.673094,21.0161472 126.622287,21.5415509 125.046076,21.5415509 C123.995269,21.5415509 122.944461,21.0161472 122.419058,20.4907435 C121.893654,19.9653399 121.36825,18.3891288 121.36825,17.3383215 L121.36825,6.83024785 L117.690424,6.83024785 L117.690424,17.8637251 C117.690424,22.0669546 119.792039,23.1177619 120.842847,23.6431656 C121.893654,24.1685693 122.944461,24.693973 123.995269,24.693973 C125.046076,24.693973 126.096883,24.693973 127.147691,24.1685693 C127.673094,23.6431656 128.723902,23.1177619 129.249305,22.5923583 L129.249305,24.1685693 L132.927131,24.1685693 L132.927131,24.1685693 L132.927131,24.1685693 L132.927131,14.7113031 C132.927131,13.135092 133.452535,12.0842847 133.977939,11.0334773 C134.503342,9.98266993 135.55415,9.45726625 137.130361,9.45726625 C138.181168,9.45726625 139.231975,9.98266993 139.757379,10.5080736 C140.282783,11.0334773 140.808186,12.6096883 140.808186,13.6604957 L140.808186,23.6431656 L144.486012,23.6431656 L144.486012,12.6096883 C143.960608,9.45726625 141.858994,7.88105521 141.33359,7.35565153 Z" id="Path"></path>
                    <path d="M327.326493,7.35565153 C326.275686,6.83024785 325.224878,6.30484417 324.174071,6.30484417 C323.123264,6.30484417 322.072456,6.30484417 321.021649,6.83024785 C320.496245,7.35565153 319.445438,7.88105521 318.920034,8.40645889 L318.920034,6.83024785 L315.242208,6.83024785 L315.242208,6.83024785 L315.242208,6.83024785 L315.242208,16.2875141 C315.242208,17.8637251 314.716805,18.9145325 314.191401,19.9653399 C313.665997,21.0161472 312.61519,21.5415509 311.038979,21.5415509 C309.988172,21.5415509 308.937364,21.0161472 308.411961,20.4907435 C307.886557,19.9653399 307.361153,18.3891288 307.361153,17.3383215 L307.361153,6.83024785 L303.683327,6.83024785 L303.683327,17.8637251 C303.683327,22.0669546 305.784942,23.1177619 306.835749,23.6431656 C307.886557,24.1685693 308.937364,24.693973 309.988172,24.693973 C311.038979,24.693973 312.089786,24.693973 313.140594,24.1685693 C313.665997,23.6431656 314.716805,23.1177619 315.242208,22.5923583 L315.242208,24.1685693 L318.920034,24.1685693 L318.920034,24.1685693 L318.920034,24.1685693 L318.920034,14.7113031 C318.920034,13.135092 319.445438,12.0842847 319.970841,11.0334773 C320.496245,9.98266993 321.547053,9.45726625 323.123264,9.45726625 C324.174071,9.45726625 325.224878,9.98266993 325.750282,10.5080736 C326.275686,11.0334773 326.801089,12.6096883 326.801089,13.6604957 L326.801089,23.6431656 L330.478915,23.6431656 L330.478915,12.6096883 C330.478915,9.45726625 328.3773,7.88105521 327.326493,7.35565153 Z" id="Path"></path>
                    <path d="M192.297747,6.83024785 L192.297747,16.2875141 C192.297747,17.8637251 191.772343,18.9145325 190.721536,19.9653399 C189.670729,21.0161472 188.619921,21.5415509 187.569114,21.5415509 C185.992903,21.5415509 185.467499,21.0161472 184.416692,20.4907435 C183.891288,19.4399362 183.365885,18.3891288 183.365885,16.8129178 L183.365885,9.98266993 L183.365885,6.83024785 L183.365885,2.6270184 L183.365885,0.525403681 L180.213462,0.525403681 L176.010233,0.525403681 L176.010233,3.15242208 L180.213462,3.15242208 L180.213462,6.83024785 L180.213462,9.98266993 L180.213462,17.3383215 C180.213462,19.4399362 180.738866,21.5415509 181.789673,22.5923583 C182.840481,24.1685693 184.416692,24.693973 186.518307,24.693973 C187.569114,24.693973 189.145325,24.693973 190.196132,24.1685693 C191.24694,23.6431656 192.297747,23.1177619 192.823151,22.0669546 L193.348554,24.693973 L195.975573,24.693973 L195.975573,6.83024785 L192.297747,6.83024785 Z" id="Path"></path>
                    <path d="M215.415509,8.93186257 C214.364702,7.35565153 212.788491,6.83024785 210.686876,6.83024785 C209.636069,6.83024785 208.059858,6.83024785 207.00905,7.35565153 C205.958243,7.88105521 205.432839,8.40645889 204.907435,8.93186257 L204.907435,0 L201.22961,0 L201.22961,6.83024785 L201.22961,24.1685693 L201.22961,30.9988172 L204.907435,30.9988172 L204.907435,24.1685693 L204.907435,14.7113031 C204.907435,13.135092 205.432839,12.0842847 206.483646,11.0334773 C207.534454,9.98266993 208.585261,9.45726625 209.636069,9.45726625 C211.21228,9.45726625 211.737683,9.98266993 212.788491,10.5080736 C213.313894,11.558881 213.839298,12.6096883 213.839298,14.1858994 L213.839298,24.1685693 L217.517124,24.1685693 L217.517124,13.6604957 C217.517124,12.0842847 216.466316,10.5080736 215.415509,8.93186257 Z" id="Path"></path>
                </g>
                <path d="M581.253663,128.198498 C586.5077,128.723902 594.914159,127.147691 600.6936,124.520672 C604.896829,122.944461 608.574655,120.842847 612.252481,118.215828 L613.303288,126.096883 L634.319435,126.096883 L661.640427,41.5068908 L633.794031,41.5068908 L619.082728,87.217011 C614.354095,102.453718 604.896829,104.029929 600.168196,104.555332 C594.914159,105.080736 586.5077,101.928314 590.71093,89.3186257 L605.947636,42.0322944 L578.101241,42.0322944 L561.288324,92.9964515 C555.508883,111.38558 561.288324,126.622287 581.253663,128.198498 Z" id="Path" fill="#FA4616"></path>
                <path d="M534.492736,39.405276 C529.238699,38.8798724 520.83224,40.4560834 515.0528,43.0831018 C510.84957,44.6593129 507.171744,46.7609276 503.493919,49.387946 L502.443111,41.5068908 L481.426964,41.5068908 L454.105973,126.096883 L481.952368,126.096883 L496.663671,80.3867631 C501.392304,65.1500564 510.84957,63.5738454 515.578203,63.0484417 C520.83224,62.523038 529.238699,65.6754601 525.03547,78.2851484 L509.798763,125.57148 L537.645158,125.57148 L554.458076,74.6073226 C560.76292,56.2181938 554.458076,40.9814871 534.492736,39.405276 Z" id="Path" fill="#FA4616"></path>
                <path d="M186.675499,128.198498 C180.896059,128.198498 175.642022,127.147691 171.438793,124.520672 C168.28637,122.419058 166.184756,120.317443 164.608545,117.165021 C164.083141,117.690424 163.557737,117.690424 163.032334,118.215828 C161.456123,119.266635 159.354508,120.842847 157.778297,121.36825 C156.202086,122.419058 154.100471,123.469865 151.998856,123.995269 C149.897242,125.046076 148.321031,125.57148 146.219416,126.096883 C144.117801,126.622287 142.016186,127.147691 140.439975,127.147691 C138.338361,128.198498 137.812957,128.198498 135.711342,128.198498 C125.728672,128.198498 118.898425,125.046076 114.695195,118.741232 C110.491966,112.436388 109.966562,104.029929 113.118984,94.5726625 L130.457305,42.0322944 L158.303701,42.0322944 L143.592397,87.217011 C138.338361,101.40291 146.74482,104.555332 150.948049,105.080736 C153.049664,105.080736 163.032334,106.656947 168.811774,87.7424147 L183.523077,42.0322944 L211.369472,42.0322944 L196.132766,89.3186257 C191.929536,101.928314 200.861399,104.555332 205.064628,104.555332 C209.793261,104.555332 217.148913,102.453718 221.877546,87.217011 L236.588849,41.5068908 L264.435244,41.5068908 L237.114253,126.096883 L216.098105,126.096883 L215.572702,118.215828 C211.894876,120.842847 207.691647,122.944461 204.013821,124.520672 C197.708977,127.147691 192.45494,128.198498 186.675499,128.198498 Z" id="Path" fill="#281E78"></path>
            </g>
        </g>
    </g>
</svg>