<?xml version="1.0" encoding="UTF-8"?>
<svg width="980px" height="680px" viewBox="0 0 980 680" version="1.1" xmlns="http://www.w3.org/2000/svg" xmlns:xlink="http://www.w3.org/1999/xlink">
    <title>AR Correo Argentino</title>
    <defs>
        <linearGradient x1="50%" y1="0%" x2="50%" y2="100%" id="linearGradient-1">
            <stop stop-color="#FFFFFF" offset="0%"></stop>
            <stop stop-color="#EDEDED" offset="100%"></stop>
        </linearGradient>
        <rect id="path-2" x="0" y="0" width="900" height="600" rx="80"></rect>
        <filter x="-6.7%" y="-10.0%" width="113.3%" height="120.0%" filterUnits="objectBoundingBox" id="filter-3">
            <feMorphology radius="2.5" operator="dilate" in="SourceAlpha" result="shadowSpreadOuter1"></feMorphology>
            <feOffset dx="0" dy="0" in="shadowSpreadOuter1" result="shadowOffsetOuter1"></feOffset>
            <feGaussianBlur stdDeviation="17.5" in="shadowOffsetOuter1" result="shadowBlurOuter1"></feGaussianBlur>
            <feColorMatrix values="0 0 0 0 0   0 0 0 0 0   0 0 0 0 0  0 0 0 0.5 0" type="matrix" in="shadowBlurOuter1"></feColorMatrix>
        </filter>
    </defs>
    <g id="AR-Correo-Argentino" stroke="none" stroke-width="1" fill="none" fill-rule="evenodd">
        <g transform="translate(40, 40)">
            <g id="Rectangle">
                <use fill="black" fill-opacity="1" filter="url(#filter-3)" xlink:href="#path-2"></use>
                <use fill="url(#linearGradient-1)" fill-rule="evenodd" xlink:href="#path-2"></use>
            </g>
            <g id="Logo" transform="translate(91, 50)" fill="#162269" fill-rule="nonzero">
                <path d="M708.902932,74.6024251 C687.653922,73.6981552 666.40493,74.1502901 644.703819,74.1502901 C647.868559,90.8782238 651.485416,105.797737 653.293836,121.169369 C665.04861,240.073461 571.462571,344.962105 451.202245,347.674744 C364.397871,349.935248 284.827076,297.49084 252.727545,216.111676 C250.014906,209.330164 246.850132,207.06966 239.616486,207.06966 C165.470968,207.522479 91.7775848,207.06966 17.6320669,207.06966 C14.919428,207.06966 11.7548252,207.06966 8.13791644,207.06966 C8.59073489,210.686398 8.59073489,213.851172 9.04184459,216.563811 C48.8271569,404.640159 234.190866,528.969409 424.075515,494.15724 C593.615441,463.413943 716.588406,319.191951 718.848927,147.391538 C719.301062,126.142528 716.136288,104.441418 714.327868,83.1924252 C714.327868,80.4797864 711.163128,74.6023909 708.90259,74.6023909 L708.902932,74.6024251 Z" id="path4586"></path>
                <path d="M443.968547,280.313375 C523.087173,280.763727 585.929984,218.824315 586.83661,140.609975 C587.28632,63.7518698 524.443493,0.909076295 447.585404,0.00241571859 C369.371014,-0.447277287 305.623916,61.9434496 305.16935,139.705757 C304.720672,216.563811 367.11051,279.858773 443.968547,280.313375 L443.968547,280.313375 Z M445.776967,66.4645086 C487.370768,66.4645086 520.374535,99.4682923 520.374535,141.062076 C520.374535,181.751641 486.466549,214.755442 445.776967,214.755442 C405.087385,214.755442 371.631518,181.299506 371.631518,140.609975 C371.631518,99.4682923 404.635284,66.9166265 445.776967,66.4645086 L445.776967,66.4645086 Z" id="path4588"></path>
                <path d="M246.397997,74.1503243 C243.685358,74.1503243 240.520585,74.1503243 236.903847,74.1503243 C164.114563,74.1503243 91.3254498,74.1503243 18.5363368,74.1503243 C16.7279678,74.1503243 14.467464,73.6981893 13.1110591,74.1503243 C10.3984203,75.5065583 6.7815116,77.7671817 6.7815116,79.5756019 C4.52100773,99.4682923 2.26050387,118.908865 -2.51194381e-13,139.705757 C80.4748945,139.705757 158.237321,139.705757 235.999577,139.705757 C239.616486,118.004646 243.233223,96.7556534 246.397997,74.1503243 Z" id="path4602"></path>
            </g>
        </g>
    </g>
</svg>