<?xml version="1.0" encoding="UTF-8"?>
<svg width="980px" height="680px" viewBox="0 0 980 680" version="1.1" xmlns="http://www.w3.org/2000/svg" xmlns:xlink="http://www.w3.org/1999/xlink">
    <title>AR Correo Argentino text</title>
    <defs>
        <linearGradient x1="50%" y1="0%" x2="50%" y2="100%" id="linearGradient-1">
            <stop stop-color="#FFFFFF" offset="0%"></stop>
            <stop stop-color="#EDEDED" offset="100%"></stop>
        </linearGradient>
        <rect id="path-2" x="0" y="0" width="900" height="600" rx="80"></rect>
        <filter x="-6.7%" y="-10.0%" width="113.3%" height="120.0%" filterUnits="objectBoundingBox" id="filter-3">
            <feMorphology radius="2.5" operator="dilate" in="SourceAlpha" result="shadowSpreadOuter1"></feMorphology>
            <feOffset dx="0" dy="0" in="shadowSpreadOuter1" result="shadowOffsetOuter1"></feOffset>
            <feGaussianBlur stdDeviation="17.5" in="shadowOffsetOuter1" result="shadowBlurOuter1"></feGaussianBlur>
            <feColorMatrix values="0 0 0 0 0   0 0 0 0 0   0 0 0 0 0  0 0 0 0.5 0" type="matrix" in="shadowBlurOuter1"></feColorMatrix>
        </filter>
    </defs>
    <g id="AR-Correo-Argentino-text" stroke="none" stroke-width="1" fill="none" fill-rule="evenodd">
        <g transform="translate(40, 40)">
            <g id="Rectangle">
                <use fill="black" fill-opacity="1" filter="url(#filter-3)" xlink:href="#path-2"></use>
                <use fill="url(#linearGradient-1)" fill-rule="evenodd" xlink:href="#path-2"></use>
            </g>
            <g id="Logo" transform="translate(50, 199)">
                <path d="M251.678486,31.4598093 C244.465747,31.152865 237.253014,31.3063372 229.886814,31.3063372 C230.961049,36.9844475 232.188751,42.0487098 232.802599,47.2664385 C236.792626,87.6271053 205.02589,123.230385 164.204865,124.151159 C134.740089,124.918462 107.730671,107.116794 96.8348433,79.4935448 C95.9140684,77.1916364 94.8398212,76.4243336 92.3844407,76.4243336 C67.2165723,76.5780377 42.2021762,76.4243336 17.0343078,76.4243336 C16.1135329,76.4243336 15.0393437,76.4243336 13.8116245,76.4243336 C13.9653286,77.6519948 13.9653286,78.726242 14.1184528,79.6470169 C27.6231329,143.487434 90.5427747,185.68961 154.996999,173.873008 C212.545434,163.437539 254.287234,114.482993 255.054543,56.1672612 C255.208015,48.954522 254.133768,41.5883223 253.51992,34.375589 C253.51992,33.454814 252.445685,31.4597977 251.67837,31.4597977 L251.678486,31.4598093 Z" id="path4586" fill="#162269" fill-rule="nonzero"></path>
                <path d="M161.749467,101.286095 C188.605401,101.438962 209.936692,80.4143197 210.244436,53.8653354 C210.397085,27.7767095 189.065789,6.44542474 162.977169,6.13766893 C136.428167,5.98502566 114.789926,27.1628614 114.635629,53.5584084 C114.48333,79.6470169 135.660864,101.131785 161.749467,101.286095 L161.749467,101.286095 Z M162.363315,28.6974844 C176.481866,28.6974844 187.684626,39.9002503 187.684626,54.0187959 C187.684626,67.8304146 176.174939,79.0331863 162.363315,79.0331863 C148.55169,79.0331863 137.19547,67.6769424 137.19547,53.8653354 C137.19547,39.9002503 148.39823,28.8509508 162.363315,28.6974844 L162.363315,28.6974844 Z" id="path4588" fill="#162269" fill-rule="nonzero"></path>
                <path d="M482.639524,124.458104 C482.639524,123.383857 482.639524,122.156137 482.639524,120.775004 C480.184143,120.775004 478.035649,120.775004 475.887213,120.775004 C469.748674,120.775004 469.748674,120.775004 468.214069,126.60654 C468.214069,126.760244 467.907241,126.913368 467.600238,127.220429 C462.229003,121.695779 455.630164,118.933454 447.95702,119.393813 C440.130403,119.854345 433.531565,122.92344 428.467273,128.755034 C419.412996,139.190503 419.412996,155.764453 428.313569,166.353336 C432.610558,171.417627 437.981735,174.793782 444.580632,175.714557 C453.327965,176.942277 461.307996,175.254025 467.75342,167.427583 C467.75342,170.650266 467.907125,173.105705 467.75342,175.407613 C466.986118,182.466927 462.382243,187.070801 455.169515,188.14499 C447.956788,189.219238 441.357891,185.996554 438.595566,180.16496 C438.288738,179.551129 437.674791,178.476882 437.06096,178.476882 C432.610558,178.323178 428.006683,178.476882 423.556222,178.476882 C424.630469,189.219238 430.922422,196.278551 442.125194,199.501234 C461.461468,205.179356 483.867011,195.818134 482.792764,169.576077 C482.178933,154.843678 482.63906,139.650862 482.63906,124.458104 L482.639524,124.458104 Z M452.407422,163.284066 C443.353145,163.284066 436.90772,156.992114 436.90772,148.091309 C436.754016,139.037031 443.199673,132.591606 452.407422,132.591606 C461.4617,132.591606 467.907125,138.883559 467.907125,147.937836 C467.75342,156.685228 461.308228,163.284066 452.407422,163.284066 Z" id="path4590" fill="#162269" fill-rule="nonzero"></path>
                <path d="M350.661795,101.131785 C349.89448,99.1367633 348.820245,98.2159884 346.671768,98.3694605 C343.295595,98.5231647 339.919422,98.6762888 336.389783,98.3694605 C333.780918,98.2157564 332.860143,99.1367633 331.939368,101.43873 C322.578158,125.225407 313.063482,149.012084 303.548811,172.79876 C303.241867,173.719535 302.934957,174.64031 302.47457,176.021502 C306.924984,176.021502 311.221932,175.867798 315.365419,176.021502 C317.360435,176.021502 318.28121,175.254141 318.895058,173.412591 C320.583148,168.962188 322.424698,164.665258 323.959321,160.214855 C324.573169,158.526777 325.340483,158.066361 327.182033,158.066361 C336.543243,158.066361 345.904459,158.220065 355.41913,158.066361 C357.414146,158.066361 358.181455,158.680192 358.795309,160.368327 C360.483392,164.81873 362.171482,169.422605 364.013026,173.873008 C364.319854,174.64031 365.394217,175.714557 366.314992,175.86803 C370.918867,176.021502 375.522742,175.86803 380.586975,175.86803 C379.512728,172.952233 378.438481,170.496852 377.517706,168.041413 C368.309956,145.942814 359.409157,123.537329 350.661795,101.131785 Z M329.33051,146.403231 C333.16707,136.428178 337.003631,126.760012 341.147118,116.171129 C345.290605,126.60654 348.973705,136.428178 352.963732,146.403231 C344.830218,146.403231 337.310558,146.403231 329.33051,146.403231 L329.33051,146.403231 Z" id="path4592" fill="#162269" fill-rule="nonzero"></path>
                <path d="M329.177044,84.0974196 C338.69172,87.320161 348.513318,87.320161 358.027994,83.7905913 C368.770373,79.9540193 375.062325,71.9739889 377.21082,60.3108007 C372.300001,60.3108007 367.849598,60.3108007 363.245717,60.3108007 C361.557634,60.3108007 360.94378,61.0781035 360.176471,62.4592949 C358.488382,65.0681477 356.800293,67.9839447 354.344895,69.8254947 C345.750993,75.9639751 331.632447,73.2016502 325.340483,64.6077892 C318.434671,55.2465558 318.588132,36.8310565 325.493955,27.4698463 C330.558218,20.7174947 337.617496,18.8759448 345.597544,19.6432592 C352.963744,20.4105678 358.181467,24.0936676 360.483404,31.3064068 C360.636876,31.9202548 361.404179,32.8410298 362.018033,32.8410298 C366.928823,32.9945019 371.839642,32.8410298 376.903875,32.8410298 C376.750171,31.9202548 376.750171,31.1529462 376.597047,30.6925587 C373.374364,16.5740073 363.85967,8.13357211 347.89958,6.44548275 C327.642531,4.14354534 311.835896,13.965143 306.618167,33.1479567 C304.623157,40.5141564 304.31623,48.0338167 305.850859,55.4000164 C308.613183,69.211664 315.672456,79.4936028 329.177154,84.0974776 L329.177044,84.0974196 Z" id="path4594" fill="#162269" fill-rule="nonzero"></path>
                <path d="M524.534814,120.007643 C506.733145,117.245318 493.074993,126.760012 490.312668,143.947792 C487.703815,160.061383 497.525396,174.333366 512.718211,176.635332 C528.217914,179.090713 542.489897,170.95721 544.638391,158.066361 C540.648347,158.066361 536.811775,158.066361 532.975261,158.066361 C530.980239,158.066361 529.905991,158.526893 528.678272,160.214855 C525.455589,164.665258 519.31705,166.199863 513.638986,164.051427 C508.421223,162.056405 505.19854,157.45253 505.352012,151.927881 C519.010164,151.927881 532.668316,151.927881 546.172996,151.927881 C548.628435,135.967762 539.267213,122.30961 524.534814,120.007643 L524.534814,120.007643 Z M530.980239,142.566659 C522.539792,142.566659 514.252817,142.566659 505.505426,142.566659 C506.426201,135.660818 512.871626,130.903529 520.084411,131.670831 C526.68325,132.284662 531.287125,136.888537 530.980239,142.566659 Z" id="path4596" fill="#162269" fill-rule="nonzero"></path>
                <path d="M724.036037,121.235362 C714.828287,117.39879 704.54629,119.854229 697.793979,127.220429 C697.487151,127.527257 697.18009,127.834259 696.412788,128.44809 C695.952255,125.685765 695.645485,123.230385 695.185068,120.928418 C690.734666,120.928418 686.74468,120.928418 682.447691,120.928418 C682.447691,139.343917 682.447691,157.45253 682.447691,175.714557 C687.35851,175.714557 692.115857,175.714557 697.026618,175.714557 C697.026618,174.486838 697.026618,173.259177 697.026618,172.18493 C697.026618,163.591011 696.873494,154.997092 697.180322,146.556703 C697.180322,143.947792 697.947625,141.032053 699.175345,138.576615 C701.630725,133.358909 707.615791,131.056943 713.447327,132.284662 C718.204674,133.358909 721.120471,137.195481 721.580888,143.027017 C721.734592,144.408209 721.734592,145.942814 721.734592,147.324006 C721.734592,155.764453 721.734592,164.051427 721.734592,172.338402 C721.734592,173.412591 721.734592,174.486838 721.734592,175.714557 C726.798883,175.714557 731.55623,175.714557 736.927408,175.714557 C736.466876,162.209877 736.466876,149.012084 735.392802,135.81429 C734.778914,129.215393 730.635455,123.997687 724.036559,121.235362 L724.036037,121.235362 Z" id="path4598" fill="#162269" fill-rule="nonzero"></path>
                <path d="M592.825633,120.46806 C583.157467,118.166093 574.71702,120.161231 567.964709,128.908506 C567.504177,125.839237 567.197348,123.537329 566.890462,121.08189 C562.593474,121.08189 558.450015,121.08189 554.153085,121.08189 C554.153085,139.49739 554.153085,157.606002 554.153085,175.86803 C559.063846,175.86803 563.821193,175.86803 568.732012,175.86803 C568.732012,174.333366 568.732012,173.259177 568.732012,172.031458 C568.732012,162.97718 568.578308,153.922903 569.03884,144.868567 C569.345669,137.042009 575.177321,132.13119 582.696993,132.284662 C589.449362,132.438366 593.132462,137.042009 593.285876,145.175511 C593.285876,146.096286 593.285876,147.017061 593.285876,147.937836 C593.285876,156.224811 593.285876,164.358314 593.285876,172.645288 C593.285876,173.719535 593.285876,174.793782 593.285876,175.86803 C598.503639,175.86803 603.107514,175.86803 607.864861,175.86803 C607.864861,163.744483 608.325393,151.927881 607.711157,140.111278 C607.097268,129.368865 601.572618,122.463082 592.825285,120.46806 L592.825633,120.46806 Z" id="path4600" fill="#162269" fill-rule="nonzero"></path>
                <path d="M94.6863491,31.3063488 C93.7655741,31.3063488 92.691327,31.3063488 91.4636657,31.3063488 C66.7561558,31.3063488 42.048704,31.3063488 17.3412521,31.3063488 C16.7274215,31.3063488 15.9601187,31.1528766 15.4997022,31.3063488 C14.5789273,31.7667072 13.351208,32.5340506 13.351208,33.1478987 C12.5839052,39.9002503 11.8166024,46.4991356 11.0492996,53.5584084 C38.3656041,53.5584084 64.7611918,53.5584084 91.1567214,53.5584084 C92.3844407,46.1922087 93.6121019,38.9794754 94.6863491,31.3063488 Z" id="path4602" fill="#162269" fill-rule="nonzero"></path>
                <path d="M635.948584,106.502963 C631.498182,106.502963 627.354665,106.502963 622.904263,106.502963 C622.44373,110.339535 621.830016,114.022635 621.676543,117.705735 C621.522839,120.314587 620.448882,121.08189 618.146916,120.928418 C616.151894,120.774714 614.156872,120.928418 612.161907,120.928418 C612.161907,125.378879 612.161907,129.368865 612.161907,133.512381 C615.231119,133.512381 618.146916,133.512381 621.216185,133.512381 C621.216185,135.200459 621.216185,136.735065 621.216185,137.962784 C621.369889,145.789342 621.216185,153.615958 621.676717,161.442517 C621.983546,167.274111 624.899401,171.571041 630.270578,174.02648 C636.716003,176.788805 643.468372,176.021502 650.220741,175.86803 C650.220741,171.417627 650.220741,167.427583 650.220741,163.284066 C647.458416,163.284066 645.002978,163.284066 642.547597,163.284066 C637.79025,163.130942 636.255645,161.749461 636.102173,156.992114 C635.948468,151.927881 636.102173,146.863589 635.948468,141.799356 C635.948468,139.037031 635.948468,136.274706 635.948468,133.205437 C641.166174,133.205437 645.770049,133.205437 650.527396,133.205437 C650.527396,128.908506 650.527396,125.071934 650.527396,120.775004 C645.616634,120.775004 641.01276,120.775004 635.948468,120.775004 C635.948468,115.864185 635.948468,111.26031 635.948468,106.502963 L635.948584,106.502963 Z" id="path4604" fill="#162269" fill-rule="nonzero"></path>
                <path d="M462.229003,81.4885669 C462.229003,74.7362558 462.075298,68.1373589 462.229003,61.3849898 C462.382707,52.177246 469.288316,45.2714338 478.649538,45.1179732 C479.723727,45.1179732 480.797974,45.1179732 482.025693,45.1179732 C482.025693,39.5933234 482.025693,34.5290611 482.025693,29.3113383 C473.738719,29.3113383 467.293294,32.6875112 462.075588,39.5933234 C461.4617,36.0636841 461.154813,33.1478987 460.694397,30.2321132 C456.243994,30.2321132 451.947064,30.2321132 447.650075,30.2321132 C447.650075,48.6476125 447.650075,66.7561674 447.650075,85.0181945 C452.560894,85.0181945 457.164769,85.0181945 462.229003,85.0181945 C462.229003,83.6370611 462.229003,82.562814 462.229003,81.4885669 L462.229003,81.4885669 Z" id="path4606" fill="#162269" fill-rule="nonzero"></path>
                <path d="M502.589687,81.3350947 C502.589687,74.7362558 502.589687,68.1373589 502.589687,61.538462 C502.743391,53.4049479 507.807392,47.2664501 515.787423,45.4249001 C517.935917,44.9645416 519.930939,44.9645416 522.232847,44.6575857 C522.232847,39.4398629 522.232847,34.2221342 522.232847,29.0044113 C513.792401,29.0044113 507.65392,32.5340506 502.282743,39.2863965 C501.82221,35.6032966 501.361968,32.8409718 501.055023,29.9251863 C496.604621,29.9251863 492.30769,29.9251863 488.010702,29.9251863 C488.010702,48.3406856 488.010702,66.4492811 488.010702,84.7113082 C492.921521,84.7113082 497.678868,84.7113082 502.589687,84.7113082 C502.589687,83.6370611 502.589687,82.562814 502.589687,81.3350947 L502.589687,81.3350947 Z" id="path4608" fill="#162269" fill-rule="nonzero"></path>
                <path d="M399.002474,130.596584 C398.695646,127.527315 398.541942,125.378879 398.081699,123.076912 C397.927995,122.30961 397.160925,120.928418 396.393622,120.928418 C392.55705,120.774714 388.567006,120.774714 384.730492,120.774714 C384.730492,139.4971 384.730492,157.605712 384.730492,175.714267 C389.641253,175.714267 394.245127,175.714267 399.309419,175.714267 C399.309419,167.580765 399.309419,159.907621 399.309419,152.234477 C399.309419,144.100974 404.527124,137.962494 412.507155,136.274416 C414.655649,135.813884 416.650671,135.813884 418.952579,135.660528 C418.952579,130.442822 418.952579,125.378589 418.952579,120.160825 C410.665605,120.007121 404.373652,123.690453 399.002474,130.596294 L399.002474,130.596584 Z" id="path4610" fill="#162269" fill-rule="nonzero"></path>
                <path d="M660.19562,120.775004 C657.740239,120.6213 656.972936,121.388835 656.972936,123.844215 C657.126641,140.264692 656.972936,156.531755 656.972936,172.952233 C656.972936,173.873008 657.126641,174.947255 657.126641,175.86803 C662.190874,175.86803 666.794749,175.86803 671.552096,175.86803 C671.552096,157.606002 671.552096,139.343917 671.552096,120.928418 C667.868996,120.774714 664.032424,120.928418 660.19591,120.774714 L660.19562,120.775004 Z" id="path4612" fill="#162269" fill-rule="nonzero"></path>
                <path d="M664.799495,96.3744384 C659.274845,96.3744384 655.438331,99.750594 655.438331,104.814885 C655.438331,109.725704 659.274845,113.10186 664.492608,113.10186 C669.710314,113.10186 673.546886,109.725704 673.546886,104.814885 C673.70059,99.750594 670.17073,96.5279106 664.799495,96.3744384 Z" id="path4614" fill="#162269" fill-rule="nonzero"></path>
                <g id="g4634" transform="translate(-0, 0)">
                    <path d="M619.221155,42.3556478 C622.59733,43.7368102 625.359655,46.4991351 626.587355,50.1822349 C627.354667,52.4841723 627.661592,54.9395721 627.815055,56.1672721 C627.661592,61.5384593 627.047742,65.6819466 624.131955,68.9046589 C621.36963,71.9739087 617.993455,73.6619961 614.00343,73.3550712 C617.993455,73.6619961 621.36963,71.9739087 624.131955,68.9046589 C627.047742,65.6819466 627.661592,61.5384593 627.815055,56.1672721 C627.50813,54.9395721 627.201205,52.4841723 626.587355,50.1822349 C625.359655,46.4991351 622.59733,43.7368102 619.221155,42.3556478 L619.221155,42.3556478 Z" id="path4616"></path>
                    <path d="M616.151905,41.5883353 C616.305368,41.5883353 616.45883,41.5883353 616.765755,41.7417978 C616.612293,41.5883353 616.305368,41.5883353 616.151905,41.5883353 Z" id="path4618"></path>
                    <path d="M617.68653,41.8952603 C618.146918,42.0487228 618.607305,42.2021853 619.067693,42.3556478 C618.607305,42.2021853 618.146918,42.0487228 617.68653,41.8952603 Z" id="path4620"></path>
                    <g id="path4622"></g>
                    <path d="M614.770743,28.5440235 C598.350256,28.5440235 586.380182,40.8210229 586.380182,57.5484345 C586.380182,74.2758461 598.196794,86.399383 614.463818,86.399383 C630.884304,86.399383 642.854379,74.2758461 642.854379,57.394972 C642.854379,40.8210229 630.884304,28.697486 614.770743,28.5440235 Z M624.285417,68.9046589 C621.523092,71.9739087 618.146918,73.6619961 614.156893,73.3550712 C613.543043,73.3550712 612.929193,73.2016087 612.315343,73.2016087 C607.404543,72.2808337 604.028368,69.3650464 602.340281,64.4542466 C600.805656,59.8503719 600.805656,55.0930346 602.340281,50.4891599 C604.028368,45.1179726 608.785706,41.5883353 614.310355,41.4348728 C614.310355,41.4348728 614.310355,41.4348728 614.310355,41.4348728 C614.310355,41.4348728 614.310355,41.4348728 614.310355,41.4348728 C614.310355,41.4348728 614.310355,41.4348728 614.310355,41.4348728 C614.924205,41.4348728 615.538055,41.4348728 615.998443,41.5883353 C616.151905,41.5883353 616.305368,41.5883353 616.612293,41.7417978 C616.919218,41.7417978 617.226143,41.8952603 617.533068,41.8952603 C617.993455,42.0487228 618.453843,42.2021853 618.91423,42.3556478 C618.91423,42.3556478 619.067693,42.3556478 619.067693,42.3556478 C622.443867,43.7368102 625.206192,46.4991351 626.433892,50.1822349 C627.201205,52.4841723 627.50813,54.9395721 627.661592,56.1672721 C627.661592,61.5384593 627.201205,65.6819466 624.285417,68.9046589 L624.285417,68.9046589 Z" id="path4624" fill="#162269" fill-rule="nonzero"></path>
                    <path d="M614.463818,41.4348728 C615.077668,41.4348728 615.691518,41.4348728 616.151905,41.5883353 C615.538055,41.4348728 615.077668,41.4348728 614.463818,41.4348728 Z" id="path4626" fill="#162269" fill-rule="nonzero"></path>
                    <path d="M602.493743,64.4542466 C600.959119,59.8503719 600.959119,55.0930346 602.493743,50.4891599 C604.181831,45.1179726 608.939168,41.5883353 614.463818,41.4348728 C614.463818,41.4348728 614.463818,41.4348728 614.463818,41.4348728 C608.939168,41.5883353 604.181831,45.1179726 602.493743,50.4891599 C600.959119,55.0930346 600.805656,59.8503719 602.493743,64.4542466 C604.028368,69.3650464 607.404543,72.2808337 612.315343,73.2016087 C612.929193,73.3550712 613.543043,73.3550712 614.156893,73.3550712 C613.543043,73.3550712 612.929193,73.2016087 612.468805,73.2016087 C607.404543,72.2808337 604.028368,69.2115839 602.493743,64.4542466 L602.493743,64.4542466 Z" id="path4628" fill="#162269" fill-rule="nonzero"></path>
                    <path d="M619.067693,42.3556478 C619.067693,42.3556478 619.221155,42.3556478 619.221155,42.3556478 C619.221155,42.3556478 619.067693,42.3556478 619.067693,42.3556478 Z" id="path4630" fill="#162269" fill-rule="nonzero"></path>
                    <path d="M616.765755,41.7417978 C617.07268,41.7417978 617.379605,41.8952603 617.68653,41.8952603 C617.379605,41.7417978 617.07268,41.7417978 616.765755,41.7417978 Z" id="path4632" fill="#162269" fill-rule="nonzero"></path>
                </g>
                <path d="M410.358718,86.399386 C426.779196,86.399386 438.74927,74.2758393 438.74927,57.3949746 C438.74927,40.6675589 426.932668,28.5440239 410.665605,28.5440239 C394.245127,28.5440239 382.275053,40.8210253 382.275053,57.5484352 C382.275053,74.1223672 394.091655,86.399386 410.358718,86.399386 Z M398.388644,50.4891624 C400.076722,45.1179732 404.834069,41.5883339 410.358718,41.4348734 C415.576424,41.2814012 420.794129,44.8110463 422.635679,50.1822355 C423.40304,52.4841729 423.709926,54.9395709 423.863398,56.1672728 C423.709694,61.538462 423.096096,65.6819203 420.180299,68.9046617 C416.957615,72.4342894 413.121043,74.1223672 408.210224,73.2015922 C403.299405,72.2808172 399.769777,69.211606 398.235172,64.454259 C396.85398,59.8503726 397.007452,55.0930372 398.388876,50.4891624 L398.388644,50.4891624 Z" id="path4636" fill="#162269" fill-rule="nonzero"></path>
                <path d="M771.60939,177.556107 C788.029925,177.556107 800,165.432561 800,148.551667 C800,131.824304 788.18334,119.700757 771.916335,119.700757 C755.495857,119.700757 743.525783,131.977718 743.525783,148.705139 C743.372079,165.279089 755.342385,177.402635 771.60939,177.556107 Z M759.485902,141.645884 C761.173979,136.274706 765.931326,132.745078 771.455976,132.591606 C776.673682,132.437902 781.891387,135.967762 783.732937,141.338939 C784.50024,143.640906 784.807184,146.096286 784.960656,147.324006 C784.806952,152.695183 784.193353,156.838642 781.277556,160.061383 C778.054815,163.591011 774.218301,165.279089 769.307482,164.358314 C764.396663,163.437539 760.867035,160.368327 759.332429,155.61098 C758.10471,151.007106 758.10471,146.249759 759.486134,141.645884 L759.485902,141.645884 Z" id="path4638" fill="#162269" fill-rule="nonzero"></path>
                <path d="M556.454993,28.6974844 C539.881044,26.8559345 526.529836,38.0587004 525.148644,55.2464978 C523.767511,72.4342894 534.663338,85.3251389 551.697646,86.399386 C565.048912,87.320161 578.860537,77.805467 579.320895,67.2165839 C575.484323,67.2165839 571.647809,67.2165839 567.964709,67.2165839 C566.123159,67.2165839 564.741968,67.5234122 563.667721,69.211606 C560.445037,73.6620087 554.613443,75.1966143 548.935321,73.3550643 C543.717616,71.6669866 540.34146,67.0631118 540.187988,61.2315177 C553.692668,61.2315177 567.350821,61.2315177 581.162445,61.2315177 C583.464411,43.4298838 573.642773,30.5390344 556.454993,28.6974844 Z M540.648347,51.5633979 C540.648347,45.7318212 546.326469,40.9744859 553.385724,40.8210253 C560.445037,40.6675531 565.662743,44.9645126 566.123159,51.5633979 C557.52924,51.5633979 549.088793,51.5633979 540.648347,51.5633979 L540.648347,51.5633979 Z" id="path4640" fill="#162269" fill-rule="nonzero"></path>
            </g>
        </g>
    </g>
</svg>