<?xml version="1.0" encoding="UTF-8"?>
<svg width="980px" height="680px" viewBox="0 0 980 680" version="1.1" xmlns="http://www.w3.org/2000/svg" xmlns:xlink="http://www.w3.org/1999/xlink">
    <title>AT Österreichische Post</title>
    <defs>
        <linearGradient x1="50%" y1="0%" x2="50%" y2="100%" id="linearGradient-1">
            <stop stop-color="#FFFFFF" offset="0%"></stop>
            <stop stop-color="#EDEDED" offset="100%"></stop>
        </linearGradient>
        <rect id="path-2" x="0" y="0" width="900" height="600" rx="80"></rect>
        <filter x="-6.7%" y="-10.0%" width="113.3%" height="120.0%" filterUnits="objectBoundingBox" id="filter-3">
            <feMorphology radius="2.5" operator="dilate" in="SourceAlpha" result="shadowSpreadOuter1"></feMorphology>
            <feOffset dx="0" dy="0" in="shadowSpreadOuter1" result="shadowOffsetOuter1"></feOffset>
            <feGaussianBlur stdDeviation="17.5" in="shadowOffsetOuter1" result="shadowBlurOuter1"></feGaussianBlur>
            <feColorMatrix values="0 0 0 0 0   0 0 0 0 0   0 0 0 0 0  0 0 0 0.5 0" type="matrix" in="shadowBlurOuter1"></feColorMatrix>
        </filter>
    </defs>
    <g id="AT-Österreichische-Post" stroke="none" stroke-width="1" fill="none" fill-rule="evenodd">
        <g transform="translate(40, 40)">
            <g id="Rectangle">
                <use fill="black" fill-opacity="1" filter="url(#filter-3)" xlink:href="#path-2"></use>
                <use fill="url(#linearGradient-1)" fill-rule="evenodd" xlink:href="#path-2"></use>
            </g>
            <g id="Logo" transform="translate(50, 98)" fill-rule="nonzero">
                <path d="M27.9748386,19.0783995 C20.3003638,19.0783995 14.8247551,21.1263632 11.6773581,25.1791758 C7.0640502,31.2583946 9.21980155,39.5795948 9.3060316,39.9460725 C12.8414638,50.9188469 62.4021877,135.359627 77.5355622,160.969953 L90.03892,183.10952 C95.2989533,79.5903399 171.526321,18.9490544 171.526321,18.9490544 M141.496705,202.856202 C141.496705,308.768266 227.575858,394.933648 333.401692,394.933648 C422.865373,394.933648 505.25819,351.020993 600.585514,252.524713 C643.377179,208.331811 758.257168,76.3998279 780.827885,50.4230241 C791.283279,38.9975419 789.494005,31.0212619 788.222112,28.1325551 C786.368166,23.8426099 781.776415,21.1263632 776.257692,21.1048057 L573.74641,21.0616907 L565.295865,32.8967656 C532.183524,79.2885347 444.207311,202.597512 435.433403,214.324799 L426.249903,226.957502 C404.024106,258.108109 381.043797,290.228804 333.487922,290.228804 C286.643445,290.228804 247.387213,251.619298 245.985975,204.149653 C245.317692,181.406476 254.652095,158.555512 271.574743,141.438846 C288.389604,124.451526 310.981878,114.96622 333.531037,115.39737 C350.194995,115.699175 381.453389,120.700518 403.765416,150.514559 L409.844635,158.663299 L471.154203,69.3289635 L465.958842,65.0821333 C433.795032,38.8466393 382.100115,10.8218718 333.401692,10.8218718 C227.575858,10.8218718 141.496705,96.9656958 141.496705,202.856202" id="path2441" fill="#FFDD00"></path>
                <path d="M84.1106038,154.588929 L18.920683,39.8814 C18.920683,39.8814 16.2259934,36.1303926 18.4895327,31.6033148 C18.4895327,31.6033148 19.4596208,27.7229624 26.7460604,27.960095 L149.063392,27.960095 C149.063392,27.960095 97.885855,77.2836859 84.1106038,154.588929 M197.675587,9.95957124 L29.2251744,9.76555362 C29.2251744,9.76555362 10.4916948,8.79546551 3.29148533,21.6653011 C3.29148533,21.6653011 -5.48242267,35.3112071 5.61969679,53.441076 L97.6487223,215.079312 C97.6487223,215.079312 84.7788868,89.5067961 197.675587,9.95957124 M775.352276,45.6372561 C757.37331,66.3109116 639.216578,202.187919 595.390154,247.458698 C501.550297,344.381278 420.752737,387.62565 333.444807,387.62565 C231.628671,387.62565 148.804702,304.737011 148.804702,202.856202 C148.804702,100.975393 231.628671,18.1083114 333.444807,18.1083114 C378.219762,18.1083114 428.729017,43.9557701 461.862915,71.0104495 L408.637414,145.082066 C383.695371,113.500309 352.825011,108.45585 333.703497,108.089373 C309.127932,107.615107 284.617039,117.919599 266.40094,136.308158 C248.098611,154.826062 238.031252,179.617203 238.74265,204.386786 C240.230118,255.715225 282.741535,297.515244 333.531037,297.515244 C384.816362,297.515244 409.952422,262.333382 432.156661,231.22589 L441.297047,218.679417 C450.760795,206.003599 552.555374,63.2928597 577.518975,28.3265728 L776.236134,28.3696878 C778.866151,28.3696878 781.603955,30.0511738 781.841088,33.1554558 C782.035106,35.89326 782.358468,37.8334362 775.287604,45.5725836 L775.352276,45.6372561 Z M568.163014,10.2613764 C566.869563,12.0937651 437.287349,193.823604 426.810398,207.835988 L417.432879,220.727381 C395.875366,250.929457 375.503516,279.42849 333.531037,279.42849 C292.420859,279.42849 258.015067,245.496964 256.786289,203.82629 C256.225793,184.014935 264.417649,164.052678 279.270775,149.027091 C294.037672,134.130849 313.719682,125.788091 333.337019,126.176127 C351.337543,126.521047 384.449884,132.772726 403.743858,170.88641 L404.218124,171.705595 L407.343963,178.215964 L486.115118,68.0786277 C451.407521,35.2680921 388.739829,0 333.444807,0 C221.647542,0 130.717948,90.972707 130.717948,202.856202 C130.717948,314.71814 221.647542,405.733962 333.444807,405.733962 C453.455485,405.733962 547.834279,322.565075 608.367777,260.048285 C655.923651,210.897155 790.032943,56.3297828 791.369509,54.7776418 L791.283279,54.6914118 C803.118354,39.9891876 800.121859,28.3265728 798.138568,23.7994949 C794.581578,15.6076398 786.432838,10.4985091 776.753515,10.3044915 L776.753515,10.2829339 L776.214577,10.2829339 L568.400147,10.2398189" id="path2445" fill="#231F20"></path>
            </g>
        </g>
    </g>
</svg>