<?xml version="1.0" encoding="UTF-8"?>
<svg width="980px" height="680px" viewBox="0 0 980 680" version="1.1" xmlns="http://www.w3.org/2000/svg" xmlns:xlink="http://www.w3.org/1999/xlink">
    <title>AT Österreichische Post text</title>
    <defs>
        <linearGradient x1="50%" y1="0%" x2="50%" y2="100%" id="linearGradient-1">
            <stop stop-color="#FFFFFF" offset="0%"></stop>
            <stop stop-color="#EDEDED" offset="100%"></stop>
        </linearGradient>
        <rect id="path-2" x="0" y="0" width="900" height="600" rx="80"></rect>
        <filter x="-6.7%" y="-10.0%" width="113.3%" height="120.0%" filterUnits="objectBoundingBox" id="filter-3">
            <feMorphology radius="2.5" operator="dilate" in="SourceAlpha" result="shadowSpreadOuter1"></feMorphology>
            <feOffset dx="0" dy="0" in="shadowSpreadOuter1" result="shadowOffsetOuter1"></feOffset>
            <feGaussianBlur stdDeviation="17.5" in="shadowOffsetOuter1" result="shadowBlurOuter1"></feGaussianBlur>
            <feColorMatrix values="0 0 0 0 0   0 0 0 0 0   0 0 0 0 0  0 0 0 0.5 0" type="matrix" in="shadowBlurOuter1"></feColorMatrix>
        </filter>
    </defs>
    <g id="AT-Österreichische-Post-text" stroke="none" stroke-width="1" fill="none" fill-rule="evenodd">
        <g transform="translate(40, 40)">
            <g id="Rectangle">
                <use fill="black" fill-opacity="1" filter="url(#filter-3)" xlink:href="#path-2"></use>
                <use fill="url(#linearGradient-1)" fill-rule="evenodd" xlink:href="#path-2"></use>
            </g>
            <g id="Logo" transform="translate(50, 217)" fill-rule="nonzero">
                <path d="M11.4729277,7.82435603 C8.32550312,7.82435603 6.07986859,8.66425865 4.78907087,10.3263817 C2.8970797,12.8195664 3.78118772,16.2322234 3.81655204,16.3825217 C5.26648921,20.8826316 25.5921329,55.5131429 31.7985712,66.0163463 L36.9263977,75.0961357 C39.0836213,32.6412683 70.3456811,7.77130955 70.3456811,7.77130955 M58.0300563,83.1945652 C58.0300563,126.630793 93.3324905,161.96859 136.733353,161.96859 C173.423837,161.96859 207.214445,143.95931 246.309702,103.564414 C263.859246,85.4401996 310.973363,31.3327884 320.229974,20.6792867 C324.517898,15.9935142 323.784088,12.7223145 323.262465,11.5376097 C322.502132,9.77823476 320.618982,8.66425865 318.355665,8.65541757 L235.302557,8.63773541 L231.836854,13.4914885 C218.256955,32.5174932 182.176506,83.0884722 178.578186,87.8980199 L174.811886,93.0788929 C165.696732,105.854254 156.272141,119.027463 136.768718,119.027463 C117.55705,119.027463 101.457443,103.193089 100.882773,83.72503 C100.6087,74.3976904 104.436887,65.0261453 111.377135,58.0063276 C118.273178,51.0395563 127.53863,47.149481 136.7864,47.3263026 C143.620555,47.4500777 156.440121,49.5012084 165.590639,61.7284223 L168.083824,65.0703507 L193.227856,28.4329141 L191.097156,26.6912213 C177.906264,15.9316266 156.705354,4.43822229 136.733353,4.43822229 C93.3324905,4.43822229 58.0300563,39.767179 58.0300563,83.1945652" id="path2441" fill="#FFDD00"></path>
                <path d="M34.4951007,63.3993865 L7.75967398,16.3559985 C7.75967398,16.3559985 6.65453881,14.8176505 7.58285237,12.9610237 C7.58285237,12.9610237 7.98070099,11.3696292 10.9689861,11.4668811 L61.1332755,11.4668811 C61.1332755,11.4668811 40.144551,31.6952727 34.4951007,63.3993865 M81.0699122,4.08457908 L11.9857103,4.00500936 C11.9857103,4.00500936 4.30281146,3.60716074 1.34989065,8.88528566 C1.34989065,8.88528566 -2.24842901,14.4816895 2.30472732,21.917038 L40.0472991,88.2074577 C40.0472991,88.2074577 34.7691742,36.7081652 81.0699122,4.08457908 M317.98434,18.7165669 C310.610879,27.1951629 262.152918,82.9204917 244.179002,101.48676 C205.693779,141.236257 172.557411,158.971464 136.751036,158.971464 C94.9946136,158.971464 61.0271825,124.977511 61.0271825,83.1945652 C61.0271825,41.4116199 94.9946136,7.42650742 136.751036,7.42650742 C155.113959,7.42650742 175.82861,18.0269626 189.417351,29.1225184 L167.588724,59.5004701 C157.359594,46.5482875 144.699167,44.4794748 136.857129,44.3291764 C126.778297,44.1346726 116.725989,48.360709 109.255276,55.9021505 C101.749199,63.4966384 97.6204144,73.6638807 97.9121701,83.8222819 C98.5222046,104.872894 115.956815,122.015749 136.7864,122.015749 C157.81933,122.015749 168.128029,107.587106 177.234342,94.8294268 L180.98296,89.6839181 C184.864194,84.4853629 226.611775,25.9574116 236.849746,11.6171795 L318.346824,11.6348616 C319.425436,11.6348616 320.548253,12.3244659 320.645505,13.5975814 C320.725075,14.7203986 320.857691,15.5160958 317.957817,18.6900437 L317.98434,18.7165669 Z M233.012717,4.2083542 C232.482253,4.95984602 179.338519,79.4901526 175.041754,85.2368547 L171.195884,90.5238207 C162.354804,102.910174 153.999983,114.598082 136.7864,114.598082 C119.92646,114.598082 105.816096,100.682222 105.312154,83.5924138 C105.082286,75.4674611 108.441897,67.2806207 114.533401,61.1183878 C120.589541,55.0092014 128.661447,51.5877033 136.70683,51.7468427 C144.089132,51.8883 157.669032,54.4522133 165.581798,70.0832432 L165.776302,70.4192042 L167.058259,73.0892105 L199.363566,27.9201314 C185.129427,14.4640073 159.428406,0 136.751036,0 C90.9011934,0 53.6095162,37.3093587 53.6095162,83.1945652 C53.6095162,129.070931 90.9011934,166.397972 136.751036,166.397972 C185.969329,166.397972 224.675579,132.289084 249.501332,106.649951 C269.004755,86.4922881 324.005115,23.1017427 324.553262,22.4651849 L324.517898,22.4298206 C329.371651,16.4002039 328.142741,11.6171795 327.329362,9.7605526 C325.870583,6.40094211 322.528655,4.30560608 318.55901,4.22603636 L318.55901,4.21719528 L318.337983,4.21719528 L233.109969,4.19951312" id="path2445" fill="#231F20"></path>
                <path d="M446.392189,75.3790503 C441.520754,79.7288618 434.253386,78.7475018 427.640258,78.8535948 L413.547576,78.8535948 L413.547576,55.415891 L438.258396,55.521984 C442.502114,56.070131 447.267456,58.0240097 448.673188,62.5771661 C449.981668,66.8032024 449.663389,72.1255327 446.392189,75.3790503 M484.771319,49.2271349 C478.494152,35.6649178 463.853323,32.7296791 450.299947,31.8632532 L375.477885,31.7483192 L375.477885,144.516298 L413.326549,144.392523 L413.441483,103.60862 L449.866734,103.387593 C461.147952,102.839446 471.43897,99.7981139 479.139551,91.3372001 C488.79401,80.3742606 489.77537,62.5771661 484.771319,49.2271349" id="path2457" fill="#231F20"></path>
                <path d="M565.88823,119.098192 C561.87438,126.701521 553.864361,129.645601 545.394606,128.761493 C538.781478,128.222187 532.274443,123.014791 530.329405,116.613849 C527.288074,106.844455 527.615194,93.9187956 534.979814,86.2270557 C540.18721,81.1257524 548.648124,80.4803536 555.473438,82.3192983 C559.054075,83.5128441 562.422527,85.8999358 564.809618,89.2507052 C570.008174,97.5082741 570.335294,110.416251 565.88823,119.098192 M603.621961,90.7802121 C597.990193,73.7434504 580.095846,66.6971095 564.155378,64.7432307 C543.228541,62.789352 521.002066,63.4347508 504.734478,75.4851432 C491.402129,85.7938428 489.333316,103.794282 493.559353,119.098192 C500.499601,139.830525 522.726076,145.373883 542.247182,146.240309 C562.2015,146.770773 581.501578,145.250108 595.92138,132.121103 C606.433424,121.600218 608.077865,104.572297 603.621961,90.7802121" id="path2461" fill="#231F20"></path>
                <path d="M626.794432,72.709044 C621.763857,76.4399799 619.040805,82.1424767 619.040805,88.5434188 C619.040805,90.2762705 619.24415,92.0533276 619.650839,93.8657491 C622.409256,105.509452 634.760245,108.382803 644.671096,110.681484 L645.979576,110.990922 L655.218505,112.644204 C661.380738,113.634405 667.719793,114.677652 673.563747,116.87024 C675.199346,117.780871 676.826105,119.451835 676.826105,121.547171 C676.826105,121.688629 676.817264,121.821245 676.790741,121.971543 C676.808423,122.033431 676.808423,122.104159 676.808423,122.174888 C676.808423,124.615026 674.774975,126.781091 672.706162,127.647517 C667.100917,129.55719 658.69305,130.043449 652.486611,126.878343 C649.091636,124.800689 648.455079,120.999024 648.331304,117.471433 L617.590868,117.471433 C617.564344,117.93117 617.546662,118.382065 617.546662,118.824119 C617.546662,128.107253 622.073295,135.94045 629.88881,139.998506 C643.017814,146.717727 659.099739,146.461336 677.232795,145.488817 C688.178052,143.941628 701.846362,142.014272 709.39661,130.556232 C713.056817,124.553139 712.977247,115.261163 709.175583,109.841581 C702.624377,101.619376 692.863825,99.5770869 683.430392,97.6143671 L677.055973,96.1997943 L661.23044,92.5042227 C661.203916,92.4953816 660.355173,92.2213082 660.355173,92.2213082 C658.28636,91.5493861 656.137977,90.8509407 654.378602,89.2860695 C653.61827,88.6141474 653.308832,87.5001713 653.158533,86.5364935 C652.955189,85.3164245 653.432607,83.7692354 654.148734,82.7878755 C654.794133,81.8772443 655.740129,81.2406865 656.783376,80.8339968 C657.402252,80.5952876 658.047651,80.418466 658.684209,80.2770087 C661.681335,79.6139277 664.846441,79.3840596 667.878932,79.9587298 C669.452644,80.2593266 671.30043,80.7102217 672.715003,81.4970778 C675.685606,83.1415187 676.216071,86.4038773 676.339846,88.8440155 C676.914516,88.8351744 707.663758,88.6406706 708.326839,88.6318296 C708.043924,82.1955231 706.143127,77.3064058 702.500602,73.7611326 C694.923797,66.2727376 684.783077,64.8581648 674.191463,63.9740567 C658.427817,63.67346 640.568835,63.3286579 626.794432,72.709044" id="path2465" fill="#231F20"></path>
                <path d="M777.437563,63.7707119 L797.71016,63.9828978 L797.940028,82.8674452 L777.543656,83.0796312 L777.437563,115.96845 C777.667431,119.00094 779.515217,121.936179 782.317839,123.341911 C787.525236,125.189696 794.359391,124.977511 799.893907,124.314429 L800,143.207818 C785.244237,146.461336 765.944159,148.857268 751.842636,142.226458 C743.832617,137.991581 741.772645,129.212388 741.551618,120.742633 L741.551618,83.3006582 L721.279021,83.0796312 L721.172928,64.3100178 L741.445525,63.9828978 L741.657711,49.6691889 L777.216536,38.2641953" id="path2469" fill="#231F20"></path>
            </g>
        </g>
    </g>
</svg>