<?xml version="1.0" encoding="UTF-8"?>
<svg width="980px" height="680px" viewBox="0 0 980 680" version="1.1" xmlns="http://www.w3.org/2000/svg" xmlns:xlink="http://www.w3.org/1999/xlink">
    <title>AU Australia Post text</title>
    <defs>
        <rect id="path-1" x="0" y="0" width="900" height="600" rx="80"></rect>
        <filter x="-6.7%" y="-10.0%" width="113.3%" height="120.0%" filterUnits="objectBoundingBox" id="filter-2">
            <feMorphology radius="2.5" operator="dilate" in="SourceAlpha" result="shadowSpreadOuter1"></feMorphology>
            <feOffset dx="0" dy="0" in="shadowSpreadOuter1" result="shadowOffsetOuter1"></feOffset>
            <feGaussianBlur stdDeviation="17.5" in="shadowOffsetOuter1" result="shadowBlurOuter1"></feGaussianBlur>
            <feColorMatrix values="0 0 0 0 0   0 0 0 0 0   0 0 0 0 0  0 0 0 0.5 0" type="matrix" in="shadowBlurOuter1"></feColorMatrix>
        </filter>
    </defs>
    <g id="AU-Australia-Post-text" stroke="none" stroke-width="1" fill="none" fill-rule="evenodd">
        <g transform="translate(40, 40)">
            <g id="Rectangle">
                <use fill="black" fill-opacity="1" filter="url(#filter-2)" xlink:href="#path-1"></use>
                <use fill="#D71635" fill-rule="evenodd" xlink:href="#path-1"></use>
            </g>
            <g id="Logo" transform="translate(50, 192)" fill="#FFFFFF">
                <g id="g2299" transform="translate(0, 0)">
                    <path d="M305.897862,128.358864 C322.482975,128.358864 330.368093,127.240408 330.360104,114.497993 C330.360104,101.148415 322.267272,99.526653 305.897862,99.526653 L244.191018,99.5586089 L244.191018,63.040977 L304.052409,63.040977 C326.517407,63.0330143 342.878828,64.8465117 354.814357,72.7396192 C368.379637,81.8390619 374.850707,95.1886395 374.850707,113.587249 C374.850707,145.942599 355.229784,163.949749 318.832013,163.957738 L290.926523,163.957738 L290.926523,208.448341 L244.222974,208.45633 L244.206996,128.358864 L305.897862,128.358864 L305.897862,128.358864 Z" id="path2301" fill-rule="nonzero"></path>
                    <path d="M455.51539,175.8693 C475.320059,175.861311 483.820329,163.118896 483.820329,135.804589 C483.820329,108.51425 475.328048,95.7638457 455.507401,95.7718309 C435.694742,95.7718309 427.002737,108.522239 427.002737,135.820567 C427.002737,163.118896 435.71072,175.8693 455.51539,175.8693 M455.507401,59.1743376 C502.218939,59.1663503 530.939311,88.4858893 530.939311,135.804589 C530.955282,183.131278 502.234916,212.458806 455.523379,212.466795 C408.803852,212.466795 379.883761,183.147256 379.867783,135.828556 C379.867783,88.5018672 408.771896,59.1743376 455.507401,59.1743376" id="path2303" fill-rule="nonzero"></path>
                    <path d="M584.92081,160.266831 C586.135134,173.017236 593.940363,177.866544 606.690767,177.866544 C618.019134,177.866544 624.282491,173.616409 624.282491,167.345063 C624.282491,158.245621 615.79021,157.446723 598.589946,152.996864 C578.361861,147.740118 565.227986,143.28227 559.164354,139.040124 C547.827998,130.955281 542.363539,119.826639 542.363539,105.47844 C542.35555,77.3652358 564.604846,59.1583585 603.423276,59.1583585 C641.051349,59.1503724 664.459047,76.023088 665.952985,107.683397 L621.662107,107.691386 C621.542272,96.3470409 613.944757,92.112884 602.624379,92.112884 C592.726039,92.120873 587.860753,95.3564079 587.860753,102.035191 C587.860753,109.720585 595.346422,111.134634 609.494897,114.769618 C627.494059,119.419201 641.866225,122.247298 651.165392,128.518644 C663.907808,137.002936 669.771724,147.524416 669.771724,162.487767 C669.787693,194.03623 647.122971,212.45082 604.661567,212.45082 C565.619446,212.458806 541.213126,193.980307 539.791089,160.27482 L584.92081,160.266831 Z" id="path2305" fill-rule="nonzero"></path>
                    <polygon id="polygon2307" fill-rule="nonzero" points="712.233118 101.204338 670.370888 101.212327 670.370888 62.9850804 799.984022 62.9770915 800 101.204338 758.944656 101.204338 758.952645 208.392418 712.241107 208.392418"></polygon>
                    <path d="M63.712079,40.5999719 C26.8429584,51.6966585 -0.00798719295,85.9054503 1.13530166e-13,126.393577 C0.00799075744,166.873714 26.8829033,201.066528 63.7600128,212.139247 L63.712079,40.5999719 Z" id="path2309" fill-rule="nonzero"></path>
                    <path d="M89.5324468,36.805204 C87.4393353,36.805204 85.3701907,36.8850985 83.3090351,37.0289 L83.3170241,46.2162215 C84.5233594,46.1363318 85.7776285,46.0883979 87.0079306,46.0883979 C117.781463,46.0804089 142.739022,71.0219895 142.747011,101.795522 C142.755,132.337374 118.172923,157.151131 87.7029715,157.518624 L87.7189494,215.894066 C88.3420895,215.902055 88.9572406,215.918033 89.5883696,215.918033 C139.048115,215.902055 179.120815,175.78941 179.120815,126.329665 C179.088859,76.8779083 138.984203,36.7892308 89.5324468,36.805204" id="path2311" fill-rule="nonzero"></path>
                    <path d="M259.705607,8.81982862 L254.368972,26.5233977 L264.858496,26.5233977 L259.705607,8.81982862 Z M252.779166,32.1156803 L249.975036,41.9501088 L243.31223,41.9501088 L256.270348,0.671073916 L263.276679,0.671073916 L275.891271,41.9501088 L269.180532,41.9501088 L266.480258,32.1156803 L252.779166,32.1156803" id="path2313"></path>
                    <path d="M283.368952,0.671073916 L283.368952,25.5247758 L283.368952,26.7071441 C283.368952,31.2608599 283.552698,34.7360642 285.821567,37.8996983 C288.178315,41.1592002 291.397872,42.6211827 296.311092,42.6211827 C300.497315,42.6211827 303.541114,41.6145718 305.60227,39.5454272 C308.134775,37.0209111 309.301165,32.850666 309.301165,26.419541 L309.301165,0.671073916 L303.365357,0.671073916 L303.365357,26.3716071 L303.365357,27.2663723 C303.365357,30.3980506 303.301445,32.5790409 302.310812,34.2407477 C301.056543,36.3418482 299.083266,37.356448 296.311092,37.356448 C293.538917,37.356448 291.653519,36.3738041 290.375283,34.2407477 C289.328727,32.523118 289.256827,30.3421278 289.256827,27.2024605 L289.256827,26.3716071 L289.256827,0.671073916 L283.368952,0.671073916 Z" id="path2315" fill-rule="nonzero"></path>
                    <path d="M319.08766,29.8468113 C319.08766,30.0705026 319.071682,30.278216 319.063693,30.4779404 C319.039726,30.6856537 319.023748,30.8773891 319.023748,31.0851025 C319.023748,34.7680201 320.014381,37.6120952 321.947713,39.5454272 C323.984902,41.5826159 327.108591,42.6211827 331.238891,42.6211827 C335.481037,42.6211827 338.772495,41.4947372 340.985441,39.2658131 C342.990674,37.2605803 344.013263,34.4963949 344.013263,31.0291797 C344.013263,25.9322135 340.825662,23.4636202 335.952387,20.299986 L333.691507,18.8300145 C328.60253,15.5864906 325.814377,13.7969602 325.814377,10.1300205 C325.814377,8.84379554 326.317683,7.63746029 327.228426,6.71872814 C328.322915,5.63222751 329.904733,5.03305437 331.686274,5.03305437 C333.451838,5.03305437 334.793985,5.49641494 335.69674,6.40715811 C336.719328,7.43773591 337.238612,9.0515089 337.238612,11.2005432 L337.238612,12.0393856 L337.238612,12.4468234 L337.654038,12.4468234 L343.214365,12.4468234 L343.629792,12.4468234 L343.629792,12.0393856 L343.629792,11.0247858 C343.629792,7.60550439 342.663126,4.92120872 340.777728,3.0278216 C338.772495,1.01459985 335.792607,7.09563536e-15 331.933932,7.09563536e-15 C324.528152,7.09563536e-15 319.551021,4.32203558 319.551021,10.7451716 C319.551021,16.744892 322.714655,19.0537058 328.786276,22.9443368 L330.439994,23.9908925 C334.99371,26.8349677 337.757895,28.5605863 337.757895,31.8120992 C337.757895,35.1594798 335.073599,37.5801393 331.358726,37.5801393 C329.585174,37.5801393 328.29096,37.1647126 327.42815,36.2859253 C326.349639,35.2074137 325.822366,33.3379935 325.822366,30.5738081 L325.822366,29.8468113 L325.822366,29.4313846 L325.406939,29.4313846 L319.519065,29.4313846 L319.095649,29.4313846 L319.095649,29.8468113 L319.08766,29.8468113 Z" id="path2317" fill-rule="nonzero"></path>
                    <polygon id="polygon2319" points="363.881844 5.65619444 363.881844 41.9501088 357.730333 41.9501088 357.730333 5.65619444 347.784059 5.65619444 347.784059 0.671073916 373.540515 0.671073916 373.540515 5.65619444"></polygon>
                    <path d="M397.411573,7.1501328 C396.452896,6.19145578 394.94298,5.70412829 392.937747,5.70412829 L387.345464,5.70412829 L387.345464,18.2548083 L390.852624,18.2548083 C396.516808,18.2548083 398.825622,16.2975094 398.825622,11.4801574 C398.825622,9.53883638 398.354272,8.0848429 397.411573,7.1501328 M399.15317,20.5796001 C403.12369,21.6101779 404.026444,24.7738121 404.026444,29.1757374 C404.026444,30.0145798 404.002477,30.7895104 404.002477,31.5244961 C403.978511,32.1396472 403.962533,32.7388204 403.962533,33.2740817 C403.962533,36.3098923 404.314047,38.970221 405.017077,41.4228364 L405.168868,41.9501088 L404.625618,41.9501088 L399.121214,41.9501088 L398.825622,41.9501088 L398.737743,41.6545167 C397.882922,38.8823423 397.858956,35.7826199 397.827,32.5071401 C397.803033,31.3886835 397.803033,30.2222932 397.755099,29.0079689 C397.635264,24.805768 396.572731,23.4556312 393.345185,23.4556312 L387.345464,23.4556312 L387.345464,41.5266931 L387.345464,41.9421198 L386.922048,41.9421198 L381.593402,41.9421198 L381.177975,41.9421198 L381.177975,41.5266931 L381.177975,1.07851165 L381.177975,0.671073916 L381.593402,0.671073916 L392.202761,0.671073916 C397.139948,0.671073916 400.519284,1.65371787 402.540495,3.68291757 C404.186224,5.32864646 404.969143,7.65343824 404.969143,10.8010945 C404.969143,15.7622481 403.067767,18.9578381 399.15317,20.5796001" id="path2321"></path>
                    <path d="M428.752323,8.81982862 L423.415687,26.5233977 L433.881245,26.5233977 L428.752323,8.81982862 Z M435.526974,32.1156803 L421.817892,32.1156803 L419.005773,41.9501088 L412.350957,41.9501088 L425.309074,0.671073916 L432.315406,0.671073916 L444.937986,41.9501088 L438.219258,41.9501088 L435.526974,32.1156803" id="path2323"></path>
                    <polygon id="polygon2325" points="459.078472 36.4616828 459.078472 0.671073916 452.990873 0.671073916 452.990873 41.9501088 472.907389 41.9501088 472.907389 36.4616828"></polygon>
                    <polygon id="polygon2327" fill-rule="nonzero" points="479.658073 41.9501088 485.098565 41.9501088 485.529969 41.9501088 485.529969 41.534682 485.529969 1.07851165 485.529969 0.671073916 485.098565 0.671073916 479.658073 0.671073916 479.258624 0.671073916 479.258624 1.07851165 479.258624 41.534682 479.258624 41.9501088"></polygon>
                    <path d="M509.9283,8.81982862 L504.583675,26.5233977 L515.065211,26.5233977 L509.9283,8.81982862 Z M516.702951,32.1156803 L502.993869,32.1156803 L500.18175,41.9501088 L493.526934,41.9501088 L506.477062,0.671073916 L513.499372,0.671073916 L526.097985,41.9501088 L519.387246,41.9501088 L516.702951,32.1156803" id="path2329"></path>
                </g>
            </g>
        </g>
    </g>
</svg>