<?xml version="1.0" encoding="UTF-8"?>
<svg width="980px" height="680px" viewBox="0 0 980 680" version="1.1" xmlns="http://www.w3.org/2000/svg" xmlns:xlink="http://www.w3.org/1999/xlink">
    <title>AX Åland-Post alt</title>
    <defs>
        <rect id="path-1" x="0" y="0" width="900" height="600" rx="80"></rect>
        <filter x="-6.7%" y="-10.0%" width="113.3%" height="120.0%" filterUnits="objectBoundingBox" id="filter-2">
            <feMorphology radius="2.5" operator="dilate" in="SourceAlpha" result="shadowSpreadOuter1"></feMorphology>
            <feOffset dx="0" dy="0" in="shadowSpreadOuter1" result="shadowOffsetOuter1"></feOffset>
            <feGaussianBlur stdDeviation="17.5" in="shadowOffsetOuter1" result="shadowBlurOuter1"></feGaussianBlur>
            <feColorMatrix values="0 0 0 0 0   0 0 0 0 0   0 0 0 0 0  0 0 0 0.5 0" type="matrix" in="shadowBlurOuter1"></feColorMatrix>
        </filter>
    </defs>
    <g id="AX-Åland-Post-alt" stroke="none" stroke-width="1" fill="none" fill-rule="evenodd">
        <g transform="translate(40, 40)">
            <g id="Rectangle">
                <use fill="black" fill-opacity="1" filter="url(#filter-2)" xlink:href="#path-1"></use>
                <use fill="#00586B" fill-rule="evenodd" xlink:href="#path-1"></use>
            </g>
            <g id="Logo" transform="translate(218.76, 49.8617)" fill="#FFFFFF" fill-rule="nonzero">
                <g id="Group-2" transform="translate(-0, 0)">
                    <path d="M288.132072,3.68156858e-14 C295.869066,3.99689989 303.895691,6.83527807 311.920384,10.1370649 C362.366281,30.6042818 412.908722,50.8475177 463.304416,71.4286559 C437.517654,134.332523 412.329461,197.541467 386.784057,260.557325 C327.135636,236.560478 267.535487,212.401439 207.904444,188.323496 C234.384388,126.773169 260.315966,64.9505887 286.664611,3.33654252 C287.166637,2.22436168 287.649355,1.11218084 288.132072,3.68156858e-14 Z" id="Path"></path>
                    <path d="M1.84078429e-14,83.0177347 C58.1326884,106.692126 116.53956,129.883799 174.591152,153.768655 C175.736158,167.371631 177.346503,180.957229 178.846789,194.544758 C124.612526,216.753619 70.2527563,238.670919 16.0513183,260.976323 C10.5560636,201.683182 5.44698289,142.326323 1.84078429e-14,83.0177347 L1.84078429e-14,83.0177347 Z" id="Path"></path>
                    <path d="M200.507283,197.70366 C205.759248,198.622754 210.773716,201.360727 215.736051,203.264564 C265.150863,223.183414 314.532851,243.264457 363.978557,263.05587 C308.342483,263.393772 252.59635,263.05587 196.944829,263.218063 C194.720467,242.71609 192.803113,222.15233 190.24085,201.683182 C193.542636,200.23503 196.960275,198.477939 200.507283,197.70366 L200.507283,197.70366 Z" id="Path"></path>
                    <path d="M179.908767,205.69746 C181.779779,224.876787 183.986763,244.023289 185.985213,263.185238 C137.16897,263.088695 88.3353493,263.442044 39.5171754,262.974773 C86.2558029,243.861096 133.235789,224.892234 179.910698,205.69746 L179.908767,205.69746 Z" id="Path"></path>
                    <path d="M27.3333888,274.224019 C80.5674613,273.951766 133.944418,274.193125 187.209384,274.112029 C189.595939,296.838363 191.851195,319.59366 194.542827,342.302616 C138.972402,319.431467 82.8883664,297.126062 27.3333888,274.22595 L27.3333888,274.224019 Z" id="Path"></path>
                    <path d="M374.77598,274.208572 C318.286461,296.950353 261.928242,320.190299 205.373074,342.75444 C203.021275,319.867843 200.748641,296.9658 197.993291,274.112029 C256.88288,274.1603 315.901837,273.967213 374.77598,274.208572 Z" id="Path"></path>
                    <path d="M17.0341308,281.928188 C74.6358301,305.023319 132.027065,328.699641 189.595939,351.875867 C132.108161,399.305746 74.6841019,446.882371 17.0997804,494.200259 C17.2272178,423.449338 17.3256921,352.68104 17.0341308,281.928188 L17.0341308,281.928188 Z" id="Path"></path>
                    <path d="M384.542318,281.816198 C384.463152,352.582566 384.430327,423.352795 384.559696,494.121093 C326.797734,446.608187 269.180588,398.886747 211.256433,351.601684 C268.937298,328.166721 326.813181,305.13724 384.542318,281.816198 L384.542318,281.816198 Z" id="Path"></path>
                    <path d="M200.781466,356.482922 C258.914155,404.125196 317.046843,452.087995 374.984514,499.971628 C258.977873,499.987075 142.938408,500.035347 26.945284,499.95425 C84.8366138,452.23281 142.890137,404.125196 200.781466,356.484853 L200.781466,356.482922 Z" id="Path"></path>
                </g>
            </g>
        </g>
    </g>
</svg>