<?xml version="1.0" encoding="UTF-8"?>
<svg width="980px" height="680px" viewBox="0 0 980 680" version="1.1" xmlns="http://www.w3.org/2000/svg" xmlns:xlink="http://www.w3.org/1999/xlink">
    <title>AX Åland-Post text</title>
    <defs>
        <linearGradient x1="50%" y1="0%" x2="50%" y2="100%" id="linearGradient-1">
            <stop stop-color="#FFFFFF" offset="0%"></stop>
            <stop stop-color="#EDEDED" offset="100%"></stop>
        </linearGradient>
        <rect id="path-2" x="0" y="0" width="900" height="600" rx="80"></rect>
        <filter x="-6.7%" y="-10.0%" width="113.3%" height="120.0%" filterUnits="objectBoundingBox" id="filter-3">
            <feMorphology radius="2.5" operator="dilate" in="SourceAlpha" result="shadowSpreadOuter1"></feMorphology>
            <feOffset dx="0" dy="0" in="shadowSpreadOuter1" result="shadowOffsetOuter1"></feOffset>
            <feGaussianBlur stdDeviation="17.5" in="shadowOffsetOuter1" result="shadowBlurOuter1"></feGaussianBlur>
            <feColorMatrix values="0 0 0 0 0   0 0 0 0 0   0 0 0 0 0  0 0 0 0.5 0" type="matrix" in="shadowBlurOuter1"></feColorMatrix>
        </filter>
    </defs>
    <g id="AX-Åland-Post-text" stroke="none" stroke-width="1" fill="none" fill-rule="evenodd">
        <g transform="translate(40, 40)">
            <g id="Rectangle">
                <use fill="black" fill-opacity="1" filter="url(#filter-3)" xlink:href="#path-2"></use>
                <use fill="url(#linearGradient-1)" fill-rule="evenodd" xlink:href="#path-2"></use>
            </g>
            <g id="Logo" transform="translate(49.76, 201.8617)" fill-rule="nonzero">
                <g id="Group" transform="translate(189.5525, 100.3627)" fill="#00586B">
                    <path d="M479.832471,24.267158 C487.593871,29.0834466 494.005054,36.5247329 496.764366,45.318007 C499.110182,52.7927584 499.132931,61.3062647 496.787115,68.7917249 C494.071963,77.5515339 487.61662,85.0825066 479.885998,89.8880864 C474.447666,93.2720712 468.371025,94.6468151 462.160567,95.8863602 C457.224049,96.8702324 451.840582,95.1046168 447.015133,93.8985368 C430.729575,89.2937472 418.600381,73.5959661 419.237351,56.489976 C419.147694,38.5353126 432.985734,22.7250889 450.432825,19.4187429 C460.396856,17.5848587 471.119631,18.8926725 479.832471,24.267158 Z M555.962434,19.2393703 C574.113404,19.1951964 592.275079,19.0265326 610.436754,19.183149 C610.42471,21.3623925 610.436754,23.5295885 610.447459,25.7088319 C601.19935,25.8319832 591.951241,25.7650532 582.701794,25.7422969 C582.58002,48.691283 582.691088,71.6416077 582.646929,94.579885 C580.22216,94.5571288 577.810774,94.5343726 575.386005,94.5009075 C575.452914,71.5853865 575.364595,48.6805742 575.442209,25.7637146 C572.500103,25.739352 569.560245,25.7283219 566.621919,25.7205473 L560.747094,25.706353 C550.958413,25.6799776 541.181428,25.6151298 531.389575,25.1385876 C525.346389,24.9377974 519.62704,25.6981231 515.385034,30.412678 C511.139013,34.8260475 510.658609,42.5471016 515.427856,46.7583423 C522.565667,52.7686636 534.103389,53.8194658 541.263949,60.0212071 C547.673794,65.552309 548.847372,75.4740242 545.57554,82.9701932 C542.089601,90.93755 533.054262,95.7404526 524.677303,96.1661279 C517.942281,95.238477 511.262125,92.4903279 505.544115,88.8479929 C505.53298,85.9244124 505.510677,83.0008851 505.477206,80.0774751 C510.591701,83.6742977 516.14244,87.5401791 522.465304,88.5240513 C528.1057,89.4182372 533.981615,87.2162375 537.253446,82.4682176 C541.028431,77.1499534 540.190735,69.2495266 535.1204,65.0597036 C528.161904,59.4964753 517.572946,58.3345691 510.647904,52.6910247 C506.348356,49.0714459 504.393286,44.2109834 504.604718,38.6129515 C504.504355,27.8425629 514.278365,19.2286615 524.665259,18.7253473 C535.07624,18.3679406 545.530042,19.3063004 555.962434,19.2393703 Z M148.957316,18.9047199 C150.275416,18.9596026 151.593516,19.005115 152.911615,19.0492889 C164.526951,44.2109834 175.997765,69.4396081 187.614439,94.6013026 C185.023737,94.579885 182.443741,94.54642 179.853039,94.5129549 C175.932194,86.0770876 172.178621,77.5528725 168.180162,69.1491315 C156.574193,69.2495266 144.969563,69.0942489 133.364932,69.228109 C129.688973,77.5515339 125.824331,85.786611 122.116255,94.0886182 L121.42442,94.5571288 C106.82496,94.5678376 92.2268378,94.5678376 77.6287157,94.5571288 C77.6180104,69.5400032 77.6059668,44.5242162 77.6287157,19.5070906 L84.8883007,19.5070906 C84.8548464,42.4346591 84.9779582,65.3729364 84.8213921,88.3005048 C95.5107127,88.3567261 106.200033,88.2442836 116.889354,88.3567261 C127.80215,65.3167151 138.08868,41.9661485 148.957316,18.9047199 Z M36.5802791,0.00098787215 C43.0091828,-0.0648626912 48.0973955,6.20559789 46.4412034,12.4533198 L46.3542899,12.7605385 C45.6005644,15.6770167 43.7967917,17.3925184 41.5944527,18.893049 L40.9549305,19.3167742 L40.2970942,19.7339108 L39.2833873,20.3584412 C44.2327133,30.921729 49.1083032,41.5241095 53.9638791,52.1381861 L63.6642631,73.3738168 C66.8994411,80.452147 70.1416415,87.527558 73.406782,94.5919324 L65.6989093,94.5584674 C61.7901079,86.1011824 57.9696259,77.5983849 54.0501191,69.1397613 C49.4168312,69.1756358 44.7854702,69.1845241 40.1544946,69.1844171 L26.2611826,69.1751004 C23.9453094,69.1750468 21.6291472,69.1772422 19.3125032,69.1839352 L16.9887723,74.2687901 L12.3565335,84.4414556 C10.8076151,87.8293171 9.24837669,91.2116956 7.66237483,94.5812236 C5.1082621,94.5700514 2.55411273,94.5700514 2.2947984e-13,94.5812236 C3.27125787,87.5199089 6.51782783,80.4466833 9.75587719,73.3693834 L19.4606307,52.1330971 C24.3163939,41.5166789 29.1893621,30.9087255 34.1341001,20.335685 L32.7965448,19.5556438 L32.1494675,19.1642782 C30.0219142,17.8488741 28.2056018,16.3937544 27.2264713,13.8631288 L27.0859464,13.4753517 C24.6879415,7.18318276 29.6119799,0.0890162154 36.267075,-2.2947984e-13 L36.5802791,0.00098787215 Z M285.660988,19.5070906 C294.539762,19.5740207 303.587145,19.0158238 312.266531,21.2606587 C319.437796,23.0945429 325.993502,26.914912 330.65168,32.7257816 C335.688561,38.7923241 337.990217,46.1787278 338.671347,53.9546646 C348.266043,54.0095473 357.848695,53.9653734 367.432685,53.9881296 C367.443391,42.5029278 367.432685,31.0270961 367.432685,19.5405557 C374.804677,19.5298468 382.176668,19.3959867 389.536616,19.5740207 C396.014708,19.841741 402.203755,20.9715208 407.207182,25.4183553 C416.266609,33.4968161 414.892306,50.5465849 404.113327,56.581001 C395.646711,61.6864275 384.075535,59.9649858 374.535704,60.3558575 C374.658816,71.7420029 374.547748,83.138857 374.602613,94.5236637 C372.212637,94.5343726 369.822661,94.54642 367.432685,94.54642 C367.42198,83.0933446 367.476845,71.6416077 367.409936,60.1885323 C357.827284,60.2340448 348.253999,60.1885323 338.682053,60.2219973 C337.946058,69.3285041 334.593936,77.8875229 328.003437,84.3342282 C320.497629,91.7192934 310.490776,94.3898036 300.192201,94.5571288 C290.597506,94.579885 281.013515,94.579885 271.41882,94.5343726 C271.531226,69.6296895 271.251548,44.5576812 271.552637,19.6864632 C276.222859,19.2728353 280.969356,19.5740207 285.660988,19.5070906 Z M197.476769,19.485673 C215.740145,40.4013232 233.822868,61.4735899 252.095611,82.3785313 C252.129065,61.429416 251.940383,40.4575445 252.185269,19.5070906 L259.277582,19.5070906 C259.300331,44.5242162 259.289626,69.5400032 259.277582,94.5678376 C257.345261,94.5678376 255.402235,94.5571288 253.459209,94.5571288 C235.230625,73.6628962 217.158608,52.602677 198.828323,31.8088395 C199.063841,52.7258283 198.884526,73.653526 198.930024,94.5678376 C196.505256,94.5678376 194.081826,94.5678376 191.658396,94.5571288 C191.658396,69.5520506 191.646352,44.534925 191.658396,19.519138 L197.476769,19.485673 Z M482.747011,35.8433847 C474.984273,27.0487721 462.920649,23.7651824 451.583653,26.2456111 C441.754777,28.3672947 433.165049,35.6077908 429.311113,44.8816228 C424.397344,57.0160465 427.234269,71.6081427 437.152803,80.3679517 C449.316789,91.8196885 470.10262,91.5519682 481.719294,79.4282533 C493.469786,68.0434466 493.904692,47.7756795 482.747011,35.8433847 Z M304.660359,26.3794713 C299.512945,25.7626437 294.289416,25.7852928 289.069259,25.8538185 L286.45983,25.8891563 C283.851418,25.9228208 281.24716,25.943221 278.656994,25.8761571 C278.690448,46.6807034 278.690448,67.4959585 278.656994,88.3112136 C288.25169,87.9658544 298.382992,89.2281558 307.787668,87.2162375 C317.683452,84.825495 326.218315,77.6746852 329.389784,67.864074 C331.700807,60.4575912 331.589739,51.9427464 328.74077,44.6915414 C324.731606,34.6801399 315.237273,27.8318541 304.660359,26.3794713 Z M150.766525,31.0378049 C145.963825,41.6194507 141.272192,52.2773968 136.235312,62.7586474 C145.953119,62.9714851 155.681632,62.7921125 165.410145,62.8697513 C160.472289,52.2787354 155.748541,41.5966945 150.766525,31.0378049 Z M36.7595942,31.0833174 C31.6103071,41.5190556 27.2211018,52.3456654 22.1052689,62.8028213 C31.8337818,62.8925076 41.5622948,62.8483337 51.2908077,62.8362863 C46.3087921,52.3229092 41.5181351,41.709137 36.7595942,31.0833174 Z M398.96404,28.2561908 C392.128656,24.5134607 382.176668,26.2777376 374.558453,25.8761571 C374.637405,35.2503842 374.535704,44.6246113 374.625362,53.9988384 C382.254282,53.6200142 392.20627,55.2611398 399.064403,51.5184096 C407.787949,46.9029113 407.643426,32.8703505 398.96404,28.2561908 Z M33.8037125,5.30433038 L33.5988312,5.44106484 C30.4643512,7.44443661 30.0333418,11.5573952 32.7402894,14.0825264 L32.960523,14.2785127 C36.3795533,17.4295809 41.6733631,15.0723035 42.2206756,10.6696427 C42.7253577,6.24699862 37.58534,2.90252426 33.8037125,5.30433038 Z" id="Combined-Shape"></path>
                </g>
                <g id="Group-2" transform="translate(-0, 0)">
                    <path d="M112.59261,1.43863684e-14 C115.615974,1.56185803 118.752517,2.67100358 121.888306,3.96123412 C141.600916,11.9591544 161.351252,19.8695504 181.044244,27.9119874 C170.967619,52.4927656 161.124896,77.192758 151.142586,101.817298 C127.83393,92.440114 104.544136,82.9995499 81.242271,73.5906758 C91.5897691,49.5388167 101.722983,25.3805702 112.019174,1.30381192 C112.215349,0.869207945 112.403979,0.434603972 112.59261,1.43863684e-14 Z" id="Path" fill="#1A7486"></path>
                    <path d="M7.1931842e-15,32.4406212 C22.7163573,41.6918005 45.5398565,50.7543497 68.2245239,60.0877718 C68.6719548,65.4033707 69.3012251,70.712179 69.8874877,76.0217417 C48.6945079,84.7002398 27.4524843,93.2648052 6.27233129,101.981029 C4.12496513,78.8112051 2.12850314,55.6164816 7.1931842e-15,32.4406212 L7.1931842e-15,32.4406212 Z" id="Path" fill="#00586B"></path>
                    <path d="M78.3517019,77.2561377 C80.4039984,77.6152896 82.3634889,78.6852001 84.3026073,79.4291576 C103.612303,87.212794 122.909172,95.0598102 142.230941,102.793648 C120.490179,102.925689 98.7064091,102.793648 76.9596111,102.857028 C76.0904031,94.8455263 75.341164,86.8098799 74.3399149,78.8112051 C75.6301454,78.2453145 76.9656472,77.5587006 78.3517019,77.2561377 L78.3517019,77.2561377 Z" id="Path" fill="#1A7486"></path>
                    <path d="M70.3024742,80.3798538 C71.0336048,87.8745087 71.8960221,95.3563369 72.6769511,102.844201 C53.6011566,102.806475 34.5185714,102.944552 15.4420224,102.761958 C33.7059525,95.2929571 52.0641978,87.8805449 70.3032287,80.3798538 L70.3024742,80.3798538 Z" id="Path" fill="#1A7486"></path>
                    <path d="M10.6809962,107.157796 C31.4831343,107.051409 52.3411069,107.145724 73.1553173,107.114034 C74.087905,115.994744 74.9691852,124.886771 76.0209872,133.76069 C54.305879,124.823392 32.3900683,116.107167 10.6809962,107.158551 L10.6809962,107.157796 Z" id="Path" fill="#1A7486"></path>
                    <path d="M146.450221,107.15176 C124.375961,116.038506 102.353008,125.119918 80.2530943,133.937248 C79.334088,124.993913 78.446017,116.044542 77.3693158,107.114034 C100.381445,107.132897 123.444128,107.057445 146.450221,107.15176 Z" id="Path" fill="#1A7486"></path>
                    <path d="M6.65638237,110.168334 C29.1652464,119.193158 51.5918677,128.445091 74.087905,137.501604 C51.6235576,156.035653 29.1841095,174.627045 6.68203607,193.117331 C6.73183445,165.470181 6.77031501,137.81624 6.65638237,110.168334 L6.65638237,110.168334 Z" id="Path" fill="#00586B"></path>
                    <path d="M150.266587,110.124572 C150.235652,137.777759 150.222825,165.432455 150.273378,193.086396 C127.701888,174.519903 105.186988,155.871922 82.5521191,137.394462 C105.091919,128.236844 127.707925,119.237674 150.266587,110.124572 L150.266587,110.124572 Z" id="Path" fill="#00586B"></path>
                    <path d="M78.4588439,139.301891 C101.175201,157.918937 123.891558,176.661233 146.531709,195.372594 C101.2001,195.37863 55.8556647,195.397493 10.5293376,195.365803 C33.1513797,176.717822 55.8368017,157.918937 78.4588439,139.302645 L78.4588439,139.301891 Z" id="Path" fill="#00586B"></path>
                </g>
            </g>
        </g>
    </g>
</svg>