<?xml version="1.0" encoding="UTF-8"?>
<svg width="980px" height="680px" viewBox="0 0 980 680" version="1.1" xmlns="http://www.w3.org/2000/svg" xmlns:xlink="http://www.w3.org/1999/xlink">
    <title>AZ Azərpoçt text alt</title>
    <defs>
        <rect id="path-1" x="0" y="0" width="900" height="600" rx="80"></rect>
        <filter x="-6.7%" y="-10.0%" width="113.3%" height="120.0%" filterUnits="objectBoundingBox" id="filter-2">
            <feMorphology radius="2.5" operator="dilate" in="SourceAlpha" result="shadowSpreadOuter1"></feMorphology>
            <feOffset dx="0" dy="0" in="shadowSpreadOuter1" result="shadowOffsetOuter1"></feOffset>
            <feGaussianBlur stdDeviation="17.5" in="shadowOffsetOuter1" result="shadowBlurOuter1"></feGaussianBlur>
            <feColorMatrix values="0 0 0 0 0   0 0 0 0 0   0 0 0 0 0  0 0 0 0.5 0" type="matrix" in="shadowBlurOuter1"></feColorMatrix>
        </filter>
    </defs>
    <g id="AZ-Azərpoçt-text-alt" stroke="none" stroke-width="1" fill="none" fill-rule="evenodd">
        <g transform="translate(40, 40)">
            <g id="Rectangle">
                <use fill="black" fill-opacity="1" filter="url(#filter-2)" xlink:href="#path-1"></use>
                <use fill="#034C7D" fill-rule="evenodd" xlink:href="#path-1"></use>
            </g>
            <g id="Logo" transform="translate(50, 204)" fill="#FFFFFF" fill-rule="nonzero">
                <path d="M747.095172,118.894817 C745.320068,118.894817 742.872141,119.566567 741.765087,121.3515 C737.542051,128.500832 730.212586,133.188682 722.215065,133.188682 C708.663183,133.188682 699.110062,120.679751 699.110062,107.278354 C699.110062,93.8769561 708.663183,81.3680259 722.215065,81.3680259 C730.212586,81.3680259 737.542051,86.0558761 741.765087,93.2052073 C742.872141,94.9949392 745.320068,95.6618901 747.095172,95.6618901 C751.093932,95.6618901 754.205138,92.533458 754.205138,88.5125589 C754.205138,85.3889251 751.761983,81.3680259 749.094552,79.1320603 C741.989358,71.7620118 732.655741,67.2948794 722.215065,67.2948794 C700.446163,67.2948794 685.119177,86.7276254 685.119177,107.278354 C685.119177,125.540336 697.249065,142.833081 715.214851,146.484518 L715.214851,155.255644 C715.214851,159.276543 718.326056,162.179459 722.105313,162.179459 C726.104073,162.179459 729.210507,159.276543 729.210507,155.255644 L729.210507,146.518106 C736.811966,144.992275 743.616541,141.100928 749.094552,135.424647 C751.761983,133.188682 754.205138,129.172581 754.205138,126.03935 C754.205138,122.018451 751.093932,118.894817 747.095172,118.894817 Z M452.384704,168.95453 L449.1208,168.95453 L449.1208,191.362166 L462.906496,191.362166 L462.906496,188.166558 L452.384704,188.166558 L452.384704,168.95453 Z M441.991746,184.884584 L441.929713,184.884584 L432.152315,168.95453 L429.074513,168.95453 L429.074513,191.362166 L432.338417,191.362166 L432.338417,175.432112 L432.400451,175.432112 L442.163527,191.362166 L445.255651,191.362166 L445.255651,168.95453 L441.991746,168.95453 L441.991746,184.884584 Z M422.141104,191.362166 L425.409775,191.362166 L425.409775,168.95453 L422.141104,168.95453 L422.141104,191.362166 Z M422.141104,167.414305 L425.409775,167.414305 L425.409775,164.036366 L422.141104,164.036366 L422.141104,167.414305 Z M405.792952,171.963007 L415.498772,171.963007 L405.711831,188.550415 L405.711831,191.362166 L419.497532,191.362166 L419.497532,188.166558 L409.36702,188.166558 L419.497532,171.507177 L419.497532,168.95453 L405.792952,168.95453 L405.792952,171.963007 Z M399.942738,191.362166 L403.211414,191.362166 L403.211414,168.95453 L399.942738,168.95453 L399.942738,191.362166 Z M399.942738,167.414305 L403.211414,167.414305 L403.211414,164.036366 L399.942738,164.036366 L399.942738,167.414305 Z M391.253313,178.574939 C390.227375,178.445388 389.416169,178.33023 388.824468,178.22467 C387.760361,178.018347 386.98733,177.648885 386.500608,177.116283 C386.018659,176.588481 385.775296,176.007897 385.775296,175.364937 C385.794383,174.28534 386.157042,173.474443 386.85849,172.932246 C387.526541,172.409241 388.366377,172.150137 389.378,172.150137 C391.320113,172.188523 393.104766,172.764308 394.7224,173.872694 L396.545223,171.080137 C394.56493,169.59749 392.231527,168.829777 389.54978,168.772198 C387.321358,168.786593 385.598738,169.391167 384.386704,170.581123 C383.136496,171.780675 382.50662,173.364084 382.50662,175.321753 C382.50662,176.953144 383.007656,178.335029 384.004963,179.472204 C384.968862,180.58059 386.381313,181.295523 388.237538,181.612205 C389.277792,181.770546 390.227375,181.904896 391.095842,182.024851 C392.990242,182.370322 393.930282,183.373148 393.911194,185.042925 C393.873025,187.082163 392.446259,188.128173 389.640445,188.166558 C387.273639,188.147366 385.226541,187.398845 383.508699,185.935392 L381.361392,188.488038 C383.661392,190.527277 386.409944,191.549296 389.607042,191.549296 C394.545842,191.486919 397.070124,189.308532 397.17987,185.023732 C397.17987,183.430726 396.697921,182.039246 395.743566,180.839694 C394.77489,179.61615 393.281318,178.862832 391.253313,178.574939 Z M351.809701,180.278303 C351.809701,178.33023 351.761983,176.933952 351.67609,176.089467 C351.556794,175.24978 351.275262,174.568434 350.831482,174.040632 C349.920073,172.740317 348.636462,172.106953 346.975876,172.150137 L343.063011,172.150137 L343.063011,188.166558 L346.975876,188.166558 C348.81302,188.166558 350.149121,187.514002 350.979408,186.20889 C351.342068,185.729068 351.575882,185.114897 351.67609,184.375974 C351.761983,183.646646 351.809701,182.283954 351.809701,180.278303 Z M354.916135,175.374534 C355.021115,176.300588 355.078377,177.893593 355.078377,180.158348 C355.078377,182.567049 354.992485,184.246422 354.82547,185.196467 C354.744349,185.681086 354.625059,186.112925 354.472361,186.487185 C354.305346,186.856647 354.100158,187.240504 353.861572,187.643554 C353.231696,188.699159 352.353685,189.567635 351.227544,190.253779 C350.110946,190.987905 348.746214,191.362166 347.123803,191.362166 L339.794336,191.362166 L339.794336,168.95453 L347.348079,168.95453 C350.268411,168.973723 352.463437,170.230854 353.923606,172.735519 C354.44373,173.575206 354.777752,174.453278 354.916135,175.374534 Z M329.816525,178.771665 C331.047646,178.757271 331.96383,178.383011 332.57939,177.663279 C333.185408,176.996328 333.48603,176.175834 333.48603,175.197 C333.466944,174.026237 333.104287,173.176954 332.402834,172.653949 C331.849307,172.193321 331.047646,171.963007 329.997853,171.963007 L324.863407,171.963007 L324.863407,178.771665 L329.816525,178.771665 Z M332.402834,181.415479 L337.398897,191.362166 L333.514661,191.362166 L329.048266,181.780143 L324.863407,181.780143 L324.863407,191.362166 L321.594732,191.362166 L321.594732,168.95453 L330.026483,168.95453 C331.825448,168.95453 333.295159,169.443948 334.430845,170.42758 C335.795576,171.545563 336.511345,173.138568 336.568606,175.206597 C336.530432,178.248661 335.141842,180.321487 332.402834,181.415479 Z M305.237039,191.362166 L319.027509,191.362166 L319.027509,188.166558 L308.505714,188.166558 L308.505714,181.569021 L317.486221,181.569021 L317.486221,178.560544 L308.505714,178.560544 L308.505714,172.150137 L319.027509,172.150137 L319.027509,168.95453 L305.237039,168.95453 L305.237039,191.362166 Z M295.268771,178.896419 L290.692625,168.95453 L287.228306,168.95453 L293.722712,182.144806 L293.722712,191.362166 L296.810059,191.362166 L296.810059,182.140008 L303.309236,168.95453 L299.844917,168.95453 L295.268771,178.896419 Z M273.347171,178.771665 C274.573521,178.757271 275.489705,178.383011 276.105266,177.663279 C276.711283,176.996328 277.011905,176.175834 277.011905,175.197 C276.992819,174.026237 276.630162,173.176954 275.928709,172.653949 C275.375182,172.193321 274.573521,171.963007 273.523728,171.963007 L268.389283,171.963007 L268.389283,178.771665 L273.347171,178.771665 Z M275.928709,181.415479 L280.924773,191.362166 L277.040536,191.362166 L272.574141,181.780143 L268.389283,181.780143 L268.389283,191.362166 L265.120607,191.362166 L265.120607,168.95453 L273.55713,168.95453 C275.351323,168.95453 276.821034,169.443948 277.95672,170.42758 C279.326223,171.545563 280.03722,173.138568 280.094482,175.206597 C280.056307,178.248661 278.667717,180.321487 275.928709,181.415479 Z M476.716056,182.226376 L467.878699,182.226376 L467.878699,183.401937 C467.897786,184.807812 468.322479,185.949786 469.157538,186.808665 C469.987831,187.715527 471.037628,188.166558 472.311696,188.166558 C473.084721,188.166558 473.748,187.993823 474.301527,187.657948 C474.864603,187.370056 475.317921,186.990997 475.666259,186.535167 C476.090952,186.050548 476.372485,185.417185 476.510868,184.635077 C476.611076,184.136063 476.682654,183.329964 476.716056,182.226376 Z M479.793859,174.933099 C479.941786,175.811171 480.013363,177.557719 480.013363,180.158348 C480.013363,182.720592 479.941786,184.447946 479.793859,185.354808 C479.71751,185.834629 479.61253,186.232881 479.498006,186.554361 C479.373944,186.856647 479.226017,187.178127 479.068546,187.518801 C478.548423,188.555214 477.708586,189.466873 476.553814,190.253779 C475.41813,191.074273 474.005679,191.506112 472.306924,191.549296 C470.107127,191.506112 468.279532,190.7336 466.833679,189.226963 C465.392597,187.715527 464.652969,185.834629 464.610028,183.593865 L464.610028,179.035567 L476.739915,179.035567 C476.716056,177.432965 476.639707,176.300588 476.510868,175.643233 C476.372485,174.885117 476.090952,174.261349 475.666259,173.77673 C475.322693,173.3209 474.864603,172.937043 474.301527,172.62516 C473.752772,172.327671 473.089493,172.16933 472.316468,172.150137 C471.26667,172.16933 470.383893,172.481214 469.649037,173.090586 C468.947583,173.728748 468.460862,174.50126 468.198411,175.403323 L464.729318,175.403323 C465.07289,173.532021 465.903183,171.963007 467.21542,170.686684 C468.527662,169.429553 470.226423,168.786593 472.306924,168.772198 C474.005679,168.786593 475.41813,169.208835 476.553814,170.024531 C477.708586,170.835428 478.548423,171.761482 479.068546,172.793097 C479.393031,173.340093 479.636389,174.050228 479.793859,174.933099 Z M369.770715,182.226376 L360.933363,182.226376 L360.933363,183.401937 C360.952451,184.807812 361.377138,185.949786 362.207431,186.808665 C363.04249,187.715527 364.092287,188.166558 365.366355,188.166558 C366.139386,188.166558 366.802665,187.993823 367.35142,187.657948 C367.919262,187.370056 368.37258,186.990997 368.720924,186.535167 C369.140839,186.050548 369.427149,185.417185 369.565527,184.635077 C369.665735,184.136063 369.732541,183.329964 369.770715,182.226376 Z M372.848518,174.933099 C372.996445,175.811171 373.068023,177.557719 373.068023,180.158348 C373.068023,182.720592 372.996445,184.447946 372.848518,185.354808 C372.767397,185.834629 372.671961,186.232881 372.55267,186.554361 C372.423831,186.856647 372.280676,187.178127 372.123206,187.518801 C371.59831,188.555214 370.763245,189.466873 369.608473,190.253779 C368.472789,191.074273 367.055566,191.506112 365.356811,191.549296 C363.161786,191.506112 361.334192,190.7336 359.888338,189.226963 C358.447262,187.715527 357.702862,185.834629 357.664687,183.593865 L357.664687,179.035567 L369.794575,179.035567 C369.770715,177.432965 369.694366,176.300588 369.565527,175.643233 C369.427149,174.885117 369.145611,174.261349 368.720924,173.77673 C368.37258,173.3209 367.919262,172.937043 367.356192,172.62516 C366.802665,172.327671 366.144158,172.16933 365.371127,172.150137 C364.326101,172.16933 363.43378,172.481214 362.703696,173.090586 C362.002242,173.728748 361.515521,174.50126 361.25307,175.403323 L357.783983,175.403323 C358.127549,173.532021 358.957842,171.963007 360.270085,170.686684 C361.582327,169.429553 363.27631,168.786593 365.356811,168.772198 C367.055566,168.786593 368.472789,169.208835 369.608473,170.024531 C370.763245,170.835428 371.59831,171.761482 372.123206,172.793097 C372.44769,173.340093 372.691048,174.050228 372.848518,174.933099 Z M258.664376,182.226376 L249.827023,182.226376 L249.827023,183.401937 C249.84611,184.807812 250.270799,185.949786 251.10109,186.808665 C251.931381,187.715527 252.985947,188.166558 254.260015,188.166558 C255.033045,188.166558 255.696323,187.993823 256.245079,187.657948 C256.80815,187.370056 257.266242,186.990997 257.609811,186.535167 C258.0345,186.050548 258.320807,185.417185 258.459189,184.635077 C258.559397,184.136063 258.626202,183.329964 258.664376,182.226376 Z M261.74218,174.933099 C261.890106,175.811171 261.961682,177.557719 261.961682,180.158348 C261.961682,182.720592 261.890106,184.447946 261.74218,185.354808 C261.66106,185.834629 261.565624,186.232881 261.44633,186.554361 C261.317491,186.856647 261.174337,187.178127 261.016868,187.518801 C260.491971,188.555214 259.656908,189.466873 258.497363,190.253779 C257.36645,191.074273 255.949228,191.506112 254.250471,191.549296 C252.050677,191.506112 250.227853,190.7336 248.777229,189.226963 C247.340921,187.715527 246.596521,185.834629 246.558347,183.593865 L246.558347,179.035567 L258.683463,179.035567 C258.664376,177.432965 258.588028,176.300588 258.459189,175.643233 C258.320807,174.885117 258.039272,174.261349 257.609811,173.77673 C257.266242,173.3209 256.812922,172.937043 256.249851,172.62516 C255.696323,172.327671 255.033045,172.16933 254.264786,172.150137 C253.214993,172.16933 252.32744,172.481214 251.597357,173.090586 C250.895904,173.728748 250.409181,174.50126 250.141961,175.403323 L246.677642,175.403323 C247.021211,173.532021 247.851502,171.963007 249.163744,170.686684 C250.475986,169.429553 252.169971,168.786593 254.250471,168.772198 C255.949228,168.786593 257.36645,169.208835 258.497363,170.024531 C259.656908,170.835428 260.491971,171.761482 261.016868,172.793097 C261.34135,173.340093 261.579939,174.050228 261.74218,174.933099 Z M240.035311,178.560544 L231.46995,178.560544 L231.46995,168.95453 L228.206046,168.95453 L228.206046,191.362166 L231.46995,191.362166 L231.46995,181.569021 L240.035311,181.569021 L240.035311,191.362166 L243.303987,191.362166 L243.303987,168.95453 L240.035311,168.95453 L240.035311,178.560544 Z M793.052276,82.6443493 C796.888794,82.6443493 800,79.5159172 800,75.6629555 C800,71.8051955 796.888794,68.6767634 793.052276,68.6767634 L783.508699,68.6767634 L783.508699,49.7958113 C783.508699,45.9380518 780.397487,42.8144175 776.565741,42.8144175 C772.729223,42.8144175 769.618017,45.9380518 769.618017,49.7958113 L769.618017,122.013653 C769.618017,133.265453 776.279437,143.370481 786.58173,147.751245 C787.469279,148.125505 788.380693,148.303039 789.287335,148.303039 C791.992935,148.303039 794.56493,146.700438 795.686304,144.037432 C797.17987,140.486757 795.524062,136.389087 791.992935,134.887247 C786.839403,132.694466 783.508699,127.637154 783.508699,122.013653 L783.508699,82.6443493 L793.052276,82.6443493 Z M662.796744,107.052838 C662.796744,93.8769561 653.467899,81.3680259 639.691741,81.3680259 C626.139859,81.3680259 616.367239,93.8769561 616.367239,107.052838 C616.367239,120.679751 626.139859,133.188682 639.691741,133.188682 C653.467899,133.188682 662.796744,120.679751 662.796744,107.052838 Z M677.011904,107.052838 C677.011904,128.0498 661.465414,147.261828 639.691741,147.261828 C617.922839,147.261828 602.371577,128.0498 602.371577,107.052838 C602.371577,86.5069076 617.922839,67.0693634 639.691741,67.0693634 C661.465414,67.0693634 677.011904,86.5069076 677.011904,107.052838 Z M580.278197,107.278354 C580.278197,93.8769561 570.5008,81.3680259 556.948918,81.3680259 C543.177532,81.3680259 533.624411,93.8769561 533.624411,107.278354 C533.624411,120.905267 543.177532,133.409399 556.948918,133.409399 C570.5008,133.409399 580.278197,120.905267 580.278197,107.278354 Z M594.273854,107.278354 C594.273854,128.0498 578.722592,147.487344 556.948918,147.487344 C547.620068,147.487344 538.959273,143.466445 532.28831,137.655814 L532.28831,178.536553 C532.28831,182.557452 529.181876,185.460369 525.183115,185.460369 C521.403859,185.460369 518.297425,182.557452 518.297425,178.536553 L518.297425,75.5573949 C518.297425,71.982729 521.403859,68.412862 525.183115,68.412862 C529.181876,68.412862 532.28831,71.982729 532.28831,75.5573949 L532.28831,77.1216107 C538.734997,71.5364958 548.063848,67.2948794 556.948918,67.2948794 C578.722592,67.2948794 594.273854,86.7276254 594.273854,107.278354 Z M500.59409,68.6335797 C493.259848,68.6335797 486.149882,72.2082451 480.595521,77.1216107 L480.595521,75.7829104 C480.595521,71.7620118 477.489087,68.6335797 473.490327,68.6335797 C469.71107,68.6335797 466.604631,71.7620118 466.604631,75.7829104 L466.604631,138.773797 C466.604631,142.794696 469.71107,145.923128 473.490327,145.923128 C477.489087,145.923128 480.595521,142.794696 480.595521,138.773797 L480.595521,111.073737 C480.595521,97.6723397 488.593037,85.6096423 501.476868,82.7067262 C505.256124,82.2604924 507.699285,79.8038096 507.699285,75.5573949 C507.699285,71.3109803 503.700524,68.6335797 500.59409,68.6335797 Z M395.714935,114.422887 C398.377594,124.70065 406.818885,133.409399 417.932383,133.409399 C428.816834,133.409399 437.253358,124.70065 440.145065,114.422887 L395.714935,114.422887 Z M380.607448,107.499071 C380.607448,103.478172 383.94293,100.354538 387.717414,100.354538 L440.145065,100.354538 C437.477634,89.6305414 429.036338,81.3680259 417.932383,81.3680259 C410.407273,81.3680259 404.399589,83.8918834 399.747093,89.0835459 C399.379668,89.4865949 394.21182,92.7781662 390.413476,88.3350248 C386.729656,84.0214355 389.010569,79.9333611 389.697707,79.1512535 C396.702693,71.1574372 407.39627,67.2948794 417.932383,67.2948794 C439.701285,67.2948794 455.252546,86.7276254 455.252546,107.499071 C455.252546,128.0498 439.701285,147.487344 417.932383,147.487344 C396.15871,147.487344 380.607448,128.0498 380.607448,107.499071 Z M315.940162,144.138194 L363.257223,144.138194 C367.255983,144.138194 370.367189,140.563528 370.367189,137.20958 C370.367189,133.188682 367.255983,130.060249 363.257223,130.060249 L330.823372,130.060249 L370.810963,82.2604924 C371.70329,81.3680259 372.590845,79.5782941 372.590845,77.79336 C372.590845,74.2186946 369.035859,70.8695448 365.705149,70.8695448 L317.939541,70.8695448 C314.384558,70.8695448 310.829576,74.2186946 310.829576,77.79336 C310.829576,81.8142592 314.384558,84.7171758 317.939541,84.7171758 L350.373392,84.7171758 L310.610073,132.52173 C309.498246,133.86043 308.830196,135.424647 308.830196,137.20958 C308.830196,140.563528 311.941402,144.138194 315.940162,144.138194 Z M280.662325,107.278354 C280.662325,93.8769561 271.333477,81.3680259 257.562093,81.3680259 C244.010212,81.3680259 234.232816,93.8769561 234.232816,107.278354 C234.232816,120.905267 244.010212,133.409399 257.562093,133.409399 C271.333477,133.409399 280.662325,120.905267 280.662325,107.278354 Z M289.103619,145.697612 C285.329134,145.697612 282.222699,142.573978 282.222699,138.553079 L282.222699,137.655814 C275.55651,143.466445 266.666666,147.487344 257.562093,147.487344 C235.79319,147.487344 220.24193,128.0498 220.24193,107.278354 C220.24193,86.7276254 235.79319,67.2948794 257.562093,67.2948794 C266.666666,67.2948794 275.55651,71.0902625 282.222699,77.1216107 L282.222699,75.5573949 C282.222699,71.982729 285.329134,68.412862 289.103619,68.412862 C293.102379,68.412862 296.213585,71.982729 296.213585,75.5573949 L296.213585,138.553079 C296.213585,142.573978 293.102379,145.697612 289.103619,145.697612 Z M214.730513,2.43749014 C217.961015,5.69067549 217.961015,10.978302 214.730513,14.2314873 L119.318589,110.171674 L156.824851,147.880797 C160.055353,151.133983 160.055353,156.416811 156.824851,159.669996 C155.259705,161.243808 153.179205,162.112285 150.960323,162.112285 C148.746212,162.112285 146.66094,161.243808 145.095794,159.669996 L107.594303,121.960873 L93.0546608,136.581015 L78.5150192,121.960873 L41.0135279,159.669996 C39.4436096,161.243808 37.3631093,162.112285 35.1489989,162.112285 C32.9301172,162.112285 30.8496169,161.243808 29.2844704,159.669996 C26.053969,156.416811 26.053969,151.133983 29.2844704,147.880797 L66.790733,110.171674 L29.2844704,72.4577521 C26.053969,69.2093645 26.053969,63.9169403 29.2844704,60.6685527 C30.8543887,59.0947403 32.934889,58.2262642 35.1489989,58.2262642 C37.3631093,58.2262642 39.4483814,59.0947403 41.0135279,60.6685527 L93.0546608,112.997819 L159.072364,46.6145989 L16.8730468,46.6145989 L16.8730468,173.767134 L169.236275,173.767134 L169.236275,81.699102 C169.236275,81.699102 182.163052,68.6959561 183.150812,67.7075251 C184.138573,66.7142958 186.109322,66.4264034 186.109322,68.9358665 L186.109322,190.7336 L0,190.7336 L0,29.6433341 L175.950183,29.6433341 L203.006227,2.43749014 C204.571374,0.863677746 206.651874,0 208.865984,0 C211.080095,0 213.165366,0.863677746 214.730513,2.43749014 Z" id="Fill-1"></path>
            </g>
        </g>
    </g>
</svg>