<?xml version="1.0" encoding="UTF-8"?>
<svg width="980px" height="680px" viewBox="0 0 980 680" version="1.1" xmlns="http://www.w3.org/2000/svg" xmlns:xlink="http://www.w3.org/1999/xlink">
    <title>BA BH Pošta text</title>
    <defs>
        <linearGradient x1="50%" y1="0%" x2="50%" y2="100%" id="linearGradient-1">
            <stop stop-color="#FFFFFF" offset="0%"></stop>
            <stop stop-color="#EDEDED" offset="100%"></stop>
        </linearGradient>
        <rect id="path-2" x="0" y="0" width="900" height="600" rx="80"></rect>
        <filter x="-6.7%" y="-10.0%" width="113.3%" height="120.0%" filterUnits="objectBoundingBox" id="filter-3">
            <feMorphology radius="2.5" operator="dilate" in="SourceAlpha" result="shadowSpreadOuter1"></feMorphology>
            <feOffset dx="0" dy="0" in="shadowSpreadOuter1" result="shadowOffsetOuter1"></feOffset>
            <feGaussianBlur stdDeviation="17.5" in="shadowOffsetOuter1" result="shadowBlurOuter1"></feGaussianBlur>
            <feColorMatrix values="0 0 0 0 0   0 0 0 0 0   0 0 0 0 0  0 0 0 0.5 0" type="matrix" in="shadowBlurOuter1"></feColorMatrix>
        </filter>
    </defs>
    <g id="BA-BH-Pošta-text" stroke="none" stroke-width="1" fill="none" fill-rule="evenodd">
        <g transform="translate(40, 40)">
            <g id="Rectangle">
                <use fill="black" fill-opacity="1" filter="url(#filter-3)" xlink:href="#path-2"></use>
                <use fill="url(#linearGradient-1)" fill-rule="evenodd" xlink:href="#path-2"></use>
            </g>
            <g id="Logo" transform="translate(50, 180)">
                <polygon id="Path" fill="#FFCB04" points="202.307134 240.382354 101.213623 120.191177 221.404799 120.191177"></polygon>
                <polygon id="Path" fill="#034EA2" points="0 0 240.382354 0 234.036484 40.0570528"></polygon>
                <polygon id="Path" fill="#034EA2" points="234.076521 40.0970898 227.750669 80.1541426 33.7512199 40.0970898"></polygon>
                <polygon id="Path" fill="#034EA2" points="227.730651 80.1541426 221.404799 120.191177 67.4824212 80.1341241"></polygon>
                <path d="M245.527113,220.363837 L261.441834,120.231214 L287.285739,120.231214 C299.777294,120.231214 308.785627,122.03288 314.290719,125.616195 C319.795811,129.19951 322.558366,135.104972 322.558366,143.272527 C322.558366,149.818582 320.776718,155.123489 317.193404,159.187248 C313.630108,163.271026 308.285164,166.093637 301.158572,167.695118 C306.423442,169.15647 310.467182,171.738858 313.32983,175.442284 C316.17246,179.14571 317.613793,183.629858 317.613793,188.874709 C317.613793,193.599079 316.632885,198.023171 314.691089,202.22706 C312.749293,206.41093 309.966719,209.914171 306.383405,212.7568 C303.060331,215.399244 299.176738,217.34104 294.712609,218.542151 C290.228461,219.763281 284.262943,220.363837 276.87611,220.363837 L245.527113,220.363837 L245.527113,220.363837 Z M276.455722,199.424468 L277.897055,199.644671 L279.818832,199.644671 C283.061832,199.644671 285.564147,198.543653 287.285739,196.321597 C289.02735,194.119561 289.888147,190.976653 289.888147,186.932913 C289.888147,183.790006 289.127443,181.427821 287.606036,179.866376 C286.084628,178.284914 283.702425,177.504191 280.499462,177.504191 L279.678703,177.504191 L276.455722,199.424468 Z M282.641443,158.706804 L283.802517,158.846933 L285.724295,158.846933 C288.807147,158.846933 291.269424,157.9461 293.071091,156.204489 C294.872757,154.422841 295.793609,152.060656 295.793609,149.097916 C295.793609,146.575582 295.072942,144.653805 293.631609,143.352601 C292.190276,142.071416 290.088332,141.430824 287.285739,141.430824 L285.444036,141.430824 L282.641443,158.706804 L282.641443,158.706804 Z M325.380977,220.363837 L341.27568,120.231214 L369.181493,120.231214 L363.41616,156.444711 L374.926807,156.444711 L380.592048,120.231214 L408.597953,120.231214 L392.663213,220.363837 L364.737382,220.363837 L370.943122,181.227636 L359.572605,181.227636 L353.366864,220.363837 L325.380977,220.363837 L325.380977,220.363837 Z M479.10317,142.371694 L475.59993,164.532192 L476.761004,164.732377 L478.282411,164.732377 C482.246078,164.732377 485.248855,163.551285 487.230688,161.1891 C489.212522,158.786878 490.213447,155.203563 490.213447,150.419138 C490.213447,147.796712 489.392688,145.79486 487.75117,144.433601 C486.089633,143.052323 483.707429,142.371694 480.544504,142.371694 L479.10317,142.371694 L479.10317,142.371694 Z M438.765858,220.363837 L454.68058,120.231214 L478.682782,120.231214 C492.07517,120.231214 501.744113,122.453269 507.689613,126.877362 C513.635112,131.321472 516.617872,138.448064 516.617872,148.277156 C516.617872,160.808748 513.074594,170.397618 506.008057,177.083803 C498.961539,183.769987 488.872207,187.093061 475.74006,187.093061 L473.818282,187.033006 L471.95656,186.952931 L466.751745,220.363837 L438.765858,220.363837 L438.765858,220.363837 Z M549.288091,186.952931 C549.288091,190.696394 549.768536,193.438931 550.769462,195.160523 C551.790406,196.862097 553.391887,197.722894 555.573906,197.722894 C557.435628,197.722894 559.137202,196.942172 560.638591,195.420764 C562.099942,193.879338 563.421165,191.397042 564.56222,187.91382 C565.24285,185.952006 565.923479,183.569802 566.564072,180.727173 C567.184646,177.904562 567.745164,174.941821 568.185572,171.878988 C569.14646,165.553137 569.646923,159.587619 569.646923,153.922378 C569.646923,150.198934 569.14646,147.456397 568.185572,145.674749 C567.244701,143.893101 565.763331,143.012286 563.741461,143.012286 C561.639517,143.012286 559.817831,143.793009 558.256387,145.354453 C556.835072,146.855842 555.573906,149.278082 554.472887,152.68123 C553.031554,157.145359 551.790406,162.610415 550.769462,168.996322 C549.768536,175.382229 549.288091,181.387784 549.288091,186.952931 L549.288091,186.952931 Z M552.631184,222.365688 C543.162425,222.365688 535.555389,218.942522 529.790056,212.07617 C524.044741,205.209819 521.162075,196.081375 521.162075,184.710858 C521.162075,175.422266 522.323149,166.393914 524.725371,157.625804 C525.966519,153.0816 527.367815,149.057879 528.92926,145.514601 C530.490704,141.951305 532.372445,138.628231 534.534444,135.525361 C538.458074,129.800065 543.10237,125.516102 548.407277,122.673473 C553.752221,119.810825 559.777794,118.38951 566.564072,118.38951 C576.112904,118.38951 583.739959,121.77264 589.465255,128.538898 C595.190551,135.305157 598.033181,144.473638 598.033181,156.024322 C598.033181,165.413007 596.852088,174.42134 594.509922,183.089358 C592.147737,191.757376 588.8647,199.12419 584.640793,205.209819 C580.857293,210.835022 576.293071,215.098967 570.90809,218.001652 C565.543127,220.904337 559.43748,222.365688 552.631184,222.365688 L552.631184,222.365688 Z M602.577384,189.575357 C605.660236,192.177764 608.923254,194.179616 612.406476,195.620949 C614.128068,196.301579 615.809624,196.842079 617.451142,197.222431 C619.072642,197.562746 620.674124,197.742912 622.275605,197.742912 C624.978105,197.742912 627.180142,197.002227 628.861697,195.48082 C630.563271,193.979431 631.404049,191.877487 631.404049,189.174987 C631.404049,186.932913 630.703401,184.650802 629.342141,182.38871 C628.661512,181.247654 627.660586,179.926432 626.359382,178.425043 C625.058179,176.963691 623.396642,175.242099 621.39479,173.34034 C616.730476,168.796136 613.467457,164.772414 611.645772,161.1891 C609.824087,157.625804 608.903235,153.722193 608.903235,149.458249 C608.903235,139.98949 611.926032,132.422491 617.971624,126.737232 C623.997197,121.071992 632.224808,118.249381 642.654455,118.249381 C646.818307,118.249381 650.781973,118.709807 654.585492,119.630658 C658.38901,120.531492 662.272602,121.992843 666.236269,123.994695 L662.272602,148.417286 C659.32988,146.415434 656.427195,144.833971 653.52451,143.692916 C650.621825,142.55186 647.85927,141.971323 645.276881,141.971323 C642.934715,141.971323 641.072993,142.591898 639.75177,143.813027 C638.390511,145.014138 637.709882,146.675675 637.709882,148.777619 C637.709882,151.60023 640.312289,155.583915 645.457048,160.708656 L646.978455,162.210044 C652.18327,167.294748 655.606436,171.678803 657.247954,175.342192 C658.909491,179.025599 659.73025,183.269524 659.73025,188.073968 C659.73025,198.783875 656.427195,207.211671 649.801066,213.377374 C643.214974,219.543077 634.166604,222.625929 622.695994,222.625929 C620.173661,222.625929 617.811476,222.505818 615.58942,222.20554 C613.387383,221.965318 611.105272,221.484874 608.763106,220.864299 C604.419088,219.763281 600.755699,218.1618 597.792958,216.059855 L602.577384,189.575357 L602.577384,189.575357 Z M626.999975,89.1624753 L638.41053,89.1624753 L644.456122,100.152641 L653.844806,89.1624753 L665.215324,89.1624753 L651.50264,110.7024 L634.08653,110.7024 L626.999975,89.1624753 L626.999975,89.1624753 Z M705.552636,220.363837 L677.42662,220.363837 L689.237545,145.614694 L672.622176,145.614694 L676.625879,120.231214 L738.002652,120.231214 L733.958912,145.614694 L717.343543,145.614694 L705.552636,220.363837 Z M722.288117,220.363837 L759.962966,120.231214 L792.953482,120.231214 L800,220.363837 L771.733854,220.363837 L771.894002,205.610189 L755.358707,205.610189 L750.974652,220.363837 L722.288117,220.363837 Z M761.264169,185.391487 L772.45452,185.391487 L772.774817,148.277156 L761.264169,185.391487 L761.264169,185.391487 Z" id="Shape" fill="#034EA2"></path>
            </g>
        </g>
    </g>
</svg>