<?xml version="1.0" encoding="UTF-8"?>
<svg width="980px" height="680px" viewBox="0 0 980 680" version="1.1" xmlns="http://www.w3.org/2000/svg" xmlns:xlink="http://www.w3.org/1999/xlink">
    <title>BA Hrvatska pošta Mostar text</title>
    <defs>
        <linearGradient x1="50%" y1="0%" x2="50%" y2="100%" id="linearGradient-1">
            <stop stop-color="#FFFFFF" offset="0%"></stop>
            <stop stop-color="#EDEDED" offset="100%"></stop>
        </linearGradient>
        <rect id="path-2" x="0" y="0" width="900" height="600" rx="80"></rect>
        <filter x="-6.7%" y="-10.0%" width="113.3%" height="120.0%" filterUnits="objectBoundingBox" id="filter-3">
            <feMorphology radius="2.5" operator="dilate" in="SourceAlpha" result="shadowSpreadOuter1"></feMorphology>
            <feOffset dx="0" dy="0" in="shadowSpreadOuter1" result="shadowOffsetOuter1"></feOffset>
            <feGaussianBlur stdDeviation="17.5" in="shadowOffsetOuter1" result="shadowBlurOuter1"></feGaussianBlur>
            <feColorMatrix values="0 0 0 0 0   0 0 0 0 0   0 0 0 0 0  0 0 0 0.5 0" type="matrix" in="shadowBlurOuter1"></feColorMatrix>
        </filter>
    </defs>
    <g id="BA-Hrvatska-pošta-Mostar-text" stroke="none" stroke-width="1" fill="none" fill-rule="evenodd">
        <g transform="translate(40, 40)">
            <g id="Rectangle">
                <use fill="black" fill-opacity="1" filter="url(#filter-3)" xlink:href="#path-2"></use>
                <use fill="url(#linearGradient-1)" fill-rule="evenodd" xlink:href="#path-2"></use>
            </g>
            <g id="Logo" transform="translate(50, 172)">
                <rect id="Rectangle" fill="#FFF100" x="14.3626571" y="67.5044883" width="172.351885" height="172.351885"></rect>
                <path d="M172.351885,53.1418312 L28.7253142,53.1418312 C12.8607612,53.1418312 0,66.0025925 0,81.8671454 L0,225.493716 C0,241.358269 12.8607612,254.219031 28.7253142,254.219031 L172.351885,254.219031 C188.216438,254.219031 201.077199,241.358269 201.077199,225.493716 L201.077199,81.8671454 C201.077199,66.0025925 188.216438,53.1418312 172.351885,53.1418312 Z M172.351885,67.5044883 C180.284162,67.5044883 186.714542,73.9348689 186.714542,81.8671454 L186.714542,225.493716 C186.714542,233.425993 180.284162,239.856373 172.351885,239.856373 L28.7253142,239.856373 C20.7930377,239.856373 14.3626571,233.425993 14.3626571,225.493716 L14.3626571,81.8671454 C14.3626571,73.9348689 20.7930377,67.5044883 28.7253142,67.5044883 L172.351885,67.5044883 Z" id="Rectangle" fill="#000000" fill-rule="nonzero"></path>
                <rect id="Rectangle" fill="#FFFFFF" x="70.3770197" y="14.3626571" width="172.351885" height="172.351885"></rect>
                <path d="M228.366248,0 C244.230801,0 257.091562,12.8607612 257.091562,28.7253142 L257.091562,172.351885 C257.091562,188.216438 244.230801,201.077199 228.366248,201.077199 L84.7396768,201.077199 C68.8751239,201.077199 56.0143627,188.216438 56.0143627,172.351885 L56.0143627,28.7253142 C56.0143627,12.8607612 68.8751239,0 84.7396768,0 Z M242.488807,26.0961534 L160.757178,106.485073 L160.555213,106.695249 C157.835714,109.414748 153.477737,109.497157 150.658937,106.942476 L150.399281,106.695249 L70.5048097,26.8010505 C70.4205308,27.4304804 70.3770197,28.072816 70.3770197,28.7253142 L70.3770197,172.351885 C70.3770197,180.284162 76.8074004,186.714542 84.7396768,186.714542 L228.366248,186.714542 C236.298524,186.714542 242.728905,180.284162 242.728905,172.351885 L242.728905,28.7253142 C242.728905,27.8272942 242.646489,26.9485235 242.488807,26.0961534 Z M228.366248,14.3626571 L84.7396768,14.3626571 C82.8537158,14.3626571 81.0526551,14.7261588 79.4027344,15.3869225 L155.513106,91.497307 L233.117487,15.1671399 C231.630315,14.6460143 230.031372,14.3626571 228.366248,14.3626571 Z" id="Combined-Shape" fill="#000000" fill-rule="nonzero"></path>
                <path d="M304.571241,254.219031 C309.482096,254.219031 313.133349,252.950698 315.524999,250.414034 C317.916649,247.87737 319.112475,243.976045 319.112475,238.710058 L319.112475,238.710058 L319.112475,202.008701 L354.700231,202.008701 C368.539913,202.008701 379.190729,198.027101 386.652678,190.063902 C394.114627,182.100703 397.845601,170.830208 397.845601,156.252416 C397.845601,141.289308 394.018961,129.938538 386.36568,122.200107 C378.712399,114.461675 367.519476,110.59246 352.78691,110.59246 L352.78691,110.59246 L307.728219,110.59246 C301.095376,110.59246 296.503407,112.133724 293.952314,115.216253 C291.40122,118.298781 290.125673,124.206961 290.125673,132.940793 L290.125673,132.940793 L290.125673,238.710058 C290.125673,243.783387 291.305554,247.668657 293.665316,250.36587 C296.152632,252.934644 299.78794,254.219031 304.571241,254.219031 Z M347.175804,176.660682 L318.850987,176.660682 L318.850987,135.008977 L348.722552,135.008977 C355.425125,135.008977 360.500391,136.817795 363.94835,140.435431 C367.396308,144.053068 369.120287,149.1862 369.120287,155.834829 C369.120287,163.135285 367.380196,168.431374 363.900014,171.723097 C360.419832,175.014821 354.845095,176.660682 347.175804,176.660682 L347.175804,176.660682 Z M465.35009,255.655296 C481.810234,255.655296 494.782241,250.678382 504.266113,240.724555 C513.749985,230.770727 518.491921,217.060132 518.491921,199.59277 C518.491921,182.253844 513.733911,168.591413 504.21789,158.605476 C494.70187,148.619539 481.745936,143.626571 465.35009,143.626571 C448.825649,143.626571 435.837566,148.619539 426.385843,158.605476 C416.93412,168.591413 412.208259,182.253844 412.208259,199.59277 C412.208259,217.060132 416.950194,230.770727 426.434066,240.724555 C435.917938,250.678382 448.889946,255.655296 465.35009,255.655296 Z M465.445841,232.675045 C461.424297,232.675045 457.913425,231.971829 454.913226,230.565396 C451.913026,229.158964 449.359665,227.049316 447.253142,224.236451 C443.040096,218.546793 440.933573,210.555701 440.933573,200.263173 C440.933573,189.970646 443.056054,182.0275 447.301017,176.433735 C451.54598,170.83997 457.594255,168.043088 465.445841,168.043088 C473.105925,168.043088 479.074407,170.855953 483.351287,176.481682 C487.628167,182.107411 489.766607,190.034575 489.766607,200.263173 C489.766607,210.619629 487.628167,218.610722 483.351287,224.236451 C479.074407,229.86218 473.105925,232.675045 465.445841,232.675045 Z M579.533214,135.008977 C583.722322,135.008977 586.975228,134.445924 589.291932,133.31982 C591.608636,132.193716 593.433437,130.343687 594.766335,127.769734 L594.766335,127.769734 L603.906207,110.299029 L604.47745,108.85118 L604.667864,107.403332 C604.667864,105.086774 603.842736,103.15631 602.192481,101.611938 C600.542227,99.9388686 598.638086,99.1023339 596.480061,99.1023339 C595.337577,99.1023339 594.2903,99.2953804 593.33823,99.6814733 C592.766988,99.8745198 592.322688,100.099741 592.005332,100.357136 C590.799376,101.193671 589.625156,102.673694 588.482672,104.797205 L588.482672,104.797205 L579.533214,120.433968 L570.393341,104.797205 C569.123914,102.609345 567.917959,101.161496 566.775475,100.453659 C565.632991,99.5527757 564.17315,99.1023339 562.395952,99.1023339 C560.174456,99.1023339 558.286183,99.890607 556.731135,101.467153 C555.176088,103.043699 554.398564,104.893728 554.398564,107.017239 L554.398564,107.017239 L554.588978,108.85118 L555.16022,110.395552 L564.109678,127.769734 C565.506048,130.408036 567.299113,132.274152 569.488874,133.368082 C571.678636,134.462012 575.026749,135.008977 579.533214,135.008977 Z M578.76416,255.655296 C594.675408,255.655296 606.800546,252.540711 615.139574,246.311542 C623.478601,240.082372 627.648115,231.0276 627.648115,219.147225 C627.648115,210.670417 624.96429,204.039883 619.59664,199.255624 C614.22899,194.471365 604.931454,190.634325 591.70403,187.744504 L591.70403,187.744504 L583.07745,185.817957 C574.578671,183.891409 569.147121,182.253844 566.782799,180.905261 C564.418477,179.364023 563.236316,177.373258 563.236316,174.932964 C563.236316,171.657834 564.514327,169.201486 567.070351,167.563921 C569.626375,165.926356 573.524311,165.107573 578.76416,165.107573 C581.000681,165.107573 583.476829,165.508937 586.192604,166.311665 C588.908379,167.114393 591.001124,168.093722 592.470838,169.24965 L592.470838,169.24965 L594.675408,170.983543 C600.23476,175.350383 604.611951,177.533803 607.80698,177.533803 C611.193712,177.533803 613.941437,176.474202 616.050157,174.355 C618.286678,172.300017 619.404938,169.60285 619.404938,166.263502 C619.404938,160.034332 615.491027,154.704218 607.663204,150.273159 C599.835381,145.8421 590.202366,143.626571 578.76416,143.626571 C565.600638,143.626571 555.168865,146.773265 547.468844,153.066653 C539.768822,159.360041 535.918811,167.836849 535.918811,178.497077 C535.918811,186.717012 538.650562,193.267273 544.114063,198.147859 C549.577563,203.028446 558.891075,207.009977 572.054598,210.092453 L572.054598,210.092453 L582.885748,212.596964 C582.949649,212.661182 583.141351,212.725401 583.460854,212.789619 C594.196154,215.422567 599.563804,218.922461 599.563804,223.289302 C599.563804,226.62865 598.06214,229.213435 595.058812,231.043655 C592.055484,232.873874 587.806094,233.788984 582.310643,233.788984 C577.837601,233.788984 574.163317,233.291293 571.28779,232.29591 C568.412264,231.300527 565.85624,229.679017 563.619719,227.431378 L563.619719,227.431378 L560.840043,224.44523 C556.430902,219.628862 552.245413,217.220678 548.283576,217.220678 C544.641242,217.220678 541.637915,218.408715 539.273593,220.78479 C536.909271,223.160865 535.72711,226.179123 535.72711,229.839562 C535.72711,236.967787 539.816748,243.052466 547.996024,248.093598 C556.1753,253.13473 566.431345,255.655296 578.76416,255.655296 Z M680.071813,254.219031 C686.695785,254.219031 691.615531,253.222611 694.831051,251.229771 C697.917951,249.108361 699.4614,245.829818 699.4614,241.394142 C699.4614,238.37274 698.59321,236.01026 696.856829,234.306704 C695.120448,232.603147 692.708808,231.751369 689.621908,231.751369 L689.621908,231.751369 L686.920871,231.847796 L684.798628,231.944224 C682.483453,231.944224 680.891771,231.494228 680.02358,230.594236 C679.15539,229.694244 678.721295,227.958545 678.721295,225.387138 L678.721295,225.387138 L678.721295,167.337643 L685.85975,167.337643 C689.525443,167.337643 692.306868,166.518007 694.204025,164.878736 C696.101182,163.239464 697.04976,160.780557 697.04976,157.502014 C697.04976,154.094901 696.133337,151.603851 694.30049,150.028865 C692.467644,148.453879 689.654064,147.666385 685.85975,147.666385 L685.85975,147.666385 L678.721295,147.666385 L678.721295,133.491509 C678.721295,130.855817 678.383665,128.557623 677.708406,126.596926 C677.033147,124.636228 676.116723,123.013028 674.959136,121.727325 C672.579651,119.091634 669.074734,117.773788 664.444385,117.773788 C659.814036,117.773788 656.357351,119.059491 654.074332,121.630897 C651.791313,124.202304 650.649803,128.123698 650.649803,133.395081 L650.649803,133.395081 L650.649803,147.666385 L646.11592,147.666385 C642.450226,147.666385 639.652724,148.486021 637.723412,150.125293 C635.7941,151.764564 634.829443,154.223471 634.829443,157.502014 C634.829443,160.780557 635.761944,163.255536 637.626946,164.92695 C639.620569,166.534079 642.450226,167.337643 646.11592,167.337643 L646.11592,167.337643 L650.649803,167.337643 L650.649803,224.03715 C650.649803,235.865619 652.788124,243.853049 657.064766,247.999442 C661.341408,252.145834 669.010424,254.219031 680.071813,254.219031 Z M787.894545,255.655296 C791.703728,255.655296 794.6736,254.693676 796.80416,252.770436 C798.93472,250.847196 800,248.250823 800,244.981315 L800,244.981315 L799.515782,239.884729 C799.257532,238.217921 799.112267,237.031923 799.079985,236.326735 C799.047704,235.621547 799.031564,234.371441 799.031564,232.576417 L799.031564,173.148304 C799.031564,163.532104 795.109396,156.207765 787.265061,151.175288 C779.420726,146.14281 768.138442,143.626571 753.418208,143.626571 C741.732409,143.626571 731.805935,146.254999 723.638788,151.511855 C715.471641,156.76871 711.388067,162.85897 711.388067,169.782634 C711.388067,172.988034 712.469488,175.696597 714.632329,177.908322 C716.795171,180.120048 719.490652,181.225911 722.718774,181.225911 C726.592519,181.225911 730.756796,178.821861 735.211603,174.013762 L735.211603,174.013762 L738.407444,170.744254 C740.408879,169.013338 742.765407,167.699124 745.477029,166.801612 C746.961965,166.288748 748.398479,165.936154 749.786572,165.74383 C751.174664,165.551506 752.708021,165.455344 754.386645,165.455344 C760.584638,165.455344 765.007164,166.368883 767.654224,168.195961 C770.301283,170.023039 771.624813,173.052142 771.624813,177.28327 C771.624813,179.270617 771.269719,180.953452 770.559533,182.331774 C769.849346,183.710096 768.671082,184.70377 767.02474,185.312796 C765.378398,185.921822 760.972012,186.659064 753.805583,187.524522 C746.639153,188.38998 741.280472,189.175303 737.729538,189.880491 C726.366551,192.252487 718.344669,195.986778 713.663893,201.083364 C708.983117,206.179949 706.642729,213.536342 706.642729,223.152542 C706.642729,233.409821 709.418913,241.391267 714.971282,247.096879 C720.523651,252.80249 728.367986,255.655296 738.504287,255.655296 C746.058091,255.655296 752.740303,254.196839 758.550921,251.279925 C764.36154,248.363012 769.010034,244.244073 772.496406,238.923109 C772.496406,244.564613 773.755373,248.763687 776.273308,251.52033 C778.791242,254.276974 782.664988,255.655296 787.894545,255.655296 Z M748.779219,235.547576 C744.090553,235.547576 740.443813,234.401837 737.838999,232.110359 C735.234185,229.818881 733.931777,226.676283 733.931777,222.682564 C733.931777,218.885257 734.908583,215.906336 736.862194,213.745799 C739.011165,211.519792 742.495105,209.719345 747.314011,208.344458 C747.509372,208.213517 750.61887,207.509706 756.642503,206.233025 C762.666136,204.956344 768.022286,203.237736 772.710952,201.077199 L772.710952,201.077199 L772.710952,211.192438 C772.710952,218.525168 770.529419,224.41754 766.166355,228.869555 C761.803291,233.321569 756.007579,235.547576 748.779219,235.547576 Z" id="Pošta" fill="#000000" fill-rule="nonzero"></path>
            </g>
        </g>
    </g>
</svg>