<?xml version="1.0" encoding="UTF-8"?>
<svg width="980px" height="680px" viewBox="0 0 980 680" version="1.1" xmlns="http://www.w3.org/2000/svg" xmlns:xlink="http://www.w3.org/1999/xlink">
    <title>BA Pošte Srpske</title>
    <defs>
        <linearGradient x1="50%" y1="0%" x2="50%" y2="100%" id="linearGradient-1">
            <stop stop-color="#FFFFFF" offset="0%"></stop>
            <stop stop-color="#EDEDED" offset="100%"></stop>
        </linearGradient>
        <rect id="path-2" x="0" y="0" width="900" height="600" rx="80"></rect>
        <filter x="-6.7%" y="-10.0%" width="113.3%" height="120.0%" filterUnits="objectBoundingBox" id="filter-3">
            <feMorphology radius="2.5" operator="dilate" in="SourceAlpha" result="shadowSpreadOuter1"></feMorphology>
            <feOffset dx="0" dy="0" in="shadowSpreadOuter1" result="shadowOffsetOuter1"></feOffset>
            <feGaussianBlur stdDeviation="17.5" in="shadowOffsetOuter1" result="shadowBlurOuter1"></feGaussianBlur>
            <feColorMatrix values="0 0 0 0 0   0 0 0 0 0   0 0 0 0 0  0 0 0 0.5 0" type="matrix" in="shadowBlurOuter1"></feColorMatrix>
        </filter>
    </defs>
    <g id="BA-Pošte-Srpske" stroke="none" stroke-width="1" fill="none" fill-rule="evenodd">
        <g transform="translate(40, 40)">
            <g id="Rectangle">
                <use fill="black" fill-opacity="1" filter="url(#filter-3)" xlink:href="#path-2"></use>
                <use fill="url(#linearGradient-1)" fill-rule="evenodd" xlink:href="#path-2"></use>
            </g>
            <g id="Logo" transform="translate(50, 41)">
                <polygon id="Path" fill="#DA2127" points="773.548004 26.3991522 554.43504 248.152031 343.241823 248.152031 499.751837 89.7571175 394.155228 89.7571175 237.645214 248.152031 26.4519962 248.152031 245.56496 26.3991522"></polygon>
                <path d="M773.548004,0 C796.618884,0 808.425673,27.3877975 793.089775,44.1513709 L792.326465,44.9540605 L581.108744,258.711692 L792.326465,472.469323 C808.542064,488.880291 797.358871,516.52858 774.655479,517.402168 L773.548004,517.423383 L562.354786,517.423383 C555.768921,517.423383 549.438889,514.962573 544.591834,510.55356 L543.576325,509.579139 L324.463361,287.826261 C316.108286,279.370522 315.027091,267.931478 319.047756,258.708768 C315.182121,249.842186 316.034172,238.927643 323.531683,230.585492 L324.463406,229.597077 L436.552266,116.15627 L405.184793,116.15627 L264.324197,258.711692 L475.536639,472.469323 C491.752238,488.880291 480.569045,516.52858 457.865653,517.402168 L456.758177,517.423383 L245.56496,517.423383 C238.979095,517.423383 232.649063,514.962573 227.802007,510.55356 L226.786498,509.579139 L7.67353479,287.826261 C-0.681540824,279.370522 -1.76273546,267.931478 2.25792899,258.708768 C-1.60769981,249.842227 -0.755666634,238.927697 6.74181541,230.585538 L7.67353479,229.597122 L226.786498,7.84424388 C231.415439,3.15953236 237.615009,0.386407675 244.158066,0.0374786573 L245.56496,0 L773.548004,0 Z M237.645214,269.271353 L26.4519962,269.271353 L245.56496,491.024231 L456.758177,491.024231 L237.645214,269.271353 Z M554.43504,269.271353 L343.241823,269.271353 L562.354786,491.024231 L773.548004,491.024231 L554.43504,269.271353 Z M773.548004,26.3991522 L245.56496,26.3991522 L26.4519962,248.152031 L237.645214,248.152031 L394.155228,89.7571175 L499.751837,89.7571175 L343.241823,248.152031 L554.43504,248.152031 L773.548004,26.3991522 Z" id="Shape" fill="#000000" fill-rule="nonzero"></path>
                <path d="M26.4519962,269.271353 L245.56496,491.024231 L456.758177,491.024231 L237.645214,269.271353 L26.4519962,269.271353 Z M562.354786,491.024231 L773.548004,491.024231 L554.43504,269.271353 L343.241823,269.271353 L562.354786,491.024231 Z" id="Shape" fill="#FFCB08"></path>
            </g>
        </g>
    </g>
</svg>