<?xml version="1.0" encoding="UTF-8"?>
<svg width="980px" height="680px" viewBox="0 0 980 680" version="1.1" xmlns="http://www.w3.org/2000/svg" xmlns:xlink="http://www.w3.org/1999/xlink">
    <title>BA Pošte Srpske text</title>
    <defs>
        <linearGradient x1="50%" y1="0%" x2="50%" y2="100%" id="linearGradient-1">
            <stop stop-color="#FFFFFF" offset="0%"></stop>
            <stop stop-color="#EDEDED" offset="100%"></stop>
        </linearGradient>
        <rect id="path-2" x="0" y="0" width="900" height="600" rx="80"></rect>
        <filter x="-6.7%" y="-10.0%" width="113.3%" height="120.0%" filterUnits="objectBoundingBox" id="filter-3">
            <feMorphology radius="2.5" operator="dilate" in="SourceAlpha" result="shadowSpreadOuter1"></feMorphology>
            <feOffset dx="0" dy="0" in="shadowSpreadOuter1" result="shadowOffsetOuter1"></feOffset>
            <feGaussianBlur stdDeviation="17.5" in="shadowOffsetOuter1" result="shadowBlurOuter1"></feGaussianBlur>
            <feColorMatrix values="0 0 0 0 0   0 0 0 0 0   0 0 0 0 0  0 0 0 0.5 0" type="matrix" in="shadowBlurOuter1"></feColorMatrix>
        </filter>
    </defs>
    <g id="BA-Pošte-Srpske-text" stroke="none" stroke-width="1" fill="none" fill-rule="evenodd">
        <g transform="translate(40, 40)">
            <g id="Rectangle">
                <use fill="black" fill-opacity="1" filter="url(#filter-3)" xlink:href="#path-2"></use>
                <use fill="url(#linearGradient-1)" fill-rule="evenodd" xlink:href="#path-2"></use>
            </g>
            <g id="Logo" transform="translate(50, 257.8438)">
                <polygon id="Path" fill="#DA2127" points="99.4052067 21.4259042 71.2479762 49.9223784 44.108477 49.9223784 64.2208814 29.5677539 50.6511318 29.5677539 30.5387274 49.9223784 3.39922815 49.9223784 31.5564586 21.4259042"></polygon>
                <path d="M99.4052067,18.0334668 C102.369943,18.0334668 103.88718,21.5529506 101.916433,23.7071627 L101.818343,23.8103127 L74.675695,51.2793533 L101.818343,78.7483939 C103.902137,80.8572942 102.465035,84.4102527 99.5475234,84.5225136 L99.4052067,84.5252399 L72.2657075,84.5252399 C71.4193873,84.5252399 70.6059431,84.2090121 69.9830696,83.6424296 L69.8525711,83.5172111 L41.6953406,55.0207369 C40.6216671,53.9341275 40.4827276,52.464147 40.9994052,51.2789777 C40.5026498,50.1395726 40.612143,48.7369934 41.5756148,47.6649808 L41.6953464,47.537964 L56.0993863,32.9601913 L52.0684921,32.9601913 L33.9671246,51.2793533 L61.1090942,78.7483939 C63.1928886,80.8572942 61.7557863,84.4102527 58.8382746,84.5225136 L58.6959579,84.5252399 L31.5564586,84.5252399 C30.7101384,84.5252399 29.8966943,84.2090121 29.2738208,83.6424296 L29.1433222,83.5172111 L0.986091759,55.0207369 C-0.087581774,53.9341275 -0.226521279,52.464147 0.290156393,51.2789777 C-0.206598338,50.1395779 -0.0971073516,48.7370003 0.866360654,47.6649867 L0.986091759,47.5379698 L29.1433222,19.0414956 C29.7381668,18.4394842 30.5348459,18.0831223 31.375665,18.038283 L31.5564586,18.0334668 L99.4052067,18.0334668 Z M30.5387274,52.6363283 L3.39922815,52.6363283 L31.5564586,81.1328025 L58.6959579,81.1328025 L30.5387274,52.6363283 Z M71.2479762,52.6363283 L44.108477,52.6363283 L72.2657075,81.1328025 L99.4052067,81.1328025 L71.2479762,52.6363283 Z M99.4052067,21.4259042 L31.5564586,21.4259042 L3.39922815,49.9223784 L30.5387274,49.9223784 L50.6511318,29.5677539 L64.2208814,29.5677539 L44.108477,49.9223784 L71.2479762,49.9223784 L99.4052067,21.4259042 Z" id="Shape" fill="#000000" fill-rule="nonzero"></path>
                <path d="M3.39922815,52.6363283 L31.5564586,81.1328025 L58.6959579,81.1328025 L30.5387274,52.6363283 L3.39922815,52.6363283 Z M72.2657075,81.1328025 L99.4052067,81.1328025 L71.2479762,52.6363283 L44.108477,52.6363283 L72.2657075,81.1328025 Z" id="Shape" fill="#FFCB08"></path>
                <path d="M132.11998,82.5838742 L136.897559,59.9756855 L150.249188,59.9756855 C157.216491,59.9756855 162.904086,58.440035 167.311972,55.3687339 C171.719858,52.2974328 174.720064,47.0506267 176.31259,39.6283157 C177.734489,32.8316401 176.916897,27.8123378 173.859815,24.5704089 C170.802733,21.3284799 166.117577,19.7075154 159.804347,19.7075154 L159.804347,19.7075154 L132.418579,19.7075154 L119.06695,82.5838742 L132.11998,82.5838742 Z M151.443583,49.1408177 L139.201035,49.1408177 L143.125475,30.6276972 L155.368023,30.6276972 C158.467762,30.6276972 160.73569,31.3244275 162.171808,32.7178882 C163.607926,34.1113489 163.97051,36.4432627 163.25956,39.7136296 C162.577049,42.9839965 161.212026,45.3727863 159.164492,46.8799989 C157.116958,48.3872114 154.543322,49.1408177 151.443583,49.1408177 L151.443583,49.1408177 Z M204.466184,84.3328096 C213.452583,84.3328096 220.832237,81.8871439 226.605146,76.9958125 C234.226523,70.9954002 239.245825,62.3502563 241.663053,51.0603809 C244.108718,39.5430018 242.772134,30.8978579 237.653298,25.1249493 C233.927924,20.233618 227.572037,17.7879523 218.585637,17.7879523 C209.599238,17.7879523 202.219584,20.233618 196.446675,25.1249493 C188.853736,30.8978579 183.834434,39.5430018 181.388768,51.0603809 C178.971541,62.3502563 180.308125,70.9954002 185.398523,76.9958125 C189.123897,81.8871439 195.479784,84.3328096 204.466184,84.3328096 Z M206.812316,73.1993431 C201.608167,73.1993431 197.868574,71.2797799 195.593536,67.4406535 C193.318498,63.6015271 192.934586,58.1414363 194.441798,51.0603809 C195.949011,43.9793256 198.657728,38.5192347 202.567949,34.6801083 C206.47817,30.840982 211.035356,28.9214188 216.239505,28.9214188 C221.443654,28.9214188 225.161919,30.8480915 227.3943,34.7014368 C229.626681,38.5547822 230.003484,44.0077636 228.524709,51.0603809 C227.017496,58.1414363 224.322998,63.6015271 220.441215,67.4406535 C216.559432,71.2797799 212.016466,73.1993431 206.812316,73.1993431 Z M287.519285,12.754431 L300.231059,0 L290.334644,0 L283.253589,7.20902621 L279.201177,0 L269.304763,0 L276.599103,12.754431 L287.519285,12.754431 Z M267.93974,84.2048387 C275.959248,84.2048387 282.571077,82.306604 287.775226,78.5101346 C292.979375,74.7136652 296.192866,69.9431951 297.415699,64.1987246 C298.610094,58.5964438 297.643203,54.3165289 294.515026,51.3589796 C292.49593,49.4536354 289.239782,47.9322039 284.746582,46.7946849 L284.746582,46.7946849 L274.466255,44.1926104 C270.484939,43.1972813 267.93974,42.3299231 266.830659,41.5905358 C265.067505,40.4814549 264.42765,38.8036145 264.911096,36.5570146 C265.422979,34.1113489 266.837768,32.2060047 269.155463,30.840982 C271.473158,29.4759592 274.324065,28.7934479 277.708184,28.7934479 C280.751047,28.7934479 283.182494,29.3195504 285.002524,30.3717554 C287.732569,31.9642819 288.798993,34.6516704 288.201796,38.4339208 L288.201796,38.4339208 L300.828256,38.4339208 C302.022651,31.7509971 300.657628,26.6534904 296.733188,23.1414007 C292.808748,19.629311 287.533503,17.8732662 280.907456,17.8732662 C272.973261,17.8732662 266.560498,19.7359534 261.669167,23.4613279 C256.777835,27.1867024 253.734972,31.864749 252.540577,37.4954677 C251.232431,43.6665079 252.384169,48.2023646 255.995791,51.1030379 C258.128639,52.8377543 262.309021,54.4444997 268.536937,55.9232743 L268.536937,55.9232743 L274.892824,57.4162679 C278.618199,58.2694071 281.26293,59.2505172 282.827019,60.3595982 C284.419545,61.4971171 284.988305,63.1038626 284.533297,65.1798346 C283.79391,68.7345813 281.447777,71.166028 277.494899,72.4741748 C275.418927,73.1566861 272.831071,73.4979418 269.731332,73.4979418 C264.555621,73.4979418 261.171502,72.204014 259.578976,69.6161585 C258.725837,68.1942598 258.3988,66.0471928 258.597866,63.1749575 L258.597866,63.1749575 L246.05672,63.1749575 C244.663259,69.7156914 245.91453,74.855855 249.810532,78.5954485 C253.706534,82.335042 259.749604,84.2048387 267.93974,84.2048387 Z M330.133587,82.5838742 L341.096426,30.840982 L359.908145,30.840982 L362.296935,19.7075154 L311.364525,19.7075154 L308.975735,30.840982 L327.872769,30.840982 L316.90993,82.5838742 L330.133587,82.5838742 Z M404.655296,82.5838742 L407.044086,71.2797799 L372.236007,71.2797799 L375.648564,55.1127921 L406.190947,55.1127921 L408.53708,44.1926104 L377.994696,44.1926104 L380.810056,30.840982 L414.082484,30.840982 L416.471274,19.7075154 L370.359101,19.7075154 L357.007472,82.5838742 L404.655296,82.5838742 Z M462.114221,84.2048387 C470.13373,84.2048387 476.745558,82.306604 481.949707,78.5101346 C487.153857,74.7136652 490.367348,69.9431951 491.59018,64.1987246 C492.784575,58.5964438 491.817684,54.3165289 488.689507,51.3589796 C486.670411,49.4536354 483.414263,47.9322039 478.921063,46.7946849 L478.921063,46.7946849 L468.640736,44.1926104 C464.65942,43.1972813 462.114221,42.3299231 461.00514,41.5905358 C459.241986,40.4814549 458.602131,38.8036145 459.085577,36.5570146 C459.59746,34.1113489 461.01225,32.2060047 463.329944,30.840982 C465.647639,29.4759592 468.498546,28.7934479 471.882665,28.7934479 C474.925528,28.7934479 477.356975,29.3195504 479.177005,30.3717554 C481.90705,31.9642819 482.973474,34.6516704 482.376277,38.4339208 L482.376277,38.4339208 L495.002737,38.4339208 C496.197132,31.7509971 494.832109,26.6534904 490.907669,23.1414007 C486.983229,19.629311 481.707985,17.8732662 475.081937,17.8732662 C467.147742,17.8732662 460.734979,19.7359534 455.843648,23.4613279 C450.952317,27.1867024 447.909453,31.864749 446.715059,37.4954677 C445.406912,43.6665079 446.55865,48.2023646 450.170272,51.1030379 C452.30312,52.8377543 456.483502,54.4444997 462.711419,55.9232743 L462.711419,55.9232743 L469.067306,57.4162679 C472.79268,58.2694071 475.437412,59.2505172 477.0015,60.3595982 C478.594027,61.4971171 479.162786,63.1038626 478.707778,65.1798346 C477.968391,68.7345813 475.622258,71.166028 471.66938,72.4741748 C469.593408,73.1566861 467.005553,73.4979418 463.905813,73.4979418 C458.730102,73.4979418 455.345983,72.204014 453.753457,69.6161585 C452.900318,68.1942598 452.573281,66.0471928 452.772347,63.1749575 L452.772347,63.1749575 L440.231201,63.1749575 C438.83774,69.7156914 440.089011,74.855855 443.985013,78.5954485 C447.881016,82.335042 453.924085,84.2048387 462.114221,84.2048387 Z M510.572527,82.5838742 L515.776677,57.9281515 L529.34159,57.9281515 C533.209154,57.9281515 535.704586,58.5964438 536.827886,59.9330286 C537.951186,61.2696133 538.114705,63.9427828 537.318441,67.952537 L537.318441,67.952537 L536.166703,73.7965405 C535.79701,75.6450088 535.597944,77.4508201 535.569506,79.2139744 C535.569506,80.0671136 535.626382,81.1904136 535.740134,82.5838742 L535.740134,82.5838742 L550.200843,82.5838742 L550.499442,81.0055667 C549.418799,80.2377415 548.878477,79.0433466 548.878477,77.4223821 C548.878477,76.3986151 549.177076,74.4506139 549.774274,71.5783786 L549.774274,71.5783786 L550.67007,67.3553396 C551.608523,62.9474537 551.700946,59.6699773 550.94734,57.5229103 C550.193734,55.3758434 548.494565,53.7193314 545.849833,52.5533745 C549.575208,51.3589796 552.49721,49.3185551 554.615839,46.4321008 C556.734468,43.5456465 558.120819,40.6094258 558.774892,37.6234386 C559.286776,35.1493349 559.350761,32.945392 558.966848,31.0116098 C558.582936,29.0778276 557.879096,27.3146733 556.855329,25.7221468 C555.604058,23.7883646 553.89778,22.323809 551.736494,21.3284799 C549.575208,20.3331509 546.304841,19.7928294 541.925393,19.7075154 L541.925393,19.7075154 L511.084411,19.7075154 L497.732783,82.5838742 L510.572527,82.5838742 Z M532.882117,47.5198533 L517.994839,47.5198533 L521.578023,30.6276972 L536.849215,30.6276972 C539.693012,30.6276972 541.754765,30.9973908 543.034474,31.7367781 C545.281074,33.0449249 546.006242,35.6043425 545.209979,39.4150309 C544.442154,42.9413396 542.622123,45.3016913 539.749888,46.4960862 C538.128924,47.1785976 535.839667,47.5198533 532.882117,47.5198533 L532.882117,47.5198533 Z M573.875456,82.5838742 L578.653035,59.9756855 L592.004664,59.9756855 C598.971967,59.9756855 604.659562,58.440035 609.067448,55.3687339 C613.475334,52.2974328 616.47554,47.0506267 618.068066,39.6283157 C619.489965,32.8316401 618.672373,27.8123378 615.615291,24.5704089 C612.558209,21.3284799 607.873053,19.7075154 601.559823,19.7075154 L601.559823,19.7075154 L574.174055,19.7075154 L560.822426,82.5838742 L573.875456,82.5838742 Z M593.199059,49.1408177 L580.956511,49.1408177 L584.880952,30.6276972 L597.123499,30.6276972 C600.223238,30.6276972 602.491166,31.3244275 603.927284,32.7178882 C605.363402,34.1113489 605.725986,36.4432627 605.015037,39.7136296 C604.332525,42.9839965 602.967503,45.3727863 600.919968,46.8799989 C598.872434,48.3872114 596.298798,49.1408177 593.199059,49.1408177 L593.199059,49.1408177 Z M641.742679,84.2048387 C649.762187,84.2048387 656.374016,82.306604 661.578165,78.5101346 C666.782314,74.7136652 669.995805,69.9431951 671.218638,64.1987246 C672.413033,58.5964438 671.446142,54.3165289 668.317965,51.3589796 C666.298869,49.4536354 663.042721,47.9322039 658.549521,46.7946849 L658.549521,46.7946849 L648.269194,44.1926104 C644.287878,43.1972813 641.742679,42.3299231 640.633598,41.5905358 C638.870444,40.4814549 638.230589,38.8036145 638.714035,36.5570146 C639.225918,34.1113489 640.640708,32.2060047 642.958402,30.840982 C645.276097,29.4759592 648.127004,28.7934479 651.511123,28.7934479 C654.553986,28.7934479 656.985433,29.3195504 658.805463,30.3717554 C661.535508,31.9642819 662.601932,34.6516704 662.004735,38.4339208 L662.004735,38.4339208 L674.631195,38.4339208 C675.82559,31.7509971 674.460567,26.6534904 670.536127,23.1414007 C666.611687,19.629311 661.336443,17.8732662 654.710395,17.8732662 C646.7762,17.8732662 640.363437,19.7359534 635.472106,23.4613279 C630.580775,27.1867024 627.537911,31.864749 626.343516,37.4954677 C625.03537,43.6665079 626.187108,48.2023646 629.79873,51.1030379 C631.931578,52.8377543 636.11196,54.4444997 642.339876,55.9232743 L642.339876,55.9232743 L648.695763,57.4162679 C652.421138,58.2694071 655.065869,59.2505172 656.629958,60.3595982 C658.222484,61.4971171 658.791244,63.1038626 658.336236,65.1798346 C657.596849,68.7345813 655.250716,71.166028 651.297838,72.4741748 C649.221866,73.1566861 646.63401,73.4979418 643.534271,73.4979418 C638.35856,73.4979418 634.974441,72.204014 633.381915,69.6161585 C632.528776,68.1942598 632.201739,66.0471928 632.400805,63.1749575 L632.400805,63.1749575 L619.859659,63.1749575 C618.466198,69.7156914 619.717469,74.855855 623.613471,78.5954485 C627.509473,82.335042 633.552543,84.2048387 641.742679,84.2048387 Z M690.200985,82.5838742 L694.637309,61.553993 L702.272905,55.1127921 L715.880475,82.5838742 L732.772631,82.5838742 L713.534342,45.6002901 L744.801894,19.7075154 L727.824424,19.7075154 L698.049866,45.6002901 L703.552614,19.7075154 L690.627555,19.7075154 L677.275927,82.5838742 L690.200985,82.5838742 Z M788.184022,82.5838742 L790.572812,71.2797799 L755.764733,71.2797799 L759.177289,55.1127921 L789.719673,55.1127921 L792.065805,44.1926104 L761.523422,44.1926104 L764.338782,30.840982 L797.61121,30.840982 L800,19.7075154 L753.887826,19.7075154 L740.536198,82.5838742 L788.184022,82.5838742 Z" id="POŠTESRPSKE" fill="#000000" fill-rule="nonzero"></path>
            </g>
        </g>
    </g>
</svg>