<?xml version="1.0" encoding="UTF-8"?>
<svg width="980px" height="680px" viewBox="0 0 980 680" version="1.1" xmlns="http://www.w3.org/2000/svg" xmlns:xlink="http://www.w3.org/1999/xlink">
    <title>BE bpost text</title>
    <defs>
        <linearGradient x1="50%" y1="0%" x2="50%" y2="100%" id="linearGradient-1">
            <stop stop-color="#FFFFFF" offset="0%"></stop>
            <stop stop-color="#EDEDED" offset="100%"></stop>
        </linearGradient>
        <rect id="path-2" x="0" y="0" width="900" height="600" rx="80"></rect>
        <filter x="-6.7%" y="-10.0%" width="113.3%" height="120.0%" filterUnits="objectBoundingBox" id="filter-3">
            <feMorphology radius="2.5" operator="dilate" in="SourceAlpha" result="shadowSpreadOuter1"></feMorphology>
            <feOffset dx="0" dy="0" in="shadowSpreadOuter1" result="shadowOffsetOuter1"></feOffset>
            <feGaussianBlur stdDeviation="17.5" in="shadowOffsetOuter1" result="shadowBlurOuter1"></feGaussianBlur>
            <feColorMatrix values="0 0 0 0 0   0 0 0 0 0   0 0 0 0 0  0 0 0 0.5 0" type="matrix" in="shadowBlurOuter1"></feColorMatrix>
        </filter>
        <path d="M444.820296,40.5919662 C392.389006,155.03876 270.049331,271.740662 171.952079,301.62086 C73.29105,331.501057 36.0817477,262.720226 89.0768147,148.273432 L36.645525,164.059197 C12.4031008,217.054264 7.51102258e-15,263.84778 7.51102258e-15,302.184637 L7.51102258e-15,305.567301 C0.563777308,390.133897 59.7603946,429.598309 162.931642,398.026779 C313.460183,352.924595 500.070472,174.207188 579.563073,7.51102258e-15 L444.820296,40.5919662 Z" id="path-4"></path>
        <linearGradient x1="23.9105256%" y1="68.0472497%" x2="80.0064709%" y2="29.1288019%" id="linearGradient-6">
            <stop stop-color="#A21007" offset="0%"></stop>
            <stop stop-color="#B90D11" offset="24.4%"></stop>
            <stop stop-color="#D0091B" offset="55.5%"></stop>
            <stop stop-color="#D9081F" offset="75%"></stop>
            <stop stop-color="#D9081F" offset="100%"></stop>
        </linearGradient>
        <path d="M12.2928089,54.6863989 C-14.7685019,113.319239 4.39992659,148.273432 54.576107,133.051445 C104.752287,117.829457 167.331569,58.0690627 193.829102,0 L12.2928089,54.6863989 L12.2928089,54.6863989 Z" id="path-7"></path>
        <linearGradient x1="27.0873462%" y1="65.8502488%" x2="80.1208692%" y2="29.0768894%" id="linearGradient-9">
            <stop stop-color="#A21007" offset="0%"></stop>
            <stop stop-color="#B90D11" offset="24.4%"></stop>
            <stop stop-color="#D0091B" offset="55.5%"></stop>
            <stop stop-color="#D9081F" offset="75%"></stop>
            <stop stop-color="#D9081F" offset="100%"></stop>
        </linearGradient>
    </defs>
    <g id="BE-bpost-text" stroke="none" stroke-width="1" fill="none" fill-rule="evenodd">
        <g transform="translate(40, 40)">
            <g id="Rectangle">
                <use fill="black" fill-opacity="1" filter="url(#filter-3)" xlink:href="#path-2"></use>
                <use fill="url(#linearGradient-1)" fill-rule="evenodd" xlink:href="#path-2"></use>
            </g>
            <g id="Logo" transform="translate(50, 81)">
                <g id="Clipped" transform="translate(-0, 0)">
                    <mask id="mask-5" fill="white">
                        <use xlink:href="#path-4"></use>
                    </mask>
                    <g id="SVGID_1_"></g>
                    <polygon id="Path" fill="url(#linearGradient-6)" fill-rule="nonzero" mask="url(#mask-5)" points="-201.832276 141.508104 389.006342 -272.30444 781.395349 288.653982 190.55673 701.902748"></polygon>
                </g>
                <g id="Clipped" transform="translate(100.4627, 86.2579)">
                    <mask id="mask-8" fill="white">
                        <use xlink:href="#path-7"></use>
                    </mask>
                    <g id="SVGID_4_"></g>
                    <polygon id="Path" fill="url(#linearGradient-9)" fill-rule="nonzero" mask="url(#mask-8)" points="-84.6768881 48.4848485 125.04827 -98.0972516 263.173711 99.2248062 54.0123297 246.370684"></polygon>
                </g>
                <path d="M524.876674,408.174771 C519.802678,408.174771 514.728682,407.047216 511.346018,406.483439 L511.346018,438.618746 L488.231149,438.618746 L488.231149,333.192389 C494.996476,330.373502 507.963354,327.554616 522.057787,327.554616 C551.937984,327.554616 567.723749,342.776603 567.723749,368.146582 C567.723749,391.825229 553.065539,408.174771 524.876674,408.174771 M522.057787,342.776603 C517.547569,342.776603 513.601128,343.340381 511.346018,344.467935 L511.346018,391.825229 C513.03735,392.389006 518.111346,393.516561 522.057787,393.516561 C536.715997,393.516561 544.045102,383.368569 544.045102,368.146582 C544.608879,352.360817 536.715997,342.776603 522.057787,342.776603 M621.282593,409.302326 C594.78506,409.302326 579.563073,391.825229 579.563073,368.146582 C579.563073,345.031712 594.221283,327.554616 621.282593,327.554616 C648.343904,327.554616 663.002114,345.031712 663.002114,368.146582 C663.002114,391.825229 647.780127,409.302326 621.282593,409.302326 M621.282593,342.776603 C608.879493,342.776603 602.677942,352.360817 602.677942,368.146582 C602.677942,383.932347 608.879493,392.952784 621.282593,392.952784 C633.685694,392.952784 639.887245,383.932347 639.887245,368.146582 C639.323467,352.360817 633.685694,342.776603 621.282593,342.776603 M701.338971,409.302326 C690.063425,409.302326 678.224101,406.483439 671.458774,403.664553 L678.787879,388.442565 C683.298097,390.697674 693.446089,393.516561 700.211416,393.516561 C708.668076,393.516561 714.305849,390.133897 714.305849,385.059901 C714.305849,379.422128 708.104299,376.603242 700.211416,374.348132 C688.372093,370.965469 673.713883,365.891473 673.713883,350.669486 C673.713883,337.13883 686.116984,327.554616 707.540521,327.554616 C719.379845,327.554616 728.964059,329.809725 735.729387,333.192389 L728.400282,346.723044 C724.453841,344.467935 715.997181,342.212826 710.359408,342.212826 C702.466526,342.212826 697.39253,345.59549 697.39253,350.105708 C697.39253,356.307259 703.59408,358.562368 711.486963,360.817477 C723.326286,364.763918 738.548273,368.710359 738.548273,384.496124 C738.548273,399.718111 725.581395,409.302326 701.338971,409.302326 M785.34179,408.738548 C767.300916,408.738548 759.408034,400.281889 759.408034,383.932347 L759.408034,343.904158 L747.56871,343.904158 L747.56871,329.245948 L759.408034,329.245948 L759.408034,311.768851 L782.522903,306.131078 L782.522903,329.245948 L800,329.245948 L800,343.904158 L782.522903,343.904158 L782.522903,382.241015 C782.522903,388.442565 787.033122,390.697674 793.234672,390.697674 C795.489782,390.697674 798.308668,390.133897 800,389.57012 L800,405.919662 C796.617336,407.610994 790.979563,408.738548 785.34179,408.738548 M473.572939,368.146582 C473.572939,393.516561 457.223397,408.738548 427.906977,408.738548 C413.812544,408.738548 400.845666,405.919662 394.080338,403.100775 L394.080338,297.110641 L417.195208,297.110641 L417.195208,329.245948 C420.014094,328.118393 425.651868,327.554616 430.162086,327.554616 C458.350951,327.554616 473.572939,343.904158 473.572939,368.146582 M449.894292,368.146582 C449.894292,353.488372 442.565187,342.776603 427.906977,342.776603 C423.960536,342.776603 418.88654,343.340381 417.195208,344.467935 L417.195208,391.825229 C419.450317,392.952784 423.960536,393.516561 427.906977,393.516561 C442.001409,392.952784 449.894292,383.932347 449.894292,368.146582" id="Shape" fill="#575756" fill-rule="nonzero"></path>
            </g>
        </g>
    </g>
</svg>