<?xml version="1.0" encoding="UTF-8"?>
<svg width="980px" height="680px" viewBox="0 0 980 680" version="1.1" xmlns="http://www.w3.org/2000/svg" xmlns:xlink="http://www.w3.org/1999/xlink">
    <title>BG Balgarski poshti alt</title>
    <defs>
        <linearGradient x1="50%" y1="0%" x2="50%" y2="100%" id="linearGradient-1">
            <stop stop-color="#FFFFFF" offset="0%"></stop>
            <stop stop-color="#EDEDED" offset="100%"></stop>
        </linearGradient>
        <rect id="path-2" x="0" y="0" width="900" height="600" rx="80"></rect>
        <filter x="-6.7%" y="-10.0%" width="113.3%" height="120.0%" filterUnits="objectBoundingBox" id="filter-3">
            <feMorphology radius="2.5" operator="dilate" in="SourceAlpha" result="shadowSpreadOuter1"></feMorphology>
            <feOffset dx="0" dy="0" in="shadowSpreadOuter1" result="shadowOffsetOuter1"></feOffset>
            <feGaussianBlur stdDeviation="17.5" in="shadowOffsetOuter1" result="shadowBlurOuter1"></feGaussianBlur>
            <feColorMatrix values="0 0 0 0 0   0 0 0 0 0   0 0 0 0 0  0 0 0 0.5 0" type="matrix" in="shadowBlurOuter1"></feColorMatrix>
        </filter>
    </defs>
    <g id="BG-Balgarski-poshti-alt" stroke="none" stroke-width="1" fill="none" fill-rule="evenodd">
        <g transform="translate(40, 40)">
            <g id="Rectangle">
                <use fill="black" fill-opacity="1" filter="url(#filter-3)" xlink:href="#path-2"></use>
                <use fill="url(#linearGradient-1)" fill-rule="evenodd" xlink:href="#path-2"></use>
                <use fill="#FFD200" fill-rule="evenodd" xlink:href="#path-2"></use>
            </g>
            <g id="Logo" transform="translate(173.1081, 50)" fill="#020202" fill-rule="nonzero">
                <path d="M46.1250687,298.734559 C46.1250687,250.677915 61.3365832,205.031636 89.6510853,167.36969 L6.81610559,167.36969 C-0.563738056,198.855077 -2.67226481,233.805363 4.10514262,271.768605 C17.3587394,345.58602 48.2335955,400.723109 88.89804,438.686351 C96.5791018,444.712263 100.344328,448.026514 99.7418919,442.452546 C66.3066819,403.886713 46.1250687,353.570353 46.1250687,298.734559 L46.1250687,298.734559 Z M404.875835,156.221754 C368.729662,119.764989 318.576847,97.1678216 263.453934,97.1678216 C208.180411,97.1678216 158.178205,119.764989 122.032032,156.221754 C85.885859,192.678518 63.4451099,243.145526 63.4451099,298.583911 C63.4451099,354.172944 85.885859,404.639952 122.032032,440.946068 C158.178205,477.402832 208.33102,500 263.453934,500 C318.727457,500 368.729662,477.402832 404.875835,440.946068 C441.022008,404.489304 463.462757,354.022296 463.462757,298.583911 C463.462757,243.145526 441.022008,192.678518 404.875835,156.221754 Z M121.730814,194.335643 L119.17046,203.525158 C119.17046,203.525158 141.159382,221.602892 152.756279,231.545646 C164.202567,241.337752 175.498246,252.636336 175.498246,252.636336 L188.751843,222.958723 L166.009876,203.37451 L158.178205,195.540826 C158.178205,195.540826 159.684295,194.034348 162.847086,189.966857 C166.009876,185.899367 167.967793,179.120217 166.160485,173.546249 C164.805003,168.876168 157.876987,161.795722 155.467242,159.385357 C185.287835,135.884303 222.63888,121.874058 263.453934,121.874058 C307.130559,121.874058 346.89135,137.993371 377.615597,164.507382 L375.808288,164.507382 C372.946716,164.507382 364.964436,164.507382 355.024239,167.219042 C345.084041,169.930702 337.854806,176.107261 331.378617,184.242242 C324.902428,192.377222 321.739638,207.893944 321.739638,208.647183 C321.739638,209.400422 320.986592,208.647183 320.986592,208.647183 C320.986592,208.647183 320.082938,204.278397 317.673193,196.896656 C315.263448,189.514914 308.937868,179.120217 305.323251,173.546249 C301.558024,167.821633 297.340971,163.603495 296.587926,161.19313 C295.985489,158.782766 298.395234,156.221754 299.901325,153.208798 C301.407415,150.195842 300.804979,149.593251 299.901325,147.785478 C298.847061,145.977704 291.316609,143.266044 287.099555,142.663453 C282.882502,142.060862 277.159358,140.705032 264.960024,140.705032 C252.760691,140.705032 248.543637,141.759566 240.862576,142.814101 C233.181514,143.868635 218.873654,146.881591 214.505991,151.250377 C210.138329,155.619162 210.288938,159.686653 210.288938,164.055438 C210.288938,168.273576 212.849292,176.408557 215.108427,178.668274 C217.367563,180.92799 221.584617,180.626695 221.584617,180.626695 C228.512633,181.078638 232.880296,178.517626 236.494913,175.956613 C237.850394,175.203375 239.958921,174.600783 242.218057,174.600783 C244.477193,174.600783 250.200337,174.600783 250.200337,183.037059 C250.200337,191.473335 243.422929,194.636939 239.507094,194.636939 C235.591259,194.636939 232.880296,193.733052 229.566897,193.130461 C226.253497,192.52787 219.927917,191.021392 217.969999,191.021392 C216.012082,191.021392 213.602337,193.582404 213.602337,195.540826 C213.602337,197.499247 214.054164,201.114794 215.259036,203.37451 C216.614518,205.634227 220.98218,207.442001 227.45837,207.442001 C233.934559,207.442001 239.055267,206.688762 242.820493,206.236818 C246.58572,205.784875 247.941201,206.839409 248.242419,207.743296 C248.393028,208.044592 248.09181,209.400422 247.338765,210.153661 C246.284502,211.358843 243.573539,211.358843 235.741868,211.358843 C227.910197,211.358843 214.054164,211.810786 204.565794,221.301597 C195.077423,230.792407 181.522608,259.716782 181.522608,259.716782 C180.167127,259.716782 164.503785,262.428442 152.60567,262.428442 C140.707555,262.428442 118.869242,260.620669 118.869242,260.620669 C118.869242,260.620669 119.17046,250.828563 116.00767,242.392287 C113.146098,235.161193 103.657727,232.449533 100.946764,231.846942 C106.519299,218.288641 113.447316,205.784875 121.730814,194.335643 L121.730814,194.335643 Z M354.421802,287.435975 C353.066321,292.557999 348.999876,297.830672 342.222469,301.596867 C335.445062,305.212413 324.60121,304.911118 317.070757,303.705936 C309.540304,302.350105 298.696452,295.570955 293.274526,290.147635 C287.8526,284.724315 288.906864,283.66978 288.906864,283.66978 C288.906864,283.66978 291.768436,283.067189 295.533662,278.24646 C299.298889,273.425731 303.81716,269.960832 306.076296,267.701115 C308.335432,265.441398 311.79944,259.86743 318.275629,243.898765 C324.60121,227.930099 325.053037,219.343176 325.053037,219.343176 C325.053037,219.343176 329.420699,223.410666 332.583489,227.779452 C335.74628,232.148237 341.017597,239.078036 345.686477,246.158481 C350.355358,253.238927 354.421802,266.345285 355.476066,271.467309 C356.831547,276.288039 355.777284,282.31395 354.421802,287.435975 L354.421802,287.435975 Z M171.582411,412.624284 C170.07632,411.117807 166.91353,409.310033 160.437341,408.707442 C153.961151,407.954203 147.484962,410.816511 143.418518,413.226876 C140.556946,415.034649 138.29781,418.951491 137.092937,421.211208 C106.820517,389.424525 88.1449948,346.339259 88.1449948,298.734559 C88.1449948,292.106056 88.5968219,285.477553 89.1992582,278.999699 L91.1571759,291.202169 C91.1571759,291.202169 120.224723,289.394396 127.15274,289.394396 C133.930147,289.394396 185.739662,288.490509 192.36646,288.038566 C198.993259,287.73727 210.740765,287.73727 210.740765,287.73727 C210.740765,287.73727 216.765127,292.557999 221.885835,296.776137 C227.157152,300.994275 238.904658,312.744803 238.904658,312.744803 L246.284502,320.126544 L246.435111,320.729135 C246.435111,320.729135 244.627802,319.825249 241.013185,319.373305 C237.549176,318.921362 233.332123,318.469418 225.199234,319.222657 C217.066345,319.975896 206.523711,322.386261 197.18595,331.726424 C187.848189,341.066586 186.191489,352.967761 186.191489,360.801446 C186.191489,368.635131 189.655497,375.564929 193.119505,380.536306 C196.583514,385.507683 203.210312,389.273878 203.210312,389.273878 C203.210312,389.273878 197.18595,396.053028 192.517069,400.873757 C187.848189,405.543839 179.7153,415.335945 179.7153,415.335945 L175.799464,419.252787 C175.799464,419.102139 173.23911,414.130762 171.582411,412.624284 L171.582411,412.624284 Z M336.198107,426.483881 C335.74628,427.839711 330.324354,428.59295 323.848164,430.551371 C317.371975,432.509792 311.648831,435.974691 309.088477,443.356433 C306.528123,450.738174 308.787259,457.969268 309.540304,462.187406 C309.992131,465.049714 311.648831,467.309431 312.552485,468.514613 C297.039753,473.034046 280.472757,475.595059 263.453934,475.595059 C234.536995,475.595059 202.607876,467.610726 179.112863,454.203073 L192.968896,454.655017 C192.968896,454.655017 197.788386,448.32781 201.854831,443.356433 C205.921275,438.385056 223.693143,417.746309 227.157152,413.678819 C230.62116,409.611329 239.507094,400.271166 241.615621,398.011449 L244.326584,395.299789 C244.326584,395.299789 244.326584,394.094607 243.121711,392.286833 C241.916839,390.47906 239.507094,388.671287 237.097349,387.014161 C234.536995,385.357035 233.030905,384.001205 232.729687,382.34408 C232.428469,380.686954 235.44065,376.920759 238.754049,372.10003 C242.218057,367.279301 252.158255,357.487195 256.676526,352.515818 C261.044189,347.544441 264.206979,346.339259 264.206979,346.339259 C264.658806,347.996384 265.110633,350.858692 268.273423,360.952094 C271.436214,370.894848 277.159358,377.071407 283.786156,383.69991 C290.412954,390.328412 301.708633,393.19072 312.703094,393.943959 C323.546946,394.697198 333.938971,391.684242 333.938971,391.684242 L336.649934,422.265743 C336.649934,421.813799 336.649934,425.128051 336.198107,426.483881 Z M387.405185,423.772221 C379.724123,431.455258 367.675399,442.15125 358.638856,448.32781 L366.621136,437.933112 C366.621136,437.933112 365.265654,436.72793 364.813827,430.099428 C364.362,423.470925 365.265654,401.626996 366.169309,387.918048 C367.072963,374.359747 367.976617,346.489907 367.976617,346.489907 L367.675399,345.134077 C367.675399,345.134077 363.759564,345.134077 357.283374,345.58602 C350.807185,346.037963 340.716378,346.037963 336.649934,345.435372 C332.583489,344.832781 328.667654,341.217234 328.667654,341.217234 C324.149382,337.752335 322.040856,334.287436 322.040856,334.287436 C322.040856,334.287436 322.040856,333.835493 327.462782,333.835493 C332.884708,333.835493 343.126123,331.27448 352.012057,328.713468 C360.897992,326.152456 369.332099,320.879783 377.163769,313.949985 C384.99544,307.170835 387.405185,296.776137 389.061885,290.147635 C390.718584,283.66978 390.869193,278.095812 389.363103,266.947876 C387.857012,255.950588 381.83265,243.145526 378.971078,238.023501 C376.109506,233.052124 366.771745,221.452245 362.102864,218.891232 C357.433983,216.33022 357.433983,216.028924 357.433983,216.028924 L392.074066,178.366978 C420.991004,210.003013 438.762873,252.033745 438.762873,298.433263 C438.762873,347.544441 419.183696,391.684242 387.405185,423.772221 Z M533.947795,110.575475 L378.971078,110.575475 C420.08735,137.993371 458.643268,180.024104 472.800519,240.283218 C477.31879,259.264839 480.63219,278.698403 480.63219,298.734559 C480.63219,355.528774 459.095095,407.351612 423.701967,446.218741 C424.605621,447.574571 425.810494,448.478457 427.316584,447.273275 C470.691992,418.650196 527.170387,356.884604 545.996519,284.724315 C563.015342,218.740585 552.472708,158.632118 533.947795,110.575475 L533.947795,110.575475 Z M230.169333,33.5944562 C227.157152,31.4853872 223.843752,29.8282615 220.078526,28.773727 C222.337662,27.1166014 224.144971,25.0075324 225.349843,22.5971678 C226.554715,20.1868033 226.855934,17.4751431 226.404106,14.6128352 C225.349843,9.79210606 222.940098,6.62850256 219.174872,5.12202471 C215.259036,3.61554685 211.192592,3.31425128 206.975538,4.06749021 C202.156049,4.97137692 198.240213,7.38174149 195.228032,10.9972883 C192.065242,14.6128352 190.86037,19.1322688 191.764024,24.555589 C192.36646,27.5685447 193.721942,30.1295571 195.679859,32.0879783 C197.637777,34.1970473 199.896913,35.7035252 202.457267,37.0593552 C199.746304,38.8671287 197.788386,40.9761976 196.432905,43.53721 C194.926814,46.2488701 194.625596,49.2618259 195.228032,52.7267249 C195.679859,55.4383851 196.884732,57.6981018 198.541431,59.5058753 C200.198131,61.3136487 202.156049,62.8201265 204.264575,63.874661 C208.933456,65.98373 213.602337,66.5863212 218.572436,65.6824345 C224.144971,64.6279 228.813851,62.0668876 232.277859,58.1500452 C235.741868,54.2332028 237.097349,49.2618259 236.043086,43.0852666 C234.988822,39.0177764 233.030905,35.8541729 230.169333,33.5944562 L230.169333,33.5944562 Z M201.252394,23.3504067 C199.896913,22.2958723 198.993259,20.9400422 198.69204,19.2829165 C198.390822,17.6257909 198.541431,16.119313 198.993259,14.9141308 C199.445086,13.5583007 200.047522,12.5037662 200.951176,11.4492317 C202.909094,9.49081049 205.318839,8.2856282 208.029802,7.83368484 C211.192592,7.53238927 214.054164,8.13498042 216.463909,9.79210606 C218.873654,11.4492317 220.530353,14.010244 221.132789,17.4751431 C221.584617,19.7348599 221.434008,21.6932811 220.680962,23.3504067 C219.927917,25.0075324 218.723045,26.664658 216.915736,28.1711359 C215.560254,28.0204881 213.903555,27.7191925 211.945637,27.417897 C209.987719,27.1166014 208.180411,26.664658 206.222493,26.0620669 C204.264575,25.308828 202.607876,24.4049412 201.252394,23.3504067 L201.252394,23.3504067 Z M225.500452,57.6981018 C223.542534,60.2591142 220.831571,61.765592 217.668781,62.3681832 C213.752946,63.1214221 210.138329,62.3681832 206.824929,60.1084664 C203.360921,58.1500452 201.252394,54.9864417 200.499349,50.9189515 C200.047522,48.2072914 200.34874,45.646279 201.403003,43.53721 C202.457267,41.428141 203.812748,39.6203676 205.770666,37.8125942 C207.728584,38.1138897 209.83711,38.2645375 212.246855,38.5658331 C214.505991,38.8671287 216.765127,39.319072 219.024263,40.0723109 C221.283399,40.6749021 223.241316,41.7294366 224.747407,43.0852666 C226.253497,44.4410967 227.307761,46.3995179 227.759588,48.9605303 C228.362024,52.4254293 227.608979,55.2877373 225.500452,57.6981018 L225.500452,57.6981018 Z M379.121687,28.1711359 C373.699761,25.4594757 368.579053,25.1581802 363.759564,27.1166014 C358.789465,29.0750226 354.873629,32.8412172 352.012057,38.4151853 C349.752922,42.7839711 348.849267,47.3034046 349.451704,52.1241338 C349.903531,56.9448629 352.313276,60.5604098 356.982156,62.9707743 C359.693119,64.3266044 362.253473,64.9291955 364.512609,64.6279 C366.771745,64.1759566 369.18149,63.4227177 371.741844,62.0668876 C370.085144,65.0798433 368.127226,68.2434468 366.169309,71.4070503 C364.060782,74.5706538 361.500428,77.1316662 358.337638,78.7887918 C354.873629,80.747213 351.56023,80.8978608 348.39744,79.2407352 C346.439522,78.3368484 345.23465,76.6797228 344.330996,74.7213016 C344.029778,73.6667671 343.879169,72.6122326 343.879169,71.5576981 C343.879169,70.5031636 344.029778,69.5992769 344.632214,68.5447424 C345.535868,66.8876168 346.439522,65.3811389 347.493786,63.874661 L341.921251,62.518831 C341.318815,63.2720699 340.716378,64.1759566 340.264551,65.2304911 C338.457243,68.846038 338.457243,72.1602892 340.264551,75.3238927 C341.921251,78.4874962 344.330996,80.8978608 347.644395,82.5549864 C355.777284,86.6224766 363.157127,86.3211811 369.482708,81.9523953 C375.50707,77.7342573 380.477169,71.8589937 384.242395,64.1759566 C385.899095,60.8617053 387.405185,57.5474541 388.610058,54.082555 C389.664321,50.7683037 390.116148,47.4540524 390.116148,44.1398011 C390.116148,37.5112986 386.501531,32.2386261 379.121687,28.1711359 L379.121687,28.1711359 Z M381.531432,40.2229587 C381.230214,41.8800844 380.778387,43.6878578 380.175951,45.3449834 C379.422905,47.0021091 378.66986,48.6592347 377.916815,50.0150648 C377.163769,51.5215426 376.260115,53.0280205 375.205852,54.5344983 C374.151588,56.191624 372.796107,57.5474541 371.440625,58.7526363 C369.934535,59.9578186 368.428444,60.7110575 366.771745,61.1630009 C365.115045,61.6149443 363.307737,61.3136487 361.349819,60.409762 C359.994337,59.5058753 359.241292,58.4513408 358.940074,57.2461585 C358.488247,55.8903284 358.488247,54.5344983 358.638856,53.1786683 C358.940074,51.6721904 359.391901,50.3163603 360.144946,48.8098825 C360.747383,47.3034046 361.349819,45.9475746 361.952255,44.7423923 L362.554691,43.53721 C363.307737,42.1813799 364.211391,40.6749021 365.265654,39.0177764 C366.169309,37.3606508 367.374181,35.7035252 368.729662,34.3476951 C370.085144,32.991865 371.591234,31.9373305 373.097325,31.3347394 C374.603416,30.7321482 376.109506,30.882796 377.916815,31.636035 C379.724123,32.5399217 380.928996,33.8957517 381.531432,35.2515818 C381.83265,36.7580597 381.83265,38.4151853 381.531432,40.2229587 L381.531432,40.2229587 Z M273.092913,9.79210606 L304.720814,14.3115396 C296.587926,21.2413378 290.412954,28.0204881 285.894683,34.9502862 C281.376411,41.8800844 278.063012,50.6176559 275.653267,61.3136487 L288.756255,63.2720699 C291.166,43.2359144 299.600107,26.5140102 314.058576,13.1063573 L315.112839,5.87526363 L275.954485,0 L273.092913,9.79210606 L273.092913,9.79210606 Z M124.742995,35.2515818 C125.044213,38.8671287 124.291168,42.3320277 122.785077,45.3449834 C121.128378,48.3579391 118.869242,51.0695993 116.00767,53.3293161 L118.568024,57.9993974 C122.33325,55.2877373 125.044213,51.8228382 126.851522,47.4540524 L150.798361,90.2380235 L160.738559,84.6640554 L131.068575,31.636035 L124.742995,35.2515818 L124.742995,35.2515818 Z" id="Shape"></path>
            </g>
        </g>
    </g>
</svg>