<?xml version="1.0" encoding="UTF-8"?>
<svg width="980px" height="680px" viewBox="0 0 980 680" version="1.1" xmlns="http://www.w3.org/2000/svg" xmlns:xlink="http://www.w3.org/1999/xlink">
    <title>BG Balgarski poshti text alt</title>
    <defs>
        <linearGradient x1="50%" y1="0%" x2="50%" y2="100%" id="linearGradient-1">
            <stop stop-color="#FFFFFF" offset="0%"></stop>
            <stop stop-color="#EDEDED" offset="100%"></stop>
        </linearGradient>
        <rect id="path-2" x="0" y="0" width="900" height="600" rx="80"></rect>
        <filter x="-6.7%" y="-10.0%" width="113.3%" height="120.0%" filterUnits="objectBoundingBox" id="filter-3">
            <feMorphology radius="2.5" operator="dilate" in="SourceAlpha" result="shadowSpreadOuter1"></feMorphology>
            <feOffset dx="0" dy="0" in="shadowSpreadOuter1" result="shadowOffsetOuter1"></feOffset>
            <feGaussianBlur stdDeviation="17.5" in="shadowOffsetOuter1" result="shadowBlurOuter1"></feGaussianBlur>
            <feColorMatrix values="0 0 0 0 0   0 0 0 0 0   0 0 0 0 0  0 0 0 0.5 0" type="matrix" in="shadowBlurOuter1"></feColorMatrix>
        </filter>
    </defs>
    <g id="BG-Balgarski-poshti-text-alt" stroke="none" stroke-width="1" fill="none" fill-rule="evenodd">
        <g transform="translate(40, 40)">
            <g id="Rectangle">
                <use fill="black" fill-opacity="1" filter="url(#filter-3)" xlink:href="#path-2"></use>
                <use fill="url(#linearGradient-1)" fill-rule="evenodd" xlink:href="#path-2"></use>
                <use fill="#FFD200" fill-rule="evenodd" xlink:href="#path-2"></use>
            </g>
            <g id="Logo" transform="translate(50, 118)" fill-rule="nonzero">
                <path d="M281.710846,152.865972 C281.710846,128.274825 289.494756,104.917089 303.983618,85.6450304 L261.595989,85.6450304 C257.819637,101.756472 256.740679,119.640943 260.208758,139.067178 C266.990778,176.840414 282.789804,205.054708 303.598276,224.480944 C307.528766,227.564473 309.455476,229.260414 309.147202,226.40815 C292.038014,206.673561 281.710846,180.92609 281.710846,152.865972 L281.710846,152.865972 Z M465.287815,79.9405009 C446.791395,61.2851478 421.127612,49.7219123 392.920571,49.7219123 C364.636462,49.7219123 339.049748,61.2851478 320.553328,79.9405009 C302.056908,98.5958541 290.573714,124.420413 290.573714,152.788884 C290.573714,181.234443 302.056908,207.059002 320.553328,225.637267 C339.049748,244.29262 364.713531,255.855856 392.920571,255.855856 C421.20468,255.855856 446.791395,244.29262 465.287815,225.637267 C483.784235,206.981914 495.267429,181.157355 495.267429,152.788884 C495.267429,124.420413 483.784235,98.5958541 465.287815,79.9405009 Z M320.399191,99.4438247 L319.089028,104.146207 C319.089028,104.146207 330.341017,113.396795 336.275285,118.484619 C342.132485,123.495354 347.912616,129.276972 347.912616,129.276972 L354.694637,114.09059 L343.057306,104.069119 L339.049748,100.060531 C339.049748,100.060531 339.820432,99.2896482 341.438869,97.2082658 C343.057306,95.1268834 344.059195,91.6579128 343.134374,88.8056481 C342.440758,86.4159127 338.895611,82.7927656 337.662517,81.5593539 C352.922063,69.533589 372.035031,62.3643831 392.920571,62.3643831 C415.270412,62.3643831 435.616474,70.6128243 451.338431,84.1803539 L450.41361,84.1803539 C448.949311,84.1803539 444.864684,84.1803539 439.778169,85.5679422 C434.691653,86.9555304 430.992369,90.1161481 427.678427,94.2789128 C424.364486,98.4416776 422.746049,106.381766 422.746049,106.767207 C422.746049,107.152648 422.360707,106.767207 422.360707,106.767207 C422.360707,106.767207 421.898296,104.531648 420.665202,100.754325 C419.432107,96.9770011 416.195233,91.6579128 414.345591,88.8056481 C412.418881,85.8762951 410.260965,83.7178245 409.875623,82.4844127 C409.56735,81.2510009 410.800444,79.9405009 411.571128,78.3987362 C412.341813,76.8569715 412.033539,76.5486185 411.571128,75.6235597 C411.031649,74.6985009 407.178229,73.3109126 405.020313,73.0025597 C402.862397,72.6942067 399.933797,72.0004126 393.691256,72.0004126 C387.448714,72.0004126 385.290798,72.5400302 381.360309,73.0796479 C377.42982,73.6192655 370.10832,75.1610303 367.873336,77.3965891 C365.638352,79.632148 365.71542,81.7135303 365.71542,83.9490892 C365.71542,86.1075598 367.025583,90.2703246 368.18161,91.4266481 C369.337636,92.5829716 371.495552,92.4287952 371.495552,92.4287952 C375.040699,92.6600599 377.275683,91.3495599 379.125325,90.0390598 C379.818941,89.6536187 380.897898,89.3452657 382.053925,89.3452657 C383.209951,89.3452657 386.138551,89.3452657 386.138551,93.6622069 C386.138551,97.9791482 382.670472,99.5980011 380.666693,99.5980011 C378.662914,99.5980011 377.275683,99.1354717 375.580178,98.8271188 C373.884673,98.5187658 370.647799,97.7478835 369.64591,97.7478835 C368.64402,97.7478835 367.410925,99.0583835 367.410925,100.060531 C367.410925,101.062678 367.642131,102.912795 368.258678,104.069119 C368.952294,105.225442 371.187278,106.150501 374.50122,106.150501 C377.815162,106.150501 380.435488,105.76506 382.362198,105.533795 C384.288909,105.302531 384.982525,105.842148 385.136661,106.304678 C385.21373,106.458854 385.059593,107.152648 384.674251,107.538089 C384.134772,108.154795 382.74754,108.154795 378.739983,108.154795 C374.732425,108.154795 367.642131,108.38606 362.78682,113.242619 C357.93151,118.099178 350.995353,132.900119 350.995353,132.900119 C350.301737,132.900119 342.286622,134.287707 336.198217,134.287707 C330.109812,134.287707 318.934891,133.362649 318.934891,133.362649 C318.934891,133.362649 319.089028,128.351913 317.470591,124.034972 C316.006291,120.334737 311.150981,118.947148 309.76375,118.638795 C312.615281,111.700854 316.160428,105.302531 320.399191,99.4438247 L320.399191,99.4438247 Z M439.469895,147.084355 C438.776279,149.705355 436.695432,152.403443 433.227353,154.330649 C429.759275,156.180766 424.210349,156.02659 420.356928,155.409884 C416.503507,154.71609 410.954581,151.247119 408.180118,148.471943 C405.405655,145.696766 405.945134,145.157149 405.945134,145.157149 C405.945134,145.157149 407.409434,144.848796 409.336144,142.381972 C411.262855,139.915149 413.574907,138.142119 414.730933,136.985796 C415.88696,135.829472 417.659533,132.977207 420.973475,124.805854 C424.210349,116.634501 424.441554,112.240472 424.441554,112.240472 C424.441554,112.240472 426.676538,114.321854 428.294975,116.557413 C429.913412,118.792972 432.610806,122.339031 434.999927,125.962178 C437.389048,129.585325 439.469895,136.292002 440.009374,138.913002 C440.70299,141.379825 440.163511,144.463355 439.469895,147.084355 L439.469895,147.084355 Z M345.908837,211.144679 C345.138153,210.373797 343.519716,209.448738 340.205774,209.140385 C336.891832,208.754944 333.57789,210.21962 331.497043,211.453032 C330.032743,212.378091 328.876717,214.382385 328.26017,215.538708 C312.769418,199.273091 303.212934,177.225855 303.212934,152.865972 C303.212934,149.47409 303.44414,146.082208 303.752413,142.767413 L304.754303,149.011561 C304.754303,149.011561 319.628507,148.086502 323.173654,148.086502 C326.641733,148.086502 353.153268,147.623972 356.544279,147.392708 C359.935289,147.238531 365.946626,147.238531 365.946626,147.238531 C365.946626,147.238531 369.029362,149.705355 371.649688,151.863825 C374.347083,154.022296 380.35842,160.035178 380.35842,160.035178 L384.134772,163.812502 L384.21184,164.120855 C384.21184,164.120855 383.287019,163.658325 381.437377,163.427061 C379.664804,163.195796 377.506888,162.964531 373.345194,163.349972 C369.183499,163.735414 363.78871,164.968825 359.010468,169.748296 C354.232226,174.527767 353.384474,180.617737 353.384474,184.626326 C353.384474,188.634914 355.157047,192.180973 356.929621,194.724885 C358.702194,197.268796 362.093205,199.196002 362.093205,199.196002 C362.093205,199.196002 359.010468,202.664973 356.621347,205.131796 C354.232226,207.521532 350.070532,212.532267 350.070532,212.532267 L348.066753,214.536561 C348.066753,214.459473 346.75659,211.915561 345.908837,211.144679 L345.908837,211.144679 Z M430.144617,218.236797 C429.913412,218.930591 427.138949,219.316032 423.825007,220.318179 C420.511065,221.320326 417.582465,223.093355 416.272302,226.870679 C414.962139,230.648003 416.118165,234.348238 416.503507,236.506709 C416.734712,237.971385 417.582465,239.127709 418.044875,239.744414 C410.106828,242.057062 401.629303,243.367562 392.920571,243.367562 C378.123435,243.367562 361.784931,239.281885 349.762258,232.421032 L356.852552,232.652297 C356.852552,232.652297 359.318742,229.414591 361.399589,226.870679 C363.480436,224.326767 372.574509,213.765679 374.347083,211.684297 C376.119657,209.602914 380.666693,204.823444 381.745651,203.66712 L383.132883,202.279532 C383.132883,202.279532 383.132883,201.662826 382.516335,200.737767 C381.899788,199.812708 380.666693,198.887649 379.433599,198.039679 C378.123435,197.191708 377.352751,196.497914 377.198614,195.649943 C377.044478,194.801973 378.585846,192.874767 380.281351,190.407943 C382.053925,187.94112 387.14044,182.930384 389.452493,180.386473 C391.687477,177.842561 393.305914,177.225855 393.305914,177.225855 C393.537119,178.073826 393.768324,179.538502 395.386761,184.703414 C397.005198,189.791237 399.933797,192.951855 403.324808,196.343738 C406.715818,199.73562 412.495949,201.200296 418.121944,201.585738 C423.67087,201.971179 428.988591,200.429414 428.988591,200.429414 L430.375822,216.078326 C430.375822,215.847061 430.375822,217.543002 430.144617,218.236797 Z M456.347879,216.849208 C452.417389,220.780708 446.251916,226.253973 441.627811,229.414591 L445.712437,224.095503 C445.712437,224.095503 445.018821,223.478797 444.787616,220.086914 C444.556411,216.695032 445.018821,205.517238 445.481232,198.502208 C445.943642,191.564267 446.406053,177.302943 446.406053,177.302943 L446.251916,176.609149 C446.251916,176.609149 444.248137,176.609149 440.934195,176.840414 C437.620253,177.071678 432.456669,177.071678 430.375822,176.763326 C428.294975,176.454973 426.291196,174.604855 426.291196,174.604855 C423.979143,172.831825 422.900186,171.058796 422.900186,171.058796 C422.900186,171.058796 422.900186,170.827531 425.674649,170.827531 C428.449112,170.827531 433.689764,169.517031 438.236801,168.206531 C442.783837,166.896031 447.099669,164.197943 451.107226,160.651884 C455.114784,157.182914 456.347879,151.863825 457.195631,148.471943 C458.043384,145.157149 458.120452,142.304884 457.349768,136.600354 C456.579084,130.972913 453.496347,124.420413 452.032047,121.799413 C450.567747,119.255501 445.789505,113.319707 443.400384,112.009207 C441.011264,110.698707 441.011264,110.544531 441.011264,110.544531 L458.736999,91.2724716 C473.534135,107.461001 482.628209,128.968619 482.628209,152.711796 C482.628209,177.842561 472.609314,200.429414 456.347879,216.849208 Z M531.335448,56.5827654 L452.032047,56.5827654 C473.071725,70.6128243 492.80124,92.1204422 500.045671,122.955737 C502.357723,132.668854 504.053229,142.613237 504.053229,152.865972 C504.053229,181.928237 493.032445,208.446591 474.921367,228.335356 C475.383777,229.02915 476.000325,229.491679 476.771009,228.874973 C498.966713,214.228208 527.867369,182.622031 537.500921,145.696766 C546.209653,111.932119 540.814863,81.1739127 531.335448,56.5827654 L531.335448,56.5827654 Z M375.888451,17.1906767 C374.347083,16.1114414 372.651578,15.2634708 370.724867,14.7238531 C371.880894,13.8758825 372.805715,12.7966472 373.422262,11.5632354 C374.038809,10.3298236 374.192946,8.9422354 373.961741,7.47755891 C373.422262,5.01073535 372.189167,3.39188239 370.262457,2.62100003 C368.258678,1.85011767 366.177831,1.6959412 364.019915,2.08138238 C361.553726,2.54391179 359.549947,3.77732357 358.008579,5.62744124 C356.390142,7.47755891 355.773595,9.79020599 356.236005,12.5653825 C356.544279,14.1071472 357.237894,15.4176472 358.239784,16.4197943 C359.241673,17.4990296 360.3977,18.269912 361.707863,18.9637061 C360.320631,19.8887649 359.318742,20.9680002 358.625126,22.2785003 C357.854442,23.6660885 357.700305,25.2078532 358.008579,26.9808827 C358.239784,28.3684709 358.856331,29.5247945 359.704084,30.4498533 C360.551836,31.3749121 361.553726,32.1457945 362.632684,32.6854121 C365.021805,33.7646474 367.410925,34.0730004 369.954183,33.610471 C372.805715,33.0708533 375.194836,31.7603533 376.967409,29.7560592 C378.739983,27.751765 379.433599,25.2078532 378.89412,22.0472355 C378.354641,19.9658532 377.352751,18.3470002 375.888451,17.1906767 L375.888451,17.1906767 Z M361.091315,11.9486766 C360.3977,11.409059 359.935289,10.7152648 359.781152,9.86729423 C359.627015,9.01932363 359.704084,8.24844127 359.935289,7.63173538 C360.166494,6.93794126 360.474768,6.3983236 360.937178,5.85870595 C361.939068,4.85655888 363.172163,4.23985299 364.559394,4.00858828 C366.177831,3.85441181 367.642131,4.16276475 368.875225,5.01073535 C370.10832,5.85870595 370.956073,7.16920596 371.264346,8.9422354 C371.495552,10.0985589 371.418483,11.100706 371.033141,11.9486766 C370.647799,12.7966472 370.031252,13.6446178 369.106431,14.4155002 C368.412815,14.3384119 367.565062,14.1842355 366.563173,14.030059 C365.561283,13.8758825 364.636462,13.6446178 363.634573,13.3362649 C362.632684,12.9508237 361.784931,12.4882943 361.091315,11.9486766 L361.091315,11.9486766 Z M373.49933,29.5247945 C372.497441,30.8352945 371.110209,31.6061768 369.491773,31.9145298 C367.487994,32.299971 365.638352,31.9145298 363.942847,30.7582062 C362.170273,29.7560592 361.091315,28.1372062 360.705973,26.0558238 C360.474768,24.6682356 360.628905,23.3577356 361.168384,22.2785003 C361.707863,21.1992649 362.401478,20.2742061 363.403368,19.3491473 C364.405257,19.5033238 365.484215,19.580412 366.71731,19.7345885 C367.873336,19.8887649 369.029362,20.1200296 370.185388,20.5054708 C371.341415,20.8138238 372.343304,21.3534414 373.113988,22.0472355 C373.884673,22.7410297 374.424151,23.7431767 374.655357,25.0536768 C374.96363,26.8267062 374.578288,28.2913827 373.49933,29.5247945 L373.49933,29.5247945 Z M452.109116,14.4155002 C449.334653,13.0279119 446.714326,12.8737354 444.248137,13.8758825 C441.704879,14.8780296 439.7011,16.8052355 438.236801,19.6575002 C437.080774,21.8930591 436.618364,24.2057062 436.926637,26.6725297 C437.157843,29.1393533 438.390937,30.9894709 440.780058,32.2228827 C442.16729,32.9166768 443.477453,33.2250298 444.633479,33.0708533 C445.789505,32.8395886 447.0226,32.4541474 448.332763,31.7603533 C447.485011,33.302118 446.483121,34.920971 445.481232,36.5398239 C444.402274,38.1586769 443.092111,39.4691769 441.473674,40.3171475 C439.7011,41.3192946 438.005595,41.3963828 436.387159,40.5484122 C435.385269,40.0858828 434.768722,39.2379122 434.306311,38.2357651 C434.152174,37.6961475 434.075106,37.1565298 434.075106,36.6169122 C434.075106,36.0772945 434.152174,35.6147651 434.460448,35.0751475 C434.922859,34.2271769 435.385269,33.4562945 435.924748,32.6854121 L433.073217,31.991618 C432.764943,32.3770592 432.456669,32.8395886 432.225464,33.3792063 C431.300643,35.2293239 431.300643,36.9252651 432.225464,38.5441181 C433.073217,40.162971 434.306311,41.3963828 436.001816,42.2443534 C440.163511,44.3257358 443.939863,44.1715593 447.176737,41.9360005 C450.259474,39.7775299 452.802731,36.7710887 454.729442,32.8395886 C455.577194,31.1436474 456.347879,29.4477062 456.964426,27.6746768 C457.503905,25.9787356 457.73511,24.2827944 457.73511,22.5868532 C457.73511,19.1949708 455.885468,16.4968825 452.109116,14.4155002 L452.109116,14.4155002 Z M453.34221,20.5825591 C453.188073,21.4305297 452.956868,22.3555885 452.648595,23.2035591 C452.263252,24.0515297 451.87791,24.8995003 451.492568,25.5932944 C451.107226,26.3641768 450.644816,27.1350591 450.105337,27.9059415 C449.565858,28.7539121 448.872242,29.4477062 448.178626,30.0644121 C447.407942,30.681118 446.637258,31.0665592 445.789505,31.2978239 C444.941753,31.5290886 444.016932,31.3749121 443.015042,30.9123827 C442.321427,30.4498533 441.936085,29.9102356 441.781948,29.2935297 C441.550742,28.5997356 441.550742,27.9059415 441.627811,27.2121474 C441.781948,26.441265 442.013153,25.7474709 442.398495,24.9765885 C442.706769,24.2057062 443.015042,23.511912 443.323316,22.8952061 L443.63159,22.2785003 C444.016932,21.5847061 444.479342,20.8138238 445.018821,19.9658532 C445.481232,19.1178826 446.097779,18.269912 446.791395,17.5761178 C447.485011,16.8823237 448.255695,16.3427061 449.026379,16.0343531 C449.797063,15.7260002 450.567747,15.8030884 451.492568,16.1885296 C452.417389,16.651059 453.033937,17.3448531 453.34221,18.0386473 C453.496347,18.8095296 453.496347,19.6575002 453.34221,20.5825591 L453.34221,20.5825591 Z M397.85295,5.01073535 L414.037318,7.32338244 C409.875623,10.8694413 406.715818,14.3384119 404.403766,17.8844708 C402.091713,21.4305297 400.396208,25.9016474 399.163113,31.3749121 L405.868065,32.3770592 C407.10116,22.1243238 411.416992,13.5675296 418.81556,6.70667655 L419.355038,3.00644121 L399.31725,0 L397.85295,5.01073535 L397.85295,5.01073535 Z M321.94056,18.0386473 C322.094696,19.8887649 321.709354,21.6617944 320.93867,23.2035591 C320.090918,24.7453238 318.934891,26.1329121 317.470591,27.2892356 L318.780754,29.6789709 C320.707465,28.2913827 322.094696,26.5183532 323.019517,24.2827944 L335.273396,46.1758535 L340.359911,43.3235887 L325.177433,16.1885296 L321.94056,18.0386473 L321.94056,18.0386473 Z" id="Shape" fill="#020202"></path>
                <path d="M35.1385097,345.045045 C35.6945101,345.041849 36.5252229,345.015546 37.6306482,344.965864 C38.8051626,344.913077 40.0984481,344.721724 41.5105046,344.391804 C42.9225612,344.061884 44.3808066,343.547209 45.8852407,342.847779 C47.3896748,342.14835 48.7555427,341.145393 49.9828442,339.838911 C51.2101457,338.532429 52.2197002,336.876232 53.0115076,334.87032 C53.803315,332.864407 54.1992187,330.396608 54.1992187,327.46692 C54.1992187,324.510839 53.803315,322.023244 53.0115076,320.004135 C52.2197002,317.985026 51.1903505,316.32223 49.9234586,315.015748 C48.6565667,313.709266 47.2379117,312.699711 45.6674937,311.987085 C44.0970756,311.274458 42.5398543,310.753185 40.9958298,310.423265 C39.4518053,310.093345 37.99356,309.901992 36.6210937,309.849205 C35.2486275,309.796418 34.1269003,309.770024 33.2559122,309.770024 L33.2559122,309.770024 L18.8054265,309.770024 L18.8054265,296.863563 L49.0128801,296.863563 L49.0128801,286.847199 L6.65118243,286.847199 L6.65118243,345.045045 L35.1385097,345.045045 Z M31.9494299,334.989091 L18.8054265,334.989091 L18.8054265,319.350894 L31.4743454,319.350894 C32.7412373,319.350894 34.0015308,319.416878 35.2552259,319.548846 C36.508921,319.680814 37.6372466,320.010733 38.6402027,320.538605 C39.6431588,321.066477 40.4547614,321.851686 41.0750106,322.894232 C41.6952597,323.936779 42.0053843,325.36863 42.0053843,327.189787 C42.0053843,328.931764 41.6886613,330.324025 41.0552154,331.366572 C40.4217694,332.409118 39.6101668,333.194327 38.6204075,333.722199 C37.6306482,334.25007 36.5485114,334.593187 35.373997,334.751548 C34.1994827,334.90991 33.0579603,334.989091 31.9494299,334.989091 L31.9494299,334.989091 Z M103.115178,345.045045 C103.671178,345.041849 104.501891,345.015546 105.607316,344.965864 C106.781831,344.913077 108.075116,344.721724 109.487173,344.391804 C110.899229,344.061884 112.350876,343.547209 113.842114,342.847779 C115.333351,342.14835 116.69262,341.145393 117.919922,339.838911 C119.147223,338.532429 120.156778,336.876232 120.948585,334.87032 C121.740393,332.864407 122.136296,330.396608 122.136296,327.46692 C122.136296,324.510839 121.740393,322.023244 120.948585,320.004135 C120.156778,317.985026 119.127428,316.32223 117.860536,315.015748 C116.593644,313.709266 115.181588,312.699711 113.624367,311.987085 C112.067145,311.274458 110.509924,310.753185 108.952703,310.423265 C107.395481,310.093345 105.930638,309.901992 104.558171,309.849205 C103.185705,309.796418 102.063978,309.770024 101.19299,309.770024 L101.19299,309.770024 L89.5534206,309.770024 L89.5534206,286.847199 L60.0190034,286.847199 L60.0190034,296.863563 L77.3595861,296.863563 L77.3595861,345.045045 L103.115178,345.045045 Z M99.926098,334.989091 L89.5534206,334.989091 L89.5534206,319.350894 L99.4114231,319.350894 C100.678315,319.350894 101.938609,319.416878 103.192304,319.548846 C104.445999,319.680814 105.574324,320.010733 106.57728,320.538605 C107.580236,321.066477 108.398437,321.851686 109.031883,322.894232 C109.665329,323.936779 109.982052,325.36863 109.982052,327.189787 C109.982052,328.931764 109.665329,330.324025 109.031883,331.366572 C108.398437,332.409118 107.586835,333.194327 106.597076,333.722199 C105.607316,334.25007 104.518581,334.593187 103.33087,334.751548 C102.143159,334.90991 101.008235,334.989091 99.926098,334.989091 L99.926098,334.989091 Z M135.042758,346.113985 C136.784734,346.113985 138.381546,345.850049 139.833193,345.322178 C141.28484,344.794306 142.578125,343.916719 143.713049,342.689418 C144.847973,341.462116 145.831134,339.832313 146.662532,337.800007 C147.493929,335.767701 148.180163,333.253713 148.721231,330.258041 C149.262299,327.26237 149.658203,323.738827 149.908942,319.687412 C150.159681,315.635997 150.271854,310.957735 150.24546,305.652625 L150.24546,305.652625 L150.20587,296.863563 L167.26932,296.863563 L167.26932,345.045045 L179.423564,345.045045 L179.423564,286.847199 L138.803843,286.847199 L138.803843,306.800746 C138.803843,311.023719 138.744457,314.652836 138.625686,317.688098 C138.506915,320.72336 138.32216,323.270341 138.071421,325.32904 C137.820682,327.387739 137.510557,329.037338 137.141047,330.277836 C136.771537,331.518335 136.342641,332.468504 135.85436,333.128343 C135.366079,333.788183 134.811814,334.217078 134.191565,334.41503 C133.571315,334.612982 132.904878,334.711958 132.192251,334.711958 C132.007496,334.711958 131.750158,334.698761 131.420239,334.672368 C131.090319,334.645974 130.727407,334.599785 130.331503,334.533801 C129.9356,334.467817 129.533098,334.37544 129.123997,334.256669 C128.714897,334.137898 128.325591,333.986135 127.956081,333.80138 L127.956081,333.80138 L127.995671,344.926274 C129.077808,345.374965 130.166543,345.685089 131.261877,345.856648 C132.357211,346.028206 133.617504,346.113985 135.042758,346.113985 Z M202.940245,345.045045 L202.940245,296.863563 L229.940878,296.863563 L229.940878,286.847199 L190.786001,286.847199 L190.786001,345.045045 L202.940245,345.045045 Z M245.460304,345.045045 L249.498522,333.049162 L270.996094,333.049162 L274.717589,345.045045 L287.940773,345.045045 L267.35378,286.847199 L253.457559,286.847199 L232.633024,345.045045 L245.460304,345.045045 Z M267.591322,322.993208 L252.744932,322.993208 L260.187922,299.951612 L260.346284,299.951612 L267.591322,322.993208 Z M308.369405,345.045045 L308.369405,324.141329 L321.671769,324.141329 C324.680638,324.141329 327.372783,323.679441 329.748205,322.755666 C332.123628,321.83189 334.136138,320.545203 335.785737,318.895605 C337.435336,317.246006 338.695629,315.279684 339.566617,312.996639 C340.437606,310.713594 340.8731,308.212803 340.8731,305.494264 C340.8731,302.564576 340.50359,299.951612 339.764569,297.65537 C339.025549,295.359129 337.903822,293.406004 336.399388,291.795995 C334.894954,290.185987 333.001214,288.958685 330.718169,288.114091 C328.435125,287.269496 325.749578,286.847199 322.661529,286.847199 L322.661529,286.847199 L296.21516,286.847199 L296.21516,345.045045 L308.369405,345.045045 Z M319.890203,314.085374 L308.369405,314.085374 L308.369405,296.863563 L319.890203,296.863563 C321.262669,296.863563 322.496569,297.028523 323.591902,297.358442 C324.687236,297.688362 325.611011,298.203037 326.363228,298.902467 C327.115446,299.601897 327.696104,300.49268 328.105205,301.574817 C328.514305,302.656954 328.718856,303.963436 328.718856,305.494264 C328.718856,308.529526 327.933647,310.720193 326.363228,312.066265 C324.79281,313.412338 322.635135,314.085374 319.890203,314.085374 L319.890203,314.085374 Z M374.129012,346.509889 C377.217061,346.509889 380.126953,346.074395 382.858689,345.203407 C385.590424,344.332418 388.051626,343.012739 390.242293,341.244369 C392.43296,339.475999 394.293708,337.25234 395.824535,334.573392 C397.355363,331.894443 398.450697,328.733812 399.110536,325.091498 L399.110536,325.091498 L387.035473,325.091498 C386.771537,326.015273 386.402027,327.09741 385.926943,328.337908 C385.451858,329.578407 384.732633,330.766118 383.769267,331.901042 C382.805902,333.035966 381.519215,333.999331 379.909206,334.791139 C378.299198,335.582946 376.214105,335.97885 373.653927,335.97885 C371.436867,335.97885 369.45075,335.523561 367.695576,334.612982 C365.940403,333.702404 364.442568,332.389323 363.202069,330.67374 C361.961571,328.958157 361.011402,326.859868 360.351563,324.378871 C359.691723,321.897874 359.361803,319.086958 359.361803,315.946122 C359.361803,313.042828 359.612542,310.535438 360.11402,308.423951 C360.615498,306.312465 361.268739,304.511103 362.073744,303.019866 C362.878748,301.528628 363.795925,300.321122 364.825274,299.397347 C365.854624,298.473571 366.897171,297.754346 367.952914,297.239671 C369.008657,296.724996 370.038007,296.375282 371.040963,296.190526 C372.043919,296.005771 372.914907,295.913394 373.653927,295.913394 C375.395904,295.913394 376.913535,296.084952 378.20682,296.428069 C379.500106,296.771185 380.608636,297.219876 381.532411,297.774141 C382.456187,298.328407 383.228199,298.961852 383.848448,299.674479 C384.468697,300.387106 384.983372,301.112929 385.392473,301.85195 C385.801573,302.59097 386.124894,303.323392 386.362437,304.049215 C386.599979,304.775039 386.797931,305.415083 386.956292,305.969348 L386.956292,305.969348 L399.110536,305.969348 C399.004962,304.702456 398.747625,303.310195 398.338524,301.792564 C397.929424,300.274933 397.309174,298.757302 396.477777,297.239671 C395.646379,295.72204 394.577439,294.250598 393.270957,292.825345 C391.964474,291.400091 390.387458,290.1332 388.539907,289.024669 C386.692356,287.916139 384.54128,287.031954 382.086677,286.372114 C379.632073,285.712275 376.821157,285.382355 373.653927,285.382355 C371.436867,285.382355 369.246199,285.639692 367.081926,286.154367 C364.917652,286.669042 362.852354,287.46085 360.886033,288.52979 C358.919711,289.59873 357.105152,290.957999 355.442356,292.607598 C353.779561,294.257197 352.334512,296.210322 351.107211,298.466973 C349.879909,300.723624 348.923142,303.303597 348.236909,306.20689 C347.550676,309.110184 347.207559,312.356595 347.207559,315.946122 C347.207559,320.591392 347.801415,324.79457 348.989126,328.555655 C350.176837,332.316741 351.912215,335.530159 354.19526,338.195911 C356.478304,340.861662 359.289221,342.913763 362.628009,344.352214 C365.966797,345.790664 369.800465,346.509889 374.129012,346.509889 Z M421.399916,345.045045 L421.399916,325.32904 L427.338471,319.271713 L445.35209,345.045045 L460.752745,345.045045 L435.612859,310.680602 L459.367082,286.847199 L443.649704,286.847199 L421.399916,310.522241 L421.399916,286.847199 L409.245671,286.847199 L409.245671,345.045045 L421.399916,345.045045 Z M478.766364,345.045045 L501.76837,305.652625 L501.926731,305.652625 L501.926731,345.045045 L513.605891,345.045045 L513.605891,286.847199 L501.293285,286.847199 L478.251689,326.477161 L478.093328,326.477161 L478.093328,286.847199 L466.414168,286.847199 L466.414168,345.045045 L478.766364,345.045045 Z M559.689084,345.045045 L559.689084,296.863563 L582.532728,296.863563 L582.532728,345.045045 L594.686972,345.045045 L594.686972,286.847199 L547.495249,286.847199 L547.495249,345.045045 L559.689084,345.045045 Z M631.941512,346.509889 C636.243666,346.509889 640.123522,345.731278 643.581081,344.174057 C647.03864,342.616836 649.974926,340.472357 652.389939,337.740621 C654.804951,335.008886 656.659101,331.775672 657.952386,328.04098 C659.245671,324.306289 659.892314,320.274669 659.892314,315.946122 C659.892314,311.591181 659.245671,307.552963 657.952386,303.831468 C656.659101,300.109973 654.804951,296.883358 652.389939,294.151622 C649.974926,291.419887 647.03864,289.275408 643.581081,287.718187 C640.123522,286.160966 636.243666,285.382355 631.941512,285.382355 C627.269848,285.382355 623.178843,286.160966 619.668497,287.718187 C616.15815,289.275408 613.24166,291.419887 610.919024,294.151622 C608.596389,296.883358 606.854413,300.109973 605.693095,303.831468 C604.531778,307.552963 603.951119,311.591181 603.951119,315.946122 C603.951119,320.274669 604.531778,324.306289 605.693095,328.04098 C606.854413,331.775672 608.596389,335.008886 610.919024,337.740621 C613.24166,340.472357 616.15815,342.616836 619.668497,344.174057 C623.178843,345.731278 627.269848,346.509889 631.941512,346.509889 Z M631.941512,335.97885 C629.460515,335.97885 627.243454,335.477372 625.290329,334.474416 C623.337204,333.47146 621.681007,332.079198 620.321738,330.297632 C618.962468,328.516065 617.919922,326.404578 617.194098,323.963172 C616.468275,321.521766 616.105363,318.849416 616.105363,315.946122 C616.105363,313.042828 616.468275,310.370478 617.194098,307.929072 C617.919922,305.487665 618.962468,303.376179 620.321738,301.594612 C621.681007,299.813045 623.337204,298.420784 625.290329,297.417828 C627.243454,296.414872 629.460515,295.913394 631.941512,295.913394 C634.422508,295.913394 636.639569,296.414872 638.592694,297.417828 C640.545819,298.420784 642.202016,299.813045 643.561286,301.594612 C644.920555,303.376179 645.956503,305.487665 646.66913,307.929072 C647.381757,310.370478 647.73807,313.042828 647.73807,315.946122 C647.73807,318.849416 647.381757,321.521766 646.66913,323.963172 C645.956503,326.404578 644.920555,328.516065 643.561286,330.297632 C642.202016,332.079198 640.545819,333.47146 638.592694,334.474416 C636.639569,335.477372 634.422508,335.97885 631.941512,335.97885 Z M740.37954,357.516012 L740.37954,334.989091 L734.322213,334.989091 L734.322213,286.847199 L723.118138,286.847199 L723.118138,334.989091 L707.321579,334.989091 L707.321579,286.847199 L696.117504,286.847199 L696.117504,334.989091 L680.320946,334.989091 L680.320946,286.847199 L669.116871,286.847199 L669.116871,345.045045 L729.848501,345.045045 L729.848501,357.516012 L740.37954,357.516012 Z M759.184966,345.045045 L782.186972,305.652625 L782.345334,305.652625 L782.345334,345.045045 L794.024493,345.045045 L794.024493,286.847199 L781.711888,286.847199 L758.670291,326.477161 L758.51193,326.477161 L758.51193,286.847199 L746.83277,286.847199 L746.83277,345.045045 L759.184966,345.045045 Z" id="БЪЛГАРСКИПОЩИ" fill="#000000"></path>
            </g>
        </g>
    </g>
</svg>