<?xml version="1.0" encoding="UTF-8"?>
<svg width="980px" height="680px" viewBox="0 0 980 680" version="1.1" xmlns="http://www.w3.org/2000/svg" xmlns:xlink="http://www.w3.org/1999/xlink">
    <title>BH Bahrain Post text</title>
    <defs>
        <linearGradient x1="50%" y1="0%" x2="50%" y2="100%" id="linearGradient-1">
            <stop stop-color="#FFFFFF" offset="0%"></stop>
            <stop stop-color="#EDEDED" offset="100%"></stop>
        </linearGradient>
        <rect id="path-2" x="0" y="0" width="900" height="600" rx="80"></rect>
        <filter x="-6.7%" y="-10.0%" width="113.3%" height="120.0%" filterUnits="objectBoundingBox" id="filter-3">
            <feMorphology radius="2.5" operator="dilate" in="SourceAlpha" result="shadowSpreadOuter1"></feMorphology>
            <feOffset dx="0" dy="0" in="shadowSpreadOuter1" result="shadowOffsetOuter1"></feOffset>
            <feGaussianBlur stdDeviation="17.5" in="shadowOffsetOuter1" result="shadowBlurOuter1"></feGaussianBlur>
            <feColorMatrix values="0 0 0 0 0   0 0 0 0 0   0 0 0 0 0  0 0 0 0.5 0" type="matrix" in="shadowBlurOuter1"></feColorMatrix>
        </filter>
    </defs>
    <g id="BH-Bahrain-Post-text" stroke="none" stroke-width="1" fill="none" fill-rule="evenodd">
        <g transform="translate(40, 40)">
            <g id="Rectangle">
                <use fill="black" fill-opacity="1" filter="url(#filter-3)" xlink:href="#path-2"></use>
                <use fill="url(#linearGradient-1)" fill-rule="evenodd" xlink:href="#path-2"></use>
            </g>
            <g id="Logo" transform="translate(81, 50)">
                <path d="M299.878244,143.150108 C280.059616,124.19878 262.847321,102.550058 248.805119,78.8031745 C307.82036,117.162502 367.293978,142.693096 426.760775,158.574941 C388.459427,158.261854 336.061649,155.307306 299.878244,143.150108 L299.878244,143.150108 Z M738.578625,78.5828539 C727.01486,103.56708 713.34884,128.992971 696.544444,147.841983 C693.315348,151.464314 690.0044,155.016388 686.61876,158.491724 C627.205168,219.477233 544.18009,257.352264 452.31115,257.352264 C391.43512,257.352264 334.457674,240.702707 285.644711,211.737361 C392.763183,219.384466 505.220508,185.174739 595.904969,121.656225 C592.928253,144.23193 580.228097,166.010252 559.454178,186.882736 C625.732839,159.76897 671.545894,129.726577 738.578625,78.5828539 L738.578625,78.5828539 Z M328.559492,201.863858 C297.362973,184.994663 269.503665,162.751484 246.203561,136.379852 C321.113267,175.140599 433.321965,171.054095 480.713757,168.539506 C449.230071,182.499514 385.503856,198.015068 328.559492,201.863858 L328.559492,201.863858 Z" id="path858" fill="#EF3F32"></path>
                <g id="Group" fill="#007CC2">
                    <path d="M555.54161,0 C607.05947,0 648.8249,41.7654301 648.8249,93.2832894 C648.8249,108.133789 645.34854,122.16951 639.174787,134.632975 C626.8532,143.028352 614.029924,150.714337 594.785631,158.586537 C605.968098,142.509268 610.512979,118.493975 609.973432,97.0365848 C576.180131,124.991388 536.622,147.622344 494.9698,164.220061 C474.951997,147.110082 462.258321,121.681122 462.258321,93.2832894 C462.258321,41.7654301 504.023751,0 555.54161,0 L555.54161,0 Z" id="path860"></path>
                    <path d="M51.1331508,482.769287 C51.1331508,485.729633 50.4981089,488.253771 49.2423493,490.34102 C47.9865898,492.428268 46.2878015,494.133877 44.1456436,495.442841 C41.9884792,496.739186 39.4916254,497.694477 36.6550822,498.294732 C33.8038737,498.894986 30.8039658,499.194772 27.6290973,499.194772 L1.31680815,499.194772 L1.31680815,441.078548 L24.9842263,441.078548 C28.5438032,441.078548 31.7060527,441.352073 34.4835936,441.897418 C37.2757999,442.443786 39.6249774,443.288576 41.5594337,444.435198 C43.4959363,445.580797 44.9730397,447.040507 45.9774427,448.813645 C46.996511,450.587806 47.4992241,452.701998 47.4992241,455.143942 C47.4992241,456.780658 47.2478676,458.309261 46.7605019,459.742027 C46.2734773,461.187412 45.5194077,462.483757 44.5303521,463.642999 C43.5392502,464.802922 42.2845138,465.798799 40.7917219,466.644612 C39.2846059,467.477124 37.5414807,468.117964 35.5469989,468.540529 C38.058859,468.79973 40.2753667,469.345757 42.2101641,470.13666 C44.1456436,470.941888 45.7707642,471.951407 47.0998503,473.192501 C48.4303006,474.433936 49.4347036,475.866703 50.1144235,477.476476 C50.7938024,479.085908 51.1331508,480.845404 51.1331508,482.769287 Z M37.4081287,456.344792 C37.4081287,453.438673 36.3447234,451.297198 34.2022244,449.918659 C32.0754138,448.527501 28.8551852,447.83141 24.5548397,447.83141 L11.3478781,447.83141 L11.3478781,465.620769 L24.6438547,465.620769 C26.889693,465.620769 28.8251725,465.403518 30.4356278,464.966287 C32.0607485,464.53042 33.3901756,463.901858 34.4245913,463.084012 C35.4579839,462.265142 36.2267188,461.29655 36.6994192,460.164592 C37.1721195,459.032294 37.4081287,457.762893 37.4081287,456.344792 L37.4081287,456.344792 Z M41.0877565,482.046254 C41.0877565,480.286758 40.7027069,478.786463 39.9196478,477.530362 C39.1365886,476.275626 38.0731833,475.252806 36.7140845,474.460879 C35.3556678,473.656675 33.7595367,473.069722 31.8984069,472.701384 C30.0365951,472.319745 27.9974353,472.142738 25.8116224,472.142738 L11.3478781,472.142738 L11.3478781,492.44191 L26.4169927,492.44191 C28.4414871,492.44191 30.3469539,492.264903 32.1344161,491.896565 C33.9218783,491.541869 35.4736724,490.954916 36.8027584,490.136046 C38.1332087,489.331842 39.1819487,488.267413 39.9353362,486.943784 C40.7027069,485.620496 41.0877565,483.997081 41.0877565,482.046254 Z M91.2454938,441.078548 L114.882899,499.194772 L104.792827,499.194772 L98.3946605,482.851481 L72.5114168,482.851481 L65.9819446,499.194772 L55.8028573,499.194772 L79.5589494,441.078548 L91.2454938,441.078548 Z M85.4533797,448.076969 L74.712577,475.85306 L96.0608303,475.85306 L85.4533797,448.076969 Z M123.288849,499.194772 L123.288849,441.078548 L133.319919,441.078548 L133.319919,465.225488 L167.742805,465.225488 L167.742805,441.078548 L177.523541,441.078548 L177.523541,499.194772 L167.742805,499.194772 L167.742805,472.893056 L133.319919,472.893056 L133.319919,499.194772 L123.288849,499.194772 Z M230.397771,458.063702 C230.397771,454.735018 229.216361,452.197238 226.851836,450.451385 C224.489016,448.705531 221.179773,447.83141 216.939453,447.83141 L203.81946,447.83141 L203.81946,468.622723 L217.293466,468.622723 C219.568976,468.622723 221.533445,468.350221 223.188579,467.803853 C224.857354,467.258508 226.217476,466.508531 227.280882,465.566882 C228.359975,464.611591 229.143034,463.506577 229.643701,462.224557 C230.146414,460.941854 230.397771,459.563997 230.397771,458.063702 L230.397771,458.063702 Z M240.532521,457.981508 C240.532521,459.850141 240.23751,461.664888 239.646805,463.39744 C239.055077,465.144317 238.138666,466.75409 236.912919,468.199134 C235.687172,469.645543 234.135378,470.914945 232.259924,471.97835 C230.383447,473.042778 228.166598,473.833682 225.596759,474.3381 L243.177392,499.194772 L231.83156,499.194772 L215.948692,475.293391 L203.81946,475.293391 L203.81946,499.194772 L193.789413,499.194772 L193.789413,441.078548 L217.810504,441.078548 C221.504456,441.078548 224.754697,441.474852 227.59124,442.265756 C230.412436,443.043017 232.791626,444.162696 234.712441,445.621383 C236.632573,447.067791 238.080686,448.841611 239.055077,450.92886 C240.045156,453.02975 240.532521,455.376199 240.532521,457.981508 L240.532521,457.981508 Z M281.382222,441.078548 L305.020651,499.194772 L294.930579,499.194772 L288.532412,482.851481 L262.649168,482.851481 L256.119696,499.194772 L245.939586,499.194772 L269.697042,441.078548 L281.382222,441.078548 Z M275.591131,448.076969 L264.850329,475.85306 L286.198582,475.85306 L275.591131,448.076969 Z M323.45767,499.194772 L313.4266,499.194772 L313.4266,441.078548 L323.45767,441.078548 L323.45767,499.194772 Z M384.444202,499.194772 L348.616857,451.39201 C348.779198,455.226136 348.868213,458.745127 348.868213,461.952055 L348.868213,499.194772 L339.915896,499.194772 L339.915896,441.078548 L351.645754,441.078548 L387.959442,489.209062 C387.722751,484.88382 387.604746,481.105628 387.604746,477.844814 L387.604746,441.078548 L396.528756,441.078548 L396.528756,499.194772 L384.444202,499.194772 Z M482.865806,458.704542 C482.865806,461.160128 482.408794,463.492935 481.522054,465.702963 C480.620308,467.91299 479.276216,469.850516 477.459764,471.514176 C475.642289,473.1792 473.337449,474.502488 470.574573,475.471421 C467.797032,476.453656 464.546791,476.931131 460.793836,476.931131 L446.154109,476.931131 L446.154109,499.194772 L436.122697,499.194772 L436.122697,441.078548 L460.233144,441.078548 C464.059425,441.078548 467.398681,441.502137 470.219536,442.361592 C473.057103,443.207405 475.405257,444.408255 477.281734,445.935493 C479.157529,447.463072 480.561988,449.319427 481.477717,451.487847 C482.408794,453.67059 482.865806,456.07229 482.865806,458.704542 Z M472.731396,458.786736 C472.731396,455.320949 471.5933,452.634469 469.318814,450.710585 C467.028297,448.800003 463.601049,447.83141 459.021722,447.83141 L446.154109,447.83141 L446.154109,470.25944 L459.449744,470.25944 C461.754585,470.25944 463.749066,469.973295 465.418865,469.399984 C467.088323,468.827696 468.476752,468.03577 469.555505,467.026592 C470.633575,466.003772 471.430959,464.802922 471.962661,463.39744 C472.48004,462.006282 472.731396,460.464038 472.731396,458.786736 L472.731396,458.786736 Z M553.765744,469.864158 C553.765744,474.420294 553.057034,478.540904 551.667923,482.251227 C550.265169,485.948249 548.241698,489.126869 545.611151,491.759462 C542.966962,494.392737 539.731045,496.425076 535.904764,497.857842 C532.092808,499.276966 527.764496,500 522.948136,500 C517.836765,500 513.359754,499.249 509.504142,497.762006 C505.647848,496.261711 502.441944,494.174463 499.871423,491.500261 C497.30056,488.827082 495.380769,485.648462 494.094997,481.965083 C492.810248,478.295346 492.174865,474.256929 492.174865,469.864158 C492.174865,465.334625 492.853562,461.242322 494.213002,457.586227 C495.557776,453.943433 497.551917,450.833365 500.181782,448.281942 C502.811305,445.717219 506.031534,443.739108 509.873503,442.361592 C513.714449,440.970434 518.102787,440.287645 523.037151,440.287645 C527.971515,440.287645 532.344164,440.983735 536.170445,442.374893 C539.997067,443.779693 543.20263,445.772128 545.802482,448.337193 C548.388692,450.900893 550.368508,454.011985 551.727607,457.653756 C553.086024,461.282907 553.765744,465.348267 553.765744,469.864158 L553.765744,469.864158 Z M543.630994,469.864158 C543.630994,466.494889 543.188306,463.45235 542.287242,460.709596 C541.400844,457.954565 540.085059,455.621758 538.356258,453.697874 C536.628821,451.760348 534.471998,450.260053 531.901135,449.196648 C529.329591,448.13222 526.375384,447.600517 523.037151,447.600517 C519.565225,447.600517 516.550993,448.13222 513.965806,449.196648 C511.379596,450.260053 509.222773,451.760348 507.494313,453.697874 C505.765853,455.621758 504.465415,457.954565 503.594364,460.709596 C502.736956,463.45235 502.293927,466.494889 502.293927,469.864158 C502.293927,473.192501 502.752303,476.248683 503.638701,479.045323 C504.539765,481.842304 505.854527,484.256281 507.583328,486.289302 C509.311788,488.307999 511.468611,489.877187 514.024808,490.995502 C516.59533,492.114157 519.565225,492.673827 522.948136,492.673827 C526.55205,492.673827 529.655638,492.100517 532.270496,490.954916 C534.884673,489.822959 537.027172,488.226828 538.726642,486.207108 C540.410765,484.175111 541.651177,481.773752 542.449584,478.990413 C543.232643,476.208097 543.630994,473.165558 543.630994,469.864158 L543.630994,469.864158 Z M615.003632,482.96096 C615.003632,485.443489 614.500919,487.735711 613.511864,489.822959 C612.520762,491.910207 610.969309,493.710289 608.87217,495.211607 C606.789014,496.725544 604.129478,497.898427 600.908908,498.730598 C597.703345,499.576752 593.876723,500 589.459737,500 C581.703154,500 575.690037,498.703655 571.435393,496.138932 C567.180407,493.560566 564.446521,489.836601 563.235099,484.966014 L572.838146,483.206518 C573.222855,484.651563 573.798894,485.96155 574.581953,487.148757 C575.349665,488.335965 576.414094,489.358785 577.758868,490.21824 C579.103643,491.091338 580.757753,491.759462 582.707898,492.223295 C584.673049,492.687469 587.021544,492.919385 589.770096,492.919385 C592.103926,492.919385 594.230736,492.728054 596.137226,492.359716 C598.028028,491.991378 599.667814,491.41909 601.027936,490.640806 C602.371687,489.863544 603.420768,488.88131 604.15949,487.68046 C604.897871,486.479951 605.268256,485.048208 605.268256,483.369883 C605.268256,481.500909 604.750877,479.985949 603.731127,478.813406 C602.696711,477.639841 601.351937,476.670907 599.653148,475.907288 C597.969026,475.15697 596.048211,474.529772 593.905712,474.038655 C591.749912,473.547538 589.562053,473.042778 587.347251,472.538019 C585.64778,472.169681 583.933645,471.7744 582.234856,471.378095 C580.535386,470.982473 578.895941,470.491356 577.329482,469.918045 C575.749039,469.345757 574.28626,468.676951 572.92682,467.899689 C571.583069,467.122428 570.400977,466.180779 569.411921,465.062123 C568.406495,463.943467 567.623436,462.63348 567.047055,461.146827 C566.472039,459.659833 566.174981,457.913979 566.174981,455.907902 C566.174981,453.138887 566.766709,450.764472 567.949142,448.800003 C569.131575,446.822233 570.785685,445.198817 572.883506,443.944081 C574.995993,442.674679 577.477499,441.747695 580.358379,441.160742 C583.224935,440.573789 586.341824,440.287645 589.681081,440.287645 C593.522027,440.287645 596.802281,440.573789 599.505472,441.1471 C602.224011,441.720411 604.499521,442.579866 606.346326,443.725465 C608.192791,444.871065 609.684559,446.29053 610.806967,447.995798 C611.930057,449.701066 612.816796,451.69282 613.480828,453.956734 L603.745451,455.307306 C603.406103,453.929791 602.873377,452.71564 602.150343,451.69282 C601.426286,450.67 600.49521,449.810545 599.357455,449.114454 C598.219359,448.418364 596.831271,447.899962 595.20615,447.558908 C593.565341,447.203872 591.659874,447.040507 589.459737,447.040507 C586.90354,447.040507 584.746717,447.259122 583.018257,447.694989 C581.289456,448.13222 579.886702,448.746116 578.837962,449.509735 C577.787858,450.286997 577.034811,451.18806 576.592124,452.21088 C576.14739,453.2337 575.912404,454.338714 575.912404,455.51228 C575.912404,457.135695 576.340767,458.472625 577.16714,459.523412 C578.009202,460.573516 579.147298,461.460937 580.595411,462.169647 C582.043525,462.865737 583.726625,463.465992 585.662105,463.957109 C587.582237,464.461868 589.665733,464.952986 591.882241,465.457404 C593.729047,465.866327 595.590858,466.276274 597.466312,466.698839 C599.34279,467.122428 601.130593,467.626846 602.843705,468.199134 C604.543176,468.772446 606.139307,469.455235 607.61641,470.25944 C609.108179,471.051366 610.393951,472.046902 611.501011,473.219785 C612.595452,474.393351 613.451838,475.770867 614.072556,477.353697 C614.69225,478.936185 615.003632,480.804818 615.003632,482.96096 L615.003632,482.96096 Z M673.521959,441.078548 L673.521959,448.473273 L651.967027,448.473273 L651.967027,499.194772 L642.009283,499.194772 L642.009283,448.473273 L621.104741,448.473273 L621.104741,441.078548 L673.521959,441.078548 Z" id="path862"></path>
                    <path d="M99.0644898,393.512819 L91.0654175,393.512819 C89.3639008,393.512819 87.4983374,393.252595 85.4448533,392.751928 C83.3934156,392.231821 81.5275111,391.491052 79.8955694,390.531327 C79.8955694,398.935231 76.3503167,405.659103 69.2379838,410.701923 C62.1485016,415.724279 52.4472305,418.245347 40.1577032,418.245347 C34.5136063,418.245347 29.197262,417.685678 24.2059418,416.584416 C19.2156448,415.464055 14.9712321,413.743098 11.4737269,411.401765 C7.88311409,408.980966 5.06021302,405.859302 3.0309438,402.036772 C1.00337984,398.214925 0,393.552381 0,388.04948 C0,384.147485 0.280346101,380.425567 0.816141387,376.884407 C1.35261878,373.342223 1.67934818,371.041134 1.81849807,369.980799 L14.2724132,369.980799 L14.2724132,370.921425 C13.7823191,372.321109 13.1520519,374.823078 12.4297003,378.424264 C11.7066666,382.026473 11.3335539,385.268188 11.3335539,388.150091 C11.3335539,394.152635 13.9688754,398.815521 19.2620281,402.176945 C24.5326712,405.51893 31.4120644,407.200325 39.8780392,407.200325 C48.1332428,407.200325 54.9887623,405.479368 60.4694945,402.056895 C65.9488624,398.635444 68.7015064,393.993022 68.7015064,388.150091 C68.7015064,383.707867 68.374436,379.90546 67.745192,376.72377 C67.1149248,373.562544 66.7428353,371.660829 66.6026623,371.041134 L66.6026623,369.980799 L80.1748923,369.980799 C80.1748923,373.542081 81.5517259,376.50345 84.3483658,378.885368 C87.1248836,381.266605 90.3887671,382.467455 94.1437678,382.467455 L99.0644898,382.467455 L99.0644898,393.512819 Z M45.1943835,360.135262 L35.1196587,360.135262 L35.1196587,351.491257 L45.1943835,351.491257 L45.1943835,360.135262 Z M129.147468,366.958381 C129.147468,375.283501 126.838876,381.786712 122.244883,386.48916 C117.65055,391.171144 111.307634,393.512819 103.262178,393.512819 L94.3071325,393.512819 L94.3071325,382.467455 L103.611417,382.467455 C108.252816,382.467455 111.774536,381.046284 114.199428,378.184503 C116.600786,375.343185 117.813232,371.361043 117.813232,366.238417 L117.813232,351.491257 L129.147468,351.491257 L129.147468,366.958381 Z M108.018853,411.642548 L97.9441286,411.642548 L97.9441286,402.997521 L108.018853,402.997521 L108.018853,411.642548 Z M126.348782,411.642548 L116.274057,411.642548 L116.274057,402.997521 L126.348782,402.997521 L126.348782,411.642548 Z M196.566954,393.512819 L191.38976,393.512819 C189.967566,393.512819 188.404517,393.332742 186.678785,392.952126 C184.953054,392.592315 183.413879,392.091648 182.038409,391.45149 C180.359061,397.055002 177.72374,401.697424 174.156319,405.378757 C170.564683,409.061113 166.413377,411.861846 161.680235,413.803123 C156.922536,415.564665 152.88719,416.745052 149.576241,417.345307 C146.241759,417.945902 142.463567,418.245347 138.219495,418.245347 L138.219495,407.200325 C141.181887,407.200325 144.352663,406.959541 147.734551,406.459556 C151.092224,405.979012 154.729903,404.958238 158.600862,403.397918 C163.335027,401.336589 166.670532,398.715933 168.606011,395.534243 C170.541491,392.371994 171.520656,388.649734 171.520656,384.407709 C171.520656,382.106961 171.147543,379.825312 170.424509,377.544687 C169.702158,375.263038 168.885334,373.261735 167.975744,371.561241 C167.066836,369.840626 166.157246,368.338966 165.247315,367.018407 C164.337725,365.71831 163.568308,364.697196 162.986129,363.957791 L162.986129,363.256926 L176.138181,363.256926 C176.418527,363.677445 177.094155,364.957419 178.190642,367.058992 C179.308957,369.180005 180.266295,371.060575 181.082095,372.741628 C182.807826,376.183541 184.766498,378.665048 186.959132,380.185806 C189.126527,381.706564 191.622699,382.467455 194.444918,382.467455 L196.566954,382.467455 L196.566954,393.512819 Z M250.575187,380.806524 C240.572083,384.588468 231.220392,387.649424 222.568884,389.990757 C213.893162,392.332432 207.153941,393.512819 202.325986,393.512819 L191.809256,393.512819 L191.809256,382.467455 L202.630206,382.467455 C208.973463,382.467455 217.85791,380.806524 229.285254,377.464539 C240.688042,374.122213 250.459229,370.641079 258.598474,367.058992 C254.610534,364.697196 248.315024,362.336422 239.733091,360.015211 C231.126944,357.694 222.265347,356.533053 213.123744,356.533053 L205.102504,356.533053 L205.102504,345.72745 L213.77618,345.72745 C222.17258,345.72745 231.336692,347.088596 241.317627,349.830326 C251.299244,352.571033 260.95345,356.433466 270.305141,361.436382 L284.017544,355.452936 L284.017544,366.4983 C280.916343,368.059643 277.417474,369.740015 273.500131,371.501216 C269.581766,373.282198 265.501059,375.023277 261.210604,376.703648 C262.259685,378.405165 263.775327,379.78575 265.781405,380.866549 C267.786459,381.926885 270.607655,382.467455 274.245675,382.467455 L291.713078,382.467455 L291.713078,393.512819 L274.502829,393.512819 C268.112507,393.512819 262.865737,392.491704 258.738647,390.430717 C254.610534,388.389852 251.905637,385.1686 250.575187,380.806524 L250.575187,380.806524 Z M340.849019,393.512819 L332.897353,393.512819 C330.074452,393.512819 326.97291,392.872661 323.615237,391.571541 C320.23369,390.271104 317.784925,388.509561 316.292133,386.268839 C314.706574,388.59005 312.305216,390.370691 309.109884,391.631226 C305.915917,392.892101 302.79016,393.512819 299.781726,393.512819 L286.979595,393.512819 L286.979595,382.467455 L296.680184,382.467455 C300.784082,382.467455 304.096395,381.266605 306.661119,378.844783 C309.202651,376.423984 310.485695,372.982412 310.485695,368.539165 L310.485695,361.455822 L321.959421,361.455822 L321.959421,368.539165 C321.959421,372.741628 323.241101,376.123516 325.807189,378.665048 C328.372935,381.20658 331.753459,382.467455 335.927956,382.467455 L340.849019,382.467455 L340.849019,393.512819 Z M318.881071,412.242803 L308.806346,412.242803 L308.806346,403.598116 L318.881071,403.598116 L318.881071,412.242803 Z M371.071829,366.939282 C371.071829,375.423674 368.763237,381.98691 364.146053,386.588747 C359.505677,391.21173 353.18493,393.512819 345.18688,393.512819 L336.092344,393.512819 L336.092344,382.467455 L345.51361,382.467455 C348.218506,382.467455 350.503907,381.98691 352.415171,381.025821 C354.328482,380.066096 355.798083,378.824661 356.800439,377.303903 C357.803137,375.903195 358.549362,374.262386 359.015583,372.382157 C359.505677,370.500905 359.738616,368.46004 359.738616,366.217954 L359.738616,302.265278 L371.071829,302.265278 L371.071829,366.939282 Z M402.671814,393.512819 L391.337237,393.512819 L391.337237,302.265278 L402.671814,302.265278 L402.671814,393.512819 Z M534.00987,393.512819 L530.254869,393.512819 C525.708283,393.512819 521.720343,392.77205 518.292072,391.311317 C514.8638,389.850584 512.11252,387.789597 510.013676,385.128014 C507.099032,387.909307 503.926892,389.990757 500.522153,391.411928 C497.141288,392.812635 493.572844,393.512819 489.817843,393.512819 L471.464723,393.512819 L462.369504,393.512819 L462.369504,382.467455 L489.234983,382.467455 C491.964094,382.467455 494.388985,382.146523 496.48783,381.526829 C498.586674,380.906111 500.219297,380.045633 501.407528,378.964834 C502.504016,377.904157 503.273433,376.824381 503.693952,375.683557 C504.13664,374.563196 504.346388,373.362346 504.346388,372.12091 C504.346388,371.721878 504.253621,371.10116 504.04285,370.240682 C503.833102,369.380203 503.576971,368.419455 503.251264,367.379241 L492.570487,336.483191 L505.908755,336.483191 L515.166656,364.437313 C515.88969,366.658936 516.729023,369.060295 517.686019,371.641389 C518.641993,374.222824 519.527709,376.143638 520.344532,377.424636 C521.393613,378.984956 522.675293,380.225368 524.169108,381.126432 C525.684068,382.026473 527.619548,382.467455 529.975546,382.467455 L534.00987,382.467455 L534.00987,393.512819 Z M564.069316,366.958381 C564.069316,375.283501 561.760724,381.786712 557.166731,386.48916 C552.573761,391.171144 546.229822,393.512819 538.184367,393.512819 L529.230003,393.512819 L529.230003,382.467455 L538.534288,382.467455 C543.174664,382.467455 546.696725,381.046284 549.121275,378.184503 C551.522634,375.343185 552.73508,371.361043 552.73508,366.238417 L552.73508,351.491257 L564.069316,351.491257 L564.069316,366.958381 Z M542.941724,411.642548 L532.866999,411.642548 L532.866999,402.997521 L542.941724,402.997521 L542.941724,411.642548 Z M561.270629,411.642548 L551.195905,411.642548 L551.195905,402.997521 L561.270629,402.997521 L561.270629,411.642548 Z M631.488802,393.512819 L626.311948,393.512819 C624.889754,393.512819 623.327388,393.332742 621.600633,392.952126 C619.875243,392.592315 618.336067,392.091648 616.960257,391.45149 C615.281932,397.055002 612.64661,401.697424 609.078166,405.378757 C605.487553,409.061113 601.335566,411.861846 596.602082,413.803123 C591.844725,415.564665 587.810401,416.745052 584.498088,417.345307 C581.163948,417.945902 577.385756,418.245347 573.141684,418.245347 L573.141684,407.200325 C576.103735,407.200325 579.275875,406.959541 582.656399,406.459556 C586.014072,405.979012 589.652091,404.958238 593.52305,403.397918 C598.257216,401.336589 601.592721,398.715933 603.5282,395.534243 C605.463338,392.371994 606.442845,388.649734 606.442845,384.407709 C606.442845,382.106961 606.069732,379.825312 605.346357,377.544687 C604.624346,375.263038 603.807523,373.261735 602.898615,371.561241 C601.989025,369.840626 601.080117,368.338966 600.169504,367.018407 C599.260596,365.71831 598.491179,364.697196 597.908318,363.957791 L597.908318,363.256926 L611.060029,363.256926 C611.340375,363.677445 612.016343,364.957419 613.11249,367.058992 C614.231146,369.180005 615.188142,371.060575 616.004966,372.741628 C617.729674,376.183541 619.689368,378.665048 621.880979,380.185806 C624.049739,381.706564 626.544888,382.467455 629.366766,382.467455 L631.488802,382.467455 L631.488802,393.512819 Z M661.57178,366.958381 C661.57178,375.283501 659.263188,381.786712 654.668854,386.48916 C650.075884,391.171144 643.731945,393.512819 635.68649,393.512819 L626.732467,393.512819 L626.732467,382.467455 L636.035388,382.467455 C640.677128,382.467455 644.198848,381.046284 646.623739,378.184503 C649.025098,375.343185 650.237203,371.361043 650.237203,366.238417 L650.237203,351.491257 L661.57178,351.491257 L661.57178,366.958381 Z M651.917574,412.242803 L641.842849,412.242803 L641.842849,403.598116 L651.917574,403.598116 L651.917574,412.242803 Z" id="path864"></path>
                </g>
            </g>
        </g>
    </g>
</svg>