<?xml version="1.0" encoding="UTF-8"?>
<svg width="980px" height="680px" viewBox="0 0 980 680" version="1.1" xmlns="http://www.w3.org/2000/svg" xmlns:xlink="http://www.w3.org/1999/xlink">
    <title>BR Correios text</title>
    <defs>
        <linearGradient x1="50%" y1="0%" x2="50%" y2="100%" id="linearGradient-1">
            <stop stop-color="#FFFFFF" offset="0%"></stop>
            <stop stop-color="#EDEDED" offset="100%"></stop>
        </linearGradient>
        <rect id="path-2" x="0" y="0" width="900" height="600" rx="80"></rect>
        <filter x="-6.7%" y="-10.0%" width="113.3%" height="120.0%" filterUnits="objectBoundingBox" id="filter-3">
            <feMorphology radius="2.5" operator="dilate" in="SourceAlpha" result="shadowSpreadOuter1"></feMorphology>
            <feOffset dx="0" dy="0" in="shadowSpreadOuter1" result="shadowOffsetOuter1"></feOffset>
            <feGaussianBlur stdDeviation="17.5" in="shadowOffsetOuter1" result="shadowBlurOuter1"></feGaussianBlur>
            <feColorMatrix values="0 0 0 0 0   0 0 0 0 0   0 0 0 0 0  0 0 0 0.5 0" type="matrix" in="shadowBlurOuter1"></feColorMatrix>
        </filter>
        <linearGradient x1="101.445374%" y1="49.9998249%" x2="-0.524661385%" y2="49.9998249%" id="linearGradient-4">
            <stop stop-color="#D09910" offset="0%"></stop>
            <stop stop-color="#A65718" offset="100%"></stop>
        </linearGradient>
        <linearGradient x1="100.462214%" y1="90.8275703%" x2="13.4846531%" y2="31.1933943%" id="linearGradient-5">
            <stop stop-color="#FFDD00" offset="0%"></stop>
            <stop stop-color="#D09910" offset="89.9994%"></stop>
            <stop stop-color="#FFDD00" offset="100%"></stop>
        </linearGradient>
        <linearGradient x1="-1.44707009%" y1="49.9999124%" x2="100.522133%" y2="49.9999124%" id="linearGradient-6">
            <stop stop-color="#00416B" offset="0%"></stop>
            <stop stop-color="#002447" offset="100%"></stop>
        </linearGradient>
        <linearGradient x1="-0.448479259%" y1="9.1792994%" x2="86.5381117%" y2="68.8020319%" id="linearGradient-7">
            <stop stop-color="#00416B" offset="0%"></stop>
            <stop stop-color="#00B1EB" offset="89.9994%"></stop>
            <stop stop-color="#0083CA" offset="100%"></stop>
        </linearGradient>
    </defs>
    <g id="BR-Correios-text" stroke="none" stroke-width="1" fill="none" fill-rule="evenodd">
        <g transform="translate(40, 40)">
            <g id="Rectangle">
                <use fill="black" fill-opacity="1" filter="url(#filter-3)" xlink:href="#path-2"></use>
                <use fill="url(#linearGradient-1)" fill-rule="evenodd" xlink:href="#path-2"></use>
            </g>
            <g id="Logo" transform="translate(50, 217)" fill-rule="nonzero">
                <g id="g2993" transform="translate(400, 82.3217) scale(-1, 1) rotate(-180) translate(-400, -82.3217)translate(-0, 0)">
                    <g id="g4015" transform="translate(49.8464, 0.0007)" fill="url(#linearGradient-4)">
                        <path d="M1.97087669,14.7575401 C0.728262973,13.2120844 0,11.2364007 0,9.1020854 L0,9.1020854 C0,4.08596387 4.0643323,0 9.12852399,0 L9.12852399,0 L75.2394195,0 L32.8823951,54.8961264 L1.97087669,14.7575401 L1.97087669,14.7575401 Z" id="path4023"></path>
                    </g>
                    <g id="g4025" transform="translate(-0, 0.0007)" fill="url(#linearGradient-5)">
                        <g id="g4035" transform="translate(0, 0)">
                            <path d="M49.9641276,109.770621 C43.751059,109.770621 38.2542359,106.82392 34.769149,102.247641 L34.769149,102.247641 L1.4132628,58.9220026 C0.538385828,57.8019678 6.83118106e-14,56.4223541 6.83118106e-14,54.8961264 L6.83118106e-14,54.8961264 C6.83118106e-14,53.3915303 0.478298124,52.0311447 1.35317509,50.8942853 L1.35317509,50.8942853 L34.7282894,7.60229631 L34.9494122,7.29945428 C38.3792183,2.94910451 43.6453047,0.120175408 49.6011979,0 L49.6011979,0 L49.8295312,0 L53.7688811,0 L58.9748797,0 C53.910688,0 49.8463557,4.08596387 49.8463557,9.1020854 L49.8463557,9.1020854 C49.8463557,11.2364007 50.5746187,13.2120844 51.8172324,14.7575401 L51.8172324,14.7575401 L82.7287509,54.8961264 L125.085775,109.770621 L49.9641276,109.770621 L49.9641276,109.770621 Z" id="path4045"></path>
                        </g>
                    </g>
                    <g id="g4057" transform="translate(96.4287, 109.7713)" fill="url(#linearGradient-6)">
                        <path d="M0,54.8720913 L42.3762524,0 L73.3094024,40.0784986 C74.503946,41.664814 75.265858,43.6188661 75.265858,45.7483743 L75.265858,45.7483743 C75.265858,50.7885309 71.1750872,54.8720913 66.132527,54.8720913 L66.132527,54.8720913 L0,54.8720913 L0,54.8720913 Z" id="path4065"></path>
                    </g>
                    <g id="g4077" transform="translate(96.4287, 54.8968)" fill="url(#linearGradient-7)">
                        <path d="M71.3577538,109.746586 L66.132527,109.746586 C71.1750872,109.746586 75.265858,105.663026 75.265858,100.622869 L75.265858,100.622869 C75.265858,98.4933609 74.503946,96.5393088 73.3094024,94.9529934 L73.3094024,94.9529934 L42.3762524,54.8744948 L0,0 L75.1168405,0 C81.3154881,0 86.8459604,2.92987645 90.3574858,7.4797174 L90.3574858,7.4797174 L123.686933,50.807759 C124.566617,51.9277938 125.095389,53.3290391 125.095389,54.8552667 L125.095389,54.8552667 C125.095389,56.3622664 124.583442,57.7202485 123.763846,58.7970201 L123.763846,58.7970201 L90.3959419,102.125062 L90.1796262,102.454342 C86.7233814,106.780657 81.4356635,109.607183 75.5230334,109.727358 L75.5230334,109.727358 C75.4148756,109.746586 75.3403668,109.746586 75.265858,109.746586 L75.265858,109.746586 L71.3577538,109.746586 L71.3577538,109.746586 Z" id="path4087"></path>
                    </g>
                    <g id="g4089" transform="translate(47.4854, -0)">
                        <g id="g4091-Clipped" transform="translate(-0, 0)">
                            <g id="g4091" transform="translate(-0, 0)">
                                <g id="g4097" transform="translate(48.9438, 54.8961)" fill="#00C0F3">
                                    <path d="M75.6408053,94.9529934 C76.8858225,96.5417123 77.6044715,98.4933609 77.6044715,100.625273 C77.6044715,105.665429 73.5377357,109.746586 68.4927721,109.746586 L66.132527,109.746586 C71.1750872,109.746586 75.265858,105.665429 75.265858,100.625273 C75.265858,98.4933609 74.503946,96.5417123 73.3094024,94.9529934 L42.3762524,54.8744948 L0,0 L75.6408053,94.9529934 Z" id="path4099"></path>
                                </g>
                                <g id="g4101" transform="translate(-0, 0)" fill="#FFD400">
                                    <path d="M1.95405213,14.7575401 C0.754701562,13.2120844 1.60105806e-15,11.2388042 1.60105806e-15,9.1020854 C1.60105806e-15,4.08836738 4.10038492,0 9.10929593,0 L11.488769,0 C6.42457731,0 2.36024501,4.08836738 2.36024501,9.1020854 C2.36024501,11.2388042 3.09091149,13.2120844 4.33112171,14.7575401 L35.2426402,54.8961264 L77.5996645,109.770621 L1.95405213,14.7575401 Z" id="path4103"></path>
                                </g>
                                <g id="g4105" transform="translate(691.5881, 0.0017)" fill="#00416B">
                                    <path d="M45.2244095,51.1346361 C42.1070595,52.5166533 38.1629026,53.4540215 33.8582195,54.5067581 C27.4985369,56.0930735 21.6027313,56.4415821 19.4059249,59.8569672 C17.362943,63.0271945 18.4901883,66.7454216 21.213363,68.634579 C27.4696948,72.9200341 35.9660961,71.2135433 40.6673581,69.0359649 C41.4557088,68.6922632 44.9480061,66.6829304 44.9480061,66.6829304 C45.4166902,66.3824919 45.9983392,66.1950182 46.6232513,66.1950182 C47.7408826,66.1950182 48.6710403,66.72379 49.2623033,67.5361758 C49.3079699,67.6371231 58.167301,79.1427167 58.167301,79.1427167 L56.6747224,80.3228392 C55.8142665,80.9525584 54.5884773,81.8250318 53.2857759,82.5773299 C50.6226889,84.0795225 42.5348839,88.7375213 30.7841325,88.7375213 L29.750624,88.7375213 C3.98020951,88.1246267 0.420613928,69.9180524 0.420613928,63.4934751 C0.420613928,53.7328284 5.43913897,46.7241986 13.0029791,42.3762524 C19.0357846,38.879148 30.483694,36.9947976 36.3194118,35.2234121 C39.3478321,34.3124825 41.5758842,32.2118164 42.412305,30.1616239 C42.8016733,29.2699224 43.008375,28.3109226 43.0372171,27.2966422 C43.145375,23.9629764 41.3379369,20.0813107 36.3338329,18.5142234 C30.7841325,16.8317676 22.0305558,17.5359955 14.1013824,23.7610817 C13.8754526,23.9437483 12.9837511,24.6359586 12.6833126,24.751327 C12.2939442,24.9003445 11.923804,24.9556252 11.4719445,24.9556252 C10.3398921,24.9556252 9.4529976,24.3643622 8.82087495,23.4966958 C8.69348902,23.3332572 0,12.1497338 0,12.1497338 C0,12.1497338 3.0644729,9.61643615 4.07875335,8.84250652 C9.07805032,5.08101625 18.0431358,0 29.8179222,0 L30.2673783,0 C55.0307228,0.0841227856 60.9265284,17.660978 60.9265284,27.3567299 C60.9265284,37.2111133 54.8937229,46.7866899 45.2244095,51.1346361" id="path4107"></path>
                                </g>
                                <g id="g4109" transform="translate(429.8547, 0.1829)" fill="#00416B">
                                    <path d="M30.1976889,87.1680305 C25.9482865,87.1079428 22.3959015,86.579171 18.8146743,85.5240309 C13.1111494,83.7382243 8.75358914,80.6064532 5.42953736,76.2392789 C-0.0576717751,68.9614561 0,60.3256513 0,60.3256513 L0,0 L16.1323592,0 C17.1514467,0 18.0070956,0.853245397 18.0070956,1.87473637 L18.0070956,59.2248446 C18.0070956,60.380932 18.1801481,64.3058608 20.4106037,66.3608603 C22.1891998,67.9640003 24.5879009,68.7379299 26.9361284,69.0840351 C29.5487417,69.4685964 31.976285,69.2859297 33.1876531,69.1224912 C33.1876531,69.1224912 33.4328109,69.0840351 33.5962495,69.0840351 C34.7691615,69.0840351 35.7834419,69.7377893 36.3578804,70.6703504 L44.6091239,84.8750837 C40.0136163,86.4782236 35.4229157,87.2329252 30.1976889,87.1680305" id="path4111"></path>
                                </g>
                                <g id="g4113" transform="translate(382.1718, 0.1829)" fill="#00416B">
                                    <path d="M30.1906014,87.1680305 C25.936392,87.1079428 22.3407438,86.579171 18.8220078,85.5240309 C13.0704128,83.7382243 8.7465016,80.6064532 5.40081824,76.2392789 C-0.103215451,68.9614561 0,60.3256513 0,60.3256513 L0,0 L16.1180611,0 C17.1179205,0 17.9759729,0.853245397 17.9759729,1.87473637 L17.9759729,59.2248446 C17.9759729,60.380932 18.1225869,64.3058608 20.3890951,66.3608603 C22.1580771,67.9640003 24.5760063,68.7379299 26.9290408,69.0840351 C29.5512682,69.4685964 31.9283378,69.2859297 33.1469164,69.1224912 C33.1469164,69.1224912 33.4353374,69.0840351 33.5555128,69.0840351 C34.7404424,69.0840351 35.7715474,69.7377893 36.3411788,70.6703504 L44.5924223,84.8750837 C39.9776866,86.4782236 35.386986,87.2329252 30.1906014,87.1680305" id="path4115"></path>
                                </g>
                                <g id="g4117" transform="translate(192.3275, 0.0012)" fill="#00416B">
                                    <path d="M78.0635415,22.5208715 C77.4530505,23.3116256 76.5012612,23.8187659 75.398051,23.8187659 C74.7683319,23.8187659 74.1818759,23.6577308 73.7155953,23.3548888 L73.6314725,23.3332572 C68.1490704,20.021223 61.7028615,18.1488901 54.8120036,18.1488901 C34.5888859,18.1488901 18.1296621,34.612921 18.1296621,54.8528632 C18.1296621,75.0759809 34.5888859,91.5592399 54.8120036,91.5592399 C61.7028615,91.5592399 68.1250353,89.6460474 73.6122444,86.3989078 C74.1241917,86.0311711 74.7539108,85.8701361 75.398051,85.8701361 C76.4579981,85.8701361 77.4338224,86.3989078 78.0443135,87.1271708 L87.2040831,99.0581853 C78.1236292,105.744745 66.9377023,109.669674 54.8120036,109.669674 C24.595099,109.669674 0,85.0745748 0,54.8528632 C0,24.6119236 24.595099,0 54.8120036,0 C66.9377023,0 78.1236292,3.94415689 87.2497497,10.609085 L78.0635415,22.5208715 Z" id="path4119"></path>
                                </g>
                                <g id="g4121" transform="translate(471.9437, 0.1024)" fill="#00416B">
                                    <path d="M44.2437782,71.1774907 C56.1531612,71.1774907 66.2190533,63.4502119 69.7906665,52.7377761 L18.7401531,52.7377761 C22.2925382,63.4502119 32.39929,71.1774907 44.2437782,71.1774907 M44.2437782,88.509188 C19.8649949,88.509188 0,68.6778422 0,44.2678133 C0,20.1005387 19.874609,0.271596422 44.2870414,0 L45.5873393,0 C55.2422316,0 62.9262472,1.30270142 73.1363498,7.92917342 L74.7899634,9.00113806 C74.7899634,9.00113806 65.7167201,20.754293 65.6253868,20.8985035 C65.0221063,21.6868541 64.0871416,22.1531347 63.029598,22.1531347 C62.4239139,22.1531347 61.8663001,22.0113277 61.402423,21.7325208 C59.1166867,20.5283632 52.0047061,17.3389079 44.2437782,17.3389079 C32.5771496,17.3148728 22.6362399,24.8186253 18.8987847,35.2186051 L79.4840149,35.2186051 L86.4782236,35.2642717 C87.5261532,35.2642717 88.3793986,36.093482 88.3793986,37.110166 L88.4779424,42.2969366 C88.5019775,42.9482873 88.5500476,43.6116556 88.5500476,44.2678133 C88.5500476,68.6778422 68.6778422,88.509188 44.2437782,88.509188" id="path4123"></path>
                                </g>
                                <g id="g4125" transform="translate(570.788, 0.0007)" fill="#00416B">
                                    <path d="M1.88194689,0 C0.853245397,0 0.00961403264,0.812385758 -2.6684301e-16,1.81224515 L-2.6684301e-16,83.8992594 C0.00961403264,84.8750837 0.807578742,85.7066975 1.7978241,85.7451536 L16.1059082,85.7451536 C17.1442237,85.7451536 17.9974691,84.9183468 17.9974691,83.8752243 L17.9974691,1.85310479 C17.9974691,0.834017332 17.1442237,0 16.1059082,0 L1.88194689,0 Z" id="path4127"></path>
                                </g>
                                <g id="g4129" transform="translate(282.4831, 0.0005)" fill="#00416B">
                                    <path d="M44.7989886,71.5211923 C30.0871152,71.5211923 18.0936094,59.5300901 18.0936094,44.8206202 C18.0936094,30.0630801 30.0871152,18.105627 44.7989886,18.105627 C59.5541252,18.105627 71.5332099,30.0630801 71.5332099,44.8206202 C71.5332099,59.5300901 59.5541252,71.5211923 44.7989886,71.5211923 M44.7989886,0 C20.0981352,0 0,20.1029423 0,44.8206202 C0,69.5118595 20.0981352,89.5907667 44.7989886,89.5907667 C69.51907,89.5907667 89.6027842,69.5118595 89.6027842,44.8206202 C89.6027842,20.1029423 69.51907,0 44.7989886,0" id="path4131"></path>
                                </g>
                                <g id="g4133" transform="translate(597.753, 0.1219)" fill="#00416B">
                                    <path d="M44.318287,70.7448592 C29.7289924,70.7448592 17.8796972,58.900371 17.8796972,44.327901 C17.8796972,29.7578345 29.7289924,17.8869077 44.318287,17.8869077 C58.8931605,17.8869077 70.7472627,29.7578345 70.7472627,44.327901 C70.7472627,58.900371 58.8931605,70.7448592 44.318287,70.7448592 M44.318287,0 C19.874609,0 0,19.9010476 0,44.327901 C0,68.781193 19.874609,88.6533985 44.318287,88.6533985 C68.761965,88.6533985 88.655802,68.781193 88.655802,44.327901 C88.655802,19.9010476 68.761965,0 44.318287,0" id="path4135"></path>
                                </g>
                            </g>
                        </g>
                    </g>
                </g>
            </g>
        </g>
    </g>
</svg>