<?xml version="1.0" encoding="UTF-8"?>
<svg width="980px" height="680px" viewBox="0 0 980 680" version="1.1" xmlns="http://www.w3.org/2000/svg" xmlns:xlink="http://www.w3.org/1999/xlink">
    <title>BY belpost text</title>
    <defs>
        <linearGradient x1="50%" y1="0%" x2="50%" y2="100%" id="linearGradient-1">
            <stop stop-color="#FFFFFF" offset="0%"></stop>
            <stop stop-color="#EDEDED" offset="100%"></stop>
        </linearGradient>
        <rect id="path-2" x="0" y="0" width="900" height="600" rx="80"></rect>
        <filter x="-6.7%" y="-10.0%" width="113.3%" height="120.0%" filterUnits="objectBoundingBox" id="filter-3">
            <feMorphology radius="2.5" operator="dilate" in="SourceAlpha" result="shadowSpreadOuter1"></feMorphology>
            <feOffset dx="0" dy="0" in="shadowSpreadOuter1" result="shadowOffsetOuter1"></feOffset>
            <feGaussianBlur stdDeviation="17.5" in="shadowOffsetOuter1" result="shadowBlurOuter1"></feGaussianBlur>
            <feColorMatrix values="0 0 0 0 0   0 0 0 0 0   0 0 0 0 0  0 0 0 0.5 0" type="matrix" in="shadowBlurOuter1"></feColorMatrix>
        </filter>
    </defs>
    <g id="BY-belpost-text" stroke="none" stroke-width="1" fill="none" fill-rule="evenodd">
        <g transform="translate(40, 40)">
            <g id="Rectangle">
                <use fill="black" fill-opacity="1" filter="url(#filter-3)" xlink:href="#path-2"></use>
                <use fill="url(#linearGradient-1)" fill-rule="evenodd" xlink:href="#path-2"></use>
            </g>
            <g id="Logo" transform="translate(50, 160)" fill="#1399D6">
                <path d="M116.89453,116.144443 C158.618458,112.071131 192.195761,143.813609 195.57184,181.280743 C199.388277,223.188153 168.269639,256.508581 130.508934,260.178232 C88.4547374,264.251544 55.391185,232.729245 51.5380518,195.225415 C47.134471,155.739974 77.2989994,119.593915 116.89453,116.144443 L116.89453,116.144443 Z M37.6300758,160.987574 C41.0428509,109.685858 89.9225977,83.8515175 137.187698,75.8149826 C135.462962,73.3563167 88.4914339,34.9350743 85.9593749,33.0268559 L45.6299142,0 C41.9602636,57.3199433 -7.76350287,100.878697 1.04365871,167.299374 C7.97929846,219.701985 46.8408989,266.416638 103.940663,277.462286 C124.307224,281.388812 151.389246,279.810863 173.186971,279.810863 C184.489495,279.810863 237.222375,280.141131 243.864443,279.480594 L243.607567,260.288321 L178.067606,260.288321 C179.572163,257.719566 179.205198,259.150729 182.067526,256.398491 C240.63515,206.344457 212.048572,109.722555 136.820733,99.0438713 C106.215847,93.6861813 71.6844339,108.364784 54.2902898,130.602867 L45.9601828,142.602625 C42.2905321,148.804334 40.6024928,154.272114 37.6300758,160.987574 Z" id="Shape"></path>
                <path d="M243.350692,221.610203 L243.350692,193.720858 C252.157853,193.720858 261.552159,193.39059 270.249231,193.757555 C280.781128,194.197913 284.083814,196.546489 284.193903,207.482048 C284.267297,218.417607 281.771934,221.316631 270.873072,221.573507 C261.845731,221.830382 252.451425,221.610203 243.350692,221.610203 L243.350692,221.610203 Z M243.497478,159.152749 L289.918559,159.152749 L289.735076,147.997011 L230.873879,147.997011 L230.873879,232.765941 C244.635069,232.802638 259.937513,233.389782 273.51522,232.729245 C287.313107,232.032011 294.982676,226.674321 296.41384,213.426882 C300.340366,176.803769 272.414325,182.785299 243.350692,182.748603 L243.497478,159.152749 Z" id="Shape"></path>
                <path d="M547.78491,159.409625 C557.362698,158.492212 576.811847,156.583994 579.050334,168.950716 C581.619089,178.345022 581.362214,198.418011 579.857657,207.518745 C578.279707,217.426801 576.224703,219.848771 566.133164,221.390024 C559.160827,222.454223 546.794105,222.344133 540.702484,219.665288 C534.060417,216.729568 533.583362,207.959103 533.032915,199.628996 C532.519164,191.445675 532.592557,181.500922 533.766845,173.354297 C535.308098,163.189365 537.656674,160.914181 547.78491,159.409625 L547.78491,159.409625 Z M520.592799,194.418092 C520.592799,220.582701 526.721115,232.802638 554.206799,232.802638 C584.114452,232.802638 592.995006,226.747714 593.068399,194.418092 C593.105096,163.959991 591.967504,147.48326 556.18841,148.033708 C521.656998,148.474066 520.592799,163.299454 520.592799,194.418092 Z" id="Shape"></path>
                <path d="M72.1614885,223.261546 C66.7304055,217.573588 68.7854099,182.968782 68.7120168,170.125005 C68.6753203,166.748926 68.3450518,164.620529 69.2257679,161.24445 C69.9596981,158.455515 71.8679164,155.703277 72.0513989,155.556491 C72.3082745,155.336312 72.56515,155.116133 72.8220256,154.895954 C75.243995,156.657387 82.9502614,167.042498 89.5923291,172.987332 L115.206491,194.601574 C117.151406,196.106131 119.426589,198.528101 122.949454,197.867563 C132.637331,196.069435 158.581761,178.491808 165.480705,169.574557 C168.78339,165.317762 172.599827,161.060967 174.177777,154.639079 C176.489657,155.88676 176.930015,156.950959 177.92082,160.033465 C179.351984,164.693922 178.728144,181.611011 178.728144,187.115487 C178.728144,195.372201 180.379486,214.454384 177.076801,220.619398 L168.526515,212.729649 C163.132128,207.408655 143.609587,194.491485 136.343678,194.381395 C137.004216,197.90426 150.728709,204.766507 156.233185,208.61964 C161.480785,212.289291 171.902593,219.665288 173.994294,225.463336 C169.297141,227.114679 170.47143,228.142181 163.315611,228.142181 L98.3994907,228.288967 C91.7941195,228.288967 78.9870387,229.830221 74.9137265,225.830302 C78.7301631,223.371636 87.0602701,214.050723 94.7665365,207.738924 L102.105838,201.977572 C108.124065,197.90426 110.766213,198.491404 111.096482,193.610769 C101.408604,194.308002 82.8401719,210.564555 75.390781,217.86716 C72.4550605,220.80288 74.1797963,220.619398 72.1614885,223.261546 L72.1614885,223.261546 Z M77.92284,151.226304 C79.3173073,158.235336 116.490868,193.023625 124.674189,192.693356 C128.490626,192.54657 149.297545,178.234932 152.159873,175.959749 C160.600069,169.391074 167.609102,162.051773 171.131967,151.813448 C161.774358,149.244692 136.270285,150.565767 124.637493,150.565767 C116.89453,150.602463 83.0603509,150.455677 77.92284,151.226304 L77.92284,151.226304 Z M77.7393575,147.116295 C61.409412,151.519876 64.6387046,168.326876 64.6387046,185.243965 C64.6387046,193.610769 64.8221872,202.050965 64.7854906,210.160893 C64.7487941,234.784249 78.5466806,232.619155 93.8124274,232.619155 C104.784683,232.619155 164.233023,233.573264 169.737499,232.288887 C186.250927,228.47245 183.535386,208.472854 183.058331,194.418092 C182.728063,185.427448 184.012441,163.372847 181.773954,157.611496 C176.893318,144.951201 166.728386,146.382365 154.141484,146.382365 C140.380294,146.345668 83.5374055,145.538345 77.7393575,147.116295 Z" id="Shape"></path>
                <polygon id="Path" points="454.685873 159.152749 501.25374 159.152749 501.510615 232.765941 513.400284 232.692548 513.290194 147.997011 442.245757 148.143797 442.465936 232.729245 454.502391 232.765941"></polygon>
                <path d="M759.817325,161.097664 L776.037181,205.206865 L743.230504,205.133472 L759.817325,161.097664 L759.817325,161.097664 Z M731.964677,232.765941 C733.395841,232.068708 733.102269,232.398976 733.836199,231.004509 C735.634327,226.564232 737.946207,220.325826 739.891122,216.17912 L780.404065,216.17912 L786.458989,232.655852 L800,232.692548 L767.340109,147.997011 L751.707397,147.960315 L720.075009,232.765941 L731.964677,232.765941 Z" id="Shape"></path>
                <path d="M313.037358,158.969267 L358.137364,158.969267 L357.990578,147.997011 L300.817421,148.253887 C299.789919,167.299374 300.964207,206.124277 300.744028,228.545843 C300.707331,233.206299 300.30367,232.839334 305.000823,232.802638 C321.073893,232.655852 343.568851,233.536568 357.917185,232.729245 L357.990578,221.867079 L313.074054,221.720293 L313.037358,194.968539 L356.155753,194.931843 L356.302539,183.959587 C345.844035,183.959587 321.991305,184.399946 313.000661,183.812801 L313.000661,158.969267 L313.037358,158.969267 Z" id="Path"></path>
                <path d="M392.081633,148.107101 L360.155672,232.619155 L372.962753,232.765941 C378.026871,226.087177 396.595303,166.161782 400.008078,160.950878 L424.88831,227.995395 C425.145185,228.802719 425.328668,229.353166 425.769026,230.307275 L427.163493,232.435673 L439.199984,232.729245 C439.236644,232.105404 411.75096,156.62069 407.34738,147.923618 L392.081633,148.107101 Z" id="Path"></path>
                <path d="M597.251801,148.253887 C594.095902,200.583105 605.325033,197.90426 649.801199,195.005236 C649.801199,201.904179 648.920482,228.068788 650.20486,232.765941 L661.507384,232.802638 L661.580777,147.997011 L649.801199,147.997011 L649.764502,183.812801 C643.746275,185.427448 634.902417,185.207269 628.297046,185.207269 C601.948954,185.243965 611.012991,173.904745 608.994683,147.997011 L597.251801,148.253887 Z" id="Path"></path>
                <path d="M667.525611,159.152749 L694.974598,159.299535 C695.708528,178.638594 695.047991,211.995719 695.047991,232.802638 L707.524803,232.545762 C707.524803,215.335101 706.790873,173.684566 707.744982,159.189446 L735.08388,158.969267 L734.937094,148.033708 L667.672397,147.997011 L667.525611,150.455677 L667.525611,159.152749 Z" id="Path"></path>
            </g>
        </g>
    </g>
</svg>