<?xml version="1.0" encoding="UTF-8"?>
<svg width="980px" height="680px" viewBox="0 0 980 680" version="1.1" xmlns="http://www.w3.org/2000/svg" xmlns:xlink="http://www.w3.org/1999/xlink">
    <title>BY belpost alt</title>
    <defs>
        <rect id="path-1" x="0" y="0" width="900" height="600" rx="80"></rect>
        <filter x="-6.7%" y="-10.0%" width="113.3%" height="120.0%" filterUnits="objectBoundingBox" id="filter-2">
            <feMorphology radius="2.5" operator="dilate" in="SourceAlpha" result="shadowSpreadOuter1"></feMorphology>
            <feOffset dx="0" dy="0" in="shadowSpreadOuter1" result="shadowOffsetOuter1"></feOffset>
            <feGaussianBlur stdDeviation="17.5" in="shadowOffsetOuter1" result="shadowBlurOuter1"></feGaussianBlur>
            <feColorMatrix values="0 0 0 0 0   0 0 0 0 0   0 0 0 0 0  0 0 0 0.5 0" type="matrix" in="shadowBlurOuter1"></feColorMatrix>
        </filter>
    </defs>
    <g id="BY-belpost-alt" stroke="none" stroke-width="1" fill="none" fill-rule="evenodd">
        <g transform="translate(40, 40)">
            <g id="Rectangle">
                <use fill="black" fill-opacity="1" filter="url(#filter-2)" xlink:href="#path-1"></use>
                <use fill="#1399D6" fill-rule="evenodd" xlink:href="#path-1"></use>
            </g>
            <g id="Logo" transform="translate(232, 50)" fill="#FFFFFF">
                <path d="M208.647702,207.308855 C283.121688,200.038307 343.05458,256.696178 349.08062,323.572115 C355.892664,398.373604 300.348301,457.847992 232.948361,464.398035 C157.88487,471.668583 98.8689842,415.403715 91.9914392,348.462278 C84.1313878,277.983817 137.97274,213.465895 208.647702,207.308855 L208.647702,207.308855 Z M67.166777,287.350378 C73.2583168,195.78078 160.504887,149.668478 244.869438,135.323884 C241.790918,130.935356 157.95037,62.3564076 153.430841,58.9503853 L81.4458703,0 C74.8958275,102.311669 -13.8572526,180.060677 1.86285014,298.616452 C14.2424311,392.151063 83.6073844,475.533108 185.526051,495.248737 C221.878788,502.257283 270.218104,499.440764 309.125358,499.440764 C329.29949,499.440764 423.423605,500.030268 435.279183,498.85126 L434.82068,464.594537 L317.836915,464.594537 C320.522433,460.009507 319.867429,462.564023 324.976462,457.651491 C429.515145,368.308907 378.490312,195.84628 244.214434,176.785655 C189.587077,167.222593 127.951174,193.422764 96.9039713,233.116024 L82.0353741,254.534664 C75.4853313,265.604236 72.4723116,275.3638 67.166777,287.350378 Z" id="Shape"></path>
                <path d="M128.80268,398.504605 C119.108616,388.352038 122.77664,326.585135 122.64564,303.659985 C122.580139,297.633945 121.990635,293.83492 123.562646,287.808881 C124.872654,282.830849 128.278676,277.918316 128.606179,277.656315 C129.064682,277.263312 129.523185,276.87031 129.981688,276.477307 C134.304716,279.621328 148.059806,298.157949 159.915383,308.769018 L205.634682,347.34877 C209.106205,350.034288 213.167231,354.357316 219.455272,353.178308 C236.747385,349.968787 283.056188,318.594082 295.370268,302.677478 C301.265307,295.079429 308.077352,287.481379 310.89387,276.018804 C315.020397,278.245819 315.806402,280.145331 317.574914,285.647367 C320.12943,293.965921 319.015923,324.161619 319.015923,333.986683 C319.015923,348.724279 321.963442,382.784502 316.068404,393.788574 L300.806804,379.705982 C291.178241,370.20842 256.332013,347.152269 243.362929,346.955768 C244.541936,353.243809 269.039096,365.492389 278.864161,372.369934 C288.230722,378.919977 306.832843,392.085563 310.566368,402.43463 C302.182313,405.38215 304.278327,407.216162 291.505743,407.216162 L175.635486,407.478163 C163.845409,407.478163 140.985759,410.229181 133.715212,403.089635 C140.527256,398.701106 155.395854,382.063997 169.150944,370.797924 L182.251029,360.514356 C192.993099,353.243809 197.70913,354.291816 198.298634,345.580259 C181.006521,346.824767 147.863304,375.841456 134.566717,388.876042 C129.326683,394.116076 132.405203,393.788574 128.80268,398.504605 L128.80268,398.504605 Z M139.086247,269.927264 C141.575263,282.437846 207.927197,344.532252 222.533792,343.942748 C229.345837,343.680746 266.48458,318.135579 271.593613,314.074553 C286.658712,302.349976 299.169293,289.249891 305.457334,270.975271 C288.754725,266.390241 243.231928,268.748257 222.468292,268.748257 C208.647702,268.813757 148.256307,268.551755 139.086247,269.927264 L139.086247,269.927264 Z M138.758745,262.591216 C109.611054,270.451268 115.375092,300.450464 115.375092,330.646161 C115.375092,345.580259 115.702594,360.645357 115.637094,375.120952 C115.571593,419.071739 140.199754,415.207214 167.447932,415.207214 C187.03256,415.207214 293.143254,416.910225 302.968318,414.61771 C332.443511,407.805665 327.596479,372.107932 326.744974,347.021268 C326.15547,330.973663 328.447985,291.607906 324.452459,281.324339 C315.740902,258.726691 297.597283,261.281208 275.130636,261.281208 C250.567976,261.215707 149.107813,259.774698 138.758745,262.591216 Z" id="Shape"></path>
            </g>
        </g>
    </g>
</svg>