<?xml version="1.0" encoding="UTF-8"?>
<svg width="980px" height="680px" viewBox="0 0 980 680" version="1.1" xmlns="http://www.w3.org/2000/svg" xmlns:xlink="http://www.w3.org/1999/xlink">
    <title>CA Canada Post text</title>
    <defs>
        <rect id="path-1" x="0" y="0" width="900" height="600" rx="80"></rect>
        <filter x="-6.7%" y="-10.0%" width="113.3%" height="120.0%" filterUnits="objectBoundingBox" id="filter-2">
            <feMorphology radius="2.5" operator="dilate" in="SourceAlpha" result="shadowSpreadOuter1"></feMorphology>
            <feOffset dx="0" dy="0" in="shadowSpreadOuter1" result="shadowOffsetOuter1"></feOffset>
            <feGaussianBlur stdDeviation="17.5" in="shadowOffsetOuter1" result="shadowBlurOuter1"></feGaussianBlur>
            <feColorMatrix values="0 0 0 0 0   0 0 0 0 0   0 0 0 0 0  0 0 0 0.5 0" type="matrix" in="shadowBlurOuter1"></feColorMatrix>
        </filter>
        <rect id="path-3" x="0" y="0" width="800" height="181.338773"></rect>
        <rect id="path-5" x="0" y="0" width="800" height="181.338773"></rect>
        <rect id="path-7" x="0" y="0" width="800" height="181.338773"></rect>
        <rect id="path-9" x="0" y="0" width="800" height="181.338773"></rect>
        <rect id="path-11" x="0" y="0" width="800" height="181.338773"></rect>
        <rect id="path-13" x="0" y="0" width="800" height="181.338773"></rect>
        <rect id="path-15" x="0" y="0" width="800" height="181.338773"></rect>
        <rect id="path-17" x="0" y="0" width="800" height="181.338773"></rect>
        <rect id="path-19" x="0" y="0" width="800" height="181.338773"></rect>
        <rect id="path-21" x="0" y="0" width="800" height="181.338773"></rect>
        <rect id="path-23" x="0" y="0" width="800" height="181.338773"></rect>
        <rect id="path-25" x="0" y="0" width="800" height="181.338773"></rect>
        <rect id="path-27" x="0" y="0" width="800" height="181.338773"></rect>
        <rect id="path-29" x="0" y="0" width="800" height="181.338773"></rect>
        <rect id="path-31" x="0" y="0" width="800" height="181.338773"></rect>
        <rect id="path-33" x="0" y="0" width="800" height="181.338773"></rect>
        <rect id="path-35" x="0" y="0" width="800" height="181.338773"></rect>
        <rect id="path-37" x="0" y="0" width="800" height="181.338773"></rect>
        <rect id="path-39" x="0" y="0" width="800" height="181.338773"></rect>
        <rect id="path-41" x="0" y="0" width="800" height="181.338773"></rect>
        <rect id="path-43" x="0" y="0" width="800" height="181.338773"></rect>
        <rect id="path-45" x="0" y="0" width="800" height="181.338773"></rect>
        <rect id="path-47" x="0" y="0" width="800" height="181.338773"></rect>
        <rect id="path-49" x="0" y="0" width="800" height="181.338773"></rect>
        <rect id="path-51" x="0" y="0" width="800" height="181.338773"></rect>
    </defs>
    <g id="CA-Canada-Post-text" stroke="none" stroke-width="1" fill="none" fill-rule="evenodd">
        <g transform="translate(40, 40)">
            <g id="Rectangle">
                <use fill="black" fill-opacity="1" filter="url(#filter-2)" xlink:href="#path-1"></use>
                <use fill="#004890" fill-rule="evenodd" xlink:href="#path-1"></use>
            </g>
            <g id="Logo" transform="translate(50, 209)">
                <g id="Clipped">
                    <mask id="mask-4" fill="white">
                        <use xlink:href="#path-3"></use>
                    </mask>
                    <g id="SVGID_1_"></g>
                    <path d="M800.024001,181.338773 L800.024001,92.8614525 L0,92.8614525 L0,181.338773 L800.024001,181.338773 M800.024001,88.1066432 L800.024001,0 L0,0 L0,88.1066432 L800.024001,88.1066432 Z" id="Shape" fill="#004890" mask="url(#mask-4)"></path>
                </g>
                <rect id="Rectangle" fill="#FFFFFF" x="0" y="88" width="800" height="5"></rect>
                <g id="Clipped">
                    <mask id="mask-6" fill="white">
                        <use xlink:href="#path-5"></use>
                    </mask>
                    <g id="SVGID_1_"></g>
                    <path d="M400.004,15.2644579 C358.032074,15.2644579 324.092389,49.0601385 324.092389,90.8480588 C324.092389,132.643979 358.032074,166.436993 400.004,166.436993 C441.978593,166.436993 476.283622,132.643979 476.283622,90.8480588 C476.283622,49.0574717 441.978593,15.2644579 400.004,15.2644579" id="Path" fill="#D11C00" mask="url(#mask-6)"></path>
                </g>
                <g id="Clipped">
                    <mask id="mask-8" fill="white">
                        <use xlink:href="#path-7"></use>
                    </mask>
                    <g id="SVGID_1_"></g>
                    <polyline id="Path" fill="#FFFFFF" mask="url(#mask-8)" points="377.01131 101.021697 382.488808 95.5762006 444.896014 92.6641133 447.44809 90.1147034 386.504928 90.1147034 352.927921 51.2362038 464.243261 88.3013157 427.378155 125.379761 352.927921 125.379761 360.226807 117.739532 422.631346 114.830112 425.186089 112.291369 366.064315 112.291369 371.536479 106.832538 433.581007 103.931118 436.498428 101.021697 377.01131 101.021697"></polyline>
                </g>
                <g id="Clipped">
                    <mask id="mask-10" fill="white">
                        <use xlink:href="#path-9"></use>
                    </mask>
                    <g id="SVGID_1_"></g>
                    <path d="M507.676564,29.8035608 L516.068815,29.8035608 C523.362368,29.8035608 529.930565,31.9796261 529.930565,39.9691991 C529.930565,47.601428 524.461067,50.5135154 517.162182,50.5135154 L514.242094,50.5135154 L514.242094,63.2285635 L507.673897,63.2285635 L507.673897,29.8035608 M514.244761,45.422696 L516.796837,45.422696 C520.084936,45.422696 523.005023,44.3319966 523.005023,40.3372101 C523.005023,36.7077679 520.084936,35.2517242 516.796837,35.2517242 L514.244761,35.2517242 L514.244761,45.422696 Z" id="Shape" fill="#FFFFFF" mask="url(#mask-10)"></path>
                </g>
                <g id="Clipped">
                    <mask id="mask-12" fill="white">
                        <use xlink:href="#path-11"></use>
                    </mask>
                    <g id="SVGID_1_"></g>
                    <path d="M561.32884,29.4275495 C571.907824,29.4275495 577.737332,36.3424236 577.737332,46.5053952 C577.737332,56.6897007 571.905157,63.5939078 561.32884,63.5939078 C550.739189,63.5939078 545.267025,56.6897007 545.267025,46.5053952 C545.267025,36.3424236 550.739189,29.4275495 561.32884,29.4275495 M561.32884,58.5084219 C568.262381,58.5084219 570.809124,52.3269031 570.809124,46.5053952 C570.809124,40.6945542 567.891703,34.5157021 561.32884,34.5157021 C554.755309,34.5157021 552.197899,40.6945542 552.197899,46.5053952 C552.197899,52.3269031 554.755309,58.5084219 561.32884,58.5084219 Z" id="Shape" fill="#FFFFFF" mask="url(#mask-12)"></path>
                </g>
                <g id="Clipped">
                    <mask id="mask-14" fill="white">
                        <use xlink:href="#path-13"></use>
                    </mask>
                    <g id="SVGID_1_"></g>
                    <path d="M613.871749,35.9717458 C611.685017,35.2490575 609.122274,34.5157021 606.935541,34.5157021 C604.748809,34.5157021 601.831388,35.6090683 601.831388,39.2411772 C601.831388,45.0626852 616.434493,42.5132754 616.434493,53.7829468 C616.434493,61.0498315 610.599651,63.5939078 603.652776,63.5939078 C600.007334,63.5939078 598.55929,63.22323 595.263191,62.5032084 L595.996547,56.3216897 C598.183279,57.7750666 600.743356,58.5084219 603.306099,58.5084219 C605.847509,58.5084219 609.498285,57.055045 609.498285,54.1429576 C609.498285,47.9641056 594.897847,50.5108487 594.897847,39.601188 C594.897847,31.9796261 600.378011,29.4275495 606.202186,29.4275495 C609.119607,29.4275495 612.047695,29.8035608 614.245094,30.5235824 L613.871749,35.9717458" id="Path" fill="#FFFFFF" mask="url(#mask-14)"></path>
                </g>
                <g id="Clipped">
                    <mask id="mask-16" fill="white">
                        <use xlink:href="#path-15"></use>
                    </mask>
                    <g id="SVGID_1_"></g>
                    <polyline id="Path" fill="#FFFFFF" mask="url(#mask-16)" points="640.528549 35.2517242 631.032264 35.2517242 631.032264 29.8035608 656.585031 29.8035608 656.585031 35.2517242 647.096746 35.2517242 647.096746 63.2258968 640.528549 63.2258968 640.528549 35.2517242"></polyline>
                </g>
                <g id="Clipped">
                    <mask id="mask-18" fill="white">
                        <use xlink:href="#path-17"></use>
                    </mask>
                    <g id="SVGID_1_"></g>
                    <polyline id="Path" fill="#FFFFFF" mask="url(#mask-18)" points="673.006857 29.8035608 692.708781 29.8035608 692.708781 35.2517242 679.580387 35.2517242 679.580387 43.2466307 691.620749 43.2466307 691.620749 48.6947942 679.580387 48.6947942 679.580387 57.7750666 692.708781 57.7750666 692.708781 63.2258968 673.006857 63.2258968 673.006857 29.8035608"></polyline>
                </g>
                <g id="Clipped">
                    <mask id="mask-20" fill="white">
                        <use xlink:href="#path-19"></use>
                    </mask>
                    <g id="SVGID_1_"></g>
                    <path d="M729.21921,35.9717458 C727.384488,35.2490575 724.824411,34.5157021 722.637679,34.5157021 C720.090936,34.5157021 717.165515,35.6090683 717.165515,39.2411772 C717.165515,45.0626852 731.76862,42.5132754 731.76862,53.7829468 C731.76862,61.0498315 726.296456,63.5939078 719.352247,63.5939078 C715.706805,63.5939078 714.253428,63.22323 710.957329,62.5032084 L711.33334,56.3216897 C713.88275,57.7750666 716.43216,58.5084219 719.00557,58.5084219 C721.549646,58.5084219 724.827078,57.055045 724.827078,54.1429576 C724.827078,47.9641056 710.23464,50.5108487 710.23464,39.601188 C710.23464,31.9796261 716.080149,29.4275495 721.904324,29.4275495 C724.827078,29.4275495 727.389822,29.8035608 729.947232,30.5235824 L729.21921,35.9717458" id="Path" fill="#FFFFFF" mask="url(#mask-20)"></path>
                </g>
                <g id="Clipped">
                    <mask id="mask-22" fill="white">
                        <use xlink:href="#path-21"></use>
                    </mask>
                    <g id="SVGID_1_"></g>
                    <path d="M533.22133,154.081956 C531.031931,154.444633 528.479854,154.804644 525.927778,154.804644 C514.975449,154.804644 507.313886,149.719158 507.313886,138.44682 C507.313886,126.819805 514.612772,120.638286 525.927778,120.638286 C528.11451,120.638286 531.031931,121.006297 533.22133,122.088996 L532.858652,127.55316 C530.303909,126.09445 528.11451,125.734439 525.559767,125.734439 C518.626225,125.734439 514.612772,131.182602 514.612772,137.724132 C514.612772,144.631006 518.628892,149.716491 525.927778,149.716491 C528.479854,149.716491 531.402609,148.983136 533.22133,148.260448 L533.22133,154.081956" id="Path" fill="#FFFFFF" mask="url(#mask-22)"></path>
                </g>
                <g id="Clipped">
                    <mask id="mask-24" fill="white">
                        <use xlink:href="#path-23"></use>
                    </mask>
                    <g id="SVGID_1_"></g>
                    <path d="M559.872796,121.008964 L567.163682,121.008964 L580.300076,154.444633 L572.998523,154.444633 L570.083769,146.809738 L556.576697,146.809738 L553.65661,154.444633 L546.720402,154.444633 L559.872796,121.008964 M563.507572,127.915837 L563.507572,127.915837 L558.403419,141.724252 L568.262381,141.724252 L563.507572,127.915837 Z" id="Shape" fill="#FFFFFF" mask="url(#mask-24)"></path>
                </g>
                <g id="Clipped">
                    <mask id="mask-26" fill="white">
                        <use xlink:href="#path-25"></use>
                    </mask>
                    <g id="SVGID_1_"></g>
                    <polyline id="Path" fill="#FFFFFF" mask="url(#mask-26)" points="596.359224 121.008964 604.751476 121.008964 617.170515 146.087049 617.530526 146.087049 617.530526 121.008964 623.741379 121.008964 623.741379 154.444633 615.698471 154.444633 602.932755 129.731892 602.932755 154.444633 596.359224 154.444633 596.359224 121.008964"></polyline>
                </g>
                <g id="Clipped">
                    <mask id="mask-28" fill="white">
                        <use xlink:href="#path-27"></use>
                    </mask>
                    <g id="SVGID_1_"></g>
                    <path d="M652.571577,121.008964 L660.230474,121.008964 L673.366868,154.444633 L666.073316,154.444633 L663.150561,146.809738 L649.648823,146.809738 L646.726068,154.444633 L639.78986,154.444633 L652.571577,121.008964 M656.214353,127.915837 L656.214353,127.915837 L651.470211,141.724252 L661.329173,141.724252 L656.214353,127.915837 Z" id="Shape" fill="#FFFFFF" mask="url(#mask-28)"></path>
                </g>
                <g id="Clipped">
                    <mask id="mask-30" fill="white">
                        <use xlink:href="#path-29"></use>
                    </mask>
                    <g id="SVGID_1_"></g>
                    <path d="M689.420683,121.008964 L698.55429,121.008964 C709.135941,121.008964 717.89087,124.643739 717.89087,137.729465 C717.89087,150.799191 709.135941,154.4473 698.55429,154.4473 L689.420683,154.4473 L689.420683,121.008964 M696.364891,148.985803 L700.015667,148.985803 C705.485165,148.985803 710.957329,144.991016 710.957329,137.726798 C710.957329,130.462581 705.485165,126.45446 700.015667,126.45446 L696.364891,126.45446 L696.364891,148.985803 Z" id="Shape" fill="#FFFFFF" mask="url(#mask-30)"></path>
                </g>
                <g id="Clipped">
                    <mask id="mask-32" fill="white">
                        <use xlink:href="#path-31"></use>
                    </mask>
                    <g id="SVGID_1_"></g>
                    <path d="M745.635702,121.008964 L753.299932,121.008964 L766.44166,154.444633 L758.77743,154.444633 L755.852009,146.809738 L742.344937,146.809738 L739.427516,154.444633 L732.491308,154.444633 L745.635702,121.008964 M749.281145,127.915837 L749.281145,127.915837 L744.537003,141.724252 L754.030621,141.724252 L749.281145,127.915837 Z" id="Shape" fill="#FFFFFF" mask="url(#mask-32)"></path>
                </g>
                <g id="Clipped">
                    <mask id="mask-34" fill="white">
                        <use xlink:href="#path-33"></use>
                    </mask>
                    <g id="SVGID_1_"></g>
                    <path d="M61.6791837,62.8605525 C59.1297739,63.2258968 56.5696971,63.5939078 54.0149538,63.5939078 C43.433303,63.5939078 35.7690731,58.5084219 35.7690731,47.2387505 C35.7690731,35.6090683 42.7026144,29.4248827 54.0149538,29.4248827 C56.2070195,29.4248827 59.1297739,29.800894 61.6791837,30.8809264 L61.3138394,36.3397569 C58.7617629,34.8783797 56.2070195,34.5130354 54.0149538,34.5130354 C47.0787457,34.5130354 42.7026144,39.9638656 42.7026144,46.5027284 C42.7026144,53.4176025 47.0814124,58.5057552 54.0149538,58.5057552 C56.5696971,58.5057552 59.8577957,57.7723998 61.3138394,57.0523782 L61.6791837,62.8605525" id="Path" fill="#FFFFFF" mask="url(#mask-34)"></path>
                </g>
                <g id="Clipped">
                    <mask id="mask-36" fill="white">
                        <use xlink:href="#path-35"></use>
                    </mask>
                    <g id="SVGID_1_"></g>
                    <path d="M87.9599721,29.8035608 L95.6188686,29.8035608 L108.755263,63.2258968 L101.467044,63.2258968 L98.5389562,55.5990013 L85.0372178,55.5990013 L82.1197969,63.2258968 L75.1862556,63.2258968 L87.9599721,29.8035608 M91.9760926,36.7077679 L91.6027481,36.7077679 L86.866606,50.5135154 L96.7175682,50.5135154 L91.9760926,36.7077679 Z" id="Shape" fill="#FFFFFF" mask="url(#mask-36)"></path>
                </g>
                <g id="Clipped">
                    <mask id="mask-38" fill="white">
                        <use xlink:href="#path-37"></use>
                    </mask>
                    <g id="SVGID_1_"></g>
                    <polyline id="Path" fill="#FFFFFF" mask="url(#mask-38)" points="124.819745 29.8035608 132.846652 29.8035608 145.625702 54.8629792 145.625702 29.8035608 152.188566 29.8035608 152.188566 63.2258968 143.796314 63.2258968 131.022597 38.5184889 131.022597 63.2258968 124.819745 63.2258968 124.819745 29.8035608"></polyline>
                </g>
                <g id="Clipped">
                    <mask id="mask-40" fill="white">
                        <use xlink:href="#path-39"></use>
                    </mask>
                    <g id="SVGID_1_"></g>
                    <path d="M181.029431,29.8035608 L188.690994,29.8035608 L201.827388,63.2258968 L194.165825,63.2258968 L191.245737,55.5990013 L177.738665,55.5990013 L174.818578,63.2258968 L167.885037,63.2258968 L181.029431,29.8035608 M184.674874,36.7077679 L184.674874,36.7077679 L179.925398,50.5135154 L189.424349,50.5135154 L184.674874,36.7077679 Z" id="Shape" fill="#FFFFFF" mask="url(#mask-40)"></path>
                </g>
                <g id="Clipped">
                    <mask id="mask-42" fill="white">
                        <use xlink:href="#path-41"></use>
                    </mask>
                    <g id="SVGID_1_"></g>
                    <path d="M217.88387,29.8035608 L227.009477,29.8035608 C237.23645,29.8035608 246.356724,33.422336 246.356724,46.5080619 C246.356724,59.5937878 237.23645,63.2285635 227.009477,63.2285635 L217.88387,63.2285635 L217.88387,29.8035608 M224.4574,57.7750666 L228.473521,57.7750666 C233.948352,57.7750666 239.423183,53.7856136 239.423183,46.5053952 C239.423183,39.2411772 233.945685,35.2490575 228.473521,35.2490575 L224.4574,35.2490575 L224.4574,57.7750666 Z" id="Shape" fill="#FFFFFF" mask="url(#mask-42)"></path>
                </g>
                <g id="Clipped">
                    <mask id="mask-44" fill="white">
                        <use xlink:href="#path-43"></use>
                    </mask>
                    <g id="SVGID_1_"></g>
                    <path d="M274.090889,29.8035608 L281.389775,29.8035608 L294.531503,63.2258968 L287.232617,63.2258968 L284.312529,55.5990013 L270.808124,55.5990013 L267.890703,63.2258968 L260.954495,63.2258968 L274.090889,29.8035608 M277.741666,36.7077679 L277.373655,36.7077679 L272.626845,50.5135154 L282.483141,50.5135154 L277.741666,36.7077679 Z" id="Shape" fill="#FFFFFF" mask="url(#mask-44)"></path>
                </g>
                <g id="Clipped">
                    <mask id="mask-46" fill="white">
                        <use xlink:href="#path-45"></use>
                    </mask>
                    <g id="SVGID_1_"></g>
                    <path d="M36.8624392,121.008964 L45.254691,121.008964 C52.5562434,121.008964 59.1271071,123.187696 59.1271071,131.185269 C59.1271071,138.822831 53.6469427,141.721585 46.3507239,141.721585 L43.4306363,141.721585 L43.4306363,154.444633 L36.8597725,154.444633 L36.8597725,121.008964 M43.433303,136.636099 L45.9880463,136.636099 C49.2708115,136.636099 52.1908991,135.537399 52.1908991,131.550613 C52.1908991,127.915837 49.2708115,126.457127 45.9880463,126.457127 L43.433303,126.457127 L43.433303,136.636099 Z" id="Shape" fill="#FFFFFF" mask="url(#mask-46)"></path>
                </g>
                <g id="Clipped">
                    <mask id="mask-48" fill="white">
                        <use xlink:href="#path-47"></use>
                    </mask>
                    <g id="SVGID_1_"></g>
                    <path d="M90.5147154,120.640953 C101.099033,120.640953 106.936541,127.555827 106.936541,137.726798 C106.936541,147.900437 101.099033,154.804644 90.5147154,154.804644 C79.9277312,154.804644 74.455567,147.900437 74.455567,137.726798 C74.455567,127.555827 79.9303979,120.640953 90.5147154,120.640953 M90.5147154,149.721825 C97.4509235,149.721825 100.003,143.537639 100.003,137.729465 C100.003,131.907957 97.4509235,125.739772 90.5147154,125.739772 C83.9438516,125.739772 81.3864416,131.907957 81.3864416,137.729465 C81.3891083,143.534973 83.9465184,149.721825 90.5147154,149.721825 Z" id="Shape" fill="#FFFFFF" mask="url(#mask-48)"></path>
                </g>
                <g id="Clipped">
                    <mask id="mask-50" fill="white">
                        <use xlink:href="#path-49"></use>
                    </mask>
                    <g id="SVGID_1_"></g>
                    <path d="M143.068292,127.179815 C140.878893,126.457127 138.686827,125.737105 136.134751,125.737105 C133.948018,125.737105 131.019931,126.819805 131.019931,130.462581 C131.019931,136.273422 145.625702,133.724012 145.625702,144.98835 C145.625702,152.265901 139.785527,154.804644 133.21733,154.804644 C129.563887,154.804644 127.737165,154.441967 124.4544,153.708611 L125.185089,147.540426 C127.374488,148.983136 129.931898,149.716491 132.483975,149.716491 C135.036051,149.716491 138.686827,148.260448 138.686827,145.359027 C138.686827,139.180175 124.086389,141.718918 124.086389,130.819925 C124.086389,123.185029 129.929231,120.638286 135.76674,120.638286 C138.318816,120.638286 141.238904,121.006297 143.433636,121.731652 L143.068292,127.179815" id="Path" fill="#FFFFFF" mask="url(#mask-50)"></path>
                </g>
                <g id="Clipped">
                    <mask id="mask-52" fill="white">
                        <use xlink:href="#path-51"></use>
                    </mask>
                    <g id="SVGID_1_"></g>
                    <polyline id="Path" fill="#FFFFFF" mask="url(#mask-52)" points="169.709091 126.457127 160.220807 126.457127 160.220807 121.008964 185.770906 121.008964 185.770906 126.457127 176.282622 126.457127 176.282622 154.444633 169.709091 154.444633 169.709091 126.457127"></polyline>
                </g>
            </g>
        </g>
    </g>
</svg>