<?xml version="1.0" encoding="UTF-8"?>
<svg width="980px" height="680px" viewBox="0 0 980 680" version="1.1" xmlns="http://www.w3.org/2000/svg" xmlns:xlink="http://www.w3.org/1999/xlink">
    <title>CH Planzer Paket</title>
    <defs>
        <rect id="path-1" x="0" y="0" width="900" height="600" rx="80"></rect>
        <filter x="-6.7%" y="-10.0%" width="113.3%" height="120.0%" filterUnits="objectBoundingBox" id="filter-2">
            <feMorphology radius="2.5" operator="dilate" in="SourceAlpha" result="shadowSpreadOuter1"></feMorphology>
            <feOffset dx="0" dy="0" in="shadowSpreadOuter1" result="shadowOffsetOuter1"></feOffset>
            <feGaussianBlur stdDeviation="17.5" in="shadowOffsetOuter1" result="shadowBlurOuter1"></feGaussianBlur>
            <feColorMatrix values="0 0 0 0 0   0 0 0 0 0   0 0 0 0 0  0 0 0 0.5 0" type="matrix" in="shadowBlurOuter1"></feColorMatrix>
        </filter>
    </defs>
    <g id="CH-Planzer-Paket" stroke="none" stroke-width="1" fill="none" fill-rule="evenodd">
        <g transform="translate(40, 40)">
            <g id="Rectangle">
                <use fill="black" fill-opacity="1" filter="url(#filter-2)" xlink:href="#path-1"></use>
                <use fill="#FFF2D6" fill-rule="evenodd" xlink:href="#path-1"></use>
            </g>
            <g id="Group" transform="translate(50, 178)" fill="#A60D1F">
                <path d="M241.67983,109.532963 C274.884957,102.641332 300.571943,78.8338826 300.571943,55.0264327 C300.571943,19.9417697 262.35472,-3.8656802 150.835613,0.519902675 C91.3169883,1.77292635 -7.67188236,16.8092105 0.472771556,49.3878261 C18.6416149,48.1348025 58.1118608,40.6166604 91.3169883,55.6529445 C133.293281,74.4482997 114.497926,135.219948 88.8109409,165.292516 C83.7988462,171.557635 76.2807041,179.702289 69.3890739,186.593919 C72.5216331,190.979502 80.666287,196.618108 88.8109409,196.618108 C104.473737,187.846943 184.667252,93.8701667 200.95656,58.7855037 C197.824001,53.1468972 188.426323,47.5082906 178.402134,47.5082906 C177.775622,47.5082906 177.775622,47.5082906 177.14911,48.1348025 C175.269575,50.6408498 177.14911,52.5203853 175.896087,56.2794564 C172.137016,73.195276 101.341178,156.521351 100.714666,156.521351 C118.256997,128.328318 141.437935,69.436205 91.9435001,46.8817788 C80.0397751,41.2431722 58.7383726,36.2310775 39.9430174,37.4841012 C59.3648845,29.3394473 100.714666,25.5803762 110.738855,24.3273526 C152.088637,19.3152579 195.944465,19.3152579 237.294247,24.3273526 C289.921241,31.2189828 297.439383,63.1710866 256.089602,85.099001 C249.197972,88.858072 219.125403,100.135285 196.570977,81.9664418 C187.1733,82.5929536 189.679347,100.135285 193.438418,104.520868 C199.703536,113.292034 227.896569,112.03901 241.67983,109.532963 Z M719.708363,158.400886 C703.419055,148.376697 739.756742,125.195759 742.262789,122.063199 C746.02186,118.304128 726.599993,112.665522 719.708363,110.785986 C727.853017,104.520868 744.142325,95.1231904 738.503718,90.1110957 C736.624183,88.858072 734.744647,87.6050483 731.612088,87.6050483 C719.081851,86.9785365 702.792543,103.267844 709.057662,113.918546 C689.009283,127.701806 647.659502,152.76228 632.623217,134.593436 C643.900431,128.95483 699.033472,108.279939 689.635795,93.2436549 C678.358582,76.9543471 607.562744,104.520868 611.321815,138.979019 C607.562744,140.858555 570.598545,157.147862 564.333427,159.65391 C562.453891,152.135768 556.188773,148.376697 554.935749,147.750185 C578.743199,144.617626 609.442279,129.581342 607.562744,113.292034 C606.30972,102.641332 585.634829,101.388309 575.61064,97.6292378 C573.104593,96.3762141 576.237152,90.7376075 579.369711,88.858072 C568.092498,80.7134181 550.550166,98.2557496 554.309237,103.894356 C556.188773,106.400404 559.321332,107.653427 559.321332,107.653427 C554.935749,112.03901 522.357134,143.991114 509.200385,139.605531 C500.429219,136.472972 528.622252,111.412498 527.99574,103.267844 C527.369228,97.0027259 521.10411,93.8701667 506.067826,100.761797 C487.272471,109.532963 461.585485,127.701806 454.693855,132.713901 C464.091533,119.557152 474.115722,109.532963 482.260376,99.5087733 C479.127817,94.4966786 474.742234,92.6171431 467.850604,93.2436549 C455.320367,103.267844 424.621287,128.328318 403.319884,140.232043 C396.428254,143.991114 392.042671,142.73809 390.789647,140.858555 C388.2836,135.219948 402.066861,123.316223 407.078955,118.304128 C404.572908,115.798081 400.813837,113.918546 395.17523,113.918546 C385.777553,120.183664 346.307307,147.123673 346.933819,132.087389 C348.186842,117.051105 399.560813,84.4724891 398.934301,110.159475 C408.331979,109.532963 413.970585,100.761797 414.597097,94.4966786 C405.825932,85.099001 388.2836,87.6050483 373.247316,93.8701667 C346.933819,105.14738 330.017999,126.448782 294.306824,140.232043 C279.27054,145.870649 291.174265,122.689711 299.945431,113.918546 C395.17523,72.5687642 418.356168,38.7371249 413.970585,29.3394473 C405.825932,13.0501395 371.994292,33.7250302 356.958008,43.7492196 C329.391487,62.5445748 302.451478,89.4845839 279.897052,115.171569 C259.848673,125.195759 217.87238,143.364602 210.98075,130.207853 C208.474702,133.340413 205.968655,140.858555 209.727726,143.991114 C219.125403,150.882744 251.077507,138.979019 270.499374,127.701806 C265.48728,134.593436 256.089602,154.015303 273.005422,154.015303 C291.800777,154.015303 319.367298,132.087389 331.271023,124.569247 C323.752881,132.087389 321.873345,142.73809 323.126369,147.123673 C328.764975,169.051587 378.885922,134.593436 378.885922,134.593436 C376.379875,138.352507 371.36778,144.617626 373.873828,150.256232 C378.885922,157.774374 391.416159,154.641815 399.560813,150.882744 C417.103145,140.858555 450.934784,110.159475 460.958973,103.267844 C449.055248,118.304128 434.018964,136.472972 424.621287,150.256232 C428.380358,154.015303 434.018964,155.894839 441.537106,155.268327 C454.067343,144.617626 492.911077,118.93064 503.561779,116.424593 C502.935267,118.304128 474.742234,149.62972 495.417125,153.388791 C519.224574,157.147862 545.538072,128.95483 563.080403,108.906451 C573.104593,109.532963 584.381806,113.918546 588.140877,118.304128 C595.032507,127.075294 527.99574,145.244138 536.140394,152.135768 C539.272953,154.641815 548.044119,157.147862 548.670631,166.54554 C533.007835,172.810658 494.164101,189.726478 470.356651,203.509739 C439.657571,221.05207 439.031059,241.726961 455.320367,249.245103 C479.754329,259.895804 553.056214,222.931606 564.959939,167.798564 C568.71901,165.919028 609.442279,145.870649 613.20135,144.617626 C637.635312,174.690194 705.298591,122.063199 712.816733,117.051105 C715.32278,118.93064 723.467434,122.689711 720.961387,124.569247 C718.455339,125.822271 671.466951,155.894839 703.419055,172.810658 C727.226505,185.340895 779.8535,159.65391 796.142807,136.472972 C798.022343,133.340413 800.52839,129.581342 799.901879,127.075294 C779.8535,144.617626 740.383254,170.304611 719.708363,158.400886 Z M398.30779,34.351542 C400.813837,33.0985183 402.693372,34.351542 400.813837,36.8575894 C382.644994,61.2915511 325.005904,92.6171431 313.102179,98.8822614 C336.909629,67.5566695 385.151041,39.9901486 398.30779,34.351542 Z M461.585485,236.088354 C449.68176,220.425558 514.838992,189.726478 547.417607,175.316706 C544.91156,202.256715 472.236187,248.618591 461.585485,236.088354 Z M674.599511,100.135285 C681.491141,106.400404 652.671596,120.810176 630.11717,130.834365 C628.237635,115.798081 669.587416,95.1231904 674.599511,100.135285 Z" id="Shape"></path>
            </g>
        </g>
    </g>
</svg>