<?xml version="1.0" encoding="UTF-8"?>
<svg width="980px" height="680px" viewBox="0 0 980 680" version="1.1" xmlns="http://www.w3.org/2000/svg" xmlns:xlink="http://www.w3.org/1999/xlink">
    <title>CH Schweizerische Post FR heritage</title>
    <defs>
        <rect id="path-1" x="0" y="0" width="900" height="600" rx="80"></rect>
        <filter x="-6.7%" y="-10.0%" width="113.3%" height="120.0%" filterUnits="objectBoundingBox" id="filter-2">
            <feMorphology radius="2.5" operator="dilate" in="SourceAlpha" result="shadowSpreadOuter1"></feMorphology>
            <feOffset dx="0" dy="0" in="shadowSpreadOuter1" result="shadowOffsetOuter1"></feOffset>
            <feGaussianBlur stdDeviation="17.5" in="shadowOffsetOuter1" result="shadowBlurOuter1"></feGaussianBlur>
            <feColorMatrix values="0 0 0 0 0   0 0 0 0 0   0 0 0 0 0  0 0 0 0.5 0" type="matrix" in="shadowBlurOuter1"></feColorMatrix>
        </filter>
    </defs>
    <g id="CH-Schweizerische-Post-FR-heritage" stroke="none" stroke-width="1" fill="none" fill-rule="evenodd">
        <g transform="translate(40, 40)">
            <g id="Rectangle">
                <use fill="black" fill-opacity="1" filter="url(#filter-2)" xlink:href="#path-1"></use>
                <use fill="#FFCC00" fill-rule="evenodd" xlink:href="#path-1"></use>
            </g>
            <g id="Logo" transform="translate(50, 198)" fill-rule="nonzero">
                <polygon id="Path" fill="#FFFFFF" points="617.174607 201.901872 627.82626 151.589797 10.637034 151.589797 0 201.901872"></polygon>
                <polygon id="Path" fill="#000000" points="629.85424 63.4340071 566.397573 63.4340071 543.98304 168.356833 608.134225 168.356833 612.235514 149.319832 570.769354 149.319832 576.405885 123.23534 612.359793 123.23534 616.461083 104.337241 580.507175 104.337241 585.149458 82.4710082 625.767576 82.4710082"></polygon>
                <polygon id="Path" fill="#000000" points="557.232905 63.4340071 477.685438 63.4340071 473.459868 82.8950276 501.949573 82.8950276 483.629018 168.356833 506.314047 168.356833 524.649223 82.8950276 553.007337 82.8950276"></polygon>
                <g id="Group" transform="translate(23.1507, 0)">
                    <g transform="translate(0, 62.3067)" fill="#000000">
                        <path d="M342.562208,53.5872576 C338.892249,70.511473 331.976349,88.1448243 312.800445,88.1448243 C294.326366,88.1448243 291.789561,70.7965894 295.598424,53.5872576 C299.261072,36.6776633 306.169661,19.0370011 325.352877,19.0370011 C343.834266,19.0370011 346.371071,36.385236 342.562208,53.5872576 M327.326759,0 C290.941523,0 277.124345,24.6808434 271.3416,53.5872576 C265.412641,82.4936717 277.687267,107.181825 310.826563,107.181825 C347.211799,107.181825 361.028977,82.4936717 366.819032,53.5872576 C372.74068,24.6808434 360.466055,0 327.326759,0" id="Shape"></path>
                        <path d="M243.55445,38.0732716 C242.143489,46.8168402 236.221842,52.1828764 228.604117,54.0178566 C226.769137,54.4345652 223.384294,54.7196815 221.417722,54.7196815 L212.250134,54.7196815 L219.582743,20.4472306 L229.444845,20.4472306 C232.274076,20.4472306 234.386862,20.7323469 236.090249,21.2952694 C241.726781,23.130249 245.104313,28.6278774 243.55445,38.0732716 M240.169607,1.8342489 C237.486589,1.41022946 233.685037,1.12511308 229.876175,1.12511308 L201.247566,1.12511308 L178.679509,106.047939 L201.247566,106.047939 L208.156155,74.0344881 L221.271509,74.0344881 C228.180098,74.0344881 232.698096,73.3326632 237.06257,72.0606055 C253.292271,67.1332099 263.731917,53.5865263 266.122508,39.1991153 C269.646254,19.6065032 259.776841,5.07287829 240.169607,1.8342489" id="Shape"></path>
                        <path d="M93.7886661,65.0174998 L116.912336,23.1346354 L122.841294,65.0174998 L93.7886661,65.0174998 Z M133.843862,1.12949949 L106.757806,1.12949949 L57.2572168,87.0153248 L26.8009394,87.0153248 L45.2677077,1.12949949 L22.5680578,1.12949949 L5.56558708e-15,106.045016 L71.3668223,106.045016 L83.3490204,84.0545009 L125.655904,84.0545009 L128.762942,106.045016 L151.469902,106.045016 L133.843862,1.12949949 Z" id="Shape"></path>
                        <path d="M411.542826,21.0744866 C415.081193,20.6504678 418.341755,20.6504678 423.707791,20.6504678 L440.829395,20.6504678 L445.069587,1.13096204 L425.96679,1.13096204 C420.45454,1.13096204 413.238903,1.13096204 407.032139,1.84740811 C392.184155,3.54348523 378.315802,14.1512763 378.315802,32.6692196 C378.315802,45.3897964 385.53875,51.3333763 393.039504,56.5605094 L405.189848,65.0482046 C408.859807,67.5850097 411.272331,69.7051056 412.544388,71.5400852 C413.816446,73.3750653 414.240465,74.6544333 414.240465,76.4967237 C414.240465,78.7411015 413.626369,80.5760811 412.368932,82.118634 C409.115681,85.6423798 403.318315,86.6731851 398.135045,87.1556898 C384.968518,88.4131263 370.566485,83.2371675 370.566485,83.2371675 L370.40565,83.705051 L363.614032,102.924819 C371.8093,105.907574 383.828052,107.165011 394.435843,107.165011 C422.867064,107.04073 439.403813,94.5906476 439.403813,74.3693169 C439.403813,64.1928555 432.334389,57.4085483 425.118752,52.0352012 L411.827942,42.1438561 C406.315692,38.0352558 402.645733,35.213335 402.645733,30.5491231 C402.645733,25.5997954 405.760081,21.7836224 411.542826,21.0744866" id="Path"></path>
                    </g>
                    <path d="M713.136735,63.4054954 C713.136735,63.4054954 726.515273,0.343601828 726.588382,0 L641.375137,0 C641.316653,0.219320289 623.654057,82.6983706 623.58095,83.0346613 L644.672254,83.0346613 C644.730737,82.8080308 658.262799,19.6364766 658.262799,19.6364766 L701.300752,19.6364766 C701.300752,19.6364766 687.790623,82.6983706 687.717514,83.0346613 L751.649378,83.0346613 L743.147064,122.702391 L679.551486,122.702391 C679.507622,122.929022 666.860154,182.006598 666.860154,182.006598 L618.682797,182.006598 C618.638933,182.218607 614.559576,201.569967 614.50109,201.906258 L683.762436,201.906258 C683.820925,201.686938 696.541502,142.47046 696.541502,142.47046 L759.888508,142.47046 C759.925066,142.243829 776.77617,63.7417868 776.849279,63.4054954 L713.136735,63.4054954 Z" id="Path" fill="#FF0000"></path>
                </g>
            </g>
        </g>
    </g>
</svg>