<?xml version="1.0" encoding="UTF-8"?>
<svg width="980px" height="680px" viewBox="0 0 980 680" version="1.1" xmlns="http://www.w3.org/2000/svg" xmlns:xlink="http://www.w3.org/1999/xlink">
    <title>CH Schweizerische Post EN heritage</title>
    <defs>
        <rect id="path-1" x="0" y="0" width="900" height="600" rx="80"></rect>
        <filter x="-6.7%" y="-10.0%" width="113.3%" height="120.0%" filterUnits="objectBoundingBox" id="filter-2">
            <feMorphology radius="2.5" operator="dilate" in="SourceAlpha" result="shadowSpreadOuter1"></feMorphology>
            <feOffset dx="0" dy="0" in="shadowSpreadOuter1" result="shadowOffsetOuter1"></feOffset>
            <feGaussianBlur stdDeviation="17.5" in="shadowOffsetOuter1" result="shadowBlurOuter1"></feGaussianBlur>
            <feColorMatrix values="0 0 0 0 0   0 0 0 0 0   0 0 0 0 0  0 0 0 0.5 0" type="matrix" in="shadowBlurOuter1"></feColorMatrix>
        </filter>
    </defs>
    <g id="CH-Schweizerische-Post-EN-heritage" stroke="none" stroke-width="1" fill="none" fill-rule="evenodd">
        <g transform="translate(40, 40)">
            <g id="Rectangle">
                <use fill="black" fill-opacity="1" filter="url(#filter-2)" xlink:href="#path-1"></use>
                <use fill="#FFCC00" fill-rule="evenodd" xlink:href="#path-1"></use>
            </g>
            <g id="Logo" transform="translate(50, 217)" fill-rule="nonzero">
                <g id="Group">
                    <path d="M423.229953,77.9760154 C423.229953,79.1733021 423.048546,80.484616 422.753111,81.9825201 C421.379601,88.4924425 417.316082,93.5718404 411.87387,95.546586 C410.142728,96.2048345 407.032893,96.5624656 405.001134,96.5624656 L395.43839,96.5624656 L401.777271,66.9775638 L410.443346,66.9775638 C412.832736,66.9775638 414.626075,67.2159846 416.118796,67.6980091 C418.388976,68.4754679 423.229953,70.8648582 423.229953,77.9760154" id="Path" fill="#FFD300"></path>
                    <path d="M503.850883,95.0085844 C500.860258,108.515637 495.247005,123.935238 478.749328,123.935238 C473.431509,123.935238 469.367991,122.198913 466.615786,118.85584 C462.614465,113.895652 461.655599,105.348787 463.930962,94.707967 C466.9786,81.2631115 472.53484,65.7864968 489.027334,65.7864968 C494.40735,65.7864968 498.470868,67.5176386 501.223072,70.9229085 C505.224394,75.8260824 506.11588,84.372947 503.850883,95.0085844" id="Path" fill="#FFD300"></path>
                    <polygon id="Path" fill="#FEFEFE" points="650.302885 165.070587 659.082987 123.948195 8.7852853 123.948195 2.84217094e-14 165.070587"></polygon>
                    <path d="M747.905072,51.8305917 C747.905072,51.8305917 758.862059,0.279885195 758.91389,0 L689.243209,0 C689.206927,0.181407071 674.756558,67.5922747 674.694361,67.8721598 L691.948765,67.8721598 C691.979864,67.6959358 703.050878,16.0467512 703.050878,16.0467512 L738.249033,16.0467512 C738.249033,16.0467512 727.183202,67.6026408 727.126188,67.8721598 L779.386974,67.8721598 L772.436491,100.307744 L720.460774,100.307744 C720.424493,100.489151 710.089473,148.779714 710.089473,148.779714 L670.703406,148.779714 C670.656758,148.961121 667.334417,164.785 667.277404,165.059702 L723.902325,165.059702 C723.954156,164.878295 734.341006,116.468523 734.341006,116.468523 L786.130134,116.468523 C786.171598,116.287116 799.942986,52.1052938 800,51.8305917 L747.905072,51.8305917 Z" id="Path" fill="#FF0000"></path>
                    <g transform="translate(18.9938, 50.9505)" fill="#000000">
                        <polygon id="Path" points="641.102955 0.925694368 575.920803 0.925694368 572.453336 16.8739674 595.803018 16.8739674 580.772146 86.9178291 599.389695 86.9178291 614.405017 16.8739674 637.635488 16.8739674"></polygon>
                        <path d="M484.153704,43.9212434 C481.028319,57.7859267 475.482446,72.2362957 459.76741,72.2362957 C444.622511,72.2362957 442.652949,58.0243474 445.659123,43.9212434 C448.784508,30.0565601 454.330381,15.6061912 470.0506,15.6061912 C485.185132,15.6061912 487.159878,29.8233225 484.153704,43.9212434 M471.667714,0 C441.854758,0 430.514224,20.2242969 425.787274,43.9212434 C420.930748,67.6181899 430.9807,87.8424868 458.13993,87.8424868 C487.958069,87.8424868 499.298603,67.6181899 504.030736,43.9212434 C508.882079,20.2242969 498.832127,0 471.667714,0" id="Shape"></path>
                        <polygon id="Path" points="207.775885 0.925694368 189.168702 0.925694368 170.675547 86.9178291 189.293096 86.9178291"></polygon>
                        <path d="M403.011357,30.8599343 C401.855535,36.525018 398.393252,41.8376536 392.608958,43.9212434 C390.997026,44.496563 387.990852,44.849011 386.021289,44.849011 L377.350031,44.849011 L383.367563,16.7620134 L391.453135,16.7620134 C393.76478,16.7620134 395.506288,16.995251 396.895348,17.4565433 C401.513453,18.9544474 404.628472,23.2304712 403.011357,30.8599343 M400.238421,1.50308716 C398.045987,1.16100525 394.920602,0.927767592 391.8004,0.927767592 L368.336692,0.927767592 L349.838353,86.9147192 L368.336692,86.9147192 L374.001775,60.6832568 L384.756623,60.6832568 C390.416524,60.6832568 394.117228,60.1027541 397.698722,59.0661423 C410.988085,55.0181731 419.078841,44.1544811 421.504513,32.4770488 C424.977162,16.5287757 416.300721,4.15681346 400.238421,1.50308716" id="Shape"></path>
                        <polygon id="Path" points="180.964956 0.925694368 161.544033 0.925694368 136.58242 62.1894538 135.893073 0.925694368 113.694031 0.925694368 90.1214779 62.0702434 88.5043635 0.925694368 70.2340799 0.925694368 75.2046337 86.9178291 95.3252694 86.9178291 120.748175 24.7314851 123.059819 86.9178291 143.398143 86.9178291"></polygon>
                        <path d="M540.787436,17.2212324 C543.679583,16.8791505 546.33331,16.8791505 550.712995,16.8791505 L564.707254,16.8791505 L568.169538,0.925694368 L552.573713,0.925694368 C548.059268,0.925694368 542.181679,0.925694368 537.086732,1.506197 C524.95319,2.89525685 513.623023,11.5613318 513.623023,26.7010476 C513.623023,37.0982643 519.516161,41.9599738 525.642537,46.2308146 L535.578462,53.1657478 C538.589819,55.2545206 540.549016,56.9908454 541.595993,58.4887495 C542.627422,59.9866536 542.97987,61.0284485 542.97987,62.5315357 C542.97987,64.3663386 542.48748,65.8694258 541.461234,67.1237261 C538.791958,70.0210562 534.049459,70.8503456 529.8149,71.2598073 C519.070418,72.2756869 507.278959,68.0411276 507.278959,68.0411276 L507.154565,68.429857 L501.603509,84.1448924 C508.305204,86.5705641 518.132285,87.6175421 526.803543,87.6175421 C550.028831,87.4983317 563.551432,77.3291696 563.551432,60.8003939 C563.551432,52.4764009 557.772321,46.9253445 551.879183,42.5352934 L541.015491,34.4497211 C536.516596,31.0962818 533.510421,28.7794544 533.510421,24.9647228 C533.510421,20.9219367 536.039754,17.8069181 540.787436,17.2212324" id="Path"></path>
                        <path d="M300.954849,17.2212324 C303.841813,16.8791505 306.495539,16.8791505 310.890774,16.8791505 L324.885033,16.8791505 L328.347317,0.925694368 L312.735943,0.925694368 C308.237047,0.925694368 302.338726,0.925694368 297.254145,1.506197 C285.11542,2.89525685 273.790436,11.5613318 273.790436,26.7010476 C273.790436,37.0982643 279.683574,41.9599738 285.815133,46.2308146 L295.756241,53.1657478 C298.762415,55.2545206 300.721611,56.9908454 301.758223,58.4887495 C302.800018,59.9866536 303.152466,61.0284485 303.152466,62.5315357 C303.152466,64.3663386 302.660076,65.8694258 301.623464,67.1237261 C298.969737,70.0210562 294.227238,70.8503456 289.982313,71.2598073 C279.232648,72.2756869 267.456738,68.0411276 267.456738,68.0411276 L263.916708,84.6839306 L263.880427,84.8342393 C270.431814,86.7727034 279.175634,87.6175421 286.970955,87.6175421 C310.201427,87.4983317 323.724028,77.3291696 323.724028,60.8003939 C323.724028,52.4764009 317.939734,46.9253445 312.051779,42.5352934 L301.182904,34.4497211 C296.678825,31.0962818 293.672651,28.7794544 293.672651,24.9647228 C293.672651,20.9219367 296.217533,17.8069181 300.954849,17.2212324" id="Path"></path>
                        <path d="M239.820666,17.2160493 C242.70763,16.8636013 245.361356,16.8636013 249.761774,16.8636013 L263.745667,16.8636013 L267.207951,0.920511309 L251.60176,0.920511309 C247.097681,0.920511309 241.204543,0.920511309 236.119962,1.50101394 C223.981237,2.87970768 212.656253,11.5561487 212.656253,26.6958646 C212.656253,37.0930813 218.549391,41.9496077 224.68095,46.2256315 L234.622058,53.1605647 C237.628232,55.2441545 239.592612,56.9804793 240.62404,58.4835665 C241.665835,59.9814706 242.018283,61.0232655 242.018283,62.5263526 C242.018283,64.3611556 241.531076,65.8642427 240.494464,67.1237261 C237.830371,70.005507 233.093055,70.8451626 228.84813,71.2494412 C218.098465,72.2705039 206.322555,68.0359445 206.322555,68.0359445 L202.782525,84.6787475 L202.746244,84.8290562 C209.297631,86.7675204 218.041452,87.6071759 225.836773,87.6071759 C249.067244,87.4879656 262.589845,77.3188035 262.589845,60.7952109 C262.589845,52.4660348 256.805551,46.9149784 250.917596,42.5249273 L240.053904,34.439355 C235.539459,31.0807326 232.538468,28.7742713 232.538468,24.9595397 C232.538468,20.9167536 235.08335,17.801735 239.820666,17.2160493" id="Path"></path>
                        <path d="M37.0692392,17.2160493 C39.9562032,16.8636013 42.6151125,16.8636013 47.0103467,16.8636013 L60.9994234,16.8636013 L64.4565239,0.920511309 L48.8451496,0.920511309 C44.3514373,0.920511309 38.453116,0.920511309 33.3685349,1.50101394 C21.2246273,2.87970768 9.89964302,11.5561487 9.89964302,26.6958646 C9.89964302,37.0930813 15.7979644,41.9496077 21.9295234,46.2256315 L31.8706308,53.1605647 C34.8768052,55.2441545 36.8360015,56.9804793 37.8726134,58.4835665 C38.9092252,59.9814706 39.2616732,61.0232655 39.2616732,62.5263526 C39.2616732,64.3611556 38.7744657,65.8642427 37.7430369,67.1237261 C35.0789445,70.005507 30.3364453,70.8451626 26.0967029,71.2494412 C15.3418551,72.2705039 3.57112777,68.0359445 3.57112777,68.0359445 L0.0259152959,84.6787475 L0,84.8290562 C6.54620373,86.7675204 15.2848415,87.6071759 23.0801625,87.6071759 C46.3158168,87.4879656 59.8384181,77.3188035 59.8384181,60.7952109 C59.8384181,52.4660348 54.0541241,46.9149784 48.1609858,42.5249273 L37.2972938,34.439355 C32.7932154,31.0807326 29.7870411,28.7742713 29.7870411,24.9595397 C29.7870411,20.9167536 32.3267401,17.801735 37.0692392,17.2160493" id="Path"></path>
                    </g>
                </g>
            </g>
        </g>
    </g>
</svg>