<?xml version="1.0" encoding="UTF-8"?>
<svg width="980px" height="680px" viewBox="0 0 980 680" version="1.1" xmlns="http://www.w3.org/2000/svg" xmlns:xlink="http://www.w3.org/1999/xlink">
    <title>CH Schweizerische Post IT heritage</title>
    <defs>
        <rect id="path-1" x="0" y="0" width="900" height="600" rx="80"></rect>
        <filter x="-6.7%" y="-10.0%" width="113.3%" height="120.0%" filterUnits="objectBoundingBox" id="filter-2">
            <feMorphology radius="2.5" operator="dilate" in="SourceAlpha" result="shadowSpreadOuter1"></feMorphology>
            <feOffset dx="0" dy="0" in="shadowSpreadOuter1" result="shadowOffsetOuter1"></feOffset>
            <feGaussianBlur stdDeviation="17.5" in="shadowOffsetOuter1" result="shadowBlurOuter1"></feGaussianBlur>
            <feColorMatrix values="0 0 0 0 0   0 0 0 0 0   0 0 0 0 0  0 0 0 0.5 0" type="matrix" in="shadowBlurOuter1"></feColorMatrix>
        </filter>
    </defs>
    <g id="CH-Schweizerische-Post-IT-heritage" stroke="none" stroke-width="1" fill="none" fill-rule="evenodd">
        <g transform="translate(40, 40)">
            <g id="Rectangle">
                <use fill="black" fill-opacity="1" filter="url(#filter-2)" xlink:href="#path-1"></use>
                <use fill="#FFCC00" fill-rule="evenodd" xlink:href="#path-1"></use>
            </g>
            <g id="Logo" transform="translate(50, 198)" fill-rule="nonzero">
                <polygon id="Path" fill="#FEFEFE" points="620.065214 200.06186 630.672295 150.210463 10.6008015 150.210463 0 200.06186"></polygon>
                <g id="Group" transform="translate(21.1112, 0)">
                    <g transform="translate(-0, 61.7402)" fill="#000000">
                        <path d="M375.108841,31.735206 C375.108841,44.0441926 382.657515,50.0542439 389.785424,55.5116467 L401.673644,64.316341 C404.0538,66.1375685 406.283234,67.6636318 407.966299,69.6230214 C409.498643,71.2998065 410.754662,72.9828726 410.754662,75.6267924 C410.754662,79.4074101 408.939714,81.7938464 406.421396,83.4706316 C401.673644,86.5478784 394.263131,86.5478784 389.785424,86.5478784 C382.657515,86.5478784 371.604547,84.4440465 367.409444,82.7609811 L360.702302,101.78339 C368.816185,104.709914 381.815982,105.978493 391.185884,105.978493 C402.515177,105.978493 410.622779,104.43359 417.468084,101.494505 C429.770791,96.3259869 435.931564,86.6797603 435.931564,75.3630286 C435.931564,68.6496065 433.68957,64.1781789 430.606043,60.121237 C428.100285,56.9058281 424.037063,53.4078148 419.421194,49.9160818 L408.66339,41.8084788 C403.212267,37.7452573 399.155325,34.6680105 399.155325,29.9139786 C399.155325,25.4488306 402.232572,21.536331 407.966299,20.8329601 C411.458032,20.4184738 414.673441,20.4184738 419.986402,20.4184738 L437.043141,20.4184738 L441.238245,1.11974089 L422.222116,1.11974089 C416.770993,1.11974089 409.636805,1.11974089 403.494872,1.81683159 C388.812009,3.49361677 375.108841,13.9876566 375.108841,31.735206" id="Path"></path>
                        <polygon id="Path" points="529.449721 1.11974089 450.603123 1.11974089 446.408019 20.4184738 474.655888 20.4184738 456.475012 105.136961 478.989154 105.136961 497.15747 20.4184738 525.260897 20.4184738"></polygon>
                        <path d="M339.593645,53.1358872 C335.96375,69.9100217 329.112166,87.3812469 310.096037,87.3812469 C291.783279,87.3812469 289.258681,70.1863459 293.039298,53.1358872 C296.675473,36.3554718 303.533337,18.8842466 322.530626,18.8842466 C340.849664,18.8842466 343.374263,36.072868 339.593645,53.1358872 M324.496296,0 C288.429708,0 274.72654,24.4735314 268.992813,53.1358872 C263.114644,81.7919621 275.285468,106.252934 308.136647,106.252934 C344.196955,106.252934 357.906403,81.7919621 363.64641,53.1358872 C369.5183,24.4735314 357.341195,0 324.496296,0" id="Shape"></path>
                        <path d="M241.454595,37.7483974 C240.054133,46.4212092 234.182244,51.7341698 226.62729,53.549117 C224.818622,53.9698835 221.452491,54.2524879 219.499381,54.2524879 L210.412083,54.2524879 L217.678154,20.2771722 L227.462542,20.2771722 C230.269745,20.2771722 232.367297,20.559776 234.037802,21.1124244 C239.633367,22.9273723 242.986938,28.3847752 241.454595,37.7483974 M238.094744,1.81997169 C235.444544,1.39920519 231.657646,1.11660079 227.895869,1.11660079 L199.503558,1.11660079 L177.133858,105.133821 L199.503558,105.133821 L206.361422,73.400499 L219.354939,73.400499 C226.212803,73.400499 230.690511,72.6908478 235.023777,71.4411087 C251.094541,66.5489147 261.444138,53.1346307 263.824294,38.866254 C267.316027,19.4356392 257.525359,5.03538058 238.094744,1.81997169" id="Shape"></path>
                        <path d="M92.9768118,64.4538746 L115.90544,22.9298845 L121.777329,64.4538746 L92.9768118,64.4538746 Z M132.685855,1.119113 L105.838447,1.119113 L56.765782,86.2646461 L26.5648034,86.2646461 L44.8775615,1.119113 L22.3696997,1.119113 L2.84217094e-14,105.136333 L70.7515547,105.136333 L82.6272149,83.3255614 L124.571971,83.3255614 L127.649218,105.136333 L150.15708,105.136333 L132.685855,1.119113 Z" id="Shape"></path>
                        <path d="M542.181986,64.4538746 L565.098053,22.9298845 L570.988783,64.4538746 L542.181986,64.4538746 Z M581.891029,1.119113 L555.043621,1.119113 L495.206872,105.136333 L519.950448,105.136333 L531.832388,83.3255614 L573.764585,83.3255614 L576.854392,105.136333 L599.355974,105.136333 L581.891029,1.119113 Z" id="Shape"></path>
                    </g>
                    <path d="M715.748749,62.8260738 C715.748749,62.8260738 729.012311,0.3391251 729.087671,0 L644.639228,0 C644.595269,0.2260834 627.080083,81.9364042 627.011002,82.2818095 L647.90488,82.2818095 C647.961397,82.0620059 661.381964,19.4557354 661.381964,19.4557354 L704.030093,19.4557354 C704.030093,19.4557354 690.62837,81.9364042 690.546724,82.2818095 L753.900332,82.2818095 L745.478723,121.582646 L682.476806,121.582646 C682.420283,121.80245 669.904055,180.332938 669.904055,180.332938 L622.156486,180.332938 C622.118806,180.552742 618.074425,199.732153 618.011623,200.058718 L686.659349,200.058718 C686.703308,199.851475 699.30746,141.170264 699.30746,141.170264 L762.070732,141.170264 C762.114691,140.944181 778.813468,63.1651995 778.888828,62.8260738 L715.748749,62.8260738 Z" id="Path" fill="#FF0000"></path>
                </g>
            </g>
        </g>
    </g>
</svg>