<?xml version="1.0" encoding="UTF-8"?>
<svg width="980px" height="680px" viewBox="0 0 980 680" version="1.1" xmlns="http://www.w3.org/2000/svg" xmlns:xlink="http://www.w3.org/1999/xlink">
    <title>CL Correos Chile text</title>
    <defs>
        <linearGradient x1="50%" y1="0%" x2="50%" y2="100%" id="linearGradient-1">
            <stop stop-color="#FFFFFF" offset="0%"></stop>
            <stop stop-color="#EDEDED" offset="100%"></stop>
        </linearGradient>
        <rect id="path-2" x="0" y="0" width="900" height="600" rx="80"></rect>
        <filter x="-6.7%" y="-10.0%" width="113.3%" height="120.0%" filterUnits="objectBoundingBox" id="filter-3">
            <feMorphology radius="2.5" operator="dilate" in="SourceAlpha" result="shadowSpreadOuter1"></feMorphology>
            <feOffset dx="0" dy="0" in="shadowSpreadOuter1" result="shadowOffsetOuter1"></feOffset>
            <feGaussianBlur stdDeviation="17.5" in="shadowOffsetOuter1" result="shadowBlurOuter1"></feGaussianBlur>
            <feColorMatrix values="0 0 0 0 0   0 0 0 0 0   0 0 0 0 0  0 0 0 0.5 0" type="matrix" in="shadowBlurOuter1"></feColorMatrix>
        </filter>
    </defs>
    <g id="CL-Correos-Chile-text" stroke="none" stroke-width="1" fill="none" fill-rule="evenodd">
        <g transform="translate(40, 40)">
            <g id="Rectangle">
                <use fill="black" fill-opacity="1" filter="url(#filter-3)" xlink:href="#path-2"></use>
                <use fill="url(#linearGradient-1)" fill-rule="evenodd" xlink:href="#path-2"></use>
            </g>
            <g id="Logo" transform="translate(50, 199)" fill-rule="nonzero">
                <g id="g10952" transform="translate(491.1423, 110.0659) scale(-1, 1) rotate(-180) translate(-491.1423, -110.0659)translate(182.2846, 67.1115)" fill="#EE2722">
                    <path d="M59.3143996,0.512399502 L29.2440918,0.512399502 C14.5275619,0.512399502 7.94179775,2.49437118 3.43164172,9.04112015 C-1.4868733,16.178299 -1.09151937,27.9608865 4.44603668,42.9063055 C11.4401598,61.8156679 23.4594395,75.8871466 37.7259942,81.4845259 C43.5210505,83.7864222 52.5829787,85.2924085 60.9556386,85.2924085 L90.6852138,85.2924085 L84.7445008,69.1999429 L57.6003322,69.1999429 C49.2796926,69.1999429 42.5742819,66.9838801 37.3254382,62.5699616 C33.379702,59.2900845 29.4417687,52.7667447 26.2399221,44.1365845 C21.6725438,31.7791732 21.3578213,23.5131548 24.8067641,20.1786565 C27.0254279,17.8611542 31.4523516,16.59186 38.3424342,16.59186 L65.2681177,16.59186 L59.3143996,0.512399502 Z M167.376073,72.6358807 C170.237187,65.7900153 169.110949,54.4574029 164.452535,41.8789055 C154.285176,14.3575901 134.897228,7.10542736e-15 107.758261,7.10542736e-15 C91.332866,7.10542736e-15 79.9976526,5.29306085 76.7099726,15.0598635 C74.2182024,22.1580272 75.2117893,31.4592486 79.4150258,42.7814569 C85.3141226,58.7854881 94.3578437,71.0752731 105.362728,77.6766433 C114.07352,83.0113204 125.739062,85.9088485 138.213519,85.9088485 C152.992473,85.9088485 163.979151,81.1359902 167.376073,72.6358807 M111.756018,62.3462745 C107.636014,58.2990987 103.947778,51.7601528 100.647092,42.8828964 C93.4318832,23.3935082 97.1799425,15.2133233 111.81324,15.2133233 C126.662422,15.2133233 136.574881,23.8304784 143.8161,43.3978969 C150.919466,62.6219818 147.12979,70.5680756 132.475685,70.5680756 C124.555601,70.5680756 117.101099,67.6211282 111.756018,62.3462745 M434.130734,69.1999429 L410.066164,69.1999429 C397.846607,69.1999429 392.915087,67.8292092 387.616824,63.2046087 C384.024825,60.0209691 382.810152,58.2418764 379.408028,50.6833335 L427.284869,50.6833335 L421.338954,34.5960699 L373.433502,34.5960699 C369.773877,21.1280262 374.000522,16.59186 390.938317,16.59186 L414.675159,16.59186 L408.711037,0.512399502 L384.638664,0.512399502 C366.514808,0.512399502 358.358032,2.866316 353.990932,10.1907678 C349.303907,17.822139 349.720069,29.698363 354.893483,43.6579982 C360.40763,58.5539979 369.844104,70.448429 382.339369,78.423134 C390.314074,83.5081138 396.959661,85.2924085 408.56538,85.2924085 L440.084452,85.2924085 L434.130734,69.1999429 Z M520.744457,72.6358807 C523.613374,65.7900153 522.484534,54.4574029 517.82352,41.8789055 C507.643156,14.3575901 488.273414,0 461.129246,0 C444.70125,0 433.381642,5.29306085 430.070553,15.0598635 C427.57098,22.1580272 428.587976,31.4592486 432.775606,42.7814569 C438.698112,58.780286 447.73403,71.0752731 458.736314,77.6766433 C467.444505,83.0113204 479.120451,85.9088485 491.60011,85.9088485 C506.36866,85.9088485 517.355337,81.1359902 520.744457,72.6358807 M465.129603,62.3462745 C461.0122,58.2990987 457.31356,51.7601528 454.02588,42.8828964 C446.815873,23.3935082 450.53272,15.2133233 465.176422,15.2133233 C480.036007,15.2133233 489.945866,23.8304784 497.189686,43.3978969 C504.293052,62.6219818 500.500775,70.5680756 485.84667,70.5680756 C477.939591,70.5680756 470.461679,67.6211282 465.129603,62.3462745 M519.821097,16.59186 L559.106793,16.59186 C565.861623,16.59186 569.67991,17.2239061 572.226301,18.5322155 C575.394335,20.1058282 577.84709,22.7484571 578.991535,25.8618693 C580.383077,29.5917215 579.540349,32.6349064 577.022569,34.0628623 C575.779285,34.9446056 572.81413,35.4726112 568.696727,35.4726112 L552.968403,35.4726112 C542.743822,35.4726112 536.475382,37.2308958 533.200707,41.2156473 C529.541082,45.8220408 529.148329,52.8213659 531.832574,60.0703883 C535.87975,71.0050457 545.30582,80.4389188 555.564214,83.5081138 C560.014547,84.9230647 564.711976,85.2924085 574.679056,85.2924085 L617.715412,85.2924085 L611.764295,69.1999429 L573.261504,69.1999429 C569.222132,69.1349176 567.037281,69.1037055 565.531295,69.01267 C564.017505,68.9216346 563.151368,68.7681748 561.723412,68.4612553 C558.061186,67.6367343 554.820324,64.5519332 553.244111,60.3044795 C551.901988,56.6708647 552.640676,54.0438419 554.820324,52.8785882 C556.810099,51.8199761 558.607399,51.5676778 564.758794,51.5676778 L578.450525,51.5676778 C590.961396,51.5676778 597.36769,49.6975497 600.68138,44.3940848 C603.27459,40.4015303 603.019691,32.77276 600.358855,25.5835609 C596.967134,16.4175922 589.593263,8.04233127 581.303836,3.96394336 C575.982164,1.2484861 570.205314,0.512399502 557.546186,0.512399502 L513.882985,0.512399502 L519.821097,16.59186 Z" id="path10954"></path>
                </g>
                <g id="g10956" transform="translate(606.0632, 179.9249) scale(-1, 1) rotate(-180) translate(-606.0632, -179.9249)translate(581.952, 156.9216)" fill="#18468B">
                    <path d="M33.4460432,5.86788466 L19.5982516,5.86788466 C13.2309725,5.86788466 10.7782175,6.63258239 9.2748322,9.17637281 C7.60758306,12.076502 7.800058,16.7583248 9.90427727,22.4909568 C12.0293046,28.2886141 15.369005,33.5296547 18.7659275,36.4948092 C22.0223954,39.2440796 25.003156,40.141429 31.5785161,40.141429 L46.0557528,40.141429 L48.2223964,46.0067127 L33.3185936,46.0067127 C26.6105819,46.0067127 21.8351225,45.04954 17.8815832,42.8360782 C11.4362738,39.1790543 5.2614696,31.3187939 2.0882341,22.7016389 C-0.530985688,15.5956722 -0.684445438,9.10354446 1.6174508,5.24624262 C3.91154401,1.45136509 8.07576534,-1.15508168e-15 16.802163,-1.15508168e-15 L31.2846017,-1.15508168e-15 L33.4460432,5.86788466 Z" id="path10958"></path>
                </g>
                <g id="g10960" transform="translate(647.5671, 179.9234) scale(-1, 1) rotate(-180) translate(-647.5671, -179.9234)translate(619.311, 156.9226)" fill="#18468B">
                    <polygon id="path10962" points="56.512203 46.0015106 49.0264884 46.0015106 41.7384508 26.207804 17.1328707 26.207804 24.4027012 46.0015106 16.9221886 46.0015106 0 0 7.48571456 0 14.9610251 20.3477224 39.5718072 20.3477224 32.0938957 0 39.5718072 0"></polygon>
                </g>
                <g id="g10964" transform="translate(681.1452, 179.9247) scale(-1, 1) rotate(-180) translate(-681.1452, -179.9247)translate(668.9373, 156.9214)" fill="#18468B">
                    <polygon id="path10966" points="0 0 7.49351759 0 24.4157062 46.0067127 16.9429967 46.0067127"></polygon>
                </g>
                <g id="g10968" transform="translate(704.0543, 179.9234) scale(-1, 1) rotate(-180) translate(-704.0543, -179.9234)translate(690.3386, 156.9226)" fill="#18468B">
                    <path d="M12.4677903,46.0015106 L2.29783066,18.3449426 C-0.310985075,11.3144053 -0.659520777,7.65738139 1.05454659,4.6896259 C3.01310916,1.3109104 6.59210264,0 13.7995088,0 L25.2699748,0 L27.4314164,5.86268263 L17.4123155,5.86268263 C12.5302146,5.86268263 9.66389864,6.83286037 8.48563988,8.96569078 C7.61690164,10.7629906 8.00445253,13.517463 10.1060708,19.244893 L19.9535049,46.0015106 L12.4677903,46.0015106 Z" id="path10970"></path>
                </g>
                <g id="g10972" transform="translate(743.6001, 179.9234) scale(-1, 1) rotate(-180) translate(-743.6001, -179.9234)translate(720.0188, 156.9226)" fill="#18468B">
                    <path d="M47.1626538,46.0015106 L34.0093326,46.0015106 C27.0100074,46.0015106 22.1331086,44.9038833 17.927271,42.4147141 C10.9227438,38.2114776 5.71551638,31.4540466 2.26657354,22.0799968 C-0.264211817,15.2471365 -0.646560684,10.5549095 0.973870229,6.41149631 C2.82058925,1.7192694 6.66488602,0 14.9126973,0 L30.2352631,0 L32.3889016,5.86268263 L18.4006553,5.86268263 C12.1738309,5.86268263 9.55981316,7.31664873 8.69887795,11.2415769 C8.20208453,13.8685997 8.53501415,16.6880975 9.76269215,20.2150707 L37.6611544,20.2150707 L39.8147929,26.0777533 L11.99176,26.0777533 C13.7734537,30.3486162 14.9959297,32.3435929 17.2536087,34.6897064 C21.1317187,38.7680943 24.6482878,40.136227 31.43433,40.136227 L45.0012122,40.136227 L47.1626538,46.0015106 Z" id="path10974"></path>
                </g>
                <g id="g10976" transform="translate(485.4541, 110.1184) scale(-1, 1) rotate(-180) translate(-485.4541, -110.1184)translate(434.4222, 67.7297)" fill="#EE2722">
                    <path d="M97.6342138,79.7314434 C93.6208512,83.4196794 86.3562227,84.777408 73.4656038,84.777408 L31.3708142,84.777408 L0,0 L19.4191608,0 L31.1523291,31.7037438 L31.2901828,31.7037438 L37.1736735,47.7988104 L37.1060472,47.7988104 L44.841459,68.6927455 L69.8736052,68.6927455 C72.8699719,68.6927455 74.9871962,68.4456492 76.183662,68.1075176 C79.1904327,66.9110518 80.2594489,63.8366547 78.4517451,58.9441498 C75.5178028,51.0292682 70.7917627,47.7988104 61.7064253,47.7988104 L48.5557051,47.7988104 L42.1286027,31.7037438 L45.3148433,31.7037438 C61.0457681,31.7037438 64.4036755,27.432881 60.5463737,12.6487248 C60.0781914,10.9970817 59.1496298,7.49091658 58.5826091,5.22283351 C58.1118258,3.30588714 57.9635681,2.5177803 57.9115478,0.593030896 L57.8933407,0 L79.4427309,0 L79.4427309,0.57742482 C79.4427309,3.61540766 79.8146758,5.27745477 82.0411426,13.0700888 C85.9946819,25.3702779 84.4964986,33.18372 76.4437633,36.4089758 C88.0806941,40.4327424 95.8551211,48.3164119 100.422499,60.6712223 C103.299219,68.4456492 102.409673,75.4943937 97.6342138,79.7314434" id="path10978"></path>
                </g>
                <g id="g10980" transform="translate(394.0651, 110.1184) scale(-1, 1) rotate(-180) translate(-394.0651, -110.1184)translate(343.0286, 67.7297)" fill="#EE2722">
                    <path d="M97.6394158,79.7314434 C93.6260532,83.4196794 86.3588237,84.777408 73.4734068,84.777408 L31.3760162,84.777408 L0,0 L19.4295649,0 L31.1653342,31.7037438 L31.321395,31.7037438 L37.2178907,47.7988104 L37.1112492,47.7988104 L44.851863,68.6927455 L69.8658022,68.6927455 C72.8855779,68.6927455 74.9923982,68.4456492 76.1888641,68.1075176 C79.2060388,66.9110518 80.2542469,63.8366547 78.4569471,58.9441498 C75.5308078,51.0292682 70.7943637,47.7988104 61.7116274,47.7988104 L48.5843163,47.7988104 L42.1468098,31.7037438 L45.3278484,31.7037438 C61.0457681,31.7037438 64.4114785,27.432881 60.5515757,12.6487248 C60.0781914,10.9970817 59.1626349,7.49091658 58.5852101,5.22283351 C58.1248308,3.30588714 57.9791741,2.5177803 57.9167498,0.593030896 L57.9011438,0 L79.4349279,0 L79.4349279,0.57742482 C79.445332,3.61540766 79.8120748,5.27745477 82.0515467,13.0700888 C85.9946819,25.3702779 84.4938976,33.18372 76.4463643,36.4089758 C88.0963002,40.4327424 95.8681262,48.3164119 100.432903,60.6712223 C103.312225,68.4456492 102.412274,75.4943937 97.6394158,79.7314434" id="path10982"></path>
                </g>
                <g id="g10984" transform="translate(236.1798, 35.9733) scale(-1, 1) rotate(-180) translate(-236.1798, -35.9733)translate(189.3771, 6.3846)" fill="#EE2722">
                    <path d="M67.987871,59.17564 C67.987871,59.17564 30.4032375,33.7247307 0,0 C44.3992868,45.4995152 93.6052451,51.6691173 93.6052451,51.6691173 C81.3154601,56.1870764 67.6497394,59.2640744 67.987871,59.17564" id="path10986"></path>
                </g>
                <g id="g10988" transform="translate(76.8196, 96.1877) scale(-1, 1) rotate(-180) translate(-76.8196, -96.1877)translate(0, 68.3205)" fill="#EE2722">
                    <path d="M46.904062,55.7345002 C18.4541851,37.5534214 0,22.5923963 0,22.5923963 C123.714568,51.4558343 153.639219,0 153.639219,0 C153.639219,0 131.70748,44.7764337 46.904062,55.7345002" id="path10990"></path>
                </g>
                <g id="g10992" transform="translate(152.1345, 63.9291) scale(-1, 1) rotate(-180) translate(-152.1345, -63.9291)translate(46.9041, 3.8046)" fill="#18468B">
                    <path d="M210.460943,117.667214 C202.481036,119.685599 182.315384,120.876863 168.4858,119.904085 C108.758745,117.893502 42.7840579,83.0581386 0,55.7318992 C84.8008171,44.7764337 106.735157,0 106.735157,0 C122.000501,57.7840982 210.460943,117.667214 210.460943,117.667214" id="path10994"></path>
                </g>
                <g id="g10996" transform="translate(129.9849, 34.16) scale(-1, 1) rotate(-180) translate(-129.9849, -34.16)translate(3.6641, 0)" fill="#F46F1B">
                    <path d="M252.597349,62.1772086 L252.641566,62.1772086 C120.89507,92.2059003 0,2.37992662 0,2.37992662 C15.980622,2.55419447 30.3356111,1.66985015 43.2392352,0 C86.0232931,27.3262394 151.995379,62.1590015 211.727636,64.1721854 C224.969392,65.1033479 244.016608,64.0499378 252.597349,62.1772086" id="path10998"></path>
                </g>
            </g>
        </g>
    </g>
</svg>