<?xml version="1.0" encoding="UTF-8"?>
<svg width="980px" height="680px" viewBox="0 0 980 680" version="1.1" xmlns="http://www.w3.org/2000/svg" xmlns:xlink="http://www.w3.org/1999/xlink">
    <title>CN China Post text</title>
    <defs>
        <rect id="path-1" x="0" y="0" width="900" height="600" rx="80"></rect>
        <filter x="-6.7%" y="-10.0%" width="113.3%" height="120.0%" filterUnits="objectBoundingBox" id="filter-2">
            <feMorphology radius="2.5" operator="dilate" in="SourceAlpha" result="shadowSpreadOuter1"></feMorphology>
            <feOffset dx="0" dy="0" in="shadowSpreadOuter1" result="shadowOffsetOuter1"></feOffset>
            <feGaussianBlur stdDeviation="17.5" in="shadowOffsetOuter1" result="shadowBlurOuter1"></feGaussianBlur>
            <feColorMatrix values="0 0 0 0 0   0 0 0 0 0   0 0 0 0 0  0 0 0 0.5 0" type="matrix" in="shadowBlurOuter1"></feColorMatrix>
        </filter>
    </defs>
    <g id="CN-China-Post-text" stroke="none" stroke-width="1" fill="none" fill-rule="evenodd">
        <g transform="translate(40, 40)">
            <g id="Rectangle">
                <use fill="black" fill-opacity="1" filter="url(#filter-2)" xlink:href="#path-1"></use>
                <use fill="#007852" fill-rule="evenodd" xlink:href="#path-1"></use>
            </g>
            <g id="g794" transform="translate(50, 184)" fill="#FFD42A">
                <g id="g796" transform="translate(296.1685, 140.7552)">
                    <path d="M52.6141356,44.810768 L61.8880059,47.0471262 C59.9487339,54.2831934 56.4449069,59.8113875 51.4078756,63.6317085 C46.3559154,67.4371006 40.1947334,69.3300928 32.8914859,69.3300928 C25.3448963,69.3300928 19.216558,67.8700404 14.4900491,64.9514286 C9.76354019,62.016395 6.16118202,57.7765702 3.70088932,52.2334471 C1.24059662,46.6739022 0,40.7112754 0,34.3455666 C0,27.4036 1.38540754,21.3484136 4.17264447,16.1770216 C6.9598814,11.0056297 10.9205346,7.07782019 16.071026,4.3906073 C21.2050956,1.70488729 26.8601858,0.368745325 33.0377897,0.368745325 C40.0469367,0.368745325 45.93044,2.06168945 50.7062145,5.46250666 C55.481989,8.86332387 58.8066685,13.630141 60.6817459,19.7958017 L51.5706013,21.845548 C49.9403588,16.9846784 47.5935262,13.4599508 44.4972598,11.2400144 C41.4159223,9.01858506 37.5373784,7.91682778 32.8437132,7.91682778 C27.4648087,7.91682778 22.9831348,9.14398833 19.3643547,11.5968165 C15.7455747,14.0660666 13.2031727,17.3579024 11.7535706,21.5036748 C10.2860538,25.6345181 9.55304185,29.9042009 9.55304185,34.2992868 C9.55304185,39.9827421 10.4174287,44.9212423 12.1447094,49.1595742 C13.888412,53.3829771 16.5786107,56.5509025 20.2451634,58.6469286 C23.913209,60.7429547 27.8723693,61.7835032 32.1435449,61.7835032 C37.3253871,61.7835032 41.7100229,60.3548017 45.312381,57.5123276 C48.9147392,54.6549245 51.3436811,50.4150997 52.6141356,44.810768 Z" id="path798"></path>
                    <polygon id="polygon800" points="75.3837863 69.3300928 66.7309607 69.3300928 66.7309607 2.63496154 75.3837863 2.63496154 75.3837863 30.0266183 109.326271 30.0266183 109.326271 2.63496154 117.980589 2.63496154 117.980589 69.3300928 109.326271 69.3300928 109.326271 37.9001521 75.3837863 37.9001521"></polygon>
                    <polygon id="polygon802" points="137.700253 69.3300928 130.135749 69.3300928 130.135749 2.63496154 137.700253 2.63496154"></polygon>
                    <polygon id="polygon804" points="159.208407 69.3300928 150.331647 69.3300928 150.331647 2.63496154 159.826466 2.63496154 196.568131 54.9967977 196.568131 2.63496154 205.443398 2.63496154 205.443398 69.3300928 195.948579 69.3300928 159.208407 16.9204839"></polygon>
                    <path d="M214.454518,69.3300928 L240.151738,2.63496154 L249.683879,2.63496154 L277.063593,69.3300928 L266.971616,69.3300928 L259.168248,49.1282233 L231.197347,49.1282233 L223.862749,69.3300928 L214.456011,69.3300928 L214.454518,69.3300928 Z M233.7502,41.938436 L256.440727,41.938436 L249.448002,23.4757905 C247.329582,17.8699658 245.741141,13.2584099 244.714028,9.63962982 C243.857106,13.9257344 242.65831,18.1640663 241.10122,22.3889621 L233.7502,41.9399288 L233.7502,41.938436 Z" id="path806"></path>
                    <path d="M300.860356,69.1927463 L300.860356,2.4976151 L322.43569,2.4976151 C326.232124,2.4976151 329.134314,2.71408503 331.133302,3.13358882 C333.942933,3.67700298 336.301708,4.71755153 338.205151,6.25523447 C340.09665,7.77649555 341.628361,9.93522324 342.786849,12.6836449 C343.945336,15.4469955 344.518608,18.4760816 344.518608,21.7828463 C344.518608,27.4513726 342.973461,32.2644695 339.884659,36.1937719 C336.780928,40.1066525 331.187046,42.0787682 323.103014,42.0787682 L308.426353,42.0787682 L308.426353,69.1912534 L300.861849,69.1912534 L300.860356,69.1927463 Z M308.42486,34.2067273 L323.220953,34.2067273 C328.108695,34.2067273 331.58565,33.1512498 333.635396,31.0238729 C335.686635,28.896496 336.712255,25.9151826 336.712255,22.0635108 C336.712255,19.2688094 336.113603,16.8771899 334.901372,14.8901452 C333.68914,12.9016077 332.105178,11.5983094 330.119626,10.9608428 C328.840214,10.5726899 326.496367,10.3711489 323.061213,10.3711489 L308.42486,10.3711489 L308.42486,34.2067273 Z" id="path808"></path>
                    <path d="M344.426049,35.7100736 C344.426049,24.6387565 347.583524,15.9724949 353.913403,9.71576752 C360.243282,3.45754726 368.407931,0.320972652 378.42377,0.320972652 C384.968627,0.320972652 390.884974,1.79595395 396.141461,4.7309876 C401.397948,7.6809502 405.413838,11.7804428 408.174203,17.0443942 C410.934568,22.2934168 412.306539,28.2724655 412.306539,34.9337677 C412.306539,41.7040513 410.86888,47.7607306 407.959226,53.0873837 C405.049572,58.4289658 400.93515,62.4657567 395.612976,65.2156712 C390.274379,67.9640929 384.538673,69.3300928 378.374505,69.3300928 C371.680359,69.3300928 365.714746,67.8237606 360.458259,64.7797456 C355.185351,61.7521524 351.202304,57.6048871 348.492697,52.3573575 C345.781598,47.1247568 344.426049,41.5652119 344.426049,35.7115665 L344.426049,35.7100736 Z M354.110465,35.8504058 C354.110465,43.8941298 356.408032,50.2135588 361.003166,54.8415365 C365.614722,59.4695143 371.38178,61.7835032 378.323746,61.7835032 C385.397088,61.7835032 391.214904,59.4545854 395.777194,54.7803278 C400.339485,50.1060703 402.635559,43.4761189 402.635559,34.8874879 C402.635559,29.4682752 401.644276,24.731316 399.694553,20.6795961 C397.743338,16.6263834 394.884442,13.4898087 391.132795,11.2534505 C387.364725,9.03351402 383.150279,7.91533488 378.473036,7.91533488 C371.811734,7.91533488 366.093942,10.0576407 361.301746,14.3601671 C356.508056,18.6462717 354.111958,25.8196373 354.111958,35.8518987 L354.110465,35.8504058 Z" id="path810"></path>
                    <path d="M413.199291,46.7664618 L420.33832,46.0364356 C420.671236,49.3745512 421.457992,52.1080439 422.695603,54.2503497 C423.934707,56.3926555 425.851585,58.1169505 428.449224,59.4366706 C431.046864,60.7563907 433.975926,61.4087863 437.22596,61.4087863 C440.116207,61.4087863 442.660102,60.9116519 444.871081,59.9173831 C447.08206,58.9081854 448.733203,57.5421855 449.812567,55.8029616 C450.891931,54.0488087 451.436838,52.1543237 451.436838,50.0881555 C451.436838,47.9921295 450.91731,46.175275 449.864818,44.6062412 C448.825763,43.0387003 447.107439,41.7339092 444.723284,40.6769388 C443.178137,39.9782634 439.795234,38.8914351 434.534269,37.4164538 C429.286739,35.9414725 425.597793,34.5590508 423.492809,33.2542596 C418.257223,30.0684194 415.381905,24.9074778 415.381905,18.7358455 C415.381905,15.381308 416.194041,12.2298045 417.831748,9.30969979 C419.469455,6.37466615 421.867046,4.15472972 425.011085,2.63197574 C428.167067,1.12564362 431.657458,0.364266637 435.506144,0.364266637 C439.754926,0.364266637 443.484181,1.15550155 446.734215,2.75588612 C449.970814,4.33984883 452.460965,6.68518853 454.20616,9.77399047 C455.937919,12.8642853 456.882923,16.3740839 457.01579,20.2869645 L449.75733,20.9229382 C449.357234,16.7144642 448.039006,13.5166809 445.787719,11.3728821 C443.536432,9.21415445 440.22071,8.14225508 435.825624,8.14225508 C431.243926,8.14225508 427.914768,9.12010199 425.809784,11.0772887 C423.718237,13.0344754 422.667238,15.3947441 422.667238,18.1431657 C422.667238,20.5497142 423.413686,22.5218299 424.891653,24.0595128 C426.356184,25.6121247 430.152619,27.1960874 436.304843,28.8114009 C442.458561,30.4416434 446.680471,31.855416 448.970574,33.0661547 C452.299732,34.8680802 454.764503,37.1342965 456.348466,39.8677891 C457.933921,42.6162108 458.719185,45.7841362 458.719185,49.3551435 C458.719185,52.911222 457.853305,56.2493375 456.109602,59.387405 C454.364407,62.5239796 451.86082,64.9618789 448.59735,66.7160318 C445.333879,68.4552557 441.658369,69.3256141 437.582762,69.3256141 C432.402413,69.3256141 428.059578,68.4567486 424.57068,66.6861738 C421.068346,64.932021 418.324403,62.2910879 416.326908,58.7514313 C414.34285,55.2267037 413.290358,51.2197707 413.197798,46.763476 L413.199291,46.7664618 Z" id="path812"></path>
                    <polygon id="polygon814" points="456.137967 0 503.830025 0 503.830025 8.18405617 483.920763 8.18405617 483.920763 69.3300928 475.962134 69.3300928 475.962134 8.18405617 456.137967 8.18405617"></polygon>
                </g>
                <rect id="rect816" x="295.45337" y="38.8582182" width="99.7523285" height="10.3830921"></rect>
                <rect id="rect818" x="295.45337" y="84.7961227" width="99.7523285" height="10.3830921"></rect>
                <polygon id="rect820" transform="translate(344.5473, 69.3626) rotate(-90) translate(-344.5473, -69.3626)" points="289.626597 61.2322513 399.467917 61.2322513 399.467917 77.4928752 289.626597 77.4928752"></polygon>
                <polygon id="rect822" transform="translate(303.5837, 69.7574) rotate(-90) translate(-303.5837, -69.7574)" points="272.682973 61.6271223 334.484391 61.6271223 334.484391 77.8877462 272.682973 77.8877462"></polygon>
                <rect id="rect824" transform="translate(387.0754, 69.7574) rotate(-90) translate(-387.0754, -69.7574)" x="356.174678" y="61.6271223" width="61.801418" height="16.2606238"></rect>
                <rect id="rect826" x="428.044933" y="21.5510742" width="97.5577713" height="10.3830921"></rect>
                <rect id="rect828" x="428.044933" y="108.082315" width="97.5577713" height="9.43659596"></rect>
                <polygon id="rect830" transform="translate(436.1752, 73.062) rotate(-90) translate(-436.1752, -73.062)" points="384.66436 64.9316478 487.686131 64.9316478 487.686131 81.1922716 384.66436 81.1922716"></polygon>
                <polygon id="rect832" transform="translate(517.4724, 73.062) rotate(-90) translate(-517.4724, -73.062)" points="465.961507 64.9316478 568.983278 64.9316478 568.983278 81.1922716 465.961507 81.1922716"></polygon>
                <rect id="rect834" x="448.996236" y="38.6999712" width="55.6551649" height="10.3830921"></rect>
                <rect id="rect836" x="448.996236" y="61.6696699" width="55.6551649" height="11.8550876"></rect>
                <rect id="rect838" x="448.996236" y="89.358413" width="55.6551649" height="10.3830921"></rect>
                <rect id="rect840" x="487.813027" y="77.5585626" width="16.8368817" height="8.65282553"></rect>
                <polygon id="rect842" transform="translate(476.5111, 69.2207) rotate(-90) translate(-476.5111, -69.2207)" points="445.99029 62.651249 507.031824 62.651249 507.031824 75.7902272 445.99029 75.7902272"></polygon>
                <rect id="rect844" x="564.247812" y="30.8339019" width="55.638743" height="8.49607144"></rect>
                <rect id="rect846" x="564.247812" y="66.8604695" width="55.638743" height="8.49607144"></rect>
                <rect id="rect848" x="564.247812" y="103.333413" width="55.638743" height="10.8817193"></rect>
                <polygon id="rect850" transform="translate(570.8807, 74.7527) rotate(-90) translate(-570.8807, -74.7527)" points="526.961986 68.1197273 614.799512 68.1197273 614.799512 81.3856016 526.961986 81.3856016"></polygon>
                <polygon id="rect852" transform="translate(613.2536, 74.7527) rotate(-90) translate(-613.2536, -74.7527)" points="569.334855 68.1197273 657.17238 68.1197273 657.17238 81.3856016 569.334855 81.3856016"></polygon>
                <polygon id="rect854" transform="translate(592.6143, 64.1867) rotate(-90) translate(-592.6143, -64.1867)" points="542.58589 57.5537555 642.642769 57.5537555 642.642769 70.8196298 542.58589 70.8196298"></polygon>
                <polygon id="rect856" transform="translate(634.2049, 74.8848) rotate(-90) translate(-634.2049, -74.8848)" points="584.176481 68.2518486 684.233361 68.2518486 684.233361 81.5177229 584.176481 81.5177229"></polygon>
                <rect id="rect858" x="634.608003" y="24.8563461" width="28.4262338" height="8.49607144"></rect>
                <path d="M663.034252,24.856152 L663.034252,58.5224509 C663.034252,58.5224509 663.816529,63.5564964 657.561295,67.3320305 C660.21865,70.3208084 663.97179,70.0058074 664.128544,80.0753913 C664.285298,93.4472612 664.128544,103.358598 664.128544,103.358598 C664.128544,103.358598 663.161148,115.471957 645.522581,114.056691 C645.365827,104.145354 645.522581,104.145354 645.522581,104.145354 C645.522581,104.145354 651.619568,102.571842 651.776322,99.1113088 C651.150799,76.9283664 651.776322,76.9283664 651.776322,76.9283664 C651.776322,76.9283664 650.855206,72.5004367 645.071726,71.5569264 C645.071726,64.1641051 645.071726,63.9267346 645.071726,63.9267346 C645.071726,63.9267346 651.403098,62.2755916 651.559852,57.7924247 C651.247837,48.9828451 651.559852,31.9354651 651.559852,31.9354651 L663.034252,24.856152 Z" id="path860"></path>
                <polygon id="rect862" transform="translate(728.0297, 70.2202) rotate(-90) translate(-728.0297, -70.2202)" points="682.095533 62.6684173 773.963878 62.6684173 773.963878 77.7720467 682.095533 77.7720467"></polygon>
                <rect id="rect864" x="701.530054" y="24.2860598" width="46.4036881" height="8.49607144"></rect>
                <polygon id="rect866" transform="translate(708.0159, 83.0412) rotate(-90) translate(-708.0159, -83.0412)" points="674.90276 75.4894086 741.129122 75.4894086 741.129122 90.593038 674.90276 90.593038"></polygon>
                <rect id="rect868" x="701.530054" y="107.658333" width="46.4036881" height="8.49607144"></rect>
                <rect id="rect870" x="720.477891" y="64.5629024" width="27.4543584" height="8.49607144"></rect>
                <rect id="rect872" x="755.681873" y="31.3653729" width="42.9103113" height="8.49607144"></rect>
                <polygon id="polygon874" points="753.249991 39.8608248 756.494054 14.4427765 771.033369 14.4427765 768.259568 31.3647533 755.681918 39.8608248"></polygon>
                <path d="M779.986235,39.8612502 L779.986235,74.4128365 C779.986235,74.4128365 780.611759,81.8071507 774.983541,91.4034865 C774.826787,91.7184876 769.510584,82.9074151 769.824092,74.4128365 C770.449616,47.6676037 769.824092,47.5108496 769.824092,47.5108496 L754.188992,47.5108496 L754.188992,70.3223013 C754.188992,70.3223013 753.251453,87.9429535 765.602182,99.899558 C765.758936,100.214559 751.061374,110.597651 751.061374,110.597651 L751.061374,125.858035 L775.609064,108.867385 L800,124.914524 L800,110.440897 C800,110.440897 786.710239,103.046583 784.052884,100.686314 C785.772701,98.7978007 794.68529,90.6182232 794.997305,76.7731052 C794.840551,50.3428734 794.997305,38.0712679 794.997305,38.0712679 L779.987728,39.8612502 L779.986235,39.8612502 Z" id="path876"></path>
                <path d="M83.5962074,34.7531272 L96.2096862,34.7531272 L140.751733,34.7531272 L147.738486,0 L148.419247,0 L160.353458,0 L254.558185,0 L250.333289,20.9035305 L156.070339,20.9035305 L148.695433,56.9017331 L136.081954,56.9017331 L91.5399074,56.9017331 L88.686983,70.8259746 L159.015823,70.8259746 L166.460896,35.144266 L166.499711,35.144266 L166.499711,34.7516343 L247.672948,34.7516343 L243.058407,56.9017331 L174.482226,56.9017331 L167.026703,93.2925673 L163.104865,93.2925673 L154.411732,93.2925673 L84.0813987,93.2925673 L81.7256087,104.792346 L127.338062,104.792346 L130.818003,104.792346 L139.951541,104.792346 L128.293515,161.694079 L121.811361,161.694079 L115.680037,161.694079 L70.0675834,161.694079 L67.4057497,174.689739 L137.989875,174.689739 L152.509782,104.792346 L155.437351,104.792346 L165.123261,104.792346 L233.378469,104.792346 L229.153573,125.695876 L160.780426,125.695876 L145.935068,197.156332 L144.793002,197.156332 L133.321589,197.156332 L62.8001654,197.156332 L60.4488541,208.630731 L157.26167,208.630731 L171.387453,140.635287 L171.853236,140.635287 L184.002424,140.635287 L226.134937,140.635287 L221.910041,161.538818 L179.65959,161.538818 L165.209849,231.097323 L159.272601,231.097323 L152.594877,231.097323 L55.8462556,231.097323 L53.1127629,231.097323 L43.2327768,231.097323 L57.4526117,161.694079 L12.6134788,161.694079 L8.64685395,161.694079 L0,161.694079 L11.6580253,104.792346 L17.6534958,104.792346 L24.271504,104.792346 L69.110637,104.792346 L83.5947146,34.7516343 L83.5962074,34.7531272 Z M120.284128,139.230472 L122.736956,127.261924 L77.1245031,127.261924 L74.6716748,139.230472 L120.284128,139.230472 Z M62.0567032,139.230472 L64.5095314,127.261924 L19.6703984,127.261924 L17.2175702,139.230472 L62.0567032,139.230472 Z" id="path878"></path>
            </g>
        </g>
    </g>
</svg>