<?xml version="1.0" encoding="UTF-8"?>
<svg width="980px" height="680px" viewBox="0 0 980 680" version="1.1" xmlns="http://www.w3.org/2000/svg" xmlns:xlink="http://www.w3.org/1999/xlink">
    <title>CN China Post alt</title>
    <defs>
        <linearGradient x1="50%" y1="0%" x2="50%" y2="100%" id="linearGradient-1">
            <stop stop-color="#FFFFFF" offset="0%"></stop>
            <stop stop-color="#EDEDED" offset="100%"></stop>
        </linearGradient>
        <rect id="path-2" x="0" y="0" width="900" height="600" rx="80"></rect>
        <filter x="-6.7%" y="-10.0%" width="113.3%" height="120.0%" filterUnits="objectBoundingBox" id="filter-3">
            <feMorphology radius="2.5" operator="dilate" in="SourceAlpha" result="shadowSpreadOuter1"></feMorphology>
            <feOffset dx="0" dy="0" in="shadowSpreadOuter1" result="shadowOffsetOuter1"></feOffset>
            <feGaussianBlur stdDeviation="17.5" in="shadowOffsetOuter1" result="shadowBlurOuter1"></feGaussianBlur>
            <feColorMatrix values="0 0 0 0 0   0 0 0 0 0   0 0 0 0 0  0 0 0 0.5 0" type="matrix" in="shadowBlurOuter1"></feColorMatrix>
        </filter>
    </defs>
    <g id="CN-China-Post-alt" stroke="none" stroke-width="1" fill="none" fill-rule="evenodd">
        <g transform="translate(40, 40)">
            <g id="Rectangle">
                <use fill="black" fill-opacity="1" filter="url(#filter-3)" xlink:href="#path-2"></use>
                <use fill="url(#linearGradient-1)" fill-rule="evenodd" xlink:href="#path-2"></use>
            </g>
            <g id="g794" transform="translate(175, 51)" fill="#FFD42A">
                <path d="M180.86797,75.1915399 L208.158374,75.1915399 L304.529128,75.1915399 L319.645603,0 L321.11849,0 L346.939237,0 L550.7597,0 L541.618755,45.2266825 L337.672321,45.2266825 L321.716043,123.112056 L294.425639,123.112056 L198.054884,123.112056 L191.882324,153.238414 L344.045143,153.238414 L360.153232,76.0378041 L360.237212,76.0378041 L360.237212,75.1883099 L535.862866,75.1883099 L525.878887,123.112056 L377.508107,123.112056 L361.377408,201.846923 L352.892156,201.846923 L334.083774,201.846923 L181.917725,201.846923 L176.82076,226.727736 L275.507435,226.727736 L283.036603,226.727736 L302.79784,226.727736 L277.574646,349.839791 L263.549917,349.839791 L250.284241,349.839791 L151.597566,349.839791 L145.838448,377.95708 L298.553599,377.95708 L329.968733,226.727736 L336.302795,226.727736 L357.259138,226.727736 L504.935464,226.727736 L495.794519,271.954418 L347.863021,271.954418 L315.743743,426.565589 L313.272781,426.565589 L288.453339,426.565589 L135.873848,426.565589 L130.786573,451.391491 L340.249874,451.391491 L370.812284,304.277187 L371.820049,304.277187 L398.105919,304.277187 L489.263427,304.277187 L480.122482,349.50387 L388.709802,349.50387 L357.446479,500 L344.600705,500 L330.152844,500 L120.828434,500 L114.914275,500 L93.5380302,500 L124.303932,349.839791 L27.2904043,349.839791 L18.708252,349.839791 L0,349.839791 L25.2231941,226.727736 L38.1949379,226.727736 L52.5135984,226.727736 L149.527126,226.727736 L180.86474,75.1883099 L180.86797,75.1915399 Z M260.24561,301.237742 L265.552527,275.342705 L166.865851,275.342705 L161.558935,301.237742 L260.24561,301.237742 Z M134.265301,301.237742 L139.572217,275.342705 L42.5586894,275.342705 L37.2517733,301.237742 L134.265301,301.237742 Z" id="path878"></path>
            </g>
        </g>
    </g>
</svg>