<?xml version="1.0" encoding="UTF-8"?>
<svg width="980px" height="680px" viewBox="0 0 980 680" version="1.1" xmlns="http://www.w3.org/2000/svg" xmlns:xlink="http://www.w3.org/1999/xlink">
    <title>CO 4-72 text</title>
    <defs>
        <linearGradient x1="50%" y1="0%" x2="50%" y2="100%" id="linearGradient-1">
            <stop stop-color="#FFFFFF" offset="0%"></stop>
            <stop stop-color="#EDEDED" offset="100%"></stop>
        </linearGradient>
        <rect id="path-2" x="0" y="0" width="900" height="600" rx="80"></rect>
        <filter x="-6.7%" y="-10.0%" width="113.3%" height="120.0%" filterUnits="objectBoundingBox" id="filter-3">
            <feMorphology radius="2.5" operator="dilate" in="SourceAlpha" result="shadowSpreadOuter1"></feMorphology>
            <feOffset dx="0" dy="0" in="shadowSpreadOuter1" result="shadowOffsetOuter1"></feOffset>
            <feGaussianBlur stdDeviation="17.5" in="shadowOffsetOuter1" result="shadowBlurOuter1"></feGaussianBlur>
            <feColorMatrix values="0 0 0 0 0   0 0 0 0 0   0 0 0 0 0  0 0 0 0.5 0" type="matrix" in="shadowBlurOuter1"></feColorMatrix>
        </filter>
    </defs>
    <g id="CO-4-72-text" stroke="none" stroke-width="1" fill="none" fill-rule="evenodd">
        <g transform="translate(40, 40)">
            <g id="Rectangle">
                <use fill="black" fill-opacity="1" filter="url(#filter-3)" xlink:href="#path-2"></use>
                <use fill="url(#linearGradient-1)" fill-rule="evenodd" xlink:href="#path-2"></use>
            </g>
            <g id="Logo" transform="translate(50, 164)">
                <path d="M152.701549,260.576372 C148.398952,260.576372 144.712115,259.705816 141.641038,257.964702 C138.569961,256.225519 136.213088,253.76055 134.570418,250.571725 C132.927749,247.384831 132.105449,243.618852 132.105449,239.27572 C132.105449,234.934518 132.927749,231.180121 134.570418,228.010599 C136.213088,224.843008 138.569961,222.38769 141.641038,220.646577 C144.712115,218.907393 148.398952,218.034906 152.701549,218.034906 C154.851882,218.034906 156.96554,218.309006 159.038662,218.857206 C161.111784,219.405406 162.930109,220.18717 164.495567,221.204428 C165.512825,221.870375 166.118933,222.66179 166.313892,223.580604 C166.51078,224.501348 166.393033,225.34102 165.962581,226.103481 C165.532128,226.865942 164.885484,227.375537 164.026509,227.628404 C163.165603,227.885131 162.208184,227.659288 161.15039,226.954735 C159.938173,226.172972 158.627512,225.605469 157.220337,225.252227 C155.811232,224.900916 154.382824,224.725261 152.937043,224.725261 C148.750264,224.725261 145.561439,225.985734 143.3725,228.510542 C141.181631,231.033419 140.085232,234.621812 140.085232,239.27572 C140.085232,243.931558 141.181631,247.531532 143.3725,250.073713 C145.561439,252.615893 148.750264,253.887948 152.937043,253.887948 C154.42336,253.887948 155.890374,253.702641 157.336154,253.330097 C158.783865,252.957553 160.154365,252.382329 161.443792,251.598635 C162.499656,250.934618 163.439703,250.718427 164.260073,250.953921 C165.082372,251.187485 165.698132,251.668125 166.109282,252.39198 C166.520432,253.115836 166.6459,253.907251 166.491478,254.768156 C166.333195,255.629062 165.806228,256.391523 164.906717,257.055539 C163.341259,258.190545 161.474677,259.061102 159.303111,259.66721 C157.131544,260.273318 154.931024,260.576372 152.701549,260.576372" id="Fill-1" fill="#1A428A"></path>
                <path d="M184.797299,255.002299 C186.988168,255.002299 188.748584,254.210884 190.078548,252.626123 C191.408512,251.041363 192.072528,248.703792 192.072528,245.613412 C192.072528,242.484426 191.408512,240.148786 190.078548,238.602631 C188.748584,237.056476 186.988168,236.284363 184.797299,236.284363 C182.60643,236.284363 180.846013,237.056476 179.51605,238.602631 C178.186086,240.148786 177.522069,242.484426 177.522069,245.613412 C177.522069,248.703792 178.186086,251.041363 179.51605,252.626123 C180.846013,254.210884 182.60643,255.002299 184.797299,255.002299 M184.797299,260.576951 C181.824666,260.576951 179.24195,259.970843 177.053011,258.756696 C174.860211,257.54641 173.159634,255.814948 171.947417,253.56424 C170.73327,251.315462 170.129092,248.665186 170.129092,245.613412 C170.129092,242.563568 170.73327,239.922943 171.947417,237.693468 C173.159634,235.462063 174.860211,233.742183 177.053011,232.529966 C179.24195,231.31775 181.824666,230.709711 184.797299,230.709711 C187.769932,230.709711 190.350718,231.31775 192.543517,232.529966 C194.732456,233.742183 196.434964,235.462063 197.64718,237.693468 C198.859397,239.922943 199.467435,242.563568 199.467435,245.613412 C199.467435,248.665186 198.859397,251.315462 197.64718,253.56424 C196.434964,255.814948 194.732456,257.54641 192.543517,258.756696 C190.350718,259.970843 187.769932,260.576951 184.797299,260.576951" id="Fill-3" fill="#1A428A"></path>
                <path d="M208.326075,260.459011 C205.8225,260.459011 204.571678,259.208189 204.571678,256.704614 L204.571678,234.523754 C204.571678,232.058785 205.762661,230.827265 208.150419,230.827265 C210.536247,230.827265 211.72916,232.058785 211.72916,234.523754 L211.72916,236.344009 C213.138266,232.979529 216.149504,231.101365 220.764806,230.709518 C222.446081,230.51456 223.386128,231.471979 223.581087,233.585637 C223.777975,235.658759 222.760717,236.813067 220.531242,237.046631 L219.239884,237.164378 C214.427693,237.633437 212.022563,240.098406 212.022563,244.557355 L212.022563,256.704614 C212.022563,259.208189 210.791044,260.459011 208.326075,260.459011" id="Fill-5" fill="#1A428A"></path>
                <path d="M230.388416,260.459011 C227.884841,260.459011 226.634019,259.208189 226.634019,256.704614 L226.634019,234.523754 C226.634019,232.058785 227.825003,230.827265 230.21276,230.827265 C232.598588,230.827265 233.791502,232.058785 233.791502,234.523754 L233.791502,236.344009 C235.200607,232.979529 238.211845,231.101365 242.827148,230.709518 C244.508423,230.51456 245.448469,231.471979 245.643428,233.585637 C245.840317,235.658759 244.823058,236.813067 242.593584,237.046631 L241.302226,237.164378 C236.490035,237.633437 234.084904,240.098406 234.084904,244.557355 L234.084904,256.704614 C234.084904,259.208189 232.853385,260.459011 230.388416,260.459011" id="Fill-7" fill="#1A428A"></path>
                <path d="M261.780385,235.697558 C259.628122,235.697558 257.887008,236.363505 256.558975,237.693468 C255.227081,239.023432 254.426014,240.822454 254.151914,243.090535 L268.586556,243.090535 C268.430204,240.704707 267.773908,238.876731 266.62153,237.604676 C265.467222,236.334551 263.853507,235.697558 261.780385,235.697558 M262.836249,260.576951 C259.589516,260.576951 256.792539,259.970843 254.445317,258.756696 C252.098095,257.54641 250.289422,255.824599 249.017366,253.593194 C247.747241,251.363719 247.112179,248.723095 247.112179,245.673251 C247.112179,242.700618 247.727938,240.098599 248.959458,237.869124 C250.190977,235.639649 251.893485,233.888884 254.065051,232.616829 C256.234687,231.346704 258.709308,230.709711 261.486982,230.709711 C265.554085,230.709711 268.771863,232.001069 271.140318,234.581855 C273.504913,237.164571 274.690105,240.685404 274.690105,245.144354 C274.690105,246.592065 273.750059,247.31592 271.871895,247.31592 L254.151914,247.31592 C254.700114,252.440816 257.634141,255.002299 262.953996,255.002299 C263.971254,255.002299 265.113981,254.874901 266.386036,254.620104 C267.658091,254.367237 268.860656,253.927133 269.995662,253.299791 C271.01099,252.712986 271.871895,252.529609 272.576448,252.743871 C273.281,252.958132 273.779013,253.378933 274.072415,254.004344 C274.365818,254.631685 274.404424,255.324656 274.190163,256.087117 C273.975901,256.849578 273.41805,257.505874 272.518539,258.054074 C271.14804,258.914979 269.57486,259.550042 267.795141,259.961192 C266.013492,260.370411 264.363101,260.576951 262.836249,260.576951" id="Fill-9" fill="#1A428A"></path>
                <path d="M292.643843,255.002299 C294.834712,255.002299 296.595129,254.210884 297.925093,252.626123 C299.255056,251.041363 299.919073,248.703792 299.919073,245.613412 C299.919073,242.484426 299.255056,240.148786 297.925093,238.602631 C296.595129,237.056476 294.834712,236.284363 292.643843,236.284363 C290.452974,236.284363 288.692558,237.056476 287.362594,238.602631 C286.03263,240.148786 285.368614,242.484426 285.368614,245.613412 C285.368614,248.703792 286.03263,251.041363 287.362594,252.626123 C288.692558,254.210884 290.452974,255.002299 292.643843,255.002299 M292.643843,260.576951 C289.67121,260.576951 287.088494,259.970843 284.899555,258.756696 C282.706756,257.54641 281.006178,255.814948 279.793962,253.56424 C278.579815,251.315462 277.975637,248.665186 277.975637,245.613412 C277.975637,242.563568 278.579815,239.922943 279.793962,237.693468 C281.006178,235.462063 282.706756,233.742183 284.899555,232.529966 C287.088494,231.31775 289.67121,230.709711 292.643843,230.709711 C295.616476,230.709711 298.197262,231.31775 300.390062,232.529966 C302.579,233.742183 304.281508,235.462063 305.493725,237.693468 C306.705941,239.922943 307.31398,242.563568 307.31398,245.613412 C307.31398,248.665186 306.705941,251.315462 305.493725,253.56424 C304.281508,255.814948 302.579,257.54641 300.390062,258.756696 C298.197262,259.970843 295.616476,260.576951 292.643843,260.576951" id="Fill-11" fill="#1A428A"></path>
                <path d="M334.655447,271.020931 C333.325484,271.020931 332.404739,270.530639 331.897075,269.553917 C331.389412,268.575264 331.408714,267.461492 331.956914,266.20874 L335.300161,258.815763 L325.26656,235.696786 C324.71836,234.407358 324.71836,233.272353 325.26656,232.2937 C325.81476,231.316978 326.889926,230.826686 328.49399,230.826686 C329.393501,230.826686 330.117356,231.033226 330.665556,231.442446 C331.211826,231.853596 331.702117,232.627639 332.13257,233.760714 L339.174235,251.364878 L346.391557,233.702805 C346.820079,232.608336 347.329673,231.853596 347.916479,231.442446 C348.503284,231.033226 349.285048,230.826686 350.263701,230.826686 C351.514523,230.826686 352.394731,231.316978 352.904325,232.2937 C353.411989,233.272353 353.392686,234.388055 352.844486,235.638877 L338.58743,268.20465 C338.077836,269.29912 337.531566,270.042278 336.944761,270.434125 C336.357955,270.824042 335.593564,271.020931 334.655447,271.020931" id="Fill-13" fill="#1A428A"></path>
                <path d="M376.021372,260.459011 C373.595009,260.459011 372.382792,259.208189 372.382792,256.704614 L372.382792,234.523754 C372.382792,232.058785 373.575706,230.827265 375.963464,230.827265 C378.347361,230.827265 379.542205,232.058785 379.542205,234.523754 L379.542205,235.697365 C380.40118,234.133837 381.596024,232.910039 383.120946,232.029831 C384.647798,231.149622 386.406285,230.709518 388.402195,230.709518 C392.704792,230.709518 395.521072,232.587682 396.851036,236.344009 C397.750547,234.581662 399.041905,233.203441 400.72511,232.205486 C402.406385,231.209461 404.323154,230.709518 406.475418,230.709518 C412.928347,230.709518 416.155778,234.641501 416.155778,242.503536 L416.155778,256.704614 C416.155778,259.208189 414.924258,260.459011 412.459289,260.459011 C410.032926,260.459011 408.822639,259.208189 408.822639,256.704614 L408.822639,242.796939 C408.822639,240.608 408.459747,239.003936 407.735891,237.986678 C407.012036,236.96942 405.790168,236.459826 404.068357,236.459826 C402.151588,236.459826 400.645969,237.135424 399.551499,238.484691 C398.455099,239.833957 397.9069,241.702469 397.9069,244.088297 L397.9069,256.704614 C397.9069,259.208189 396.694683,260.459011 394.27025,260.459011 C391.805281,260.459011 390.573762,259.208189 390.573762,256.704614 L390.573762,242.796939 C390.573762,240.608 390.210869,239.003936 389.487013,237.986678 C388.763158,236.96942 387.560593,236.459826 385.879318,236.459826 C383.962549,236.459826 382.454999,237.135424 381.36053,238.484691 C380.26606,239.833957 379.71786,241.702469 379.71786,244.088297 L379.71786,256.704614 C379.71786,259.208189 378.486341,260.459011 376.021372,260.459011" id="Fill-15" fill="#1A428A"></path>
                <path d="M433.172557,260.576372 C426.130891,260.576372 422.610059,256.625087 422.610059,248.724446 L422.610059,234.523368 C422.610059,232.060329 423.822275,230.826879 426.248639,230.826879 C428.713608,230.826879 429.945127,232.060329 429.945127,234.523368 L429.945127,248.840263 C429.945127,250.874779 430.356277,252.382329 431.176646,253.359051 C431.998946,254.337704 433.309607,254.826065 435.108629,254.826065 C437.064004,254.826065 438.668067,254.150466 439.92082,252.8012 C441.171642,251.451933 441.798983,249.662563 441.798983,247.433088 L441.798983,234.523368 C441.798983,232.060329 443.00927,230.826879 445.435633,230.826879 C447.900602,230.826879 449.132121,232.060329 449.132121,234.523368 L449.132121,256.704228 C449.132121,259.207803 447.939208,260.458625 445.55338,260.458625 C443.167553,260.458625 441.974639,259.207803 441.974639,256.704228 L441.974639,255.706273 C440.05787,258.953006 437.123842,260.576372 433.172557,260.576372" id="Fill-17" fill="#1A428A"></path>
                <path d="M469.082542,260.576372 C466.069373,260.576372 463.449982,259.960613 461.220507,258.729093 C458.991032,257.495644 457.269222,255.744879 456.057005,253.476798 C454.842858,251.208718 454.23675,248.54686 454.23675,245.497016 C454.23675,242.445242 454.842858,239.814268 456.057005,237.604096 C457.269222,235.393925 458.991032,233.693347 461.220507,232.500433 C463.449982,231.307519 466.069373,230.709132 469.082542,230.709132 C470.3739,230.709132 471.771424,230.886718 473.277043,231.238029 C474.782662,231.58934 476.201419,232.176146 477.531383,232.998446 C478.313147,233.467504 478.772554,234.075543 478.911534,234.81677 C479.046653,235.561859 478.950139,236.245179 478.618131,236.87059 C478.284192,237.497931 477.795831,237.947686 477.151117,238.219856 C476.504473,238.493956 475.770966,238.397442 474.950597,237.926453 C473.149645,236.911126 471.410461,236.401531 469.727256,236.401531 C467.185076,236.401531 465.218119,237.192947 463.830247,238.777707 C462.442375,240.362468 461.747474,242.620897 461.747474,245.554924 C461.747474,248.450346 462.442375,250.728078 463.830247,252.39198 C465.218119,254.053952 467.185076,254.883973 469.727256,254.883973 C471.410461,254.883973 473.149645,254.395612 474.950597,253.41696 C475.770966,252.947901 476.494822,252.851387 477.122163,253.123557 C477.745644,253.399587 478.19733,253.857064 478.47143,254.503708 C478.743599,255.148422 478.803438,255.833672 478.647085,256.557527 C478.490732,257.281382 478.040977,257.877839 477.297819,258.346898 C476.006461,259.130592 474.635961,259.696164 473.19018,260.047475 C471.74247,260.400717 470.3739,260.576372 469.082542,260.576372" id="Fill-19" fill="#1A428A"></path>
                <path d="M486.215139,260.459011 C483.788775,260.459011 482.576559,259.208189 482.576559,256.704614 L482.576559,221.849528 C482.576559,219.384559 483.788775,218.153039 486.215139,218.153039 C488.680108,218.153039 489.911627,219.384559 489.911627,221.849528 L489.911627,235.46187 C490.888349,233.898343 492.20094,232.71508 493.84361,231.912083 C495.486279,231.111017 497.304604,230.709518 499.300514,230.709518 C506.06808,230.709518 509.451863,234.641501 509.451863,242.503536 L509.451863,256.704614 C509.451863,259.208189 508.237716,260.459011 505.813283,260.459011 C503.348314,260.459011 502.116795,259.208189 502.116795,256.704614 L502.116795,242.856777 C502.116795,240.627303 501.695993,239.003936 500.854391,237.986678 C500.012788,236.96942 498.713709,236.459826 496.953293,236.459826 C494.801029,236.459826 493.08887,237.135424 491.818745,238.484691 C490.546689,239.833957 489.911627,241.623328 489.911627,243.852803 L489.911627,256.704614 C489.911627,259.208189 488.680108,260.459011 486.215139,260.459011" id="Fill-21" fill="#1A428A"></path>
                <path d="M529.048656,255.002299 C531.239525,255.002299 532.999942,254.210884 534.329905,252.626123 C535.659869,251.041363 536.323886,248.703792 536.323886,245.613412 C536.323886,242.484426 535.659869,240.148786 534.329905,238.602631 C532.999942,237.056476 531.239525,236.284363 529.048656,236.284363 C526.857787,236.284363 525.097371,237.056476 523.767407,238.602631 C522.437443,240.148786 521.773426,242.484426 521.773426,245.613412 C521.773426,248.703792 522.437443,251.041363 523.767407,252.626123 C525.097371,254.210884 526.857787,255.002299 529.048656,255.002299 M529.048656,260.576951 C526.076023,260.576951 523.493307,259.970843 521.302438,258.756696 C519.111569,257.54641 517.410991,255.814948 516.198775,253.56424 C514.984628,251.315462 514.378519,248.665186 514.378519,245.613412 C514.378519,242.563568 514.984628,239.922943 516.198775,237.693468 C517.410991,235.462063 519.111569,233.742183 521.302438,232.529966 C523.493307,231.31775 526.076023,230.709711 529.048656,230.709711 C532.021289,230.709711 534.602075,231.31775 536.794874,232.529966 C538.983813,233.742183 540.686321,235.462063 541.898538,237.693468 C543.110754,239.922943 543.718793,242.563568 543.718793,245.613412 C543.718793,248.665186 543.110754,251.315462 541.898538,253.56424 C540.686321,255.814948 538.983813,257.54641 536.794874,258.756696 C534.602075,259.970843 532.021289,260.576951 529.048656,260.576951" id="Fill-23" fill="#1A428A"></path>
                <path d="M567.539234,260.459011 C565.112871,260.459011 563.900654,259.208189 563.900654,256.704614 L563.900654,234.523754 C563.900654,232.058785 565.093568,230.827265 567.481326,230.827265 C569.867153,230.827265 571.060067,232.058785 571.060067,234.523754 L571.060067,235.697365 C571.919042,234.133837 573.113886,232.910039 574.638808,232.029831 C576.165661,231.149622 577.926077,230.709518 579.920057,230.709518 C584.222654,230.709518 587.038934,232.587682 588.368898,236.344009 C589.268409,234.581662 590.559767,233.203441 592.242972,232.205486 C593.924247,231.209461 595.841016,230.709518 597.99328,230.709518 C604.44621,230.709518 607.67364,234.641501 607.67364,242.503536 L607.67364,256.704614 C607.67364,259.208189 606.44212,260.459011 603.977151,260.459011 C601.550788,260.459011 600.340502,259.208189 600.340502,256.704614 L600.340502,242.796939 C600.340502,240.608 599.977609,239.003936 599.253753,237.986678 C598.529898,236.96942 597.30803,236.459826 595.586219,236.459826 C593.66945,236.459826 592.163831,237.135424 591.069361,238.484691 C589.972962,239.833957 589.424762,241.702469 589.424762,244.088297 L589.424762,256.704614 C589.424762,259.208189 588.212545,260.459011 585.788112,260.459011 C583.323143,260.459011 582.091624,259.208189 582.091624,256.704614 L582.091624,242.796939 C582.091624,240.608 581.728731,239.003936 581.004875,237.986678 C580.28102,236.96942 579.078455,236.459826 577.39718,236.459826 C575.480411,236.459826 573.972861,237.135424 572.878392,238.484691 C571.783922,239.833957 571.235723,241.702469 571.235723,244.088297 L571.235723,256.704614 C571.235723,259.208189 570.004203,260.459011 567.539234,260.459011" id="Fill-25" fill="#1A428A"></path>
                <path d="M629.619392,227.130584 C629.227545,227.678784 628.758487,227.991489 628.210287,228.068701 C627.662087,228.147842 627.13512,228.049398 626.627456,227.775298 C626.117862,227.503128 625.754969,227.111281 625.540708,226.603617 C625.326447,226.094023 625.374704,225.52652 625.687409,224.901109 L630.146359,216.158866 C630.576811,215.259355 631.18292,214.740109 631.966614,214.603059 C632.748378,214.466009 633.501187,214.593408 634.225043,214.985255 C634.948898,215.377102 635.446911,215.933023 635.721011,216.656879 C635.995111,217.380734 635.858132,218.133544 635.311791,218.915307 L629.619392,227.130584 Z M625.276259,255.53081 C627.193029,255.53081 628.787441,254.864863 630.059496,253.5349 C631.329621,252.204936 631.966614,250.523661 631.966614,248.489145 L631.966614,247.197787 L629.970703,247.197787 C626.293518,247.197787 623.741686,247.481538 622.313278,248.049041 C620.88487,248.616543 620.172596,249.643453 620.172596,251.129769 C620.172596,252.421128 620.622352,253.476991 621.521863,254.297361 C622.421374,255.119661 623.672196,255.53081 625.276259,255.53081 L625.276259,255.53081 Z M623.751337,260.576565 C621.678215,260.576565 619.829006,260.175067 618.20564,259.374 C616.582273,258.572934 615.312148,257.486185 614.393334,256.117616 C613.47259,254.747116 613.013183,253.202891 613.013183,251.481081 C613.013183,249.369353 613.561383,247.695799 614.655853,246.46428 C615.752252,245.232761 617.531971,244.342901 619.996941,243.794701 C622.459979,243.248432 625.766551,242.974332 629.912795,242.974332 L631.966614,242.974332 L631.966614,241.740882 C631.966614,239.785507 631.536161,238.376402 630.675256,237.517427 C629.81435,236.656521 628.36664,236.226069 626.334053,236.226069 C625.199048,236.226069 623.97718,236.363119 622.666519,236.637219 C621.355858,236.911319 619.975707,237.380377 618.529927,238.044394 C617.58988,238.474846 616.808116,238.523103 616.182705,238.191095 C615.555364,237.859087 615.134562,237.33212 614.920301,236.606334 C614.70604,235.884409 614.744646,235.150902 615.038048,234.405814 C615.331451,233.664586 615.927908,233.116386 616.827419,232.763144 C618.626441,232.021916 620.357903,231.493019 622.019875,231.180314 C623.683777,230.867608 625.199048,230.709325 626.567618,230.709325 C630.752467,230.709325 633.86408,231.678326 635.898597,233.614398 C637.931183,235.55047 638.948441,238.553988 638.948441,242.62109 L638.948441,256.704421 C638.948441,259.207996 637.813435,260.458818 635.545355,260.458818 C633.236739,260.458818 632.084361,259.207996 632.084361,256.704421 L632.084361,255.413063 C631.418414,257.017127 630.36255,258.279531 628.914839,259.198345 C627.467129,260.115228 625.747248,260.576565 623.751337,260.576565 L623.751337,260.576565 Z" id="Fill-27" fill="#1A428A"></path>
                <path d="M655.96522,260.576372 C654.282015,260.576372 652.502296,260.400717 650.626063,260.047475 C648.747899,259.696164 647.064694,259.090056 645.578377,258.22915 C644.758008,257.760092 644.248414,257.182938 644.053455,256.497688 C643.858497,255.814369 643.887451,255.169655 644.142248,254.561616 C644.395115,253.955508 644.825568,253.515404 645.433606,253.241304 C646.037784,252.969134 646.751988,253.027043 647.574288,253.41696 C649.137816,254.162048 650.604829,254.679363 651.975329,254.972766 C653.343898,255.266169 654.693165,255.41287 656.023129,255.41287 C657.901292,255.41287 659.298816,255.090513 660.21956,254.443869 C661.138374,253.799155 661.597781,252.947901 661.597781,251.892037 C661.597781,250.249368 660.385564,249.193504 657.961131,248.724446 L652.093076,247.608744 C647.124533,246.670627 644.640261,244.087911 644.640261,239.864456 C644.640261,237.986292 645.157576,236.362926 646.196067,234.992426 C647.230698,233.623857 648.668757,232.567993 650.508315,231.824835 C652.345943,231.081676 654.459601,230.709132 656.845428,230.709132 C660.28712,230.709132 663.358197,231.473524 666.05673,232.998446 C666.799888,233.390293 667.239992,233.928841 667.377042,234.612161 C667.514092,235.29741 667.436881,235.942124 667.143478,236.548233 C666.850076,237.154341 666.388738,237.584794 665.763327,237.839591 C665.137916,238.094388 664.414061,238.024898 663.593691,237.633051 C662.379544,237.00764 661.217515,236.557884 660.101813,236.283784 C658.98611,236.011615 657.920595,235.872634 656.903337,235.872634 C654.986568,235.872634 653.567811,236.206573 652.650927,236.87059 C651.730183,237.536537 651.270776,238.416745 651.270776,239.511214 C651.270776,241.233025 652.386479,242.288889 654.615954,242.680736 L660.484008,243.794508 C663.026189,244.263566 664.952609,245.124472 666.26327,246.377224 C667.573931,247.628046 668.228296,249.311252 668.228296,251.422979 C668.228296,254.277865 667.114524,256.518921 664.883119,258.140357 C662.653644,259.765654 659.681011,260.576372 655.96522,260.576372" id="Fill-29" fill="#1A428A"></path>
                <path d="M586.977165,146.487105 L549.220866,146.487105 C546.113114,146.487105 544.505189,142.782896 546.630429,140.522537 L586.569876,98.0042341 C593.895293,90.1615018 599.02791,83.1680932 601.749607,77.1012196 C604.571678,71.0420671 606.044482,63.9367022 606.044482,55.6789595 C606.044482,41.5338593 601.504461,29.502417 592.517072,19.3143931 C582.556821,8.02031814 568.712845,1.05972435 553.666304,0.104235182 C552.12787,0.00579084342 550.604878,-0.0115816868 549.087677,0.0096514057 L549.087677,0.0386056228 L509.126997,0.187237271 C506.924546,0.196888676 505.137105,1.9959107 505.160269,4.19450092 C505.357158,23.3930771 520.560052,36.3163094 536.841973,36.3163094 L550.130029,36.3471939 C554.949941,36.3471939 559.239025,37.920373 563.006934,41.1632453 C567.406045,45.019947 569.608496,49.6178767 569.608496,54.845078 C569.608496,58.5048911 568.666518,62.0566084 566.776773,65.2975504 C564.890888,68.5346319 561.231075,73.1344919 555.573421,79.0874789 L506.88594,131.542869 C500.510222,138.341319 496.526121,143.145789 494.960663,145.865555 C493.381693,148.571809 492.650117,152.125457 492.650117,156.412611 C492.650117,164.251483 495.688379,170.731437 501.759113,175.950917 C504.372714,178.259533 507.206367,179.720756 510.240769,180.342306 C513.277101,181.083534 518.504302,181.388519 525.83744,181.388519 L613.966356,181.388519 C616.238297,181.388519 618.04118,179.500704 617.938875,177.236484 C617.520004,167.986577 613.674884,146.487105 586.977165,146.487105 L586.977165,146.487105 Z M499.660898,33.7297327 C500.29403,31.7048677 500.620248,29.1568966 500.620248,26.0703771 C500.620248,17.3416458 497.419841,10.5316139 490.922515,5.8545427 C487.612083,3.51118139 483.988945,1.91483889 480.157337,1.17554121 C476.207982,0.426592132 469.60063,0 460.431794,0 L386.005944,0.279890765 C383.91352,0.289542171 382.263129,2.03258604 382.353852,4.11728967 C382.492833,7.31383524 383.033311,12.0970719 384.799519,16.8204699 C388.262443,26.0838891 398.504515,36.169608 415.02,36.169608 L453.60632,36.169608 C456.748818,36.169608 458.796846,39.4645979 457.401253,42.273157 L406.540275,144.701595 C398.529608,160.834885 409.344974,179.61459 426.754179,181.369216 C428.306125,181.527499 429.798233,180.70906 430.46997,179.303815 L493.904799,46.6027776 C497.097485,40.0089372 498.910018,35.8588327 499.660898,33.7297327 L499.660898,33.7297327 Z M263.894429,105.623054 C263.894429,107.082346 262.709236,108.265609 261.248014,108.265609 L231.380774,108.265609 C229.242022,108.265609 227.985409,105.87206 229.201486,104.119365 L259.068726,61.023908 C260.545391,58.8909473 263.894429,59.9352294 263.894429,62.5256667 L263.894429,105.623054 Z M273.462833,0.00193028114 L267.552312,0.00193028114 C265.610449,0.00193028114 263.784403,0.920744104 262.632025,2.47848098 L247.606717,22.7580146 L196.724506,91.7752168 C189.316087,101.949729 185.553969,107.491566 184.152585,110.280822 C182.780155,113.137638 182.083323,116.770427 182.083323,121.080745 C182.083323,128.709216 184.812741,134.181563 190.441441,137.820143 C192.800244,139.364368 195.012347,140.292833 197.209006,140.659587 C199.631509,141.068806 204.103971,141.277277 210.504783,141.277277 L263.894429,141.277277 L263.894429,154.231393 C263.894429,169.206515 276.541631,181.388519 292.086185,181.388519 L295.317476,181.388519 C297.514136,181.388519 299.295785,179.61459 299.295785,177.421791 L299.295785,24.8871147 C299.295785,11.1647461 287.706377,0.00193028114 273.462833,0.00193028114 L273.462833,0.00193028114 Z M414.199631,89.9260075 L377.271422,88.2717566 C376.15958,82.301397 371.507603,77.5741385 365.566197,76.3445494 L363.919667,39.7425584 L362.379303,39.7425584 L360.740494,76.1380093 C354.169817,76.9043309 348.894359,81.9018288 347.724609,88.329665 L312.09741,89.9260075 L312.09741,91.4644416 L347.618443,93.0569235 C348.533397,99.8167681 353.959417,105.142414 360.771379,105.922247 L362.379303,141.647891 L363.919667,141.647891 L365.537243,105.717638 C371.712212,104.455234 376.50124,99.4094787 377.379518,93.1148319 L414.199631,91.4644416 L414.199631,89.9260075 Z" id="Fill-31" fill="#1A428A"></path>
                <path d="M70.8643847,106.256958 L129.290134,164.682708 C130.996503,166.389076 133.762596,166.389076 135.468964,164.682708 L137.829698,162.321974 C148.239704,151.911968 148.239704,135.031659 137.829698,124.619723 L103.903077,90.6950315 L137.829698,56.7703405 C148.239704,46.358404 148.239704,29.4780954 137.829698,19.0680892 L135.468964,16.7073554 C133.762596,15.0009869 130.996503,15.0009869 129.290134,16.7073554 L70.8643847,75.1331049 C62.2688428,83.7267166 62.2688428,97.6614161 70.8643847,106.256958" id="Fill-33" fill="#FFC629"></path>
                <path d="M5.97180728,105.111529 L46.3725916,145.512314 C47.9534918,147.093214 50.5169052,147.093214 52.0978054,145.512314 L54.2848139,143.327235 C63.9284985,133.68162 63.9284985,118.044413 54.2848139,108.398798 L36.5802753,90.6942594 L54.2828837,72.9916511 C63.9284985,63.3460362 63.9284985,47.7088287 54.2828837,38.0632138 L52.0978054,35.8781356 C50.5169052,34.2972353 47.9534918,34.2972353 46.3725916,35.8781356 L5.97180728,76.2789198 C-1.99060243,84.2393993 -1.99060243,97.1491195 5.97180728,105.111529" id="Fill-35" fill="#FFC629"></path>
                <path d="M729.135615,75.1325259 L670.709866,16.7067763 C669.003497,15.0004078 666.237404,15.0004078 664.531036,16.7067763 L662.170302,19.0675101 C651.760296,29.4775163 651.760296,46.3578249 662.170302,56.7697614 L696.096923,90.6944524 L662.170302,124.619143 C651.760296,135.03108 651.760296,151.911389 662.170302,162.321395 L664.531036,164.682129 C666.237404,166.388497 669.003497,166.388497 670.709866,164.682129 L729.135615,106.256379 C737.731157,97.6627673 737.731157,83.7280678 729.135615,75.1325259" id="Fill-37" fill="#E51937"></path>
                <path d="M794.028193,76.2781477 L753.627408,35.8773634 C752.046508,34.2964632 749.483095,34.2964632 747.902195,35.8773634 L745.715186,38.0624417 C736.071501,47.7080566 736.071501,63.3452641 745.715186,72.9908789 L763.419725,90.6954176 L745.717116,108.398026 C736.071501,118.043641 736.071501,133.680848 745.717116,143.326463 L747.902195,145.511541 C749.483095,147.092442 752.046508,147.092442 753.627408,145.511541 L794.028193,105.110757 C801.990602,97.1502777 801.990602,84.2405574 794.028193,76.2781477" id="Fill-39" fill="#E51937"></path>
            </g>
        </g>
    </g>
</svg>