<?xml version="1.0" encoding="UTF-8"?>
<svg width="980px" height="680px" viewBox="0 0 980 680" version="1.1" xmlns="http://www.w3.org/2000/svg" xmlns:xlink="http://www.w3.org/1999/xlink">
    <title>CO 4-72</title>
    <defs>
        <linearGradient x1="50%" y1="0%" x2="50%" y2="100%" id="linearGradient-1">
            <stop stop-color="#FFFFFF" offset="0%"></stop>
            <stop stop-color="#EDEDED" offset="100%"></stop>
        </linearGradient>
        <rect id="path-2" x="0" y="0" width="900" height="600" rx="80"></rect>
        <filter x="-6.7%" y="-10.0%" width="113.3%" height="120.0%" filterUnits="objectBoundingBox" id="filter-3">
            <feMorphology radius="2.5" operator="dilate" in="SourceAlpha" result="shadowSpreadOuter1"></feMorphology>
            <feOffset dx="0" dy="0" in="shadowSpreadOuter1" result="shadowOffsetOuter1"></feOffset>
            <feGaussianBlur stdDeviation="17.5" in="shadowOffsetOuter1" result="shadowBlurOuter1"></feGaussianBlur>
            <feColorMatrix values="0 0 0 0 0   0 0 0 0 0   0 0 0 0 0  0 0 0 0.5 0" type="matrix" in="shadowBlurOuter1"></feColorMatrix>
        </filter>
    </defs>
    <g id="CO-4-72" stroke="none" stroke-width="1" fill="none" fill-rule="evenodd">
        <g transform="translate(40, 40)">
            <g id="Rectangle">
                <use fill="black" fill-opacity="1" filter="url(#filter-3)" xlink:href="#path-2"></use>
                <use fill="url(#linearGradient-1)" fill-rule="evenodd" xlink:href="#path-2"></use>
            </g>
            <g id="Logo" transform="translate(49, 209)">
                <path d="M586.977165,146.487105 L549.220866,146.487105 C546.113114,146.487105 544.505189,142.782896 546.630429,140.522537 L586.569876,98.0042341 C593.895293,90.1615018 599.02791,83.1680932 601.749607,77.1012196 C604.571678,71.0420671 606.044482,63.9367022 606.044482,55.6789595 C606.044482,41.5338593 601.504461,29.502417 592.517072,19.3143931 C582.556821,8.02031814 568.712845,1.05972435 553.666304,0.104235182 C552.12787,0.00579084342 550.604878,-0.0115816868 549.087677,0.0096514057 L549.087677,0.0386056228 L509.126997,0.187237271 C506.924546,0.196888676 505.137105,1.9959107 505.160269,4.19450092 C505.357158,23.3930771 520.560052,36.3163094 536.841973,36.3163094 L550.130029,36.3471939 C554.949941,36.3471939 559.239025,37.920373 563.006934,41.1632453 C567.406045,45.019947 569.608496,49.6178767 569.608496,54.845078 C569.608496,58.5048911 568.666518,62.0566084 566.776773,65.2975504 C564.890888,68.5346319 561.231075,73.1344919 555.573421,79.0874789 L506.88594,131.542869 C500.510222,138.341319 496.526121,143.145789 494.960663,145.865555 C493.381693,148.571809 492.650117,152.125457 492.650117,156.412611 C492.650117,164.251483 495.688379,170.731437 501.759113,175.950917 C504.372714,178.259533 507.206367,179.720756 510.240769,180.342306 C513.277101,181.083534 518.504302,181.388519 525.83744,181.388519 L613.966356,181.388519 C616.238297,181.388519 618.04118,179.500704 617.938875,177.236484 C617.520004,167.986577 613.674884,146.487105 586.977165,146.487105 L586.977165,146.487105 Z M499.660898,33.7297327 C500.29403,31.7048677 500.620248,29.1568966 500.620248,26.0703771 C500.620248,17.3416458 497.419841,10.5316139 490.922515,5.8545427 C487.612083,3.51118139 483.988945,1.91483889 480.157337,1.17554121 C476.207982,0.426592132 469.60063,0 460.431794,0 L386.005944,0.279890765 C383.91352,0.289542171 382.263129,2.03258604 382.353852,4.11728967 C382.492833,7.31383524 383.033311,12.0970719 384.799519,16.8204699 C388.262443,26.0838891 398.504515,36.169608 415.02,36.169608 L453.60632,36.169608 C456.748818,36.169608 458.796846,39.4645979 457.401253,42.273157 L406.540275,144.701595 C398.529608,160.834885 409.344974,179.61459 426.754179,181.369216 C428.306125,181.527499 429.798233,180.70906 430.46997,179.303815 L493.904799,46.6027776 C497.097485,40.0089372 498.910018,35.8588327 499.660898,33.7297327 L499.660898,33.7297327 Z M263.894429,105.623054 C263.894429,107.082346 262.709236,108.265609 261.248014,108.265609 L231.380774,108.265609 C229.242022,108.265609 227.985409,105.87206 229.201486,104.119365 L259.068726,61.023908 C260.545391,58.8909473 263.894429,59.9352294 263.894429,62.5256667 L263.894429,105.623054 Z M273.462833,0.00193028114 L267.552312,0.00193028114 C265.610449,0.00193028114 263.784403,0.920744104 262.632025,2.47848098 L247.606717,22.7580146 L196.724506,91.7752168 C189.316087,101.949729 185.553969,107.491566 184.152585,110.280822 C182.780155,113.137638 182.083323,116.770427 182.083323,121.080745 C182.083323,128.709216 184.812741,134.181563 190.441441,137.820143 C192.800244,139.364368 195.012347,140.292833 197.209006,140.659587 C199.631509,141.068806 204.103971,141.277277 210.504783,141.277277 L263.894429,141.277277 L263.894429,154.231393 C263.894429,169.206515 276.541631,181.388519 292.086185,181.388519 L295.317476,181.388519 C297.514136,181.388519 299.295785,179.61459 299.295785,177.421791 L299.295785,24.8871147 C299.295785,11.1647461 287.706377,0.00193028114 273.462833,0.00193028114 L273.462833,0.00193028114 Z M414.199631,89.9260075 L377.271422,88.2717566 C376.15958,82.301397 371.507603,77.5741385 365.566197,76.3445494 L363.919667,39.7425584 L362.379303,39.7425584 L360.740494,76.1380093 C354.169817,76.9043309 348.894359,81.9018288 347.724609,88.329665 L312.09741,89.9260075 L312.09741,91.4644416 L347.618443,93.0569235 C348.533397,99.8167681 353.959417,105.142414 360.771379,105.922247 L362.379303,141.647891 L363.919667,141.647891 L365.537243,105.717638 C371.712212,104.455234 376.50124,99.4094787 377.379518,93.1148319 L414.199631,91.4644416 L414.199631,89.9260075 Z" id="Fill-31" fill="#1A428A"></path>
                <path d="M70.8643847,106.256958 L129.290134,164.682708 C130.996503,166.389076 133.762596,166.389076 135.468964,164.682708 L137.829698,162.321974 C148.239704,151.911968 148.239704,135.031659 137.829698,124.619723 L103.903077,90.6950315 L137.829698,56.7703405 C148.239704,46.358404 148.239704,29.4780954 137.829698,19.0680892 L135.468964,16.7073554 C133.762596,15.0009869 130.996503,15.0009869 129.290134,16.7073554 L70.8643847,75.1331049 C62.2688428,83.7267166 62.2688428,97.6614161 70.8643847,106.256958" id="Fill-33" fill="#FFC629"></path>
                <path d="M5.97180728,105.111529 L46.3725916,145.512314 C47.9534918,147.093214 50.5169052,147.093214 52.0978054,145.512314 L54.2848139,143.327235 C63.9284985,133.68162 63.9284985,118.044413 54.2848139,108.398798 L36.5802753,90.6942594 L54.2828837,72.9916511 C63.9284985,63.3460362 63.9284985,47.7088287 54.2828837,38.0632138 L52.0978054,35.8781356 C50.5169052,34.2972353 47.9534918,34.2972353 46.3725916,35.8781356 L5.97180728,76.2789198 C-1.99060243,84.2393993 -1.99060243,97.1491195 5.97180728,105.111529" id="Fill-35" fill="#FFC629"></path>
                <path d="M729.135615,75.1325259 L670.709866,16.7067763 C669.003497,15.0004078 666.237404,15.0004078 664.531036,16.7067763 L662.170302,19.0675101 C651.760296,29.4775163 651.760296,46.3578249 662.170302,56.7697614 L696.096923,90.6944524 L662.170302,124.619143 C651.760296,135.03108 651.760296,151.911389 662.170302,162.321395 L664.531036,164.682129 C666.237404,166.388497 669.003497,166.388497 670.709866,164.682129 L729.135615,106.256379 C737.731157,97.6627673 737.731157,83.7280678 729.135615,75.1325259" id="Fill-37" fill="#E51937"></path>
                <path d="M794.028193,76.2781477 L753.627408,35.8773634 C752.046508,34.2964632 749.483095,34.2964632 747.902195,35.8773634 L745.715186,38.0624417 C736.071501,47.7080566 736.071501,63.3452641 745.715186,72.9908789 L763.419725,90.6954176 L745.717116,108.398026 C736.071501,118.043641 736.071501,133.680848 745.717116,143.326463 L747.902195,145.511541 C749.483095,147.092442 752.046508,147.092442 753.627408,145.511541 L794.028193,105.110757 C801.990602,97.1502777 801.990602,84.2405574 794.028193,76.2781477" id="Fill-39" fill="#E51937"></path>
            </g>
        </g>
    </g>
</svg>