<?xml version="1.0" encoding="UTF-8"?>
<svg width="980px" height="680px" viewBox="0 0 980 680" version="1.1" xmlns="http://www.w3.org/2000/svg" xmlns:xlink="http://www.w3.org/1999/xlink">
    <title>CR Corres de Costa Rica text</title>
    <defs>
        <linearGradient x1="50%" y1="0%" x2="50%" y2="100%" id="linearGradient-1">
            <stop stop-color="#FFFFFF" offset="0%"></stop>
            <stop stop-color="#EDEDED" offset="100%"></stop>
        </linearGradient>
        <rect id="path-2" x="0" y="0" width="900" height="600" rx="80"></rect>
        <filter x="-6.7%" y="-10.0%" width="113.3%" height="120.0%" filterUnits="objectBoundingBox" id="filter-3">
            <feMorphology radius="2.5" operator="dilate" in="SourceAlpha" result="shadowSpreadOuter1"></feMorphology>
            <feOffset dx="0" dy="0" in="shadowSpreadOuter1" result="shadowOffsetOuter1"></feOffset>
            <feGaussianBlur stdDeviation="17.5" in="shadowOffsetOuter1" result="shadowBlurOuter1"></feGaussianBlur>
            <feColorMatrix values="0 0 0 0 0   0 0 0 0 0   0 0 0 0 0  0 0 0 0.5 0" type="matrix" in="shadowBlurOuter1"></feColorMatrix>
        </filter>
        <polygon id="path-4" points="0 0 292.249336 0 292.249336 118.195528 0 118.195528"></polygon>
        <polygon id="path-6" points="0 0 32.910857 0 32.910857 38.5774244 0 38.5774244"></polygon>
    </defs>
    <g id="CR-Corres-de-Costa-Rica-text" stroke="none" stroke-width="1" fill="none" fill-rule="evenodd">
        <g transform="translate(40, 40)">
            <g id="Rectangle">
                <use fill="black" fill-opacity="1" filter="url(#filter-3)" xlink:href="#path-2"></use>
                <use fill="url(#linearGradient-1)" fill-rule="evenodd" xlink:href="#path-2"></use>
            </g>
            <g id="Logo" transform="translate(50, 188)">
                <path d="M550.248255,144.393086 C554.295237,137.637403 558.639289,131.055092 561.889536,123.840654 C566.184889,114.310036 569.396176,104.513517 569.230595,93.9173404 C568.986121,78.2222598 561.367471,66.8829196 548.164863,59.0129772 C538.288475,53.1261044 527.389384,50.164162 516.129912,48.5327074 C490.341241,44.7954588 464.721072,46.9421609 439.186616,51.1031007 C433.656228,52.0040533 428.162852,53.1358445 422.646101,54.1322493 C421.916572,54.2637397 421.155876,54.2179616 420.39518,53.9890709 C513.638413,23.1599352 608.267652,18.3707636 704.312117,38.8131338 C703.945892,40.0277152 702.916371,39.9790151 702.183921,40.2682939 C653.117558,59.6119889 609.52996,87.5424923 571.244833,123.783187 C564.125847,130.521338 557.337047,137.587729 550.661232,144.763207 C550.530716,144.630743 550.393382,144.507044 550.248255,144.393086" id="Fill-1" fill="#77B82A"></path>
                <g id="Group-5" transform="translate(507.7507, 0)">
                    <mask id="mask-5" fill="white">
                        <use xlink:href="#path-4"></use>
                    </mask>
                    <g id="Clip-4"></g>
                    <path d="M226.245259,38.7276163 C220.032096,37.1166157 214.478332,35.6059374 208.88853,34.2403856 C180.763226,27.371718 152.241503,22.9701995 123.394463,20.6267488 C121.119192,20.4416883 118.82152,20.1037094 116.561833,20.2498098 C104.230958,21.049466 93.2539471,15.4703782 81.6389641,12.934075 C64.4838533,9.18806032 47.13589,7.34135107 29.6184502,6.70727527 C19.7323221,6.34981625 9.85398602,6.25631199 0,6.51150071 C100.76156,-8.85241897 198.194954,2.8823664 292.249531,42.6353154 C228.880911,54.2493244 171.431305,79.3104157 119.246185,118.195528 C119.663058,116.406285 120.500701,115.803377 121.107504,115.073849 C121.716256,114.343347 122.359098,113.642065 122.97759,112.919355 C131.134863,103.393608 138.235343,93.2250193 142.126484,81.1376449 C142.822896,78.9724367 143.5758,76.7546324 143.762809,74.5163741 C143.996569,71.7336482 145.542312,70.5122487 147.807842,69.3590294 C172.604005,56.7349795 198.358586,46.6024287 225.21379,39.2886419 C225.303399,39.2642918 225.381319,39.2000077 226.245259,38.7276163" id="Fill-3" fill="#77B82A" mask="url(#mask-5)"></path>
                </g>
                <path d="M390.895577,128.667811 C390.848124,140.574021 397.04473,146.358624 406.81203,145.697276 C419.896783,144.810933 433.346787,133.141406 436.782095,119.691402 C439.483979,109.116654 432.606545,100.541533 421.712324,100.878538 C414.359577,101.105481 408.128881,104.162876 402.583884,108.696858 C395.607102,114.399645 391.128637,121.521553 390.895577,128.667811 M399.127148,166.226207 C392.408477,166.258474 386.624848,165.328301 381.299975,162.496875 C371.637868,157.357063 366.649025,146.820301 368.388594,134.939415 C372.142401,109.314376 387.762484,93.4420271 410.891153,84.0536144 C419.380561,80.6075926 428.343335,79.3861931 437.458053,81.2221883 C453.966426,84.5474338 462.785047,98.3023009 459.285455,115.03859 C453.873895,140.918818 429.787781,162.942969 403.50529,166.008155 C401.809551,166.205878 400.088489,166.181528 399.127148,166.226207" id="Fill-6" fill="#123351"></path>
                <path d="M93.4300477,128.776705 C93.4290737,140.155979 100.210081,146.295119 109.633558,145.29774 C123.203364,143.863034 136.504346,132.055198 139.536417,118.75032 C141.782467,108.896334 135.575148,100.817955 125.464025,100.43225 C120.17519,100.229658 115.334396,101.79488 110.834503,104.394493 C100.710718,110.24338 94.0631495,118.457145 93.4300477,128.776705 M101.033113,165.494661 C97.0075598,165.841406 93.0550566,165.334925 89.2038497,164.197289 C76.5272036,160.453223 69.3565952,149.365175 70.8253914,135.695046 C73.148388,114.073159 85.1393361,98.987804 103.335656,88.2854616 C112.748419,82.7492299 122.932592,79.6801471 133.982653,80.0044901 C146.916436,80.3843511 157.535988,87.4293132 161.100838,98.1413956 C163.573831,105.575959 162.968001,113.010522 160.258326,120.213272 C151.494249,143.509471 135.524499,158.925986 110.944565,164.745653 C109.468951,165.094346 107.955351,165.362197 106.446621,165.465441 C104.649586,165.589139 102.83794,165.494661 101.033113,165.494661" id="Fill-8" fill="#123351"></path>
                <path d="M268.799441,118.807786 C277.593712,118.468833 282.828977,114.961449 284.975679,107.970058 C286.370451,103.429257 284.767242,100.486794 280.156313,99.5147395 C278.319344,99.1280604 276.382053,99.2439668 274.503201,99.0277382 C272.970121,98.8514437 272.365265,99.5838937 271.888978,100.941654 C270.168889,105.84868 268.319258,110.711875 266.527093,115.594551 C265.298875,118.940251 265.304719,118.942199 268.799441,118.807786 M260.348993,132.627912 C259.518169,134.764874 258.966883,136.120686 258.46235,137.493056 C255.58612,145.32209 252.650475,153.13067 249.902813,161.004508 C249.250232,162.874594 248.358045,163.394711 246.445104,163.348933 C240.651735,163.210625 234.852523,163.299259 228.947144,163.299259 C228.849743,161.713582 229.664984,160.493157 230.131531,159.223057 C239.143005,134.662603 248.233373,110.129422 257.201016,85.5524098 C257.93444,83.5401201 258.758447,82.7385158 260.978199,82.809618 C271.90164,83.160259 282.847483,82.3177466 293.76021,83.3141515 C297.410772,83.6472604 300.845106,84.7732076 303.713544,87.1497744 C308.495898,91.1120177 309.111468,96.4748769 307.853056,101.979941 C304.661249,115.9374 296.858513,125.999823 282.613722,130.07018 C280.575135,130.652634 281.482905,131.556509 281.842312,132.526615 C285.362358,142.037752 288.898962,151.543045 292.429722,161.050286 C292.658613,161.665856 292.880686,162.283374 293.251781,163.299259 L278.38655,163.299259 C275.628175,163.299259 272.865903,163.202833 270.114345,163.335297 C268.45367,163.415165 267.880956,162.837582 267.494277,161.216841 C265.358289,152.264782 263.063539,143.351682 260.822358,134.425921 C260.740542,134.09963 260.651908,133.776261 260.348993,132.627912" id="Fill-10" fill="#123351"></path>
                <path d="M197.504386,118.739314 C203.286067,118.470489 209.199238,116.361773 212.125142,109.297331 C214.546513,103.448445 212.658895,100.116381 206.431122,99.2280905 C205.023688,99.027446 203.588008,99.02842 202.177652,98.8472554 C200.673791,98.6534289 200.048482,99.3342568 199.564402,100.720263 C197.812171,105.734429 195.905074,110.695025 194.067131,115.678997 C192.925599,118.774378 192.933391,118.7773 197.504386,118.739314 M208.754118,130.526696 C212.758244,141.333256 216.768213,152.155401 220.897011,163.297019 C212.661817,163.297019 204.712981,163.286305 196.76317,163.306768 C195.170676,163.310655 195.349892,162.032763 195.12295,161.119148 C192.975274,152.462212 190.868506,143.794561 188.736413,135.132755 C188.566937,134.444135 188.297138,133.779865 187.888057,132.543855 C184.823844,140.872553 181.940796,148.679185 179.079176,156.493609 C176.622741,163.203514 176.633455,163.208384 169.625505,163.208384 C166.106433,163.208384 162.577621,163.053518 159.069263,163.258059 C156.403418,163.414873 156.45017,162.599633 157.252748,160.442217 C164.723349,140.357305 172.085836,120.23246 179.479491,100.119303 C181.376849,94.9590364 183.335568,89.8201978 185.131629,84.624867 C185.617657,83.219381 186.241018,82.7236136 187.742931,82.7341581 C197.635877,82.8034818 207.529797,82.7489377 217.422743,82.7869238 C220.285337,82.7976378 223.108971,83.2690552 225.836179,84.1398136 C234.00027,86.747219 237.564146,93.3256337 235.374588,102.453014 C231.93441,116.797152 223.477144,126.564452 208.754118,130.526696" id="Fill-12" fill="#123351"></path>
                <path d="M476.724195,165.8454 C468.480236,165.743129 460.994051,163.503897 454.551022,158.172206 C453.183522,157.03944 452.878659,156.289458 454.246159,154.808974 C458.310673,150.409404 462.26415,145.900745 466.106591,141.3054 C467.370847,139.793747 467.976676,139.84537 469.19905,141.31514 C473.865497,146.924422 479.754318,149.28443 486.966808,147.258505 C490.489776,146.269892 493.24523,144.126112 494.835777,140.726842 C496.213991,137.783406 495.654913,135.688326 493.020236,133.77441 C491.22807,132.472169 489.132991,131.823483 487.066157,131.110513 C483.926946,130.027422 480.777995,128.980369 477.841376,127.37716 C473.212915,124.852545 471.151925,120.942898 471.823987,115.794319 C474.409965,95.9558308 493.562755,78.5737774 514.959648,81.4129955 C520.198809,82.1074594 525.129211,83.5928137 529.791762,86.1145068 C531.812818,87.2073379 532.374817,88.0001762 530.566094,89.9511037 C526.819106,93.9941892 523.267892,98.2242833 519.747846,102.469961 C518.671573,103.769281 518.150481,104.00499 516.776163,102.670606 C511.763945,97.8035141 504.198865,97.4431331 498.782436,101.578749 C494.017614,105.218597 494.428644,109.622064 499.877215,112.034669 C502.819677,113.337884 505.934538,114.243707 508.915961,115.467054 C517.915746,119.160473 520.898143,125.33565 518.256647,134.626663 C512.933722,153.344074 496.122434,165.989552 476.724195,165.8454" id="Fill-14" fill="#123351"></path>
                <path d="M362.196859,114.112314 C360.046261,119.952434 358.039815,125.258802 356.159016,130.609973 C355.67591,131.986239 354.754504,131.894682 353.695763,131.892734 C347.512793,131.882994 341.327875,131.963837 335.146854,131.840138 C333.399493,131.805074 332.672887,132.436228 332.150821,133.990736 C330.888514,137.749413 329.469392,141.455494 328.002544,145.488839 L351.859767,145.488839 C349.736441,151.3387 347.728048,156.834023 345.751796,162.341035 C345.251159,163.734833 344.110601,163.38614 343.121989,163.387114 C329.898927,163.399776 316.675865,163.353998 303.452804,163.43801 C301.295388,163.451398 301.186299,162.905957 301.870049,161.056325 C309.796484,139.623394 317.646946,118.162217 325.516889,96.7088324 C326.986659,92.704707 328.507077,88.7171396 329.898927,84.6857422 C330.373266,83.3123983 331.059938,82.8137089 332.550163,82.8261364 C345.863806,82.9451992 359.178424,83.0075354 372.493042,83.0114314 C374.410854,83.0124054 374.753703,83.4312266 374.020278,85.2769619 C372.235905,89.7690626 370.610295,94.3283696 369.067474,98.9100786 C368.512293,100.559065 367.643482,101.035353 365.957484,100.994445 C359.590427,100.840552 353.215579,100.923342 346.849497,100.72562 C344.853766,100.663284 344.025863,101.361644 343.44341,103.188873 C342.301878,106.778073 340.89834,110.282535 339.49675,114.112314 L362.196859,114.112314 Z" id="Fill-16" fill="#123351"></path>
                <path d="M67.4828087,109.558266 C63.3131028,101.213011 55.992498,100.164984 49.1228565,101.118533 C36.2669939,102.90388 23.3371072,117.079516 22.6143971,130.042519 C22.0757736,139.707548 28.3697795,145.519423 38.4487601,144.665222 C44.9034765,144.118807 50.5000964,141.463675 55.645753,137.689414 C56.1454165,137.323189 56.6665079,136.987158 57.6483027,136.313149 C54.5977261,144.634054 51.7322099,152.447504 48.8686418,160.260955 C48.6348811,160.897952 48.3533943,161.397616 47.5888021,161.627481 C38.8812174,164.2456 30.1356465,166.370874 20.9732025,164.132616 C5.93654771,160.458677 -2.22072548,147.843393 0.527910332,132.510642 C5.20214962,106.432692 29.2833941,83.6897269 55.6038709,80.6459683 C62.2300118,79.8794281 68.6798581,80.891417 74.8365296,83.5874567 C76.1952635,84.1825723 76.6812909,84.8117781 76.0852012,86.3760266 C73.1836469,93.9898062 70.403843,101.649364 67.4828087,109.558266" id="Fill-18" fill="#123351"></path>
                <path d="M288.83762,200.508015 C288.825912,193.144554 283.243902,187.831369 276.316794,188.590117 C267.839074,189.518342 260.556456,196.404542 259.157788,204.814082 C257.767886,213.168103 263.871961,219.956903 272.045792,219.149454 C280.933568,218.270904 288.85221,209.480529 288.83762,200.508015 M269.76273,223.175008 C260.301267,223.089295 253.835837,215.756029 254.883864,206.30041 C256.026369,195.998382 264.372598,186.801848 274.222689,184.988255 C286.316881,182.762659 294.777069,191.029994 292.814453,203.155355 C291.052482,214.038862 280.422216,223.27046 269.76273,223.175008" id="Fill-20" fill="#123351"></path>
                <path d="M151.130654,218.213827 C159.580128,218.152465 166.934822,212.224684 168.74939,204.013841 C170.257146,197.194847 167.669221,191.58167 162.145651,189.796322 C160.331084,189.209973 158.412298,189.229453 156.535395,188.994718 C154.245514,188.709335 153.270538,189.376527 152.820548,191.775496 C151.405322,199.311355 149.712505,206.794619 148.112219,214.295414 C147.268733,218.244995 147.255097,218.242073 151.130654,218.213827 M148.42877,222.225745 C142.169828,222.224771 142.193204,222.229641 143.495446,216.125565 C145.516502,206.658258 147.566777,197.196795 149.452447,187.70319 C149.884904,185.526294 150.703066,184.682808 152.960805,184.952607 C155.025691,185.198055 157.140251,184.995463 159.228513,185.095785 C169.528592,185.58863 175.19534,193.01735 173.038898,203.155744 C170.439284,215.381427 161.606053,222.225745 148.42877,222.225745" id="Fill-22" fill="#123351"></path>
                <path d="M401.104471,202.614199 C403.138189,202.659977 404.731657,202.641471 406.308568,202.233364 C410.939951,201.033392 413.165547,197.850351 412.74283,193.130334 C412.59186,191.451153 411.499028,190.614485 410.161723,190.114821 C408.197159,189.382371 406.131299,189.143741 404.083945,189.824569 C403.849211,189.902489 403.720642,190.465462 403.641748,190.824869 C402.80021,194.680946 401.978151,198.541893 401.104471,202.614199 M400.313581,206.633908 C399.292826,211.334446 398.278889,216.036931 397.249368,220.736494 C396.887039,222.390351 394.542614,223.468572 393.152712,222.653332 C392.440716,222.235485 392.854667,221.679329 392.960834,221.179666 C395.391945,209.772145 397.825004,198.365599 400.282413,186.963922 C400.431435,186.27238 400.494745,185.421102 401.6129,185.460062 C405.206971,185.584734 408.849741,185.067539 412.359073,186.255822 C415.982363,187.483066 417.710244,190.242416 417.158959,194.270891 C416.259954,200.836644 412.554847,204.909923 405.843968,206.261839 C408.37248,211.660737 410.851317,216.953468 413.344764,222.278341 C408.755263,223.268902 408.706562,223.231889 406.931929,219.27062 C405.011196,214.98306 403.059294,210.709136 401.121029,206.429368 C400.85123,206.497548 400.582405,206.565728 400.313581,206.633908" id="Fill-24" fill="#123351"></path>
                <path d="M477.645115,208.316985 C481.293729,208.316985 484.333592,208.262441 487.371507,208.341335 C488.788681,208.377373 489.520157,208.112445 489.183152,206.467354 C488.357197,202.438878 487.617929,198.392871 486.743275,193.828694 C483.606012,198.824354 480.759976,203.357363 477.645115,208.316985 M464.10258,222.515023 C472.33193,209.657213 480.493099,196.905569 488.974715,183.652313 C490.431823,190.867725 491.792505,197.554254 493.128837,204.245654 C494.22459,209.728315 495.309629,215.212925 496.351812,220.705326 C496.495964,221.4631 497.407631,222.85982 495.630076,222.71859 C494.403807,222.62119 492.475281,223.942912 491.990228,221.489399 C491.493486,218.979393 490.913955,216.481076 490.545782,213.951591 C490.350981,212.615259 489.784111,212.275332 488.517908,212.298708 C484.624819,212.368837 480.728808,212.378577 476.836693,212.292864 C475.515945,212.264618 474.776677,212.734088 474.136757,213.853217 C473.007888,215.826546 471.489417,217.601179 470.547557,219.649507 C469.265769,222.433207 467.37036,223.418898 464.10258,222.515023" id="Fill-26" fill="#123351"></path>
                <path d="M352.876529,208.129197 C356.81637,208.129197 360.11337,208.123353 363.410369,208.134085 C364.177883,208.136015 364.745727,207.974331 364.562614,207.0276 C363.742504,202.801402 362.914601,198.575204 361.959105,193.674996 C358.796518,198.707669 356.003078,203.153017 352.876529,208.129197 M339.286268,222.405156 C347.570162,209.452867 355.685553,196.764533 363.8438,184.010941 C365.009681,184.890465 364.702871,186.145955 364.910333,187.167684 C367.170994,198.324885 369.383928,209.492801 371.54037,220.671431 C371.660172,221.292845 372.81534,222.772355 370.877074,222.635021 C369.582624,222.543464 367.637541,223.733696 367.134955,221.349337 C366.646006,219.029262 366.152187,216.698474 365.88044,214.347231 C365.689535,212.696296 365.082732,212.057351 363.366539,212.108973 C359.662406,212.221957 355.949508,212.218061 352.245375,212.107999 C350.685023,212.062221 349.839588,212.662206 349.11493,213.975162 C348.015281,215.964076 346.510447,217.746501 345.552028,219.791907 C344.285825,222.496712 342.390415,223.258382 339.286268,222.405156" id="Fill-28" fill="#123351"></path>
                <path d="M184.970432,222.420837 C182.496465,222.422785 180.02055,222.369215 177.548531,222.444213 C176.115773,222.48707 175.470983,222.261101 175.848896,220.548804 C178.325785,209.331214 180.734494,198.09804 183.097424,186.855126 C183.396443,185.43503 184.036363,185.041533 185.413603,185.061987 C190.266085,185.133089 195.120515,185.054195 199.972022,185.128219 C200.684992,185.138933 202.218073,184.359731 201.958014,186.13339 C201.779772,187.347972 202.248267,189.182019 199.907738,189.123579 C196.484118,189.037866 193.045889,189.268705 189.634931,189.042736 C187.305116,188.888844 186.389554,189.770317 186.159689,191.942343 C186.010667,193.350751 185.603534,194.731887 185.316203,196.126659 C184.530182,199.937931 184.531156,199.937931 188.545996,199.937931 C191.209893,199.938905 193.875739,199.900919 196.538663,199.961308 C197.320787,199.97884 198.830491,199.448008 198.366866,201.121345 C198.077587,202.16645 198.687313,204.016081 196.466586,203.969329 C192.852062,203.893357 189.232668,204.014133 185.619118,203.916733 C184.243826,203.879721 183.528908,204.269322 183.249369,205.652406 C182.513997,209.280566 181.734795,212.901908 180.900074,216.508641 C180.524109,218.136199 181.209807,218.449828 182.663019,218.417686 C186.086639,218.341714 189.515129,218.352428 192.938748,218.429374 C193.621524,218.444958 195.092269,217.85179 194.85169,219.192992 C194.648123,220.322835 195.268563,222.391617 192.964072,222.413045 C190.299201,222.437395 187.635303,222.418889 184.970432,222.420837" id="Fill-30" fill="#123351"></path>
                <path d="M251.374434,193.207572 C245.309319,187.410308 238.709476,186.908696 231.945027,191.983251 C227.029235,195.669851 223.76243,200.463893 223.663081,206.852377 C223.526721,215.642752 230.817132,221.028987 239.264658,218.4771 C242.018164,217.645302 244.439534,216.166766 246.744025,214.351224 C247.147262,218.875467 244.661607,220.881913 240.864944,222.034158 C234.631327,223.925672 228.703546,223.678275 223.827688,219.00014 C218.934298,214.30642 218.236912,208.275395 220.29011,202.118724 C223.486787,192.52577 230.131434,186.576561 240.207492,184.698684 C242.498347,184.272071 244.761929,184.516546 246.986552,185.070753 C252.334801,186.402215 253.147119,187.944061 251.374434,193.207572" id="Fill-32" fill="#123351"></path>
                <g id="Group-36" transform="translate(433.632, 184.9007)">
                    <mask id="mask-7" fill="white">
                        <use xlink:href="#path-6"></use>
                    </mask>
                    <g id="Clip-35"></g>
                    <path d="M32.0064511,8.5905089 C22.5518063,-1.7495045 7.88819457,7.14216678 4.82787787,18.3149526 C3.41557386,23.4713232 4.19867208,28.2322487 8.36837794,31.842877 C12.4124374,35.345391 17.1071308,35.1311104 21.76676,33.1694688 C23.7459337,32.3357224 25.5546568,31.0997129 27.372146,30.083828 C27.8435633,34.2389238 25.4017384,36.052517 21.8144862,37.3372266 C9.15245017,41.8712095 -1.72326475,33.4694616 0.227662794,20.3808124 C1.1782895,14.0010943 4.60288323,8.91290382 9.67841166,4.97111461 C14.1851225,1.47054866 19.2294828,-0.460898833 25.0296693,0.0942827455 C26.1556165,0.202397053 27.2990958,0.384535571 28.3734208,0.72543654 C33.1869425,2.25559489 33.7538121,3.46530633 32.0064511,8.5905089" id="Fill-34" fill="#123351" mask="url(#mask-7)"></path>
                </g>
                <path d="M299.300338,212.502957 C300.324989,217.427515 302.283708,219.454415 305.784274,219.210914 C309.977356,218.919687 314.079856,214.979846 314.274656,210.927994 C314.367187,208.997521 313.535388,207.38652 311.846467,206.385245 C309.728985,205.128782 307.498519,204.058353 305.401491,202.769747 C301.163605,200.16429 300.126292,196.922808 301.915535,192.295321 C304.025225,186.838958 310.54033,183.472804 316.085328,184.967899 C317.795676,185.429576 319.294667,186.26527 320.211203,187.796403 C320.849175,188.861962 322.486474,190.005441 320.367044,191.29502 C318.934286,192.167727 317.885285,192.916735 316.703819,190.693087 C315.442486,188.318468 312.907156,188.403206 310.60851,189.016828 C307.79559,189.768758 306.054073,191.773256 305.446295,194.556956 C304.930074,196.923782 306.603411,198.222128 308.395576,199.252623 C310.448774,200.434088 312.604242,201.441207 314.628219,202.667477 C317.702172,204.52977 318.917728,207.293016 318.468712,210.891956 C317.636914,217.564849 310.912399,223.484838 304.210286,223.248155 C300.635696,223.121535 297.757517,221.700465 296.218593,218.271975 C294.42448,214.273694 294.933883,213.356183 299.300338,212.502957" id="Fill-37" fill="#123351"></path>
                <path d="M338.002435,185.446718 C341.042298,185.446718 344.084109,185.3912 347.121049,185.489574 C347.791163,185.511002 349.363204,184.743488 348.934642,186.619418 C348.66874,187.782377 349.042757,189.477142 346.876574,189.321301 C345.267522,189.205395 343.616587,189.484934 342.032859,189.255069 C339.727394,188.920012 339.404025,190.335238 339.046566,192.010523 C337.009926,201.572308 334.800888,211.100003 332.951257,220.697826 C332.408737,223.509772 330.645792,222.804594 329.205242,222.58447 C327.733524,222.360449 328.702657,220.987105 328.851679,220.271213 C330.768517,211.070783 332.773014,201.888859 334.767772,192.704987 C335.508014,189.300847 335.522624,189.303769 332.053226,189.298899 C331.197078,189.297925 330.322423,189.409936 329.489651,189.267731 C328.633503,189.122605 327.044904,190.006025 327.122824,188.305416 C327.189056,186.876554 327.1462,184.996729 329.73023,185.217828 C332.469126,185.450614 335.243085,185.26945 338.002435,185.26945 C338.002435,185.328864 338.002435,185.387304 338.002435,185.446718" id="Fill-39" fill="#123351"></path>
                <path d="M421.787517,222.728525 C419.872628,223.097672 419.736267,222.167499 420.102492,220.505851 C422.507305,209.567799 424.84686,198.615138 427.177648,187.661503 C427.472771,186.273549 427.735752,185.337533 429.624343,185.379415 C431.641503,185.423245 431.753513,186.126475 431.394106,187.755007 C428.959099,198.783641 426.536755,209.814222 424.235186,220.871102 C423.911817,222.427558 423.419946,223.091828 421.787517,222.728525" id="Fill-41" fill="#123351"></path>
                <path d="M549.776351,145.639517 C549.358504,145.006415 549.821155,144.706423 550.247768,144.392794 C550.393869,144.507726 550.531203,144.63045 550.661719,144.762915 C550.353935,145.035636 550.045176,145.306408 549.736417,145.578155 L549.776351,145.639517 Z" id="Fill-43" fill="#77B82A"></path>
                <path d="M549.736222,145.577863 C549.638822,145.698639 549.540447,145.818442 549.443047,145.939218 C549.422593,145.824286 549.401165,145.709353 549.380711,145.594421 C549.513175,145.609031 549.644666,145.623641 549.776156,145.639225 C549.776156,145.639225 549.736222,145.577863 549.736222,145.577863" id="Fill-45" fill="#77B82A"></path>
                <path d="M626.240536,118.133874 C626.264886,118.267312 626.29021,118.400751 626.31456,118.535163 C626.195732,118.525423 626.076903,118.516657 625.958075,118.506917 C626.067163,118.403673 626.176252,118.299454 626.28534,118.195236 L626.240536,118.133874 Z" id="Fill-47" fill="#77B82A"></path>
                <path d="M626.285632,118.195723 C626.458031,118.052545 626.631403,117.91034 626.803802,117.767162 C626.83497,117.85677 626.919708,117.976572 626.889514,118.030143 C626.725881,118.318447 626.493095,118.318447 626.240828,118.134361 C626.240828,118.134361 626.285632,118.195723 626.285632,118.195723" id="Fill-49" fill="#77B82A"></path>
            </g>
        </g>
    </g>
</svg>