<?xml version="1.0" encoding="UTF-8"?>
<svg width="980px" height="680px" viewBox="0 0 980 680" version="1.1" xmlns="http://www.w3.org/2000/svg" xmlns:xlink="http://www.w3.org/1999/xlink">
    <title>CR Corres de Costa Rica</title>
    <defs>
        <linearGradient x1="50%" y1="0%" x2="50%" y2="100%" id="linearGradient-1">
            <stop stop-color="#FFFFFF" offset="0%"></stop>
            <stop stop-color="#EDEDED" offset="100%"></stop>
        </linearGradient>
        <rect id="path-2" x="0" y="0" width="900" height="600" rx="80"></rect>
        <filter x="-6.7%" y="-10.0%" width="113.3%" height="120.0%" filterUnits="objectBoundingBox" id="filter-3">
            <feMorphology radius="2.5" operator="dilate" in="SourceAlpha" result="shadowSpreadOuter1"></feMorphology>
            <feOffset dx="0" dy="0" in="shadowSpreadOuter1" result="shadowOffsetOuter1"></feOffset>
            <feGaussianBlur stdDeviation="17.5" in="shadowOffsetOuter1" result="shadowBlurOuter1"></feGaussianBlur>
            <feColorMatrix values="0 0 0 0 0   0 0 0 0 0   0 0 0 0 0  0 0 0 0.5 0" type="matrix" in="shadowBlurOuter1"></feColorMatrix>
        </filter>
        <polygon id="path-4" points="0 0 615.902266 0 615.902266 249.091733 0 249.091733"></polygon>
    </defs>
    <g id="CR-Corres-de-Costa-Rica" stroke="none" stroke-width="1" fill="none" fill-rule="evenodd">
        <g transform="translate(40, 40)">
            <g id="Rectangle">
                <use fill="black" fill-opacity="1" filter="url(#filter-3)" xlink:href="#path-2"></use>
                <use fill="url(#linearGradient-1)" fill-rule="evenodd" xlink:href="#path-2"></use>
            </g>
            <g id="Logo" transform="translate(50, 146)">
                <path d="M273.659487,304.301902 C282.188317,290.064605 291.343211,276.192683 298.19296,260.98858 C307.245221,240.903235 314.012864,220.257512 313.66391,197.92655 C313.148691,164.849877 297.092731,140.95273 269.268832,124.367182 C248.454791,111.960864 225.485449,105.718704 201.756621,102.280487 C147.408162,94.4044046 93.4148139,98.9284823 39.6021008,107.697475 C27.9470586,109.596192 16.3700178,111.981391 4.743713,114.081269 C3.20626556,114.358379 1.60313278,114.261903 0,113.779527 C196.505899,48.8085167 395.932743,38.715554 598.342112,81.7969251 C597.57031,84.3566006 595.400641,84.2539672 593.857035,84.8636093 C490.451892,125.629572 398.593,184.491846 317.908825,260.867472 C302.905883,275.067821 288.598796,289.959919 274.529817,305.081916 C274.25476,304.802753 273.965334,304.542064 273.659487,304.301902" id="Fill-1" fill="#77B82A"></path>
                <g id="Group-5" transform="translate(184.0977, 0)">
                    <mask id="mask-5" fill="white">
                        <use xlink:href="#path-4"></use>
                    </mask>
                    <g id="Clip-4"></g>
                    <path d="M476.801658,81.6167009 C463.707696,78.22159 452.00339,75.0379038 440.223135,72.1600649 C380.950328,57.6846585 320.842086,48.4086572 260.048253,43.4699409 C255.253223,43.0799342 250.410982,42.3676588 245.648795,42.6755588 C219.662034,44.3607983 196.528479,32.6031228 172.050427,27.2579784 C135.896806,19.3634218 99.3367577,15.4715656 62.4195451,14.1352795 C41.5849769,13.3819507 20.7668301,13.1848947 0,13.7226934 C212.350434,-18.6560729 417.686906,6.0744569 615.902677,89.8520002 C482.356174,114.327999 361.283728,167.143116 251.305945,249.091733 C252.184487,245.320984 253.94978,244.050384 255.228591,242.512936 C256.511508,240.973436 257.866268,239.495516 259.169712,237.972437 C276.360796,217.897356 291.324737,196.467514 299.525141,170.993919 C300.992798,166.430841 302.579509,161.756919 302.973621,157.03989 C303.466261,151.175421 306.723844,148.601377 311.498347,146.171019 C363.755138,119.566405 418.031754,98.2125121 474.627884,82.799037 C474.816729,82.7477203 474.980942,82.6122443 476.801658,81.6167009" id="Fill-3" fill="#77B82A" mask="url(#mask-5)"></path>
                </g>
                <path d="M272.66497,306.9287 C271.784376,305.594466 272.759392,304.962245 273.65846,304.301286 C273.96636,304.543501 274.255786,304.802137 274.530844,305.0813 C273.882201,305.656046 273.231506,306.226688 272.58081,306.799382 L272.66497,306.9287 Z" id="Fill-43" fill="#77B82A"></path>
                <path d="M272.5804,306.798766 C272.375133,307.053297 272.167814,307.305775 271.962547,307.560305 C271.919441,307.318091 271.874282,307.075876 271.831176,306.833661 C272.110339,306.864451 272.387449,306.895241 272.664559,306.928084 C272.664559,306.928084 272.5804,306.798766 272.5804,306.798766" id="Fill-45" fill="#77B82A"></path>
                <path d="M433.809783,248.9618 C433.8611,249.243015 433.914469,249.52423 433.965786,249.807498 C433.71536,249.786972 433.464935,249.768498 433.21451,249.747971 C433.444408,249.530388 433.674307,249.310753 433.904206,249.091118 L433.809783,248.9618 Z" id="Fill-47" fill="#77B82A"></path>
                <path d="M433.904821,249.092144 C434.268143,248.790402 434.633518,248.490713 434.99684,248.188971 C435.062526,248.377816 435.241108,248.630294 435.177475,248.743191 C434.832627,249.35078 434.342039,249.35078 433.810399,248.962826 C433.810399,248.962826 433.904821,249.092144 433.904821,249.092144" id="Fill-49" fill="#77B82A"></path>
            </g>
        </g>
    </g>
</svg>