<?xml version="1.0" encoding="UTF-8"?>
<svg width="980px" height="680px" viewBox="0 0 980 680" version="1.1" xmlns="http://www.w3.org/2000/svg" xmlns:xlink="http://www.w3.org/1999/xlink">
    <title>CY Cyprus Post</title>
    <defs>
        <rect id="path-1" x="0" y="0" width="900" height="600" rx="80"></rect>
        <filter x="-6.7%" y="-10.0%" width="113.3%" height="120.0%" filterUnits="objectBoundingBox" id="filter-2">
            <feMorphology radius="2.5" operator="dilate" in="SourceAlpha" result="shadowSpreadOuter1"></feMorphology>
            <feOffset dx="0" dy="0" in="shadowSpreadOuter1" result="shadowOffsetOuter1"></feOffset>
            <feGaussianBlur stdDeviation="17.5" in="shadowOffsetOuter1" result="shadowBlurOuter1"></feGaussianBlur>
            <feColorMatrix values="0 0 0 0 0   0 0 0 0 0   0 0 0 0 0  0 0 0 0.5 0" type="matrix" in="shadowBlurOuter1"></feColorMatrix>
        </filter>
    </defs>
    <g id="CY-Cyprus-Post" stroke="none" stroke-width="1" fill="none" fill-rule="evenodd">
        <g transform="translate(40, 40)">
            <g id="Rectangle">
                <use fill="black" fill-opacity="1" filter="url(#filter-2)" xlink:href="#path-1"></use>
                <use fill="#FDCE70" fill-rule="evenodd" xlink:href="#path-1"></use>
            </g>
            <g id="Group" transform="translate(50.2673, 86.4179)" fill-rule="nonzero">
                <path d="M296.246308,207.837653 C302.511126,201.495493 309.317347,195.617393 315.736851,189.352575 C313.648579,183.861192 311.714993,178.369809 309.549377,172.878426 C301.196287,151.454298 276.369049,143.719956 261.519112,128.251271 C258.365403,127.839841 255.185894,127.658894 252.005871,127.709867 C260.128086,137.364703 269.254404,146.128043 279.230755,153.851944 C275.827645,154.470692 272.424534,155.089439 269.098767,155.862873 C271.960474,158.879267 274.82218,161.973004 277.76123,164.912054 L270.026888,164.447993 C273.1644,168.589696 276.772128,172.353154 280.777624,175.662789 L275.208897,178.137779 L284.567452,185.872121 L280.158876,187.65102 C284.911971,194.843756 290.295679,201.599274 296.246308,207.837653 L296.246308,207.837653 Z" id="Path" fill="#FCFDFA"></path>
                <path d="M365.004611,145.112137 C356.574178,153.31054 346.751563,159.884731 338.243787,168.315164 C334.948115,173.660087 332.348951,179.404239 330.509445,185.408061 C338.761436,186.153542 346.716247,188.858178 353.712472,193.29709 C364.849924,193.29709 361.446814,179.452617 370.186621,176.12685 L371.965519,174.889355 C370.882711,173.110456 369.72256,171.331558 368.562409,169.552659 C372.411527,164.655111 375.901099,159.485375 379.003771,154.083974 L372.120206,152.84648 C378.345045,146.195901 383.346087,138.497963 386.8928,130.107513 C379.262899,134.603735 371.94974,139.616996 365.004611,145.112137 Z" id="Path" fill="#FCFDFA"></path>
                <path d="M359.667915,214.025127 C366.004294,210.128524 372.814589,207.061291 379.931892,204.898603 C377.22493,202.422385 375.611496,198.972975 375.445973,195.308019 C366.474136,195.308019 359.977289,202.191583 351.005452,203.042361 C348.221089,198.711129 346.132816,192.214282 339.945342,192.059595 C326.487587,189.507262 314.189982,197.241604 304.908772,206.136098 C296.990331,213.617053 291.358014,223.191992 288.666653,233.7477 C296.400995,234.211761 303.439247,239.39377 310.864215,236.764093 C321.546971,239.242794 332.727542,238.461501 342.961736,234.521134 C342.961736,231.736771 342.110958,228.952408 341.724241,226.245388 C335.227393,220.754005 330.432101,210.776703 341.724241,207.605623 C342.188302,211.859511 342.497675,216.1134 342.807049,220.444631 L350.541391,220.444631 L354.949966,220.057914 C354.949966,219.207136 354.949966,217.350894 354.949966,216.422773 L348.839836,215.881369 C349.38124,214.102471 349.999987,212.246228 350.618735,210.46733 L359.667915,214.025127 Z" id="Path" fill="#FCFDFA"></path>
                <path d="M98.9432368,270.408482 C95.7721565,266.928028 92.6010761,263.370231 89.5846826,259.812433" id="Path" fill="#FCFDFA"></path>
                <path d="M792.791083,228.256317 C724.960901,155.78553 656.125255,84.1655203 588.295073,11.6947331 C585.406569,8.587717 581.572989,6.52138991 577.38965,5.81663296 C575.146691,12.6228542 581.256821,17.340803 585.123993,21.9814083 C652.103397,92.4412665 718.541397,163.442529 785.752831,233.593013 C789.929376,239.6258 797.895749,233.902387 792.791083,228.256317 Z" id="Path" fill="#D9B282"></path>
                <path d="M384.649841,37.9914968 C345.608051,23.0136348 302.685116,21.4894215 262.679263,33.6602652 C255.367182,34.7057132 248.572555,38.0353511 243.266064,43.1735062 C293.894868,22.6608774 350.814129,24.3729459 400.118525,47.891455 C397.566192,41.5492943 389.986537,40.5438298 384.649841,37.9914968 Z" id="Path" fill="#D9B282"></path>
                <path d="M485.19629,140.703562 C470.294822,106.489562 444.449241,78.1954533 411.720039,60.2664026 C353.775683,25.07077 281.090199,24.9218243 223.002087,59.8796855 C204.525079,69.4293817 188.610509,83.2750579 176.596033,100.252952 C155.635966,131.886412 138.697756,168.160477 138.929786,206.832189 C137.041092,268.832945 166.4534,327.628499 217.20133,363.297933 C230.234459,371.985557 244.002491,379.516567 258.348031,385.804869 L263.839414,387.506425 C263.452697,380.545516 265.773,372.03774 262.524576,366.082296 C196.437383,341.413741 153.828559,276.908117 157.074884,206.441699 C160.321208,135.975281 208.680398,75.6604724 276.755766,57.1726657 C311.003945,47.4719424 347.524878,49.6250422 380.395952,63.2827961 C441.516062,88.2815899 481.311765,147.913921 480.942402,213.947784 C480.832161,248.471692 470.02379,282.112747 450.005033,310.240345 C465.028625,296.666755 478.871356,281.840802 491.383764,265.922564 C502.289187,254.32105 500.742318,237.460184 502.289187,222.842277 C503.836055,205.904068 499.736854,189.197888 498.422016,172.491709 C508.089943,196.313483 503.913399,223.461025 502.675904,248.597637 C508.386378,244.757848 512.097893,238.581432 512.808874,231.736771 C512.891574,206.003697 507.623865,180.534321 497.339208,156.945681 C498.256503,162.047826 498.619548,167.234183 498.422016,172.414366 C500.89733,166.457675 500.892988,159.759424 498.409953,153.805947 C495.926918,147.852471 491.170552,143.136161 485.19629,140.703562 Z" id="Path" fill="#D9B282"></path>
                <path d="M728.982759,184.557283 C726.148125,180.101713 722.856077,175.95425 719.160144,172.182335 C680.488433,131.731725 642.744843,91.0490849 604.459848,50.5984748 C599.585482,44.4765205 594.061832,38.9010058 587.985699,33.9696389 L587.521639,43.1735062 C591.467288,46.2294391 595.189272,49.5637161 598.659092,53.1508077 C636.557369,93.3693876 674.919706,133.20125 712.97267,173.342487 C716.783721,178.887747 722.469086,182.870249 728.982759,184.557283 Z" id="Path" fill="#D9B282"></path>
                <path d="M711.348459,183.551819 C713.652328,185.593146 716.623427,186.721063 719.701548,186.722899 C681.880615,144.49339 641.584691,104.352154 602.91298,62.9734224 C598.37143,57.4433655 593.177459,52.4831226 587.444295,48.2008287 C587.444295,50.5984748 587.444295,52.9961209 588.217729,55.393767 C630.292552,96.7724982 669.969727,141.012936 711.348459,183.551819 Z" id="Path" fill="#D9B282"></path>
                <path d="M586.361487,59.1835947 C585.74274,62.5867053 585.356023,66.1445027 584.814619,69.6249568 C624.801168,109.534163 662.622102,151.763672 702.376622,191.904908 L710.110964,187.805707 C668.345516,145.498855 628.977713,100.639669 586.361487,59.1835947 Z" id="Path" fill="#D9B282"></path>
                <path d="M611.188726,120.516929 C634.907376,145.266824 658.600244,170.119844 682.267332,195.075989 C686.52122,200.722058 692.786037,195.075989 697.736016,193.374433 C659.915082,153.851944 623.02227,113.401334 584.041185,75.0389964 C582.674382,80.5747605 582.152859,86.2854363 582.494316,91.977206 C592.884244,100.623213 602.486684,110.173888 611.188726,120.516929 L611.188726,120.516929 Z" id="Path" fill="#D9B282"></path>
                <path d="M681.339211,200.644715 C649.24169,164.138619 614.282463,130.184857 581.488852,94.2975087 C575.146691,113.478678 571.975611,133.587967 564.550642,152.459763 C547.689776,198.169725 519.30474,238.465649 489.527522,276.209239 C455.187042,316.118445 414.659089,356.104995 362.297591,369.717437 C360.700188,376.503224 360.178208,383.497754 360.750723,390.445475 C398.494313,380.700203 431.597298,358.812015 463.926849,337.774604 C536.784353,292.915418 603.14501,236.996124 681.339211,200.644715 Z" id="Path" fill="#D9B282"></path>
                <path d="M245.43168,113.401334 C243.884811,123.765353 253.939456,130.494231 254.24883,140.471532 C256.250758,153.844122 261.363643,166.560106 269.17611,177.596375 C269.17611,189.584606 285.727603,193.52912 285.650259,206.445472 C288.898683,208.069684 292.22445,209.693895 295.627561,211.163421 C295.627561,210.312643 296.168965,208.688431 296.400995,207.837653 C290.358883,201.674474 284.896081,194.968949 280.081533,187.805707 L284.490108,186.026808 L275.131554,178.292466 L280.70028,175.817476 C276.732047,172.467936 273.1285,168.70884 269.949545,164.60268 L277.683887,165.066741 C274.744837,162.12769 271.88313,159.033954 269.021424,156.01756 C272.424534,155.244126 275.750301,154.625378 279.230755,154.006631 C269.229688,146.28432 260.077559,137.521091 251.928527,127.864554 C255.134308,127.81119 258.339704,127.99214 261.519112,128.405958 C257.750831,121.929645 252.154452,116.709945 245.43168,113.401334 L245.43168,113.401334 Z" id="Path" fill="#F8AB42"></path>
                <path d="M372.120206,174.657325 C380.473296,170.635467 378.694397,160.580822 382.793599,153.697257 C386.196709,148.051188 384.18578,140.935593 387.743578,135.289523 C390.788591,130.505378 392.174715,124.852166 391.688092,119.202091 C382.181201,127.073526 373.262905,135.62992 365.004611,144.802764 C372.004653,139.345676 379.340978,134.334243 386.970143,129.79814 C383.52402,138.362037 378.544031,146.225178 372.274893,153.001167 L379.158458,154.161318 C376.026155,159.544183 372.537943,164.711905 368.717096,169.630002 C369.877247,171.331558 371.037398,173.110456 372.120206,174.657325 Z" id="Path" fill="#F8AB42"></path>
                <path d="M145.581321,146.194945 C126.26431,187.468947 123.876692,234.666039 138.929786,277.678764 C157.182834,335.995705 204.052948,386.887677 263.916758,402.743079 C263.916758,398.643877 263.916758,394.467333 263.916758,390.368131 L259.121465,389.362667 C174.0437,361.828408 118.820496,264.917099 138.233696,177.751062 C139.625877,166.922983 144.421169,157.100368 145.581321,146.194945 Z" id="Path" fill="#D9B282"></path>
                <path d="M21.1357534,156.172247 C25.7763588,153.851944 19.9756021,149.366026 17.1912389,152.227732 C12.8600072,155.321469 7.52331103,158.647236 6.51784653,164.293306 C12.0092295,167.696417 16.8818652,159.18864 21.1357534,156.172247 Z" id="Path" fill="#D9B282"></path>
                <path d="M27.3232273,156.868338 C21.3707463,159.434719 16.0807974,163.322832 11.8545427,168.237821 C17.3459257,172.259679 25.1576114,162.359721 27.3232273,156.868338 Z" id="Path" fill="#D9B282"></path>
                <path d="M45.3442448,174.657325 C46.7364264,169.088599 42.095821,164.83471 39.0794275,160.890196 C30.8810247,160.890196 25.3122983,167.619073 19.6662284,172.646396 C14.0201585,177.673718 19.047481,186.258838 25.3896417,186.490869 C33.9747616,187.960394 40.1622355,180.303395 45.3442448,174.657325 Z" id="Path" fill="#D9B282"></path>
                <path d="M304.908772,206.290785 C314.189982,197.396291 326.487587,189.661949 339.945342,192.214282 C346.132816,192.214282 348.221089,198.865816 350.928108,203.197048 C359.667915,202.191583 366.396793,195.462706 375.36863,195.462706 L376.760812,195.462706 C376.760812,194.921302 376.760812,193.838494 376.760812,193.29709 C368.167849,194.085543 359.730467,196.090723 351.701543,199.252533 C360.209319,194.225211 371.965519,188.424454 370.418651,176.513567 C361.833531,179.839334 365.081955,193.993181 353.944502,193.606464 C346.91503,188.931341 338.889664,185.964869 330.509445,184.944 C332.349525,178.964822 334.948843,173.246323 338.243787,167.928447 C330.591706,173.001959 326.578481,182.054347 327.957112,191.131474 L319.294648,192.291625 C316.587629,185.717434 315.659508,177.673718 309.549377,173.110456 C311.714993,178.60184 313.648579,184.093223 315.736851,189.584606 C309.317347,195.849423 302.511126,201.65018 296.246308,208.069684 L304.908772,206.290785 Z" id="Path" fill="#FCFDFA"></path>
                <path d="M136.53214,291.523237 C131.891535,277.060017 130.42201,259.657747 117.428315,249.835132 C97.2674626,229.725842 77.1581727,209.56499 57.100445,189.352575 C52.7692134,184.944 46.5817395,177.054971 41.6317605,185.253374 C63.2105755,211.008734 86.0268852,235.681286 108.147104,260.972585 C118.279092,270.485826 125.549374,282.938117 136.53214,291.523237 Z" id="Path" fill="#D9B282"></path>
                <path d="M142.796958,304.439588 C116.42285,274.507684 89.7393695,244.962496 63.4426057,215.030592 C54.3160818,206.290785 47.9739212,194.998645 37.6872459,187.41899 C43.1759253,196.499038 49.6050643,204.976169 56.8684148,212.710289 C84.7893904,247.901546 115.494729,280.849844 146.354755,313.256739 C145.905599,310.07153 144.684176,307.044526 142.796958,304.439588 Z" id="Path" fill="#D9B282"></path>
                <path d="M729.91088,185.949465 C729.91088,192.600999 735.479607,197.086918 739.346778,202.036897 L745.766282,202.036897 C742.137027,195.262102 736.632237,189.676755 729.91088,185.949465 Z" id="Path" fill="#D9B282"></path>
                <path d="M718.773427,189.584606 C722.002431,194.581746 725.623171,199.314571 729.601506,203.738452 L735.32492,204.357199 C731.225718,197.860352 727.20386,190.12601 718.773427,189.584606 Z" id="Path" fill="#D9B282"></path>
                <path d="M719.778892,208.379057 C721.944508,207.450936 724.110123,206.368128 726.275739,205.362664 C721.016386,198.865816 714.983599,189.893979 705.393015,194.379898 C709.105499,199.40722 713.127357,204.202512 717.071872,209.075148 L719.778892,208.379057 Z" id="Path" fill="#D9B282"></path>
                <path d="M713.282044,210.157956 C709.937831,205.035219 705.565773,200.663161 700.443036,197.318948 C696.475686,198.301376 692.61544,199.674484 688.918866,201.418149 C692.789152,206.723967 697.712948,211.173815 703.382086,214.489188 C706.63051,213.329036 709.878934,211.395451 713.282044,210.157956 Z" id="Path" fill="#D9B282"></path>
                <path d="M453.794861,363.375277 C508.976484,322.702242 566.517516,285.331562 626.116007,251.459344 C646.876353,238.816636 668.722033,228.049096 691.393856,219.28448 L696.189148,215.649339 C691.625886,211.318107 687.371998,200.876745 679.792342,205.594694 C618.768382,235.681286 563.777208,275.899865 508.0126,314.571577 C462.534667,343.34333 418.99032,377.065062 367.092884,393.539212 C361.292127,394.544676 359.358541,399.417312 360.441349,404.754008 C363.071026,404.754008 365.700702,404.754008 368.175692,404.212604 C398.803687,395.395454 426.337946,378.921305 453.794861,363.375277 Z" id="Path" fill="#D9B282"></path>
                <path d="M350.386704,220.289944 L342.652362,220.289944 C342.652362,216.036056 342.033615,211.704824 341.569554,207.450936 C330.509445,210.854047 335.304737,220.599318 341.569554,226.090701 C344.663291,224.466489 347.602341,222.45556 350.386704,220.289944 Z" id="Path" fill="#FCFDFA"></path>
                <path d="M359.667915,214.025127 L350.696078,210.312643 C350.077331,212.091542 349.458583,213.947784 348.917179,215.726682 L354.949966,216.268086 C354.949966,217.196208 354.949966,219.05245 354.949966,219.903227 L359.667915,214.025127 Z" id="Path" fill="#FCFDFA"></path>
                <path d="M308.311882,358.193267 C300.972172,360.300973 296.535668,367.751589 298.179894,375.20882 L308.775943,372.03774 C309.240003,368.634629 310.632185,366.004953 311.096246,362.679186 C312.643114,361.751065 313.261861,360.204196 314.886073,359.353419 C310.477498,357.883894 312.797801,359.353419 308.311882,358.193267" id="Path" fill="#D9B282"></path>
                <path d="M328.421172,358.657328 L324.321971,358.193267 C316.828783,360.439821 312.386017,368.138353 314.189982,375.750224 L324.399314,371.728366 C324.830937,367.14196 326.199831,362.693052 328.421172,358.657328 Z" id="Path" fill="#D9B282"></path>
                <path d="M292.920541,372.811174 C294.138217,368.377447 293.949038,363.675002 292.379137,359.353419 C287.738532,361.673721 280.158876,363.45262 282.324492,370.336185 C281.086998,378.225214 288.666653,374.048669 292.920541,372.811174 Z" id="Path" fill="#D9B282"></path>
                <path d="M276.369049,359.508105 C272.893137,359.734095 269.719558,361.562361 267.780412,364.45593 C265.841266,367.3495 265.356721,370.979841 266.469091,374.280699 C275.131554,374.512729 282.169805,368.015882 276.369049,359.508105 Z" id="Path" fill="#D9B282"></path>
                <path d="M340.486746,359.662792 C336.836532,359.866037 333.495652,361.777947 331.471255,364.822153 C329.446858,367.866358 328.975794,371.686696 330.200071,375.131477 C334.168636,375.83679 338.177819,374.122657 340.409804,370.766288 C342.64179,367.409919 342.672003,363.049771 340.486746,359.662792 L340.486746,359.662792 Z" id="Path" fill="#D9B282"></path>
                <path d="M357.115582,361.519034 L352.32029,360.28154 C347.577715,362.534351 345.013593,367.75875 346.132816,372.888518 L357.424956,370.258841 C357.270269,367.551821 357.192926,364.535428 357.115582,361.519034 Z" id="Path" fill="#D9B282"></path>
                <path d="M276.755766,374.280699 C273.263499,374.411817 270.038649,376.185748 268.058139,379.065105 C266.077629,381.944462 265.574482,385.590464 266.701121,388.898606 C274.82218,388.589232 282.169805,382.556445 276.755766,374.280699 Z" id="Path" fill="#D9B282"></path>
                <path d="M293.693975,375.750224 C285.186199,374.74476 277.838574,384.103314 284.644795,391.218909 C288.160184,390.842846 291.288226,388.82006 293.073429,385.768432 C294.858631,382.716803 295.088929,378.998838 293.693975,375.750224 L293.693975,375.750224 Z" id="Path" fill="#D9B282"></path>
                <path d="M356.496835,375.131477 L345.978129,378.766618 C345.978129,381.937698 346.519533,385.108778 346.828907,388.279859 L356.806208,385.340809 C356.883552,381.937698 356.728865,378.534587 356.496835,375.131477 Z" id="Path" fill="#D9B282"></path>
                <path d="M308.853286,375.750224 C305.041088,375.560239 301.407,377.377184 299.271531,380.540842 C297.136063,383.704499 296.810038,387.754387 298.411924,391.218909 C302.192283,391.321361 305.762929,389.485186 307.878714,386.35069 C309.994499,383.216194 310.362084,379.217952 308.853286,375.750224 Z" id="Path" fill="#D9B282"></path>
                <path d="M324.631345,375.750224 C320.846216,375.616506 317.262767,377.456284 315.165486,380.61009 C313.068205,383.763896 312.757472,387.780031 314.344669,391.218909 C317.97981,389.826727 321.460264,388.434546 325.018062,386.887677 C324.940718,383.484567 324.786031,379.540052 324.631345,375.750224 Z" id="Path" fill="#D9B282"></path>
                <path d="M340.950807,375.750224 C337.442619,375.401144 334.005191,376.900772 331.874764,379.709779 C329.744338,382.518786 329.227242,386.233272 330.509445,389.517354 C334.031347,389.912981 337.501424,388.42524 339.643055,385.60146 C341.784686,382.77768 342.281532,379.03496 340.950807,375.750224 L340.950807,375.750224 Z" id="Path" fill="#D9B282"></path>
                <path d="M276.369049,388.743919 C273.0187,389.009757 269.981725,390.816251 268.14902,393.633466 C266.316316,396.45068 265.895676,399.959199 267.010495,403.129796 C274.512807,403.825887 283.484644,395.704827 276.369049,388.743919 Z" id="Path" fill="#D9B282"></path>
                <path d="M357.73433,389.904071 L347.370311,391.218909 C346.906231,395.175643 346.906231,399.173062 347.370311,403.129796 C350.650502,403.129796 353.748563,401.621693 355.771801,399.039801 C357.795038,396.457909 358.518723,393.089095 357.73433,389.904071 L357.73433,389.904071 Z" id="Path" fill="#D9B282"></path>
                <path d="M292.456481,390.058757 C288.936329,390.302751 285.728984,392.167341 283.775167,395.105639 C281.82135,398.043938 281.342542,401.722864 282.479179,405.063382 C291.373673,404.831351 296.633025,398.953251 292.456481,390.058757 Z" id="Path" fill="#D9B282"></path>
                <path d="M325.172749,391.218909 C321.46514,390.974378 317.888154,392.634423 315.681357,395.623772 C313.47456,398.61312 312.94166,402.520369 314.267326,405.991503 C317.988803,406.278996 321.595976,404.629519 323.812811,401.626573 C326.029646,398.623626 326.543557,394.690642 325.172749,391.218909 Z" id="Path" fill="#D9B282"></path>
                <path d="M340.873463,390.136101 C331.669596,389.594697 328.111799,397.251696 330.354758,405.604785 C334.164402,405.778032 337.791217,403.962629 339.935632,400.809078 C342.080047,397.655526 342.43506,393.615298 340.873463,390.136101 L340.873463,390.136101 Z" id="Path" fill="#D9B282"></path>
                <path d="M308.93063,391.605626 C305.267736,391.224172 301.680371,392.829937 299.524767,395.815848 C297.369162,398.801759 296.974226,402.712219 298.489268,406.068846 L308.775943,402.588392 C308.853286,398.953251 308.93063,395.240767 308.93063,391.605626 Z" id="Path" fill="#D9B282"></path>
                <path d="M276.910453,403.43917 L267.474555,405.991503 C267.087838,409.31727 266.778464,412.565694 266.469091,415.891461 L263.607384,415.272713 C263.89475,418.03551 265.641579,420.432039 268.183815,421.551262 C270.726051,422.670485 273.673231,422.340501 275.904988,420.686753 L268.170646,419.139884 C274.667493,416.355521 281.164341,411.405542 276.910453,403.43917 Z" id="Path" fill="#D9B282"></path>
                <path d="M358.043703,404.367291 L347.679685,405.295412 C346.90625,409.626643 346.055473,413.880532 345.514069,418.211763 C346.751563,423.54846 352.629664,422.310965 356.651522,421.460187 L347.602341,419.758632 C353.093724,416.123491 358.662451,411.714916 358.043703,404.367291 Z" id="Path" fill="#D9B282"></path>
                <path d="M294.158036,404.908695 C290.754925,405.836816 287.429158,406.84228 284.026048,407.925088 C282.788553,411.637572 281.551058,415.65943 280.23622,418.985198 L279.694816,420.454723 C286.423694,428.885156 298.875985,426.71954 308.466569,427.028914 C300.666676,423.314146 292.011496,421.764762 283.4073,422.542995 C290.213521,418.907854 296.014278,413.416471 294.158036,404.908695 Z" id="Path" fill="#D9B282"></path>
                <path d="M342.110958,405.450099 C338.243787,406.300876 334.376616,407.306341 330.664132,408.311805 C330.045384,413.029754 329.27195,417.670359 328.498516,422.310965 L331.128192,423.54846 C336.928949,418.830511 343.812513,413.957875 342.110958,405.450099 Z" id="Path" fill="#D9B282"></path>
                <path d="M308.775943,406.687593 C305.104571,406.63751 301.644404,408.400144 299.526382,411.399387 C297.408359,414.398631 296.904652,418.249074 298.179894,421.692217 C307.306418,421.537531 311.018902,414.96334 308.775943,406.687593 Z" id="Path" fill="#D9B282"></path>
                <path d="M324.940718,406.687593 C321.614951,407.770401 318.366527,409.007896 315.118104,410.245391 C314.11478,415.13757 312.39468,419.854817 310.013438,424.24455 L313.803265,423.316429 C317.67846,422.978798 321.191635,420.902498 323.356282,417.670559 C325.520929,414.438621 326.103615,410.399574 324.940718,406.687593 L324.940718,406.687593 Z" id="Path" fill="#D9B282"></path>
                <path d="M28.4060352,149.133995 C25.0029246,146.117602 19.2795113,142.637148 15.4896836,147.123066 C9.53424002,153.155853 -0.520404946,157.564429 0.020999014,167.54173 C2.59213491,175.402072 7.37143751,182.356226 13.7881283,187.573677 C19.1476811,190.900341 25.4540967,192.368214 31.7318024,191.750221 C50.5262541,214.953248 70.4035138,236.996124 89.3526524,259.812433 C92.3690459,263.370231 95.5401262,266.928028 98.7112065,270.408482 C125.858748,299.95367 152.851602,329.885575 180.385861,358.966702 C202.80201,381.055152 230.205819,397.423158 260.281617,406.687593 C264.767535,407.151654 264.071444,411.637572 263.530041,414.96334 L266.469091,415.582087 C266.469091,412.25632 267.087838,409.007896 267.474555,405.682129 L276.910453,403.129796 C281.164341,410.864138 274.667493,416.046148 267.861272,418.598481 C267.861272,421.228157 269.408141,422.620338 277.06514,420.300036 L280.23622,418.443794 C281.551058,414.808653 282.788553,410.709451 284.026048,407.383684 C287.429158,406.300876 290.754925,405.295412 294.158036,404.367291 C296.014278,412.875067 290.213521,418.36645 283.4073,422.001591 C285.959633,426.410166 295.1635,427.028914 308.466569,426.48751 L310.013438,423.78049 C312.352281,419.57099 314.046885,415.034665 315.04076,410.322734 C318.366527,409.085239 321.614951,407.847745 324.940718,406.764937 C326.103615,410.476917 325.520929,414.515964 323.356282,417.747903 C321.191635,420.979841 317.67846,423.056142 313.803265,423.393773 C318.366527,427.802348 324.089941,425.636732 328.421172,422.310965 C329.27195,417.670359 329.968041,413.029754 330.664132,408.311805 C334.453959,407.306341 338.398474,406.300876 342.110958,405.450099 C343.812513,413.957875 336.928949,418.830511 331.128192,423.54846 C336.552543,424.708432 342.158596,422.628767 345.514069,418.211763 C346.055473,413.880532 346.90625,409.626643 347.679685,405.372755 L347.679685,402.897766 C347.332935,399.762023 347.332935,396.597611 347.679685,393.461868 L347.679685,388.357202 C347.679685,385.108778 347.060937,381.937698 346.828907,378.766618 C346.828907,376.910376 346.828907,375.054133 346.828907,373.197891 C345.709683,368.068124 348.273806,362.843725 353.016381,360.590913 C354.563249,359.585449 356.110118,358.579984 357.73433,357.651863 C352.707007,352.933915 346.751563,360.436227 341.26018,357.651863 C337.336971,355.502059 332.489375,356.026958 329.117263,358.966702 C326.855112,363.096268 325.484952,367.654683 325.095405,372.347114 L314.189982,375.750224 C312.197485,368.037048 316.679743,360.133221 324.321971,357.883894 C320.616717,357.728733 316.915774,358.279937 313.416548,359.508105 L309.781407,363.916681 C309.781407,366.546357 309.085317,369.176033 308.775943,371.651023 L298.179894,374.822103 C296.582711,367.348645 301.043382,359.914192 308.389226,357.80655 C304.831428,357.80655 301.350974,357.80655 297.87052,357.80655 C292.325287,356.29747 286.477544,356.29747 280.932311,357.80655 C272.501878,353.165945 263.994101,361.441691 255.873042,357.265146 C214.668664,338.685604 183.370082,303.380607 169.863785,260.246164 C156.357488,217.111722 161.931445,170.261161 185.181153,131.499695 C189.537613,123.622125 194.723273,116.232561 200.649838,109.45682 C230.496238,75.2298434 273.688808,55.5863003 319.10129,55.5863003 C364.513771,55.5863003 407.706342,75.2298434 437.552742,109.45682 C444.16538,116.297334 449.788596,124.029256 454.258921,132.427816 C488.796475,189.855535 483.437378,262.807417 440.878509,314.571577 C420.543576,338.29455 394.163968,356.068046 364.540551,366.004953 C362.684309,366.778387 360.90541,367.629165 359.049168,368.557286 L362.606965,369.949468 C415.045806,356.414369 455.419073,316.427819 489.914239,276.518613 C519.691457,238.465649 548.076493,198.169725 564.860016,152.769136 C572.594358,133.897341 575.533408,114.097425 581.798225,94.6068823 L582.726346,92.0545494 C582.346328,86.362244 582.868391,80.6456458 584.273215,75.1163398 L585.201336,69.856987 C585.74274,66.376533 586.129457,62.896079 586.748204,59.4929684 C587.223178,58.1517479 587.765266,56.8352488 588.372416,55.5484538 C587.936626,53.171268 587.65246,50.768773 587.521639,48.3555155 C587.521639,46.6539602 587.521639,44.8750615 587.521639,43.1735062 C587.521639,40.2344561 587.521639,37.295406 588.063043,34.2790126 C594.112141,39.2146346 599.609708,44.7899973 604.459848,50.9078485 C643.13156,91.3584586 680.87515,132.041099 719.082801,172.491709 C723.151993,176.603854 726.733443,181.171501 729.756193,186.104152 L729.756193,186.104152 C736.569621,189.851393 742.095149,195.565597 745.611595,202.500957 L739.192091,202.500957 L737.877253,202.500957 C737.413192,203.119705 736.407728,204.511886 736.02101,205.207977 L735.247576,204.666573 L729.44682,204.047826 C726.732417,206.529773 723.33931,208.145538 719.701548,208.688431 L716.994528,209.384522 L713.127357,210.46733 C709.80159,211.704824 706.553166,213.251693 703.227399,214.721218 C699.901632,216.190743 695.493057,217.969642 691.316512,219.593854 C668.626634,228.373678 646.75659,239.140469 625.96132,251.768717 C566.407984,285.56133 508.894046,322.827883 453.717517,363.375277 C426.260602,378.843961 398.803687,395.395454 368.253035,404.212604 L359.358541,407.151654 L360.286662,411.792259 C402.748202,400.96418 440.105075,377.219749 477.307261,354.944844 C516.81225,328.152 558.581701,304.860484 602.139546,285.335763 C656.85065,260.308333 715.20534,244.172674 775.002096,237.537528 C780.802296,236.749647 786.69693,237.011631 792.404366,238.310962 C799.0559,241.327355 802.381667,232.819579 798.050436,228.411004 C787.918447,217.660268 777.863802,206.677502 767.731814,195.772079 C747.08112,174.425295 726.585113,153.001167 706.63051,131.035634 C691.161825,114.716172 675.693141,98.8607706 660.99789,82.3092781 C650.788559,72.3319766 640.965944,62.0453013 631.684733,51.371909 C616.216049,34.6657297 599.509869,18.3462675 584.659932,0.789310473 C578.163085,-1.06693167 573.445136,0.170563091 571.898267,6.43538034 C575.42503,11.76913 577.381464,17.9868396 577.544337,24.3790544 C577.188008,63.8851677 571.410675,103.155416 560.374097,141.090279 C552.78383,172.156553 538.503863,201.191607 518.531306,226.168045 C517.331108,207.376054 513.930539,188.789736 508.399317,170.790154 C489.714874,117.270134 450.858781,73.1684679 400.118525,47.891455 C350.814129,24.3729459 293.894868,22.6608774 243.266064,43.1735062 C191.742989,64.9398173 151.918261,107.605151 133.747777,160.503479 C124.690723,188.877157 121.583813,218.814082 124.621253,248.44295 C112.400992,238.001588 101.804943,225.858671 90.2807734,214.798561 C80.3034719,205.28532 70.4808572,195.694736 60.8902728,185.794778 C54.1358035,181.082966 49.7170794,173.709044 48.7473554,165.530801 C48.7420939,164.597504 48.3157824,163.71646 47.587204,163.133155 L28.4060352,149.133995 Z M330.509445,405.295412 C328.189142,397.561069 331.746939,389.826727 340.950807,389.826727 C342.50525,393.293043 342.157987,397.31653 340.032605,400.465243 C337.907224,403.613956 334.305565,405.440726 330.509445,405.295412 L330.509445,405.295412 Z M330.509445,389.826727 C329.080605,386.509721 329.525479,382.68291 331.677145,379.782144 C333.828812,376.881379 337.361916,375.345287 340.950807,375.750224 C342.281532,379.03496 341.784686,382.77768 339.643055,385.60146 C337.501424,388.42524 334.031347,389.912981 330.509445,389.517354 L330.509445,389.826727 Z M340.79612,359.972166 C342.906237,363.368438 342.839535,367.683905 340.625461,371.01334 C338.411387,374.342774 334.457519,376.073277 330.509445,375.440851 C329.174096,372.008681 329.547624,368.146358 331.515931,365.033688 C333.484237,361.921017 336.8135,359.927762 340.486746,359.662792 L340.79612,359.972166 Z M314.5767,406.37822 C313.105046,402.918144 313.519644,398.944005 315.673773,395.862185 C317.827902,392.780366 321.417682,391.025614 325.172749,391.218909 C326.578946,394.699104 326.082479,398.659309 323.860716,401.684688 C321.638953,404.710068 318.008856,406.369014 314.267326,406.068846 L314.5767,406.37822 Z M324.631345,375.750224 C324.631345,379.385365 324.631345,383.020506 324.631345,386.655647 C321.073547,388.202515 317.593093,389.594697 313.957952,390.986879 C312.442876,387.505825 312.847203,383.487354 315.025394,380.377907 C317.203586,377.268459 320.842132,375.515583 324.631345,375.750224 L324.631345,375.750224 Z M309.16266,375.750224 C310.671458,379.217952 310.303872,383.216194 308.188088,386.35069 C306.072303,389.485186 302.501657,391.321361 298.721298,391.218909 C297.14767,387.805437 297.442798,383.822185 299.502304,380.6779 C301.561811,377.533615 305.095374,375.671537 308.853286,375.750224 L309.16266,375.750224 Z M309.16266,391.218909 C309.16266,394.85405 309.16266,398.953251 309.16266,402.201675 L298.875985,405.682129 C297.58324,402.431964 298.030649,398.747608 300.063717,395.901313 C302.096785,393.055018 305.436881,391.436867 308.93063,391.605626 L309.16266,391.218909 Z M309.16266,406.223533 C311.405619,414.576623 307.615792,421.150813 298.566611,421.228157 C297.49803,417.905716 298.048648,414.274489 300.05414,411.418183 C302.059631,408.561877 305.288065,406.810818 308.775943,406.687593 L309.16266,406.223533 Z M284.644795,390.445475 C277.838574,383.716597 285.186199,374.358043 293.693975,374.97679 C295.088929,378.225404 294.858631,381.943369 293.073429,384.994998 C291.288226,388.046626 288.160184,390.069412 284.644795,390.445475 L284.644795,390.445475 Z M292.379137,359.508105 C293.985444,363.822448 294.175086,368.536427 292.920541,372.965861 C288.666653,374.203356 281.086998,378.379901 282.324492,370.490872 C280.158876,363.45262 287.738532,361.673721 292.379137,359.353419 L292.379137,359.508105 Z M292.379137,390.445475 C296.555682,398.953251 291.296329,405.218068 282.401836,405.450099 C281.111022,402.051029 281.523752,398.239613 283.512267,395.195655 C285.500782,392.151697 288.825207,390.242392 292.456481,390.058757 L292.379137,390.445475 Z M577.38965,5.81663296 C581.567334,6.53781122 585.395961,8.60146832 588.295073,11.6947331 C656.125255,84.1655203 724.960901,155.78553 792.791083,228.256317 C797.895749,233.902387 789.929376,239.6258 785.675488,233.593013 C718.464054,163.442529 652.026053,92.4412665 585.046649,22.0587517 C581.256821,17.340803 575.146691,12.6228542 577.38965,5.81663296 Z M6.51784653,164.293306 C7.52331103,158.647236 12.8600072,155.321469 17.1912389,152.227732 C19.9756021,149.288682 25.7763588,153.851944 21.1357534,156.172247 C16.4951481,158.49255 12.0092295,167.696417 6.51784653,164.293306 Z M12.0092295,168.237821 C16.2354842,163.322832 21.5254331,159.434719 27.4779141,156.868338 C25.1576114,162.359721 17.3459257,172.259679 12.0092295,168.237821 L12.0092295,168.237821 Z M25.3896417,186.490869 C19.047481,186.490869 13.7107849,176.900284 19.6662284,172.646396 C25.621672,168.392508 30.8810247,160.967539 39.0794275,160.890196 C42.095821,164.83471 46.8137698,169.088599 45.3442448,174.657325 C40.1622355,180.303395 33.9747616,187.960394 25.3896417,186.490869 L25.3896417,186.490869 Z M56.7910714,212.710289 C49.5739462,204.956215 43.1724085,196.481305 37.6872459,187.41899 C47.8965777,195.153332 54.3160818,206.290785 63.4426057,215.030592 C89.7393695,244.962496 116.42285,274.507684 142.719614,304.439588 C144.760254,307.199426 146.016329,310.459878 146.354755,313.875486 C115.494729,280.849844 84.7893904,247.901546 56.7910714,212.710289 L56.7910714,212.710289 Z M266.623777,403.129796 C265.495668,399.897795 265.962317,396.322688 267.882226,393.488537 C269.802134,390.654386 272.949161,388.895019 276.369049,388.743919 C283.484644,395.704827 274.512807,403.825887 266.623777,403.129796 Z M276.369049,359.508105 C281.860432,367.706508 274.899524,374.512729 266.469091,374.280699 C265.356721,370.979841 265.841266,367.3495 267.780412,364.45593 C269.719558,361.562361 272.893137,359.734095 276.369049,359.508105 L276.369049,359.508105 Z M276.369049,374.280699 C281.783088,382.556445 274.435463,388.589232 266.314404,388.898606 C265.1689,385.5269 265.716884,381.809896 267.786662,378.912208 C269.856439,376.014519 273.194799,374.290641 276.755766,374.280699 L276.369049,374.280699 Z M144.88523,146.194945 C148.250913,135.094766 153.769992,124.766204 161.127349,115.79898 C166.077328,110.539627 169.248408,102.882629 176.596033,100.330296 C188.610509,83.3524013 204.525079,69.5067251 223.002087,59.9570289 C281.090199,24.9991678 353.775683,25.1481134 411.720039,60.343746 C444.436488,78.2530569 470.280569,106.518321 485.19629,140.703562 C488.212684,141.709027 488.676744,144.802764 489.527522,147.43244 L492.621259,145.112137 C492.002512,148.360561 491.461108,151.686328 490.84236,155.012096 C492.234542,153.619914 493.54938,152.305076 494.941562,151.067581 C495.637652,153.001167 496.48843,154.934752 497.029834,156.945681 C507.314491,180.534321 512.582201,206.003697 512.4995,231.736771 C511.78852,238.581432 508.077004,244.757848 502.36653,248.597637 C503.604025,223.461025 507.78057,196.313483 498.112642,172.491709 C499.42748,189.197888 503.449338,205.904068 501.979813,222.842277 C500.432945,237.460184 501.979813,254.398394 491.07439,265.922564 C478.758778,281.815603 465.123722,296.640816 450.314407,310.240345 C470.333163,282.112747 481.141534,248.471692 481.251776,213.947784 C481.599796,147.920325 441.811331,88.2988412 380.705326,63.2827961 C347.834252,49.6250422 311.313318,47.4719424 277.06514,57.1726657 C209.46475,76.1672824 161.645714,136.345256 158.414248,206.48915 C155.182781,276.633043 197.266321,340.952748 262.83395,366.082296 C266.082373,372.347114 263.762071,380.545516 264.148788,387.506425 L258.657405,385.804869 C258.657405,386.73299 258.657405,388.511889 259.121465,389.44001 L263.916758,390.445475 C263.916758,394.544676 263.916758,398.721221 263.916758,402.820422 C204.052948,387.351738 157.105491,336.073048 138.929786,277.833451 C123.851109,234.771919 126.238832,187.517217 145.581321,146.194945 L144.88523,146.194945 Z M57.100445,189.352575 C77.0550481,209.693895 97.2416815,229.725842 117.428315,249.835132 C130.42201,259.657747 131.891535,277.060017 136.53214,291.523237 C125.549374,282.78343 118.279092,270.485826 108.147104,260.585868 C86.0268852,235.294568 63.2105755,210.622017 41.6317605,184.866657 C46.5817395,177.054971 52.7692134,184.944 57.100445,189.352575 Z" id="Shape" fill="#020102"></path>
                <path d="M345.978129,378.766618 L356.187461,375.131477 C356.187461,378.534587 356.187461,381.937698 356.728865,385.340809 L346.828907,388.279859 C346.828907,388.97595 346.828907,390.290788 346.828907,390.909535 L357.115582,389.904071 C357.818271,393.034952 357.064359,396.315607 355.065361,398.825627 C353.066364,401.335646 350.037635,402.804622 346.828907,402.820422 C346.828907,403.516513 346.828907,404.676664 346.828907,405.295412 L357.192926,404.367291 C357.811673,412.101633 352.242946,416.123491 346.751563,419.835975 C348.221089,422.310965 350.850765,423.239086 355.800744,421.537531 C357.115582,418.443794 360.131976,415.504744 359.435885,411.869603 C359.435885,410.709451 358.739794,408.389149 358.585107,407.228997 L367.479601,404.289947 C364.849924,404.289947 362.220248,404.754008 359.745259,404.831351 C358.971824,399.494655 360.596036,394.622019 366.396793,393.616555 C418.99032,377.065062 462.612011,343.34333 508.399317,314.571577 C564.086582,275.899865 619.155099,235.681286 680.179059,205.594694 C687.913402,200.876745 692.012603,211.318107 696.653208,215.649339 L691.780573,219.28448 C695.802431,217.660268 699.514915,216.190743 703.768803,214.411844 C698.084308,211.150476 693.155063,206.722064 689.305583,201.418149 C693.002157,199.674484 696.862404,198.301376 700.829753,197.318948 C705.95249,200.663161 710.324548,205.035219 713.668761,210.157956 L717.458589,209.075148 C713.514074,204.202512 709.724247,199.40722 705.779732,194.379898 C715.370317,189.507262 721.248417,198.865816 726.662456,205.362664 C724.49684,206.368128 722.331225,207.450936 720.165609,208.379057 C723.826593,207.837298 727.244806,206.222394 729.988224,203.738452 C726.009888,199.314571 722.389148,194.581746 719.160144,189.584606 C727.590577,189.584606 731.689779,198.169725 735.711637,204.357199 L736.485071,204.898603 L738.341313,202.191583 L739.733495,202.191583 C735.021788,197.947997 731.72784,192.359085 730.297597,186.181495 C729.969254,185.746309 729.684303,185.280025 729.44682,184.789313 C722.854114,183.047435 717.129811,178.946852 713.359388,173.265143 C675.306424,133.123907 636.944086,93.2920442 599.123152,53.0734643 C595.499894,49.4979001 591.622593,46.1892703 587.521639,43.1735062 C587.521639,44.8750615 587.521639,46.6539602 587.521639,48.3555155 C593.250288,52.6137799 598.444071,57.5478731 602.990323,63.0507658 C641.662035,104.661527 681.880615,144.802764 719.778892,186.800242 C716.690374,186.803701 713.701615,185.706908 711.348459,183.706505 C670.047071,141.167623 630.292552,96.927185 588.063043,55.3164236 C587.442237,56.6235928 586.899872,57.966592 586.438831,59.3382815 C629.055057,100.794356 668.345516,145.653541 710.188307,187.960394 L702.453965,192.059595 C662.622102,151.841015 625.110542,109.68885 584.891962,69.7023002 L583.963841,74.9616529 C622.635553,113.633364 659.837739,153.774601 697.658673,193.29709 C692.863381,195.230675 686.598563,201.031432 682.189988,194.998645 C658.574463,170.042501 634.855813,145.189481 611.034039,120.439586 C602.309873,110.090931 592.681241,100.539949 582.262286,91.8998625 L581.334165,94.4521955 C614.20512,130.2622 649.164347,164.061276 681.261867,200.799402 C602.990323,237.150811 536.629666,293.070105 463.849506,338.238664 C431.442611,359.198732 398.41697,381.08692 360.67338,390.909535 C360.077619,383.940192 360.573429,376.920563 362.142905,370.104154 L358.585107,368.711973 C360.364006,367.783852 362.220248,366.933074 363.999147,366.15964 L356.883552,357.729207 L352.242946,360.7456 L357.038239,361.596378 L357.038239,370.722902 C353.325754,371.651023 349.303896,372.501801 345.823442,373.275235 C345.978129,374.97679 345.978129,376.910376 345.978129,378.766618 Z" id="Path" fill="#020102"></path>
                <path d="M442.966781,138.537947 C442.620283,130.119901 441.217105,121.778784 438.790237,113.710708 C436.701964,117.500535 434.226975,121.44505 432.216046,125.002848 C430.505291,133.800848 430.983378,142.884488 433.608227,151.454298 L437.552742,150.758207 C439.331641,146.504319 441.265226,142.559804 442.966781,138.537947 Z" id="Path" fill="#363D1B"></path>
                <path d="M205.986534,152.537106 C209.576029,143.810581 209.851109,134.072777 206.759968,125.157534 C204.826383,122.141141 202.73811,119.279434 200.572494,116.417728 C196.749897,124.757378 195.484909,134.042929 196.937353,143.101208 C198.721494,147.231972 201.934002,150.581767 205.986534,152.537106 L205.986534,152.537106 Z" id="Path" fill="#363D1B"></path>
                <path d="M218.670855,179.220587 C222.538026,168.315164 222.8474,153.542571 213.566189,145.344168 C210.627139,155.321469 206.527938,166.845639 212.019321,176.281537 C213.102129,179.529961 216.118522,179.29793 218.670855,179.220587 Z" id="Path" fill="#363D1B"></path>
                <path d="M429.199652,156.945681 C428.658248,154.470692 428.194188,151.995702 427.57544,149.211339 L423.089522,145.344168 C415.702087,156.278959 415.702087,170.606099 423.089522,181.54089 C429.014278,174.828951 431.294599,165.649936 429.199652,156.945681 Z" id="Path" fill="#363D1B"></path>
                <path d="M203.666231,156.868338 C202.660767,155.862873 201.577959,154.934752 200.495151,154.006631 L196.705323,157.255055 C196.597654,162.758202 200.274769,167.618388 205.599817,169.011255 C205.536032,164.892259 204.884944,160.803428 203.666231,156.868338 L203.666231,156.868338 Z" id="Path" fill="#363D1B"></path>
                <path d="M439.563671,154.702722 L432.216046,161.4316 C432.98948,163.983933 433.685571,166.458922 434.381662,169.165942 C437.720942,168.966633 440.619259,166.794322 441.747579,163.64513 C442.8759,160.495937 442.016583,156.977309 439.563671,154.702722 L439.563671,154.702722 Z" id="Path" fill="#363D1B"></path>
                <path d="M444.900367,167.54173 C433.840258,173.265143 422.857492,184.866657 424.868421,198.479099 C439.254297,198.247069 444.51365,179.761991 444.900367,167.54173 Z" id="Path" fill="#363D1B"></path>
                <path d="M214.49431,199.252533 C215.360721,193.036739 213.810556,186.725353 210.163079,181.618233 C206.770326,176.297323 201.831541,172.141186 196.009232,169.707346 C195.578132,175.893366 196.611551,182.093883 199.025626,187.805707 C202.406435,193.569925 207.993586,197.704417 214.49431,199.252533 L214.49431,199.252533 Z" id="Path" fill="#363D1B"></path>
                <path d="M421.387966,182.391667 L415.973927,180.226051 C412.191941,184.126137 412.191941,190.325125 415.973927,194.225211 C421.155936,191.904908 421.619997,187.032273 421.387966,182.391667 Z" id="Path" fill="#363D1B"></path>
                <path d="M224.394269,179.994021 L218.902886,182.23698 C218.902886,185.17603 218.284138,188.192424 218.052108,191.208817 L223.156774,193.374433 C225.148272,191.799509 226.40762,189.47748 226.641442,186.949283 C226.875264,184.421087 226.063142,181.907477 224.394269,179.994021 L224.394269,179.994021 Z" id="Path" fill="#363D1B"></path>
                <path d="M233.211419,181.463546 C226.946602,192.833029 222.228653,209.307178 233.211419,219.361823 C243.807468,209.152492 239.089519,192.755686 233.211419,181.463546 Z" id="Path" fill="#363D1B"></path>
                <path d="M405.841939,182.855728 C399.499778,194.070524 396.251354,209.229835 405.841939,219.671197 C414.815055,209.039652 414.815055,193.487272 405.841939,182.855728 L405.841939,182.855728 Z" id="Path" fill="#363D1B"></path>
                <path d="M216.041179,201.88221 C214.456193,204.137389 214.282881,207.094971 215.593619,209.519837 C216.904358,211.944704 219.473697,213.419772 222.228653,213.329036 C227.488006,209.307178 221.300532,197.860352 216.041179,201.88221 Z" id="Path" fill="#363D1B"></path>
                <path d="M421.155936,212.014198 C426.569976,210.235299 425.177794,197.009574 418.75829,201.959553 C413.034877,203.661109 414.813776,216.422773 421.155936,212.014198 Z" id="Path" fill="#363D1B"></path>
                <path d="M203.898262,206.986876 C203.274048,220.879881 212.969184,233.11422 226.637228,235.681286 C227.720036,221.9915 215.190401,212.168885 203.898262,206.986876 Z" id="Path" fill="#363D1B"></path>
                <path d="M412.416129,235.449255 C426.492632,234.675821 435.155096,220.676662 435.619156,207.682966 C424.017643,212.091542 412.261443,221.836813 412.416129,235.449255 Z" id="Path" fill="#363D1B"></path>
                <path d="M246.823861,217.350894 C240.559044,228.178974 237.233277,244.807809 247.519952,254.243707 C258.270688,244.266405 252.392588,228.33366 246.823861,217.350894 Z" id="Path" fill="#363D1B"></path>
                <path d="M393.234961,217.505581 C385.500618,227.8696 382.020164,244.421092 391.378718,254.707768 C401.897424,245.27187 399.422434,228.797721 393.234961,217.505581 Z" id="Path" fill="#363D1B"></path>
                <path d="M237.697337,222.146187 L231.973924,221.450096 C230.349712,226.013358 228.802844,233.128953 235.222348,234.598478 C240.404357,232.123488 239.012176,226.632105 237.697337,222.146187 Z" id="Path" fill="#363D1B"></path>
                <path d="M402.670858,223.151651 C399.345091,226.554762 398.803687,232.123488 403.908353,234.211761 C412.261443,235.371912 409.786453,217.428238 402.670858,223.151651 Z" id="Path" fill="#363D1B"></path>
                <path d="M236.923903,253.160899 C238.21255,250.488387 237.858803,247.314247 236.013399,244.991014 C234.167994,242.667782 231.156225,241.604978 228.26144,242.255476 C227.178632,247.669516 229.962995,256.022606 236.923903,253.160899 Z" id="Path" fill="#363D1B"></path>
                <path d="M410.482544,242.719537 C403.676323,239.780487 399.035717,249.757789 403.366949,254.862454 C408.703645,253.315586 413.576281,248.520294 410.482544,242.719537 Z" id="Path" fill="#363D1B"></path>
                <path d="M261.673798,250.68591 C259.353496,263.447574 260.900364,280.308441 274.435463,286.263884 C277.919946,272.907856 272.853099,258.782102 261.673798,250.68591 Z" id="Path" fill="#363D1B"></path>
                <path d="M378.152993,250.91794 C366.594952,258.488208 361.125145,272.566744 364.540551,285.95451 C378.53971,281.004531 379.699862,263.447574 378.152993,250.91794 Z" id="Path" fill="#363D1B"></path>
                <path d="M387.975608,254.243707 C382.908428,256.117443 379.95649,261.398131 381.0147,266.695998 L388.749042,266.695998 C390.250792,262.620715 389.970116,258.101832 387.975608,254.243707 L387.975608,254.243707 Z" id="Path" fill="#363D1B"></path>
                <path d="M254.635547,281.236562 C253.166022,267.469432 239.630923,259.27103 227.101288,256.56401 C228.804892,270.523415 240.573571,281.068944 254.635547,281.236562 L254.635547,281.236562 Z" id="Path" fill="#363D1B"></path>
                <path d="M258.116001,267.469432 C258.734748,262.751484 258.116001,254.707768 251.077749,256.177293 C248.293386,258.729626 250.459002,263.447574 249.994942,266.850685 L258.116001,267.469432 Z" id="Path" fill="#363D1B"></path>
                <path d="M412.106756,257.260101 C398.707094,258.602002 387.579035,268.184498 384.263124,281.236562 C398.339626,282.938117 409.554423,270.099109 412.106756,257.260101 Z" id="Path" fill="#363D1B"></path>
                <path d="M352.939037,280.927188 C340.411156,285.827289 332.691152,298.483033 334.067242,311.864557 C347.524998,309.080194 353.712472,293.534166 352.939037,280.927188 Z" id="Path" fill="#363D1B"></path>
                <path d="M287.429158,281.545935 C285.495573,294.230257 291.915077,309.544254 305.682206,311.9419 C306.950247,298.897007 299.539836,286.556788 287.429158,281.545935 Z" id="Path" fill="#363D1B"></path>
                <path d="M384.649841,282.938117 C379.390488,282.938117 372.42958,286.341227 374.595196,292.838075 C381.0147,296.937276 386.8928,289.589651 384.649841,282.938117 Z" id="Path" fill="#363D1B"></path>
                <path d="M265.386283,293.998226 C265.773,287.501379 261.132394,281.932652 254.326173,284.949046 C254.191598,287.762852 255.397927,290.47407 257.578182,292.257914 C259.758437,294.041759 262.654844,294.687326 265.386283,293.998226 Z" id="Path" fill="#363D1B"></path>
                <path d="M362.452278,285.49045 C356.419491,285.49045 354.176532,292.296671 354.176532,297.47868 C357.733351,298.661963 361.652575,297.800921 364.385864,295.235721 C363.84446,291.987297 364.695238,288.19747 362.452278,285.49045 Z" id="Path" fill="#363D1B"></path>
                <path d="M276.369049,287.192005 C272.733908,290.749803 276.369049,296.550559 279.772159,298.793519 C288.58931,298.406801 282.556523,282.938117 276.369049,287.192005 Z" id="Path" fill="#363D1B"></path>
                <path d="M292.22445,314.64892 C286.965098,301.113821 271.109696,296.78259 257.883971,298.174771 C264.193334,310.896628 278.353331,317.689599 292.22445,314.64892 Z" id="Path" fill="#363D1B"></path>
                <path d="M381.092043,298.406801 C368.098348,297.401337 353.016381,301.423195 346.983594,313.875486 C360.596899,317.634302 374.951068,311.124474 381.092043,298.406801 L381.092043,298.406801 Z" id="Path" fill="#363D1B"></path>
                <path d="M302.201752,344.812855 L308.698599,351.851107 C311.405619,345.895663 313.571235,337.46523 320.068083,334.912897 C324.669642,339.526583 328.41458,344.92139 331.128192,350.845642 L337.547696,344.890199 C333.293808,340.63631 328.807889,336.614452 324.786031,332.205877 C334.299272,312.251274 344.817978,309.00285 320.145426,327.487928 C314.731386,324.007474 309.085317,321.145768 303.980651,317.35594 C307.847822,321.996545 311.714993,326.482464 316.046225,330.891039 C311.328276,335.763675 306.610327,340.326937 302.201752,344.812855 Z" id="Path" fill="#363D1B"></path>
                <path d="M285.340886,254.243707 C296.014278,264.066322 305.759549,276.750643 320.300113,280.772501 C332.44303,277.524077 340.254716,266.773342 349.61327,259.193686 C378.926427,227.096166 400.118525,185.408061 400.891959,141.399653 C403.82114,127.398495 404.135804,112.976363 401.820081,98.8607706 C388.981072,102.495911 378.617054,112.6279 364.927268,113.09196 C331.595531,121.037999 296.760146,120.077758 263.916758,110.307597 C254.635547,107.677921 246.746518,101.56779 237.155933,99.8662351 C235.680515,117.796094 236.774375,135.844787 240.404357,153.465227 C239.891651,166.785762 242.542149,180.038255 248.138699,192.136939 C253.939456,216.036056 271.187039,234.675821 285.340886,254.243707 Z M336.000828,256.331979 C327.570395,256.331979 319.139962,256.331979 310.709528,256.79604 C310.676929,252.858526 311.277559,248.941376 312.488427,245.194527 L320.222769,246.199991 C323.108783,245.598037 326.114774,246.244184 328.498516,247.97889 C331.528873,246.067117 335.047766,245.073231 338.630504,245.117183 C338.243787,248.674981 339.945342,254.243707 336.000828,256.331979 L336.000828,256.331979 Z M245.43168,113.401334 C252.154185,116.637539 257.756304,121.808727 261.519112,128.251271 C276.987796,143.719956 301.196287,151.454298 309.549377,172.801083 C315.659508,177.364345 316.587629,185.408061 319.371992,191.982252 L327.957112,190.8221 C326.578481,181.744973 330.591706,172.692585 338.243787,167.619073 C346.751563,159.884731 356.574178,153.001167 365.004611,144.416047 C373.262063,135.218465 382.180283,126.636295 391.688092,118.73803 C392.216327,124.391251 390.826939,130.057777 387.743578,134.825462 C384.18578,140.471532 386.196709,147.587127 382.793599,153.233197 C378.694397,160.116761 380.473296,170.24875 372.120206,174.193264 L370.341307,175.430759 C371.888176,187.341646 360.131976,193.142403 351.624199,198.169725 C359.762055,195.22431 368.278063,193.453397 376.915498,192.910373 C376.915498,193.451777 376.915498,194.534585 376.915498,195.075989 L375.60066,195.075989 C375.766182,198.740945 377.379616,202.190355 380.086579,204.666573 C372.974895,206.844205 366.166448,209.910605 359.822602,213.793097 L354.949966,219.74854 L350.541391,219.74854 C347.757028,221.914156 344.817978,223.925085 341.878928,225.858671 L343.039079,234.134417 C332.813801,238.105243 321.631634,238.913592 310.941559,236.45472 C303.207216,239.007053 296.323652,233.825043 288.82134,233.360983 C291.512701,222.805275 297.145018,213.230336 305.063459,205.749381 L296.400995,207.296249 C296.400995,208.147027 295.782248,209.771239 295.627561,210.622017 C292.22445,209.152492 288.898683,207.52828 285.572916,205.981411 C285.572916,192.987716 268.866737,189.043202 269.17611,177.054971 C261.287763,166.060228 256.167252,153.325279 254.24883,139.930128 C253.784769,130.494231 243.730124,123.765353 245.43168,113.401334 Z" id="Shape" fill="#F8AB42"></path>
                <path d="M177.060094,100.252952 C169.944499,102.882629 166.773419,110.539627 161.591409,115.721637 C154.234052,124.688861 148.714973,135.017423 145.34929,146.117602 C144.189139,157.023025 139.393847,167.000326 137.614948,177.751062 C118.201749,264.917099 173.734327,361.828408 258.502718,389.362667 C258.502718,388.434546 258.502718,386.655647 258.038658,385.727526 C243.684987,379.455779 229.915531,371.92399 216.891957,363.22059 C166.460282,327.392373 137.356257,268.661496 139.393847,206.832189 C139.161817,168.160477 156.100026,131.886412 177.060094,100.252952 Z" id="Path" fill="#020102"></path>
            </g>
        </g>
    </g>
</svg>