<?xml version="1.0" encoding="UTF-8"?>
<svg width="980px" height="680px" viewBox="0 0 980 680" version="1.1" xmlns="http://www.w3.org/2000/svg" xmlns:xlink="http://www.w3.org/1999/xlink">
    <title>CZ Česká pošta text</title>
    <defs>
        <rect id="path-1" x="0" y="0" width="900" height="600" rx="80"></rect>
        <filter x="-6.7%" y="-10.0%" width="113.3%" height="120.0%" filterUnits="objectBoundingBox" id="filter-2">
            <feMorphology radius="2.5" operator="dilate" in="SourceAlpha" result="shadowSpreadOuter1"></feMorphology>
            <feOffset dx="0" dy="0" in="shadowSpreadOuter1" result="shadowOffsetOuter1"></feOffset>
            <feGaussianBlur stdDeviation="17.5" in="shadowOffsetOuter1" result="shadowBlurOuter1"></feGaussianBlur>
            <feColorMatrix values="0 0 0 0 0   0 0 0 0 0   0 0 0 0 0  0 0 0 0.5 0" type="matrix" in="shadowBlurOuter1"></feColorMatrix>
        </filter>
    </defs>
    <g id="CZ-Česká-pošta-text" stroke="none" stroke-width="1" fill="none" fill-rule="evenodd">
        <g transform="translate(40, 40)">
            <g id="Rectangle">
                <use fill="black" fill-opacity="1" filter="url(#filter-2)" xlink:href="#path-1"></use>
                <use fill="#08316D" fill-rule="evenodd" xlink:href="#path-1"></use>
            </g>
            <g id="Logo" transform="translate(95.6463, 50.3105)" fill="#F3BA22">
                <path d="M635.220102,0.0274590541 C629.569247,0.0835880236 623.966677,0.220835967 618.344911,0.520164194 C614.52152,1.95393615 610.121663,7.43778378 611.07755,12.2219113 C624.232738,49.5393986 629.110558,98.1595812 618.344911,138.108075 C638.196041,212.743049 614.235751,288.240218 563.531504,341.102592 L581.761594,330.139903 C685.323248,258.618825 727.124352,137.556245 698.902202,16.0403761 C695.546919,10.5368597 694.113108,1.47601217 686.461436,0.520164194 C669.241352,0.520164194 652.172706,-0.140927855 635.220102,0.0274590541 Z M13.9189202,0.520164194 C8.17393886,1.71743768 3.38977195,5.97933715 1.478076,11.4828536 C2.91184796,102.145526 36.3911622,181.07689 91.6431166,250.444847 C180.615811,350.912352 300.653525,399.079246 435.304952,381.381238 C502.992784,375.399797 573.794513,324.458973 595.557338,257.9586 C621.389829,183.565051 602.233453,98.1201254 541.48291,45.9722134 C495.321404,7.69887809 432.506466,-9.57043708 371.992341,7.17168359 C314.114308,22.7214578 256.63032,76.0764974 241.795048,135.398196 C253.999314,185.629485 296.105856,239.792561 344.893598,258.451305 C332.935644,244.098804 325.323311,227.741033 321.736417,210.043025 C315.277092,167.699945 330.319341,128.027327 365.710351,103.865067 C393.218079,83.7725517 439.872368,81.6342114 468.808901,100.292955 C500.144988,117.995851 519.503333,150.095591 521.651567,184.545534 C523.090266,221.621596 508.53079,254.150029 477.677633,275.20328 C421.474719,311.323494 346.889093,286.333489 298.332962,250.937552 C234.719762,199.981986 209.054752,126.120559 221.963626,46.4649185 C223.402325,33.3096913 231.073744,23.026935 230.832319,9.38885672 C230.349468,5.56546483 226.531042,0.761589713 222.702723,0.520164194 L13.9189202,0.520164194 Z" id="path2926"></path>
                <path d="M16.2592302,409.588607 L27.0987433,424.123408 L42.1262895,424.123408 L52.8426263,409.588607 L40.4017821,409.588607 L34.4893204,417.471889 L28.700035,409.588607 L16.2592302,409.588607 Z M307.324831,409.588607 L305.969853,411.682604 L297.840218,424.123408 L305.969853,424.123408 L309.542004,424.123408 L325.062216,409.588607 L307.324831,409.588607 Z M526.948147,409.588607 L537.910837,424.123408 L553.06148,424.123408 L564.024209,409.588607 L551.337012,409.588607 L545.547766,417.471889 L539.635305,409.588607 L526.948147,409.588607 Z M34.9820255,427.079639 C13.9386284,427.079639 5.60140893e-14,443.087629 5.60140893e-14,463.416643 C5.60140893e-14,483.750584 13.9386284,500 34.9820255,500 C52.6849212,500 65.8106256,489.244247 67.0078991,471.299926 L48.5314169,471.299926 C47.8169944,479.434487 43.1018062,484.233475 34.4893204,484.233436 C22.7727922,484.233436 18.4764428,473.940825 18.4764428,463.416643 C18.4764428,453.133887 22.7727922,442.599851 34.4893204,442.599851 C42.1459977,442.599851 47.5755295,446.37886 48.5314169,453.316188 L67.0078991,453.316188 C66.2885101,436.574067 50.0539546,427.079639 34.9820255,427.079639 Z M168.381982,427.079639 C154.990217,427.079639 139.681828,433.0759 139.681868,448.389137 C139.681868,461.06644 150.210977,465.594439 160.252347,468.466871 C170.298565,471.334415 180.330002,472.472564 180.330042,478.690503 C180.330042,483.716095 174.624516,485.834688 169.121039,485.834727 C161.464401,485.834727 156.177596,483.243098 155.941137,474.872038 L137.834263,474.872038 C137.834263,492.811432 151.871393,500 168.135629,500 C183.443938,500 198.560132,494.299441 198.560132,476.596506 C198.560132,463.919203 188.523728,459.140002 178.482398,456.272419 C168.194754,453.399948 157.911958,452.419504 157.911958,447.157374 C157.911958,442.373207 162.952371,441.121696 166.780651,441.121736 C172.520665,441.121736 178.472543,443.043246 178.236084,449.497723 L196.342959,449.497723 C196.342959,433.71145 182.251553,427.079639 168.381982,427.079639 Z M470.779722,427.079639 C448.780477,427.079639 436.290402,443.087629 436.290402,463.416643 C436.290402,483.750584 448.780477,500 470.779722,500 C492.784012,500 505.145945,483.750584 505.145945,463.416643 C505.145945,443.087629 492.783934,427.079639 470.779722,427.079639 Z M545.547766,427.079639 C532.3925,427.079639 517.094005,433.0759 517.094045,448.389137 C517.094045,461.06644 527.376761,465.594439 537.418132,468.466871 C547.705815,471.334415 557.495787,472.472564 557.495827,478.690503 C557.495827,483.716095 552.036654,485.834688 546.533177,485.834727 C538.644928,485.834727 533.589734,483.243098 533.106922,474.872038 L515.000048,474.872038 C515.000048,492.811432 529.273637,500 545.301414,500 C560.851188,500 575.972269,494.299441 575.972269,476.596506 C575.972269,463.919203 565.689553,459.140002 555.648222,456.272419 C545.360538,453.399948 535.324095,452.419504 535.324095,447.157374 C535.324095,442.373207 540.12801,441.121696 544.192788,441.121736 C549.691377,441.121736 555.643255,443.043246 555.401869,449.497723 L573.631959,449.497723 C573.631959,433.71145 559.422304,427.079639 545.547766,427.079639 Z M74.6447893,428.434578 L74.6447893,498.275532 L131.30588,498.275532 L131.30588,482.75532 L92.8748795,482.75532 L92.8748795,469.329105 L126.99475,469.329105 L126.99475,455.287009 L92.8748795,455.287009 L92.8748795,443.092556 L130.443686,443.092556 L130.443686,428.434578 L74.6447893,428.434578 Z M205.211651,428.434578 L205.211651,498.275532 L223.441781,498.275532 L223.441781,476.842858 L230.832319,469.082752 L249.67833,498.275532 L272.219551,498.275532 L289.46423,498.275532 L293.77544,485.834727 L305.969853,485.834727 L318.164344,485.834727 L322.475475,498.275532 L341.567838,498.275532 L315.208113,428.434578 L305.969853,428.434578 L296.854808,428.434578 L271.110964,496.67424 L243.02681,456.026066 L269.140143,428.434578 L246.35257,428.434578 L223.441781,455.287009 L223.441781,428.434578 L205.211651,428.434578 Z M369.775168,428.434578 L369.775168,498.275532 L388.005258,498.275532 L388.005258,475.11839 L398.967987,475.11839 L403.032765,475.11839 C418.341114,475.11839 428.407119,468.195883 428.407119,450.975839 C428.407119,434.470216 416.187992,428.434578 403.032765,428.434578 L398.967987,428.434578 L369.775168,428.434578 Z M581.884731,428.434578 L581.884731,444.201143 L602.701563,444.201143 L602.701563,498.275532 L620.931653,498.275532 L620.931653,444.201143 L641.748406,444.201143 L641.748406,428.434578 L581.884731,428.434578 Z M663.797,428.434578 L637.683588,498.275532 L656.283247,498.275532 L660.594417,485.834727 L672.788869,485.834727 L684.983282,485.834727 L689.294452,498.275532 L708.509952,498.275532 L682.150227,428.434578 L672.788869,428.434578 L663.797,428.434578 Z M470.779722,442.599851 C482.501217,442.599851 487.038992,453.133887 487.038992,463.416643 C487.038992,473.940825 482.501217,484.233436 470.779722,484.233436 C459.063273,484.233436 454.520452,473.940825 454.520452,463.416643 C454.520452,453.133887 459.063194,442.599851 470.779722,442.599851 Z M388.005258,443.092556 L398.967987,443.092556 L400.19975,443.092556 C405.944731,443.092556 410.17699,445.753164 410.17699,452.207601 C410.17699,458.667005 405.944692,460.953118 400.19975,460.953118 L398.967987,460.953118 L388.005258,460.953118 L388.005258,443.092556 Z M305.969853,447.896431 L306.216245,447.896431 L313.853135,472.285336 L305.969853,472.285336 L298.08657,472.285336 L305.969853,447.896431 Z M672.788869,447.896431 L673.035182,447.896431 L680.672151,472.285336 L672.788869,472.285336 L664.905587,472.285336 L672.788869,447.896431 Z" id="path2930"></path>
            </g>
        </g>
    </g>
</svg>