<?xml version="1.0" encoding="UTF-8"?>
<svg width="980px" height="680px" viewBox="0 0 980 680" version="1.1" xmlns="http://www.w3.org/2000/svg" xmlns:xlink="http://www.w3.org/1999/xlink">
    <title>CZ Česká pošta</title>
    <defs>
        <rect id="path-1" x="0" y="0" width="900" height="600" rx="80"></rect>
        <filter x="-6.7%" y="-10.0%" width="113.3%" height="120.0%" filterUnits="objectBoundingBox" id="filter-2">
            <feMorphology radius="2.5" operator="dilate" in="SourceAlpha" result="shadowSpreadOuter1"></feMorphology>
            <feOffset dx="0" dy="0" in="shadowSpreadOuter1" result="shadowOffsetOuter1"></feOffset>
            <feGaussianBlur stdDeviation="17.5" in="shadowOffsetOuter1" result="shadowBlurOuter1"></feGaussianBlur>
            <feColorMatrix values="0 0 0 0 0   0 0 0 0 0   0 0 0 0 0  0 0 0 0.5 0" type="matrix" in="shadowBlurOuter1"></feColorMatrix>
        </filter>
    </defs>
    <g id="CZ-Česká-pošta" stroke="none" stroke-width="1" fill="none" fill-rule="evenodd">
        <g transform="translate(40, 40)">
            <g id="Rectangle">
                <use fill="black" fill-opacity="1" filter="url(#filter-2)" xlink:href="#path-1"></use>
                <use fill="#08316D" fill-rule="evenodd" xlink:href="#path-1"></use>
            </g>
            <g id="Logo" transform="translate(50.1243, 82.3105)" fill="#F3BA22">
                <path d="M718.096899,0.0311140192 C711.693881,0.094714092 705.345576,0.250230562 698.975519,0.589401175 C694.643211,2.2140168 689.657706,8.42779751 690.740828,13.8487211 C705.647051,56.1333903 711.174138,111.225212 698.975519,156.491089 C721.468953,241.060428 694.319404,326.606724 636.866118,386.505398 L657.522742,374.083508 C774.869075,293.042545 822.234157,155.865808 790.255469,18.1754466 C786.453578,11.9393791 784.828918,1.67247826 776.158763,0.589401175 C756.646582,0.589401175 737.305997,-0.159686199 718.096899,0.0311140192 Z M14.0967953,0.589401175 C7.58712245,1.94603896 2.16615416,6.77522286 -6.44096196e-14,13.0112904 C1.62461562,115.74171 39.5602279,205.179312 102.16655,283.780561 C202.982044,397.620895 338.997499,452.199092 491.571841,432.145373 C568.26933,425.367767 648.495194,367.646413 673.154783,292.29444 C702.425734,207.998662 680.719529,111.180504 611.882723,52.0913913 C559.576844,8.72364504 488.400859,-10.8443198 419.831941,8.12627778 C354.249994,25.7458204 289.114542,86.2027365 272.304605,153.42051 C286.133333,210.337886 333.844509,271.710393 389.126192,292.852727 C375.576563,276.589822 366.950982,258.054733 362.886651,238.001014 C355.567551,190.021816 372.612014,145.068534 412.71378,117.690132 C443.882952,94.9231819 496.747207,92.5002156 529.535367,113.64255 C565.042475,133.701808 586.977533,170.074216 589.411709,209.109654 C591.041908,251.120762 574.544478,287.978925 539.584581,311.834491 C475.90072,352.762522 391.3873,324.446197 336.368056,284.338848 C264.287557,226.60079 235.206379,142.907963 249.833502,52.6496785 C251.463701,37.7434114 260.156232,26.0919585 259.882671,10.63857 C259.33555,6.30626165 255.008869,0.862961881 250.670978,0.589401175 L14.0967953,0.589401175 Z" id="path2926"></path>
            </g>
        </g>
    </g>
</svg>