<?xml version="1.0" encoding="UTF-8"?>
<svg width="980px" height="680px" viewBox="0 0 980 680" version="1.1" xmlns="http://www.w3.org/2000/svg" xmlns:xlink="http://www.w3.org/1999/xlink">
    <title>DE DPD</title>
    <defs>
        <linearGradient x1="50%" y1="0%" x2="50%" y2="100%" id="linearGradient-1">
            <stop stop-color="#FFFFFF" offset="0%"></stop>
            <stop stop-color="#EDEDED" offset="100%"></stop>
        </linearGradient>
        <rect id="path-2" x="0" y="0" width="900" height="600" rx="80"></rect>
        <filter x="-6.7%" y="-10.0%" width="113.3%" height="120.0%" filterUnits="objectBoundingBox" id="filter-3">
            <feMorphology radius="2.5" operator="dilate" in="SourceAlpha" result="shadowSpreadOuter1"></feMorphology>
            <feOffset dx="0" dy="0" in="shadowSpreadOuter1" result="shadowOffsetOuter1"></feOffset>
            <feGaussianBlur stdDeviation="17.5" in="shadowOffsetOuter1" result="shadowBlurOuter1"></feGaussianBlur>
            <feColorMatrix values="0 0 0 0 0   0 0 0 0 0   0 0 0 0 0  0 0 0 0.5 0" type="matrix" in="shadowBlurOuter1"></feColorMatrix>
        </filter>
    </defs>
    <g id="DE-DPD" stroke="none" stroke-width="1" fill="none" fill-rule="evenodd">
        <g transform="translate(40, 40)">
            <g id="Rectangle">
                <use fill="black" fill-opacity="1" filter="url(#filter-3)" xlink:href="#path-2"></use>
                <use fill="url(#linearGradient-1)" fill-rule="evenodd" xlink:href="#path-2"></use>
            </g>
            <g id="Logo" transform="translate(50, 133)">
                <path d="M526.599379,268.596274 C511.848776,272.71272 492.638699,274.427901 476.172915,274.427901 C433.294635,274.427901 405.166036,252.13049 405.166036,211.309526 C405.166036,172.546331 431.579455,147.505069 469.998246,147.505069 C478.574165,147.505069 487.836168,148.53418 493.324768,151.278479 L493.324768,95.0203815 L526.599379,95.0203815 L526.599379,268.596274 Z M493.324768,180.093138 C488.179211,177.691888 480.97543,176.319734 472.742538,176.319734 C452.504712,176.319734 439.126262,188.669072 439.126262,210.280414 C439.126262,233.26344 453.533823,246.298863 477.202027,246.298863 C481.318473,246.298863 487.836168,246.298863 493.324768,244.926661 L493.324768,180.093138 Z M800,268.596274 C785.249396,272.71272 766.03932,274.427901 749.230493,274.427901 C706.693895,274.427901 678.221799,252.13049 678.221799,211.309526 C678.221799,172.546331 704.635672,147.505069 743.055824,147.505069 C751.974801,147.505069 760.893762,148.53418 766.382363,151.278479 L766.382363,95.0203815 L800,95.0203815 L800,268.596274 Z M766.382363,180.093138 C761.236805,177.691888 754.376051,176.319734 746.143159,176.319734 C725.560928,176.319734 712.182479,188.669072 712.182479,210.280414 C712.182479,233.26344 726.933082,246.298863 750.602647,246.298863 C754.719093,246.298863 760.893762,246.298863 766.382363,244.926661 L766.382363,180.093138 Z M579.084067,180.093138 C584.572651,177.691888 592.462516,177.005803 598.980212,177.005803 C619.562442,177.005803 633.626977,188.669072 633.626977,209.594345 C633.626977,234.292552 617.847262,245.612778 596.921989,245.955821 L596.921989,274.427901 L598.637186,274.427901 C641.859869,274.427901 667.587657,250.758336 667.587657,208.565234 C667.587657,170.145065 640.144672,147.505069 599.666297,147.505069 C579.084067,147.505069 558.844863,152.30759 545.466413,157.795727 L545.466413,320.737465 L579.084067,320.737465 L579.084067,180.093138 Z" id="path7" fill="#3F3F42"></path>
                <polygon id="path9" fill="#DC0032" points="290.592085 72.7234229 290.935176 72.7234229 290.935176 72.7234229"></polygon>
                <polygon id="path11" fill="#DC0032" points="282.359647 68.2639391 287.847793 74.4386082 290.935127 72.7234229 282.359647 68.2639391"></polygon>
                <polygon id="path13" fill="#DC0032" points="274.126754 63.8044569 284.760458 76.1537951 288.533862 74.0955721 284.417416 69.2930506 274.126754 63.8044569"></polygon>
                <polygon id="path15" fill="#DC0032" points="265.550836 59.3449732 281.673578 77.8689805 285.446527 75.8107574 276.184977 64.8335685 265.550836 59.3449732"></polygon>
                <path d="M257.317944,54.8854894 L278.586243,79.5841658 L282.359647,77.5259427 L267.609059,60.3740847 L257.317944,54.8854894 Z M298.138908,98.4507537 L295.737642,99.8229078 L298.138908,102.567205 L298.138908,98.4507586 L298.138908,98.4507537 Z" id="path17" fill="#DC0032"></path>
                <path d="M249.085052,50.4260072 L275.498908,81.2993527 L279.272312,79.2411297 L259.376167,55.9146009 L249.085052,50.4260072 L249.085052,50.4260072 Z M296.766754,99.1368276 L292.99335,101.538088 L298.138908,107.712757 L298.138908,101.195051 L296.766705,99.1368276 L296.766754,99.1368276 Z" id="path19" fill="#DC0032"></path>
                <path d="M240.509117,45.9665235 L272.411574,83.014538 L276.52802,80.956315 L251.143275,51.4551188 L240.509117,45.9665235 Z M293.679419,100.852014 L289.906016,103.253274 L298.138908,112.858315 L298.138908,106.340608 L293.679419,100.852014 Z" id="path21" fill="#DC0032"></path>
                <path d="M232.276225,41.5071775 L269.667282,84.7297234 L273.440685,82.6715003 L242.56734,46.995635 L232.276225,41.5071775 L232.276225,41.5071775 Z M290.592085,102.910238 L286.818681,104.968461 L298.138908,118.34691 L298.138908,111.829203 L290.592085,102.910238 Z" id="path23" fill="#DC0032"></path>
                <path d="M224.043333,37.0477407 L266.579947,86.4449103 L270.353351,84.3866873 L234.334448,42.536289 L224.043333,37.0477407 Z M287.50475,104.625423 L283.731347,106.683646 L298.138908,123.492468 L298.138908,116.974761 L287.50475,104.625423 Z" id="path25" fill="#DC0032"></path>
                <path d="M215.467852,32.5883023 L263.492613,88.1600956 L267.266016,86.1018726 L226.101556,38.0768522 L215.467852,32.5883023 L215.467852,32.5883023 Z M284.417416,106.340608 L280.644466,108.398831 L298.138908,128.638025 L298.138908,122.120319 L284.417416,106.340608 L284.417416,106.340608 Z" id="path27" fill="#DC0032"></path>
                <path d="M207.23496,28.1288201 L260.405278,90.2183186 L264.178682,87.8170579 L217.526075,33.6174138 L207.23496,28.1288201 Z M281.330535,108.055795 L277.557132,110.114018 L298.138908,134.126619 L298.138908,127.608914 L281.330535,108.055795 Z" id="path29" fill="#DC0032"></path>
                <path d="M198.659041,23.6693817 L257.317944,91.933504 L261.091347,89.5322448 L209.293183,29.1579316 L198.659041,23.6693817 Z M278.586243,109.77098 L274.469797,111.829203 L298.138908,139.272177 L298.138908,132.754471 L278.586243,109.77098 L278.586243,109.77098 Z" id="path31" fill="#DC0032"></path>
                <path d="M190.426149,19.209945 L254.230609,93.6482339 L258.347055,91.2474302 L201.060291,24.6984932 L190.426149,19.209945 Z M275.498908,111.486166 L271.725505,113.544389 L298.138908,144.760772 L298.138908,137.900029 L275.498908,111.486166 Z" id="path33" fill="#DC0032"></path>
                <path d="M182.193257,14.7505069 L251.486301,95.3634192 L255.259721,92.9621585 L192.484372,20.2390565 L182.193257,14.7505069 Z M272.411574,113.201353 L268.63817,115.259576 L298.138908,149.90633 L298.138908,143.388623 L272.411574,113.201353 L272.411574,113.201353 Z" id="path35" fill="#DC0032"></path>
                <path d="M173.617322,9.94798653 L248.398966,97.0786045 L252.172386,94.6773454 L184.25148,15.7795727 L173.617322,9.94798653 Z M269.324239,114.916538 L265.550836,116.974761 L298.138908,155.05143 L298.138908,148.53418 L269.324239,114.916538 L269.324239,114.916538 Z" id="path37" fill="#DC0032"></path>
                <path d="M165.384432,5.48854894 L245.311632,98.7937915 L249.085052,96.7355684 L176.018588,11.3201353 L165.384432,5.48854894 Z M266.236905,116.631723 L262.463501,118.689946 L298.138908,160.540024 L298.138908,153.679738 L266.236905,116.631723 L266.236905,116.631723 Z" id="path39" fill="#DC0032"></path>
                <path d="M157.151997,1.3721395 L242.224297,100.508977 L245.997717,98.4507537 L167.442653,6.86069768 L157.151997,1.3721395 C157.151997,1.3721395 157.151997,1.3721395 157.151997,1.3721395 Z M263.14957,118.34691 L259.376167,120.405133 L298.138908,165.685576 L298.138908,159.167876 L263.14957,118.34691 L263.14957,118.34691 Z" id="path41" fill="#DC0032"></path>
                <path d="M151.663403,0 C151.663403,0 151.663403,0 151.663403,0 L239.136963,102.224162 L242.910383,100.165939 L159.21022,2.40124194 L157.151997,1.3721395 C155.436811,0.343034471 153.721626,0 151.663403,0 Z M260.062236,120.062096 L256.288832,122.120319 L298.138908,170.831134 L298.138908,164.313439 L260.062236,120.062096 L260.062236,120.062096 Z" id="path43" fill="#DC0032"></path>
                <path d="M151.663403,0 C150.291249,0 148.919104,0.343034471 147.546957,0.686069752 L236.049628,103.939349 L240.166074,101.881126 L152.692514,0 C152.349472,0 152.006446,0 151.663403,0 Z M257.317944,121.777281 L253.544524,123.835504 L298.138908,176.319734 L298.138908,169.458996 L257.317944,121.777281 L257.317944,121.777281 Z" id="path45" fill="#DC0032"></path>
                <path d="M148.576068,0.343034471 C147.889999,0.686069752 146.860881,1.02910244 146.517845,1.3721395 L144.459622,2.40124194 L233.305336,105.654534 L237.07874,103.596311 L148.576068,0.343034471 L148.576068,0.343034471 Z M254.230609,123.492468 L250.45719,125.893727 L298.138908,181.465292 L298.138908,174.94758 L254.230609,123.492468 L254.230609,123.492468 Z" id="path47" fill="#DC0032"></path>
                <path d="M145.145696,1.71517219 L141.372288,3.77338145 L230.218002,107.36972 L233.991405,105.311497 L145.145696,1.71517219 Z M251.143275,125.207653 L247.369855,127.608914 L298.138908,186.610849 L298.138908,180.093138 L251.143275,125.207653 L251.143275,125.207653 Z" id="path49" fill="#DC0032"></path>
                <path d="M142.058362,3.43034422 L138.284953,5.48854894 L227.130667,109.084907 L230.904071,107.026684 L142.058362,3.43034422 Z M248.05594,126.922838 L244.28252,129.324099 L298.138908,192.09945 L298.138908,185.581738 L248.05594,126.922838 Z" id="path51" fill="#DC0032"></path>
                <path d="M138.971027,5.14551188 L135.197619,7.20373491 L224.043333,110.800092 L227.816736,108.741869 L138.971027,5.14551188 Z M244.968606,128.638025 L241.195186,131.039285 L298.138908,197.245007 L298.138908,190.727295 L244.968606,128.638025 Z" id="path53" fill="#DC0032"></path>
                <path d="M135.883692,6.86069768 L132.110284,8.91892071 L220.956452,112.515277 L224.729402,110.457054 L135.883692,6.86069768 Z M241.881271,130.353211 L238.107851,132.754471 L298.138908,202.390565 L298.138908,195.872853 L241.881271,130.353211 L241.881271,130.353211 Z" id="path55" fill="#DC0032"></path>
                <path d="M132.796358,8.57588349 L129.02295,10.6340608 L217.869117,114.230464 L221.642067,112.172241 L132.796358,8.57588349 Z M239.136963,132.068396 L235.363559,134.469657 L298.138908,207.879149 L298.138908,201.361453 L239.136963,132.068396 L239.136963,132.068396 Z" id="path57" fill="#DC0032"></path>
                <path d="M129.709023,9.94798653 L125.935615,12.3492468 L215.124825,115.94565 L218.898229,113.887426 L129.709023,9.94798653 Z M236.049628,134.126619 L232.276225,136.184842 L298.138908,213.024706 L298.138908,206.507011 L236.049628,134.126619 L236.049628,134.126619 Z" id="path59" fill="#DC0032"></path>
                <path d="M126.621689,11.6631723 L122.84828,13.7213954 L212.037491,117.660835 L215.810894,115.602612 L126.621689,11.6631723 Z M232.962294,135.841806 L229.18889,137.900029 L298.138908,218.512853 L298.138908,211.652568 L232.962294,135.841806 Z" id="path61" fill="#DC0032"></path>
                <path d="M123.534354,13.3783583 L119.760946,15.4365813 L208.950156,119.719058 L212.72356,117.317799 L123.534354,13.3783583 Z M229.874959,137.556991 L226.101556,139.615214 L298.138908,223.65841 L298.138908,217.140698 L229.874959,137.556991 Z" id="path63" fill="#DC0032"></path>
                <path d="M120.44702,15.0935441 L116.673611,17.1517219 L205.862822,121.434245 L209.636225,119.032984 L120.44702,15.0935441 Z M226.787625,139.272177 L223.014221,141.3304 L298.138908,228.803968 L298.138908,222.286256 L226.787625,139.272177 Z" id="path65" fill="#DC0032"></path>
                <path d="M117.359685,16.8086842 L113.586277,18.8669072 L202.775487,123.14943 L206.548891,120.748169 L117.359685,16.8086842 Z M223.70029,140.987364 L219.92734,143.045587 L298.138908,234.292552 L298.138908,227.431814 L223.70029,140.987364 L223.70029,140.987364 Z" id="path67" fill="#DC0032"></path>
                <path d="M114.272351,18.5238695 L110.498942,20.5820926 L199.688153,124.864615 L203.461556,122.463356 L114.272351,18.5238695 Z M220.956452,142.702549 L217.183048,144.760772 L298.138908,239.438109 L298.138908,232.920414 L220.956452,142.702549 L220.956452,142.702549 Z" id="path69" fill="#DC0032"></path>
                <path d="M111.185016,19.8960188 L107.06857,21.9541964 L196.943844,126.579802 L200.717264,124.178542 L111.185016,19.8960188 Z M217.869117,144.417734 L214.095714,146.475957 L298.138908,244.583667 L298.138908,238.065971 L217.869117,144.417734 L217.869117,144.417734 Z" id="path71" fill="#DC0032"></path>
                <path d="M108.097682,21.6111944 L103.981235,23.6693817 L194.199553,128.638025 C194.542644,127.951956 194.885573,127.608914 195.571755,127.265871 L197.629978,125.893717 L108.09773,21.6111944 L108.097682,21.6111944 Z M214.781783,146.132921 L211.008379,148.191144 L297.452823,249.043155 C297.795914,248.014044 298.138843,246.984932 298.138843,245.955821 L298.138843,243.211529 L214.781718,146.132921 L214.781783,146.132921 Z" id="path73" fill="#DC0032"></path>
                <path d="M105.010347,23.326344 L100.893901,25.384567 L193.170441,132.754471 L193.170441,131.382317 C193.170441,130.353206 193.856461,128.981057 194.542644,127.951945 L105.010347,23.326344 Z M211.694448,147.848106 L208.950156,149.563292 C208.607065,149.563292 208.264136,149.906334 207.921045,149.906334 L295.737642,252.473537 C296.766754,251.101335 297.452823,249.729229 297.795865,248.357091 L211.694448,147.848106 L211.694448,147.848106 Z" id="path75" fill="#DC0032"></path>
                <path d="M101.923012,25.041531 L97.8070234,27.099754 L193.170441,138.243065 L193.170441,131.382322 L101.923012,25.041531 Z M202.089402,148.191144 L293.336377,254.874782 C294.365488,254.188762 295.3946,252.816559 296.423711,251.787447 L208.607114,149.563292 C207.234911,150.249361 205.176737,150.249361 203.804599,149.563292 L202.089402,148.191144 Z" id="path77" fill="#DC0032"></path>
                <path d="M98.8356779,26.7567163 L94.7196889,28.8148939 L290.249042,256.589979 L292.99335,255.217776 C293.336442,254.874685 293.679371,254.531756 294.022462,254.188664 L204.147625,149.563292 C204.147625,149.563292 203.804534,149.563292 203.804534,149.563292 L195.914733,144.760772 C195.228713,144.417729 194.885621,143.73166 194.199553,143.045587 C194.199553,143.045587 194.199553,143.045587 194.199553,143.045587 C193.513532,142.016475 193.513532,141.3304 193.170441,140.644326 L193.170441,136.870918 L98.8356779,26.7567163 Z" id="path79" fill="#DC0032"></path>
                <polygon id="path81" fill="#DC0032" points="95.7488004 28.4718562 91.6323543 30.5300792 287.161708 258.305159 290.935127 256.246936"></polygon>
                <polygon id="path83" fill="#DC0032" points="92.6614658 29.8440054 88.5450198 31.9022285 284.417416 260.02034 288.190819 257.962117"></polygon>
                <polygon id="path85" fill="#DC0032" points="89.5741313 31.5591908 85.4576852 33.6174138 281.330535 261.735536 285.103485 259.677313"></polygon>
                <polygon id="path87" fill="#DC0032" points="86.4867968 33.2743777 82.3703507 35.3325537 278.2432 263.450717 282.01662 261.392494"></polygon>
                <polygon id="path89" fill="#DC0032" points="83.0564261 34.9895176 79.2830161 37.0477407 275.155866 265.50894 278.929286 263.107674"></polygon>
                <polygon id="path91" fill="#DC0032" points="79.9690916 36.704703 76.1956816 38.762926 272.068531 267.22412 275.841951 264.822871"></polygon>
                <polygon id="path93" fill="#DC0032" points="76.881757 38.4198883 73.108347 40.4780659 269.324239 268.939317 273.097643 266.538051"></polygon>
                <polygon id="path95" fill="#DC0032" points="73.7944225 39.7920375 70.0210125 41.8502152 266.236905 270.654497 270.010308 268.253232"></polygon>
                <polygon id="path97" fill="#DC0032" points="70.7070879 41.5071775 66.933678 43.5654005 263.14957 272.369678 266.922974 270.311455"></polygon>
                <path d="M67.6197534,43.2223628 L63.8463434,45.2805858 L159.21022,156.423578 L162.297097,158.481801 C163.669251,159.16787 165.041396,160.883061 165.041396,162.598242 L165.041396,162.941333 L260.062236,274.084923 L263.835639,272.0267 L67.6197534,43.2223628 Z" id="path99" fill="#DC0032"></path>
                <path d="M64.5324188,44.9375497 L60.7590089,46.995635 L150.291254,151.621515 L161.611023,157.795727 L64.5324188,44.9375497 Z M164.698358,161.569135 C164.698358,161.912178 165.0414,162.25522 165.0414,162.598247 L165.0414,168.42989 L256.974906,275.80006 L260.74831,273.741837 L164.698358,161.569135 L164.698358,161.569135 Z" id="path101" fill="#DC0032"></path>
                <path d="M61.4450843,46.6525973 L57.6716743,48.7108203 L141.372288,146.475957 L152.692514,152.650626 L61.4450843,46.6525973 Z M165.041396,167.057731 L165.041396,173.575442 L254.230609,277.515235 L258.004013,275.457012 L165.041396,167.057731 L165.041396,167.057731 Z" id="path103" fill="#DC0032"></path>
                <path d="M58.3577497,48.3677842 L54.5843398,50.4260072 L132.796358,141.3304 L143.773547,147.505069 L58.3577497,48.3677842 Z M165.041396,172.203288 L165.041396,179.064026 L251.143275,279.229978 L254.916678,277.172209 L165.041396,172.203288 L165.041396,172.203288 Z" id="path105" fill="#DC0032"></path>
                <path d="M55.2704152,49.7399318 L51.4970052,51.7981549 L123.877392,136.184842 L134.854581,142.702549 L55.2704152,49.7399318 Z M165.041396,177.691888 L165.041396,184.209584 L248.05594,280.945159 L251.829344,278.886936 L165.041396,177.691888 L165.041396,177.691888 Z" id="path107" fill="#DC0032"></path>
                <path d="M52.1830806,51.4551188 L48.4098084,53.5133418 L114.958424,131.039285 L125.935615,137.556991 L52.1830806,51.4551188 Z M165.041396,182.837446 L165.041396,189.355141 L244.968606,282.660339 L248.742009,280.602116 L165.041396,182.837446 L165.041396,182.837446 Z" id="path109" fill="#DC0032"></path>
                <path d="M49.0958822,53.1703041 L45.3225193,55.2285271 L106.039459,126.236765 L117.016647,132.411434 L49.0958822,53.1703041 Z M165.041396,187.983003 L165.041396,194.843741 L241.881271,284.718562 L245.654675,282.317313 L165.041396,187.983003 L165.041396,187.983003 Z" id="path111" fill="#DC0032"></path>
                <path d="M46.0085477,54.8854894 L42.2351847,56.9437124 L97.1209496,121.091207 L108.097682,127.265876 L46.0085477,54.8854894 L46.0085477,54.8854894 Z M165.041396,193.471587 L165.041396,199.989299 L239.136963,286.433759 L242.910383,284.032493 L165.041396,193.471587 L165.041396,193.471587 Z" id="path113" fill="#DC0032"></path>
                <path d="M42.9212601,56.6006763 L39.1478955,58.6588994 L88.2019837,115.94565 L99.5217517,122.120319 L42.9212601,56.6006763 Z M165.041396,198.617145 L165.041396,205.134857 L236.049628,288.148939 L239.823048,285.747674 L165.041396,198.617145 Z" id="path115" fill="#DC0032"></path>
                <path d="M39.8339256,58.3158617 L36.060561,60.3740847 L79.2830161,110.800092 L90.6032428,117.317799 L39.8339256,58.3158617 Z M129.709023,169.458996 L138.627989,179.750111 L138.627989,175.976692 C138.627989,175.290671 137.94192,174.261511 137.255835,173.918469 L129.709023,169.458996 L129.709023,169.458996 Z M165.041396,203.762703 L165.041396,210.623457 L232.962294,289.86412 L236.735713,287.46287 L165.041396,203.762703 L165.041396,203.762703 Z" id="path117" fill="#DB0032"></path>
                <path d="M36.7466364,59.6880109 L32.9732734,61.7462339 L70.3640502,105.654534 L81.6842769,112.172241 L36.7466364,59.6880109 Z M120.790057,164.313439 L138.627989,184.895669 L138.627989,178.377957 L132.110284,170.831134 L120.790057,164.313439 L120.790057,164.313439 Z M165.041396,209.251303 L165.041396,215.769014 L229.874959,291.579316 L233.648379,289.521093 L165.041396,209.251303 Z" id="path119" fill="#DC0032"></path>
                <path d="M33.6593019,61.4031962 L29.8859389,63.4614192 L61.7881204,100.852014 L72.765311,107.026684 L33.6593019,61.4031962 L33.6593019,61.4031962 Z M111.87109,159.510912 L138.627989,190.384253 L138.627989,183.866557 L123.191317,165.685576 L111.87109,159.510912 Z M165.041396,214.39686 L165.041396,220.914102 L226.787625,293.294497 L230.561044,291.236274 L165.041396,214.39686 Z" id="path121" fill="#DC0032"></path>
                <path d="M30.5720127,63.1183815 L26.7986497,65.1766046 L52.8691544,95.7064569 L63.8463434,101.881126 L30.5720127,63.1183815 Z M103.295162,154.365813 L138.627989,195.52981 L138.627989,189.012115 L114.272351,160.540024 L103.295162,154.365813 Z M165.041396,219.88499 L165.041396,226.402702 L224.043333,295.009677 L227.816736,292.951454 L165.041396,219.88499 L165.041396,219.88499 Z" id="path123" fill="#DC0032"></path>
                <path d="M27.4846782,64.8335685 L23.7113152,66.8917915 L43.9503717,90.5613564 L54.9273775,96.7355684 L27.4846782,64.8335685 Z M94.3766528,149.220256 L138.627989,200.675368 L138.627989,194.157673 L105.353385,155.737504 L94.3766528,149.220256 Z M165.041396,225.030548 L165.041396,231.54826 L220.956452,296.724874 L224.729402,294.666651 L165.041396,225.030548 L165.041396,225.030548 Z" id="path125" fill="#DC0032"></path>
                <path d="M24.397389,66.5487538 L20.6240262,68.6069768 L35.0314495,85.4157988 L46.0085477,91.933504 L24.397389,66.5487538 Z M85.4576852,144.074698 L138.627989,206.163968 L138.627989,199.646256 L96.4348758,150.592403 L85.4576852,144.074698 Z M165.041396,230.176106 L165.041396,236.693817 L217.869117,298.440054 L221.642067,296.381831 L165.041396,230.176106 L165.041396,230.176106 Z" id="path127" fill="#DC0032"></path>
                <path d="M21.3100548,68.2639391 L17.5366916,70.3221621 L26.1125759,80.2702412 L37.4327102,86.7879464 L21.3100548,68.2639391 Z M76.5387193,139.272177 L138.627989,211.309526 L138.627989,204.791814 L87.5159083,145.446846 L76.5387193,139.272177 Z M165.041396,235.664706 L165.041396,242.182417 L214.781783,300.155235 L218.555186,298.097012 L165.041396,235.664706 L165.041396,235.664706 Z" id="path129" fill="#DC0032"></path>
                <path d="M18.2227659,69.6360883 L14.1063657,71.6943114 L17.1936544,75.4677197 L28.5137897,81.6423888 L18.2227659,69.6360883 Z M67.6197534,134.126619 L138.627989,216.797656 L138.627989,209.937372 L78.9399801,140.301288 L67.6197534,134.126619 Z M165.041396,240.810263 L165.041396,247.327975 L211.694448,302.213458 L215.467852,299.812209 L165.041396,240.810263 Z" id="path131" fill="#DC0032"></path>
                <path d="M15.1354314,71.3512737 L12.734217,72.7234277 L19.5949147,76.4968361 L15.1354314,71.3512785 L15.1354314,71.3512737 Z M58.7007858,128.981062 L138.627989,221.943213 L138.627989,215.425972 L70.0210125,135.498768 L58.7007858,128.981062 Z M165.041396,245.955821 L165.041396,252.816559 L208.950156,303.928655 L212.72356,301.527389 L165.041396,245.955821 L165.041396,245.955821 Z" id="path133" fill="#DC0032"></path>
                <path d="M50.1249937,123.835504 L138.627989,227.088771 L138.627989,220.571076 L61.1020466,130.353211 L50.1249937,123.835504 Z M165.041396,251.444421 L165.041396,257.962117 L205.862822,305.643835 L209.636225,303.242569 L165.041396,251.444421 L165.041396,251.444421 Z" id="path135" fill="#DC0032"></path>
                <path d="M41.2060732,119.032984 L138.627989,232.577371 L138.627989,225.716633 L52.1830806,125.207653 L41.2060732,119.032984 Z M165.041396,256.589979 L165.041396,263.107674 L202.775487,307.359015 L206.548891,304.957766 L165.041396,256.589979 L165.041396,256.589979 Z" id="path137" fill="#DC0032"></path>
                <path d="M32.287198,113.887426 L138.627989,237.722929 L138.627989,231.205217 L43.2642962,120.062096 L32.287198,113.887426 L32.287198,113.887426 Z M165.041396,261.735536 L165.041396,268.596274 L199.688153,309.074212 L203.461556,307.015989 L165.041396,261.735536 Z" id="path139" fill="#DC0032"></path>
                <path d="M23.3682775,108.741869 L138.627989,242.868486 L138.627989,236.350775 L34.3453757,115.259576 L23.3682775,108.741869 Z M165.041396,267.22412 L165.041396,273.741832 L196.600818,310.789393 L200.374222,308.73117 L165.041396,267.22412 L165.041396,267.22412 Z" id="path141" fill="#DB0032"></path>
                <path d="M14.4494028,103.596311 L138.627989,248.357087 L138.627989,241.839375 L25.4265005,110.114018 L14.4494028,103.596311 Z M165.041396,272.369678 L165.041396,278.886936 L193.85651,312.504573 L197.62993,310.44635 L165.041396,272.369678 L165.041396,272.369678 Z" id="path143" fill="#DA0032"></path>
                <path d="M5.53047932,98.7937915 L138.627989,253.502644 L138.627989,246.984932 L16.8506173,104.968461 L5.53047932,98.7937915 Z M165.041396,277.515235 L165.041396,284.375536 L190.769175,314.21977 L194.542595,312.161547 L165.041396,277.515235 Z" id="path145" fill="#D90032"></path>
                <path d="M5.18744492,98.4507537 L5.18744492,103.253274 L138.627989,258.648202 L138.627989,252.13049 L7.93172402,99.822903 L5.18744492,98.4507537 Z M165.041396,283.003382 L165.041396,287.119828 C165.041396,287.805848 164.698353,288.49203 164.355327,288.835008 L187.681847,315.93495 L191.455267,313.876727 L165.041402,283.003382 L165.041396,283.003382 Z" id="path147" fill="#D80032"></path>
                <path d="M5.18744492,101.881126 L5.18744492,108.741869 L138.627989,264.136786 L138.627989,257.61909 L5.18744492,101.881126 Z M164.698358,288.148939 C164.355315,289.521142 163.326204,290.893231 162.297097,291.236274 L161.954055,291.579365 L184.5945,317.650179 L188.36792,315.591956 L164.698351,288.148939 L164.698358,288.148939 Z" id="path149" fill="#D70032"></path>
                <path d="M5.18744492,107.36972 L5.18744492,113.887426 L138.627989,269.282343 L138.627989,262.764648 L5.18744492,107.36972 Z M162.640135,290.893231 C162.640135,291.236322 162.640135,291.236322 162.297092,291.236322 L158.867179,293.294545 L181.507167,319.365376 L185.280587,317.307153 L162.64013,290.893231 L162.640135,290.893231 Z" id="path151" fill="#D60032"></path>
                <path d="M5.18744492,112.515277 L5.18744492,119.032984 L138.627989,274.427901 L138.627989,267.910205 L5.18744492,112.515277 Z M159.895838,292.608428 L155.779849,295.009677 L178.76288,321.42355 L182.536283,319.022285 L159.895838,292.608428 Z" id="path153" fill="#D50032"></path>
                <path d="M5.18744492,118.003873 L5.18744492,124.521579 L138.627989,279.916047 L138.627989,273.398789 L5.18744492,118.003873 Z M156.808961,294.323608 L154.4077,295.695762 C153.721631,296.038854 153.035546,296.038854 152.349477,296.038854 L175.675545,323.138796 L179.448949,320.73753 L156.808961,294.323608 L156.808961,294.323608 Z" id="path155" fill="#D40032"></path>
                <path d="M5.18744492,123.14943 L5.18744492,129.667137 L138.627989,285.061605 L138.627989,278.543893 L5.18744492,123.14943 Z M146.174796,294.323608 L172.588211,324.853911 L176.361614,322.452662 L153.378588,296.038789 C153.035546,296.038789 152.349477,296.38188 152.006434,296.38188 L151.663392,296.38188 C150.63428,296.38188 149.948205,296.038789 149.262131,295.69586 L146.174796,294.323608 L146.174796,294.323608 Z" id="path157" fill="#D30032"></path>
                <path d="M5.18744492,128.294988 L5.18744492,135.155731 L169.500876,326.569108 L173.27428,324.167842 L148.576068,295.35272 L141.02925,291.236274 C139.657096,290.550253 138.627989,288.835008 138.627989,287.119828 L138.627989,283.689451 L5.18744492,128.294988 Z" id="path159" fill="#D20032"></path>
                <polygon id="path161" fill="#D10032" points="5.18744492 133.783583 5.18744492 140.301288 166.413543 328.284288 170.186945 326.226065"></polygon>
                <polygon id="path163" fill="#D00032" points="5.18744492 138.929141 5.18744492 145.446846 163.326209 329.999469 167.099619 327.941246"></polygon>
                <polygon id="path165" fill="#CF0032" points="5.18744492 144.074698 5.18744492 150.935441 160.581912 331.714666 164.35532 329.656442"></polygon>
                <polygon id="path167" fill="#CE0032" points="5.18744492 149.563292 5.18744492 156.080542 157.495034 333.429846 161.267986 331.371623"></polygon>
                <path d="M5.18744492,154.708392 L5.18744492,161.226099 L154.064662,334.802 C155.093774,334.458909 156.122885,334.11598 157.151997,333.772889 L158.181108,333.086868 L5.18744492,154.708392 Z" id="path169" fill="#CD0032"></path>
                <path d="M5.18744492,159.85395 L5.18744492,166.714688 L149.60518,334.802 C150.291249,334.802 150.977334,334.802 151.663403,334.802 C152.692514,334.802 153.721626,334.802 154.750737,334.458909 L5.18744492,159.85395 Z" id="path171" fill="#CC0032"></path>
                <path d="M5.18744492,165.34255 L5.18744492,171.860246 L141.715324,331.02858 L146.517845,333.772889 C147.546957,334.458909 149.262142,334.802 150.634291,334.802 L5.18744492,165.34255 Z" id="path173" fill="#CB0032"></path>
                <polygon id="path175" fill="#CA0032" points="5.18744492 170.488108 5.18744492 177.005803 132.796358 325.883023 144.116585 332.400734"></polygon>
                <polygon id="path177" fill="#C90032" points="5.18744492 175.976692 5.18744492 182.494403 123.877392 320.737465 135.197619 327.255177"></polygon>
                <polygon id="path179" fill="#C80033" points="5.18744492 181.122249 5.18744492 187.639961 114.958424 315.591908 125.935615 322.109619"></polygon>
                <polygon id="path181" fill="#C70033" points="5.18744492 186.267807 5.18744492 192.785518 106.039459 310.44635 117.016647 316.964062"></polygon>
                <polygon id="path183" fill="#C60033" points="5.18744492 191.756407 5.18744492 198.274119 96.7779119 304.957766 108.097682 311.475462"></polygon>
                <polygon id="path185" fill="#C50033" points="5.18744492 196.901965 5.18744492 203.419676 87.858946 299.812209 99.1787156 306.329904"></polygon>
                <polygon id="path187" fill="#C40033" points="5.18744492 202.047522 5.18744492 208.565234 78.9399801 294.666651 90.2602067 301.184346 5.18744492 202.047522"></polygon>
                <polygon id="path189" fill="#C30033" points="5.18744492 207.536122 5.18744492 214.053818 70.0210125 289.521093 81.3412392 296.038789"></polygon>
                <polygon id="path191" fill="#C20033" points="5.18744492 212.68168 5.18744492 219.198922 61.1020466 284.375536 72.4222732 290.893231"></polygon>
                <polygon id="path193" fill="#C10033" points="5.18744492 217.826767 5.18744492 224.687522 52.1830806 279.229978 63.1602696 285.747674"></polygon>
                <polygon id="path195" fill="#C00033" points="5.18744492 223.315368 5.18744492 229.833079 42.9212601 274.084874 54.2413037 280.602116"></polygon>
                <polygon id="path197" fill="#BF0033" points="5.18744492 228.460925 5.18744492 234.978637 34.002338 268.939317 45.3225193 275.113986"></polygon>
                <polygon id="path199" fill="#BE0033" points="5.18744492 233.606483 5.18744492 240.467221 25.0834644 263.450717 36.4035987 269.968428"></polygon>
                <polygon id="path201" fill="#BD0033" points="5.18744492 239.095083 5.18744492 245.612778 16.1645429 258.305159 27.4846782 264.822871"></polygon>
                <path d="M5.18744492,244.24064 L5.18744492,245.955821 C5.18744492,249.386198 7.58868679,253.502644 10.3329567,255.217825 L18.5658031,259.677313 L5.18744492,244.24064 L5.18744492,244.24064 Z" id="path203" fill="#BC0033"></path>
                <path d="M7.24565427,252.13049 C7.93172321,252.81651 8.27475606,253.502693 8.9608263,253.84567 L7.24565427,252.13049 Z" id="path205" fill="#BB0033"></path>
            </g>
        </g>
    </g>
</svg>