<?xml version="1.0" encoding="UTF-8"?>
<svg width="980px" height="680px" viewBox="0 0 980 680" version="1.1" xmlns="http://www.w3.org/2000/svg" xmlns:xlink="http://www.w3.org/1999/xlink">
    <title>DE DPD Express red</title>
    <defs>
        <rect id="path-1" x="0" y="0" width="900" height="600" rx="80"></rect>
        <filter x="-6.7%" y="-10.0%" width="113.3%" height="120.0%" filterUnits="objectBoundingBox" id="filter-2">
            <feMorphology radius="2.5" operator="dilate" in="SourceAlpha" result="shadowSpreadOuter1"></feMorphology>
            <feOffset dx="0" dy="0" in="shadowSpreadOuter1" result="shadowOffsetOuter1"></feOffset>
            <feGaussianBlur stdDeviation="17.5" in="shadowOffsetOuter1" result="shadowBlurOuter1"></feGaussianBlur>
            <feColorMatrix values="0 0 0 0 0   0 0 0 0 0   0 0 0 0 0  0 0 0 0.5 0" type="matrix" in="shadowBlurOuter1"></feColorMatrix>
        </filter>
    </defs>
    <g id="DE-DPD-Express-red" stroke="none" stroke-width="1" fill="none" fill-rule="evenodd">
        <g transform="translate(40, 40)">
            <g id="Rectangle">
                <use fill="black" fill-opacity="1" filter="url(#filter-2)" xlink:href="#path-1"></use>
                <use fill="#DC0032" fill-rule="evenodd" xlink:href="#path-1"></use>
            </g>
            <g id="Logo" transform="translate(84, 50)" fill="#FFFFFF">
                <path d="M480.599332,247.572373 C467.003306,251.366612 449.296865,252.947539 434.119911,252.947539 C394.597853,252.947539 368.67097,232.395419 368.67097,194.769644 C368.67097,159.04057 393.016925,135.959369 428.428553,135.959369 C436.333207,135.959369 444.870243,136.907929 449.929233,139.437422 L449.929233,87.5828282 L480.599332,87.5828282 L480.599332,247.572373 Z M449.929233,165.996664 C445.186435,163.783368 438.546517,162.518617 430.95804,162.518617 C412.304294,162.518617 399.973019,173.901333 399.973019,193.821085 C399.973019,215.005155 413.252854,227.020253 435.06847,227.020253 C438.862709,227.020253 444.870243,227.020253 449.929233,225.755457 L449.929233,165.996664 Z M732.6,247.572373 C719.003974,251.366612 701.297532,252.947539 685.804387,252.947539 C646.597266,252.947539 620.353773,232.395419 620.353773,194.769644 C620.353773,159.04057 644.700147,135.959369 680.113029,135.959369 C688.333889,135.959369 696.554734,136.907929 701.613724,139.437422 L701.613724,87.5828282 L732.6,87.5828282 L732.6,247.572373 Z M701.613724,165.996664 C696.870926,163.783368 690.547185,162.518617 682.958708,162.518617 C663.987516,162.518617 651.656241,173.901333 651.656241,193.821085 C651.656241,215.005155 665.252267,227.020253 687.069138,227.020253 C690.863377,227.020253 696.554734,227.020253 701.613724,225.755457 L701.613724,165.996664 Z M528.975873,165.996664 C534.034848,163.783368 541.307148,163.150985 547.314682,163.150985 C566.285875,163.150985 579.249533,173.901333 579.249533,193.188716 C579.249533,215.953714 564.704947,226.38787 545.417563,226.704062 L545.417563,252.947539 L546.998506,252.947539 C586.83801,252.947539 610.552,231.130668 610.552,192.240157 C610.552,156.827259 585.257067,135.959369 547.947065,135.959369 C528.975873,135.959369 510.320857,140.385981 497.989582,145.444544 L497.989582,295.632304 L528.975873,295.632304 L528.975873,165.996664 Z" id="path7"></path>
                <path d="M135.95937,2.84217094e-14 L135.987149,0.0312627264 C137.352038,0.123561681 138.566432,0.430833095 139.76925,1.0919943 L140.069794,1.2647377 L141.966913,2.21328895 L142.065745,2.32920352 L148.055126,5.52298674 L147.657849,5.05894242 L155.328472,9.26519738 L155.246325,9.16932537 L165.048113,14.5444544 L165.14947,14.6619075 L172.63659,18.6548799 L172.681821,18.708288 L180.541243,22.7652621 L180.840025,23.1132202 L188.12972,26.8756458 L188.229508,26.9918464 L195.718197,30.9860698 L195.764625,31.040992 L203.622447,35.0964535 L203.722813,35.2127274 L211.210924,39.2068357 L211.312311,39.3245504 L218.799401,43.3171343 L218.846506,43.3718526 L226.70407,47.4275598 L226.803773,47.5445097 L234.292547,51.5379839 L234.390506,51.6535675 L241.881024,55.6484094 L241.926544,55.7017915 L249.785677,59.7588349 L249.882889,59.8735268 L257.373736,63.8692589 L257.429988,63.9355766 L263.381285,67.0311248 L261.147312,68.2713793 L261.167974,68.2958715 L258.305629,69.8567493 L258.322296,69.8768037 L255.460258,71.4375107 L255.477035,71.4577359 L252.613966,73.0191938 L252.631356,73.0386696 L249.983358,74.4819742 L250.101869,74.6196018 L247.160109,76.0894656 L247.25619,76.200534 L244.393085,77.761478 L244.410511,77.7814677 L241.547714,79.3422394 L241.564832,79.3623999 L238.702344,80.9239225 L238.719153,80.9433321 L235.241106,83.1566384 L235.11314,83.0079467 L232.395427,84.7375706 L232.349803,84.6845677 L229.549749,86.3180831 L229.533928,86.2994329 L227.020246,87.8990153 L226.891337,87.7502309 L224.758461,89.1070127 L224.80695,89.1637619 L221.94443,90.7246431 L221.961272,90.7446941 L219.098137,92.3054045 L219.115593,92.3256263 L216.467529,93.7691066 L216.58609,93.90656 L213.645202,95.3765981 L213.740412,95.4874922 L210.877256,97.0486104 L210.894733,97.0684244 L208.031886,98.6293718 L208.049054,98.6493581 L205.186515,100.210133 L205.203375,100.23029 L202.340223,101.791816 L202.357696,101.811223 L199.494853,103.372578 L199.512017,103.392156 L196.864245,104.835358 L196.982948,104.973088 L194.120264,106.5341 L194.137269,106.554021 L191.274893,108.114862 L191.29159,108.134954 L187.813543,110.348259 L187.684768,110.198886 L184.967865,111.929193 L184.840319,111.779647 L182.122186,113.510125 L181.994948,113.360409 L179.276507,115.091057 L179.260185,115.072055 L176.747005,116.671991 L176.63142,116.537601 L175.482313,117.304359 C174.907338,117.591806 174.593839,117.879253 174.303998,118.404248 L174.217517,118.56911 L174.172428,118.516193 C173.721891,119.290866 173.338172,120.171883 173.277348,120.903085 L173.268958,121.098598 L173.268958,129.635639 C173.341935,129.781571 173.398072,129.927503 173.449025,130.077321 L173.59799,130.542318 C173.702476,130.865269 173.832856,131.219306 174.082389,131.635515 L174.217517,131.848945 L174.398376,132.03834 L174.56406,132.225839 L174.56406,132.225839 L175.007998,132.757979 C175.197714,132.979309 175.387427,133.175344 175.617598,133.325851 L175.798445,133.429877 L182.027209,137.221149 L181.489803,136.591743 L183.070745,137.856488 L183.386922,137.856488 L183.559417,138.059644 C184.71198,138.453212 186.188503,138.418292 187.283622,137.954883 L187.497352,137.856488 L187.550654,137.915881 C187.609069,137.892475 187.667486,137.87388 187.725908,137.864084 L187.813543,137.856488 L189.754044,136.643227 L189.710663,136.591743 L192.572685,135.029283 L192.556342,135.010809 L195.418055,133.448522 L195.40202,133.429877 L198.048663,131.985741 L197.931508,131.848945 L200.792644,130.286999 L200.776768,130.268011 L203.638936,128.706238 L203.622447,128.687079 L206.484307,127.125476 L206.468126,127.106147 L209.329677,125.543793 L209.313805,125.525213 L212.175969,123.963032 L212.159484,123.944281 L215.637531,121.730975 L215.652723,121.749044 L218.167033,120.150042 L218.294392,120.298246 L221.012712,118.56911 L221.139762,118.717485 L223.858391,116.988176 L223.985133,117.136723 L226.70407,115.407244 L226.830503,115.555962 L228.965222,114.198258 L228.917366,114.142498 L231.564492,112.698609 L231.446868,112.561565 L234.308472,110.999867 L234.292547,110.980633 L237.154765,109.418184 L237.138226,109.3997 L240.000135,107.837422 L239.983904,107.818767 L242.845506,106.256661 L242.829583,106.237835 L245.691798,104.675899 L245.675262,104.656901 L248.322406,103.212197 L248.204749,103.075969 L251.143812,101.605627 L251.050428,101.495037 L253.912679,99.9326934 L253.896107,99.9141033 L256.757128,98.351932 L256.741368,98.3331711 L259.60342,96.7711706 L259.587047,96.7522389 L262.44879,95.1904093 L262.432726,95.1713052 L265.910772,92.9580004 L266.033386,93.1091502 L268.756407,91.3770667 L268.799488,91.4417465 L270.021202,90.7446986 L270.021202,226.704062 C270.021202,227.410795 269.845678,228.117529 269.625419,228.824263 L269.705011,228.917377 C269.451735,229.930456 268.99559,230.943517 268.336567,231.956619 L268.44026,232.079228 C268.282167,232.237321 268.124073,232.404199 267.96598,232.575468 L267.25456,233.361006 C266.78028,233.884698 266.306001,234.388625 265.831721,234.754198 L265.595565,234.922342 L265.278404,235.241053 L263.381285,236.189658 L260.733457,237.633141 L260.851783,237.770585 L257.989476,239.330961 L258.006104,239.351528 L255.144106,240.912645 L255.160858,240.932456 L252.297814,242.493406 L252.315179,242.513384 L248.837118,244.726694 L248.709531,244.57743 L245.991439,246.307622 L245.97569,246.289077 L243.461951,247.888565 L243.333099,247.739875 L241.200223,249.096656 L241.248641,249.153301 L238.386192,250.714287 L238.402962,250.734288 L235.539899,252.295048 L235.557287,252.315176 L232.909291,253.75875 L233.027796,253.896099 L230.165311,255.457493 L230.182117,255.477042 L227.319018,257.037333 L227.336438,257.057551 L224.473648,258.619016 L224.490759,258.638479 L221.628277,260.199777 L221.64508,260.219422 L218.167033,262.432717 L218.150602,262.413765 L215.637531,264.01366 L215.509855,263.864563 L212.791852,265.594588 L212.664485,265.445324 L210.529765,266.803028 L210.578556,266.859339 L207.715734,268.420658 L207.732877,268.440267 L205.085125,269.883438 L205.203375,270.021194 L202.340223,271.582181 L202.357696,271.602137 L199.494853,273.162942 L199.512017,273.183065 L196.649482,274.744625 L196.666757,274.763992 L193.804112,276.325387 L193.821078,276.344935 L190.343031,278.558231 L190.327358,278.539374 L187.813543,280.139174 L187.684768,279.990172 L184.967865,281.720101 L184.840319,281.570934 L182.707443,282.928637 L182.754554,282.984852 L179.891568,284.546268 L179.908875,284.56578 L177.261882,286.009048 L177.379388,286.146708 L174.516979,287.70779 L174.533709,287.727651 L171.670687,289.288552 L171.688036,289.308578 L168.825317,290.869313 L168.842345,290.889551 L165.979946,292.450996 L165.996668,292.470493 L163.349338,293.913777 L163.46717,294.051376 L159.989123,296.264687 L159.85968,296.115782 L157.143444,297.845675 L157.015232,297.696543 L154.297765,299.426543 L154.168939,299.277305 L152.036064,300.635008 L152.084454,300.691294 L149.222032,302.252639 L149.238783,302.272221 L146.591424,303.715419 L146.70929,303.853164 L143.846521,305.414161 L143.863611,305.434092 L141.001151,306.994923 L141.018353,307.015079 L140.069794,307.647403 L137.224115,308.595962 L137.112575,308.468551 C136.528751,308.574727 135.944928,308.592423 135.361104,308.595962 L133.113691,308.595962 L133.060212,308.535621 C132.133014,308.427188 131.17025,308.172626 130.469935,307.771979 L130.268012,307.647403 L125.841399,305.1179 L125.823998,305.098009 L117.62055,300.375102 L117.602195,300.354803 L111.006319,296.557289 L111.296819,296.897055 L102.834289,291.872152 L103.075968,292.154257 L92.9579996,286.146708 L92.7146512,285.862493 L84.4213842,281.087733 L84.4052845,281.068593 L76.2005347,276.344935 L76.1834818,276.325387 L67.9796851,271.602137 L67.9635225,271.583102 L59.7588341,266.859339 L59.7417199,266.839897 L53.1449214,263.041461 L53.4351038,263.381277 L44.9710485,258.355402 L45.2142542,258.638479 L34.7802672,252.631363 L34.3665822,252.14665 L26.559458,247.888565 L26.0175812,247.250438 L18.3386936,242.829575 L18.3220845,242.81048 L12.0478905,239.198233 L4.74275592,235.241098 C3.75102891,234.621265 2.80790435,233.661204 2.02771798,232.532421 L1.89710663,232.395419 L2.01507378,232.514092 C0.879111117,230.864183 0.0914596495,228.856937 0.00744887736,227.025351 L2.84217094e-14,226.704062 L2.84217094e-14,90.7446941 L2.52947548,92.0094408 L2.94676045,92.4952802 L8.62828419,95.5941256 L8.5369944,95.4874922 L9.71592176,96.1877176 L10.7502581,96.7522389 L10.8367415,96.8532043 L17.0003283,100.51246 L16.7577599,100.23029 L25.2202876,105.254744 L24.9785676,104.973088 L35.0964527,110.664446 L35.2910741,110.892025 L41.7468483,114.523628 L41.4201412,114.142498 L51.5379845,120.150042 L51.5530993,120.168283 L57.8586321,123.798043 L67.9796851,129.319452 L68.4695505,129.891578 L74.3132982,133.178456 L73.9872284,132.797505 L82.4512237,137.823037 L82.2080795,137.540303 L90.6702612,142.564399 L90.4285078,142.283101 L100.546477,147.974036 L100.959497,148.45792 L106.647473,151.560453 L106.554021,151.452093 L108.447605,152.542092 L108.767326,152.716829 L108.782192,152.735654 L116.988177,157.459627 L117.062064,157.546146 L121.730969,160.305306 C122.323828,160.601736 122.916674,161.453997 122.988464,162.08039 L122.99572,162.202426 L122.99572,264.646028 C122.99572,266.15822 123.863586,267.670466 125.045904,268.352488 L132.165131,272.234505 L132.213408,272.290989 L132.797493,272.550786 C133.372377,272.838138 133.947263,273.125613 134.759703,273.175507 L135.0108,273.18311 L135.326991,273.18311 C135.453797,273.18311 135.631455,273.132248 135.819178,273.07132 L135.643183,272.866933 C136.205288,272.866933 136.767404,272.866933 137.329512,272.64483 L137.540302,272.550697 L139.753608,271.285945 L139.798297,271.337923 L142.598866,269.705018 L142.634451,269.746101 L144.812166,268.440311 L144.954375,268.385843 C145.011008,268.361403 145.067527,268.33374 145.123799,268.303057 L145.127007,268.254335 L145.127007,268.254335 L145.128353,268.124075 L145.22864,268.242249 C145.848087,267.861488 146.426707,267.125537 146.780545,266.310284 L146.709296,266.226956 C146.777534,266.158728 146.845772,266.075764 146.910833,265.981248 L146.972508,265.787663 L146.972508,265.787663 L147.025471,265.594588 L147.091056,265.670838 C147.213908,265.418906 147.30604,265.126036 147.333338,264.82637 L147.341664,264.646028 L147.341668,149.871155 C147.341668,149.765763 147.306536,149.660369 147.259693,149.554974 L147.107452,149.238786 C147.084031,149.186088 147.063537,149.13339 147.048898,149.080691 L147.025477,148.922595 L147.270475,149.208378 C147.001719,147.935985 146.01171,146.751863 144.983734,146.168494 L144.81217,146.076916 L142.440888,144.495417 L133.746063,139.753607 L133.329619,139.267383 L125.525214,135.010809 L125.035922,134.439378 L119.192174,131.1525 L119.517669,131.532758 L111.056092,126.508841 L111.296819,126.78996 L102.835211,121.765635 L103.075968,122.047162 L92.9579996,116.355804 L92.762581,116.126511 L84.7375713,111.613006 L84.322329,111.127987 L78.6361967,108.026376 L78.7300265,108.134954 L76.8296122,107.04105 L76.5167217,106.870208 L76.5005558,106.851174 L68.2958707,102.12741 L68.2787531,102.107969 L61.5658171,98.2422466 L52.1703571,92.9580004 L51.9752502,92.7303205 L43.9495076,88.2152023 L43.7543692,87.9871146 L37.3041254,84.3591981 L37.6259027,84.7375706 L27.5080176,78.7300273 L27.492344,78.7108565 L21.1868113,75.0801748 L11.0664446,69.5606167 L10.666222,69.0714381 L6.95606175,67.0311293 L8.3462358,66.2362066 L8.22080796,66.0825652 L12.0150042,64.185446 L12.1824626,64.3807706 L14.2443653,63.2553423 L14.22831,63.2368863 L17.0897358,61.6745809 L17.0739469,61.6559541 L19.9360281,60.0938195 L19.9196258,60.0750204 L22.7813986,58.5130581 L22.7652628,58.4940882 L25.6267691,56.9322967 L25.6109417,56.913156 L29.0889513,55.0160368 L29.256529,55.2114328 L31.3184318,54.0860045 L31.3022561,54.0674772 L34.1638023,52.5052431 L34.1478931,52.4865435 L37.0100945,50.9244817 L36.993572,50.9056113 L39.855465,49.3437203 L39.839209,49.3246791 L42.7008355,47.7629589 L42.6847609,47.7437454 L46.1628138,45.8466261 L46.3296738,46.042095 L48.3924983,44.9166667 L48.3761186,44.8980665 L51.2378688,43.3359053 L51.2217975,43.3171343 L54.0832393,41.7551439 L54.0674764,41.7363276 L56.9295315,40.1743825 L56.9131552,40.1553954 L59.774902,38.5936211 L59.7588341,38.5744632 L63.236887,36.6773857 L63.4037403,36.8727572 L65.4665647,35.7473289 L65.4501918,35.7288261 L68.3119353,34.1665675 L68.2958707,34.1478939 L71.1573058,32.5858061 L71.1415495,32.5669602 L74.0819448,31.0962957 L73.9872284,30.9860698 L76.9273153,29.5155343 L76.8329073,29.4051376 L80.6271458,27.5080184 L80.7211426,27.6186206 L82.618978,26.669242 L82.524265,26.5594588 L85.4643485,25.0884806 L85.3699439,24.9785684 L88.309719,23.5077192 L88.2152015,23.3976347 L91.1550895,21.9269579 L91.0608803,21.8167025 L94.0013817,20.3461965 L93.9065592,20.2357703 L97.7007977,18.3386929 L97.8680255,18.5340817 L99.9299282,17.4086533 L99.914104,17.3901333 L102.77622,15.8278919 L102.759783,15.809201 L105.621591,14.2471305 L105.605462,14.2283101 L108.466961,12.6663691 L108.451141,12.6473773 L111.929192,10.750258 L112.056165,10.8984972 L114.774871,9.16932537 L114.943014,9.36474387 L117.003995,8.23931549 L116.988177,8.22080788 L119.850287,6.6585541 L119.833856,6.63987523 L122.695657,5.07779271 L122.679535,5.05894242 L125.541028,3.49703132 L125.525214,3.47802665 L129.003265,1.5809201 L129.192909,1.80197581 L130.268012,1.2647377 C130.406738,1.1260109 130.667199,0.987284872 130.969277,0.848559081 L131.28226,0.709833348 L131.28226,0.709833348 L131.216571,0.632368849 L131.788192,0.490545576 L131.788192,0.490545576 L131.982704,0.403615787 L131.982704,0.403615787 L132.165131,0.316184051 L132.224862,0.386231207 C133.020845,0.201289149 133.816829,0.0496289158 134.612816,0.0100717484 L135.01081,2.84217094e-14 L135.95937,2.84217094e-14 Z" id="Path"></path>
                <g id="Express" transform="translate(64.7, 357)" fill-rule="nonzero">
                    <polygon id="Path" points="-5.68434189e-14 0 84 0 84 22.4 24 22.4 24 44.8 72 44.8 72 65.6 24 65.6 24 89.6 84 89.6 84 112 -5.68434189e-14 112"></polygon>
                    <polygon id="Path" points="114.4 70.4 92 30.4 116.8 30.4 132 60.8 136 60.8 151.2 30.4 176 30.4 153.6 70.4 177.6 112 152.8 112 136 80 132 80 115.2 112 90.4 112"></polygon>
                    <path d="M186.4,30.4 L208.8,30.4 L208.8,40.8 L209.6,40.8 C211.306667,38.4533333 213.386667,36.32 215.84,34.4 C217.973333,32.8 220.613333,31.3333333 223.76,30 C226.906667,28.6666667 230.72,28 235.2,28 C240.426667,28 245.306667,29.0133333 249.84,31.04 C254.373333,33.0666667 258.346667,35.9466667 261.76,39.68 C265.173333,43.4133333 267.866667,47.9466667 269.84,53.28 C271.813333,58.6133333 272.8,64.5866667 272.8,71.2 C272.8,77.8133333 271.813333,83.7866667 269.84,89.12 C267.866667,94.4533333 265.173333,98.9866667 261.76,102.72 C258.346667,106.453333 254.373333,109.333333 249.84,111.36 C245.306667,113.386667 240.426667,114.4 235.2,114.4 C230.72,114.4 226.906667,113.733333 223.76,112.4 C220.613333,111.066667 217.973333,109.6 215.84,108 C213.386667,106.08 211.306667,103.946667 209.6,101.6 L208.8,101.6 L208.8,142.4 L186.4,142.4 L186.4,30.4 Z M229.6,95.2 C235.253333,95.2 240,93.12 243.84,88.96 C247.68,84.8 249.6,78.88 249.6,71.2 C249.6,63.52 247.68,57.6 243.84,53.44 C240,49.28 235.253333,47.2 229.6,47.2 C223.52,47.2 218.533333,49.28 214.64,53.44 C210.746667,57.6 208.8,63.52 208.8,71.2 C208.8,78.88 210.746667,84.8 214.64,88.96 C218.533333,93.12 223.52,95.2 229.6,95.2 Z" id="Shape"></path>
                    <path d="M286.4,30.4 L308.8,30.4 L308.8,42.4 L309.6,42.4 C310.56,39.84 312,37.6 313.92,35.68 C315.52,33.9733333 317.653333,32.4 320.32,30.96 C322.986667,29.52 326.346667,28.8 330.4,28.8 L340,28.8 L340,50.4 L328,50.4 C321.92,50.4 317.2,52.0533333 313.84,55.36 C310.48,58.6666667 308.8,63.1466667 308.8,68.8 L308.8,112 L286.4,112 L286.4,30.4 Z" id="Path"></path>
                    <path d="M390.4,114.4 C384.213333,114.4 378.426667,113.28 373.04,111.04 C367.653333,108.8 362.986667,105.733333 359.04,101.84 C355.093333,97.9466667 352,93.36 349.76,88.08 C347.52,82.8 346.4,77.1733333 346.4,71.2 C346.4,65.2266667 347.52,59.6 349.76,54.32 C352,49.04 355.093333,44.4533333 359.04,40.56 C362.986667,36.6666667 367.653333,33.6 373.04,31.36 C378.426667,29.12 384.213333,28 390.4,28 C396.8,28 402.64,29.12 407.92,31.36 C413.2,33.6 417.76,36.6933333 421.6,40.64 C425.44,44.5866667 428.4,49.1733333 430.48,54.4 C432.56,59.6266667 433.6,65.2266667 433.6,71.2 L433.6,76 L369.6,76 C370.026667,78.56 370.853333,81.0133333 372.08,83.36 C373.306667,85.7066667 374.853333,87.76 376.72,89.52 C378.586667,91.28 380.693333,92.6666667 383.04,93.68 C385.386667,94.6933333 387.84,95.2 390.4,95.2 C394.026667,95.2 396.986667,94.6933333 399.28,93.68 C401.573333,92.6666667 403.466667,91.5733333 404.96,90.4 C406.56,89.0133333 407.84,87.4133333 408.8,85.6 L432.8,85.6 C431.093333,90.9333333 428.426667,95.7333333 424.8,100 C423.2,101.813333 421.333333,103.573333 419.2,105.28 C417.066667,106.986667 414.613333,108.533333 411.84,109.92 C409.066667,111.306667 405.893333,112.4 402.32,113.2 C398.746667,114 394.773333,114.4 390.4,114.4 Z M409.6,62.4 C409.173333,60.3733333 408.426667,58.4533333 407.36,56.64 C406.293333,54.8266667 404.933333,53.2266667 403.28,51.84 C401.626667,50.4533333 399.706667,49.3333333 397.52,48.48 C395.333333,47.6266667 392.96,47.2 390.4,47.2 C385.173333,47.2 380.826667,48.72 377.36,51.76 C373.893333,54.8 371.573333,58.3466667 370.4,62.4 L409.6,62.4 Z" id="Shape"></path>
                    <path d="M482.4,114.4 C478.026667,114.4 474.08,114 470.56,113.2 C467.04,112.4 463.92,111.306667 461.2,109.92 C458.48,108.533333 456.08,106.986667 454,105.28 C451.92,103.573333 450.186667,101.813333 448.8,100 C445.386667,95.7333333 442.986667,90.9333333 441.6,85.6 L464.8,85.6 C465.653333,87.6266667 466.826667,89.3866667 468.32,90.88 C469.6,92.16 471.36,93.3333333 473.6,94.4 C475.84,95.4666667 478.773333,96 482.4,96 C487.626667,96 491.2,95.28 493.12,93.84 C495.04,92.4 496,90.4533333 496,88 C496,85.8666667 494.746667,84.2666667 492.24,83.2 C489.733333,82.1333333 486.613333,81.1733333 482.88,80.32 C479.146667,79.4666667 475.12,78.56 470.8,77.6 C466.48,76.64 462.453333,75.2 458.72,73.28 C454.986667,71.36 451.866667,68.8 449.36,65.6 C446.853333,62.4 445.6,58.1333333 445.6,52.8 C445.6,49.6 446.346667,46.5066667 447.84,43.52 C449.333333,40.5333333 451.52,37.8933333 454.4,35.6 C457.28,33.3066667 460.853333,31.4666667 465.12,30.08 C469.386667,28.6933333 474.346667,28 480,28 C484.266667,28 488.106667,28.3733333 491.52,29.12 C494.933333,29.8666667 497.946667,30.88 500.56,32.16 C503.173333,33.44 505.44,34.88 507.36,36.48 C509.28,38.08 510.88,39.68 512.16,41.28 C515.253333,45.12 517.333333,49.4933333 518.4,54.4 L496,54.4 C495.36,52.9066667 494.4,51.5733333 493.12,50.4 C491.946667,49.44 490.32,48.5333333 488.24,47.68 C486.16,46.8266667 483.413333,46.4 480,46.4 C475.946667,46.4 473.066667,47.0666667 471.36,48.4 C469.653333,49.7333333 468.8,51.2 468.8,52.8 C468.8,54.9333333 470.053333,56.5333333 472.56,57.6 C475.066667,58.6666667 478.186667,59.6266667 481.92,60.48 C485.653333,61.3333333 489.68,62.24 494,63.2 C498.32,64.16 502.346667,65.6 506.08,67.52 C509.813333,69.44 512.933333,72 515.44,75.2 C517.946667,78.4 519.2,82.6666667 519.2,88 C519.2,91.4133333 518.4,94.6933333 516.8,97.84 C515.2,100.986667 512.853333,103.786667 509.76,106.24 C506.666667,108.693333 502.826667,110.666667 498.24,112.16 C493.653333,113.653333 488.373333,114.4 482.4,114.4 Z" id="Path"></path>
                    <path d="M567.2,114.4 C562.826667,114.4 558.88,114 555.36,113.2 C551.84,112.4 548.72,111.306667 546,109.92 C543.28,108.533333 540.88,106.986667 538.8,105.28 C536.72,103.573333 534.986667,101.813333 533.6,100 C530.186667,95.7333333 527.786667,90.9333333 526.4,85.6 L549.6,85.6 C550.453333,87.6266667 551.626667,89.3866667 553.12,90.88 C554.4,92.16 556.16,93.3333333 558.4,94.4 C560.64,95.4666667 563.573333,96 567.2,96 C572.426667,96 576,95.28 577.92,93.84 C579.84,92.4 580.8,90.4533333 580.8,88 C580.8,85.8666667 579.546667,84.2666667 577.04,83.2 C574.533333,82.1333333 571.413333,81.1733333 567.68,80.32 C563.946667,79.4666667 559.92,78.56 555.6,77.6 C551.28,76.64 547.253333,75.2 543.52,73.28 C539.786667,71.36 536.666667,68.8 534.16,65.6 C531.653333,62.4 530.4,58.1333333 530.4,52.8 C530.4,49.6 531.146667,46.5066667 532.64,43.52 C534.133333,40.5333333 536.32,37.8933333 539.2,35.6 C542.08,33.3066667 545.653333,31.4666667 549.92,30.08 C554.186667,28.6933333 559.146667,28 564.8,28 C569.066667,28 572.906667,28.3733333 576.32,29.12 C579.733333,29.8666667 582.746667,30.88 585.36,32.16 C587.973333,33.44 590.24,34.88 592.16,36.48 C594.08,38.08 595.68,39.68 596.96,41.28 C600.053333,45.12 602.133333,49.4933333 603.2,54.4 L580.8,54.4 C580.16,52.9066667 579.2,51.5733333 577.92,50.4 C576.746667,49.44 575.12,48.5333333 573.04,47.68 C570.96,46.8266667 568.213333,46.4 564.8,46.4 C560.746667,46.4 557.866667,47.0666667 556.16,48.4 C554.453333,49.7333333 553.6,51.2 553.6,52.8 C553.6,54.9333333 554.853333,56.5333333 557.36,57.6 C559.866667,58.6666667 562.986667,59.6266667 566.72,60.48 C570.453333,61.3333333 574.48,62.24 578.8,63.2 C583.12,64.16 587.146667,65.6 590.88,67.52 C594.613333,69.44 597.733333,72 600.24,75.2 C602.746667,78.4 604,82.6666667 604,88 C604,91.4133333 603.2,94.6933333 601.6,97.84 C600,100.986667 597.653333,103.786667 594.56,106.24 C591.466667,108.693333 587.626667,110.666667 583.04,112.16 C578.453333,113.653333 573.173333,114.4 567.2,114.4 Z" id="Path"></path>
                </g>
            </g>
        </g>
    </g>
</svg>