<?xml version="1.0" encoding="UTF-8"?>
<svg width="980px" height="680px" viewBox="0 0 980 680" version="1.1" xmlns="http://www.w3.org/2000/svg" xmlns:xlink="http://www.w3.org/1999/xlink">
    <title>DE DHL</title>
    <defs>
        <rect id="path-1" x="0" y="0" width="900" height="600" rx="80"></rect>
        <filter x="-6.7%" y="-10.0%" width="113.3%" height="120.0%" filterUnits="objectBoundingBox" id="filter-2">
            <feMorphology radius="2.5" operator="dilate" in="SourceAlpha" result="shadowSpreadOuter1"></feMorphology>
            <feOffset dx="0" dy="0" in="shadowSpreadOuter1" result="shadowOffsetOuter1"></feOffset>
            <feGaussianBlur stdDeviation="17.5" in="shadowOffsetOuter1" result="shadowBlurOuter1"></feGaussianBlur>
            <feColorMatrix values="0 0 0 0 0   0 0 0 0 0   0 0 0 0 0  0 0 0 0.5 0" type="matrix" in="shadowBlurOuter1"></feColorMatrix>
        </filter>
    </defs>
    <g id="DE-DHL" stroke="none" stroke-width="1" fill="none" fill-rule="evenodd">
        <g transform="translate(40, 40)">
            <g id="Rectangle">
                <use fill="black" fill-opacity="1" filter="url(#filter-2)" xlink:href="#path-1"></use>
                <use fill="#FECC00" fill-rule="evenodd" xlink:href="#path-1"></use>
            </g>
            <g id="Logo" transform="translate(0, 201)" fill-rule="nonzero">
                <polygon id="Path" fill="#FECC00" points="900 0 900 198.62189 0 198.62189 0 0 900 0"></polygon>
                <path d="M290.179689,82.9904181 C286.246785,88.3162255 279.66634,97.5749368 275.661743,102.98268 C273.628718,105.73264 269.956984,110.725584 282.129526,110.725584 C295.008763,110.725584 346.218449,110.725584 346.218449,110.725584 C346.218449,110.725584 356.547443,96.6736464 365.207001,84.9210233 C376.985229,68.9333591 366.226074,35.6675467 324.116348,35.6675467 C286.426019,35.6675467 158.278899,35.6675467 158.278899,35.6675467 L129.52466,74.7354166 C129.52466,74.7354166 278.590937,74.7354166 286.241664,74.7354166 C294.153561,74.7354166 294.04602,77.7465462 290.179689,82.9904181 Z M243.097503,120.363247 C230.924961,120.363247 234.596695,115.360061 236.62972,112.610101 C240.634317,107.202358 247.322302,98.040945 251.255206,92.7151376 C255.126659,87.4712657 255.229078,84.4601361 247.306939,84.4601361 C239.661333,84.4601361 175.633862,84.4601361 175.633862,84.4601361 L117.884699,162.944102 C117.884699,162.944102 221.026128,162.944102 258.716458,162.944102 C305.230216,162.944102 331.126955,131.306757 339.110545,120.368368 C339.110545,120.363247 255.971618,120.363247 243.097503,120.363247 Z M334.711633,162.944102 L417.32822,162.944102 L448.648064,120.358126 L366.041719,120.368368 C366.016114,120.363247 334.711633,162.944102 334.711633,162.944102 Z M547.871953,35.6675467 L516.183399,78.7092883 L479.312425,78.7092883 L510.985616,35.6675467 L428.394633,35.6675467 L373.139381,110.725584 L575.212805,110.725584 L630.452694,35.6675467 L547.871953,35.6675467 Z M454.199194,162.944102 L536.785056,162.944102 L568.120263,120.368368 L485.534402,120.368368 C485.503676,120.363247 454.199194,162.944102 454.199194,162.944102 Z M0,137.160025 L0,146.203655 L115.057924,146.203655 L121.704941,137.160025 L0,137.160025 Z M134.07208,120.363247 L0,120.363247 L0,129.396636 L127.4097,129.396636 L134.07208,120.363247 Z M0,162.944102 L102.731752,162.944102 L109.348044,153.951681 L0,153.951681 L0,162.944102 Z M778.755946,146.198534 L900,146.198534 L900,137.154904 L785.413205,137.154904 L778.755946,146.198534 Z M766.440016,162.944102 L900,162.944102 L900,153.951681 L773.051187,153.951681 L766.440016,162.944102 Z M797.759861,120.363247 L791.117964,129.406878 L900,129.406878 L900,120.363247 L797.759861,120.363247 L797.759861,120.363247 Z M689.584519,110.725584 L744.83465,35.6675467 L657.363384,35.6675467 C657.332658,35.6675467 602.072285,110.725584 602.072285,110.725584 L689.584519,110.725584 Z M594.989986,120.363247 C594.989986,120.363247 588.952364,128.613128 586.018049,132.587 C575.648087,146.59797 584.819742,162.944102 618.669345,162.944102 C657.773061,162.944102 751.307554,162.944102 751.307554,162.944102 L782.642761,120.368368 L594.989986,120.368368 L594.989986,120.363247 Z" id="Shape" fill="#D50029"></path>
            </g>
        </g>
    </g>
</svg>