<?xml version="1.0" encoding="UTF-8"?>
<svg width="980px" height="680px" viewBox="0 0 980 680" version="1.1" xmlns="http://www.w3.org/2000/svg" xmlns:xlink="http://www.w3.org/1999/xlink">
    <title>DE DPD heritage alt</title>
    <defs>
        <rect id="path-1" x="0" y="0" width="900" height="600" rx="80"></rect>
        <filter x="-6.7%" y="-10.0%" width="113.3%" height="120.0%" filterUnits="objectBoundingBox" id="filter-2">
            <feMorphology radius="2.5" operator="dilate" in="SourceAlpha" result="shadowSpreadOuter1"></feMorphology>
            <feOffset dx="0" dy="0" in="shadowSpreadOuter1" result="shadowOffsetOuter1"></feOffset>
            <feGaussianBlur stdDeviation="17.5" in="shadowOffsetOuter1" result="shadowBlurOuter1"></feGaussianBlur>
            <feColorMatrix values="0 0 0 0 0   0 0 0 0 0   0 0 0 0 0  0 0 0 0.5 0" type="matrix" in="shadowBlurOuter1"></feColorMatrix>
        </filter>
    </defs>
    <g id="DE-DPD-heritage-alt" stroke="none" stroke-width="1" fill="none" fill-rule="evenodd">
        <g transform="translate(40, 40)">
            <g id="Rectangle">
                <use fill="black" fill-opacity="1" filter="url(#filter-2)" xlink:href="#path-1"></use>
                <use fill="#ED232A" fill-rule="evenodd" xlink:href="#path-1"></use>
            </g>
            <g id="Logo" transform="translate(50.0051, 98)" fill="#FFFFFF" fill-rule="nonzero">
                <path d="M757.88983,218.521486 L800,194.236127 L800,64.7453839 L687.773665,0.0467109242 L645.679051,24.3165058 L757.88983,88.9996029 L757.88983,218.521486 M449.419139,218.474781 L407.324525,194.189423 L407.324525,64.698681 L519.550878,0 L561.629918,24.2853643 L449.419139,88.9684671 L449.419139,218.474781 M715.93533,291.393118 L715.93533,339.963816 L603.771237,404.709198 L491.622719,339.870426 L491.622719,291.315283 L603.771237,356.154056 L715.93533,291.393118" id="rot"></path>
                <path d="M477.518543,250.933094 L477.518543,105.174271 L603.600011,32.3182103 L729.86828,105.205407 L729.86828,250.901964 L603.708958,323.726891 L477.518543,250.933094 Z M519.597583,113.316092 L603.708958,161.886798 L687.835926,113.300523 L603.708958,64.714248 L519.597583,113.316092 Z M589.667062,283.142309 L589.667062,186.032042 L505.555668,137.492472 L505.555668,234.63389 L589.667062,283.142309 Z M701.706596,137.648148 L617.579647,186.218861 L617.641908,283.313573 L701.768875,234.774004 L701.706596,137.648148" id="paketbox"></path>
                <path d="M0,65.0100322 L55.4048558,65.0100322 C94.9152586,65.0100322 118.531206,88.9996029 118.531206,128.899194 C118.531206,171.133915 94.5571933,193.878083 55.4048558,193.878083 L0,193.878083 L0,65.0100322 Z M32.5205718,166.012197 L48.399456,166.012197 C73.8679515,165.482898 86.0106158,154.538922 86.0106158,128.712382 C86.0106158,105.267675 71.361575,92.8759201 48.399456,92.8759201 L32.5205718,92.8759201 L32.5205718,166.012197 M135.655488,65.0100322 L198.906369,65.0100322 C222.895962,65.0100322 245.484432,76.0162795 245.484432,106.513078 C245.484432,138.45766 227.254871,150.911687 198.906369,150.911687 L168.238335,150.911687 L168.238335,193.878083 L135.655488,193.878083 L135.655488,65.0100322 Z M168.238335,125.956928 L193.893631,125.956928 C204.308319,125.956928 212.901579,120.601698 212.901579,108.863777 C212.901579,96.7833694 204.1215,90.8677063 193.893631,90.8677063 L168.238335,90.8677063 L168.238335,125.956928 M264.134335,65.0100322 L319.523626,65.0100322 C359.11189,65.0100322 382.712252,88.9996029 382.712252,128.899194 C382.712252,171.133915 358.738252,193.878083 319.523626,193.878083 L264.134335,193.878083 L264.134335,65.0100322 Z M296.701632,166.012197 L312.596087,166.012197 C338.049008,165.482898 350.207234,154.538922 350.207234,128.712382 C350.207234,105.267675 335.48036,92.8759201 312.596087,92.8759201 L296.701632,92.8759201 L296.701632,166.012197" id="text_DPD"></path>
            </g>
        </g>
    </g>
</svg>