<?xml version="1.0" encoding="UTF-8"?>
<svg width="980px" height="680px" viewBox="0 0 980 680" version="1.1" xmlns="http://www.w3.org/2000/svg" xmlns:xlink="http://www.w3.org/1999/xlink">
    <title>DE DHL Freight</title>
    <defs>
        <rect id="path-1" x="0" y="0" width="900" height="600" rx="80"></rect>
        <filter x="-6.7%" y="-10.0%" width="113.3%" height="120.0%" filterUnits="objectBoundingBox" id="filter-2">
            <feMorphology radius="2.5" operator="dilate" in="SourceAlpha" result="shadowSpreadOuter1"></feMorphology>
            <feOffset dx="0" dy="0" in="shadowSpreadOuter1" result="shadowOffsetOuter1"></feOffset>
            <feGaussianBlur stdDeviation="17.5" in="shadowOffsetOuter1" result="shadowBlurOuter1"></feGaussianBlur>
            <feColorMatrix values="0 0 0 0 0   0 0 0 0 0   0 0 0 0 0  0 0 0 0.5 0" type="matrix" in="shadowBlurOuter1"></feColorMatrix>
        </filter>
    </defs>
    <g id="DE-DHL-Freight" stroke="none" stroke-width="1" fill="none" fill-rule="evenodd">
        <g transform="translate(40, 40)">
            <g id="Rectangle">
                <use fill="black" fill-opacity="1" filter="url(#filter-2)" xlink:href="#path-1"></use>
                <use fill="#FECC00" fill-rule="evenodd" xlink:href="#path-1"></use>
            </g>
            <rect id="Rectangle" fill="#FFFFFF" x="0" y="260" width="900" height="340" rx="80"></rect>
            <g id="Logo" transform="translate(0, 161)">
                <polygon id="Path" fill="#FECC00" fill-rule="nonzero" points="899.99365 0 899.99365 198.613409 0 198.613409 0 0"></polygon>
                <path d="M158.273508,35.6678955 L129.519165,74.7314483 C129.519165,74.7314483 278.585187,74.7314483 286.232163,74.7314483 C294.153776,74.7314483 294.049001,77.7413437 290.177094,82.9864357 C286.244863,88.3109026 279.664685,97.5707759 275.659429,102.977793 C273.627432,105.722576 269.952375,110.723193 282.130069,110.723193 C295.004674,110.723193 346.215759,110.723193 346.215759,110.723193 C346.215759,110.723193 356.545605,96.6659023 365.20223,84.9152453 C376.983049,68.9307322 366.224578,35.6678955 324.11303,35.6678955 C286.421075,35.6678955 158.273508,35.6678955 158.273508,35.6678955 L158.273508,35.6678955 Z" id="Path" fill="#D50029" fill-rule="nonzero"></path>
                <path d="M117.884395,162.935989 L175.639144,84.4628085 C175.639144,84.4628085 239.664509,84.4628085 247.30831,84.4628085 C255.229923,84.4628085 255.126735,87.4727039 251.254829,92.7177958 C247.322597,98.0422627 240.63447,107.203711 236.629213,112.612315 C234.595629,115.357099 230.92216,120.365654 243.098266,120.365654 C255.972871,120.365654 339.111707,120.365654 339.111707,120.365654 C331.128182,131.303512 305.224984,162.935989 258.717655,162.935989 C221.0257,162.935989 117.884395,162.935989 117.884395,162.935989 L117.884395,162.935989 Z" id="Path" fill="#D50029" fill-rule="nonzero"></path>
                <path d="M448.647452,120.354541 L417.327712,162.935989 L334.711164,162.935989 C334.711164,162.935989 366.013441,120.365654 366.040428,120.365654 L448.647452,120.354541 L448.647452,120.354541 Z" id="Path" fill="#D50029" fill-rule="nonzero"></path>
                <polygon id="Path" fill="#D50029" fill-rule="nonzero" points="575.210696 110.723193 373.13813 110.723193 428.397333 35.6678955 510.988482 35.6678955 479.316318 78.7049548 516.184361 78.7049548 547.869225 35.6678955 630.454024 35.6678955"></polygon>
                <path d="M568.119345,120.365654 L536.785317,162.935989 L454.202106,162.935989 C454.202106,162.935989 485.502796,120.365654 485.529783,120.365654 L568.119345,120.365654 L568.119345,120.365654 Z" id="Path" fill="#D50029" fill-rule="nonzero"></path>
                <polygon id="Path" fill="#D50029" fill-rule="nonzero" points="0 137.151853 121.710264 137.151853 115.061824 146.195827 0 146.195827"></polygon>
                <polygon id="Path" fill="#D50029" fill-rule="nonzero" points="0 120.364066 134.075283 120.364066 127.414143 129.396927 0 129.396927"></polygon>
                <polygon id="Path" fill="#D50029" fill-rule="nonzero" points="0 153.947577 109.351595 153.947577 102.734906 162.935989 0 162.935989"></polygon>
                <polygon id="Path" fill="#D50029" fill-rule="nonzero" points="900 146.195827 778.758048 146.195827 785.41125 137.15344 900 137.15344"></polygon>
                <polygon id="Path" fill="#D50029" fill-rule="nonzero" points="900 162.935989 766.432717 162.945514 773.046231 153.947577 900 153.947577"></polygon>
                <polygon id="Path" fill="#D50029" fill-rule="nonzero" points="797.760394 120.365654 900 120.365654 900 129.40169 791.113541 129.40804"></polygon>
                <path d="M744.834812,35.6678955 L689.585134,110.723193 L602.06798,110.723193 C602.06798,110.723193 657.333533,35.6678955 657.360521,35.6678955 L744.834812,35.6678955 L744.834812,35.6678955 Z" id="Path" fill="#D50029" fill-rule="nonzero"></path>
                <path d="M594.986153,120.365654 C594.986153,120.365654 588.9489,128.615879 586.016792,132.581447 C575.642496,146.602226 584.813469,162.935989 618.668442,162.935989 C657.76692,162.935989 751.308627,162.935989 751.308627,162.935989 L782.636304,120.365654 L594.986153,120.365654 L594.986153,120.365654 Z" id="Path" fill="#D50029" fill-rule="nonzero"></path>
                <polygon id="Path" fill="#FECC00" fill-rule="nonzero" points="0 230.899935 899.996825 230.899935 899.996825 235.398903 0 235.398903"></polygon>
                <polygon id="Path" fill="#FECC00" fill-rule="nonzero" points="0 251.891415 899.996825 251.891415 899.996825 256.390383 0 256.390383"></polygon>
                <polygon id="Path" fill="#FECC00" fill-rule="nonzero" points="0 272.882896 899.996825 272.882896 899.996825 277.381864 0 277.381864"></polygon>
                <polygon id="Path" fill="#D50029" fill-rule="nonzero" points="299.475067 277.383451 306.404494 277.383451 322.034996 256.204646 339.978481 256.204646 344.304411 250.34043 326.360926 250.34043 336.387561 236.754626 355.162895 236.754626 359.488826 230.893585 333.784065 230.893585"></polygon>
                <path d="M334.11744,277.383451 L341.046866,277.383451 L356.283668,256.736458 L360.441324,256.736458 C364.113206,256.736458 366.399203,256.736458 365.205405,261.264001 L360.723899,277.383451 L368.623287,277.383451 L373.141305,258.86688 C373.731854,256.001446 373.428642,255.00291 371.871307,254.202812 L371.969732,254.069462 C378.27051,253.139188 385.584111,249.141869 389.762405,243.480853 C397.969767,232.35567 389.837017,230.891997 380.275519,230.891997 L368.428025,230.891997 L334.11744,277.383451 L334.11744,277.383451 Z M371.029933,236.754626 L377.681548,236.754626 C384.055351,236.754626 385.415836,239.418447 382.318628,243.61579 C379.026158,248.078246 373.08098,250.873829 366.499215,250.873829 L360.611187,250.873829 L371.029933,236.754626 L371.029933,236.754626 Z" id="Shape" fill="#D50029"></path>
                <polygon id="Path" fill="#D50029" fill-rule="nonzero" points="377.183074 277.383451 404.272132 277.383451 408.596476 271.520823 388.435257 271.520823 399.741414 256.204646 418.102411 256.204646 422.426755 250.34043 404.065758 250.34043 414.09398 236.754626 434.255199 236.754626 438.579542 230.893585 411.490484 230.893585"></polygon>
                <polygon id="Path" fill="#D50029" fill-rule="nonzero" points="415.34969 277.383451 422.27753 277.383451 456.58494 230.893585 449.657101 230.893585"></polygon>
                <path d="M505.044891,232.42552 C502.009596,231.092022 499.628349,230.093486 492.562397,230.093486 C477.803433,230.093486 459.96631,239.618471 449.398338,253.9377 C438.48588,268.723652 441.692625,278.180375 457.005627,278.180375 C464.555765,278.180375 470.011994,276.983402 473.287002,276.115041 L491.1273,251.93904 L474.015663,251.93904 L469.985007,257.398444 L480.170391,257.398444 L469.750057,271.519235 C467.772035,271.854197 466.181363,272.319334 461.39982,272.319334 C451.354135,272.319334 448.53474,265.061295 456.59764,254.137724 C464.265253,243.747553 477.430371,235.95294 488.582541,235.95294 C494.818232,235.95294 497.704302,237.019738 499.528337,239.15016 L505.044891,232.42552 L505.044891,232.42552 Z" id="Path" fill="#D50029" fill-rule="nonzero"></path>
                <polygon id="Path" fill="#D50029" fill-rule="nonzero" points="484.951934 277.383451 491.879774 277.383451 507.508687 256.204646 530.652814 256.204646 515.022313 277.383451 521.948565 277.383451 556.255975 230.893585 549.329723 230.893585 534.977158 250.34043 511.834618 250.34043 526.187184 230.893585 519.260932 230.893585"></polygon>
                <polygon id="Path" fill="#D50029" fill-rule="nonzero" points="544.251319 277.383451 551.17757 277.383451 581.160637 236.754626 596.195827 236.754626 600.52017 230.893585 563.525127 230.893585 559.199196 236.754626 574.234385 236.754626"></polygon>
            </g>
        </g>
    </g>
</svg>