<?xml version="1.0" encoding="UTF-8"?>
<svg width="980px" height="680px" viewBox="0 0 980 680" version="1.1" xmlns="http://www.w3.org/2000/svg" xmlns:xlink="http://www.w3.org/1999/xlink">
    <title>DE Deutsche Post text</title>
    <defs>
        <rect id="path-1" x="0" y="0" width="900" height="600" rx="80"></rect>
        <filter x="-6.7%" y="-10.0%" width="113.3%" height="120.0%" filterUnits="objectBoundingBox" id="filter-2">
            <feMorphology radius="2.5" operator="dilate" in="SourceAlpha" result="shadowSpreadOuter1"></feMorphology>
            <feOffset dx="0" dy="0" in="shadowSpreadOuter1" result="shadowOffsetOuter1"></feOffset>
            <feGaussianBlur stdDeviation="17.5" in="shadowOffsetOuter1" result="shadowBlurOuter1"></feGaussianBlur>
            <feColorMatrix values="0 0 0 0 0   0 0 0 0 0   0 0 0 0 0  0 0 0 0.5 0" type="matrix" in="shadowBlurOuter1"></feColorMatrix>
        </filter>
    </defs>
    <g id="DE-Deutsche-Post-text" stroke="none" stroke-width="1" fill="none" fill-rule="evenodd">
        <g transform="translate(40, 40)">
            <g id="Rectangle">
                <use fill="black" fill-opacity="1" filter="url(#filter-2)" xlink:href="#path-1"></use>
                <use fill="#FECC00" fill-rule="evenodd" xlink:href="#path-1"></use>
            </g>
            <g id="Logo" transform="translate(49.5987, 230.2845)" fill="#000000" fill-rule="nonzero">
                <g id="g2017" transform="translate(624.0468, 0)">
                    <polygon id="_225737648" points="57.706257 115.311263 81.0726037 115.311263 57.4752813 139.183236 34.1173337 139.183236"></polygon>
                    <polygon id="_229043400" points="26.1927657 115.311263 49.5591124 115.311263 25.96179 139.183236 2.5954433 139.183236"></polygon>
                    <polygon id="_226455448" points="109.856382 115.311263 86.4984341 115.311263 110.087357 139.183236 133.453704 139.183236"></polygon>
                    <polygon id="_227904456" points="141.378272 115.311263 118.011925 115.311263 141.600849 139.183236 164.967195 139.183236"></polygon>
                    <path d="M127.049371,49.052725 C131.095897,38.0144263 133.914989,21.2117062 134.501829,9.45516758 L175.953156,19.7618045 C172.634588,68.4162119 136.138358,111.032075 82.005665,111.014447 C20.7643355,110.986811 -2.90311727,57.7514301 0.280986235,17.4050035 L18.2663022,11.686141 C15.3411957,34.6429743 22.4464725,51.1955797 27.3478162,58.7930066 C21.5132375,26.3104278 46.0363934,0.0176554866 76.7232823,1.09551157e-05 C104.321659,-0.0171527722 127.154533,20.1355181 127.049125,49.0529708 L127.049371,49.052725 Z M43.6331158,50.076291 L43.6331158,50.076291 C43.6331158,68.3990536 58.4887202,83.254658 76.8114829,83.254658 C95.1268053,83.254658 109.979427,68.3990536 109.979427,50.076291 C109.979427,31.7610013 95.1267562,16.9076256 76.8114829,16.9076256 C58.4887202,16.9076256 43.6331158,31.7610013 43.6331158,50.076291 Z" id="path2012"></path>
                </g>
                <g id="g2024" transform="translate(0, 31.388)">
                    <path d="M17.6545719,5.49677144 L4.65776939e-14,5.49677144 L4.65776939e-14,79.3238758 L15.3349391,79.3238758 C39.4467544,79.3238758 51.9274653,64.9393792 51.9274653,41.7786947 C51.9274653,25.6971971 46.0018017,15.85939 37.9617822,10.6825465 C33.1052435,7.50880024 26.8622741,5.49677144 17.6545719,5.49677144 L17.6545719,5.49677144 Z M16.49959,14.7023268 C33.2037686,14.7023268 39.8752696,26.0176166 39.8752696,41.7788585 C39.8752696,59.3371341 32.2503763,70.1186154 16.49959,70.1186154 L11.4190591,70.1186154 L11.4190591,14.7023268 L16.49959,14.7023268 L16.49959,14.7023268 Z" id="_228277928"></path>
                    <path d="M102.573007,55.3162558 L102.573007,51.6169114 C102.573007,32.5736801 94.2201718,24.3291047 82.2665503,24.3291047 C68.6234008,24.3291047 60.5803986,35.9624214 60.5803986,52.568075 C60.5803986,68.4271209 68.1948691,80.0626663 84.0643378,80.0626663 C90.7253833,80.0626663 96.2217614,78.3709096 99.7187787,76.787396 L99.1842163,67.5819554 C96.4360354,69.5917718 92.1043082,71.9241382 85.85911,71.9241382 C75.8189758,71.9241382 71.5835941,66.2030304 71.5835941,55.3162558 L102.573007,55.3162558 L102.573007,55.3162558 Z M91.7840853,47.7995893 L71.5836269,47.7995893 C71.6918864,37.8655023 75.7107654,32.1548502 81.9462946,32.1548502 C88.501342,32.1548502 91.7840853,37.4399533 91.7840853,47.7995893 L91.7840853,47.7995893 Z" id="_140087096"></path>
                    <path d="M153.549358,79.3243019 C153.335084,76.147573 153.120826,72.5542266 153.120826,68.9616341 L153.120826,25.0653223 L142.120581,25.0653223 L142.120581,56.8991139 C142.120581,65.2527191 138.953553,70.8655508 131.969237,70.8655508 C126.366861,70.8655508 123.608929,67.2625191 123.608929,58.8028995 L123.608929,25.0653223 L112.615402,25.0653223 L112.615402,61.3472947 C112.615402,72.7685826 117.587674,80.0627483 128.475153,80.0627483 C135.885035,80.0627483 139.90393,76.1476386 142.546883,71.0693529 L142.761141,71.0693529 C142.761141,72.6625682 143.176988,77.9454097 143.176988,79.3243838 L153.549358,79.3243838 L153.549358,79.3243019 Z" id="_140081624"></path>
                    <path d="M191.947194,78.4789233 L191.947194,70.2246462 C190.568236,70.8652231 188.878708,71.4953443 186.654601,71.4953443 C182.741737,71.4953443 180.943965,69.4855279 180.943965,63.5628469 L180.943965,33.5238603 L191.947194,33.5238603 L191.947194,25.0650273 L180.943965,25.0650273 L180.943965,10.6827431 L169.951193,13.9558011 L169.951193,25.065011 L161.269875,25.065011 L161.269875,33.523844 L169.951193,33.523844 L169.951193,65.786921 C169.951193,76.2555868 174.913025,80.0624369 183.800422,80.0624369 C186.974906,80.0624369 189.937361,79.3240724 191.947194,78.4789233 L191.947194,78.4789233 Z" id="_227263352"></path>
                    <path d="M231.075741,63.668763 C231.075741,57.1137156 227.162876,53.6159445 220.607075,49.9173539 L215.846833,47.2751711 C211.088819,44.6352334 208.234624,42.8374622 208.234624,39.2343978 C208.234624,35.4275476 210.874561,32.893608 216.37094,32.893608 C220.81912,32.893608 224.51994,33.9522772 227.483148,35.2229754 L228.007255,26.3378395 C225.790621,25.4829887 221.23718,24.328777 215.526528,24.328777 C204.523316,24.328777 197.443408,31.7282196 197.443408,39.874991 C197.443408,47.5954595 201.775119,51.1910347 208.439147,54.4708117 L214.149799,57.328006 C219.023512,59.7559149 220.498766,62.1912639 220.498766,65.0477207 C220.498766,69.271172 216.800176,71.4952624 211.08877,71.4952624 C205.796948,71.4952624 201.038934,69.271172 197.970481,67.6876584 L197.337377,77.2059145 C200.718678,78.7991298 206.117269,80.0623714 212.245981,80.0623714 C224.41463,80.0623714 231.075741,73.29305 231.075741,63.6687958 L231.075741,63.668763 Z" id="_224935040"></path>
                    <path d="M275.806927,77.846475 L275.16635,68.5350527 C272.738441,69.9117488 268.82556,71.2832335 265.123987,71.2832335 C255.704288,71.2832335 250.313908,63.8830698 250.313908,52.56778 C250.313908,39.4487373 255.605731,33.1079475 264.909729,33.1079475 C268.825576,33.1079475 271.999339,34.2621592 274.642243,35.6418708 L275.16635,26.4439031 C272.524167,25.2792358 268.086442,24.3288261 264.173593,24.3288261 C247.459713,24.3288261 238.894095,35.9621428 238.894095,52.4617492 C238.894095,67.7966882 246.614564,80.0623877 263.639031,80.0623877 C268.300699,80.0623877 272.952715,79.0037349 275.806927,77.8465241 L275.806927,77.846475 Z" id="_138505344"></path>
                    <path d="M324.664628,79.3243019 L324.664628,43.0423295 C324.664628,31.6202878 319.692307,24.3291047 308.798109,24.3291047 C301.609974,24.3291047 297.696323,28.3479837 295.367005,32.2608482 L295.152731,32.2608482 L295.152731,1.86310776e-13 L284.149503,1.86310776e-13 L284.149503,79.3243019 L295.152731,79.3243019 L295.152731,47.1694025 C295.152731,38.8165675 298.646765,33.5240406 305.522822,33.5240406 C311.127476,33.5240406 313.6614,37.1270723 313.6614,45.5859217 L313.6614,79.3243019 L324.664628,79.3243019 L324.664628,79.3243019 Z" id="_140175464"></path>
                    <path d="M377.028901,55.3162558 L377.028901,51.6169114 C377.028901,32.5736801 368.667872,24.3291047 356.721674,24.3291047 C343.079278,24.3291047 335.035522,35.9624214 335.035522,52.568075 C335.035522,68.4271209 342.650009,80.0626663 358.519462,80.0626663 C365.181261,80.0626663 370.677655,78.3709096 374.174673,76.787396 L373.64011,67.5819554 C370.891913,69.5917718 366.560186,71.9241382 360.314988,71.9241382 C350.264431,71.9241382 346.038718,66.2030304 346.038718,55.3162558 L377.028901,55.3162558 L377.028901,55.3162558 Z M366.239979,47.7995893 L346.038751,47.7995893 C346.137309,37.8655023 350.159187,32.1548502 356.401418,32.1548502 C362.95722,32.1548502 366.239979,37.4399533 366.239979,47.7995893 L366.239979,47.7995893 Z" id="_140088704"></path>
                    <path d="M454.766936,27.1825789 C454.766936,20.4132575 452.757857,15.0146834 448.950253,11.3138313 C445.037388,7.50920994 439.85081,5.49714836 432.342387,5.49714836 L412.882555,5.49714836 L412.882555,79.324138 L424.301614,79.324138 L424.301614,49.393411 L431.177671,49.393411 C446.617854,49.393411 454.766936,41.3526376 454.766936,27.182415 L454.766936,27.1825789 Z M429.488192,14.4905766 C438.471885,14.4905766 443.13357,18.5094719 443.13357,27.6014416 C443.13357,35.748213 439.217723,40.3994748 429.382145,40.3994748 L424.301614,40.3994748 L424.301614,14.4905766 L429.488143,14.4905766 L429.488192,14.4905766 Z" id="_229157152"></path>
                    <path d="M503.956365,52.1413952 C503.956365,32.5733032 493.805742,24.3287278 481.112986,24.3287278 C468.421,24.3287278 458.262183,32.5733032 458.262183,52.1413952 C458.262183,72.0297429 468.421,80.0622894 481.112986,80.0622894 C493.805742,80.0622894 503.956365,72.0297429 503.956365,52.1413952 Z M492.535077,52.1413952 C492.535077,63.4544563 489.571868,71.8154853 481.113035,71.8154853 C472.646729,71.8154853 469.684274,63.4544563 469.684274,52.1413952 C469.684274,40.8283341 472.646729,32.5733032 481.113035,32.5733032 C489.571868,32.5733032 492.535077,40.8283341 492.535077,52.1413952 L492.535077,52.1413952 Z" id="_224862128"></path>
                    <path d="M545.511002,63.668763 C545.511002,57.1137156 541.598153,53.6159445 535.034863,49.9173539 L530.27462,47.2751711 C525.516607,44.6352334 522.66015,42.8374622 522.66015,39.2343978 C522.66015,35.4275476 525.312772,32.893608 530.80915,32.893608 C535.246105,32.893608 538.947727,33.9522772 541.910182,35.2229754 L542.442516,26.3378395 C540.218426,25.4829887 535.675423,24.328777 529.964034,24.328777 C518.960805,24.328777 511.871196,31.7282196 511.871196,39.874991 C511.871196,47.5954595 516.212608,51.1910347 522.874424,54.4708117 L528.58506,57.328006 C533.451349,59.7559149 534.936305,62.1912639 534.936305,65.0477207 C534.936305,69.271172 531.227259,71.4952624 525.516607,71.4952624 C520.232257,71.4952624 515.474244,69.271172 512.405758,67.6876584 L511.765148,77.2059145 C515.153939,78.7991298 520.544286,80.0623714 526.681225,80.0623714 C538.84912,80.0623714 545.511002,73.29305 545.511002,63.6687958 L545.511002,63.668763 Z" id="_224865032"></path>
                    <path d="M580.190958,78.4789233 L580.190958,70.2246462 C578.812001,70.8652231 577.122473,71.4953443 574.899136,71.4953443 C570.986288,71.4953443 569.1885,69.4855279 569.1885,63.5628469 L569.1885,33.5238603 L580.190958,33.5238603 L580.190958,25.0650273 L569.1885,25.0650273 L569.1885,10.6827431 L558.185272,13.9558011 L558.185272,25.065011 L549.51441,25.065011 L549.51441,33.523844 L558.185272,33.523844 L558.185272,65.786921 C558.185272,76.2555868 563.15679,80.0624369 572.044957,80.0624369 C575.219441,80.0624369 578.181896,79.3240724 580.190958,78.4789233 L580.190958,78.4789233 Z" id="_23879864"></path>
                </g>
            </g>
        </g>
    </g>
</svg>