<?xml version="1.0" encoding="UTF-8"?>
<svg width="980px" height="680px" viewBox="0 0 980 680" version="1.1" xmlns="http://www.w3.org/2000/svg" xmlns:xlink="http://www.w3.org/1999/xlink">
    <title>DE Dachser alt3</title>
    <defs>
        <rect id="path-1" x="0" y="0" width="900" height="600" rx="80"></rect>
        <filter x="-6.7%" y="-10.0%" width="113.3%" height="120.0%" filterUnits="objectBoundingBox" id="filter-2">
            <feMorphology radius="2.5" operator="dilate" in="SourceAlpha" result="shadowSpreadOuter1"></feMorphology>
            <feOffset dx="0" dy="0" in="shadowSpreadOuter1" result="shadowOffsetOuter1"></feOffset>
            <feGaussianBlur stdDeviation="17.5" in="shadowOffsetOuter1" result="shadowBlurOuter1"></feGaussianBlur>
            <feColorMatrix values="0 0 0 0 0   0 0 0 0 0   0 0 0 0 0  0 0 0 0.5 0" type="matrix" in="shadowBlurOuter1"></feColorMatrix>
        </filter>
    </defs>
    <g id="DE-Dachser-alt3" stroke="none" stroke-width="1" fill="none" fill-rule="evenodd">
        <g transform="translate(40, 40)">
            <g id="Rectangle">
                <use fill="black" fill-opacity="1" filter="url(#filter-2)" xlink:href="#path-1"></use>
                <use fill="#FBBA00" fill-rule="evenodd" xlink:href="#path-1"></use>
            </g>
            <path d="M900,520 L899.989282,521.322946 C899.289884,564.459817 864.448306,599.297064 821.309742,599.989495 L820,600 L80,600 L78.6770537,599.989282 C35.5401833,599.289884 0.702935961,564.448306 0.0105047009,521.309742 L0,520 L0,441 L900,441 L900,520 Z" id="Path" fill="#0B3D91"></path>
            <g id="Logo" transform="translate(50.0323, 223)" fill="#0B3D91" fill-rule="nonzero">
                <path d="M0,151.005813 L55.3722379,151.005813 C94.5611355,151.005813 113.61937,119.194717 113.61937,76.426745 C113.61937,27.4826187 88.630469,3.51447601 55.3722379,3.51447601 L0,3.51447601 L0,151.005813 Z M28.2191038,30.7709722 L48.3626843,30.7709722 C76.3944402,30.7709722 85.3937965,49.7839845 85.3937965,79.5277506 C85.3937965,112.172235 69.7466648,123.736388 53.3953528,123.736388 L28.2191038,123.736388 L28.2191038,30.7709722 Z" id="path1109"></path>
                <path d="M103.011366,151.005813 L131.592248,151.005813 L141.651115,118.148124 L189.65848,118.148124 L199.362027,151.005813 L228.660027,151.005813 L180.665582,3.51447601 L151.722911,3.51447601 L103.011366,151.005813 Z M165.748477,39.8672429 L166.110266,39.8672429 L182.280689,93.992622 L149.028917,93.992622 L165.748477,39.8672429 Z" id="path1111"></path>
                <path d="M311.741,53.0917143 C309.945004,38.4201077 297.715434,27.2694248 283.702787,27.2694248 C258.345647,27.2694248 248.822991,52.0580494 248.822991,77.8803389 C248.822991,102.462228 258.345647,127.250853 283.702787,127.250853 C300.952103,127.250853 310.668571,113.612911 312.81989,94.1993572 L340.147457,94.1993572 C337.266111,130.959136 315.1521,154.513819 283.702787,154.513819 C243.964757,154.513819 220.597426,120.428658 220.597426,77.8803389 C220.597426,34.078713 243.964757,0 283.702787,0 C311.915431,0 335.651007,19.0065536 339.068567,53.0917143 L311.741,53.0917143 Z" id="path1113"></path>
                <polygon id="path1115" points="349.999594 3.51447601 378.22516 3.51447601 378.22516 60.1206552 430.17984 60.1206552 430.17984 3.51447601 458.405405 3.51447601 458.405405 151.005813 430.17984 151.005813 430.17984 87.3836213 378.22516 87.3836213 378.22516 151.005813 349.999594 151.005813"></polygon>
                <path d="M493.065549,102.042299 C493.065549,121.675517 506.380465,129.305265 521.478459,129.305265 C531.356448,129.305265 546.460901,126.023371 546.460901,110.931835 C546.460901,95.0198282 527.228236,92.3387516 508.357361,86.5566805 C489.292667,80.7746094 470.053544,72.2920855 470.053544,44.6156492 C470.053544,14.4584237 494.868003,0 518.054439,0 C544.845795,0 569.472906,13.4247478 569.472906,47.5163784 L542.151801,47.5163784 C541.240885,29.7502248 530.290479,25.202095 516.801121,25.202095 C507.814682,25.202095 497.400484,29.5370309 497.400484,41.9410424 C497.400484,53.2919907 503.492664,54.7391259 535.684925,64.2423972 C545.020225,66.9234737 573.794925,73.7521383 573.794925,107.204176 C573.794925,134.266866 555.27291,154.513819 520.399572,154.513819 C491.99312,154.513819 465.382653,138.401536 465.750902,102.042299 L493.065549,102.042299 Z" id="path1117"></path>
                <polygon id="path1119" points="583.349888 3.51447601 679.34523 3.51447601 679.34523 30.7709722 611.556074 30.7709722 611.556074 62.3882614 673.769894 62.3882614 673.769894 87.5838866 611.556074 87.5838866 611.556074 123.736388 680.772989 123.736388 680.772989 151.005813 583.349888 151.005813"></polygon>
                <path d="M689.39765,151.005813 L717.63613,151.005813 L717.63613,93.3659577 L745.848775,93.3659577 C760.05523,93.3659577 765.268788,100.188164 767.245684,115.680241 C768.686349,127.45113 768.318112,141.709266 771.735674,151.005813 L799.967695,151.005813 C794.928568,142.736472 795.102998,125.390259 794.573248,116.093711 C793.67525,101.221828 789.71501,85.7232921 775.883262,81.5950803 L775.883262,81.18161 C790.0768,74.5726092 796.188355,61.5484032 796.188355,44.2021788 C796.188355,21.8943653 781.633028,3.51447601 758.614565,3.51447601 L689.39765,3.51447601 L689.39765,151.005813 Z M717.63613,28.71656 L748.549228,28.71656 C761.127658,28.71656 767.96924,34.9056427 767.96924,49.1702488 C767.96924,64.0421318 761.127658,70.2376622 748.549228,70.2376622 L717.63613,70.2376622 L717.63613,28.71656 Z" id="path1121"></path>
            </g>
        </g>
    </g>
</svg>