<?xml version="1.0" encoding="UTF-8"?>
<svg width="980px" height="680px" viewBox="0 0 980 680" version="1.1" xmlns="http://www.w3.org/2000/svg" xmlns:xlink="http://www.w3.org/1999/xlink">
    <title>DE Deutsche Post Warenpost alt</title>
    <defs>
        <rect id="path-1" x="0" y="0" width="900" height="600" rx="80"></rect>
        <filter x="-6.7%" y="-10.0%" width="113.3%" height="120.0%" filterUnits="objectBoundingBox" id="filter-2">
            <feMorphology radius="2.5" operator="dilate" in="SourceAlpha" result="shadowSpreadOuter1"></feMorphology>
            <feOffset dx="0" dy="0" in="shadowSpreadOuter1" result="shadowOffsetOuter1"></feOffset>
            <feGaussianBlur stdDeviation="17.5" in="shadowOffsetOuter1" result="shadowBlurOuter1"></feGaussianBlur>
            <feColorMatrix values="0 0 0 0 0   0 0 0 0 0   0 0 0 0 0  0 0 0 0.5 0" type="matrix" in="shadowBlurOuter1"></feColorMatrix>
        </filter>
        <polygon id="path-3" points="0 0 74.9847889 0 74.9847889 98.9718646 0 98.9718646"></polygon>
    </defs>
    <g id="DE-Deutsche-Post-Warenpost-alt" stroke="none" stroke-width="1" fill="none" fill-rule="evenodd">
        <g transform="translate(40, 40)">
            <g id="Rectangle">
                <use fill="black" fill-opacity="1" filter="url(#filter-2)" xlink:href="#path-1"></use>
                <use fill="#FECC00" fill-rule="evenodd" xlink:href="#path-1"></use>
            </g>
            <g id="Group-19" transform="translate(50, 249)">
                <polygon id="Fill-1" fill="#D40511" points="110.385462 1.70335788 76.94339 72.0312601 76.6482107 72.0312601 84.2765685 1.70335788 55.9567244 1.70335788 23.5506735 72.0312601 23.2554943 72.0312601 31.0285477 1.70335788 7.72675084 1.70335788 0 100.675223 28.3198441 100.675223 63.185722 23.81865 63.4809013 23.81865 54.7181291 100.675223 83.0379732 100.675223 131.626792 1.70335788"></polygon>
                <path d="M160.241237,1.70335788 L97.6458732,100.675223 L120.94767,100.675223 L134.369644,78.5541426 L166.671514,78.5541426 L166.677302,100.675223 L191.454995,100.675223 L186.790005,1.70335788 L160.241237,1.70335788 Z M167.626506,20.6990105 L167.921685,20.6990105 L166.752544,61.8215309 L143.595442,61.8215309 L167.626506,20.6990105 Z" id="Fill-2" fill="#D40511"></path>
                <g id="Group-18" transform="translate(200.9233, 0)">
                    <path d="M39.5713824,43.9556623 L47.0897714,43.9556623 C56.3850237,43.9556623 62.9599967,37.999987 64.9915244,30.9098973 C66.1722414,26.8005391 67.2429897,18.4371272 54.2666785,18.4371272 L46.8871974,18.4371272 L39.5713824,43.9556623 Z M28.3835102,1.70451545 L66.1433023,1.70451545 C83.1016393,1.70451545 95.4818042,8.93351305 90.2380317,27.2230506 C89.0631025,31.3381966 83.7961787,47.642509 62.7863619,51.4682635 L62.7053323,51.7518671 C69.9806325,52.6026779 71.7922228,56.5731281 72.255249,68.345571 L73.603813,100.670592 L48.2357614,100.670592 L47.8711282,74.1565506 C47.7495838,60.6882741 44.5083999,60.6882741 35.6530226,60.6882741 L24.1931225,100.670592 L0,100.670592 L28.3835102,1.70451545 Z" id="Fill-3" fill="#D40511"></path>
                    <polygon id="Fill-5" fill="#D40511" points="114.063048 1.70335788 173.504045 1.70335788 168.543876 19.0031768 132.410464 19.0031768 126.067004 41.1184689 160.435129 41.1184689 155.469172 58.4182878 121.106835 58.4182878 113.95308 83.3696158 151.857567 83.3696158 146.897398 100.669435 85.6853259 100.669435"></polygon>
                    <polygon id="Fill-7" fill="#D40511" points="189.834403 1.70335788 218.154247 1.70335788 228.421855 70.3296385 228.717034 70.3296385 248.39565 1.70335788 269.631192 1.70335788 241.25347 100.669435 212.638447 100.669435 203.522617 29.0682103 203.227438 29.0682103 182.698011 100.669435 161.456681 100.669435"></polygon>
                    <path d="M302.899051,47.2176824 C310.423228,47.2176824 317.299168,42.2575135 319.944205,33.037503 C322.751302,23.2560731 319.249666,19.0020192 309.665022,19.0020192 L303.321562,19.0020192 L295.230178,47.2176824 L302.899051,47.2176824 Z M284.974146,1.70220032 L317.866375,1.70220032 C339.842759,1.70220032 350.231911,11.7730216 344.096813,33.1821987 C339.258189,50.0537183 325.373188,64.5117135 302.806446,64.5117135 L291.149759,64.5117135 L280.783759,100.668277 L256.596424,100.668277 L284.974146,1.70220032 Z" id="Fill-9" fill="#000000"></path>
                    <path d="M381.738533,85.6407596 C395.750866,85.6407596 405.196602,70.187258 410.648736,51.1858175 C416.095082,32.1901649 415.510512,16.7308754 401.498179,16.7308754 C387.485847,16.7308754 378.184807,32.1901649 372.73846,51.1858175 C367.292114,70.187258 367.726201,85.6407596 381.738533,85.6407596 M406.296289,0.00405147984 C435.941546,0.00405147984 443.760902,22.1193436 435.426429,51.1858175 C427.091956,80.2522914 406.591468,102.373371 376.940424,102.373371 C347.295167,102.373371 339.626294,80.2522914 347.960767,51.1858175 C356.29524,22.1193436 376.645244,0.00405147984 406.296289,0.00405147984" id="Fill-11" fill="#000000"></path>
                    <path d="M511.990716,21.8374763 C507.053699,19.0014404 499.5874,16.7326117 493.099245,16.7326117 C485.285676,16.7326117 478.403948,20.1358548 476.291391,27.5095481 C471.128648,45.5154821 514.091698,37.1520701 504.009301,72.3131273 C498.638196,91.0309642 479.897208,102.36932 459.39672,102.36932 C446.860284,102.36932 436.905219,99.5390718 432.847952,98.2599618 L439.70074,78.9749177 C446.159957,81.6720457 451.525274,85.0752888 460.519559,85.0752888 C468.194219,85.0752888 476.627085,81.3884421 478.942216,73.3028459 C484.429078,54.1624976 441.182424,63.5214161 451.305336,28.2156632 C452.161935,25.2407194 460.577437,0 495.096045,0 C504.535993,0 509.988128,1.56271365 518.305237,3.40324306 L511.990716,21.8374763 Z" id="Fill-13" fill="#000000"></path>
                    <g id="Group-17" transform="translate(524.0919, 1.7016)">
                        <mask id="mask-4" fill="white">
                            <use xlink:href="#path-3"></use>
                        </mask>
                        <g id="Clip-16"></g>
                        <polygon id="Fill-15" fill="#000000" mask="url(#mask-4)" points="23.2554943 17.8670261 0.83923511 17.8670261 5.95567536 0 74.987104 0 69.8648759 17.8670261 47.4486167 17.8670261 24.1931225 98.9718646 0 98.9718646"></polygon>
                    </g>
                </g>
            </g>
        </g>
    </g>
</svg>