<?xml version="1.0" encoding="UTF-8"?>
<svg width="980px" height="680px" viewBox="0 0 980 680" version="1.1" xmlns="http://www.w3.org/2000/svg" xmlns:xlink="http://www.w3.org/1999/xlink">
    <title>DE Dachser text alt</title>
    <defs>
        <rect id="path-1" x="0" y="0" width="900" height="600" rx="80"></rect>
        <filter x="-6.7%" y="-10.0%" width="113.3%" height="120.0%" filterUnits="objectBoundingBox" id="filter-2">
            <feMorphology radius="2.5" operator="dilate" in="SourceAlpha" result="shadowSpreadOuter1"></feMorphology>
            <feOffset dx="0" dy="0" in="shadowSpreadOuter1" result="shadowOffsetOuter1"></feOffset>
            <feGaussianBlur stdDeviation="17.5" in="shadowOffsetOuter1" result="shadowBlurOuter1"></feGaussianBlur>
            <feColorMatrix values="0 0 0 0 0   0 0 0 0 0   0 0 0 0 0  0 0 0 0.5 0" type="matrix" in="shadowBlurOuter1"></feColorMatrix>
        </filter>
    </defs>
    <g id="DE-Dachser-text-alt" stroke="none" stroke-width="1" fill="none" fill-rule="evenodd">
        <g transform="translate(40, 40)">
            <g id="Rectangle">
                <use fill="black" fill-opacity="1" filter="url(#filter-2)" xlink:href="#path-1"></use>
                <use fill="#FBBA00" fill-rule="evenodd" xlink:href="#path-1"></use>
            </g>
            <g id="Logo" transform="translate(50, 166)" fill-rule="nonzero">
                <path d="M0.0323047918,151.005813 L55.4045427,151.005813 C94.5934403,151.005813 113.651675,119.194717 113.651675,76.426745 C113.651675,27.4826187 88.6627738,3.51447601 55.4045427,3.51447601 L0.0323047918,3.51447601 L0.0323047918,151.005813 Z M28.2514086,30.7709722 L48.3949891,30.7709722 C76.426745,30.7709722 85.4261013,49.7839845 85.4261013,79.5277506 C85.4261013,112.172235 69.7789696,123.736388 53.4276576,123.736388 L28.2514086,123.736388 L28.2514086,30.7709722 Z" id="path1109" fill="#0B3D91"></path>
                <path d="M103.04367,151.005813 L131.624553,151.005813 L141.68342,118.148124 L189.690784,118.148124 L199.394332,151.005813 L228.692332,151.005813 L180.697887,3.51447601 L151.755215,3.51447601 L103.04367,151.005813 Z M165.780782,39.8672429 L166.142571,39.8672429 L182.312994,93.992622 L149.061221,93.992622 L165.780782,39.8672429 Z" id="path1111" fill="#0B3D91"></path>
                <path d="M311.773304,53.0917143 C309.977308,38.4201077 297.747738,27.2694248 283.735092,27.2694248 C258.377952,27.2694248 248.855295,52.0580494 248.855295,77.8803389 C248.855295,102.462228 258.377952,127.250853 283.735092,127.250853 C300.984408,127.250853 310.700876,113.612911 312.852195,94.1993572 L340.179762,94.1993572 C337.298415,130.959136 315.184405,154.513819 283.735092,154.513819 C243.997062,154.513819 220.629731,120.428658 220.629731,77.8803389 C220.629731,34.078713 243.997062,6.28659641e-14 283.735092,6.28659641e-14 C311.947736,6.28659641e-14 335.683312,19.0065536 339.100872,53.0917143 L311.773304,53.0917143 Z" id="path1113" fill="#0B3D91"></path>
                <polygon id="path1115" fill="#0B3D91" points="350.031899 3.51447601 378.257465 3.51447601 378.257465 60.1206552 430.212145 60.1206552 430.212145 3.51447601 458.437709 3.51447601 458.437709 151.005813 430.212145 151.005813 430.212145 87.3836213 378.257465 87.3836213 378.257465 151.005813 350.031899 151.005813"></polygon>
                <path d="M493.097853,102.042299 C493.097853,121.675517 506.412769,129.305265 521.510764,129.305265 C531.388753,129.305265 546.493206,126.023371 546.493206,110.931835 C546.493206,95.0198282 527.260541,92.3387516 508.389666,86.5566805 C489.324972,80.7746094 470.085849,72.2920855 470.085849,44.6156492 C470.085849,14.4584237 494.900308,6.28659641e-14 518.086743,6.28659641e-14 C544.878099,6.28659641e-14 569.505211,13.4247478 569.505211,47.5163784 L542.184105,47.5163784 C541.27319,29.7502248 530.322783,25.202095 516.833426,25.202095 C507.846987,25.202095 497.432789,29.5370309 497.432789,41.9410424 C497.432789,53.2919907 503.524969,54.7391259 535.71723,64.2423972 C545.05253,66.9234737 573.827229,73.7521383 573.827229,107.204176 C573.827229,134.266866 555.305215,154.513819 520.431877,154.513819 C492.025425,154.513819 465.414958,138.401536 465.783206,102.042299 L493.097853,102.042299 Z" id="path1117" fill="#0B3D91"></path>
                <polygon id="path1119" fill="#0B3D91" points="583.382193 3.51447601 679.377535 3.51447601 679.377535 30.7709722 611.588379 30.7709722 611.588379 62.3882614 673.802199 62.3882614 673.802199 87.5838866 611.588379 87.5838866 611.588379 123.736388 680.805294 123.736388 680.805294 151.005813 583.382193 151.005813"></polygon>
                <path d="M689.429955,151.005813 L717.668435,151.005813 L717.668435,93.3659577 L745.88108,93.3659577 C760.087535,93.3659577 765.301092,100.188164 767.277989,115.680241 C768.718654,127.45113 768.350417,141.709266 771.767979,151.005813 L800,151.005813 C794.960873,142.736472 795.135303,125.390259 794.605553,116.093711 C793.707555,101.221828 789.747315,85.7232921 775.915567,81.5950803 L775.915567,81.18161 C790.109104,74.5726092 796.22066,61.5484032 796.22066,44.2021788 C796.22066,21.8943653 781.665333,3.51447601 758.646869,3.51447601 L689.429955,3.51447601 L689.429955,151.005813 Z M717.668435,28.71656 L748.581532,28.71656 C761.159963,28.71656 768.001545,34.9056427 768.001545,49.1702488 C768.001545,64.0421318 761.159963,70.2376622 748.581532,70.2376622 L717.668435,70.2376622 L717.668435,28.71656 Z" id="path1121" fill="#0B3D91"></path>
                <polygon id="path1123" fill="#231F20" points="0 189.910448 13.5022749 189.910448 13.5022749 251.29088 0 251.29088"></polygon>
                <path d="M24.3170145,206.849661 L35.9134615,206.849661 L35.9134615,213.032285 L36.1848063,213.032285 C39.2728834,208.057756 44.6027317,205.635107 49.7645972,205.635107 C62.7435809,205.635107 66.0060884,212.954758 66.0060884,223.963304 L66.0060884,251.29088 L53.7959057,251.29088 L53.7959057,226.192158 C53.7959057,218.891883 51.6445791,215.274045 45.96587,215.274045 C39.3504105,215.274045 36.5207385,218.975869 36.5207385,227.994613 L36.5207385,251.29088 L24.3170145,251.29088 L24.3170145,206.849661 Z" id="path1125" fill="#231F20"></path>
                <path d="M90.7624083,206.849661 L99.7036248,206.849661 L99.7036248,215.015629 L90.7624083,215.015629 L90.7624083,237.026274 C90.7624083,241.160944 91.7960732,242.18815 95.9242849,242.18815 C97.2099072,242.18815 98.4180025,242.097706 99.7036248,241.83929 L99.7036248,251.374866 C97.6362951,251.723726 94.9746059,251.807712 92.5713329,251.807712 C85.0836992,251.807712 78.5586843,250.089243 78.5586843,241.232001 L78.5586843,215.015629 L71.167965,215.015629 L71.167965,206.849661 L78.5586843,206.849661 L78.5586843,193.521816 L90.7624083,193.521816 L90.7624083,206.849661 Z" id="path1127" fill="#231F20"></path>
                <path d="M147.917725,232.032369 C148.764042,218.368592 141.457308,205.635107 126.333468,205.635107 C112.837663,205.635107 103.638019,215.790878 103.638019,229.118722 C103.638019,242.866496 112.32083,252.505434 126.333468,252.505434 C136.398805,252.505434 143.699079,248.034831 147.136017,237.543106 L136.398805,237.543106 C135.610628,240.295251 131.669775,243.305801 126.766325,243.305801 C119.969966,243.305801 116.190615,239.784877 115.854671,232.032369 L147.917725,232.032369 Z M115.854671,224.305706 C116.022643,220.86231 118.251486,214.847657 125.991066,214.847657 C131.915274,214.847657 134.583421,218.110176 135.714001,224.305706 L115.854671,224.305706 Z" id="path1129" fill="#231F20"></path>
                <polygon id="path1131" fill="#231F20" points="155.715456 189.910448 167.932097 189.910448 167.932097 251.29088 155.715456 251.29088"></polygon>
                <polygon id="path1133" fill="#231F20" points="177.894061 189.910448 190.104255 189.910448 190.104255 251.29088 177.894061 251.29088"></polygon>
                <path d="M212.28933,199.982233 L200.085606,199.982233 L200.085606,189.910448 L212.28933,189.910448 L212.28933,199.982233 Z M200.079136,206.849661 L212.282871,206.849661 L212.282871,251.29088 L200.079136,251.29088 L200.079136,206.849661 Z" id="path1135" fill="#231F20"></path>
                <path d="M264.644557,206.849661 L253.028726,206.849661 L253.028726,212.780327 L252.854295,212.780327 C249.934186,207.62491 245.457117,205.635107 239.616898,205.635107 C227.154752,205.635107 220.532824,216.13328 220.532824,227.658669 C220.532824,239.862393 226.205071,250.005257 239.532913,250.005257 C244.862758,250.005257 250.186142,247.769945 252.854295,243.131371 L253.028726,243.131371 L253.028726,248.978051 C253.112711,255.328636 250.024631,259.967221 243.228272,259.967221 C238.932094,259.967221 235.236735,258.429642 234.125543,253.862124 L221.992879,253.862124 C222.587237,264.011436 232.826999,268.146107 241.593786,268.146107 C262.047469,268.146107 264.644557,255.761482 264.644557,248.467678 L264.644557,206.849661 Z M242.614533,240.812083 C235.139829,240.812083 232.743013,233.847752 232.743013,227.484239 C232.743013,220.86231 235.747108,214.847657 242.614533,214.847657 C250.535004,214.847657 253.028726,221.295156 253.028726,228.511445 C253.028726,234.874958 249.591784,240.812083 242.614533,240.812083" id="path1137" fill="#231F20"></path>
                <path d="M316.554014,232.032369 C317.41325,218.368592 310.106518,205.635107 294.982679,205.635107 C281.493326,205.635107 272.293691,215.790878 272.293691,229.118722 C272.293691,242.866496 280.970033,252.505434 294.982679,252.505434 C305.035089,252.505434 312.348282,248.034831 315.785224,237.543106 L305.035089,237.543106 C304.266299,240.295251 300.306063,243.305801 295.415527,243.305801 C288.612707,243.305801 284.839823,239.784877 284.503881,232.032369 L316.554014,232.032369 Z M284.503881,224.305706 C284.671852,220.86231 286.900696,214.847657 294.633816,214.847657 C300.56448,214.847657 303.232633,218.110176 304.343825,224.305706 L284.503881,224.305706 Z" id="path1139" fill="#231F20"></path>
                <path d="M323.783222,206.849661 L335.379671,206.849661 L335.379671,213.032285 L335.644548,213.032285 C338.739088,208.057756 344.062474,205.635107 349.211426,205.635107 C362.196866,205.635107 365.472298,212.954758 365.472298,223.963304 L365.472298,251.29088 L353.262109,251.29088 L353.262109,226.192158 C353.262109,218.891883 351.11725,215.274045 345.445003,215.274045 C338.829535,215.274045 335.98049,218.975869 335.98049,227.994613 L335.98049,251.29088 L323.783222,251.29088 L323.783222,206.849661 Z" id="path1141" fill="#231F20"></path>
                <path d="M390.228619,206.849661 L399.169838,206.849661 L399.169838,215.015629 L390.228619,215.015629 L390.228619,237.026274 C390.228619,241.160944 391.262286,242.18815 395.390492,242.18815 C396.676116,242.18815 397.884214,242.097706 399.169838,241.83929 L399.169838,251.374866 C397.102503,251.723726 394.440811,251.807712 392.037536,251.807712 C384.556372,251.807712 378.024889,250.089243 378.024889,241.232001 L378.024889,215.015629 L370.62125,215.015629 L370.62125,206.849661 L378.024889,206.849661 L378.024889,193.521816 L390.228619,193.521816 L390.228619,206.849661 Z" id="path1143" fill="#231F20"></path>
                <polygon id="path1145" fill="#231F20" points="430.205685 189.910448 443.695034 189.910448 443.695034 239.952838 473.61969 239.952838 473.61969 251.29088 430.205685 251.29088"></polygon>
                <path d="M478.52315,229.118722 C478.52315,243.208898 487.548352,252.505434 501.470556,252.505434 C515.476735,252.505434 524.495479,243.208898 524.495479,229.118722 C524.495479,214.931643 515.476735,205.635107 501.470556,205.635107 C487.548352,205.635107 478.52315,214.931643 478.52315,229.118722 M490.720415,229.118722 C490.720415,221.986419 493.214144,214.847657 501.470556,214.847657 C509.810955,214.847657 512.291755,221.986419 512.291755,229.118722 C512.291755,236.173498 509.810955,243.305801 501.470556,243.305801 C493.214144,243.305801 490.720415,236.173498 490.720415,229.118722" id="path1147" fill="#231F20"></path>
                <path d="M575.132239,206.849661 L563.535792,206.849661 L563.535792,212.780327 L563.354892,212.780327 C560.441245,207.62491 555.964173,205.635107 550.117503,205.635107 C537.655352,205.635107 531.039881,216.13328 531.039881,227.658669 C531.039881,239.862393 536.712131,250.005257 550.033517,250.005257 C555.369824,250.005257 560.699661,247.769945 563.354892,243.131371 L563.535792,243.131371 L563.535792,248.978051 C563.613308,255.328636 560.518772,259.967221 553.73533,259.967221 C549.432699,259.967221 545.737334,258.429642 544.619683,253.862124 L532.499945,253.862124 C533.107222,264.011436 543.327602,268.146107 552.100847,268.146107 C572.560994,268.146107 575.132239,255.761482 575.132239,248.467678 L575.132239,206.849661 Z M553.134512,240.812083 C545.659807,240.812083 543.250075,233.847752 543.250075,227.484239 C543.250075,220.86231 546.254166,214.847657 553.134512,214.847657 C561.042063,214.847657 563.535792,221.295156 563.535792,228.511445 C563.535792,234.874958 560.092384,240.812083 553.134512,240.812083" id="path1149" fill="#231F20"></path>
                <path d="M597.498203,199.982233 L585.281551,199.982233 L585.281551,189.910448 L597.498203,189.910448 L597.498203,199.982233 Z M585.281551,206.849661 L597.498203,206.849661 L597.498203,251.29088 L585.281551,251.29088 L585.281551,206.849661 Z" id="path1151" fill="#231F20"></path>
                <path d="M616.569356,236.858302 C616.666259,242.18815 621.123955,244.333007 625.943419,244.333007 C629.470812,244.333007 633.941426,242.95694 633.941426,238.660757 C633.941426,234.965403 628.869994,233.673322 620.103208,231.780411 C613.048432,230.229914 606.006573,227.742655 606.006573,219.919089 C606.006573,208.56813 615.794107,205.635107 625.336142,205.635107 C635.052607,205.635107 644.000293,208.916991 644.943513,219.841562 L633.334138,219.841562 C632.985277,215.106073 629.386826,213.813992 625.000198,213.813992 C622.248065,213.813992 618.203839,214.324366 618.203839,217.948663 C618.203839,222.328821 625.084184,222.929639 632.048516,224.564133 C639.180819,226.192158 646.14515,228.77632 646.14515,237.026274 C646.14515,248.713165 636.002297,252.505434 625.852974,252.505434 C615.542149,252.505434 605.476823,248.622721 604.959991,236.858302 L616.569356,236.858302 Z" id="path1153" fill="#231F20"></path>
                <path d="M668.278544,206.849661 L677.213302,206.849661 L677.213302,215.015629 L668.278544,215.015629 L668.278544,237.026274 C668.278544,241.160944 669.299292,242.18815 673.421033,242.18815 C674.719573,242.18815 675.92768,242.097706 677.213302,241.83929 L677.213302,251.374866 C675.139502,251.723726 672.484272,251.807712 670.07454,251.807712 C662.593376,251.807712 656.06835,250.089243 656.06835,241.232001 L656.06835,215.015629 L648.671172,215.015629 L648.671172,206.849661 L656.06835,206.849661 L656.06835,193.521816 L668.278544,193.521816 L668.278544,206.849661 Z" id="path1155" fill="#231F20"></path>
                <path d="M698.261339,199.982233 L686.064074,199.982233 L686.064074,189.910448 L698.261339,189.910448 L698.261339,199.982233 Z M686.064074,206.849661 L698.261339,206.849661 L698.261339,251.29088 L686.064074,251.29088 L686.064074,206.849661 Z" id="path1157" fill="#231F20"></path>
                <path d="M736.946322,222.503251 C736.171073,217.515816 732.986082,214.847657 727.914661,214.847657 C720.097554,214.847657 717.526309,222.755209 717.526309,229.293152 C717.526309,235.650207 720.013568,243.305801 727.662703,243.305801 C733.328484,243.305801 736.597461,239.681504 737.366251,234.27414 L749.156516,234.27414 C747.606007,246.057935 739.440039,252.505434 727.733772,252.505434 C714.3284,252.505434 705.309656,243.034467 705.309656,229.725999 C705.309656,215.881322 713.55961,205.635107 728.005105,205.635107 C738.49036,205.635107 748.12284,211.152303 748.89163,222.503251 L736.946322,222.503251 Z" id="path1159" fill="#231F20"></path>
                <path d="M766.696547,236.858302 C766.774074,242.18815 771.251135,244.333007 776.064151,244.333007 C779.585075,244.333007 784.055689,242.95694 784.055689,238.660757 C784.055689,234.965403 778.984257,233.673322 770.21747,231.780411 C763.162694,230.229914 756.120847,227.742655 756.120847,219.919089 C756.120847,208.56813 765.921298,205.635107 775.450415,205.635107 C785.16688,205.635107 794.114556,208.916991 795.064246,219.841562 L783.448412,219.841562 C783.112468,215.106073 779.49463,213.813992 775.108013,213.813992 C772.362327,213.813992 768.318112,214.324366 768.318112,217.948663 C768.318112,222.328821 775.204917,222.929639 782.162789,224.564133 C789.295092,226.192158 796.272341,228.77632 796.272341,237.026274 C796.272341,248.713165 786.11656,252.505434 775.980165,252.505434 C765.656423,252.505434 755.610473,248.622721 755.080712,236.858302 L766.696547,236.858302 Z" id="path1161" fill="#231F20"></path>
            </g>
        </g>
    </g>
</svg>