<?xml version="1.0" encoding="UTF-8"?>
<svg width="980px" height="680px" viewBox="0 0 980 680" version="1.1" xmlns="http://www.w3.org/2000/svg" xmlns:xlink="http://www.w3.org/1999/xlink">
    <title>DE DHL Warenpost International</title>
    <defs>
        <rect id="path-1" x="0" y="0" width="900" height="600" rx="80"></rect>
        <filter x="-6.7%" y="-10.0%" width="113.3%" height="120.0%" filterUnits="objectBoundingBox" id="filter-2">
            <feMorphology radius="2.5" operator="dilate" in="SourceAlpha" result="shadowSpreadOuter1"></feMorphology>
            <feOffset dx="0" dy="0" in="shadowSpreadOuter1" result="shadowOffsetOuter1"></feOffset>
            <feGaussianBlur stdDeviation="17.5" in="shadowOffsetOuter1" result="shadowBlurOuter1"></feGaussianBlur>
            <feColorMatrix values="0 0 0 0 0   0 0 0 0 0   0 0 0 0 0  0 0 0 0.5 0" type="matrix" in="shadowBlurOuter1"></feColorMatrix>
        </filter>
        <polygon id="path-3" points="0 0 67.3870039 0 67.3870039 88.9436048 0 88.9436048"></polygon>
    </defs>
    <g id="DE-DHL-Warenpost-International" stroke="none" stroke-width="1" fill="none" fill-rule="evenodd">
        <g transform="translate(40, 40)">
            <g id="Rectangle">
                <use fill="black" fill-opacity="1" filter="url(#filter-2)" xlink:href="#path-1"></use>
                <use fill="#FECC00" fill-rule="evenodd" xlink:href="#path-1"></use>
            </g>
            <g id="Logo" transform="translate(0, 201)" fill-rule="nonzero">
                <polygon id="Path" fill="#FECC00" points="900 0 900 198.62189 0 198.62189 0 0 900 0"></polygon>
                <path d="M290.179689,82.9904181 C286.246785,88.3162255 279.66634,97.5749368 275.661743,102.98268 C273.628718,105.73264 269.956984,110.725584 282.129526,110.725584 C295.008763,110.725584 346.218449,110.725584 346.218449,110.725584 C346.218449,110.725584 356.547443,96.6736464 365.207001,84.9210233 C376.985229,68.9333591 366.226074,35.6675467 324.116348,35.6675467 C286.426019,35.6675467 158.278899,35.6675467 158.278899,35.6675467 L129.52466,74.7354166 C129.52466,74.7354166 278.590937,74.7354166 286.241664,74.7354166 C294.153561,74.7354166 294.04602,77.7465462 290.179689,82.9904181 Z M243.097503,120.363247 C230.924961,120.363247 234.596695,115.360061 236.62972,112.610101 C240.634317,107.202358 247.322302,98.040945 251.255206,92.7151376 C255.126659,87.4712657 255.229078,84.4601361 247.306939,84.4601361 C239.661333,84.4601361 175.633862,84.4601361 175.633862,84.4601361 L117.884699,162.944102 C117.884699,162.944102 221.026128,162.944102 258.716458,162.944102 C305.230216,162.944102 331.126955,131.306757 339.110545,120.368368 C339.110545,120.363247 255.971618,120.363247 243.097503,120.363247 Z M334.711633,162.944102 L417.32822,162.944102 L448.648064,120.358126 L366.041719,120.368368 C366.016114,120.363247 334.711633,162.944102 334.711633,162.944102 Z M547.871953,35.6675467 L516.183399,78.7092883 L479.312425,78.7092883 L510.985616,35.6675467 L428.394633,35.6675467 L373.139381,110.725584 L575.212805,110.725584 L630.452694,35.6675467 L547.871953,35.6675467 Z M454.199194,162.944102 L536.785056,162.944102 L568.120263,120.368368 L485.534402,120.368368 C485.503676,120.363247 454.199194,162.944102 454.199194,162.944102 Z M0,137.160025 L0,146.203655 L115.057924,146.203655 L121.704941,137.160025 L0,137.160025 Z M134.07208,120.363247 L0,120.363247 L0,129.396636 L127.4097,129.396636 L134.07208,120.363247 Z M0,162.944102 L102.731752,162.944102 L109.348044,153.951681 L0,153.951681 L0,162.944102 Z M778.755946,146.198534 L900,146.198534 L900,137.154904 L785.413205,137.154904 L778.755946,146.198534 Z M766.440016,162.944102 L900,162.944102 L900,153.951681 L773.051187,153.951681 L766.440016,162.944102 Z M797.759861,120.363247 L791.117964,129.406878 L900,129.406878 L900,120.363247 L797.759861,120.363247 L797.759861,120.363247 Z M689.584519,110.725584 L744.83465,35.6675467 L657.363384,35.6675467 C657.332658,35.6675467 602.072285,110.725584 602.072285,110.725584 L689.584519,110.725584 Z M594.989986,120.363247 C594.989986,120.363247 588.952364,128.613128 586.018049,132.587 C575.648087,146.59797 584.819742,162.944102 618.669345,162.944102 C657.773061,162.944102 751.307554,162.944102 751.307554,162.944102 L782.642761,120.368368 L594.989986,120.368368 L594.989986,120.363247 Z" id="Shape" fill="#D50029"></path>
            </g>
            <g id="Group-43" transform="translate(91, 403)">
                <polygon id="Fill-1" fill="#808285" points="13.2432346 103.739972 0.0317284204 149.813799 11.292717 149.813799 24.5042232 103.739972"></polygon>
                <polygon id="Fill-2" fill="#808285" points="60.6174073 103.739972 51.4629778 135.68685 51.3225405 135.68685 46.5476733 103.739972 33.3569726 103.739972 20.1454664 149.808598 30.0332906 149.808598 39.5934277 116.478152 39.7286636 116.478152 43.9781914 149.808598 57.2937252 149.808598 70.5104328 103.739972"></polygon>
                <polygon id="Fill-3" fill="#808285" points="75.9297511 103.739972 73.5475188 112.051778 83.9814879 112.051778 73.1574153 149.813799 84.4184039 149.813799 95.2372751 112.051778 105.676446 112.051778 108.063879 103.739972"></polygon>
                <polygon id="Fill-4" fill="#808285" points="113.693333 103.739972 100.481827 149.808598 128.98019 149.808598 131.289603 141.756861 113.641319 141.756861 116.970203 130.142179 132.969649 130.142179 135.279062 122.090442 119.279616 122.090442 122.234 111.791708 139.055264 111.791708 141.364677 103.739972"></polygon>
                <g id="Group-42">
                    <path d="M154.537173,123.408471 L158.037702,123.408471 C162.36525,123.408471 165.423662,120.636136 166.370313,117.338461 C166.921659,115.419151 167.420992,111.528519 161.376988,111.528519 L157.944077,111.528519 L154.537173,123.408471 Z M149.330591,103.742052 L166.906055,103.742052 C174.801751,103.742052 180.56488,107.107345 178.125433,115.622005 C177.574087,117.530912 175.124236,125.124927 165.345641,126.903799 L165.30403,127.039035 C168.69533,127.43434 169.537954,129.28083 169.75121,134.763085 L170.380577,149.810678 L158.573444,149.810678 L158.401798,137.467803 C158.344583,131.194938 156.836183,131.194938 152.71669,131.194938 L147.380073,149.810678 L136.119085,149.810678 L149.330591,103.742052 Z" id="Fill-5" fill="#808285"></path>
                    <polygon id="Fill-7" fill="#808285" points="189.837381 103.739972 203.02288 103.739972 207.797748 135.68685 207.938185 135.68685 217.097816 103.739972 226.98564 103.739972 213.774134 149.808598 200.453398 149.808598 196.209072 116.478152 196.073836 116.478152 186.513699 149.808598 176.625875 149.808598"></polygon>
                    <path d="M251.226153,112.582838 L251.090917,112.582838 L239.902748,131.723918 L250.680008,131.723918 L251.226153,112.582838 Z M250.643598,139.510385 L235.606408,139.510385 L229.35955,149.809118 L218.50947,149.809118 L247.652805,103.740492 L260.011285,103.740492 L262.18026,149.809118 L250.643598,149.809118 L250.643598,139.510385 Z" id="Fill-9" fill="#808285"></path>
                    <polygon id="Fill-11" fill="#808285" points="281.176742 112.054898 270.742773 112.054898 273.125005 103.737891 305.259133 103.737891 302.876901 112.054898 292.43773 112.054898 281.613658 149.811719 270.352669 149.811719"></polygon>
                    <polygon id="Fill-13" fill="#808285" points="310.889627 103.739972 322.150616 103.739972 308.93911 149.808598 297.678121 149.808598"></polygon>
                    <path d="M338.959397,142.812221 C345.481928,142.812221 349.877094,135.618712 352.415368,126.771164 C354.94844,117.928817 354.677968,110.735308 348.160639,110.735308 C341.632906,110.735308 337.305358,117.928817 334.772285,126.771164 C332.234012,135.618712 332.436866,142.812221 338.959397,142.812221 M350.392031,102.948842 C364.191293,102.948842 367.832259,113.242373 363.952029,126.771164 C360.0718,140.305156 350.527267,150.603889 336.728004,150.603889 C322.923541,150.603889 319.355394,140.305156 323.235624,126.771164 C327.110652,113.242373 336.587567,102.948842 350.392031,102.948842" id="Fill-15" fill="#808285"></path>
                    <polygon id="Fill-17" fill="#808285" points="378.038928 103.739972 391.224427 103.739972 395.999295 135.68685 396.139732 135.68685 405.299363 103.739972 415.187187 103.739972 401.975681 149.808598 388.654945 149.808598 384.410619 116.478152 384.275383 116.478152 374.715246 149.808598 364.827422 149.808598"></polygon>
                    <path d="M439.42822,112.582838 L439.292984,112.582838 L428.104815,131.723918 L438.882075,131.723918 L439.42822,112.582838 Z M438.845666,139.510385 L423.808475,139.510385 L417.561617,149.809118 L406.711537,149.809118 L435.854872,103.740492 L448.213352,103.740492 L450.382327,149.809118 L438.845666,149.809118 L438.845666,139.510385 Z" id="Fill-19" fill="#808285"></path>
                    <polygon id="Fill-21" fill="#808285" points="468.535665 103.739972 479.796654 103.739972 468.972581 141.491591 484.83159 141.491591 482.449358 149.808598 455.324159 149.808598"></polygon>
                    <polygon id="Fill-23" fill="#D40511" points="57.0487402 21.4088817 56.7834698 21.4088817 25.4503543 90.4728106 0 90.4728106 6.94384283 1.52920584 27.8846003 1.52920584 20.8991464 64.7311791 21.1644168 64.7311791 50.2869457 1.52920584 75.7373 1.52920584 68.8818806 64.7311791 69.147151 64.7311791 99.200727 1.52920584 118.289793 1.52920584 74.6242046 90.4728106 49.1738503 90.4728106"></polygon>
                    <path d="M150.906609,18.6053377 L150.641339,18.6053377 L129.045207,55.555944 L149.85593,55.555944 L150.906609,18.6053377 Z M149.783111,70.5931348 L120.754207,70.5931348 L108.692206,90.4728106 L87.7514484,90.4728106 L144.004377,1.52920584 L167.863109,1.52920584 L172.055422,90.4728106 L149.788312,90.4728106 L149.783111,70.5931348 Z" id="Fill-25" fill="#D40511"></path>
                    <path d="M216.126198,39.5018834 L222.882791,39.5018834 C231.236208,39.5018834 237.144976,34.149663 238.970661,27.777972 C240.031742,24.0849919 240.993998,16.5689973 229.332503,16.5689973 L222.700743,16.5689973 L216.126198,39.5018834 Z M206.07193,1.53180653 L240.005735,1.53180653 C255.24578,1.53180653 266.371533,8.02833064 261.659082,24.4646927 C260.603202,28.1628742 255.869946,42.8151627 236.988935,46.2532752 L236.916115,46.5081428 C243.45425,47.2727457 245.082283,50.8408927 245.498393,61.4205004 L246.710315,90.47021 L223.912664,90.47021 L223.584977,66.6426864 C223.475748,54.5390742 220.562975,54.5390742 212.604863,54.5390742 L202.30613,90.47021 L180.56436,90.47021 L206.07193,1.53180653 Z" id="Fill-27" fill="#D40511"></path>
                    <polygon id="Fill-29" fill="#D40511" points="283.070044 1.53076625 336.488221 1.53076625 332.030638 17.0776923 299.55842 17.0776923 293.857707 36.9521668 324.743504 36.9521668 320.28072 52.4990928 289.400124 52.4990928 282.971218 74.9222437 317.035058 74.9222437 312.577475 90.4691697 257.567676 90.4691697"></polygon>
                    <polygon id="Fill-31" fill="#D40511" points="351.163916 1.53076625 376.61427 1.53076625 385.841519 63.2035336 386.106789 63.2035336 403.791483 1.53076625 422.875347 1.53076625 397.372979 90.4691697 371.657354 90.4691697 363.46518 26.1228928 363.19991 26.1228928 344.750614 90.4691697 325.661548 90.4691697"></polygon>
                    <path d="M452.772362,42.4333814 C459.534156,42.4333814 465.713396,37.9757984 468.090427,29.6899995 C470.613096,20.8996666 467.466261,17.076652 458.852775,17.076652 L453.152062,17.076652 L445.880533,42.4333814 L452.772362,42.4333814 Z M436.663686,1.52972598 L466.223131,1.52972598 C485.972773,1.52972598 495.30925,10.5801279 489.795787,29.820034 C485.447433,44.9820578 472.969322,57.9751061 452.689139,57.9751061 L442.213559,57.9751061 L432.897887,90.4681294 L411.161318,90.4681294 L436.663686,1.52972598 Z" id="Fill-33" fill="#000000"></path>
                    <path d="M523.623485,76.9632653 C536.216027,76.9632653 544.70468,63.0755797 549.60438,45.9994478 C554.498879,28.9285174 553.973539,15.0356303 541.380997,15.0356303 C528.788456,15.0356303 520.429837,28.9285174 515.535338,45.9994478 C510.640839,63.0755797 511.030943,76.9632653 523.623485,76.9632653 M545.692942,0.00364096628 C572.334412,0.00364096628 579.361477,19.8781155 571.871489,45.9994478 C564.381502,72.1207802 545.958212,92.0004561 519.31154,92.0004561 C492.67007,92.0004561 485.778241,72.1207802 493.268229,45.9994478 C500.758217,19.8781155 519.04627,0.00364096628 545.692942,0.00364096628" id="Fill-35" fill="#000000"></path>
                    <path d="M640.67795,19.6248082 C636.241172,17.0761318 629.531392,15.0371907 623.700644,15.0371907 C616.678781,15.0371907 610.49434,18.0956024 608.595836,24.722161 C603.956204,40.9036555 642.566051,33.3876608 633.505246,64.9860467 C628.678365,81.8073109 611.836296,91.9968151 593.413006,91.9968151 C582.146816,91.9968151 573.200442,89.4533401 569.554274,88.303835 L575.712709,70.9728355 C581.517449,73.3966788 586.339129,76.4550905 594.422074,76.4550905 C601.319105,76.4550905 608.897516,73.1418112 610.978068,65.8754827 C615.908977,48.6745178 577.044262,57.0851499 586.141477,25.3567294 C586.911281,22.6832199 594.474088,0 625.495121,0 C633.978572,0 638.878272,1.40437271 646.352656,3.05841167 L640.67795,19.6248082 Z" id="Fill-37" fill="#000000"></path>
                    <g id="Group-41" transform="translate(651.553, 1.5292)">
                        <mask id="mask-4" fill="white">
                            <use xlink:href="#path-3"></use>
                        </mask>
                        <g id="Clip-40"></g>
                        <polygon id="Fill-39" fill="#000000" mask="url(#mask-4)" points="20.8991464 16.0566613 0.754200158 16.0566613 5.35222043 0 67.3890844 0 62.7858628 16.0566613 42.6409165 16.0566613 21.7417701 88.9436048 0 88.9436048"></polygon>
                    </g>
                </g>
            </g>
        </g>
    </g>
</svg>