<?xml version="1.0" encoding="UTF-8"?>
<svg width="980px" height="680px" viewBox="0 0 980 680" version="1.1" xmlns="http://www.w3.org/2000/svg" xmlns:xlink="http://www.w3.org/1999/xlink">
    <title>DE Deutsche Post Warenpost</title>
    <defs>
        <rect id="path-1" x="0" y="0" width="900" height="600" rx="80"></rect>
        <filter x="-6.7%" y="-10.0%" width="113.3%" height="120.0%" filterUnits="objectBoundingBox" id="filter-2">
            <feMorphology radius="2.5" operator="dilate" in="SourceAlpha" result="shadowSpreadOuter1"></feMorphology>
            <feOffset dx="0" dy="0" in="shadowSpreadOuter1" result="shadowOffsetOuter1"></feOffset>
            <feGaussianBlur stdDeviation="17.5" in="shadowOffsetOuter1" result="shadowBlurOuter1"></feGaussianBlur>
            <feColorMatrix values="0 0 0 0 0   0 0 0 0 0   0 0 0 0 0  0 0 0 0.5 0" type="matrix" in="shadowBlurOuter1"></feColorMatrix>
        </filter>
        <polygon id="path-3" points="0 0 67.3866698 0 67.3866698 88.9431639 0 88.9431639"></polygon>
    </defs>
    <g id="DE-Deutsche-Post-Warenpost" stroke="none" stroke-width="1" fill="none" fill-rule="evenodd">
        <g transform="translate(40, 40)">
            <g id="Rectangle">
                <use fill="black" fill-opacity="1" filter="url(#filter-2)" xlink:href="#path-1"></use>
                <use fill="#FECC00" fill-rule="evenodd" xlink:href="#path-1"></use>
            </g>
            <g id="Logo" transform="translate(91, 95)">
                <g id="g2017" transform="translate(169.1923, -0)" fill="#000000" fill-rule="nonzero">
                    <polygon id="_225737648" points="124.381912 248.545584 174.746484 248.545584 123.88406 300 73.5375925 300"></polygon>
                    <polygon id="_229043400" points="56.4567252 248.545584 106.821296 248.545584 55.9588726 300 5.59430151 300"></polygon>
                    <polygon id="_226455448" points="236.787959 248.545584 186.441492 248.545584 237.285812 300 287.650383 300"></polygon>
                    <polygon id="_227904456" points="304.73125 248.545584 254.366679 248.545584 305.210999 300 355.57557 300"></polygon>
                    <path d="M273.846279,105.729813 C282.568289,81.9375104 288.644651,45.72039 289.909545,20.3799707 L379.25506,42.5952257 C372.102114,147.466492 293.436972,239.322086 176.757634,239.284089 C44.756113,239.224522 -6.25747184,124.47928 0.605646719,37.5153014 L39.371772,25.1886821 C33.0669039,74.6705751 48.3818449,110.34859 58.9463579,126.724327 C46.3703203,56.7103377 99.2283149,0.0380552007 165.371817,2.36130072e-05 C224.858242,-0.036971634 274.072949,43.4007398 273.845749,105.730342 L273.846279,105.729813 Z M94.0482136,107.936039 L94.0482136,107.936039 C94.0482136,147.429508 126.068459,179.449753 165.561927,179.449753 C205.039359,179.449753 237.053175,147.429508 237.053175,107.936039 C237.053175,68.4586782 205.039253,36.4432372 165.561927,36.4432372 C126.068459,36.4432372 94.0482136,68.4586782 94.0482136,107.936039 Z" id="path2012"></path>
                </g>
                <g id="Group-19" transform="translate(0, 317.7155)">
                    <polygon id="Fill-1" fill="#D40511" points="99.2002352 1.53075866 69.1468082 64.7324186 68.8815391 64.7324186 75.7369245 1.53075866 50.2866964 1.53075866 21.1643119 64.7324186 20.8990428 64.7324186 27.8844621 1.53075866 6.94380841 1.53075866 0 90.4739226 25.4502281 90.4739226 56.7831883 21.4051346 57.0484574 21.4051346 49.1736065 90.4739226 74.6238346 90.4739226 118.289207 1.53075866"></polygon>
                    <path d="M144.004184,1.53075866 L87.7515336,90.4739226 L108.692187,90.4739226 L120.754129,70.5943452 L149.782889,70.5943452 L149.78809,90.4739226 L172.055089,90.4739226 L167.862797,1.53075866 L144.004184,1.53075866 Z M150.641112,18.6016045 L150.906381,18.6016045 L149.855708,55.557229 L129.045088,55.557229 L150.641112,18.6016045 Z" id="Fill-2" fill="#D40511"></path>
                    <g id="Group-18" transform="translate(180.564, 0)">
                        <path d="M35.5616615,39.5016876 L42.3182211,39.5016876 C50.6715966,39.5016876 56.5803355,34.1494937 58.406011,27.7778343 C59.4670873,24.0848725 60.4293379,16.5689151 48.7679009,16.5689151 L42.1361737,16.5689151 L35.5616615,39.5016876 Z M25.507443,1.53179893 L59.4410805,1.53179893 C74.6810495,1.53179893 85.8067471,8.02829085 81.0943198,24.4645714 C80.0384448,28.1627346 75.3052121,42.8149505 56.4242948,46.2530459 L56.3514759,46.5079123 C62.8895786,47.2725114 64.5176026,50.8406407 64.933711,61.420196 L66.1456266,90.4697615 L43.3480894,90.4697615 L43.020404,66.642356 C42.9111756,54.5388038 39.998417,54.5388038 32.0403444,54.5388038 L21.7416623,90.4697615 L0,90.4697615 L25.507443,1.53179893 Z" id="Fill-3" fill="#D40511"></path>
                        <polygon id="Fill-5" fill="#D40511" points="102.505176 1.53075866 155.923088 1.53075866 151.465527 17.0776076 118.99347 17.0776076 113.292785 36.9519836 144.178429 36.9519836 139.715667 52.4988325 108.835224 52.4988325 102.40635 74.9218723 136.470022 74.9218723 132.012461 90.4687212 77.0029342 90.4687212"></polygon>
                        <polygon id="Fill-7" fill="#D40511" points="170.59871 1.53075866 196.048938 1.53075866 205.276141 63.2032203 205.54141 63.2032203 223.226016 1.53075866 242.309786 1.53075866 216.807544 90.4687212 191.092047 90.4687212 182.899913 26.1227633 182.634644 26.1227633 164.18544 90.4687212 145.096468 90.4687212"></polygon>
                        <path d="M272.206652,42.4331711 C278.968413,42.4331711 285.147622,37.9756102 287.524641,29.6898523 C290.047298,20.899563 286.900479,17.0765673 278.287036,17.0765673 L272.586351,17.0765673 L265.314857,42.4331711 L272.206652,42.4331711 Z M256.098057,1.52971839 L285.657355,1.52971839 C305.406899,1.52971839 314.74333,10.5800754 309.229894,29.8198861 C304.881562,44.9818348 292.403512,57.9748187 272.12343,57.9748187 L261.647902,57.9748187 L252.332276,90.4676809 L230.595815,90.4676809 L256.098057,1.52971839 Z" id="Fill-9" fill="#000000"></path>
                        <path d="M343.057424,76.9628838 C355.649904,76.9628838 364.138514,63.075267 369.03819,45.9992198 C373.932665,28.928374 373.407328,15.0355558 360.814849,15.0355558 C348.222369,15.0355558 339.863792,28.928374 334.969318,45.9992198 C330.074843,63.075267 330.464945,76.9628838 343.057424,76.9628838 M365.126772,0.00364094823 C391.76811,0.00364094823 398.79514,19.8780169 391.305189,45.9992198 C383.815239,72.1204227 365.392041,92 338.745501,92 C312.104163,92 305.212368,72.1204227 312.702319,45.9992198 C320.192269,19.8780169 338.480232,0.00364094823 365.126772,0.00364094823" id="Fill-11" fill="#000000"></path>
                        <path d="M460.111309,19.624711 C455.674554,17.0760472 448.964806,15.0371162 443.134088,15.0371162 C436.112259,15.0371162 429.927848,18.0955127 428.029354,24.7220385 C423.389745,40.9034527 461.999401,33.3874953 452.938641,64.9857245 C448.111784,81.8069054 431.269798,91.9963591 412.8466,91.9963591 C401.580466,91.9963591 392.634136,89.4528966 388.987986,88.3033973 L395.14639,70.9724837 C400.951102,73.396315 405.772757,76.4547115 413.855662,76.4547115 C420.752659,76.4547115 428.331032,73.1414486 430.411574,65.8751562 C435.342458,48.6742765 396.477937,57.0848669 405.575106,25.3566037 C406.344906,22.6831075 413.907676,0 444.928555,0 C453.411964,0 458.31164,1.40436575 465.785987,3.05839651 L460.111309,19.624711 Z" id="Fill-13" fill="#000000"></path>
                        <g id="Group-17" transform="translate(470.9863, 1.5292)">
                            <mask id="mask-4" fill="white">
                                <use xlink:href="#path-3"></use>
                            </mask>
                            <g id="Clip-16"></g>
                            <polygon id="Fill-15" fill="#000000" mask="url(#mask-4)" points="20.8990428 16.0565817 0.754196419 16.0565817 5.3521939 0 67.3887504 0 62.7855515 16.0565817 42.6407051 16.0565817 21.7416623 88.9431639 0 88.9431639"></polygon>
                        </g>
                    </g>
                </g>
            </g>
        </g>
    </g>
</svg>