<?xml version="1.0" encoding="UTF-8"?>
<svg width="980px" height="680px" viewBox="0 0 980 680" version="1.1" xmlns="http://www.w3.org/2000/svg" xmlns:xlink="http://www.w3.org/1999/xlink">
    <title>DE DHL GoGreen</title>
    <defs>
        <rect id="path-1" x="-5.68434189e-14" y="0" width="900" height="600" rx="80"></rect>
        <filter x="-6.7%" y="-10.0%" width="113.3%" height="120.0%" filterUnits="objectBoundingBox" id="filter-2">
            <feMorphology radius="2.5" operator="dilate" in="SourceAlpha" result="shadowSpreadOuter1"></feMorphology>
            <feOffset dx="0" dy="0" in="shadowSpreadOuter1" result="shadowOffsetOuter1"></feOffset>
            <feGaussianBlur stdDeviation="17.5" in="shadowOffsetOuter1" result="shadowBlurOuter1"></feGaussianBlur>
            <feColorMatrix values="0 0 0 0 0   0 0 0 0 0   0 0 0 0 0  0 0 0 0.5 0" type="matrix" in="shadowBlurOuter1"></feColorMatrix>
        </filter>
    </defs>
    <g id="DE-DHL-GoGreen" stroke="none" stroke-width="1" fill="none" fill-rule="evenodd">
        <g transform="translate(40, 40)">
            <g id="Rectangle">
                <use fill="black" fill-opacity="1" filter="url(#filter-2)" xlink:href="#path-1"></use>
                <use fill="#FFFFFF" fill-rule="evenodd" xlink:href="#path-1"></use>
            </g>
            <path d="M820,0 C864.18278,0 900,35.81722 900,80 L900,520 C900,564.18278 864.18278,600 820,600 L80,600 C35.81722,600 -5.68434189e-14,564.18278 -5.68434189e-14,520 L-5.68434189e-14,80 C-5.68434189e-14,35.81722 35.81722,0 80,0 L820,0 Z M820,20 L80,20 C46.862915,20 20,46.862915 20,80 L20,520 C20,553.137085 46.862915,580 80,580 L820,580 C853.137085,580 880,553.137085 880,520 L880,80 C880,46.862915 853.137085,20 820,20 Z" id="Rectangle" fill="#007C39" fill-rule="nonzero"></path>
            <g id="DPDHL_Group_GoGreen_rgb" transform="translate(84, 202)" fill-rule="nonzero">
                <polygon id="Path" fill="#FFCC00" points="796.047649 107.459088 0.0476492658 107.459088 0.0476492658 54.9613817 0.0476492658 2.45908761 796.047649 2.45908761"></polygon>
                <path d="M41.4448942,109.928271 C30.3735477,110.554114 19.4939155,106.842087 11.1139758,99.5796488 C3.54242695,92.216056 -0.489989,81.9476175 0.0476492658,71.3995468 C0.0476492658,68.9585264 0.206986001,66.1454141 0.52565947,62.9602101 C0.844332939,59.775006 1.32188396,56.537608 1.95831253,53.2480162 C5.141986,35.9478121 11.3256595,22.7599039 20.5093329,13.6842917 C29.8590757,4.53839814 42.5452691,-0.38136792 55.6166799,0.0694957707 C69.2075553,-0.50752748 82.2653665,5.40152107 90.8025472,15.9921488 L75.8359146,29.5252101 C73.453561,26.5360497 70.4346416,24.1157376 66.9989248,22.4404652 C63.5080869,20.9350741 59.7331509,20.2018594 55.9325982,20.2910264 C48.3073005,19.9259253 40.918631,22.9917632 35.791884,28.6481692 C29.9484605,36.3755777 26.2915351,45.5327207 25.204486,55.1595978 C24.6718329,57.9199039 24.2738738,60.6528121 24.0106084,63.3583223 C23.7473431,66.0638325 23.6147921,68.3727611 23.6129554,70.285108 C23.2581628,75.542096 25.0048701,80.7249082 28.4692819,84.6947509 C32.1594993,88.2140043 37.1520432,90.031775 42.2411187,89.7090366 C48.228281,89.9298713 54.0618319,87.7855473 58.4806084,83.7396488 C63.0417304,79.1143119 65.903924,73.081955 66.6017309,66.6235774 L66.7601493,65.6680162 L45.7437717,65.6680162 L49.0866289,46.5632203 L93.0305064,46.5632203 L90.4824962,61.3691386 C84.856884,93.7452611 68.5110166,109.931639 41.4448942,109.928271 Z M147.164588,109.928271 C135.950951,110.55842 124.914718,106.918503 116.276221,99.7408223 C108.60109,92.6288045 104.46312,82.4872637 104.972037,72.0359754 C105.08052,65.7308206 105.71951,59.4459837 106.882241,53.2480162 C109.853466,36.0531182 115.87719,22.8916896 124.953415,13.7637305 C134.20599,4.55980137 146.859045,-0.398246464 159.901425,0.0694957707 C171.115045,-0.558063964 182.150527,3.08264291 190.789333,10.2596999 C198.462973,17.3727488 202.600648,27.513564 202.093517,37.9645468 C201.985599,44.269583 201.346604,50.5543149 200.183313,56.7520468 C197.210864,73.947557 191.187292,87.1091386 182.112598,96.2367917 C172.85928,105.439288 160.206476,110.39624 147.164588,109.928271 Z M147.801017,89.7090366 C155.109092,90.0013245 162.138579,86.8834792 166.827292,81.270159 C172.422556,73.481634 175.905847,64.3770487 176.938057,54.8427611 C177.467649,52.0849039 177.865608,49.2454652 178.131935,46.3244448 C178.398262,43.4034243 178.531119,40.9890366 178.530506,39.0812815 C178.898996,33.9130532 177.078418,28.8278984 173.513466,25.0679141 C169.572643,21.6705871 164.455787,19.9557899 159.263619,20.2924039 C151.955443,20.0007913 144.926039,23.1186936 140.236884,28.7317407 C134.639682,36.5199566 131.156637,45.6259303 130.127496,55.1614345 C129.58664,57.9782348 129.188174,60.8205177 128.933619,63.677455 C128.667904,66.5981692 128.535353,69.0133223 128.535966,70.9229141 C128.166717,76.0901366 129.986511,81.1745951 133.55071,84.9339856 C137.490958,88.3313258 142.607463,90.0460062 147.79918,89.7090366 L147.801017,89.7090366 Z" id="Shape" fill="#4B4B4B"></path>
                <path d="M255.587955,109.928271 C244.516616,110.554065 233.637001,106.842044 225.257037,99.5796488 C217.685692,92.2159205 213.653314,81.9475781 214.19071,71.3995468 C214.19071,68.9585264 214.350047,66.1454141 214.668721,62.9602101 C214.987394,59.775006 215.464945,56.537608 216.101374,53.2480162 C219.285047,35.9478121 225.468721,22.7599039 234.652394,13.6842917 C244.001803,4.53875028 256.687425,-0.380987466 269.758364,0.0694957707 C283.34921,-0.507379026 296.406958,5.40164065 304.944231,15.9921488 L289.978517,29.5252101 C287.596328,26.5360704 284.577562,24.1157557 281.141986,22.4404652 C277.651148,20.9350741 273.876212,20.2018594 270.075659,20.2910264 C262.450215,19.9258513 255.061375,22.9916901 249.934486,28.6481692 C244.091063,36.3755777 240.434137,45.5327207 239.347088,55.1595978 C238.814435,57.9199039 238.416476,60.6528121 238.15321,63.3583223 C237.889945,66.0638325 237.757547,68.372608 237.756017,70.2846488 C237.401098,75.5415732 239.147638,80.7243775 242.611884,84.6942917 C246.302162,88.2134478 251.294662,90.0312025 256.383721,89.7085774 C262.370899,89.9295117 268.204486,87.7851743 272.62321,83.7391896 C277.184332,79.1138527 280.046526,73.0814958 280.744333,66.6231182 L280.902751,65.667557 L259.885915,65.667557 L263.229231,46.5627611 L307.173108,46.5627611 L304.625098,61.3686794 C298.99918,93.745108 282.653466,109.931639 255.587955,109.928271 Z M315.930659,107.540975 L334.399945,2.45908761 L371.180557,2.45908761 C381.015909,1.88946652 390.761563,4.60561152 398.884486,10.1802611 C405.35472,14.8929265 409.102653,22.4788732 408.914435,30.4812305 C408.914435,31.7540876 408.834843,33.2661794 408.675659,35.017506 C408.516476,36.7688325 408.277547,38.5469448 407.958874,40.3518427 C407.046757,46.7318421 404.496124,52.7663782 400.555915,57.8664856 C396.51922,62.5654822 391.167985,65.9481468 385.191629,67.5786794 L400.953568,107.540975 L375.320098,107.540975 L362.103874,70.285108 L345.704588,70.285108 L339.176833,107.540975 L315.930659,107.540975 Z M368.312955,21.4054652 L354.302343,21.4054652 L349.047445,51.3387305 L363.377649,51.3387305 C368.718523,51.6892275 374.054781,50.5889108 378.821374,48.1542917 C382.415877,45.7137109 384.747282,41.8086505 385.190251,37.4865366 C385.376542,36.8112766 385.483336,36.1165713 385.508466,35.4165366 L385.508466,34.4605162 C385.508466,25.7580672 379.776629,21.4063835 368.312955,21.4054652 Z M417.829027,107.540975 L436.298772,2.45908761 L505.556986,2.45908761 L502.054333,22.5199039 L456.360506,22.5199039 L452.379843,44.652557 L493.456578,44.652557 L490.113721,64.0760264 L449.035608,64.0760264 L444.896527,87.4819958 L492.183721,87.4819958 L488.681068,107.542353 L417.829027,107.540975 Z M508.898925,107.540975 L527.36867,2.45908761 L596.626884,2.45908761 L593.124231,22.5199039 L547.430404,22.5199039 L543.449741,44.652557 L584.528772,44.652557 L581.185915,64.0760264 L540.107802,64.0760264 L535.968721,87.4819958 L583.255915,87.4819958 L579.753262,107.542353 L508.898925,107.540975 Z M599.174435,107.540975 L617.64418,2.45908761 L647.57469,2.45908761 L668.750404,76.8128631 L671.297496,76.8128631 L684.355302,2.45908761 L706.487955,2.45908761 L688.019588,107.540975 L658.086323,107.540975 L636.907853,33.187659 L634.359843,33.187659 L621.304792,107.540975 L599.174435,107.540975 Z" id="Shape" fill="#007C39"></path>
            </g>
        </g>
    </g>
</svg>