<?xml version="1.0" encoding="UTF-8"?>
<svg width="980px" height="680px" viewBox="0 0 980 680" version="1.1" xmlns="http://www.w3.org/2000/svg" xmlns:xlink="http://www.w3.org/1999/xlink">
    <title>DE DHL Express</title>
    <defs>
        <rect id="path-1" x="0" y="0" width="900" height="600" rx="80"></rect>
        <filter x="-6.7%" y="-10.0%" width="113.3%" height="120.0%" filterUnits="objectBoundingBox" id="filter-2">
            <feMorphology radius="2.5" operator="dilate" in="SourceAlpha" result="shadowSpreadOuter1"></feMorphology>
            <feOffset dx="0" dy="0" in="shadowSpreadOuter1" result="shadowOffsetOuter1"></feOffset>
            <feGaussianBlur stdDeviation="17.5" in="shadowOffsetOuter1" result="shadowBlurOuter1"></feGaussianBlur>
            <feColorMatrix values="0 0 0 0 0   0 0 0 0 0   0 0 0 0 0  0 0 0 0.5 0" type="matrix" in="shadowBlurOuter1"></feColorMatrix>
        </filter>
    </defs>
    <g id="DE-DHL-Express" stroke="none" stroke-width="1" fill="none" fill-rule="evenodd">
        <g transform="translate(40, 40)">
            <g id="Rectangle">
                <use fill="black" fill-opacity="1" filter="url(#filter-2)" xlink:href="#path-1"></use>
                <use fill="#FECC00" fill-rule="evenodd" xlink:href="#path-1"></use>
            </g>
            <rect id="Rectangle" fill="#FFFFFF" x="0" y="260" width="900" height="340" rx="80"></rect>
            <g id="Logo" transform="translate(0, 161)">
                <polygon id="Path" fill="#FECC00" fill-rule="nonzero" points="899.996825 0 899.996825 198.613759 0 198.613759 0 0"></polygon>
                <path d="M158.273787,35.6663709 L129.519393,74.7315801 C129.519393,74.7315801 278.585678,74.7315801 286.232668,74.7315801 C294.154294,74.7315801 294.049519,77.7414809 290.177606,82.9865821 C286.245368,88.3110584 279.665179,97.570948 275.659915,102.979562 C273.627915,105.72435 269.952851,110.724976 282.130567,110.724976 C295.005195,110.724976 346.216369,110.724976 346.216369,110.724976 C346.216369,110.724976 356.546234,96.6676603 365.202874,84.9169825 C376.983714,68.9324413 366.225224,35.6679584 324.113602,35.6679584 C286.42158,35.6663709 158.273787,35.6663709 158.273787,35.6663709 L158.273787,35.6663709 Z" id="Path" fill="#D50029" fill-rule="nonzero"></path>
                <path d="M117.884603,162.936276 L175.639454,84.4629574 C175.639454,84.4629574 239.664932,84.4629574 247.308746,84.4629574 C255.230373,84.4629574 255.127185,87.4728582 251.255272,92.7179594 C247.323033,98.0424356 240.634894,107.2039 236.629631,112.612514 C234.596043,115.357302 230.922567,120.365866 243.098695,120.365866 C255.97491,120.365866 339.113893,120.365866 339.113893,120.365866 C331.128766,131.305331 305.22711,162.936276 258.718111,162.936276 C221.02609,162.936276 117.884603,162.936276 117.884603,162.936276 L117.884603,162.936276 Z" id="Path" fill="#D50029" fill-rule="nonzero"></path>
                <path d="M448.648243,120.354753 L417.328449,162.934688 L334.711754,162.934688 C334.711754,162.934688 366.014086,120.364278 366.041074,120.364278 L448.648243,120.354753 L448.648243,120.354753 Z" id="Path" fill="#D50029" fill-rule="nonzero"></path>
                <polygon id="Path" fill="#D50029" fill-rule="nonzero" points="575.213298 110.724976 373.138788 110.724976 428.398089 35.6663709 510.990971 35.6663709 479.317163 78.7050936 516.183684 78.7050936 547.870192 35.6663709 630.453549 35.6663709"></polygon>
                <path d="M568.120347,120.365866 L536.786264,162.936276 L454.199732,162.936276 C454.199732,162.936276 485.502065,120.365866 485.529052,120.365866 L568.120347,120.365866 L568.120347,120.365866 Z" id="Path" fill="#D50029" fill-rule="nonzero"></path>
                <polygon id="Path" fill="#D50029" fill-rule="nonzero" points="0 137.152095 121.710479 137.152095 115.062027 146.196085 0 146.196085"></polygon>
                <polygon id="Path" fill="#D50029" fill-rule="nonzero" points="0 120.365866 134.075519 120.365866 127.414368 129.397156 0 129.397156"></polygon>
                <polygon id="Path" fill="#D50029" fill-rule="nonzero" points="0 153.947849 109.351788 153.947849 102.735087 162.936276 0 162.936276"></polygon>
                <polygon id="Path" fill="#D50029" fill-rule="nonzero" points="900 146.196085 778.759421 146.196085 785.411048 137.153682 900 137.153682"></polygon>
                <polygon id="Path" fill="#D50029" fill-rule="nonzero" points="900 162.936276 766.432481 162.948976 773.049183 153.947849 900 153.947849"></polygon>
                <polygon id="Path" fill="#D50029" fill-rule="nonzero" points="797.760213 120.365866 900 120.365866 900 129.401918 791.114937 129.409856"></polygon>
                <path d="M744.836126,35.6663709 L689.584763,110.723389 L602.069042,110.723389 C602.069042,110.723389 657.333105,35.6663709 657.360093,35.6663709 L744.836126,35.6663709 L744.836126,35.6663709 Z" id="Path" fill="#D50029" fill-rule="nonzero"></path>
                <path d="M594.987203,120.365866 C594.987203,120.365866 588.949939,128.616105 586.017826,132.581681 C575.643511,146.602485 584.814501,162.936276 618.669534,162.936276 C657.766493,162.936276 751.308365,162.936276 751.308365,162.936276 L782.639272,120.365866 L594.987203,120.365866 L594.987203,120.365866 Z" id="Path" fill="#D50029" fill-rule="nonzero"></path>
                <polygon id="Path" fill="#FFCC00" fill-rule="nonzero" points="0 230.903517 900 230.903517 900 235.402493 0 235.402493"></polygon>
                <polygon id="Path" fill="#FECC00" fill-rule="nonzero" points="0 251.898209 900 251.898209 900 256.397186 0 256.397186"></polygon>
                <polygon id="Path" fill="#FECC00" fill-rule="nonzero" points="0 272.888139 900 272.888139 900 277.387115 0 277.387115"></polygon>
                <polygon id="Path" fill="#D50029" fill-rule="nonzero" points="302.214034 277.387115 329.299965 277.387115 333.622729 271.527652 313.466237 271.527652 324.769239 256.211448 343.125506 256.211448 347.449857 250.350397 329.09359 250.350397 339.117068 236.767743 359.275147 236.767743 363.599498 230.906692 336.515154 230.906692"></polygon>
                <polygon id="Path" fill="#D50029" fill-rule="nonzero" points="335.454704 277.387115 343.766856 277.387115 372.098975 257.676711 371.821163 277.387115 380.54924 277.387115 380.614327 253.082485 413.25651 230.906692 405.360283 230.906692 379.376077 248.753371 379.66024 230.906692 371.348088 230.906692 371.095675 253.215835"></polygon>
                <path d="M423.74195,236.767743 L429.629989,236.767743 C433.925765,236.767743 438.724779,238.898169 434.400428,244.757633 C429.879226,250.883797 422.952962,252.949135 418.657186,252.949135 L411.799185,252.949135 L423.74195,236.767743 L423.74195,236.767743 Z M386.838916,277.387115 L393.76518,277.387115 L407.474834,258.808599 L414.262985,258.808599 C422.991062,258.808599 434.07499,255.146235 441.691817,244.824308 C449.505494,234.23568 443.719055,230.905105 433.81464,230.905105 L421.138449,230.905105 L386.838916,277.387115 L386.838916,277.387115 Z" id="Shape" fill="#D50029"></path>
                <path d="M426.728038,277.387115 L433.65589,277.387115 L448.889543,256.743261 L453.045619,256.743261 C456.71592,256.743261 459.003508,256.743261 457.809708,261.270812 L453.329782,277.387115 L461.227596,277.387115 L465.744035,258.873686 C466.334585,256.011423 466.03296,255.012885 464.474035,254.212785 L464.57246,254.079435 C470.873249,253.145985 478.183688,249.151834 482.361989,243.490807 C490.567778,232.371955 482.436601,230.905105 472.876674,230.905105 L461.030746,230.905105 L426.728038,277.387115 L426.728038,277.387115 Z M463.632659,236.767743 L470.281111,236.767743 C476.654925,236.767743 478.013825,239.431569 474.9182,243.625745 C471.625724,248.088209 465.68371,250.883797 459.101933,250.883797 L453.213895,250.883797 L463.632659,236.767743 L463.632659,236.767743 Z" id="Shape" fill="#D50029"></path>
                <polygon id="Path" fill="#D50029" fill-rule="nonzero" points="468.399923 277.387115 495.484267 277.387115 499.808618 271.527652 479.652126 271.527652 490.953541 256.211448 509.309808 256.211448 513.634159 250.350397 495.277892 250.350397 505.302957 236.767743 525.459449 236.767743 529.785388 230.906692 502.701044 230.906692"></polygon>
                <path d="M563.148295,231.77188 C560.659095,230.639992 557.241207,230.106592 554.055093,230.106592 C545.327016,230.106592 535.295601,234.503968 529.201187,242.760557 C518.537947,257.209986 541.432878,254.347723 533.765251,264.734738 C529.736175,270.194151 522.620998,272.327752 518.674472,272.327752 C515.140697,272.327752 511.967283,270.994251 510.300408,270.060801 L505.039432,276.255228 C507.487357,277.253765 510.125783,278.187216 513.519859,278.187216 C523.216311,278.187216 534.082751,274.254977 541.404303,264.3331 C552.707306,249.020071 530.401338,251.080647 536.987877,242.160482 C540.575628,237.299556 546.130291,235.966056 550.008555,235.966056 C553.612181,235.966056 555.107606,236.567718 557.657132,237.898044 L563.148295,231.77188 L563.148295,231.77188 Z" id="Path" fill="#D50029" fill-rule="nonzero"></path>
                <path d="M597.785966,231.77188 C595.295178,230.639992 591.878877,230.106592 588.691176,230.106592 C579.963099,230.106592 569.931685,234.503968 563.838858,242.760557 C553.174031,257.209986 576.068961,254.347723 568.402922,264.734738 C564.373846,270.194151 557.258669,272.327752 553.310556,272.327752 C549.77678,272.327752 546.603367,270.994251 544.938079,270.060801 L539.675515,276.255228 C542.125028,277.253765 544.761866,278.187216 548.155942,278.187216 C557.853982,278.187216 568.718834,274.254977 576.040386,264.3331 C587.343389,249.020071 565.039008,251.080647 571.62396,242.160482 C575.211711,237.299556 580.766375,235.966056 584.644638,235.966056 C588.248264,235.966056 589.745277,236.567718 592.293215,237.898044 L597.785966,231.77188 L597.785966,231.77188 Z" id="Path" fill="#D50029" fill-rule="nonzero"></path>
            </g>
        </g>
    </g>
</svg>