<?xml version="1.0" encoding="UTF-8"?>
<svg width="980px" height="680px" viewBox="0 0 980 680" version="1.1" xmlns="http://www.w3.org/2000/svg" xmlns:xlink="http://www.w3.org/1999/xlink">
    <title>DE Deutsche Post Warenpost International alt</title>
    <defs>
        <rect id="path-1" x="0" y="0" width="900" height="600" rx="80"></rect>
        <filter x="-6.7%" y="-10.0%" width="113.3%" height="120.0%" filterUnits="objectBoundingBox" id="filter-2">
            <feMorphology radius="2.5" operator="dilate" in="SourceAlpha" result="shadowSpreadOuter1"></feMorphology>
            <feOffset dx="0" dy="0" in="shadowSpreadOuter1" result="shadowOffsetOuter1"></feOffset>
            <feGaussianBlur stdDeviation="17.5" in="shadowOffsetOuter1" result="shadowBlurOuter1"></feGaussianBlur>
            <feColorMatrix values="0 0 0 0 0   0 0 0 0 0   0 0 0 0 0  0 0 0 0.5 0" type="matrix" in="shadowBlurOuter1"></feColorMatrix>
        </filter>
        <polygon id="path-3" points="0 0 74.9848431 0 74.9848431 98.9719362 0 98.9719362"></polygon>
    </defs>
    <g id="DE-Deutsche-Post-Warenpost-International-alt" stroke="none" stroke-width="1" fill="none" fill-rule="evenodd">
        <g transform="translate(40, 40)">
            <g id="Rectangle">
                <use fill="black" fill-opacity="1" filter="url(#filter-2)" xlink:href="#path-1"></use>
                <use fill="#FECC00" fill-rule="evenodd" xlink:href="#path-1"></use>
            </g>
            <g id="Group-43" transform="translate(50, 216)">
                <polygon id="Fill-1" fill="#808285" points="14.7364004 115.436583 0.0353057784 166.705204 12.5659632 166.705204 27.2670578 115.436583"></polygon>
                <polygon id="Fill-2" fill="#808285" points="67.4519791 115.436583 57.2653938 150.985451 57.1091223 150.985451 51.7958921 115.436583 37.1179488 115.436583 22.4168542 166.699416 33.4195238 166.699416 44.05756 129.610985 44.2080436 129.610985 48.9367028 166.699416 63.7535541 166.699416 78.4604365 115.436583"></polygon>
                <polygon id="Fill-3" fill="#808285" points="84.4907793 115.436583 81.839952 124.68554 93.450344 124.68554 81.4058645 166.705204 93.9365219 166.705204 105.975214 124.68554 117.591393 124.68554 120.248009 115.436583"></polygon>
                <polygon id="Fill-4" fill="#808285" points="126.51218 115.436583 111.811085 166.699416 143.52262 166.699416 146.092417 157.739851 126.454301 157.739851 130.158514 144.815621 147.961887 144.815621 150.531685 135.856057 132.728312 135.856057 136.015801 124.396148 154.733651 124.396148 157.303449 115.436583"></polygon>
                <g id="Group-42">
                    <path d="M171.961135,137.322693 L175.856346,137.322693 C180.671823,137.322693 184.075068,134.237779 185.128454,130.568293 C185.741964,128.432583 186.297596,124.103284 179.572134,124.103284 L175.752165,124.103284 L171.961135,137.322693 Z M166.167514,115.438899 L185.7246,115.438899 C194.51053,115.438899 200.923449,119.183626 198.208955,128.658308 C197.595445,130.782443 194.869376,139.232678 183.988251,141.212117 L183.941948,141.3626 C187.715615,141.802476 188.653244,143.857156 188.890545,149.957532 L189.590873,166.701731 L176.452493,166.701731 L176.261494,152.967205 C176.197828,145.987079 174.519357,145.987079 169.935393,145.987079 L163.997077,166.701731 L151.46642,166.701731 L166.167514,115.438899 Z" id="Fill-5" fill="#808285"></path>
                    <polygon id="Fill-7" fill="#808285" points="211.241418 115.436583 225.913573 115.436583 231.226803 150.985451 231.383075 150.985451 241.575448 115.436583 252.578118 115.436583 237.877023 166.699416 223.054384 166.699416 218.331513 129.610985 218.181029 129.610985 207.542993 166.699416 196.540323 166.699416"></polygon>
                    <path d="M279.551732,125.276478 L279.401249,125.276478 L266.951621,146.575701 L278.94401,146.575701 L279.551732,125.276478 Z M278.903495,155.240087 L262.170871,155.240087 L255.219684,166.699995 L243.146266,166.699995 L275.575491,115.437162 L289.327382,115.437162 L291.740908,166.699995 L278.903495,166.699995 L278.903495,155.240087 Z" id="Fill-9" fill="#808285"></path>
                    <polygon id="Fill-11" fill="#808285" points="312.87923 124.689013 301.268838 124.689013 303.919665 115.434268 339.676894 115.434268 337.026067 124.689013 325.409887 124.689013 313.365408 166.702889 300.83475 166.702889"></polygon>
                    <polygon id="Fill-13" fill="#808285" points="345.942223 115.436583 358.47288 115.436583 343.771786 166.699416 331.241128 166.699416"></polygon>
                    <path d="M377.17684,158.914203 C384.434782,158.914203 389.3255,150.90963 392.149963,141.064527 C394.968637,131.225212 394.66767,123.220639 387.415516,123.220639 C380.151786,123.220639 375.336309,131.225212 372.517635,141.064527 C369.693173,150.90963 369.918898,158.914203 377.17684,158.914203 M389.898496,114.556254 C405.253616,114.556254 409.305098,126.010375 404.987375,141.064527 C400.669652,156.124467 390.04898,167.584376 374.69386,167.584376 C359.332952,167.584376 355.362499,156.124467 359.680222,141.064527 C363.992157,126.010375 374.537588,114.556254 389.898496,114.556254" id="Fill-15" fill="#808285"></path>
                    <polygon id="Fill-17" fill="#808285" points="420.662562 115.436583 435.334718 115.436583 440.647948 150.985451 440.804219 150.985451 450.996592 115.436583 461.999262 115.436583 447.298167 166.699416 432.475528 166.699416 427.752657 129.610985 427.602173 129.610985 416.964137 166.699416 405.961468 166.699416"></polygon>
                    <path d="M488.973456,125.276478 L488.822972,125.276478 L476.373344,146.575701 L488.365733,146.575701 L488.973456,125.276478 Z M488.325218,155.240087 L471.592594,155.240087 L464.641408,166.699995 L452.567989,166.699995 L484.997215,115.437162 L498.749105,115.437162 L501.162631,166.699995 L488.325218,166.699995 L488.325218,155.240087 Z" id="Fill-19" fill="#808285"></path>
                    <polygon id="Fill-21" fill="#808285" points="521.362745 115.436583 533.893403 115.436583 521.848923 157.444672 539.496024 157.444672 536.845197 166.699416 506.661651 166.699416"></polygon>
                    <polygon id="Fill-23" fill="#D40511" points="63.4809472 23.8227187 63.1857677 23.8227187 28.3198646 100.673559 0 100.673559 7.72675643 1.70162276 31.0285702 1.70162276 23.2555111 72.0295758 23.5506906 72.0295758 55.9567649 1.70162276 84.2766295 1.70162276 76.6482662 72.0295758 76.9434456 72.0295758 110.385542 1.70162276 131.626887 1.70162276 83.0380333 100.673559 54.7181687 100.673559"></polygon>
                    <path d="M167.921228,20.703077 L167.626048,20.703077 L143.594967,61.8198392 L166.752085,61.8198392 L167.921228,20.703077 Z M166.671056,78.5524631 L134.369162,78.5524631 L120.947179,100.673559 L97.645365,100.673559 L160.240774,1.70162276 L186.789562,1.70162276 L191.454555,100.673559 L166.676844,100.673559 L166.671056,78.5524631 Z" id="Fill-25" fill="#D40511"></path>
                    <path d="M240.494281,43.9556941 L248.012675,43.9556941 C257.307934,43.9556941 263.882912,38.0000145 265.914441,30.9099196 C267.095159,26.8005585 268.165908,18.4371405 255.189588,18.4371405 L247.810101,18.4371405 L240.494281,43.9556941 Z M229.306401,1.70451668 L267.06622,1.70451668 C284.024569,1.70451668 296.404743,8.93351951 291.160967,27.2230703 C289.986037,31.3382192 284.719109,47.6425435 263.709277,51.4683008 L263.628248,51.7519046 C270.903553,52.6027159 272.715145,56.5731691 273.178171,68.3456204 L274.526736,100.670665 L249.158666,100.670665 L248.794033,74.1566043 C248.672488,60.688318 245.431302,60.688318 236.575918,60.688318 L225.11601,100.670665 L200.92287,100.670665 L229.306401,1.70451668 Z" id="Fill-27" fill="#D40511"></path>
                    <polygon id="Fill-29" fill="#D40511" points="314.986001 1.70335911 374.427041 1.70335911 369.466868 19.0031905 333.33343 19.0031905 326.989965 41.1184986 361.358115 41.1184986 356.392155 58.4183301 322.029793 58.4183301 314.876032 83.3696761 352.780547 83.3696761 347.820375 100.669508 286.608258 100.669508"></polygon>
                    <polygon id="Fill-31" fill="#D40511" points="390.75741 1.70335911 419.077275 1.70335911 429.34489 70.3296894 429.640069 70.3296894 449.3187 1.70335911 470.554257 1.70335911 442.176514 100.669508 413.56147 100.669508 404.445634 29.0682313 404.150455 29.0682313 383.621013 100.669508 362.379667 100.669508"></polygon>
                    <path d="M503.82214,47.2177166 C511.346322,47.2177166 518.222267,42.2575441 520.867307,33.0375269 C523.674405,23.2560899 520.172767,19.002033 510.588116,19.002033 L504.244652,19.002033 L496.153262,47.2177166 L503.82214,47.2177166 Z M485.897223,1.70220155 L518.789475,1.70220155 C540.765875,1.70220155 551.155034,11.7730301 545.019932,33.1822227 C540.181304,50.0537545 526.296294,64.5117602 503.729535,64.5117602 L492.07284,64.5117602 L481.706832,100.66835 L457.51948,100.66835 L485.897223,1.70220155 Z" id="Fill-33" fill="#000000"></path>
                    <path d="M582.661679,85.6408216 C596.674022,85.6408216 606.119765,70.1873087 611.571903,51.1858545 C617.018253,32.1901882 616.433682,16.7308875 602.42134,16.7308875 C588.408997,16.7308875 579.10795,32.1901882 573.6616,51.1858545 C568.215249,70.1873087 568.649337,85.6408216 582.661679,85.6408216 M607.219453,0.00405148277 C636.864731,0.00405148277 644.684093,22.1193596 636.349614,51.1858545 C628.015135,80.2523495 607.514632,102.373445 577.863566,102.373445 C548.218288,102.373445 540.54941,80.2523495 548.883889,51.1858545 C557.218368,22.1193596 577.568387,0.00405148277 607.219453,0.00405148277" id="Fill-35" fill="#000000"></path>
                    <path d="M712.913957,21.8374921 C707.976935,19.0014542 700.510632,16.7326238 694.022471,16.7326238 C686.208897,16.7326238 679.327164,20.1358694 677.214606,27.509568 C672.051859,45.515515 715.01494,37.152097 704.932536,72.3131796 C699.561427,91.03103 680.820425,102.369394 660.319922,102.369394 C647.783477,102.369394 637.828405,99.5391438 633.771135,98.2600328 L640.623928,78.9749749 C647.083149,81.6721048 652.44847,85.0753503 661.442762,85.0753503 C669.117428,85.0753503 677.5503,81.388501 679.865433,73.302899 C685.352298,54.1625368 642.105613,63.521462 652.228533,28.2156836 C653.085132,25.2407377 661.50064,0 696.019273,0 C705.459228,0 710.911367,1.56271478 719.228482,3.40324553 L712.913957,21.8374921 Z" id="Fill-37" fill="#000000"></path>
                    <g id="Group-41" transform="translate(725.0152, 1.7016)">
                        <mask id="mask-4" fill="white">
                            <use xlink:href="#path-3"></use>
                        </mask>
                        <g id="Clip-40"></g>
                        <polygon id="Fill-39" fill="#000000" mask="url(#mask-4)" points="23.2555111 17.867039 0.839235717 17.867039 5.95567967 0 74.9871582 0 69.8649265 17.867039 47.4486511 17.867039 24.19314 98.9719362 0 98.9719362"></polygon>
                    </g>
                </g>
            </g>
        </g>
    </g>
</svg>