<?xml version="1.0" encoding="UTF-8"?>
<svg width="980px" height="680px" viewBox="0 0 980 680" version="1.1" xmlns="http://www.w3.org/2000/svg" xmlns:xlink="http://www.w3.org/1999/xlink">
    <title>DE DPD Express</title>
    <defs>
        <linearGradient x1="50%" y1="0%" x2="50%" y2="100%" id="linearGradient-1">
            <stop stop-color="#FFFFFF" offset="0%"></stop>
            <stop stop-color="#EDEDED" offset="100%"></stop>
        </linearGradient>
        <rect id="path-2" x="0" y="0" width="900" height="600" rx="80"></rect>
        <filter x="-6.7%" y="-10.0%" width="113.3%" height="120.0%" filterUnits="objectBoundingBox" id="filter-3">
            <feMorphology radius="2.5" operator="dilate" in="SourceAlpha" result="shadowSpreadOuter1"></feMorphology>
            <feOffset dx="0" dy="0" in="shadowSpreadOuter1" result="shadowOffsetOuter1"></feOffset>
            <feGaussianBlur stdDeviation="17.5" in="shadowOffsetOuter1" result="shadowBlurOuter1"></feGaussianBlur>
            <feColorMatrix values="0 0 0 0 0   0 0 0 0 0   0 0 0 0 0  0 0 0 0.5 0" type="matrix" in="shadowBlurOuter1"></feColorMatrix>
        </filter>
    </defs>
    <g id="DE-DPD-Express" stroke="none" stroke-width="1" fill="none" fill-rule="evenodd">
        <g transform="translate(40, 40)">
            <g id="Rectangle">
                <use fill="black" fill-opacity="1" filter="url(#filter-3)" xlink:href="#path-2"></use>
                <use fill="url(#linearGradient-1)" fill-rule="evenodd" xlink:href="#path-2"></use>
            </g>
            <g id="Logo" transform="translate(84, 50)">
                <g id="DPD" transform="translate(0, 0)">
                    <path d="M482.233864,245.967284 C468.725985,249.736923 451.13434,251.307601 436.055783,251.307601 C396.789959,251.307601 371.031168,230.888727 371.031168,193.506892 C371.031168,158.00946 395.219281,135.077902 430.401324,135.077902 C438.254729,135.077902 446.736418,136.020312 451.762608,138.533405 L451.762608,87.0150014 L482.233864,87.0150014 L482.233864,245.967284 Z M451.762608,164.920456 C447.050559,162.721509 440.453691,161.464958 432.914412,161.464958 C414.381604,161.464958 402.130276,172.773876 402.130276,192.564482 C402.130276,213.611209 415.324014,225.54841 436.998193,225.54841 C440.767832,225.54841 446.736418,225.54841 451.762608,224.291814 L451.762608,164.920456 Z M732.600733,245.967284 C719.092854,249.736923 701.501209,251.307601 686.10851,251.307601 C647.155581,251.307601 621.082233,230.888727 621.082233,193.506892 C621.082233,158.00946 645.270762,135.077902 680.454051,135.077902 C688.621613,135.077902 696.78916,136.020312 701.81535,138.533405 L701.81535,87.0150014 L732.600733,87.0150014 L732.600733,245.967284 Z M701.81535,164.920456 C697.103301,162.721509 690.820559,161.464958 683.281281,161.464958 C664.433085,161.464958 652.181757,172.773876 652.181757,192.564482 C652.181757,213.611209 665.689636,225.54841 687.365062,225.54841 C691.134701,225.54841 696.78916,225.54841 701.81535,224.291814 L701.81535,164.920456 Z M530.296764,164.920456 C535.32294,162.721509 542.548092,162.093226 548.516678,162.093226 C567.364874,162.093226 580.244484,172.773876 580.244484,191.936214 C580.244484,214.553619 565.794196,224.920127 546.631858,225.234268 L546.631858,251.307601 L548.202551,251.307601 C587.783763,251.307601 611.344008,229.632176 611.344008,190.993804 C611.344008,155.810499 586.21307,135.077902 549.144961,135.077902 C530.296764,135.077902 511.762695,139.475815 499.511367,144.501581 L499.511367,293.715627 L530.296764,293.715627 L530.296764,164.920456 Z" id="path7" fill="#3F3F42"></path>
                    <polygon id="path9" fill="#DC0032" points="266.109968 66.5965411 266.424154 66.5965411 266.424154 66.5965411"></polygon>
                    <polygon id="path11" fill="#DC0032" points="258.571105 62.5127647 263.59688 68.1672236 266.424109 66.5965411 258.571105 62.5127647"></polygon>
                    <polygon id="path13" fill="#DC0032" points="251.031826 58.4289899 260.76965 69.7379076 264.225148 67.853088 260.455509 63.4551746 251.031826 58.4289899"></polygon>
                    <polygon id="path15" fill="#DC0032" points="243.178421 54.3452135 257.942837 71.3085902 261.397919 69.4237705 252.916646 59.3713997 243.178421 54.3452135"></polygon>
                    <path d="M235.639143,50.2614372 L255.115607,72.8792727 L258.571105,70.9944531 L245.063241,55.2876233 L235.639143,50.2614372 Z M273.020978,90.1563679 L270.822017,91.4129193 L273.020978,93.9260116 L273.020978,90.1563724 L273.020978,90.1563679 Z" id="path17" fill="#DC0032"></path>
                    <path d="M228.099864,46.1776623 L252.288378,74.4499567 L255.743875,72.5651371 L237.523962,51.203847 L228.099864,46.1776623 L228.099864,46.1776623 Z M271.764427,90.7846406 L268.308929,92.9835973 L273.020978,98.6380562 L273.020978,92.6694602 L271.764382,90.7846406 L271.764427,90.7846406 Z" id="path19" fill="#DC0032"></path>
                    <path d="M220.246444,42.093886 L249.461148,76.0206392 L253.230788,74.1358196 L229.984684,47.1200721 L220.246444,42.093886 Z M268.937197,92.3553246 L265.4817,94.5542799 L273.020978,103.350105 L273.020978,97.3815093 L268.937197,92.3553246 Z" id="path21" fill="#DC0032"></path>
                    <path d="M212.707166,38.0102358 L246.94806,77.5913218 L250.403558,75.7065021 L222.131264,43.0362958 L212.707166,38.0102358 L212.707166,38.0102358 Z M266.109968,94.2401443 L262.65447,96.1249639 L273.020978,108.376291 L273.020978,102.407695 L266.109968,94.2401443 Z" id="path23" fill="#DC0032"></path>
                    <path d="M205.167887,33.9265024 L244.120831,79.1620058 L247.576329,77.2771861 L214.591985,38.9526456 L205.167887,33.9265024 Z M263.282738,95.8108268 L259.827241,97.6956464 L273.020978,113.088341 L273.020978,107.119745 L263.282738,95.8108268 Z" id="path25" fill="#DC0032"></path>
                    <path d="M197.314883,29.8427677 L241.293602,80.7326883 L244.749099,78.8478687 L207.052707,34.8689123 L197.314883,29.8427677 L197.314883,29.8427677 Z M260.455509,97.3815093 L257.000427,99.2663289 L273.020978,117.80039 L273.020978,111.831794 L260.455509,97.3815093 L260.455509,97.3815093 Z" id="path27" fill="#DC0032"></path>
                    <path d="M189.775604,25.7589928 L238.466372,82.6175079 L241.92187,80.4185512 L199.199702,30.7851775 L189.775604,25.7589928 Z M257.628695,98.9521933 L254.173197,100.837013 L273.020978,122.826574 L273.020978,116.85798 L257.628695,98.9521933 Z" id="path29" fill="#DC0032"></path>
                    <path d="M181.922199,21.675258 L235.639143,84.1881904 L239.09464,81.9892352 L191.660424,26.7014026 L181.922199,21.675258 Z M255.115607,100.522876 L251.345968,102.407695 L273.020978,127.538623 L273.020978,121.570029 L255.115607,100.522876 L255.115607,100.522876 Z" id="path31" fill="#DC0032"></path>
                    <path d="M174.38292,17.5915247 L232.811913,85.7584559 L236.581552,83.5599177 L184.121145,22.6176678 L174.38292,17.5915247 Z M252.288378,102.093558 L248.83288,103.978378 L273.020978,132.564809 L273.020978,126.282078 L252.288378,102.093558 Z" id="path33" fill="#DC0032"></path>
                    <path d="M166.843642,13.5077902 L230.29881,87.3291385 L233.754323,85.1301817 L176.26774,18.5339345 L166.843642,13.5077902 Z M249.461148,103.664242 L246.005651,105.549062 L273.020978,137.276859 L273.020978,131.308263 L249.461148,103.664242 L249.461148,103.664242 Z" id="path35" fill="#DC0032"></path>
                    <path d="M158.990222,9.10987777 L227.471581,88.899821 L230.927094,86.7008657 L168.728461,14.4501581 L158.990222,9.10987777 Z M246.633919,105.234925 L243.178421,107.119745 L273.020978,141.988489 L273.020978,136.020312 L246.633919,105.234925 L246.633919,105.234925 Z" id="path37" fill="#DC0032"></path>
                    <path d="M151.450945,5.02614372 L224.644352,90.470505 L228.099864,88.5856854 L161.189183,10.3664242 L151.450945,5.02614372 Z M243.806689,106.805607 L240.351192,108.690427 L273.020978,147.014674 L273.020978,140.732361 L243.806689,106.805607 L243.806689,106.805607 Z" id="path39" fill="#DC0032"></path>
                    <path d="M143.912085,1.25653801 L221.817122,92.0411875 L225.272635,90.1563679 L153.335763,6.28269018 L143.912085,1.25653801 C143.912085,1.25653801 143.912085,1.25653801 143.912085,1.25653801 Z M240.97946,108.376291 L237.523962,110.261111 L273.020978,151.726718 L273.020978,145.758128 L240.97946,108.376291 L240.97946,108.376291 Z" id="path41" fill="#DC0032"></path>
                    <path d="M138.8859,0 C138.8859,0 138.8859,0 138.8859,0 L218.989893,93.6118701 L222.445405,91.7270504 L145.796904,2.19893951 L143.912085,1.25653801 C142.341402,0.314134131 140.77072,0 138.8859,0 Z M238.152231,109.946974 L234.696733,111.831794 L273.020978,156.438767 L273.020978,150.470182 L238.152231,109.946974 L238.152231,109.946974 Z" id="path43" fill="#DC0032"></path>
                    <path d="M138.8859,0 C137.629349,0 136.372806,0.314134131 135.116261,0.628269004 L216.162663,95.1825541 L219.932303,93.2977344 L139.82831,0 C139.514168,0 139.200042,0 138.8859,0 Z M235.639143,111.517656 L232.18363,113.402476 L273.020978,161.464958 L273.020978,155.182231 L235.639143,111.517656 L235.639143,111.517656 Z" id="path45" fill="#DC0032"></path>
                    <path d="M136.058671,0.314134131 C135.430402,0.628269004 134.487987,0.942401502 134.173851,1.25653801 L132.289031,2.19893951 L213.649575,96.7532366 L217.105073,94.868417 L136.058671,0.314134131 L136.058671,0.314134131 Z M232.811913,113.088341 L229.356401,115.287296 L273.020978,166.177007 L273.020978,160.208407 L232.811913,113.088341 L232.811913,113.088341 Z" id="path47" fill="#DC0032"></path>
                    <path d="M132.917304,1.57067051 L129.461802,3.45547752 L210.822346,98.3239191 L214.277844,96.4390995 L132.917304,1.57067051 Z M229.984684,114.659023 L226.529171,116.85798 L273.020978,170.889056 L273.020978,164.920456 L229.984684,114.659023 L229.984684,114.659023 Z" id="path49" fill="#DC0032"></path>
                    <path d="M130.090075,3.14134086 L126.634573,5.02614372 L207.995117,99.8946031 L211.450614,98.0097835 L130.090075,3.14134086 Z M227.157454,116.229706 L223.701942,118.428662 L273.020978,175.915247 L273.020978,169.946646 L227.157454,116.229706 Z" id="path51" fill="#DC0032"></path>
                    <path d="M127.262845,4.71200721 L123.807343,6.59682684 L205.167887,101.465286 L208.623385,99.580466 L127.262845,4.71200721 Z M224.330225,117.80039 L220.874712,119.999345 L273.020978,180.627296 L273.020978,174.658695 L224.330225,117.80039 Z" id="path53" fill="#DC0032"></path>
                    <path d="M124.435616,6.28269018 L120.980114,8.16750981 L202.341073,103.035968 L205.796155,101.151149 L124.435616,6.28269018 Z M221.502995,119.371072 L218.047483,121.570029 L273.020978,185.339345 L273.020978,179.370745 L221.502995,119.371072 L221.502995,119.371072 Z" id="path55" fill="#DC0032"></path>
                    <path d="M121.608386,7.85337316 L118.152884,9.73815093 L199.513844,104.606652 L202.968926,102.721833 L121.608386,7.85337316 Z M218.989893,120.941755 L215.534395,123.140711 L273.020978,190.365521 L273.020978,184.396935 L218.989893,120.941755 L218.989893,120.941755 Z" id="path57" fill="#DC0032"></path>
                    <path d="M118.781157,9.10987777 L115.325655,11.3088341 L197.000756,106.177335 L200.456254,104.292515 L118.781157,9.10987777 Z M216.162663,122.826574 L212.707166,124.711394 L273.020978,195.07757 L273.020978,189.108984 L216.162663,122.826574 L216.162663,122.826574 Z" id="path59" fill="#DC0032"></path>
                    <path d="M115.953928,10.6805607 L112.498425,12.5653804 L194.173526,107.748017 L197.629024,105.863198 L115.953928,10.6805607 Z M213.335434,124.397258 L209.879936,126.282078 L273.020978,200.103345 L273.020978,193.821033 L213.335434,124.397258 Z" id="path61" fill="#DC0032"></path>
                    <path d="M113.126698,12.2512439 L109.671196,14.1360635 L191.346297,109.632837 L194.801795,107.433882 L113.126698,12.2512439 Z M210.508204,125.967941 L207.052707,127.85276 L273.020978,204.815394 L273.020978,198.846793 L210.508204,125.967941 Z" id="path63" fill="#DC0032"></path>
                    <path d="M110.299469,13.8219268 L106.843966,15.7067051 L188.519068,111.203521 L191.974565,109.004564 L110.299469,13.8219268 Z M207.680975,127.538623 L204.225477,129.423443 L273.020978,209.527443 L273.020978,203.558843 L207.680975,127.538623 Z" id="path65" fill="#DC0032"></path>
                    <path d="M107.472239,15.392568 L104.016737,17.2773876 L185.691838,112.774203 L189.147336,110.575247 L107.472239,15.392568 Z M204.853746,129.109307 L201.398663,130.994127 L273.020978,214.553619 L273.020978,208.270892 L204.853746,129.109307 L204.853746,129.109307 Z" id="path67" fill="#DC0032"></path>
                    <path d="M104.64501,16.9632505 L101.189508,18.8480701 L182.864609,114.344886 L186.320106,112.145931 L104.64501,16.9632505 Z M202.341073,130.67999 L198.885575,132.564809 L273.020978,219.265668 L273.020978,213.297082 L202.341073,130.67999 L202.341073,130.67999 Z" id="path69" fill="#DC0032"></path>
                    <path d="M101.81778,18.2197974 L98.0481411,20.1045755 L180.351506,115.91557 L183.807018,113.716613 L101.81778,18.2197974 Z M199.513844,132.250672 L196.058346,134.135492 L273.020978,223.977717 L273.020978,218.009131 L199.513844,132.250672 L199.513844,132.250672 Z" id="path71" fill="#DC0032"></path>
                    <path d="M98.9905509,19.790471 L95.2209116,21.675258 L177.838418,117.80039 C178.152604,117.172121 178.466642,116.85798 179.095014,116.543838 L180.979834,115.287287 L98.9905954,19.790471 L98.9905509,19.790471 Z M196.686614,133.821356 L193.231117,135.706176 L272.392695,228.061498 C272.706881,227.119088 273.020919,226.176678 273.020919,225.234268 L273.020919,222.72118 L196.686555,133.821356 L196.686614,133.821356 Z" id="path73" fill="#DC0032"></path>
                    <path d="M96.1633214,21.3611209 L92.3936822,23.2459405 L176.896008,121.570029 L176.896008,120.313477 C176.896008,119.371068 177.524232,118.114521 178.152604,117.172111 L96.1633214,21.3611209 Z M193.859385,135.392039 L191.346297,136.962721 C191.032111,136.962721 190.718073,137.276863 190.403887,137.276863 L270.822017,231.202873 C271.764427,229.946277 272.392695,228.68977 272.706837,227.433234 L193.859385,135.392039 L193.859385,135.392039 Z" id="path75" fill="#DC0032"></path>
                    <path d="M93.336092,22.9318049 L89.5668713,24.8166245 L176.896008,126.596214 L176.896008,120.313482 L93.336092,22.9318049 Z M185.063555,135.706176 L268.623056,233.401815 C269.565466,232.773591 270.507875,231.516995 271.450285,230.574586 L191.032155,136.962721 C189.77556,137.59099 187.890784,137.59099 186.634248,136.962721 L185.063555,135.706176 Z" id="path77" fill="#DC0032"></path>
                    <path d="M90.5088626,24.5024874 L86.7396418,26.3872655 L265.795826,234.972508 L268.308929,233.715912 C268.623115,233.401726 268.937153,233.087688 269.251339,232.773502 L186.948375,136.962721 C186.948375,136.962721 186.634189,136.962721 186.634189,136.962721 L179.409096,132.564809 C178.780872,132.250668 178.466686,131.6224 177.838418,130.994127 C177.838418,130.994127 177.838418,130.994127 177.838418,130.994127 C177.210194,130.051717 177.210194,129.423443 176.896008,128.79517 L176.896008,125.339668 L90.5088626,24.5024874 Z" id="path79" fill="#DC0032"></path>
                    <polygon id="path81" fill="#DC0032" points="87.6820516 26.0731284 83.9124124 27.957948 262.968597 236.543186 266.424109 234.658366"></polygon>
                    <polygon id="path83" fill="#DC0032" points="84.8548222 27.3296753 81.085183 29.2144949 260.455509 238.113864 263.911007 236.229044"></polygon>
                    <polygon id="path85" fill="#DC0032" points="82.0275928 28.9003578 78.2579535 30.7851775 257.628695 239.684557 261.083777 237.799737"></polygon>
                    <polygon id="path87" fill="#DC0032" points="79.2003633 30.4710419 75.4307241 32.3558184 254.801466 241.255235 258.256978 239.370415"></polygon>
                    <polygon id="path89" fill="#DC0032" points="76.0589983 32.0416828 72.6034946 33.9265024 251.974236 243.140055 255.429749 240.941094"></polygon>
                    <polygon id="path91" fill="#DC0032" points="73.2317688 33.6123654 69.7762652 35.497185 249.147007 244.710733 252.602519 242.511786"></polygon>
                    <polygon id="path93" fill="#DC0032" points="70.4045394 35.1830479 66.9490358 37.0678259 246.633919 246.281426 250.089417 244.082464"></polygon>
                    <polygon id="path95" fill="#DC0032" points="67.57731 36.4395948 64.1218063 38.3243729 243.806689 247.852104 247.262187 245.653143"></polygon>
                    <polygon id="path97" fill="#DC0032" points="64.7500805 38.0102358 61.2945769 39.8950554 240.97946 249.422782 244.434958 247.537962"></polygon>
                    <path d="M61.9228511,39.5809183 L58.4673474,41.4657379 L145.796904,143.245035 L148.623715,145.129854 C149.880267,145.758122 151.136809,147.328811 151.136809,148.899489 L151.136809,149.213675 L238.152231,250.993519 L241.607728,249.1087 L61.9228511,39.5809183 Z" id="path99" fill="#DC0032"></path>
                    <path d="M59.0956216,41.1516023 L55.640118,43.0362958 L137.629353,138.847541 L147.995443,144.501581 L59.0956216,41.1516023 Z M150.822672,147.957084 C150.822672,148.271225 151.136814,148.585367 151.136814,148.899493 L151.136814,154.239826 L235.325006,252.564157 L238.780503,250.679338 L150.822672,147.957084 L150.822672,147.957084 Z" id="path101" fill="#DC0032"></path>
                    <path d="M56.2683922,42.7221587 L52.8128886,44.6069783 L129.461802,134.135492 L139.82831,139.789951 L56.2683922,42.7221587 Z M151.136809,152.98327 L151.136809,158.95187 L232.811913,254.134831 L236.267411,252.250011 L151.136809,152.98327 L151.136809,152.98327 Z" id="path103" fill="#DC0032"></path>
                    <path d="M53.4411628,44.2928427 L49.9856591,46.1776623 L121.608386,129.423443 L131.660757,135.077902 L53.4411628,44.2928427 Z M151.136809,157.695319 L151.136809,163.978046 L229.984684,255.705108 L233.440181,253.820704 L151.136809,157.695319 L151.136809,157.695319 Z" id="path105" fill="#DC0032"></path>
                    <path d="M50.6139333,45.5493881 L47.1584297,47.4342077 L113.440835,124.711394 L123.493206,130.67999 L50.6139333,45.5493881 Z M151.136809,162.721509 L151.136809,168.690095 L227.157454,257.275786 L230.612952,255.390967 L151.136809,162.721509 L151.136809,162.721509 Z" id="path107" fill="#DC0032"></path>
                    <path d="M47.7867039,47.1200721 L44.3313264,49.0048918 L105.273282,119.999345 L115.325655,125.967941 L47.7867039,47.1200721 Z M151.136809,167.433558 L151.136809,173.402144 L224.330225,258.846464 L227.785723,256.961645 L151.136809,167.433558 L151.136809,167.433558 Z" id="path109" fill="#DC0032"></path>
                    <path d="M44.9595991,48.6907547 L41.5041385,50.5755743 L97.1057313,115.601433 L107.158102,121.255892 L44.9595991,48.6907547 Z M151.136809,172.145608 L151.136809,178.428335 L221.502995,260.731284 L224.958493,258.532338 L151.136809,172.145608 L151.136809,172.145608 Z" id="path111" fill="#DC0032"></path>
                    <path d="M42.1323697,50.2614372 L38.6769091,52.1462568 L88.9385986,110.889384 L98.9905509,116.543843 L42.1323697,50.2614372 L42.1323697,50.2614372 Z M151.136809,177.171783 L151.136809,183.140384 L218.989893,262.301977 L222.445405,260.103016 L151.136809,177.171783 L151.136809,177.171783 Z" id="path113" fill="#DC0032"></path>
                    <path d="M39.3051833,51.8321212 L35.8497212,53.7169408 L80.7710473,106.177335 L91.1371353,111.831794 L39.3051833,51.8321212 Z M151.136809,181.883832 L151.136809,187.852433 L216.162663,263.872655 L219.618176,261.673694 L151.136809,181.883832 Z" id="path115" fill="#DC0032"></path>
                    <path d="M36.4779538,53.4028037 L33.0224918,55.2876233 L72.6034946,101.465286 L82.9700026,107.433882 L36.4779538,53.4028037 Z M118.781157,155.182231 L126.948708,164.606329 L126.948708,161.150817 C126.948708,160.522593 126.32044,159.580138 125.692157,159.265997 L118.781157,155.182231 L118.781157,155.182231 Z M151.136809,186.595881 L151.136809,192.878623 L213.335434,265.443333 L216.790946,263.244387 L151.136809,186.595881 L151.136809,186.595881 Z" id="path117" fill="#DB0032"></path>
                    <path d="M33.650766,54.6593506 L30.1953054,56.5441703 L64.4359434,96.7532366 L74.8024514,102.721833 L33.650766,54.6593506 Z M110.613606,150.470182 L126.948708,169.318378 L126.948708,163.349778 L120.980114,156.438767 L110.613606,150.470182 L110.613606,150.470182 Z M151.136809,191.622072 L151.136809,197.590673 L210.508204,267.014026 L213.963717,265.129206 L151.136809,191.622072 Z" id="path119" fill="#DC0032"></path>
                    <path d="M30.8235365,56.2300332 L27.3680759,58.1148528 L56.5825278,92.3553246 L66.6349001,98.0097835 L30.8235365,56.2300332 L30.8235365,56.2300332 Z M102.446053,146.072264 L126.948708,174.344554 L126.948708,168.375968 L112.812561,151.726718 L102.446053,146.072264 Z M151.136809,196.334121 L151.136809,202.302291 L207.680975,268.584704 L211.136488,266.699884 L151.136809,196.334121 Z" id="path121" fill="#DC0032"></path>
                    <path d="M27.9963486,57.8007157 L24.540888,59.6855353 L48.4149766,87.6432756 L58.4673474,93.2977344 L27.9963486,57.8007157 Z M94.5926389,141.360635 L126.948708,179.056603 L126.948708,173.088017 L104.64501,147.014674 L94.5926389,141.360635 Z M151.136809,201.359881 L151.136809,207.328482 L205.167887,270.155382 L208.623385,268.270563 L151.136809,201.359881 L151.136809,201.359881 Z" id="path123" fill="#DC0032"></path>
                    <path d="M25.1691192,59.3713997 L21.7136586,61.2562193 L40.2475931,82.931645 L50.2997962,88.5856854 L25.1691192,59.3713997 Z M86.4255062,136.648586 L126.948708,183.768652 L126.948708,177.800066 L96.4774585,142.616762 L86.4255062,136.648586 Z M151.136809,206.07193 L151.136809,212.040531 L202.341073,271.726075 L205.796155,269.841255 L151.136809,206.07193 L151.136809,206.07193 Z" id="path125" fill="#DC0032"></path>
                    <path d="M22.3419313,60.9420822 L18.8864709,62.8269018 L32.0800819,78.219596 L42.1323697,84.1881904 L22.3419313,60.9420822 Z M78.2579535,131.936537 L126.948708,188.794843 L126.948708,182.826242 L88.3103258,137.905131 L78.2579535,131.936537 Z M151.136809,210.783979 L151.136809,216.75258 L199.513844,273.296753 L202.968926,271.411934 L151.136809,210.783979 L151.136809,210.783979 Z" id="path127" fill="#DC0032"></path>
                    <path d="M19.5147022,62.5127647 L16.0592414,64.3975844 L23.9126153,73.5075469 L34.2790387,79.4761414 L19.5147022,62.5127647 Z M70.0904023,127.538623 L126.948708,193.506892 L126.948708,187.538291 L80.1427731,133.193082 L70.0904023,127.538623 Z M151.136809,215.81017 L151.136809,221.778771 L196.686614,274.867431 L200.142112,272.982612 L151.136809,215.81017 L151.136809,215.81017 Z" id="path129" fill="#DC0032"></path>
                    <path d="M16.6875146,63.7693117 L12.9179173,65.6541313 L15.7451048,69.1096334 L26.111529,74.7640923 L16.6875146,63.7693117 Z M61.9228511,122.826574 L126.948708,198.532652 L126.948708,192.25034 L72.289359,128.481033 L61.9228511,122.826574 Z M151.136809,220.522219 L151.136809,226.49082 L193.859385,276.752251 L197.314883,274.553305 L151.136809,220.522219 Z" id="path131" fill="#DC0032"></path>
                    <path d="M13.8602851,65.3399942 L11.6613709,66.5965455 L17.944061,70.0520477 L13.8602851,65.3399986 L13.8602851,65.3399942 Z M53.7552984,118.114525 L126.948708,203.244701 L126.948708,197.276531 L64.1218063,124.083121 L53.7552984,118.114525 Z M151.136809,225.234268 L151.136809,231.516995 L191.346297,278.322944 L194.801795,276.123983 L151.136809,225.234268 L151.136809,225.234268 Z" id="path133" fill="#DC0032"></path>
                    <path d="M45.9020089,113.402476 L126.948708,207.95675 L126.948708,201.988164 L55.9542551,119.371072 L45.9020089,113.402476 Z M151.136809,230.260459 L151.136809,236.229044 L188.519068,279.893622 L191.974565,277.694661 L151.136809,230.260459 L151.136809,230.260459 Z" id="path135" fill="#DC0032"></path>
                    <path d="M37.7344993,109.004564 L126.948708,212.982941 L126.948708,206.700214 L47.7867039,114.659023 L37.7344993,109.004564 Z M151.136809,234.972508 L151.136809,240.941094 L185.691838,281.4643 L189.147336,279.265354 L151.136809,234.972508 L151.136809,234.972508 Z" id="path137" fill="#DC0032"></path>
                    <path d="M29.5670312,104.292515 L126.948708,217.69499 L126.948708,211.726389 L39.6193189,109.946974 L29.5670312,104.292515 L29.5670312,104.292515 Z M151.136809,239.684557 L151.136809,245.967284 L182.864609,283.034993 L186.320106,281.150173 L151.136809,239.684557 Z" id="path139" fill="#DC0032"></path>
                    <path d="M21.3995215,99.580466 L126.948708,222.407039 L126.948708,216.438438 L31.4518092,105.549062 L21.3995215,99.580466 Z M151.136809,244.710733 L151.136809,250.679333 L180.037379,284.605671 L183.492877,282.720851 L151.136809,244.710733 L151.136809,244.710733 Z" id="path141" fill="#DB0032"></path>
                    <path d="M13.2320538,94.868417 L126.948708,227.433229 L126.948708,221.464629 L23.2843411,100.837013 L13.2320538,94.868417 Z M151.136809,249.422782 L151.136809,255.390967 L177.524277,286.176349 L180.979789,284.291529 L151.136809,249.422782 L151.136809,249.422782 Z" id="path143" fill="#DA0032"></path>
                    <path d="M5.0645415,90.470505 L126.948708,232.145278 L126.948708,226.176678 L15.4309683,96.1249639 L5.0645415,90.470505 Z M151.136809,254.134831 L151.136809,260.417157 L174.697047,287.747042 L178.15256,285.862222 L151.136809,254.134831 Z" id="path145" fill="#D90032"></path>
                    <path d="M4.75040744,90.1563679 L4.75040744,94.5542799 L126.948708,236.857328 L126.948708,230.888727 L7.26348353,91.4129148 L4.75040744,90.1563679 Z M151.136809,259.160606 L151.136809,262.930245 C151.136809,263.558469 150.822668,264.186841 150.508541,264.500923 L171.869824,289.31772 L175.325336,287.4329 L151.136815,259.160606 L151.136809,259.160606 Z" id="path147" fill="#D80032"></path>
                    <path d="M4.75040744,93.2977344 L4.75040744,99.580466 L126.948708,241.883503 L126.948708,235.914918 L4.75040744,93.2977344 Z M150.822672,263.872655 C150.508531,265.129251 149.566121,266.385743 148.623715,266.699884 L148.309574,267.014071 L169.042582,290.888443 L172.498095,289.003623 L150.822666,263.872655 L150.822672,263.872655 Z" id="path149" fill="#D70032"></path>
                    <path d="M4.75040744,98.3239191 L4.75040744,104.292515 L126.948708,246.595552 L126.948708,240.626967 L4.75040744,98.3239191 Z M148.937852,266.385743 C148.937852,266.699929 148.937852,266.699929 148.623711,266.699929 L145.482764,268.584749 L166.215354,292.459135 L169.670867,290.574316 L148.937848,266.385743 L148.937852,266.385743 Z" id="path151" fill="#D60032"></path>
                    <path d="M4.75040744,103.035968 L4.75040744,109.004564 L126.948708,251.307601 L126.948708,245.339016 L4.75040744,103.035968 Z M146.42476,267.956436 L142.655539,270.155382 L163.702271,294.343911 L167.157769,292.144949 L146.42476,267.956436 Z" id="path153" fill="#D50032"></path>
                    <path d="M4.75040744,108.062154 L4.75040744,114.03075 L126.948708,256.333377 L126.948708,250.365192 L4.75040744,108.062154 Z M143.597949,269.527114 L141.398992,270.783665 C140.770724,271.097851 140.142441,271.097851 139.514173,271.097851 L160.875041,295.914648 L164.330539,293.715687 L143.597949,269.527114 L143.597949,269.527114 Z" id="path155" fill="#D40032"></path>
                    <path d="M4.75040744,112.774203 L4.75040744,118.742799 L126.948708,261.045426 L126.948708,255.076825 L4.75040744,112.774203 Z M133.859704,269.527114 L158.047812,297.485267 L161.50331,295.28632 L140.456583,271.097792 C140.142441,271.097792 139.514173,271.411978 139.200031,271.411978 L138.88589,271.411978 C137.94348,271.411978 137.315206,271.097792 136.686933,270.783754 L133.859704,269.527114 L133.859704,269.527114 Z" id="path157" fill="#D30032"></path>
                    <path d="M4.75040744,117.486252 L4.75040744,123.768984 L155.220583,299.05596 L158.67608,296.856998 L136.058671,270.469524 L129.147665,266.699884 C127.891114,266.071661 126.948708,264.500923 126.948708,262.930245 L126.948708,259.788874 L4.75040744,117.486252 Z" id="path159" fill="#D20032"></path>
                    <polygon id="path161" fill="#D10032" points="4.75040744 122.512439 4.75040744 128.481033 152.393355 300.626638 155.848851 298.741818"></polygon>
                    <polygon id="path163" fill="#D00032" points="4.75040744 127.224488 4.75040744 133.193082 149.566125 302.197316 153.021629 300.312496"></polygon>
                    <polygon id="path165" fill="#CF0032" points="4.75040744 131.936537 4.75040744 138.219268 147.053033 303.768009 150.508535 301.883189"></polygon>
                    <polygon id="path167" fill="#CE0032" points="4.75040744 136.962721 4.75040744 142.930899 144.226222 305.338687 147.681306 303.453867"></polygon>
                    <path d="M4.75040744,141.674352 L4.75040744,147.642948 L141.084855,306.595238 C142.027265,306.281052 142.969675,305.967014 143.912085,305.652828 L144.854495,305.024605 L4.75040744,141.674352 Z" id="path169" fill="#CD0032"></path>
                    <path d="M4.75040744,146.386401 L4.75040744,152.669128 L137.00108,306.595238 C137.629349,306.595238 138.257632,306.595238 138.8859,306.595238 C139.82831,306.595238 140.77072,306.595238 141.71313,306.281052 L4.75040744,146.386401 Z" id="path171" fill="#CC0032"></path>
                    <path d="M4.75040744,151.412592 L4.75040744,157.381177 L129.775938,303.139726 L134.173851,305.652828 C135.116261,306.281052 136.686943,306.595238 137.94349,306.595238 L4.75040744,151.412592 Z" id="path173" fill="#CB0032"></path>
                    <polygon id="path175" fill="#CA0032" points="4.75040744 156.124641 4.75040744 162.093226 121.608386 298.427677 131.974894 304.396277"></polygon>
                    <polygon id="path177" fill="#C90032" points="4.75040744 161.150817 4.75040744 167.119417 113.440835 293.715627 123.807343 299.684228"></polygon>
                    <polygon id="path179" fill="#C80033" points="4.75040744 165.862866 4.75040744 171.831466 105.273282 289.003578 115.325655 294.972179"></polygon>
                    <polygon id="path181" fill="#C70033" points="4.75040744 170.574915 4.75040744 176.543515 97.1057313 284.291529 107.158102 290.26013"></polygon>
                    <polygon id="path183" fill="#C60033" points="4.75040744 175.601105 4.75040744 181.569706 88.6244615 279.265354 98.9905509 285.233939"></polygon>
                    <polygon id="path185" fill="#C50033" points="4.75040744 180.313154 4.75040744 186.281755 80.4569102 274.553305 90.8229997 280.52189"></polygon>
                    <polygon id="path187" fill="#C40033" points="4.75040744 185.025203 4.75040744 190.993804 72.289359 269.841255 82.655867 275.809841 4.75040744 185.025203"></polygon>
                    <polygon id="path189" fill="#C30033" points="4.75040744 190.051394 4.75040744 196.01998 64.1218063 265.129206 74.4883143 271.097792"></polygon>
                    <polygon id="path191" fill="#C20033" points="4.75040744 194.763443 4.75040744 200.731613 55.9542551 260.417157 66.320763 266.385743"></polygon>
                    <polygon id="path193" fill="#C10033" points="4.75040744 199.475062 4.75040744 205.757804 47.7867039 255.705108 57.8390747 261.673694"></polygon>
                    <polygon id="path195" fill="#C00033" points="4.75040744 204.501252 4.75040744 210.469853 39.3051833 250.993475 49.6715235 256.961645"></polygon>
                    <polygon id="path197" fill="#BF0033" points="4.75040744 209.213301 4.75040744 215.181902 31.1376721 246.281426 41.5041385 251.935885"></polygon>
                    <polygon id="path199" fill="#BE0033" points="4.75040744 213.92535 4.75040744 220.208078 22.9702055 241.255235 33.3366289 247.223835"></polygon>
                    <polygon id="path201" fill="#BD0033" points="4.75040744 218.951541 4.75040744 224.920127 14.802695 236.543186 25.1691192 242.511786"></polygon>
                    <path d="M4.75040744,223.66359 L4.75040744,225.234268 C4.75040744,228.375639 6.94934688,232.145278 9.46241458,233.715957 L17.0016512,237.799737 L4.75040744,223.66359 L4.75040744,223.66359 Z" id="path203" fill="#BC0033"></path>
                    <path d="M6.63521453,230.888727 C7.26348279,231.516951 7.57761544,232.145323 8.20588489,232.459405 L6.63521453,230.888727 Z" id="path205" fill="#BB0033"></path>
                </g>
                <g id="Express" transform="translate(64.7, 357)" fill="#3F3F42" fill-rule="nonzero">
                    <polygon id="Path" points="-5.68434189e-14 0 84 0 84 22.4 24 22.4 24 44.8 72 44.8 72 65.6 24 65.6 24 89.6 84 89.6 84 112 -5.68434189e-14 112"></polygon>
                    <polygon id="Path" points="114.4 70.4 92 30.4 116.8 30.4 132 60.8 136 60.8 151.2 30.4 176 30.4 153.6 70.4 177.6 112 152.8 112 136 80 132 80 115.2 112 90.4 112"></polygon>
                    <path d="M186.4,30.4 L208.8,30.4 L208.8,40.8 L209.6,40.8 C211.306667,38.4533333 213.386667,36.32 215.84,34.4 C217.973333,32.8 220.613333,31.3333333 223.76,30 C226.906667,28.6666667 230.72,28 235.2,28 C240.426667,28 245.306667,29.0133333 249.84,31.04 C254.373333,33.0666667 258.346667,35.9466667 261.76,39.68 C265.173333,43.4133333 267.866667,47.9466667 269.84,53.28 C271.813333,58.6133333 272.8,64.5866667 272.8,71.2 C272.8,77.8133333 271.813333,83.7866667 269.84,89.12 C267.866667,94.4533333 265.173333,98.9866667 261.76,102.72 C258.346667,106.453333 254.373333,109.333333 249.84,111.36 C245.306667,113.386667 240.426667,114.4 235.2,114.4 C230.72,114.4 226.906667,113.733333 223.76,112.4 C220.613333,111.066667 217.973333,109.6 215.84,108 C213.386667,106.08 211.306667,103.946667 209.6,101.6 L208.8,101.6 L208.8,142.4 L186.4,142.4 L186.4,30.4 Z M229.6,95.2 C235.253333,95.2 240,93.12 243.84,88.96 C247.68,84.8 249.6,78.88 249.6,71.2 C249.6,63.52 247.68,57.6 243.84,53.44 C240,49.28 235.253333,47.2 229.6,47.2 C223.52,47.2 218.533333,49.28 214.64,53.44 C210.746667,57.6 208.8,63.52 208.8,71.2 C208.8,78.88 210.746667,84.8 214.64,88.96 C218.533333,93.12 223.52,95.2 229.6,95.2 Z" id="Shape"></path>
                    <path d="M286.4,30.4 L308.8,30.4 L308.8,42.4 L309.6,42.4 C310.56,39.84 312,37.6 313.92,35.68 C315.52,33.9733333 317.653333,32.4 320.32,30.96 C322.986667,29.52 326.346667,28.8 330.4,28.8 L340,28.8 L340,50.4 L328,50.4 C321.92,50.4 317.2,52.0533333 313.84,55.36 C310.48,58.6666667 308.8,63.1466667 308.8,68.8 L308.8,112 L286.4,112 L286.4,30.4 Z" id="Path"></path>
                    <path d="M390.4,114.4 C384.213333,114.4 378.426667,113.28 373.04,111.04 C367.653333,108.8 362.986667,105.733333 359.04,101.84 C355.093333,97.9466667 352,93.36 349.76,88.08 C347.52,82.8 346.4,77.1733333 346.4,71.2 C346.4,65.2266667 347.52,59.6 349.76,54.32 C352,49.04 355.093333,44.4533333 359.04,40.56 C362.986667,36.6666667 367.653333,33.6 373.04,31.36 C378.426667,29.12 384.213333,28 390.4,28 C396.8,28 402.64,29.12 407.92,31.36 C413.2,33.6 417.76,36.6933333 421.6,40.64 C425.44,44.5866667 428.4,49.1733333 430.48,54.4 C432.56,59.6266667 433.6,65.2266667 433.6,71.2 L433.6,76 L369.6,76 C370.026667,78.56 370.853333,81.0133333 372.08,83.36 C373.306667,85.7066667 374.853333,87.76 376.72,89.52 C378.586667,91.28 380.693333,92.6666667 383.04,93.68 C385.386667,94.6933333 387.84,95.2 390.4,95.2 C394.026667,95.2 396.986667,94.6933333 399.28,93.68 C401.573333,92.6666667 403.466667,91.5733333 404.96,90.4 C406.56,89.0133333 407.84,87.4133333 408.8,85.6 L432.8,85.6 C431.093333,90.9333333 428.426667,95.7333333 424.8,100 C423.2,101.813333 421.333333,103.573333 419.2,105.28 C417.066667,106.986667 414.613333,108.533333 411.84,109.92 C409.066667,111.306667 405.893333,112.4 402.32,113.2 C398.746667,114 394.773333,114.4 390.4,114.4 Z M409.6,62.4 C409.173333,60.3733333 408.426667,58.4533333 407.36,56.64 C406.293333,54.8266667 404.933333,53.2266667 403.28,51.84 C401.626667,50.4533333 399.706667,49.3333333 397.52,48.48 C395.333333,47.6266667 392.96,47.2 390.4,47.2 C385.173333,47.2 380.826667,48.72 377.36,51.76 C373.893333,54.8 371.573333,58.3466667 370.4,62.4 L409.6,62.4 Z" id="Shape"></path>
                    <path d="M482.4,114.4 C478.026667,114.4 474.08,114 470.56,113.2 C467.04,112.4 463.92,111.306667 461.2,109.92 C458.48,108.533333 456.08,106.986667 454,105.28 C451.92,103.573333 450.186667,101.813333 448.8,100 C445.386667,95.7333333 442.986667,90.9333333 441.6,85.6 L464.8,85.6 C465.653333,87.6266667 466.826667,89.3866667 468.32,90.88 C469.6,92.16 471.36,93.3333333 473.6,94.4 C475.84,95.4666667 478.773333,96 482.4,96 C487.626667,96 491.2,95.28 493.12,93.84 C495.04,92.4 496,90.4533333 496,88 C496,85.8666667 494.746667,84.2666667 492.24,83.2 C489.733333,82.1333333 486.613333,81.1733333 482.88,80.32 C479.146667,79.4666667 475.12,78.56 470.8,77.6 C466.48,76.64 462.453333,75.2 458.72,73.28 C454.986667,71.36 451.866667,68.8 449.36,65.6 C446.853333,62.4 445.6,58.1333333 445.6,52.8 C445.6,49.6 446.346667,46.5066667 447.84,43.52 C449.333333,40.5333333 451.52,37.8933333 454.4,35.6 C457.28,33.3066667 460.853333,31.4666667 465.12,30.08 C469.386667,28.6933333 474.346667,28 480,28 C484.266667,28 488.106667,28.3733333 491.52,29.12 C494.933333,29.8666667 497.946667,30.88 500.56,32.16 C503.173333,33.44 505.44,34.88 507.36,36.48 C509.28,38.08 510.88,39.68 512.16,41.28 C515.253333,45.12 517.333333,49.4933333 518.4,54.4 L496,54.4 C495.36,52.9066667 494.4,51.5733333 493.12,50.4 C491.946667,49.44 490.32,48.5333333 488.24,47.68 C486.16,46.8266667 483.413333,46.4 480,46.4 C475.946667,46.4 473.066667,47.0666667 471.36,48.4 C469.653333,49.7333333 468.8,51.2 468.8,52.8 C468.8,54.9333333 470.053333,56.5333333 472.56,57.6 C475.066667,58.6666667 478.186667,59.6266667 481.92,60.48 C485.653333,61.3333333 489.68,62.24 494,63.2 C498.32,64.16 502.346667,65.6 506.08,67.52 C509.813333,69.44 512.933333,72 515.44,75.2 C517.946667,78.4 519.2,82.6666667 519.2,88 C519.2,91.4133333 518.4,94.6933333 516.8,97.84 C515.2,100.986667 512.853333,103.786667 509.76,106.24 C506.666667,108.693333 502.826667,110.666667 498.24,112.16 C493.653333,113.653333 488.373333,114.4 482.4,114.4 Z" id="Path"></path>
                    <path d="M567.2,114.4 C562.826667,114.4 558.88,114 555.36,113.2 C551.84,112.4 548.72,111.306667 546,109.92 C543.28,108.533333 540.88,106.986667 538.8,105.28 C536.72,103.573333 534.986667,101.813333 533.6,100 C530.186667,95.7333333 527.786667,90.9333333 526.4,85.6 L549.6,85.6 C550.453333,87.6266667 551.626667,89.3866667 553.12,90.88 C554.4,92.16 556.16,93.3333333 558.4,94.4 C560.64,95.4666667 563.573333,96 567.2,96 C572.426667,96 576,95.28 577.92,93.84 C579.84,92.4 580.8,90.4533333 580.8,88 C580.8,85.8666667 579.546667,84.2666667 577.04,83.2 C574.533333,82.1333333 571.413333,81.1733333 567.68,80.32 C563.946667,79.4666667 559.92,78.56 555.6,77.6 C551.28,76.64 547.253333,75.2 543.52,73.28 C539.786667,71.36 536.666667,68.8 534.16,65.6 C531.653333,62.4 530.4,58.1333333 530.4,52.8 C530.4,49.6 531.146667,46.5066667 532.64,43.52 C534.133333,40.5333333 536.32,37.8933333 539.2,35.6 C542.08,33.3066667 545.653333,31.4666667 549.92,30.08 C554.186667,28.6933333 559.146667,28 564.8,28 C569.066667,28 572.906667,28.3733333 576.32,29.12 C579.733333,29.8666667 582.746667,30.88 585.36,32.16 C587.973333,33.44 590.24,34.88 592.16,36.48 C594.08,38.08 595.68,39.68 596.96,41.28 C600.053333,45.12 602.133333,49.4933333 603.2,54.4 L580.8,54.4 C580.16,52.9066667 579.2,51.5733333 577.92,50.4 C576.746667,49.44 575.12,48.5333333 573.04,47.68 C570.96,46.8266667 568.213333,46.4 564.8,46.4 C560.746667,46.4 557.866667,47.0666667 556.16,48.4 C554.453333,49.7333333 553.6,51.2 553.6,52.8 C553.6,54.9333333 554.853333,56.5333333 557.36,57.6 C559.866667,58.6666667 562.986667,59.6266667 566.72,60.48 C570.453333,61.3333333 574.48,62.24 578.8,63.2 C583.12,64.16 587.146667,65.6 590.88,67.52 C594.613333,69.44 597.733333,72 600.24,75.2 C602.746667,78.4 604,82.6666667 604,88 C604,91.4133333 603.2,94.6933333 601.6,97.84 C600,100.986667 597.653333,103.786667 594.56,106.24 C591.466667,108.693333 587.626667,110.666667 583.04,112.16 C578.453333,113.653333 573.173333,114.4 567.2,114.4 Z" id="Path"></path>
                </g>
            </g>
        </g>
    </g>
</svg>