<?xml version="1.0" encoding="UTF-8"?>
<svg width="980px" height="680px" viewBox="0 0 980 680" version="1.1" xmlns="http://www.w3.org/2000/svg" xmlns:xlink="http://www.w3.org/1999/xlink">
    <title>DE Deutsche Post text alt</title>
    <defs>
        <rect id="path-1" x="0" y="0" width="900" height="600" rx="80"></rect>
        <filter x="-6.7%" y="-10.0%" width="113.3%" height="120.0%" filterUnits="objectBoundingBox" id="filter-2">
            <feMorphology radius="2.5" operator="dilate" in="SourceAlpha" result="shadowSpreadOuter1"></feMorphology>
            <feOffset dx="0" dy="0" in="shadowSpreadOuter1" result="shadowOffsetOuter1"></feOffset>
            <feGaussianBlur stdDeviation="17.5" in="shadowOffsetOuter1" result="shadowBlurOuter1"></feGaussianBlur>
            <feColorMatrix values="0 0 0 0 0   0 0 0 0 0   0 0 0 0 0  0 0 0 0.5 0" type="matrix" in="shadowBlurOuter1"></feColorMatrix>
        </filter>
    </defs>
    <g id="DE-Deutsche-Post-text-alt" stroke="none" stroke-width="1" fill="none" fill-rule="evenodd">
        <g transform="translate(40, 40)">
            <g id="Rectangle">
                <use fill="black" fill-opacity="1" filter="url(#filter-2)" xlink:href="#path-1"></use>
                <use fill="#FECC00" fill-rule="evenodd" xlink:href="#path-1"></use>
            </g>
            <g id="Logo" transform="translate(49.5987, 85.2845)" fill="#000000" fill-rule="nonzero">
                <g id="g2017" transform="translate(210.5936, -0)">
                    <polygon id="_225737648" points="124.381912 248.545584 174.746484 248.545584 123.88406 300 73.5375925 300"></polygon>
                    <polygon id="_229043400" points="56.4567252 248.545584 106.821296 248.545584 55.9588726 300 5.59430151 300"></polygon>
                    <polygon id="_226455448" points="236.787959 248.545584 186.441492 248.545584 237.285812 300 287.650383 300"></polygon>
                    <polygon id="_227904456" points="304.73125 248.545584 254.366679 248.545584 305.210999 300 355.57557 300"></polygon>
                    <path d="M273.846279,105.729813 C282.568289,81.9375104 288.644651,45.72039 289.909545,20.3799707 L379.25506,42.5952257 C372.102114,147.466492 293.436972,239.322086 176.757634,239.284089 C44.756113,239.224522 -6.25747184,124.47928 0.605646719,37.5153014 L39.371772,25.1886821 C33.0669039,74.6705751 48.3818449,110.34859 58.9463579,126.724327 C46.3703203,56.7103377 99.2283149,0.0380552007 165.371817,2.36130072e-05 C224.858242,-0.036971634 274.072949,43.4007398 273.845749,105.730342 L273.846279,105.729813 Z M94.0482136,107.936039 L94.0482136,107.936039 C94.0482136,147.429508 126.068459,179.449753 165.561927,179.449753 C205.039359,179.449753 237.053175,147.429508 237.053175,107.936039 C237.053175,68.4586782 205.039253,36.4432372 165.561927,36.4432372 C126.068459,36.4432372 94.0482136,68.4586782 94.0482136,107.936039 Z" id="path2012"></path>
                </g>
                <g id="g2024" transform="translate(0, 319.3195)">
                    <path d="M24.343119,7.57925832 L0,7.57925832 L0,109.376232 L21.1446784,109.376232 C54.3914086,109.376232 71.6005165,89.5420768 71.6005165,57.6068194 C71.6005165,35.432744 63.4298775,21.867821 52.3438454,14.7296973 C45.647376,10.3535571 37.0392178,7.57925832 24.343119,7.57925832 L24.343119,7.57925832 Z M22.7505648,20.272397 C45.7832279,20.272397 54.9822696,35.8745565 54.9822696,57.6070453 C54.9822696,81.8173855 44.4686368,96.6834997 22.7505648,96.6834997 L15.7452424,96.6834997 L15.7452424,20.272397 L22.7505648,20.272397 L22.7505648,20.272397 Z" id="_228277928"></path>
                    <path d="M141.433444,76.2731718 L141.433444,71.1723072 C141.433444,44.9144264 129.916084,33.5463411 113.433757,33.5463411 C94.6218134,33.5463411 83.5316687,49.5870139 83.5316687,72.4838251 C83.5316687,94.3511716 94.0309299,110.394918 115.912648,110.394918 C125.097273,110.394918 132.675989,108.062228 137.497873,105.87879 L136.760789,93.1858098 C132.971442,95.957058 126.998612,99.1730562 118.387381,99.1730562 C104.543478,99.1730562 98.7034948,91.2844704 98.7034948,76.2731718 L141.433444,76.2731718 L141.433444,76.2731718 Z M126.557071,65.9087683 L98.70354,65.9087683 C98.8528145,52.2110892 104.394271,44.3369201 112.992171,44.3369201 C122.030639,44.3369201 126.557071,51.6243183 126.557071,65.9087683 L126.557071,65.9087683 Z" id="_140087096"></path>
                    <path d="M211.72251,109.376819 C211.427057,104.996566 211.131627,100.041858 211.131627,95.0881886 L211.131627,34.5614794 L195.963868,34.5614794 L195.963868,78.4557058 C195.963868,89.9741275 191.596993,97.7134163 181.966623,97.7134163 C174.241751,97.7134163 170.438959,92.7453531 170.438959,81.0807527 L170.438959,34.5614794 L155.280465,34.5614794 L155.280465,84.5891082 C155.280465,100.337424 162.136513,110.395031 177.148783,110.395031 C187.365946,110.395031 192.907426,104.996657 196.551678,97.9944301 L196.847109,97.9944301 C196.847109,100.191245 197.420503,107.475525 197.420503,109.376932 L211.72251,109.376932 L211.72251,109.376819 Z" id="_140081624"></path>
                    <path d="M264.667611,108.211164 L264.667611,96.8297009 C262.766227,97.7129644 260.43661,98.5818111 257.369886,98.5818111 C251.974608,98.5818111 249.49574,95.8105629 249.49574,87.6440366 L249.49574,46.2245885 L264.667611,46.2245885 L264.667611,34.5610727 L249.49574,34.5610727 L249.49574,14.7299685 L234.338285,19.2430453 L234.338285,34.5610501 L222.367995,34.5610501 L222.367995,46.2245659 L234.338285,46.2245659 L234.338285,90.7107152 C234.338285,105.145502 241.179939,110.394601 253.434384,110.394601 C257.811541,110.394601 261.89634,109.376503 264.667611,108.211164 L264.667611,108.211164 Z" id="_227263352"></path>
                    <path d="M318.620258,87.7900796 C318.620258,78.7516108 313.22498,73.9286867 304.185471,68.8288616 L297.621781,65.1856709 C291.061163,61.5455761 287.125638,59.0667078 287.125638,54.0985994 C287.125638,48.8494998 290.765733,45.355561 298.344449,45.355561 C304.477851,45.355561 309.58075,46.8153138 313.666589,48.567424 L314.389257,36.3160978 C311.332837,35.1373813 305.054295,33.5458891 297.180126,33.5458891 C282.008278,33.5458891 272.246101,43.7486578 272.246101,54.9818854 C272.246101,65.6273027 278.218908,70.5850844 287.407646,75.1074259 L295.281815,79.0470864 C302.001966,82.394824 304.036129,85.7528205 304.036129,89.6914642 C304.036129,95.5149969 298.936304,98.5816981 291.061095,98.5816981 C283.764433,98.5816981 277.203815,95.5149969 272.972859,93.3315591 L272.0999,106.455867 C276.762229,108.652682 284.20611,110.394511 292.656723,110.394511 C309.435543,110.394511 318.620258,101.060589 318.620258,87.7901248 L318.620258,87.7900796 Z" id="_224935040"></path>
                    <path d="M380.298138,107.339108 L379.414875,94.4999941 C376.067137,96.3982604 370.671836,98.2893408 365.567899,98.2893408 C352.579488,98.2893408 345.146928,88.0855779 345.146928,72.4834184 C345.146928,54.3941428 352.44359,45.6511044 365.272468,45.6511044 C370.671859,45.6511044 375.048022,47.2425966 378.692207,49.1450207 L379.414875,36.4623443 C375.771684,34.8564354 369.652698,33.5459569 364.257443,33.5459569 C341.211402,33.5459569 329.400646,49.5866298 329.400646,72.3372171 C329.400646,93.4818956 340.046063,110.394534 363.520358,110.394534 C369.948129,110.394534 376.36259,108.934803 380.298138,107.339176 L380.298138,107.339108 Z" id="_138505344"></path>
                    <path d="M447.665891,109.376819 L447.665891,59.3491903 C447.665891,43.5998353 440.809775,33.5463411 425.78824,33.5463411 C415.876835,33.5463411 410.480472,39.0877979 407.268677,44.4830762 L406.973224,44.4830762 L406.973224,-7.83789103e-14 L391.801352,-7.83789103e-14 L391.801352,109.376819 L406.973224,109.376819 L406.973224,65.0398312 C406.973224,53.5224715 411.790996,46.224837 421.27209,46.224837 C429.000103,46.224837 432.49402,51.1929003 432.49402,62.8564386 L432.49402,109.376819 L447.665891,109.376819 L447.665891,109.376819 Z" id="_140175464"></path>
                    <path d="M519.868702,76.2731718 L519.868702,71.1723072 C519.868702,44.9144264 508.340044,33.5463411 491.867953,33.5463411 C473.057049,33.5463411 461.965865,49.5870139 461.965865,72.4838251 C461.965865,94.3511716 472.465149,110.394918 494.346844,110.394918 C503.532509,110.394918 511.111247,108.062228 515.933132,105.87879 L515.196047,93.1858098 C511.406678,95.957058 505.433848,99.1730562 496.822617,99.1730562 C482.964342,99.1730562 477.137691,91.2844704 477.137691,76.2731718 L519.868702,76.2731718 L519.868702,76.2731718 Z M504.992329,65.9087683 L477.137736,65.9087683 C477.273634,52.2110892 482.819226,44.3369201 491.426367,44.3369201 C500.465875,44.3369201 504.992329,51.6243183 504.992329,65.9087683 L504.992329,65.9087683 Z" id="_140088704"></path>
                    <path d="M627.058288,37.4808722 C627.058288,28.1469502 624.288056,20.7030919 619.037917,15.6001484 C613.642639,10.354122 606.491093,7.57977805 596.138055,7.57977805 L569.305741,7.57977805 L569.305741,109.376593 L585.050984,109.376593 L585.050984,68.1064195 L594.532079,68.1064195 C615.821874,68.1064195 627.058288,57.0193479 627.058288,37.4806462 L627.058288,37.4808722 Z M592.20253,19.9804238 C604.589753,19.9804238 611.017547,25.5219033 611.017547,38.0584236 C611.017547,49.2916513 605.618156,55.7050732 592.056306,55.7050732 L585.050984,55.7050732 L585.050984,19.9804238 L592.202462,19.9804238 L592.20253,19.9804238 Z" id="_229157152"></path>
                    <path d="M694.883445,71.895495 C694.883445,44.9139066 680.887194,33.5458213 663.385706,33.5458213 C645.885281,33.5458213 631.877732,44.9139066 631.877732,71.895495 C631.877732,99.31867 645.885281,110.394398 663.385706,110.394398 C680.887194,110.394398 694.883445,99.31867 694.883445,71.895495 Z M679.135129,71.895495 C679.135129,87.4945814 675.04929,99.0232395 663.385774,99.0232395 C651.711954,99.0232395 647.627154,87.4945814 647.627154,71.895495 C647.627154,56.2964087 651.711954,44.9139066 663.385774,44.9139066 C675.04929,44.9139066 679.135129,56.2964087 679.135129,71.895495 L679.135129,71.895495 Z" id="_224862128"></path>
                    <path d="M752.181321,87.7900796 C752.181321,78.7516108 746.786065,73.9286867 737.73623,68.8288616 L731.172539,65.1856709 C724.611922,61.5455761 720.673278,59.0667078 720.673278,54.0985994 C720.673278,48.8494998 724.330863,45.355561 731.909579,45.355561 C738.027503,45.355561 743.131508,46.8153138 747.216308,48.567424 L747.95032,36.3160978 C744.883618,35.1373813 738.619471,33.5458891 730.744285,33.5458891 C715.572414,33.5458891 705.79686,43.7486578 705.79686,54.9818854 C705.79686,65.6273027 711.783044,70.5850844 720.968731,75.1074259 L728.842878,79.0470864 C735.552792,82.394824 737.600333,85.7528205 737.600333,89.6914642 C737.600333,95.5149969 732.486091,98.5816981 724.611922,98.5816981 C717.325563,98.5816981 710.764946,95.5149969 706.533945,93.3315591 L705.650636,106.455867 C710.323291,108.652682 717.755806,110.394511 726.217763,110.394511 C742.995543,110.394511 752.181321,101.060589 752.181321,87.7901248 L752.181321,87.7900796 Z" id="_224865032"></path>
                    <path d="M800,108.211164 L800,96.8297009 C798.098615,97.7129644 795.768999,98.5818111 792.703337,98.5818111 C787.308082,98.5818111 784.829191,95.8105629 784.829191,87.6440366 L784.829191,46.2245885 L800,46.2245885 L800,34.5610727 L784.829191,34.5610727 L784.829191,14.7299685 L769.657319,19.2430453 L769.657319,34.5610501 L757.701446,34.5610501 L757.701446,46.2245659 L769.657319,46.2245659 L769.657319,90.7107152 C769.657319,105.145502 776.512328,110.394601 788.767834,110.394601 C793.144992,110.394601 797.229791,109.376503 800,108.211164 L800,108.211164 Z" id="_23879864"></path>
                </g>
            </g>
        </g>
    </g>
</svg>