<?xml version="1.0" encoding="UTF-8"?>
<svg width="980px" height="680px" viewBox="0 0 980 680" version="1.1" xmlns="http://www.w3.org/2000/svg" xmlns:xlink="http://www.w3.org/1999/xlink">
    <title>DE DB Schenker</title>
    <defs>
        <linearGradient x1="50%" y1="0%" x2="50%" y2="100%" id="linearGradient-1">
            <stop stop-color="#FFFFFF" offset="0%"></stop>
            <stop stop-color="#EDEDED" offset="100%"></stop>
        </linearGradient>
        <rect id="path-2" x="0" y="0" width="900" height="600" rx="80"></rect>
        <filter x="-6.7%" y="-10.0%" width="113.3%" height="120.0%" filterUnits="objectBoundingBox" id="filter-3">
            <feMorphology radius="2.5" operator="dilate" in="SourceAlpha" result="shadowSpreadOuter1"></feMorphology>
            <feOffset dx="0" dy="0" in="shadowSpreadOuter1" result="shadowOffsetOuter1"></feOffset>
            <feGaussianBlur stdDeviation="17.5" in="shadowOffsetOuter1" result="shadowBlurOuter1"></feGaussianBlur>
            <feColorMatrix values="0 0 0 0 0   0 0 0 0 0   0 0 0 0 0  0 0 0 0.5 0" type="matrix" in="shadowBlurOuter1"></feColorMatrix>
        </filter>
    </defs>
    <g id="DE-DB-Schenker" stroke="none" stroke-width="1" fill="none" fill-rule="evenodd">
        <g transform="translate(40, 40)">
            <g id="Rectangle">
                <use fill="black" fill-opacity="1" filter="url(#filter-3)" xlink:href="#path-2"></use>
                <use fill="url(#linearGradient-1)" fill-rule="evenodd" xlink:href="#path-2"></use>
            </g>
            <g id="Logo" transform="translate(50, 232)" fill-rule="nonzero">
                <path d="M783.89252,85.1573513 C781.785913,81.6800566 779.597041,79.5017554 777.204771,78.0287742 C786.93956,74.7983454 791.306759,69.1732977 791.306759,59.2739448 C791.306759,44.2608985 782.184433,36.9689158 763.428413,36.9689158 L734.948195,36.9689158 L734.948195,112.319779 L754.102725,112.319779 C754.102725,112.319779 754.102725,84.0734876 754.102725,82.5899436 C755.002031,82.5899436 756.536141,82.5899436 756.536141,82.5899436 C760.852773,82.5899436 762.406858,83.7455087 765.780708,89.5139683 L779.096246,112.319779 L800,112.319779 L783.89252,85.1573513 Z M754.102725,51.5105538 C755.400541,51.5105538 762.825361,51.5105538 762.825361,51.5105538 C770.280746,51.5105538 772.663596,53.6488971 772.663596,60.2860961 C772.663596,66.8809678 770.004494,69.3366996 762.825361,69.3366996 C762.825361,69.3366996 755.400541,69.3366996 754.102725,69.3366996 L754.102725,51.5105538 M687.495656,97.0410635 L687.495656,81.2603927 C688.948645,81.2603927 712.991142,81.2603927 712.991142,81.2603927 L712.991142,66.6987675 C712.991142,66.6987675 688.948645,66.6987675 687.495656,66.6987675 L687.495656,52.2370526 C688.979218,52.2370526 719.791739,52.2370526 719.791739,52.2370526 L719.791739,36.9689158 L668.362298,36.9689158 L668.362298,112.319779 L721.325849,112.319779 L722.676553,97.0410635 C722.676553,97.0410635 688.979218,97.0410635 687.495656,97.0410635 M629.102214,72.4648742 C629.828713,71.5349944 657.133365,36.9689158 657.133365,36.9689158 L637.232361,36.9689158 C637.232361,36.9689158 615.265906,65.8899861 612.780772,69.1309933 C612.780772,65.1634753 612.780772,36.9689158 612.780772,36.9689158 L593.646235,36.9689158 L593.646235,112.319779 L612.780772,112.319779 C612.780772,112.319779 612.780772,84.4614263 612.780772,80.4527717 C615.265906,83.7255251 636.843244,112.319779 636.843244,112.319779 L659.587934,112.319779 C659.587934,112.319779 629.828713,73.4170629 629.102214,72.4648742 M561.238465,36.9689158 C561.238465,36.9689158 561.238465,73.9883899 561.238465,78.152209 C558.701613,74.7665973 530.404783,36.9689158 530.404783,36.9689158 L514.338449,36.9689158 L514.338449,112.319779 L530.57876,112.319779 C530.57876,112.319779 530.57876,70.951914 530.57876,66.7692965 C533.135605,70.1643023 564.725181,112.319779 564.725181,112.319779 L577.477625,112.319779 L577.477625,36.9689158 L561.238465,36.9689158 M466.876498,97.0410635 L466.876498,81.2603927 C468.318906,81.2603927 492.382575,81.2603927 492.382575,81.2603927 L492.382575,66.6987675 C492.382575,66.6987675 468.318906,66.6987675 466.876498,66.6987675 L466.876498,52.2370526 C468.34948,52.2370526 499.17259,52.2370526 499.17259,52.2370526 L499.17259,36.9689158 L447.732559,36.9689158 L447.732559,112.319779 L500.717263,112.319779 L502.045645,97.0410635 C502.045645,97.0410635 468.34948,97.0410635 466.876498,97.0410635 M412.429403,36.9689158 C412.429403,36.9689158 412.429403,64.714421 412.429403,66.1967954 L385.973491,66.1967954 C385.973491,64.714421 385.973491,36.9689158 385.973491,36.9689158 L366.829533,36.9689158 L366.829533,112.319779 L385.973491,112.319779 C385.973491,112.319779 385.973491,82.7533391 385.973491,81.2603927 L412.429403,81.2603927 C412.429403,82.7533391 412.429403,112.319779 412.429403,112.319779 L431.574521,112.319779 L431.574521,36.9689158 L412.429403,36.9689158 M353.03438,95.2706773 C345.956344,97.9403602 341.355218,98.8714096 335.392798,98.8714096 C322.997719,98.8714096 318.170871,92.1624982 318.170871,74.8994484 C318.170871,56.8899042 322.86487,50.2021606 335.495074,50.2021606 C341.355218,50.2021606 346.479462,51.2554642 352.614716,53.6900383 L353.668006,54.1191211 L353.668006,38.5241795 L353.167211,38.3290295 C347.409332,36.211866 341.640882,35.240845 334.994278,35.240845 C324.675232,35.240845 315.890306,38.176217 309.590486,43.7601125 C301.706017,50.713525 298.034762,60.6340586 298.034762,75.0017264 C298.034762,87.1816667 300.530459,95.8949009 305.899239,102.399262 C312.157912,109.885202 322.006728,113.832718 334.391208,113.832718 C341.324653,113.832718 347.981838,112.410294 353.626851,109.700635 L354.066517,109.506666 L354.066517,94.8827385 L353.03438,95.2706773 M270.882916,67.1678054 C270.893497,67.1795579 269.687384,66.6576143 269.687384,66.6576143 C261.975722,63.3025765 261.668896,63.1791297 259.83855,61.8707476 C257.312279,60.0709736 256.474121,58.6696956 256.474121,56.3279943 C256.474121,52.2064898 259.869124,50.0998945 266.587428,50.0998945 C272.529865,50.0998945 276.87591,51.1226242 283.778791,54.2014147 L284.862645,54.6716387 L284.862645,38.9226994 L284.351269,38.7275494 C277.715256,36.2835702 272.161919,35.240845 265.790416,35.240845 C248.650781,35.240845 238.833709,43.5861312 238.833709,58.1477519 C238.833709,69.1109987 243.721676,75.4119878 256.300135,80.5962021 C269.65564,86.2212406 270.924071,87.6319045 270.924071,91.7428343 C270.924071,96.539108 266.935391,98.9736757 259.081505,98.9736757 C252.311473,98.9736757 247.18839,97.6135601 239.539036,93.7882937 L238.414026,93.2263783 L238.414026,108.984726 L238.863085,109.210421 C245.970517,112.503167 252.178624,113.832718 260.288806,113.832718 C279.034225,113.832718 289.362674,105.487439 289.362674,90.3215709 C289.362674,78.8269762 284.69925,72.9879921 270.882916,67.1678054" id="SCHENKER" fill="#000000"></path>
                <path d="M58.4247215,112.309198 L26.2819323,112.309198 L26.2819323,23.439429 L58.4247215,23.439429 C81.0665296,23.439429 93.1954649,37.8388339 93.1954649,67.4640473 C93.1954649,93.1840629 85.1162104,112.104647 58.4247215,112.309198 Z M72.3839799,69.3155538 C72.3839799,51.4094619 70.5536522,37.4391398 51.5522857,37.4391398 L47.2981925,37.4391398 L47.2981925,97.8992328 L54.7841419,97.8992328 C65.9004406,97.8992328 72.3839799,88.8591893 72.3839799,69.3155538 M136.463835,112.309198 L102.50117,112.309198 L102.50117,23.439429 L138.090818,23.439429 C154.871891,23.439429 163.963643,30.4445741 163.963643,47.1033977 C163.963643,55.7449258 156.886795,61.9119008 149.206877,65.818259 C159.924424,68.8958762 167.195251,75.4930962 167.195251,86.5880171 C167.195251,104.69982 152.233934,112.309198 136.463835,112.309198 Z M123.322282,58.6179759 L130.604869,58.6179759 C137.477176,58.6179759 142.528548,55.5415449 142.528548,47.9215832 C142.528548,39.4857963 136.054743,37.2251915 129.182436,37.2251915 L123.322282,37.2251915 L123.322282,58.6179759 Z M144.952544,86.1800855 C144.952544,77.1294683 139.296922,75.0734296 131.013961,75.0734296 L123.322282,75.0734296 L123.322282,97.8992328 L130.808231,97.8992328 C138.29419,97.8992328 144.952544,95.4352515 144.952544,86.1800855 M172.052654,0 L19.195084,0 C8.69265698,0 1.30867909e-14,8.42639373 1.30867909e-14,19.3285037 L1.30867909e-14,116.215568 C1.30867909e-14,127.116504 8.69265698,135.758036 19.195084,135.758036 L172.052654,135.758036 C182.36111,135.758036 191.063763,127.116504 191.063763,116.215568 L191.063763,19.3285037 C191.063763,8.42639373 182.36111,0 172.052654,0 Z M177.105196,116.215568 C177.105196,119.303763 175.07972,121.779495 172.052654,121.779495 L19.195084,121.779495 C16.1680242,121.779495 13.9486914,119.303763 13.9486914,116.215568 L13.9486914,19.3285037 C13.9486914,16.239146 16.1680242,13.7751831 19.195084,13.7751831 L172.052654,13.7751831 C175.07972,13.7751831 177.105196,16.239146 177.105196,19.3285037 L177.105196,116.215568" id="DB" fill="#EC0016"></path>
            </g>
        </g>
    </g>
</svg>