<?xml version="1.0" encoding="UTF-8"?>
<svg width="980px" height="680px" viewBox="0 0 980 680" version="1.1" xmlns="http://www.w3.org/2000/svg" xmlns:xlink="http://www.w3.org/1999/xlink">
    <title>DE DB Schenker alt</title>
    <defs>
        <linearGradient x1="50%" y1="0%" x2="50%" y2="100%" id="linearGradient-1">
            <stop stop-color="#FFFFFF" offset="0%"></stop>
            <stop stop-color="#EDEDED" offset="100%"></stop>
        </linearGradient>
        <rect id="path-2" x="0" y="0" width="900" height="600" rx="80"></rect>
        <filter x="-6.7%" y="-10.0%" width="113.3%" height="120.0%" filterUnits="objectBoundingBox" id="filter-3">
            <feMorphology radius="2.5" operator="dilate" in="SourceAlpha" result="shadowSpreadOuter1"></feMorphology>
            <feOffset dx="0" dy="0" in="shadowSpreadOuter1" result="shadowOffsetOuter1"></feOffset>
            <feGaussianBlur stdDeviation="17.5" in="shadowOffsetOuter1" result="shadowBlurOuter1"></feGaussianBlur>
            <feColorMatrix values="0 0 0 0 0   0 0 0 0 0   0 0 0 0 0  0 0 0 0.5 0" type="matrix" in="shadowBlurOuter1"></feColorMatrix>
        </filter>
    </defs>
    <g id="DE-DB-Schenker-alt" stroke="none" stroke-width="1" fill="none" fill-rule="evenodd">
        <g transform="translate(40, 40)">
            <g id="Rectangle">
                <use fill="black" fill-opacity="1" filter="url(#filter-3)" xlink:href="#path-2"></use>
                <use fill="url(#linearGradient-1)" fill-rule="evenodd" xlink:href="#path-2"></use>
            </g>
            <g id="Logo" transform="translate(51.414, 50)" fill-rule="nonzero">
                <path d="M775.195804,459.248579 C772.202042,454.306891 769.091371,451.211242 765.691644,449.117945 C779.526045,444.527086 785.732401,436.533162 785.732401,422.464896 C785.732401,401.129406 772.76839,390.766552 746.113651,390.766552 L705.63956,390.766552 L705.63956,497.849917 L732.860636,497.849917 C732.860636,497.849917 732.860636,457.708268 732.860636,455.599959 C734.138666,455.599959 736.318837,455.599959 736.318837,455.599959 C742.453331,455.599959 744.661887,457.242167 749.456566,465.439898 L768.379676,497.849917 L798.086626,497.849917 L775.195804,459.248579 Z M732.860636,411.432108 C734.705002,411.432108 745.256635,411.432108 745.256635,411.432108 C755.851705,411.432108 759.238045,414.470972 759.238045,423.903294 C759.238045,433.275463 755.459115,436.765377 745.256635,436.765377 C745.256635,436.765377 734.705002,436.765377 732.860636,436.765377 L732.860636,411.432108 M638.203338,476.136878 L638.203338,453.710494 C640.268223,453.710494 674.435736,453.710494 674.435736,453.710494 L674.435736,433.016533 C674.435736,433.016533 640.268223,433.016533 638.203338,433.016533 L638.203338,412.464558 C640.311672,412.464558 684.100266,412.464558 684.100266,412.464558 L684.100266,390.766552 L611.01235,390.766552 L611.01235,497.849917 L686.280437,497.849917 L688.199963,476.136878 C688.199963,476.136878 640.311672,476.136878 638.203338,476.136878 M555.218671,441.21092 C556.25112,439.88944 595.054577,390.766552 595.054577,390.766552 L566.772666,390.766552 C566.772666,390.766552 535.55548,431.86715 532.023781,436.473042 C532.023781,430.834684 532.023781,390.766552 532.023781,390.766552 L504.831118,390.766552 L504.831118,497.849917 L532.023781,497.849917 C532.023781,497.849917 532.023781,458.259579 532.023781,452.56276 C535.55548,457.213768 566.21968,497.849917 566.21968,497.849917 L598.542839,497.849917 C598.542839,497.849917 556.25112,442.564104 555.218671,441.21092 M458.775467,390.766552 C458.775467,390.766552 458.775467,443.376034 458.775467,449.293361 C455.170271,444.481967 414.956799,390.766552 414.956799,390.766552 L392.124451,390.766552 L392.124451,497.849917 L415.204042,497.849917 C415.204042,497.849917 415.204042,439.060807 415.204042,433.116764 C418.837651,437.941508 463.730543,497.849917 463.730543,497.849917 L481.853423,497.849917 L481.853423,390.766552 L458.775467,390.766552 M324.674853,476.136878 L324.674853,453.710494 C326.724701,453.710494 360.922301,453.710494 360.922301,453.710494 L360.922301,433.016533 C360.922301,433.016533 326.724701,433.016533 324.674853,433.016533 L324.674853,412.464558 C326.768151,412.464558 370.571795,412.464558 370.571795,412.464558 L370.571795,390.766552 L297.468828,390.766552 L297.468828,497.849917 L372.766976,497.849917 L374.654779,476.136878 C374.654779,476.136878 326.768151,476.136878 324.674853,476.136878 M247.298457,390.766552 C247.298457,390.766552 247.298457,430.196519 247.298457,432.303166 L209.701169,432.303166 C209.701169,430.196519 209.701169,390.766552 209.701169,390.766552 L182.495117,390.766552 L182.495117,497.849917 L209.701169,497.849917 C209.701169,497.849917 209.701169,455.832165 209.701169,453.710494 L247.298457,453.710494 C247.298457,455.832165 247.298457,497.849917 247.298457,497.849917 L274.506157,497.849917 L274.506157,390.766552 L247.298457,390.766552 M162.890413,473.620929 C152.831604,477.414895 146.292807,478.738037 137.819434,478.738037 C120.204416,478.738037 113.344838,469.203803 113.344838,444.670766 C113.344838,419.076864 120.01562,409.572712 137.96478,409.572712 C146.292807,409.572712 153.575022,411.069593 162.294016,414.529439 L163.790878,415.139221 L163.790878,392.976783 L163.079183,392.69945 C154.896489,389.690686 146.698772,388.310738 137.253085,388.310738 C122.58838,388.310738 110.103859,392.482283 101.150996,400.417724 C89.9461414,410.299427 84.7288112,424.397794 84.7288112,444.816116 C84.7288112,462.125394 88.275521,474.508032 95.905254,483.751574 C104.799642,494.390067 118.796089,500 136.396044,500 C146.249371,500 155.710095,497.978551 163.732391,494.127773 L164.357213,493.852118 L164.357213,473.069617 L162.890413,473.620929 M46.1425102,433.683097 C46.1575474,433.699799 44.4435037,432.958049 44.4435037,432.958049 C33.4842299,428.190105 33.0481905,428.014671 30.447031,426.15529 C26.8568717,423.597577 25.6657402,421.606179 25.6657402,418.278317 C25.6657402,412.421124 30.4904805,409.427378 40.0380642,409.427378 C48.4830382,409.427378 54.6593329,410.88081 64.4692233,415.256171 L66.0095213,415.924421 L66.0095213,393.543132 L65.2827891,393.265798 C55.8521527,389.792586 47.9601391,388.310738 38.9054063,388.310738 C14.5477579,388.310738 0.596422974,400.170474 0.596422974,420.864429 C0.596422974,436.444627 7.54286018,445.399151 25.4184837,452.766593 C44.3983921,460.760504 46.2009969,462.76524 46.2009969,468.607406 C46.2009969,475.423534 40.532564,478.883371 29.3711715,478.883371 C19.750077,478.883371 12.4695105,476.95047 1.59878472,471.514269 L0,470.715714 L0,493.110374 L0.638171143,493.431115 C10.7387545,498.110535 19.5612811,500 31.0869035,500 C57.72658,500 72.4046472,488.140274 72.4046472,466.587606 C72.4046472,450.252293 65.7773152,441.954338 46.1425102,433.683097" id="SCHENKER" fill="#000000"></path>
                <path d="M302.971066,291.331632 L219.686751,291.331632 L219.686751,61.1085863 L302.971066,61.1085863 C361.637644,61.1085863 393.064601,98.4112022 393.064601,175.157288 C393.064601,241.786699 372.130662,290.801731 302.971066,291.331632 Z M339.061664,179.055791 C339.061664,132.758192 334.291946,96.6368341 284.775586,96.6368341 L273.689688,96.6368341 L273.689688,252.961125 L293.197599,252.961125 C322.16597,252.961125 339.061664,229.587386 339.061664,179.055791 M505.258329,291.331632 L417.223809,291.331632 L417.223809,61.1085863 L509.475628,61.1085863 C552.973796,61.1085863 576.540499,79.2558804 576.540499,122.411671 C576.540499,144.798124 558.196622,160.774083 538.289529,170.893764 C566.070451,178.866536 584.917139,195.957073 584.917139,224.699203 C584.917139,271.619033 546.135954,291.331632 505.258329,291.331632 Z M471.226746,152.060901 L490.08687,152.060901 C507.88447,152.060901 520.966293,144.090535 520.966293,124.348866 C520.966293,102.493571 504.200715,96.6368341 486.403116,96.6368341 L471.226746,96.6368341 L471.226746,152.060901 Z M528.071943,223.737721 C528.071943,200.071157 513.208742,194.694798 491.440786,194.694798 L471.226746,194.694798 L471.226746,254.382255 L490.900121,254.382255 C510.573521,254.382255 528.071943,247.939162 528.071943,223.737721 M598.096722,0 L201.300222,0 C174.037416,0 151.472515,21.8756851 151.472515,50.1785549 L151.472515,301.706191 C151.472515,330.006013 174.037416,352.440219 201.300222,352.440219 L598.096722,352.440219 C624.856007,352.440219 647.446855,330.006013 647.446855,301.706191 L647.446855,50.1785549 C647.446855,21.8756851 624.856007,0 598.096722,0 Z M611.918607,301.068346 C611.918607,309.07339 606.661187,315.490841 598.803991,315.490841 L202.039677,315.490841 C194.182498,315.490841 188.421893,309.07339 188.421893,301.068346 L188.421893,49.9232475 C188.421893,41.9151912 194.182498,35.5282478 202.039677,35.5282478 L598.803991,35.5282478 C606.661187,35.5282478 611.918607,41.9151912 611.918607,49.9232475 L611.918607,301.068346" id="DB" fill="#EC0016"></path>
            </g>
        </g>
    </g>
</svg>