<?xml version="1.0" encoding="UTF-8"?>
<svg width="980px" height="680px" viewBox="0 0 980 680" version="1.1" xmlns="http://www.w3.org/2000/svg" xmlns:xlink="http://www.w3.org/1999/xlink">
    <title>DE DPD red</title>
    <defs>
        <rect id="path-1" x="0" y="0" width="900" height="600" rx="80"></rect>
        <filter x="-6.7%" y="-10.0%" width="113.3%" height="120.0%" filterUnits="objectBoundingBox" id="filter-2">
            <feMorphology radius="2.5" operator="dilate" in="SourceAlpha" result="shadowSpreadOuter1"></feMorphology>
            <feOffset dx="0" dy="0" in="shadowSpreadOuter1" result="shadowOffsetOuter1"></feOffset>
            <feGaussianBlur stdDeviation="17.5" in="shadowOffsetOuter1" result="shadowBlurOuter1"></feGaussianBlur>
            <feColorMatrix values="0 0 0 0 0   0 0 0 0 0   0 0 0 0 0  0 0 0 0.5 0" type="matrix" in="shadowBlurOuter1"></feColorMatrix>
        </filter>
    </defs>
    <g id="DE-DPD-red" stroke="none" stroke-width="1" fill="none" fill-rule="evenodd">
        <g transform="translate(40, 40)">
            <g id="Rectangle">
                <use fill="black" fill-opacity="1" filter="url(#filter-2)" xlink:href="#path-1"></use>
                <use fill="#DC0032" fill-rule="evenodd" xlink:href="#path-1"></use>
            </g>
            <g id="Logo" transform="translate(55.1874, 133)" fill="#FFFFFF">
                <path d="M521.411934,268.596274 C506.661331,272.71272 487.451254,274.427901 470.98547,274.427901 C428.10719,274.427901 399.978591,252.13049 399.978591,211.309526 C399.978591,172.546331 426.39201,147.505069 464.810801,147.505069 C473.38672,147.505069 482.648723,148.53418 488.137323,151.278479 L488.137323,95.0203815 L521.411934,95.0203815 L521.411934,268.596274 Z M488.137323,180.093138 C482.991766,177.691888 475.787985,176.319734 467.555093,176.319734 C447.317267,176.319734 433.938817,188.669072 433.938817,210.280414 C433.938817,233.26344 448.346378,246.298863 472.014582,246.298863 C476.131028,246.298863 482.648723,246.298863 488.137323,244.926661 L488.137323,180.093138 Z M794.812555,268.596274 C780.061951,272.71272 760.851875,274.427901 744.043048,274.427901 C701.50645,274.427901 673.034354,252.13049 673.034354,211.309526 C673.034354,172.546331 699.448227,147.505069 737.868379,147.505069 C746.787356,147.505069 755.706317,148.53418 761.194918,151.278479 L761.194918,95.0203815 L794.812555,95.0203815 L794.812555,268.596274 Z M761.194918,180.093138 C756.04936,177.691888 749.188606,176.319734 740.955714,176.319734 C720.373483,176.319734 706.995034,188.669072 706.995034,210.280414 C706.995034,233.26344 721.745637,246.298863 745.415202,246.298863 C749.531648,246.298863 755.706317,246.298863 761.194918,244.926661 L761.194918,180.093138 Z M573.896622,180.093138 C579.385206,177.691888 587.275071,177.005803 593.792767,177.005803 C614.374997,177.005803 628.439532,188.669072 628.439532,209.594345 C628.439532,234.292552 612.659817,245.612778 591.734544,245.955821 L591.734544,274.427901 L593.449741,274.427901 C636.672424,274.427901 662.400212,250.758336 662.400212,208.565234 C662.400212,170.145065 634.957228,147.505069 594.478852,147.505069 C573.896622,147.505069 553.657418,152.30759 540.278968,157.795727 L540.278968,320.737465 L573.896622,320.737465 L573.896622,180.093138 Z" id="path7"></path>
                <path d="M147.50507,5.68434189e-14 L147.535208,0.0339175641 C149.016003,0.134054566 150.333524,0.467419537 151.638486,1.1847267 L151.964552,1.3721395 L154.022775,2.40124194 L154.13,2.527 L160.628,5.992 L160.196987,5.48854894 L168.519,10.052 L168.429877,9.94798653 L179.064035,15.7795727 L179.174,15.907 L187.296927,20.2390565 L187.346,20.297 L195.872846,24.6984932 L196.197,25.076 L204.105738,29.1579316 L204.214,29.284 L212.33863,33.6174138 L212.389,33.677 L220.914111,38.0768522 L221.023,38.203 L229.147003,42.536289 L229.257,42.664 L237.379895,46.995635 L237.431,47.055 L245.95583,51.4551188 L246.064,51.582 L254.188722,55.9146009 L254.295,56.04 L262.421614,60.3740847 L262.471,60.432 L270.997532,64.8335685 L271.103,64.958 L279.229971,69.2930506 L279.291,69.365 L285.747683,72.7234229 L283.324,74.069 L283.346417,74.0955721 L280.241,75.789 L280.259082,75.8107574 L277.154,77.504 L277.172202,77.5259427 L274.066,79.22 L274.084867,79.2411297 L271.212,80.807 L271.340575,80.956315 L268.149,82.551 L268.253241,82.6715003 L265.147,84.365 L265.165906,84.3866873 L262.06,86.08 L262.078571,86.1018726 L258.973,87.796 L258.991237,87.8170579 L255.217833,90.2183186 L255.079,90.057 L252.130499,91.933504 L252.081,91.876 L249.043164,93.6482339 L249.026,93.628 L246.298856,95.3634192 L246.159,95.202 L243.845,96.674 L243.897607,96.7355684 L240.792,98.429 L240.810272,98.4507537 L237.704,100.144 L237.722938,100.165939 L234.85,101.732 L234.978629,101.881126 L231.788,103.476 L231.891295,103.596311 L228.785,105.29 L228.80396,105.311497 L225.698,107.005 L225.716626,107.026684 L222.611,108.72 L222.629291,108.741869 L219.523,110.436 L219.541957,110.457054 L216.436,112.151 L216.454622,112.172241 L213.582,113.738 L213.710784,113.887426 L210.605,115.581 L210.623449,115.602612 L207.518,117.296 L207.536115,117.317799 L203.762711,119.719058 L203.623,119.557 L200.675377,121.434245 L200.537,121.272 L197.588042,123.14943 L197.45,122.987 L194.500708,124.864615 L194.483,124.844 L191.7564,126.579802 L191.631,126.434 L190.38431,127.265871 C189.760508,127.577728 189.420386,127.889585 189.105932,128.459163 L189.012108,128.638025 L188.963189,128.580615 C188.474393,129.421073 188.058089,130.376906 187.992099,131.170202 L187.982996,131.382317 L187.982996,140.644326 C188.062171,140.802651 188.123075,140.960975 188.178355,141.123516 L188.33997,141.628001 C188.453329,141.978377 188.594781,142.362479 188.865505,142.814033 L189.012108,143.045587 L189.208325,143.251066 L189.388079,143.454486 L189.388079,143.454486 L189.869716,144.031816 C190.075543,144.271941 190.281367,144.484624 190.531084,144.647911 L190.727288,144.760772 L197.485,148.874 L196.901957,148.191144 L198.617154,149.563292 L198.96018,149.563292 L199.147324,149.783699 C200.397763,150.21069 201.999672,150.172804 203.187789,149.670042 L203.419669,149.563292 L203.477497,149.627728 C203.540873,149.602335 203.604251,149.582161 203.667634,149.571533 L203.762711,149.563292 L205.868,148.247 L205.820934,148.191144 L208.926,146.496 L208.908269,146.475957 L212.013,144.781 L211.995604,144.760772 L214.867,143.194 L214.739895,143.045587 L217.844,141.351 L217.826776,141.3304 L220.932,139.636 L220.914111,139.615214 L224.019,137.921 L224.001445,137.900029 L227.106,136.205 L227.08878,136.184842 L230.194,134.49 L230.176114,134.469657 L233.949518,132.068396 L233.966,132.088 L236.693826,130.353211 L236.832,130.514 L239.781161,128.638025 L239.919,128.799 L242.868495,126.922838 L243.006,127.084 L245.95583,125.207653 L246.093,125.369 L248.409,123.896 L248.357079,123.835504 L251.229,122.269 L251.101387,122.120319 L254.206,120.426 L254.188722,120.405133 L257.294,118.71 L257.276056,118.689946 L260.381,116.995 L260.363391,116.974761 L263.468,115.28 L263.450726,115.259576 L266.556,113.565 L266.53806,113.544389 L269.41,111.977 L269.282352,111.829203 L272.471,110.234 L272.369687,110.114018 L275.475,108.419 L275.457021,108.398831 L278.561,106.704 L278.543902,106.683646 L281.649,104.989 L281.631236,104.968461 L284.736,103.274 L284.718571,103.253274 L288.491974,100.852014 L288.625,101.016 L291.57926,99.1368276 L291.626,99.207 L292.951463,98.4507586 L292.951463,245.955821 C292.951463,246.722571 292.761033,247.48932 292.52207,248.25607 L292.608421,248.357091 C292.333636,249.456202 291.838755,250.555291 291.123768,251.654427 L291.236266,251.787447 C291.064748,251.958966 290.893229,252.140015 290.721711,252.325829 L289.949877,253.178075 C289.435321,253.746238 288.920766,254.292959 288.40621,254.689577 L288.15,254.872 L287.805906,255.217776 L285.747683,256.246936 L282.875,257.813 L283.003374,257.962117 L279.898,259.655 L279.91604,259.677313 L276.811,261.371 L276.829175,261.392494 L273.723,263.086 L273.741841,263.107674 L269.968421,265.50894 L269.83,265.347 L266.881086,267.22412 L266.864,267.204 L264.136794,268.939317 L263.997,268.778 L261.683,270.25 L261.735529,270.311455 L258.63,272.005 L258.648194,272.0267 L255.542,273.72 L255.560865,273.741837 L252.688,275.308 L252.816568,275.457012 L249.711,277.151 L249.729233,277.172209 L246.623,278.865 L246.641899,278.886936 L243.536,280.581 L243.554564,280.602116 L240.449,282.296 L240.46723,282.317313 L236.693826,284.718562 L236.676,284.698 L233.949518,286.433759 L233.811,286.272 L230.862183,288.148939 L230.724,287.987 L228.408,289.46 L228.460934,289.521093 L225.355,291.215 L225.373599,291.236274 L222.501,292.802 L222.629291,292.951454 L219.523,294.645 L219.541957,294.666651 L216.436,296.36 L216.454622,296.381831 L213.349,298.076 L213.367741,298.097012 L210.262,299.791 L210.280407,299.812209 L206.507003,302.213458 L206.49,302.193 L203.762711,303.928655 L203.623,303.767 L200.675377,305.643835 L200.537,305.482 L198.223,306.955 L198.274111,307.015989 L195.168,308.71 L195.186777,308.73117 L192.315,310.297 L192.442485,310.44635 L189.337,312.14 L189.35515,312.161547 L186.249,313.855 L186.267822,313.876727 L183.162,315.57 L183.180475,315.591956 L180.075,317.286 L180.093142,317.307153 L177.221,318.873 L177.348838,319.022285 L173.575435,321.42355 L173.435,321.262 L170.4881,323.138796 L170.349,322.977 L167.400766,324.853911 L167.261,324.692 L164.947,326.165 L164.9995,326.226065 L161.894,327.92 L161.912174,327.941246 L159.04,329.507 L159.167875,329.656442 L156.062,331.35 L156.080541,331.371623 L152.975,333.065 L152.993663,333.086868 L151.964552,333.772889 L148.877217,334.802 L148.756205,334.663769 C148.122803,334.778962 147.489401,334.79816 146.855999,334.802 L144.417735,334.802 L144.359715,334.736534 C143.353779,334.618894 142.309257,334.342714 141.549471,333.908044 L141.3304,333.772889 L136.527879,331.02858 L136.509,331.007 L127.608913,325.883023 L127.589,325.861 L120.433,321.741 L120.74817,322.109619 L111.567,316.658 L111.829203,316.964062 L100.852014,310.44635 L100.588,310.138 L91.590467,304.957766 L91.573,304.937 L82.6715011,299.812209 L82.653,299.791 L73.7525351,294.666651 L73.735,294.646 L64.8335676,289.521093 L64.815,289.5 L57.658,285.379 L57.9728247,285.747674 L48.79,280.295 L49.0538588,280.602116 L37.7338152,274.084874 L37.285,273.559 L28.814893,268.939317 L28.227,268.247 L19.8960195,263.450717 L19.878,263.43 L13.071,259.511 L5.1455118,255.217825 C4.06956712,254.545355 3.04635222,253.503765 2.19991224,252.279126 L2.05820935,252.13049 L2.18619429,252.25924 C0.953765429,250.469221 0.0992264233,248.291519 0.00808143768,246.304394 L3.36619621e-13,245.955821 L3.36619621e-13,98.4507537 L2.7442791,99.822903 L3.197,100.35 L9.361,103.712 L9.26195787,103.596311 L10.541,104.356 L11.6631724,104.968461 L11.757,105.078 L18.444,109.048 L18.1808326,108.741869 L27.362,114.193 L27.0997531,113.887426 L38.0768513,120.062096 L38.288,120.309 L45.292,124.249 L44.9375488,123.835504 L55.9146017,130.353211 L55.931,130.373 L62.772,134.311 L73.7525351,140.301288 L74.284,140.922 L80.624,144.488 L80.2702403,144.074698 L89.453,149.527 L89.1892079,149.220256 L98.37,154.671 L98.1077168,154.365813 L109.084906,160.540024 L109.533,161.065 L115.704,164.431 L115.602613,164.313439 L117.657,165.496 L118.003872,165.685576 L118.02,165.706 L126.922839,170.831134 L127.003,170.925 L132.06839,173.918469 C132.711595,174.240071 133.354786,175.164706 133.432672,175.844293 L133.440544,175.976692 L133.440544,287.119828 C133.440544,288.760435 134.382109,290.401102 135.66483,291.141041 L143.388623,295.35272 L143.441,295.414 L144.074686,295.69586 C144.698389,296.007613 145.322094,296.319501 146.203527,296.373632 L146.475947,296.38188 L146.818989,296.38188 C146.956564,296.38188 147.149308,296.326699 147.352972,296.260597 L147.162032,296.038854 C147.771871,296.038854 148.381723,296.038854 148.991565,295.79789 L149.220255,295.695762 L151.621516,294.323608 L151.67,294.38 L154.708393,292.608428 L154.747,292.653 L157.109647,291.236322 L157.263933,291.177228 C157.325375,291.150713 157.386694,291.120701 157.447744,291.087412 L157.451224,291.034552 L157.451224,291.034552 L157.452685,290.893231 L157.561488,291.02144 C158.233539,290.608345 158.861296,289.809897 159.245181,288.925413 L159.167882,288.835008 C159.241915,288.760986 159.315948,288.670977 159.386534,288.568435 L159.453446,288.35841 L159.453446,288.35841 L159.510906,288.148939 L159.582061,288.231664 C159.715346,287.958339 159.815301,287.640598 159.844918,287.315484 L159.853951,287.119828 L159.853956,162.598247 C159.853956,162.483905 159.81584,162.369561 159.765019,162.255216 L159.59985,161.912177 C159.574439,161.855004 159.552205,161.79783 159.536324,161.740656 L159.510913,161.569135 L159.776717,161.879186 C159.485138,160.498741 158.411057,159.214064 157.295785,158.581155 L157.109652,158.481801 L154.537,156.766 L145.103809,151.621515 L144.652,151.094 L136.184843,146.475957 L135.654,145.856 L129.314,142.29 L129.667136,142.702549 L120.487,137.252 L120.74817,137.556991 L111.568,132.106 L111.829203,132.411434 L100.852014,126.236765 L100.64,125.988 L91.9335047,121.091207 L91.483,120.565 L85.314,117.2 L85.4157979,117.317799 L83.354,116.131 L83.0145388,115.94565 L82.997,115.925 L74.0955712,110.800092 L74.077,110.779 L66.794,106.585 L56.6006755,100.852014 L56.389,100.605 L47.6817095,95.7064569 L47.47,95.459 L40.472,91.523 L40.8211028,91.933504 L29.8440046,85.4157988 L29.827,85.395 L22.986,81.456 L12.0062095,75.4677197 L11.572,74.937 L7.54677206,72.7234277 L9.055,71.861 L8.9189208,71.6943114 L13.035321,69.6360883 L13.217,69.848 L15.454,68.627 L15.4365813,68.6069768 L18.541,66.912 L18.5238703,66.8917915 L21.629,65.197 L21.6112048,65.1766046 L24.716,63.482 L24.698494,63.4614192 L27.803,61.767 L27.7858285,61.7462339 L31.5591915,59.6880109 L31.741,59.9 L33.978,58.679 L33.9604506,58.6588994 L37.065,56.964 L37.0477398,56.9437124 L40.153,55.249 L40.1350743,55.2285271 L43.24,53.534 L43.2223635,53.5133418 L46.327,51.819 L46.3095603,51.7981549 L50.0829703,49.7399318 L50.264,49.952 L52.502,48.731 L52.4842294,48.7108203 L55.589,47.016 L55.5715639,46.995635 L58.676,45.301 L58.6588985,45.2805858 L61.764,43.586 L61.746233,43.5654005 L64.851,41.871 L64.8335676,41.8502152 L68.6069776,39.7920375 L68.788,40.004 L71.026,38.783 L71.0082367,38.762926 L74.113,37.068 L74.0955712,37.0477407 L77.2,35.353 L77.1829058,35.3325537 L80.373,33.737 L80.2702403,33.6174138 L83.46,32.022 L83.3575749,31.9022285 L87.4740209,29.8440054 L87.576,29.964 L89.635,28.934 L89.532244,28.8148939 L92.722,27.219 L92.6195785,27.099754 L95.809,25.504 L95.706456,25.384567 L98.896,23.789 L98.7937906,23.6693817 L101.984,22.074 L101.881125,21.9541964 L105.997571,19.8960188 L106.179,20.108 L108.416,18.887 L108.398832,18.8669072 L111.504,17.172 L111.486166,17.1517219 L114.591,15.457 L114.573501,15.4365813 L117.678,13.742 L117.660836,13.7213954 L121.434244,11.6631723 L121.572,11.824 L124.521578,9.94798653 L124.704,10.16 L126.94,8.939 L126.922839,8.91892071 L130.028,7.224 L130.010174,7.20373491 L133.115,5.509 L133.097508,5.48854894 L136.202,3.794 L136.184843,3.77338145 L139.958251,1.71517219 L140.164,1.955 L141.3304,1.3721395 C141.480908,1.22163199 141.763486,1.07112532 142.091217,0.920618907 L142.430778,0.770112554 L142.430778,0.770112554 L142.359512,0.686069752 L142.979675,0.532202816 L142.979675,0.532202816 L143.190704,0.43789093 L143.190704,0.43789093 L143.388623,0.343034471 L143.453426,0.419030047 C144.317005,0.218382668 145.180584,0.0538434144 146.044167,0.0109270435 L146.475958,5.68434189e-14 L147.50507,5.68434189e-14 Z" id="Path"></path>
            </g>
        </g>
    </g>
</svg>