<?xml version="1.0" encoding="UTF-8"?>
<svg width="980px" height="680px" viewBox="0 0 980 680" version="1.1" xmlns="http://www.w3.org/2000/svg" xmlns:xlink="http://www.w3.org/1999/xlink">
    <title>DE DHL Packstation alt</title>
    <defs>
        <rect id="path-1" x="0" y="0" width="900" height="600" rx="80"></rect>
        <filter x="-6.7%" y="-10.0%" width="113.3%" height="120.0%" filterUnits="objectBoundingBox" id="filter-2">
            <feMorphology radius="2.5" operator="dilate" in="SourceAlpha" result="shadowSpreadOuter1"></feMorphology>
            <feOffset dx="0" dy="0" in="shadowSpreadOuter1" result="shadowOffsetOuter1"></feOffset>
            <feGaussianBlur stdDeviation="17.5" in="shadowOffsetOuter1" result="shadowBlurOuter1"></feGaussianBlur>
            <feColorMatrix values="0 0 0 0 0   0 0 0 0 0   0 0 0 0 0  0 0 0 0.5 0" type="matrix" in="shadowBlurOuter1"></feColorMatrix>
        </filter>
    </defs>
    <g id="DE-DHL-Packstation-alt" stroke="none" stroke-width="1" fill="none" fill-rule="evenodd">
        <g transform="translate(40, 40)">
            <g id="Rectangle">
                <use fill="black" fill-opacity="1" filter="url(#filter-2)" xlink:href="#path-1"></use>
                <use fill="#FECC00" fill-rule="evenodd" xlink:href="#path-1"></use>
            </g>
            <g id="Logo" transform="translate(0, 201)" fill-rule="nonzero">
                <polygon id="Path" fill="#FECC00" points="900 0 900 198.62189 0 198.62189 0 0 900 0"></polygon>
                <path d="M290.179689,82.9904181 C286.246785,88.3162255 279.66634,97.5749368 275.661743,102.98268 C273.628718,105.73264 269.956984,110.725584 282.129526,110.725584 C295.008763,110.725584 346.218449,110.725584 346.218449,110.725584 C346.218449,110.725584 356.547443,96.6736464 365.207001,84.9210233 C376.985229,68.9333591 366.226074,35.6675467 324.116348,35.6675467 C286.426019,35.6675467 158.278899,35.6675467 158.278899,35.6675467 L129.52466,74.7354166 C129.52466,74.7354166 278.590937,74.7354166 286.241664,74.7354166 C294.153561,74.7354166 294.04602,77.7465462 290.179689,82.9904181 Z M243.097503,120.363247 C230.924961,120.363247 234.596695,115.360061 236.62972,112.610101 C240.634317,107.202358 247.322302,98.040945 251.255206,92.7151376 C255.126659,87.4712657 255.229078,84.4601361 247.306939,84.4601361 C239.661333,84.4601361 175.633862,84.4601361 175.633862,84.4601361 L117.884699,162.944102 C117.884699,162.944102 221.026128,162.944102 258.716458,162.944102 C305.230216,162.944102 331.126955,131.306757 339.110545,120.368368 C339.110545,120.363247 255.971618,120.363247 243.097503,120.363247 Z M334.711633,162.944102 L417.32822,162.944102 L448.648064,120.358126 L366.041719,120.368368 C366.016114,120.363247 334.711633,162.944102 334.711633,162.944102 Z M547.871953,35.6675467 L516.183399,78.7092883 L479.312425,78.7092883 L510.985616,35.6675467 L428.394633,35.6675467 L373.139381,110.725584 L575.212805,110.725584 L630.452694,35.6675467 L547.871953,35.6675467 Z M454.199194,162.944102 L536.785056,162.944102 L568.120263,120.368368 L485.534402,120.368368 C485.503676,120.363247 454.199194,162.944102 454.199194,162.944102 Z M0,137.160025 L0,146.203655 L115.057924,146.203655 L121.704941,137.160025 L0,137.160025 Z M134.07208,120.363247 L0,120.363247 L0,129.396636 L127.4097,129.396636 L134.07208,120.363247 Z M0,162.944102 L102.731752,162.944102 L109.348044,153.951681 L0,153.951681 L0,162.944102 Z M778.755946,146.198534 L900,146.198534 L900,137.154904 L785.413205,137.154904 L778.755946,146.198534 Z M766.440016,162.944102 L900,162.944102 L900,153.951681 L773.051187,153.951681 L766.440016,162.944102 Z M797.759861,120.363247 L791.117964,129.406878 L900,129.406878 L900,120.363247 L797.759861,120.363247 L797.759861,120.363247 Z M689.584519,110.725584 L744.83465,35.6675467 L657.363384,35.6675467 C657.332658,35.6675467 602.072285,110.725584 602.072285,110.725584 L689.584519,110.725584 Z M594.989986,120.363247 C594.989986,120.363247 588.952364,128.613128 586.018049,132.587 C575.648087,146.59797 584.819742,162.944102 618.669345,162.944102 C657.773061,162.944102 751.307554,162.944102 751.307554,162.944102 L782.642761,120.368368 L594.989986,120.368368 L594.989986,120.363247 Z" id="Shape" fill="#D50029"></path>
            </g>
            <g id="Group" transform="translate(47, 403)" fill-rule="nonzero">
                <path d="M182.183947,92 C180.663184,91.6605439 179.128842,91.2939314 177.594501,90.9816318 C171.44206,89.8008835 165.887068,86.5292908 161.870896,81.7212706 C158.71287,77.9673491 156.667049,73.4054027 155.964361,68.5503756 C154.899946,61.0877796 155.455682,53.4834552 157.59375,46.2549019 C159.918466,37.6940955 163.874242,29.6626711 169.243882,22.6016038 C174.402307,15.9256895 180.900734,10.4031829 188.321312,6.3891826 C194.119587,3.25509043 200.434525,1.18997249 206.964239,0.292551827 C208.475842,0.147406076 209.995081,0.0975206227 211.51295,0.143191162 L219.306861,0.143191162 C224.687598,0.360706928 229.983644,1.55703372 234.935418,3.67353415 C236.293242,4.28455505 236.374712,4.35244626 235.872317,5.81889642 C234.134302,10.8337939 232.378182,15.8396392 230.603959,20.8364324 C230.142298,22.1127871 230.087986,22.1942566 228.879522,21.3659838 C225.778732,19.3831855 222.310924,18.0440854 218.682262,17.4282935 C210.1729,15.7560853 201.362154,17.9886725 194.67593,23.5113461 C189.013666,28.2272749 184.703188,34.3603364 182.183947,41.2852652 C180.85455,44.5569747 179.942165,47.9829779 179.468298,51.4825251 C178.843699,56.520053 178.830121,61.5575809 181.355674,66.2692309 C183.273982,69.9726425 186.674665,72.6872665 190.711083,73.7372642 C194.10003,74.540317 197.60941,74.701509 201.057704,74.2125026 C205.965453,73.674448 210.75818,72.3685901 215.260545,70.3427036 C215.667892,70.1661865 216.102396,69.8538869 216.509743,70.13903 C216.917091,70.4241731 216.76773,71.0487722 216.645526,71.4968542 C215.559266,75.914309 214.463955,80.3227117 213.359591,84.7220622 C213.152903,85.3176282 213.002878,85.9313697 212.911509,86.5551249 C212.843618,88.5375482 211.635154,89.2707733 209.924296,89.5830729 C205.739143,90.5651395 201.486308,91.2323399 197.201483,91.5790745 C196.883575,91.5877381 196.577691,91.7024446 196.332475,91.9049523 L182.183947,92 Z M261.657399,36.9945406 C266.029593,32.2693123 270.469678,27.6119752 274.665355,22.723808 C276.145383,20.9993713 277.788351,19.4242952 279.295535,17.7134366 C283.545525,12.9610518 287.890563,8.29013651 292.208444,3.59206469 C292.685262,3.16433165 293.138535,2.71105818 293.566268,2.23424047 C294.074303,1.57041798 294.895297,1.22446429 295.725209,1.32449824 L317.19241,1.32449824 C317.508294,1.28995834 317.827002,1.28995834 318.142887,1.32449824 C318.781064,1.46028066 319.052629,1.78615847 318.550234,2.37002289 C318.305825,2.65516598 318.034261,2.91315258 317.762696,3.18471743 C314.232353,6.72863865 310.62054,10.1910904 307.198823,13.8300594 C302.989568,18.2837228 298.522326,22.5065562 294.367384,27.0145326 C289.587843,32.1742646 284.523159,37.0216971 279.580679,42.0184903 C278.735331,42.6989271 278.490565,43.8829113 278.996814,44.8427647 C280.910618,49.8029409 282.775454,54.7818719 284.59105,59.7788311 C288.112341,69.3198094 291.620053,78.8653137 295.114188,88.415344 C295.242846,88.7063959 295.351719,89.0057973 295.440065,89.311508 C295.616583,90.0039984 295.317861,90.4113457 294.598214,90.4520804 L271.37942,90.4520804 C269.261214,90.4520804 269.234058,90.4520804 268.663772,88.4289223 C265.948123,78.9603614 263.205318,69.4963265 260.435357,60.0368177 C259.647819,57.3211693 258.873859,54.6055208 258.072743,51.8898724 C257.991273,51.6047293 257.814756,51.1159126 257.665396,51.1159126 C257.298783,51.1159126 257.258048,51.5368381 257.176579,51.8355594 C256.280415,54.9178204 255.397829,58.0136596 254.46093,61.1094989 L248.798803,80.5806983 C248.011265,83.2963467 247.264462,86.0119952 246.449767,88.7276436 C245.933794,90.4385021 245.879481,90.4385021 244.03284,90.4385021 L225.620744,90.4385021 C223.801259,90.4385021 223.611164,90.207672 224.113559,88.469657 C225.471383,83.9209459 226.829207,79.3993912 228.187032,74.8914148 C230.90268,65.3866452 233.618329,55.9497668 236.333977,46.485732 C238.194196,40.0496451 240.108728,33.6271366 241.955369,27.1910497 L246.028842,12.7981129 C246.979319,9.47144359 248.024844,6.15835248 248.921008,2.80452664 C248.97812,2.33907509 249.220896,1.91645347 249.594201,1.63263945 C249.967506,1.34882544 250.439658,1.2279059 250.903431,1.29734175 L269.91297,1.29734175 C271.596672,1.29734175 271.678142,1.4738589 271.270794,3.048935 L265.160585,24.5568707 C264.155795,28.0781616 263.128375,31.5904002 262.078324,35.0935867 C261.832114,35.6990587 261.689809,36.3417272 261.657399,36.9945406 L261.657399,36.9945406 Z M105.168157,70.8043638 L92.621861,70.8043638 C91.6134681,70.7160446 90.6540708,71.2550318 90.2049338,72.1621881 C86.796795,77.8514716 83.2800303,83.4728639 79.8718915,89.1621474 C79.4180061,90.0714757 78.4536846,90.6102028 77.4413861,90.5199716 L58.4454252,90.5199716 C57.8344043,90.5199716 57.6307307,90.1805155 57.929452,89.6509641 C58.2281733,89.1214126 58.6898336,88.2931399 59.0971808,87.6956972 C62.0572376,83.0655166 65.0308727,78.4489142 67.9773513,73.8051554 C73.4086482,65.3323322 78.7901582,56.8504569 84.1218813,48.3595294 L94.3870324,32.2014211 C96.5188165,28.8475953 98.623444,25.4123 100.755228,22.1127871 C104.312728,16.5185513 107.879279,10.9288416 111.454883,5.34365794 C111.981323,4.63453674 112.436155,3.87496587 112.812707,3.07609149 C113.41015,1.54175011 114.537144,1.32449824 115.990016,1.33750255 L136.764727,1.33750255 C138.013925,1.33750255 138.326224,1.69111078 138.489163,2.8859961 C138.50979,3.07099223 138.50979,3.2577079 138.489163,3.44270403 C138.299068,8.12719761 138.815041,12.7845347 138.97798,17.4418718 C139.168075,22.7916992 139.484901,28.1370006 139.928457,33.4777759 C140.172865,36.4242545 139.928457,39.4114678 140.104974,42.3579463 C140.485165,47.6398826 140.5259,52.935397 141.109764,58.203755 C141.129779,58.3933236 141.129779,58.5844727 141.109764,58.7740412 C140.919669,63.3227524 141.489955,67.844307 141.571424,72.3522835 C141.652894,76.4936473 142.046663,80.6485895 142.263915,84.8035316 L142.263915,88.2116704 C142.263915,90.4385021 142.263915,90.4656586 140.077818,90.4792369 L122.073068,90.4792369 C119.533937,90.4792369 119.466046,90.4792369 119.466046,87.9672621 L119.466046,72.0399839 C119.466046,70.9944592 119.221638,70.6821597 118.244004,70.6821597 C113.912545,70.8179421 109.540351,70.8043638 105.168157,70.8043638 Z M109.445303,55.1893853 L116.234424,55.1893853 C119.791924,55.1893853 119.35742,55.8139844 119.66972,51.8898724 C119.995597,47.6941955 119.859815,43.4442057 120.104223,39.2349506 C120.240006,37.0895883 120.104223,34.9306478 120.28074,32.7988638 C120.674509,28.8204388 120.416523,24.8555921 120.525149,20.8771671 C120.490863,20.7128535 120.426409,20.5563211 120.335053,20.4155068 C120.199271,20.5241328 120.009176,20.6056022 119.927706,20.7413847 C119.289529,21.7597528 118.651351,22.778121 118.053909,23.8236457 C114.197688,30.4090931 110.368624,37.0216971 106.512403,43.6071446 C104.462088,47.0967529 102.43893,50.5592046 100.320724,54.0352347 C99.7640164,54.9992899 99.8590641,55.175807 101.040371,55.175807 C103.864646,55.2029635 106.648185,55.1893853 109.445303,55.1893853 L109.445303,55.1893853 Z M39.598825,58.2716462 L32.9590645,58.2716462 C32.4910842,58.1899373 32.0100539,58.3033504 31.6278622,58.5855054 C31.2456705,58.8676603 30.9956321,59.2939624 30.9359064,59.7652529 C30.0804771,62.8610921 29.1571567,65.9433531 28.220258,69.0391924 C26.3645648,75.5476965 24.5088717,82.0471484 22.6531786,88.5375482 C22.1100489,90.4520804 22.001423,90.5335498 20.0461561,90.5335498 L1.41680775,90.5335498 C0.0589835198,90.4520804 -0.199003083,90.1669373 0.126874731,88.8905825 C0.629269694,86.9353156 1.2402906,85.0072052 1.79699853,83.0655166 C4.51264698,73.560747 7.22829543,64.0559774 9.94394388,54.4833167 C12.2386668,46.5264667 14.5741245,38.583195 16.8688474,30.6399233 C18.8241143,23.9051151 20.7748551,17.1703069 22.7210698,10.4354988 C23.4542949,7.88278925 24.2146765,5.34365794 24.8800104,2.77737016 C24.9251382,2.32900115 25.1569949,1.92036425 25.5187389,1.65164018 C25.8804828,1.38291612 26.3386672,1.27895108 26.7809643,1.36523296 C37.4263062,1.36523296 48.0852264,1.2158723 58.7169901,1.4738589 C63.2362356,1.51513002 67.6825939,2.61741761 71.6977896,4.69190232 C76.455309,7.05374003 79.7130567,11.642117 80.3742864,16.9123203 C81.1210898,21.6239704 80.1570346,26.0776339 78.8806798,30.4905626 C76.8340891,37.9252656 72.6114948,44.5783342 66.7553095,49.5951494 C63.6917793,52.2308004 60.1774612,54.2915523 56.3815324,55.678202 C51.0171463,57.656794 45.3102305,58.5386879 39.598825,58.2716462 L39.598825,58.2716462 Z M38.9878041,42.2628986 L41.9885956,42.2628986 C44.9876601,42.175233 47.8878273,41.1705999 50.2984799,39.3843113 C54.9094172,35.8143822 57.5664958,30.2788017 57.4677918,24.4482448 C57.7039807,21.5317702 55.720027,18.9001139 52.8511894,18.3244575 C49.7780872,17.5780917 46.6138298,17.2762983 43.4550458,17.4282935 C42.4909906,17.4282935 42.178691,17.9985797 41.9478609,18.7861178 C40.1012199,25.3444088 38.1866878,31.8755433 36.3807815,38.4474126 C36.0413255,39.6558761 34.9550661,41.163061 35.5796653,41.9913338 C36.2042644,42.8196066 38.0780618,42.0999597 38.9878041,42.2628986 L38.9878041,42.2628986 Z" id="Shape" fill="#D40511"></path>
                <path d="M649.465576,92 C647.754717,91.606231 646.03028,91.2803532 644.333,90.8186929 C634.013536,88.0079968 627.876171,80.1461945 626.586238,69.7452609 C626.198075,66.7380931 626.107114,63.6999989 626.314673,60.6749951 C626.828381,54.4440252 628.128645,48.3031252 630.184472,42.3986811 C632.655047,34.7545351 636.32138,27.550191 641.047066,21.0536842 C644.320151,16.5427665 648.273155,12.5668605 652.765089,9.26776996 C659.062737,4.52407794 666.491329,1.50957691 674.313759,0.523381945 C680.681955,-0.196264894 687.077307,-0.399938528 693.323298,1.40596769 C698.386011,2.75484148 702.839229,5.78590261 705.951063,10.000995 C709.282957,14.7337588 711.062235,20.3847462 711.042904,26.1726816 C711.368782,35.9354377 708.965433,45.1822207 705.489403,54.1981736 C703.103981,60.4691421 699.805051,66.3532258 695.699491,71.6597931 C691.246189,77.5981104 685.59863,82.5379905 679.120457,86.1613558 C673.907673,89.0420808 668.201507,90.9211089 662.297015,91.7012787 C662.051754,91.7633527 661.81798,91.8641963 661.604524,92 L649.465576,92 Z M649.098963,62.7388879 C648.993709,64.6384881 649.149038,66.5435552 649.560623,68.401015 C650.524679,72.3522835 652.507102,75.4209662 656.811405,76.249239 C658.992883,76.6864069 661.242448,76.6540057 663.410431,76.1541913 C668.208589,74.8331209 672.395782,71.8799972 675.250658,67.8035723 C678.595778,63.3407898 681.225273,58.3841453 683.044569,53.1119142 C685.500165,46.7404586 687.164623,40.091746 688.000627,33.314837 C688.416246,29.9279335 688.264813,26.4954555 687.552545,23.1583118 C686.780592,19.0374465 683.329093,15.953959 679.147613,15.6495438 C677.834151,15.5903821 676.518126,15.6266863 675.209923,15.7581698 C672.42864,16.0610528 669.784124,17.122617 667.565373,18.8268525 C663.652836,21.8651291 660.473982,25.7447236 658.264277,30.178263 C655.32365,35.7786545 653.045262,41.7024633 651.475156,47.829978 C650.055851,52.6791433 649.257413,57.6887667 649.098963,62.7388879 L649.098963,62.7388879 Z M320.967161,92 C319.515321,91.5933693 318.020261,91.3609056 316.513497,91.3075096 C312.950274,90.7384585 309.423059,89.9631966 305.949625,88.9856302 C304.089406,88.415344 304.089406,88.2931399 304.75474,86.4464989 C306.397707,81.9385225 308.013518,77.4169678 309.642907,72.8682567 C309.751533,72.5695353 309.833002,72.2572358 309.955206,71.9720927 C310.47118,70.6821597 310.62054,70.6142685 311.910473,71.1030852 C314.381713,72.0671404 316.744328,73.3163387 319.256302,74.2125026 C324.409659,76.2811967 330.097654,76.6101754 335.455145,75.1494014 C339.641339,74.1127358 343.152317,71.2731199 345.041384,67.396225 C345.790286,65.7840583 346.126258,64.0108761 346.019018,62.236493 C345.750643,60.0757052 344.503997,58.1581738 342.638036,57.0360262 C341.003211,55.8364056 339.240943,54.8209385 337.383256,54.0080782 C333.448053,52.4243828 329.703964,50.4020284 326.221941,47.9793386 C320.654861,43.7293488 318.726751,38.0536435 319.609337,31.2509442 C320.01285,27.9730323 320.891052,24.7712517 322.216359,21.7461746 C323.529756,18.8678489 325.229077,16.181826 327.267465,13.7621681 C332.990465,6.97779306 340.906795,2.40957122 349.644409,0.849259759 C354.668358,-0.196264894 359.733043,0.156769404 364.784149,0.0888781929 C368.703656,0.236996476 372.597975,0.782929104 376.407124,1.71826726 C377.642744,1.96267562 378.878364,2.24781871 380.100406,2.56011828 C381.322448,2.87241785 381.594013,3.11682622 381.200244,4.42033747 C380.643536,6.2941349 379.978202,8.14077585 379.353603,9.98741679 C378.375969,12.7981129 377.411914,15.5952308 376.420702,18.3923487 C375.836838,20.0488943 375.782525,20.0760508 374.139558,19.2885127 C370.922718,17.6405986 367.468544,16.5044777 363.901563,15.9211087 C359.556525,15.2965095 355.238644,15.1199924 351.042968,16.8851639 C346.931482,18.4896756 344.035707,22.2254861 343.507043,26.6071853 C343.238454,28.8719769 344.214796,31.1050993 346.059753,32.4458295 C347.756323,33.8725567 349.655359,35.0394339 351.694723,35.9082813 C355.218385,37.3361 358.600561,39.0908312 361.796935,41.1494828 C366.943089,44.6798258 370.120398,49.2964281 370.079663,55.7868279 C370.108412,64.6813515 366.578414,73.2178849 360.276172,79.4944389 C354.234489,85.6261856 346.431707,89.7221713 337.953542,91.2124619 C336.826801,91.3142958 335.717853,91.5607286 334.654029,91.945687 L320.967161,92 Z M768.356665,90.5199716 L757.141037,90.5199716 C755.389444,90.5199716 755.335131,90.5199716 755.1043,88.8226913 C754.574749,84.8171098 754.113089,80.8115284 753.597116,76.8195252 C753.189768,73.6286382 752.565169,70.4513295 752.334339,67.3147556 C752.049196,63.472113 751.125875,59.7109399 750.976515,55.8682974 C750.867889,53.8587175 750.433385,51.8627159 750.175399,49.8667143 C749.686582,45.9969152 749.197765,42.113538 748.736105,38.2301607 C748.369492,35.107165 747.77205,32.0113257 747.568376,28.8475953 C747.568376,28.6303434 747.568376,28.2637309 747.201763,28.3044656 C746.835151,28.3452003 746.930199,28.6710781 746.848729,28.9019083 C746.251287,30.9114881 745.640266,32.8939115 745.056401,34.9034913 C743.508482,40.2442666 741.969614,45.5850419 740.439799,50.9258172 C738.647471,57.1718086 736.895878,63.4313783 735.10355,69.6773697 C733.311222,75.9233612 731.505315,82.1965091 729.672253,88.4289223 C729.034075,90.5742846 728.979762,90.5742846 726.780087,90.5742846 L710.730605,90.5742846 C709.644345,90.4656586 709.372781,90.1669373 709.630767,89.1078344 C709.99738,87.627806 710.486196,86.2020906 710.907122,84.7356404 C712.93028,77.7021109 714.980595,70.6550032 716.963018,63.6078955 C718.945441,56.5607877 721.036491,49.7852448 722.991758,42.8603413 C724.078017,39.1036943 725.15975,35.3425212 726.236957,31.576822 C728.029285,25.3172523 729.794457,19.0576826 731.573207,12.8116912 C732.510105,9.52575656 733.501317,6.26697842 734.411059,2.98104379 C734.524864,1.99599387 735.406476,1.28345872 736.393483,1.37881121 L759.395025,1.37881121 C759.795186,1.30553005 760.20712,1.41553135 760.517478,1.67854617 C760.827835,1.941561 761.003912,2.3298747 760.997258,2.73663543 C761.553966,6.66074744 762.205721,10.5848595 762.803164,14.5089715 C763.251246,17.4418718 763.672171,20.3747721 764.160988,23.3076724 C765.138621,29.8523852 766.265616,36.3699415 767.093888,42.9418107 C767.514814,46.3227931 768.139413,49.7309319 768.655386,53.044023 C769.021999,55.3387459 769.347877,57.6470471 769.700911,59.9553483 C769.754949,60.3319813 769.83664,60.7041255 769.945319,61.0687641 C770.014906,61.2382552 770.10619,61.3980014 770.216884,61.5440026 C770.300431,61.3909179 770.37303,61.2321077 770.434136,61.0687641 C770.597075,60.5256345 770.705701,59.9689265 770.86864,59.4257968 C773.720071,49.4684192 776.580554,39.5110415 779.450089,29.5536639 C780.807913,24.9370615 782.165737,20.3476156 783.523561,15.7310133 C784.718447,11.6575406 785.845441,7.47544198 787.053904,3.34765633 C787.651347,1.33807648 787.70566,1.35165472 789.769553,1.33807648 L804.203224,1.33807648 C807.176859,1.33807648 807.299064,1.55532836 806.484369,4.33886802 C804.515524,11.005785 802.600992,17.6727019 800.672881,24.3531971 C798.459628,31.9977475 796.232796,39.6287196 794.046699,47.2868483 C792.553093,52.5008933 791.127377,57.7420948 789.633771,62.9697181 C788.384572,67.3419121 787.067483,71.6869496 785.804706,76.0591436 C784.664134,79.9968338 783.564296,83.9616806 782.45088,87.8993708 C782.328676,88.3338746 782.152159,88.7412219 782.057111,89.1757256 C781.826281,90.2212503 781.201682,90.5335498 780.142579,90.5335498 C776.218467,90.4928151 772.280777,90.5199716 768.356665,90.5199716 L768.356665,90.5199716 Z M474.428455,70.8043638 L461.882159,70.8043638 C460.933969,70.7147233 460.029882,71.2236106 459.614593,72.0807186 C456.478019,77.3490766 453.259975,82.5766999 450.109823,87.8043231 C449.811102,88.2931399 449.471646,88.7548001 449.213659,89.2571951 C448.781556,90.1332872 447.849848,90.6478934 446.878201,90.5471281 L428.629044,90.5471281 C427.067546,90.5471281 426.918185,90.2484067 427.746458,88.917739 C430.570732,84.491232 433.408585,80.0783033 436.219281,75.6517963 C439.355855,70.6821597 442.465273,65.6989448 445.615425,60.7157299 C449.539537,54.5240514 453.504384,48.3731076 457.442074,42.1814292 C463.135883,33.2197893 468.811589,24.2490972 474.46919,15.269353 C477.184838,10.9922067 479.900486,6.7422169 482.616135,2.46507059 C483.032583,1.73459057 483.826997,1.30318708 484.66645,1.35165472 L505.957133,1.35165472 C507.437162,1.35165472 507.76304,1.66395429 507.708727,3.18471743 C507.613679,6.53854326 508.034604,9.86521261 508.183965,13.2054602 C508.464582,19.3880865 508.727095,25.5616607 508.971503,31.7261826 C509.134442,35.8811248 509.37885,40.0496451 509.718306,44.191009 C509.989871,47.5991478 509.854089,50.9801302 510.057763,54.4018472 C510.370062,59.8331441 510.750253,65.3459105 511.103287,70.8179421 L511.103287,71.3882283 C510.940348,76.3171302 511.70073,81.2188757 511.537791,86.1477776 C511.597867,87.0266658 511.70666,87.901544 511.863669,88.7683783 C511.972295,90.1262026 511.70073,90.5199716 510.329327,90.5199716 L490.559407,90.5199716 C489.201582,90.5199716 489.025065,90.3570327 489.011487,88.7819566 L489.011487,72.3387052 C489.079378,71.2931806 488.672031,70.8179421 487.585772,70.8586768 L483.593768,70.8586768 L474.428455,70.8043638 Z M479.140105,55.1893853 L487.490724,55.1893853 C488.509092,55.1893853 489.052222,54.8635074 488.997909,53.831561 C488.821392,50.5456264 489.364521,47.2868483 489.364521,44.0144919 C489.224024,40.4161401 489.273881,36.8128764 489.513882,33.2197893 C489.948386,29.0784254 489.364521,24.8963268 490.097746,20.7821194 C490.097746,20.5512893 490.097746,20.1303638 489.961964,20.0760508 C489.568195,19.8995336 489.473147,20.3340374 489.337365,20.5784458 C488.047432,22.832434 486.811812,25.1000004 485.494722,27.3675669 C480.307834,36.1843722 475.111893,44.9875992 469.9069,53.7772481 C469.173675,55.0128681 469.295879,55.2436982 470.789486,55.2572765 C473.573026,55.2029635 476.356565,55.1893853 479.140105,55.1893853 L479.140105,55.1893853 Z M563.759711,1.36523296 L592.830727,1.36523296 C595.071137,1.36523296 595.084716,1.44670242 594.43296,3.64637766 C593.387435,7.23103362 592.382645,10.8156896 591.364277,14.4003455 C591.269229,14.7669581 591.18776,15.1335706 591.079134,15.5001831 C590.305174,18.0936274 590.305174,18.0936274 587.575948,18.0936274 L571.988125,18.0936274 C570.141484,18.0936274 570.155063,18.0936274 569.652668,19.8587989 C566.937019,29.1463166 564.253053,38.4293082 561.60077,47.7077738 C559.455408,55.1124419 557.32815,62.51711 555.218996,69.9217781 C553.408564,76.2582911 551.598132,82.6310128 549.787699,89.0399432 C549.730145,89.5107337 549.486952,89.9390414 549.112154,90.2297008 C548.737356,90.5203602 548.261998,90.649297 547.791698,90.5878628 L528.605641,90.5878628 C527.084878,90.5878628 526.935518,90.4113457 527.370021,88.8905825 C528.605641,84.4504973 529.909153,80.0375686 531.185507,75.5974834 C533.421391,67.8940939 535.657275,60.1997566 537.893159,52.5144715 L544.899532,28.0736355 C545.673492,25.357987 546.474608,22.6423386 547.248568,19.9266901 C547.683072,18.3923487 547.547289,18.1615186 545.890744,18.1615186 L530.3165,18.1615186 C527.600852,18.1615186 527.600852,18.1615186 528.347655,15.5544961 C529.528962,11.2909281 530.791738,7.05451647 531.986624,2.80452664 C532.099536,1.95414393 532.872204,1.35049639 533.724639,1.44670242 L535.245402,1.44670242 L563.759711,1.36523296 Z M425.981286,1.36523296 L455.636168,1.36523296 C457.265557,1.36523296 457.401339,1.60964133 456.993992,3.1439827 C455.826263,7.21745538 454.658534,11.4131322 453.463649,15.5409179 C452.730424,18.0800492 452.703267,18.0800492 450.109823,18.0800492 L434.481266,18.0800492 C432.512421,18.0800492 432.539578,18.0800492 432.010026,19.9131119 C429.294378,29.1327384 426.660199,38.3523649 424.012441,47.5719913 C421.70414,55.5831543 419.450152,63.6078955 417.155429,71.6326366 C415.797605,76.1813478 414.439781,80.7164807 413.177004,85.2108789 C412.796813,86.4872336 412.457357,87.7635884 412.145058,89.0535214 C412.090888,89.4954058 411.862537,89.8973747 411.510712,90.1701665 C411.158887,90.4429583 410.712711,90.5639929 410.27126,90.5063934 L390.88153,90.5063934 C389.523706,90.5063934 389.333611,90.261985 389.72738,88.917739 C392.823219,78.2361884 395.914532,67.5546379 399.001319,56.8730873 C402.056424,46.2413236 405.043637,35.6095599 408.085163,24.9777962 C408.614715,23.0904206 409.239314,21.2302014 409.782443,19.3564039 C410.149056,18.1343621 410.108321,17.9985797 408.80481,17.9985797 L393.026893,17.9985797 C389.917475,17.9985797 389.944632,17.9985797 390.827217,14.9842099 C391.994946,11.0465197 393.12194,7.10882944 394.248934,3.15756094 C394.778486,1.31092 394.764908,1.28376351 396.706596,1.28376351 L425.981286,1.36523296 Z M591.051978,90.5199716 L581.737303,90.5199716 C579.822771,90.5199716 579.700567,90.316298 580.202962,88.578283 C583.190175,78.1366147 586.150232,67.6949464 589.164602,57.2532781 C592.667788,45.1279077 596.225288,33.0025374 599.742053,20.8771671 C601.466489,14.929897 603.150191,8.98262687 604.833893,3.02177852 C605.295554,1.40596769 605.336288,1.33807648 607.033569,1.33807648 L625.662917,1.33807648 C627.49598,1.33807648 627.618184,1.51459363 627.102211,3.37481282 C625.581448,8.80610972 624.060684,14.3188761 622.458452,19.7773295 C620.611811,26.0776339 618.710857,32.36436 617.027155,38.7053992 C616.130991,42.059225 615.071888,45.3723161 614.121411,48.7125637 C612.220457,55.3251677 610.34666,61.9377717 608.432128,68.5503756 C606.449704,75.407388 604.358655,82.2372438 602.457701,89.1078344 C602.292359,89.9859548 601.469852,90.5819741 600.583904,90.4656586 C597.393017,90.5063934 594.215708,90.5199716 591.051978,90.5199716 L591.051978,90.5199716 Z" id="Shape" fill="#000000"></path>
            </g>
        </g>
    </g>
</svg>