<?xml version="1.0" encoding="UTF-8"?>
<svg width="980px" height="680px" viewBox="0 0 980 680" version="1.1" xmlns="http://www.w3.org/2000/svg" xmlns:xlink="http://www.w3.org/1999/xlink">
    <title>DE Emons</title>
    <defs>
        <rect id="path-1" x="0" y="0" width="900" height="600" rx="80"></rect>
        <filter x="-6.7%" y="-10.0%" width="113.3%" height="120.0%" filterUnits="objectBoundingBox" id="filter-2">
            <feMorphology radius="2.5" operator="dilate" in="SourceAlpha" result="shadowSpreadOuter1"></feMorphology>
            <feOffset dx="0" dy="0" in="shadowSpreadOuter1" result="shadowOffsetOuter1"></feOffset>
            <feGaussianBlur stdDeviation="17.5" in="shadowOffsetOuter1" result="shadowBlurOuter1"></feGaussianBlur>
            <feColorMatrix values="0 0 0 0 0   0 0 0 0 0   0 0 0 0 0  0 0 0 0.5 0" type="matrix" in="shadowBlurOuter1"></feColorMatrix>
        </filter>
        <polygon id="path-3" points="0 340.540541 800 340.540541 800 0 0 0"></polygon>
    </defs>
    <g id="DE-Emons" stroke="none" stroke-width="1" fill="none" fill-rule="evenodd">
        <g transform="translate(40, 40)">
            <g id="Rectangle">
                <use fill="black" fill-opacity="1" filter="url(#filter-2)" xlink:href="#path-1"></use>
                <use fill="#CC0000" fill-rule="evenodd" xlink:href="#path-1"></use>
            </g>
            <g id="Logo" transform="translate(49.8434, 129.9534)">
                <g id="g2993" transform="translate(400, 170.2703) scale(-1, 1) rotate(-180) translate(-400, -170.2703)translate(-0, 0)">
                    <g id="g3009-Clipped" transform="translate(0, -0)">
                        <mask id="mask-4" fill="white">
                            <use xlink:href="#path-3"></use>
                        </mask>
                        <g id="path3013"></g>
                        <g id="g3009" mask="url(#mask-4)">
                            <g transform="translate(60.4955, 63.2215)">
                                <g id="g3015" transform="translate(110.1834, 0.1371)">
                                    <path d="M210.951351,37.0058031 C210.951351,37.0058031 195.497297,27.0274247 193.632432,33.4922896 C193.632432,33.4922896 192.016216,34.0868842 197.8,48.6003977 L198.913514,51.1301274 L219.227027,101.454452 C223.556757,118.730127 209.162162,122.076073 201.416216,122.649046 L195.497297,122.654452 C174.275676,121.508506 148.216216,98.897695 148.216216,98.897695 L148.032432,98.897695 C154.751351,119.167965 137.848649,122.308506 130.054054,122.708506 L126.286486,122.708506 C104.854054,122.411209 78.3351351,100.249046 78.3351351,100.249046 L86.4054054,120.508506 L47.6162162,120.508506 L0,2.63283013 L38.7945946,2.63283013 L62.7675676,62.0112085 C62.7675676,62.0112085 86.0864865,86.6436409 95.9135135,83.7409382 C95.9135135,83.7409382 102.848649,83.4166139 97.6810811,69.9193166 C92.5945946,56.6328301 70.5027027,2.63283013 70.5027027,2.63283013 L78.3675676,2.63283013 L109.145946,2.63283013 L133.032432,61.7895869 C133.032432,61.7895869 156.351351,86.4166139 166.178378,83.5139112 C166.178378,83.5139112 173.113514,83.1949923 167.945946,69.697695 C166.362162,65.5625599 163.12973,57.4868842 159.437838,48.324722 L159.481081,48.324722 C159.481081,48.324722 150.956757,26.270668 150.145946,18.8328301 C150.145946,18.8328301 148.978378,6.91391121 158.854054,2.98418148 C158.854054,2.98418148 159.383784,2.71391121 160.416216,2.34093824 C164.859459,0.535532836 171.535135,-0.572575273 181.594595,0.308505809 C181.594595,0.308505809 193.567568,0.854451754 208.583784,10.4922896 L239.637838,30.3787761 L254.859459,67.9139112 C254.859459,67.9139112 221.232432,42.6922896 210.951351,37.0058031" id="path3017" fill="#000000"></path>
                                </g>
                                <g id="g3019" transform="translate(437.9126, 0.1029)">
                                    <path d="M140.448649,37.0080523 C140.448649,37.0080523 124.994595,27.029674 123.135135,33.4945388 C123.135135,33.4945388 121.513514,34.0891334 127.291892,48.5972415 L128.410811,51.1323767 L148.724324,101.456701 C153.054054,118.726971 138.659459,122.078323 130.913514,122.651296 L124.994595,122.656701 C103.772973,121.50535 77.7135135,98.8945388 77.7135135,98.8945388 L77.5297297,98.8945388 C77.6,99.0945388 77.6486486,99.283728 77.7135135,99.4891334 L86.3513514,120.835079 L69.227027,120.835079 L47.4918919,120.835079 L28.2540541,73.1702145 C27.9675676,72.1756199 27.6378378,71.1215659 27.1783784,69.9215659 C22.3027027,57.1756199 1.79459459,7.01886316 0.118918919,2.92697127 C0.0486486486,2.74859289 0,2.63507938 0,2.63507938 L7.86486486,2.63507938 L38.6432432,2.63507938 L62.5297297,61.7864307 C62.5297297,61.7864307 85.8486486,86.4188632 95.6756757,83.5161605 C95.6756757,83.5161605 102.616216,83.1972415 97.4432432,69.6999442 C95.8594595,65.5594037 92.627027,57.483728 88.9351351,48.3269713 L88.9783784,48.3215659 C88.9783784,48.3215659 80.4540541,26.2729172 79.6432432,18.829674 C79.6432432,18.829674 78.4756757,6.91616046 88.3513514,2.98643073 C88.3513514,2.98643073 88.8864865,2.71616046 89.9081081,2.34318748 C94.3567568,0.537782079 101.032432,-0.575731434 111.086486,0.310755052 C111.086486,0.310755052 123.064865,0.851295593 138.081081,10.4945388 L169.135135,30.3756199 L162.848649,52.2458902 C162.848649,52.2458902 150.72973,42.6945388 140.448649,37.0080523" id="path3021" fill="#000000"></path>
                                </g>
                                <g id="g3023" transform="translate(4.1386, 0)">
                                    <path d="M115.148615,57.8250253 C127.921588,67.5331334 139.699966,75.8844848 139.699966,75.8844848 L127.618885,40.6196199 C127.618885,40.6196199 111.424291,23.4034037 103.299966,16.6844848 C95.1918581,9.96556588 89.3161824,7.14394426 89.3161824,7.14394426 C74.856723,-1.27767736 60.0405068,-0.510109796 52.7269933,0.830430745 C39.2783446,3.7871875 27.8945608,8.53853885 17.6188852,17.7925929 C3.32158785,30.6682686 -7.78652025,61.1709713 6.98645272,89.300701 C10.6729392,96.3169172 14.5810473,102.095296 20.4783446,106.457458 C32.2459122,115.16016 40.056723,117.262863 47.2026689,119.284485 C47.3810473,119.333133 47.1486149,120.127728 47.310777,120.214215 C43.8351014,130.673674 40.2513176,140.96016 44.056723,155.88989 C52.9053716,190.625025 81.7269933,201.992593 113.35402,200.327728 C132.635101,199.316917 144.202669,190.992593 155.418885,179.506106 C155.245912,179.262863 146.845912,158.279079 146.845912,158.279079 C139.175642,171.327728 128.375642,177.803404 117.948615,178.603404 C104.835101,179.608809 88.5810473,176.54935 81.456723,155.916917 C78.0405068,146.025025 78.2080743,138.738539 79.5053716,130.841242 C91.8729392,133.387188 103.375642,133.257458 118.937804,127.403404 C118.937804,127.403404 130.381047,122.370971 132.81348,113.446647 C132.81348,113.446647 135.316182,100.181782 126.186453,93.0790794 C126.186453,93.0790794 115.28375,80.1763767 83.8945608,86.3061064 C83.8945608,86.3061064 72.5810473,87.9655659 63.0891554,96.5223226 C61.9486149,96.4898902 56.310777,94.0034037 55.7378041,93.6250253 C50.3432095,90.0574578 46.7486149,87.3439443 42.8188852,78.5331334 C36.3378041,63.9979983 43.8351014,49.1601605 43.8621284,49.1655659 C45.7648311,44.5601605 48.9594257,41.7331334 52.629696,38.727728 C52.629696,38.727728 58.5756419,34.500701 64.4891554,32.9817821 C68.1648311,32.0412416 69.6675338,31.5709713 74.7972635,31.6844848 C79.0405068,31.8790794 84.4405068,33.327728 88.0675338,36.4790794 C91.910777,39.6250253 95.3648311,42.4358361 95.3648311,42.4358361 C100.235101,46.2898902 105.002669,50.1169172 115.148615,57.8250253 M108.602669,105.722323 C108.602669,105.722323 111.251318,106.727728 111.343209,108.095296 C111.472939,110.100701 107.435101,112.111512 107.435101,112.111512 C98.9215879,116.225025 90.2459122,113.300701 90.2459122,113.300701 C87.5972635,112.479079 86.9161824,112.030431 86.2242906,111.716917 C87.8729392,108.706106 92.3161824,106.116917 92.3161824,106.116917 C92.3161824,106.116917 99.5540203,101.976377 108.602669,105.722323" id="path3025" fill="#000000"></path>
                                </g>
                                <g id="g3027" transform="translate(402.6461, 59.8438)">
                                    <path d="M1.26923624,25.0504282 C1.26923624,25.0504282 -3.11995295,13.1963741 4.425993,4.91529303 C4.425993,4.91529303 7.90707408,0.96934708 14.7665335,0.309887621 C14.7665335,0.309887621 21.6800471,-1.29551778 31.9935606,2.80177951 C31.9935606,2.80177951 39.2854525,4.59637411 55.4692362,10.7098876 C55.4692362,10.7098876 70.4638308,15.1044822 80.9178849,24.6179957 C80.9178849,24.6179957 90.5503173,30.8071849 92.5124795,47.6990768 C92.5124795,47.6990768 82.6151822,57.8179957 82.1341011,56.5098876 C79.3286957,48.8990768 77.4043714,44.9585363 69.9665335,40.2936714 C69.9665335,40.2936714 53.4043714,31.3801579 37.0422092,34.2936714 C29.3178849,34.8125903 27.4854525,37.2774552 18.7773444,36.8936714 C18.7773444,36.8936714 6.86923624,37.5423201 1.26923624,25.0504282" id="path3029" fill="#000000"></path>
                                </g>
                                <g id="g3031" transform="translate(334.498, 0.515)">
                                    <path d="M11.3567652,85.4403396 C29.7729814,116.44034 64.0756841,130.705204 87.9729814,117.299799 C111.870279,103.888988 116.308117,67.8889883 97.8919003,36.8943937 C79.4810895,5.88898828 45.1783868,-8.36506578 21.2810895,5.04033963 C-2.61080237,18.4403396 -7.05404561,54.4511504 11.3567652,85.4403396 M41.1189274,29.0943937 C49.7351436,20.2511504 66.2054138,27.8511504 77.913522,46.0727721 C89.6216301,64.2889883 92.1351436,86.2295288 83.5243328,95.0781775 C74.9027111,103.926826 58.4270355,96.3268261 46.7189274,78.1106099 C35.0108193,59.8835829 32.4973057,37.9430423 41.1189274,29.0943937" id="path3033" fill="#000000"></path>
                                </g>
                                <g id="g3035" transform="translate(585.097, 0.0843)">
                                    <path d="M0,32.8775264 C0,32.8775264 5.68648649,23.5207696 12.1459459,16.8829318 C12.1459459,16.8829318 20.4972973,8.72076964 29.427027,4.59644532 C29.427027,4.59644532 43.6648649,-3.40896009 64.3945946,1.70995883 C64.3945946,1.70995883 77.3567568,2.6829318 86.2864865,14.6559048 C88.7189189,17.2937426 95.2108108,28.8613102 92.7891892,43.3423913 C92.7891892,43.3423913 92.4702703,53.926175 73.7567568,68.8937426 C73.7567568,68.8937426 68.1243243,73.7153642 59.5945946,80.3045534 C59.5945946,80.3045534 52.3945946,85.8883372 52.4972973,93.3964453 C53.1081081,99.2829318 56.7405405,102.26131 61.0486486,103.26131 C61.0486486,103.26131 71.6648649,106.245094 80.8540541,96.7532021 C80.8540541,96.7532021 86.6756757,91.4072561 89.4648649,85.2396886 L97.7297297,105.428878 C93.7675676,109.980229 86.9891892,115.715364 81.7189189,118.650499 C81.7189189,118.650499 65.6540541,127.342391 44.0324324,120.612662 C44.0324324,120.612662 24.8972973,114.645094 22.8,91.4288777 C22.8,91.4288777 21.1351351,78.4883372 32.7081081,66.3153642 C40.3297297,58.2829318 49.4378378,51.1477967 49.4378378,51.1477967 C49.4378378,51.1477967 56.6,45.4072561 56.8054054,40.3369859 C57.2108108,35.672121 55.3837838,33.0288777 53.7567568,31.2018507 C53.7567568,31.2018507 51.3783784,28.4667156 47.7243243,28.5640129 C45.2432432,28.3153642 39.8594595,28.7640129 34.6756757,31.6126615 C34.6756757,31.6126615 25.6,34.9532021 17.4972973,49.4937426 C17.4972973,49.4937426 18.1837838,48.299148 15.6594595,52.2667156" id="path3037" fill="#000000"></path>
                                </g>
                                <g id="g3039" transform="translate(106.0418, 10.1194)">
                                    <path d="M210.956757,37.0104988 C210.956757,37.0104988 195.497297,27.0267151 193.637838,33.4915799 C193.637838,33.4915799 192.021622,34.0861745 197.805405,48.599688 L198.918919,51.1294178 L219.232432,101.453742 C223.562162,118.729418 209.167568,122.075364 201.421622,122.648337 L195.502703,122.653742 C174.281081,121.507796 148.221622,98.8969853 148.221622,98.8969853 L148.037838,98.8969853 C154.756757,119.167256 137.848649,122.307796 130.059459,122.707796 L126.286486,122.707796 C104.859459,122.415904 78.3351351,100.248337 78.3351351,100.248337 L86.4108108,120.507796 L47.6216216,120.507796 L0,2.63212047 L38.7945946,2.63212047 L62.7675676,62.0104988 C62.7675676,62.0104988 86.0918919,86.6429313 95.9135135,83.7402286 C95.9135135,83.7402286 102.854054,83.4159043 97.6864865,69.918607 C92.6,56.6321205 70.5081081,2.63212047 70.5081081,2.63212047 L78.3675676,2.63212047 L109.151351,2.63212047 L133.032432,61.7888772 C133.032432,61.7888772 156.356757,86.4159043 166.178378,83.518607 C166.178378,83.518607 173.118919,83.1942826 167.945946,69.6969853 C166.367568,65.5618502 163.135135,57.4861745 159.443243,48.3240124 L159.486486,48.3240124 C159.486486,48.3240124 150.962162,26.2699583 150.145946,18.8267151 C150.145946,18.8267151 148.983784,6.91320155 158.859459,2.98347182 C158.859459,2.98347182 159.389189,2.71860696 160.421622,2.34022858 C164.864865,0.540228578 171.540541,-0.573284936 181.594595,0.307796145 C181.594595,0.307796145 193.572973,0.853742091 208.589189,10.4915799 L239.637838,30.3780664 L254.864865,67.9077961 C254.864865,67.9077961 221.237838,42.6915799 210.956757,37.0104988" id="path3041" fill="#FFFDE8"></path>
                                </g>
                                <g id="g3043" transform="translate(433.7743, 10.0851)">
                                    <path d="M140.448649,37.0080523 C140.448649,37.0080523 124.994595,27.029674 123.135135,33.4945388 C123.135135,33.4945388 121.513514,34.0891334 127.297297,48.5972415 L128.410811,51.1323767 L148.724324,101.456701 C153.054054,118.726971 138.659459,122.078323 130.913514,122.651296 L125,122.656701 C103.778378,121.50535 77.7189189,98.8999442 77.7189189,98.8999442 L77.5297297,98.8999442 C77.6,99.0999442 77.6486486,99.2891334 77.7135135,99.4891334 L86.3513514,120.835079 L69.227027,120.835079 L47.4918919,120.835079 L28.2540541,73.1702145 C27.9675676,72.1756199 27.6378378,71.1215659 27.1837838,69.9215659 C22.3027027,57.1756199 1.79459459,7.01345776 0.124324324,2.92697127 C0.0486486486,2.7539983 0,2.62967397 0,2.62967397 L7.86486486,2.62967397 L38.6432432,2.62967397 L62.5297297,61.7864307 C62.5297297,61.7864307 85.8486486,86.4188632 95.6756757,83.5161605 C95.6756757,83.5161605 102.610811,83.1972415 97.4432432,69.6999442 C95.8648649,65.5648091 92.627027,57.483728 88.9351351,48.3269713 L88.9837838,48.3215659 C88.9837838,48.3215659 80.4540541,26.2729172 79.6432432,18.829674 C79.6432432,18.829674 78.4756757,6.91616046 88.3513514,2.98643073 C88.3513514,2.98643073 88.8864865,2.71616046 89.9135135,2.34318748 C94.3567568,0.537782079 101.032432,-0.575731434 111.091892,0.310755052 C111.091892,0.310755052 123.064865,0.851295593 138.081081,10.4945388 L169.135135,30.3756199 L162.848649,52.2458902 C162.848649,52.2458902 150.72973,42.6945388 140.448649,37.0080523" id="path3045" fill="#FFFDE8"></path>
                                </g>
                                <g id="g3047" transform="translate(0, 9.9816)">
                                    <path d="M115.151017,57.8304307 C127.918585,67.5331334 139.702369,75.8844848 139.702369,75.8844848 L127.621288,40.6196199 C127.621288,40.6196199 111.426693,23.4034037 103.302369,16.6844848 C95.1942605,9.97097129 89.3185848,7.14394426 89.3185848,7.14394426 C74.8591254,-1.27767736 60.0375037,-0.510109796 52.7293956,0.830430745 C39.280747,3.7871875 27.8915578,8.53853885 17.6212875,17.7925929 C3.32399024,30.6682686 -7.78952328,61.1709713 6.9888551,89.300701 C10.6699362,96.3169172 14.5834497,102.095296 20.480747,106.457458 C32.2483146,115.16016 40.0591254,117.262863 47.2050713,119.284485 C47.3780443,119.333133 47.1510173,120.127728 47.3131794,120.214215 C43.8375037,130.673674 40.25372,140.96016 44.0591254,155.88989 C52.9023686,190.625025 81.7239902,201.992593 113.356423,200.327728 C132.637504,199.316917 144.205071,190.992593 155.421288,179.506106 C155.248315,179.262863 146.842909,158.279079 146.842909,158.279079 C139.178044,171.327728 128.378044,177.803404 117.951017,178.603404 C104.837504,179.608809 88.5834497,176.54935 81.4591254,155.916917 C78.0429092,146.025025 78.2104767,138.738539 79.507774,130.841242 C91.8753416,133.392593 103.378044,133.257458 118.940206,127.403404 C118.940206,127.403404 130.378044,122.370971 132.815882,113.441242 C132.815882,113.441242 135.318585,100.181782 126.188855,93.0790794 C126.188855,93.0790794 115.286152,80.1763767 83.8915578,86.3061064 C83.8915578,86.3061064 72.5834497,87.9655659 63.0915578,96.527728 C61.9456119,96.4898902 56.3131794,94.0088091 55.734801,93.6250253 C50.3456119,90.0628632 46.7510173,87.3439443 42.8212875,78.5331334 C36.334801,63.9979983 43.8375037,49.1601605 43.8591254,49.1709713 C45.7672335,44.5601605 48.9618281,41.7331334 52.6320983,38.7223226 C52.6320983,38.7223226 58.5726389,34.5061064 64.4915578,32.9817821 C68.1618281,32.0412416 69.6699362,31.5709713 74.7996659,31.6844848 C79.0429092,31.8790794 84.4429092,33.327728 88.0699362,36.4790794 C91.9131794,39.6250253 95.3672335,42.4358361 95.3672335,42.4358361 C100.237504,46.2898902 105.005071,50.1169172 115.151017,57.8304307 M108.605071,105.722323 C108.605071,105.722323 111.25372,106.727728 111.340206,108.095296 C111.475342,110.100701 107.437504,112.111512 107.437504,112.111512 C98.9239902,116.225025 90.2483146,113.300701 90.2483146,113.300701 C87.5996659,112.479079 86.9185848,112.030431 86.2266929,111.716917 C87.8753416,108.706106 92.3131794,106.116917 92.3131794,106.116917 C92.3131794,106.116917 99.5564227,101.976377 108.605071,105.722323" id="path3049" fill="#FFFDE8"></path>
                                </g>
                                <g id="g3051" transform="translate(398.5077, 69.8254)">
                                    <path d="M1.26923624,25.0504282 C1.26923624,25.0504282 -3.11995295,13.1963741 4.425993,4.90988762 C4.425993,4.90988762 7.91247949,0.974752486 14.7719389,0.309887621 C14.7719389,0.309887621 21.6800471,-1.29551778 31.998966,2.80177951 C31.998966,2.80177951 39.2908579,4.59637411 55.4692362,10.7098876 C55.4692362,10.7098876 70.4638308,15.1044822 80.9178849,24.6125903 C80.9178849,24.6125903 90.5503173,30.8071849 92.5124795,47.6990768 C92.5124795,47.6990768 82.6151822,57.8179957 82.1341011,56.5098876 C79.3286957,48.8990768 77.4043714,44.9531309 69.9665335,40.2990768 C69.9665335,40.2990768 53.4043714,31.3801579 37.0422092,34.2990768 C29.3178849,34.8125903 27.4854525,37.2774552 18.7773444,36.8936714 C18.7773444,36.8936714 6.86923624,37.5423201 1.26923624,25.0504282" id="path3053" fill="#FFFDE8"></path>
                                </g>
                                <g id="g3055" transform="translate(330.358, 10.4966)">
                                    <path d="M11.3610922,85.445745 C29.7773084,116.44034 64.0746057,130.705204 87.971903,117.299799 C111.8692,103.888988 116.312444,67.8889883 97.8962274,36.8943937 C79.4800111,5.88898828 45.1773084,-8.36506578 21.2800111,5.04033963 C-2.61188075,18.445745 -7.05512399,54.4511504 11.3610922,85.445745 M41.117849,29.0997991 C49.7340652,20.2511504 66.2097409,27.8511504 77.917849,46.0727721 C89.6259571,64.2889883 92.1394706,86.2349342 83.517849,95.0781775 C74.9070382,103.926826 58.4313625,96.3268261 46.7232544,78.1106099 C35.0097409,59.8889883 32.5070382,37.9484477 41.117849,29.0997991" id="path3057" fill="#FFFDE8"></path>
                                </g>
                                <g id="g3059" transform="translate(580.958, 10.0718)">
                                    <path d="M0,32.872121 C0,32.872121 5.68648649,23.5153642 12.1459459,16.8775264 C12.1459459,16.8775264 20.4972973,8.71536423 29.427027,4.59644532 C29.427027,4.59644532 43.6648649,-3.40896009 64.3945946,1.70995883 C64.3945946,1.70995883 77.3567568,2.6775264 86.2864865,14.6504994 C88.7189189,17.2883372 95.2162162,28.8559048 92.7891892,43.3369859 C92.7891892,43.3369859 92.4756757,53.9207696 73.7567568,68.8883372 C73.7567568,68.8883372 68.1243243,73.7099588 59.5945946,80.299148 C59.5945946,80.299148 52.4,85.8829318 52.5027027,93.3910399 C53.1081081,99.2775264 56.7405405,102.255905 61.0540541,103.255905 C61.0540541,103.255905 71.6648649,106.239689 80.8594595,96.7477967 C80.8594595,96.7477967 86.6756757,91.4018507 89.4648649,85.2342832 L97.7297297,105.423472 C93.7675676,109.974824 86.9891892,115.709959 81.7189189,118.645094 C81.7189189,118.645094 65.6540541,127.336986 44.0324324,120.607256 C44.0324324,120.607256 24.8972973,114.639689 22.8,91.4234723 C22.8,91.4234723 21.1405405,78.4883372 32.7081081,66.3099588 C40.3297297,58.2775264 49.4378378,51.1423913 49.4378378,51.1423913 C49.4378378,51.1423913 56.6,45.4018507 56.8054054,40.3315805 C57.2108108,35.6613102 55.3837838,33.0234723 53.7567568,31.1964453 C53.7567568,31.1964453 51.3783784,28.4613102 47.7243243,28.5586075 C45.2432432,28.3099588 39.8594595,28.7586075 34.6810811,31.6018507 C34.6810811,31.6018507 25.6,34.9477967 17.4972973,49.4883372 C17.4972973,49.4883372 18.1837838,48.2937426 15.6594595,52.2613102" id="path3061" fill="#FFFDE8"></path>
                                </g>
                            </g>
                        </g>
                    </g>
                </g>
            </g>
        </g>
    </g>
</svg>