<?xml version="1.0" encoding="UTF-8"?>
<svg width="980px" height="680px" viewBox="0 0 980 680" version="1.1" xmlns="http://www.w3.org/2000/svg" xmlns:xlink="http://www.w3.org/1999/xlink">
    <title>DE GEL Express Logistik</title>
    <defs>
        <rect id="path-1" x="0" y="0" width="900" height="600" rx="80"></rect>
        <filter x="-6.7%" y="-10.0%" width="113.3%" height="120.0%" filterUnits="objectBoundingBox" id="filter-2">
            <feMorphology radius="2.5" operator="dilate" in="SourceAlpha" result="shadowSpreadOuter1"></feMorphology>
            <feOffset dx="0" dy="0" in="shadowSpreadOuter1" result="shadowOffsetOuter1"></feOffset>
            <feGaussianBlur stdDeviation="17.5" in="shadowOffsetOuter1" result="shadowBlurOuter1"></feGaussianBlur>
            <feColorMatrix values="0 0 0 0 0   0 0 0 0 0   0 0 0 0 0  0 0 0 0.5 0" type="matrix" in="shadowBlurOuter1"></feColorMatrix>
        </filter>
        <path d="M10.4292991,8.61681707e-15 C4.72956585,8.61681707e-15 6.4626128e-15,4.72956585 6.4626128e-15,10.4292991 L6.4626128e-15,480.839195 C6.4626128e-15,486.538928 4.60829493,491.268494 10.4292991,491.268494 L480.839195,491.268494 C486.538928,491.268494 491.268494,486.660199 491.268494,480.839195 L491.268494,10.4292991 C491.268494,4.72956585 486.660199,8.61681707e-15 480.839195,8.61681707e-15 L10.4292991,8.61681707e-15 Z" id="path-3"></path>
    </defs>
    <g id="DE-GEL-Express-Logistik" stroke="none" stroke-width="1" fill="none" fill-rule="evenodd">
        <g transform="translate(40, 40)">
            <g id="Rectangle">
                <use fill="black" fill-opacity="1" filter="url(#filter-2)" xlink:href="#path-1"></use>
                <use fill="#D9002B" fill-rule="evenodd" xlink:href="#path-1"></use>
            </g>
            <g id="Logo" transform="translate(204.3658, 54.3658)">
                <path d="M10.4292991,2.84217094e-14 C4.72956585,2.84217094e-14 5.68434189e-14,4.72956585 5.68434189e-14,10.4292991 L5.68434189e-14,480.839195 C5.68434189e-14,486.538928 4.60829493,491.268494 10.4292991,491.268494 L480.839195,491.268494 C486.538928,491.268494 491.268494,486.660199 491.268494,480.839195 L491.268494,10.4292991 C491.268494,4.72956585 486.660199,2.84217094e-14 480.839195,2.84217094e-14 L10.4292991,2.84217094e-14 Z" id="Path" fill="#D9002B" fill-rule="nonzero"></path>
                <g id="Clipped" transform="translate(0, 0)">
                    <mask id="mask-4" fill="white">
                        <use xlink:href="#path-3"></use>
                    </mask>
                    <g id="SVGID_1_"></g>
                    <g id="Group" mask="url(#mask-4)" fill="#FFFFFF" fill-rule="nonzero">
                        <g transform="translate(185.4232, -28.6199)">
                            <polygon id="Path" points="48.7509095 231.991268 59.5440213 246.179966 73.4901771 235.023041 62.6970652 220.834344"></polygon>
                            <polygon id="Path" points="55.9058938 180.208586 66.6990056 194.518554 80.5238904 183.36163 69.7307786 169.051661"></polygon>
                            <polygon id="Path" points="111.084162 158.986175 121.877274 173.174873 135.82343 162.017948 124.909047 147.829251"></polygon>
                            <polygon id="Path" points="58.9376667 131.94276 69.7307786 146.131458 83.9194761 134.974533 72.7625515 120.785836"></polygon>
                            <polygon id="Path" points="92.4084405 196.822702 103.322823 211.011399 117.147708 199.854475 106.354596 185.665777"></polygon>
                            <polygon id="Path" points="144.191123 86.5874363 133.398011 72.3987388 119.573126 83.5556634 130.366238 97.7443609"></polygon>
                            <polygon id="Path" points="140.189183 181.663837 150.982294 195.852535 164.92845 184.69561 154.014067 170.506912"></polygon>
                            <polygon id="Path" points="4.12321125 198.884308 14.9163231 213.073005 28.7412079 201.916081 17.948096 187.727383"></polygon>
                            <polygon id="Path" points="122.968712 126.849382 112.054329 112.660684 98.2294446 123.817609 109.022556 138.006306"></polygon>
                            <polygon id="Path" points="0 247.877759 10.7931118 262.066456 24.7392675 250.909532 13.9461557 236.720834"></polygon>
                            <polygon id="Path" points="160.441426 142.372059 171.355809 156.924569 185.180694 145.767645 174.387582 131.578947"></polygon>
                            <polygon id="Path" points="204.46277 62.3332525 191.122969 72.7625515 201.673539 86.8299782 215.01334 76.1581373"></polygon>
                            <path d="M264.128062,0 L271.161775,9.33786078 L265.825855,13.582343 L255.639098,0 L250.181906,0 L251.758428,2.06160563 L244.603444,7.76133883 L238.661169,0 L225.56391,0 L219.985447,4.36575309 L230.657288,18.6757216 L221.198157,26.1945186 L210.405045,12.1270919 L196.216347,22.9202037 L207.13073,37.2301722 L194.154742,47.6594713 L204.705312,61.4843561 L217.317487,51.2975988 L217.560029,51.6614116 L228.110599,65.6075673 L215.01334,76.1581373 L225.806452,90.3468348 L238.903711,79.7962649 L238.903711,79.9175358 L238.903711,79.9175358 L238.903711,79.9175358 L239.024982,80.1600776 L239.024982,80.1600776 L249.575552,93.9849624 L236.478293,104.535532 L225.685181,90.3468348 L211.739025,101.503759 L201.188455,87.6788746 L187.848654,98.4719864 L198.641766,112.660684 L212.587921,101.503759 L223.381033,115.692457 L237.327189,104.535532 L248.120301,118.72423 L262.066456,107.567305 L251.394616,93.3786078 L262.430269,84.5258307 L262.430269,84.5258307 L273.223381,98.7145283 L287.048266,87.5576037 L276.255154,73.3689061 L284.501577,66.6990056 L295.173417,80.7664322 L309.119573,69.6095076 L298.447732,55.6633519 L304.147465,51.1763279 L314.940577,65.3650255 L319.30633,61.8481688 L319.30633,13.3398011 L314.698035,4.00194033 L307.057967,0 L264.128062,0 L264.128062,0 Z M232.112539,17.0991996 L240.358962,10.4292991 M218.045113,50.8125152 L218.045113,50.8125152 L218.045113,50.8125152 L207.373272,36.8663594 L218.045113,28.2561242 L228.716954,42.2022799 L218.045113,50.8125152 L218.045113,50.8125152 Z M239.752607,79.1899103 L239.752607,79.1899103 L239.752607,79.1899103 L228.959496,65.0012127 L239.995149,56.1484356 L240.358962,56.5122484 L240.358962,56.5122484 L250.909532,70.3371332 L239.752607,79.1899103 L239.752607,79.1899103 L239.752607,79.1899103 Z M242.056755,54.4506427 L242.056755,54.4506427 L231.263643,40.3832161 L240.965317,32.8644191 L251.515886,46.6893039 L251.637157,46.8105748 L242.056755,54.4506427 L242.056755,54.4506427 L242.056755,54.4506427 Z M261.702644,16.2503032 L272.253214,30.075188 L265.704584,35.4111084 L255.032743,21.8287655 L261.702644,16.2503032 L261.702644,16.2503032 Z M262.187727,38.3216105 L272.980839,52.3890371 L272.980839,52.3890371 L273.10211,52.510308 L264.734417,59.0589377 L253.941305,44.991511 L253.941305,44.991511 L253.820034,44.8702401 L262.187727,38.3216105 L262.187727,38.3216105 L262.187727,38.3216105 Z M263.764249,82.9493088 L263.764249,82.9493088 L252.971138,68.7606112 L262.55154,61.1205433 L273.587194,75.1879699 L263.764249,82.9493088 L263.764249,82.9493088 L263.764249,82.9493088 Z M279.772011,2.18287655 L290.322581,16.0077613 L286.199369,19.2820762 L275.77007,5.21464953 L279.772011,2.18287655 L279.772011,2.18287655 Z M276.255154,27.5284987 L281.833616,23.1627456 L292.384186,36.9876304 L286.684453,41.4746544 L276.255154,27.5284987 L276.255154,27.5284987 L276.255154,27.5284987 Z M287.290808,63.7885035 L276.861509,50.2061606 L276.861509,50.2061606 L276.497696,49.7210769 L283.288867,44.3851564 L283.288867,44.3851564 L293.960708,58.3313122 L287.290808,63.7885035 L287.290808,63.7885035 L287.290808,63.7885035 Z M298.569003,9.70167354 L309.240844,23.5265583 L306.209071,25.8307058 L295.658501,12.005821 L298.569003,9.70167354 L298.569003,9.70167354 L298.569003,9.70167354 Z M308.028135,47.2956585 L297.356294,33.3495028 L301.479505,30.075188 L312.393888,43.9000728 L308.028135,47.2956585 L308.028135,47.2956585 L308.028135,47.2956585 Z" id="Shape"></path>
                            <polygon id="Path" points="173.053602 109.628911 162.139219 95.0764007 148.314334 106.233325 159.107446 120.422023"></polygon>
                            <polygon id="Path" points="169.415474 44.2638855 180.329857 58.4525831 194.154742 47.6594713 183.36163 33.106961"></polygon>
                            <polygon id="Path" points="161.896677 72.7625515 172.689789 86.9512491 186.514674 75.7943245 175.721562 61.605627"></polygon>
                            <polygon id="Path" points="200.460829 133.640553 211.253941 147.829251 225.078826 136.672326 214.285714 122.483628"></polygon>
                        </g>
                    </g>
                </g>
                <path d="M190.759156,301.236963 C199.369391,252.243512 170.991996,252.122241 131.093864,252.122241 C85.8598108,252.122241 56.5122484,259.762309 47.5382003,310.696095 L40.504487,350.594228 C31.6517099,400.557846 54.9357264,408.804269 103.444094,408.804269 C158.622362,408.804269 173.417415,399.345137 182.634004,347.319913 L187.36357,320.397769 L117.268979,320.397769 L112.1756,349.017706 L140.552995,349.017706 C136.793597,370.361387 130.366238,375.090953 109.386369,375.090953 C88.4065001,375.090953 79.0686393,372.180451 83.9194761,344.894494 L88.4065001,319.791414 C93.2573369,294.930876 95.5614844,285.835557 125.27286,285.835557 C137.642493,285.835557 150.982294,285.593015 149.04196,301.236963 L190.759156,301.236963 L190.759156,301.236963 Z M264.976959,287.048266 L335.07155,287.048266 L341.013825,253.33495 L229.687121,253.33495 L202.522435,407.59156 L315.183119,407.59156 L321.125394,373.878244 L249.575552,373.878244 L254.911472,343.803056 L320.761581,343.803056 L325.85496,315.183119 L260.004851,315.183119 L264.976959,287.048266 L264.976959,287.048266 L264.976959,287.048266 Z M418.748484,253.33495 L377.637642,253.33495 L350.472957,407.59156 L455.978656,407.59156 L462.284744,371.816638 L397.889886,371.816638 L418.748484,253.33495 L418.748484,253.33495 L418.748484,253.33495 Z" id="Shape" fill="#FFFFFF" fill-rule="nonzero"></path>
                <path d="M52.0252244,465.559059 L52.8741208,461.920931 L34.1983992,461.920931 L36.6238176,451.24909 L50.6912442,451.24909 L51.5401407,447.610963 L37.472714,447.610963 L39.7768615,437.424206 L57.7249576,437.424206 L58.573854,433.786078 L36.8663594,433.786078 L29.4688334,465.437788 L52.0252244,465.559059 L52.0252244,465.559059 Z M60.3929178,465.559059 L71.9136551,452.219258 L77.3708465,465.559059 L81.3727868,465.559059 L74.7028862,449.430027 L88.2852292,433.907349 L83.7982052,433.907349 L73.2476352,446.155712 L68.3967984,433.907349 L64.1523163,433.907349 L70.3371332,448.944943 L55.6633519,465.559059 L60.3929178,465.559059 L60.3929178,465.559059 Z M90.2255639,465.559059 L96.7741935,437.424206 L102.716469,437.424206 C104.899345,437.424206 106.475867,437.909289 107.567305,438.879457 C108.658744,439.849624 109.143827,441.183604 109.143827,442.760126 C109.143827,443.972835 108.901285,445.185545 108.294931,446.276983 C107.688576,447.368421 106.83968,448.217317 105.748242,448.823672 C104.656803,449.430027 103.201552,449.793839 101.503759,449.793839 L92.1658986,449.793839 L91.3170022,453.431967 L100.533592,453.431967 C103.080281,453.431967 105.263158,452.946883 107.082222,452.097987 C108.901285,451.12782 110.356537,449.91511 111.447975,448.217317 C112.418142,446.519525 113.024497,444.700461 113.024497,442.638855 C113.024497,440.092166 112.054329,437.909289 110.356537,436.332767 C108.537473,434.756245 106.112054,433.907349 102.83774,433.907349 L93.6211496,433.907349 L86.2236236,465.559059 L90.2255639,465.559059 L90.2255639,465.559059 Z M117.875333,465.559059 L124.423963,437.424206 L130.972593,437.424206 C132.912927,437.424206 134.368179,437.788018 135.459617,438.636915 C136.551055,439.485811 137.036139,440.69852 137.036139,442.275042 C137.036139,443.487752 136.793597,444.700461 136.187242,445.670628 C135.580888,446.640796 134.853262,447.489692 133.640553,448.217317 C132.549115,448.823672 131.093864,449.187485 129.396071,449.187485 L120.785836,449.187485 L119.936939,452.825612 L129.759884,452.825612 L132.185302,452.4618 C133.761824,452.219258 135.095804,451.612903 136.429784,450.764007 C137.763764,449.91511 138.855203,448.702401 139.704099,447.368421 C140.552995,445.91317 140.916808,444.336648 140.916808,442.517584 C140.916808,439.849624 140.067912,437.666748 138.370119,436.211496 C136.672326,434.756245 134.489449,433.907349 131.578947,433.907349 L121.149648,433.907349 L113.752122,465.559059 L117.875333,465.559059 L117.875333,465.559059 Z M138.49139,465.559059 L132.791657,451.612903 L128.910987,452.097987 L134.368179,465.559059 L138.49139,465.559059 L138.49139,465.559059 Z M165.777347,465.559059 L166.626243,461.920931 L147.950521,461.920931 L150.37594,451.24909 L164.443366,451.24909 L165.292263,447.610963 L151.224836,447.610963 L153.528984,437.424206 L171.47708,437.424206 L172.325976,433.786078 L150.618482,433.786078 L143.220956,465.437788 L165.777347,465.559059 L165.777347,465.559059 Z M191.001698,464.831433 C192.699491,463.982537 194.154742,462.891099 195.124909,461.435848 C196.216347,459.980597 196.701431,458.282804 196.701431,456.221198 C196.701431,454.402134 196.095076,452.946883 195.003638,451.734174 C193.9122,450.521465 192.093136,449.551298 189.788989,448.823672 L184.089255,447.24715 C182.634004,446.883337 181.542566,446.155712 180.69367,445.306815 C179.844773,444.457919 179.48096,443.487752 179.48096,442.396313 C179.48096,441.426146 179.723502,440.57725 180.208586,439.728353 C180.69367,438.879457 181.542566,438.273102 182.634004,437.788018 C183.725443,437.302935 185.059423,437.060393 186.635945,437.060393 C187.848654,437.060393 189.061363,437.181664 190.274072,437.545477 C191.365511,437.909289 192.456949,438.515644 193.305845,439.36454 C194.154742,440.213437 194.882367,441.547417 195.24618,443.123939 L199.126849,441.304875 C198.277953,438.636915 196.701431,436.69658 194.639825,435.483871 C192.57822,434.149891 189.91026,433.543536 186.878487,433.543536 C184.574339,433.543536 182.512733,434.02862 180.814941,434.756245 C179.117148,435.605142 177.783168,436.69658 176.813,438.151831 C175.842833,439.607082 175.357749,441.183604 175.357749,443.002668 C175.357749,444.215377 175.600291,445.428086 176.206646,446.519525 C176.813,447.610963 177.661897,448.459859 178.753335,449.308756 C179.844773,450.036381 181.300024,450.642736 182.876546,451.12782 L187.969925,452.583071 C189.425176,452.946883 190.516614,453.553238 191.24424,454.280863 C191.971865,454.887218 192.335678,455.857385 192.335678,457.070095 C192.335678,458.040262 192.093136,458.889158 191.608052,459.738055 C191.122969,460.586951 190.274072,461.314577 189.182634,461.79966 C188.091196,462.284744 186.878487,462.527286 185.301965,462.527286 C183.604172,462.527286 182.148921,462.284744 180.69367,461.79966 C179.238419,461.314577 178.025709,460.46568 176.934271,459.374242 C175.842833,458.282804 175.115207,456.706282 174.508853,454.887218 L170.628183,456.827553 C171.355809,458.889158 172.325976,460.586951 173.659956,461.920931 C174.993936,463.254911 176.570458,464.34635 178.510793,465.073975 C180.451128,465.801601 182.512733,466.165414 184.938152,466.165414 C187.36357,466.044143 189.303905,465.68033 191.001698,464.831433 L191.001698,464.831433 L191.001698,464.831433 Z M220.955615,464.831433 C222.653408,463.982537 224.108659,462.891099 225.078826,461.435848 C226.170264,459.980597 226.655348,458.282804 226.655348,456.221198 C226.655348,454.402134 226.048993,452.946883 224.957555,451.734174 C223.866117,450.521465 222.047053,449.551298 219.742906,448.823672 L214.043172,447.24715 C212.587921,446.883337 211.496483,446.155712 210.647587,445.306815 C209.79869,444.457919 209.434878,443.487752 209.434878,442.396313 C209.434878,441.426146 209.677419,440.57725 210.162503,439.728353 C210.647587,438.879457 211.496483,438.273102 212.587921,437.788018 C213.67936,437.302935 215.01334,437.060393 216.589862,437.060393 C217.802571,437.060393 219.01528,437.181664 220.227989,437.545477 C221.319428,437.909289 222.410866,438.515644 223.259762,439.36454 C224.108659,440.213437 224.836284,441.547417 225.200097,443.123939 L229.080766,441.304875 C228.23187,438.636915 226.655348,436.69658 224.593742,435.483871 C222.532137,434.149891 219.864177,433.543536 216.832404,433.543536 C214.528256,433.543536 212.46665,434.02862 210.768858,434.756245 C209.071065,435.605142 207.737085,436.69658 206.766917,438.151831 C205.79675,439.607082 205.311666,441.183604 205.311666,443.002668 C205.311666,444.215377 205.554208,445.428086 206.160563,446.519525 C206.766917,447.610963 207.615814,448.459859 208.707252,449.308756 C209.79869,450.036381 211.253941,450.642736 212.830463,451.12782 L217.923842,452.583071 C219.379093,452.946883 220.470531,453.553238 221.198157,454.280863 C221.925782,454.887218 222.289595,455.857385 222.289595,457.070095 C222.289595,458.040262 222.047053,458.889158 221.561969,459.738055 C221.076886,460.586951 220.227989,461.314577 219.136551,461.79966 C218.045113,462.284744 216.832404,462.527286 215.255882,462.527286 C213.558089,462.527286 212.102838,462.284744 210.647587,461.79966 C209.192336,461.314577 207.979626,460.46568 206.888188,459.374242 C205.79675,458.282804 205.069124,456.706282 204.46277,454.887218 L200.5821,456.827553 C201.309726,458.889158 202.279893,460.586951 203.613873,461.920931 C204.947854,463.254911 206.524375,464.34635 208.46471,465.073975 C210.405045,465.801601 212.46665,466.165414 214.892069,466.165414 C217.317487,466.044143 219.257822,465.68033 220.955615,464.831433 L220.955615,464.831433 L220.955615,464.831433 Z M265.462042,433.907349 L261.581373,433.907349 L254.183847,465.559059 L275.77007,465.559059 L276.618967,461.920931 L258.792142,461.920931 L265.462042,433.907349 L265.462042,433.907349 L265.462042,433.907349 Z M300.873151,464.588892 C302.813485,463.618724 304.511278,462.163473 305.966529,460.46568 C307.300509,458.646617 308.391948,456.706282 308.998302,454.402134 C309.725928,452.097987 310.08974,449.793839 310.08974,447.368421 C310.08974,444.336648 309.483386,441.91123 308.270677,439.849624 C307.057967,437.788018 305.481446,436.211496 303.541111,435.120058 C301.600776,434.02862 299.4179,433.543536 296.992481,433.543536 C294.324521,433.543536 292.020374,434.02862 289.958768,435.120058 C287.897162,436.211496 286.199369,437.545477 284.865389,439.243269 C283.531409,440.941062 282.439971,443.002668 281.712345,445.185545 C280.98472,447.368421 280.620907,449.793839 280.620907,452.219258 C280.620907,455.251031 281.227262,457.676449 282.439971,459.859326 C283.65268,461.920931 285.229202,463.497453 287.290808,464.588892 C289.231142,465.68033 291.414019,466.165414 293.839437,466.165414 C296.628668,466.165414 298.932816,465.559059 300.873151,464.588892 L300.873151,464.588892 L300.873151,464.588892 Z M289.352413,461.193306 C287.897162,460.344409 286.805724,459.1317 285.956828,457.555178 C285.107931,455.978656 284.744118,454.038322 284.744118,451.855445 C284.744118,449.91511 284.98666,448.096047 285.471744,446.398254 C285.956828,444.700461 286.684453,443.002668 287.65462,441.668688 C288.624788,440.213437 289.837497,439.121999 291.292748,438.273102 C292.747999,437.424206 294.445792,437.060393 296.386127,437.060393 C298.326461,437.060393 299.902983,437.424206 301.358234,438.273102 C302.813485,439.121999 303.904924,440.334708 304.632549,441.91123 C305.481446,443.487752 305.845258,445.428086 305.845258,447.610963 C305.845258,449.430027 305.602716,451.24909 305.117633,453.068154 C304.632549,454.887218 303.904924,456.46374 302.934756,457.79772 C301.964589,459.1317 300.75188,460.344409 299.296629,461.193306 C297.841378,462.042202 296.143585,462.406015 294.20325,462.406015 C292.262915,462.406015 290.807664,462.042202 289.352413,461.193306 L289.352413,461.193306 L289.352413,461.193306 Z M331.675964,465.316517 C332.888673,464.831433 333.980112,464.103808 334.950279,463.254911 C335.920446,462.284744 336.648072,461.193306 337.254426,459.859326 L336.769343,459.374242 L335.435363,465.68033 L338.467136,465.68033 L342.347805,449.91511 L329.008004,449.91511 L328.159107,453.553238 L338.103323,453.553238 L337.73951,455.008489 C337.375697,456.46374 336.769343,457.79772 335.920446,458.889158 C335.07155,459.980597 333.980112,460.829493 332.767402,461.557119 C331.433422,462.163473 329.8569,462.527286 328.159107,462.527286 C326.461315,462.527286 324.642251,462.163473 323.308271,461.314577 C321.974291,460.46568 320.882852,459.374242 320.155227,457.79772 C319.427601,456.221198 319.063789,454.402134 319.063789,452.219258 C319.063789,450.400194 319.30633,448.58113 319.791414,446.762066 C320.276498,444.943003 321.125394,443.366481 322.095561,441.91123 C323.187,440.455979 324.399709,439.36454 325.976231,438.515644 C327.431482,437.666748 329.250546,437.302935 331.19088,437.302935 C333.373757,437.302935 335.192821,437.788018 336.769343,438.758186 C338.345865,439.728353 339.316032,441.304875 339.922387,443.609023 L343.803056,442.275042 C343.196701,440.213437 342.347805,438.515644 341.135096,437.302935 C339.922387,436.090226 338.467136,435.120058 336.890614,434.634975 C335.192821,434.02862 333.495028,433.786078 331.554693,433.786078 C328.886733,433.786078 326.461315,434.271162 324.399709,435.3626 C322.338103,436.454038 320.64031,437.788018 319.30633,439.607082 C317.97235,441.426146 316.880912,443.366481 316.153286,445.670628 C315.425661,447.974776 315.061848,450.278923 315.061848,452.704341 C315.061848,455.614844 315.668203,458.040262 316.759641,459.980597 C317.851079,462.042202 319.427601,463.618724 321.246665,464.588892 C323.065729,465.559059 325.248605,466.165414 327.431482,466.165414 C328.886733,466.044143 330.341984,465.801601 331.675964,465.316517 L331.675964,465.316517 L331.675964,465.316517 Z M353.383459,433.907349 L345.985933,465.559059 L349.866602,465.559059 L357.264128,433.907349 L353.383459,433.907349 Z M378.001455,464.831433 C379.699248,463.982537 381.154499,462.891099 382.124667,461.435848 C383.216105,459.980597 383.701188,458.282804 383.701188,456.221198 C383.701188,454.402134 383.094834,452.946883 382.003396,451.734174 C380.911957,450.521465 379.092894,449.551298 376.788746,448.823672 L371.089013,447.24715 C369.633762,446.883337 368.542324,446.155712 367.693427,445.306815 C366.844531,444.457919 366.480718,443.487752 366.480718,442.396313 C366.480718,441.426146 366.72326,440.57725 367.208343,439.728353 C367.693427,438.879457 368.542324,438.273102 369.633762,437.788018 C370.7252,437.302935 372.05918,437.060393 373.635702,437.060393 C374.848411,437.060393 376.061121,437.181664 377.27383,437.545477 C378.486539,437.909289 379.456706,438.515644 380.305603,439.36454 C381.154499,440.213437 381.882125,441.547417 382.245937,443.123939 L386.126607,441.304875 C385.27771,438.636915 383.701188,436.69658 381.639583,435.483871 C379.577977,434.271162 376.910017,433.543536 373.878244,433.543536 C371.574097,433.543536 369.512491,434.02862 367.814698,434.756245 C366.116905,435.605142 364.782925,436.69658 363.812758,438.151831 C362.84259,439.607082 362.357507,441.183604 362.357507,443.002668 C362.357507,444.215377 362.600049,445.428086 363.206403,446.519525 C363.812758,447.610963 364.661654,448.459859 365.753092,449.308756 C366.844531,450.036381 368.299782,450.642736 369.876304,451.12782 L374.969682,452.583071 C376.424933,452.946883 377.516372,453.553238 378.243997,454.280863 C378.971623,454.887218 379.335435,455.857385 379.335435,457.070095 C379.335435,458.040262 379.092894,458.889158 378.60781,459.738055 C378.122726,460.586951 377.27383,461.314577 376.182391,461.79966 C375.090953,462.284744 373.756973,462.527286 372.301722,462.527286 C370.603929,462.527286 369.148678,462.284744 367.693427,461.79966 C366.238176,461.314577 365.025467,460.46568 363.934029,459.374242 C362.84259,458.282804 362.114965,456.706282 361.50861,454.887218 L357.627941,456.827553 C358.355566,458.889158 359.325734,460.586951 360.659714,461.920931 C361.993694,463.254911 363.570216,464.34635 365.510551,465.073975 C367.450885,465.801601 369.512491,466.165414 371.937909,466.165414 C374.363328,466.044143 376.182391,465.68033 378.001455,464.831433 L378.001455,464.831433 L378.001455,464.831433 Z M390.977444,433.907349 L390.128547,437.545477 L401.04293,437.545477 L394.615571,465.68033 L398.496241,465.68033 L404.923599,437.545477 L415.59544,437.545477 L416.444337,433.907349 L390.977444,433.907349 Z M421.537715,433.907349 L414.140189,465.559059 L418.020859,465.559059 L425.418385,433.907349 L421.537715,433.907349 Z M430.633034,465.68033 L432.937182,455.978656 L440.092166,449.793839 L446.762066,465.68033 L451.006549,465.68033 L443.123939,447.24715 L458.282804,434.02862 L452.825612,434.02862 L434.271162,450.157652 L438.03056,434.02862 L434.149891,434.02862 L426.752365,465.68033 L430.633034,465.68033 L430.633034,465.68033 Z" id="Shape" fill="#FFFFFF" fill-rule="nonzero"></path>
            </g>
        </g>
    </g>
</svg>