<?xml version="1.0" encoding="UTF-8"?>
<svg width="980px" height="680px" viewBox="0 0 980 680" version="1.1" xmlns="http://www.w3.org/2000/svg" xmlns:xlink="http://www.w3.org/1999/xlink">
    <title>DE GLS white Express</title>
    <defs>
        <linearGradient x1="50%" y1="0%" x2="50%" y2="100%" id="linearGradient-1">
            <stop stop-color="#FFFFFF" offset="0%"></stop>
            <stop stop-color="#EDEDED" offset="100%"></stop>
        </linearGradient>
        <rect id="path-2" x="0" y="0" width="900" height="600" rx="80"></rect>
        <filter x="-6.7%" y="-10.0%" width="113.3%" height="120.0%" filterUnits="objectBoundingBox" id="filter-3">
            <feMorphology radius="2.5" operator="dilate" in="SourceAlpha" result="shadowSpreadOuter1"></feMorphology>
            <feOffset dx="0" dy="0" in="shadowSpreadOuter1" result="shadowOffsetOuter1"></feOffset>
            <feGaussianBlur stdDeviation="17.5" in="shadowOffsetOuter1" result="shadowBlurOuter1"></feGaussianBlur>
            <feColorMatrix values="0 0 0 0 0   0 0 0 0 0   0 0 0 0 0  0 0 0 0.5 0" type="matrix" in="shadowBlurOuter1"></feColorMatrix>
        </filter>
    </defs>
    <g id="DE-GLS-white-Express" stroke="none" stroke-width="1" fill="none" fill-rule="evenodd">
        <g transform="translate(40, 40)">
            <g id="Rectangle">
                <use fill="black" fill-opacity="1" filter="url(#filter-3)" xlink:href="#path-2"></use>
                <use fill="url(#linearGradient-1)" fill-rule="evenodd" xlink:href="#path-2"></use>
            </g>
            <g id="Logo" transform="translate(50, 56)" fill-rule="nonzero">
                <g id="GLS" transform="translate(0, 0)">
                    <path d="M755.286195,268.821549 C780.06734,268.821549 800,248.888889 800,224.646465 C800,199.86532 780.06734,180.47138 755.286195,180.47138 C730.505051,180.47138 710.572391,200.40404 710.572391,224.646465 C711.111111,248.888889 731.043771,268.821549 755.286195,268.821549 L755.286195,268.821549 Z" id="Path" fill="#FFD100"></path>
                    <path d="M128.215488,125.521886 L128.215488,183.703704 L176.700337,183.703704 C169.69697,195.016835 153.535354,200.942761 142.760943,200.942761 C106.127946,200.942761 87.8114478,180.47138 87.8114478,138.451178 C87.8114478,92.1212121 112.053872,68.4175084 159.461279,68.4175084 C178.316498,68.4175084 203.097643,73.2659933 230.03367,81.3468013 L230.03367,11.8518519 C222.491582,8.61952862 210.639731,5.92592593 195.555556,3.23232323 C180.47138,1.07744108 167.003367,-5.68434189e-14 155.690236,-5.68434189e-14 C108.282828,-5.68434189e-14 70.5723906,12.9292929 42.5589226,38.2491582 C14.006734,63.5690236 0,98.047138 0,141.144781 C0,181.010101 10.7744108,212.255892 32.8619529,234.882155 C54.9494949,258.047138 84.5791246,269.89899 121.750842,269.89899 C158.922559,269.89899 193.400673,250.505051 204.713805,226.262626 L204.713805,265.589226 L258.585859,265.589226 L258.585859,125.521886 L128.215488,125.521886 Z M284.983165,265.589226 L284.983165,4.30976431 L369.023569,4.30976431 L369.023569,197.710438 L460.606061,197.710438 L460.606061,265.589226 L284.983165,265.589226 Z M487.003367,259.124579 L487.003367,188.013468 C499.393939,191.784512 513.939394,195.555556 530.639731,198.249158 C546.801347,200.942761 561.346801,202.558923 573.198653,202.558923 C593.670034,202.558923 604.444444,197.710438 604.444444,188.552189 C604.444444,182.626263 601.212121,179.93266 586.127946,176.700337 L557.037037,170.23569 C506.936027,158.922559 483.771044,133.602694 483.771044,91.043771 C483.771044,63.030303 493.468013,40.9427609 512.861953,24.2424242 C532.255892,8.08080808 559.191919,-1.13686838e-13 593.131313,-1.13686838e-13 C616.296296,-1.13686838e-13 652.390572,4.84848485 673.939394,10.2356902 L673.939394,78.1144781 C662.626263,75.4208754 649.158249,72.1885522 632.457912,69.4949495 C616.296296,66.8013468 603.367003,65.7239057 593.670034,65.7239057 C575.892256,65.7239057 565.656566,70.5723906 565.656566,79.7306397 C565.656566,85.1178451 570.505051,88.8888889 580.20202,91.5824916 L614.141414,99.6632997 C663.703704,111.515152 686.868687,136.835017 686.868687,179.93266 C686.868687,207.407407 676.632997,229.494949 656.700337,245.656566 C636.767677,261.818182 608.754209,269.89899 573.737374,269.89899 C539.79798,269.89899 505.858586,265.050505 487.003367,259.124579 Z" id="Shape" fill="#061AB1"></path>
                </g>
                <g id="Express" transform="translate(98.7, 351)" fill="#061AB1">
                    <polygon id="Path" points="-5.68434189e-14 0 84 0 84 22.4 24 22.4 24 44.8 72 44.8 72 65.6 24 65.6 24 89.6 84 89.6 84 112 -5.68434189e-14 112"></polygon>
                    <polygon id="Path" points="114.4 70.4 92 30.4 116.8 30.4 132 60.8 136 60.8 151.2 30.4 176 30.4 153.6 70.4 177.6 112 152.8 112 136 80 132 80 115.2 112 90.4 112"></polygon>
                    <path d="M186.4,30.4 L208.8,30.4 L208.8,40.8 L209.6,40.8 C211.306667,38.4533333 213.386667,36.32 215.84,34.4 C217.973333,32.8 220.613333,31.3333333 223.76,30 C226.906667,28.6666667 230.72,28 235.2,28 C240.426667,28 245.306667,29.0133333 249.84,31.04 C254.373333,33.0666667 258.346667,35.9466667 261.76,39.68 C265.173333,43.4133333 267.866667,47.9466667 269.84,53.28 C271.813333,58.6133333 272.8,64.5866667 272.8,71.2 C272.8,77.8133333 271.813333,83.7866667 269.84,89.12 C267.866667,94.4533333 265.173333,98.9866667 261.76,102.72 C258.346667,106.453333 254.373333,109.333333 249.84,111.36 C245.306667,113.386667 240.426667,114.4 235.2,114.4 C230.72,114.4 226.906667,113.733333 223.76,112.4 C220.613333,111.066667 217.973333,109.6 215.84,108 C213.386667,106.08 211.306667,103.946667 209.6,101.6 L208.8,101.6 L208.8,142.4 L186.4,142.4 L186.4,30.4 Z M229.6,95.2 C235.253333,95.2 240,93.12 243.84,88.96 C247.68,84.8 249.6,78.88 249.6,71.2 C249.6,63.52 247.68,57.6 243.84,53.44 C240,49.28 235.253333,47.2 229.6,47.2 C223.52,47.2 218.533333,49.28 214.64,53.44 C210.746667,57.6 208.8,63.52 208.8,71.2 C208.8,78.88 210.746667,84.8 214.64,88.96 C218.533333,93.12 223.52,95.2 229.6,95.2 Z" id="Shape"></path>
                    <path d="M286.4,30.4 L308.8,30.4 L308.8,42.4 L309.6,42.4 C310.56,39.84 312,37.6 313.92,35.68 C315.52,33.9733333 317.653333,32.4 320.32,30.96 C322.986667,29.52 326.346667,28.8 330.4,28.8 L340,28.8 L340,50.4 L328,50.4 C321.92,50.4 317.2,52.0533333 313.84,55.36 C310.48,58.6666667 308.8,63.1466667 308.8,68.8 L308.8,112 L286.4,112 L286.4,30.4 Z" id="Path"></path>
                    <path d="M390.4,114.4 C384.213333,114.4 378.426667,113.28 373.04,111.04 C367.653333,108.8 362.986667,105.733333 359.04,101.84 C355.093333,97.9466667 352,93.36 349.76,88.08 C347.52,82.8 346.4,77.1733333 346.4,71.2 C346.4,65.2266667 347.52,59.6 349.76,54.32 C352,49.04 355.093333,44.4533333 359.04,40.56 C362.986667,36.6666667 367.653333,33.6 373.04,31.36 C378.426667,29.12 384.213333,28 390.4,28 C396.8,28 402.64,29.12 407.92,31.36 C413.2,33.6 417.76,36.6933333 421.6,40.64 C425.44,44.5866667 428.4,49.1733333 430.48,54.4 C432.56,59.6266667 433.6,65.2266667 433.6,71.2 L433.6,76 L369.6,76 C370.026667,78.56 370.853333,81.0133333 372.08,83.36 C373.306667,85.7066667 374.853333,87.76 376.72,89.52 C378.586667,91.28 380.693333,92.6666667 383.04,93.68 C385.386667,94.6933333 387.84,95.2 390.4,95.2 C394.026667,95.2 396.986667,94.6933333 399.28,93.68 C401.573333,92.6666667 403.466667,91.5733333 404.96,90.4 C406.56,89.0133333 407.84,87.4133333 408.8,85.6 L432.8,85.6 C431.093333,90.9333333 428.426667,95.7333333 424.8,100 C423.2,101.813333 421.333333,103.573333 419.2,105.28 C417.066667,106.986667 414.613333,108.533333 411.84,109.92 C409.066667,111.306667 405.893333,112.4 402.32,113.2 C398.746667,114 394.773333,114.4 390.4,114.4 Z M409.6,62.4 C409.173333,60.3733333 408.426667,58.4533333 407.36,56.64 C406.293333,54.8266667 404.933333,53.2266667 403.28,51.84 C401.626667,50.4533333 399.706667,49.3333333 397.52,48.48 C395.333333,47.6266667 392.96,47.2 390.4,47.2 C385.173333,47.2 380.826667,48.72 377.36,51.76 C373.893333,54.8 371.573333,58.3466667 370.4,62.4 L409.6,62.4 Z" id="Shape"></path>
                    <path d="M482.4,114.4 C478.026667,114.4 474.08,114 470.56,113.2 C467.04,112.4 463.92,111.306667 461.2,109.92 C458.48,108.533333 456.08,106.986667 454,105.28 C451.92,103.573333 450.186667,101.813333 448.8,100 C445.386667,95.7333333 442.986667,90.9333333 441.6,85.6 L464.8,85.6 C465.653333,87.6266667 466.826667,89.3866667 468.32,90.88 C469.6,92.16 471.36,93.3333333 473.6,94.4 C475.84,95.4666667 478.773333,96 482.4,96 C487.626667,96 491.2,95.28 493.12,93.84 C495.04,92.4 496,90.4533333 496,88 C496,85.8666667 494.746667,84.2666667 492.24,83.2 C489.733333,82.1333333 486.613333,81.1733333 482.88,80.32 C479.146667,79.4666667 475.12,78.56 470.8,77.6 C466.48,76.64 462.453333,75.2 458.72,73.28 C454.986667,71.36 451.866667,68.8 449.36,65.6 C446.853333,62.4 445.6,58.1333333 445.6,52.8 C445.6,49.6 446.346667,46.5066667 447.84,43.52 C449.333333,40.5333333 451.52,37.8933333 454.4,35.6 C457.28,33.3066667 460.853333,31.4666667 465.12,30.08 C469.386667,28.6933333 474.346667,28 480,28 C484.266667,28 488.106667,28.3733333 491.52,29.12 C494.933333,29.8666667 497.946667,30.88 500.56,32.16 C503.173333,33.44 505.44,34.88 507.36,36.48 C509.28,38.08 510.88,39.68 512.16,41.28 C515.253333,45.12 517.333333,49.4933333 518.4,54.4 L496,54.4 C495.36,52.9066667 494.4,51.5733333 493.12,50.4 C491.946667,49.44 490.32,48.5333333 488.24,47.68 C486.16,46.8266667 483.413333,46.4 480,46.4 C475.946667,46.4 473.066667,47.0666667 471.36,48.4 C469.653333,49.7333333 468.8,51.2 468.8,52.8 C468.8,54.9333333 470.053333,56.5333333 472.56,57.6 C475.066667,58.6666667 478.186667,59.6266667 481.92,60.48 C485.653333,61.3333333 489.68,62.24 494,63.2 C498.32,64.16 502.346667,65.6 506.08,67.52 C509.813333,69.44 512.933333,72 515.44,75.2 C517.946667,78.4 519.2,82.6666667 519.2,88 C519.2,91.4133333 518.4,94.6933333 516.8,97.84 C515.2,100.986667 512.853333,103.786667 509.76,106.24 C506.666667,108.693333 502.826667,110.666667 498.24,112.16 C493.653333,113.653333 488.373333,114.4 482.4,114.4 Z" id="Path"></path>
                    <path d="M567.2,114.4 C562.826667,114.4 558.88,114 555.36,113.2 C551.84,112.4 548.72,111.306667 546,109.92 C543.28,108.533333 540.88,106.986667 538.8,105.28 C536.72,103.573333 534.986667,101.813333 533.6,100 C530.186667,95.7333333 527.786667,90.9333333 526.4,85.6 L549.6,85.6 C550.453333,87.6266667 551.626667,89.3866667 553.12,90.88 C554.4,92.16 556.16,93.3333333 558.4,94.4 C560.64,95.4666667 563.573333,96 567.2,96 C572.426667,96 576,95.28 577.92,93.84 C579.84,92.4 580.8,90.4533333 580.8,88 C580.8,85.8666667 579.546667,84.2666667 577.04,83.2 C574.533333,82.1333333 571.413333,81.1733333 567.68,80.32 C563.946667,79.4666667 559.92,78.56 555.6,77.6 C551.28,76.64 547.253333,75.2 543.52,73.28 C539.786667,71.36 536.666667,68.8 534.16,65.6 C531.653333,62.4 530.4,58.1333333 530.4,52.8 C530.4,49.6 531.146667,46.5066667 532.64,43.52 C534.133333,40.5333333 536.32,37.8933333 539.2,35.6 C542.08,33.3066667 545.653333,31.4666667 549.92,30.08 C554.186667,28.6933333 559.146667,28 564.8,28 C569.066667,28 572.906667,28.3733333 576.32,29.12 C579.733333,29.8666667 582.746667,30.88 585.36,32.16 C587.973333,33.44 590.24,34.88 592.16,36.48 C594.08,38.08 595.68,39.68 596.96,41.28 C600.053333,45.12 602.133333,49.4933333 603.2,54.4 L580.8,54.4 C580.16,52.9066667 579.2,51.5733333 577.92,50.4 C576.746667,49.44 575.12,48.5333333 573.04,47.68 C570.96,46.8266667 568.213333,46.4 564.8,46.4 C560.746667,46.4 557.866667,47.0666667 556.16,48.4 C554.453333,49.7333333 553.6,51.2 553.6,52.8 C553.6,54.9333333 554.853333,56.5333333 557.36,57.6 C559.866667,58.6666667 562.986667,59.6266667 566.72,60.48 C570.453333,61.3333333 574.48,62.24 578.8,63.2 C583.12,64.16 587.146667,65.6 590.88,67.52 C594.613333,69.44 597.733333,72 600.24,75.2 C602.746667,78.4 604,82.6666667 604,88 C604,91.4133333 603.2,94.6933333 601.6,97.84 C600,100.986667 597.653333,103.786667 594.56,106.24 C591.466667,108.693333 587.626667,110.666667 583.04,112.16 C578.453333,113.653333 573.173333,114.4 567.2,114.4 Z" id="Path"></path>
                </g>
            </g>
        </g>
    </g>
</svg>