<?xml version="1.0" encoding="UTF-8"?>
<svg width="980px" height="680px" viewBox="0 0 980 680" version="1.1" xmlns="http://www.w3.org/2000/svg" xmlns:xlink="http://www.w3.org/1999/xlink">
    <title>DE GLS white</title>
    <defs>
        <linearGradient x1="50%" y1="0%" x2="50%" y2="100%" id="linearGradient-1">
            <stop stop-color="#FFFFFF" offset="0%"></stop>
            <stop stop-color="#EDEDED" offset="100%"></stop>
        </linearGradient>
        <rect id="path-2" x="0" y="0" width="900" height="600" rx="80"></rect>
        <filter x="-6.7%" y="-10.0%" width="113.3%" height="120.0%" filterUnits="objectBoundingBox" id="filter-3">
            <feMorphology radius="2.5" operator="dilate" in="SourceAlpha" result="shadowSpreadOuter1"></feMorphology>
            <feOffset dx="0" dy="0" in="shadowSpreadOuter1" result="shadowOffsetOuter1"></feOffset>
            <feGaussianBlur stdDeviation="17.5" in="shadowOffsetOuter1" result="shadowBlurOuter1"></feGaussianBlur>
            <feColorMatrix values="0 0 0 0 0   0 0 0 0 0   0 0 0 0 0  0 0 0 0.5 0" type="matrix" in="shadowBlurOuter1"></feColorMatrix>
        </filter>
    </defs>
    <g id="DE-GLS-white" stroke="none" stroke-width="1" fill="none" fill-rule="evenodd">
        <g transform="translate(40, 40)">
            <g id="Rectangle">
                <use fill="black" fill-opacity="1" filter="url(#filter-3)" xlink:href="#path-2"></use>
                <use fill="url(#linearGradient-1)" fill-rule="evenodd" xlink:href="#path-2"></use>
            </g>
            <g id="Logo" transform="translate(50, 165)" fill-rule="nonzero">
                <path d="M755.286195,268.821549 C780.06734,268.821549 800,248.888889 800,224.646465 C800,199.86532 780.06734,180.47138 755.286195,180.47138 C730.505051,180.47138 710.572391,200.40404 710.572391,224.646465 C711.111111,248.888889 731.043771,268.821549 755.286195,268.821549 L755.286195,268.821549 Z" id="Path" fill="#FFD100"></path>
                <path d="M128.215488,125.521886 L128.215488,183.703704 L176.700337,183.703704 C169.69697,195.016835 153.535354,200.942761 142.760943,200.942761 C106.127946,200.942761 87.8114478,180.47138 87.8114478,138.451178 C87.8114478,92.1212121 112.053872,68.4175084 159.461279,68.4175084 C178.316498,68.4175084 203.097643,73.2659933 230.03367,81.3468013 L230.03367,11.8518519 C222.491582,8.61952862 210.639731,5.92592593 195.555556,3.23232323 C180.47138,1.07744108 167.003367,-5.68434189e-14 155.690236,-5.68434189e-14 C108.282828,-5.68434189e-14 70.5723906,12.9292929 42.5589226,38.2491582 C14.006734,63.5690236 0,98.047138 0,141.144781 C0,181.010101 10.7744108,212.255892 32.8619529,234.882155 C54.9494949,258.047138 84.5791246,269.89899 121.750842,269.89899 C158.922559,269.89899 193.400673,250.505051 204.713805,226.262626 L204.713805,265.589226 L258.585859,265.589226 L258.585859,125.521886 L128.215488,125.521886 Z M284.983165,265.589226 L284.983165,4.30976431 L369.023569,4.30976431 L369.023569,197.710438 L460.606061,197.710438 L460.606061,265.589226 L284.983165,265.589226 Z M487.003367,259.124579 L487.003367,188.013468 C499.393939,191.784512 513.939394,195.555556 530.639731,198.249158 C546.801347,200.942761 561.346801,202.558923 573.198653,202.558923 C593.670034,202.558923 604.444444,197.710438 604.444444,188.552189 C604.444444,182.626263 601.212121,179.93266 586.127946,176.700337 L557.037037,170.23569 C506.936027,158.922559 483.771044,133.602694 483.771044,91.043771 C483.771044,63.030303 493.468013,40.9427609 512.861953,24.2424242 C532.255892,8.08080808 559.191919,-1.13686838e-13 593.131313,-1.13686838e-13 C616.296296,-1.13686838e-13 652.390572,4.84848485 673.939394,10.2356902 L673.939394,78.1144781 C662.626263,75.4208754 649.158249,72.1885522 632.457912,69.4949495 C616.296296,66.8013468 603.367003,65.7239057 593.670034,65.7239057 C575.892256,65.7239057 565.656566,70.5723906 565.656566,79.7306397 C565.656566,85.1178451 570.505051,88.8888889 580.20202,91.5824916 L614.141414,99.6632997 C663.703704,111.515152 686.868687,136.835017 686.868687,179.93266 C686.868687,207.407407 676.632997,229.494949 656.700337,245.656566 C636.767677,261.818182 608.754209,269.89899 573.737374,269.89899 C539.79798,269.89899 505.858586,265.050505 487.003367,259.124579 Z" id="Shape" fill="#061AB1"></path>
            </g>
        </g>
    </g>
</svg>