<?xml version="1.0" encoding="UTF-8"?>
<svg width="980px" height="680px" viewBox="0 0 980 680" version="1.1" xmlns="http://www.w3.org/2000/svg" xmlns:xlink="http://www.w3.org/1999/xlink">
    <title>DE General Overnight claim</title>
    <defs>
        <linearGradient x1="50%" y1="0%" x2="50%" y2="100%" id="linearGradient-1">
            <stop stop-color="#FFFFFF" offset="0%"></stop>
            <stop stop-color="#EDEDED" offset="100%"></stop>
        </linearGradient>
        <rect id="path-2" x="0" y="0" width="900" height="600" rx="80"></rect>
        <filter x="-6.7%" y="-10.0%" width="113.3%" height="120.0%" filterUnits="objectBoundingBox" id="filter-3">
            <feMorphology radius="2.5" operator="dilate" in="SourceAlpha" result="shadowSpreadOuter1"></feMorphology>
            <feOffset dx="0" dy="0" in="shadowSpreadOuter1" result="shadowOffsetOuter1"></feOffset>
            <feGaussianBlur stdDeviation="17.5" in="shadowOffsetOuter1" result="shadowBlurOuter1"></feGaussianBlur>
            <feColorMatrix values="0 0 0 0 0   0 0 0 0 0   0 0 0 0 0  0 0 0 0.5 0" type="matrix" in="shadowBlurOuter1"></feColorMatrix>
        </filter>
    </defs>
    <g id="DE-General-Overnight-claim" stroke="none" stroke-width="1" fill="none" fill-rule="evenodd">
        <g transform="translate(40, 40)">
            <g id="Rectangle">
                <use fill="black" fill-opacity="1" filter="url(#filter-3)" xlink:href="#path-2"></use>
                <use fill="url(#linearGradient-1)" fill-rule="evenodd" xlink:href="#path-2"></use>
            </g>
            <g id="Logo" transform="translate(50, 70)">
                <path d="M739.107871,345.805017 L800,345.805017 L800,282.226263 L739.107871,282.226263 L739.107871,345.805017 Z M74.5688514,208.321124 C71.9034086,198.718469 70.4277065,188.272052 70.4277065,176.96775 C70.4277065,107.387336 122.419728,68.2953522 176.106335,68.2953522 C231.102717,68.2953522 253.866657,104.810153 253.866657,104.810153 L333.773455,104.810153 C333.773455,104.810153 300.676069,-2.50849142e-14 177.829165,-2.50849142e-14 C65.2733403,-2.50849142e-14 5.01698283e-14,91.9277683 5.01698283e-14,175.269633 C5.01698283e-14,186.06909 1.06264673,197.17922 3.21265291,208.331715 C17.0023477,280.069196 74.8830559,353.109389 172.678329,353.109389 C287.592452,353.109389 337.36739,264.528428 347.605514,208.331715 C348.897636,201.302713 349.554289,194.789148 349.653139,189.020494 C351.02646,178.42227 349.653139,165.825846 349.653139,165.825846 L174.379976,165.825846 L174.379976,222.523874 L270.611287,222.523874 C270.611287,222.523874 246.985931,284.810506 176.106335,284.810506 C134.36656,284.810506 88.3797285,257.965438 74.5688514,208.331715 L74.5688514,208.321124 Z M544.142204,0.653121745 C444.433461,0.653121745 370.493019,79.7761734 370.493019,176.883021 C370.493019,187.62246 371.435632,198.135955 373.218478,208.331715 C387.668355,290.420293 457.778327,352.682212 544.142204,352.682212 C630.484899,352.682212 700.940848,290.420293 715.471925,208.331715 C717.272422,198.135955 718.222097,187.62246 718.222097,176.883021 C718.222097,79.7761734 641.231399,0.653121745 544.142204,0.653121745 L544.142204,0.653121745 Z M645.0654,208.331715 C632.165363,252.387425 593.038075,284.9376 544.798856,284.9376 C500.358334,284.9376 459.126935,252.136767 444.821804,208.321124 C441.400858,197.81469 439.497979,186.651604 439.497979,175.163722 C439.497979,112.340471 490.988685,68.8249104 544.798856,68.8249104 C604.575383,68.8249104 649.644313,117.064129 649.644313,176.445253 C649.644313,187.516549 648.045048,198.217154 645.0654,208.331715 L645.0654,208.331715 Z M739.107871,208.331715 L739.107871,253.43595 L800,253.43595 L800,7.72448854 L739.107871,7.72448854 L739.107871,208.331715 L739.107871,208.331715 Z" id="Fill-4" fill="#A52632"></path>
                <polyline id="Fill-5" fill="#6F8F9D" points="29.5811195 427.611163 29.5811195 418.905227 7.05724524 418.905227 7.05724524 458.487935 29.5811195 458.487935 29.5811195 449.785529 17.3377346 449.785529 17.3377346 442.947168 28.9491801 442.947168 28.9491801 434.241231 17.3377346 434.241231 17.3377346 427.611163 29.5811195 427.611163"></polyline>
                <polyline id="Fill-6" fill="#6F8F9D" points="60.592046 437.344442 45.0901131 458.487935 57.5206086 458.487935 66.6113573 445.573776 74.9183598 458.487935 87.2994298 458.487935 72.6377293 437.344442 85.3118215 418.905227 72.6377293 418.905227 66.6113573 429.143351 60.592046 418.905227 47.910893 418.905227 60.592046 437.344442"></polyline>
                <path d="M103.256783,458.487935 L113.51609,458.487935 L113.51609,445.361953 L119.373003,445.361953 C128.340188,445.361953 133.392173,441.266703 133.392173,431.928827 C133.392173,422.84514 127.485834,418.908757 118.970539,418.908757 L103.256783,418.908757 L103.256783,458.487935 Z M113.51609,427.198108 L115.263632,427.198108 C119.245909,427.198108 122.663325,427.244003 122.663325,432.239502 C122.663325,437.079663 118.970539,437.079663 115.263632,437.079663 L113.51609,437.079663 L113.51609,427.198108 L113.51609,427.198108 Z" id="Fill-7" fill="#6F8F9D"></path>
                <path d="M171.368555,442.262273 C176.97128,441.263173 180.010944,436.543044 180.010944,431.085065 C180.010944,422.643907 174.090484,418.905227 166.267144,418.905227 L150.878184,418.905227 L150.878184,458.484405 L161.179856,458.484405 L161.179856,443.257842 L161.285767,443.257842 L170.980212,458.484405 L183.809641,458.484405 L171.368555,442.262273 Z M161.179856,426.777992 L162.178955,426.777992 C165.515172,426.777992 169.32093,427.39934 169.32093,431.706413 C169.32093,436.020547 165.515172,436.645425 162.178955,436.645425 L161.179856,436.645425 L161.179856,426.777992 L161.179856,426.777992 Z" id="Fill-8" fill="#6F8F9D"></path>
                <polyline id="Fill-9" fill="#6F8F9D" points="222.075515 427.611163 222.075515 418.905227 199.530458 418.905227 199.530458 458.487935 222.075515 458.487935 222.075515 449.785529 209.83213 449.785529 209.83213 442.947168 221.429454 442.947168 221.429454 434.241231 209.83213 434.241231 209.83213 427.611163 222.075515 427.611163"></polyline>
                <path d="M267.200932,421.111719 C263.677605,419.106459 258.780957,417.84258 254.784558,417.84258 C246.869429,417.84258 241.153731,423.102858 241.153731,431.145081 C241.153731,438.806023 245.393727,440.486487 251.871988,442.322289 C254.064359,442.954229 258.103123,443.949798 258.103123,446.837655 C258.103123,449.61254 255.52594,450.834054 253.093502,450.834054 C249.598418,450.834054 246.558754,449.001783 243.992163,446.735274 L239.572117,455.024624 C243.610881,457.873647 248.493407,459.554112 253.495967,459.554112 C257.485305,459.554112 261.644102,458.431449 264.715539,455.822492 C267.868175,453.142928 268.82491,449.097103 268.82491,445.15366 C268.82491,438.749537 264.54608,435.967591 259.045736,434.350673 L256.415597,433.552806 C254.646873,432.987944 251.871988,432.087695 251.871988,429.76823 C251.871988,427.568798 254.375033,426.463787 256.270851,426.463787 C258.780957,426.463787 261.213394,427.515843 263.091561,429.104517 L267.200932,421.111719" id="Fill-10" fill="#6F8F9D"></path>
                <path d="M312.474625,421.111719 C308.951298,419.106459 304.065242,417.84258 300.082964,417.84258 C292.157243,417.84258 286.427424,423.102858 286.427424,431.145081 C286.427424,438.806023 290.678011,440.486487 297.149212,442.322289 C299.359235,442.954229 303.387407,443.949798 303.387407,446.837655 C303.387407,449.61254 300.806694,450.834054 298.395439,450.834054 C294.872112,450.834054 291.846569,449.001783 289.262325,446.735274 L284.859932,455.024624 C288.905756,457.873647 293.784752,459.554112 298.77319,459.554112 C302.78018,459.554112 306.903673,458.431449 310.013945,455.822492 C313.159521,453.142928 314.098604,449.097103 314.098604,445.15366 C314.098604,438.749537 309.844486,435.967591 304.340612,434.350673 L301.706943,433.552806 C299.931157,432.987944 297.149212,432.087695 297.149212,429.76823 C297.149212,427.568798 299.673439,426.463787 301.544545,426.463787 C304.065242,426.463787 306.483557,427.515843 308.379375,429.104517 L312.474625,421.111719" id="Fill-11" fill="#6F8F9D"></path>
                <path d="M367.873471,449.210076 C366.334222,450.110325 364.49842,450.742264 362.662618,450.742264 C360.685601,450.742264 358.429684,449.559584 358.429684,447.317788 C358.429684,445.234859 360.374927,443.858008 361.960071,442.851847 L367.873471,449.210076 Z M365.977653,434.717834 C364.794973,433.383347 363.050961,431.579319 363.050961,429.743517 C363.050961,427.921837 364.431343,426.66855 366.182415,426.66855 C368.166493,426.66855 369.462145,428.260754 369.462145,430.142451 C369.462145,432.190076 367.668708,433.764629 365.977653,434.717834 L365.977653,434.717834 Z M376.417009,458.487935 L388.568604,458.487935 L380.173342,449.658435 L380.614641,449.210076 L385.355951,444.161621 L379.834425,438.883691 C378.454043,440.860709 376.766518,442.558825 374.930716,444.200455 L370.192936,439.23673 C374.079893,437.291486 377.158391,434.919066 377.158391,430.244832 C377.158391,423.858361 371.396798,420.070255 365.437503,420.070255 C359.411131,420.070255 353.818997,423.886604 353.818997,430.336622 C353.818997,433.415121 355.294699,435.212088 356.48797,436.850188 L357.289368,437.941078 L356.410302,438.343542 C351.693704,440.42294 348.361017,443.158991 348.361017,448.772308 C348.361017,455.614199 353.924909,459.487035 360.374927,459.487035 C364.893824,459.487035 369.462145,457.552382 373.193765,455.024624 L376.417009,458.487935 L376.417009,458.487935 Z" id="Fill-12" fill="#6F8F9D"></path>
                <polyline id="Fill-13" fill="#6F8F9D" points="433.510441 418.908757 423.201709 418.908757 423.201709 458.487935 445.849147 458.487935 445.849147 449.774938 433.510441 449.774938 433.510441 418.908757"></polyline>
                <path d="M482.028561,417.588392 C470.64306,417.588392 460.136626,425.994245 460.136626,437.972851 C460.136626,450.781098 469.329756,459.825952 482.028561,459.825952 C494.759139,459.825952 503.920496,450.781098 503.920496,437.972851 C503.920496,425.994245 493.438774,417.588392 482.028561,417.588392 M482.028561,427.565268 C488.182027,427.565268 493.209299,432.560767 493.209299,438.018746 C493.209299,444.825334 488.182027,449.845546 482.028561,449.845546 C475.913929,449.845546 470.847823,444.825334 470.847823,438.018746 C470.847823,432.560767 475.913929,427.565268 482.028561,427.565268" id="Fill-14" fill="#6F8F9D"></path>
                <path d="M540.73891,436.384177 L540.73891,444.482886 L549.11652,444.482886 C548.692874,449.044147 545.28958,451.349491 540.816579,451.349491 C534.062947,451.349491 530.366631,445.104235 530.366631,438.968421 C530.366631,432.927927 533.900549,426.414362 540.671833,426.467317 C544.47406,426.506152 545.060105,426.76387 547.365448,428.691462 L559.086336,428.691462 C555.690103,421.30236 549.275388,417.591922 541.127253,417.591922 C528.389614,417.591922 519.680147,426.047201 519.680147,438.904874 C519.680147,451.349491 528.322536,459.822421 540.777744,459.822421 C547.365448,459.822421 553.229422,457.43941 557.112849,452.041447 C560.614994,447.098904 561.006867,442.159891 561.148082,436.384177 L540.73891,436.384177" id="Fill-15" fill="#6F8F9D"></path>
                <polygon id="Fill-16" fill="#6F8F9D" points="578.821204 458.487935 589.108754 458.487935 589.108754 418.908757 578.821204 418.908757"></polygon>
                <path d="M634.59074,421.111719 C631.074474,419.106459 626.191947,417.84258 622.20967,417.84258 C614.283949,417.84258 608.55766,423.102858 608.55766,431.145081 C608.55766,438.806023 612.801186,440.486487 619.261796,442.322289 C621.450636,442.954229 625.517643,443.949798 625.517643,446.837655 C625.517643,449.61254 622.929869,450.834054 620.539796,450.834054 C617.016469,450.834054 613.976805,449.001783 611.385501,446.735274 L606.958394,455.024624 C611.025401,457.873647 615.911458,459.554112 620.906957,459.554112 C624.896295,459.554112 629.051561,458.431449 632.126529,455.822492 C635.279165,453.142928 636.218249,449.097103 636.218249,445.15366 C636.218249,438.749537 631.960601,435.967591 626.463787,434.350673 L623.833648,433.552806 C622.054333,432.987944 619.261796,432.087695 619.261796,429.76823 C619.261796,427.568798 621.793084,426.463787 623.660659,426.463787 C626.191947,426.463787 628.620854,427.515843 630.474308,429.104517 L634.59074,421.111719" id="Fill-17" fill="#6F8F9D"></path>
                <polyline id="Fill-18" fill="#6F8F9D" points="669.82048 427.611163 678.328714 427.611163 678.328714 418.905227 650.992922 418.905227 650.992922 427.611163 659.525869 427.611163 659.525869 458.487935 669.82048 458.487935 669.82048 427.611163"></polyline>
                <polygon id="Fill-19" fill="#6F8F9D" points="694.988614 458.487935 705.254982 458.487935 705.254982 418.908757 694.988614 418.908757"></polygon>
                <path d="M753.247074,419.854901 C750.179167,418.587492 747.135973,417.84258 743.842121,417.84258 C738.246456,417.84258 732.629609,420.275017 728.756774,424.257295 C724.993381,428.144252 722.949286,433.337452 722.949286,438.749537 C722.949286,444.634693 724.933364,449.771407 729.293393,453.721911 C733.370991,457.450001 738.627738,459.561173 744.166917,459.561173 C747.340735,459.561173 749.801416,458.745653 753.247074,457.700658 L753.247074,445.361953 C751.065295,447.949727 747.725548,449.566645 744.368149,449.566645 C737.953434,449.566645 733.649891,445.05834 733.649891,438.806023 C733.649891,432.673739 737.91813,427.844169 744.223403,427.844169 C747.725548,427.844169 751.121781,429.355175 753.247074,432.197137 L753.247074,419.854901" id="Fill-20" fill="#6F8F9D"></path>
                <path d="M798.376022,421.111719 C794.845634,419.106459 789.956047,417.84258 785.966708,417.84258 C778.044518,417.84258 772.32176,423.102858 772.32176,431.145081 C772.32176,438.806023 776.565286,440.486487 783.018835,442.322289 C785.228857,442.954229 789.274682,443.949798 789.274682,446.837655 C789.274682,449.61254 786.686908,450.834054 784.272122,450.834054 C780.777038,450.834054 777.716192,449.001783 775.153131,446.735274 L770.743676,455.024624 C774.793031,457.873647 779.682618,459.554112 784.642813,459.554112 C788.653334,459.554112 792.798009,458.431449 795.883568,455.822492 C799.036204,453.142928 800,449.097103 800,445.15366 C800,438.749537 795.710579,435.967591 790.217295,434.350673 L787.590687,433.552806 C785.821963,432.987944 783.018835,432.087695 783.018835,429.76823 C783.018835,427.568798 785.546592,426.463787 787.445941,426.463787 C789.956047,426.463787 792.388484,427.515843 794.270181,429.104517 L798.376022,421.111719" id="Fill-21" fill="#6F8F9D"></path>
            </g>
        </g>
    </g>
</svg>