<?xml version="1.0" encoding="UTF-8"?>
<svg width="980px" height="680px" viewBox="0 0 980 680" version="1.1" xmlns="http://www.w3.org/2000/svg" xmlns:xlink="http://www.w3.org/1999/xlink">
    <title>DE GLS heritage</title>
    <defs>
        <linearGradient x1="50%" y1="0%" x2="50%" y2="100%" id="linearGradient-1">
            <stop stop-color="#FFFFFF" offset="0%"></stop>
            <stop stop-color="#EDEDED" offset="100%"></stop>
        </linearGradient>
        <rect id="path-2" x="0" y="0" width="900" height="600" rx="80"></rect>
        <filter x="-6.7%" y="-10.0%" width="113.3%" height="120.0%" filterUnits="objectBoundingBox" id="filter-3">
            <feMorphology radius="2.5" operator="dilate" in="SourceAlpha" result="shadowSpreadOuter1"></feMorphology>
            <feOffset dx="0" dy="0" in="shadowSpreadOuter1" result="shadowOffsetOuter1"></feOffset>
            <feGaussianBlur stdDeviation="17.5" in="shadowOffsetOuter1" result="shadowBlurOuter1"></feGaussianBlur>
            <feColorMatrix values="0 0 0 0 0   0 0 0 0 0   0 0 0 0 0  0 0 0 0.5 0" type="matrix" in="shadowBlurOuter1"></feColorMatrix>
        </filter>
    </defs>
    <g id="DE-GLS-heritage" stroke="none" stroke-width="1" fill="none" fill-rule="evenodd">
        <g transform="translate(40, 40)">
            <g id="Rectangle">
                <use fill="black" fill-opacity="1" filter="url(#filter-3)" xlink:href="#path-2"></use>
                <use fill="url(#linearGradient-1)" fill-rule="evenodd" xlink:href="#path-2"></use>
            </g>
            <g id="Logo" transform="translate(50, 192)" fill-rule="nonzero">
                <path d="M769.2096,36.1701653 C720.00284,36.1701653 696.890047,65.4729081 696.890047,98.312933 C696.890047,141.355529 740.625139,140.858613 740.625139,159.196602 C740.625139,168.365597 734.166779,173.462833 720.250791,173.462833 C709.678512,173.325661 699.193471,171.527824 689.179408,168.13512 L680.761194,212.109586 C692.315205,214.201664 704.034486,215.24646 715.776365,215.231417 C759.75131,215.231417 790.551673,185.92574 790.551673,150.539068 C790.551673,108.75914 746.587596,107.998716 746.587596,89.6553988 C746.587596,81.5093252 752.048183,75.6493201 767.690349,75.6493201 C776.048997,75.8054623 784.339878,77.1831894 792.299803,79.7387662 L800,38.7091404 C789.821475,37.0364771 779.524632,36.1873998 769.2096,36.1701653 L769.2096,36.1701653 Z M615.288606,36.2740557 L580.981062,214.211369 L663.65428,214.305137 L671.92678,169.799977 L634.632787,169.799977 L660.63661,36.2740557 L615.288606,36.2740557 Z M545.320759,36.3166774 C477.738663,36.3166774 434.364843,86.9312858 434.364843,149.031112 C434.364843,187.886125 454.809144,214.711801 506.434686,214.711801 C526.712888,214.896144 546.829829,211.09549 565.643055,203.525681 L582.21933,117.574694 L536.840105,117.574694 L527.121184,169.988152 C523.027405,170.904431 518.839179,171.330587 514.644745,171.257639 C491.96467,171.257639 483.750241,158.749287 483.750241,142.13215 C483.750241,111.231412 502.688131,79.2713659 541.335363,79.2713659 C552.663116,79.4061384 563.909896,81.2011343 574.716844,84.5990793 C575.782386,84.9134143 576.921771,85.2555601 578.077885,85.6604663 C581.33696,86.7345957 584.503696,88.0708917 587.547043,89.6562513 L596.756102,43.1531991 C579.971866,38.6943548 562.686974,36.3969357 545.320759,36.3166774 L545.320759,36.3166774 Z" id="path10818" fill="#141B4D"></path>
                <path d="M205.756448,36.8517929 L193.587951,95.8988395 L277.542057,95.8988395 C207.98876,198.94747 69.926397,181.45126 33.4102526,138.722999 C1.98207185,101.919156 29.1374266,38.9242734 122.308474,0 C30.0857595,28.061066 -21.6889584,101.759324 8.7269569,151.397629 C43.2025897,207.647626 150.699858,231.110876 246.247069,203.806345 C310.073074,181.366016 337.334983,149.92718 347.292479,132.979724 L331.660969,214.706846 L394.416104,214.706846 L428.454864,36.8517929 L205.756448,36.8517929 Z" id="path10824" fill="#FCBF00"></path>
            </g>
        </g>
    </g>
</svg>