<?xml version="1.0" encoding="UTF-8"?>
<svg width="980px" height="680px" viewBox="0 0 980 680" version="1.1" xmlns="http://www.w3.org/2000/svg" xmlns:xlink="http://www.w3.org/1999/xlink">
    <title>DE General Overnight</title>
    <defs>
        <linearGradient x1="50%" y1="0%" x2="50%" y2="100%" id="linearGradient-1">
            <stop stop-color="#FFFFFF" offset="0%"></stop>
            <stop stop-color="#EDEDED" offset="100%"></stop>
        </linearGradient>
        <rect id="path-2" x="0" y="0" width="900" height="600" rx="80"></rect>
        <filter x="-6.7%" y="-10.0%" width="113.3%" height="120.0%" filterUnits="objectBoundingBox" id="filter-3">
            <feMorphology radius="2.5" operator="dilate" in="SourceAlpha" result="shadowSpreadOuter1"></feMorphology>
            <feOffset dx="0" dy="0" in="shadowSpreadOuter1" result="shadowOffsetOuter1"></feOffset>
            <feGaussianBlur stdDeviation="17.5" in="shadowOffsetOuter1" result="shadowBlurOuter1"></feGaussianBlur>
            <feColorMatrix values="0 0 0 0 0   0 0 0 0 0   0 0 0 0 0  0 0 0 0.5 0" type="matrix" in="shadowBlurOuter1"></feColorMatrix>
        </filter>
    </defs>
    <g id="DE-General-Overnight" stroke="none" stroke-width="1" fill="none" fill-rule="evenodd">
        <g transform="translate(40, 40)">
            <g id="Rectangle">
                <use fill="black" fill-opacity="1" filter="url(#filter-3)" xlink:href="#path-2"></use>
                <use fill="url(#linearGradient-1)" fill-rule="evenodd" xlink:href="#path-2"></use>
            </g>
            <g id="Logo" transform="translate(50, 123)" fill="#A52632">
                <path d="M739.107871,345.805017 L800,345.805017 L800,282.226263 L739.107871,282.226263 L739.107871,345.805017 Z M74.5688514,208.321124 C71.9034086,198.718469 70.4277065,188.272052 70.4277065,176.96775 C70.4277065,107.387336 122.419728,68.2953522 176.106335,68.2953522 C231.102717,68.2953522 253.866657,104.810153 253.866657,104.810153 L333.773455,104.810153 C333.773455,104.810153 300.676069,-2.50849142e-14 177.829165,-2.50849142e-14 C65.2733403,-2.50849142e-14 5.01698283e-14,91.9277683 5.01698283e-14,175.269633 C5.01698283e-14,186.06909 1.06264673,197.17922 3.21265291,208.331715 C17.0023477,280.069196 74.8830559,353.109389 172.678329,353.109389 C287.592452,353.109389 337.36739,264.528428 347.605514,208.331715 C348.897636,201.302713 349.554289,194.789148 349.653139,189.020494 C351.02646,178.42227 349.653139,165.825846 349.653139,165.825846 L174.379976,165.825846 L174.379976,222.523874 L270.611287,222.523874 C270.611287,222.523874 246.985931,284.810506 176.106335,284.810506 C134.36656,284.810506 88.3797285,257.965438 74.5688514,208.331715 L74.5688514,208.321124 Z M544.142204,0.653121745 C444.433461,0.653121745 370.493019,79.7761734 370.493019,176.883021 C370.493019,187.62246 371.435632,198.135955 373.218478,208.331715 C387.668355,290.420293 457.778327,352.682212 544.142204,352.682212 C630.484899,352.682212 700.940848,290.420293 715.471925,208.331715 C717.272422,198.135955 718.222097,187.62246 718.222097,176.883021 C718.222097,79.7761734 641.231399,0.653121745 544.142204,0.653121745 L544.142204,0.653121745 Z M645.0654,208.331715 C632.165363,252.387425 593.038075,284.9376 544.798856,284.9376 C500.358334,284.9376 459.126935,252.136767 444.821804,208.321124 C441.400858,197.81469 439.497979,186.651604 439.497979,175.163722 C439.497979,112.340471 490.988685,68.8249104 544.798856,68.8249104 C604.575383,68.8249104 649.644313,117.064129 649.644313,176.445253 C649.644313,187.516549 648.045048,198.217154 645.0654,208.331715 L645.0654,208.331715 Z M739.107871,208.331715 L739.107871,253.43595 L800,253.43595 L800,7.72448854 L739.107871,7.72448854 L739.107871,208.331715 L739.107871,208.331715 Z" id="Fill-4"></path>
            </g>
        </g>
    </g>
</svg>