<?xml version="1.0" encoding="UTF-8"?>
<svg width="980px" height="680px" viewBox="0 0 980 680" version="1.1" xmlns="http://www.w3.org/2000/svg" xmlns:xlink="http://www.w3.org/1999/xlink">
    <title>DE Hermes Border Guru</title>
    <defs>
        <linearGradient x1="50%" y1="0%" x2="50%" y2="100%" id="linearGradient-1">
            <stop stop-color="#FFFFFF" offset="0%"></stop>
            <stop stop-color="#EDEDED" offset="100%"></stop>
        </linearGradient>
        <rect id="path-2" x="0" y="0" width="900" height="600" rx="80"></rect>
        <filter x="-6.7%" y="-10.0%" width="113.3%" height="120.0%" filterUnits="objectBoundingBox" id="filter-3">
            <feMorphology radius="2.5" operator="dilate" in="SourceAlpha" result="shadowSpreadOuter1"></feMorphology>
            <feOffset dx="0" dy="0" in="shadowSpreadOuter1" result="shadowOffsetOuter1"></feOffset>
            <feGaussianBlur stdDeviation="17.5" in="shadowOffsetOuter1" result="shadowBlurOuter1"></feGaussianBlur>
            <feColorMatrix values="0 0 0 0 0   0 0 0 0 0   0 0 0 0 0  0 0 0 0.5 0" type="matrix" in="shadowBlurOuter1"></feColorMatrix>
        </filter>
        <linearGradient x1="57.0809924%" y1="100.92688%" x2="42.9190076%" y2="-0.926879506%" id="linearGradient-4">
            <stop stop-color="#646469" offset="0%"></stop>
            <stop stop-color="#A9A9AE" offset="46%"></stop>
            <stop stop-color="#D9D9DE" offset="82%"></stop>
            <stop stop-color="#EBEBF0" offset="100%"></stop>
        </linearGradient>
        <linearGradient x1="24.5922208%" y1="53.8916391%" x2="83.2705981%" y2="43.8918464%" id="linearGradient-5">
            <stop stop-color="#E6F0F5" offset="0%"></stop>
            <stop stop-color="#CBE4EF" offset="6%"></stop>
            <stop stop-color="#96CDE4" offset="20%"></stop>
            <stop stop-color="#68B9DA" offset="34%"></stop>
            <stop stop-color="#42A9D1" offset="47%"></stop>
            <stop stop-color="#259CCB" offset="61%"></stop>
            <stop stop-color="#1193C7" offset="74%"></stop>
            <stop stop-color="#048EC4" offset="87%"></stop>
            <stop stop-color="#008CC3" offset="100%"></stop>
        </linearGradient>
        <linearGradient x1="-8.84873483%" y1="-12.1524202%" x2="90.3658729%" y2="109.165808%" id="linearGradient-6">
            <stop stop-color="#E6F0F5" offset="0%"></stop>
            <stop stop-color="#DDECF3" offset="9%"></stop>
            <stop stop-color="#C5E1EE" offset="24%"></stop>
            <stop stop-color="#9DD0E5" offset="43%"></stop>
            <stop stop-color="#66B8D9" offset="65%"></stop>
            <stop stop-color="#209ACA" offset="90%"></stop>
            <stop stop-color="#008CC3" offset="100%"></stop>
        </linearGradient>
        <linearGradient x1="57.06643%" y1="100.823045%" x2="43.0143292%" y2="-0.823045267%" id="linearGradient-7">
            <stop stop-color="#646469" offset="0%"></stop>
            <stop stop-color="#A9A9AE" offset="46%"></stop>
            <stop stop-color="#D9D9DE" offset="82%"></stop>
            <stop stop-color="#EBEBF0" offset="100%"></stop>
        </linearGradient>
        <linearGradient x1="0%" y1="50.0514933%" x2="100.031338%" y2="50.0514933%" id="linearGradient-8">
            <stop stop-color="#E6F0F5" offset="0%"></stop>
            <stop stop-color="#C0DEEA" offset="11%"></stop>
            <stop stop-color="#86C2DA" offset="28%"></stop>
            <stop stop-color="#56ABCC" offset="45%"></stop>
            <stop stop-color="#3199C2" offset="62%"></stop>
            <stop stop-color="#168DBA" offset="77%"></stop>
            <stop stop-color="#0685B6" offset="90%"></stop>
            <stop stop-color="#0082B4" offset="100%"></stop>
        </linearGradient>
        <linearGradient x1="-3.4249147%" y1="-1.44181256%" x2="92.9018254%" y2="101.544799%" id="linearGradient-9">
            <stop stop-color="#E6F0F5" offset="0%"></stop>
            <stop stop-color="#C7E1EC" offset="16%"></stop>
            <stop stop-color="#77BBD6" offset="51%"></stop>
            <stop stop-color="#0082B4" offset="100%"></stop>
        </linearGradient>
        <linearGradient x1="57.0039819%" y1="100.823045%" x2="42.9150472%" y2="-0.823045267%" id="linearGradient-10">
            <stop stop-color="#646469" offset="0%"></stop>
            <stop stop-color="#A9A9AE" offset="46%"></stop>
            <stop stop-color="#D9D9DE" offset="82%"></stop>
            <stop stop-color="#EBEBF0" offset="100%"></stop>
        </linearGradient>
        <linearGradient x1="-2.86989796%" y1="38.5745848%" x2="92.0280612%" y2="52.1348527%" id="linearGradient-11">
            <stop stop-color="#E6F0F5" offset="0%"></stop>
            <stop stop-color="#C6E0EB" offset="10%"></stop>
            <stop stop-color="#80BDD6" offset="35%"></stop>
            <stop stop-color="#49A2C5" offset="57%"></stop>
            <stop stop-color="#218EB9" offset="75%"></stop>
            <stop stop-color="#0981B2" offset="90%"></stop>
            <stop stop-color="#007DAF" offset="99%"></stop>
        </linearGradient>
        <linearGradient x1="0.737258463%" y1="2.77777778%" x2="99.7109921%" y2="108.744856%" id="linearGradient-12">
            <stop stop-color="#E6F0F5" offset="0%"></stop>
            <stop stop-color="#90C5DB" offset="33%"></stop>
            <stop stop-color="#439EC3" offset="66%"></stop>
            <stop stop-color="#1386B5" offset="89%"></stop>
            <stop stop-color="#007DAF" offset="100%"></stop>
        </linearGradient>
    </defs>
    <g id="DE-Hermes-Border-Guru" stroke="none" stroke-width="1" fill="none" fill-rule="evenodd">
        <g transform="translate(40, 40)">
            <g id="Rectangle">
                <use fill="black" fill-opacity="1" filter="url(#filter-3)" xlink:href="#path-2"></use>
                <use fill="url(#linearGradient-1)" fill-rule="evenodd" xlink:href="#path-2"></use>
            </g>
            <g id="Logo" transform="translate(50, 193)">
                <polygon id="Path" fill="url(#linearGradient-4)" points="186.295088 34.2639756 195.008378 0.0105141185 176.770438 0.0105141185 168.092424 34.2639756"></polygon>
                <polygon id="Path" fill="url(#linearGradient-5)" points="160.014111 34.2639756 168.692125 0.0105141185 0 0.0105141185 28.9972661 34.2639756"></polygon>
                <polygon id="Path" fill="url(#linearGradient-6)" points="28.9972661 34.2639756 0 0.0105141185 0 10.9462227 24.6935356 34.2639756"></polygon>
                <polygon id="Path" fill="url(#linearGradient-7)" points="175.218273 78.0068101 183.896287 43.7180721 165.693624 43.7180721 156.980333 78.0068101"></polygon>
                <polygon id="Path" fill="url(#linearGradient-8)" points="148.972573 77.9362571 157.685863 43.6827956 45.1186172 43.6827956 75.0330717 77.9362571"></polygon>
                <polygon id="Path" fill="url(#linearGradient-9)" points="75.0330717 77.9362571 45.1186172 43.6827956 45.1186172 53.5954863 70.8704471 77.9362571"></polygon>
                <polygon id="Path" fill="url(#linearGradient-10)" points="164.106182 121.679092 172.854749 87.3903536 154.616809 87.3903536 145.868242 121.679092"></polygon>
                <polygon id="Path" fill="url(#linearGradient-11)" points="137.895758 121.679092 146.573772 87.3903536 91.2602522 87.3903536 121.13943 121.679092"></polygon>
                <polygon id="Path" fill="url(#linearGradient-12)" points="121.13943 121.679092 91.2602522 87.3903536 91.2602522 97.2324914 117.082635 121.679092"></polygon>
                <path d="M800,24.4923908 L796.89567,35.8866937 C795.519887,41.1428891 792.944704,43.1889249 786.736044,43.1889249 L768.850869,43.1889249 C760.807831,43.1889249 758.267925,43.7180721 756.080783,45.7288314 C754.414154,47.6968687 753.523503,50.2057459 753.576153,52.7841273 C753.576153,55.7120751 754.740277,56.805646 759.290943,58.2519816 L777.387777,63.649283 C789.734544,67.1769309 793.473851,71.0926201 793.297469,80.5819931 C793.121087,90.071366 789.487609,105.275529 784.090308,112.048613 C778.693006,118.821697 772.202134,121.749645 761.830849,121.749645 L717.699974,121.749645 C716.376365,121.8286 715.095419,121.266829 714.256912,120.239658 C713.418406,119.212487 713.124453,117.845008 713.466796,116.564002 L719.075756,94.7278613 L724.296675,94.7278613 C725.672458,99.6665684 728.95317,101.148181 736.114296,101.148181 L753.293941,101.148181 C759.643708,101.148181 762.748038,100.230992 764.617691,97.867468 C766.525855,95.5998556 767.607889,92.751744 767.686745,89.7891542 C767.686745,85.802912 766.310962,84.7093412 757.562395,82.3458171 L740.876621,77.7951512 C731.246142,75.2199682 726.977688,70.3165376 727.118794,62.0971179 C727.679997,53.0445192 730.32385,44.2437469 734.844343,36.3805644 C739.888879,27.8083799 747.29694,24.5276673 760.772555,24.5276673 L800,24.4923908 Z M401.375783,48.5509498 C401.052191,57.0156705 399.298905,65.3646509 396.19014,73.2444854 C394.320487,76.7721333 391.568921,77.6187688 382.432313,77.6187688 L340.664962,77.6187688 L338.901138,85.2737648 C338.473607,87.201944 338.190609,89.1593478 338.054502,91.1296604 C337.693591,94.5214977 339.259536,97.8304078 342.111297,99.7018449 C344.263163,101.359839 349.166593,102.065369 357.20963,102.065369 C373.789576,102.065369 377.775818,99.8076744 383.102566,92.2585078 L388.640974,92.2585078 L385.113326,105.593017 C382.573419,115.435155 381.86789,116.88149 378.340242,118.89225 C373.683746,121.467433 364.758797,122.702109 350.40127,122.702109 C337.031484,122.702109 329.235382,121.467433 323.979187,118.89225 C316.641679,114.976561 312.620161,106.439652 312.796543,95.8567087 C313.114031,78.218469 321.792045,50.5969856 330.434783,39.4143416 C339.07752,28.2316976 350.612929,23.7515848 370.649969,23.7515848 C392.662492,23.5752024 401.869653,31.053816 401.552165,48.5509498 L401.375783,48.5509498 Z M380.209895,51.65528 C380.209895,44.5999841 376.011994,41.2487185 366.73428,41.2487185 C354.316959,41.2487185 349.342976,46.0110433 345.003969,61.4974177 L378.446071,61.4974177 C379.495831,58.3122775 380.124382,55.0034887 380.315724,51.65528 L380.209895,51.65528 Z M710.750507,48.5509498 C710.426915,57.0156705 708.673629,65.3646509 705.564865,73.2444854 C703.695211,76.7721333 700.943646,77.6187688 691.807038,77.6187688 L649.969133,77.6187688 L648.205309,85.2032119 C647.760584,87.128207 647.477388,89.0869783 647.358674,91.0591075 C646.997763,94.4509447 648.563708,97.7598548 651.415469,99.631292 C653.567334,101.289286 658.294382,101.994816 666.513802,101.994816 C683.093747,101.994816 687.079989,99.7371214 692.406738,92.1879548 L698.015698,92.1879548 L694.48805,105.522464 C691.948144,115.364602 691.242614,116.810937 687.714966,118.821697 C683.058471,121.39688 674.133521,122.631557 659.775994,122.631557 C646.406209,122.631557 638.433724,121.39688 633.353911,118.821697 C625.910574,115.011837 621.924332,106.616035 622.065438,95.8567087 C622.382926,78.218469 631.06094,50.5969856 639.703678,39.4143416 C648.346415,28.2316976 659.881824,23.7515848 679.918864,23.7515848 C701.966664,23.5752024 711.173825,31.053816 710.856337,48.5509498 L710.750507,48.5509498 Z M689.584619,51.65528 C689.584619,44.5999841 685.386718,41.2487185 676.109004,41.2487185 C663.691684,41.2487185 658.7177,46.0110433 654.378693,61.4974177 L687.785519,61.4974177 C688.835803,58.3138696 689.452802,55.003437 689.619896,51.65528 L689.584619,51.65528 Z M316.43002,5.19615659 C316.774851,3.90881546 316.47685,2.53418818 315.629873,1.50521549 C314.782895,0.47624281 313.491184,-0.0804329105 312.161566,0.0105141185 L285.316165,0.0105141185 L284.46953,3.53816206 C289.161302,5.01977419 287.609137,10.0643107 287.115266,12.216176 C285.951142,17.3312655 279.001676,44.670537 279.001676,44.670537 L242.666902,44.670537 L252.826528,5.19615659 C253.185917,3.91352554 252.898525,2.53623434 252.056181,1.50436265 C251.213836,0.472490973 249.921964,-0.0848165257 248.59335,0.0105141185 L221.712673,0.0105141185 L220.866038,3.53816206 C225.557809,5.01977419 224.005644,10.0643107 223.54705,12.216176 C220.019402,28.1964212 196.807479,116.493449 196.807479,116.493449 C196.461977,117.771253 196.755909,119.137256 197.596406,120.159861 C198.436903,121.182465 199.720135,121.735345 201.040656,121.643815 L227.921333,121.643815 L228.767969,118.116167 C224.076197,116.634555 225.628362,111.554742 226.122233,109.438153 C226.616104,107.321564 237.516536,64.1078772 237.516536,64.1078772 L273.992416,64.1078772 L260.375695,116.528726 C260.044515,117.811158 260.348921,119.174621 261.194097,120.19442 C262.039274,121.21422 263.322527,121.766446 264.644149,121.679092 L291.489549,121.679092 L292.336185,118.151444 C287.644413,116.669832 289.196578,111.590018 289.690449,109.47343 C290.18432,107.356841 316.43002,5.19615659 316.43002,5.19615659 Z M598.289091,23.7163083 L585.554282,23.7163083 C579.496178,23.0968012 573.684939,26.2831571 570.949819,31.7240691 L566.152218,39.2026827 C566.716642,31.5829632 562.62457,23.7163083 549.642826,23.7163083 L537.789929,23.7163083 C531.910131,23.0516796 526.16395,25.7879564 522.973807,30.7716042 L517.400123,38.1443884 L519.622542,29.5369274 C519.970696,28.2527379 519.672752,26.8794545 518.823721,25.8550034 C517.97469,24.8305524 516.680586,24.2828531 515.354088,24.3865614 L491.189699,24.3865614 L490.272511,27.9142093 C492.317513,28.3590631 493.782069,30.1604662 493.800159,32.2532163 C493.723056,33.4522379 493.497928,34.6371174 493.129906,35.7808642 L472.422612,116.705108 C472.077781,117.992449 472.375782,119.367076 473.22276,120.396049 C474.069737,121.425022 475.361448,121.981697 476.691066,121.89075 L500.573243,121.89075 L501.455155,118.363103 C499.827758,117.861961 498.607813,116.506466 498.280272,114.835455 C498.146524,113.45176 498.315035,112.055526 498.774142,110.743383 C498.774142,110.743383 512.249757,60.2274645 512.496693,59.1691701 C515.53047,46.2579786 519.269777,44.7058135 526.042861,43.8239015 C527.660122,43.6608363 529.286194,43.6019206 530.911015,43.6475191 C537.754652,43.6475191 539.624305,47.6337613 538.671841,52.396086 C538.424905,53.5602099 522.268278,116.669832 522.268278,116.669832 C521.923446,117.957173 522.221448,119.3318 523.068425,120.360773 C523.915403,121.389745 525.207114,121.946421 526.536732,121.855474 L550.418908,121.855474 L551.30082,118.327826 C549.673424,117.826684 548.453478,116.471189 548.125937,114.800178 C547.992189,113.416483 548.1607,112.02025 548.619808,110.708106 L562.307082,59.1338936 C565.83473,46.2932551 569.115442,44.670537 575.994356,43.7886251 C577.635172,43.6249569 579.284752,43.5660434 580.933063,43.6122427 C587.811976,43.6122427 589.716906,47.5984848 588.729165,52.3608096 L572.431431,116.634555 C572.089088,117.91556 572.383041,119.28304 573.221548,120.310211 C574.060055,121.337382 575.341,121.899152 576.664609,121.820198 L600.617338,121.820198 L601.463974,118.29255 C599.836578,117.791408 598.616632,116.435913 598.289091,114.764902 C598.174379,113.381498 598.342413,111.98922 598.782961,110.67283 C598.782961,110.67283 614.974866,46.1874257 615.680395,43.2242014 C616.950348,37.1919234 616.809242,23.7163083 598.289091,23.7163083 Z M464.802893,24.4923908 C458.770615,24.4923908 458.241468,24.6687732 455.242967,28.8313978 L448.187671,38.2854943 L450.410089,29.6427568 C450.755591,28.3649529 450.461659,26.9989496 449.621162,25.9763452 C448.780665,24.9537408 447.497433,24.4008606 446.176912,24.4923908 L422.259459,24.4923908 L421.377547,28.0200388 C423.018302,28.5000999 424.247255,29.8656034 424.55243,31.5476867 C424.685724,32.9429672 424.51729,34.3505949 424.058559,35.6750348 L403.21016,116.599279 C402.85077,117.88191 403.138163,119.259201 403.980507,120.291072 C404.822851,121.322944 406.114723,121.880252 407.443337,121.784921 L431.36079,121.784921 L432.207426,118.257273 C430.588577,117.742813 429.374226,116.393534 429.032543,114.729625 C428.93801,113.346671 429.105571,111.958307 429.526413,110.637554 L443.072581,58.7811288 C446.000529,46.9635082 449.140136,44.1766663 459.546697,44.1766663 L469.03607,44.1766663 C476.303025,44.1766663 478.737102,42.5539483 480.077608,37.2977529 L483.393597,24.5276673 L464.802893,24.4923908 Z" id="Shape" fill="#3C3C41"></path>
                <path d="M485.721845,213.009897 L472.634271,213.009897 C471.011553,213.009897 470.658788,212.339644 470.658788,210.752202 L470.658788,170.184251 C470.658788,168.596809 471.329041,168.349874 472.810653,168.349874 L483.393597,168.349874 C494.999559,168.349874 500.714349,171.877522 500.714349,179.320859 C500.910996,183.711222 497.94234,187.615004 493.659053,188.598573 L493.659053,188.598573 C499.685872,188.790454 504.420111,193.824528 504.241997,199.85177 C504.347826,210.46999 495.140665,213.009897 485.721845,213.009897 Z M484.134403,175.969593 L480.853691,175.969593 L480.853691,186.058667 L483.358321,186.058667 C488.261751,186.058667 490.413617,184.682884 490.413617,180.626089 C490.519446,177.521758 488.085369,175.969593 484.134403,175.969593 L484.134403,175.969593 Z M490.519446,193.960598 C488.477839,193.218039 486.29898,192.92913 484.134403,193.113962 L480.853691,193.113962 L480.853691,205.213795 L484.910486,205.213795 C486.734615,205.299033 488.559914,205.072362 490.307787,204.543542 C492.504602,203.769333 493.936811,201.649663 493.835435,199.322623 C493.975508,197.013819 492.647653,194.866649 490.519446,193.960598 L490.519446,193.960598 Z" id="Shape" fill="#3C3C41" fill-rule="nonzero"></path>
                <path d="M523.432401,213.856532 C512.390863,213.856532 507.169944,206.801236 507.169944,197.170758 C506.860575,192.648223 508.530226,188.214204 511.745753,185.018986 C514.96128,181.823768 519.405788,180.182243 523.926272,180.520259 C534.96781,180.520259 540.188729,187.575555 540.188729,197.24131 C540.440235,201.7453 538.750721,206.141344 535.547499,209.317591 C532.344277,212.493839 527.934103,214.146118 523.432401,213.856532 L523.432401,213.856532 Z M523.714613,188.281085 C518.881736,188.281085 517.329571,192.443709 517.329571,197.135481 C517.329571,201.827253 518.74063,206.236813 523.538231,206.236813 C528.335832,206.236813 529.923274,202.003635 529.923274,197.206034 C529.923274,192.408433 528.512214,188.281085 523.714613,188.281085 L523.714613,188.281085 Z" id="Shape-2" fill="#3C3C41" fill-rule="nonzero"></path>
                <path d="M564.423671,182.460466 L563.435929,188.52802 C563.435929,189.198273 562.942058,189.621591 562.377635,189.621591 L562.060146,189.621591 C561.479982,189.496846 560.889529,189.425991 560.296322,189.409932 C558.023947,189.401599 555.846074,190.318598 554.264044,191.949839 L554.264044,211.210796 C554.338434,211.722963 554.164057,212.239894 553.794632,212.602349 C553.425207,212.964804 552.905048,213.129304 552.394391,213.045173 L546.221007,213.045173 C545.71035,213.129304 545.190191,212.964804 544.820766,212.602349 C544.451341,212.239894 544.276965,211.722963 544.351354,211.210796 L544.351354,183.412931 C544.351354,181.860765 545.127436,181.578554 546.221007,181.578554 L551.547756,181.578554 C552.817709,181.578554 553.382132,181.896042 553.382132,182.848507 L553.382132,184.788713 C555.21908,182.007089 558.37656,180.388212 561.707382,180.520259 C562.331803,180.528197 562.950991,180.635364 563.541759,180.837748 C564.070906,180.837748 564.212012,181.225789 564.317841,181.684383 L564.317841,181.684383 C564.462961,181.915932 564.501317,182.198565 564.423671,182.460466 L564.423671,182.460466 Z" id="Shape-3" fill="#3C3C41" fill-rule="nonzero"></path>
                <path d="M594.126466,213.009897 L588.623335,213.009897 C587.529765,213.009897 586.965341,212.445473 586.965341,211.739944 L586.965341,210.364161 C584.691838,212.50479 581.724572,213.756801 578.604815,213.891809 C569.185995,213.891809 564.494223,206.624854 564.494223,197.911564 C564.494223,189.198273 569.080166,180.520259 578.816474,180.520259 C581.518096,180.451374 584.147856,181.395068 586.189258,183.165995 L586.189258,169.725657 C586.189258,168.561533 586.506747,167.89128 587.7767,167.679621 L594.197019,166.832985 L594.69089,166.832985 C595.572802,166.832985 595.996145,167.326856 595.996145,168.314597 L595.996145,211.316626 C595.998739,211.798009 595.79634,212.257753 595.439532,212.5809 C595.082723,212.904047 594.605237,213.060049 594.126466,213.009897 Z M586.189258,190.468226 C584.740842,189.225808 582.910985,188.516272 581.003616,188.457467 C576.135462,188.457467 574.689126,193.360898 574.689126,197.276587 C574.689126,201.192276 575.782697,205.989877 580.791957,205.989877 C582.794599,205.814321 584.6873,204.997862 586.189258,203.66163 L586.189258,190.468226 Z" id="Shape-4" fill="#3C3C41" fill-rule="nonzero"></path>
                <path d="M628.944351,199.816493 L610.635859,199.816493 C611.52894,203.707351 615.119642,206.370454 619.102214,206.095707 C621.926341,206.030939 624.718417,205.48207 627.35691,204.472989 C627.601364,204.357941 627.863977,204.28632 628.132992,204.26133 C628.640504,204.292627 629.068984,204.649694 629.191287,205.143242 C629.761988,206.774684 630.198515,208.450004 630.496516,210.152502 C630.496516,211.034414 629.932093,211.210796 629.191287,211.634114 C625.448413,213.143252 621.444391,213.898502 617.408943,213.856532 C606.825999,213.856532 600.370403,207.577319 600.370403,197.170758 C600.169268,192.646152 601.90605,188.250283 605.145416,185.084998 C608.384781,181.919714 612.819647,180.285075 617.33839,180.590812 C621.16391,180.464256 624.86107,181.979065 627.498016,184.753437 C630.393526,188.19825 631.802036,192.652188 631.413705,197.135481 L631.413705,198.158499 C631.307875,199.499005 630.496516,199.816493 628.944351,199.816493 Z M616.527031,188.069426 C613.422031,188.213427 610.895785,190.619376 610.600582,193.713663 L621.465738,193.713663 C621.635905,192.293573 621.195259,190.867998 620.253433,189.791626 C619.311608,188.715254 617.957142,188.089272 616.527031,188.069426 Z" id="Shape-5" fill="#3C3C41" fill-rule="nonzero"></path>
                <path d="M655.084223,182.460466 L654.131758,188.52802 C654.1134,189.124213 653.63438,189.603234 653.038187,189.621591 L652.720698,189.621591 C652.14122,189.492785 651.550376,189.421884 650.956875,189.409932 C648.686123,189.409682 646.511272,190.325409 644.924597,191.949839 L644.924597,211.210796 C645.012373,211.719201 644.847604,212.238551 644.482789,212.603366 C644.117974,212.968181 643.598624,213.13295 643.09022,213.045173 L636.881559,213.045173 C636.376474,213.11676 635.867127,212.946666 635.506408,212.585947 C635.14569,212.225229 634.975595,211.715881 635.047182,211.210796 L635.047182,183.412931 C635.047182,181.860765 635.823265,181.578554 636.881559,181.578554 L642.208308,181.578554 C643.478261,181.578554 644.077961,181.896042 644.077961,182.848507 L644.077961,184.788713 C645.898663,182.007377 649.046347,180.386655 652.367934,180.520259 C653.004099,180.525653 653.635301,180.632839 654.237587,180.837748 C654.656474,180.914705 654.973358,181.260398 655.01367,181.684383 L655.01367,181.684383 C655.175375,181.736345 655.290366,181.879927 655.305744,182.049079 C655.321121,182.218231 655.233907,182.380195 655.084223,182.460466 L655.084223,182.460466 Z" id="Shape-6" fill="#3C3C41" fill-rule="nonzero"></path>
                <path d="M689.761002,210.681649 C686.119928,212.502561 682.119363,213.490653 678.049211,213.57432 C663.444748,213.57432 657.165535,203.979118 657.165535,190.785715 C657.165535,177.592311 664.961637,167.89128 679.036952,167.89128 C682.512176,167.926212 685.953048,168.583323 689.196578,169.831486 C689.725725,170.007868 689.866831,170.113698 689.866831,170.466463 C689.856647,170.642698 689.856647,170.819374 689.866831,170.99561 L689.337684,172.829987 C689.337684,173.323857 689.055472,173.464963 688.667431,173.464963 C688.479655,173.448391 688.290784,173.448391 688.103007,173.464963 C685.22848,172.411311 682.202973,171.82765 679.142782,171.736416 C667.53682,171.736416 662.174795,180.873024 662.174795,190.820991 C662.174795,200.204535 666.196314,210.328884 677.731722,210.328884 C680.840643,210.394004 683.921546,209.729496 686.727225,208.388678 L686.727225,191.279585 L679.142782,191.279585 C678.26087,191.279585 678.049211,191.279585 678.049211,190.221291 L678.049211,188.598573 C678.049211,187.92832 678.26087,187.716661 679.036952,187.716661 L690.07849,187.716661 C690.960402,187.716661 691.172061,187.92832 691.172061,188.810232 L691.172061,208.177019 C691.066232,209.799737 691.066232,209.940843 689.761002,210.681649 Z" id="Shape-7" fill="#3C3C41" fill-rule="nonzero"></path>
                <path d="M722.356469,213.009897 L720.23988,213.009897 C719.930207,213.034426 719.626164,212.91692 719.413474,212.690509 C719.200785,212.464097 719.102492,212.15331 719.146309,211.845773 L719.146309,209.588078 C716.328447,212.129654 712.675491,213.548156 708.880854,213.57432 C706.16723,213.721373 703.509034,212.767475 701.508069,210.928584 C699.325587,208.382633 698.269072,205.060337 698.580122,201.721423 L698.580122,183.024889 C698.580122,182.248807 698.862334,181.860765 699.638416,181.860765 L701.719728,181.860765 C702.389981,181.860765 702.778023,182.248807 702.778023,183.024889 L702.778023,201.227553 C702.544883,203.726619 703.207537,206.227201 704.647676,208.282849 C706.091506,209.60745 708.021154,210.271964 709.974425,210.117225 C713.462146,209.789856 716.73437,208.284385 719.252139,205.848771 L719.252139,182.954336 C719.252139,182.21353 719.569627,181.790213 720.345709,181.790213 L722.391745,181.790213 C722.701418,181.765683 723.005461,181.883189 723.218151,182.109601 C723.430841,182.336012 723.529133,182.646799 723.485316,182.954336 L723.485316,211.739944 C723.45004,212.586579 723.132551,213.009897 722.356469,213.009897 Z" id="Shape-8" fill="#3C3C41" fill-rule="nonzero"></path>
                <path d="M744.227886,184.294843 C744.227886,184.577054 743.910398,184.788713 743.698739,184.788713 L743.698739,184.788713 C743.025721,184.631376 742.341753,184.525243 741.652703,184.471225 C738.841408,184.756251 736.342893,186.386861 734.950172,188.845508 L734.950172,211.845773 C734.950172,212.586579 734.632684,213.009897 733.856601,213.009897 L731.810565,213.009897 C731.500892,213.034426 731.196849,212.91692 730.98416,212.690509 C730.77147,212.464097 730.673177,212.15331 730.716994,211.845773 L730.716994,183.060166 C730.716994,182.31936 731.034483,181.896042 731.810565,181.896042 L733.856601,181.896042 C734.166274,181.871512 734.470317,181.989019 734.683007,182.21543 C734.895696,182.441842 734.993989,182.752629 734.950172,183.060166 L734.950172,185.282584 C736.617908,182.829427 739.35814,181.321644 742.322956,181.225789 C742.95057,181.249752 743.575522,181.320502 744.19261,181.437448 C744.580651,181.437448 744.68648,181.754936 744.68648,182.001871 L744.68648,182.001871 L744.227886,184.294843 Z" id="Shape-9" fill="#3C3C41" fill-rule="nonzero"></path>
                <path d="M772.025752,213.009897 L769.979716,213.009897 C769.670043,213.034426 769.366,212.91692 769.15331,212.690509 C768.940621,212.464097 768.842328,212.15331 768.886145,211.845773 L768.886145,209.588078 C766.068283,212.129654 762.415327,213.548156 758.62069,213.57432 C755.907066,213.721373 753.24887,212.767475 751.247905,210.928584 C749.065423,208.382633 748.008908,205.060337 748.319958,201.721423 L748.319958,183.024889 C748.319958,182.248807 748.60217,181.860765 749.378252,181.860765 L751.459564,181.860765 C752.129817,181.860765 752.517859,182.248807 752.517859,183.024889 L752.517859,201.227553 C752.284719,203.726619 752.947373,206.227201 754.387512,208.282849 C755.831341,209.60745 757.76099,210.271964 759.714261,210.117225 C763.201982,209.789856 766.474206,208.284385 768.991975,205.848771 L768.991975,182.954336 C768.991975,182.21353 769.309463,181.790213 770.085545,181.790213 L772.131581,181.790213 C772.441254,181.765683 772.745297,181.883189 772.957987,182.109601 C773.170677,182.336012 773.268969,182.646799 773.225152,182.954336 L773.225152,211.739944 C773.154599,212.586579 772.696005,213.009897 772.025752,213.009897 Z" id="Shape-10" fill="#3C3C41" fill-rule="nonzero"></path>
            </g>
        </g>
    </g>
</svg>