<?xml version="1.0" encoding="UTF-8"?>
<svg width="980px" height="680px" viewBox="0 0 980 680" version="1.1" xmlns="http://www.w3.org/2000/svg" xmlns:xlink="http://www.w3.org/1999/xlink">
    <title>DE Hermes alt</title>
    <defs>
        <rect id="path-1" x="0" y="0" width="900" height="600" rx="80"></rect>
        <filter x="-6.7%" y="-10.0%" width="113.3%" height="120.0%" filterUnits="objectBoundingBox" id="filter-2">
            <feMorphology radius="2.5" operator="dilate" in="SourceAlpha" result="shadowSpreadOuter1"></feMorphology>
            <feOffset dx="0" dy="0" in="shadowSpreadOuter1" result="shadowOffsetOuter1"></feOffset>
            <feGaussianBlur stdDeviation="17.5" in="shadowOffsetOuter1" result="shadowBlurOuter1"></feGaussianBlur>
            <feColorMatrix values="0 0 0 0 0   0 0 0 0 0   0 0 0 0 0  0 0 0 0.5 0" type="matrix" in="shadowBlurOuter1"></feColorMatrix>
        </filter>
    </defs>
    <g id="DE-Hermes-alt" stroke="none" stroke-width="1" fill="none" fill-rule="evenodd">
        <g transform="translate(40, 40)">
            <g id="Rectangle">
                <use fill="black" fill-opacity="1" filter="url(#filter-2)" xlink:href="#path-1"></use>
                <use fill="#0099D3" fill-rule="evenodd" xlink:href="#path-1"></use>
            </g>
            <g id="Logo" transform="translate(50, 50.0105)" fill="#FFFFFF">
                <polygon id="Path" points="764.254703 140.520984 800 0 725.180897 0 689.580318 140.520984"></polygon>
                <polygon id="Path" points="656.439942 140.520984 692.040521 0 0 0 118.958032 140.520984"></polygon>
                <polygon id="Path" points="718.813314 319.971056 754.413893 179.305355 679.739508 179.305355 643.994211 319.971056"></polygon>
                <polygon id="Path" points="611.143271 319.681621 646.888567 179.160637 185.094067 179.160637 307.814761 319.681621"></polygon>
                <polygon id="Path" points="673.227207 499.131693 709.117221 358.465991 634.298119 358.465991 598.408104 499.131693"></polygon>
                <polygon id="Path" points="565.701881 499.131693 601.30246 358.465991 374.384949 358.465991 496.960926 499.131693"></polygon>
            </g>
        </g>
    </g>
</svg>