<?xml version="1.0" encoding="UTF-8"?>
<svg width="980px" height="680px" viewBox="0 0 980 680" version="1.1" xmlns="http://www.w3.org/2000/svg" xmlns:xlink="http://www.w3.org/1999/xlink">
    <title>DE Hermes text alt</title>
    <defs>
        <rect id="path-1" x="0" y="0" width="900" height="600" rx="80"></rect>
        <filter x="-6.7%" y="-10.0%" width="113.3%" height="120.0%" filterUnits="objectBoundingBox" id="filter-2">
            <feMorphology radius="2.5" operator="dilate" in="SourceAlpha" result="shadowSpreadOuter1"></feMorphology>
            <feOffset dx="0" dy="0" in="shadowSpreadOuter1" result="shadowOffsetOuter1"></feOffset>
            <feGaussianBlur stdDeviation="17.5" in="shadowOffsetOuter1" result="shadowBlurOuter1"></feGaussianBlur>
            <feColorMatrix values="0 0 0 0 0   0 0 0 0 0   0 0 0 0 0  0 0 0 0.5 0" type="matrix" in="shadowBlurOuter1"></feColorMatrix>
        </filter>
    </defs>
    <g id="DE-Hermes-text-alt" stroke="none" stroke-width="1" fill="none" fill-rule="evenodd">
        <g transform="translate(40, 40)">
            <g id="Rectangle">
                <use fill="black" fill-opacity="1" filter="url(#filter-2)" xlink:href="#path-1"></use>
                <use fill="#0099D3" fill-rule="evenodd" xlink:href="#path-1"></use>
            </g>
            <g id="Logo" transform="translate(50, 239)" fill="#FFFFFF">
                <polygon id="Path" points="186.295088 34.2639756 195.008378 0.0105141185 176.770438 0.0105141185 168.092424 34.2639756"></polygon>
                <polygon id="Path" points="160.014111 34.2639756 168.692125 0.0105141185 0 0.0105141185 28.9972661 34.2639756"></polygon>
                <polygon id="Path" points="175.218273 78.0068101 183.896287 43.7180721 165.693624 43.7180721 156.980333 78.0068101"></polygon>
                <polygon id="Path" points="148.972573 77.9362571 157.685863 43.6827956 45.1186172 43.6827956 75.0330717 77.9362571"></polygon>
                <polygon id="Path" points="164.106182 121.679092 172.854749 87.3903536 154.616809 87.3903536 145.868242 121.679092"></polygon>
                <polygon id="Path" points="137.895758 121.679092 146.573772 87.3903536 91.2602522 87.3903536 121.13943 121.679092"></polygon>
                <path d="M800,24.4923908 L796.89567,35.8866937 C795.519887,41.1428891 792.944704,43.1889249 786.736044,43.1889249 L768.850869,43.1889249 C760.807831,43.1889249 758.267925,43.7180721 756.080783,45.7288314 C754.414154,47.6968687 753.523503,50.2057459 753.576153,52.7841273 C753.576153,55.7120751 754.740277,56.805646 759.290943,58.2519816 L777.387777,63.649283 C789.734544,67.1769309 793.473851,71.0926201 793.297469,80.5819931 C793.121087,90.071366 789.487609,105.275529 784.090308,112.048613 C778.693006,118.821697 772.202134,121.749645 761.830849,121.749645 L717.699974,121.749645 C716.376365,121.8286 715.095419,121.266829 714.256912,120.239658 C713.418406,119.212487 713.124453,117.845008 713.466796,116.564002 L719.075756,94.7278613 L724.296675,94.7278613 C725.672458,99.6665684 728.95317,101.148181 736.114296,101.148181 L753.293941,101.148181 C759.643708,101.148181 762.748038,100.230992 764.617691,97.867468 C766.525855,95.5998556 767.607889,92.751744 767.686745,89.7891542 C767.686745,85.802912 766.310962,84.7093412 757.562395,82.3458171 L740.876621,77.7951512 C731.246142,75.2199682 726.977688,70.3165376 727.118794,62.0971179 C727.679997,53.0445192 730.32385,44.2437469 734.844343,36.3805644 C739.888879,27.8083799 747.29694,24.5276673 760.772555,24.5276673 L800,24.4923908 Z M401.375783,48.5509498 C401.052191,57.0156705 399.298905,65.3646509 396.19014,73.2444854 C394.320487,76.7721333 391.568921,77.6187688 382.432313,77.6187688 L340.664962,77.6187688 L338.901138,85.2737648 C338.473607,87.201944 338.190609,89.1593478 338.054502,91.1296604 C337.693591,94.5214977 339.259536,97.8304078 342.111297,99.7018449 C344.263163,101.359839 349.166593,102.065369 357.20963,102.065369 C373.789576,102.065369 377.775818,99.8076744 383.102566,92.2585078 L388.640974,92.2585078 L385.113326,105.593017 C382.573419,115.435155 381.86789,116.88149 378.340242,118.89225 C373.683746,121.467433 364.758797,122.702109 350.40127,122.702109 C337.031484,122.702109 329.235382,121.467433 323.979187,118.89225 C316.641679,114.976561 312.620161,106.439652 312.796543,95.8567087 C313.114031,78.218469 321.792045,50.5969856 330.434783,39.4143416 C339.07752,28.2316976 350.612929,23.7515848 370.649969,23.7515848 C392.662492,23.5752024 401.869653,31.053816 401.552165,48.5509498 L401.375783,48.5509498 Z M380.209895,51.65528 C380.209895,44.5999841 376.011994,41.2487185 366.73428,41.2487185 C354.316959,41.2487185 349.342976,46.0110433 345.003969,61.4974177 L378.446071,61.4974177 C379.495831,58.3122775 380.124382,55.0034887 380.315724,51.65528 L380.209895,51.65528 Z M710.750507,48.5509498 C710.426915,57.0156705 708.673629,65.3646509 705.564865,73.2444854 C703.695211,76.7721333 700.943646,77.6187688 691.807038,77.6187688 L649.969133,77.6187688 L648.205309,85.2032119 C647.760584,87.128207 647.477388,89.0869783 647.358674,91.0591075 C646.997763,94.4509447 648.563708,97.7598548 651.415469,99.631292 C653.567334,101.289286 658.294382,101.994816 666.513802,101.994816 C683.093747,101.994816 687.079989,99.7371214 692.406738,92.1879548 L698.015698,92.1879548 L694.48805,105.522464 C691.948144,115.364602 691.242614,116.810937 687.714966,118.821697 C683.058471,121.39688 674.133521,122.631557 659.775994,122.631557 C646.406209,122.631557 638.433724,121.39688 633.353911,118.821697 C625.910574,115.011837 621.924332,106.616035 622.065438,95.8567087 C622.382926,78.218469 631.06094,50.5969856 639.703678,39.4143416 C648.346415,28.2316976 659.881824,23.7515848 679.918864,23.7515848 C701.966664,23.5752024 711.173825,31.053816 710.856337,48.5509498 L710.750507,48.5509498 Z M689.584619,51.65528 C689.584619,44.5999841 685.386718,41.2487185 676.109004,41.2487185 C663.691684,41.2487185 658.7177,46.0110433 654.378693,61.4974177 L687.785519,61.4974177 C688.835803,58.3138696 689.452802,55.003437 689.619896,51.65528 L689.584619,51.65528 Z M316.43002,5.19615659 C316.774851,3.90881546 316.47685,2.53418818 315.629873,1.50521549 C314.782895,0.47624281 313.491184,-0.0804329105 312.161566,0.0105141185 L285.316165,0.0105141185 L284.46953,3.53816206 C289.161302,5.01977419 287.609137,10.0643107 287.115266,12.216176 C285.951142,17.3312655 279.001676,44.670537 279.001676,44.670537 L242.666902,44.670537 L252.826528,5.19615659 C253.185917,3.91352554 252.898525,2.53623434 252.056181,1.50436265 C251.213836,0.472490973 249.921964,-0.0848165257 248.59335,0.0105141185 L221.712673,0.0105141185 L220.866038,3.53816206 C225.557809,5.01977419 224.005644,10.0643107 223.54705,12.216176 C220.019402,28.1964212 196.807479,116.493449 196.807479,116.493449 C196.461977,117.771253 196.755909,119.137256 197.596406,120.159861 C198.436903,121.182465 199.720135,121.735345 201.040656,121.643815 L227.921333,121.643815 L228.767969,118.116167 C224.076197,116.634555 225.628362,111.554742 226.122233,109.438153 C226.616104,107.321564 237.516536,64.1078772 237.516536,64.1078772 L273.992416,64.1078772 L260.375695,116.528726 C260.044515,117.811158 260.348921,119.174621 261.194097,120.19442 C262.039274,121.21422 263.322527,121.766446 264.644149,121.679092 L291.489549,121.679092 L292.336185,118.151444 C287.644413,116.669832 289.196578,111.590018 289.690449,109.47343 C290.18432,107.356841 316.43002,5.19615659 316.43002,5.19615659 Z M598.289091,23.7163083 L585.554282,23.7163083 C579.496178,23.0968012 573.684939,26.2831571 570.949819,31.7240691 L566.152218,39.2026827 C566.716642,31.5829632 562.62457,23.7163083 549.642826,23.7163083 L537.789929,23.7163083 C531.910131,23.0516796 526.16395,25.7879564 522.973807,30.7716042 L517.400123,38.1443884 L519.622542,29.5369274 C519.970696,28.2527379 519.672752,26.8794545 518.823721,25.8550034 C517.97469,24.8305524 516.680586,24.2828531 515.354088,24.3865614 L491.189699,24.3865614 L490.272511,27.9142093 C492.317513,28.3590631 493.782069,30.1604662 493.800159,32.2532163 C493.723056,33.4522379 493.497928,34.6371174 493.129906,35.7808642 L472.422612,116.705108 C472.077781,117.992449 472.375782,119.367076 473.22276,120.396049 C474.069737,121.425022 475.361448,121.981697 476.691066,121.89075 L500.573243,121.89075 L501.455155,118.363103 C499.827758,117.861961 498.607813,116.506466 498.280272,114.835455 C498.146524,113.45176 498.315035,112.055526 498.774142,110.743383 C498.774142,110.743383 512.249757,60.2274645 512.496693,59.1691701 C515.53047,46.2579786 519.269777,44.7058135 526.042861,43.8239015 C527.660122,43.6608363 529.286194,43.6019206 530.911015,43.6475191 C537.754652,43.6475191 539.624305,47.6337613 538.671841,52.396086 C538.424905,53.5602099 522.268278,116.669832 522.268278,116.669832 C521.923446,117.957173 522.221448,119.3318 523.068425,120.360773 C523.915403,121.389745 525.207114,121.946421 526.536732,121.855474 L550.418908,121.855474 L551.30082,118.327826 C549.673424,117.826684 548.453478,116.471189 548.125937,114.800178 C547.992189,113.416483 548.1607,112.02025 548.619808,110.708106 L562.307082,59.1338936 C565.83473,46.2932551 569.115442,44.670537 575.994356,43.7886251 C577.635172,43.6249569 579.284752,43.5660434 580.933063,43.6122427 C587.811976,43.6122427 589.716906,47.5984848 588.729165,52.3608096 L572.431431,116.634555 C572.089088,117.91556 572.383041,119.28304 573.221548,120.310211 C574.060055,121.337382 575.341,121.899152 576.664609,121.820198 L600.617338,121.820198 L601.463974,118.29255 C599.836578,117.791408 598.616632,116.435913 598.289091,114.764902 C598.174379,113.381498 598.342413,111.98922 598.782961,110.67283 C598.782961,110.67283 614.974866,46.1874257 615.680395,43.2242014 C616.950348,37.1919234 616.809242,23.7163083 598.289091,23.7163083 Z M464.802893,24.4923908 C458.770615,24.4923908 458.241468,24.6687732 455.242967,28.8313978 L448.187671,38.2854943 L450.410089,29.6427568 C450.755591,28.3649529 450.461659,26.9989496 449.621162,25.9763452 C448.780665,24.9537408 447.497433,24.4008606 446.176912,24.4923908 L422.259459,24.4923908 L421.377547,28.0200388 C423.018302,28.5000999 424.247255,29.8656034 424.55243,31.5476867 C424.685724,32.9429672 424.51729,34.3505949 424.058559,35.6750348 L403.21016,116.599279 C402.85077,117.88191 403.138163,119.259201 403.980507,120.291072 C404.822851,121.322944 406.114723,121.880252 407.443337,121.784921 L431.36079,121.784921 L432.207426,118.257273 C430.588577,117.742813 429.374226,116.393534 429.032543,114.729625 C428.93801,113.346671 429.105571,111.958307 429.526413,110.637554 L443.072581,58.7811288 C446.000529,46.9635082 449.140136,44.1766663 459.546697,44.1766663 L469.03607,44.1766663 C476.303025,44.1766663 478.737102,42.5539483 480.077608,37.2977529 L483.393597,24.5276673 L464.802893,24.4923908 Z" id="Shape"></path>
            </g>
        </g>
    </g>
</svg>