<?xml version="1.0" encoding="UTF-8"?>
<svg width="980px" height="680px" viewBox="0 0 980 680" version="1.1" xmlns="http://www.w3.org/2000/svg" xmlns:xlink="http://www.w3.org/1999/xlink">
    <title>DE Kühne + Nagel text alt</title>
    <defs>
        <linearGradient x1="50%" y1="0%" x2="50%" y2="100%" id="linearGradient-1">
            <stop stop-color="#FFFFFF" offset="0%"></stop>
            <stop stop-color="#EDEDED" offset="100%"></stop>
        </linearGradient>
        <rect id="path-2" x="0" y="0" width="900" height="600" rx="80"></rect>
        <filter x="-6.7%" y="-10.0%" width="113.3%" height="120.0%" filterUnits="objectBoundingBox" id="filter-3">
            <feMorphology radius="2.5" operator="dilate" in="SourceAlpha" result="shadowSpreadOuter1"></feMorphology>
            <feOffset dx="0" dy="0" in="shadowSpreadOuter1" result="shadowOffsetOuter1"></feOffset>
            <feGaussianBlur stdDeviation="17.5" in="shadowOffsetOuter1" result="shadowBlurOuter1"></feGaussianBlur>
            <feColorMatrix values="0 0 0 0 0   0 0 0 0 0   0 0 0 0 0  0 0 0 0.5 0" type="matrix" in="shadowBlurOuter1"></feColorMatrix>
        </filter>
    </defs>
    <g id="DE-Kühne-+-Nagel-text-alt" stroke="none" stroke-width="1" fill="none" fill-rule="evenodd">
        <g transform="translate(40, 40)">
            <g id="Rectangle">
                <use fill="black" fill-opacity="1" filter="url(#filter-3)" xlink:href="#path-2"></use>
                <use fill="url(#linearGradient-1)" fill-rule="evenodd" xlink:href="#path-2"></use>
            </g>
            <g id="Logo" transform="translate(148, 50.3093)" fill="#003369" fill-rule="nonzero">
                <path d="M284.163817,142.733469 L284.803577,138.286563 L286.08253,134.453116 L287.97544,131.284097 L289.893869,128.089558 L293.065874,125.533927 L296.902804,123.617204 L300.714214,122.364908 L304.525553,122.364908 L308.976511,122.364908 L312.78785,123.617204 L316.62478,125.533927 L319.157237,128.089558 L321.689624,131.284097 L323.608124,134.453116 L324.887077,138.286563 L325.526838,142.733469 L324.887077,147.205894 L323.608124,151.03934 L321.689624,154.847267 L319.157237,157.402898 L316.62478,159.953411 L312.78785,161.865017 L308.976511,163.137856 L304.525553,163.776906 L300.714214,163.137856 L296.902804,161.865017 L293.065874,159.953411 L289.893869,157.402898 L287.97544,154.847267 L286.08253,151.03934 L284.803577,147.205894 L284.163817,142.733469 Z M171.561445,367.066076 L178.570308,372.800963 L185.553652,377.899429 L192.562516,382.995479 L200.185336,388.094017 L208.473081,392.555638 L216.095902,396.379417 L224.358199,400.202911 L233.259972,403.389346 L241.547789,405.938295 L250.449562,408.4876 L259.351335,411.03662 L268.253109,412.948367 L277.180472,414.222913 L286.082246,414.85983 L295.623496,415.496748 L304.525269,415.496748 L314.06659,415.496748 L323.60784,414.85983 L332.509613,414.222913 L341.411386,412.948367 L350.33875,411.03662 L359.240523,408.4876 L368.142226,405.938295 L376.404523,403.389346 L385.331886,400.202911 L393.594183,396.379417 L401.217004,392.555638 L409.50482,388.094017 L417.127641,382.995479 L424.136433,377.899429 L431.119706,372.800963 L438.128641,367.066076 L412.676683,339.661853 L403.135433,347.947252 L392.954707,354.957466 L382.134433,361.328631 L371.314231,367.066076 L359.88,371.525706 L348.42025,375.348917 L335.707137,377.899429 L322.968363,379.811177 L322.968363,233.875634 L359.240523,233.875634 L359.240523,206.47397 L322.968363,206.47397 L322.968363,184.807122 L329.33775,182.256609 L335.067519,178.433327 L340.157953,173.971209 L344.608911,168.875231 L347.780773,163.776764 L350.33875,157.402898 L352.231589,150.400433 L352.231589,143.372376 L352.231589,138.286563 L351.591828,133.814208 L350.338466,128.728466 L349.059442,124.895019 L346.501465,120.448185 L344.608626,116.614738 L341.411102,112.80674 L338.878716,109.612201 L335.067234,106.417662 L331.255895,103.86196 L327.418966,101.970828 L323.607555,100.054104 L319.156669,98.13731 L314.705782,96.8594945 L309.615419,96.2204446 L304.524985,96.2204446 L300.074169,96.2204446 L294.983735,96.8594945 L290.532919,98.13731 L286.081961,100.054104 L282.270622,101.970828 L278.433622,103.86196 L274.622211,106.417662 L270.810801,109.612201 L268.252824,112.80674 L265.080962,116.614738 L263.162532,120.448185 L260.630075,124.895019 L259.351051,128.728466 L258.072098,133.814208 L257.457928,138.286563 L257.457928,143.372376 L257.457928,150.400433 L259.350767,157.402898 L261.908743,163.776764 L265.080677,168.875231 L269.531564,173.971209 L274.621927,178.433327 L280.351767,182.256609 L286.721154,184.807122 L286.721154,206.47397 L250.448993,206.47397 L250.448993,233.875634 L286.721154,233.875634 L286.721154,379.811177 L273.982451,377.899429 L261.269267,375.348917 L249.809517,371.525706 L238.349767,367.066076 L226.915678,361.328631 L216.73481,354.957466 L206.554083,347.947252 L197.012834,339.661853 L171.561445,367.066076 Z M95.8452613,206.47397 L96.4850221,196.276966 L97.1247829,185.44347 L98.4037357,175.246466 L100.322165,165.049461 L102.854551,155.486175 L105.412599,145.2891 L108.584462,135.730932 L112.395943,126.172835 L116.846759,117.253646 L121.297717,108.334386 L126.388009,100.054104 L132.117919,91.1347731 L137.847759,83.4678801 L144.217146,75.1875988 L150.560942,68.185133 L157.569877,60.5436883 L164.553079,54.1545398 L172.201419,47.7909817 L179.824239,41.4273525 L188.112127,35.6771828 L197.0139,29.9525324 L205.276126,25.4801072 L214.177899,20.3944356 L223.71922,16.560847 L233.26047,12.752991 L242.82731,9.55838116 L252.982446,7.00275018 L263.163243,4.4471192 L273.343969,2.55591531 L283.524696,1.27809983 L294.34504,0.639049913 L304.525767,-2.84217094e-14 L315.34604,0.639049913 L326.166243,1.27809983 L336.32145,2.55591531 L346.502176,4.4471192 L356.683044,7.00275018 L366.863771,9.55838116 L376.40502,12.752991 L385.94627,16.560847 L394.873634,20.3944356 L404.414884,25.4801072 L412.677181,29.9525324 L421.578954,35.6771828 L429.841251,41.4273525 L437.489662,47.7909817 L445.11234,54.1545398 L452.121204,60.5436883 L459.104548,68.185133 L465.473935,75.1875988 L471.843251,83.4678801 L477.573161,91.1347731 L483.303072,100.054104 L488.367774,108.334386 L492.844322,117.253646 L497.295137,126.172835 L501.106619,135.730932 L504.278481,145.2891 L506.836458,155.486175 L509.368773,165.049461 L511.287345,175.246466 L512.566298,185.44347 L513.180468,196.276966 L513.820229,206.47397 L513.180468,216.668487 L512.566298,225.590235 L511.287345,235.151033 L510.008392,244.70913 L508.089821,253.630878 L505.557434,262.552697 L503.025048,271.474445 L499.827524,280.396193 L496.655661,288.681664 L492.844322,296.964504 L488.367774,305.249904 L483.916958,312.896466 L479.466,320.545517 L474.375708,328.192009 L468.671388,335.838572 L462.941477,342.848715 L436.210567,315.44705 L444.472864,303.974647 L452.760751,291.229689 L459.104548,278.484588 L464.834458,264.464302 L468.671388,250.443945 L471.843251,236.42373 L473.736232,221.767025 L474.375992,206.47397 L474.375992,198.188571 L473.736232,189.266823 L472.482727,180.981352 L471.203774,172.698512 L469.285274,164.413113 L466.752888,156.125083 L464.19484,148.483709 L461.022977,140.842336 L457.851114,133.175301 L454.014114,125.533927 L449.563298,118.531461 L445.11234,111.528924 L440.661525,105.139776 L435.57109,98.13731 L430.480727,92.4127307 L424.750817,86.0235111 L418.40702,80.2988608 L412.677181,75.1875988 L406.307794,70.1018562 L399.324521,64.9904521 L392.315728,60.5436883 L385.332384,56.7101707 L378.323521,52.9023147 L370.67511,49.0687972 L363.05236,46.5131662 L354.790063,43.3440757 L347.141795,41.4273525 L338.879498,39.5106293 L330.617201,37.593906 L322.329313,36.9548561 L313.42754,36.3158062 L304.525767,35.6767563 L296.263541,36.3158062 L287.336177,36.9548561 L279.07388,37.593906 L270.811583,39.5106293 L262.549286,41.4273525 L254.900946,43.3440757 L246.638649,46.5131662 L238.99038,49.0687972 L231.36756,52.9023147 L224.358696,56.7101707 L217.375352,60.5436883 L210.366489,64.9904521 L203.383287,70.1018562 L197.0139,75.1875988 L191.283989,80.2988608 L184.914673,86.0235111 L179.210353,92.4127307 L174.119919,98.13731 L169.029556,105.139776 L164.553079,111.528924 L160.102192,118.531461 L155.651305,125.533927 L151.839966,133.175301 L148.668104,140.842336 L145.470579,148.483709 L142.938193,156.125083 L140.380216,164.413113 L138.487235,172.698512 L137.208282,180.981352 L135.929258,189.266823 L135.289498,198.188571 L135.289498,206.47397 L135.929258,221.767025 L137.847759,236.42373 L141.019693,250.443945 L144.856622,264.464302 L150.560942,278.484588 L156.930258,291.229689 L165.192555,303.974647 L173.480443,315.44705 L146.749532,342.848715 L141.019693,335.838572 L135.289782,328.192009 L130.19949,320.545517 L125.748532,312.896466 L121.297717,305.249904 L116.846759,296.964504 L113.03542,288.681664 L109.863486,280.396193 L106.666033,271.474445 L104.133646,262.552697 L101.575598,253.630878 L99.6826885,244.70913 L98.4037357,235.151033 L97.1247829,225.590235 L96.4850221,216.668487 L95.8452613,206.47397 Z M568.881397,498.277082 L568.881397,448.570841 L582.145436,448.570841 L582.145436,486.959152 L604.742735,486.959152 L604.742735,498.277082 L568.881397,498.277082 Z M521.968355,498.277082 L559.054329,498.277082 L559.054329,486.959152 L534.491683,486.959152 L534.491683,478.347829 L554.629717,478.347829 L554.629717,468.013643 L534.491683,468.013643 L534.491683,459.401359 L557.829665,459.401359 L557.829665,448.570841 L521.968355,448.570841 L521.968355,498.277082 Z M465.2283,473.425924 L465.2283,473.425924 L465.465432,470.473593 L465.712446,467.766959 L466.20628,465.306981 L466.946991,462.846069 L467.924779,460.385131 L469.149444,458.170876 L470.383989,456.202344 L471.855584,454.48143 L473.574083,452.754642 L475.292582,451.284392 L477.504889,450.050972 L479.470319,449.064209 L481.929556,448.087353 L484.378885,447.593985 L486.838122,447.100617 L489.791193,447.100617 L489.791193,447.100617 L493.712118,447.347356 L495.677548,447.594095 L497.642951,448.087463 L499.36145,448.817634 L501.089829,449.557686 L502.561425,450.297766 L504.032993,451.284502 L505.504561,452.508068 L506.739133,453.741488 L507.963798,455.218628 L508.941559,456.694834 L509.682324,458.41767 L510.423063,460.139544 L510.906989,462.108076 L511.400796,464.076635 L498.136758,464.076635 L498.136758,464.076635 L497.642951,462.353799 L496.912093,461.124304 L496.171355,460.139544 L495.193567,459.155773 L493.959022,458.663365 L492.734357,458.170986 L491.262761,457.925345 L490.028216,457.925345 L490.028216,457.925345 L488.556648,458.170986 L487.331956,458.170986 L486.097411,458.663365 L484.872747,459.155773 L483.894958,459.893849 L482.907317,460.631924 L481.435749,462.353799 L480.211057,464.81471 L479.223415,467.274689 L478.729581,470.228007 L478.729581,473.426034 L478.729581,473.426034 L478.729581,476.625076 L479.470319,479.577406 L480.211057,482.284041 L481.682652,484.498323 L483.401124,486.466854 L484.378885,487.204958 L485.366554,487.943033 L486.591218,488.435413 L487.825763,488.681054 L489.297359,488.927793 L490.768954,489.173434 L490.768954,489.173434 L493.228192,488.927793 L495.440525,488.435413 L497.4059,487.697337 L499.124427,486.713538 L499.124427,480.315482 L490.27512,480.315482 L490.27512,470.473703 L511.647727,470.473703 L511.647727,492.864883 L511.647727,492.864883 L509.188517,494.586786 L506.49223,496.062937 L504.032993,497.29342 L501.326852,498.277192 L498.630565,499.015268 L496.171355,499.754359 L493.712118,500 L491.509665,500 L491.509665,500 L488.309745,500 L485.613457,499.50762 L482.907317,499.015213 L480.211057,498.277137 L477.998751,497.293365 L475.786417,496.062882 L473.820987,494.586731 L472.102515,493.110579 L470.630892,491.141993 L469.149444,489.173434 L467.924779,486.959207 L466.946991,484.744952 L466.20628,482.038317 L465.712446,479.331655 L465.465432,476.379325 L465.2283,473.425924 Z M430.591654,480.562056 L436.971816,461.615586 L443.361885,480.562056 L430.591654,480.562056 Z M410.937546,498.277082 L424.448515,498.277082 L426.907752,490.896242 L446.798884,490.896242 L449.504997,498.277082 L463.015966,498.277082 L444.102623,448.570841 L429.850916,448.570841 L410.937546,498.277082 Z M361.07146,498.277082 L373.357764,498.277082 L373.357764,468.505062 L390.799539,498.277082 L404.794435,498.277082 L404.794435,448.570841 L392.51801,448.570841 L392.51801,477.855449 L374.582429,448.570841 L361.07146,448.570841 L361.07146,498.277082 Z M305.072115,478.347829 L305.072115,471.949772 L324.726223,471.949772 L324.726223,451.77776 L332.34093,451.77776 L332.34093,471.949772 L352.232088,471.949772 L352.232088,478.347829 L332.34093,478.347829 L332.34093,498.277082 L324.726223,498.277082 L324.726223,478.347829 L305.072115,478.347829 Z M262.089905,498.277082 L299.17588,498.277082 L299.17588,486.959152 L274.613205,486.959152 L274.613205,478.347829 L294.75124,478.347829 L294.75124,468.013643 L274.613205,468.013643 L274.613205,459.401359 L297.951215,459.401359 L297.951215,448.570841 L262.089905,448.570841 L262.089905,498.277082 Z M206.574487,498.277082 L219.097815,498.277082 L219.097815,468.505062 L236.292686,498.277082 L250.297462,498.277082 L250.297462,448.570841 L238.011157,448.570841 L238.011157,477.855449 L220.085456,448.570841 L206.574487,448.570841 L206.574487,498.277082 Z M150.575142,498.277082 L163.839181,498.277082 L163.839181,479.085904 L181.764909,479.085904 L181.764909,498.277082 L194.782044,498.277082 L194.782044,448.570841 L181.764909,448.570841 L181.764909,467.274579 L163.839181,467.274579 L163.839181,448.570841 L150.575142,448.570841 L150.575142,498.277082 Z M103.652247,498.277082 L140.748129,498.277082 L140.748129,486.959152 L116.1854,486.959152 L116.1854,478.347829 L136.323462,478.347829 L136.323462,468.013643 L116.1854,468.013643 L116.1854,459.401359 L139.513557,459.401359 L139.513557,448.570841 L103.652247,448.570841 L103.652247,498.277082 Z M49.1264463,477.855449 L49.1264463,477.855449 L49.1264463,480.807779 L49.3712639,483.514387 L50.1080772,485.975353 L50.8448356,488.189607 L51.8275369,490.158166 L52.8102381,491.880014 L54.0388824,493.602904 L55.5124265,495.079056 L56.9860256,496.309539 L58.7054853,497.29331 L60.4249998,498.031386 L62.3903749,498.769462 L64.3548169,499.507565 L66.5661349,499.754304 L68.5305769,499.999945 L70.7408795,499.999945 L70.7408795,499.999945 L72.952225,499.999945 L74.9166669,499.754304 L77.127985,499.507565 L79.0924269,498.769462 L80.8118866,498.031386 L82.7773166,497.29331 L84.4967763,496.309539 L85.9703753,495.079056 L87.4439195,493.602904 L88.6725637,491.880014 L89.655265,490.158166 L90.6369782,488.189607 L91.3747247,485.975353 L91.8656224,483.514387 L92.3564653,480.807779 L92.3564653,477.855449 L92.3564653,448.570841 L79.0924269,448.570841 L79.0924269,479.82398 L79.0924269,479.82398 L78.8476093,481.791551 L78.3557783,483.760137 L77.8649355,485.236289 L76.8822342,486.466745 L75.654578,487.451532 L74.4259613,488.189607 L72.7064467,488.680999 L70.7410441,488.680999 L70.7410441,488.680999 L68.7766296,488.680999 L67.0571425,488.189607 L65.5835709,487.451532 L64.6008696,486.466745 L63.6181683,485.236289 L62.88141,483.760137 L62.6354945,481.791551 L62.3906768,479.82398 L62.3906768,448.570841 L49.1264463,448.570841 L49.1264463,477.855449 Z M0,498.277082 L13.0182327,498.277082 L13.0182327,484.252517 L17.4399082,478.593525 L28.9844321,498.277082 L44.4588554,498.277082 L26.2822711,468.997442 L42.2484979,448.570841 L27.0190569,448.570841 L13.0182327,466.290807 L13.0182327,448.570841 L0,448.570841 L0,498.277082 Z" id="path1484"></path>
            </g>
        </g>
    </g>
</svg>