<?xml version="1.0" encoding="UTF-8"?>
<svg width="980px" height="680px" viewBox="0 0 980 680" version="1.1" xmlns="http://www.w3.org/2000/svg" xmlns:xlink="http://www.w3.org/1999/xlink">
    <title>DE Kühne + Nagel text heritage</title>
    <defs>
        <linearGradient x1="50%" y1="0%" x2="50%" y2="100%" id="linearGradient-1">
            <stop stop-color="#FFFFFF" offset="0%"></stop>
            <stop stop-color="#EDEDED" offset="100%"></stop>
        </linearGradient>
        <rect id="path-2" x="0" y="0" width="900" height="600" rx="80"></rect>
        <filter x="-6.7%" y="-10.0%" width="113.3%" height="120.0%" filterUnits="objectBoundingBox" id="filter-3">
            <feMorphology radius="2.5" operator="dilate" in="SourceAlpha" result="shadowSpreadOuter1"></feMorphology>
            <feOffset dx="0" dy="0" in="shadowSpreadOuter1" result="shadowOffsetOuter1"></feOffset>
            <feGaussianBlur stdDeviation="17.5" in="shadowOffsetOuter1" result="shadowBlurOuter1"></feGaussianBlur>
            <feColorMatrix values="0 0 0 0 0   0 0 0 0 0   0 0 0 0 0  0 0 0 0.5 0" type="matrix" in="shadowBlurOuter1"></feColorMatrix>
        </filter>
    </defs>
    <g id="DE-Kühne-+-Nagel-text-heritage" stroke="none" stroke-width="1" fill="none" fill-rule="evenodd">
        <g transform="translate(40, 40)">
            <g id="Rectangle">
                <use fill="black" fill-opacity="1" filter="url(#filter-3)" xlink:href="#path-2"></use>
                <use fill="url(#linearGradient-1)" fill-rule="evenodd" xlink:href="#path-2"></use>
            </g>
            <g id="Logo" transform="translate(49.7566, 223.5587)">
                <path d="M658.161964,76.7358625 L658.239302,79.6415826 C658.848028,92.5626156 663.492475,105.302039 671.500019,115.475427 L673.211839,117.563905 L663.455474,128.51417 L661.071046,125.830414 C619.795714,76.6652397 652.596032,3.95500267 717.325631,0.0739940025 L721.425242,0 L725.447514,0.0739940025 C790.217469,3.98527998 822.977432,76.624876 781.70209,125.830414 L779.321025,128.51417 L769.557944,117.563905 L771.273127,115.475427 L772.910945,113.316307 C795.537893,81.1785185 784.150425,36.9470159 748.770613,19.7414012 L746.00951,18.4768792 L743.107161,17.3603178 C704.424771,3.1983067 662.718951,29.3094153 658.53526,70.2551687 L658.313296,73.4568375 L658.161964,76.7358625" id="path215" fill="#00B9F2"></path>
                <path d="M701.381168,68.6139706 L713.676664,68.6139706 L713.676664,67.0501286 L712.560112,66.5288449 L711.517553,65.8562293 C697.093224,56.0662515 703.577271,35.0367843 720.456677,33.9706821 L722.319839,33.9706821 C739.192504,35.0367843 745.713552,56.0931485 731.262317,65.8562293 L730.216396,66.5288449 L729.099844,67.0501286 L729.099844,68.6139706 L741.39534,68.6139706 L741.39534,78.0003936 L729.099844,78.0003936 L729.099844,139.390423 L731.332939,139.091112 C741.499593,137.544081 751.205509,133.326751 759.428283,127.172283 L761.140103,125.830396 L770.38191,136.632691 L767.846123,138.569838 C740.194707,158.344869 702.588524,158.334774 674.930385,138.569838 L672.397969,136.632691 L681.636404,125.830396 L683.351587,127.172283 C691.591181,133.29312 701.263466,137.560901 711.440206,139.091112 L713.676664,139.390423 L713.676664,78.0003936 L701.381168,78.0003936 L701.381168,68.6139706 Z M714.497258,51.4049938 L714.571252,52.0742473 L714.645237,52.7435099 C716.387317,60.4315514 727.287132,59.9304496 728.208618,52.0742473 L728.27924,51.4049938 L728.208618,50.6583842 C727.324125,42.8391744 716.350334,42.3481589 714.645237,49.9891308 L714.571252,50.6583842 L714.497258,51.4049938" id="path219" fill="#003D79"></path>
                <polyline id="path243" fill="#003D79" points="138.667356 103.721387 150.441572 103.721387 150.441572 84.9485498 165.864751 84.9485498 165.864751 103.721387 177.638966 103.721387 177.638966 58.5717608 165.864751 58.5717608 165.864751 75.185469 150.441572 75.185469 150.441572 58.5717608 138.667356 58.5717608 138.667356 103.721387"></polyline>
                <polyline id="path247" fill="#003D79" points="190.60036 103.721387 201.627967 103.721387 201.627967 75.33681 217.498438 103.721387 229.494618 103.721387 229.494618 58.5717608 218.467012 58.5717608 218.467012 86.5863858 202.670529 58.5717608 190.60036 58.5717608 190.60036 103.721387"></polyline>
                <polyline id="path251" fill="#003D79" points="242.462734 103.721387 276.514129 103.721387 276.514129 94.0356438 254.233587 94.0356438 254.233587 85.0191817 272.791175 85.0191817 272.791175 75.8580937 254.233587 75.8580937 254.233587 67.8101958 275.545556 67.8101958 275.545556 58.5717608 242.462734 58.5717608 242.462734 103.721387"></polyline>
                <path d="M475.387721,98.8011637 L475.387721,78.6124728 L456.534175,78.6124728 L456.534175,87.2522771 L464.134783,87.2522771 L464.134783,93.8843119 L463.616871,94.2576076 L462.944255,94.5535654 C450.359526,99.1744594 444.595173,90.5615703 445.654542,78.4611318 L445.805892,77.1966098 L446.031218,75.8547225 C446.83164,66.730636 457.401867,63.1085836 461.901688,70.0432913 L462.496966,71.1598344 L462.944255,72.3537337 L474.863076,72.3537337 L474.715106,71.3851603 L474.493142,70.490581 C469.068464,51.0350421 438.820735,52.9520161 434.552954,73.9175848 L434.330981,75.0374901 L434.105656,76.2280364 C430.64503,101.51855 451.566873,112.246833 472.925929,100.664317 L474.341792,99.6217673 L475.387721,98.8011637" id="path255" fill="#003D79"></path>
                <polyline id="path259" fill="#003D79" points="487.010593 103.721387 521.065346 103.721387 521.065346 94.0356438 498.784805 94.0356438 498.784805 85.0191817 517.339022 85.0191817 517.339022 75.8580937 498.784805 75.8580937 498.784805 67.8101958 520.093411 67.8101958 520.093411 58.5717608 487.010593 58.5717608 487.010593 103.721387"></polyline>
                <polyline id="path263" fill="#003D79" points="531.716282 103.721387 563.830536 103.721387 563.830536 94.0356438 543.413148 94.0356438 543.413148 58.5717608 531.716282 58.5717608 531.716282 103.721387"></polyline>
                <polyline id="path267" fill="#003D79" points="337.836907 103.721387 348.86451 103.721387 348.86451 75.33681 364.73498 103.721387 376.80515 103.721387 376.80515 58.5717608 365.703553 58.5717608 365.703553 86.5863858 349.907068 58.5717608 337.836907 58.5717608 337.836907 103.721387"></polyline>
                <path d="M401.991411,58.5717608 L412.79705,58.5717608 L430.977981,103.721387 L417.935866,103.721387 L414.956161,95.3001841 L397.296523,95.3001841 L394.316809,103.721387 L382.243286,103.721387 L400.353584,58.5717608 L401.991411,58.5717608 Z M411.902471,86.5830237 L406.239009,70.4905901 L400.424207,86.5830237 L411.902471,86.5830237" id="path271" fill="#003D79"></path>
                <polyline id="path275" fill="#00B9F2" points="310.266201 103.721387 303.412202 103.721387 303.412202 85.8397762 285.826549 85.8397762 285.826549 79.5070613 303.412202 79.5070613 303.412202 61.6288129 310.266201 61.6288129 310.266201 79.5070613 327.851853 79.5070613 327.851853 85.8397762 310.266201 85.8397762 310.266201 103.721387"></polyline>
                <polyline id="path279" fill="#003D79" points="95.5994958 103.270726 129.576895 103.270726 129.576895 93.6623482 107.370346 93.6623482 107.370346 84.571892 125.924568 84.571892 125.924568 75.4814268 107.370346 75.4814268 107.370346 67.436891 128.682315 67.436891 128.682315 58.124462 95.5994958 58.124462 95.5994958 103.270726"></polyline>
                <polyline id="path283" fill="#003D79" points="25.186261 58.5717608 38.6722943 58.5717608 23.8443919 76.6013503 40.683426 103.721387 26.4541543 103.721387 16.3951156 85.6144503 11.9961763 90.904616 11.9961763 103.721387 -1.29481347e-14 103.721387 -1.29481347e-14 58.5717608 11.9961763 58.5717608 11.9961763 76.3020304 25.186261 58.5717608"></polyline>
                <path d="M84.645886,58.5717608 L72.8750356,58.5717608 L72.8750356,86.06174 L72.7976704,87.1043074 C72.7169613,91.6243195 70.7461842,94.5165821 66.0176658,94.7789004 L64.9751076,94.8528944 L63.9325402,94.7789004 C59.2107552,94.5703851 57.2433311,91.5704982 57.0751795,87.1043074 L57.0751795,58.5717608 L45.3043291,58.5717608 L45.3043291,85.2411546 C42.3683499,111.749103 87.4944319,111.715472 84.645886,85.2411546 L84.645886,58.5717608" id="path287" fill="#003D79"></path>
            </g>
        </g>
    </g>
</svg>