<?xml version="1.0" encoding="UTF-8"?>
<svg width="980px" height="680px" viewBox="0 0 980 680" version="1.1" xmlns="http://www.w3.org/2000/svg" xmlns:xlink="http://www.w3.org/1999/xlink">
    <title>DE Kühne + Nagel text</title>
    <defs>
        <linearGradient x1="50%" y1="0%" x2="50%" y2="100%" id="linearGradient-1">
            <stop stop-color="#FFFFFF" offset="0%"></stop>
            <stop stop-color="#EDEDED" offset="100%"></stop>
        </linearGradient>
        <rect id="path-2" x="0" y="0" width="900" height="600" rx="80"></rect>
        <filter x="-6.7%" y="-10.0%" width="113.3%" height="120.0%" filterUnits="objectBoundingBox" id="filter-3">
            <feMorphology radius="2.5" operator="dilate" in="SourceAlpha" result="shadowSpreadOuter1"></feMorphology>
            <feOffset dx="0" dy="0" in="shadowSpreadOuter1" result="shadowOffsetOuter1"></feOffset>
            <feGaussianBlur stdDeviation="17.5" in="shadowOffsetOuter1" result="shadowBlurOuter1"></feGaussianBlur>
            <feColorMatrix values="0 0 0 0 0   0 0 0 0 0   0 0 0 0 0  0 0 0 0.5 0" type="matrix" in="shadowBlurOuter1"></feColorMatrix>
        </filter>
    </defs>
    <g id="DE-Kühne-+-Nagel-text" stroke="none" stroke-width="1" fill="none" fill-rule="evenodd">
        <g transform="translate(40, 40)">
            <g id="Rectangle">
                <use fill="black" fill-opacity="1" filter="url(#filter-3)" xlink:href="#path-2"></use>
                <use fill="url(#linearGradient-1)" fill-rule="evenodd" xlink:href="#path-2"></use>
            </g>
            <g id="Logo" transform="translate(50, 220)" fill="#003369" fill-rule="nonzero">
                <path d="M711.221657,55.1765167 L711.221657,55.1765167 L711.468969,53.457475 L711.963374,51.9755786 L712.695117,50.7505299 L713.436725,49.5156162 L714.662928,48.5276852 L716.146171,47.7867369 L717.619549,47.3026365 L719.092899,47.3026365 L719.092899,47.3026365 L720.813507,47.3026365 L722.286857,47.7867369 L723.7701,48.5276852 L724.749073,49.5156162 L725.728018,50.7505299 L726.469654,51.9755786 L726.964059,53.457475 L727.211371,55.1765167 L727.211371,55.1765167 L726.964059,56.9054234 L726.469654,58.3873199 L725.728018,59.8593513 L724.749073,60.8472823 L723.7701,61.8332348 L722.286857,62.5722045 L720.813507,63.0642465 L719.092899,63.3112842 L719.092899,63.3112842 L717.619549,63.0642465 L716.146171,62.5722045 L714.662928,61.8332348 L713.436725,60.8472823 L712.695117,59.8593513 L711.963374,58.3873199 L711.468969,56.9054234 L711.221657,55.1765167 Z M667.692927,141.896835 L667.692927,141.896835 L670.402345,144.113772 L673.101898,146.084688 L675.811316,148.054669 L678.758072,150.025612 L681.961868,151.750342 L684.908624,153.228501 L688.102582,154.706551 L691.543743,155.938332 L694.747567,156.92368 L698.188728,157.909165 L701.629889,158.894541 L705.07105,159.633565 L708.522103,160.126267 L711.963264,160.37248 L715.651628,160.618693 L719.092789,160.618693 L719.092789,160.618693 L722.78118,160.618693 L726.469544,160.37248 L729.910705,160.126267 L733.351866,159.633565 L736.802919,158.894541 L740.24408,157.909165 L743.685214,156.92368 L746.879172,155.938332 L750.330226,154.706551 L753.524184,153.228501 L756.47094,151.750342 L759.674763,150.025612 L762.621519,148.054669 L765.33091,146.084688 L768.030436,144.113772 L770.739882,141.896835 L760.900911,131.303177 L760.900911,131.303177 L757.212548,134.506066 L753.276982,137.216007 L749.094185,139.678909 L744.911417,141.896835 L740.491283,143.620796 L736.061284,145.098735 L731.146773,146.084688 L726.222341,146.823712 L726.222341,90.4093692 L740.24408,90.4093692 L740.24408,79.8167002 L726.222341,79.8167002 L726.222341,71.4409405 L726.222341,71.4409405 L728.684557,70.454988 L730.899515,68.9770211 L732.867326,67.2520989 L734.587934,65.2821449 L735.814081,63.3112292 L736.802919,60.8472823 L737.534634,58.1403371 L737.534634,55.4234995 L737.534634,55.4234995 L737.534634,53.457475 L737.287322,51.7285958 L736.802809,49.7625989 L736.308377,48.2807024 L735.319539,46.5616882 L734.587824,45.0797918 L733.351756,43.6077328 L732.372811,42.3728191 L730.899405,41.1379054 L729.426055,40.1499469 L727.942812,39.4188912 L726.469434,38.677943 L724.748853,37.9369673 L723.028273,37.4430018 L721.06049,37.1959641 L719.092679,37.1959641 L719.092679,37.1959641 L717.372126,37.1959641 L715.404316,37.4430018 L713.683763,37.9369673 L711.963155,38.677943 L710.489804,39.4188912 L709.006534,40.1499469 L707.533156,41.1379054 L706.059778,42.3728191 L705.07094,43.6077328 L703.844792,45.0797918 L703.103184,46.5616882 L702.124212,48.2807024 L701.629779,49.7625989 L701.135374,51.7285958 L700.897954,53.457475 L700.897954,55.4234995 L700.897954,55.4234995 L700.897954,58.1403371 L701.629669,60.8472823 L702.618507,63.3112292 L703.844682,65.2821449 L705.565263,67.2520989 L707.533046,68.9770211 L709.748032,70.454988 L712.210247,71.4409405 L712.210247,79.8167002 L698.188508,79.8167002 L698.188508,90.4093692 L712.210247,90.4093692 L712.210247,146.823712 L712.210247,146.823712 L707.285843,146.084688 L702.371304,145.098735 L697.941306,143.620796 L693.511307,141.896835 L689.091228,139.678909 L685.155607,137.216007 L681.220041,134.506066 L677.531677,131.303177 L667.692927,141.896835 Z M638.4233,79.8167002 L638.4233,79.8167002 L638.670613,75.8748413 L638.917925,71.686934 L639.412331,67.7450751 L640.153938,63.8032162 L641.132884,60.1063341 L642.121749,56.1644477 L643.347897,52.4695441 L644.821302,48.7746679 L646.541855,45.3267745 L648.262463,41.8788536 L650.230219,38.677943 L652.445232,35.2299946 L654.660218,32.2662017 L657.122433,29.065291 L659.574756,26.3583458 L662.284202,23.4043904 L664.983701,20.9345355 L667.940321,18.4745731 L670.887077,16.0145832 L674.090928,13.7917385 L677.532089,11.5787588 L680.72602,9.84985212 L684.167181,7.88388266 L687.855572,6.40193124 L691.543936,4.92992727 L695.242192,3.69498607 L699.167866,2.70705509 L703.103459,1.71912411 L707.039025,0.988040895 L710.974592,0.494075406 L715.157415,0.247037703 L719.092981,0 L719.092981,0 L723.275778,0.247037703 L727.458546,0.494075406 L731.384248,0.988040895 L735.319814,1.71912411 L739.255435,2.70705509 L743.191001,3.69498607 L746.879365,4.92992727 L750.567728,6.40193124 L754.018782,7.88388266 L757.707145,9.84985212 L760.901104,11.5787588 L764.342265,13.7917385 L767.536223,16.0145832 L770.492871,18.4745731 L773.439572,20.9345355 L776.148991,23.4043904 L778.848544,26.3583458 L781.31076,29.065291 L783.772948,32.2662017 L785.987961,35.2299946 L788.202974,38.677943 L790.160837,41.8788536 L791.891338,45.3267745 L793.611891,48.7746679 L795.085296,52.4695441 L796.311444,56.1644477 L797.300282,60.1063341 L798.2792,63.8032162 L799.020862,67.7450751 L799.515268,71.686934 L799.752688,75.8748413 L800,79.8167002 L800,79.8167002 L799.752688,83.7575973 L799.515268,87.20648 L799.020862,90.9024004 L798.526457,94.5972765 L797.784795,98.0461592 L796.805849,101.495069 L795.826904,104.943952 L794.590836,108.392835 L793.364688,111.595751 L791.891338,114.797651 L790.160837,118.00054 L788.440284,120.956474 L786.719676,123.91337 L784.751921,126.869276 L782.5468,129.82521 L780.331787,132.535123 L769.998411,121.942454 L769.998411,121.942454 L773.19237,117.507564 L776.396221,112.580742 L778.848544,107.653865 L781.063557,102.234039 L782.5468,96.8141857 L783.772948,91.3943873 L784.504718,85.7285405 L784.752031,79.8167002 L784.752031,79.8167002 L784.752031,76.6138111 L784.504718,73.1649284 L784.02015,69.9620118 L783.525745,66.7601119 L782.78411,63.5572227 L781.805165,60.3533168 L780.8163,57.3993889 L779.590152,54.445461 L778.364004,51.4816131 L776.880733,48.5276852 L775.16018,45.82074 L773.439572,43.1137674 L771.719019,40.6439124 L769.751209,37.9369673 L767.783426,35.7240151 L765.568413,33.2541327 L763.116089,31.041153 L760.901104,29.065291 L758.438888,27.0992941 L755.739362,25.1233772 L753.029971,23.4043904 L750.330418,21.9224665 L747.621,20.4504625 L744.664351,18.9685386 L741.717623,17.9806076 L738.523665,16.7555314 L735.567071,16.0145832 L732.373113,15.273635 L729.179154,14.5326867 L725.975303,14.285649 L722.534142,14.0386113 L719.092981,13.7915736 L719.092981,13.7915736 L715.89905,14.0386113 L712.447997,14.285649 L709.254039,14.5326867 L706.06008,15.273635 L702.866122,16.0145832 L699.909501,16.7555314 L696.715542,17.9806076 L693.758949,18.9685386 L690.812193,20.4504625 L688.102775,21.9224665 L685.403222,23.4043904 L682.693803,25.1233772 L679.994305,27.0992941 L677.532089,29.065291 L675.317076,31.041153 L672.854888,33.2541327 L670.649767,35.7240151 L668.681957,37.9369673 L666.714174,40.6439124 L664.983701,43.1137674 L663.26312,45.82074 L661.54254,48.5276852 L660.069189,51.4816131 L658.843041,54.445461 L657.606973,57.3993889 L656.628028,60.3533168 L655.63919,63.5572227 L654.90742,66.7601119 L654.413015,69.9620118 L653.918582,73.1649284 L653.67127,76.6138111 L653.67127,79.8167002 L653.67127,79.8167002 L653.918582,85.7285405 L654.660218,91.3943873 L655.886393,96.8141857 L657.369636,102.234039 L659.574756,107.653865 L662.036945,112.580742 L665.230903,117.507564 L668.434754,121.942454 L658.101379,132.535123 L658.101379,132.535123 L655.886393,129.82521 L653.67138,126.869276 L651.703624,123.91337 L649.983016,120.956474 L648.262463,118.00054 L646.541855,114.797651 L645.068505,111.595751 L643.842329,108.392835 L642.606289,104.943952 L641.627344,101.495069 L640.638478,98.0461592 L639.906736,94.5972765 L639.412331,90.9024004 L638.917925,87.20648 L638.670613,83.7575973 L638.4233,79.8167002 Z M569.57043,105.189945 L569.57043,55.4234995 L582.850534,55.4234995 L582.850534,93.8583068 L605.475203,93.8583068 L605.475203,105.189945 L569.57043,105.189945 Z M522.600566,105.189945 L559.73146,105.189945 L559.73146,93.8583068 L535.139063,93.8583068 L535.139063,85.2365535 L555.301489,85.2365535 L555.301489,74.8898506 L535.139063,74.8898506 L535.139063,66.2671356 L558.505312,66.2671356 L558.505312,55.4234995 L522.600566,55.4234995 L522.600566,105.189945 Z M465.791787,80.3086872 L465.791787,80.3086872 L466.029207,77.3527808 L466.27652,74.6428679 L466.770952,72.1799102 L467.51256,69.7160183 L468.491533,67.2520989 L469.717681,65.0351622 L470.953721,63.0642465 L472.427099,61.3412478 L474.14768,59.6123686 L475.86826,58.1403371 L478.083246,56.9054234 L480.051056,55.917465 L482.513272,54.9394265 L484.965568,54.445461 L487.427783,53.9514955 L490.384432,53.9514955 L490.384432,53.9514955 L494.310105,54.1985332 L496.277916,54.4455709 L498.245699,54.9395364 L499.96628,55.6705921 L501.696753,56.4115404 L503.170131,57.1525161 L504.643481,58.140447 L506.116831,59.3654958 L507.352899,60.6004095 L508.579047,62.0793382 L509.557992,63.5573326 L510.299655,65.2822548 L511.04129,67.0062153 L511.525803,68.977131 L512.020208,70.9480742 L498.740104,70.9480742 L498.740104,70.9480742 L498.245699,69.223152 L497.513956,67.9921678 L496.772321,67.0062153 L495.793348,66.021252 L494.557308,65.5282483 L493.33116,65.0352721 L491.857782,64.7893335 L490.621742,64.7893335 L490.621742,64.7893335 L489.148391,65.0352721 L487.922216,65.0352721 L486.686176,65.5282483 L485.460028,66.021252 L484.481055,66.7602218 L483.492217,67.4991915 L482.018867,69.223152 L480.792692,71.6870439 L479.803854,74.1500016 L479.309421,77.1068972 L479.309421,80.3087971 L479.309421,80.3087971 L479.309421,83.5117138 L480.051056,86.4676202 L480.792692,89.1775331 L482.266069,91.3944973 L483.986622,93.365413 L484.965568,94.1044102 L485.954433,94.8433799 L487.180581,95.3363562 L488.416621,95.5822947 L489.889999,95.8293324 L491.363377,96.0752709 L491.363377,96.0752709 L493.825593,95.8293324 L496.040606,95.3363562 L498.008362,94.5973864 L499.72897,93.6123957 L499.72897,87.2065899 L490.868944,87.2065899 L490.868944,77.3528907 L512.267438,77.3528907 L512.267438,99.7711913 L512.267438,99.7711913 L509.80525,101.495179 L507.105697,102.973119 L504.643481,104.205092 L501.934063,105.190055 L499.234509,105.929025 L496.772321,106.669012 L494.310105,106.91495 L492.104985,106.91495 L492.104985,106.91495 L488.901189,106.91495 L486.201636,106.421974 L483.492217,105.92897 L480.792692,105.19 L478.577706,104.205037 L476.362693,102.973064 L474.394882,101.495124 L472.674329,100.017185 L471.200924,98.0462141 L469.717681,96.0752709 L468.491533,93.8583617 L467.51256,91.641425 L466.770952,88.9315121 L466.27652,86.2215717 L466.029207,83.2656653 L465.791787,80.3086872 Z M431.11319,87.4534627 L437.501079,68.4840448 L443.898888,87.4534627 L431.11319,87.4534627 Z M411.435276,105.189945 L424.96261,105.189945 L427.424826,97.8001657 L447.340049,97.8001657 L450.04944,105.189945 L463.576774,105.189945 L444.640524,55.4234995 L430.371554,55.4234995 L411.435276,105.189945 Z M361.508792,105.189945 L373.809978,105.189945 L373.809978,75.3818651 L391.272878,105.189945 L405.284725,105.189945 L405.284725,55.4234995 L392.993431,55.4234995 L392.993431,84.7435773 L375.036126,55.4234995 L361.508792,55.4234995 L361.508792,105.189945 Z M305.44162,85.2365535 L305.44162,78.8307477 L325.119534,78.8307477 L325.119534,58.6343026 L332.743463,58.6343026 L332.743463,78.8307477 L352.658714,78.8307477 L352.658714,85.2365535 L332.743463,85.2365535 L332.743463,105.189945 L325.119534,105.189945 L325.119534,85.2365535 L305.44162,85.2365535 Z M262.40735,105.189945 L299.538244,105.189945 L299.538244,93.8583068 L274.945819,93.8583068 L274.945819,85.2365535 L295.108245,85.2365535 L295.108245,74.8898506 L274.945819,74.8898506 L274.945819,66.2671356 L298.312096,66.2671356 L298.312096,55.4234995 L262.40735,55.4234995 L262.40735,105.189945 Z M206.824691,105.189945 L219.363188,105.189945 L219.363188,75.3818651 L236.578885,105.189945 L250.600624,105.189945 L250.600624,55.4234995 L238.299438,55.4234995 L238.299438,84.7435773 L220.352025,55.4234995 L206.824691,55.4234995 L206.824691,105.189945 Z M150.75752,105.189945 L164.037624,105.189945 L164.037624,85.9755233 L181.985064,85.9755233 L181.985064,105.189945 L195.017965,105.189945 L195.017965,55.4234995 L181.985064,55.4234995 L181.985064,74.1498916 L164.037624,74.1498916 L164.037624,55.4234995 L150.75752,55.4234995 L150.75752,105.189945 Z M103.777791,105.189945 L140.918604,105.189945 L140.918604,93.8583068 L116.326125,93.8583068 L116.326125,85.2365535 L136.488578,85.2365535 L136.488578,74.8898506 L116.326125,74.8898506 L116.326125,66.2671356 L139.682537,66.2671356 L139.682537,55.4234995 L103.777791,55.4234995 L103.777791,105.189945 Z M49.1859486,84.7435773 L49.1859486,84.7435773 L49.1859486,87.6994837 L49.4310628,90.4093692 L50.1687685,92.8733161 L50.9064192,95.0902527 L51.8903107,97.0611959 L52.8742023,98.7851289 L54.1043346,100.510106 L55.5796636,101.988046 L57.0550475,103.220019 L58.7765897,104.204982 L60.498187,104.943952 L62.4659426,105.682922 L64.4327639,106.421919 L66.6467603,106.668957 L68.6135816,106.914895 L70.8265613,106.914895 L70.8265613,106.914895 L73.0405852,106.914895 L75.0074065,106.668957 L77.2214029,106.421919 L79.1882242,105.682922 L80.9097665,104.943952 L82.8775771,104.204982 L84.5991193,103.220019 L86.0745032,101.988046 L87.5498322,100.510106 L88.7799645,98.7851289 L89.7638561,97.0611959 L90.7467584,95.0902527 L91.4853983,92.8733161 L91.9768907,90.4093692 L92.4683281,87.6994837 L92.4683281,84.7435773 L92.4683281,55.4234995 L79.1882242,55.4234995 L79.1882242,86.714493 L79.1882242,86.714493 L78.9431101,88.6844469 L78.4506834,90.6554176 L77.959246,92.1333571 L76.9753545,93.3653031 L75.7462114,94.351283 L74.5161065,95.0902527 L72.7945093,95.5822397 L70.8267262,95.5822397 L70.8267262,95.5822397 L68.8599323,95.5822397 L67.1383626,95.0902527 L65.6630062,94.351283 L64.6791146,93.3653031 L63.6952231,92.1333571 L62.9575723,90.6554176 L62.711359,88.6844469 L62.4662449,86.714493 L62.4662449,55.4234995 L49.1859486,55.4234995 L49.1859486,84.7435773 Z M0,105.189945 L13.0340005,105.189945 L13.0340005,91.1483939 L17.4610315,85.482547 L29.0195382,105.189945 L44.5127042,105.189945 L26.3141044,75.8748413 L42.2996696,55.4234995 L27.0517826,55.4234995 L13.0340005,73.1649284 L13.0340005,55.4234995 L0,55.4234995 L0,105.189945 Z" id="path1484"></path>
            </g>
        </g>
    </g>
</svg>