<?xml version="1.0" encoding="UTF-8"?>
<svg width="980px" height="680px" viewBox="0 0 980 680" version="1.1" xmlns="http://www.w3.org/2000/svg" xmlns:xlink="http://www.w3.org/1999/xlink">
    <title>DE Kühne + Nagel text heritage alt</title>
    <defs>
        <linearGradient x1="50%" y1="0%" x2="50%" y2="100%" id="linearGradient-1">
            <stop stop-color="#FFFFFF" offset="0%"></stop>
            <stop stop-color="#EDEDED" offset="100%"></stop>
        </linearGradient>
        <rect id="path-2" x="0" y="0" width="900" height="600" rx="80"></rect>
        <filter x="-6.7%" y="-10.0%" width="113.3%" height="120.0%" filterUnits="objectBoundingBox" id="filter-3">
            <feMorphology radius="2.5" operator="dilate" in="SourceAlpha" result="shadowSpreadOuter1"></feMorphology>
            <feOffset dx="0" dy="0" in="shadowSpreadOuter1" result="shadowOffsetOuter1"></feOffset>
            <feGaussianBlur stdDeviation="17.5" in="shadowOffsetOuter1" result="shadowBlurOuter1"></feGaussianBlur>
            <feColorMatrix values="0 0 0 0 0   0 0 0 0 0   0 0 0 0 0  0 0 0 0.5 0" type="matrix" in="shadowBlurOuter1"></feColorMatrix>
        </filter>
    </defs>
    <g id="DE-Kühne-+-Nagel-text-heritage-alt" stroke="none" stroke-width="1" fill="none" fill-rule="evenodd">
        <g transform="translate(40, 40)">
            <g id="Rectangle">
                <use fill="black" fill-opacity="1" filter="url(#filter-3)" xlink:href="#path-2"></use>
                <use fill="url(#linearGradient-1)" fill-rule="evenodd" xlink:href="#path-2"></use>
            </g>
            <g id="Logo" transform="translate(167.7566, 52)">
                <g id="Group" transform="translate(73, 0)">
                    <path d="M40.8936098,204.018505 L41.099229,211.743976 C42.7176562,246.097273 55.0659002,279.967723 76.3556461,307.015823 L80.9068836,312.568485 L54.9675237,341.682078 L48.6280198,334.546745 C-61.1111734,203.83074 26.095402,10.5152103 198.192721,0.196728691 L209.092402,7.55651203e-14 L219.786463,0.196728691 C391.991073,10.595709 479.090357,203.723425 369.35114,334.546745 L363.020575,341.682078 L337.063361,312.568485 L341.623538,307.015823 L345.978022,301.275347 C406.136547,215.830245 375.860556,98.231449 281.79585,52.4866867 L274.454873,49.1246876 L266.738365,46.1560732 C163.893058,8.50337421 53.0093211,77.9252738 41.8860953,186.788212 L41.2959577,195.300525 L40.8936098,204.018505" id="path215" fill="#00B9F2"></path>
                    <path d="M155.800995,182.42474 L188.49117,182.42474 L188.49117,178.266935 L185.52258,176.880993 L182.750718,175.092702 C144.40059,149.063977 161.639799,93.1526947 206.517269,90.3182366 L211.470878,90.3182366 C256.330422,93.1526947 273.668007,149.135488 235.246344,175.092702 L232.465543,176.880993 L229.496953,178.266935 L229.496953,182.42474 L262.187128,182.42474 L262.187128,207.380529 L229.496953,207.380529 L229.496953,370.598894 L235.434109,369.803113 C262.464307,365.690003 288.269535,354.47734 310.131516,338.114387 L314.682754,334.546696 L339.254048,363.266881 L332.512124,368.417195 C258.994992,420.993295 159.011008,420.966454 85.4759989,368.417195 L78.7430375,363.266881 L103.305369,334.546696 L107.865546,338.114387 C129.772246,354.387927 155.48806,365.734722 182.545075,369.803113 L188.49117,370.598894 L188.49117,207.380529 L155.800995,207.380529 L155.800995,182.42474 Z M190.672894,136.671039 L190.869622,138.45039 L191.066327,140.229766 C195.698014,160.670049 224.677476,159.337764 227.127439,138.45039 L227.315205,136.671039 L227.127439,134.686019 C224.775828,113.896998 195.599686,112.591529 191.066327,132.906667 L190.869622,134.686019 L190.672894,136.671039" id="path219" fill="#003D79"></path>
                </g>
                <g id="Group-2" transform="translate(-0, 448)">
                    <polyline id="path243" fill="#003D79" points="138.667356 46.7413713 150.441572 46.7413713 150.441572 27.9685344 165.864751 27.9685344 165.864751 46.7413713 177.638966 46.7413713 177.638966 1.59174535 165.864751 1.59174535 165.864751 18.2054535 150.441572 18.2054535 150.441572 1.59174535 138.667356 1.59174535 138.667356 46.7413713"></polyline>
                    <polyline id="path247" fill="#003D79" points="190.60036 46.7413713 201.627967 46.7413713 201.627967 18.3567945 217.498438 46.7413713 229.494618 46.7413713 229.494618 1.59174535 218.467012 1.59174535 218.467012 29.6063703 202.670529 1.59174535 190.60036 1.59174535 190.60036 46.7413713"></polyline>
                    <polyline id="path251" fill="#003D79" points="242.462734 46.7413713 276.514129 46.7413713 276.514129 37.0556284 254.233587 37.0556284 254.233587 28.0391662 272.791175 28.0391662 272.791175 18.8780782 254.233587 18.8780782 254.233587 10.8301804 275.545556 10.8301804 275.545556 1.59174535 242.462734 1.59174535 242.462734 46.7413713"></polyline>
                    <path d="M475.387721,41.8211483 L475.387721,21.6324574 L456.534175,21.6324574 L456.534175,30.2722617 L464.134783,30.2722617 L464.134783,36.9042965 L463.616871,37.2775922 L462.944255,37.57355 C450.359526,42.194444 444.595173,33.5815548 445.654542,21.4811164 L445.805892,20.2165943 L446.031218,18.874707 C446.83164,9.75062054 457.401867,6.12856811 461.901688,13.0632758 L462.496966,14.179819 L462.944255,15.3737183 L474.863076,15.3737183 L474.715106,14.4051449 L474.493142,13.5105655 C469.068464,-5.94497341 438.820735,-4.02799937 434.552954,16.9375693 L434.330981,18.0574746 L434.105656,19.2480209 C430.64503,44.538535 451.566873,55.266818 472.925929,43.684301 L474.341792,42.6417519 L475.387721,41.8211483" id="path255" fill="#003D79"></path>
                    <polyline id="path259" fill="#003D79" points="487.010593 46.7413713 521.065346 46.7413713 521.065346 37.0556284 498.784805 37.0556284 498.784805 28.0391662 517.339022 28.0391662 517.339022 18.8780782 498.784805 18.8780782 498.784805 10.8301804 520.093411 10.8301804 520.093411 1.59174535 487.010593 1.59174535 487.010593 46.7413713"></polyline>
                    <polyline id="path263" fill="#003D79" points="531.716282 46.7413713 563.830536 46.7413713 563.830536 37.0556284 543.413148 37.0556284 543.413148 1.59174535 531.716282 1.59174535 531.716282 46.7413713"></polyline>
                    <polyline id="path267" fill="#003D79" points="337.836907 46.7413713 348.86451 46.7413713 348.86451 18.3567945 364.73498 46.7413713 376.80515 46.7413713 376.80515 1.59174535 365.703553 1.59174535 365.703553 29.6063703 349.907068 1.59174535 337.836907 1.59174535 337.836907 46.7413713"></polyline>
                    <path d="M401.991411,1.59174535 L412.79705,1.59174535 L430.977981,46.7413713 L417.935866,46.7413713 L414.956161,38.3201687 L397.296523,38.3201687 L394.316809,46.7413713 L382.243286,46.7413713 L400.353584,1.59174535 L401.991411,1.59174535 Z M411.902471,29.6030082 L406.239009,13.5105746 L400.424207,29.6030082 L411.902471,29.6030082" id="path271" fill="#003D79"></path>
                    <polyline id="path275" fill="#00B9F2" points="310.266201 46.7413713 303.412202 46.7413713 303.412202 28.8597607 285.826549 28.8597607 285.826549 22.5270459 303.412202 22.5270459 303.412202 4.6487974 310.266201 4.6487974 310.266201 22.5270459 327.851853 22.5270459 327.851853 28.8597607 310.266201 28.8597607 310.266201 46.7413713"></polyline>
                    <polyline id="path279" fill="#003D79" points="95.5994958 46.2907104 129.576895 46.2907104 129.576895 36.6823327 107.370346 36.6823327 107.370346 27.5918766 125.924568 27.5918766 125.924568 18.5014113 107.370346 18.5014113 107.370346 10.4568756 128.682315 10.4568756 128.682315 1.14444655 95.5994958 1.14444655 95.5994958 46.2907104"></polyline>
                    <polyline id="path283" fill="#003D79" points="25.186261 1.59174535 38.6722943 1.59174535 23.8443919 19.6213348 40.683426 46.7413713 26.4541543 46.7413713 16.3951156 28.6344348 11.9961763 33.9246005 11.9961763 46.7413713 -1.77635684e-14 46.7413713 -1.77635684e-14 1.59174535 11.9961763 1.59174535 11.9961763 19.3220149 25.186261 1.59174535"></polyline>
                    <path d="M84.645886,1.59174535 L72.8750356,1.59174535 L72.8750356,29.0817245 L72.7976704,30.1242919 C72.7169613,34.6443041 70.7461842,37.5365666 66.0176658,37.798885 L64.9751076,37.872879 L63.9325402,37.798885 C59.2107552,37.5903697 57.2433311,34.5904828 57.0751795,30.1242919 L57.0751795,1.59174535 L45.3043291,1.59174535 L45.3043291,28.2611391 C42.3683499,54.7690873 87.4944319,54.735457 84.645886,28.2611391 L84.645886,1.59174535" id="path287" fill="#003D79"></path>
                </g>
            </g>
        </g>
    </g>
</svg>