<?xml version="1.0" encoding="UTF-8"?>
<svg width="980px" height="680px" viewBox="0 0 980 680" version="1.1" xmlns="http://www.w3.org/2000/svg" xmlns:xlink="http://www.w3.org/1999/xlink">
    <title>DE Kühne + Nagel alt</title>
    <defs>
        <rect id="path-1" x="0" y="0" width="900" height="600" rx="80"></rect>
        <filter x="-6.7%" y="-10.0%" width="113.3%" height="120.0%" filterUnits="objectBoundingBox" id="filter-2">
            <feMorphology radius="2.5" operator="dilate" in="SourceAlpha" result="shadowSpreadOuter1"></feMorphology>
            <feOffset dx="0" dy="0" in="shadowSpreadOuter1" result="shadowOffsetOuter1"></feOffset>
            <feGaussianBlur stdDeviation="17.5" in="shadowOffsetOuter1" result="shadowBlurOuter1"></feGaussianBlur>
            <feColorMatrix values="0 0 0 0 0   0 0 0 0 0   0 0 0 0 0  0 0 0 0.5 0" type="matrix" in="shadowBlurOuter1"></feColorMatrix>
        </filter>
    </defs>
    <g id="DE-Kühne-+-Nagel-alt" stroke="none" stroke-width="1" fill="none" fill-rule="evenodd">
        <g transform="translate(40, 40)">
            <g id="Rectangle">
                <use fill="black" fill-opacity="1" filter="url(#filter-2)" xlink:href="#path-1"></use>
                <use fill="#003369" fill-rule="evenodd" xlink:href="#path-1"></use>
            </g>
            <g id="Logo" transform="translate(198.8453, 50.3093)" fill="#FFFFFF" fill-rule="nonzero">
                <path d="M226.618567,171.762438 L227.388442,166.411125 L228.927507,161.798037 L231.205394,157.984506 L233.513992,154.140266 L237.331115,151.064873 L241.948395,148.758329 L246.534966,147.251342 L251.121451,147.251342 L256.477639,147.251342 L261.064124,148.758329 L265.681404,151.064873 L268.72891,154.140266 L271.77633,157.984506 L274.085013,161.798037 L275.624077,166.411125 L276.393952,171.762438 L275.624077,177.14446 L274.085013,181.757548 L271.77633,186.339927 L268.72891,189.41532 L265.681404,192.484553 L261.064124,194.784938 L256.477639,196.316646 L251.121451,197.085665 L246.534966,196.316646 L241.948395,194.784938 L237.331115,192.484553 L233.513992,189.41532 L231.205394,186.339927 L228.927507,181.757548 L227.388442,177.14446 L226.618567,171.762438 Z M91.115254,441.719554 L99.5495721,448.620795 L107.953181,454.756182 L116.387499,460.888661 L125.56064,467.024134 L135.533937,472.393153 L144.707078,476.994608 L154.649752,481.595721 L165.361957,485.430209 L175.33534,488.497561 L186.047546,491.56534 L196.759752,494.632777 L207.471958,496.933333 L218.214959,498.467094 L228.927164,499.233547 L240.408903,500 L251.121108,500 L262.602932,500 L274.08467,499.233547 L284.796876,498.467094 L295.509082,496.933333 L306.252083,494.632777 L316.964289,491.56534 L327.676409,488.497561 L337.619082,485.430209 L348.362083,481.595721 L358.304757,476.994608 L367.477898,472.393153 L377.451281,467.024134 L386.624422,460.888661 L395.058654,454.756182 L403.462177,448.620795 L411.896581,441.719554 L381.268233,408.741892 L369.786495,418.712366 L357.535224,427.148309 L344.514336,434.815234 L331.493533,441.719554 L317.733821,447.086179 L303.9434,451.686949 L288.644709,454.756182 L273.315138,457.056739 L273.315138,281.440993 L316.964289,281.440993 L316.964289,248.46641 L273.315138,248.46641 L273.315138,222.392982 L280.979924,219.323749 L287.875006,214.722893 L294.000727,209.353275 L299.356915,203.220881 L303.173868,197.085494 L306.252083,189.41532 L308.529885,180.9887 L308.529885,172.531286 L308.529885,166.411125 L307.760011,161.029189 L306.251741,154.909114 L304.71259,150.296025 L301.634375,144.944798 L299.356573,140.33171 L295.50874,135.749245 L292.46132,131.905005 L287.874664,128.060765 L283.288179,124.985287 L278.670899,122.709538 L274.084328,120.402993 L268.728225,118.096364 L263.372122,116.558668 L257.246487,115.789648 L251.120766,115.789648 L245.764749,115.789648 L239.639028,116.558668 L234.283011,118.096364 L228.926822,120.402993 L224.340337,122.709538 L219.722972,124.985287 L215.136401,128.060765 L210.549831,131.905005 L207.471616,135.749245 L203.654663,140.33171 L201.346066,144.944798 L198.29856,150.296025 L196.75941,154.909114 L195.220345,161.029189 L194.481265,166.411125 L194.481265,172.531286 L194.481265,180.9887 L196.759068,189.41532 L199.837283,197.085494 L203.654321,203.220881 L209.010424,209.353275 L215.136059,214.722893 L222.031227,219.323749 L229.696012,222.392982 L229.696012,248.46641 L186.046862,248.46641 L186.046862,281.440993 L229.696012,281.440993 L229.696012,457.056739 L214.366527,454.756182 L199.06775,451.686949 L185.277329,447.086179 L171.486908,441.719554 L157.727368,434.815234 L145.475926,427.148309 L133.224656,418.712366 L121.742917,408.741892 L91.115254,441.719554 Z M0,248.46641 L0.769874569,236.19555 L1.53974914,223.158751 L3.07881394,210.887891 L5.38741115,198.617032 L8.43483132,187.108775 L11.513132,174.83783 L15.3300846,163.335733 L19.9167406,151.833721 L25.272758,141.100558 L30.6289465,130.367309 L36.7544962,120.402993 L43.6497495,109.669659 L50.5449172,100.443482 L58.2097029,90.4791665 L65.8436936,82.0525472 L74.2780972,72.8569943 L82.6815347,65.168428 L91.8853852,57.5106568 L101.058526,49.8528 L111.031995,42.9331674 L121.7442,36.0442442 L131.686788,30.6622222 L142.398994,24.5422326 L153.880818,19.9289731 L165.362556,15.3466797 L176.875089,11.5023538 L189.095565,8.42696149 L201.346921,5.35156921 L213.598192,3.07573444 L225.849462,1.5380383 L238.870437,0.769019152 L251.121707,0 L264.142596,0.769019152 L277.163399,1.5380383 L289.38396,3.07573444 L301.635231,5.35156921 L313.886672,8.42696149 L326.137943,11.5023538 L337.619681,15.3466797 L349.10142,19.9289731 L359.84442,24.5422326 L371.326159,30.6622222 L381.268832,36.0442442 L391.981038,42.9331674 L401.923711,49.8528 L411.127647,57.5106568 L420.300617,65.168428 L428.734935,72.8569943 L437.138544,82.0525472 L444.80333,90.4791665 L452.46803,100.443482 L459.363283,109.669659 L466.258536,120.402993 L472.353291,130.367309 L477.740274,141.100558 L483.096292,151.833721 L487.682948,163.335733 L491.4999,174.83783 L494.578116,187.108775 L497.62545,198.617032 L499.934218,210.887891 L501.473283,223.158751 L502.212363,236.19555 L502.982237,248.46641 L502.212363,260.734276 L501.473283,271.470519 L499.934218,282.975781 L498.395154,294.477792 L496.086385,305.214035 L493.038965,315.950364 L489.991545,326.686607 L486.143712,337.42285 L482.326759,347.39341 L477.740274,357.360805 L472.353291,367.331279 L466.997274,376.532991 L461.641085,385.737697 L455.515535,394.939324 L448.651077,404.141036 L441.755824,412.576893 L409.588411,379.60231 L419.531085,365.796663 L429.504553,350.459649 L437.138544,335.122465 L444.033797,318.250749 L448.651077,301.378948 L452.46803,284.507318 L454.746003,266.869748 L455.515878,248.46641 L455.515878,238.495935 L454.746003,227.759692 L453.237562,217.789132 L451.698497,207.821737 L449.389815,197.851263 L446.342394,187.877623 L443.264094,178.682156 L439.447141,169.486689 L435.630189,160.260341 L431.012823,151.064873 L425.656806,142.638254 L420.300617,134.211549 L414.9446,126.522983 L408.818879,118.096364 L402.693244,111.207526 L395.79799,103.518874 L388.164,96.6299511 L381.268832,90.4791665 L373.604046,84.3590914 L365.200523,78.2081358 L356.766291,72.8569943 L348.362682,68.2438203 L339.928364,63.6615269 L330.724428,59.0483529 L321.551373,55.9729606 L311.608699,52.1593442 L302.404934,49.8528 L292.462261,47.5462558 L282.519587,45.2397116 L272.546119,44.4706924 L261.833913,43.7016733 L251.121707,42.9326541 L241.179119,43.7016733 L230.436119,44.4706924 L220.493445,45.2397116 L210.550772,47.5462558 L200.608098,49.8528 L191.404248,52.1593442 L181.461574,55.9729606 L172.257809,59.0483529 L163.084668,63.6615269 L154.65035,68.2438203 L146.246742,72.8569943 L137.812424,78.2081358 L129.408986,84.3590914 L121.7442,90.4791665 L114.848947,96.6299511 L107.184247,103.518874 L100.319789,111.207526 L94.1940679,118.096364 L88.0684326,126.522983 L82.6815347,134.211549 L77.3254318,142.638254 L71.9693289,151.064873 L67.3828439,160.260341 L63.5658913,169.486689 L59.7180582,178.682156 L56.6706381,187.877623 L53.5924229,197.851263 L51.3144496,207.821737 L49.7753848,217.789132 L48.2362345,227.759692 L47.4663599,238.495935 L47.4663599,248.46641 L48.2362345,266.869748 L50.5449172,284.507318 L54.3619553,301.378948 L58.9792353,318.250749 L65.8436936,335.122465 L73.5083937,350.459649 L83.4510671,365.796663 L93.4245355,379.60231 L61.2571231,412.576893 L54.3619553,404.141036 L47.4667021,394.939324 L41.3411523,385.737697 L35.9849638,376.532991 L30.6289465,367.331279 L25.272758,357.360805 L20.686273,347.39341 L16.8692349,337.42285 L13.0214874,326.686607 L9.9740672,315.950364 L6.89576651,305.214035 L4.61787875,294.477792 L3.07881394,282.975781 L1.53974914,271.470519 L0.769874569,260.734276 L0,248.46641 Z" id="path1484"></path>
            </g>
        </g>
    </g>
</svg>