<?xml version="1.0" encoding="UTF-8"?>
<svg width="980px" height="680px" viewBox="0 0 980 680" version="1.1" xmlns="http://www.w3.org/2000/svg" xmlns:xlink="http://www.w3.org/1999/xlink">
    <title>DE Kühne + Nagel heritage alt</title>
    <defs>
        <rect id="path-1" x="0" y="0" width="900" height="600" rx="80"></rect>
        <filter x="-6.7%" y="-10.0%" width="113.3%" height="120.0%" filterUnits="objectBoundingBox" id="filter-2">
            <feMorphology radius="2.5" operator="dilate" in="SourceAlpha" result="shadowSpreadOuter1"></feMorphology>
            <feOffset dx="0" dy="0" in="shadowSpreadOuter1" result="shadowOffsetOuter1"></feOffset>
            <feGaussianBlur stdDeviation="17.5" in="shadowOffsetOuter1" result="shadowBlurOuter1"></feGaussianBlur>
            <feColorMatrix values="0 0 0 0 0   0 0 0 0 0   0 0 0 0 0  0 0 0 0.5 0" type="matrix" in="shadowBlurOuter1"></feColorMatrix>
        </filter>
    </defs>
    <g id="DE-Kühne-+-Nagel-heritage-alt" stroke="none" stroke-width="1" fill="none" fill-rule="evenodd">
        <g transform="translate(40, 40)">
            <g id="Rectangle">
                <use fill="black" fill-opacity="1" filter="url(#filter-2)" xlink:href="#path-1"></use>
                <use fill="#003369" fill-rule="evenodd" xlink:href="#path-1"></use>
            </g>
            <g id="Logo" transform="translate(193.7566, 50)">
                <path d="M50.1344762,250.121252 L50.3865598,259.592474 C52.3707084,301.7087 67.5093266,343.23297 93.6099879,376.393219 L99.1896838,383.200635 L67.3887197,418.893125 L59.6166567,410.145396 C-74.9206706,249.891057 31.9922676,12.8913677 242.978996,0.241184134 L256.341714,9.26408244e-14 L269.452348,0.241184134 C480.570613,12.9900569 587.352015,249.759491 452.814658,410.145396 L445.053554,418.893125 L413.230701,383.200635 L418.821356,376.393219 L424.159838,369.355549 C497.912586,264.602131 460.795028,120.429139 345.474205,64.3472796 L336.474363,60.2255583 L327.01413,56.5861161 C200.928523,10.4249102 64.9880154,95.5343097 51.351237,228.997371 L50.6277439,239.43324 L50.1344762,250.121252" id="path215" fill="#00B9F2"></path>
                <path d="M191.007869,223.647871 L231.085152,223.647871 L231.085152,218.550514 L227.44574,216.851385 L224.047512,214.658988 C177.031277,182.748465 198.166087,114.202722 253.18467,110.727752 L259.257663,110.727752 C314.254268,114.202722 335.509686,182.836136 288.40575,214.658988 L284.996563,216.851385 L281.357151,218.550514 L281.357151,223.647871 L321.434434,223.647871 L321.434434,254.243003 L281.357151,254.243003 L281.357151,454.344371 L288.635946,453.368765 C321.774248,448.326202 353.41077,434.579775 380.212977,414.519231 L385.792672,410.145337 L415.916425,445.355518 L407.651005,451.669666 C317.520961,516.126564 194.94326,516.093657 104.791297,451.669666 L96.5368663,445.355518 L126.649631,410.145337 L132.240285,414.519231 C159.097316,434.470157 190.62422,448.381026 223.795398,453.368765 L231.085152,454.344371 L231.085152,254.243003 L191.007869,254.243003 L191.007869,223.647871 Z M233.759888,167.555052 L234.001072,169.73649 L234.242226,171.917958 C239.920552,196.9772 275.4486,195.343854 278.45219,169.73649 L278.682385,167.555052 L278.45219,165.121471 C275.569177,139.634685 239.800005,138.034215 234.242226,162.940033 L234.001072,165.121471 L233.759888,167.555052" id="path219" fill="#FFFFFF"></path>
            </g>
        </g>
    </g>
</svg>