<?xml version="1.0" encoding="UTF-8"?>
<svg width="980px" height="680px" viewBox="0 0 980 680" version="1.1" xmlns="http://www.w3.org/2000/svg" xmlns:xlink="http://www.w3.org/1999/xlink">
    <title>DE nox</title>
    <defs>
        <rect id="path-1" x="0" y="0" width="900" height="600" rx="80"></rect>
        <filter x="-6.7%" y="-10.0%" width="113.3%" height="120.0%" filterUnits="objectBoundingBox" id="filter-2">
            <feMorphology radius="2.5" operator="dilate" in="SourceAlpha" result="shadowSpreadOuter1"></feMorphology>
            <feOffset dx="0" dy="0" in="shadowSpreadOuter1" result="shadowOffsetOuter1"></feOffset>
            <feGaussianBlur stdDeviation="17.5" in="shadowOffsetOuter1" result="shadowBlurOuter1"></feGaussianBlur>
            <feColorMatrix values="0 0 0 0 0   0 0 0 0 0   0 0 0 0 0  0 0 0 0.5 0" type="matrix" in="shadowBlurOuter1"></feColorMatrix>
        </filter>
    </defs>
    <g id="DE-nox" stroke="none" stroke-width="1" fill="none" fill-rule="evenodd">
        <g transform="translate(40, 40)">
            <g id="Rectangle">
                <use fill="black" fill-opacity="1" filter="url(#filter-2)" xlink:href="#path-1"></use>
                <use fill="#191919" fill-rule="evenodd" xlink:href="#path-1"></use>
            </g>
            <g id="Logo" transform="translate(49.87, 155.7899)">
                <path d="M516.54171,47.430863 L516.54171,47.430863 C564.533218,100.380573 566.50492,180.492483 521.176321,235.738974 C475.847721,290.985464 396.893747,304.699536 335.590012,267.974766 L332.836544,266.287156 C331.340227,265.335939 330.876867,263.364196 331.792891,261.846079 L332.059356,261.468587 L374.937958,210.396197 C375.895854,209.256668 377.503387,208.909587 378.846106,209.552393 L378.846106,209.552393 C408.048845,223.327367 442.84912,216.007869 464.028499,191.636086 C485.207878,167.264303 487.601787,131.783274 469.888192,104.787377 L468.511458,102.744482 C467.645265,101.532743 467.709215,99.8883225 468.666896,98.7475121 L511.545498,47.6751223 C512.706319,46.2868162 514.771075,46.0982086 516.164218,47.2532199 L516.54171,47.430863 Z" id="Path" fill="#F6F800" fill-rule="nonzero"></path>
                <path d="M409.622772,0 C435.399947,-0.0379106462 460.711848,6.86533493 482.900549,19.9850048 L485.631811,21.6504088 C487.128129,22.6016261 487.591489,24.5733687 486.675465,26.0914862 C486.607163,26.2306151 486.517224,26.3580289 486.409,26.4689778 L443.463782,77.5413676 C442.5122,78.6720688 440.926155,79.0345932 439.577839,78.4295831 L439.577839,78.4295831 C410.5086,65.1236641 376.148452,72.5490093 355.1675,96.6709453 C334.186548,120.792881 331.59549,155.850576 348.802217,182.794902 L350.223362,185.01544 C351.056383,186.231948 350.98394,187.852859 350.045719,188.990204 L307.100501,240.284648 C306.543144,240.9534 305.741741,241.371805 304.874422,241.446861 C304.007103,241.521917 303.145736,241.247407 302.48178,240.684345 L302.1487,240.37347 L302.1487,240.37347 C264.243769,197.988596 254.785541,137.285976 277.998493,85.3781716 C301.211444,33.4703675 352.760999,0.050170436 409.622772,0.0445673637 L409.622772,0 Z" id="Path" fill="#FDFDFD" fill-rule="nonzero"></path>
                <path d="M609.426843,9.83713096 C613.602347,9.83148909 617.529589,11.8198616 619.996608,15.1886412 L675.021556,90.3760813 L730.135327,15.1886412 C731.959009,12.6791277 734.621879,10.9065072 737.640747,10.1924292 L740.705091,9.83713096 L786.87009,9.83713096 C791.808724,9.83713096 796.329085,12.6096875 798.56207,17.0146718 C800.795054,21.4196562 800.361183,26.7060484 797.439854,30.6880013 L797.439854,30.6880013 L714.413913,144.201939 L797.46206,257.693672 C800.383388,261.675624 800.81726,266.962017 798.584275,271.367001 C796.35129,275.771985 791.830929,278.544531 786.892296,278.544531 L740.705091,278.544531 C736.526475,278.541406 732.600001,276.545173 730.135327,273.170826 L675.021556,197.938975 L619.996608,273.170826 C618.16708,275.678664 615.507791,277.456769 612.491187,278.189244 L609.426843,278.544531 L563.261844,278.544531 C558.330592,278.530537 553.823418,275.753305 551.593762,271.354887 C549.364106,266.956469 549.788367,261.679383 552.69208,257.693672 L552.69208,257.693672 L635.718022,144.201939 L552.69208,30.6880013 C549.788367,26.7022898 549.364106,21.4252039 551.593762,17.0267859 C553.823418,12.6283679 558.330592,9.85113603 563.261844,9.83713096 L609.426843,9.83713096 Z" id="Combined-Shape" fill="#FDFDFD"></path>
                <path d="M78.6514804,256.339143 C78.6392314,263.578314 72.7672785,269.440321 65.5280967,269.440321 L13.1011783,269.440321 C5.86559731,269.440321 0,263.574724 0,256.339143 L0,0.732934358 L137.673399,0.732934358 C188.346993,0.732934358 229.426057,41.8119989 229.426057,92.485593 L229.426057,256.339143 C229.426057,263.574724 223.56046,269.440321 216.324879,269.440321 L157.302961,269.440321 L157.302961,105.631182 C157.296542,86.3768469 143.349993,69.958638 124.350167,66.8383712 L117.977221,66.3054419 L78.629275,66.3054419 L78.6514804,256.339143 Z" id="Path" fill="#FDFDFD"></path>
            </g>
        </g>
    </g>
</svg>