<?xml version="1.0" encoding="UTF-8"?>
<svg width="980px" height="680px" viewBox="0 0 980 680" version="1.1" xmlns="http://www.w3.org/2000/svg" xmlns:xlink="http://www.w3.org/1999/xlink">
    <title>DE nox text</title>
    <defs>
        <rect id="path-1" x="0" y="0" width="900" height="600" rx="80"></rect>
        <filter x="-6.7%" y="-10.0%" width="113.3%" height="120.0%" filterUnits="objectBoundingBox" id="filter-2">
            <feMorphology radius="2.5" operator="dilate" in="SourceAlpha" result="shadowSpreadOuter1"></feMorphology>
            <feOffset dx="0" dy="0" in="shadowSpreadOuter1" result="shadowOffsetOuter1"></feOffset>
            <feGaussianBlur stdDeviation="17.5" in="shadowOffsetOuter1" result="shadowBlurOuter1"></feGaussianBlur>
            <feColorMatrix values="0 0 0 0 0   0 0 0 0 0   0 0 0 0 0  0 0 0 0.5 0" type="matrix" in="shadowBlurOuter1"></feColorMatrix>
        </filter>
    </defs>
    <g id="DE-nox-text" stroke="none" stroke-width="1" fill="none" fill-rule="evenodd">
        <g transform="translate(40, 40)">
            <g id="Rectangle">
                <use fill="black" fill-opacity="1" filter="url(#filter-2)" xlink:href="#path-1"></use>
                <use fill="#191919" fill-rule="evenodd" xlink:href="#path-1"></use>
            </g>
            <g id="Logo" transform="translate(49.87, 92.7899)">
                <path d="M516.54171,47.430863 L516.54171,47.430863 C564.533218,100.380573 566.50492,180.492483 521.176321,235.738974 C475.847721,290.985464 396.893747,304.699536 335.590012,267.974766 L332.836544,266.287156 C331.340227,265.335939 330.876867,263.364196 331.792891,261.846079 L332.059356,261.468587 L374.937958,210.396197 C375.895854,209.256668 377.503387,208.909587 378.846106,209.552393 L378.846106,209.552393 C408.048845,223.327367 442.84912,216.007869 464.028499,191.636086 C485.207878,167.264303 487.601787,131.783274 469.888192,104.787377 L468.511458,102.744482 C467.645265,101.532743 467.709215,99.8883225 468.666896,98.7475121 L511.545498,47.6751223 C512.706319,46.2868162 514.771075,46.0982086 516.164218,47.2532199 L516.54171,47.430863 Z" id="Path" fill="#F6F800" fill-rule="nonzero"></path>
                <path d="M409.622772,0 C435.399947,-0.0379106462 460.711848,6.86533493 482.900549,19.9850048 L485.631811,21.6504088 C487.128129,22.6016261 487.591489,24.5733687 486.675465,26.0914862 C486.607163,26.2306151 486.517224,26.3580289 486.409,26.4689778 L443.463782,77.5413676 C442.5122,78.6720688 440.926155,79.0345932 439.577839,78.4295831 L439.577839,78.4295831 C410.5086,65.1236641 376.148452,72.5490093 355.1675,96.6709453 C334.186548,120.792881 331.59549,155.850576 348.802217,182.794902 L350.223362,185.01544 C351.056383,186.231948 350.98394,187.852859 350.045719,188.990204 L307.100501,240.284648 C306.543144,240.9534 305.741741,241.371805 304.874422,241.446861 C304.007103,241.521917 303.145736,241.247407 302.48178,240.684345 L302.1487,240.37347 L302.1487,240.37347 C264.243769,197.988596 254.785541,137.285976 277.998493,85.3781716 C301.211444,33.4703675 352.760999,0.050170436 409.622772,0.0445673637 L409.622772,0 Z" id="Path" fill="#FDFDFD" fill-rule="nonzero"></path>
                <path d="M609.426843,9.83713096 C613.602347,9.83148909 617.529589,11.8198616 619.996608,15.1886412 L675.021556,90.3760813 L730.135327,15.1886412 C731.959009,12.6791277 734.621879,10.9065072 737.640747,10.1924292 L740.705091,9.83713096 L786.87009,9.83713096 C791.808724,9.83713096 796.329085,12.6096875 798.56207,17.0146718 C800.795054,21.4196562 800.361183,26.7060484 797.439854,30.6880013 L797.439854,30.6880013 L714.413913,144.201939 L797.46206,257.693672 C800.383388,261.675624 800.81726,266.962017 798.584275,271.367001 C796.35129,275.771985 791.830929,278.544531 786.892296,278.544531 L740.705091,278.544531 C736.526475,278.541406 732.600001,276.545173 730.135327,273.170826 L675.021556,197.938975 L619.996608,273.170826 C618.16708,275.678664 615.507791,277.456769 612.491187,278.189244 L609.426843,278.544531 L563.261844,278.544531 C558.330592,278.530537 553.823418,275.753305 551.593762,271.354887 C549.364106,266.956469 549.788367,261.679383 552.69208,257.693672 L552.69208,257.693672 L635.718022,144.201939 L552.69208,30.6880013 C549.788367,26.7022898 549.364106,21.4252039 551.593762,17.0267859 C553.823418,12.6283679 558.330592,9.85113603 563.261844,9.83713096 L609.426843,9.83713096 Z" id="Combined-Shape" fill="#FDFDFD"></path>
                <path d="M78.6514804,256.339143 C78.6392314,263.578314 72.7672785,269.440321 65.5280967,269.440321 L13.1011783,269.440321 C5.86559731,269.440321 0,263.574724 0,256.339143 L0,0.732934358 L137.673399,0.732934358 C188.346993,0.732934358 229.426057,41.8119989 229.426057,92.485593 L229.426057,256.339143 C229.426057,263.574724 223.56046,269.440321 216.324879,269.440321 L157.302961,269.440321 L157.302961,105.631182 C157.296542,86.3768469 143.349993,69.958638 124.350167,66.8383712 L117.977221,66.3054419 L78.629275,66.3054419 L78.6514804,256.339143 Z" id="Path" fill="#FDFDFD"></path>
                <path d="M153.083937,412.931531 L153.083937,381.333266 L153.26158,381.333266 L172.824526,412.931531 L180.774055,412.931531 L180.774055,369.964108 L173.601715,369.964108 L173.601715,401.606784 L173.490688,401.606784 L153.861126,369.964108 L145.911597,369.964108 L145.911597,412.931531 L153.083937,412.931531 Z M195.873718,412.931531 L199.915098,401.562373 L217.057657,401.562373 L221.099037,412.931531 L229.159593,412.931531 L212.61658,369.964108 L204.57823,369.964108 L188.101832,412.931531 L195.873718,412.931531 Z M215.081378,395.833383 L201.957994,395.833383 L208.464172,377.358502 L208.641815,377.358502 L215.081378,395.833383 Z M255.051074,413.952979 C257.499877,413.98218 259.93252,413.55289 262.223414,412.687272 C264.320432,411.878389 266.237131,410.663473 267.863582,409.112205 C269.491577,407.549954 270.790221,405.677491 271.682909,403.605269 C272.661586,401.379733 273.225964,398.994298 273.348313,396.566161 L265.99833,396.566161 C265.862116,398.086198 265.518442,399.580431 264.976882,401.007239 C264.465173,402.326501 263.712144,403.538877 262.756343,404.582306 C261.827915,405.598243 260.702126,406.414251 259.447741,406.980488 C258.050025,407.597379 256.534128,407.900558 255.006663,407.868703 C252.942701,407.922553 250.900014,407.440571 249.077825,406.469764 C247.44784,405.583951 246.054278,404.319845 245.014239,402.78367 C243.970941,401.165325 243.219389,399.376632 242.7937,397.498787 C242.284807,395.533618 242.031059,393.511104 242.038717,391.481128 C242.033743,389.451315 242.287447,387.429141 242.7937,385.463468 C243.224001,383.594038 243.975317,381.813418 245.014239,380.200791 C246.054278,378.664615 247.44784,377.40051 249.077825,376.514697 C250.900014,375.54389 252.942701,375.061908 255.006663,375.115757 C256.410022,375.093657 257.806844,375.311441 259.136865,375.759714 C261.383493,376.532064 263.260458,378.116001 264.399542,380.200791 C264.972372,381.286235 265.419376,382.433545 265.731865,383.620421 L273.237286,383.620421 C273.04241,381.450137 272.407774,379.342238 271.372033,377.425118 C270.38682,375.642516 269.049648,374.078704 267.44168,372.828603 C265.757044,371.52471 263.84441,370.545803 261.801512,369.941902 C259.600908,369.263663 257.30936,368.926671 255.006663,368.94266 C252.029675,368.894915 249.079273,369.509266 246.368768,370.741296 C243.886674,371.882843 241.681983,373.54962 239.907,375.626481 C238.098389,377.721518 236.717849,380.150665 235.843414,382.776616 C233.94784,388.417225 233.94784,394.522825 235.843414,400.163434 C236.717849,402.796071 238.098237,405.232494 239.907,407.335774 C241.683641,409.399673 243.888726,411.051592 246.368768,412.176548 C249.077583,413.387337 252.017634,413.993533 254.984458,413.952979 L255.051074,413.952979 Z M290.97939,412.931531 L290.97939,393.501818 L310.542336,393.501818 L310.542336,412.887121 L318.069962,412.887121 L318.069962,369.964108 L310.542336,369.964108 L310.542336,387.062256 L290.97939,387.062256 L290.97939,369.964108 L283.407353,369.964108 L283.407353,412.931531 L290.97939,412.931531 Z M347.580921,412.931531 L347.580921,376.470286 L361.237234,376.470286 L361.237234,369.964108 L326.374777,369.964108 L326.374777,376.470286 L340.03109,376.470286 L340.03109,412.931531 L347.580921,412.931531 Z M401.029287,412.931531 L401.029287,406.425353 L377.114086,406.425353 L377.114086,393.857104 L398.786543,393.857104 L398.786543,387.706212 L377.114086,387.706212 L377.114086,376.470286 L400.540769,376.470286 L400.540769,369.964108 L369.608665,369.964108 L369.608665,412.931531 L401.029287,412.931531 Z M414.863243,412.931531 L425.766088,396.499545 L436.469085,412.931531 L445.617704,412.931531 L430.407014,390.726144 L444.596256,370.030724 L436.180415,370.030724 L426.010348,385.197003 L416.262183,370.030724 L407.380028,370.030724 L421.591476,390.726144 L406.35858,412.931531 L414.863243,412.931531 Z M460.983832,412.931531 L460.983832,396.432929 L472.419606,396.432929 C474.969071,396.526543 477.510073,396.087917 479.880616,395.145016 C481.608223,394.430574 483.133438,393.301914 484.321694,391.858619 C485.367195,390.610196 486.125287,389.147079 486.542232,387.57298 C487.282516,384.741264 487.282516,381.7668 486.542232,378.935084 C486.131356,377.345289 485.372963,375.866422 484.321694,374.605034 C483.134772,373.15496 481.609695,372.018777 479.880616,371.296431 C477.516855,370.326118 474.973107,369.871877 472.419606,369.964108 L453.456206,369.964108 L453.456206,412.931531 L460.983832,412.931531 Z M472.086525,390.304242 L460.983832,390.304242 L460.983832,376.092779 L472.086525,376.092779 C473.042518,376.091336 473.99574,376.195595 474.928815,376.40367 C475.740257,376.609681 476.49768,376.988392 477.149354,377.513939 C477.873363,378.105821 478.438169,378.869073 478.792552,379.734478 C479.224126,380.844607 479.428018,382.030198 479.392098,383.220724 C479.432488,384.393913 479.188709,385.559484 478.681525,386.618148 C478.276716,387.496849 477.658375,388.260233 476.882889,388.838687 C476.146381,389.375165 475.318842,389.773888 474.440296,390.015572 C473.602078,390.251728 472.735321,390.37128 471.864472,390.370859 L472.086525,390.304242 Z M504.661828,412.931531 L504.661828,395.167222 L515.764522,395.167222 C517.207708,395.118452 518.647009,395.34452 520.00575,395.833383 C521.073266,396.242731 521.988355,396.971701 522.625986,397.92069 C523.321641,398.986644 523.776324,400.191554 523.958309,401.451346 C524.216539,403.133685 524.335371,404.834478 524.313595,406.53638 C524.313595,407.580033 524.313595,408.756919 524.469033,409.800572 C524.546259,410.888414 524.889383,411.94066 525.468276,412.864915 L533.528831,412.864915 C532.54954,411.570421 531.936013,410.036603 531.7524,408.423838 C531.353129,406.143866 531.159903,403.832581 531.17506,401.517962 C531.217963,400.093243 531.007443,398.672229 530.553309,397.321144 C530.200437,396.309952 529.657798,395.375408 528.954521,394.567676 C528.370504,393.919969 527.660178,393.39856 526.867215,393.035505 C526.208175,392.745805 525.51383,392.544221 524.802114,392.435959 L524.802114,392.435959 L524.802114,392.324932 C525.1574,392.1917 525.73474,391.969646 526.511929,391.592155 C527.405674,391.149939 528.210934,390.547876 528.887905,389.815724 C529.817946,388.878152 530.570292,387.779726 531.108444,386.573737 C531.761374,384.960233 532.071419,383.228518 532.018865,381.488704 C532.18556,378.248844 530.879877,375.107045 528.466003,372.93963 C525.392566,370.679169 521.612099,369.592285 517.807417,369.875286 L497.28964,369.875286 L497.28964,412.84271 L504.661828,412.931531 Z M516.985818,389.527054 L504.661828,389.527054 L504.661828,376.203821 L516.874791,376.203821 C517.812645,376.205998 518.748626,376.287711 519.67267,376.448081 C520.534696,376.591642 521.353925,376.925402 522.070851,377.425118 C522.805158,377.918886 523.382998,378.612293 523.736255,379.423603 C524.173997,380.485418 524.37846,381.628901 524.335801,382.776616 C524.475184,384.674357 523.796362,386.541118 522.470548,387.90606 C520.931074,389.16356 518.968284,389.783389 516.985818,389.638081 L516.985818,389.527054 Z M574.297921,412.931531 L574.297921,406.425353 L550.293898,406.425353 L550.293898,393.857104 L571.966356,393.857104 L571.966356,387.706212 L550.293898,387.706212 L550.293898,376.470286 L573.720581,376.470286 L573.720581,369.964108 L542.788477,369.964108 L542.788477,412.931531 L574.297921,412.931531 Z M599.634268,413.952979 C601.744647,413.959236 603.847771,413.705668 605.896187,413.197996 C607.852299,412.741863 609.710222,411.937013 611.380917,410.82202 C612.974076,409.747698 614.296586,408.318779 615.244655,406.647407 C616.283222,404.759597 616.796958,402.627977 616.732416,400.474309 C616.725859,399.330492 616.553835,398.193641 616.221692,397.099091 C615.86745,395.970778 615.335214,394.906307 614.645109,393.945926 C613.922107,392.934047 613.036752,392.048692 612.024874,391.32569 C610.907533,390.534218 609.670545,389.926969 608.360985,389.527054 C607.80585,389.34941 606.873224,389.105151 605.563106,388.77207 L601.566136,387.706212 L597.613578,386.840202 L595.72612,386.329478 C594.35972,385.962924 593.092663,385.295253 592.01782,384.375404 C591.048181,383.436915 590.530259,382.125926 590.596675,380.778131 C590.571999,379.81996 590.834966,378.876372 591.351659,378.069074 C591.848552,377.360126 592.501979,376.775081 593.261322,376.359259 C594.048585,375.93445 594.894028,375.627696 595.77053,375.448838 C596.663215,375.275393 597.570217,375.18618 598.479588,375.182374 C600.752874,375.086232 603.000813,375.69085 604.91915,376.914394 C606.744879,378.305312 607.800118,380.481743 607.761439,382.776616 L615.377887,382.776616 C615.420924,380.721557 614.963685,378.686846 614.045564,376.847778 C613.182325,375.168272 611.962111,373.697952 610.470497,372.539933 C608.900805,371.349858 607.1239,370.461405 605.230025,369.919697 C603.16462,369.332619 601.026469,369.041053 598.879285,369.053293 C596.951811,369.048873 595.032412,369.302801 593.1725,369.80867 C591.365763,370.24038 589.651038,370.992452 588.109672,372.029209 C586.630892,373.055418 585.407724,374.407741 584.534605,375.981768 C583.595109,377.702026 583.127768,379.640341 583.180076,381.59973 C583.171648,382.718004 583.321159,383.831866 583.624184,384.908333 C583.934856,386.018128 584.454923,387.058262 585.156356,387.972676 C585.958497,389.015795 586.944284,389.903756 588.065261,390.592912 C589.501071,391.456068 591.057848,392.099736 592.683982,392.502575 C595.659504,393.301969 598.146507,393.945926 600.167197,394.456649 C601.971935,394.881268 603.751208,395.407636 605.49649,396.033232 C606.425146,396.398416 607.259896,396.967564 607.939083,397.698636 C608.758575,398.727295 609.155568,400.029432 609.049352,401.340319 C609.050101,402.157324 608.88386,402.965862 608.560833,403.716296 C608.220815,404.522243 607.686854,405.231648 607.006456,405.781397 C606.166638,406.46025 605.200594,406.965914 604.164167,407.269158 C602.804009,407.679809 601.387867,407.874622 599.967349,407.846498 C598.53772,407.85588 597.112652,407.684275 595.72612,407.335774 C594.476199,407.016773 593.299869,406.458771 592.262079,405.692575 C591.254451,404.954439 590.445701,403.977836 589.908308,402.850286 C589.317745,401.52389 589.02952,400.082768 589.064504,398.631262 L581.536648,398.631262 C581.524159,401.009332 582.039905,403.360529 583.046844,405.514932 C583.948685,407.389628 585.270886,409.030982 586.910581,410.311296 C588.592089,411.589768 590.508457,412.525318 592.550749,413.064764 C594.807463,413.682097 597.139371,413.98106 599.47883,413.952979 L599.634268,413.952979 Z M642.068762,413.953092 C644.179141,413.959236 646.282265,413.705668 648.330681,413.197996 C650.286793,412.741863 652.144717,411.937013 653.815412,410.82202 C655.409931,409.742459 656.738621,408.315066 657.701355,406.647407 C658.722209,404.753621 659.227597,402.624864 659.16691,400.474309 C659.160353,399.330492 658.98833,398.193641 658.656186,397.099091 C658.312063,395.966717 657.779029,394.900648 657.079604,393.945926 C656.365808,392.933714 655.487674,392.048074 654.481573,391.32569 C653.35626,390.534077 652.111949,389.926913 650.795479,389.527054 C650.240345,389.34941 649.307718,389.105151 647.9976,388.77207 L644.000631,387.706212 L640.292331,386.729175 L638.404873,386.218451 C637.038474,385.851897 635.771416,385.184226 634.696574,384.264377 C633.732607,383.323605 633.222523,382.011962 633.297634,380.667104 C633.266338,379.711223 633.521523,378.767812 634.030412,377.958047 C634.527306,377.249099 635.180733,376.664054 635.940075,376.248232 C636.733599,375.819864 637.586901,375.512975 638.47149,375.337811 C639.363862,375.162239 640.271068,375.073006 641.180547,375.071347 C643.453833,374.975205 645.701772,375.579823 647.620109,376.803367 C649.431845,378.203505 650.477031,380.376175 650.440193,382.665589 L657.967819,382.665589 C658.064883,378.664558 656.240484,374.85891 653.060429,372.428906 C651.490737,371.238831 649.713832,370.350378 647.819957,369.80867 C645.75486,369.22012 643.616498,368.928525 641.469217,368.94266 C639.541847,368.939444 637.62266,369.193344 635.762432,369.697643 C633.955695,370.129353 632.24097,370.881425 630.699604,371.918182 C629.220824,372.944391 627.997656,374.296714 627.124537,375.870741 C626.185041,377.590999 625.7177,379.529314 625.770008,381.488704 C625.77261,382.606254 625.921922,383.718627 626.214116,384.797306 C626.534067,385.903497 627.053305,386.941974 627.746288,387.86165 C628.556838,388.905123 629.549952,389.792907 630.677399,390.481885 C632.10324,391.349079 633.653336,391.993081 635.273914,392.391548 C638.249436,393.190942 640.736439,393.834899 642.757129,394.345623 C644.562693,394.767122 646.342144,395.293543 648.086422,395.922205 C649.018,396.281843 649.853923,396.851791 650.529015,397.587609 C651.348507,398.616268 651.7455,399.918405 651.639284,401.229292 C651.640033,402.046297 651.473792,402.854835 651.150765,403.605269 C650.819156,404.416025 650.283734,405.127372 649.596388,405.67037 C648.7619,406.344728 647.804031,406.850061 646.776304,407.158131 C645.408188,407.56717 643.98499,407.761923 642.557281,407.735471 C641.127733,407.743435 639.702843,407.571851 638.316052,407.224747 C637.066131,406.905746 635.889801,406.347744 634.852011,405.581548 C633.849995,404.837476 633.042512,403.862401 632.49824,402.739259 C631.907677,401.412863 631.619453,399.971741 631.654436,398.520235 L624.149015,398.520235 C624.118004,400.897775 624.626686,403.251378 625.636776,405.403905 C626.545953,407.273958 627.866917,408.913776 629.500513,410.200269 C631.187417,411.483343 633.111983,412.41921 635.162887,412.953737 C637.392036,413.606154 639.701714,413.942514 642.024351,413.953092 L642.068762,413.953092 Z" id="NACHTEXPRESS" fill="#FFFFFF" fill-rule="nonzero"></path>
            </g>
        </g>
    </g>
</svg>