<?xml version="1.0" encoding="UTF-8"?>
<svg width="980px" height="680px" viewBox="0 0 980 680" version="1.1" xmlns="http://www.w3.org/2000/svg" xmlns:xlink="http://www.w3.org/1999/xlink">
    <title>DE Night Star Express text</title>
    <defs>
        <linearGradient x1="50%" y1="0%" x2="50%" y2="100%" id="linearGradient-1">
            <stop stop-color="#FFFFFF" offset="0%"></stop>
            <stop stop-color="#EDEDED" offset="100%"></stop>
        </linearGradient>
        <rect id="path-2" x="0" y="0" width="900" height="600" rx="80"></rect>
        <filter x="-6.7%" y="-10.0%" width="113.3%" height="120.0%" filterUnits="objectBoundingBox" id="filter-3">
            <feMorphology radius="2.5" operator="dilate" in="SourceAlpha" result="shadowSpreadOuter1"></feMorphology>
            <feOffset dx="0" dy="0" in="shadowSpreadOuter1" result="shadowOffsetOuter1"></feOffset>
            <feGaussianBlur stdDeviation="17.5" in="shadowOffsetOuter1" result="shadowBlurOuter1"></feGaussianBlur>
            <feColorMatrix values="0 0 0 0 0   0 0 0 0 0   0 0 0 0 0  0 0 0 0.5 0" type="matrix" in="shadowBlurOuter1"></feColorMatrix>
        </filter>
    </defs>
    <g id="DE-Night-Star-Express-text" stroke="none" stroke-width="1" fill="none" fill-rule="evenodd">
        <g transform="translate(40, 40)">
            <g id="Rectangle">
                <use fill="black" fill-opacity="1" filter="url(#filter-3)" xlink:href="#path-2"></use>
                <use fill="url(#linearGradient-1)" fill-rule="evenodd" xlink:href="#path-2"></use>
            </g>
            <g id="Logo" transform="translate(50, 55)" fill-rule="nonzero">
                <polygon id="Path" fill="#004170" points="0.458627938 0 799.541372 0 799.541372 371.947258 0.458627938 371.947258"></polygon>
                <polygon id="Path" fill="#FFCB00" points="383.107204 169.998089 400.229314 21.4026371 418.421556 170.915345 568.851519 187.120199 418.421556 202.102045 399.770686 353.449264 382.648576 201.643417 234.511752 187.578827"></polygon>
                <g id="Group" transform="translate(0, 399.1592)" fill="#004170">
                    <path d="M0,1.52875979 L9.78406268,1.52875979 L46.4742977,57.9399962 L46.6271737,57.9399962 L46.6271737,1.52875979 L55.3411045,1.52875979 L55.3411045,71.0873304 L45.2512899,71.0873304 L8.8668068,15.2875979 L8.71393082,15.2875979 L8.71393082,71.0873304 L0,71.0873304 C0,71.0873304 0,1.52875979 0,1.52875979 Z" id="Path"></path>
                    <path d="M77.6609975,11.7714504 L69.4056946,11.7714504 L69.4056946,1.68163577 L77.6609975,1.68163577 L77.6609975,11.7714504 Z M69.4056946,20.7911332 L77.6609975,20.7911332 L77.6609975,71.2402064 L69.4056946,71.2402064 L69.4056946,20.7911332 Z" id="Shape"></path>
                    <path d="M133.766482,66.959679 C133.766482,83.3174088 126.275559,91.7255876 110.376457,91.7255876 C100.898146,91.7255876 90.0439518,87.9036881 89.5853239,76.8966176 L97.8406268,76.8966176 C98.2992547,83.0116568 105.484426,85.1519205 110.835085,85.1519205 C121.68928,85.1519205 125.969807,77.3552456 125.969807,66.0424231 L125.969807,62.6791515 L125.816931,62.6791515 C123.065163,68.7941907 116.491496,71.8517103 110.070705,71.8517103 C95.0888592,71.8517103 87.5979362,60.0802599 87.5979362,46.3214217 C87.5979362,34.3970954 93.4072234,19.7210013 110.835085,19.7210013 C117.103,19.7210013 122.759411,22.472769 125.816931,28.1291802 L125.664055,28.1291802 L125.816931,28.1291802 L125.816931,20.9440092 L133.613606,20.9440092 L133.766482,66.959679 L133.766482,66.959679 Z M125.664055,44.9455379 C125.664055,36.0787311 121.68928,26.9061724 111.293713,26.9061724 C100.592394,26.9061724 96.311867,35.6201032 96.311867,45.2512899 C96.311867,54.2709727 99.6751385,64.5136633 110.529333,64.5136633 C121.536404,64.5136633 125.664055,54.4238487 125.664055,44.9455379 Z" id="Shape"></path>
                    <path d="M146.149436,1.52875979 L154.404739,1.52875979 L154.404739,28.1291802 L154.557615,28.1291802 C157.309383,22.014141 164.341678,19.5681254 170.456717,19.5681254 C183.756927,19.5681254 187.884579,27.2119243 187.884579,38.0661189 L187.884579,71.2402064 L179.4764,71.2402064 L179.4764,37.148863 C179.4764,31.0338238 175.501624,27.0590483 169.233709,27.0590483 C159.143895,27.0590483 154.251863,33.7855914 154.251863,42.8052742 L154.251863,71.2402064 L145.99656,71.2402064 L146.149436,1.52875979 L146.149436,1.52875979 Z" id="Path"></path>
                    <path d="M211.580355,20.7911332 L221.67017,20.7911332 L221.67017,28.1291802 L211.580355,28.1291802 L211.580355,59.468756 C211.580355,63.2906555 212.650487,63.9021594 217.848271,63.9021594 L221.67017,63.9021594 L221.67017,71.2402064 L215.402255,71.2402064 C206.8412,71.2402064 203.477929,69.5585706 203.477929,60.2331359 L203.477929,28.1291802 L194.763998,28.1291802 L194.763998,20.7911332 L203.325053,20.7911332 L203.325053,5.65641124 L211.580355,5.65641124 L211.580355,20.7911332 Z" id="Path"></path>
                    <path d="M299.178292,22.014141 C298.10816,12.0772024 291.534493,7.79667495 281.903306,7.79667495 C274.106631,7.79667495 266.309956,10.5484426 266.309956,19.7210013 C266.309956,28.2820562 277.469903,29.505064 288.629849,32.1039557 C299.789796,34.7028473 310.796866,38.5247468 310.796866,52.130709 C310.796866,66.959679 296.273648,72.9218422 283.584942,72.9218422 C267.991592,72.9218422 254.844258,65.2780432 254.844258,48.3088095 L263.558188,48.3088095 C263.558188,60.0802599 273.342251,65.1251672 283.890694,65.1251672 C292.298873,65.1251672 301.471431,62.5262756 301.471431,52.4364609 C301.471431,42.9581502 290.311485,41.2765144 279.304414,38.8304988 C268.144468,36.3844831 256.984521,33.1740875 256.984521,20.3325053 C256.984521,6.26791515 269.520352,0 282.209058,0 C296.426524,0 307.280719,6.72654309 307.892222,22.014141 L299.178292,22.014141 L299.178292,22.014141 Z" id="Path"></path>
                    <path d="M332.046627,20.7911332 L342.136442,20.7911332 L342.136442,28.1291802 L332.046627,28.1291802 L332.046627,59.468756 C332.046627,63.2906555 333.116759,63.9021594 338.314542,63.9021594 L342.136442,63.9021594 L342.136442,71.2402064 L335.868527,71.2402064 C327.307472,71.2402064 323.9442,69.5585706 323.9442,60.2331359 L323.9442,28.1291802 L315.383145,28.1291802 L315.383145,20.7911332 L323.9442,20.7911332 L323.9442,5.65641124 L332.199503,5.65641124 L332.046627,20.7911332 L332.046627,20.7911332 Z" id="Path"></path>
                    <path d="M395.643035,71.0873304 C394.114275,72.0045863 392.279763,72.4632142 389.680871,72.4632142 C385.400344,72.4632142 382.648576,70.1700745 382.648576,64.6665393 C378.062297,70.0171985 371.947258,72.4632142 364.914963,72.4632142 C355.742404,72.4632142 348.251481,68.3355628 348.251481,58.3986241 C348.251481,46.9329257 356.65966,44.48691 365.373591,42.9581502 C374.546149,41.2765144 382.342824,41.7351424 382.342824,35.6201032 C382.342824,28.4349322 376.380661,27.2119243 371.182878,27.2119243 C364.150583,27.2119243 358.9528,29.352188 358.647048,36.690235 L350.391745,36.690235 C350.850373,24.1544047 360.481559,19.8738773 371.794382,19.8738773 C380.814065,19.8738773 390.751003,21.861265 390.751003,33.7855914 L390.751003,59.7745079 C390.751003,63.7492834 390.751003,65.4309192 393.349895,65.4309192 C393.961399,65.4309192 394.878655,65.2780432 395.948787,64.9722912 L395.948787,71.0873304 L395.643035,71.0873304 L395.643035,71.0873304 Z M382.189948,45.2512899 C378.979553,47.5444296 372.711638,47.6973056 367.208102,48.6145614 C361.704567,49.5318173 357.118288,51.519205 357.118288,57.6342442 C357.118288,63.1377795 361.857443,64.9722912 366.90235,64.9722912 C377.756545,64.9722912 382.342824,58.0928722 382.342824,53.5065928 L382.342824,45.2512899 L382.189948,45.2512899 Z" id="Shape"></path>
                    <path d="M402.828206,20.7911332 L410.624881,20.7911332 L410.624881,31.4924517 L410.777757,31.4924517 C414.752532,23.3900248 420.256067,19.4152494 429.27575,19.7210013 L429.27575,28.4349322 C415.97554,28.4349322 411.083509,36.0787311 411.083509,48.7674374 L411.083509,71.2402064 L402.828206,71.2402064 L402.828206,20.7911332 L402.828206,20.7911332 Z" id="Path"></path>
                    <polygon id="Path" points="463.672845 1.52875979 511.675903 1.52875979 511.675903 9.32543474 472.99828 9.32543474 472.99828 31.4924517 509.229887 31.4924517 509.229887 39.2891267 472.99828 39.2891267 472.99828 63.4435314 512.134531 63.4435314 512.134531 71.2402064 463.825721 71.2402064 463.825721 1.52875979 463.672845 1.52875979"></polygon>
                    <polygon id="Path" points="535.218804 44.639786 517.638066 20.7911332 528.339385 20.7911332 540.416587 38.3718708 552.952417 20.7911332 562.889356 20.7911332 545.461494 44.0282821 565.02962 71.2402064 554.328301 71.2402064 540.263711 50.4490732 526.199121 71.2402064 516.109306 71.2402064"></polygon>
                    <path d="M572.367667,20.7911332 L580.62297,20.7911332 L580.62297,27.6705523 L580.775846,27.6705523 C583.527613,22.167017 589.948404,19.7210013 596.827823,19.7210013 C612.268297,19.7210013 620.064972,31.9510797 620.064972,46.1685458 C620.064972,60.3860118 612.421173,72.4632142 596.980699,72.4632142 C591.782916,72.4632142 584.444869,70.4758265 580.775846,64.5136633 L580.62297,64.5136633 L580.62297,90.5025798 L572.367667,90.5025798 L572.367667,20.7911332 L572.367667,20.7911332 Z M595.757692,26.9061724 C584.597745,26.9061724 580.317218,36.3844831 580.317218,45.8627938 C580.317218,55.7997325 584.750621,64.9722912 596.21632,64.9722912 C607.529142,64.9722912 611.351041,55.3411045 611.351041,45.4041659 C611.351041,36.0787311 606.45901,26.9061724 595.757692,26.9061724 Z" id="Shape"></path>
                    <path d="M629.390407,20.7911332 L637.187082,20.7911332 L637.187082,31.4924517 L637.339958,31.4924517 C641.314733,23.3900248 646.818269,19.4152494 655.837951,19.7210013 L655.837951,28.4349322 C642.537741,28.4349322 637.64571,36.0787311 637.64571,48.7674374 L637.64571,71.2402064 L629.390407,71.2402064 L629.390407,20.7911332 L629.390407,20.7911332 Z" id="Path"></path>
                </g>
                <g id="Group" transform="translate(656.9081, 418.7273)" fill="#004170">
                    <path d="M45.7099178,35.6201032 C43.4167781,46.7800497 35.4672272,52.7422129 24.1544047,52.7422129 C8.10242691,52.7422129 0.458627938,41.5822664 0,26.2946685 C0,11.1599465 9.93693866,0 23.6957768,0 C41.5822664,0 46.9329257,16.6634818 46.4742977,28.8935601 L8.71393082,28.8935601 C8.40817886,37.6074909 13.4530862,45.4041659 24.4601567,45.4041659 C31.3395758,45.4041659 36.0787311,42.0408943 37.4546149,35.6201032 L45.7099178,35.6201032 Z M37.7603669,21.5555131 C37.301739,13.6059622 31.4924517,7.33804701 23.2371489,7.33804701 C14.523218,7.33804701 9.32543474,13.9117141 8.8668068,21.5555131 L37.7603669,21.5555131 Z" id="Shape"></path>
                    <path d="M59.9273839,35.7729792 C60.2331359,43.1110262 66.653927,45.5570418 73.5333461,45.5570418 C78.7311294,45.5570418 85.7634244,44.334034 85.7634244,38.0661189 C85.7634244,31.6453277 77.5081215,30.5751959 69.2528187,28.7406841 C60.9975158,26.9061724 52.7422129,24.1544047 52.7422129,14.523218 C52.7422129,4.4334034 62.8320275,0.152875979 71.5459583,0.152875979 C82.7059048,0.152875979 91.5727116,3.6690235 92.1842156,15.8991019 L83.9289127,15.8991019 C83.3174088,9.47831072 77.6609975,7.49092299 72.1574623,7.49092299 C67.1125549,7.49092299 61.4561437,8.8668068 61.4561437,13.9117141 C61.4561437,19.8738773 70.1700745,20.7911332 77.9667495,22.6256449 C86.2220524,24.4601567 94.4773552,27.2119243 94.4773552,36.995987 C94.4773552,48.9203134 83.3174088,52.8950889 73.0747181,52.8950889 C61.7618957,52.8950889 52.2835849,48.3088095 51.672081,35.7729792 L59.9273839,35.7729792 L59.9273839,35.7729792 Z" id="Path"></path>
                    <path d="M108.541945,35.7729792 C108.847697,43.1110262 115.268488,45.5570418 122.147908,45.5570418 C127.345691,45.5570418 134.377986,44.334034 134.377986,38.0661189 C134.377986,31.6453277 126.122683,30.5751959 117.86738,28.7406841 C109.612077,26.9061724 101.356774,24.1544047 101.356774,14.523218 C101.356774,4.4334034 111.446589,0.152875979 120.16052,0.152875979 C131.320466,0.152875979 140.187273,3.6690235 140.798777,15.8991019 L132.543474,15.8991019 C131.93197,9.47831072 126.275559,7.49092299 120.772024,7.49092299 C115.727116,7.49092299 110.070705,8.8668068 110.070705,13.9117141 C110.070705,19.8738773 118.784636,20.7911332 126.581311,22.6256449 C134.836614,24.4601567 143.091917,27.2119243 143.091917,36.995987 C143.091917,48.9203134 131.93197,52.8950889 121.68928,52.8950889 C110.376457,52.8950889 100.898146,48.3088095 100.286642,35.7729792 L108.541945,35.7729792 L108.541945,35.7729792 Z" id="Path"></path>
                </g>
            </g>
        </g>
    </g>
</svg>