<?xml version="1.0" encoding="UTF-8"?>
<svg width="980px" height="680px" viewBox="0 0 980 680" version="1.1" xmlns="http://www.w3.org/2000/svg" xmlns:xlink="http://www.w3.org/1999/xlink">
    <title>DE Rhenus</title>
    <defs>
        <linearGradient x1="50%" y1="0%" x2="50%" y2="100%" id="linearGradient-1">
            <stop stop-color="#FFFFFF" offset="0%"></stop>
            <stop stop-color="#EDEDED" offset="100%"></stop>
        </linearGradient>
        <rect id="path-2" x="0" y="0" width="900" height="600" rx="80"></rect>
        <filter x="-6.7%" y="-10.0%" width="113.3%" height="120.0%" filterUnits="objectBoundingBox" id="filter-3">
            <feMorphology radius="2.5" operator="dilate" in="SourceAlpha" result="shadowSpreadOuter1"></feMorphology>
            <feOffset dx="0" dy="0" in="shadowSpreadOuter1" result="shadowOffsetOuter1"></feOffset>
            <feGaussianBlur stdDeviation="17.5" in="shadowOffsetOuter1" result="shadowBlurOuter1"></feGaussianBlur>
            <feColorMatrix values="0 0 0 0 0   0 0 0 0 0   0 0 0 0 0  0 0 0 0.5 0" type="matrix" in="shadowBlurOuter1"></feColorMatrix>
        </filter>
    </defs>
    <g id="DE-Rhenus" stroke="none" stroke-width="1" fill="none" fill-rule="evenodd">
        <g transform="translate(40, 40)">
            <g id="Rectangle">
                <use fill="black" fill-opacity="1" filter="url(#filter-3)" xlink:href="#path-2"></use>
                <use fill="url(#linearGradient-1)" fill-rule="evenodd" xlink:href="#path-2"></use>
            </g>
            <g id="Logo" transform="translate(50, 225)" fill="#134C95">
                <g id="g8" transform="translate(52.2571, 36.177)" fill-rule="nonzero">
                    <polyline id="polyline10" points="41.7534607 39.6124459 83.9569437 0 42.3524414 0 0 39.6124459 41.7534607 39.6124459"></polyline>
                </g>
                <g id="g12" transform="translate(12.5681, 83.9727)" fill-rule="nonzero">
                    <polyline id="polyline14" points="92.6626184 28.9661159 123.412039 0 30.9592213 0 0 28.9661159 92.6626184 28.9661159"></polyline>
                </g>
                <g id="g18">
                    <path d="M0,0 L149.071698,0 L149.071698,149.068551 L0,149.068551 L0,0 Z M8.49692314,140.571628 L140.582118,140.571628 L140.582118,8.49692314 L8.49692314,8.49692314 L8.49692314,140.571628 Z" id="path20"></path>
                </g>
                <g id="g22" transform="translate(277.8441, 0.0262)" fill-rule="nonzero">
                    <polyline id="polyline24" points="0 0 18.8044252 0 18.8044252 28.1930008 77.3807448 28.1930008 77.3807448 0 96.18517 0 96.18517 74.2253442 77.3807448 74.2253442 77.3807448 46.0858425 18.8044252 46.0858425 18.8044252 74.2253442 0 74.2253442 0 0"></polyline>
                </g>
                <g id="g26" transform="translate(384.2571, 0.0262)" fill-rule="nonzero">
                    <polyline id="polyline28" points="97.9160247 0 0 0 0 74.2253442 97.9160247 74.2253442 97.9160247 56.3860016 18.8107192 56.3860016 18.8107192 46.0858425 93.4881836 46.0858425 93.4881836 28.1930008 18.8107192 28.1930008 18.8107192 17.8991358 97.9160247 17.8991358 97.9160247 0"></polyline>
                </g>
                <g id="g30" transform="translate(490.1906, 0.0262)" fill-rule="nonzero">
                    <polyline id="polyline32" points="75.3698063 74.2253442 18.8044252 22.8735073 18.8044252 74.2253442 0 74.2253442 0 0.0608421657 22.1203233 0.0608421657 78.3731015 51.1126642 78.3731015 0 97.1838207 0 97.1838207 74.2253442 75.3698063 74.2253442"></polyline>
                </g>
                <g id="g34" transform="translate(595.6123, 0.0262)" fill-rule="nonzero">
                    <path d="M98.1489033,0 L98.1489033,55.1744033 C98.1489033,65.6948529 89.4526696,74.2253442 78.7129784,74.2253442 L19.4296309,74.2253442 C8.7014787,74.2253442 0,65.6959019 0,55.1744033 L0,0 L18.8044252,0 L18.8044252,50.2398938 C18.8044252,53.6292221 21.6147039,56.3860016 25.0764133,56.3860016 L73.07249,56.3860016 C76.5352485,56.3860016 79.3381841,53.6292221 79.3381841,50.2398938 L79.3381841,0 L98.1489033,0" id="path36"></path>
                </g>
                <g id="g38" transform="translate(701.2846, 0.0262)" fill-rule="nonzero">
                    <path d="M75.2177009,74.2253442 C88.1949152,74.2253442 98.7153649,63.9639982 98.7153649,51.2395936 C98.7153649,38.5078459 88.1949152,28.1940498 75.2177009,28.1940498 L23.8857951,28.1940498 C20.908725,28.1940498 18.4907734,25.8306464 18.4907734,22.9070754 C18.4907734,19.9908475 20.908725,17.9001848 23.8857951,17.9001848 L96.0781717,17.9001848 L96.0781717,0 L23.505007,0 C10.5204497,0 0,10.3148451 0,23.0455438 C0,35.7699484 10.5204497,46.0847935 23.505007,46.0847935 L74.8306188,46.0847935 C77.8066399,46.0847935 80.2182975,48.448197 80.2182975,51.3717679 C80.2182975,54.2879959 77.8066399,56.3860016 74.8306188,56.3860016 L1.56511226,56.3860016 L1.56511226,74.2242952 L75.2177009,74.2242952" id="path40"></path>
                </g>
                <g id="g44" transform="translate(173.3299, 0.0262)">
                    <path d="M18.8170133,28.1930008 L18.8170133,17.8991358 L73.1249402,17.8991358 C76.0285801,17.8991358 78.3856895,20.202746 78.3856895,23.0465928 C78.3856895,25.8904395 76.0285801,28.1940498 73.1249402,28.1940498 L18.8170133,28.1940498 M18.8170133,46.1319987 L18.8170133,74.2253442 L0,74.2253442 L0,0 L73.6651766,0 C86.64344,0 97.1638897,10.3148451 97.1638897,23.0455438 C97.1638897,35.7699484 86.64344,46.1309496 73.6651766,46.1309496 L67.8788769,46.1309496 L96.2984623,74.2242952 L69.9024034,74.2242952 L41.4030938,46.1309496 L18.8170133,46.1309496 L18.8170133,46.1319987 Z" id="path46"></path>
                </g>
                <g id="g48" transform="translate(646.1574, 98.7689)" fill-rule="nonzero">
                    <path d="M8.64378354,50.0395343 C3.90229063,50.0395343 0,46.1047246 0,41.1639211 L0,8.87666218 C0,3.94215274 3.90333963,0 8.64378354,0 L64.8493566,0 L64.9028558,9.4357807 L14.7290491,9.4357807 C12.1862662,9.4357807 10.1816217,11.5327374 10.1816217,14.0492953 L10.1816217,36.2692738 C10.1816217,38.7868806 12.1862662,40.8838374 14.7290491,40.8838374 L64.9028558,40.8838374 L64.8493566,50.0395343 L8.64378354,50.0395343" id="path50"></path>
                </g>
                <g id="g52" transform="translate(730.1039, 98.8549)" fill-rule="nonzero">
                    <path d="M1.12453106,50.1811497 L1.12453106,40.7254379 L52.1983822,40.7254379 C55.1345412,40.7254379 57.7979594,38.5875701 57.7979594,35.3839154 C57.7979594,32.294602 55.2614705,29.8577683 52.1983822,29.8577683 L15.2220805,29.8577683 C6.78599948,29.8577683 0,23.138905 0,14.9220656 C0,6.71256928 6.78599948,0 15.2220805,0 L65.8018512,0 L65.8018512,9.49452486 L15.5021642,9.49452486 C12.5722992,9.49452486 9.90888099,11.6250497 9.90888099,14.8287044 C9.90888099,17.9180178 12.4453699,20.3559004 15.5021642,20.3559004 L52.4774169,20.3559004 C60.9208409,20.3559004 67.7068404,27.0737147 67.7068404,35.2916031 C67.7068404,43.5010995 60.928184,50.1801007 52.4774169,50.1801007 L1.12453106,50.1801007" id="path54"></path>
                </g>
                <g id="g56" transform="translate(535.9156, 98.7689)" fill-rule="nonzero">
                    <polyline id="polyline58" points="58.8039532 9.52179893 34.4723319 9.52179893 34.4796749 50.2671679 24.3179842 50.2671679 24.3116902 9.54802401 0 9.4357807 0 0 58.8039532 0 58.8039532 9.52179893"></polyline>
                </g>
                <g id="g60" transform="translate(613.7695, 98.7689)" fill-rule="nonzero">
                    <rect id="rect62" x="0" y="0" width="10.1480534" height="50.2671669"></rect>
                </g>
                <g id="g64" transform="translate(453.4346, 98.8549)" fill-rule="nonzero">
                    <path d="M1.13187408,50.1811497 L1.13187408,40.7254379 L52.2046762,40.7254379 C55.1345412,40.7254379 57.7979594,38.5875701 57.7979594,35.3839154 C57.7979594,32.294602 55.2604215,29.8577683 52.2046762,29.8577683 L15.2283745,29.8577683 C6.7922935,29.8577683 0,23.138905 0,14.9220656 C0,6.71256928 6.7922935,0 15.2283745,0 L65.8018512,0 L65.8018512,9.49452486 L15.5021642,9.49452486 C12.5722992,9.49452486 9.90888099,11.6250497 9.90888099,14.8287044 C9.90888099,17.9180178 12.4527129,20.3559004 15.5021642,20.3559004 L52.48476,20.3559004 C60.9218899,20.3559004 67.7068404,27.0737147 67.7068404,35.2916031 C67.7068404,43.5010995 60.928184,50.1801007 52.4784659,50.1801007 L1.13187408,50.1801007" id="path66"></path>
                </g>
                <g id="g68" transform="translate(423.1845, 98.7689)" fill-rule="nonzero">
                    <rect id="rect70" x="0" y="0" width="10.1480534" height="50.2671669"></rect>
                </g>
                <g id="g72" transform="translate(172.9103, 98.8287)" fill-rule="nonzero">
                    <polyline id="polyline74" points="0 0 10.1606417 0 10.1669357 40.7317319 64.0500165 40.8376812 64.0500165 50.2661189 0.0996552714 50.2661189 0 0"></polyline>
                </g>
                <g id="g76" transform="translate(249.5903, 98.7689)" fill-rule="nonzero">
                    <g id="g78" transform="translate(-0, 0)">
                        <path d="M20.4230366,50.0395343 L8.65007756,50.0395343 C3.90229063,50.0395343 0,46.1047246 0,41.1639211 L0,8.87666218 C0,3.94215274 3.90229063,0 8.65007756,0 L56.2601212,0 C61.0079082,0 64.9028558,3.94215274 64.9028558,8.87666218 L64.9028558,41.1639211 C64.9028558,46.1047246 61.0079082,50.0395343 56.2601212,50.0395343 L20.4230366,50.0395343 M20.3569494,9.4357807 L14.7300981,9.4357807 C12.1862662,9.4357807 10.1826707,11.5327374 10.1826707,14.0492953 L10.1826707,36.2692738 C10.1826707,38.7868806 12.1873152,40.8838374 14.7300981,40.8838374 L50.1748557,40.8838374 C52.7186876,40.8838374 54.7296261,38.7868806 54.7296261,36.2692738 L54.7296261,14.0492953 C54.7296261,11.5327374 52.7186876,9.4357807 50.1748557,9.4357807 L20.3569494,9.4357807 L20.3569494,9.4357807 Z" id="path80"></path>
                    </g>
                </g>
                <g id="g82" transform="translate(333.5378, 98.7689)" fill-rule="nonzero">
                    <path d="M22.7329409,40.8838374 L50.5262716,40.8838374 C53.0701035,40.8838374 55.081042,38.7868806 55.081042,36.2692738 L55.081042,33.8062151 C55.081042,31.2886082 53.0701035,29.1916515 50.5262716,29.1916515 L25.7561672,29.1916515 L25.8096663,19.7632138 L56.6125862,19.7632138 C61.3540791,19.7632138 65.2553207,23.7053666 65.2553207,28.639876 L65.2553207,41.1639211 C65.2553207,46.1047246 61.3530301,50.0395343 56.6125862,50.0395343 L8.65007756,50.0395343 C3.91592767,50.0395343 0,46.1047246 0,41.1639211 L0,8.87666218 C0,3.94215274 3.91487866,0 8.65007756,0 L65.0822353,0.0608421657 L65.0822353,9.4368297 L14.7426862,9.4368297 C12.1988542,9.4368297 10.1879157,11.5337864 10.1879157,14.0503443 L10.1879157,36.2703228 C10.1879157,38.7879296 12.1988542,40.8848864 14.7426862,40.8848864 L22.7329409,40.8848864" id="path84"></path>
                </g>
            </g>
        </g>
    </g>
</svg>