<?xml version="1.0" encoding="UTF-8"?>
<svg width="980px" height="680px" viewBox="0 0 980 680" version="1.1" xmlns="http://www.w3.org/2000/svg" xmlns:xlink="http://www.w3.org/1999/xlink">
    <title>DE südmail</title>
    <defs>
        <linearGradient x1="50%" y1="0%" x2="50%" y2="100%" id="linearGradient-1">
            <stop stop-color="#FFFFFF" offset="0%"></stop>
            <stop stop-color="#EDEDED" offset="100%"></stop>
        </linearGradient>
        <rect id="path-2" x="0" y="0" width="900" height="600" rx="80"></rect>
        <filter x="-6.7%" y="-10.0%" width="113.3%" height="120.0%" filterUnits="objectBoundingBox" id="filter-3">
            <feMorphology radius="2.5" operator="dilate" in="SourceAlpha" result="shadowSpreadOuter1"></feMorphology>
            <feOffset dx="0" dy="0" in="shadowSpreadOuter1" result="shadowOffsetOuter1"></feOffset>
            <feGaussianBlur stdDeviation="17.5" in="shadowOffsetOuter1" result="shadowBlurOuter1"></feGaussianBlur>
            <feColorMatrix values="0 0 0 0 0   0 0 0 0 0   0 0 0 0 0  0 0 0 0.5 0" type="matrix" in="shadowBlurOuter1"></feColorMatrix>
        </filter>
    </defs>
    <g id="DE-südmail" stroke="none" stroke-width="1" fill="none" fill-rule="evenodd">
        <g transform="translate(40, 40)">
            <g id="Rectangle">
                <use fill="black" fill-opacity="1" filter="url(#filter-3)" xlink:href="#path-2"></use>
                <use fill="url(#linearGradient-1)" fill-rule="evenodd" xlink:href="#path-2"></use>
            </g>
            <g id="Logo" transform="translate(50, 250)" fill-rule="nonzero">
                <polygon id="path963" fill="#005697" points="536.93403 42.4211051 794.445213 42.4211051 794.445213 47.3851246 536.93403 47.3851246"></polygon>
                <polygon id="path967" fill="#005697" points="531.938837 65.8836861 789.447079 65.8836861 789.447079 70.8476872 531.938837 70.8476872"></polygon>
                <polygon id="path971" fill="#005697" points="526.048293 93.1536012 783.556535 93.1536012 783.556535 98.1176023 526.048293 98.1176023"></polygon>
                <path d="M798.154786,24.8891089 L668.659923,88.8027298 L540.693663,24.8891089 L798.154786,24.8891089 Z M800,15.1485077 L800,20.1125272 L542.488817,20.1125272 L542.488817,15.1485077 L800,15.1485077 Z" id="Shape" fill="#005697"></path>
                <polygon id="path987" fill="#FFFFFF" points="540.634468 19.0910716 798.098531 19.0910716 668.609568 83.0020195"></polygon>
                <path d="M1.30988537e-14,96.7269306 L4.10865772,82.9674815 C9.48967224,85.6663559 14.84418,88.1001628 22.2132551,88.1001628 C28.5750475,88.1001628 35.2284206,86.1723966 35.2284206,80.7746385 C35.2284206,70.0996042 10.6029857,69.0634375 10.6029857,52.4605099 C10.6029857,36.9178527 27.1701513,31.3755273 42.1468697,31.3755273 C49.0918247,31.3755273 56.169318,32.5321852 62.8226921,34.0744018 L58.7140344,47.0627518 C53.7571391,45.4000532 48.535167,43.9783185 43.1541534,43.9783185 C37.508063,43.9783185 30.4305696,45.4000532 30.4305696,50.6773294 C30.4305696,59.0390204 55.0560045,62.1234536 55.0560045,78.3167371 C55.0560045,95.5702819 38.4888389,100.702963 22.2132551,100.702963 C14.5791059,100.702963 6.91844817,99.6667873 1.30988537e-14,96.7269306" id="path1001" fill="#005697"></path>
                <path d="M70.7219154,79.4733858 C70.7219154,74.4611864 72.1268108,69.1839194 73.1340945,65.0874141 L80.7682448,32.9177347 L99.7210774,32.9177347 L92.6435933,64.1717109 C91.6628173,68.6778788 90.5229925,73.1840374 90.5229925,78.0757548 C90.5229925,83.5940041 94.7641831,87.3290453 100.860901,87.3290453 C114.008603,87.3290453 118.832961,76.1479795 121.245147,66.2440627 L129.011834,32.9177347 L147.964671,32.9177347 L134.525385,89.6423794 C133.677145,93.6425066 132.987953,97.1124893 132.696368,99.1607466 L114.167651,99.1607466 L115.440012,92.7268034 L115.148428,92.7268034 C109.899949,97.1124893 102.689918,100.702963 94.4991109,100.702963 C80.1850802,100.702963 70.7219154,92.6063214 70.7219154,79.4733858" id="path1007" fill="#005697"></path>
                <path d="M155.307238,73.1840374 C155.307238,53.3761946 167.18258,31.3755181 191.967061,31.3755181 C201.297695,31.3755181 208.507715,34.5804425 214.445398,40.7733942 L223.643484,2.69993446 L242.596321,2.69993446 L222.954292,84.5096981 C221.814465,90.1725146 220.674639,95.8112458 220.250532,99.1607466 L202.570042,99.1607466 L204.399061,89.4014063 L204.133994,89.4014063 C198.461388,96.6064486 191.383898,100.702963 180.356792,100.702963 C163.100437,100.702963 155.307238,87.5941221 155.307238,73.1840374 M175.10832,71.6418208 C175.10832,78.3167187 177.387955,87.3290453 186.71859,87.3290453 C200.581994,87.3290453 208.799302,72.6539022 208.799302,60.460755 C208.799302,52.7255775 204.690648,44.7494269 195.068445,44.7494269 C181.470109,44.7494269 175.10832,61.7378948 175.10832,71.6418208" id="path1013" fill="#005697"></path>
                <path d="M327.632265,99.1607466 L335.690534,64.4367785 C336.671313,60.460755 337.519553,56.581119 337.519553,51.6894108 C337.519553,44.5084538 334.126592,38.9661192 325.511659,38.9661192 C310.773515,38.9661192 303.298409,54.026821 300.594658,65.8585132 L293.093043,99.1607466 L283.762409,99.1607466 L291.820678,64.4367785 C292.801457,60.460755 293.649697,56.581119 293.649697,51.6894108 C293.649697,44.5084538 290.256736,38.9661192 281.641803,38.9661192 C266.930168,38.9661192 259.428553,54.026821 256.724802,65.8585132 L249.223187,99.1607466 L239.892552,99.1607466 L252.218524,44.6289449 C253.066764,41.4240298 253.755956,37.038353 254.047543,33.5683703 L262.954052,33.5683703 C262.529937,37.6889702 261.973274,41.158953 261.41662,43.4722779 L261.681687,43.4722779 C268.494101,35.2310688 274.140197,32.0261445 284.053995,32.0261445 C294.232851,32.0261445 301.734467,37.158835 302.158582,46.677193 L302.450168,46.677193 C307.115486,37.5443937 315.465341,32.0261445 326.916554,32.0261445 C339.375073,32.0261445 347.300803,39.3516687 347.300803,51.303852 C347.300803,53.8822353 346.293515,58.8944531 345.180207,63.6656794 L336.96289,99.1607466 L327.632265,99.1607466" id="path1019" fill="#005697"></path>
                <polygon id="path1025" fill="#005697" points="428.519679 99.1607466 443.787978 33.5683703 453.145112 33.5683703 437.850305 99.1607466"></polygon>
                <path d="M355.915736,82.3168551 C355.915736,63.1596387 379.666419,59.1595115 397.3734,59.1595115 C401.057948,59.1595115 404.291852,59.4245791 407.12816,59.6655522 C407.419737,57.7377768 407.552275,55.8100107 407.552275,53.1111362 C407.552275,44.122895 402.038727,38.96611 392.12492,38.96611 C383.775082,38.96611 375.584275,42.4360927 370.759919,44.6289449 L371.767189,36.3877267 C376.856631,34.4599513 385.047438,32.0261445 393.556333,32.0261445 C409.116208,32.0261445 417.307016,39.7372275 417.307016,53.3761946 C417.307016,55.9545964 416.750362,60.7017189 415.477997,65.8585132 L411.660929,83.5939949 C410.256035,88.630298 409.248756,94.6545787 408.957169,99.1607466 L400.05066,99.1607466 C400.474775,95.6907639 400.766362,92.341263 401.482064,89.5218882 L401.190487,89.5218882 C395.093765,97.7631065 387.168025,100.702963 376.565053,100.702963 C365.3789,100.702963 355.915736,93.1123621 355.915736,82.3168551 M365.670486,82.196364 C365.670486,89.6423794 372.45639,93.7629885 379.666419,93.7629885 C396.366121,93.7629885 404.026775,80.1240121 405.988333,66.3645538 C403.019506,66.3645538 400.209708,66.099477 397.214371,66.099477 C385.206477,66.099477 365.670486,67.7862793 365.670486,82.196364" id="path1031" fill="#005697"></path>
                <polygon id="path1037" fill="#005697" points="459.878007 99.1607466 482.515382 2.69994368 491.872526 2.69994368 469.235142 99.1607466"></polygon>
                <path d="M127.533888,8.23586288 C127.533888,3.69220743 131.589531,0 136.596499,0 C141.59463,0 145.65616,3.69220743 145.65616,8.23586288 C145.65616,12.7848553 141.59463,16.4743988 136.596499,16.4743988 C131.589531,16.4743988 127.533888,12.7848553 127.533888,8.23586288" id="path1043" fill="#005697"></path>
                <path d="M97.084469,8.23586288 C97.084469,3.69220743 101.140111,0 106.14413,0 C111.142261,0 115.197903,3.69220743 115.197903,8.23586288 C115.197903,12.7848553 111.142261,16.4743988 106.14413,16.4743988 C101.140111,16.4743988 97.084469,12.7848553 97.084469,8.23586288" id="path1049" fill="#005697"></path>
                <path d="M446.541807,10.5997826 C446.541807,7.35469764 449.439964,4.72006916 453.009634,4.72006916 C456.588134,4.72006916 459.483341,7.35469764 459.483341,10.5997826 C459.483341,13.8502138 456.588134,16.4821508 453.009634,16.4821508 C449.439964,16.4821508 446.541807,13.8502138 446.541807,10.5997826" id="path1055" fill="#005697"></path>
            </g>
        </g>
    </g>
</svg>