<?xml version="1.0" encoding="UTF-8"?>
<svg width="980px" height="680px" viewBox="0 0 980 680" version="1.1" xmlns="http://www.w3.org/2000/svg" xmlns:xlink="http://www.w3.org/1999/xlink">
    <title>DE Schenker text heritage alt</title>
    <defs>
        <linearGradient x1="50%" y1="0%" x2="50%" y2="100%" id="linearGradient-1">
            <stop stop-color="#FFFFFF" offset="0%"></stop>
            <stop stop-color="#EDEDED" offset="100%"></stop>
        </linearGradient>
        <rect id="path-2" x="0" y="0" width="900" height="600" rx="80"></rect>
        <filter x="-6.7%" y="-10.0%" width="113.3%" height="120.0%" filterUnits="objectBoundingBox" id="filter-3">
            <feMorphology radius="2.5" operator="dilate" in="SourceAlpha" result="shadowSpreadOuter1"></feMorphology>
            <feOffset dx="0" dy="0" in="shadowSpreadOuter1" result="shadowOffsetOuter1"></feOffset>
            <feGaussianBlur stdDeviation="17.5" in="shadowOffsetOuter1" result="shadowBlurOuter1"></feGaussianBlur>
            <feColorMatrix values="0 0 0 0 0   0 0 0 0 0   0 0 0 0 0  0 0 0 0.5 0" type="matrix" in="shadowBlurOuter1"></feColorMatrix>
        </filter>
    </defs>
    <g id="DE-Schenker-text-heritage-alt" stroke="none" stroke-width="1" fill="none" fill-rule="evenodd">
        <g transform="translate(40, 40)">
            <g id="Rectangle">
                <use fill="black" fill-opacity="1" filter="url(#filter-3)" xlink:href="#path-2"></use>
                <use fill="url(#linearGradient-1)" fill-rule="evenodd" xlink:href="#path-2"></use>
            </g>
            <g id="Logo" transform="translate(119.063, 58)" fill-rule="nonzero">
                <g id="Group-2" transform="translate(145.937, -0)">
                    <path d="M142.121212,0 L0,0 L0,134.69697 C16.1738942,67.9136964 71.6252458,15.3799353 142.121212,0" id="path8" fill="#EC0016"></path>
                    <path d="M369.090909,134.69697 L369.090909,0 L226.969697,0 C297.440056,15.3799353 352.885946,67.9136964 369.090909,134.69697" id="path10" fill="#EC0016"></path>
                    <path d="M0,215.30303 L0,350 L142.121212,350 C71.6252458,334.608836 16.1738942,282.046642 0,215.30303" id="path12" fill="#EC0016"></path>
                    <path d="M226.969697,350 L369.090909,350 L369.090909,215.30303 C352.885946,282.044454 297.440056,334.604925 226.969697,350" id="path14" fill="#EC0016"></path>
                    <path d="M252.316775,214.955214 C268.03436,233.271603 278.939394,246.878819 278.939394,265.499452 C278.939394,302.718672 236.399055,334.073472 184.936416,350 C221.914861,321.475994 228.137666,296.241355 228.137666,286.276251 C228.137666,274.70174 226.480734,266.473916 213.690706,250.578253 L114.698314,137.125994 C98.9807298,118.818423 90.1515152,104.633584 90.1515152,86.0173602 C90.1515152,43.6480341 135.554251,15.4723661 184.936416,0 C144.057664,27.4128526 138.244438,53.8953349 138.244438,63.8560288 C138.244438,75.4040843 140.525047,85.6117011 153.315075,101.454452 L252.316775,214.955214" id="path16" fill="#003878"></path>
                </g>
                <g id="Group" transform="translate(-0, 392)" fill="#003878">
                    <polyline id="polyline18" points="217.983884 1.2666854 215.974816 36.4934336 182.60012 36.4934336 184.58905 1.2666854 163.754446 1.2666854 158.731776 90.3729381 179.574672 90.3729381 181.718784 52.3782457 215.113617 52.3782457 212.969506 90.3729381 233.825433 90.3729381 238.833888 1.2666854 217.983884 1.2666854"></polyline>
                    <path d="M656.544723,25.6551249 C656.908393,18.5915917 654.241876,12.5292775 650.341014,8.65797195 C645.552894,3.90779356 637.492929,1.2666854 625.339015,1.2666854 L590.982293,1.2666854 L585.980946,90.3729381 L606.840427,90.3729381 L608.969138,52.3771232 L612.254012,52.3771232 C617.550323,52.3771232 619.423163,55.4716983 623.434191,62.4723748 L638.921547,90.3729381 L661.936986,90.3729381 L643.218063,57.336076 C640.626175,52.992222 637.479899,49.7259131 633.443994,47.3553137 C647.250414,45.3450184 655.889643,38.3286278 656.544723,25.6551249 M611.003083,16.2479309 L622.389381,16.2479309 C629.793081,16.3018082 632.130281,16.9797637 634.032736,18.5388369 C637.296287,21.2124959 636.253846,27.0087911 636.059573,28.336641 C635.123745,34.7289534 629.789528,36.4945561 620.892057,36.4945561 L609.861136,36.4945561 L611.003083,16.2479309 Z" id="path20"></path>
                    <path d="M75.6468613,45.9601171 C74.7228795,61.1512595 78.8914588,73.1816026 86.5569537,80.8029899 C93.6313372,87.8317274 104.06167,91.545891 116.724958,91.545891 C125.753919,91.545891 134.165707,90.0732459 143.890022,85.5385765 L144.789128,68.8826462 C142.354791,70.1386598 131.737293,75.7138338 117.804122,75.6880176 C111.317296,75.6745483 106.234212,73.8820069 102.692281,70.3564138 C98.1375252,65.8183771 95.9175998,57.1048528 96.8261819,44.8893066 C98.2299234,26.0042047 105.840927,16.8473154 121.271423,15.2613036 C134.264028,13.9255965 145.593466,19.7802587 146.233145,20.090053 L147.088421,4.12442505 C138.927767,0.91536077 129.94619,-0.182388395 121.49531,0.0241411006 C93.6917514,0.704341503 77.4036112,17.071804 75.6468613,45.9601171" id="path22"></path>
                    <polyline id="polyline24" points="503.804613 1.2666854 481.489269 1.2666854 451.137653 36.1836394 453.113552 1.2666854 432.231564 1.2666854 427.237324 90.3729381 448.074298 90.3729381 450.078627 54.956497 475.789012 90.3729381 499.934551 90.3729381 465.563614 44.3101261 503.804613 1.2666854"></polyline>
                    <polyline id="polyline26" points="571.923392 17.3569045 572.833159 1.2666854 514.641261 1.2666854 509.599638 90.3729381 570.100305 90.3729381 573.021509 74.3702696 531.35467 74.3702696 532.585461 52.3782457 562.157616 52.3782457 563.048429 36.4934336 533.481012 36.4934336 534.551884 17.3569045 571.923392 17.3569045"></polyline>
                    <polyline id="polyline28" points="315.724571 17.3569045 316.633153 1.2666854 258.442439 1.2666854 253.400816 90.3729381 313.901483 90.3729381 316.822687 74.3702696 275.157032 74.3702696 276.387824 52.3782457 305.958794 52.3782457 306.849607 36.4934336 277.283375 36.4934336 278.354246 17.3569045 315.724571 17.3569045"></polyline>
                    <polyline id="polyline30" points="392.963523 1.2666854 389.987828 54.2246643 352.097468 1.2666854 334.595121 1.2666854 329.602066 90.3729381 349.762637 90.3729381 352.886407 34.4640569 393.046445 90.3729381 407.446345 90.3729381 412.444139 1.2666854 392.963523 1.2666854"></polyline>
                    <path d="M40.9560842,37.2690417 C28.2845035,32.5076389 22.4018195,30.2515286 22.7690431,23.6470746 C23.103098,17.6711885 28.7263563,14.6933475 38.4009192,15.0199784 C45.3201212,15.2545689 52.9844315,16.8147646 60.6084657,20.0361757 C60.6842796,18.6432241 61.4258342,4.73166666 61.4684795,3.97065037 C54.5149244,1.39913366 45.6565453,0.0241411006 38.044357,0.0241411006 C16.8010685,0.0241411006 3.71014218,9.3471519 3.19721384,25.642778 C2.76365316,39.4286218 12.0236089,46.2429727 26.4033713,51.8944728 C38.1130634,56.4572032 44.2871569,59.0646381 43.9104567,65.8329688 C43.534941,72.6091567 37.0090236,75.975363 25.9129503,75.975363 C15.487356,75.975363 7.53163601,73.9515984 0.938196873,71.16794 C0.855275432,72.660789 0.0390915364,87.1324455 1.42108547e-14,87.8440743 C9.07989777,90.5805901 17.3365041,91.5470134 27.3285377,91.5470134 C50.6199858,91.5470134 63.5261158,81.5516593 64.4951121,64.0785906 C65.4119863,47.6134755 53.7283553,42.0023834 40.9560842,37.2690417" id="path32"></path>
                </g>
            </g>
        </g>
    </g>
</svg>