<?xml version="1.0" encoding="UTF-8"?>
<svg width="980px" height="680px" viewBox="0 0 980 680" version="1.1" xmlns="http://www.w3.org/2000/svg" xmlns:xlink="http://www.w3.org/1999/xlink">
    <title>DE südmail alt</title>
    <defs>
        <linearGradient x1="50%" y1="0%" x2="50%" y2="100%" id="linearGradient-1">
            <stop stop-color="#FFFFFF" offset="0%"></stop>
            <stop stop-color="#EDEDED" offset="100%"></stop>
        </linearGradient>
        <rect id="path-2" x="0" y="0" width="900" height="600" rx="80"></rect>
        <filter x="-6.7%" y="-10.0%" width="113.3%" height="120.0%" filterUnits="objectBoundingBox" id="filter-3">
            <feMorphology radius="2.5" operator="dilate" in="SourceAlpha" result="shadowSpreadOuter1"></feMorphology>
            <feOffset dx="0" dy="0" in="shadowSpreadOuter1" result="shadowOffsetOuter1"></feOffset>
            <feGaussianBlur stdDeviation="17.5" in="shadowOffsetOuter1" result="shadowBlurOuter1"></feGaussianBlur>
            <feColorMatrix values="0 0 0 0 0   0 0 0 0 0   0 0 0 0 0  0 0 0 0.5 0" type="matrix" in="shadowBlurOuter1"></feColorMatrix>
        </filter>
    </defs>
    <g id="DE-südmail-alt" stroke="none" stroke-width="1" fill="none" fill-rule="evenodd">
        <g transform="translate(40, 40)">
            <g id="Rectangle">
                <use fill="black" fill-opacity="1" filter="url(#filter-3)" xlink:href="#path-2"></use>
                <use fill="url(#linearGradient-1)" fill-rule="evenodd" xlink:href="#path-2"></use>
            </g>
            <g id="Logo" transform="translate(50, 136)" fill-rule="nonzero">
                <g id="Group" transform="translate(177.2817, 0)">
                    <polygon id="path963" fill="#005697" points="17.7049728 44.3571794 436.530858 44.3571794 436.530858 52.4308477 17.7049728 52.4308477"></polygon>
                    <polygon id="path967" fill="#005697" points="9.58060266 82.5176049 428.401706 82.5176049 428.401706 90.5912431 9.58060266 90.5912431"></polygon>
                    <polygon id="path971" fill="#005697" points="0 126.870422 418.821103 126.870422 418.821103 134.94406 0 134.94406"></polygon>
                    <path d="M442.564248,15.8424805 L231.948927,119.794 L23.8197822,15.8424805 L442.564248,15.8424805 Z M445.565374,-1.15565346e-14 L445.565374,8.07366824 L26.7394882,8.07366824 L26.7394882,-1.15565346e-14 L445.565374,-1.15565346e-14 Z" id="Shape" fill="#005697"></path>
                    <polygon id="path987" fill="#FFFFFF" points="23.7235056 6.41233443 442.472754 6.41233443 231.867027 110.359507"></polygon>
                </g>
                <g id="Group-2" transform="translate(0, 164.2702)" fill="#005697">
                    <path d="M1.15565346e-14,157.320323 L6.68247564,134.941436 C15.4343603,139.330987 24.1431334,143.289423 36.1284746,143.289423 C46.4755333,143.289423 57.29683,140.154031 57.29683,131.374914 C57.29683,114.012636 17.2450953,112.327376 17.2450953,85.3237489 C17.2450953,60.0445859 44.1905573,51.0303392 68.5492562,51.0303392 C79.8447924,51.0303392 91.3558941,52.9115711 102.177192,55.4198903 L95.4947167,76.5446318 C87.4326355,73.8403563 78.9394234,71.5279935 70.1875403,71.5279935 C61.0045261,71.5279935 49.4934244,73.8403563 49.4934244,82.423517 C49.4934244,96.0232861 89.5451592,101.039924 89.5451592,127.377291 C89.5451592,155.439106 62.5996971,163.787092 36.1284746,163.787092 C23.7120069,163.787092 11.2524247,162.101816 1.15565346e-14,157.320323" id="path1001"></path>
                    <path d="M115.024786,129.258508 C115.024786,121.106478 117.309761,112.523332 118.948045,105.860621 L131.364515,53.5386434 L162.190116,53.5386434 L150.679029,104.371287 C149.083858,111.700288 147.230004,119.029275 147.230004,126.985348 C147.230004,135.960436 154.128036,142.035248 164.043968,142.035248 C185.427886,142.035248 193.274403,123.849942 197.197672,107.741838 L209.829706,53.5386434 L240.655313,53.5386434 L218.797153,145.797742 C217.417543,152.303699 216.296614,157.94741 215.82237,161.278773 L185.686568,161.278773 L187.755983,150.814365 L187.28174,150.814365 C178.745417,157.94741 167.018749,163.787092 153.696913,163.787092 C130.416034,163.787092 115.024786,150.618409 115.024786,129.258508" id="path1007"></path>
                    <path d="M252.597541,119.029275 C252.597541,86.8130531 271.912044,51.0303242 312.222457,51.0303242 C327.398153,51.0303242 339.1248,56.2429339 348.782071,66.3153838 L363.742185,4.39127508 L394.567793,4.39127508 L362.621257,137.449756 C360.7674,146.659974 358.913543,155.831018 358.22376,161.278773 L329.467545,161.278773 L332.442331,145.405814 L332.011215,145.405814 C322.785076,157.124366 311.273978,163.787092 293.339078,163.787092 C265.272694,163.787092 252.597541,142.466379 252.597541,119.029275 M284.802766,116.520955 C284.802766,127.377261 288.510451,142.035248 303.686146,142.035248 C326.234108,142.035248 339.599047,118.167043 339.599047,98.3356489 C339.599047,85.7548648 332.916578,72.7821531 317.266666,72.7821531 C295.149819,72.7821531 284.802766,100.412837 284.802766,116.520955" id="path1013"></path>
                    <path d="M532.873454,161.278773 L545.979727,104.802403 C547.574902,98.3356489 548.954512,92.0256627 548.954512,84.0696043 C548.954512,72.3902254 543.436072,63.3759637 529.424421,63.3759637 C505.453748,63.3759637 493.295954,87.8712563 488.898472,107.114766 L476.697563,161.278773 L461.521868,161.278773 L474.62814,104.802403 C476.223316,98.3356489 477.602926,92.0256627 477.602926,84.0696043 C477.602926,72.3902254 472.084486,63.3759637 458.072835,63.3759637 C434.145278,63.3759637 421.944368,87.8712563 417.546886,107.114766 L405.345976,161.278773 L390.170281,161.278773 L410.217705,72.5861967 C411.597315,67.3736021 412.718244,60.2405722 413.192491,54.5968616 L427.678373,54.5968616 C426.988576,61.2987605 426.083198,66.9424711 425.177835,70.7049499 L425.608951,70.7049499 C436.688917,57.3011371 445.87194,52.0885275 461.996115,52.0885275 C478.55139,52.0885275 490.7523,60.4365286 491.442097,75.9175445 L491.916344,75.9175445 C499.504192,61.0636159 513.084711,52.0885275 531.709394,52.0885275 C551.972399,52.0885275 564.863106,64.003036 564.863106,83.442517 C564.863106,87.6360967 563.224814,95.7881565 561.414088,103.548259 L548.049134,161.278773 L532.873454,161.278773" id="path1019"></path>
                    <polygon id="path1025" points="696.960544 161.278773 721.79348 54.5968616 737.012276 54.5968616 712.136225 161.278773"></polygon>
                    <path d="M578.874757,133.883233 C578.874757,102.725215 617.503762,96.2192574 646.303063,96.2192574 C652.29575,96.2192574 657.555494,96.6503734 662.168571,97.0423011 C662.642803,93.9068946 662.858369,90.7715032 662.858369,86.3819521 C662.858369,71.7631381 653.890926,63.3759487 637.766737,63.3759487 C624.186247,63.3759487 610.864409,69.0196593 603.017894,72.5861967 L604.656156,59.182369 C612.933816,56.0469626 626.255654,52.0885275 640.094841,52.0885275 C665.402008,52.0885275 678.723846,64.6301233 678.723846,86.8130531 C678.723846,91.0066628 677.818483,98.7275616 675.749061,107.114766 L669.540838,135.960421 C667.255865,144.151654 665.617589,153.949771 665.143342,161.278773 L650.657459,161.278773 C651.347256,155.635062 651.821503,150.187308 652.985548,145.60177 L652.511316,145.60177 C642.595379,159.005598 629.704657,163.787092 612.459584,163.787092 C594.266002,163.787092 578.874757,151.441452 578.874757,133.883233 M594.740249,133.687262 C594.740249,145.797742 605.7771,152.499656 617.503762,152.499656 C644.664787,152.499656 657.124363,130.316711 660.314714,107.93781 C655.486101,107.93781 650.91614,107.506679 646.044412,107.506679 C626.514321,107.506679 594.740249,110.250157 594.740249,133.687262" id="path1031"></path>
                    <polygon id="path1037" points="747.962909 161.278773 784.781189 4.39129008 800 4.39129008 763.181705 161.278773"></polygon>
                    <path d="M207.425919,13.3951175 C207.425919,6.00514521 214.022168,-4.62261386e-14 222.16569,-4.62261386e-14 C230.294838,-4.62261386e-14 236.900665,6.00514521 236.900665,13.3951175 C236.900665,20.7937701 230.294838,26.7945827 222.16569,26.7945827 C214.022168,26.7945827 207.425919,20.7937701 207.425919,13.3951175" id="path1043"></path>
                    <path d="M157.901837,13.3951175 C157.901837,6.00514521 164.498086,-4.62261386e-14 172.636811,-4.62261386e-14 C180.765959,-4.62261386e-14 187.362208,6.00514521 187.362208,13.3951175 C187.362208,20.7937701 180.765959,26.7945827 172.636811,26.7945827 C164.498086,26.7945827 157.901837,20.7937701 157.901837,13.3951175" id="path1049"></path>
                    <path d="M726.272411,17.2398857 C726.272411,11.9619572 730.986082,7.67689824 736.791928,7.67689824 C742.612136,7.67689824 747.32101,11.9619572 747.32101,17.2398857 C747.32101,22.5265093 742.612136,26.8071907 736.791928,26.8071907 C730.986082,26.8071907 726.272411,22.5265093 726.272411,17.2398857" id="path1055"></path>
                </g>
            </g>
        </g>
    </g>
</svg>