<?xml version="1.0" encoding="UTF-8"?>
<svg width="980px" height="680px" viewBox="0 0 980 680" version="1.1" xmlns="http://www.w3.org/2000/svg" xmlns:xlink="http://www.w3.org/1999/xlink">
    <title>DE Schenker text heritage</title>
    <defs>
        <linearGradient x1="50%" y1="0%" x2="50%" y2="100%" id="linearGradient-1">
            <stop stop-color="#FFFFFF" offset="0%"></stop>
            <stop stop-color="#EDEDED" offset="100%"></stop>
        </linearGradient>
        <rect id="path-2" x="0" y="0" width="900" height="600" rx="80"></rect>
        <filter x="-6.7%" y="-10.0%" width="113.3%" height="120.0%" filterUnits="objectBoundingBox" id="filter-3">
            <feMorphology radius="2.5" operator="dilate" in="SourceAlpha" result="shadowSpreadOuter1"></feMorphology>
            <feOffset dx="0" dy="0" in="shadowSpreadOuter1" result="shadowOffsetOuter1"></feOffset>
            <feGaussianBlur stdDeviation="17.5" in="shadowOffsetOuter1" result="shadowBlurOuter1"></feGaussianBlur>
            <feColorMatrix values="0 0 0 0 0   0 0 0 0 0   0 0 0 0 0  0 0 0 0.5 0" type="matrix" in="shadowBlurOuter1"></feColorMatrix>
        </filter>
    </defs>
    <g id="DE-Schenker-text-heritage" stroke="none" stroke-width="1" fill="none" fill-rule="evenodd">
        <g transform="translate(40, 40)">
            <g id="Rectangle">
                <use fill="black" fill-opacity="1" filter="url(#filter-3)" xlink:href="#path-2"></use>
                <use fill="url(#linearGradient-1)" fill-rule="evenodd" xlink:href="#path-2"></use>
            </g>
            <g id="Logo" transform="translate(50, 254)" fill-rule="nonzero">
                <path d="M36.0779343,1.27117517 L0,1.27117517 L0,35.5101737 C4.10579591,18.5343471 18.1823028,5.18064382 36.0779343,1.27117517" id="path8" fill="#EC0016"></path>
                <path d="M93.8753632,35.5101737 L93.8753632,1.27117517 L57.7938751,1.27117517 C75.6847682,5.18064382 89.7612751,18.5343471 93.8753632,35.5101737" id="path10" fill="#EC0016"></path>
                <path d="M0,56.1081235 L0,90.3516117 L36.0779343,90.3516117 C18.1823028,86.4387757 4.10579591,73.0760929 0,56.1081235" id="path12" fill="#EC0016"></path>
                <path d="M57.7938751,90.3527342 L93.8753632,90.3527342 L93.8753632,56.1081235 C89.7612751,73.0760929 75.6847682,86.4387757 57.7938751,90.3527342" id="path14" fill="#EC0016"></path>
                <path d="M64.1338115,55.990267 C68.1341787,60.6528948 70.9096778,64.1167536 70.9096778,68.85683 C70.9096778,78.3313706 60.0825068,86.3130621 46.984473,90.3673259 C56.3960565,83.1062427 57.979856,76.682502 57.979856,74.145781 C57.979856,71.1993684 57.5581413,69.1048899 54.3028824,65.0584832 L29.1077949,36.1780272 C25.1074277,31.5176442 22.8602566,27.9067454 22.8602566,23.1677914 C22.8602566,12.3822375 34.4159517,5.20982734 46.984473,1.27117517 C36.5802013,8.24940273 35.1006459,14.9907948 35.1006459,17.5263934 C35.1006459,20.4660714 35.681096,23.0645267 38.9363548,27.0974641 L64.1338115,55.990267" id="path16" fill="#003878"></path>
                <polyline id="polyline18" fill="#003878" points="356.046898 1.2666854 354.03783 36.4934336 320.663135 36.4934336 322.652065 1.2666854 301.81746 1.2666854 296.79479 90.3729381 317.637687 90.3729381 319.781798 52.3782457 353.176632 52.3782457 351.03252 90.3729381 371.888447 90.3729381 376.896902 1.2666854 356.046898 1.2666854"></polyline>
                <path d="M794.607737,25.6551249 C794.971407,18.5915917 792.30489,12.5292775 788.404029,8.65797195 C783.615908,3.90779356 775.555944,1.2666854 763.40203,1.2666854 L729.045308,1.2666854 L724.04396,90.3729381 L744.903441,90.3729381 L747.032153,52.3771232 L750.317026,52.3771232 C755.613337,52.3771232 757.486177,55.4716983 761.497206,62.4723748 L776.984562,90.3729381 L800,90.3729381 L781.281077,57.336076 C778.68919,52.992222 775.542913,49.7259131 771.507008,47.3553137 C785.313428,45.3450184 793.952658,38.3286278 794.607737,25.6551249 M749.066097,16.2479309 L760.452396,16.2479309 C767.856096,16.3018082 770.193296,16.9797637 772.095751,18.5388369 C775.359302,21.2124959 774.316861,27.0087911 774.122588,28.336641 C773.18676,34.7289534 767.852542,36.4945561 758.955071,36.4945561 L747.924151,36.4945561 L749.066097,16.2479309 Z" id="path20" fill="#003878"></path>
                <path d="M213.709876,45.9601171 C212.785894,61.1512595 216.954473,73.1816026 224.619968,80.8029899 C231.694352,87.8317274 242.124684,91.545891 254.787973,91.545891 C263.816933,91.545891 272.228721,90.0732459 281.953037,85.5385765 L282.852142,68.8826462 C280.417806,70.1386598 269.800307,75.7138338 255.867136,75.6880176 C249.38031,75.6745483 244.297226,73.8820069 240.755296,70.3564138 C236.20054,65.8183771 233.980614,57.1048528 234.889196,44.8893066 C236.292938,26.0042047 243.903941,16.8473154 259.334437,15.2613036 C272.327042,13.9255965 283.65648,19.7802587 284.29616,20.090053 L285.151435,4.12442505 C276.990781,0.91536077 268.009204,-0.182388395 259.558325,0.0241411006 C231.754766,0.704341503 215.466626,17.071804 213.709876,45.9601171" id="path22" fill="#003878"></path>
                <polyline id="polyline24" fill="#003878" points="641.867628 1.2666854 619.552283 1.2666854 589.200667 36.1836394 591.176566 1.2666854 570.294578 1.2666854 565.300338 90.3729381 586.137312 90.3729381 588.141642 54.956497 613.852027 90.3729381 637.997566 90.3729381 603.626628 44.3101261 641.867628 1.2666854"></polyline>
                <polyline id="polyline26" fill="#003878" points="709.986407 17.3569045 710.896173 1.2666854 652.704275 1.2666854 647.662652 90.3729381 708.16332 90.3729381 711.084524 74.3702696 669.417684 74.3702696 670.648475 52.3782457 700.22063 52.3782457 701.111443 36.4934336 671.544027 36.4934336 672.614898 17.3569045 709.986407 17.3569045"></polyline>
                <polyline id="polyline28" fill="#003878" points="453.787585 17.3569045 454.696167 1.2666854 396.505454 1.2666854 391.46383 90.3729381 451.964498 90.3729381 454.885702 74.3702696 413.220047 74.3702696 414.450838 52.3782457 444.021808 52.3782457 444.912622 36.4934336 415.34639 36.4934336 416.417261 17.3569045 453.787585 17.3569045"></polyline>
                <polyline id="polyline30" fill="#003878" points="531.026538 1.2666854 528.050843 54.2246643 490.160483 1.2666854 472.658136 1.2666854 467.66508 90.3729381 487.825652 90.3729381 490.949421 34.4640569 531.109459 90.3729381 545.50936 90.3729381 550.507153 1.2666854 531.026538 1.2666854"></polyline>
                <path d="M179.019099,37.2690417 C166.347518,32.5076389 160.464834,30.2515286 160.832057,23.6470746 C161.166112,17.6711885 166.789371,14.6933475 176.463934,15.0199784 C183.383136,15.2545689 191.047446,16.8147646 198.67148,20.0361757 C198.747294,18.6432241 199.488849,4.73166666 199.531494,3.97065037 C192.577939,1.39913366 183.71956,0.0241411006 176.107371,0.0241411006 C154.864083,0.0241411006 141.773157,9.3471519 141.260228,25.642778 C140.826668,39.4286218 150.086623,46.2429727 164.466386,51.8944728 C176.176078,56.4572032 182.350171,59.0646381 181.973471,65.8329688 C181.597955,72.6091567 175.072038,75.975363 163.975965,75.975363 C153.55037,75.975363 145.59465,73.9515984 139.001211,71.16794 C138.91829,72.660789 138.102106,87.1324455 138.063014,87.8440743 C147.142912,90.5805901 155.399518,91.5470134 165.391552,91.5470134 C188.683,91.5470134 201.58913,81.5516593 202.558126,64.0785906 C203.475001,47.6134755 191.79137,42.0023834 179.019099,37.2690417" id="path32" fill="#003878"></path>
            </g>
        </g>
    </g>
</svg>