<?xml version="1.0" encoding="UTF-8"?>
<svg width="980px" height="680px" viewBox="0 0 980 680" version="1.1" xmlns="http://www.w3.org/2000/svg" xmlns:xlink="http://www.w3.org/1999/xlink">
    <title>DE Schenker DB Logistics heritage</title>
    <defs>
        <linearGradient x1="50%" y1="0%" x2="50%" y2="100%" id="linearGradient-1">
            <stop stop-color="#FFFFFF" offset="0%"></stop>
            <stop stop-color="#EDEDED" offset="100%"></stop>
        </linearGradient>
        <rect id="path-2" x="0" y="0" width="900" height="600" rx="80"></rect>
        <filter x="-6.7%" y="-10.0%" width="113.3%" height="120.0%" filterUnits="objectBoundingBox" id="filter-3">
            <feMorphology radius="2.5" operator="dilate" in="SourceAlpha" result="shadowSpreadOuter1"></feMorphology>
            <feOffset dx="0" dy="0" in="shadowSpreadOuter1" result="shadowOffsetOuter1"></feOffset>
            <feGaussianBlur stdDeviation="17.5" in="shadowOffsetOuter1" result="shadowBlurOuter1"></feGaussianBlur>
            <feColorMatrix values="0 0 0 0 0   0 0 0 0 0   0 0 0 0 0  0 0 0 0.5 0" type="matrix" in="shadowBlurOuter1"></feColorMatrix>
        </filter>
    </defs>
    <g id="DE-Schenker-DB-Logistics-heritage" stroke="none" stroke-width="1" fill="none" fill-rule="evenodd">
        <g transform="translate(40, 40)">
            <g id="Rectangle">
                <use fill="black" fill-opacity="1" filter="url(#filter-3)" xlink:href="#path-2"></use>
                <use fill="url(#linearGradient-1)" fill-rule="evenodd" xlink:href="#path-2"></use>
            </g>
            <g id="Logo" transform="translate(50, 216)" fill-rule="nonzero">
                <path d="M36.0779343,1.27117517 L0,1.27117517 L0,35.5101737 C4.10579591,18.5343471 18.1823028,5.18064382 36.0779343,1.27117517" id="path8" fill="#EC0016"></path>
                <path d="M93.8753632,35.5101737 L93.8753632,1.27117517 L57.7938751,1.27117517 C75.6847682,5.18064382 89.7612751,18.5343471 93.8753632,35.5101737" id="path10" fill="#EC0016"></path>
                <path d="M0,56.1081235 L0,90.3516117 L36.0779343,90.3516117 C18.1823028,86.4387757 4.10579591,73.0760929 0,56.1081235" id="path12" fill="#EC0016"></path>
                <path d="M57.7938751,90.3527342 L93.8753632,90.3527342 L93.8753632,56.1081235 C89.7612751,73.0760929 75.6847682,86.4387757 57.7938751,90.3527342" id="path14" fill="#EC0016"></path>
                <path d="M64.1338115,55.990267 C68.1341787,60.6528948 70.9096778,64.1167536 70.9096778,68.85683 C70.9096778,78.3313706 60.0825068,86.3130621 46.984473,90.3673259 C56.3960565,83.1062427 57.979856,76.682502 57.979856,74.145781 C57.979856,71.1993684 57.5581413,69.1048899 54.3028824,65.0584832 L29.1077949,36.1780272 C25.1074277,31.5176442 22.8602566,27.9067454 22.8602566,23.1677914 C22.8602566,12.3822375 34.4159517,5.20982734 46.984473,1.27117517 C36.5802013,8.24940273 35.1006459,14.9907948 35.1006459,17.5263934 C35.1006459,20.4660714 35.681096,23.0645267 38.9363548,27.0974641 L64.1338115,55.990267" id="path16" fill="#003878"></path>
                <polyline id="polyline18" fill="#003878" points="356.046898 1.2666854 354.03783 36.4934336 320.663135 36.4934336 322.652065 1.2666854 301.81746 1.2666854 296.79479 90.3729381 317.637687 90.3729381 319.781798 52.3782457 353.176632 52.3782457 351.03252 90.3729381 371.888447 90.3729381 376.896902 1.2666854 356.046898 1.2666854"></polyline>
                <path d="M794.607737,25.6551249 C794.971407,18.5915917 792.30489,12.5292775 788.404029,8.65797195 C783.615908,3.90779356 775.555944,1.2666854 763.40203,1.2666854 L729.045308,1.2666854 L724.04396,90.3729381 L744.903441,90.3729381 L747.032153,52.3771232 L750.317026,52.3771232 C755.613337,52.3771232 757.486177,55.4716983 761.497206,62.4723748 L776.984562,90.3729381 L800,90.3729381 L781.281077,57.336076 C778.68919,52.992222 775.542913,49.7259131 771.507008,47.3553137 C785.313428,45.3450184 793.952658,38.3286278 794.607737,25.6551249 M749.066097,16.2479309 L760.452396,16.2479309 C767.856096,16.3018082 770.193296,16.9797637 772.095751,18.5388369 C775.359302,21.2124959 774.316861,27.0087911 774.122588,28.336641 C773.18676,34.7289534 767.852542,36.4945561 758.955071,36.4945561 L747.924151,36.4945561 L749.066097,16.2479309 Z" id="path20" fill="#003878"></path>
                <path d="M213.709876,45.9601171 C212.785894,61.1512595 216.954473,73.1816026 224.619968,80.8029899 C231.694352,87.8317274 242.124684,91.545891 254.787973,91.545891 C263.816933,91.545891 272.228721,90.0732459 281.953037,85.5385765 L282.852142,68.8826462 C280.417806,70.1386598 269.800307,75.7138338 255.867136,75.6880176 C249.38031,75.6745483 244.297226,73.8820069 240.755296,70.3564138 C236.20054,65.8183771 233.980614,57.1048528 234.889196,44.8893066 C236.292938,26.0042047 243.903941,16.8473154 259.334437,15.2613036 C272.327042,13.9255965 283.65648,19.7802587 284.29616,20.090053 L285.151435,4.12442505 C276.990781,0.91536077 268.009204,-0.182388395 259.558325,0.0241411006 C231.754766,0.704341503 215.466626,17.071804 213.709876,45.9601171" id="path22" fill="#003878"></path>
                <polyline id="polyline24" fill="#003878" points="641.867628 1.2666854 619.552283 1.2666854 589.200667 36.1836394 591.176566 1.2666854 570.294578 1.2666854 565.300338 90.3729381 586.137312 90.3729381 588.141642 54.956497 613.852027 90.3729381 637.997566 90.3729381 603.626628 44.3101261 641.867628 1.2666854"></polyline>
                <polyline id="polyline26" fill="#003878" points="709.986407 17.3569045 710.896173 1.2666854 652.704275 1.2666854 647.662652 90.3729381 708.16332 90.3729381 711.084524 74.3702696 669.417684 74.3702696 670.648475 52.3782457 700.22063 52.3782457 701.111443 36.4934336 671.544027 36.4934336 672.614898 17.3569045 709.986407 17.3569045"></polyline>
                <polyline id="polyline28" fill="#003878" points="453.787585 17.3569045 454.696167 1.2666854 396.505454 1.2666854 391.46383 90.3729381 451.964498 90.3729381 454.885702 74.3702696 413.220047 74.3702696 414.450838 52.3782457 444.021808 52.3782457 444.912622 36.4934336 415.34639 36.4934336 416.417261 17.3569045 453.787585 17.3569045"></polyline>
                <polyline id="polyline30" fill="#003878" points="531.026538 1.2666854 528.050843 54.2246643 490.160483 1.2666854 472.658136 1.2666854 467.66508 90.3729381 487.825652 90.3729381 490.949421 34.4640569 531.109459 90.3729381 545.50936 90.3729381 550.507153 1.2666854 531.026538 1.2666854"></polyline>
                <path d="M179.019099,37.2690417 C166.347518,32.5076389 160.464834,30.2515286 160.832057,23.6470746 C161.166112,17.6711885 166.789371,14.6933475 176.463934,15.0199784 C183.383136,15.2545689 191.047446,16.8147646 198.67148,20.0361757 C198.747294,18.6432241 199.488849,4.73166666 199.531494,3.97065037 C192.577939,1.39913366 183.71956,0.0241411006 176.107371,0.0241411006 C154.864083,0.0241411006 141.773157,9.3471519 141.260228,25.642778 C140.826668,39.4286218 150.086623,46.2429727 164.466386,51.8944728 C176.176078,56.4572032 182.350171,59.0646381 181.973471,65.8329688 C181.597955,72.6091567 175.072038,75.975363 163.975965,75.975363 C153.55037,75.975363 145.59465,73.9515984 139.001211,71.16794 C138.91829,72.660789 138.102106,87.1324455 138.063014,87.8440743 C147.142912,90.5805901 155.399518,91.5470134 165.391552,91.5470134 C188.683,91.5470134 201.58913,81.5516593 202.558126,64.0785906 C203.475001,47.6134755 191.79137,42.0023834 179.019099,37.2690417" id="path32" fill="#003878"></path>
                <polyline id="polyline34" fill="#EC0016" points="548.806079 115.908514 557.150345 115.908514 557.150345 150.319247 573.412425 150.319247 572.644809 157.187475 548.806079 157.187475 548.806079 115.908514"></polyline>
                <path d="M578.034703,146.975489 C577.811999,145.832842 577.688802,144.577951 577.720786,143.336529 L577.720786,140.194812 C577.771723,131.499246 583.431704,125.629992 593.064806,125.629992 C601.147277,125.629992 606.190086,129.70446 607.514459,136.390853 C607.754932,137.530132 607.8189,138.725534 607.836668,139.97369 L607.836668,143.173775 C607.7881,151.867095 602.158919,158.060735 592.638353,158.060735 C584.497837,158.060735 579.388691,153.768514 578.034703,146.975489 M599.205731,143.766425 L599.205731,139.485428 C599.230607,138.178904 599.108595,137.096869 598.922614,136.171976 C598.288857,133.022401 595.820167,131.66649 592.89304,131.66649 C589.050224,131.66649 586.614703,134.052804 586.574426,139.595427 L586.574426,143.825914 C586.59338,145.069581 586.673932,146.101106 586.852806,147.029366 C587.524469,150.400062 589.814286,151.917605 592.79235,151.917605 C596.519076,151.917605 599.154794,149.255171 599.205731,143.766425 Z" id="path36" fill="#EC0016"></path>
                <path d="M669.912844,156.104317 L669.961412,149.747923 C673.312623,150.99608 675.752882,151.668423 679.827879,151.755973 C683.129337,151.826687 685.25331,150.957917 685.25331,148.412216 C685.25331,145.929372 683.663588,145.353559 680.815829,144.59591 C674.934329,143.291632 671.160219,141.884088 670.244529,137.321358 C670.094086,136.554729 670.047887,135.735346 670.032487,134.81831 C670.089348,129.057933 673.935718,125.632237 682.308414,125.632237 C686.035141,125.632237 688.865131,126.230499 691.557709,127.104882 L691.557709,133.624031 C688.473031,132.478017 685.955773,131.829245 682.798836,131.829245 C679.24506,131.829245 678.004792,132.779954 677.827103,134.071885 C677.495417,136.412179 678.666979,136.808401 681.774163,137.670437 C689.690792,139.861446 692.443784,141.39807 693.250491,145.850801 C693.380796,146.55794 693.421072,147.610792 693.426995,148.479563 C693.417518,154.182695 689.405305,157.844104 680.685523,157.844104 C676.051399,157.841859 673.012921,157.299719 669.912844,156.104317" id="path38" fill="#EC0016"></path>
                <path d="M775.438669,156.104317 L775.438669,149.747923 C778.785142,150.99608 781.256201,151.668423 785.332382,151.755973 C788.63384,151.826687 790.755444,150.957917 790.755444,148.412216 C790.755444,145.929372 789.168091,145.353559 786.317962,144.59591 C780.441201,143.291632 776.664722,141.884088 775.746663,137.321358 C775.598589,136.554729 775.55239,135.735346 775.535806,134.81831 C775.593851,129.057933 779.439036,125.632237 787.810548,125.632237 C791.540828,125.632237 794.369634,126.230499 797.059843,127.104882 L797.059843,133.624031 C793.97398,132.478017 791.459092,131.829245 788.303338,131.829245 C784.749562,131.829245 783.50811,132.779954 783.329237,134.071885 C782.997551,136.412179 784.166743,136.808401 787.276297,137.670437 C795.197664,139.861446 797.948287,141.39807 798.752625,145.850801 C798.884114,146.55794 798.920837,147.610792 798.92676,148.479563 C798.917283,154.182695 794.908624,157.844104 786.195949,157.844104 C781.551164,157.841859 778.541116,157.299719 775.438669,156.104317" id="path40" fill="#EC0016"></path>
                <path d="M703.491289,151.211589 C703.299385,150.286696 703.243709,149.199049 703.238971,148.005892 L703.238971,132.585771 L698.677107,132.585771 L698.677107,126.50213 L699.33574,126.50213 C701.918151,126.50213 703.627517,125.851114 704.460285,123.135924 L705.379528,119.980737 L711.601006,119.980737 L711.601006,126.671619 L719.264131,126.671619 L719.264131,132.585771 L711.601006,132.585771 L711.601006,147.737628 C711.618775,150.400062 713.260619,151.212711 715.844214,151.212711 C717.501459,151.212711 718.682497,150.832203 719.719015,150.506695 L719.708353,156.811456 C718.70145,157.187475 716.405711,157.789104 713.484507,157.789104 C707.287906,157.789104 704.448439,156.043705 703.491289,151.211589" id="path42" fill="#EC0016"></path>
                <path d="M744.517264,147.462629 C744.262577,146.154983 744.155963,144.80244 744.145302,143.275917 L744.166625,140.194812 C744.198609,130.577721 750.038647,125.629992 759.841146,125.629992 C764.144769,125.629992 765.939426,126.269785 768.892614,127.345085 L768.892614,133.873213 C765.857689,132.409548 763.80716,131.949346 760.593362,131.949346 C755.714028,131.949346 753.087787,133.89005 753.064095,139.808691 L753.064095,143.71367 C753.030927,144.960704 753.132802,146.047229 753.316413,146.973244 C753.988077,150.284451 756.438998,151.769443 760.51281,151.769443 C763.601041,151.769443 765.616032,150.923121 768.892614,149.575067 L768.892614,155.989828 C766.585029,157.078598 763.948127,158.058491 759.937098,158.058491 C751.278915,158.060735 745.913898,154.472285 744.517264,147.462629" id="path44" fill="#EC0016"></path>
                <path d="M662.502036,117.765035 C662.502036,120.272572 660.357924,122.305316 657.712731,122.305316 C655.067537,122.305316 652.923425,120.272572 652.923425,117.765035 C652.923425,115.256375 655.067537,113.222508 657.712731,113.222508 C660.357924,113.222508 662.502036,115.256375 662.502036,117.765035" id="path46" fill="#EC0016"></path>
                <path d="M653.643657,132.585771 L649.415848,132.585771 L649.415848,126.671619 L651.595497,126.671619 C656.053117,126.671619 657.96031,126.087949 659.20887,125.130505 L661.999769,125.130505 L661.999769,157.187475 L653.643657,157.187475 L653.643657,132.585771" id="path48" fill="#EC0016"></path>
                <path d="M737.888287,117.765035 C737.888287,120.272572 735.740622,122.305316 733.094243,122.305316 C730.447865,122.305316 728.304938,120.272572 728.304938,117.765035 C728.304938,115.256375 730.447865,113.222508 733.094243,113.222508 C735.740622,113.223631 737.888287,115.256375 737.888287,117.765035" id="path50" fill="#EC0016"></path>
                <path d="M729.028723,132.585771 L724.803284,132.585771 L724.803284,126.671619 L726.980564,126.671619 C731.436999,126.671619 733.345377,126.087949 734.592752,125.130505 L737.387205,125.130505 L737.387205,157.187475 L729.028723,157.187475 L729.028723,132.585771" id="path52" fill="#EC0016"></path>
                <path d="M522.880099,151.248629 C522.880099,154.564326 520.041816,157.194209 516.677575,157.194209 L466.752944,157.194209 C463.324735,157.194209 460.478161,154.564326 460.478161,151.248629 L460.478161,121.778891 C460.478161,118.462072 463.324735,115.900657 466.752944,115.900657 L516.678759,115.900657 C520.044185,115.900657 522.881283,118.462072 522.881283,121.778891 L522.881283,151.248629" id="path54" fill="#EC0016"></path>
                <path d="M518.324158,151.248629 L518.324158,121.778891 C518.324158,120.841651 517.660786,120.094104 516.677575,120.094104 L466.752944,120.094104 C465.764995,120.094104 465.037655,120.841651 465.037655,121.778891 L465.037655,151.248629 C465.037655,152.189236 465.764995,152.942396 466.752944,152.942396 L516.678759,152.942396 C517.660786,152.942396 518.324158,152.189236 518.324158,151.248629" id="path56" fill="#FFFFFF"></path>
                <path d="M479.567861,123.030415 L469.059345,123.030415 L469.059345,150.064452 L479.567861,150.064452 C488.28172,150.001595 490.918623,144.241218 490.918623,136.423403 C490.920991,127.413554 486.956161,123.030415 479.567861,123.030415 M478.377346,145.683557 L475.931163,145.683557 L475.931163,127.291208 L477.323059,127.291208 C483.526767,127.291208 484.121433,131.543022 484.121433,136.983502 C484.121433,142.926838 482.004567,145.683557 478.377346,145.683557 Z" id="path58" fill="#EC0016"></path>
                <path d="M509.211091,135.922794 C511.718873,134.735249 514.033565,132.854035 514.033565,130.225274 C514.033565,125.156321 511.060239,123.030415 505.583871,123.030415 L493.954731,123.030415 L493.954731,150.064452 L505.051989,150.064452 C510.206149,150.064452 515.087852,147.744363 515.087852,142.239902 C515.087852,138.863594 512.71393,136.861156 509.211091,135.922794 M500.759027,127.224984 L502.669774,127.224984 C504.921684,127.224984 507.032627,127.910796 507.032627,130.483435 C507.032627,132.792301 505.378936,133.731785 503.141242,133.731785 L500.759027,133.731785 L500.759027,127.224984 L500.759027,127.224984 Z M503.202841,145.683557 L500.759027,145.683557 L500.759027,138.740126 L503.269178,138.740126 C505.973601,138.740126 507.828672,139.360836 507.828672,142.116434 C507.827488,144.932643 505.650208,145.683557 503.202841,145.683557 Z" id="path60" fill="#EC0016"></path>
                <path d="M644.179951,131.513838 L644.179951,126.671619 L634.195025,126.671619 C632.41103,126.109275 630.271657,125.770298 627.83732,125.770298 C618.92208,125.770298 614.286772,129.99405 614.286772,135.905957 L614.286772,136.356057 C614.286772,139.621243 615.595746,142.324086 618.210141,144.070607 C615.832665,145.761006 613.990624,148.17987 613.990624,151.054447 C613.990624,153.135456 615.060311,154.769733 617.021995,155.895543 C614.464461,156.854109 611.91048,158.711752 611.91048,161.529084 C611.91048,167.10089 618.688716,168.792412 627.838505,168.792412 C637.703787,168.792412 644.121906,165.695592 644.121906,158.880119 L644.121906,158.486141 C644.121906,152.235257 640.019664,150.49098 632.412214,150.49098 L624.627076,150.49098 C622.192739,150.49098 621.239142,148.97007 621.239142,147.843137 C621.239142,147.056305 621.477245,146.379472 622.013866,145.762128 C623.678217,146.211106 625.579488,146.436717 627.717676,146.436717 C636.454042,146.436717 640.970892,142.215209 640.970892,136.244935 L640.970892,135.794835 C640.970892,134.386169 640.732789,133.034748 640.255398,131.91006 C641.028937,131.685572 641.981349,131.514961 643.16831,131.514961 L644.179951,131.514961 M622.6263,157.136965 C623.149889,157.187475 623.737447,157.187475 624.38068,157.187475 L630.944505,157.187475 C634.461559,157.187475 635.750395,158.181959 635.750395,159.682665 L635.750395,160.165316 C635.750395,162.093673 633.756726,163.111728 628.191513,163.111728 C623.149889,163.111728 621.219004,162.199182 621.219004,160.431335 C621.220189,159.146138 621.862238,157.779002 622.6263,157.136965 Z M632.180034,136.647892 C632.180034,139.92318 630.775108,141.473274 627.718861,141.473274 C624.664983,141.473274 623.135674,140.154404 623.135674,136.647892 L623.135674,135.727489 C623.135674,132.451078 624.537047,131.016596 627.718861,131.016596 C630.775108,131.016596 632.180034,132.338834 632.180034,135.671367 L632.180034,136.647892 Z" id="path62" fill="#EC0016"></path>
            </g>
        </g>
    </g>
</svg>