<?xml version="1.0" encoding="UTF-8"?>
<svg width="980px" height="680px" viewBox="0 0 980 680" version="1.1" xmlns="http://www.w3.org/2000/svg" xmlns:xlink="http://www.w3.org/1999/xlink">
    <title>DE trans-o-flex text</title>
    <defs>
        <linearGradient x1="50%" y1="0%" x2="50%" y2="100%" id="linearGradient-1">
            <stop stop-color="#FFFFFF" offset="0%"></stop>
            <stop stop-color="#EDEDED" offset="100%"></stop>
        </linearGradient>
        <rect id="path-2" x="0" y="0" width="900" height="600" rx="80"></rect>
        <filter x="-6.7%" y="-10.0%" width="113.3%" height="120.0%" filterUnits="objectBoundingBox" id="filter-3">
            <feMorphology radius="2.5" operator="dilate" in="SourceAlpha" result="shadowSpreadOuter1"></feMorphology>
            <feOffset dx="0" dy="0" in="shadowSpreadOuter1" result="shadowOffsetOuter1"></feOffset>
            <feGaussianBlur stdDeviation="17.5" in="shadowOffsetOuter1" result="shadowBlurOuter1"></feGaussianBlur>
            <feColorMatrix values="0 0 0 0 0   0 0 0 0 0   0 0 0 0 0  0 0 0 0.5 0" type="matrix" in="shadowBlurOuter1"></feColorMatrix>
        </filter>
        <radialGradient cx="16.1729384%" cy="22.8149712%" fx="16.1729384%" fy="22.8149712%" r="60.9863021%" gradientTransform="translate(0.1617, 0.2281), scale(0.6542, 1), rotate(180), translate(-0.1617, -0.2281)" id="radialGradient-4">
            <stop stop-color="#F29000" offset="0%"></stop>
            <stop stop-color="#EE7C00" offset="100%"></stop>
        </radialGradient>
        <linearGradient x1="49.990293%" y1="99.9919722%" x2="49.990293%" y2="0.0076790597%" id="linearGradient-5">
            <stop stop-color="#636A6D" offset="0%"></stop>
            <stop stop-color="#92989B" offset="100%"></stop>
        </linearGradient>
        <linearGradient x1="50.0417163%" y1="99.9931249%" x2="50.0417163%" y2="-0.0176573509%" id="linearGradient-6">
            <stop stop-color="#636A6D" offset="0%"></stop>
            <stop stop-color="#92989B" offset="100%"></stop>
        </linearGradient>
        <linearGradient x1="50.0069075%" y1="99.9959326%" x2="50.0069075%" y2="0.0107457659%" id="linearGradient-7">
            <stop stop-color="#636A6D" offset="0%"></stop>
            <stop stop-color="#92989B" offset="100%"></stop>
        </linearGradient>
        <linearGradient x1="50.0042745%" y1="99.9995597%" x2="50.0042745%" y2="0.0599877383%" id="linearGradient-8">
            <stop stop-color="#636A6D" offset="0%"></stop>
            <stop stop-color="#92989B" offset="100%"></stop>
        </linearGradient>
        <linearGradient x1="49.9572908%" y1="99.9934063%" x2="49.9572908%" y2="0.00737948866%" id="linearGradient-9">
            <stop stop-color="#636A6D" offset="0%"></stop>
            <stop stop-color="#92989B" offset="100%"></stop>
        </linearGradient>
        <linearGradient x1="50.0084858%" y1="100%" x2="50.0084858%" y2="0.0599880024%" id="linearGradient-10">
            <stop stop-color="#636A6D" offset="0%"></stop>
            <stop stop-color="#92989B" offset="100%"></stop>
        </linearGradient>
        <linearGradient x1="49.9531173%" y1="99.8551513%" x2="49.9531173%" y2="0.153491021%" id="linearGradient-11">
            <stop stop-color="#636A6D" offset="0%"></stop>
            <stop stop-color="#92989B" offset="100%"></stop>
        </linearGradient>
        <linearGradient x1="49.6635256%" y1="99.8562427%" x2="49.6635256%" y2="0.184411356%" id="linearGradient-12">
            <stop stop-color="#636A6D" offset="0%"></stop>
            <stop stop-color="#92989B" offset="100%"></stop>
        </linearGradient>
        <linearGradient x1="49.9813573%" y1="100.014999%" x2="49.9813573%" y2="0.0601932072%" id="linearGradient-13">
            <stop stop-color="#636A6D" offset="0%"></stop>
            <stop stop-color="#92989B" offset="100%"></stop>
        </linearGradient>
        <linearGradient x1="50.028549%" y1="100.067858%" x2="50.028549%" y2="0.0614507469%" id="linearGradient-14">
            <stop stop-color="#636A6D" offset="0%"></stop>
            <stop stop-color="#92989B" offset="100%"></stop>
        </linearGradient>
        <linearGradient x1="49.9946189%" y1="100.044632%" x2="49.9946189%" y2="0.0602293265%" id="linearGradient-15">
            <stop stop-color="#636A6D" offset="0%"></stop>
            <stop stop-color="#92989B" offset="100%"></stop>
        </linearGradient>
        <linearGradient x1="50.0170696%" y1="99.9874696%" x2="50.0170696%" y2="-0.00444506984%" id="linearGradient-16">
            <stop stop-color="#636A6D" offset="0%"></stop>
            <stop stop-color="#92989B" offset="100%"></stop>
        </linearGradient>
    </defs>
    <g id="DE-trans-o-flex-text" stroke="none" stroke-width="1" fill="none" fill-rule="evenodd">
        <g transform="translate(40, 40)">
            <g id="Rectangle">
                <use fill="black" fill-opacity="1" filter="url(#filter-3)" xlink:href="#path-2"></use>
                <use fill="url(#linearGradient-1)" fill-rule="evenodd" xlink:href="#path-2"></use>
            </g>
            <g id="Logo" transform="translate(63, 50)" fill-rule="nonzero">
                <path d="M281.695674,246.368605 C252.464027,246.368604 228.767096,222.671673 228.767096,193.440026 C228.767096,164.20838 252.464027,140.511448 281.695674,140.511448 C314.845678,140.511448 350.781397,168.368594 351.33854,229.320031 L351.33854,230.100031 L411.119977,230.100031 L411.119977,229.264317 C410.841405,175.054309 396.996404,134.382875 369.974971,108.3643 C348.162826,87.3600118 317.603536,76.2728675 281.612102,76.3283728 C217.930665,76.3283728 166.116372,128.978589 166.116372,193.523598 C166.116372,258.068606 217.930665,310.523613 281.612102,310.523613 L682.420728,310.523613 L617.903576,246.452176 L281.695674,246.452176 M90.9577907,193.635026 C90.9577907,300.300041 176.534945,387.019338 281.723531,386.935827 L617.903576,386.935827 L682.420728,322.864329 L281.695674,322.864329 C211.467807,322.864329 154.360656,264.977179 154.360656,193.718598 C154.360656,122.460017 211.467807,64.2942944 281.695674,64.2385801 C308.800677,64.2385801 347.549968,70.478581 378.164972,100.452871 C407.331405,129.034303 422.290693,172.380023 422.569264,229.292174 L422.569264,230.127888 L485.052844,230.127888 L485.052844,229.23646 C484.21713,71.5928668 379.195687,0 281.695674,0 C176.507088,0 90.9299335,86.9421546 90.9299335,193.635026" id="Shape" fill="url(#radialGradient-4)"></path>
                <g id="Trans-o-flex_logo" transform="translate(0, 396.6093)">
                    <path d="M111.89501,42.4118789 L112.146146,42.4118789 L112.146146,42.4118789 C113.34019,42.3845145 114.491892,41.9641852 115.422862,41.215997 C116.386891,40.389906 117.019744,39.2431258 117.204726,37.9871161 L118.938754,28.2406793 C119.213997,27.1290833 118.98659,25.9526888 118.316896,25.0237573 C117.640737,24.1642126 116.586271,23.6905967 115.494615,23.7561225 L110.160982,24.8324162 L110.160982,24.8324162 C108.67225,25.1296002 107.205804,25.5291769 105.772095,26.028298 C100.67468,27.980703 95.822471,30.5211894 91.3138843,33.5982299 L92.0912075,29.3767671 C92.3555974,28.3159212 92.1414029,27.1924931 91.5052254,26.3033508 C90.854137,25.4866855 89.8447975,25.0400751 88.8025325,25.107469 L73.8659686,25.107469 C72.7120528,25.0986771 71.5973406,25.5257699 70.7447171,26.3033508 C69.8242207,27.1110722 69.2150585,28.2151788 69.0226472,29.4246023 L56.6931057,97.6974952 C56.4249001,98.7604381 56.6345875,99.8875083 57.267129,100.78287 C57.9245154,101.598166 58.9365005,102.043975 59.9817807,101.978752 L74.9183446,101.978752 C76.0711981,101.981719 77.1838708,101.555408 78.0395961,100.78287 C78.9641228,99.9834037 79.5744598,98.8814063 79.761666,97.6735776 L87.8936623,52.6366684 C94.6145181,45.6846088 100.972623,42.208579 106.967977,42.208579 C108.163859,42.208579 109.766341,42.208579 111.89501,42.39992 L111.89501,42.4118789 Z" id="Path" fill="url(#linearGradient-5)"></path>
                    <path d="M562.826167,37.0184519 L538.717189,37.0184519 L538.908531,35.9301994 C540.303726,28.1968303 542.559956,23.1063601 545.677222,20.6587886 C548.690844,18.267025 554.466953,17.0711432 562.957714,16.9754726 L567.741241,16.9754726 C568.912221,16.9796355 570.044054,16.5541345 570.922287,15.7795908 C571.839503,14.9841972 572.448861,13.8924304 572.644357,12.6942157 L574.151168,4.32304301 C574.407064,3.24334694 574.184773,2.10574242 573.541268,1.20179147 C572.87268,0.38749514 571.854416,-0.057161511 570.802699,0.00590965211 L560.518115,0.00590965211 C546.342929,0.00590965211 535.942744,2.72853392 529.317558,8.17378246 C522.692373,13.619031 518.20383,22.8671837 515.851929,35.9182406 L504.670434,97.6974952 C504.402229,98.7604381 504.611916,99.8875083 505.244457,100.78287 C505.90434,101.601748 506.921679,102.04795 507.971068,101.978752 L522.895673,101.978752 C524.044828,101.981043 525.15352,101.554623 526.004966,100.78287 C526.928688,99.9927862 527.539475,98.8984605 527.727036,97.6974952 L535.619856,53.9999737 L559.740792,53.9999737 C560.911772,54.0041365 562.043604,53.5786356 562.921837,52.8040918 C563.838258,52.0080514 564.447444,50.9165937 564.643907,49.7187168 L566.150718,41.347544 C566.421487,40.2681922 566.197973,39.124326 565.540819,38.2262925 C564.885929,37.4065246 563.87355,36.9560827 562.826167,37.0184519 Z" id="Path" fill="url(#linearGradient-6)"></path>
                    <path d="M773.492708,26.1000509 C773.00392,25.4073701 772.184973,25.0251948 771.34012,25.0955102 L756.86995,25.0955102 C752.556803,25.0955102 748.722009,27.1484406 745.365567,31.2543015 L731.110656,48.9533524 L723.241754,31.2662603 C721.312398,27.1603994 718.21905,25.107469 713.961711,25.107469 L699.491541,25.107469 C698.560708,25.0923761 697.663411,25.4547459 697.004107,26.1120097 C696.33513,26.74272 695.911407,27.590166 695.808225,28.5037733 C695.713987,29.454744 695.892344,30.4128954 696.322454,31.2662603 L712.227682,63.4593988 L683.203631,95.7482079 C682.407665,96.5037751 681.861138,97.4841851 681.637025,98.5585301 C681.577012,98.9548987 681.577012,99.3580434 681.637025,99.754412 C681.644495,100.394038 681.926971,100.999489 682.412322,101.416157 C682.897672,101.832826 683.538911,102.020377 684.172295,101.930917 L698.403288,101.930917 C702.505163,101.930917 706.296108,99.8740001 709.847877,95.7601667 L725.90857,77.5708043 L735.475625,95.808002 C737.580377,99.9218354 740.677711,101.978752 744.767626,101.978752 L758.962744,101.978752 C760.42297,102.041126 761.760415,101.165533 762.287295,99.8022472 C762.484977,99.425255 762.629841,99.0228534 762.717813,98.6063654 C762.884543,97.630771 762.679744,96.6281104 762.143789,95.7960431 L744.779585,63.5072341 L772.284867,31.3021368 C772.997225,30.5058059 773.498809,29.543752 773.743843,28.5037733 C773.97831,27.7005768 773.888131,26.837438 773.492708,26.1000509 L773.492708,26.1000509 Z" id="Path" fill="url(#linearGradient-7)"></path>
                    <path d="M679.831244,72.0936655 C681.017148,72.0996626 682.160105,71.6501853 683.024248,70.8379896 C683.948738,70.0019679 684.560424,68.8756224 684.758277,67.6449852 L685.499724,63.5431106 C687.811762,50.7152849 686.169417,40.865205 680.572691,33.9928709 C674.975964,27.1205367 666.042726,23.6684245 653.772979,23.6365343 C641.598902,23.6365343 631.445866,27.0846602 623.313869,33.9809121 C615.181873,40.8771639 609.947897,50.8149418 607.611941,63.7942457 C605.268013,76.733687 606.914343,86.5678218 612.550933,93.2966502 C618.187522,100.025479 627.132718,103.385906 639.386521,103.378285 C663.678867,103.433742 677.016935,96.8364603 679.400726,83.5860898 C679.679248,82.4501424 679.471195,81.2495 678.826703,80.2734972 C678.205545,79.3940909 677.175014,78.8969047 676.100093,78.9580272 L666.174273,78.9580272 C662.975181,78.9893525 659.936898,80.3652606 657.803101,82.7489725 C654.789479,85.8742103 650.153443,87.4408155 643.894995,87.4487881 C638.314213,87.4487881 634.411652,86.2289886 632.187312,83.7893897 C629.962972,81.3497908 629.101937,77.4472298 629.604208,72.0817067 L679.831244,72.0936655 Z M650.938739,39.6135154 C660.784833,39.6135154 664.930556,45.1305169 663.37591,56.1645198 L632.378653,56.1645198 C634.93784,45.1305169 641.124536,39.6135154 650.938739,39.6135154 Z" id="Shape" fill="url(#linearGradient-8)"></path>
                    <path d="M603.211096,1.38117374 L588.274532,1.38117374 C587.12495,1.37656445 586.015449,1.80329569 585.165239,2.57705556 C584.240311,3.38292262 583.626796,4.48724943 583.431211,5.6983071 L566.856289,97.6974952 C566.597725,98.7607222 566.806665,99.8837756 567.430312,100.78287 C568.091453,101.6001 569.107893,102.045907 570.156922,101.978752 L585.081527,101.978752 C586.234592,101.98287 587.347666,101.556405 588.202779,100.78287 C589.122842,99.9880437 589.736209,98.8966721 589.936808,97.6974952 L606.499771,5.6983071 C606.755136,4.6234419 606.546822,3.49073656 605.925748,2.57705556 C605.272186,1.75677998 604.257468,1.30976768 603.211096,1.38117374 Z" id="Path" fill="url(#linearGradient-9)"></path>
                    <path d="M442.950974,23.6365343 C429.883972,23.6365343 419.316363,27.0089211 411.248147,33.7536945 C403.179931,40.498468 397.933996,50.4123282 395.510342,63.4952753 C393.118578,76.6101125 394.78484,86.5359316 400.509128,93.2727325 C406.233416,100.009533 415.585211,103.377934 428.564515,103.377934 C441.57571,103.377934 452.155277,100.009533 460.303219,93.2727325 C468.45116,86.5359316 473.709054,76.6101125 476.0769,63.4952753 C478.468664,50.380438 476.794429,40.4625915 471.054196,33.7417357 C465.313964,27.0208799 455.946223,23.6524794 442.950974,23.6365343 Z M453.020299,63.4115636 C451.52146,71.734901 449.034026,77.8139669 445.557996,81.6487613 C442.081966,85.4835556 437.374178,87.4009528 431.434632,87.4009528 C425.487113,87.4009528 421.50084,85.4835556 419.475814,81.6487613 C417.450787,77.8139669 417.14783,71.7508461 418.566943,63.4593988 C420.065782,55.1360614 422.541257,49.0809131 425.993369,45.293954 C429.42555,41.5030087 434.137325,39.6015566 440.068898,39.6015566 C446.000472,39.6015566 450.018635,41.4910499 452.123387,45.293954 C454.228139,49.0968582 454.539068,55.1480202 453.032257,63.4593988 L453.020299,63.4115636 Z" id="Shape" fill="url(#linearGradient-10)"></path>
                    <path d="M497.674526,52.660586 L492.508316,52.660586 C490.851099,52.5909208 489.231202,53.1651703 487.987883,54.2630677 C486.748223,55.527827 485.951123,57.1597837 485.715707,58.9150479 L485.201478,61.8210407 C484.785671,63.3628909 485.014453,65.0075277 485.835296,66.3773505 C486.763455,67.5637517 488.235194,68.1912722 489.73387,68.0396262 L494.912039,68.0396262 C496.571535,68.1007871 498.187891,67.5032513 499.408554,66.3773505 C500.650671,65.149873 501.457059,63.5496978 501.704647,61.8210407 L502.242794,58.9150479 C502.662981,57.34343 502.439168,55.6691384 501.620936,54.2630677 C500.652744,53.1073244 499.174377,52.5070174 497.674526,52.660586 L497.674526,52.660586 Z" id="Path" fill="url(#linearGradient-11)"></path>
                    <path d="M379.425732,52.660586 L374.319316,52.660586 C372.662288,52.5921704 371.042843,53.1662595 369.798883,54.2630677 C368.55347,55.5237562 367.755376,57.1577492 367.526707,58.9150479 L367.012478,61.8210407 C366.604111,63.3619834 366.827973,65.0021979 367.634337,66.3773505 C368.572888,67.5639943 370.051433,68.1905726 371.556829,68.0396262 L376.71108,68.0396262 C378.36995,68.0968836 379.984869,67.4998787 381.207595,66.3773505 C382.441051,65.1451098 383.242389,63.5466304 383.49173,61.8210407 L384.017918,58.9150479 C384.456883,57.3460546 384.236603,55.6658783 383.408018,54.2630677 C382.435044,53.0925128 380.938296,52.4902177 379.425732,52.660586 L379.425732,52.660586 Z" id="Path" fill="url(#linearGradient-12)"></path>
                    <path d="M327.33312,23.6363778 C304.212738,23.5966716 291.277283,31.1705898 288.526755,46.3582889 C287.554104,51.7317845 288.470947,56.2203276 291.277283,59.8239181 C294.142647,63.459567 298.008476,66.178118 302.398984,67.6449852 C307.013765,69.2574196 311.712489,70.6187323 316.474513,71.7229422 C320.566537,72.6035562 324.569472,73.8564751 328.433331,75.4660523 C331.638294,76.8771928 333.049435,78.6231803 332.654794,80.7398911 C331.857539,85.2204616 326.356483,87.4647332 316.151625,87.4727057 C309.733726,87.5125684 305.588002,85.9459633 303.714454,82.7728902 C302.318983,80.2734306 299.611169,78.7985555 296.754422,78.9819448 L286.900355,78.9819448 C285.727136,78.9651398 284.590899,79.3922964 283.71931,80.1778266 C282.798813,80.9855481 282.189651,82.0896546 281.99724,83.2990782 C279.605476,96.6770094 290.59563,103.365975 314.967702,103.365975 C339.339773,103.365975 352.936949,95.8159745 355.75923,80.7159734 C356.755799,75.2388347 355.858887,70.7104289 353.068496,67.130756 C350.182477,63.5011053 346.307256,60.7847121 341.910919,59.3096889 C337.287483,57.6865898 332.571313,56.3408242 327.787555,55.2795672 C323.691448,54.4418104 319.686378,53.2082489 315.828737,51.5962512 C312.635732,50.1970695 311.23655,48.4391232 311.607274,46.34633 C312.384597,41.8498144 317.180083,39.6135154 326.041567,39.6135154 C332.451494,39.6135154 335.333569,41.2040382 337.199145,44.3970427 C338.63835,46.8618706 341.346849,48.3017735 344.195053,48.1162351 L354.132831,48.1162351 C355.298877,48.1329373 356.427602,47.7053899 357.289959,46.9203533 C358.19594,46.1193487 358.796089,45.0289365 358.988111,43.8349782 C361.367916,30.3932666 351.681273,23.6363778 327.33312,23.6363778 Z" id="Path" fill="url(#linearGradient-13)"></path>
                    <path d="M253.917935,23.6362602 C246.017142,23.6362602 237.64597,27.0288524 228.804417,33.8134886 L229.593699,29.3887259 C229.86637,28.3143717 229.656742,27.1745205 229.019675,26.2674743 C228.370062,25.4420908 227.352501,24.9938259 226.305024,25.0715925 L211.344542,25.0715925 C210.194098,25.0622623 209.082935,25.4896328 208.235249,26.2674743 C207.307912,27.0713884 206.693875,28.1766545 206.501221,29.3887259 L194.171679,97.6377011 C193.908545,98.7024249 194.122499,99.8289592 194.757661,100.723076 C195.40875,101.539742 196.418089,101.986352 197.460354,101.918958 L212.396918,101.918958 C213.545438,101.917823 214.65294,101.49186 215.506211,100.723076 C216.422631,99.9270358 217.031817,98.835578 217.228281,97.6377011 L225.707083,50.6395458 C233.265056,43.9585527 239.822475,40.6140699 245.379339,40.6060973 C253.862127,40.5662346 257.094994,46.1470164 255.07794,57.3484428 L247.818938,97.6137835 C247.564866,98.6655855 247.773856,99.7758427 248.392961,100.663282 C249.046522,101.483558 250.06124,101.93057 251.107613,101.859164 L265.972424,101.859164 C267.143404,101.863327 268.275236,101.437826 269.153469,100.663282 C270.071485,99.8685391 270.681017,98.7764608 270.875539,97.5779071 L278.1465,57.3125663 C280.195445,45.8958812 278.999563,37.4210654 274.558855,31.8881189 C270.118147,26.3551723 263.237841,23.6046442 253.917935,23.6362602 Z" id="Path" fill="url(#linearGradient-14)"></path>
                    <path d="M160.459771,23.6363632 C136.255123,23.6363632 122.940972,30.3494176 120.517318,43.7751841 C120.262163,44.8319107 120.485256,45.9473797 121.127218,46.8246828 C121.792113,47.6438473 122.813009,48.0896533 123.865787,48.0205646 L133.779648,48.0205646 C136.973762,48.0362198 140.021423,46.6821876 142.15082,44.3013721 C145.212278,41.112354 149.84034,39.5178449 156.035008,39.5178449 C160.754755,39.5178449 164.015526,40.5941385 165.817321,42.7467258 C167.619117,44.899313 168.017744,48.7101898 167.013203,54.1793559 L144.901348,54.1793559 C135.605361,54.1793559 127.632815,56.2841079 120.983712,60.4936119 C114.493085,64.4814898 110.081373,71.1187337 108.917265,78.6470979 C107.490179,86.5080277 109.335823,92.5870936 114.454197,96.8842956 C119.572572,101.181498 126.767794,103.334085 136.039864,103.342359 C145.154496,103.375455 154.063611,100.635152 161.5839,95.4851139 L161.189259,97.6616188 C160.937046,98.7150899 161.150544,99.8261506 161.775241,100.711117 C162.424854,101.536501 163.442416,101.984766 164.489893,101.906999 L177.345622,101.906999 C178.511457,101.922502 179.639756,101.495115 180.50275,100.711117 C181.403522,99.907662 181.999164,98.8177634 182.188944,97.6257423 L190.021969,54.2032736 C191.895518,43.7831567 190.08575,36.0776915 184.592666,31.0868781 C179.099582,26.0960646 171.055284,23.6126167 160.459771,23.6363632 Z M162.110088,81.0388615 C154.982632,85.2563381 147.994696,87.3610901 141.14628,87.3531401 C137.718085,87.3531401 135.218692,86.5319453 133.648101,84.889601 C132.05417,83.2056155 131.423699,80.8278412 131.973866,78.575345 C132.403614,76.123469 133.772083,73.9356342 135.788729,72.4763477 C138.044643,70.8245153 140.791752,69.9818435 143.585879,70.0845841 L164.083293,70.0845841 L162.110088,81.0388615 Z" id="Shape" fill="url(#linearGradient-15)"></path>
                    <path d="M50.952873,25.370563 L32.2971167,25.370563 L35.8847621,5.6983071 C36.1411575,4.62732078 35.9326405,3.49785354 35.3107388,2.58901438 C34.6571776,1.7687388 33.6424597,1.3217265 32.5960871,1.39313256 L17.7312761,1.39313256 C16.5784226,1.39016551 15.4657499,1.8164769 14.6100246,2.58901438 C13.6937272,3.39687142 13.0817603,4.49419124 12.875996,5.6983071 L0.953054254,71.8186127 C-2.86579501,92.9059954 4.79183489,103.425769 23.9259439,103.377934 C29.9345228,103.475039 35.9392801,103.018677 41.8641712,102.014629 C43.0549192,101.85266 44.1749044,101.354889 45.0930521,100.57957 C45.9562965,99.8995425 46.5462718,98.9318132 46.7553278,97.8529599 L48.0707978,90.5580808 C48.3195462,89.5130948 48.0869662,88.4116309 47.4369805,87.5564174 C46.7538704,86.7476722 45.7316795,86.3051653 44.6744935,86.3605356 L42.2468534,86.3605356 C40.7692388,86.417272 39.2959809,86.5570119 37.8340495,86.7790943 C36.2190905,87.0314091 34.5890407,87.175237 32.9548517,87.2096117 C29.3672062,87.2096117 26.7841015,85.9061005 25.1337846,83.2632017 C23.4834677,80.6203029 23.0768679,76.9130693 23.9379028,72.0936655 L29.2715357,42.3162083 L47.8435803,42.3162083 C48.9966449,42.3203265 50.1097186,41.8938615 50.9648318,41.1203265 C51.884475,40.3219031 52.4940558,39.2255041 52.6869016,38.0229926 L54.2056715,29.6518199 C54.4675909,28.5832191 54.2538706,27.4535542 53.6196895,26.554486 C52.9723515,25.7546191 51.9803252,25.3142128 50.952873,25.370563 Z" id="Path" fill="url(#linearGradient-16)"></path>
                </g>
            </g>
        </g>
    </g>
</svg>