<?xml version="1.0" encoding="UTF-8"?>
<svg width="980px" height="680px" viewBox="0 0 980 680" version="1.1" xmlns="http://www.w3.org/2000/svg" xmlns:xlink="http://www.w3.org/1999/xlink">
    <title>DE tiramizoo alt2</title>
    <defs>
        <rect id="path-1" x="0" y="0" width="900" height="600" rx="80"></rect>
        <filter x="-6.7%" y="-10.0%" width="113.3%" height="120.0%" filterUnits="objectBoundingBox" id="filter-2">
            <feMorphology radius="2.5" operator="dilate" in="SourceAlpha" result="shadowSpreadOuter1"></feMorphology>
            <feOffset dx="0" dy="0" in="shadowSpreadOuter1" result="shadowOffsetOuter1"></feOffset>
            <feGaussianBlur stdDeviation="17.5" in="shadowOffsetOuter1" result="shadowBlurOuter1"></feGaussianBlur>
            <feColorMatrix values="0 0 0 0 0   0 0 0 0 0   0 0 0 0 0  0 0 0 0.5 0" type="matrix" in="shadowBlurOuter1"></feColorMatrix>
        </filter>
    </defs>
    <g id="DE-tiramizoo-alt2" stroke="none" stroke-width="1" fill="none" fill-rule="evenodd">
        <g transform="translate(40, 40)">
            <g id="Rectangle">
                <use fill="black" fill-opacity="1" filter="url(#filter-2)" xlink:href="#path-1"></use>
                <use fill="#86BC25" fill-rule="evenodd" xlink:href="#path-1"></use>
            </g>
            <g id="Logo" transform="translate(50, 230)" fill="#FFFFFF" fill-rule="nonzero">
                <path d="M687.068955,0.383890386 L647.037464,0.383890386 C635.423855,0.383890386 625.052585,5.27989169 616.607696,11.7118896 C608.062212,18.2398545 601.820337,30.8158489 600.668533,45.311836 C600.381839,48.4798515 600.668533,53.4718926 600.668533,53.4718926 L600.668533,61.7276648 C600.572968,61.9197998 600.572968,62.2080024 600.572968,62.495702 L600.572968,94.4640596 C600.572968,120.095984 621.310478,140.831985 646.941899,140.831985 C658.560538,140.831985 668.926778,135.935558 677.276103,129.50356 C685.821586,122.975998 692.063461,110.399702 693.215265,95.9040666 C693.501959,92.8319174 693.215265,88.0320616 693.215265,87.8399266 L693.215265,88.5118963 L693.119701,88.991731 L693.215265,87.8399266 L693.215265,79.4875839 C693.31083,79.2959518 693.31083,79.0077493 693.31083,78.7200496 L693.31083,6.23986286 C693.406395,3.16788975 690.911657,0.383890386 687.068955,0.383890386 Z M600.572968,53.4718926 L600.668533,52.3200882 L600.572968,53.4718926 Z M661.437534,61.7276648 C661.34197,61.9197998 661.34197,62.2080024 661.34197,62.495702 L661.34197,94.4640596 C661.34197,102.431629 654.908966,108.863627 646.941899,108.863627 C638.974833,108.863627 632.541829,102.431629 632.541829,94.4640596 L632.541829,79.4875839 C632.637393,79.2959518 632.637393,79.0077493 632.637393,78.7200496 L632.637393,46.751843 C632.637393,38.7838711 639.070397,32.3518732 647.037464,32.3518732 L661.437534,32.3518732 L661.437534,61.7276648 Z" id="Shape"></path>
                <path d="M404.64047,0.383890386 C393.024346,0.383890386 382.368394,4.70388888 374.20869,11.7118896 C366.048482,4.70388888 355.488598,0.383890386 343.872474,0.383890386 C318.24055,0.383890386 297.504549,21.1198686 297.504549,46.751843 L297.504549,136.608031 C297.504549,138.23967 298.944556,139.679677 300.576699,139.679677 L326.496825,139.679677 C328.128464,139.679677 329.472404,138.23967 329.472404,136.608031 L329.472404,46.8478602 C329.472404,38.8798883 335.904402,32.4478904 343.872474,32.4478904 C351.840547,32.4478904 358.176477,38.8798883 358.176477,46.8478602 L358.176477,52.7999229 L358.176477,52.3200882 L358.176477,53.4718926 L358.176477,136.703595 C358.176477,138.335738 359.616484,139.775745 361.248626,139.775745 L387.168753,139.775745 C388.800392,139.775745 390.144332,138.335738 390.144332,136.703595 L390.144332,52.7038553 L390.144332,46.8478602 C390.144332,38.8798883 396.57633,32.4478904 404.544402,32.4478904 C412.512475,32.4478904 418.944473,38.8798883 418.944473,46.8478602 L418.944473,136.703595 C418.944473,138.335738 420.38448,139.775745 422.016622,139.775745 L447.936749,139.775745 C449.568388,139.775745 450.91266,138.335738 450.91266,136.703595 L450.91266,46.8478602 C451.008395,21.2158858 430.272394,0.383890386 404.64047,0.383890386 Z" id="Path"></path>
                <path d="M496.127442,3.07219442 L469.823548,3.07219442 C468.191406,3.07219442 466.751399,4.51219643 466.751399,6.1441977 L466.751399,136.704098 C466.751399,138.336241 468.191406,139.776248 469.823548,139.776248 L496.127442,139.776248 C497.759584,139.776248 499.199591,138.336241 499.199591,136.704098 L499.199591,6.1441977 C499.103523,4.51219643 497.759584,3.07219442 496.127442,3.07219442 Z" id="Path"></path>
                <path d="M119.616149,2.97595587 L93.3122551,2.97595587 C91.680113,2.97595587 90.240106,4.41595285 90.240106,6.04792898 L90.240106,136.608031 C90.240106,138.23967 91.680113,139.679677 93.3122551,139.679677 L119.616149,139.679677 C121.248291,139.679677 122.688298,138.23967 122.688298,136.608031 L122.688298,6.04792898 C122.688298,4.41595285 121.248291,2.97595587 119.616149,2.97595587 Z" id="Path"></path>
                <path d="M191.039593,28.3200044 L191.039593,3.83999531 C191.039593,2.0159998 189.983856,0.287999899 187.391542,0 L186.239737,0 C160.607813,0 139.871812,20.7360008 139.871812,46.3679753 L139.871812,136.223761 C139.871812,137.855903 141.215752,139.29591 142.847894,139.29591 L168.767518,139.29591 C170.39966,139.29591 171.839667,137.855903 171.839667,136.223761 L171.839667,46.3679753 C171.839667,38.3999531 178.271665,31.9679551 186.239737,31.9679551 C189.215819,31.9679551 191.039593,30.0479625 191.039593,28.3200044 Z" id="Path"></path>
                <path d="M238.272126,0 L236.736051,0.0960001341 L208.512315,0.0960001341 C206.880173,0.0960001341 205.440166,1.53599913 205.440166,3.07199826 L205.440166,28.8959569 C205.440166,30.5279984 206.880173,31.8719882 208.512315,31.8719882 L236.928186,31.8719882 C237.312456,31.9679551 237.792291,32.0639724 238.272126,32.0639724 C246.240198,32.0639724 252.672196,38.4959703 252.672196,46.8479608 L233.280135,46.8479608 C207.648211,46.8479608 186.91221,67.5837605 186.91221,93.2156846 C186.91221,104.831808 191.808133,115.20006 198.240131,123.647968 C204.768197,132.191942 217.344493,138.431805 231.840128,139.584113 C235.008344,139.871812 240.000335,139.584113 240.000335,139.584113 L239.328366,139.584113 L238.848028,139.584113 L240.000335,139.584113 L265.344057,139.584113 C265.728327,139.584113 266.208162,139.488045 266.496364,139.29591 L281.664472,139.29591 C283.296111,139.29591 284.640051,137.855903 284.640051,136.223761 L284.640051,46.3679753 C284.640051,20.7360008 263.90405,0 238.272126,0 Z M252.672196,107.615755 L233.280135,107.615755 C225.312062,107.615755 218.880064,101.183757 218.880064,93.2156846 C218.880064,85.2481151 225.312062,78.8161172 233.280135,78.8161172 L252.672196,78.8161172 L252.672196,107.615755 Z" id="Shape"></path>
                <path d="M69.6001727,2.687537 L3.07199826,2.687537 C1.43999698,2.687537 0,4.12753901 0,5.7595252 L0,32.0635197 C0,33.5994937 1.43999698,35.0395007 3.07199826,35.0395007 L20.3519822,35.0395007 L20.3519822,92.6392794 C20.3519822,123.16763 40.1279615,139.679677 63.5519419,139.679677 C64.1278441,139.679677 66.431956,139.487542 66.431956,136.319325 C66.431956,130.559297 66.5280235,116.831699 66.5280235,110.207567 C66.5280235,107.327552 64.1278441,106.559515 63.3598069,106.559515 C57.5037112,106.559515 51.0717132,104.159336 51.0717132,89.8553329 L51.0717132,35.135518 L69.6957372,35.135518 C71.3278794,35.135518 72.7678864,33.6955109 72.7678864,32.0635197 L72.7678864,5.7595252 C72.6718189,4.12753901 71.2318118,2.687537 69.6001727,2.687537 Z" id="Path"></path>
                <path d="M593.375448,3.07219442 L518.784793,3.07219442 C517.150136,3.07219442 515.711638,4.51219643 515.711638,6.1441977 L515.711638,29.2801767 C515.711638,30.9121679 517.150136,32.352175 518.784793,32.352175 L550.366366,32.352175 L509.761487,134.975889 C508.12683,137.472136 509.278634,139.68018 512.256225,139.68018 L588.094248,139.68018 C589.728905,139.68018 591.167404,138.240173 591.167404,136.608031 L591.167404,111.840212 C591.167404,110.208069 589.728905,108.768062 588.094248,108.768062 L554.68689,108.768062 L595.870186,7.58420474 C597.504843,5.28019348 596.257474,3.07219442 593.375448,3.07219442 Z" id="Path"></path>
                <path d="M799.96591,78.8156142 L799.96591,6.23986286 C799.96591,3.16788975 797.471172,0.383890386 793.6335,0.383890386 L753.602009,0.383890386 C741.98337,0.383890386 731.61713,5.27989169 723.167211,11.7118896 C714.626757,18.2398545 708.384882,30.8158489 707.233078,45.311836 C707.041949,48.4798515 707.233078,53.4718926 707.233078,53.4718926 L707.233078,61.7276648 C707.137513,61.9197998 707.137513,62.2080024 707.137513,62.495702 L707.137513,94.4640596 C707.137513,120.095984 727.869993,140.831985 753.506444,140.831985 C765.120053,140.831985 775.486293,135.935558 783.936212,129.50356 C792.481696,122.975998 798.718541,110.399702 799.870345,95.9040666 C800.162069,92.7358499 799.870345,87.743859 799.870345,87.743859 L799.870345,79.4875839 C799.96591,79.2959518 799.96591,79.0077493 799.96591,78.8156142 Z M768.002079,61.7276648 C767.906514,61.9197998 767.906514,62.2080024 767.906514,62.495702 L767.906514,94.4640596 C767.906514,102.431629 761.473511,108.863627 753.506444,108.863627 C745.534348,108.863627 739.106374,102.431629 739.106374,94.4640596 L739.106374,79.4875839 C739.201938,79.2959518 739.201938,79.0077493 739.201938,78.8156142 L739.201938,46.751843 C739.201938,38.7838711 745.634942,32.3518732 753.602009,32.3518732 L768.002079,32.3518732 L768.002079,61.7276648 Z" id="Shape"></path>
            </g>
        </g>
    </g>
</svg>