<?xml version="1.0" encoding="UTF-8"?>
<svg width="980px" height="680px" viewBox="0 0 980 680" version="1.1" xmlns="http://www.w3.org/2000/svg" xmlns:xlink="http://www.w3.org/1999/xlink">
    <title>DK+SE postnord alt</title>
    <defs>
        <rect id="path-1" x="0" y="0" width="900" height="600" rx="80"></rect>
        <filter x="-6.7%" y="-10.0%" width="113.3%" height="120.0%" filterUnits="objectBoundingBox" id="filter-2">
            <feMorphology radius="2.5" operator="dilate" in="SourceAlpha" result="shadowSpreadOuter1"></feMorphology>
            <feOffset dx="0" dy="0" in="shadowSpreadOuter1" result="shadowOffsetOuter1"></feOffset>
            <feGaussianBlur stdDeviation="17.5" in="shadowOffsetOuter1" result="shadowBlurOuter1"></feGaussianBlur>
            <feColorMatrix values="0 0 0 0 0   0 0 0 0 0   0 0 0 0 0  0 0 0 0.5 0" type="matrix" in="shadowBlurOuter1"></feColorMatrix>
        </filter>
    </defs>
    <g id="DK+SE-postnord-alt" stroke="none" stroke-width="1" fill="none" fill-rule="evenodd">
        <g transform="translate(40, 40)">
            <g id="Rectangle">
                <use fill="black" fill-opacity="1" filter="url(#filter-2)" xlink:href="#path-1"></use>
                <use fill="#0498BA" fill-rule="evenodd" xlink:href="#path-1"></use>
            </g>
            <g id="Logo" transform="translate(50.4429, 224.8964)" fill="#FFFFFF">
                <path d="M0.0760696733,29.4662517 C10.9527943,29.4302581 21.8281858,29.4315912 32.7049104,29.3196112 C34.5645784,29.3009479 34.9578415,30.0594791 34.8711903,31.6831892 C34.769875,33.5601874 34.8471946,35.4478503 34.8471946,37.443494 C35.2551217,37.3675076 35.6430525,37.4141659 35.8363513,37.2421966 C58.8282461,16.8605025 93.8699893,24.9963831 104.825367,53.8032396 C112.63064,74.3289081 111.160235,94.2400196 96.3255509,111.575591 C80.676345,129.861659 50.9229909,130.73617 36.0763084,118.926278 C35.845683,118.742311 35.5097429,118.691654 34.7365477,118.387708 C34.7365477,129.361749 34.7365477,140.06917 34.7365477,150.777925 C24.2050947,150.777925 13.6736418,150.701938 3.14352198,150.836581 C0.781277091,150.865909 -0.00658223579,150.519304 4.13593096e-05,147.859779 C0.109397056,108.394826 0.0760696733,68.9312052 0.0760696733,29.4662517 Z M33.971351,76.2285689 C33.8233774,87.5678776 41.6739756,95.7517496 52.8959719,95.9543801 C63.5980611,96.147679 71.8885808,88.203764 72.0618832,77.5896592 C72.2605144,65.3145176 64.8924966,57.0799879 53.554521,56.9066855 C42.0792366,56.7307169 34.1246569,64.5799821 33.971351,76.2285689 Z" id="Shape"></path>
                <path d="M799.933254,124.116018 C790.184328,123.472133 780.423404,124.01337 770.670479,123.837402 C769.671991,123.820071 768.658838,123.732087 767.676347,123.858731 C765.512733,124.137348 764.982161,123.118863 765.131468,121.163212 C765.272776,119.31021 765.160796,117.437211 765.160796,115.108294 C763.182483,116.750667 761.5921,118.222404 759.855077,119.490178 C743.557987,131.365391 717.706602,128.576555 703.870406,113.484583 C686.573495,94.6146193 686.656147,60.3007461 703.659777,41.2494811 C719.075691,23.9792314 748.569092,21.8276156 763.998337,34.1080895 C764.220964,34.2853912 764.567569,34.3067207 765.162129,34.5026857 C765.162129,26.1388458 765.290106,17.9643054 765.086143,9.79909661 C765.02482,7.30354219 765.979317,6.60766644 768.14293,6.20507166 C777.401277,4.48137943 786.635628,2.62571076 795.880644,0.823365905 C796.411216,0.719384471 797.000444,0.762043521 797.268397,0.136821822 C799.549323,-0.367088204 800.005241,0.52075327 799.999955,2.80301244 C799.907925,43.2411255 799.933254,83.6779054 799.933254,124.116018 Z M727.947432,76.3405489 C727.938109,87.9438104 735.630069,96.0237011 746.740085,96.0827215 C758.09939,96.1450128 765.993981,88.1171128 766.039467,76.4605275 C766.080632,65.1158864 758.170044,57.1773038 746.828069,57.1826335 C735.610072,57.1879686 727.955439,64.9559149 727.947432,76.3405489 Z" id="Shape"></path>
                <path d="M557.549865,26.0921875 C568.155972,26.2548251 577.067714,27.7412264 585.554198,31.3765773 C605.549295,39.9390484 616.066084,58.1877901 614.326394,79.9185767 C612.246766,105.900604 594.569922,120.981911 571.260751,125.37446 C557.41389,127.985994 543.814984,126.910186 530.78931,121.363177 C510.204985,112.600741 501.133272,95.1118639 502.213079,74.0662883 C503.754137,44.0529805 525.635564,29.9514984 549.024721,26.826723 C552.316133,26.3868015 555.648871,26.2508258 557.549865,26.0921875 Z M539.039834,76.509852 C539.042503,87.8171664 547.246372,96.1183509 558.257739,95.9570463 C569.430411,95.7930756 577.183693,87.882488 577.194369,76.6378291 C577.205023,64.914589 569.375754,56.8600271 558.012449,56.9051621 C546.821114,56.9506776 539.034505,64.9932416 539.039834,76.509852 Z" id="Shape"></path>
                <path d="M171.613441,26.1092585 C186.154845,26.4707865 199.745752,29.7555334 211.194374,39.3258246 C220.726006,47.2937352 225.618465,57.711875 226.687608,69.9576885 C227.908723,83.9445245 225.333183,96.9568678 215.954858,107.934908 C207.918959,117.339895 197.424833,122.516304 185.477633,125.02119 C171.313495,127.991327 157.433307,127.098153 144.002371,121.599135 C121.715684,112.47543 112.88926,92.9562488 115.047541,71.0654907 C117.464443,46.5698645 134.682702,31.9418097 157.382649,27.5132671 C162.075145,26.5974306 166.816965,26.0961867 171.613441,26.1092585 Z M171.034878,56.9066855 C159.675573,56.816035 151.734324,64.7532845 151.507698,76.4272001 C151.294403,87.3972414 159.711567,95.9263851 170.761594,95.9343897 C181.755631,95.9423823 189.788863,87.8864873 189.912841,76.7324789 C190.038152,65.3665083 182.066242,56.9946698 171.034878,56.9066855 Z" id="Shape"></path>
                <path d="M432.184249,36.9995733 C443.640871,25.820236 457.113132,24.0125588 471.569217,27.8918661 C484.677543,31.4099046 490.827112,41.2508142 493.262677,53.9245513 C493.914561,57.3146126 494.115858,60.7406676 494.111859,64.1933844 C494.08653,82.9646995 494.055869,101.734681 494.150775,120.504663 C494.16385,123.004217 493.663939,123.95738 490.909764,123.908056 C481.362135,123.730754 471.806508,123.75475 462.257547,123.897391 C459.672675,123.936051 458.86082,123.266837 458.874151,120.577984 C458.944805,104.922112 458.830158,89.2635748 458.735509,73.6063704 C458.726177,72.0639791 458.552875,70.5015914 458.263593,68.9858621 C456.645215,60.5433695 453.264486,57.7345377 445.205924,58.0371503 C437.451309,58.3277651 432.713488,62.5323477 432.02961,70.2762983 C431.257748,79.0240697 431.812316,87.8131671 431.734996,96.5836011 C431.663009,104.690154 431.63768,112.799372 431.769657,120.904592 C431.808317,123.272169 431.040454,123.916054 428.739531,123.888059 C418.96661,123.777412 409.191022,123.785411 399.4181,123.885393 C397.275816,123.906723 396.610601,123.348156 396.615934,121.109889 C396.693253,91.4538504 396.699919,61.7991453 396.60923,32.1457732 C396.602603,29.6702153 397.469115,29.2836176 399.656724,29.3076133 C409.208352,29.4169272 418.762646,29.4595862 428.310275,29.28895 C431.101776,29.2382924 432.100264,30.0408158 431.768324,32.8109878 C431.619017,34.0627643 431.431051,35.429187 432.184249,36.9995733 Z" id="Path"></path>
                <path d="M280.979247,26.1948358 C292.583842,26.5920982 303.169952,27.4892713 313.598756,29.9355012 C315.790365,30.450076 316.21029,31.1259553 315.662388,33.2789043 C313.886705,40.2589913 312.220336,47.2737388 310.785925,54.3311454 C310.250021,56.9720072 309.28486,57.0506598 306.998602,56.3667819 C296.193864,53.1380251 285.223823,51.0637288 273.867184,52.7194331 C272.996673,52.8460772 272.140825,53.0980322 271.29431,53.3486541 C269.210682,53.961878 267.58164,55.1829933 267.605635,57.487915 C267.630964,59.8741556 269.4813,60.9113038 271.5356,61.376554 C279.002267,63.068252 286.694227,63.5001749 294.123567,65.4264976 C298.10419,66.4583134 302.012825,67.6687639 305.732161,69.4377814 C316.027656,74.3329073 320.612171,82.343477 320.272232,93.7241117 C319.869637,107.203038 312.970869,115.861492 300.987675,121.023237 C291.328066,125.181162 281.063232,126.227641 270.723745,126.455601 C257.784722,126.740883 245.062994,125.022523 232.583888,121.499152 C230.550918,120.924588 229.999017,120.286036 230.604242,118.106425 C232.64921,110.738407 234.51821,103.318399 236.263231,95.8730613 C236.827131,93.4681574 237.685644,93.294855 239.849258,94.1280396 C251.348538,98.5525829 263.191757,101.146786 275.621537,100.218952 C277.30257,100.092308 278.935612,99.7936946 280.460673,99.1111498 C282.176367,98.3459531 283.386817,97.1674969 283.366821,95.0678718 C283.346825,92.9509164 282.112378,91.8337825 280.334029,91.1525708 C276.461387,89.6675027 272.348788,89.3408943 268.290846,88.8063231 C261.236106,87.8784888 254.261351,86.6080489 247.631868,83.9418583 C228.469956,76.2352343 224.484001,51.5743043 240.193196,37.9727328 C248.822322,30.5020667 259.359108,28.0851649 270.294488,26.8773806 C274.1498,26.4534563 278.042438,26.3748037 280.979247,26.1948358 Z" id="Path"></path>
                <path d="M326.683087,65.8170945 C326.683087,47.597681 326.739077,29.3796005 326.620431,11.1601869 C326.603101,8.63263822 327.280314,8.03407842 329.74654,8.07273819 C339.408815,8.22204486 349.077755,8.24204129 358.738697,8.06340652 C361.392889,8.01408199 361.859473,8.93525085 361.784819,11.2908303 C361.623515,16.3965853 361.848808,21.5130051 361.684837,26.6187601 C361.610184,28.9076847 362.456699,29.4155941 364.565656,29.3929314 C373.341423,29.2969486 382.118522,29.4062624 390.894289,29.316945 C393.205876,29.2929493 393.933746,29.652885 392.641976,31.9924673 C388.084124,40.2429941 383.618254,48.5455117 379.208375,56.8773574 C378.41385,58.3770896 377.450022,58.8796665 375.800983,58.8290089 C372.137638,58.7170289 368.459628,58.9609854 364.806946,58.7383584 C362.287396,58.5850525 361.662175,59.3769111 361.675506,61.8711324 C361.783486,81.0890344 361.735495,100.308269 361.734162,119.527504 C361.734162,123.833402 361.732829,123.834735 357.462924,123.836068 C348.353884,123.836068 339.242178,123.724088 330.135804,123.904056 C327.401625,123.958713 326.595103,123.290833 326.614738,120.472669 C326.745742,102.255922 326.683087,84.0365081 326.683087,65.8170945 Z" id="Path"></path>
                <path d="M657.402703,39.4724651 C665.385278,28.72905 675.982052,27.3039711 687.40268,28.1824809 C689.479642,28.3411192 690.48213,29.1383102 690.390146,31.5005551 C690.042209,40.4776189 689.856908,49.4613482 689.699603,58.4437444 C689.66361,60.5726976 688.994396,61.1152674 686.885439,60.5700314 C682.891485,59.5382156 678.79355,59.2196058 674.666287,59.5702099 C663.147011,60.550035 657.465359,66.6289496 657.4187,78.1935514 C657.361377,92.1830535 657.329383,106.172556 657.465359,120.159392 C657.493354,122.94956 656.993443,123.994707 653.888664,123.91872 C644.458348,123.686762 635.017367,123.780078 625.581718,123.874728 C623.438101,123.896058 622.456943,123.569449 622.464893,121.041901 C622.552926,91.3991935 622.542261,61.7551531 622.478272,32.113779 C622.47294,29.974161 623.019509,29.2782852 625.235113,29.3036141 C635.11335,29.4182602 644.996918,29.4155941 654.875154,29.3049471 C656.997442,29.2796183 657.574672,29.9808265 657.437364,31.9698047 C657.284058,34.1667457 657.402703,36.3823501 657.402703,39.4724651 Z" id="Path"></path>
            </g>
        </g>
    </g>
</svg>