<?xml version="1.0" encoding="UTF-8"?>
<svg width="980px" height="680px" viewBox="0 0 980 680" version="1.1" xmlns="http://www.w3.org/2000/svg" xmlns:xlink="http://www.w3.org/1999/xlink">
    <title>EC Correos del Ecuador</title>
    <defs>
        <linearGradient x1="50%" y1="0%" x2="50%" y2="100%" id="linearGradient-1">
            <stop stop-color="#FFFFFF" offset="0%"></stop>
            <stop stop-color="#EDEDED" offset="100%"></stop>
        </linearGradient>
        <rect id="path-2" x="0" y="0" width="900" height="600" rx="80"></rect>
        <filter x="-6.7%" y="-10.0%" width="113.3%" height="120.0%" filterUnits="objectBoundingBox" id="filter-3">
            <feMorphology radius="2.5" operator="dilate" in="SourceAlpha" result="shadowSpreadOuter1"></feMorphology>
            <feOffset dx="0" dy="0" in="shadowSpreadOuter1" result="shadowOffsetOuter1"></feOffset>
            <feGaussianBlur stdDeviation="17.5" in="shadowOffsetOuter1" result="shadowBlurOuter1"></feGaussianBlur>
            <feColorMatrix values="0 0 0 0 0   0 0 0 0 0   0 0 0 0 0  0 0 0 0.5 0" type="matrix" in="shadowBlurOuter1"></feColorMatrix>
        </filter>
    </defs>
    <g id="EC-Correos-del-Ecuador" stroke="none" stroke-width="1" fill="none" fill-rule="evenodd">
        <g transform="translate(40, 40)">
            <g id="Rectangle">
                <use fill="black" fill-opacity="1" filter="url(#filter-3)" xlink:href="#path-2"></use>
                <use fill="url(#linearGradient-1)" fill-rule="evenodd" xlink:href="#path-2"></use>
            </g>
            <g id="Logo" transform="translate(50, 75)">
                <path d="M170.907511,223.225692 C226.176348,136.902387 297.048421,61.7254446 386.754821,-3.928181e-14 C341.862574,13.8363839 296.970328,29.2095241 252.08087,47.9657591 C207.770136,106.386202 190.122541,164.806644 170.907511,223.225692 M348.012388,450.141273 C337.870076,321.612953 316.963498,205.387049 272.373861,116.224509 C308.041387,76.2535083 348.62737,41.2009638 394.133203,11.0682704 C423.802917,118.300943 478.225284,227.300467 576.772913,339.451596 C497.751291,368.044744 422.112764,406.785783 348.012388,450.141273 M488.221172,197.397869 C504.209293,178.33484 520.197415,159.271812 536.186931,140.207389 C514.663977,105.156239 498.059479,65.1838434 486.376227,20.2929912 C465.468255,31.976243 444.560282,43.6608894 423.650915,55.3441412 C442.868735,107.307977 464.084895,155.273736 488.221172,197.397869 M544.629328,124.341985 L563.003466,104.300006 C539.868452,77.4011946 517.229885,46.7622921 499.289442,18.4480471 C511.835899,54.927181 527.362436,93.5315568 544.629328,124.341985 M587.842578,332.07182 C557.094903,293.944368 526.348623,252.128423 495.600948,214.000972 C536.587157,165.205476 578.516058,117.352672 604.445681,53.5005915 L689.308929,53.5005915 C639.805019,139.900595 607.827381,235.833508 587.842578,332.07182 M661.636161,140.207389 L711.446864,53.5005915 L800,44.2758707 C747.726582,67.9491678 704.065693,101.77175 661.636161,140.207389" id="Fill-1" fill="#14489E"></path>
                <path d="M334.52045,388.038054 C331.39534,361.185262 329.383054,334.798237 318.639706,303.032566 C232.627377,299.327338 144.266684,294.558095 64.5743006,315.735209 C156.086599,328.105957 253.274575,351.250732 334.52045,388.038054" id="Fill-3" fill="#FED617"></path>
                <path d="M334.730603,419.052918 C335.296776,408.043217 335.543606,399.895063 334.837981,388.250857 C222.527877,327.104137 121.202372,310.537291 35.9918902,336.907581 C128.222364,347.918677 242.632608,371.063452 334.730603,419.052918" id="Fill-5" fill="#14489E"></path>
                <path d="M331.131916,450.598256 L334.5178,418.419808 C199.202372,352.844106 57.3773449,326.08614 0,363.372699 C100.357711,376.686139 225.885034,396.832706 331.131916,450.598256" id="Fill-7" fill="#EC1D24"></path>
            </g>
        </g>
    </g>
</svg>