<?xml version="1.0" encoding="UTF-8"?>
<svg width="980px" height="680px" viewBox="0 0 980 680" version="1.1" xmlns="http://www.w3.org/2000/svg" xmlns:xlink="http://www.w3.org/1999/xlink">
    <title>EC Correos del Ecuador text</title>
    <defs>
        <linearGradient x1="50%" y1="0%" x2="50%" y2="100%" id="linearGradient-1">
            <stop stop-color="#FFFFFF" offset="0%"></stop>
            <stop stop-color="#EDEDED" offset="100%"></stop>
        </linearGradient>
        <rect id="path-2" x="0" y="0" width="900" height="600" rx="80"></rect>
        <filter x="-6.7%" y="-10.0%" width="113.3%" height="120.0%" filterUnits="objectBoundingBox" id="filter-3">
            <feMorphology radius="2.5" operator="dilate" in="SourceAlpha" result="shadowSpreadOuter1"></feMorphology>
            <feOffset dx="0" dy="0" in="shadowSpreadOuter1" result="shadowOffsetOuter1"></feOffset>
            <feGaussianBlur stdDeviation="17.5" in="shadowOffsetOuter1" result="shadowBlurOuter1"></feGaussianBlur>
            <feColorMatrix values="0 0 0 0 0   0 0 0 0 0   0 0 0 0 0  0 0 0 0.5 0" type="matrix" in="shadowBlurOuter1"></feColorMatrix>
        </filter>
        <polygon id="path-4" points="0 -2.86769052e-14 800 -2.86769052e-14 800 59.1493702 0 59.1493702"></polygon>
    </defs>
    <g id="EC-Correos-del-Ecuador-text" stroke="none" stroke-width="1" fill="none" fill-rule="evenodd">
        <g transform="translate(40, 40)">
            <g id="Rectangle">
                <use fill="black" fill-opacity="1" filter="url(#filter-3)" xlink:href="#path-2"></use>
                <use fill="url(#linearGradient-1)" fill-rule="evenodd" xlink:href="#path-2"></use>
            </g>
            <g id="Logo" transform="translate(50, 101)">
                <path d="M235.378937,161.511289 C275.367798,99.0534769 326.646124,44.6604332 391.551719,0 C359.07067,10.0110887 326.589621,21.1340721 294.11059,34.7048384 C262.050285,76.9739916 249.281657,119.243145 235.378937,161.511289 M363.520267,325.692336 C356.181963,232.697778 341.055352,148.604431 308.793251,84.0923377 C334.599905,55.1719754 363.965227,29.8102817 396.890226,8.00826556 C418.357261,85.5947073 457.733672,164.459525 529.036193,245.604636 C471.861395,266.292739 417.134379,294.323182 363.520267,325.692336 M464.966033,142.823991 C476.533976,129.031249 488.101919,115.238507 499.670871,101.444757 C484.098291,76.0840722 472.084379,47.1627009 463.631154,14.682661 C448.503533,23.1358863 433.375912,31.5901205 418.247283,40.0433457 C432.152021,77.6409266 447.502626,112.345765 464.966033,142.823991 M505.779229,89.9656039 L519.073535,75.4645591 C502.334575,56.002365 485.954812,33.8340896 472.974298,13.3477819 C482.052081,39.741661 493.286053,67.673224 505.779229,89.9656039 M537.045468,240.265119 C514.798492,212.678627 492.552525,182.423386 470.305549,154.836894 C499.960448,119.531713 530.297417,84.9086016 549.05837,38.7094756 L610.459782,38.7094756 C574.64204,101.222782 551.505144,170.633467 537.045468,240.265119 M590.437604,101.444757 L626.477322,38.7094756 L690.548491,32.0350802 C652.726917,49.163506 621.136796,73.6352804 590.437604,101.444757" id="Fill-1" fill="#14489E"></path>
                <path d="M353.758396,280.758571 C351.497274,261.329673 350.041318,242.237774 342.268144,219.254244 C280.035334,216.573387 216.103404,213.122679 158.443287,228.445032 C224.655509,237.395684 294.974276,254.141707 353.758396,280.758571" id="Fill-3" fill="#FED617"></path>
                <path d="M353.910449,303.198867 C354.320095,295.232978 354.498684,289.337515 353.98814,280.912541 C272.728007,236.670834 199.415599,224.684164 137.762953,243.763955 C204.494799,251.730853 287.274455,268.476876 353.910449,303.198867" id="Fill-5" fill="#14489E"></path>
                <path d="M351.306678,326.022978 L353.756479,302.74079 C255.85122,255.294566 153.236048,235.934279 111.721611,262.912357 C184.333786,272.545079 275.157022,287.121797 351.306678,326.022978" id="Fill-7" fill="#EC1D24"></path>
                <g id="Group-11" transform="translate(0, 338.6221)">
                    <mask id="mask-5" fill="white">
                        <use xlink:href="#path-4"></use>
                    </mask>
                    <g id="Clip-10"></g>
                    <path d="M788.261539,17.6197986 C788.261539,15.4141707 787.713664,13.6978976 786.596724,12.4588715 C785.478776,11.2198454 783.801853,10.6073952 781.542749,10.6073952 L776.941805,10.6073952 L774.007694,26.5250464 L778.479489,26.5250464 C780.156412,26.5250464 781.612368,26.2798645 782.84635,25.7895008 C784.069232,25.2860203 785.082247,24.6463277 785.874295,23.8290548 C786.677443,23.0117818 787.271731,22.0724225 787.667251,20.996851 C788.06378,19.9212795 788.261539,18.7912231 788.261539,17.6197986 L788.261539,17.6197986 Z M800,15.5090147 C800,17.932582 799.627687,20.1250932 798.882051,22.0724225 C798.125317,24.0328685 797.100195,25.7218992 795.807693,27.164739 C794.515191,28.5944621 792.989615,29.7658866 791.254171,30.6648868 C789.507628,31.5770038 787.656152,32.189454 785.676535,32.5022374 L785.676535,32.666701 C787.08507,33.1974239 788.284746,34.2043848 789.286662,35.7027185 C790.287569,37.1869265 791.044303,39.1614982 791.545766,41.6395504 L794.957123,58.155526 L783.149043,58.155526 L780.482312,43.4365418 C780.074685,41.0674593 779.364363,39.2835846 778.34025,38.071801 C777.315127,36.8600173 775.917692,36.2606838 774.146934,36.2606838 L772.261152,36.2606838 L768.277703,58.155526 L757.156738,58.155526 L767.556283,0.953485064 L784.2791,0.953485064 C787.120384,0.953485064 789.542943,1.34799581 791.545766,2.12390059 C793.548589,2.91393107 795.166991,3.97638586 796.425188,5.32438167 C797.671277,6.65926076 798.579358,8.21107031 799.15044,9.96770259 C799.720513,11.7243349 800,13.5758111 800,15.5090147 L800,15.5090147 Z M742.343919,25.0004793 C742.343919,22.8483273 742.110844,20.9282404 741.644696,19.226093 C741.179557,17.5249546 740.515649,16.0811058 739.641873,14.8965645 C738.780205,13.7120233 737.732885,12.7999064 736.486796,12.1874562 C735.251806,11.5608803 733.843271,11.2470878 732.282381,11.2470878 C730.454111,11.2470878 728.730775,11.7374516 727.088158,12.7181791 C725.458657,13.6978976 724.0027,15.0741448 722.721297,16.8297681 C721.952455,17.8922229 721.266349,19.1171233 720.672061,20.4933705 C720.08988,21.8817255 719.589426,23.338691 719.181799,24.8915095 C718.762064,26.4302024 718.45937,28.0092544 718.238404,29.6155488 C718.016428,31.2228522 717.911494,32.8160298 717.911494,34.3819651 C717.911494,36.5331081 718.145577,38.4663117 718.610717,40.1684591 C719.076865,41.8706065 719.740773,43.3003296 720.61354,44.4576284 C721.475208,45.6149272 722.511429,46.4998017 723.735321,47.0991352 C724.946095,47.7125944 726.308217,48.0253778 727.810586,48.0253778 C729.67417,48.0253778 731.455018,47.5491398 733.144049,46.581529 C734.844178,45.6290529 736.323341,44.2124466 737.604745,42.3206111 C738.395784,41.2036715 739.095006,39.9505197 739.677187,38.548039 C740.271476,37.159684 740.759822,35.7027185 741.144243,34.1771424 C741.528664,32.666701 741.831357,31.1269992 742.030126,29.5479472 C742.238985,27.9820119 742.343919,26.4705615 742.343919,25.0004793 L742.343919,25.0004793 Z M754.01276,24.5646004 C754.01276,26.8519556 753.838206,29.1534364 753.500198,31.468034 C753.16219,33.7826316 752.649629,36.0296277 751.974622,38.1938874 C751.310714,40.3591561 750.472253,42.4426976 749.459238,44.430386 C748.446223,46.4322001 747.269754,48.2433173 745.918731,49.9040966 C744.789683,51.3065772 743.543594,52.5869715 742.204679,53.7301446 C740.864755,54.8743266 739.3977,55.8409284 737.825711,56.6440756 C736.241614,57.4341061 734.530386,58.060682 732.690008,58.4965609 C730.85064,58.9324398 728.858915,59.1493702 726.715844,59.1493702 C723.490139,59.1493702 720.602441,58.5238033 718.06385,57.2847772 C715.536358,56.0316254 713.382188,54.3022356 711.635646,52.1107334 C709.888094,49.9182223 708.549179,47.3170746 707.62899,44.3082996 C706.708802,41.3126412 706.243662,38.0445585 706.243662,34.5454197 C706.243662,32.0673675 706.429314,29.6296745 706.790529,27.2192239 C707.151743,24.8097823 707.710718,22.4941757 708.444245,20.2754311 C709.189881,18.0556775 710.11007,15.9448936 711.204812,13.9299627 C712.310652,11.9281486 713.592056,10.089789 715.047003,8.41488405 C716.188158,7.1354988 717.411041,5.9782 718.727758,4.95711335 C720.054566,3.93501772 721.475208,3.05014322 723.000784,2.30148088 C724.52636,1.56593526 726.15687,0.99384422 727.91552,0.586216743 C729.662063,0.190697013 731.537754,-2.86769052e-14 733.540578,-2.86769052e-14 C736.567514,-2.86769052e-14 739.339179,0.557965334 741.843465,1.67490498 C744.358849,2.79184463 746.513019,4.39813904 748.318083,6.52304861 C750.112047,8.6328235 751.508474,11.2067287 752.51039,14.2568719 C753.512306,17.3070151 754.01276,20.7385524 754.01276,24.5646004 L754.01276,24.5646004 Z M689.323086,25.0822066 C689.323086,22.957297 689.066806,21.0513358 688.554244,19.3623052 C688.041683,17.6742834 687.249634,16.2445603 686.202314,15.0741448 C685.141878,13.9027203 683.802963,13.0037201 682.18456,12.3771442 C680.577257,11.7515773 678.66726,11.4377848 676.454569,11.4377848 L671.0979,11.4377848 L664.518349,47.6984687 L671.237139,47.6984687 C674.008804,47.6984687 676.51309,47.1677458 678.736879,46.0921743 C680.972777,45.0155938 682.871675,43.4769009 684.443664,41.5033382 C686.003546,39.5146408 687.215329,37.1455583 688.053791,34.3547227 C688.903351,31.5770038 689.323086,28.4854924 689.323086,25.0822066 L689.323086,25.0822066 Z M700.990918,24.0873534 C700.990918,27.0971374 700.723539,30.0241852 700.199879,32.8836314 C699.67521,35.7430776 698.883161,38.4390693 697.835841,40.9584896 C696.775404,43.4910266 695.436489,45.8056243 693.817078,47.9032914 C692.210784,49.9999496 690.300787,51.8110667 688.111302,53.3356338 C685.910719,54.8470842 683.418542,56.0316254 680.62367,56.8761408 C677.816691,57.7337728 674.719125,58.155526 671.307768,58.155526 L651.521692,58.155526 L661.921237,0.953485064 L679.1213,0.953485064 C682.70822,0.953485064 685.864306,1.5255761 688.58855,2.6687492 C691.302703,3.81293128 693.585013,5.39198326 695.424382,7.43516554 C697.264759,9.46321313 698.651096,11.9009062 699.582384,14.7331099 C700.525779,17.5653137 700.990918,20.6830585 700.990918,24.0873534 L700.990918,24.0873534 Z M630.327081,16.2304346 C630.303874,15.8086815 630.292775,15.3324434 630.280668,14.8148372 C630.269569,14.2972311 630.269569,13.7937506 630.280668,13.3175125 C630.292775,12.8402655 630.303874,12.4053956 630.327081,12.0240016 C630.350287,11.6284819 630.374503,11.3429408 630.397709,11.1653605 L630.187842,11.1653605 C630.141429,11.3974257 630.0708,11.7102092 629.954767,12.0784865 C629.838735,12.4588715 629.709586,12.8543912 629.558239,13.3033868 C629.407901,13.7392657 629.244446,14.1882613 629.046686,14.6786251 C628.860025,15.1548631 628.650158,15.6179844 628.452398,16.067989 L619.508809,35.5392639 L632.097839,35.5392639 L630.327081,16.2304346 Z M634.321628,58.155526 L632.924192,45.4242302 L615.386121,45.4242302 L609.657139,58.155526 L597.231564,58.155526 L625.447659,0.953485064 L638.583555,0.953485064 L645.582842,58.155526 L634.321628,58.155526 Z M597.615985,34.8582031 C596.92887,38.6025239 596.055094,41.9795762 594.983559,44.9893603 C593.912023,47.9981354 592.503489,50.5447982 590.73374,52.654573 C588.975089,54.7522402 586.785605,56.3585346 584.165287,57.4754742 C581.556067,58.5914049 578.353568,59.1493702 574.580996,59.1493702 C571.856753,59.1493702 569.398881,58.7145003 567.209396,57.8427426 C565.03202,56.9578681 563.180544,55.6915995 561.654968,54.0298113 C560.129391,52.369032 558.952922,50.3399754 558.137667,47.9567673 C557.322412,45.5876848 556.903686,42.8785765 556.903686,39.84155 C556.903686,38.4663117 556.996512,36.9417446 557.183173,35.2799563 C557.368825,33.6191771 557.590801,32.0673675 557.85818,30.6376444 L563.319783,0.953485064 L574.441757,0.953485064 L568.921634,30.705246 C568.665353,32.1208434 568.444387,33.524333 568.234519,34.9399304 C568.03575,36.3424111 567.931825,37.5410781 567.931825,38.5349223 C567.931825,40.0736151 568.129585,41.4347276 568.525105,42.6192689 C568.921634,43.8038101 569.480608,44.7986633 570.202028,45.5876848 C570.913358,46.391841 571.75081,46.9901655 572.718421,47.3988019 C573.684014,47.8205551 574.732343,48.0253778 575.839193,48.0253778 C577.142794,48.0253778 578.34247,47.7943217 579.460418,47.3443171 C580.578367,46.8953215 581.580283,46.1466591 582.465157,45.1114468 C583.350032,44.0762344 584.129973,42.7009962 584.817087,40.985732 C585.504202,39.2694589 586.063176,37.1455583 586.518226,34.6130213 L592.735554,0.953485064 L603.857528,0.953485064 L597.615985,34.8582031 Z M552.234132,14.7875948 C551.547017,14.3658416 550.81248,13.9430795 550.03254,13.5213263 C549.240491,13.0854474 548.390931,12.7181791 547.458634,12.3771442 C546.516248,12.051244 545.514332,11.7788197 544.431698,11.5608803 C543.348054,11.3429408 542.171585,11.2470878 540.903298,11.2470878 C537.944972,11.2470878 535.335753,11.8333046 533.076649,13.0178458 C530.806447,14.202387 528.907548,15.7955647 527.359775,17.7832532 C525.809983,19.7850673 524.645621,22.0996649 523.842474,24.728055 C523.050426,27.355436 522.654906,30.1331549 522.654906,33.0612117 C522.654906,35.484779 522.9576,37.6228053 523.574086,39.4873984 C524.180482,41.3530004 525.065357,42.9058189 526.194404,44.1720874 C527.335559,45.4383559 528.69869,46.391841 530.293885,47.0446503 C531.889081,47.6984687 533.670938,48.0253778 535.650554,48.0253778 C536.896643,48.0253778 538.073113,47.9295248 539.167855,47.7257111 C540.250489,47.5218974 541.28671,47.2625898 542.26542,46.9225639 C543.243121,46.5956547 544.175417,46.2142607 545.048184,45.7925075 C545.92196,45.3697454 546.760421,44.907633 547.552469,44.430386 L545.234845,56.6037165 C543.557922,57.4209894 541.694338,58.060682 539.656201,58.4965609 C537.619072,58.9324398 535.335753,59.1493702 532.786063,59.1493702 C529.373697,59.1493702 526.311446,58.5641625 523.6094,57.3796212 C520.896256,56.19508 518.613946,54.5070583 516.750361,52.3286729 C514.886777,50.1492784 513.454027,47.5350141 512.465228,44.4989966 C511.47542,41.4488533 510.986065,38.0445585 510.986065,34.3002378 C510.986065,31.2904537 511.253444,28.3634059 511.80132,25.5039597 C512.348187,22.6445135 513.175549,19.9485219 514.270291,17.4018591 C515.376132,14.8693221 516.762469,12.5274821 518.439392,10.4035815 C520.104207,8.2786719 522.071716,6.44132132 524.342928,4.90161951 C526.602031,3.36393566 529.175937,2.152152 532.052536,1.29351095 C534.929134,0.42276216 538.108427,-2.86769052e-14 541.589404,-2.86769052e-14 C542.906122,-2.86769052e-14 544.175417,0.0686105654 545.409398,0.232065148 C546.632281,0.39551973 547.80875,0.599333469 548.926699,0.844515342 C550.03254,1.10281394 551.068761,1.38936395 552.012156,1.68903068 C552.955551,1.98869742 553.782914,2.28836415 554.516442,2.58702191 L552.234132,14.7875948 Z M508.762275,11.4377848 L491.666137,11.4377848 L489.348512,24.3325352 L505.27928,24.3325352 L503.334978,34.8582031 L487.47383,34.8582031 L485.086586,47.6984687 L503.334978,47.6984687 L501.424981,58.155526 L472.090937,58.155526 L482.489474,0.953485064 L510.671264,0.953485064 L508.762275,11.4377848 Z M446.296392,58.155526 L417.101587,58.155526 L427.500124,0.953485064 L438.622098,0.953485064 L430.166855,47.5491398 L448.20538,47.5491398 L446.296392,58.155526 Z M416.751471,11.4377848 L399.656342,11.4377848 L397.338717,24.3325352 L413.270494,24.3325352 L411.325183,34.8582031 L395.464034,34.8582031 L393.07679,47.6984687 L411.325183,47.6984687 L409.415186,58.155526 L380.081142,58.155526 L390.480688,0.953485064 L418.661468,0.953485064 L416.751471,11.4377848 Z M365.268323,25.0822066 C365.268323,22.957297 365.012042,21.0513358 364.499481,19.3623052 C363.98692,17.6742834 363.194871,16.2445603 362.146542,15.0741448 C361.087114,13.9027203 359.748199,13.0037201 358.129797,12.3771442 C356.522494,11.7515773 354.612497,11.4377848 352.399806,11.4377848 L347.043137,11.4377848 L340.463585,47.6984687 L347.182376,47.6984687 C349.954041,47.6984687 352.458327,47.1677458 354.682116,46.0921743 C356.918013,45.0155938 358.815903,43.4769009 360.388901,41.5033382 C361.948782,39.5146408 363.159557,37.1455583 363.998018,34.3547227 C364.848588,31.5770038 365.268323,28.4854924 365.268323,25.0822066 L365.268323,25.0822066 Z M376.936155,24.0873534 C376.936155,27.0971374 376.668775,30.0241852 376.144106,32.8836314 C375.620446,35.7430776 374.828398,38.4390693 373.780069,40.9584896 C372.720641,43.4910266 371.381726,45.8056243 369.763324,47.9032914 C368.15602,49.9999496 366.246023,51.8110667 364.056539,53.3356338 C361.855956,54.8470842 359.363778,56.0316254 356.568907,56.8761408 C353.761927,57.7337728 350.664362,58.155526 347.251996,58.155526 L327.466928,58.155526 L337.866474,0.953485064 L355.066537,0.953485064 C358.653457,0.953485064 361.809543,1.5255761 364.533786,2.6687492 C367.24693,3.81293128 369.53025,5.39198326 371.369618,7.43516554 C373.209996,9.46321313 374.596333,11.9009062 375.52762,14.7331099 C376.471016,17.5653137 376.936155,20.6830585 376.936155,24.0873534 L376.936155,24.0873534 Z M305.457062,14.1882613 C304.746741,13.6847809 303.977899,13.1944171 303.116231,12.7040534 C302.266671,12.2005729 301.35859,11.7788197 300.391988,11.3974257 C299.425387,11.0291484 298.412372,10.7304906 297.340836,10.4853088 C296.269301,10.2401269 295.151352,10.1311572 293.998089,10.1311572 C292.694488,10.1311572 291.610845,10.3349709 290.713863,10.7436074 C289.828988,11.1522438 289.130775,11.66985 288.606106,12.2823002 C288.082446,12.8947504 287.710132,13.5485687 287.477058,14.2568719 C287.256092,14.9651751 287.13905,15.6179844 287.13905,16.2304346 C287.13905,17.1021924 287.256092,17.9053396 287.500265,18.6408852 C287.733339,19.3764309 288.105652,20.084734 288.618213,20.7516691 C289.130775,21.4327299 289.805782,22.1269073 290.633144,22.8352105 C291.459498,23.5435137 292.472513,24.3194185 293.648982,25.1629249 C295.197765,26.2798645 296.571994,27.4099209 297.759562,28.5399773 C298.959238,29.6700336 299.972253,30.8828263 300.822822,32.1622115 C301.661284,33.4557225 302.289878,34.8582031 302.732819,36.3696535 C303.163653,37.8952296 303.372512,39.5963681 303.372512,41.4760958 C303.372512,42.564784 303.268587,43.763451 303.046612,45.0710876 C302.836744,46.3777153 302.464431,47.6853519 301.940771,49.0061053 C301.416102,50.312733 300.694682,51.5931272 299.774493,52.8049109 C298.854304,54.0298113 297.702051,55.1063918 296.315714,56.0457511 C294.929377,56.9709848 293.264561,57.7206561 291.320259,58.2917382 C289.374948,58.8638292 287.104745,59.1493702 284.507633,59.1493702 C283.051677,59.1493702 281.643142,59.0414095 280.256805,58.8093444 C278.882576,58.5914049 277.577966,58.2786215 276.331877,57.8972274 C275.097896,57.5158334 273.944633,57.0799545 272.874107,56.6037165 C271.802571,56.1274784 270.859176,55.622989 270.043921,55.1195085 L271.918604,43.7906934 C272.757065,44.5121133 273.677254,45.1931741 274.667062,45.8328667 C275.65687,46.4725593 276.693092,47.0315336 277.776735,47.5077717 C278.848271,47.9850187 279.977318,48.352287 281.130581,48.6247113 C282.294943,48.8830099 283.459304,49.0192221 284.646873,49.0192221 C285.940383,49.0192221 287.046224,48.8557675 287.954305,48.5157416 C288.862386,48.1888324 289.608022,47.7257111 290.166996,47.1405033 C290.737069,46.5552956 291.145706,45.8873515 291.400977,45.1114468 C291.646159,44.335542 291.774299,43.5182691 291.774299,42.6333946 C291.774299,41.7616368 291.657258,40.9716063 291.413085,40.2643121 C291.180011,39.5560089 290.784491,38.8749482 290.236616,38.2352555 C289.689749,37.5814372 288.96732,36.9003765 288.070338,36.1930822 C287.174365,35.484779 286.079623,34.6947486 284.787121,33.8229908 C283.389685,32.9108739 282.131488,31.9442721 280.990333,30.895943 C279.861286,29.8334882 278.882576,28.6630727 278.056222,27.3826785 C277.240967,26.0891675 276.600266,24.6594444 276.146225,23.0662667 C275.692185,21.4872147 275.470209,19.7305825 275.470209,17.7832532 C275.470209,15.5776253 275.819316,13.4123566 276.530646,11.288456 C277.22886,9.15042967 278.335709,7.25758525 279.838079,5.58268027 C281.340449,3.90777529 283.249437,2.54666275 285.579169,1.5255761 C287.918991,0.504489452 290.690656,-2.86769052e-14 293.928469,-2.86769052e-14 C295.267384,-2.86769052e-14 296.559886,0.0817272912 297.818083,0.259307578 C299.064172,0.42276216 300.263848,0.653818329 301.392895,0.953485064 C302.534051,1.23902609 303.605586,1.58006096 304.607502,1.94732928 C305.608409,2.31560658 306.51649,2.71011733 307.332754,3.10462809 L305.457062,14.1882613 Z M257.048273,25.0004793 C257.048273,22.8483273 256.815198,20.9282404 256.34905,19.226093 C255.882902,17.5249546 255.218994,16.0811058 254.346227,14.8965645 C253.484559,13.7120233 252.43623,12.7999064 251.190141,12.1874562 C249.95616,11.5608803 248.546616,11.2470878 246.986735,11.2470878 C245.157456,11.2470878 243.43412,11.7374516 241.792512,12.7181791 C240.162002,13.6978976 238.706045,15.0741448 237.425651,16.8297681 C236.656809,17.8922229 235.969694,19.1171233 235.375406,20.4933705 C234.793225,21.8817255 234.292771,23.338691 233.885144,24.8915095 C233.465409,26.4302024 233.162715,28.0092544 232.941749,29.6155488 C232.720782,31.2228522 232.615848,32.8160298 232.615848,34.3819651 C232.615848,36.5331081 232.848923,38.4663117 233.315071,40.1684591 C233.78021,41.8706065 234.444118,43.3003296 235.317894,44.4576284 C236.179562,45.6149272 237.215783,46.4998017 238.438666,47.0991352 C239.64944,47.7125944 241.012571,48.0253778 242.513931,48.0253778 C244.377516,48.0253778 246.159372,47.5491398 247.848403,46.581529 C249.548532,45.6290529 251.027695,44.2124466 252.30809,42.3206111 C253.100138,41.2036715 253.798352,39.9505197 254.381541,38.548039 C254.974821,37.159684 255.464176,35.7027185 255.848597,34.1771424 C256.232009,32.666701 256.535711,31.1269992 256.733471,29.5479472 C256.943339,27.9820119 257.048273,26.4705615 257.048273,25.0004793 L257.048273,25.0004793 Z M268.716105,24.5646004 C268.716105,26.8519556 268.541551,29.1534364 268.203543,31.468034 C267.866544,33.7826316 267.353983,36.0296277 266.677967,38.1938874 C266.014059,40.3591561 265.175598,42.4426976 264.163592,44.430386 C263.149568,46.4322001 261.974108,48.2433173 260.623085,49.9040966 C259.493028,51.3065772 258.24694,52.5869715 256.908025,53.7301446 C255.56911,54.8743266 254.101045,55.8409284 252.529056,56.6440756 C250.945968,57.4341061 249.233731,58.060682 247.393353,58.4965609 C245.553985,58.9324398 243.562261,59.1493702 241.419189,59.1493702 C238.193484,59.1493702 235.305786,58.5238033 232.767195,57.2847772 C230.239703,56.0316254 228.085533,54.3022356 226.338991,52.1107334 C224.592448,49.9182223 223.252524,47.3170746 222.333344,44.3082996 C221.413156,41.3126412 220.947007,38.0445585 220.947007,34.5454197 C220.947007,32.0673675 221.133669,29.6296745 221.494883,27.2192239 C221.855088,24.8097823 222.414063,22.4941757 223.148599,20.2754311 C223.893226,18.0556775 224.813415,15.9448936 225.908157,13.9299627 C227.013998,11.9281486 228.295401,10.089789 229.751357,8.41488405 C230.892512,7.1354988 232.115395,5.9782 233.431103,4.95711335 C234.75892,3.93501772 236.179562,3.05014322 237.705138,2.30148088 C239.230714,1.56593526 240.861224,0.99384422 242.618865,0.586216743 C244.366417,0.190697013 246.2411,-2.86769052e-14 248.243923,-2.86769052e-14 C251.271868,-2.86769052e-14 254.043533,0.557965334 256.54681,1.67490498 C259.062194,2.79184463 261.216364,4.39813904 263.021428,6.52304861 C264.815392,8.6328235 266.212828,11.2067287 267.213735,14.2568719 C268.215651,17.3070151 268.716105,20.7385524 268.716105,24.5646004 L268.716105,24.5646004 Z M218.490144,11.4377848 L201.395014,11.4377848 L199.07739,24.3325352 L215.008158,24.3325352 L213.062846,34.8582031 L197.202707,34.8582031 L194.815463,47.6984687 L213.062846,47.6984687 L211.153858,58.155526 L181.818806,58.155526 L192.218351,0.953485064 L220.400141,0.953485064 L218.490144,11.4377848 Z M168.194563,17.6197986 C168.194563,15.4141707 167.646688,13.6978976 166.528739,12.4588715 C165.410791,11.2198454 163.733868,10.6073952 161.474764,10.6073952 L156.874829,10.6073952 L153.939709,26.5250464 L158.411504,26.5250464 C160.088427,26.5250464 161.544383,26.2798645 162.778365,25.7895008 C164.001247,25.2860203 165.014262,24.6463277 165.80631,23.8290548 C166.610467,23.0117818 167.203746,22.0724225 167.600275,20.996851 C167.995795,19.9212795 168.194563,18.7912231 168.194563,17.6197986 L168.194563,17.6197986 Z M179.932015,15.5090147 C179.932015,17.932582 179.559702,20.1250932 178.814066,22.0724225 C178.057332,24.0328685 177.033219,25.7218992 175.739708,27.164739 C174.447206,28.5944621 172.92163,29.7658866 171.186186,30.6648868 C169.439643,31.5770038 167.588167,32.189454 165.60855,32.5022374 L165.60855,32.666701 C167.018094,33.1974239 168.216761,34.2043848 169.218677,35.7027185 C170.219584,37.1869265 170.977327,39.1614982 171.477781,41.6395504 L174.890147,58.155526 L163.082067,58.155526 L160.414327,43.4365418 C160.0067,41.0674593 159.296378,39.2835846 158.272265,38.071801 C157.247142,36.8600173 155.849707,36.2606838 154.079958,36.2606838 L152.193167,36.2606838 L148.210727,58.155526 L137.089762,58.155526 L147.488298,0.953485064 L164.211115,0.953485064 C167.052399,0.953485064 169.474958,1.34799581 171.477781,2.12390059 C173.480604,2.91393107 175.100015,3.97638586 176.357203,5.32438167 C177.603292,6.65926076 178.511373,8.21107031 179.082455,9.96770259 C179.652528,11.7243349 179.932015,13.5758111 179.932015,15.5090147 L179.932015,15.5090147 Z M125.549061,17.6197986 C125.549061,15.4141707 125.001186,13.6978976 123.883237,12.4588715 C122.765288,11.2198454 121.088365,10.6073952 118.829262,10.6073952 L114.229327,10.6073952 L111.295216,26.5250464 L115.767011,26.5250464 C117.443934,26.5250464 118.898881,26.2798645 120.133871,25.7895008 C121.356754,25.2860203 122.369769,24.6463277 123.160808,23.8290548 C123.964964,23.0117818 124.558244,22.0724225 124.954773,20.996851 C125.351301,19.9212795 125.549061,18.7912231 125.549061,17.6197986 L125.549061,17.6197986 Z M137.287522,15.5090147 C137.287522,17.932582 136.914199,20.1250932 136.169573,22.0724225 C135.41183,24.0328685 134.387716,25.7218992 133.095214,27.164739 C131.802712,28.5944621 130.277136,29.7658866 128.541693,30.6648868 C126.79515,31.5770038 124.942665,32.189454 122.964057,32.5022374 L122.964057,32.666701 C124.372592,33.1974239 125.572268,34.2043848 126.573175,35.7027185 C127.575091,37.1869265 128.331825,39.1614982 128.832278,41.6395504 L132.244645,58.155526 L120.436565,58.155526 L117.769834,43.4365418 C117.362206,41.0674593 116.651885,39.2835846 115.626763,38.071801 C114.60164,36.8600173 113.204204,36.2606838 111.434455,36.2606838 L109.547665,36.2606838 L105.565225,58.155526 L94.4442595,58.155526 L104.843805,0.953485064 L121.565612,0.953485064 C124.406897,0.953485064 126.829455,1.34799581 128.832278,2.12390059 C130.836111,2.91393107 132.454513,3.97638586 133.7117,5.32438167 C134.957789,6.65926076 135.866879,8.21107031 136.436952,9.96770259 C137.008034,11.7243349 137.287522,13.5758111 137.287522,15.5090147 L137.287522,15.5090147 Z M79.6314402,25.0004793 C79.6314402,22.8483273 79.3983661,20.9282404 78.9322178,19.226093 C78.4660696,17.5249546 77.8021614,16.0811058 76.9293947,14.8965645 C76.0677267,13.7120233 75.0193976,12.7999064 73.7733087,12.1874562 C72.5393275,11.5608803 71.1297839,11.2470878 69.5699026,11.2470878 C67.7406238,11.2470878 66.0172878,11.7374516 64.3756792,12.7181791 C62.7451693,13.6978976 61.2892127,15.0741448 60.0088185,16.8297681 C59.2399766,17.8922229 58.5528619,19.1171233 57.9585733,20.4933705 C57.3774015,21.8817255 56.875939,23.338691 56.4683115,24.8915095 C56.0495853,26.4302024 55.7468916,28.0092544 55.5249162,29.6155488 C55.3039498,31.2228522 55.199016,32.8160298 55.199016,34.3819651 C55.199016,36.5331081 55.4320902,38.4663117 55.8982384,40.1684591 C56.3643867,41.8706065 57.0272858,43.3003296 57.9010615,44.4576284 C58.7627295,45.6149272 59.7989509,46.4998017 61.0218333,47.0991352 C62.232608,47.7125944 63.5957385,48.0253778 65.0981081,48.0253778 C66.9606831,48.0253778 68.7425399,47.5491398 70.4315705,46.581529 C72.1317,45.6290529 73.6108631,44.2124466 74.8912573,42.3206111 C75.6833057,41.2036715 76.3825281,39.9505197 76.9647089,38.548039 C77.5579885,37.159684 78.0473433,35.7027185 78.4317643,34.1771424 C78.8161852,32.666701 79.1188789,31.1269992 79.3166388,29.5479472 C79.5265064,27.9820119 79.6314402,26.4705615 79.6314402,25.0004793 L79.6314402,25.0004793 Z M91.2992722,24.5646004 C91.2992722,26.8519556 91.1247189,29.1534364 90.7877199,31.468034 C90.449712,33.7826316 89.9371507,36.0296277 89.2621438,38.1938874 C88.5982357,40.3591561 87.7597742,42.4426976 86.7467594,44.430386 C85.7337446,46.4322001 84.5572752,48.2433173 83.2062524,49.9040966 C82.077205,51.3065772 80.8311161,52.5869715 79.4911921,53.7301446 C78.1522771,54.8743266 76.6852218,55.8409284 75.1132327,56.6440756 C73.5291358,57.4341061 71.8168986,58.060682 69.97753,58.4965609 C68.1371525,58.9324398 66.1464371,59.1493702 64.003366,59.1493702 C60.7776604,59.1493702 57.8899628,58.5238033 55.3503629,57.2847772 C52.8238797,56.0316254 50.6687008,54.3022356 48.9221583,52.1107334 C47.1756158,49.9182223 45.8367008,47.3170746 44.916512,44.3082996 C43.9963233,41.3126412 43.530175,38.0445585 43.530175,34.5454197 C43.530175,32.0673675 43.7168361,29.6296745 44.0780506,27.2192239 C44.439265,24.8097823 44.9982393,22.4941757 45.731767,20.2754311 C46.4763934,18.0556775 47.3965822,15.9448936 48.4913243,13.9299627 C49.5981742,11.9281486 50.8785684,10.089789 52.3345249,8.41488405 C53.4756801,7.1354988 54.6985625,5.9782 56.014271,4.95711335 C57.3420872,3.93501772 58.7627295,3.05014322 60.2883056,2.30148088 C61.8138817,1.56593526 63.4443916,0.99384422 65.2020329,0.586216743 C66.9495844,0.190697013 68.8242672,-2.86769052e-14 70.8270903,-2.86769052e-14 C73.855036,-2.86769052e-14 76.626701,0.557965334 79.1299777,1.67490498 C81.6453621,2.79184463 83.800541,4.39813904 85.6056043,6.52304861 C87.3985598,8.6328235 88.7959956,11.2067287 89.7979116,14.2568719 C90.7988187,17.3070151 91.2992722,20.7385524 91.2992722,24.5646004 L91.2992722,24.5646004 Z M41.2478647,14.7875948 C40.5607501,14.3658416 39.8272225,13.9430795 39.0472818,13.5213263 C38.2552333,13.0854474 37.4046641,12.7181791 36.4733766,12.3771442 C35.5299813,12.051244 34.5280653,11.7788197 33.4454309,11.5608803 C32.3627965,11.3429408 31.1863271,11.2470878 29.9170317,11.2470878 C26.9587055,11.2470878 24.3504951,11.8333046 22.0913913,13.0178458 C19.8201798,14.202387 17.9222905,15.7955647 16.3735078,17.7832532 C14.8247252,19.7850673 13.6603636,22.0996649 12.8562074,24.728055 C12.0651679,27.355436 11.6686392,30.1331549 11.6686392,33.0612117 C11.6686392,35.484779 11.9713329,37.6228053 12.588828,39.4873984 C13.1942153,41.3530004 14.0790898,42.9058189 15.2091462,44.1720874 C16.3503013,45.4383559 17.7124229,46.391841 19.3086275,47.0446503 C20.9038231,47.6984687 22.6846709,48.0253778 24.6652965,48.0253778 C25.9113854,48.0253778 27.0868458,47.9295248 28.181588,47.7257111 C29.2652313,47.5218974 30.3014526,47.2625898 31.2791532,46.9225639 C32.2578627,46.5956547 33.1891502,46.2142607 34.062926,45.7925075 C34.9356927,45.3697454 35.7741542,44.907633 36.5662026,44.430386 L34.2495871,56.6037165 C32.5726641,57.4209894 30.7090801,58.060682 28.6709427,58.4965609 C26.6328053,58.9324398 24.3504951,59.1493702 21.7997964,59.1493702 C18.3884387,59.1493702 15.3251788,58.5641625 12.6241422,57.3796212 C9.90998899,56.19508 7.62767871,54.5070583 5.76510366,52.3286729 C3.90151962,50.1492784 2.46876958,47.5350141 1.47896128,44.4989966 C0.489152972,41.4488533 -0.000201795781,38.0445585 -0.000201795781,34.3002378 C-0.000201795781,31.2904537 0.268186592,28.3634059 0.815053158,25.5039597 C1.3629287,22.6445135 2.18928242,19.9485219 3.28402453,17.4018591 C4.39087439,14.8693221 5.77620243,12.5274821 7.45312536,10.4035815 C9.11894953,8.2786719 11.0864584,6.44132132 13.3576699,4.90161951 C15.6167737,3.36393566 18.1896699,2.152152 21.0662687,1.29351095 C23.9428676,0.42276216 27.1221601,-2.86769052e-14 30.6041463,-2.86769052e-14 C31.9198548,-2.86769052e-14 33.1891502,0.0686105654 34.4241404,0.232065148 C35.6470229,0.39551973 36.8224833,0.599333469 37.9404319,0.844515342 C39.0472818,1.10281394 40.0835031,1.38936395 41.0268984,1.68903068 C41.9702936,1.98869742 42.7966474,2.28836415 43.530175,2.58702191 L41.2478647,14.7875948 Z" id="Fill-9" fill="#231F20" mask="url(#mask-5)"></path>
                </g>
            </g>
        </g>
    </g>
</svg>