<?xml version="1.0" encoding="UTF-8"?>
<svg width="980px" height="680px" viewBox="0 0 980 680" version="1.1" xmlns="http://www.w3.org/2000/svg" xmlns:xlink="http://www.w3.org/1999/xlink">
    <title>EE omniva</title>
    <defs>
        <linearGradient x1="50%" y1="0%" x2="50%" y2="100%" id="linearGradient-1">
            <stop stop-color="#FFFFFF" offset="0%"></stop>
            <stop stop-color="#EDEDED" offset="100%"></stop>
        </linearGradient>
        <rect id="path-2" x="0" y="0" width="900" height="600" rx="80"></rect>
        <filter x="-6.7%" y="-10.0%" width="113.3%" height="120.0%" filterUnits="objectBoundingBox" id="filter-3">
            <feMorphology radius="2.5" operator="dilate" in="SourceAlpha" result="shadowSpreadOuter1"></feMorphology>
            <feOffset dx="0" dy="0" in="shadowSpreadOuter1" result="shadowOffsetOuter1"></feOffset>
            <feGaussianBlur stdDeviation="17.5" in="shadowOffsetOuter1" result="shadowBlurOuter1"></feGaussianBlur>
            <feColorMatrix values="0 0 0 0 0   0 0 0 0 0   0 0 0 0 0  0 0 0 0.5 0" type="matrix" in="shadowBlurOuter1"></feColorMatrix>
        </filter>
    </defs>
    <g id="EE-omniva" stroke="none" stroke-width="1" fill="none" fill-rule="evenodd">
        <g transform="translate(40, 40)">
            <g id="Rectangle">
                <use fill="black" fill-opacity="1" filter="url(#filter-3)" xlink:href="#path-2"></use>
                <use fill="url(#linearGradient-1)" fill-rule="evenodd" xlink:href="#path-2"></use>
            </g>
            <g id="Logo" transform="translate(199.9559, 49.9687)">
                <path d="M70.0638856,0.325610305 C72.296474,-0.418585831 74.0329316,1.81400258 75.7693893,3.05432947 C99.831731,25.3802136 132.328296,38.0315479 165.072926,38.5276786 C199.305948,39.2718748 233.53897,26.1244097 258.593573,3.05432947 C260.081966,1.81400258 262.066489,-0.418585831 264.299077,0.573675684 C266.531666,2.06206796 268.268123,4.04659099 270.004581,5.78304864 C290.097877,25.8763443 309.943107,45.96964 330.036403,66.0629357 C331.276729,67.3032626 333.013187,69.0397202 332.268991,71.0242433 C330.036403,74.2490932 326.811553,76.4816816 323.834768,79.2104008 C297.539838,102.776612 266.035535,120.141188 232.298643,129.815738 C188.143006,142.467072 140.514453,141.970942 96.8549465,128.327346 C62.3738588,117.660534 30.6214903,99.0556311 4.32656019,74.2490932 C3.0862333,72.7607009 0.853644888,71.2723086 1.34977565,69.0397202 C2.83816792,66.3110011 5.07075633,64.5745434 7.30334474,62.341955 C27.3966404,42.4967247 47.2418707,22.1553636 67.3351664,2.31013334 C68.0793625,1.5659372 69.0716241,0.821741063 70.0638856,0.325610305 Z" id="path2" fill="#EA5B08"></path>
                <path d="M429.014489,0.573675684 C430.750946,-0.914716589 432.735469,0.821741063 433.975796,2.06206796 C455.309419,23.3956905 476.643041,44.7293131 497.976664,66.0629357 C499.216991,67.3032626 500.705383,68.7916549 500.209252,70.7761779 C499.216991,72.5126355 497.728599,74.0010278 496.240206,75.7374855 C474.162388,100.295958 461.759119,133.288653 462.007184,166.529414 C462.007184,200.01824 475.154649,233.259001 497.976664,257.817473 C499.961187,259.553931 501.449579,262.530716 498.968926,264.515239 C477.387238,286.344992 455.557484,307.92668 433.975796,329.508368 C432.239339,331.740956 429.014489,331.740956 427.526096,329.508368 C408.921193,310.159268 393.54114,287.585319 382.378197,263.026846 C366.005882,226.809301 359.308117,186.62271 362.284902,147.180315 C366.502013,92.3578658 390.31629,39.2718748 429.014489,0.573675684 Z" id="path4" fill="#E9470A"></path>
                <path d="M67.087101,167.769741 C68.8235587,166.033283 71.3042125,167.27361 72.5445394,169.010068 C92.1417043,188.607233 111.490804,207.956332 131.087969,227.553497 C133.568623,230.282216 136.545407,232.514805 138.52993,235.491589 C139.522192,237.972243 137.289603,239.708701 135.801211,241.197093 C112.979196,266.003631 100.079796,299.740523 100.327862,333.477414 C100.575927,366.470109 113.475327,399.462805 135.801211,423.525147 C136.793472,425.013539 138.777995,426.253866 138.52993,428.486454 C138.52993,429.974846 137.041538,430.719043 136.297342,431.959369 C114.963719,453.292992 93.8781619,474.626615 72.296474,495.960237 C71.0561471,497.200564 69.3196894,498.440891 67.5832318,497.448629 C65.102578,495.712172 63.118055,492.983453 60.8854666,490.750864 C38.8076478,466.440457 21.9392021,437.664873 11.7685216,406.408635 C-2.61927041,362.501063 -3.85959731,314.37638 8.29560625,269.972677 C18.7143522,231.770609 39.0557132,196.049194 67.087101,167.769741 L67.087101,167.769741 Z" id="path6" fill="#E6035C"></path>
                <path d="M237.508016,361.508802 C239.98867,360.02041 241.973193,362.749129 243.709651,363.989456 C268.020058,386.563405 301.260819,399.462805 334.253514,399.214739 C367.990405,399.462805 401.727297,386.563405 426.533835,363.493325 C428.270293,361.508802 431.247077,359.772344 433.2316,362.501063 C452.828765,381.850163 472.177865,401.447328 491.77503,421.044493 C494.503749,423.773212 497.480533,426.253866 499.713122,429.478716 C500.705383,431.215173 499.465056,432.951631 498.224729,434.191958 C469.697211,461.727215 434.471927,481.820511 396.269859,491.991191 C353.354548,503.402198 307.214388,502.658002 264.795208,489.510537 C229.569924,478.595661 197.07336,459.246561 170.778429,433.695827 C168.545841,432.207435 169.290037,429.23065 171.026495,427.742258 C191.11979,407.648962 211.213086,387.555667 231.058316,367.462371 C233.53897,365.477848 235.275428,363.245259 237.508016,361.508802 L237.508016,361.508802 Z" id="Path" fill="#E4022C"></path>
            </g>
        </g>
    </g>
</svg>