<?xml version="1.0" encoding="UTF-8"?>
<svg width="980px" height="680px" viewBox="0 0 980 680" version="1.1" xmlns="http://www.w3.org/2000/svg" xmlns:xlink="http://www.w3.org/1999/xlink">
    <title>EE omniva text alt</title>
    <defs>
        <linearGradient x1="50%" y1="0%" x2="50%" y2="100%" id="linearGradient-1">
            <stop stop-color="#FFFFFF" offset="0%"></stop>
            <stop stop-color="#EDEDED" offset="100%"></stop>
        </linearGradient>
        <rect id="path-2" x="0" y="0" width="900" height="600" rx="80"></rect>
        <filter x="-6.7%" y="-10.0%" width="113.3%" height="120.0%" filterUnits="objectBoundingBox" id="filter-3">
            <feMorphology radius="2.5" operator="dilate" in="SourceAlpha" result="shadowSpreadOuter1"></feMorphology>
            <feOffset dx="0" dy="0" in="shadowSpreadOuter1" result="shadowOffsetOuter1"></feOffset>
            <feGaussianBlur stdDeviation="17.5" in="shadowOffsetOuter1" result="shadowBlurOuter1"></feGaussianBlur>
            <feColorMatrix values="0 0 0 0 0   0 0 0 0 0   0 0 0 0 0  0 0 0 0.5 0" type="matrix" in="shadowBlurOuter1"></feColorMatrix>
        </filter>
    </defs>
    <g id="EE-omniva-text-alt" stroke="none" stroke-width="1" fill="none" fill-rule="evenodd">
        <g transform="translate(40, 40)">
            <g id="Rectangle">
                <use fill="black" fill-opacity="1" filter="url(#filter-3)" xlink:href="#path-2"></use>
                <use fill="url(#linearGradient-1)" fill-rule="evenodd" xlink:href="#path-2"></use>
            </g>
            <g id="Logo" transform="translate(44.1324, 49.9687)">
                <g id="Group" transform="translate(257.7014, 0)">
                    <path d="M41.4461152,0.192613956 C42.7667972,-0.247613395 43.7939944,1.07306866 44.8211915,1.80678091 C59.0552092,15.0136014 78.2784702,22.4974664 97.6484737,22.7909513 C117.898932,23.2311787 138.14939,15.4538288 152.970377,1.80678091 C153.850832,1.07306866 155.024772,-0.247613395 156.345454,0.339356407 C157.666136,1.21981111 158.693333,2.39375071 159.72053,3.42094787 C171.606669,15.3070864 183.346065,27.1932248 195.232203,39.0793633 C195.965915,39.8130756 196.993113,40.8402727 196.552885,42.0142123 C195.232203,43.9218642 193.324551,45.2425462 191.563642,46.8567132 C176.008942,60.797246 157.372651,71.0692175 137.415678,76.7921731 C111.295522,84.2760381 83.1209711,83.9825532 57.2942998,75.9117184 C36.8970992,69.601793 18.1140655,58.5961092 2.55936579,43.9218642 C1.82565354,43.0414095 0.504971485,42.1609548 0.798456386,40.8402727 C1.67891109,39.2261058 2.99959314,38.1989086 4.3202752,36.8782266 C16.2064137,25.1388305 27.9458097,13.1059496 39.8319482,1.36655356 C40.2721756,0.926326209 40.8591454,0.486098857 41.4461152,0.192613956 Z" id="path2" fill="#EA5B08"></path>
                    <path d="M253.782441,0.339356407 C254.809638,-0.541098296 255.983578,0.486098857 256.71729,1.21981111 C269.337141,13.8396618 281.956991,26.4595126 294.576842,39.0793633 C295.310554,39.8130756 296.191009,40.6935303 295.897524,41.8674699 C295.310554,42.894667 294.4301,43.7751217 293.549645,44.8023189 C280.489567,59.3298215 273.152444,78.8465674 273.299187,98.5100557 C273.299187,118.320287 281.076537,137.983775 294.576842,152.511278 C295.750782,153.538475 296.631236,155.299384 295.163812,156.473324 C282.397219,169.386659 269.483883,182.153252 256.71729,194.919846 C255.690093,196.240528 253.782441,196.240528 252.901986,194.919846 C241.896302,183.473935 232.798271,170.120372 226.19486,155.592869 C216.509859,134.168471 212.547812,110.396194 214.308722,87.0641446 C216.803343,54.6340631 230.890619,23.2311787 253.782441,0.339356407 Z" id="path4" fill="#E9470A"></path>
                    <path d="M39.6852057,99.243768 C40.7124029,98.2165708 42.1798274,98.9502831 42.9135397,99.9774802 C54.5061932,111.570134 65.9521044,123.016045 77.544758,134.608699 C79.0121825,136.222866 80.7730919,137.543548 81.9470315,139.304457 C82.5340013,140.771881 81.2133192,141.799079 80.3328645,142.679533 C66.8325591,157.353778 59.2019517,177.310752 59.3486941,197.267725 C59.4954366,216.784471 67.126044,236.301217 80.3328645,250.535234 C80.9198343,251.415689 82.0937739,252.149401 81.9470315,253.470083 C81.9470315,254.350538 81.0665768,254.790765 80.6263494,255.524478 C68.0064987,268.144328 55.5333904,280.764179 42.7667972,293.38403 C42.033085,294.117742 41.0058878,294.851454 39.9786907,294.264485 C38.5112661,293.237287 37.3373265,291.623121 36.0166445,290.302438 C22.9565664,275.921678 12.9780798,258.899554 6.9616393,240.410005 C-1.54942282,214.436592 -2.28313507,185.968556 4.907245,159.701658 C11.0704279,137.10332 23.1033089,115.972407 39.6852057,99.243768 L39.6852057,99.243768 Z" id="path6" fill="#E6035C"></path>
                    <path d="M140.497269,213.849622 C141.964694,212.969167 143.138633,214.583334 144.16583,215.317046 C158.546591,228.670609 178.210079,236.301217 197.726825,236.154474 C217.683798,236.301217 237.640771,228.670609 252.315016,215.023561 C253.342214,213.849622 255.103123,212.822425 256.277063,214.436592 C267.869716,225.882503 279.315627,237.475156 290.908281,249.06781 C292.522448,250.681977 294.283357,252.149401 295.604039,254.057053 C296.191009,255.08425 295.457297,256.111448 294.723585,256.84516 C277.848203,273.133572 257.010775,285.01971 234.412437,291.036151 C209.025994,297.786303 181.731898,297.346076 156.638939,289.568726 C135.801511,283.112058 116.57825,271.666147 101.02355,256.551675 C99.702868,255.67122 100.143095,253.910311 101.170292,253.029856 C113.056431,241.143718 124.942569,229.257579 136.681965,217.371441 C138.14939,216.197501 139.176587,214.876819 140.497269,213.849622 L140.497269,213.849622 Z" id="Path" fill="#E4022C"></path>
                </g>
                <g id="Group-2" transform="translate(0, 320.2996)" fill="#E4022C">
                    <path d="M527.640238,0.534727689 C537.618724,-2.10663642 548.624408,5.37722855 549.798348,15.5024576 C551.412514,24.8939745 544.662362,34.5789762 535.270845,36.1931431 C525.439101,38.3942799 515.020387,31.0571574 513.699705,21.0786707 C512.085538,11.9806388 518.542206,2.44237955 527.640238,0.534727689 L527.640238,0.534727689 Z" id="Path"></path>
                    <path d="M124.832211,91.2215621 C118.815771,75.9603472 106.78289,63.0470116 91.8151598,56.2968589 C79.4887939,50.5739033 65.4015187,48.9597363 52.0479557,51.6011004 C35.1725739,54.8294343 19.7646166,65.3948908 10.3730998,79.9223934 C0.541355584,95.0368658 -2.54023588,114.406869 2.15552254,131.722478 C6.1175687,146.690208 15.655828,160.190514 28.5691636,168.701576 C42.6564389,178.239835 60.7057603,181.908396 77.4343996,178.386578 C95.9239484,174.864759 112.359103,162.685135 121.310392,146.103239 C130.555167,129.521342 131.875849,108.830656 124.832211,91.2215621 Z M81.6899307,147.570663 C65.6950036,156.37521 43.683636,150.652254 33.9986343,135.244297 C23.7266628,120.42331 26.9549967,98.4119421 41.0422719,86.966031 C45.5912879,83.1507273 51.0207585,80.5093632 56.7437141,79.1886811 C74.2060657,74.9331501 93.5760692,85.6453489 99.2990247,102.667473 C105.60895,119.24937 97.5381153,139.646571 81.6899307,147.570663 Z" id="Shape"></path>
                    <path d="M197.909951,51.8945853 C215.959273,49.9869335 236.062989,47.9325392 251.911173,58.3512532 C271.574662,52.3348127 292.265347,48.8129939 312.956033,51.0141306 C322.054064,52.0413278 331.885809,54.5359494 338.048992,61.873072 C344.065432,68.7699671 345.239372,78.3082264 345.239372,87.1127734 C345.239372,115.287324 345.239372,143.461874 345.239372,171.489682 C345.386114,173.690819 344.945887,176.625668 342.011038,176.478926 C333.499976,176.625668 324.988913,176.772411 316.477851,176.332183 C313.98323,176.185441 313.689745,173.397334 313.836487,171.34294 C313.836487,144.342329 313.836487,117.341718 313.836487,90.3411074 C313.836487,85.6453489 313.249517,80.5093632 310.167926,76.6940595 C307.086335,73.0254982 302.243834,71.998301 297.694818,71.8515586 C287.129361,71.5580737 276.563905,73.4657256 266.291933,75.6668623 C266.145191,107.950201 266.291933,140.23354 266.145191,172.370137 C266.438676,174.718016 264.824509,176.772411 262.329887,176.332183 C253.378598,176.185441 244.427308,177.065896 235.476019,175.745214 C235.182534,173.837562 234.889049,171.92991 234.889049,170.022258 C234.889049,143.461874 234.889049,116.754748 234.889049,90.1943649 C234.889049,84.6181518 234.155337,77.8679991 229.019351,74.3461803 C223.736623,70.9711039 216.98647,71.5580737 210.970029,71.8515586 C203.045937,72.2917859 195.121845,73.9059529 187.344495,75.3733774 C186.317298,108.683914 187.63798,141.99445 186.757525,175.304986 C182.501994,176.919153 177.806236,176.185441 173.25722,176.332183 C168.267976,176.185441 163.131991,176.625668 158.142747,176.038698 C155.648126,175.891956 155.354641,173.103849 155.501383,171.196198 C155.501383,137.592176 155.501383,103.988155 155.501383,70.3841341 C155.354641,65.3948908 158.87646,61.1393597 163.425476,59.5251928 C174.577902,55.2696617 186.317298,53.3620098 197.909951,51.8945853 L197.909951,51.8945853 Z" id="Path"></path>
                    <path d="M398.947108,54.9761768 C415.23552,51.454358 432.110902,49.5467061 448.839542,50.5739033 C457.497346,51.1608731 466.448636,52.4815551 473.785758,57.4707985 C479.361971,61.1393597 483.030533,67.3025426 484.497957,73.7592105 C485.965382,80.0691358 485.671897,86.5258036 485.818639,92.835729 C485.818639,115.874294 485.818639,138.912858 485.818639,161.951423 C485.818639,166.647182 486.112124,171.34294 485.231669,175.891956 C480.242426,176.919153 475.10644,176.478926 470.117197,176.478926 C465.127954,176.332183 459.991968,176.919153 455.002725,175.745214 C454.562497,173.837562 454.269012,171.92991 454.269012,170.169 C454.269012,143.608617 454.269012,117.048233 454.269012,90.3411074 C454.269012,85.6453489 453.975527,80.6561056 450.893936,76.8408019 C447.959087,73.0254982 442.823101,71.998301 438.274085,71.8515586 C429.029311,71.7048161 419.931279,73.0254982 410.979989,74.9331501 C409.659307,75.3733774 406.871201,75.3733774 407.311428,77.5745142 C407.311428,106.482777 407.311428,135.39104 407.311428,164.299302 C407.164686,167.967864 407.604913,171.636425 406.871201,175.158244 C404.963549,177.065896 402.0287,176.332183 399.680821,176.478926 C392.637183,176.332183 385.740288,176.772411 378.69665,176.185441 C376.202029,176.038698 375.761801,173.250592 375.908544,171.196198 C375.908544,138.032404 375.908544,104.721867 375.908544,71.5580737 C375.761801,67.4492851 377.375968,63.193754 380.897787,60.9926173 C386.327258,57.9110258 392.783926,56.5903438 398.947108,54.9761768 L398.947108,54.9761768 Z" id="Path"></path>
                    <path d="M803.809529,61.2861022 C795.738694,53.6554947 784.146041,51.6011004 773.433842,50.7206457 C754.504066,49.3999637 735.427547,51.6011004 717.084741,56.4436013 L717.084741,56.4436013 C714.443377,57.1773136 711.65527,57.7642834 709.307391,59.5251928 C707.399739,61.5795871 708.867164,64.3676936 709.160649,66.7155728 C710.334588,70.8243614 710.481331,75.3733774 712.535725,79.1886811 C714.736862,79.7756509 716.937999,78.8951962 719.139135,78.4549689 C734.98732,74.1994378 751.569217,71.4113312 768.004371,73.4657256 C772.259902,74.1994378 777.395888,75.6668623 779.156798,80.0691358 C781.064449,85.2051216 780.183995,90.9280772 780.330737,96.3575478 C766.977174,97.6782299 753.623611,98.8521695 740.416791,100.172852 C729.998077,101.640276 718.992393,104.28164 711.068301,111.765505 C703.437693,118.955885 700.796329,129.814827 700.943071,139.940056 C700.796329,150.065285 703.437693,160.924226 711.215043,167.967864 C719.872848,176.185441 732.345956,178.386578 743.938609,179.267032 C761.254219,180.294229 778.71657,179.70726 795.591952,175.011501 C800.28771,173.690819 805.423696,171.92991 808.505288,167.821121 C811.586879,163.418848 812.027106,157.842635 812.173849,152.706649 C812.173849,130.842024 812.173849,108.977399 812.173849,86.966031 C812.027106,78.0147415 810.706424,67.8895124 803.809529,61.2861022 Z M780.330737,156.081725 C769.912023,159.163317 758.759597,160.190514 747.900656,158.282862 C742.030958,157.255665 736.16126,153.587103 734.253608,147.570663 C732.345956,141.260738 732.492698,133.923615 735.721032,128.053917 C739.096109,122.330962 746.139746,120.716795 752.302929,119.983082 C761.694446,118.955885 771.085963,117.781946 780.624222,116.901491 C780.47748,129.961569 780.770965,143.021647 780.330737,156.081725 Z" id="Shape"></path>
                    <path d="M572.543427,53.8022372 C580.46752,52.9217825 588.538354,53.5087523 596.609189,53.3620098 C599.250553,53.3620098 603.065857,53.2152674 603.652827,56.5903438 C612.457374,89.1671677 620.528209,121.743992 629.332756,154.320816 C630.80018,154.027331 631.680635,153.293619 631.827377,151.826194 C639.017757,121.010279 646.208137,90.1943649 653.398518,59.3784503 C653.985487,57.4707985 654.278972,55.2696617 655.893139,54.0957221 C658.974731,53.0685249 662.349807,53.5087523 665.578141,53.3620098 C671.741324,53.5087523 677.904507,53.0685249 684.06769,53.6554947 C687.149281,53.8022372 687.442766,57.6175409 686.562311,59.8186777 C675.70337,97.0912601 664.844429,134.363842 653.985487,171.636425 C653.398518,173.984304 652.077835,176.919153 649.142986,176.625668 C636.229651,176.919153 623.316315,176.772411 610.549722,176.625668 C607.761615,176.772411 606.147449,174.131047 605.413736,171.783167 C594.995022,136.711722 584.429566,101.640276 574.010852,66.4220879 C572.983655,62.3132993 570.489033,58.0577683 572.543427,53.8022372 L572.543427,53.8022372 Z" id="Path"></path>
                    <path d="M516.634554,56.8838287 C518.395463,54.8294343 521.330312,55.5631466 523.678191,55.4164041 C531.308799,55.7098891 539.086149,54.8294343 546.716756,56.003374 C547.156983,58.2045107 547.450468,60.258905 547.450468,62.4600418 C547.303726,99.1456544 547.450468,135.978009 547.450468,172.663622 C547.890696,175.598471 545.102589,177.065896 542.607967,176.625668 C534.096905,176.332183 525.439101,177.35938 516.928039,175.891956 C516.487811,173.984304 516.194326,172.076652 516.194326,170.315743 C516.194326,135.537782 516.194326,100.759821 516.194326,65.9818606 C516.194326,62.9002691 515.754099,59.8186777 516.634554,56.8838287 L516.634554,56.8838287 Z" id="Path"></path>
                </g>
            </g>
        </g>
    </g>
</svg>