<?xml version="1.0" encoding="UTF-8"?>
<svg width="980px" height="680px" viewBox="0 0 980 680" version="1.1" xmlns="http://www.w3.org/2000/svg" xmlns:xlink="http://www.w3.org/1999/xlink">
    <title>EE omniva text</title>
    <defs>
        <linearGradient x1="50%" y1="0%" x2="50%" y2="100%" id="linearGradient-1">
            <stop stop-color="#FFFFFF" offset="0%"></stop>
            <stop stop-color="#EDEDED" offset="100%"></stop>
        </linearGradient>
        <rect id="path-2" x="0" y="0" width="900" height="600" rx="80"></rect>
        <filter x="-6.7%" y="-10.0%" width="113.3%" height="120.0%" filterUnits="objectBoundingBox" id="filter-3">
            <feMorphology radius="2.5" operator="dilate" in="SourceAlpha" result="shadowSpreadOuter1"></feMorphology>
            <feOffset dx="0" dy="0" in="shadowSpreadOuter1" result="shadowOffsetOuter1"></feOffset>
            <feGaussianBlur stdDeviation="17.5" in="shadowOffsetOuter1" result="shadowBlurOuter1"></feGaussianBlur>
            <feColorMatrix values="0 0 0 0 0   0 0 0 0 0   0 0 0 0 0  0 0 0 0.5 0" type="matrix" in="shadowBlurOuter1"></feColorMatrix>
        </filter>
    </defs>
    <g id="EE-omniva-text" stroke="none" stroke-width="1" fill="none" fill-rule="evenodd">
        <g transform="translate(40, 40)">
            <g id="Rectangle">
                <use fill="black" fill-opacity="1" filter="url(#filter-3)" xlink:href="#path-2"></use>
                <use fill="url(#linearGradient-1)" fill-rule="evenodd" xlink:href="#path-2"></use>
            </g>
            <g id="Logo" transform="translate(49.9559, 199.9687)">
                <path d="M27.9560298,0.129921019 C28.8468498,-0.16701897 29.5397098,0.723800996 30.2325697,1.21870098 C39.8336294,10.1269006 52.8000089,15.1748804 65.8653684,15.3728404 C79.5246078,15.6697804 93.1838473,10.4238406 103.180827,1.21870098 C103.774707,0.723800996 104.566547,-0.16701897 105.457367,0.228901015 C106.348187,0.822780992 107.041047,1.61462096 107.733907,2.30748093 C115.751286,10.3248606 123.669686,18.3422403 131.687066,26.35962 C132.181966,26.85452 132.874826,27.54738 132.577886,28.3392199 C131.687066,29.6259599 130.400326,30.5167798 129.212566,31.6055598 C118.720686,41.0086594 106.150227,47.9372592 92.6889473,51.797479 C75.070508,56.8454588 56.0663487,56.6474988 38.6458694,51.203599 C24.8876499,46.9474592 12.2182104,39.5239595 1.72633083,29.6259599 C1.23143085,29.0320799 0.340610883,28.4381999 0.538570876,27.54738 C1.13245085,26.4586 2.02327082,25.76574 2.91409078,24.8749201 C10.9314705,16.9565204 18.8498702,8.84016068 26.8672499,0.921760988 C27.1641898,0.624821 27.5601098,0.327881011 27.9560298,0.129921019 Z" id="path2" fill="#EA5B08"></path>
                <path d="M171.180084,0.228901015 C171.872944,-0.364978962 172.664784,0.327881011 173.159684,0.822780992 C181.671964,9.33506066 190.184244,17.8473403 198.696523,26.35962 C199.191423,26.85452 199.785303,27.4484 199.587343,28.2402399 C199.191423,28.9330999 198.597543,29.5269799 198.003663,30.2198399 C189.194444,40.0188595 184.245444,53.183199 184.344424,66.4465185 C184.344424,79.8088179 189.590364,93.0721374 198.696523,102.871157 C199.488363,103.564017 200.082243,104.751777 199.092443,105.543617 C190.481184,114.253857 181.770944,122.865116 173.159684,131.476376 C172.466824,132.367196 171.180084,132.367196 170.586204,131.476376 C163.162705,123.755936 157.025945,114.748757 152.571845,104.949737 C146.039165,90.4986575 143.366705,74.4638981 144.554465,58.7260788 C146.237125,36.8514996 155.739205,15.6697804 171.180084,0.228901015 Z" id="path4" fill="#E9470A"></path>
                <path d="M26.7682699,66.9414184 C27.4611298,66.2485585 28.4509298,66.7434584 28.9458298,67.4363184 C36.7652495,75.2557381 44.4856892,82.9761778 52.3051089,90.7955975 C53.2949088,91.8843775 54.4826688,92.7751974 55.2745088,93.9629574 C55.6704287,94.9527574 54.7796088,95.6456173 54.1857288,96.2394973 C45.0795692,106.137497 39.9326094,119.598776 40.0315894,133.060056 C40.1305693,146.224395 45.2775291,159.388735 54.1857288,168.989794 C54.5816488,169.583674 55.3734888,170.078574 55.2745088,170.969394 C55.2745088,171.563274 54.6806288,171.860214 54.3836888,172.355114 C45.8714091,180.867394 37.4581094,189.379674 28.8468498,197.891953 C28.3519498,198.386853 27.6590898,198.881753 26.9662299,198.485833 C25.9764299,197.792973 25.1845899,196.704193 24.29377,195.813373 C15.4845503,186.113334 8.75391056,174.631654 4.69573072,162.160175 C-1.04510906,144.640715 -1.54000904,125.438596 3.31001077,107.721177 C7.46717061,92.4782575 15.5835303,78.225138 26.7682699,66.9414184 L26.7682699,66.9414184 Z" id="path6" fill="#E6035C"></path>
                <path d="M94.7675272,144.244795 C95.7573272,143.650915 96.5491672,144.739695 97.2420271,145.234595 C106.942067,154.241775 120.205386,159.388735 133.369726,159.289755 C146.831005,159.388735 160.292285,154.241775 170.190284,145.036635 C170.883144,144.244795 172.070904,143.551935 172.862744,144.640715 C180.682164,152.361155 188.402604,160.180575 196.222023,167.999995 C197.310803,169.088774 198.498563,170.078574 199.389383,171.365314 C199.785303,172.058174 199.290403,172.751034 198.795503,173.245934 C187.412804,184.232714 173.357644,192.250094 158.114725,196.308273 C140.991185,200.861353 122.580906,200.564413 105.655327,195.318473 C91.6001674,190.963354 78.6337879,183.242914 68.1419083,173.047974 C67.2510883,172.454094 67.5480283,171.266334 68.2408883,170.672454 C76.258268,162.655075 84.2756476,154.637695 92.1940473,146.620315 C93.1838473,145.828475 93.8767073,144.937655 94.7675272,144.244795 L94.7675272,144.244795 Z" id="Path" fill="#E4022C"></path>
                <path d="M608.077787,31.4075998 C614.808427,29.6259599 622.231927,34.6739397 623.023767,41.5035594 C624.112547,47.8382792 619.559467,54.3709589 613.224747,55.4597389 C606.593087,56.9444388 599.565508,51.995439 598.674688,45.2647993 C597.585908,39.1280395 601.941028,32.6943398 608.077787,31.4075998 L608.077787,31.4075998 Z" id="Path" fill="#E4022C"></path>
                <path d="M336.377698,92.5772374 C332.319518,82.2833178 324.203158,73.5730782 314.107199,69.0199984 C305.792879,65.1597785 296.290799,64.0709985 287.28362,65.8526385 C275.90092,68.0301984 265.508021,75.1567581 259.173301,84.9557777 C252.541641,95.1507173 250.463061,108.216077 253.630421,119.895716 C256.302881,129.991676 262.736581,139.097836 271.44682,144.838675 C280.9489,151.272375 293.12344,153.746875 304.407159,151.371355 C316.878639,148.995835 327.964398,140.780496 334.002178,129.595756 C340.237918,118.411016 341.128738,104.454837 336.377698,92.5772374 Z M307.277579,130.585556 C296.488759,136.524356 281.64176,132.664136 275.10908,122.271236 C268.180481,112.274257 270.35804,97.4272573 279.86012,89.7068176 C282.9285,87.1333377 286.59076,85.3516977 290.45098,84.4608778 C302.229599,81.5904579 315.294959,88.8159976 319.155179,100.297677 C323.411318,111.482417 317.967419,125.240636 307.277579,130.585556 Z" id="Shape" fill="#E4022C"></path>
                <path d="M385.669736,66.0505985 C397.844276,64.7638585 411.404535,63.3781386 422.094375,70.4057183 C435.357694,66.3475385 449.313874,63.9720186 463.270053,65.4567185 C469.406813,66.1495785 476.038473,67.8322384 480.195632,72.7812382 C484.253812,77.433298 485.045652,83.8669978 485.045652,89.8057976 C485.045652,108.809957 485.045652,127.814116 485.045652,146.719295 C485.144632,148.203995 484.847692,150.183595 482.868092,150.084615 C477.127252,150.183595 471.386413,150.282575 465.645573,149.985635 C463.962913,149.886655 463.764953,148.006035 463.863933,146.620315 C463.863933,128.407996 463.863933,110.195677 463.863933,91.9833575 C463.863933,88.8159976 463.468013,85.3516977 461.389433,82.7782178 C459.310853,80.3037179 456.044513,79.6108579 452.976133,79.511878 C445.849574,79.313918 438.723014,80.6006579 431.794414,82.0853579 C431.695434,103.860957 431.794414,125.636556 431.695434,147.313175 C431.893394,148.896855 430.804614,150.282575 429.121954,149.985635 C423.084175,149.886655 417.046395,150.480535 411.008615,149.589715 C410.810655,148.302975 410.612695,147.016235 410.612695,145.729495 C410.612695,127.814116 410.612695,109.799757 410.612695,91.8843775 C410.612695,88.1231376 410.117795,83.5700578 406.653495,81.1945379 C403.090215,78.917998 398.537136,79.313918 394.478956,79.511878 C389.134036,79.8088179 383.789116,80.8975979 378.543176,81.8873979 C377.850316,104.355857 378.741136,126.824316 378.147256,149.292775 C375.276836,150.381555 372.109477,149.886655 369.041097,149.985635 C365.675777,149.886655 362.211477,150.183595 358.846157,149.787675 C357.163497,149.688695 356.965537,147.808075 357.064517,146.521335 C357.064517,123.854916 357.064517,101.188497 357.064517,78.522078 C356.965537,75.1567581 359.341057,72.2863382 362.409437,71.1975583 C369.931917,68.3271384 377.850316,67.0403984 385.669736,66.0505985 L385.669736,66.0505985 Z" id="Path" fill="#E4022C"></path>
                <path d="M521.272331,68.1291784 C532.25911,65.7536585 543.64181,64.4669185 554.925529,65.1597785 C560.765349,65.5556985 566.803129,66.4465185 571.752129,69.8118383 C575.513369,72.2863382 577.987869,76.4434981 578.977669,80.7986179 C579.967468,85.0547577 579.769509,89.4098776 579.868489,93.6660174 C579.868489,109.205877 579.868489,124.745736 579.868489,140.285596 C579.868489,143.452955 580.066448,146.620315 579.472569,149.688695 C576.107249,150.381555 572.642949,150.084615 569.277629,150.084615 C565.912309,149.985635 562.448009,150.381555 559.082689,149.589715 C558.785749,148.302975 558.587789,147.016235 558.587789,145.828475 C558.587789,127.913096 558.587789,109.997717 558.587789,91.9833575 C558.587789,88.8159976 558.389829,85.4506777 556.311249,82.8771978 C554.331649,80.3037179 550.86735,79.6108579 547.79897,79.511878 C541.56323,79.412898 535.42647,80.3037179 529.38869,81.5904579 C528.49787,81.8873979 526.617251,81.8873979 526.914191,83.3720978 C526.914191,102.871157 526.914191,122.370216 526.914191,141.869276 C526.815211,144.343775 527.112151,146.818275 526.617251,149.193795 C525.330511,150.480535 523.350911,149.985635 521.767231,150.084615 C517.016191,149.985635 512.364131,150.282575 507.613091,149.886655 C505.930431,149.787675 505.633491,147.907055 505.732471,146.521335 C505.732471,124.151856 505.732471,101.683397 505.732471,79.313918 C505.633491,76.5424781 506.722271,73.6720582 509.097791,72.1873582 C512.760051,70.1087783 517.115171,69.2179584 521.272331,68.1291784 L521.272331,68.1291784 Z" id="Path" fill="#E4022C"></path>
                <path d="M794.35814,72.3853182 C788.91424,67.2383584 781.094821,65.8526385 773.869281,65.2587585 C761.100862,64.3679385 748.233462,65.8526385 735.860962,69.1189784 L735.860962,69.1189784 C734.079323,69.6138783 732.198703,70.0097983 730.615023,71.1975583 C729.328283,72.5832782 730.318083,74.4638981 730.516043,76.0475781 C731.307883,78.819018 731.406863,81.8873979 732.792583,84.4608778 C734.277283,84.8567977 735.761982,84.2629178 737.246682,83.9659778 C747.936522,81.0955579 759.121262,79.214938 770.207021,80.6006579 C773.077441,81.0955579 776.541741,82.0853579 777.729501,85.0547577 C779.016241,88.5190576 778.422361,92.3792775 778.521341,96.0415373 C769.514161,96.9323573 760.506982,97.7241972 751.598782,98.6150172 C744.571202,99.6048172 737.147702,101.386457 731.802783,106.434437 C726.655823,111.284457 724.874183,118.608976 724.973163,125.438596 C724.874183,132.268216 726.655823,139.592736 731.901763,144.343775 C737.741582,149.886655 746.154882,151.371355 753.974302,151.965235 C765.653941,152.658095 777.432561,152.262175 788.81526,149.094815 C791.98262,148.203995 795.44692,147.016235 797.5255,144.244795 C799.60408,141.275396 799.90102,137.514156 800,134.049856 C800,119.301836 800,104.553817 800,89.7068176 C799.90102,83.6690378 799.0102,76.8394181 794.35814,72.3853182 Z M778.521341,136.326396 C771.493761,138.404976 763.971281,139.097836 756.646762,137.811096 C752.687562,137.118236 748.728362,134.643736 747.441622,130.585556 C746.154882,126.329416 746.253862,121.380416 748.431422,117.421216 C750.707962,113.560997 755.459002,112.472217 759.616162,111.977317 C765.950881,111.284457 772.285601,110.492617 778.719301,109.898737 C778.620321,118.707956 778.818281,127.517176 778.521341,136.326396 Z" id="Shape" fill="#E4022C"></path>
                <path d="M638.365666,67.3373384 C643.710586,66.7434584 649.154486,67.1393784 654.598386,67.0403984 C656.380026,67.0403984 658.953505,66.9414184 659.349425,69.2179584 C665.288225,91.1915175 670.732125,113.165077 676.670925,135.138636 C677.660725,134.940676 678.254605,134.445776 678.353585,133.455976 C683.203605,112.670177 688.053624,91.8843775 692.903644,71.0985783 C693.299564,69.8118383 693.497524,68.3271384 694.586304,67.5352984 C696.664884,66.8424384 698.941424,67.1393784 701.118984,67.0403984 C705.276144,67.1393784 709.433303,66.8424384 713.590463,67.2383584 C715.669043,67.3373384 715.867003,69.9108183 715.273123,71.3955183 C707.948604,96.5364373 700.624084,121.677356 693.299564,146.818275 C692.903644,148.401955 692.012824,150.381555 690.033224,150.183595 C681.322985,150.381555 672.612745,150.282575 664.001485,150.183595 C662.120865,150.282575 661.032085,148.500935 660.537185,146.917255 C653.509606,123.261036 646.383046,99.6048172 639.355466,75.8496181 C638.662606,73.0781782 636.979946,70.2077583 638.365666,67.3373384 L638.365666,67.3373384 Z" id="Path" fill="#E4022C"></path>
                <path d="M600.654288,69.4159183 C601.842048,68.0301984 603.821648,68.5250984 605.405328,68.4261184 C610.552287,68.6240784 615.798227,68.0301984 620.945187,68.8220384 C621.242127,70.3067383 621.440087,71.6924583 621.440087,73.1771582 C621.341107,97.9221572 621.440087,122.766136 621.440087,147.511135 C621.737027,149.490735 619.856407,150.480535 618.173747,150.183595 C612.432907,149.985635 606.593087,150.678495 600.852248,149.688695 C600.555308,148.401955 600.357348,147.115215 600.357348,145.927455 C600.357348,122.469196 600.357348,99.0109372 600.357348,75.5526781 C600.357348,73.4740982 600.060408,71.3955183 600.654288,69.4159183 L600.654288,69.4159183 Z" id="Path" fill="#E4022C"></path>
            </g>
        </g>
    </g>
</svg>