<?xml version="1.0" encoding="UTF-8"?>
<svg width="980px" height="680px" viewBox="0 0 980 680" version="1.1" xmlns="http://www.w3.org/2000/svg" xmlns:xlink="http://www.w3.org/1999/xlink">
    <title>ES Correos España</title>
    <defs>
        <linearGradient x1="50%" y1="0%" x2="50%" y2="100%" id="linearGradient-1">
            <stop stop-color="#FFFFFF" offset="0%"></stop>
            <stop stop-color="#EDEDED" offset="100%"></stop>
        </linearGradient>
        <rect id="path-2" x="0" y="0" width="900" height="600" rx="80"></rect>
        <filter x="-6.7%" y="-10.0%" width="113.3%" height="120.0%" filterUnits="objectBoundingBox" id="filter-3">
            <feMorphology radius="2.5" operator="dilate" in="SourceAlpha" result="shadowSpreadOuter1"></feMorphology>
            <feOffset dx="0" dy="0" in="shadowSpreadOuter1" result="shadowOffsetOuter1"></feOffset>
            <feGaussianBlur stdDeviation="17.5" in="shadowOffsetOuter1" result="shadowBlurOuter1"></feGaussianBlur>
            <feColorMatrix values="0 0 0 0 0   0 0 0 0 0   0 0 0 0 0  0 0 0 0.5 0" type="matrix" in="shadowBlurOuter1"></feColorMatrix>
        </filter>
    </defs>
    <g id="ES-Correos-España" stroke="none" stroke-width="1" fill="none" fill-rule="evenodd">
        <g transform="translate(40, 40)">
            <g id="Rectangle">
                <use fill="black" fill-opacity="1" filter="url(#filter-3)" xlink:href="#path-2"></use>
                <use fill="url(#linearGradient-1)" fill-rule="evenodd" xlink:href="#path-2"></use>
            </g>
            <g id="Logo" transform="translate(201, 50)" fill="#002E6D" fill-rule="nonzero">
                <path d="M218.300217,375.006936 C218.300217,392.244327 232.265131,406.266817 249.479292,406.266817 C266.693536,406.266817 280.669982,392.244327 280.669982,375.006936 C280.669982,357.746648 266.693536,343.746971 249.479292,343.746971 C232.265131,343.746971 218.300217,357.746648 218.300217,375.006936 M434.895063,281.249018 C426.311047,343.608838 386.063865,395.850812 330.953032,421.130386 C308.03533,431.638563 282.55963,437.503635 255.724416,437.503635 L249.479292,437.503635 C215.027907,437.503635 187.109527,409.527428 187.109527,375.006936 C187.109527,340.48636 215.027907,312.510237 249.479292,312.510237 C283.919311,312.510237 311.84914,340.48636 311.84914,375.006936 C311.84914,382.703913 310.454863,390.066464 307.931627,396.887767 C320.490816,392.1865 332.266502,385.849204 342.982254,378.141113 C342.982254,378.141113 343.024036,376.054002 343.024036,375.005599 C343.024036,323.224484 301.140742,281.249018 249.47503,281.249018 C197.809402,281.249018 155.914575,323.224484 155.914575,375.005599 C155.914575,426.763232 197.809402,468.75048 249.47503,468.75048 C287.809499,468.75048 323.827972,458.841295 355.145429,441.465772 C413.666789,408.961445 455.699914,350.301786 465.562972,281.249018 L434.895063,281.249018 Z M124.739679,281.250606 L33.4029232,281.250606 C43.2544237,350.303123 85.2990647,408.963032 143.808976,441.467109 C131.722095,422.224917 124.739679,399.422618 124.739679,375.006936 L124.739679,281.250606 Z M498.970216,249.990641 C498.970216,388.073112 387.273632,500 249.479292,500 C111.696484,500 2.96881439e-14,388.073112 2.96881439e-14,249.990641 L155.918837,249.990641 L155.918837,292.31173 C178.790495,266.375254 212.227989,249.990641 249.479292,249.990641 C310.132303,249.990641 360.680337,293.371916 371.902992,350.844956 C392.447205,325.530368 404.937286,293.371916 405.409678,258.286693 L405.409678,249.990641 L498.970216,249.990641 Z" id="path849"></path>
                <path d="M249.485141,151.783237 L233.88403,151.783237 L233.88403,93.7458844 C216.669786,93.7458844 202.704872,107.733779 202.704872,125.005766 C202.704872,136.366721 208.754037,146.32195 217.82206,151.783237 L177.517303,151.783237 C173.668814,143.66008 171.514182,134.580776 171.514182,125.005766 C171.514182,114.013582 174.34853,103.689665 179.31478,94.7253462 C176.814524,94.0919258 174.210397,93.7455502 171.514182,93.7455502 C154.299938,93.7455502 140.335024,107.733445 140.335024,125.005432 C140.335024,136.366386 146.395721,146.321616 155.452212,151.783237 L115.147455,151.783237 C111.298966,143.659746 109.144334,134.580525 109.144334,125.005432 C109.144334,90.4849393 137.074246,62.4973677 171.514182,62.4973677 C182.875137,62.4973677 193.533145,65.5381199 202.704872,70.850829 C211.876599,65.5391227 222.534607,62.4973677 233.88403,62.4973677 C239.276377,62.4973677 244.507527,63.1767487 249.485141,64.4668205 C254.462756,63.1766651 259.68229,62.4973677 265.063188,62.4973677 C276.435591,62.4973677 287.082151,65.5381199 296.253878,70.850829 C305.437053,65.5391227 316.083613,62.4973677 327.4561,62.4973677 C361.884504,62.4973677 389.825865,90.4849393 389.825865,125.005432 C389.825865,134.580525 387.659784,143.659746 383.822827,151.783237 L343.51807,151.783237 C352.574478,146.321616 358.635175,136.366386 358.635175,125.005432 C358.635175,107.733445 344.67026,93.7455502 327.4561,93.7455502 C324.759885,93.7455502 322.155842,94.091508 319.643971,94.7253462 C324.621586,103.689665 327.4561,114.013582 327.4561,125.005766 C327.4561,134.580776 325.289936,143.66008 321.441448,151.783237 L281.148222,151.783237 C290.193182,146.32195 296.253878,136.366721 296.253878,125.005766 C296.253878,107.733779 282.300412,93.7458844 265.063188,93.7458844 L265.063188,151.783237 L249.485141,151.783237 Z" id="path853"></path>
                <path d="M115.153137,179.030091 C115.153137,168.613752 123.587406,160.15667 134.003494,160.15667 C144.396603,160.15667 152.830871,168.613752 152.830871,179.030091 C152.830871,189.468993 144.396603,197.914961 134.003494,197.914961 C123.587406,197.914961 115.153137,189.468993 115.153137,179.030091" id="path857"></path>
                <path d="M346.127796,179.030091 C346.127796,168.613752 354.573596,160.15667 364.966621,160.15667 C375.38271,160.15667 383.816978,168.613752 383.816978,179.030091 C383.816978,189.468993 375.38271,197.914961 364.966621,197.914961 C354.573596,197.914961 346.127796,189.468993 346.127796,179.030091" id="path861"></path>
                <path d="M288.383003,179.030091 C288.383003,168.613752 296.828803,160.15667 307.23336,160.15667 C317.638,160.15667 326.072269,168.613752 326.072269,179.030091 C326.072269,189.468993 317.638,197.914961 307.23336,197.914961 C296.828803,197.914961 288.383003,189.468993 288.383003,179.030091" id="path865"></path>
                <path d="M230.646316,179.030091 C230.646316,168.613752 239.080501,160.15667 249.496673,160.15667 C259.889698,160.15667 268.323966,168.613752 268.323966,179.030091 C268.323966,189.468993 259.889698,197.914961 249.496673,197.914961 C239.080501,197.914961 230.646316,189.468993 230.646316,179.030091" id="path869"></path>
                <path d="M172.90027,179.030091 C172.90027,168.613752 181.334538,160.15667 191.739095,160.15667 C202.143652,160.15667 210.578004,168.613752 210.578004,179.030091 C210.578004,189.468993 202.143652,197.914961 191.739095,197.914961 C181.334538,197.914961 172.90027,189.468993 172.90027,179.030091" id="path873"></path>
                <polygon id="path875" points="155.920007 208.340158 343.041 208.340158 343.041 239.600123 155.920007 239.600123"></polygon>
                <path d="M244.289757,28.2178759 L244.289757,20.820729 L233.8852,20.820729 L233.8852,10.4160887 L244.289757,10.4160887 L244.289757,-2.37505151e-13 L254.682782,-2.37505151e-13 L254.682782,10.4160887 L265.075807,10.4160887 L265.075807,20.820729 L254.682782,20.820729 L254.682782,28.2178759 C260.731947,30.3735108 265.075807,36.156522 265.075807,42.9546772 C265.075807,51.5848212 258.104923,58.5903839 249.486311,58.5903839 C240.867615,58.5903839 233.8852,51.5848212 233.8852,42.9546772 C233.8852,36.156522 238.22906,30.372508 244.289757,28.2178759" id="path887"></path>
            </g>
        </g>
    </g>
</svg>