<?xml version="1.0" encoding="UTF-8"?>
<svg width="980px" height="680px" viewBox="0 0 980 680" version="1.1" xmlns="http://www.w3.org/2000/svg" xmlns:xlink="http://www.w3.org/1999/xlink">
    <title>ES Correos España text alt</title>
    <defs>
        <rect id="path-1" x="0" y="0" width="900" height="600" rx="80"></rect>
        <filter x="-6.7%" y="-10.0%" width="113.3%" height="120.0%" filterUnits="objectBoundingBox" id="filter-2">
            <feMorphology radius="2.5" operator="dilate" in="SourceAlpha" result="shadowSpreadOuter1"></feMorphology>
            <feOffset dx="0" dy="0" in="shadowSpreadOuter1" result="shadowOffsetOuter1"></feOffset>
            <feGaussianBlur stdDeviation="17.5" in="shadowOffsetOuter1" result="shadowBlurOuter1"></feGaussianBlur>
            <feColorMatrix values="0 0 0 0 0   0 0 0 0 0   0 0 0 0 0  0 0 0 0.5 0" type="matrix" in="shadowBlurOuter1"></feColorMatrix>
        </filter>
    </defs>
    <g id="ES-Correos-España-text-alt" stroke="none" stroke-width="1" fill="none" fill-rule="evenodd">
        <g transform="translate(40, 40)">
            <g id="Rectangle">
                <use fill="black" fill-opacity="1" filter="url(#filter-2)" xlink:href="#path-1"></use>
                <use fill="#FFCD00" fill-rule="evenodd" xlink:href="#path-1"></use>
            </g>
            <g id="Logo" transform="translate(50, 191)" fill="#002E6D" fill-rule="nonzero">
                <path d="M94.9957196,163.188357 C94.9957196,170.689395 101.072704,176.791435 108.563634,176.791435 C116.0546,176.791435 122.136603,170.689395 122.136603,163.188357 C122.136603,155.677354 116.0546,149.585242 108.563634,149.585242 C101.072704,149.585242 94.9957196,155.677354 94.9957196,163.188357 M189.249328,122.388577 C185.5139,149.525132 167.9999,172.258797 144.01782,183.259479 C134.044932,187.832227 122.958904,190.384477 111.281268,190.384477 L108.563634,190.384477 C93.5717382,190.384477 81.4227508,178.210325 81.4227508,163.188357 C81.4227508,148.166352 93.5717382,135.992237 108.563634,135.992237 C123.550584,135.992237 135.704553,148.166352 135.704553,163.188357 C135.704553,166.53778 135.097818,169.741675 133.999805,172.710039 C139.465073,170.664232 144.589391,167.906488 149.252467,164.552228 C149.252467,164.552228 149.270649,163.643999 149.270649,163.187775 C149.270649,140.654658 131.044677,122.388577 108.561779,122.388577 C86.0789178,122.388577 67.8479274,140.654658 67.8479274,163.187775 C67.8479274,185.710673 86.0789178,203.981882 108.561779,203.981882 C125.243441,203.981882 140.917272,199.669792 154.545406,192.108644 C180.011613,177.964031 198.302786,152.437641 202.594803,122.388577 L189.249328,122.388577 Z M54.2818314,122.389268 L14.5356462,122.389268 C18.8226341,152.438223 37.118818,177.964722 62.5800437,192.109226 C57.3203056,183.735776 54.2818314,173.813107 54.2818314,163.188357 L54.2818314,122.389268 Z M217.132329,108.786153 C217.132329,168.874246 168.526343,217.580451 108.563634,217.580451 C48.6059427,217.580451 1.29191195e-14,168.874246 1.29191195e-14,108.786153 L67.849782,108.786153 L67.849782,127.202636 C77.802633,115.916096 92.3533231,108.786153 108.563634,108.786153 C134.957453,108.786153 156.953981,127.663988 161.837642,152.674008 C170.77768,141.658089 176.212875,127.663988 176.418441,112.396271 L176.418441,108.786153 L217.132329,108.786153 Z" id="path849"></path>
                <path d="M108.566179,66.0501305 L101.777186,66.0501305 L101.777186,40.7945437 C94.2862199,40.7945437 88.2092352,46.8815285 88.2092352,54.397622 C88.2092352,59.3414653 90.8415952,63.6735919 94.7876443,66.0501305 L77.2485898,66.0501305 C75.573878,62.5152502 74.6362664,58.564292 74.6362664,54.397622 C74.6362664,49.6142534 75.8696635,45.1216884 78.0307813,41.2207672 C76.9427678,40.9451274 75.8095537,40.7943982 74.6362664,40.7943982 C67.1453005,40.7943982 61.0683158,46.881383 61.0683158,54.3974765 C61.0683158,59.3413198 63.7056941,63.6734464 67.6467249,66.0501305 L50.1076704,66.0501305 C48.4329587,62.5151047 47.495347,58.5641829 47.495347,54.3974765 C47.495347,39.3755079 59.6493527,27.196411 74.6362664,27.196411 C79.5801097,27.196411 84.2180583,28.5196274 88.2092352,30.8315107 C92.2004121,28.5200638 96.8383607,27.196411 101.777186,27.196411 C104.123724,27.196411 106.400116,27.492051 108.566179,28.0534398 C110.732243,27.4920146 113.00358,27.196411 115.345136,27.196411 C120.293961,27.196411 124.926928,28.5196274 128.918105,30.8315107 C132.914264,28.5200638 137.547231,27.196411 142.496092,27.196411 C157.477988,27.196411 169.636975,39.3755079 169.636975,54.3974765 C169.636975,58.5641829 168.694382,62.5151047 167.024688,66.0501305 L149.485634,66.0501305 C153.426628,63.6734464 156.064006,59.3413198 156.064006,54.3974765 C156.064006,46.881383 149.987022,40.7943982 142.496092,40.7943982 C141.322805,40.7943982 140.189627,40.9449456 139.096559,41.2207672 C141.262622,45.1216884 142.496092,49.6142534 142.496092,54.397622 C142.496092,58.564292 141.553462,62.5152502 139.87875,66.0501305 L122.344714,66.0501305 C126.280727,63.6735919 128.918105,59.3414653 128.918105,54.397622 C128.918105,46.8815285 122.846102,40.7945437 115.345136,40.7945437 L115.345136,66.0501305 L108.566179,66.0501305 Z" id="path853"></path>
                <path d="M50.1101432,77.9068962 C50.1101432,73.3741125 53.780407,69.6939213 58.3130816,69.6939213 C62.835756,69.6939213 66.5060198,73.3741125 66.5060198,77.9068962 C66.5060198,82.4494981 62.835756,86.1248529 58.3130816,86.1248529 C53.780407,86.1248529 50.1101432,82.4494981 50.1101432,77.9068962" id="path857"></path>
                <path d="M150.621284,77.9068962 C150.621284,73.3741125 154.296566,69.6939213 158.819204,69.6939213 C163.351879,69.6939213 167.022143,73.3741125 167.022143,77.9068962 C167.022143,82.4494981 163.351879,86.1248529 158.819204,86.1248529 C154.296566,86.1248529 150.621284,82.4494981 150.621284,77.9068962" id="path861"></path>
                <path d="M125.493008,77.9068962 C125.493008,73.3741125 129.16829,69.6939213 133.695946,69.6939213 C138.223639,69.6939213 141.893903,73.3741125 141.893903,77.9068962 C141.893903,82.4494981 138.223639,86.1248529 133.695946,86.1248529 C129.16829,86.1248529 125.493008,82.4494981 125.493008,77.9068962" id="path865"></path>
                <path d="M100.368259,77.9068962 C100.368259,73.3741125 104.038487,69.6939213 108.571198,69.6939213 C113.093836,69.6939213 116.764099,73.3741125 116.764099,77.9068962 C116.764099,82.4494981 113.093836,86.1248529 108.571198,86.1248529 C104.038487,86.1248529 100.368259,82.4494981 100.368259,77.9068962" id="path869"></path>
                <path d="M75.2394375,77.9068962 C75.2394375,73.3741125 78.9097013,69.6939213 83.4373577,69.6939213 C87.965014,69.6939213 91.6353142,73.3741125 91.6353142,77.9068962 C91.6353142,82.4494981 87.965014,86.1248529 83.4373577,86.1248529 C78.9097013,86.1248529 75.2394375,82.4494981 75.2394375,77.9068962" id="path873"></path>
                <polygon id="path875" points="67.8502911 90.6614911 149.278031 90.6614911 149.278031 104.264606 67.8502911 104.264606"></polygon>
                <path d="M106.305351,12.2793163 L106.305351,9.06036722 L101.777695,9.06036722 L101.777695,4.53267455 L106.305351,4.53267455 L106.305351,-1.03352956e-13 L110.827989,-1.03352956e-13 L110.827989,4.53267455 L115.350627,4.53267455 L115.350627,9.06036722 L110.827989,9.06036722 L110.827989,12.2793163 C113.460349,13.2173644 115.350627,15.7339048 115.350627,18.6921961 C115.350627,22.4476973 112.317171,25.4962444 108.566688,25.4962444 C104.816169,25.4962444 101.777695,22.4476973 101.777695,18.6921961 C101.777695,15.7339048 103.667973,13.216928 106.305351,12.2793163" id="path887"></path>
                <path d="M348.453475,159.236126 C336.019757,166.666182 320.901751,172.507345 308.947675,173.079934 C296.041551,173.717033 281.846938,171.420132 277.859874,158.498735 C271.99735,139.493953 283.686597,115.263506 298.91195,107.153514 C319.992685,95.9151928 337.501485,101.999596 343.507196,108.170036 L347.902305,85.4857177 C338.983248,81.5415959 326.757133,79.8739024 322.197367,79.8739024 C290.37948,79.8739024 275.075341,95.39275 265.512066,108.270292 C254.774845,122.75829 240.444238,159.243435 267.086838,184.461421 C275.032369,191.984679 289.534779,196.594518 303.278404,195.642469 C324.96042,194.124741 338.238803,187.94761 350.908706,178.813715 C351.538532,180.187368 352.268832,181.476475 353.099097,182.671981 C358.639493,190.653389 368.746782,194.654748 383.356528,194.654748 C407.658503,194.654748 423.692738,185.127175 428.596072,157.682834 L430.156637,148.549157 C430.335185,147.682746 430.50755,146.688515 430.657589,145.621411 C431.051121,142.879922 431.308978,139.687337 431.308978,137.081814 C431.308978,116.358974 418.646203,107.339771 396.155269,107.339771 C372.111079,107.339771 356.47052,116.745561 351.037471,144.175502 C364.229926,135.542777 377.150414,126.659466 393.957678,126.659466 C403.270448,126.659466 406.105101,130.395985 406.105101,137.346581 C406.105101,139.6157 405.991282,142.006602 405.360619,145.621411 C405.303891,145.915596 405.260982,146.1936 405.202436,146.493858 L403.520306,155.506043 C400.549723,170.180189 396.541164,175.333999 385.166841,175.333999 C376.512661,175.333999 373.277166,172.377853 373.277166,164.904742 C373.149528,162.3134 373.713753,157.338502 374.043103,155.506043 C374.37947,153.679911 376.677354,142.979342 376.677354,142.979342 C376.677354,142.979342 361.001013,151.740905 348.452821,159.235508" id="path891"></path>
                <path d="M498.710835,107.579411 C489.691559,107.579411 478.98299,108.981464 469.577163,116.562759 L470.736778,109.762456 L447.272341,109.762456 L432.576703,192.467812 L457.966619,192.467812 L468.668098,132.496921 C475.50411,130.435331 485.819002,128.76742 494.974243,128.76742 L498.710835,107.579411 Z" id="path895"></path>
                <path d="M557.62164,107.579411 C548.609528,107.579411 538.029797,108.981464 528.487969,116.562759 L529.776421,109.762456 L506.31922,109.762456 L491.623547,192.467812 L517.013499,192.467812 L527.714905,132.496921 C534.550917,130.435331 544.858645,128.76742 554.013959,128.76742 L557.62164,107.579411 Z" id="path899"></path>
                <path d="M770.866329,124.532531 C777.179825,124.532531 787.108167,125.169666 797.423095,126.200479 L800,110.917816 C793.68654,109.243831 782.849096,107.582211 770.343813,107.582211 C751.009645,107.582211 732.312576,111.683789 732.312576,133.523406 C732.312576,145.599083 739.148625,152.792991 751.782746,157.782253 L757.974532,160.230393 C766.864933,163.959821 768.804812,165.241 768.804812,169.221014 C768.804812,176.278956 762.226439,177.696283 754.101975,177.696283 C741.861568,177.696283 736.965398,176.671579 726.127954,176.172445 L723.543849,191.311834 C727.938958,192.600286 741.088467,194.518783 752.691812,194.518783 C776.277923,194.518783 794.201892,187.467931 794.201892,165.886245 C794.201892,154.325774 788.396656,147.904894 773.965822,142.249878 L766.993808,139.558499 C760.164923,136.738101 757.45918,135.313683 757.45918,131.856331 C757.45918,124.791079 764.803417,124.533367 770.866329,124.533367" id="path903"></path>
                <path d="M696.216927,146.623351 L694.413087,155.606917 C691.57847,170.252372 687.577075,175.384727 676.23857,175.384727 C667.598681,175.384727 664.241475,172.428581 664.241475,164.984088 C664.241475,162.163689 664.377477,159.207507 665.14345,155.606917 L666.954382,146.623351 C669.653034,131.97786 673.912068,126.845505 685.000097,126.845505 C694.29134,126.845505 696.997119,130.56766 696.997119,137.503892 C696.997119,139.944831 696.997119,142.507372 696.216927,146.623351 M687.190488,107.582829 C663.081934,107.582829 647.484285,116.945818 642.201601,144.311249 L640.526599,152.271094 C639.495822,157.28192 639.495822,161.132913 639.495822,164.984088 C639.495822,184.76197 651.478589,194.65453 674.291564,194.65453 C698.665067,194.65453 714.65632,185.148521 719.55249,157.782871 L721.098655,148.677813 C721.614189,145.592574 722.25827,140.839679 722.25827,137.239052 C722.25827,116.566395 709.624149,107.582829 687.190488,107.582829" id="path907"></path>
                <path d="M608.67853,144.175284 L578.900669,144.175284 L579.287437,143.022724 C580.833602,134.025012 584.570121,125.556834 596.953693,125.556834 C606.753233,125.556834 609.573523,130.438822 609.573523,136.594826 C609.573523,138.526486 609.194027,141.111573 608.678675,144.175284 M599.265758,107.575701 C575.164222,107.575701 558.013391,117.589826 553.117184,146.623351 L552.472922,150.989769 C551.563892,155.993467 550.92683,160.746363 550.92683,164.862341 C550.92683,185.785583 563.682625,194.647403 587.53354,194.647403 C602.358088,194.647403 614.355109,192.592977 621.191122,191.061031 L623.88981,174.361296 C608.299398,175.383963 601.069671,175.785713 592.436946,175.785713 C579.029725,175.785713 575.422007,172.435708 575.422007,165.756971 C575.422007,163.961275 575.808739,161.64121 576.445693,157.918837 L630.983534,157.918837 C632.658573,149.45084 633.431674,143.674114 633.431674,137.883278 C633.431674,119.902 623.625007,107.575701 599.265867,107.575701" id="path911"></path>
            </g>
        </g>
    </g>
</svg>