<?xml version="1.0" encoding="UTF-8"?>
<svg width="980px" height="680px" viewBox="0 0 980 680" version="1.1" xmlns="http://www.w3.org/2000/svg" xmlns:xlink="http://www.w3.org/1999/xlink">
    <title>EU Geopost</title>
    <defs>
        <linearGradient x1="50%" y1="0%" x2="50%" y2="100%" id="linearGradient-1">
            <stop stop-color="#FFFFFF" offset="0%"></stop>
            <stop stop-color="#EDEDED" offset="100%"></stop>
        </linearGradient>
        <rect id="path-2" x="5.68434189e-14" y="0" width="900" height="600" rx="80"></rect>
        <filter x="-6.7%" y="-10.0%" width="113.3%" height="120.0%" filterUnits="objectBoundingBox" id="filter-3">
            <feMorphology radius="2.5" operator="dilate" in="SourceAlpha" result="shadowSpreadOuter1"></feMorphology>
            <feOffset dx="0" dy="0" in="shadowSpreadOuter1" result="shadowOffsetOuter1"></feOffset>
            <feGaussianBlur stdDeviation="17.5" in="shadowOffsetOuter1" result="shadowBlurOuter1"></feGaussianBlur>
            <feColorMatrix values="0 0 0 0 0   0 0 0 0 0   0 0 0 0 0  0 0 0 0.5 0" type="matrix" in="shadowBlurOuter1"></feColorMatrix>
        </filter>
    </defs>
    <g id="EU-Geopost" stroke="none" stroke-width="1" fill="none" fill-rule="evenodd">
        <g transform="translate(40, 40)">
            <g id="Rectangle">
                <use fill="black" fill-opacity="1" filter="url(#filter-3)" xlink:href="#path-2"></use>
                <use fill="url(#linearGradient-1)" fill-rule="evenodd" xlink:href="#path-2"></use>
            </g>
            <g id="Logo" transform="translate(50, 101)" fill-rule="nonzero">
                <path d="M61.6079303,356.976047 L92.9339965,356.976047 L92.9339965,370.522454 C83.1692948,375.771687 72.9812679,378.085864 61.6079303,378.085864 C38.7483684,378.085864 22.408015,364.821674 22.408015,344.44562 C22.408015,324.069566 38.7201468,310.805376 61.6079303,310.805376 C75.2954457,310.805376 87.2332169,314.587082 98.7476629,322.602039 L109.810562,306.148799 C95.9819381,296.384097 79.6698063,291.445303 61.6079303,291.445303 C23.0006703,291.445303 0,315.179737 0,344.473842 C0,373.767947 23.0288919,397.502381 61.6079303,397.502381 C81.8428758,397.502381 96.9979187,391.519385 113.31005,381.924013 L113.31005,337.785304 L61.6079303,337.785304 L61.6079303,357.004269 L61.6079303,356.976047 Z M153.074399,353.194342 L214.541221,353.194342 L214.541221,333.52383 L153.074399,333.52383 L153.074399,313.119554 L220.072671,313.119554 L220.072671,293.449042 L131.513035,293.449042 L131.513035,388.132783 C131.513035,392.366035 134.137651,395.413977 138.935337,395.413977 L221.963523,395.413977 L221.963523,375.743465 L153.074399,375.743465 L153.074399,353.16612 L153.074399,353.194342 Z M292.320175,291.417081 C253.712915,291.417081 230.712245,315.151515 230.712245,344.44562 C230.712245,373.739726 253.741137,397.47416 292.320175,397.47416 C330.899213,397.47416 353.928105,373.739726 353.928105,344.44562 C353.928105,315.151515 330.899213,291.417081 292.320175,291.417081 Z M292.320175,378.085864 C269.291283,378.085864 252.979151,364.821674 252.979151,344.44562 C252.979151,324.069566 269.291283,310.805376 292.320175,310.805376 C315.349067,310.805376 331.52009,324.069566 331.52009,344.44562 C331.52009,364.821674 315.207959,378.085864 292.320175,378.085864 Z M700.659682,293.449042 L700.659682,313.119554 L739.549159,313.119554 L739.549159,395.413977 L761.110523,395.413977 L761.110523,313.119554 L800,313.119554 L800,293.449042 L700.659682,293.449042 L700.659682,293.449042 Z M403.146717,292.715279 C390.898508,292.715279 377.069884,293.138604 366.289202,293.449042 L366.289202,395.413977 L387.850566,395.413977 L387.850566,364.962783 C393.099799,364.962783 400.098776,365.103891 404.614245,365.103891 C437.0974,365.103891 460.831834,357.088934 460.831834,328.387484 C460.831834,302.762197 440.879105,292.687057 403.146717,292.687057 L403.146717,292.715279 Z M434.331675,339.337496 C428.066462,345.602709 416.128691,345.461863 403.316048,345.461863 C398.800579,345.461863 393.128021,345.320492 387.878788,345.320492 L387.878788,312.696229 C393.128021,312.55512 398.800579,312.55512 403.316048,312.55512 C420.079726,312.55512 429.110664,313.147776 435.065439,319.102551 C437.0974,321.134512 438.564928,324.916217 438.564928,328.274597 C438.564928,333.072283 437.0974,336.430663 434.331675,339.337496 L434.331675,339.337496 Z M623.219388,320.824073 C623.219388,313.401771 632.98409,309.620066 646.530497,309.620066 C656.859632,309.620066 671.59135,313.542879 680.170741,320.118531 L691.23364,303.665291 C680.170741,296.242989 661.092885,291.417081 646.953822,291.417081 C621.018097,291.417081 600.92426,305.104597 600.92426,324.041345 C600.92426,359.741772 669.954493,347.352454 669.954493,367.728507 C669.954493,376.16679 657.565174,379.242953 647.094931,379.242953 C632.81476,379.242953 616.502628,374.304159 606.45571,366.43031 L595.392811,382.88355 C608.939218,392.196705 629.907927,397.445938 645.204078,397.445938 C670.998695,397.445938 692.390729,385.508167 692.390729,365.386108 C692.390729,329.121247 623.191167,339.591491 623.191167,320.824073 L623.219388,320.824073 Z M531.188486,291.388859 C492.581226,291.388859 469.580555,315.123293 469.580555,344.417399 C469.580555,373.711504 492.609447,397.445938 531.188486,397.445938 C569.767524,397.445938 592.796416,373.711504 592.796416,344.417399 C592.796416,315.123293 569.767524,291.388859 531.188486,291.388859 Z M531.188486,378.057643 C508.159594,378.057643 491.847462,364.793453 491.847462,344.417399 C491.847462,324.041345 508.159594,310.777155 531.188486,310.777155 C554.217378,310.777155 570.360179,324.041345 570.360179,344.417399 C570.360179,364.793453 554.048047,378.057643 531.188486,378.057643 Z" id="Shape" fill="#414042"></path>
                <path d="M681.948707,74.9567856 L416.806011,74.9567856 L201.164144,211.436836 C198.539528,213.525241 200.740819,217.560941 203.873426,216.714291 L683.642008,86.8098917 C685.843299,86.2172364 687.988147,84.128832 687.988147,80.9680037 C687.988147,77.3838501 685.02487,74.9850072 681.948707,74.9850072 L681.948707,74.9567856 Z M310.523159,5.89833139 L416.806011,54.2138498 L579.588669,54.2138498 L593.050411,30.8462977 C601.121812,16.8201221 591.385332,0 576.625392,0 L311.652027,0 C308.039651,0 307.193001,4.40258228 310.494938,5.92655307 L310.523159,5.89833139 Z M456.880799,213.581684 C473.757364,213.271246 493.540763,203.534766 502.571701,187.871732 L523.455745,151.635094 L282.83769,216.798956 L456.90902,213.553462 L456.880799,213.581684 Z" id="Shape" fill="#DC0032"></path>
            </g>
        </g>
    </g>
</svg>