<?xml version="1.0" encoding="UTF-8"?>
<svg width="980px" height="680px" viewBox="0 0 980 680" version="1.1" xmlns="http://www.w3.org/2000/svg" xmlns:xlink="http://www.w3.org/1999/xlink">
    <title>FI posti</title>
    <defs>
        <linearGradient x1="50%" y1="0%" x2="50%" y2="100%" id="linearGradient-1">
            <stop stop-color="#FFFFFF" offset="0%"></stop>
            <stop stop-color="#EDEDED" offset="100%"></stop>
        </linearGradient>
        <rect id="path-2" x="0" y="0" width="900" height="600" rx="80"></rect>
        <filter x="-6.7%" y="-10.0%" width="113.3%" height="120.0%" filterUnits="objectBoundingBox" id="filter-3">
            <feMorphology radius="2.5" operator="dilate" in="SourceAlpha" result="shadowSpreadOuter1"></feMorphology>
            <feOffset dx="0" dy="0" in="shadowSpreadOuter1" result="shadowOffsetOuter1"></feOffset>
            <feGaussianBlur stdDeviation="17.5" in="shadowOffsetOuter1" result="shadowBlurOuter1"></feGaussianBlur>
            <feColorMatrix values="0 0 0 0 0   0 0 0 0 0   0 0 0 0 0  0 0 0 0.5 0" type="matrix" in="shadowBlurOuter1"></feColorMatrix>
        </filter>
    </defs>
    <g id="FI-posti" stroke="none" stroke-width="1" fill="none" fill-rule="evenodd">
        <g transform="translate(40, 40)">
            <g id="Rectangle">
                <use fill="black" fill-opacity="1" filter="url(#filter-3)" xlink:href="#path-2"></use>
                <use fill="url(#linearGradient-1)" fill-rule="evenodd" xlink:href="#path-2"></use>
            </g>
            <g id="Logo" transform="translate(50, 115.3)" fill="#FFC226">
                <path d="M276,166.666667 C279.333333,136.666667 301.333333,115.333333 332,115.333333 C362.666667,115.333333 385.333333,136.666667 388,166.666667 L436.666667,166.666667 C433.333333,111.333333 388.666667,68.6666667 332.666667,68.6666667 C276.666667,68.6666667 231.333333,111.333333 228,166.666667 L276,166.666667 L276,166.666667 Z M163.333333,178.666667 C162,211.333333 138,234 106,234 C74,234 50,211.333333 49.3333333,178.666667 L0,178.666667 L0,369.333333 L48.6666667,369.333333 L48.6666667,258 L49.3333333,258 C62.6666667,271.333333 81.3333333,280.666667 108,280.666667 C165.333333,280.666667 210,237.333333 211.333333,178.666667 L163.333333,178.666667 Z M49.3333333,166.666667 C52,136 75.3333333,115.333333 106,115.333333 C136.666667,115.333333 160,136.666667 163.333333,166.666667 L212,166.666667 C208.666667,110.666667 166.666667,68.6666667 110.666667,68.6666667 C84,68.6666667 62.6666667,78.6666667 50,92 L48.6666667,92 L48.6666667,72.6666667 L0,72.6666667 L0,166.666667 L49.3333333,166.666667 Z M726,276.666667 L774.666667,276.666667 L774.666667,178.666667 L726,178.666667 L726,276.666667 Z M620,276.666667 L668.666667,276.666667 L668.666667,178.666667 L620,178.666667 L620,276.666667 Z M563.333333,178.666667 L468.666667,178.666667 C478.666667,185.333333 494.666667,193.333333 504.666667,197.333333 C524.666667,204.666667 532,209.333333 532,218.666667 C532,228 521.333333,233.333333 508,233.333333 C492,233.333333 480.666667,227.333333 469.333333,217.333333 L437.333333,249.333333 C456,268 475.333333,280.666667 508.666667,280.666667 C544,280.666667 580.666667,255.333333 580.666667,217.333333 C580.666667,200.666667 573.333333,188 563.333333,178.666667 Z M388.666667,178.666667 C387.333333,211.333333 364.666667,234 332,234 C300,234 276.666667,210.666667 275.333333,178.666667 L226.666667,178.666667 C228,235.333333 274,280.666667 331.333333,280.666667 C388.666667,280.666667 434.666667,235.333333 436,178.666667 L388.666667,178.666667 L388.666667,178.666667 Z M774.666667,72.6666667 L726,72.6666667 L726,166.666667 L774.666667,166.666667 L774.666667,72.6666667 Z M620,166.666667 L668.666667,166.666667 L668.666667,115.333333 L713.333333,115.333333 L713.333333,72.6666667 L668.666667,72.6666667 L668.666667,0 L620,0 L620,72.6666667 L583.333333,72.6666667 L583.333333,115.333333 L620,115.333333 L620,166.666667 Z M550,166.666667 C540.666667,160.666667 529.333333,156 519.333333,152.666667 C500.666667,146 492,141.333333 492,130.666667 C492,122 500.666667,116 512,116 C524,116 536,120.666667 546,130 L577.333333,96 C558.666667,78.6666667 539.333333,69.3333333 512,69.3333333 C484,69.3333333 446,91.3333333 446,132.666667 C446,146.666667 450.666667,158 458,166.666667 L550,166.666667 L550,166.666667 Z" id="Shape"></path>
                <path d="M767.333333,11.3333333 C764,11.3333333 756.666667,17.3333333 756.666667,40.6666667 C764,34.6666667 771.333333,22.6666667 771.333333,16 C770.666667,12.6666667 770,11.3333333 767.333333,11.3333333 Z M736,26.6666667 C733.333333,26.6666667 732,28.6666667 732,31.3333333 C732,38 738.666667,42 746,43.3333333 C746,42.6666667 746,42 746,41.3333333 C746,33.3333333 742,26.6666667 736,26.6666667 Z M718.666667,44.6666667 C724.666667,49.3333333 729.333333,54 734.666667,54 C737.333333,54 738.666667,53.3333333 740,52.6666667 C728.666667,49.3333333 722,40 722,31.3333333 C722,23.3333333 727.333333,17.3333333 736,17.3333333 C741.333333,17.3333333 745.333333,20 748.666667,22.6666667 C752,9.33333333 760,2 768.666667,2 C776.666667,2 780.666667,8 780.666667,16.6666667 C780.666667,27.3333333 770.666667,44.6666667 758.666667,51.3333333 C760,53.3333333 762,54.6666667 765.333333,54.6666667 C776,54.6666667 785.333333,45.3333333 791.333333,38 C792.666667,36.6666667 794,36 795.333333,36 C798,36 800,38 800,40.6666667 C800,42 799.333333,43.3333333 798.666667,44 C792.666667,50.6666667 780.666667,64 765.333333,64 C758.666667,64 753.333333,60.6666667 750.666667,56.6666667 C746.666667,61.3333333 741.333333,64 734.666667,64 C728,64 721.333333,59.3333333 715.333333,54.6666667 C712.666667,52.6666667 709.333333,50 707.333333,48.6666667 C705.333333,46.6666667 703.333333,46 702.666667,46 C698.666667,46 697.333333,43.3333333 697.333333,40.6666667 C697.333333,38 699.333333,36 702.666667,36 C705.333333,36 708,37.3333333 710.666667,38.6666667 C713.333333,40 716,42 718.666667,44.6666667 Z" id="Shape" fill-rule="nonzero"></path>
            </g>
        </g>
    </g>
</svg>