<?xml version="1.0" encoding="UTF-8"?>
<svg width="980px" height="680px" viewBox="0 0 980 680" version="1.1" xmlns="http://www.w3.org/2000/svg" xmlns:xlink="http://www.w3.org/1999/xlink">
    <title>FR+CH Asendia text</title>
    <defs>
        <rect id="path-1" x="0" y="0" width="900" height="600" rx="80"></rect>
        <filter x="-6.7%" y="-10.0%" width="113.3%" height="120.0%" filterUnits="objectBoundingBox" id="filter-2">
            <feMorphology radius="2.5" operator="dilate" in="SourceAlpha" result="shadowSpreadOuter1"></feMorphology>
            <feOffset dx="0" dy="0" in="shadowSpreadOuter1" result="shadowOffsetOuter1"></feOffset>
            <feGaussianBlur stdDeviation="17.5" in="shadowOffsetOuter1" result="shadowBlurOuter1"></feGaussianBlur>
            <feColorMatrix values="0 0 0 0 0   0 0 0 0 0   0 0 0 0 0  0 0 0 0.5 0" type="matrix" in="shadowBlurOuter1"></feColorMatrix>
        </filter>
    </defs>
    <g id="FR+CH-Asendia-text" stroke="none" stroke-width="1" fill="none" fill-rule="evenodd">
        <g transform="translate(40, 40)">
            <g id="Rectangle">
                <use fill="black" fill-opacity="1" filter="url(#filter-2)" xlink:href="#path-1"></use>
                <use fill="#FFF000" fill-rule="evenodd" xlink:href="#path-1"></use>
            </g>
            <g id="Logo" transform="translate(50, 200)" fill="#211E1E" fill-rule="nonzero">
                <g id="g15621" transform="translate(0, 162.9624)">
                    <path d="M254.642071,18.6743213 L254.642071,18.5692117 C254.642071,12.4426369 250.136611,7.32663033 243.820586,7.32663033 C237.48349,7.32663033 233.083289,12.337374 233.083289,18.463953 L233.083289,18.5690625 C233.083289,24.6956373 237.567677,29.7905722 243.904774,29.7905722 C250.24187,29.7905722 254.642071,24.8009002 254.642071,18.6743254 M224.872409,18.6743254 L224.872409,18.5692158 C224.872409,8.4214437 232.872768,0.0842285234 243.904774,0.0842285234 C254.936833,0.0842285234 262.852951,8.2951092 262.852951,18.4639571 L262.852951,18.5690667 C262.852951,28.7168429 254.852592,37.054054 243.820586,37.054054 C232.788527,37.054054 224.872409,28.8431774 224.872409,18.6743295" id="path2217"></path>
                    <path d="M269.695332,31.3274921 L274.327076,25.7693708 C277.548281,28.4431437 280.937917,30.1063484 285.02228,30.1063484 C288.243489,30.1063484 290.180384,28.8431692 290.180384,26.7377917 L290.180384,26.6537289 C290.180384,24.6536101 288.938219,23.622024 282.980072,22.0850959 C275.779813,20.2534631 271.148019,18.2744201 271.148019,11.1793706 L271.148019,11.0532557 C271.148019,4.58982478 276.348213,0.294882693 283.632762,0.294882693 C288.854031,0.294882693 293.296326,1.9370696 296.89643,4.84243992 L292.833135,10.7795689 C289.6751,8.56892855 286.559208,7.24257996 283.548521,7.24257996 C280.51682,7.24257996 278.937799,8.61102209 278.937799,10.3584719 L278.937799,10.4425347 C278.937799,12.8005232 280.474727,13.5794982 286.643395,15.1585158 C293.885797,17.0533178 297.991239,19.6429078 297.991239,25.8747414 L297.991239,25.979851 C297.991239,33.0748466 292.580466,37.0540043 284.853852,37.0540043 C279.443083,37.0540043 273.99022,35.1802241 269.695332,31.3274507" id="path2219"></path>
                    <path d="M414.711829,9.53711326 L414.711829,9.43200368 C414.711829,7.38979137 413.322328,6.1265541 411.322222,6.1265541 C409.237928,6.1265541 407.869474,7.57929519 407.869474,9.747784 L407.869474,9.85289357 C407.869474,11.4319112 408.479996,12.5898317 409.953767,14.2741122 C413.048637,13.0951158 414.711829,11.7898389 414.711829,9.53710911 M414.290894,28.3588986 L407.427491,21.432331 C405.111601,22.6534209 404.122112,24.4008665 404.122112,26.1272405 L404.122112,26.2323501 C404.122112,28.7166772 406.227452,30.4009535 409.132819,30.4009535 C410.922333,30.4009535 412.64879,29.6430543 414.290894,28.3587454 M418.670031,32.864209 C415.785753,35.2642952 412.354011,36.8433128 408.227517,36.8433128 C401.38512,36.8433128 396.205998,32.864209 396.205998,26.5271126 L396.205998,26.4430498 C396.205998,21.8744168 398.64817,18.6742881 403.153629,16.6320758 C401.406208,14.1898961 400.669323,11.9371663 400.669323,9.49493271 L400.669323,9.38982313 C400.669323,4.4843879 404.606312,2.94382516e-14 411.490803,2.94382516e-14 C417.554221,2.94382516e-14 421.554392,3.97910377 421.554392,8.96877995 L421.554392,9.07388952 C421.554392,13.85304 418.48061,16.6742232 414.038291,18.4216191 L418.796353,23.158676 C419.95434,21.3270391 421.133332,19.2216658 422.249184,17.0321012 L428.017823,20.2112121 C426.649327,22.7165571 425.133462,25.3693122 423.343948,27.7483268 L428.565205,33.0117395 L422.817613,37.0540125 L418.670031,32.864209 Z" id="path2221"></path>
                    <path d="M452.271288,31.3274921 L456.945163,25.7693708 C460.145308,28.4220721 463.492781,30.1063484 467.598227,30.1063484 C470.798373,30.1063484 472.777432,28.8431692 472.777432,26.7377917 L472.777432,26.6326821 C472.777432,24.6536391 471.535258,23.622053 465.535022,22.0851249 C458.376799,20.2534921 453.723971,18.2744491 453.723971,11.1793996 L453.723971,11.07429 C453.723971,4.58983721 458.924181,0.315761615 466.208726,0.315761615 C471.429983,0.294426956 475.872302,1.93708203 479.493466,4.84245235 L475.409107,10.7585056 C472.229967,8.56894098 469.114092,7.24259239 466.103451,7.24259239 C463.092768,7.24259239 461.513763,8.6321103 461.513763,10.3584843 L461.513763,10.4425471 C461.513763,12.8005356 463.050674,13.5584349 469.219367,15.1585282 C476.461778,17.0322586 480.567183,19.6429203 480.567183,25.8747538 L480.567183,25.9798634 C480.567183,33.0748591 475.135416,37.0540167 467.429812,37.0540167 C462.040098,37.0540167 456.54515,35.1591608 452.271288,31.3274631" id="path2223"></path>
                    <path d="M565.791782,31.3274921 L570.444569,25.7693708 C573.644714,28.4431437 577.013275,30.1063484 581.097633,30.1063484 C584.318867,30.1063484 586.25575,28.8431692 586.25575,26.7167697 L586.25575,26.6327069 C586.25575,24.6536639 585.034664,23.6220779 579.055475,22.0851497 C571.876247,20.253517 567.202371,18.274474 567.202371,11.1794245 L567.202371,11.0743149 C567.202371,4.58986207 572.423628,0.315995755 579.708132,0.315995755 C584.908301,0.315995755 589.371708,1.93710689 592.992872,4.84247721 L588.908513,10.7585304 C585.729456,8.56896583 582.634586,7.22154147 579.623945,7.22154147 C576.613262,7.22154147 575.01321,8.63213516 575.01321,10.3585092 L575.01321,10.4636187 C575.01321,12.8005894 576.55008,13.5584887 582.718773,15.1585821 C589.98223,17.0323125 594.066589,19.6429741 594.066589,25.8748077 L594.066589,25.9588705 C594.066589,33.0749419 588.655869,37.0540995 580.950306,37.0540995 C575.539504,37.0540995 570.065644,35.1592436 565.791782,31.327546" id="path2225"></path>
                    <path d="M600.509014,31.3274921 L605.140754,25.7693708 C608.361946,28.4220721 611.709461,30.1063484 615.814866,30.1063484 C619.036099,30.1063484 620.972982,28.8431692 620.972982,26.7167697 L620.972982,26.6327069 C620.972982,24.6536639 619.751897,23.6220779 613.772666,22.0851497 C606.572432,20.253517 601.919562,18.2534024 601.919562,11.1794245 L601.919562,11.0743149 C601.919562,4.58986207 607.140819,0.294919981 614.425364,0.294919981 C619.646621,0.294919981 624.067852,1.93710689 627.710104,4.84247721 L623.625746,10.7585304 C620.467694,8.56896583 617.351819,7.22154147 614.320089,7.22154147 C611.330494,7.22154147 609.751489,8.63213516 609.751489,10.3585092 L609.751489,10.4636187 C609.751489,12.8005894 611.267313,13.5584887 617.457053,15.1585821 C624.699463,17.0323125 628.783863,19.6429741 628.783863,25.8748077 L628.783863,25.9588705 C628.783863,33.0749419 623.37306,37.0540995 615.64645,37.0540995 C610.235689,37.0540995 604.782835,35.1592436 600.509014,31.327546" id="path2227"></path>
                    <path d="M720.89287,18.6743213 L720.89287,18.5692117 C720.89287,12.4426369 716.408498,7.32663033 710.050343,7.32663033 C703.734322,7.32663033 699.355185,12.3583959 699.355185,18.463953 L699.355185,18.5690625 C699.355185,24.6956373 703.839556,29.7905722 710.176665,29.7905722 C716.492727,29.7905722 720.89287,24.7798244 720.89287,18.6743254 M691.123286,18.6743254 L691.123286,18.5692158 C691.123286,8.40036792 699.144675,0.0842285234 710.176665,0.0842285234 C721.208737,0.0842285234 729.124851,8.31612697 729.124851,18.4639571 L729.124851,18.5690667 C729.124851,28.7168429 721.082373,37.054054 710.050343,37.054054 C699.0394,37.054054 691.123286,28.8221017 691.123286,18.6743295" id="path2229"></path>
                    <path d="M735.94616,31.3274921 L740.598947,25.7693708 C743.799092,28.4220721 747.188741,30.1063484 751.273099,30.1063484 C754.494292,30.1063484 756.431216,28.8431692 756.431216,26.7377917 L756.431216,26.6326821 C756.431216,24.6536391 755.210089,23.622053 749.230941,22.0851249 C742.05163,20.2534921 737.398843,18.2744491 737.398843,11.1793996 L737.398843,11.07429 C737.398843,4.58983721 742.599094,0.294895122 749.904645,0.294895122 C755.104855,0.294895122 759.547133,1.93708203 763.168338,4.84245235 L759.083938,10.7585056 C755.925928,8.56894098 752.810011,7.24259239 749.799328,7.24259239 C746.788728,7.24259239 745.188676,8.61103452 745.188676,10.3584843 L745.188676,10.4425471 C745.188676,12.8005356 746.746635,13.5584349 752.915286,15.1585282 C760.157696,17.0322586 764.242055,19.6429203 764.242055,25.8747538 L764.242055,25.9588166 C764.242055,33.0538661 758.852341,37.0540457 751.104684,37.0540457 C745.71497,37.0540457 740.262115,35.1591898 735.94616,31.3274921" id="path2231"></path>
                    <path d="M17.0112284,29.3694711 C20.4850522,29.3694711 22.5903717,28.1483812 22.5903717,25.495626 L22.5903717,25.3905164 C22.5903717,22.9904303 20.8008325,21.5166714 16.7585594,21.5166714 L7.68452076,21.5166714 L7.68452076,29.3696202 L17.0112284,29.3694711 Z M14.9269267,14.9689043 C18.3796747,14.9689043 20.5903109,13.874095 20.5903109,11.2003221 L20.5903109,11.0952125 C20.5903109,8.75829565 18.7586782,7.43188905 15.4322109,7.43188905 L7.68452076,7.43188905 L7.68452076,14.9690575 L14.9269267,14.9689043 Z M-4.41573774e-14,0.526190045 L16.6112072,0.526190045 C20.6955738,0.526190045 23.9167783,1.66309282 25.9379148,3.70530099 C27.6011195,5.32641212 28.3800946,7.32647704 28.3800946,9.76871062 L28.3800946,9.8738202 C28.3800946,13.9160933 26.2536952,16.1477514 23.7062028,17.5793629 C27.8537885,19.1794562 30.401227,21.5585205 30.401227,26.3586929 L30.401227,26.4638024 C30.401227,33.0114743 25.0746988,36.2747226 17.0112284,36.2747226 L-4.41573774e-14,36.2747226 L-4.41573774e-14,0.526190045 Z" id="path2233"></path>
                    <polygon id="path2235" points="47.9809089 22.1902344 34.2119068 0.526190045 43.4333516 0.526190045 51.9389949 14.8846633 60.6340839 0.526190045 69.5607662 0.526190045 55.8338577 22.042878 55.8338577 36.2750209 47.9809089 36.2750209"></polygon>
                    <polygon id="path2237" points="94.888134 0.526190045 102.741083 0.526190045 102.741083 29.1168559 120.552304 29.1168559 120.552304 36.2750209 94.888134 36.2750209"></polygon>
                    <path d="M149.564071,21.3060007 L144.805938,9.72656322 L140.068935,21.3060007 L149.564071,21.3060007 Z M141.268949,0.273574907 L148.532427,0.273574907 L163.859379,36.2750209 L155.627481,36.2750209 L152.364179,28.2536441 L137.247752,28.2536441 L133.984454,36.2750209 L125.984149,36.2750209 L141.268949,0.273574907 Z" id="path2239"></path>
                    <path d="M203.882076,18.5690584 C207.798015,18.5690584 210.11391,16.2110658 210.11391,13.1372674 L210.11391,13.0321578 C210.11391,9.51624464 207.671734,7.64246036 203.73472,7.64246036 L197.650239,7.64246036 L197.650239,18.5692614 L203.882076,18.5690584 Z M189.776218,0.526190045 L204.387361,0.526190045 C212.914022,0.526190045 218.072122,5.57902726 218.072122,12.9056742 L218.072122,12.989737 C218.072122,21.2637828 211.650838,25.5376491 203.629461,25.5376491 L197.650239,25.5376491 L197.650239,36.2748966 L189.776218,36.2748966 L189.776218,0.526190045 Z" id="path2241"></path>
                    <polygon id="path2243" points="314.960374 7.76859185 304.075721 7.76859185 304.075721 0.526190045 333.676905 0.526190045 333.676905 7.76859185 322.813323 7.76859185 322.813323 36.2750209 314.939299 36.2750209"></polygon>
                    <polygon id="path2245" points="342.266723 0.547261677 369.21521 0.525717736 369.21521 7.53652632 350.077603 7.53652632 350.077603 14.7789281 366.941454 14.7789281 366.941454 21.7687189 350.077603 21.7687189 350.077603 29.2848117 369.467896 29.2848117 369.467896 36.2745486 342.266723 36.2745486"></polygon>
                    <polygon id="path2247" points="485.935808 0.294592679 494.357211 0.294592679 501.768036 24.4850577 509.76842 0.16831204 516.505542 0.16831204 524.52689 24.4850577 531.937757 0.273574907 540.169656 0.273574907 527.958633 36.2750209 521.095189 36.2750209 513.052711 12.8845984 504.98927 36.2750209 498.125785 36.2750209"></polygon>
                    <polygon id="path2249" points="548.885796 0.526190045 556.738769 0.526190045 556.738769 36.2750209 548.885796 36.2750209"></polygon>
                    <path d="M670.153947,18.5690584 C674.06989,18.5690584 676.364734,16.2110658 676.364734,13.1372674 L676.364734,13.0321578 C676.364734,9.51624464 673.901474,7.62144259 669.964443,7.62144259 L663.922113,7.62144259 L663.922113,18.5692614 L670.153947,18.5690584 Z M656.048093,0.526190045 L670.638188,0.526190045 C679.185913,0.526190045 684.322983,5.60010304 684.322983,12.8845984 L684.322983,12.989708 C684.322983,21.2637538 677.901645,25.558642 669.901344,25.558642 L663.922113,25.558642 L663.922113,36.2748676 L656.048093,36.2748676 L656.048093,0.526190045 Z" id="path2251"></path>
                    <polygon id="path2253" points="781.211181 7.76859185 770.32652 7.76859185 770.32652 0.526190045 799.92777 0.526190045 799.92777 7.76859185 789.064155 7.76859185 789.064155 36.2750209 781.211181 36.2750209"></polygon>
                </g>
                <g id="g15610">
                    <path d="M181.175375,50.9623792 C179.758204,50.3358767 178.368314,49.7360227 177.032982,49.1091662 C166.295397,44.3399865 161.090176,41.7510165 161.090176,35.8916623 C161.090176,27.9611385 169.04797,26.7892698 173.762667,26.7892698 C184.009647,26.7892698 192.757692,31.9945611 195.183204,33.6024771 C195.946242,34.0657307 196.845602,34.2289796 197.69041,34.0385404 C198.562494,33.8208573 199.298321,33.2754322 199.734363,32.4851123 L209.92686,14.7981385 C210.744456,13.4083185 210.390113,11.6095933 209.054776,10.6285339 C199.652599,3.57009925 187.279961,-1.90531091e-14 172.345496,-1.90531091e-14 C148.226939,-1.90531091e-14 130.73078,15.2614618 130.73078,36.21875 C130.73078,58.3478372 144.547864,68.0770111 158.037882,74.644916 C160.899431,76.0892935 163.706427,77.3701432 166.377166,78.5420118 C176.896725,83.2839852 182.837778,86.2817908 182.837778,92.3046084 C182.837778,98.5727284 176.542382,102.824102 167.167481,102.824102 C154.822056,102.824102 146.510053,96.6923037 143.539523,94.5120994 C142.803696,93.9672213 141.904336,93.7489912 141.004971,93.9400096 C140.132887,94.1304488 139.369849,94.64863 138.879319,95.43895 L128.169016,112.935109 C127.324214,114.297723 127.651328,116.069167 128.850639,117.104783 C133.429074,120.838346 146.319517,129.613742 167.685566,129.613742 C195.537755,129.613742 213.579007,114.461256 213.579007,91.0512493 C213.579007,67.6412481 198.235776,58.7296702 181.175653,50.9626795" id="path2297"></path>
                    <path d="M313.268768,98.8997035 L271.545006,98.927591 L271.545006,74.3457157 L306.864396,74.3457157 C308.63584,74.3457157 310.080223,72.8740622 310.080223,71.0754067 L310.080223,51.4535203 C310.080223,49.6548702 308.63584,48.2376991 306.864396,48.2376991 L271.545006,48.2376991 L271.545006,27.907262 L312.042411,27.8793746 C313.813855,27.8793746 315.258238,26.4622732 315.258238,24.6636177 L315.258238,3.97883827 C315.258238,2.18018278 313.813855,0.73580532 312.042411,0.73580532 L243.474801,0.73580532 C241.703421,0.73580532 240.259044,2.18018278 240.259044,3.97883827 L240.259044,122.854792 C240.259044,124.653448 241.703421,126.09783 243.447589,126.09783 L313.268768,126.069943 C315.067423,126.069943 316.511806,124.625565 316.511806,122.854186 L316.511806,102.1422 C316.511806,100.370756 315.067423,98.8990975 313.268768,98.8990975" id="path2299"></path>
                    <path d="M455.581961,0.73580532 L432.716924,0.73580532 C430.945588,0.73580532 429.528422,2.20746423 429.528422,3.97883827 L429.528422,66.79614 C429.528422,69.0308374 429.555237,71.2383285 429.609939,73.3367688 C427.783986,70.4207324 425.603776,67.0959302 423.260103,63.7438466 L380.391792,2.1529067 C379.819702,1.28082286 378.811157,0.73580532 377.748329,0.73580532 L352.403415,0.763692782 C350.631971,0.763692782 349.187594,2.20807024 349.187594,4.00672573 L349.187594,122.88261 C349.187594,124.654054 350.631971,126.098436 352.403415,126.098436 L375.268334,126.098436 C377.012502,126.098436 378.456879,124.654054 378.456879,122.88261 L378.456879,54.8600864 C378.456879,53.6064485 378.456879,52.2983227 378.401051,51.0447545 C379.954409,53.4157036 381.753134,56.004679 383.688042,58.6754881 L429.881198,124.735823 C430.508398,125.580625 431.489125,126.098436 432.552013,126.098436 L455.58046,126.098436 C457.379147,126.098436 458.796313,124.654054 458.796313,122.855398 L458.796313,3.97944429 C458.796313,2.18079416 457.379147,0.73580532 455.58046,0.73580532" id="path2301"></path>
                    <path d="M570.288134,62.5174901 C570.288134,87.3718741 558.160734,99.4447908 533.170083,99.4447908 L524.612815,99.4447908 L524.612815,27.3616331 L532.29801,27.3616331 C558.923832,27.3616331 570.288134,37.881127 570.288134,62.5174901 M532.107249,0.73580532 L496.242793,0.73580532 C494.471403,0.73580532 492.999749,2.18018278 492.999749,3.97883827 L492.999749,122.854792 C492.999749,124.653448 494.471403,126.09783 496.242793,126.09783 L531.235175,126.09783 C576.365509,126.09783 603.345609,102.033761 603.345609,61.8089394 C603.345609,23.0012193 577.373855,0.73580532 532.107249,0.73580532" id="path2303"></path>
                    <path d="M656.433683,0.73580532 L631.252324,0.73580532 C629.453583,0.73580532 628.036471,2.18018278 628.036471,3.97883827 L628.036471,122.854792 C628.036471,124.626171 629.453583,126.09783 631.252324,126.09783 L656.433683,126.09783 C658.17783,126.09783 659.622239,124.626171 659.622239,122.854792 L659.649054,3.97883827 C659.649054,2.18018278 658.231888,0.73580532 656.433254,0.73580532" id="path2305"></path>
                    <path d="M74.2633619,54.2599053 L74.2633619,64.4796787 L31.6402402,64.5075662 L31.6402402,54.2878625 C31.6402402,35.7833678 37.6085753,28.3978615 52.951801,27.9073318 C68.2950321,28.3977757 74.2633619,35.7833678 74.2633619,54.2605864 M82.8206671,7.2226274 C74.9719126,2.91669601 66.0330586,0.736486418 52.951801,0.736486418 C39.8705488,0.736486418 30.9044134,2.91669601 23.1102164,7.19534595 C7.8214731,15.2076337 0,30.3328438 0,52.1621407 L0,122.964449 C0,124.735898 1.44438282,126.207487 3.24303831,126.207487 L28.3972072,126.207487 C30.168651,126.207487 31.6402402,124.735898 31.6402402,122.964449 L31.6402402,91.6512052 L74.2633619,91.6512052 L74.2633619,122.964449 C74.2633619,124.735898 75.7077447,126.207487 77.4791885,126.207487 L102.660569,126.207487 C104.432018,126.207487 105.84912,124.735898 105.84912,122.964449 L105.877007,52.1349344 C105.877007,30.3055623 98.1100218,15.1803576 82.8212785,7.2226274" id="path2307"></path>
                    <path d="M768.414661,54.2599053 L768.414661,64.4796787 L725.73703,64.5075662 L725.73703,54.2605864 C725.73703,35.7833678 731.732673,28.3978615 747.075872,27.9073318 C762.419124,28.3977757 768.414661,35.7833678 768.414661,54.2605864 M776.944738,7.2226274 C769.096026,2.91669601 760.129886,0.736486418 747.075872,0.736486418 C733.994614,0.736486418 725.028474,2.91669601 717.23425,7.16806987 C701.918295,15.2076337 694.124017,30.3055623 694.124017,52.1349344 L694.124017,122.964449 C694.124017,124.735898 695.541183,126.180275 697.367115,126.180275 L722.521283,126.180275 C724.292674,126.180275 725.73703,124.735898 725.73703,122.964449 L725.73703,91.6512052 L768.414661,91.6512052 L768.414661,122.964449 C768.414661,124.735898 769.831826,126.180275 771.63046,126.180275 L796.784683,126.180275 C798.556019,126.180275 799.973185,124.735898 799.973185,122.964449 L800,52.1349344 C800,30.3055623 792.205723,15.1803576 776.944255,7.2226274" id="path2309"></path>
                </g>
            </g>
        </g>
    </g>
</svg>