<?xml version="1.0" encoding="UTF-8"?>
<svg width="980px" height="680px" viewBox="0 0 980 680" version="1.1" xmlns="http://www.w3.org/2000/svg" xmlns:xlink="http://www.w3.org/1999/xlink">
    <title>FR+CH Asendia</title>
    <defs>
        <rect id="path-1" x="0" y="0" width="900" height="600" rx="80"></rect>
        <filter x="-6.7%" y="-10.0%" width="113.3%" height="120.0%" filterUnits="objectBoundingBox" id="filter-2">
            <feMorphology radius="2.5" operator="dilate" in="SourceAlpha" result="shadowSpreadOuter1"></feMorphology>
            <feOffset dx="0" dy="0" in="shadowSpreadOuter1" result="shadowOffsetOuter1"></feOffset>
            <feGaussianBlur stdDeviation="17.5" in="shadowOffsetOuter1" result="shadowBlurOuter1"></feGaussianBlur>
            <feColorMatrix values="0 0 0 0 0   0 0 0 0 0   0 0 0 0 0  0 0 0 0.5 0" type="matrix" in="shadowBlurOuter1"></feColorMatrix>
        </filter>
    </defs>
    <g id="FR+CH-Asendia" stroke="none" stroke-width="1" fill="none" fill-rule="evenodd">
        <g transform="translate(40, 40)">
            <g id="Rectangle">
                <use fill="black" fill-opacity="1" filter="url(#filter-2)" xlink:href="#path-1"></use>
                <use fill="#FFF000" fill-rule="evenodd" xlink:href="#path-1"></use>
            </g>
            <g id="Logo" transform="translate(50, 235)" fill="#211E1E" fill-rule="nonzero">
                <g id="g15610">
                    <path d="M181.175375,50.9623792 C179.758204,50.3358767 178.368314,49.7360227 177.032982,49.1091662 C166.295397,44.3399865 161.090176,41.7510165 161.090176,35.8916623 C161.090176,27.9611385 169.04797,26.7892698 173.762667,26.7892698 C184.009647,26.7892698 192.757692,31.9945611 195.183204,33.6024771 C195.946242,34.0657307 196.845602,34.2289796 197.69041,34.0385404 C198.562494,33.8208573 199.298321,33.2754322 199.734363,32.4851123 L209.92686,14.7981385 C210.744456,13.4083185 210.390113,11.6095933 209.054776,10.6285339 C199.652599,3.57009925 187.279961,-1.90531091e-14 172.345496,-1.90531091e-14 C148.226939,-1.90531091e-14 130.73078,15.2614618 130.73078,36.21875 C130.73078,58.3478372 144.547864,68.0770111 158.037882,74.644916 C160.899431,76.0892935 163.706427,77.3701432 166.377166,78.5420118 C176.896725,83.2839852 182.837778,86.2817908 182.837778,92.3046084 C182.837778,98.5727284 176.542382,102.824102 167.167481,102.824102 C154.822056,102.824102 146.510053,96.6923037 143.539523,94.5120994 C142.803696,93.9672213 141.904336,93.7489912 141.004971,93.9400096 C140.132887,94.1304488 139.369849,94.64863 138.879319,95.43895 L128.169016,112.935109 C127.324214,114.297723 127.651328,116.069167 128.850639,117.104783 C133.429074,120.838346 146.319517,129.613742 167.685566,129.613742 C195.537755,129.613742 213.579007,114.461256 213.579007,91.0512493 C213.579007,67.6412481 198.235776,58.7296702 181.175653,50.9626795" id="path2297"></path>
                    <path d="M313.268768,98.8997035 L271.545006,98.927591 L271.545006,74.3457157 L306.864396,74.3457157 C308.63584,74.3457157 310.080223,72.8740622 310.080223,71.0754067 L310.080223,51.4535203 C310.080223,49.6548702 308.63584,48.2376991 306.864396,48.2376991 L271.545006,48.2376991 L271.545006,27.907262 L312.042411,27.8793746 C313.813855,27.8793746 315.258238,26.4622732 315.258238,24.6636177 L315.258238,3.97883827 C315.258238,2.18018278 313.813855,0.73580532 312.042411,0.73580532 L243.474801,0.73580532 C241.703421,0.73580532 240.259044,2.18018278 240.259044,3.97883827 L240.259044,122.854792 C240.259044,124.653448 241.703421,126.09783 243.447589,126.09783 L313.268768,126.069943 C315.067423,126.069943 316.511806,124.625565 316.511806,122.854186 L316.511806,102.1422 C316.511806,100.370756 315.067423,98.8990975 313.268768,98.8990975" id="path2299"></path>
                    <path d="M455.581961,0.73580532 L432.716924,0.73580532 C430.945588,0.73580532 429.528422,2.20746423 429.528422,3.97883827 L429.528422,66.79614 C429.528422,69.0308374 429.555237,71.2383285 429.609939,73.3367688 C427.783986,70.4207324 425.603776,67.0959302 423.260103,63.7438466 L380.391792,2.1529067 C379.819702,1.28082286 378.811157,0.73580532 377.748329,0.73580532 L352.403415,0.763692782 C350.631971,0.763692782 349.187594,2.20807024 349.187594,4.00672573 L349.187594,122.88261 C349.187594,124.654054 350.631971,126.098436 352.403415,126.098436 L375.268334,126.098436 C377.012502,126.098436 378.456879,124.654054 378.456879,122.88261 L378.456879,54.8600864 C378.456879,53.6064485 378.456879,52.2983227 378.401051,51.0447545 C379.954409,53.4157036 381.753134,56.004679 383.688042,58.6754881 L429.881198,124.735823 C430.508398,125.580625 431.489125,126.098436 432.552013,126.098436 L455.58046,126.098436 C457.379147,126.098436 458.796313,124.654054 458.796313,122.855398 L458.796313,3.97944429 C458.796313,2.18079416 457.379147,0.73580532 455.58046,0.73580532" id="path2301"></path>
                    <path d="M570.288134,62.5174901 C570.288134,87.3718741 558.160734,99.4447908 533.170083,99.4447908 L524.612815,99.4447908 L524.612815,27.3616331 L532.29801,27.3616331 C558.923832,27.3616331 570.288134,37.881127 570.288134,62.5174901 M532.107249,0.73580532 L496.242793,0.73580532 C494.471403,0.73580532 492.999749,2.18018278 492.999749,3.97883827 L492.999749,122.854792 C492.999749,124.653448 494.471403,126.09783 496.242793,126.09783 L531.235175,126.09783 C576.365509,126.09783 603.345609,102.033761 603.345609,61.8089394 C603.345609,23.0012193 577.373855,0.73580532 532.107249,0.73580532" id="path2303"></path>
                    <path d="M656.433683,0.73580532 L631.252324,0.73580532 C629.453583,0.73580532 628.036471,2.18018278 628.036471,3.97883827 L628.036471,122.854792 C628.036471,124.626171 629.453583,126.09783 631.252324,126.09783 L656.433683,126.09783 C658.17783,126.09783 659.622239,124.626171 659.622239,122.854792 L659.649054,3.97883827 C659.649054,2.18018278 658.231888,0.73580532 656.433254,0.73580532" id="path2305"></path>
                    <path d="M74.2633619,54.2599053 L74.2633619,64.4796787 L31.6402402,64.5075662 L31.6402402,54.2878625 C31.6402402,35.7833678 37.6085753,28.3978615 52.951801,27.9073318 C68.2950321,28.3977757 74.2633619,35.7833678 74.2633619,54.2605864 M82.8206671,7.2226274 C74.9719126,2.91669601 66.0330586,0.736486418 52.951801,0.736486418 C39.8705488,0.736486418 30.9044134,2.91669601 23.1102164,7.19534595 C7.8214731,15.2076337 0,30.3328438 0,52.1621407 L0,122.964449 C0,124.735898 1.44438282,126.207487 3.24303831,126.207487 L28.3972072,126.207487 C30.168651,126.207487 31.6402402,124.735898 31.6402402,122.964449 L31.6402402,91.6512052 L74.2633619,91.6512052 L74.2633619,122.964449 C74.2633619,124.735898 75.7077447,126.207487 77.4791885,126.207487 L102.660569,126.207487 C104.432018,126.207487 105.84912,124.735898 105.84912,122.964449 L105.877007,52.1349344 C105.877007,30.3055623 98.1100218,15.1803576 82.8212785,7.2226274" id="path2307"></path>
                    <path d="M768.414661,54.2599053 L768.414661,64.4796787 L725.73703,64.5075662 L725.73703,54.2605864 C725.73703,35.7833678 731.732673,28.3978615 747.075872,27.9073318 C762.419124,28.3977757 768.414661,35.7833678 768.414661,54.2605864 M776.944738,7.2226274 C769.096026,2.91669601 760.129886,0.736486418 747.075872,0.736486418 C733.994614,0.736486418 725.028474,2.91669601 717.23425,7.16806987 C701.918295,15.2076337 694.124017,30.3055623 694.124017,52.1349344 L694.124017,122.964449 C694.124017,124.735898 695.541183,126.180275 697.367115,126.180275 L722.521283,126.180275 C724.292674,126.180275 725.73703,124.735898 725.73703,122.964449 L725.73703,91.6512052 L768.414661,91.6512052 L768.414661,122.964449 C768.414661,124.735898 769.831826,126.180275 771.63046,126.180275 L796.784683,126.180275 C798.556019,126.180275 799.973185,124.735898 799.973185,122.964449 L800,52.1349344 C800,30.3055623 792.205723,15.1803576 776.944255,7.2226274" id="path2309"></path>
                </g>
            </g>
        </g>
    </g>
</svg>