<?xml version="1.0" encoding="UTF-8"?>
<svg width="980px" height="680px" viewBox="0 0 980 680" version="1.1" xmlns="http://www.w3.org/2000/svg" xmlns:xlink="http://www.w3.org/1999/xlink">
    <title>FR chronopost alt</title>
    <defs>
        <rect id="path-1" x="0" y="0" width="900" height="600" rx="80"></rect>
        <filter x="-6.7%" y="-10.0%" width="113.3%" height="120.0%" filterUnits="objectBoundingBox" id="filter-2">
            <feMorphology radius="2.5" operator="dilate" in="SourceAlpha" result="shadowSpreadOuter1"></feMorphology>
            <feOffset dx="0" dy="0" in="shadowSpreadOuter1" result="shadowOffsetOuter1"></feOffset>
            <feGaussianBlur stdDeviation="17.5" in="shadowOffsetOuter1" result="shadowBlurOuter1"></feGaussianBlur>
            <feColorMatrix values="0 0 0 0 0   0 0 0 0 0   0 0 0 0 0  0 0 0 0.5 0" type="matrix" in="shadowBlurOuter1"></feColorMatrix>
        </filter>
    </defs>
    <g id="FR-chronopost-alt" stroke="none" stroke-width="1" fill="none" fill-rule="evenodd">
        <g transform="translate(40, 40)">
            <g id="Rectangle">
                <use fill="black" fill-opacity="1" filter="url(#filter-2)" xlink:href="#path-1"></use>
                <use fill="#199BDC" fill-rule="evenodd" xlink:href="#path-1"></use>
            </g>
            <g id="Logo" transform="translate(50, 214)" fill="#FFFFFF" fill-rule="nonzero">
                <path d="M583.769372,153.107815 L566.83886,153.107815 L566.83886,69.3884353 C575.504083,66.0556574 584.70255,64.1893018 594.034328,64.1893018 C614.430928,64.1893018 628.428595,75.7873688 628.428595,95.5174138 C628.428595,117.247125 615.364106,129.378437 593.767705,129.378437 L592.967839,129.378437 L592.967839,114.714214 C603.499417,114.714214 611.364773,108.848525 611.364773,96.1839693 C611.364773,85.385769 604.299283,79.3867689 593.901016,79.3867689 C590.434928,79.2534578 587.10215,79.7867022 583.769372,80.9865022 L583.769372,153.107815 Z M788.268622,114.580903 C781.069822,114.580903 777.33711,111.114814 777.33711,104.049325 L777.33711,79.6533911 L799.200133,79.6533911 L799.200133,65.9223463 L777.33711,65.9223463 L777.33711,42.7262123 L760.53991,42.7262123 L760.53991,105.249125 C760.53991,123.646059 770.804866,129.645059 787.068822,129.645059 C791.334778,129.645059 795.734044,129.245126 800,128.57857 L800,113.114481 C796.133978,114.047659 792.267955,114.714214 788.268622,114.580903 Z M244.359273,68.8551908 C239.026829,65.655724 232.894518,64.0559907 226.628895,64.1893018 C207.698717,64.1893018 193.834361,77.1204799 193.834361,96.8505249 C193.834361,116.58057 206.632228,129.245126 226.762206,129.245126 C233.16114,129.378437 239.426762,127.778704 244.892518,124.579237 L244.892518,108.981836 C240.35994,112.581236 234.894184,114.580903 229.161806,114.580903 C219.696717,115.247459 211.431428,108.18197 210.764873,98.7168805 C210.764873,98.0503249 210.764873,97.3837694 210.764873,96.7172138 C210.231628,87.652058 217.030495,79.7867022 226.228962,79.1201466 C227.028829,79.1201466 227.828695,79.1201466 228.495251,79.1201466 C234.36094,78.9868355 239.960007,80.9865022 244.492585,84.8525246 L244.492585,68.8551908 L244.359273,68.8551908 Z M253.424429,127.912015 L270.088319,127.912015 L270.088319,81.2531245 C273.82103,79.9200133 277.820363,79.3867689 281.819697,79.3867689 C289.018497,79.3867689 292.884519,82.986169 292.884519,90.0516581 L292.884519,127.912015 L309.68172,127.912015 L309.68172,88.9851691 C309.68172,70.5882353 298.883519,64.455924 285.419097,64.455924 C280.219963,64.455924 275.02083,65.3891018 270.088319,67.1221463 L270.088319,37.5270788 L253.424429,37.5270788 L253.424429,127.912015 Z M358.206966,96.983836 C358.206966,114.980837 372.737877,129.511748 390.734878,129.511748 C408.731878,129.511748 423.26279,114.980837 423.26279,96.983836 C423.26279,78.9868355 408.731878,64.455924 390.734878,64.455924 C372.737877,64.3226129 358.206966,78.9868355 358.206966,96.983836 L358.206966,96.983836 Z M406.332278,96.983836 C406.332278,108.18197 399.800033,114.980837 390.734878,114.980837 C381.669722,114.980837 375.137477,108.048659 375.137477,96.983836 C375.137477,85.9190135 381.669722,78.9868355 390.734878,78.9868355 C399.800033,78.9868355 406.332278,85.6523913 406.332278,96.983836 L406.332278,96.983836 Z M431.128145,127.912015 L447.925346,127.912015 L447.925346,81.2531245 C451.658057,80.0533244 455.65739,79.3867689 459.656724,79.3867689 C466.855524,79.3867689 470.721546,82.986169 470.721546,90.0516581 L470.721546,127.912015 L487.652058,127.912015 L487.652058,88.9851691 C487.652058,70.4549242 477.387102,64.455924 460.989835,64.455924 C450.85819,64.5892351 440.859857,66.4555907 431.261456,69.9216797 L431.128145,127.912015 Z M494.450925,96.983836 C494.450925,114.980837 508.981836,129.511748 526.978837,129.511748 C544.975837,129.511748 559.506749,114.980837 559.506749,96.983836 C559.506749,78.9868355 544.975837,64.455924 526.978837,64.455924 C509.115147,64.3226129 494.450925,78.9868355 494.450925,96.983836 L494.450925,96.983836 Z M542.709548,96.983836 C542.709548,108.18197 536.177304,114.980837 527.112148,114.980837 C518.046992,114.980837 511.514748,108.048659 511.514748,96.983836 C511.514748,85.9190135 518.046992,78.9868355 527.112148,78.9868355 C536.177304,78.9868355 542.576237,85.6523913 542.709548,96.983836 L542.709548,96.983836 Z M346.208965,64.455924 C330.07832,64.455924 319.546742,70.4549242 319.546742,88.9851691 L319.546742,128.045326 L336.477254,128.045326 L336.477254,90.1849692 C336.477254,83.2527912 340.209965,79.52008 347.542076,79.52008 C351.54141,79.52008 355.407432,80.0533244 359.273454,81.1198134 L359.273454,65.3891018 C354.874188,64.7225462 350.474921,64.3226129 346.208965,64.455924 L346.208965,64.455924 Z M707.082153,123.646059 C713.214464,127.112148 720.279953,128.845192 727.345442,128.711881 C741.876354,128.711881 752.007999,122.57957 752.007999,108.981836 C752.007999,97.7837027 746.542243,91.7847025 730.544909,88.7185469 C724.67922,87.2521246 722.412931,85.6523913 722.412931,82.4529245 C722.412931,79.2534578 724.812531,77.1204799 730.411598,77.1204799 C736.810532,77.253791 742.942843,79.3867689 748.141976,83.1194801 L748.141976,68.1886352 C742.54291,64.9891685 736.277287,63.3894351 729.878354,63.5227462 C716.547242,63.5227462 706.148975,69.7883686 706.148975,83.5194134 C706.148975,94.8508582 712.014664,100.449925 726.145642,102.982836 C733.07782,104.449258 735.610732,105.915681 735.610732,109.648392 C735.610732,113.381103 732.144643,115.114148 726.945509,115.114148 C719.746709,114.847525 712.947842,112.447925 707.082153,108.18197 L707.082153,123.646059 Z M635.760707,96.8505249 C635.760707,114.847525 650.291618,129.378437 668.288619,129.378437 C686.285619,129.378437 700.816531,114.847525 700.816531,96.8505249 C700.816531,78.8535244 686.285619,64.3226129 668.288619,64.3226129 C650.291618,64.3226129 635.760707,78.8535244 635.760707,96.8505249 L635.760707,96.8505249 Z M683.886019,96.8505249 C683.886019,108.048659 677.353774,114.847525 668.288619,114.847525 C659.223463,114.847525 652.691218,107.915347 652.691218,96.8505249 C652.691218,85.7857024 659.223463,78.8535244 668.288619,78.8535244 C677.353774,78.8535244 683.886019,85.6523913 683.886019,96.8505249 L683.886019,96.8505249 Z" id="Shape"></path>
                <path d="M102.649558,76.8538577 C101.849692,77.253791 100.916514,77.253791 100.116647,76.8538577 L96.1173138,74.4542576 C95.7173804,74.1876354 95.4507582,73.9210132 95.3174471,73.5210798 L95.3174471,73.5210798 C95.0508249,73.1211465 94.9175137,72.7212131 94.9175137,72.1879687 L94.9175137,67.5220797 C94.9175137,66.722213 95.3174471,65.9223463 96.1173138,65.3891018 L144.242626,37.3937677 L76.653891,0.599900017 C74.9208465,-0.199966672 72.9211798,-0.199966672 71.1881353,0.599900017 L3.73271121,37.2604566 L79.1868022,81.2531245 C79.9866689,81.6530578 80.3866022,82.4529245 80.3866022,83.3861023 L80.3866022,147.508749 C80.3866022,148.441926 79.8533578,149.108482 79.0534911,149.641726 L75.0541576,151.908015 C74.6542243,152.041326 74.254291,152.174638 73.8543576,152.174638 L73.8543576,152.174638 C73.4544243,152.174638 72.9211798,152.041326 72.5212465,151.908015 L68.521913,149.641726 C67.7220463,149.241793 67.322113,148.441926 67.1888019,147.508749 L67.1888019,90.3182803 C67.1888019,89.9183469 66.9221796,89.3851025 66.5222463,89.1184803 L0,50.458257 L0,126.17897 C0.133311115,128.045326 1.06648892,129.77837 2.6662223,130.844859 L71.1881353,171.371438 C72.9211798,172.171305 74.7875354,172.171305 76.5205799,171.371438 L145.042493,130.97817 C146.642226,129.911681 147.575404,128.178637 147.708715,126.312281 L147.708715,50.5915681 L102.649558,76.8538577 Z" id="Path"></path>
            </g>
        </g>
    </g>
</svg>