<?xml version="1.0" encoding="UTF-8"?>
<svg width="980px" height="680px" viewBox="0 0 980 680" version="1.1" xmlns="http://www.w3.org/2000/svg" xmlns:xlink="http://www.w3.org/1999/xlink">
    <title>FR La Poste</title>
    <defs>
        <linearGradient x1="50%" y1="0%" x2="50%" y2="100%" id="linearGradient-1">
            <stop stop-color="#FFFFFF" offset="0%"></stop>
            <stop stop-color="#EDEDED" offset="100%"></stop>
        </linearGradient>
        <rect id="path-2" x="0" y="0" width="900" height="600" rx="80"></rect>
        <filter x="-6.7%" y="-10.0%" width="113.3%" height="120.0%" filterUnits="objectBoundingBox" id="filter-3">
            <feMorphology radius="2.5" operator="dilate" in="SourceAlpha" result="shadowSpreadOuter1"></feMorphology>
            <feOffset dx="0" dy="0" in="shadowSpreadOuter1" result="shadowOffsetOuter1"></feOffset>
            <feGaussianBlur stdDeviation="17.5" in="shadowOffsetOuter1" result="shadowBlurOuter1"></feGaussianBlur>
            <feColorMatrix values="0 0 0 0 0   0 0 0 0 0   0 0 0 0 0  0 0 0 0.5 0" type="matrix" in="shadowBlurOuter1"></feColorMatrix>
        </filter>
        <linearGradient x1="-0.000413736359%" y1="49.9979178%" x2="99.9971165%" y2="49.9979178%" id="linearGradient-4">
            <stop stop-color="#F1E437" offset="0%"></stop>
            <stop stop-color="#E8B333" offset="100%"></stop>
        </linearGradient>
    </defs>
    <g id="FR-La-Poste" stroke="none" stroke-width="1" fill="none" fill-rule="evenodd">
        <g transform="translate(40, 40)">
            <g id="Rectangle">
                <use fill="black" fill-opacity="1" filter="url(#filter-3)" xlink:href="#path-2"></use>
                <use fill="url(#linearGradient-1)" fill-rule="evenodd" xlink:href="#path-2"></use>
            </g>
            <g id="Logo" transform="translate(113, 50)" fill-rule="nonzero">
                <path d="M664.208845,137.216804 C621.777125,14.0228518 440.693057,-35.3493723 259.766727,26.9574281 C78.840398,89.2642286 -33.4695817,239.589243 8.96213817,362.783196 C51.393858,485.977148 232.320187,535.349372 413.246517,473.042572 C594.172846,410.735771 706.640565,260.410757 664.208845,137.216804 Z" id="Path" fill="url(#linearGradient-4)"></path>
                <path d="M194.147414,147.943038 C191.939071,147.943038 186.575954,147.627561 185.629522,152.044245 C185.314044,153.463894 185.787261,155.041281 186.891432,156.145452 C188.626558,157.72284 190.8349,158.827011 193.043242,159.457966 C207.870684,164.821083 256.138737,181.699128 282.954322,199.996821 C283.900754,200.627776 285.478141,201.731947 285.478141,201.731947 L485.806335,198.577172 C486.121813,198.103956 493.535533,185.16938 497.952218,176.809227 C502.68438,167.66038 502.999857,159.773443 497.63674,154.568065 C491.800407,148.889471 482.178344,147.943038 462.934219,147.943038 L194.147414,147.943038 Z M595.907973,209.618884 C591.491288,209.776622 298.09724,214.193307 293.522817,214.351046 C291.156736,214.508785 290.368042,214.982001 290.368042,217.663559 C290.210303,238.958289 262.132808,259.464324 223.802296,277.604279 C183.42118,296.848404 132.629307,316.09253 106.129199,325.872332 C99.8196498,328.238413 88.6201995,332.181881 84.9922086,334.074746 C82.1529114,335.494395 80.1023078,337.860476 81.0487402,340.542034 C81.9951727,343.223593 84.8344699,344.485503 94.929749,341.961683 C99.3464336,340.699773 104.394073,339.595602 110.072668,338.018214 C160.706802,324.768161 253.614917,301.580566 343.841473,279.023927 C437.380544,255.678594 529.657704,235.488036 597.327621,223.184415 C602.690738,222.237983 607.107423,219.398685 606.791945,215.297478 C606.634207,211.511749 602.217522,209.461145 595.907973,209.618884 L595.907973,209.618884 Z M442.428183,268.613171 L133.260262,344.643241 L354.883185,340.857512 C354.883185,340.857512 368.133239,341.172989 377.755302,335.494395 C393.213698,326.03007 413.561994,309.152026 442.428183,268.613171 L442.428183,268.613171 Z" id="path10703" fill="#003DA5"></path>
            </g>
        </g>
    </g>
</svg>