<?xml version="1.0" encoding="UTF-8"?>
<svg width="980px" height="680px" viewBox="0 0 980 680" version="1.1" xmlns="http://www.w3.org/2000/svg" xmlns:xlink="http://www.w3.org/1999/xlink">
    <title>GG Guernsey Post text</title>
    <defs>
        <linearGradient x1="50%" y1="0%" x2="50%" y2="100%" id="linearGradient-1">
            <stop stop-color="#FFFFFF" offset="0%"></stop>
            <stop stop-color="#EDEDED" offset="100%"></stop>
        </linearGradient>
        <rect id="path-2" x="0" y="0" width="900" height="600" rx="80"></rect>
        <filter x="-6.7%" y="-10.0%" width="113.3%" height="120.0%" filterUnits="objectBoundingBox" id="filter-3">
            <feMorphology radius="2.5" operator="dilate" in="SourceAlpha" result="shadowSpreadOuter1"></feMorphology>
            <feOffset dx="0" dy="0" in="shadowSpreadOuter1" result="shadowOffsetOuter1"></feOffset>
            <feGaussianBlur stdDeviation="17.5" in="shadowOffsetOuter1" result="shadowBlurOuter1"></feGaussianBlur>
            <feColorMatrix values="0 0 0 0 0   0 0 0 0 0   0 0 0 0 0  0 0 0 0.5 0" type="matrix" in="shadowBlurOuter1"></feColorMatrix>
        </filter>
    </defs>
    <g id="GG-Guernsey-Post-text" stroke="none" stroke-width="1" fill="none" fill-rule="evenodd">
        <g transform="translate(40, 40)">
            <g id="Rectangle">
                <use fill="black" fill-opacity="1" filter="url(#filter-3)" xlink:href="#path-2"></use>
                <use fill="url(#linearGradient-1)" fill-rule="evenodd" xlink:href="#path-2"></use>
            </g>
            <g id="Logo" transform="translate(50, 142)">
                <g id="Group" transform="translate(3.3939, 115.8788)" fill="#E11B22">
                    <path d="M2.04550182e-14,116.848485 L35.8787879,116.848485 L35.8787879,80 L63.5151515,80 C75.6363636,79.5151515 86.3030303,79.030303 95.5151515,69.3333333 C104.242424,60.1212121 106.181818,49.9393939 106.181818,40.7272727 C106.181818,33.4545455 105.212121,23.2727273 96.969697,14.5454545 C87.7575758,5.33333333 77.0909091,4.36363636 64.969697,3.87878788 L2.04550182e-14,3.87878788 L2.04550182e-14,116.848485 L2.04550182e-14,116.848485 Z M55.7575758,27.6363636 C60.1212121,28.1212121 70.7878788,28.6060606 70.7878788,41.6969697 C70.7878788,48.4848485 67.3939394,53.8181818 62.0606061,55.2727273 C60.1212121,55.7575758 58.1818182,55.7575758 56.2424242,56.2424242 L35.8787879,56.2424242 L35.8787879,27.6363636 L55.7575758,27.6363636 L55.7575758,27.6363636 Z" id="Shape"></path>
                    <path d="M173.575758,3.44505569e-14 C132.848485,3.44505569e-14 112.969697,28.1212121 112.969697,60.6060606 C112.969697,86.3030303 127.030303,120.242424 173.090909,120.242424 C217.212121,120.242424 234.181818,87.7575758 234.181818,59.1515152 C234.181818,32.4848485 218.181818,3.44505569e-14 173.575758,3.44505569e-14 L173.575758,3.44505569e-14 Z M173.575758,28.1212121 C176.969697,28.1212121 190.545455,28.6060606 195.878788,44.1212121 C197.333333,48.4848485 197.818182,53.3333333 197.818182,59.1515152 C197.818182,80.4848485 187.636364,91.6363636 173.575758,91.6363636 C156.606061,91.6363636 148.848485,80 148.848485,60.1212121 C148.848485,37.3333333 160.969697,28.1212121 173.575758,28.1212121 L173.575758,28.1212121 Z" id="Shape"></path>
                    <path d="M236.121212,95.5151515 C241.454545,101.818182 249.69697,112 267.151515,116.848485 C275.878788,119.272727 284.606061,120.242424 293.333333,120.242424 C299.636364,120.242424 321.939394,120.242424 336.484848,105.69697 C341.818182,100.363636 346.666667,92.1212121 346.666667,80.4848485 C346.666667,52.3636364 321.939394,48 296.727273,43.6363636 C287.030303,41.6969697 281.212121,40.2424242 281.212121,34.9090909 C281.212121,29.0909091 288,27.6363636 293.818182,27.6363636 C299.636364,27.6363636 308.363636,28.6060606 314.666667,32 C319.515152,34.4242424 321.454545,37.3333333 323.393939,39.2727273 L345.69697,20.8484848 C341.818182,16.4848485 337.454545,12.1212121 329.212121,8.24242424 C320,3.39393939 308.363636,0.96969697 295.272727,0.96969697 C274.909091,0.96969697 256,7.27272727 248.727273,24.2424242 C246.787879,28.6060606 245.333333,33.9393939 245.333333,38.7878788 C245.333333,62.5454545 265.69697,68.8484848 275.878788,71.7575758 C280.727273,72.7272727 301.090909,76.6060606 304.969697,78.0606061 C311.272727,80 311.272727,84.3636364 311.272727,84.8484848 C311.272727,93.0909091 297.212121,93.0909091 294.30303,93.0909091 C288.969697,93.0909091 283.151515,92.1212121 278.30303,90.6666667 C268.606061,87.2727273 265.69697,83.3939394 262.787879,78.5454545 L236.121212,95.5151515 L236.121212,95.5151515 Z" id="Path" fill-rule="nonzero"></path>
                    <polygon id="Path" fill-rule="nonzero" points="347.636364 32 376.242424 32 376.242424 116.848485 411.636364 116.848485 411.636364 32 440.242424 32 440.242424 3.87878788 347.636364 3.87878788"></polygon>
                </g>
                <g id="Group" fill="#034EA2">
                    <path d="M76.6060606,92.1212121 L87.2727273,92.1212121 L87.2727273,44.6060606 L45.5757576,44.6060606 L45.5757576,54.7878788 L76.6060606,54.7878788 C76.6060606,73.6969697 63.5151515,83.3939394 45.0909091,83.3939394 C23.2727273,83.3939394 13.0909091,65.9393939 13.0909091,46.0606061 C13.0909091,27.1515152 25.2121212,10.1818182 45.0909091,10.1818182 C62.0606061,10.1818182 71.2727273,17.9393939 75.1515152,29.5757576 L86.7878788,26.6666667 C80.4848485,9.21212121 64,0 45.0909091,0 C16,0 0,23.7575758 0,47.030303 C0,74.6666667 16.969697,94.0606061 45.0909091,94.0606061 C57.6969697,94.0606061 69.3333333,90.6666667 76.6060606,79.5151515 L77.0909091,79.5151515 L77.0909091,92.1212121 L76.6060606,92.1212121 Z" id="Path" fill-rule="nonzero"></path>
                    <path d="M170.181818,2.42424242 L158.545455,2.42424242 L158.545455,60.1212121 C158.545455,75.6363636 151.757576,83.3939394 136.242424,83.3939394 C120.727273,83.3939394 113.939394,75.6363636 113.939394,60.1212121 L113.939394,2.42424242 L102.30303,2.42424242 L102.30303,62.5454545 C102.30303,82.9090909 115.393939,94.0606061 136.242424,94.0606061 C157.090909,94.0606061 170.181818,82.9090909 170.181818,62.5454545 L170.181818,2.42424242 L170.181818,2.42424242 Z" id="Path" fill-rule="nonzero"></path>
                    <polygon id="Path" fill-rule="nonzero" points="185.212121 91.6363636 249.212121 91.6363636 249.212121 81.4545455 196.848485 81.4545455 196.848485 50.4242424 240.969697 50.4242424 240.969697 40.2424242 196.848485 40.2424242 196.848485 12.6060606 247.757576 12.6060606 247.757576 2.42424242 185.212121 2.42424242"></polygon>
                    <path d="M258.909091,91.6363636 L270.545455,91.6363636 L270.545455,53.8181818 L293.333333,53.8181818 L317.575758,91.6363636 L331.636364,91.6363636 L306.909091,52.8484848 C322.424242,50.4242424 327.757576,39.2727273 327.757576,28.1212121 C327.757576,7.75757576 313.212121,2.42424242 299.151515,2.42424242 L258.909091,2.42424242 L258.909091,91.6363636 L258.909091,91.6363636 Z M270.545455,12.6060606 L297.212121,12.6060606 C308.363636,12.6060606 316.121212,16 316.121212,28.1212121 C316.121212,40.2424242 308.363636,43.6363636 297.212121,43.6363636 L270.545455,43.6363636 L270.545455,12.6060606 L270.545455,12.6060606 Z" id="Shape"></path>
                    <polygon id="Path" fill-rule="nonzero" points="339.878788 91.6363636 350.545455 91.6363636 350.545455 21.3333333 351.030303 21.3333333 398.545455 91.6363636 410.181818 91.6363636 410.181818 2.42424242 399.030303 2.42424242 399.030303 72.7272727 399.030303 72.7272727 351.515152 2.42424242 339.878788 2.42424242"></polygon>
                    <path d="M493.575758,27.6363636 C491.151515,8.24242424 476.121212,0 457.69697,0 C442.181818,0 425.69697,8.24242424 425.69697,25.2121212 C425.69697,58.1818182 482.424242,41.6969697 482.424242,66.4242424 C482.424242,79.030303 471.757576,84.3636364 460.606061,84.3636364 C445.090909,84.3636364 434.909091,77.5757576 434.424242,61.5757576 L421.818182,62.5454545 C423.272727,85.3333333 440.242424,93.5757576 461.090909,93.5757576 C478.060606,93.5757576 495.515152,84.8484848 495.515152,65.9393939 C495.515152,28.6060606 438.787879,46.5454545 438.787879,22.7878788 C438.787879,12.1212121 450.424242,9.21212121 458.666667,9.21212121 C471.272727,9.21212121 480.969697,15.030303 481.939394,28.1212121 L493.575758,27.6363636 L493.575758,27.6363636 Z" id="Path" fill-rule="nonzero"></path>
                    <polygon id="Path" fill-rule="nonzero" points="505.69697 91.6363636 569.69697 91.6363636 569.69697 81.4545455 517.818182 81.4545455 517.818182 50.4242424 561.939394 50.4242424 561.939394 40.2424242 517.818182 40.2424242 517.818182 12.6060606 568.727273 12.6060606 568.727273 2.42424242 505.69697 2.42424242"></polygon>
                    <polygon id="Path" fill-rule="nonzero" points="604.121212 91.6363636 616.242424 91.6363636 616.242424 50.4242424 648.242424 2.42424242 634.181818 2.42424242 609.939394 39.2727273 586.181818 2.42424242 572.121212 2.42424242 604.121212 50.4242424"></polygon>
                </g>
                <g id="Group" transform="translate(465.9394, 93.5758)" fill-rule="nonzero">
                    <polygon id="Path" fill="#E11B22" points="120.727273 204.606061 59.6363636 96 334.060606 0"></polygon>
                    <circle id="Oval" fill="#FFCB00" cx="99.8787879" cy="128" r="43.1515152"></circle>
                    <path d="M-6.89011138e-14,26.1818182 L258.909091,26.1818182 L83.3939394,87.7575758 C48.4848485,103.272727 56.2424242,139.151515 73.6969697,160 L142.545455,119.272727 C142.545455,119.272727 160,165.333333 123.636364,201.69697 C110.545455,214.787879 87.7575758,225.454545 61.5757576,220.606061 C34.9090909,215.272727 -0.484848485,194.424242 0.96969697,145.939394 L-6.89011138e-14,26.1818182 L-6.89011138e-14,26.1818182 Z" id="Path" fill="#034EA2"></path>
                </g>
            </g>
        </g>
    </g>
</svg>