<?xml version="1.0" encoding="UTF-8"?>
<svg width="980px" height="680px" viewBox="0 0 980 680" version="1.1" xmlns="http://www.w3.org/2000/svg" xmlns:xlink="http://www.w3.org/1999/xlink">
    <title>GG Guernsey Post</title>
    <defs>
        <linearGradient x1="50%" y1="0%" x2="50%" y2="100%" id="linearGradient-1">
            <stop stop-color="#FFFFFF" offset="0%"></stop>
            <stop stop-color="#EDEDED" offset="100%"></stop>
        </linearGradient>
        <rect id="path-2" x="0" y="0" width="900" height="600" rx="80"></rect>
        <filter x="-6.7%" y="-10.0%" width="113.3%" height="120.0%" filterUnits="objectBoundingBox" id="filter-3">
            <feMorphology radius="2.5" operator="dilate" in="SourceAlpha" result="shadowSpreadOuter1"></feMorphology>
            <feOffset dx="0" dy="0" in="shadowSpreadOuter1" result="shadowOffsetOuter1"></feOffset>
            <feGaussianBlur stdDeviation="17.5" in="shadowOffsetOuter1" result="shadowBlurOuter1"></feGaussianBlur>
            <feColorMatrix values="0 0 0 0 0   0 0 0 0 0   0 0 0 0 0  0 0 0 0.5 0" type="matrix" in="shadowBlurOuter1"></feColorMatrix>
        </filter>
    </defs>
    <g id="GG-Guernsey-Post" stroke="none" stroke-width="1" fill="none" fill-rule="evenodd">
        <g transform="translate(40, 40)">
            <g id="Rectangle">
                <use fill="black" fill-opacity="1" filter="url(#filter-3)" xlink:href="#path-2"></use>
                <use fill="url(#linearGradient-1)" fill-rule="evenodd" xlink:href="#path-2"></use>
            </g>
            <g id="Logo" transform="translate(73.9394, 49.5758)" fill-rule="nonzero">
                <g id="Group" transform="translate(-0, 0)">
                    <polygon id="Path" fill="#E11B22" points="272.155821 461.244002 134.438418 216.413063 753.073739 0"></polygon>
                    <circle id="Oval" fill="#FFCB00" cx="225.157025" cy="288.55075" r="97.2765787"></circle>
                    <path d="M-1.55323969e-13,59.0217444 L583.659472,59.0217444 L187.995186,197.832143 C109.299527,232.807992 126.787451,313.689641 166.13528,360.688438 L321.340608,268.876836 C321.340608,268.876836 360.688438,372.711386 278.713793,454.686031 C249.202921,484.196903 197.832143,508.242799 138.810399,497.312846 C78.6956592,485.289898 -1.09299527,438.291102 2.18599053,328.991575 L-1.55323969e-13,59.0217444 L-1.55323969e-13,59.0217444 Z" id="Path" fill="#034EA2"></path>
                </g>
            </g>
        </g>
    </g>
</svg>