<?xml version="1.0" encoding="UTF-8"?>
<svg width="980px" height="680px" viewBox="0 0 980 680" version="1.1" xmlns="http://www.w3.org/2000/svg" xmlns:xlink="http://www.w3.org/1999/xlink">
    <title>GR Hellenic Post text</title>
    <defs>
        <linearGradient x1="50%" y1="0%" x2="50%" y2="100%" id="linearGradient-1">
            <stop stop-color="#FFFFFF" offset="0%"></stop>
            <stop stop-color="#EDEDED" offset="100%"></stop>
        </linearGradient>
        <rect id="path-2" x="0" y="0" width="900" height="600" rx="80"></rect>
        <filter x="-6.7%" y="-10.0%" width="113.3%" height="120.0%" filterUnits="objectBoundingBox" id="filter-3">
            <feMorphology radius="2.5" operator="dilate" in="SourceAlpha" result="shadowSpreadOuter1"></feMorphology>
            <feOffset dx="0" dy="0" in="shadowSpreadOuter1" result="shadowOffsetOuter1"></feOffset>
            <feGaussianBlur stdDeviation="17.5" in="shadowOffsetOuter1" result="shadowBlurOuter1"></feGaussianBlur>
            <feColorMatrix values="0 0 0 0 0   0 0 0 0 0   0 0 0 0 0  0 0 0 0.5 0" type="matrix" in="shadowBlurOuter1"></feColorMatrix>
        </filter>
    </defs>
    <g id="GR-Hellenic-Post-text" stroke="none" stroke-width="1" fill="none" fill-rule="evenodd">
        <g transform="translate(40, 40)">
            <g id="Rectangle">
                <use fill="black" fill-opacity="1" filter="url(#filter-3)" xlink:href="#path-2"></use>
                <use fill="url(#linearGradient-1)" fill-rule="evenodd" xlink:href="#path-2"></use>
            </g>
            <g id="Logo" transform="translate(79, 50)" fill="#016FAE">
                <path d="M330.337665,46.3163212 C361.483749,46.3163212 408.567404,39.6320192 436.879759,39.6320192 C470.773237,39.6320192 501.990309,44.2845543 532.349779,67.5126955 C533.424179,68.3184953 534.239572,68.0134425 533.115289,66.5745142 C517.168125,46.0918484 485.676698,5.91888668 420.399233,5.91888668 C384.383815,5.91888668 344.235795,17.9982108 298.009741,17.9982108 C270.092612,17.9982108 233.064188,12.7394072 204.592592,0.0691631904 C203.911499,-0.241645339 203.568075,0.569910265 204.158995,1.01885592 C240.279934,29.0741221 273.987311,46.3163212 330.337665,46.3163212" id="Fill-4"></path>
                <path d="M523.422667,117.689087 C524.199689,117.433917 524.617937,116.850672 523.470632,116.57056 C505.794836,112.317088 485.928031,111.353965 463.954636,111.353965 C456.698599,111.353965 450.213829,111.547741 433.188428,111.547741 C384.809738,111.547741 332.835645,104.719546 296.624533,84.5476889 C295.653736,83.9989775 295.141477,84.8412302 295.845593,85.4340687 C332.012578,114.699953 375.431762,133.540322 429.073093,133.540322 C444.899387,133.538404 484.153353,129.935327 523.422667,117.689087" id="Fill-5"></path>
                <path d="M618.466765,102.927601 C591.815892,124.640071 570.41615,164.170311 537.808114,181.280129 C513.956437,193.745085 486.981327,197.994721 474.464568,199.514229 C472.883666,199.708005 471.636594,198.848485 474.535556,197.726121 C500.110109,187.853153 528.645018,177.185898 556.707959,130.583804 C584.602065,84.256066 598.287233,77.0345642 610.387661,69.0782495 C598.369732,58.267101 572.680064,42.7305117 525.577223,40.6392691 C524.527764,40.581712 523.654815,39.382605 525.577223,38.7149422 C530.120399,37.1781667 542.884653,36.6352111 545.981227,36.6352111 C588.091946,36.6352111 628.170897,45.9210955 656.043899,72.6007462 C662.317627,78.6173854 660.746317,80.0045123 656.792142,81.3340821 C651.55828,83.0914933 643.672953,85.6988316 633.021045,92.3735406 C644.064341,101.287222 660.320395,118.694418 669.871042,131.289838 C674.18399,136.999506 672.029434,144.416702 674.134107,149.587251 C675.91646,153.967349 701.130322,176.598815 718.951929,193.232827 C725.741753,199.589053 731.764148,205.881967 734.544157,208.767498 C739.872029,214.246937 741.101834,214.839775 741.101834,218.312389 C741.101834,226.397248 724.385323,232.446503 724.385323,239.019528 C724.385323,244.581466 730.482542,247.440137 730.482542,251.588088 C730.482542,255.392614 727.541373,260.490258 725.097113,264.413736 C729.548198,267.047934 733.563767,269.029818 733.563767,274.493909 C733.563767,279.911954 729.928075,283.079515 729.928075,288.674068 C729.928075,300.828217 739.979469,308.1821 739.979469,319.307894 C739.979469,330.464385 732.94215,340.707637 716.150816,346.198588 C696.337731,352.669928 678.656179,355.010585 662.705179,356.825553 C644.708981,358.864994 608.296419,356.60108 569.627617,398.782786 C544.695785,425.988125 515.307111,461.957498 488.527695,478.357444 C471.437063,488.825168 453.402494,497.405018 417.619223,499.99509 C416.458488,500.077588 416.247445,499.099117 417.477249,498.673194 C456.395465,485.435053 480.295106,458.824471 493.320286,445.81464 C524.048122,415.073374 549.139195,362.207145 599.121811,357.215023 C599.536223,357.176652 599.549653,356.96369 599.121811,356.885029 C576.191049,352.669928 545.179264,341.191117 530.563589,313.544506 C530.032145,312.477781 530.872479,312.232204 531.459562,312.738706 C545.250252,324.603151 567.2601,339.284057 617.979447,339.284057 C628.437579,339.284057 650.453183,337.449903 673.186333,332.922075 C700.541321,327.484844 718.224791,320.624034 718.224791,309.835908 C718.224791,303.483519 713.656673,288.84674 709.618081,278.674475 C704.142479,264.981633 699.601221,254.934076 699.601221,238.946622 C699.601221,225.712318 701.542815,222.776904 701.542815,216.852357 C701.542815,202.766207 685.612918,175.002564 661.571303,162.90981 C642.448904,165.864409 621.56142,163.053702 614.704446,161.750993 C612.586344,161.348093 612.56524,160.741824 614.063644,159.107202 C630.952826,140.497061 644.626482,135.059831 649.791276,132.834288 C643.208658,118.581223 635.906576,106.169986 628.013575,95.7041802 C625.020604,97.7781556 621.828101,100.161021 618.466765,102.927601" id="Fill-6"></path>
                <path d="M462.650007,92.8800434 C488.527695,92.8800434 526.022331,94.1290333 555.81966,108.171056 C556.57174,108.525991 557.252833,107.858329 556.696447,106.948926 C531.693628,66.3749828 476.452208,58.3093096 450.069936,58.3093096 C393.600631,58.3093096 371.771128,62.5052247 345.835883,62.5052247 C298.059624,62.5052247 260.098775,50.1745678 234.224924,31.4934403 C233.637841,31.079029 233.027735,31.7869817 233.584121,32.3337745 C289.596806,89.2501068 364.484395,93.2791062 416.730925,93.2791062 C428.382407,93.2791062 452.813493,92.8800434 462.650007,92.8800434" id="Fill-7"></path>
                <path d="M4.08968042e-14,334.942331 L4.08968042e-14,211.722097 L75.7624568,211.722097 L75.7624568,235.502787 L29.1891417,235.502787 L29.1891417,269.914279 L74.5998027,269.914279 L74.5998027,293.696888 L29.1891417,293.696888 L29.1891417,333.265499 L76.1308225,333.265499 L76.1308225,357.021248 L22.0981027,357.053863 C9.89023437,357.04427 4.08968042e-14,347.140606 4.08968042e-14,334.942331" id="Fill-8"></path>
                <path d="M274.958108,235.500868 L274.958108,357.048108 L245.179965,357.048108 L245.179965,235.500868 L207.282429,235.500868 L207.282429,226.638988 C207.282429,218.410236 213.957138,211.729772 222.206994,211.729772 L310.618591,211.729772 L310.618591,235.500868 L274.958108,235.500868" id="Fill-9"></path>
                <path d="M183.641795,338.691219 L152.065951,245.600227 L114.10702,357.032759 L89.3344293,357.032759 L139.568378,213.15527 C141.458171,212.395516 146.73616,211.733609 149.715701,211.733609 C159.786281,211.733609 171.405148,213.312593 178.618976,233.637936 L222.316353,357.048108 L211.748863,357.048108 C202.445711,357.04427 189.169199,354.953028 183.641795,338.691219" id="Fill-10"></path>
                <path d="M342.071646,300.172065 L379.19408,300.172065 L360.687542,245.600227 L342.071646,300.172065 Z M386.574823,321.920988 L334.671717,321.920988 L322.719019,357.032759 L297.946428,357.032759 L348.184214,213.15527 C350.062495,212.395516 355.353915,211.733609 358.331537,211.733609 C368.93548,211.733609 380.024821,213.312593 387.23673,233.637936 L430.934107,357.048108 L420.360861,357.048108 C411.053873,357.048108 397.781197,354.954946 392.261468,338.698893 L386.574823,321.920988 L386.574823,321.920988 Z" id="Fill-11"></path>
                <path d="M50.3087732,431.810989 C51.0032959,437.064037 54.8903211,439.159116 58.1710778,439.159116 C61.5074731,439.159116 63.8327813,438.270818 65.8990825,436.877935 L68.3414236,442.399583 C64.9743312,444.308561 61.4115445,445.091338 57.3192322,445.091338 C47.8031192,445.091338 41.7711315,438.836796 41.7711315,430.074682 C41.7711315,421.258847 48.1004977,415.006224 56.8626123,415.006224 C66.2194839,415.006224 71.4437531,421.143733 71.4437531,429.949975 C71.4437531,430.540895 71.4437531,431.29873 71.3209646,431.816745 L50.3087732,431.810989 Z M50.4507474,426.667299 L63.6006342,426.667299 C63.01547,423.02777 60.9280646,420.827169 57.1695837,420.827169 C54.335854,420.827169 51.2872445,422.523186 50.4507474,426.667299 L50.4507474,426.667299 Z" id="Fill-12"></path>
                <path d="M288.948329,437.954254 C284.687183,437.954254 281.417937,434.420246 281.417937,430.0766 C281.417937,425.663887 284.689101,422.122204 288.948329,422.122204 C293.224824,422.122204 296.503663,425.663887 296.503663,430.0766 C296.505581,434.420246 293.226743,437.954254 288.948329,437.954254 Z M288.948329,415.002387 C280.391502,415.002387 273.42517,421.260766 273.42517,430.070845 C273.42517,438.888598 280.391502,445.087501 288.948329,445.087501 C297.520505,445.087501 304.490674,438.888598 304.490674,430.070845 C304.486837,421.258847 297.518587,415.002387 288.948329,415.002387 L288.948329,415.002387 Z" id="Fill-13"></path>
                <path d="M255.854895,400.632289 C260.148658,400.632289 264.037601,401.603086 266.806099,403.742293 L267.069554,403.940443 C269.934351,406.156393 271.69665,409.568824 271.700375,414.05845 C271.700375,418.929702 269.956393,422.461791 267.047839,424.737217 C264.323468,426.941655 260.365456,428.039078 255.676468,428.039078 L251.561133,428.039078 L251.561133,444.227981 L242.630184,444.227981 L242.630184,400.632289 Z M254.059113,407.895999 L251.56497,407.895999 L251.56497,420.63723 L253.905627,420.63723 C256.380584,420.63723 258.222412,420.443455 259.968312,419.158012 C261.464797,418.121984 262.34734,416.337712 262.34734,414.054613 C262.34734,411.982556 261.253754,410.121542 259.718898,409.066328 C258.068926,408.049485 256.131169,407.895999 254.059113,407.895999 Z" id="Combined-Shape"></path>
                <path d="M-4.77129382e-14,405.052677 C-4.77129382e-14,402.610336 1.99531401,400.63037 4.43957368,400.63037 L8.92903022,400.63037 L8.92903022,417.594376 L26.7161035,417.594376 L26.7161035,405.052677 C26.7161035,402.610336 28.7037432,400.63037 31.1633515,400.63037 L35.6451337,400.63037 L35.6451337,444.226063 L26.7161035,444.226063 L26.7161035,424.904133 L8.92903022,424.904133 L8.92903022,444.226063 L-4.77129382e-14,444.226063 L-4.77129382e-14,405.052677" id="Fill-16"></path>
                <path d="M81.805956,396.344282 L85.6450169,396.344282 L85.6450169,444.226063 L77.3414409,444.226063 L77.3414409,400.7781 C77.3414409,398.310818 79.3482664,396.344282 81.805956,396.344282" id="Fill-17"></path>
                <path d="M98.7987409,396.344282 L102.647395,396.344282 L102.647395,444.226063 L94.3610857,444.226063 L94.3610857,400.7781 C94.3610857,398.310818 96.3429698,396.344282 98.7987409,396.344282" id="Fill-18"></path>
                <path d="M161.347998,415.002387 C157.950209,415.002387 154.79224,416.205331 152.706754,419.518703 L152.653034,419.518703 L152.653034,415.848477 L144.360969,415.848477 L144.360969,444.224144 L152.653034,444.224144 L152.653034,429.719746 C152.653034,425.308951 154.694393,422.045462 158.752171,422.045462 C162.852158,422.045462 164.133763,424.863843 164.133763,428.977259 L164.133763,444.218389 L172.429665,444.218389 L172.429665,427.173802 C172.425828,419.733583 168.726823,415.002387 161.347998,415.002387" id="Fill-19"></path>
                <path d="M204.228064,430.074682 C204.228064,425.314707 207.819629,421.502506 212.568093,421.502506 C214.653579,421.502506 216.986562,421.726979 219.82221,423.451774 L219.82221,416.496954 C216.744822,415.144361 214.106787,415.006224 211.478344,415.006224 C202.603034,415.006224 195.546529,421.13414 195.546529,430.074682 C195.546529,438.892435 202.601115,445.091338 211.478344,445.091338 C214.313992,445.091338 217.600505,444.59251 219.94308,443.468227 L219.94308,436.570964 C217.650388,438.050182 215.129385,438.568196 212.566174,438.568196 C207.819629,438.572034 204.228064,434.757914 204.228064,430.074682" id="Fill-20"></path>
                <path d="M323.787663,426.364165 C321.809616,425.773245 318.463628,425.420228 318.463628,422.995154 C318.463628,421.260766 320.669985,420.451129 322.151122,420.451129 C323.323369,420.451129 324.405443,420.6238 325.662107,421.109199 C326.42378,421.410414 328.421013,421.930347 329.382217,419.818 L330.648474,417.026479 C328.098693,415.246045 324.766134,414.530418 321.773163,414.530418 C316.005938,414.530418 310.277085,417.538738 310.277085,423.812466 C310.277085,428.789239 313.836034,430.642579 317.020863,431.576923 C320.207609,432.495919 323.444239,433.083001 323.444239,435.769001 C323.444239,437.679898 321.358752,438.694822 319.436344,438.694822 C317.957125,438.694822 316.03088,438.414711 314.167947,437.361415 C313.187557,436.806948 311.121256,436.327305 309.835814,438.464594 L308.111018,441.330939 C311.829209,444.247167 315.683619,445.091338 319.284777,445.091338 C325.641003,445.091338 331.795779,441.837442 331.795779,434.953608 C331.790023,429.784978 328.071833,427.455832 323.787663,426.364165" id="Fill-21"></path>
                <path d="M343.800279,406.293992 L347.63934,406.293992 L347.63934,415.846558 L352.978723,415.846558 L352.978723,422.690101 L347.63934,422.690101 L347.63934,444.222226 L339.35495,444.222226 L339.35495,422.690101 L335.763384,422.690101 L335.763384,415.846558 L339.35495,415.846558 L339.35495,410.731647 C339.35495,408.295062 341.340671,406.293992 343.800279,406.293992" id="Fill-22"></path>
                <path d="M185.550773,415.850395 L189.416694,415.850395 L189.416694,444.226063 L181.118868,444.226063 L181.118868,420.303399 C181.115037,417.853384 183.093084,415.850395 185.550773,415.850395" id="Fill-23"></path>
                <path d="M117.299523,431.810989 C118.009394,437.064037 121.896419,439.159116 125.15799,439.159116 C128.507815,439.159116 130.836961,438.270818 132.922448,436.877935 L135.355196,442.399583 C131.961243,444.308561 128.404213,445.091338 124.304226,445.091338 C114.790032,445.091338 108.784904,438.836796 108.784904,430.074682 C108.784904,421.258847 115.102759,415.006224 123.85528,415.006224 C133.212152,415.006224 138.43834,421.143733 138.43834,429.949975 C138.43834,430.540895 138.43834,431.29873 138.336655,431.816745 L117.299523,431.810989 Z M117.447253,426.667299 L130.606732,426.667299 C130.015812,423.02777 127.916895,420.827169 124.171845,420.827169 C121.341952,420.827169 118.277994,422.523186 117.447253,426.667299 L117.447253,426.667299 Z" id="Fill-24"></path>
                <path d="M190.381736,405.710747 C190.381736,408.110879 188.457409,410.060147 186.066869,410.060147 C183.684004,410.060147 181.759677,408.110879 181.759677,405.710747 C181.759677,403.333637 183.684004,401.392043 186.066869,401.392043 C188.457409,401.392043 190.381736,403.333637 190.381736,405.710747" id="Fill-25"></path>
            </g>
        </g>
    </g>
</svg>