<?xml version="1.0" encoding="UTF-8"?>
<svg width="980px" height="680px" viewBox="0 0 980 680" version="1.1" xmlns="http://www.w3.org/2000/svg" xmlns:xlink="http://www.w3.org/1999/xlink">
    <title>GR Hellenic Post</title>
    <defs>
        <linearGradient x1="50%" y1="0%" x2="50%" y2="100%" id="linearGradient-1">
            <stop stop-color="#FFFFFF" offset="0%"></stop>
            <stop stop-color="#EDEDED" offset="100%"></stop>
        </linearGradient>
        <rect id="path-2" x="0" y="0" width="900" height="600" rx="80"></rect>
        <filter x="-6.7%" y="-10.0%" width="113.3%" height="120.0%" filterUnits="objectBoundingBox" id="filter-3">
            <feMorphology radius="2.5" operator="dilate" in="SourceAlpha" result="shadowSpreadOuter1"></feMorphology>
            <feOffset dx="0" dy="0" in="shadowSpreadOuter1" result="shadowOffsetOuter1"></feOffset>
            <feGaussianBlur stdDeviation="17.5" in="shadowOffsetOuter1" result="shadowBlurOuter1"></feGaussianBlur>
            <feColorMatrix values="0 0 0 0 0   0 0 0 0 0   0 0 0 0 0  0 0 0 0.5 0" type="matrix" in="shadowBlurOuter1"></feColorMatrix>
        </filter>
    </defs>
    <g id="GR-Hellenic-Post" stroke="none" stroke-width="1" fill="none" fill-rule="evenodd">
        <g transform="translate(40, 40)">
            <g id="Rectangle">
                <use fill="black" fill-opacity="1" filter="url(#filter-3)" xlink:href="#path-2"></use>
                <use fill="url(#linearGradient-1)" fill-rule="evenodd" xlink:href="#path-2"></use>
            </g>
            <g id="Logo" transform="translate(181.8562, 50)" fill="#016FAE">
                <path d="M126.48145,46.3163212 C157.627534,46.3163212 204.711189,39.6320192 233.023544,39.6320192 C266.917022,39.6320192 298.134094,44.2845543 328.493564,67.5126955 C329.567964,68.3184953 330.383356,68.0134425 329.259074,66.5745142 C313.31191,46.0918484 281.820483,5.91888668 216.543018,5.91888668 C180.5276,5.91888668 140.379579,17.9982108 94.1535257,17.9982108 C66.2363966,17.9982108 29.2079731,12.7394072 0.736376977,0.0691631904 C0.0552842121,-0.241645339 -0.288140027,0.569910265 0.302779893,1.01885592 C36.4237193,29.0741221 70.1310961,46.3163212 126.48145,46.3163212" id="Fill-4"></path>
                <path d="M319.566452,117.689087 C320.343474,117.433917 320.761722,116.850672 319.614416,116.57056 C301.93862,112.317088 282.071816,111.353965 260.09842,111.353965 C252.842384,111.353965 246.357614,111.547741 229.332213,111.547741 C180.953522,111.547741 128.97943,104.719546 92.7683173,84.5476889 C91.7975203,83.9989775 91.2852618,84.8412302 91.9893774,85.4340687 C128.156363,114.699953 171.575547,133.540322 225.216878,133.540322 C241.043171,133.538404 280.297138,129.935327 319.566452,117.689087" id="Fill-5"></path>
                <path d="M414.610549,102.927601 C387.959677,124.640071 366.559934,164.170311 333.951899,181.280129 C310.100222,193.745085 283.125111,197.994721 270.608353,199.514229 C269.027451,199.708005 267.780379,198.848485 270.67934,197.726121 C296.253894,187.853153 324.788803,177.185898 352.851743,130.583804 C380.74585,84.256066 394.431018,77.0345642 406.531446,69.0782495 C394.513516,58.267101 368.823848,42.7305117 321.721008,40.6392691 C320.671549,40.581712 319.798599,39.382605 321.721008,38.7149422 C326.264184,37.1781667 339.028438,36.6352111 342.125012,36.6352111 C384.235731,36.6352111 424.314682,45.9210955 452.187684,72.6007462 C458.461412,78.6173854 456.890102,80.0045123 452.935927,81.3340821 C447.702065,83.0914933 439.816737,85.6988316 429.16483,92.3735406 C440.208126,101.287222 456.464179,118.694418 466.014827,131.289838 C470.327775,136.999506 468.173219,144.416702 470.277892,149.587251 C472.060244,153.967349 497.274107,176.598815 515.095714,193.232827 C521.885538,199.589053 527.907932,205.881967 530.687942,208.767498 C536.015814,214.246937 537.245618,214.839775 537.245618,218.312389 C537.245618,226.397248 520.529108,232.446503 520.529108,239.019528 C520.529108,244.581466 526.626327,247.440137 526.626327,251.588088 C526.626327,255.392614 523.685157,260.490258 521.240898,264.413736 C525.691983,267.047934 529.707552,269.029818 529.707552,274.493909 C529.707552,279.911954 526.07186,283.079515 526.07186,288.674068 C526.07186,300.828217 536.123254,308.1821 536.123254,319.307894 C536.123254,330.464385 529.085935,340.707637 512.2946,346.198588 C492.481516,352.669928 474.799964,355.010585 458.848963,356.825553 C440.852766,358.864994 404.440204,356.60108 365.771402,398.782786 C340.839569,425.988125 311.450896,461.957498 284.67148,478.357444 C267.580848,488.825168 249.546279,497.405018 213.763008,499.99509 C212.602272,500.077588 212.39123,499.099117 213.621034,498.673194 C252.53925,485.435053 276.438891,458.824471 289.464071,445.81464 C320.191906,415.073374 345.28298,362.207145 395.265596,357.215023 C395.680008,357.176652 395.693438,356.96369 395.265596,356.885029 C372.334834,352.669928 341.323049,341.191117 326.707374,313.544506 C326.17593,312.477781 327.016264,312.232204 327.603347,312.738706 C341.394036,324.603151 363.403885,339.284057 414.123232,339.284057 C424.581364,339.284057 446.596968,337.449903 469.330118,332.922075 C496.685105,327.484844 514.368576,320.624034 514.368576,309.835908 C514.368576,303.483519 509.800458,288.84674 505.761865,278.674475 C500.286263,264.981633 495.745005,254.934076 495.745005,238.946622 C495.745005,225.712318 497.686599,222.776904 497.686599,216.852357 C497.686599,202.766207 481.756703,175.002564 457.715088,162.90981 C438.592689,165.864409 417.705205,163.053702 410.848231,161.750993 C408.730129,161.348093 408.709024,160.741824 410.207428,159.107202 C427.09661,140.497061 440.770267,135.059831 445.935061,132.834288 C439.352443,118.581223 432.050361,106.169986 424.157359,95.7041802 C421.164388,97.7781556 417.971886,100.161021 414.610549,102.927601" id="Fill-6"></path>
                <path d="M258.793792,92.8800434 C284.67148,92.8800434 322.166116,94.1290333 351.963445,108.171056 C352.715525,108.525991 353.396618,107.858329 352.840232,106.948926 C327.837413,66.3749828 272.595993,58.3093096 246.213721,58.3093096 C189.744416,58.3093096 167.914913,62.5052247 141.979668,62.5052247 C94.2034086,62.5052247 56.2425594,50.1745678 30.3687087,31.4934403 C29.7816259,31.079029 29.1715203,31.7869817 29.7279059,32.3337745 C85.7405911,89.2501068 160.62818,93.2791062 212.87471,93.2791062 C224.526192,93.2791062 248.957278,92.8800434 258.793792,92.8800434" id="Fill-7"></path>
            </g>
        </g>
    </g>
</svg>