<?xml version="1.0" encoding="UTF-8"?>
<svg width="980px" height="680px" viewBox="0 0 980 680" version="1.1" xmlns="http://www.w3.org/2000/svg" xmlns:xlink="http://www.w3.org/1999/xlink">
    <title>HK Hong Kong Post text</title>
    <defs>
        <linearGradient x1="50%" y1="0%" x2="50%" y2="100%" id="linearGradient-1">
            <stop stop-color="#FFFFFF" offset="0%"></stop>
            <stop stop-color="#EDEDED" offset="100%"></stop>
        </linearGradient>
        <rect id="path-2" x="0" y="0" width="900" height="600" rx="80"></rect>
        <filter x="-6.7%" y="-10.0%" width="113.3%" height="120.0%" filterUnits="objectBoundingBox" id="filter-3">
            <feMorphology radius="2.5" operator="dilate" in="SourceAlpha" result="shadowSpreadOuter1"></feMorphology>
            <feOffset dx="0" dy="0" in="shadowSpreadOuter1" result="shadowOffsetOuter1"></feOffset>
            <feGaussianBlur stdDeviation="17.5" in="shadowOffsetOuter1" result="shadowBlurOuter1"></feGaussianBlur>
            <feColorMatrix values="0 0 0 0 0   0 0 0 0 0   0 0 0 0 0  0 0 0 0.5 0" type="matrix" in="shadowBlurOuter1"></feColorMatrix>
        </filter>
    </defs>
    <g id="HK-Hong-Kong-Post-text" stroke="none" stroke-width="1" fill="none" fill-rule="evenodd">
        <g transform="translate(40, 40)">
            <g id="Rectangle">
                <use fill="black" fill-opacity="1" filter="url(#filter-3)" xlink:href="#path-2"></use>
                <use fill="url(#linearGradient-1)" fill-rule="evenodd" xlink:href="#path-2"></use>
            </g>
            <g id="Logo" transform="translate(50, 152)" fill-rule="nonzero">
                <path d="M105.615733,77.8569169 C181.099999,-55.0214741 38.4024386,16.8444429 1.68735123,42.6980572 C-1.40904387,44.2446487 0.139153683,45.7944523 3.24357885,42.6980572 C122.673208,-21.417236 118.020585,31.8333721 105.615733,76.2974772 C104.067535,77.8569169 105.615733,77.8569169 105.615733,77.8569169" id="Path" fill="#282F75"></path>
                <path d="M189.892926,240.202454 C192.990928,245.892562 197.64355,258.295808 197.64355,261.393809 L199.201384,261.393809 C199.201384,259.844006 197.64355,245.892562 196.095353,240.202454 C186.788501,195.736743 160.936493,174.018614 118.018979,145.068605 C75.1111018,113.015777 65.8026444,59.7555325 64.2528408,48.8988774 L62.6966132,48.8988774 C61.1484156,60.7914115 47.70929,123.872432 92.1669711,154.375457 C135.084485,184.881694 173.349376,201.940775 189.892926,240.202454" id="Path" fill="#282F75"></path>
                <path d="M151.629642,134.205526 C150.081444,134.205526 150.081444,135.761754 151.629642,135.761754 C167.138919,137.309951 220.911482,133.179283 251.417719,106.806926 C283.472153,80.953312 312.942511,60.7914115 345.00337,58.2057289 C346.551567,58.2057289 348.099765,56.6511073 345.00337,56.6511073 C340.350747,56.6511073 345.00337,55.1013037 337.244716,56.6511073 C306.740085,58.2057289 274.163696,70.098263 246.76349,96.4625897 C217.807057,122.314598 162.484691,133.179283 151.629642,134.205526" id="Path" fill="#00946F"></path>
                <path d="M133.536287,113.015777 C131.98006,113.015777 130.430256,114.563974 133.536287,114.563974 C148.52361,116.110566 202.297779,113.015777 232.80241,87.1637683 C263.828995,59.7555325 294.327202,39.59042 326.389667,36.4859948 C327.937865,36.4859948 329.486062,34.9361912 326.389667,34.9361912 C321.735438,34.9361912 324.833439,34.9361912 318.629407,34.9361912 C286.576579,38.0438284 256.070342,48.8972714 226.599984,74.7508857 C199.201384,102.152698 143.870988,111.459549 133.536287,113.015777" id="Path" fill="#00946F"></path>
                <path d="M113.366357,93.3645886 C111.816553,93.3645886 111.816553,94.9143922 113.366357,94.9143922 C128.883664,96.4641957 183.684076,91.809967 213.154434,65.4456403 C245.216899,39.59042 275.72153,19.94405 308.288283,16.8444429 C308.288283,15.2898213 311.394314,15.2898213 306.740085,15.2898213 C303.634054,15.2898213 306.740085,13.7416237 298.979825,15.2898213 C268.475194,16.8444429 237.455033,28.738583 208.500205,55.1029097 C179.551802,80.953312 124.229436,91.809967 113.366357,93.3645886" id="Path" fill="#00946F"></path>
                <path d="M380.16223,197.286546 C378.606002,195.738349 378.606002,195.738349 378.606002,195.738349 C377.057804,198.833138 372.405182,201.940775 370.855378,201.940775 C369.299151,201.940775 367.750953,201.940775 367.750953,200.390971 C367.750953,198.833138 369.299151,197.286546 369.299151,195.738349 C377.05941,174.018614 377.05941,174.018614 377.05941,174.018614 C378.607608,174.018614 378.607608,171.432932 378.607608,169.88634 C378.607608,168.336537 377.05941,166.778703 373.954985,166.778703 C366.204361,166.778703 354.315039,177.121434 349.660811,184.880088 C355.863237,166.778703 355.863237,166.778703 355.863237,166.778703 C341.902157,166.778703 341.902157,166.778703 341.902157,166.778703 C341.902157,168.336537 341.902157,168.336537 341.902157,168.336537 C343.45196,168.336537 343.45196,168.336537 343.45196,168.336537 C346.556385,168.336537 348.102977,168.336537 346.556385,172.468811 C335.701336,209.185504 335.701336,209.185504 335.701336,209.185504 C341.902157,209.185504 341.902157,209.185504 341.902157,209.185504 C345.008188,201.940775 345.008188,201.940775 345.008188,201.940775 C348.104583,191.08412 349.662417,187.979695 354.316645,183.325466 C357.413041,180.225859 361.551739,174.018614 367.755771,174.018614 C369.303969,174.018614 369.303969,174.018614 369.303969,175.573236 C369.303969,177.12304 369.303969,180.225859 367.755771,180.225859 C361.553345,200.390971 361.553345,200.390971 361.553345,200.390971 C359.997117,203.495396 359.997117,205.043594 359.997117,206.593398 C359.997117,208.139989 361.553345,209.183898 363.103148,209.183898 C369.305575,209.183898 373.959803,205.043594 377.064229,201.939169" id="Path" fill="#282F75"></path>
                <path d="M278.817925,201.940775 C294.325596,151.271031 294.325596,151.271031 294.325596,151.271031 C295.88343,145.068605 297.431628,145.068605 300.536053,145.068605 C302.085856,145.068605 302.085856,145.068605 302.085856,145.068605 C303.634054,143.510771 303.634054,143.510771 303.634054,143.510771 C280.374152,143.510771 280.374152,143.510771 280.374152,143.510771 C280.374152,145.068605 280.374152,145.068605 280.374152,145.068605 C281.923956,145.068605 281.923956,145.068605 281.923956,145.068605 C285.028381,145.068605 286.576579,145.068605 285.028381,151.271031 C278.819531,174.018614 278.819531,174.018614 278.819531,174.018614 C246.765096,174.018614 246.765096,174.018614 246.765096,174.018614 C254.525356,151.271031 254.525356,151.271031 254.525356,151.271031 C256.073554,145.068605 257.621751,145.068605 260.727782,145.068605 C262.274374,145.068605 262.274374,145.068605 262.274374,145.068605 C263.830601,143.510771 263.830601,143.510771 263.830601,143.510771 C240.564276,143.510771 240.564276,143.510771 240.564276,143.510771 C240.564276,145.068605 240.564276,145.068605 240.564276,145.068605 C242.112473,145.068605 242.112473,145.068605 242.112473,145.068605 C245.218505,145.068605 246.765096,145.068605 245.218505,151.271031 C229.701197,201.940775 229.701197,201.940775 229.701197,201.940775 C228.151393,208.139989 226.603196,208.139989 224.020725,208.139989 C222.464497,208.139989 222.464497,208.139989 222.464497,208.139989 C222.464497,209.183898 222.464497,209.183898 222.464497,209.183898 C243.662277,209.183898 243.662277,209.183898 243.662277,209.183898 C243.662277,208.139989 243.662277,208.139989 243.662277,208.139989 C242.114079,208.139989 242.114079,208.139989 242.114079,208.139989 C239.009654,208.139989 237.459851,208.139989 239.009654,201.940775 C246.768308,177.12304 246.768308,177.12304 246.768308,177.12304 C277.274545,177.12304 277.274545,177.12304 277.274545,177.12304 C269.514285,201.940775 269.514285,201.940775 269.514285,201.940775 C268.480012,208.139989 266.931815,208.139989 263.833814,208.139989 C262.277586,208.139989 262.277586,208.139989 262.277586,208.139989 C260.730994,209.183898 260.730994,209.183898 260.730994,209.183898 C283.476971,209.183898 283.476971,209.183898 283.476971,209.183898 C283.476971,208.139989 283.476971,208.139989 283.476971,208.139989 C281.928774,208.139989 281.928774,208.139989 281.928774,208.139989 C278.817925,208.139989 277.271333,208.139989 278.817925,201.940775" id="Path" fill="#282F75"></path>
                <path d="M327.937865,181.775662 C326.389667,191.082514 320.187241,208.139989 308.297919,208.139989 C298.981431,208.139989 297.433234,201.940775 297.433234,194.186939 C298.981431,183.32386 305.191887,168.334931 317.082816,168.334931 C326.389667,168.336537 327.937865,174.026645 327.937865,181.775662 M317.082816,165.233718 C303.63566,165.233718 291.230807,177.12304 289.68261,191.08412 C289.68261,203.495396 295.885036,210.735308 308.297919,210.735308 C321.737044,210.735308 334.148321,198.842774 334.148321,184.881694 C335.696518,174.026645 329.486062,165.233718 317.082816,165.233718 Z" id="Shape" fill="#282F75"></path>
                <path d="M441.687022,181.775662 C441.687022,181.775662 455.126148,172.468811 456.685587,171.432932 C459.780376,169.88634 459.780376,168.336537 464.432999,168.336537 C464.432999,166.778703 464.432999,166.778703 464.432999,166.778703 C447.37713,166.778703 447.37713,166.778703 447.37713,166.778703 C447.37713,168.336537 447.37713,168.336537 447.37713,168.336537 C448.925327,168.336537 450.473525,168.336537 450.473525,168.336537 C450.473525,168.336537 453.579556,168.336537 452.031359,171.432932 C450.473525,172.468811 440.140431,180.227465 432.381777,186.429891 C444.794659,143.510771 444.794659,143.510771 444.794659,143.510771 C432.381777,143.510771 432.381777,143.510771 432.381777,143.510771 C430.833579,145.068605 430.833579,145.068605 430.833579,145.068605 C433.93158,145.068605 433.93158,145.068605 433.93158,145.068605 C435.487808,145.068605 438.584203,145.068605 437.036005,151.271031 C418.420696,209.185504 418.420696,209.185504 418.420696,209.185504 C426.180956,209.185504 426.180956,209.185504 426.180956,209.185504 C430.833579,191.08412 430.833579,191.08412 430.833579,191.08412 C435.486202,187.979695 435.486202,187.979695 435.486202,187.979695 C435.486202,187.979695 438.584203,195.738349 441.687022,200.392577 C445.819296,209.18711 455.126148,209.18711 456.685587,209.18711 C459.780376,209.18711 459.780376,209.18711 459.780376,209.18711 C459.780376,208.143201 459.780376,208.143201 459.780376,208.143201 C450.471919,206.595004 450.471919,203.495396 441.687022,181.775662" id="Path" fill="#282F75"></path>
                <path d="M398.777539,192.641953 C392.567082,192.641953 391.020491,189.534316 391.020491,184.880088 C391.020491,178.671237 395.671507,168.336537 402.909813,168.336537 C407.564041,168.336537 409.113845,172.468811 409.113845,177.12304 C409.112239,183.325466 404.45801,192.641953 398.777539,192.641953 M392.567082,208.139989 C406.015844,213.830097 406.015844,213.830097 406.015844,213.830097 C409.113845,215.3799 410.668467,216.926492 410.668467,218.49075 C410.668467,224.6996 400.325736,227.799207 395.671507,227.799207 C384.816458,227.799207 380.16223,224.6996 380.16223,218.49075 C380.16223,212.281899 391.020491,209.185504 392.567082,208.139989 Z M424.629547,169.88634 C413.764862,169.88634 413.764862,169.88634 413.764862,169.88634 C412.215058,169.88634 412.215058,169.88634 412.215058,169.88634 C407.562435,166.788339 407.562435,166.788339 401.360009,166.788339 C392.565476,166.788339 383.258625,172.468811 383.258625,181.777268 C383.258625,187.979695 386.364656,191.08412 391.018885,194.190151 C389.459445,195.739955 383.258625,198.842774 383.258625,201.942381 C383.258625,205.046806 387.912853,206.595004 389.459445,206.595004 C383.258625,209.185504 377.056198,212.281899 377.056198,220.042159 C377.056198,229.350617 387.911247,229.350617 394.113674,230.897208 C402.908207,230.897208 416.867681,226.25101 416.867681,216.928098 C418.415878,209.18711 412.215058,206.595004 406.012632,205.046806 C400.322524,203.497002 392.56387,200.394183 392.56387,200.394183 L391.017279,198.84438 C391.017279,197.289758 392.56387,195.739955 394.112068,194.191757 C395.668295,195.741561 397.218099,195.741561 398.774327,195.741561 C407.560829,195.741561 416.867681,189.537528 416.867681,178.676055 C416.867681,177.126252 416.867681,174.029857 415.311453,172.472023 C423.070107,172.472023 423.070107,172.472023 423.070107,172.472023 L424.629547,169.88634 Z" id="Shape" fill="#282F75"></path>
                <path d="M567.336744,192.641953 C562.674485,192.641953 561.126287,189.534316 561.126287,184.880088 C561.126287,178.671237 565.78694,168.336537 573.529534,168.336537 C577.669838,168.336537 579.219642,172.468811 579.219642,177.12304 C579.218036,183.325466 575.077731,192.641953 567.336744,192.641953 M562.672879,208.139989 C576.625929,213.830097 576.625929,213.830097 576.625929,213.830097 C579.218036,215.3799 580.766233,216.926492 580.766233,218.49075 C580.766233,224.6996 568.883335,227.799207 564.221076,227.799207 C554.912619,227.799207 550.268026,224.6996 550.268026,218.49075 C550.269632,213.830097 559.558818,209.185504 562.672879,208.139989 Z M593.187146,169.88634 C583.864234,169.88634 583.864234,169.88634 583.864234,169.88634 C582.314431,169.88634 582.314431,169.88634 582.314431,169.88634 C577.668232,168.336537 576.625929,166.788339 571.97973,166.788339 C562.672879,166.788339 553.364421,172.468811 553.364421,181.777268 C553.364421,187.979695 556.462423,191.08412 561.124681,194.190151 C559.557212,195.739955 553.364421,198.842774 553.364421,201.942381 C553.364421,205.046806 558.01062,206.595004 559.557212,206.595004 C553.364421,209.185504 545.605768,212.281899 545.605768,220.042159 C545.605768,229.350617 556.460817,230.897208 564.21947,230.897208 C573.526322,230.897208 586.973478,227.800813 586.973478,216.928098 C588.523281,209.18711 580.764627,206.595004 576.624323,205.046806 C570.429927,203.497002 562.671273,200.394183 562.671273,200.394183 C561.123075,200.394183 561.123075,198.84438 561.123075,198.84438 C561.123075,197.289758 562.671273,195.739955 564.21947,195.739955 C565.785334,195.739955 567.333532,195.739955 567.333532,195.739955 C576.622717,195.739955 586.973478,189.535922 586.973478,178.674449 C586.973478,177.124646 585.407614,174.028251 583.861022,172.470417 C593.183934,172.470417 593.183934,172.470417 593.183934,172.470417 L593.183934,169.88634 L593.187146,169.88634 Z" id="Shape" fill="#282F75"></path>
                <path d="M550.269632,197.286546 C548.719829,195.738349 548.719829,195.738349 548.719829,195.738349 C547.173237,198.833138 542.510978,201.940775 539.395311,201.940775 C539.395311,201.940775 537.847114,201.940775 537.847114,200.390971 C537.847114,198.833138 539.395311,197.286546 539.395311,195.738349 C547.173237,175.573236 547.173237,175.573236 547.173237,175.573236 C547.173237,174.018614 548.719829,172.468811 548.719829,171.432932 C548.719829,168.336537 547.173237,166.780309 544.059176,166.780309 C536.300522,166.780309 524.41923,178.672843 519.755365,184.881694 C524.417624,166.780309 524.417624,166.780309 524.417624,166.780309 C511.996711,166.780309 511.996711,166.780309 511.996711,166.780309 C510.448514,168.338143 510.448514,168.338143 510.448514,168.338143 C513.544909,168.338143 513.544909,168.338143 513.544909,168.338143 C515.094713,168.338143 518.207168,168.338143 516.65897,174.02022 C505.802315,209.18711 505.802315,209.18711 505.802315,209.18711 C511.995105,209.18711 511.995105,209.18711 511.995105,209.18711 C515.093107,201.942381 515.093107,201.942381 515.093107,201.942381 C518.205562,191.085726 519.753759,187.981301 524.417624,183.327072 C527.514019,180.227465 532.160218,174.02022 537.847114,174.02022 C537.847114,174.02022 539.395311,174.02022 539.395311,175.574842 C539.395311,177.124646 537.847114,180.227465 537.847114,180.227465 C532.160218,200.392577 532.160218,200.392577 532.160218,200.392577 C530.610414,203.497002 530.610414,205.0452 530.610414,206.595004 C530.610414,208.141595 530.610414,209.185504 533.200915,209.185504 C537.847114,209.185504 542.509372,205.0452 545.607374,201.940775" id="Path" fill="#282F75"></path>
                <path d="M496.495464,181.775662 C496.495464,191.082514 490.285007,208.139989 478.394079,208.139989 C469.087228,208.139989 467.53903,201.940775 467.53903,194.186939 C469.087228,183.32386 475.296078,168.334931 487.700931,168.334931 C494.939236,168.336537 498.042055,174.026645 496.495464,181.775662 M487.700931,165.233718 C473.741457,165.233718 461.336604,177.12304 459.77877,191.08412 C459.77877,203.495396 465.989227,210.735308 478.394079,210.735308 C490.285007,210.735308 504.247694,198.842774 504.247694,184.881694 C505.802315,174.026645 498.042055,165.233718 487.700931,165.233718 Z" id="Shape" fill="#282F75"></path>
                <path d="M634.540402,175.573236 C625.231944,175.573236 625.231944,175.573236 625.231944,175.573236 C625.231944,155.92526 625.231944,155.92526 625.231944,155.92526 C636.088599,155.92526 636.088599,155.92526 636.088599,155.92526 C640.750858,155.92526 648.493452,155.92526 648.493452,165.232112 C648.491846,175.573236 640.750858,175.573236 634.540402,175.573236 M634.540402,143.510771 C608.688394,143.510771 608.688394,143.510771 608.688394,143.510771 C608.688394,209.185504 608.688394,209.185504 608.688394,209.185504 C625.231944,209.185504 625.231944,209.185504 625.231944,209.185504 C625.231944,187.979695 625.231944,187.979695 625.231944,187.979695 C636.088599,187.979695 636.088599,187.979695 636.088599,187.979695 C645.397057,187.979695 657.816364,187.979695 662.462562,175.573236 C664.01076,172.468811 665.054669,169.88634 665.054669,165.233718 C665.054669,160.581095 664.01076,155.926866 660.914365,152.819229 C654.700696,143.510771 645.395451,143.510771 634.540402,143.510771 Z" id="Shape" fill="#00946F"></path>
                <path d="M745.183528,177.12304 C740.522875,177.12304 737.424874,175.573236 737.424874,174.018614 C737.424874,172.468811 738.973072,169.88634 743.633725,169.88634 C752.942182,169.88634 757.08088,174.018614 758.630684,174.018614 C761.727079,165.233718 761.727079,165.233718 761.727079,165.233718 C758.630684,162.12608 752.942182,159.031291 743.633725,159.031291 C729.680675,159.031291 723.470218,168.338143 723.470218,175.574842 C723.470218,178.674449 725.020022,181.777268 726.568219,184.881694 C728.134083,186.429891 731.230478,187.979695 734.326873,189.534316 C737.424874,189.534316 738.973072,189.534316 740.521269,191.08412 C743.633725,191.08412 746.73012,191.08412 749.844181,192.632317 C749.844181,192.632317 751.393985,192.632317 751.393985,195.738349 C751.393985,198.833138 746.731726,200.390971 742.087133,198.833138 C734.326873,198.833138 731.230478,197.286546 725.020022,192.632317 C721.905961,203.495396 721.905961,203.495396 721.905961,203.495396 C725.020022,206.595004 731.232084,210.735308 743.633725,210.735308 C753.986091,210.735308 766.371672,205.0452 766.371672,194.188545 C766.371672,181.775662 753.987697,178.672843 745.183528,177.12304" id="Path" fill="#00946F"></path>
                <path d="M788.102648,192.632317 C788.102648,174.018614 788.102648,174.018614 788.102648,174.018614 C796.887545,174.018614 796.887545,174.018614 796.887545,174.018614 C800,165.233718 800,165.233718 800,165.233718 C788.102648,165.233718 788.102648,165.233718 788.102648,165.233718 C788.102648,146.618409 788.102648,146.618409 788.102648,146.618409 C774.149598,154.377063 774.149598,154.377063 774.149598,154.377063 C774.149598,165.233718 774.149598,165.233718 774.149598,165.233718 C767.940747,165.233718 767.940747,165.233718 767.940747,165.233718 C764.826686,174.018614 764.826686,174.018614 764.826686,174.018614 C774.151204,174.018614 774.151204,174.018614 774.151204,174.018614 C774.151204,194.188545 774.151204,194.188545 774.151204,194.188545 C774.151204,198.833138 774.151204,201.940775 775.701007,205.0452 C778.797402,209.185504 784.990193,209.185504 789.654057,209.185504 C794.31471,209.185504 794.31471,209.185504 794.31471,209.185504 C798.437348,198.833138 798.437348,198.833138 798.437348,198.833138 C792.764907,198.833138 792.764907,198.833138 792.764907,198.833138 C788.102648,198.833138 788.102648,195.738349 788.102648,192.632317" id="Path" fill="#00946F"></path>
                <path d="M692.959163,198.841168 C683.669978,198.841168 680.554311,191.082514 680.554311,184.880088 C680.554311,178.671237 683.668372,169.88634 692.959163,169.88634 C700.717817,169.88634 703.833484,178.672843 703.833484,184.880088 C703.831878,191.08412 700.717817,198.841168 692.959163,198.841168 M692.959163,159.029685 C677.457916,159.029685 666.602867,171.432932 666.602867,184.880088 C666.602867,198.841168 677.457916,210.733702 692.959163,210.733702 C706.928273,210.733702 717.262974,198.841168 717.262974,184.880088 C717.261368,171.432932 706.928273,159.029685 692.959163,159.029685 Z" id="Shape" fill="#00946F"></path>
                <path d="M664.009154,275.361313 C664.009154,266.054462 664.009154,266.054462 664.009154,266.054462 C659.362955,266.054462 659.362955,266.054462 659.362955,266.054462 C659.362955,275.361313 659.362955,275.361313 659.362955,275.361313 M659.364561,291.908076 C664.01076,291.908076 664.01076,291.908076 664.01076,291.908076 C664.01076,281.557316 664.01076,281.557316 664.01076,281.557316 C659.364561,281.557316 659.364561,281.557316 659.364561,281.557316 L659.364561,291.908076 Z M674.343854,291.908076 C674.343854,281.557316 674.343854,281.557316 674.343854,281.557316 C669.697656,281.557316 669.697656,281.557316 669.697656,281.557316 C669.697656,291.908076 669.697656,291.908076 669.697656,291.908076 L674.343854,291.908076 Z M674.343854,275.361313 C674.343854,266.054462 674.343854,266.054462 674.343854,266.054462 C669.697656,266.054462 669.697656,266.054462 669.697656,266.054462 C669.697656,275.361313 669.697656,275.361313 669.697656,275.361313 L674.343854,275.361313 Z M689.861162,315.185644 C689.861162,247.442365 689.861162,247.442365 689.861162,247.442365 C712.616775,247.442365 712.616775,247.442365 712.616775,247.442365 C706.928273,269.154069 706.928273,269.154069 706.928273,269.154069 C712.616775,275.361313 717.262974,281.557316 714.164973,287.247423 C711.068578,299.66673 702.283681,298.118533 700.717817,298.118533 C697.621422,291.909682 697.621422,291.909682 697.621422,291.909682 C697.621422,291.909682 708.476471,293.456274 709.518774,285.699226 C711.068578,281.558922 705.37847,276.912723 700.717817,270.718327 C703.831878,253.654427 703.831878,253.654427 703.831878,253.654427 C696.071618,253.654427 696.071618,253.654427 696.071618,253.654427 C696.071618,315.18725 696.071618,315.18725 696.071618,315.18725 L689.861162,315.18725 L689.861162,315.185644 Z M651.605907,255.199413 C646.945254,250.55482 646.945254,250.55482 646.945254,250.55482 C683.669978,245.892562 683.669978,245.892562 683.669978,245.892562 C688.316177,250.55482 688.316177,250.55482 688.316177,250.55482 C669.699262,253.651215 669.699262,253.651215 669.699262,253.651215 C669.699262,259.844006 669.699262,259.844006 669.699262,259.844006 C686.766373,259.844006 686.766373,259.844006 686.766373,259.844006 C688.316177,261.393809 688.316177,262.940401 686.766373,266.052856 C680.555917,266.052856 680.555917,266.052856 680.555917,266.052856 C680.555917,275.359707 680.555917,275.359707 680.555917,275.359707 C686.766373,275.359707 686.766373,275.359707 686.766373,275.359707 C686.766373,281.554104 686.766373,281.554104 686.766373,281.554104 C680.555917,281.554104 680.555917,281.554104 680.555917,281.554104 C680.555917,291.904864 680.555917,291.904864 680.555917,291.904864 C686.766373,291.904864 686.766373,291.904864 686.766373,291.904864 C686.766373,298.113715 686.766373,298.113715 686.766373,298.113715 C669.699262,298.113715 669.699262,298.113715 669.699262,298.113715 C669.699262,305.856308 669.699262,305.856308 669.699262,305.856308 C686.766373,302.756701 686.766373,302.756701 686.766373,302.756701 C686.766373,308.968764 686.766373,308.968764 686.766373,308.968764 C651.605907,313.614962 651.605907,313.614962 651.605907,313.614962 C648.493452,307.4029 648.493452,307.4029 648.493452,307.4029 C664.01076,305.856308 664.01076,305.856308 664.01076,305.856308 C664.01076,298.113715 664.01076,298.113715 664.01076,298.113715 C648.493452,298.113715 648.493452,298.113715 648.493452,298.113715 C648.493452,291.904864 648.493452,291.904864 648.493452,291.904864 C653.155711,291.904864 653.155711,291.904864 653.155711,291.904864 C653.155711,281.554104 653.155711,281.554104 653.155711,281.554104 C645.397057,281.554104 645.397057,281.554104 645.397057,281.554104 C645.397057,275.359707 645.397057,275.359707 645.397057,275.359707 C653.155711,275.359707 653.155711,275.359707 653.155711,275.359707 C653.155711,266.052856 653.155711,266.052856 653.155711,266.052856 C648.493452,266.052856 648.493452,266.052856 648.493452,266.052856 C648.493452,259.844006 648.493452,259.844006 648.493452,259.844006 C664.01076,259.844006 664.01076,259.844006 664.01076,259.844006 C664.01076,253.651215 664.01076,253.651215 664.01076,253.651215 L651.605907,255.199413 Z" id="Shape" fill="#282F75"></path>
                <path d="M522.867821,283.121573 C536.298916,283.121573 536.298916,283.121573 536.298916,283.121573 C532.160218,280.007512 527.512413,273.814722 524.417624,269.154069 L522.867821,269.154069 M540.961175,285.696014 C540.961175,301.213322 540.961175,301.213322 540.961175,301.213322 C540.961175,308.971976 540.961175,308.971976 540.961175,308.971976 C540.961175,310.521779 540.961175,312.068371 539.395311,313.618174 C537.847114,315.185644 536.298916,315.185644 534.750719,315.185644 C516.657364,315.185644 516.657364,315.185644 516.657364,315.185644 C498.040449,315.185644 498.040449,315.185644 498.040449,315.185644 C498.040449,285.69762 498.040449,285.69762 498.040449,285.69762 C496.493858,287.247423 493.387827,288.795621 489.255552,290.358273 C484.593294,284.147816 484.593294,284.147816 484.593294,284.147816 C496.493858,281.557316 504.244482,273.814722 510.446908,267.604266 C489.257158,267.604266 489.257158,267.604266 489.257158,267.604266 C489.257158,261.395415 489.257158,261.395415 489.257158,261.395415 C516.65897,261.395415 516.65897,261.395415 516.65897,261.395415 C516.65897,253.652821 516.65897,253.652821 516.65897,253.652821 C496.495464,255.201019 496.495464,255.201019 496.495464,255.201019 C493.387827,250.556426 493.387827,250.556426 493.387827,250.556426 C542.509372,244.866319 542.509372,244.866319 542.509372,244.866319 C545.607374,250.556426 545.607374,250.556426 545.607374,250.556426 C522.867821,253.652821 522.867821,253.652821 522.867821,253.652821 C522.867821,261.395415 522.867821,261.395415 522.867821,261.395415 C551.81783,261.395415 551.81783,261.395415 551.81783,261.395415 C551.81783,267.604266 551.81783,267.604266 551.81783,267.604266 C530.610414,267.604266 530.610414,267.604266 530.610414,267.604266 C530.610414,267.604266 530.610414,267.604266 530.610414,269.154069 C532.160218,269.154069 532.160218,269.154069 532.160218,269.154069 C536.298916,275.361313 544.05757,281.557316 554.912619,284.147816 C550.268026,290.358273 550.268026,290.358273 550.268026,290.358273 C547.173237,288.794015 544.059176,287.245817 540.961175,285.696014 Z M534.752325,298.116927 C534.752325,288.794015 534.752325,288.794015 534.752325,288.794015 C504.247694,288.794015 504.247694,288.794015 504.247694,288.794015 C504.247694,296.570335 504.247694,296.570335 504.247694,296.570335 C532.161824,296.570335 532.161824,296.570335 532.161824,296.570335 C529.063823,302.759913 529.063823,302.759913 529.063823,302.759913 C504.247694,302.759913 504.247694,302.759913 504.247694,302.759913 C504.247694,308.971976 504.247694,308.971976 504.247694,308.971976 C522.869427,308.971976 522.869427,308.971976 522.869427,308.971976 C533.204127,308.971976 533.204127,308.971976 533.204127,308.971976 C534.753931,308.971976 534.753931,308.971976 534.753931,307.404506 L534.753931,298.116927 L534.752325,298.116927 Z M516.65897,269.154069 C513.544909,273.814722 508.900316,280.007512 502.69789,283.121573 C516.65897,283.121573 516.65897,283.121573 516.65897,283.121573 C516.65897,269.154069 516.65897,269.154069 516.65897,269.154069 Z" id="Shape" fill="#282F75"></path>
                <polyline id="Path" fill="#282F75" points="582.314431 256.749217 570.431533 247.442365 565.77088 252.103018 579.218036 261.395415 582.314431 256.749217"></polyline>
                <polyline id="Path" fill="#282F75" points="580.766233 272.264918 568.883335 264.490204 565.77088 269.154069 576.625929 276.911117 580.766233 272.264918"></polyline>
                <polyline id="Path" fill="#282F75" points="564.221076 310.523385 570.431533 312.068371 579.218036 285.696014 573.527928 284.147816 564.221076 310.523385"></polyline>
                <path d="M594.735344,283.121573 C597.831739,280.007512 599.381542,278.460921 599.381542,275.361313 C614.89885,275.361313 614.89885,275.361313 614.89885,275.361313 C616.447048,278.460921 617.995245,280.007512 619.545049,283.121573 M599.381542,259.845612 C613.350652,259.845612 613.350652,259.845612 613.350652,259.845612 C613.350652,269.154069 613.350652,269.154069 613.350652,269.154069 C599.381542,269.154069 599.381542,269.154069 599.381542,269.154069 L599.381542,259.845612 Z M602.477937,296.570335 C600.928134,302.759913 600.928134,302.759913 600.928134,302.759913 C621.09164,302.759913 621.09164,302.759913 621.09164,302.759913 C621.09164,285.696014 621.09164,285.696014 621.09164,285.696014 C623.683747,288.794015 626.781748,291.90647 629.879749,295.002865 C634.540402,290.356667 634.540402,290.356667 634.540402,290.356667 C634.540402,290.356667 626.781748,285.696014 621.09164,275.359707 C631.444007,275.359707 631.444007,275.359707 631.444007,275.359707 C631.444007,269.152463 631.444007,269.152463 631.444007,269.152463 C619.545049,269.152463 619.545049,269.152463 619.545049,269.152463 C619.545049,259.844006 619.545049,259.844006 619.545049,259.844006 C628.329946,259.844006 628.329946,259.844006 628.329946,259.844006 C628.329946,253.651215 628.329946,253.651215 628.329946,253.651215 C619.545049,253.651215 619.545049,253.651215 619.545049,253.651215 C619.545049,244.864713 619.545049,244.864713 619.545049,244.864713 C613.352258,244.864713 613.352258,244.864713 613.352258,244.864713 C613.352258,253.651215 613.352258,253.651215 613.352258,253.651215 C600.92974,253.651215 600.92974,253.651215 600.92974,253.651215 C600.92974,244.864713 600.92974,244.864713 600.92974,244.864713 C594.738556,244.864713 594.738556,244.864713 594.738556,244.864713 C594.738556,253.651215 594.738556,253.651215 594.738556,253.651215 C585.412432,253.651215 585.412432,253.651215 585.412432,253.651215 C585.412432,259.844006 585.412432,259.844006 585.412432,259.844006 C594.738556,259.844006 594.738556,259.844006 594.738556,259.844006 C594.738556,269.152463 594.738556,269.152463 594.738556,269.152463 C582.317643,269.152463 582.317643,269.152463 582.317643,269.152463 C582.317643,275.359707 582.317643,275.359707 582.317643,275.359707 C593.190358,275.359707 593.190358,275.359707 593.190358,275.359707 C588.529705,284.14621 579.222854,290.356667 579.222854,290.356667 C583.869052,295.002865 583.869052,295.002865 583.869052,295.002865 C586.981508,293.453062 588.529705,290.356667 591.643766,287.245817 C591.643766,308.971976 591.643766,308.971976 591.643766,308.971976 C591.643766,310.521779 591.643766,312.068371 593.191964,313.618174 C594.741768,315.185644 596.289965,315.185644 597.838163,315.185644 C625.238369,315.185644 625.238369,315.185644 625.238369,315.185644 C626.788172,308.973582 626.788172,308.973582 626.788172,308.973582 C599.387966,308.973582 599.387966,308.973582 599.387966,308.973582 C597.838163,308.973582 597.838163,308.973582 597.838163,305.861126 C597.838163,288.795621 597.838163,288.795621 597.838163,288.795621 C616.453472,288.795621 616.453472,288.795621 616.453472,288.795621 C616.453472,296.571941 616.453472,296.571941 616.453472,296.571941 L602.477937,296.571941 L602.477937,296.570335 Z" id="Shape" fill="#282F75"></path>
                <path d="M788.102648,266.054462 C788.102648,280.007512 783.440389,288.794015 780.342388,296.570335 C784.988587,301.214928 789.650845,307.406112 795.859696,310.523385 C791.197437,315.185644 791.197437,315.185644 791.197437,315.185644 C791.197437,315.185644 783.440389,310.523385 775.699401,301.214928 C769.488945,310.523385 757.082486,315.185644 757.082486,315.185644 C752.943788,310.523385 752.943788,310.523385 752.943788,310.523385 C761.728685,307.407718 766.373278,302.761519 771.037143,296.570335 C769.488945,293.454668 766.374884,290.358273 763.278489,285.696014 C763.278489,287.245817 761.728685,288.794015 761.728685,288.794015 C757.082486,287.245817 757.082486,287.245817 757.082486,287.245817 C764.82508,273.814722 766.373278,255.199413 766.373278,244.864713 C772.6014,244.864713 772.6014,244.864713 772.6014,244.864713 C772.6014,248.987351 772.6014,255.199413 771.035537,259.844006 C792.761695,259.844006 792.761695,259.844006 792.761695,259.844006 C792.761695,266.052856 792.761695,266.052856 792.761695,266.052856 M766.371672,280.007512 C769.485733,283.121573 772.599794,287.247423 775.697795,291.908076 C780.342388,283.121573 781.890586,273.814722 781.890586,266.054462 C771.03393,266.054462 771.03393,266.054462 771.03393,266.054462 C769.487339,270.715115 767.939141,275.361313 766.371672,280.007512 Z M746.749392,298.116927 C760.178881,295.004471 760.178881,295.004471 760.178881,295.004471 C760.178881,301.214928 760.178881,301.214928 760.178881,301.214928 C726.568219,310.523385 726.568219,310.523385 726.568219,310.523385 C726.568219,267.604266 726.568219,267.604266 726.568219,267.604266 C732.778676,267.604266 732.778676,267.604266 732.778676,267.604266 C732.778676,302.761519 732.778676,302.761519 732.778676,302.761519 C740.521269,301.214928 740.521269,301.214928 740.521269,301.214928 C740.521269,255.201019 740.521269,255.201019 740.521269,255.201019 C726.568219,255.201019 726.568219,255.201019 726.568219,255.201019 C726.568219,248.990563 726.568219,248.990563 726.568219,248.990563 C760.178881,248.990563 760.178881,248.990563 760.178881,248.990563 C760.178881,255.201019 760.178881,255.201019 760.178881,255.201019 C746.749392,255.201019 746.749392,255.201019 746.749392,255.201019 C746.749392,273.816328 746.749392,273.816328 746.749392,273.816328 C760.178881,273.816328 760.178881,273.816328 760.178881,273.816328 C757.08088,278.462527 757.08088,278.462527 757.08088,278.462527 C746.747786,278.462527 746.747786,278.462527 746.747786,278.462527 L746.747786,298.116927 L746.749392,298.116927 Z" id="Shape" fill="#282F75"></path>
            </g>
        </g>
    </g>
</svg>