<?xml version="1.0" encoding="UTF-8"?>
<svg width="980px" height="680px" viewBox="0 0 980 680" version="1.1" xmlns="http://www.w3.org/2000/svg" xmlns:xlink="http://www.w3.org/1999/xlink">
    <title>HK Hong Kong Post</title>
    <defs>
        <linearGradient x1="50%" y1="0%" x2="50%" y2="100%" id="linearGradient-1">
            <stop stop-color="#FFFFFF" offset="0%"></stop>
            <stop stop-color="#EDEDED" offset="100%"></stop>
        </linearGradient>
        <rect id="path-2" x="0" y="0" width="900" height="600" rx="80"></rect>
        <filter x="-6.7%" y="-10.0%" width="113.3%" height="120.0%" filterUnits="objectBoundingBox" id="filter-3">
            <feMorphology radius="2.5" operator="dilate" in="SourceAlpha" result="shadowSpreadOuter1"></feMorphology>
            <feOffset dx="0" dy="0" in="shadowSpreadOuter1" result="shadowOffsetOuter1"></feOffset>
            <feGaussianBlur stdDeviation="17.5" in="shadowOffsetOuter1" result="shadowBlurOuter1"></feGaussianBlur>
            <feColorMatrix values="0 0 0 0 0   0 0 0 0 0   0 0 0 0 0  0 0 0 0.5 0" type="matrix" in="shadowBlurOuter1"></feColorMatrix>
        </filter>
    </defs>
    <g id="HK-Hong-Kong-Post" stroke="none" stroke-width="1" fill="none" fill-rule="evenodd">
        <g transform="translate(40, 40)">
            <g id="Rectangle">
                <use fill="black" fill-opacity="1" filter="url(#filter-3)" xlink:href="#path-2"></use>
                <use fill="url(#linearGradient-1)" fill-rule="evenodd" xlink:href="#path-2"></use>
            </g>
            <g id="Logo" transform="translate(118, 50)" fill-rule="nonzero">
                <path d="M202.024166,148.926474 C346.412182,-105.246322 73.4570545,32.220432 3.22760366,81.6738111 C-2.69525103,84.6321664 0.266176317,87.5966658 6.20439111,81.6738111 C234.652092,-40.9673742 225.752449,60.8915953 202.024166,145.943543 C199.062739,148.926474 202.024166,148.926474 202.024166,148.926474" id="Path" fill="#282F75"></path>
                <path d="M363.231492,459.464695 C369.157418,470.348862 378.05706,494.074073 378.05706,500 L381.03692,500 C381.03692,497.035501 378.05706,470.348862 375.095633,459.464695 C357.293277,374.409676 307.84297,332.866748 225.749377,277.490514 C143.674217,216.179138 125.868789,114.301736 122.90429,93.5348806 L119.927502,93.5348806 C116.966075,116.283189 91.2594108,236.945993 176.29907,295.292871 C258.392663,353.645892 331.586613,386.276889 363.231492,459.464695" id="Path" fill="#282F75"></path>
                <path d="M290.040613,256.711371 C287.079186,256.711371 287.079186,259.688158 290.040613,259.688158 C319.707111,262.649585 422.564487,254.74835 480.917508,204.302708 C542.231957,154.849329 598.603525,116.283189 659.930262,111.337237 C662.891689,111.337237 665.853117,108.363521 659.930262,108.363521 C651.03062,108.363521 659.930262,105.399022 645.089333,108.363521 C586.739384,111.337237 524.426529,134.085545 472.014794,184.515827 C416.626272,233.966134 310.804397,254.74835 290.040613,256.711371" id="Path" fill="#00946F"></path>
                <path d="M255.431235,216.179138 C252.454448,216.179138 249.489949,219.140565 255.431235,219.140565 C284.099327,222.09892 386.959775,216.179138 445.309724,166.728831 C504.65808,114.301736 562.995741,75.7294522 624.325549,69.7912374 C627.286977,69.7912374 630.248404,66.8267381 624.325549,66.8267381 C615.422835,66.8267381 621.348762,66.8267381 609.481548,66.8267381 C548.170172,72.7710969 489.817151,93.5318085 433.445582,142.985188 C381.03692,195.399994 275.199684,213.20235 255.431235,216.179138" id="Path" fill="#00946F"></path>
                <path d="M216.849735,178.5899 C213.885236,178.5899 213.885236,181.5544 216.849735,181.5544 C246.531593,184.518899 351.355062,175.616185 407.72663,125.185903 C469.056439,75.7294522 527.406388,38.1494307 589.700811,32.220432 C589.700811,29.2467166 595.642098,29.2467166 586.739384,29.2467166 C580.798097,29.2467166 586.739384,26.2852892 571.895383,29.2467166 C513.545434,32.220432 454.209366,54.9718126 398.823916,105.402094 C343.450754,154.849329 237.628879,175.616185 216.849735,178.5899" id="Path" fill="#00946F"></path>
            </g>
        </g>
    </g>
</svg>