<?xml version="1.0" encoding="UTF-8"?>
<svg width="980px" height="680px" viewBox="0 0 980 680" version="1.1" xmlns="http://www.w3.org/2000/svg" xmlns:xlink="http://www.w3.org/1999/xlink">
    <title>HR Hrvatska pošta text</title>
    <defs>
        <rect id="path-1" x="0" y="0" width="900" height="600" rx="80"></rect>
        <filter x="-6.7%" y="-10.0%" width="113.3%" height="120.0%" filterUnits="objectBoundingBox" id="filter-2">
            <feMorphology radius="2.5" operator="dilate" in="SourceAlpha" result="shadowSpreadOuter1"></feMorphology>
            <feOffset dx="0" dy="0" in="shadowSpreadOuter1" result="shadowOffsetOuter1"></feOffset>
            <feGaussianBlur stdDeviation="17.5" in="shadowOffsetOuter1" result="shadowBlurOuter1"></feGaussianBlur>
            <feColorMatrix values="0 0 0 0 0   0 0 0 0 0   0 0 0 0 0  0 0 0 0.5 0" type="matrix" in="shadowBlurOuter1"></feColorMatrix>
        </filter>
    </defs>
    <g id="HR-Hrvatska-pošta-text" stroke="none" stroke-width="1" fill="none" fill-rule="evenodd">
        <g transform="translate(40, 40)">
            <g id="Rectangle">
                <use fill="black" fill-opacity="1" filter="url(#filter-2)" xlink:href="#path-1"></use>
                <use fill="#232323" fill-rule="evenodd" xlink:href="#path-1"></use>
            </g>
            <g id="Logo" transform="translate(50, 147)" fill="#FFD400" fill-rule="nonzero">
                <g id="Group_215" transform="translate(285.5099, 0)">
                    <polygon id="Path_265" points="23.8131883 50.6269522 59.4010489 50.6269522 51.7547547 92.3246054 67.8337009 92.3246054 84.3886004 2.74707864 68.1854925 2.74707864 61.822203 37.2950846 26.2343424 37.2950846 32.5924585 2.74707864 16.4514314 2.74707864 0 92.3246054 16.1410271 92.3246054"></polygon>
                    <polygon id="Path_266" points="166.935468 93.555876 209.124595 26.8448043 191.395332 26.8448043 168.342635 66.5300025 157.3388 26.8448043 141.378842 26.8448043 161.436138 93.555876"></polygon>
                    <path d="M99.0500333,92.3297788 L105.961704,55.3347517 C106.821458,50.8814762 108.969219,46.778424 112.138751,43.5342124 C114.866149,40.3517131 118.813084,38.47222 123.002904,38.3608063 C126.545581,38.6671496 129.902504,40.078686 132.599572,42.396063 L137.18321,26.8085904 C134.220945,26.1975219 131.217197,25.8084353 128.197003,25.6445741 C121.560505,25.6754712 115.165158,28.1360695 110.219417,32.561418 L111.254098,26.8706713 L95.9046024,26.8706713 L83.6746704,92.3608192 L99.0500333,92.3297788 Z" id="Path_267"></path>
                    <path d="M261.769176,68.8476885 L269.353389,28.67619 C261.633311,26.2277522 253.534872,25.1920073 245.447079,25.618707 C234.402176,25.4291971 223.88832,30.3491548 216.957132,38.9505746 C209.430334,47.8571907 205.427369,59.2127273 205.704974,70.8704902 C205.337642,76.9874572 207.429212,82.9976947 211.514709,87.5650717 C215.951165,91.7607589 221.928288,93.9298306 228.023048,93.555876 C235.314825,93.7527833 242.367669,90.9473562 247.531962,85.7957669 C248.911537,90.1586727 251.030909,92.3401256 253.890078,92.3401256 L263.429839,92.3401256 C261.699923,86.3469941 261.000191,80.1036325 261.360476,73.8762392 C261.339434,72.1909725 261.476265,70.5074384 261.769176,68.8476885 L261.769176,68.8476885 Z M243.486358,72.9450261 C241.432186,77.5535112 237.025503,80.6725141 231.996223,81.0776205 C229.105635,81.463495 226.201956,80.4667634 224.157753,78.3869472 C222.11355,76.307131 221.167114,73.3866718 221.602851,70.5031784 C221.44497,62.5531415 223.566931,54.7241488 227.717817,47.9419544 C230.946719,41.8929022 237.245111,38.1142646 244.101994,38.1124828 C246.876497,38.147891 249.633305,38.5603679 252.296669,39.33858 C249.727211,56.3245967 246.79044,67.5267454 243.486358,72.9450261 Z" id="Path_268"></path>
                    <path d="M445.942433,32.1630658 L435.243829,22.9492295 C430.568655,28.6836627 425.323535,33.9287826 419.589102,38.6039564 L408.031713,48.6300174 L415.921157,0 L400.882066,0 L384.844507,92.3297788 L400.194003,92.3297788 L404.53449,67.4974295 L407.121194,65.3556393 L427.851032,92.3246054 L445.957953,92.3246054 L418.93208,56.9229874 C435.155881,42.616795 444.159332,34.3634878 445.942433,32.1630658 Z" id="Path_269"></path>
                    <path d="M306.731248,39.1316438 L324.770915,39.1316438 L327.399005,26.8396309 L309.4835,26.8396309 L314.067138,7.08756637 L296.575852,13.4456825 L293.989149,26.8396309 L286.404935,26.8396309 L283.776845,39.1316438 L291.361058,39.1316438 L283.963088,71.9672523 C283.597973,73.5519546 283.414001,75.1729943 283.414707,76.7992136 C283.22624,81.2793414 284.856973,85.6453777 287.936264,88.9049839 C291.102874,92.0681356 295.451531,93.757299 299.923046,93.5610494 C305.996072,93.7628334 312.06257,92.9979727 317.895458,91.2950976 L317.895458,77.5338373 C314.434306,79.215024 310.71083,80.2911225 306.88645,80.7154821 C301.830308,80.7154821 299.302237,78.4736728 299.302237,73.9900541 C299.355687,72.031965 299.622839,70.0855705 300.098941,68.1854925 L306.731248,39.1316438 Z" id="Path_270"></path>
                    <path d="M354.264503,40.1094175 C356.251078,38.8970017 358.544244,38.2810614 360.870943,38.3349392 C365.978481,38.7960724 370.751145,41.0741018 374.321799,44.7551362 L381.414539,30.7558993 C375.24033,27.7995301 368.556107,26.0555906 361.724555,25.618707 C355.033041,25.409075 348.458731,27.4090034 343.017518,31.3094538 C338.105849,34.7692131 335.25739,40.4622459 335.433305,46.4675336 C335.409564,49.2806193 336.196209,52.0410634 337.699257,54.4190588 C339.423764,56.946358 341.730323,59.0222614 344.424685,60.471944 C347.356282,62.1067403 350.737965,63.9208814 354.569734,65.9143672 C358.401504,67.907853 360.317388,70.0065314 360.317388,72.2104024 C360.398859,74.6848713 359.254976,77.0403792 357.259905,78.5064377 C355.046439,80.1216844 352.351515,80.9403722 349.613611,80.829297 C343.868307,80.4514342 338.492029,77.8652591 334.610734,73.6123955 L326.54022,87.4926441 C332.873072,91.3815679 340.144065,93.4755996 347.575289,93.5507026 C354.979753,93.8670957 362.273329,91.6680824 368.268914,87.3115748 C373.619684,83.3027942 376.658239,76.9200884 376.396335,70.2393347 C376.448382,67.4838021 375.661755,64.7775183 374.14073,62.4792255 C372.67318,60.2377444 370.678346,58.3903469 368.330995,57.0988832 C365.961575,55.7503487 362.557473,53.9569012 358.118691,51.7185408 C353.679908,49.4801805 351.477762,47.1555967 351.512251,44.7447894 C351.505993,42.8107117 352.563429,41.0297665 354.264503,40.1094175 Z" id="Path_271"></path>
                    <path d="M506.926544,68.8476885 L514.490064,28.67619 C506.776507,26.230447 498.685343,25.194736 490.604448,25.618707 C479.558409,25.4307245 469.043615,30.3502278 462.109327,38.9505746 C454.585491,47.8588874 450.582935,59.2132631 450.857169,70.8704902 C450.489837,76.9874572 452.581407,82.9976947 456.666904,87.5650717 C461.105284,91.7610326 467.08408,93.9300321 473.180416,93.555876 C480.470523,93.7519654 487.521455,90.9465549 492.684157,85.7957669 C494.063732,90.1586727 496.183104,92.3401256 499.042273,92.3401256 L508.582034,92.3401256 C506.850044,86.3474069 506.150271,80.1036892 506.512672,73.8762392 C506.493337,72.1908105 506.631899,70.5072752 506.926544,68.8476885 Z M488.623033,72.9450261 C486.572385,77.5496406 482.172357,80.6681456 477.148419,81.0776205 C474.25783,81.463495 471.354151,80.4667634 469.309948,78.3869472 C467.265745,76.307131 466.319309,73.3866718 466.755046,70.5031784 C466.597166,62.5531415 468.719126,54.7241488 472.870012,47.9419544 C476.098053,41.8920832 482.396989,38.1131194 489.254189,38.1124828 C492.028666,38.1482107 494.785431,38.5606811 497.448864,39.33858 C494.882855,56.3245967 491.940911,67.5267454 488.623033,72.9450261 Z" id="Union_5"></path>
                </g>
                <g id="Group_216" transform="translate(478.866, 120.6697)">
                    <path d="M138.492081,30.828327 C133.094008,26.112823 126.047574,23.7280478 118.895219,24.1960204 C108.341347,23.9522365 98.2358716,28.4608623 91.3675252,36.4776865 C84.0794548,44.7812571 80.198826,55.5324467 80.5033724,66.5765632 C80.0338436,73.6727033 82.5508301,80.6422429 87.4460834,85.8009403 C92.7890193,90.48404 99.7651836,92.8676867 106.856703,92.4332469 C117.506886,92.7371212 127.71894,88.1887034 134.6172,80.0688063 C141.873981,71.586647 145.70712,60.7033342 145.367538,49.5457103 C145.810085,42.6172914 143.314281,35.8228466 138.492081,30.828327 Z M123.747874,71.0619063 C120.695084,76.5702653 114.871758,79.9653853 108.574274,79.9084307 C100.507209,79.9084307 96.4736771,75.2213248 96.4736771,65.8471129 C96.315509,58.6584975 98.2805711,51.5828345 102.123037,45.5052801 C105.20823,40.0669864 110.982088,36.7105974 117.234556,36.7208132 C125.298171,36.7208132 129.329979,41.1440988 129.329979,49.9906232 C129.519564,57.4033198 127.582512,64.7152876 123.747874,71.0619063 Z" id="Union_6"></path>
                    <path d="M46.4882273,24.1960204 C40.2974205,24.4029332 34.3432299,26.6244021 29.5298021,30.523096 C29.2716734,28.3924499 28.7984803,26.2934139 28.1174622,24.2581012 L13.1145845,26.9586192 C13.8441795,30.5341467 14.2150543,34.1735719 14.2216934,37.822772 C14.2218697,40.4819049 13.9741996,43.1352664 13.4818963,45.7484302 L0,117.669122 L16.2341484,111.626584 L20.5073818,89.4223245 C24.516625,91.442805 28.9515418,92.4734797 33.4408971,92.4280735 C44.2640745,92.8549044 54.7212799,88.4701135 62.0032722,80.4516384 C69.3933024,71.9677781 73.2597188,60.979308 72.8105175,49.7371263 C72.8243133,32.7097223 64.0502165,24.1960204 46.4882273,24.1960204 Z M50.2958542,72.1638418 C45.5395867,77.2483687 38.7534191,79.9313163 31.8061007,79.4738646 C28.5319594,79.7156753 25.3052654,78.5813639 22.9026688,76.3439539 L29.0383285,43.8549636 C30.7442795,42.0000017 32.8133565,40.515549 35.1170806,39.4937822 C37.3094654,38.2919235 39.744198,37.5988115 42.2408609,37.465807 C46.1530821,37.2431496 49.9886091,38.6149805 52.8722104,41.2682605 C55.511966,43.9127739 56.9165699,47.5463414 56.7419182,51.2788013 C57.225784,58.7960885 54.9298084,66.2290101 50.2906808,72.1638418 L50.2958542,72.1638418 Z" id="Union_7"></path>
                    <path d="M313.487716,67.6164178 L321.108144,27.2690236 C313.352866,24.8098897 305.2178,23.7689098 297.093192,24.1960204 C285.996555,24.0012742 275.432042,28.942709 268.468736,37.5847954 C260.908878,46.532501 256.887691,57.939055 257.164844,69.6495664 C256.795944,75.7931854 258.896851,81.8295674 263.000446,86.4165756 C267.456455,90.6338789 273.462854,92.812744 279.586386,92.4332469 C286.910762,92.6310995 293.9946,89.8102845 299.178075,84.6317505 C300.55765,89.011901 302.687369,91.2019762 305.567232,91.2019762 L315.153553,91.2019762 C313.415285,85.1804098 312.715488,78.9067302 313.084191,72.6501419 C313.062652,70.9633624 313.19774,69.278225 313.487716,67.6164178 Z M295.122125,71.7551427 C293.055919,76.3842832 288.628034,79.5167336 283.575082,79.9239509 C280.666496,80.3135408 277.744429,79.3092976 275.689843,77.2139859 C273.635256,75.1186741 272.688552,72.177462 273.135149,69.2770812 C272.979497,61.2905417 275.112082,53.4261887 279.281155,46.612389 C282.519448,40.5294903 288.846594,36.7264396 295.73776,36.7208365 C298.526374,36.7542994 301.297346,37.1685527 303.973823,37.9521072 C301.394017,55.0277963 298.445176,66.2885769 295.127298,71.7344491 L295.122125,71.7551427 Z" id="Union_8"></path>
                    <path d="M162.651888,29.9074607 C157.718233,33.3868646 154.858325,39.1086234 155.036634,45.1431417 C155.013728,47.9665688 155.802002,50.7372013 157.307759,53.1257073 C159.04346,55.6632069 161.362117,57.7476918 164.069401,59.2044595 C167.018243,60.8461537 170.417171,62.6671926 174.266185,64.6675763 C178.115199,66.66796 180.037981,68.7787097 180.034532,70.9998254 C180.12127,73.4864313 178.97279,75.8550504 176.966703,77.3269011 C174.742689,78.9496063 172.034995,79.771943 169.284195,79.6601072 C163.521341,79.2771873 158.12936,76.6822151 154.234756,72.4173387 L146.128029,86.3855352 C152.489105,90.2905023 159.792521,92.3917546 167.256219,92.4642873 C174.684816,92.7754356 182.000659,90.567739 188.017098,86.1992925 C193.389859,82.1769196 196.443575,75.7716584 196.185906,69.0649715 C196.239831,66.2940251 195.44756,63.5725097 193.914781,61.2634751 C192.444386,59.0084049 190.439842,57.1513583 188.079179,55.8572657 C185.702861,54.5018333 182.28324,52.6997635 177.820315,50.4510563 C173.35739,48.2023492 171.146621,45.869143 171.188008,43.4514379 C171.179587,41.5086648 172.241432,39.7190388 173.950607,38.7953724 C175.945834,37.5754651 178.250115,36.9558416 180.588087,37.0105473 C185.719525,37.4736863 190.514407,39.7628206 194.101024,43.4617847 L201.224804,29.4004669 C195.023773,26.4267655 188.309744,24.6705455 181.446872,24.2270608 C174.7278,24.003077 168.122163,25.999496 162.651888,29.9074607 L162.651888,29.9074607 Z" id="Path_276"></path>
                    <path d="M241.913643,5.58210519 L224.324062,11.9660883 L221.737359,25.4169442 L214.122105,25.4169442 L211.478495,37.7658646 L219.098922,37.7658646 L211.669911,70.7463285 C211.299576,72.3373417 211.112119,73.9654382 211.111183,75.5989834 C210.926177,80.1012975 212.567934,84.4873991 215.66378,87.7616612 C218.847378,90.9312868 223.214449,92.6203129 227.702296,92.4177267 C233.802936,92.6204848 239.897107,91.8539114 245.757484,90.1466014 L245.757484,76.3387805 C242.282174,78.0287049 238.542784,79.1101007 234.701915,79.5359455 C229.625079,79.5359455 227.086661,77.2837893 227.086661,72.7794771 C227.13983,70.8111412 227.40697,68.85443 227.883366,66.943875 L234.520846,37.7658646 L252.627767,37.7658646 L255.271377,25.4169442 L237.273098,25.4169442 L241.913643,5.58210519 Z" id="Path_277"></path>
                    <polygon id="Path_278" points="184.58713 8.04464649 175.497455 0 165.528302 0 175.171531 17.1550146 190.174408 17.1550146 206.687921 -3.67592613e-14 196.930877 -3.67592613e-14"></polygon>
                </g>
                <path d="M411.161624,152.506839 C409.641025,152.598241 408.411472,153.779576 408.259343,155.295304 C396.831435,218.274181 339.704545,262.465396 275.874639,257.703134 C212.044734,252.940873 162.1079,200.761781 160.152027,136.784359 C158.196154,72.8069366 204.852347,17.6748705 268.272147,9.02242025 C269.889272,8.88579957 271.117911,7.50954261 271.07096,5.88733615 C271.069591,5.05496119 270.737262,4.25729864 270.14723,3.67017733 C269.557197,3.08305603 268.7579,2.75467721 267.925529,2.75742545 C265.002554,2.70569139 263.828191,2.70569139 260.858656,2.68499777 L-2.20555568e-13,2.68499777 L128.745384,226.202009 C161.587531,287.273311 231.65962,318.301716 298.952988,301.571112 C366.246356,284.840507 413.629521,224.610155 414.048384,155.269437 C413.956585,153.735376 412.698237,152.531151 411.161624,152.506839 Z" id="Path_279"></path>
            </g>
        </g>
    </g>
</svg>