<?xml version="1.0" encoding="UTF-8"?>
<svg width="980px" height="680px" viewBox="0 0 980 680" version="1.1" xmlns="http://www.w3.org/2000/svg" xmlns:xlink="http://www.w3.org/1999/xlink">
    <title>HU Magyar Posta</title>
    <defs>
        <linearGradient x1="50%" y1="0%" x2="50%" y2="100%" id="linearGradient-1">
            <stop stop-color="#FFFFFF" offset="0%"></stop>
            <stop stop-color="#EDEDED" offset="100%"></stop>
        </linearGradient>
        <rect id="path-2" x="0" y="0" width="900" height="600" rx="80"></rect>
        <filter x="-6.7%" y="-10.0%" width="113.3%" height="120.0%" filterUnits="objectBoundingBox" id="filter-3">
            <feMorphology radius="2.5" operator="dilate" in="SourceAlpha" result="shadowSpreadOuter1"></feMorphology>
            <feOffset dx="0" dy="0" in="shadowSpreadOuter1" result="shadowOffsetOuter1"></feOffset>
            <feGaussianBlur stdDeviation="17.5" in="shadowOffsetOuter1" result="shadowBlurOuter1"></feGaussianBlur>
            <feColorMatrix values="0 0 0 0 0   0 0 0 0 0   0 0 0 0 0  0 0 0 0.5 0" type="matrix" in="shadowBlurOuter1"></feColorMatrix>
        </filter>
    </defs>
    <g id="HU-Magyar-Posta" stroke="none" stroke-width="1" fill="none" fill-rule="evenodd">
        <g transform="translate(40, 40)">
            <g id="Rectangle">
                <use fill="black" fill-opacity="1" filter="url(#filter-3)" xlink:href="#path-2"></use>
                <use fill="url(#linearGradient-1)" fill-rule="evenodd" xlink:href="#path-2"></use>
            </g>
            <g id="Logo" transform="translate(50, 101)" fill-rule="nonzero">
                <g id="g3800" transform="translate(400, 199.3934) scale(-1, 1) rotate(-90) translate(-400, -199.3934)translate(200.6066, -200.6066)">
                    <path d="M398.786709,320.002847 C398.786709,319.124674 398.395647,318.198475 398.038889,317.848578 C397.688992,317.49182 395.438673,315.069983 394.999587,314.452518 C394.5605,313.841913 393.99106,313.265612 393.90187,311.948352 C393.812681,310.624231 394.210603,306.706755 394.210603,305.650203 C394.210603,304.593651 393.943034,303.578263 393.503948,303.008822 C393.05114,302.411939 390.594999,299.832305 390.066723,299.304029 C389.538447,298.775753 388.571084,298.247477 388.310376,299.660787 C388.042808,301.067236 387.734075,303.537099 387.473367,304.415272 C387.205799,305.293445 386.677523,305.471824 386.018893,304.943548 C385.024087,304.147703 382.41015,301.95227 381.435926,301.245615 C380.468564,300.53896 379.67958,300.305695 379.233632,301.684702 C378.842571,302.919633 377.786019,306.528376 377.429261,307.763307 C377.079364,308.998238 376.94901,310.006766 377.957537,310.843774 C378.533838,311.317165 382.362125,314.500543 383.06878,315.028819 C383.768574,315.557095 384.166496,316.744001 383.905789,317.978932 C383.63822,319.213863 382.382707,322.980403 382.053392,324.009513 C381.65547,325.244444 381.923038,325.971681 382.41015,326.698918 C382.849236,327.357548 386.36879,329.944043 387.734075,330.527205 C389.277739,331.192695 389.936369,330.664419 390.293127,329.690196 C390.526392,329.038427 391.706437,325.258165 391.82993,324.139866 C391.91912,323.350883 392.625775,323.440072 393.154051,324.057538 C393.682327,324.675003 395.294598,326.05401 395.966949,326.788108 C396.454061,327.316384 397.688992,327.384991 398.038889,325.992263 C398.395647,324.585814 398.786709,321.237778 398.786709,320.002847" id="path3628" fill="#EF352F"></path>
                    <path d="M350.02065,295.180731 C350.596951,293.877193 350.953709,290.096931 350.878241,288.772811 C350.77533,287.023325 350.253915,285.94619 348.765137,285.170928 C343.701919,282.529548 334.357607,279.277562 325.644482,277.905417 C315.030934,276.231399 307.504715,275.360086 296.53441,275.661958 C294.908418,275.703123 293.275564,277.116433 293.14521,279.092323 C293.014856,281.075073 293.117767,285.047435 293.543133,286.755756 C293.851865,287.990688 295.079936,289.486326 297.062686,289.486326 C303.758757,289.486326 315.051517,289.115847 322.275864,290.254728 C329.918715,291.469077 338.103565,292.704008 346.782386,296.038322 C348.284886,296.614623 349.622728,296.072626 350.02065,295.180731" id="path3630" fill="#EF352F"></path>
                    <path d="M306.400138,350.210635 C307.285172,351.267187 308.698482,351.76116 310.454828,351.623945 C329.58254,350.114585 345.629784,339.693138 354.137087,331.192695 C366.115919,319.213863 374.568337,302.123788 374.568337,283.805643 C374.568337,265.487498 366.733385,248.84337 354.754553,236.864538 C342.775721,224.885706 324.018489,216.16572 309.569795,216.16572 C304.81531,216.16572 301.247731,216.858654 297.858531,222.594223 C294.421306,228.412121 287.732095,239.945005 285.70132,261.521997 C291.340839,248.93256 297.151876,241.269126 301.906361,237.214435 C306.667706,233.166606 309.926552,233.784071 312.91783,234.483865 C315.909108,235.190521 331.325165,236.59697 345.856188,251.134854 C358.184917,263.463583 359.769745,277.116433 359.948124,286.097127 C360.195111,298.638538 355.028982,312.332553 344.27136,323.083314 C330.05593,337.298744 314.61243,341.765078 304.81531,343.164667 C302.352308,343.521425 302.523826,344.577977 303.052102,345.806047 C303.580378,347.040978 306.400138,350.210635 306.400138,350.210635" id="path3632" fill="#EF352F"></path>
                    <path d="M35.3121699,292.525629 C48.2789469,271.037827 55.7502804,244.69949 55.7502804,220.220411 C55.7502804,206.697915 53.1020391,187.453571 42.2758094,160.854526 C38.7013699,152.086515 36.72548,142.893139 36.72548,136.553826 C33.9949101,153.458661 38.8385844,176.270584 38.8385844,199.960679 C38.8385844,215.843266 36.8558339,239.464754 31.1751506,263.106825 C25.4944674,286.755756 13.8723932,313.841913 0,330.746748 C13.5430782,321.388714 25.9609969,308.030876 35.3121699,292.525629" id="path3634" fill="#3BA445"></path>
                    <path d="M285.351423,76.0421999 C291.498635,84.3642637 300.342115,92.0757226 309.000354,100.288015 C340.834135,130.495803 374.829045,146.419554 384.612444,136.107879 C394.402703,125.789343 376.530505,92.9333136 344.689864,62.7255258 C312.856083,32.5108771 280.747874,14.2887821 270.964475,24.6004571 C268.817067,26.8576368 267.492946,30.3291655 266.724545,34.9601572 C260.865482,70.100809 243.535282,108.8159 223.522537,138.399362 C236.647111,109.776402 250.889983,69.0854211 250.478339,24.6553429 C250.402871,17.0467949 252.74238,9.17753927 256.851956,5.06796286 C272.137659,-10.2246011 313.597042,10.4467741 352.017122,48.866854 C390.430341,87.2800733 408.851398,131.154433 393.154051,146.851779 C389.627636,150.378194 384.605583,152.402109 378.623028,152.402109 C375.933622,152.402109 372.324879,152.669677 370.163749,152.669677 C323.325555,152.669677 248.88665,196.043203 248.88665,281.870918 C248.88665,324.146727 267.170492,350.306685 283.025636,366.54603 C297.844809,381.728822 313.151095,388.006389 326.303111,392.664823 C330.453852,394.133019 337.095038,395.086661 339.866772,396.801843 C342.027901,398.139685 343.962627,399.799981 343.962627,404.286898 C343.962627,410.104795 340.971349,416.615627 335.949296,423.750785 C330.927243,430.885942 323.929299,435.818806 319.833444,435.818806 C318.289781,435.818806 317.013685,434.981797 316.704952,433.746866 C316.567738,433.211729 316.615763,432.690314 317.192064,432.999047 C317.761504,433.307779 319.421801,433.884081 322.474825,431.681787 C324.848637,429.959744 329.802083,424.670122 331.016432,414.111461 C331.551569,409.48733 331.160507,406.880253 323.572542,404.02619 C316.814724,401.48086 295.814034,395.813898 272.316038,377.516335 C247.75463,358.388623 224.318381,325.614923 224.318381,282.261979 C224.318381,208.104364 276.796094,167.831887 330.467574,149.95969 C335.386716,148.319975 345.197558,145.664873 349.135616,145.575684 C349.691335,145.561963 349.64331,145.44533 349.224806,145.205205 C348.778858,144.944497 347.75661,144.354474 347.221473,144.100627 C322.515989,132.499135 293.412779,102.60008 285.351423,76.0421999" id="path3636" fill="#3BA445"></path>
                    <path d="M164.870168,678.585687 C164.870168,665.865896 158.661209,657.187074 146.421669,657.187074 C135.190656,657.187074 105.024033,657.187074 94.986787,657.187074 C92.2630778,657.187074 89.7863548,656.569609 89.7863548,653.928228 C89.7863548,651.286848 94.7192186,650.449839 99.8716258,650.449839 L99.8716258,645.825708 C96.4412615,645.825708 92.9217077,646.113858 89.8343799,646.950867 C84.5516189,648.377899 79.2619972,653.598913 79.2619972,659.698101 C79.2619972,665.948224 85.1416415,670.510609 89.806937,671.519136 C90.2048592,671.608326 90.1362519,671.821008 89.8343799,671.985666 C84.9632626,674.606464 79.7902733,679.8412 79.7902733,688.890501 C79.7902733,697.082211 85.9374861,704.814252 98.5543659,704.814252 C112.159191,704.814252 123.45195,695.826697 130.786069,677.86531 C131.451559,676.218735 133.297095,673.433279 136.864674,673.433279 L147.958472,673.433279 C153.241233,673.433279 159.189485,675.944306 159.189485,682.681541 C159.189485,687.484051 157.007773,691.209427 155.09363,692.986356 C154.277203,693.747897 153.954749,693.418582 154.613379,692.362029 C154.935833,691.854336 155.107351,690.790923 155.107351,690.097989 C155.107351,687.532077 152.781565,683.347032 146.970527,683.347032 C141.15949,683.347032 137.687962,688.629793 137.687962,692.526687 C137.687962,696.732314 140.384228,702.193454 148.047662,702.193454 C156.191347,702.193454 164.870168,694.53002 164.870168,678.585687 L164.870168,678.585687 Z M118.985616,684.184041 C115.363151,686.859725 108.721966,688.588629 103.130472,688.588629 C98.9042631,688.588629 89.2169143,687.971163 89.2169143,681.5358 C89.2169143,674.935779 98.4720372,673.433279 100.585142,673.433279 C102.691385,673.433279 123.870454,673.433279 123.870454,673.433279 C125.853205,673.44014 126.944061,672.349284 127.239072,672.548245 C127.582108,672.774649 127.081275,673.543051 126.820568,674.050745 C125.571915,676.506886 122.662966,681.460332 118.985616,684.184041" id="path3638" fill="#005D26"></path>
                    <path d="M164.341892,613.985066 C164.341892,611.611254 163.683262,607.975068 163.052075,607.350742 C162.715899,607.014566 162.523799,606.897934 163.319644,606.719555 C164.108627,606.548037 173.061878,601.656337 173.061878,593.382298 C173.061878,587.482072 168.65729,585.979572 166.105099,585.979572 C162.578685,585.979572 158.39364,588.051512 158.39364,592.366911 C158.39364,595.18667 160.733149,597.876076 163.546048,597.876076 C164.177235,597.876076 165.158319,597.608507 165.659152,597.44385 C166.159985,597.279192 166.256035,597.526178 165.988467,597.937822 C165.233787,599.124728 162.15332,601.68378 161.343754,602.184613 C160.74001,602.561953 160.45872,602.397296 160.410695,601.704362 C160.36953,601.169225 160.060798,600.83991 159.683457,600.345938 C157.439999,597.409546 149.893198,590.034263 135.629743,590.034263 C121.716186,590.034263 112.035698,597.930961 109.030698,606.76758 C107.53506,611.172168 108.241715,615.309187 106.567697,619.713775 C104.893679,624.118362 103.308851,625.703191 100.838989,625.703191 C98.4994801,625.703191 96.7705765,624.029173 96.3589328,617.497759 C96.3589328,617.497759 95.8649603,605.285662 95.6385563,603.158837 C94.3212964,590.603703 86.4657622,584.134036 76.7989956,584.134036 C63.4137142,584.134036 52.422827,593.622424 52.422827,615.816881 C52.422827,633.538143 60.2371968,641.379955 67.4203797,641.379955 C73.7116677,641.379955 78.9326822,637.174329 81.9719849,629.414845 C82.2121104,628.790519 82.4796789,628.811101 82.6649185,629.380541 C84.7094156,635.685551 90.2391629,638.299488 94.2869927,638.299488 C100.303852,638.299488 106.31385,633.737104 110.27249,624.591753 C110.430287,624.234995 110.588084,624.337906 110.773323,624.687803 C115.397455,633.675357 124.810374,637.94273 137.036192,637.94273 C153.309841,637.94273 164.341892,627.164526 164.341892,613.985066 L164.341892,613.985066 Z M138.092745,621.476982 C117.311598,621.476982 112.817821,618.780716 112.817821,614.218331 C112.817821,609.065924 116.783322,606.856769 135.101467,606.856769 C156.678458,606.856769 159.587407,609.992122 159.587407,614.184027 C159.587407,618.417097 156.019828,621.476982 138.092745,621.476982 Z M69.6226735,630.368486 C64.1340907,630.368486 57.1978941,625.284686 57.1978941,613.395044 C57.1978941,601.505401 63.214753,593.643006 71.1388945,593.643006 C79.063036,593.643006 79.7902733,602.561953 80.0578417,605.333688 L81.1761404,621.257439 C79.7902733,624.029173 75.9619867,630.368486 69.6226735,630.368486" id="path3640" fill="#005D26"></path>
                    <path d="M163.546048,580.086206 L163.546048,551.991523 L158.613184,551.991523 C158.613184,554.056602 157.776175,557.576156 152.850172,556.348086 L118.258378,547.525189 C115.678744,546.832255 113.140275,547.285063 113.140275,546.674458 C113.140275,546.111879 115.72677,546.173625 118.203493,545.473831 L151.484887,536.438251 C153.419612,535.909975 156.280536,536.657795 157.426278,538.908114 C158.503412,541.021218 158.613184,542.7364 158.613184,543.532245 L163.546048,543.532245 L163.546048,521.872925 L158.613184,521.872925 C158.613184,523.540082 158.304451,528.51411 151.128129,530.318481 L80.1470311,549.871558 C76.6206167,550.92811 66.4118526,553.08924 61.4927102,555.929581 C57.3351087,558.323975 52.4022448,563.256839 52.4022448,569.513824 C52.4022448,575.763947 56.7176431,580.168535 62.5286802,580.168535 C68.3397173,580.168535 71.7769423,575.544404 71.7769423,571.407385 C71.7769423,567.263505 68.5180962,563.613597 64.202698,563.613597 C62.583566,563.613597 61.293749,563.791976 60.3401078,564.436885 C59.3109985,565.129818 58.7552795,565.80903 58.6112042,565.726702 C58.2407248,565.507158 59.0434301,564.731896 60.1754503,563.716508 C61.5201531,562.50902 63.7704721,560.663484 67.461544,559.380528 C73.3206062,557.356613 81.1143939,555.682595 81.1143939,555.682595 C83.0971444,555.154319 84.9907055,555.154319 87.2753281,555.771784 L153.378448,573.520489 C156.019828,574.268309 157.913389,575.194507 158.702373,580.079346 L163.546048,580.086206" id="path3642" fill="#005D26"></path>
                    <path d="M161.700512,197.319299 L157.007773,197.250692 L157.007773,189.786219 C156.966609,187.872076 157.659543,186.726334 157.378253,186.445044 C157.117545,186.184336 156.417751,186.945877 153.87242,187.014485 L95.3778486,187.014485 C90.8909321,187.014485 79.5295656,185.162088 79.5295656,170.830026 C79.5295656,156.429357 92.208192,151.914997 103.308851,151.914997 L106.210939,151.94244 L106.210939,157.225201 C92.8668219,157.225201 88.0505905,160.662426 88.0505905,164.422105 C88.0505905,168.188645 91.549562,170.438964 95.5768097,170.438964 C99.6109181,170.438964 154.112546,170.438964 154.112546,170.438964 C156.019828,170.425243 157.076381,171.028987 157.275342,170.830026 C157.467442,170.631065 157.062659,169.73917 157.007773,168.318999 L157.007773,154.515213 L163.546048,154.453467 L163.546048,168.291556 C163.504883,169.512766 162.914861,170.267446 163.154986,170.500711 C163.347087,170.699672 164.376196,170.11651 165.268091,170.171396 L197.630147,170.466407 L197.630147,176.538152 C188.381885,176.538152 169.274756,180.84669 161.700512,197.319299" id="path3644" fill="#005D26"></path>
                    <path d="M163.875363,458.36316 L164.540853,434.618179 L152.102352,434.391775 C152.102352,434.391775 148.459306,434.947494 148.452445,434.522128 C148.445584,434.048738 150.510663,433.561626 152.26701,432.834389 C157.666403,430.58407 165.233787,425.30817 165.233787,417.21251 C165.233787,410.180263 159.786368,406.976303 155.162237,406.976303 C149.316897,406.976303 144.857423,410.838893 144.857423,416.389223 C144.857423,421.939552 149.543301,425.369916 153.803813,424.676983 C154.730011,424.526047 155.031883,424.752451 154.236039,425.239563 C144.589855,431.084903 129.76382,433.829195 116.289349,433.829195 L91.6799159,433.829195 C86.596116,433.829195 86.596116,431.0506 86.596116,424.766172 L81.3545194,424.766172 L81.3751016,457.773138 L86.596116,457.752555 C86.596116,452.42863 87.5634787,450.17145 91.6387515,450.17145 L153.440194,450.205754 C156.946027,450.205754 158.462248,452.552123 158.462248,455.852134 L158.462248,458.36316 L163.875363,458.36316" id="path3646" fill="#005D26"></path>
                    <path d="M134.175269,346.691081 L91.9474843,346.67736 C87.3645176,347.075282 86.1295865,341.051562 86.1295865,338.01226 L81.3751016,338.01226 L81.3751016,373.454783 L86.1295865,373.454783 C86.1295865,370.669328 87.3233532,366.36079 91.9886487,366.141247 L196.354052,366.141247 C198.906243,366.36079 201.026208,369.002171 201.067372,373.454783 L206.089425,373.454783 L206.096286,338.540536 C206.096286,308.689506 183.202035,304.065375 172.499298,304.065375 C163.978274,304.065375 135.773818,308.421937 135.773818,341.518092 C135.773818,342.451151 135.842426,343.590032 135.945337,344.481927 C136.041387,345.373821 136.679435,346.615613 136.281512,346.917485 C135.890451,347.212497 135.259264,346.691081 134.175269,346.691081 L134.175269,346.691081 Z M195.091678,346.732246 L144.178211,346.704803 C142.792344,346.704803 142.174878,347.274243 141.91417,346.951789 C141.612298,346.58131 142.140574,346.080476 142.126853,344.674027 C142.058246,333.635115 146.634352,325.463987 172.760006,325.463987 C191.606427,325.463987 200.772361,329.957764 200.772361,339.99501 C200.772361,343.493982 199.578594,346.732246 195.091678,346.732246" id="path3648" fill="#005D26"></path>
                    <path d="M165.398444,282.131625 C165.398444,273.411639 156.280536,254.654407 122.333651,254.654407 C101.195746,254.654407 79.2619972,264.959222 79.2619972,281.870918 C79.2619972,300.189063 101.147721,310.137119 121.976893,310.137119 C156.239372,310.137119 165.398444,291.558266 165.398444,282.131625 Z M121.187909,291.729785 C98.8356558,291.729785 84.3526578,289.99402 84.3526578,282.200233 C84.3526578,274.715178 100.66747,273.150932 121.009531,273.150932 C145.625825,273.150932 160.643959,274.73576 160.643959,282.399194 C160.643959,288.848279 150.599853,291.729785 121.187909,291.729785" id="path3650" fill="#005D26"></path>
                    <path d="M110.107833,219.445148 C110.73902,220.39879 117.263573,230.113581 118.896426,232.658912 C123.980226,240.583053 131.575053,245.673714 142.936419,245.673714 C154.297786,245.673714 164.801561,238.538556 164.801561,227.307543 C164.801561,218.786519 159.848115,216.412706 159.848115,213.963426 C159.848115,211.918929 163.546048,209.339295 164.801561,208.680665 L164.801561,204.255495 L135.4102,204.255495 L135.4102,209.407903 C153.110879,214.56031 159.587407,220.110639 159.5188,226.978228 C159.463914,232.988227 155.354338,235.698214 150.201931,235.698214 C145.049523,235.698214 141.289844,232.727519 137.193989,226.847875 C136.706877,226.14808 127.438033,212.234523 127.019529,211.651361 C123.918479,207.356545 116.454007,199.960679 104.228188,199.960679 C92.0092308,199.960679 79.9892344,208.35135 79.9892344,221.029977 C79.9892344,229.091333 84.7437193,231.931674 84.7437193,234.970977 C84.7437193,237.941673 82.0405922,239.396147 80.0578417,240.720268 L80.0578417,245.406145 L113.28435,245.406145 L113.28435,240.384092 C102.780575,237.482004 85.5395638,232.727519 85.5395638,220.96823 C85.5395638,213.572365 90.8223248,210.533062 96.1050858,210.533062 C102.382652,210.533062 107.006783,214.759271 110.107833,219.445148" id="path3652" fill="#005D26"></path>
                    <path d="M145.138713,755.391543 L206.089425,744.91521 L206.089425,713.644009 L201.067372,713.644009 C201.026208,718.089762 198.906243,720.731142 196.354052,720.731142 L91.9886487,720.731142 C87.3233532,720.731142 86.1295865,716.429465 86.1295865,713.644009 L81.3751016,713.644009 L81.3751016,747.419376 L86.1295865,747.419376 C86.1295865,744.81916 87.1929994,740.284219 91.7691053,740.284219 L186.968575,740.20189 C189.301223,740.20189 197.040125,739.529538 197.170478,740.195029 C197.266529,740.709584 192.319943,740.798773 186.968575,741.71125 L81.3751016,760.461621 L81.3751016,765.648332 L186.872525,783.774377 C192.217032,784.686854 197.170478,784.776043 197.067567,785.297459 C196.944074,785.956089 189.205172,785.290598 186.865664,785.290598 L102.115084,785.242573 C98.2456331,785.242573 96.0433392,785.208269 93.6626664,784.981865 C88.0711726,784.453589 86.1295865,779.637358 86.1227257,776.563751 L81.3682408,776.563751 L81.3751016,800 L86.1295865,800 C86.1295865,796.51475 88.4210698,792.542388 92.6953037,792.117023 C95.2131911,791.863176 102.115084,791.842594 102.115084,791.842594 L194.858413,791.842594 C199.770694,791.842594 201.108537,795.238654 201.108537,799.073802 L201.108537,800 L206.089425,800 L206.089425,767.246882 L145.083827,756.859739 C141.728931,756.283438 138.977779,756.839157 138.977779,756.221691 C138.977779,755.851212 142.490472,755.851212 145.138713,755.391543" id="path3654" fill="#005D26"></path>
                    <path d="M164.959358,496.200078 C164.959358,483.473427 158.750398,474.801466 146.503998,474.801466 C135.279846,474.801466 105.113222,474.801466 95.0691158,474.801466 C92.3522673,474.801466 89.8755443,474.184 89.8755443,471.54262 C89.8755443,468.894379 94.8084081,468.06423 99.9608153,468.06423 L99.9608153,463.440099 C96.530451,463.440099 93.0108972,463.721389 89.9167086,464.558398 C84.6339476,465.99229 79.3511866,471.206444 79.3511866,477.305632 C79.3511866,483.562616 85.230831,488.11814 89.8961264,489.133528 C90.287188,489.215857 90.2254414,489.428539 89.9167086,489.593197 C85.0524521,492.213995 79.8794627,497.455592 79.8794627,506.504893 C79.8794627,514.696602 86.0198148,522.421783 98.6366946,522.421783 C112.24838,522.421783 123.541139,513.441089 130.875258,495.472841 C131.540749,493.833127 133.379424,491.047671 136.947003,491.047671 L148.047662,491.047671 C153.330423,491.047671 159.278674,493.558698 159.278674,500.295933 C159.278674,505.098443 157.096963,508.816958 155.18282,510.600747 C154.366393,511.355428 154.043939,511.026113 154.702569,509.96956 C155.018162,509.461867 155.196541,508.405314 155.196541,507.712381 C155.196541,505.139608 152.870754,500.954563 147.059717,500.954563 C141.241819,500.954563 137.777151,506.237324 137.777151,510.134218 C137.777151,514.339845 140.473417,519.800985 148.136851,519.800985 C156.280536,519.800985 164.959358,512.137551 164.959358,496.200078 L164.959358,496.200078 Z M119.074805,501.791572 C115.45234,504.467256 108.811155,506.19616 103.219661,506.19616 C98.9934525,506.19616 89.3061038,505.578694 89.3061038,499.150192 C89.3061038,492.54331 98.5612266,491.047671 100.66747,491.047671 C102.780575,491.047671 123.959644,491.047671 123.959644,491.047671 C125.942394,491.047671 127.026389,489.956815 127.328262,490.155776 C127.664437,490.38218 127.170465,491.157443 126.909757,491.665137 C125.661104,494.114417 122.745295,499.074723 119.074805,501.791572" id="path3656" fill="#005D26"></path>
                    <path d="M164.959358,120.787872 C164.959358,108.06122 158.750398,99.3823985 146.503998,99.3823985 C135.279846,99.3823985 105.113222,99.3823985 95.0691158,99.3823985 C92.3522673,99.3823985 89.8755443,98.7717937 89.8755443,96.1304132 C89.8755443,93.4821719 94.8084081,92.6520238 99.9608153,92.6520238 L99.9608153,88.021032 C96.530451,88.021032 93.0108972,88.3091826 89.9167086,89.1461915 C84.6339476,90.5800837 79.3511866,95.7942375 79.3511866,101.893425 C79.3511866,108.15041 85.230831,112.705933 89.8961264,113.721321 C90.287188,113.80365 90.2254414,114.016333 89.9167086,114.18099 C85.0524521,116.801788 79.8794627,122.043385 79.8794627,131.092686 C79.8794627,139.284396 86.0198148,147.009576 98.6366946,147.009576 C112.24838,147.009576 123.541139,138.028883 130.875258,120.060634 C131.540749,118.42092 133.379424,115.635464 136.947003,115.635464 L148.047662,115.635464 C153.330423,115.635464 159.278674,118.146491 159.278674,124.883727 C159.278674,129.679376 157.096963,133.404751 155.18282,135.188541 C154.366393,135.943221 154.043939,135.613906 154.702569,134.557354 C155.018162,134.04966 155.196541,132.993108 155.196541,132.300174 C155.196541,129.727401 152.870754,125.542357 147.059717,125.542357 C141.241819,125.542357 137.777151,130.825118 137.777151,134.722011 C137.777151,138.927638 140.473417,144.388778 148.136851,144.388778 C156.280536,144.388778 164.959358,136.725344 164.959358,120.787872 L164.959358,120.787872 Z M119.074805,126.379365 C115.45234,129.05505 108.811155,130.783953 103.219661,130.783953 C98.9934525,130.783953 89.3061038,130.166488 89.3061038,123.737985 C89.3061038,117.131103 98.5612266,115.635464 100.66747,115.635464 C102.780575,115.635464 123.959644,115.635464 123.959644,115.635464 C125.942394,115.635464 127.026389,114.544609 127.328262,114.74357 C127.664437,114.969974 127.170465,115.745236 126.909757,116.25293 C125.661104,118.70221 122.745295,123.662517 119.074805,126.379365" id="path3658" fill="#005D26"></path>
                </g>
            </g>
        </g>
    </g>
</svg>