<?xml version="1.0" encoding="UTF-8"?>
<svg width="980px" height="680px" viewBox="0 0 980 680" version="1.1" xmlns="http://www.w3.org/2000/svg" xmlns:xlink="http://www.w3.org/1999/xlink">
    <title>ID Pos Indonesia text</title>
    <defs>
        <rect id="path-1" x="0" y="0" width="900" height="600" rx="80"></rect>
        <filter x="-6.7%" y="-10.0%" width="113.3%" height="120.0%" filterUnits="objectBoundingBox" id="filter-2">
            <feMorphology radius="2.5" operator="dilate" in="SourceAlpha" result="shadowSpreadOuter1"></feMorphology>
            <feOffset dx="0" dy="0" in="shadowSpreadOuter1" result="shadowOffsetOuter1"></feOffset>
            <feGaussianBlur stdDeviation="17.5" in="shadowOffsetOuter1" result="shadowBlurOuter1"></feGaussianBlur>
            <feColorMatrix values="0 0 0 0 0   0 0 0 0 0   0 0 0 0 0  0 0 0 0.5 0" type="matrix" in="shadowBlurOuter1"></feColorMatrix>
        </filter>
    </defs>
    <g id="ID-Pos-Indonesia-text" stroke="none" stroke-width="1" fill="none" fill-rule="evenodd">
        <g transform="translate(40, 40)">
            <g id="Rectangle">
                <use fill="black" fill-opacity="1" filter="url(#filter-2)" xlink:href="#path-1"></use>
                <use fill="#FF6F00" fill-rule="evenodd" xlink:href="#path-1"></use>
            </g>
            <g id="Logo" transform="translate(50, 204.5074)" fill="#FFFFFF" fill-rule="nonzero">
                <g id="Group_6">
                    <path d="M57.3868566,116.491269 C64.8809406,114.875551 72.7071195,116.603771 78.8239007,121.225116 C83.2094507,124.715116 85.7540759,130.022197 85.7294033,135.626886 C85.70437,141.231574 83.1127794,146.51588 78.6964509,149.96685 C69.3590815,156.959087 56.5101973,156.886175 47.2527827,149.78842 C40.7353476,144.546248 38.5969125,135.55493 42.0564752,127.939895 C43.4646576,125.027461 45.5635829,122.5035 48.1704207,120.587867 C50.9023546,118.57359 54.0459015,117.18834 57.3759324,116.531324 L57.3868566,116.491269 Z M60.4492915,128.853892 C58.1255481,129.749412 56.4304697,131.783355 55.9684864,134.230457 C55.5065031,136.67756 56.3433733,139.189503 58.1806864,140.870581 C60.2604105,142.560838 63.0599427,143.070468 65.6019019,142.221548 C67.675455,141.440397 69.2758644,139.750905 69.9436586,137.638117 C70.6114528,135.52533 70.2727673,133.222943 69.0248374,131.391962 C67.0492128,128.711537 63.5330545,127.670373 60.4165187,128.842968 L60.4492915,128.853892 Z" id="Path_107"></path>
                    <path d="M101.393427,116.815355 C108.457179,115.247978 115.84106,116.062292 122.3935,119.131299 C121.116949,122.465661 119.665653,125.730469 118.045644,128.912155 C114.858876,126.800641 111.007843,125.932474 107.223341,126.472403 C106.929695,126.526663 106.656458,126.660134 106.433153,126.858393 C106.221887,127.04447 106.073116,127.291149 106.007107,127.564829 C105.945142,127.8331 105.971978,128.114238 106.083577,128.365942 C106.201735,128.62699 106.394267,128.847388 106.637072,128.999549 C110.540676,131.23174 115.88264,130.456117 119.360197,133.412951 C122.852151,136.096368 124.174609,140.750117 122.615627,144.868861 C120.630978,150.059109 115.987334,153.764544 110.486054,154.547757 C102.900815,155.88281 95.0870487,154.598707 88.3280089,150.906336 C89.8974612,147.436062 91.445065,143.987637 93.1710985,140.564701 C96.8125192,142.567483 101.014719,145.131043 105.551929,144.100521 C105.883257,144.043402 106.192863,143.897409 106.447719,143.678116 C106.689755,143.471593 106.862609,143.195789 106.942952,142.887928 C107.018802,142.587397 106.99451,142.270324 106.873765,141.984855 C106.747093,141.686484 106.534035,141.432843 106.262006,141.256571 C103.177723,139.752664 99.3833623,139.934735 96.3391345,138.317945 C94.5865459,137.508028 93.0965143,136.222386 92.0386166,134.607337 C91.036733,133.069271 90.5425767,131.255666 90.6257454,129.421954 C90.8804375,123.246407 95.3334707,118.049697 101.397068,116.851769 L101.393427,116.815355 Z" id="Path_108"></path>
                    <path d="M284.870053,116.483986 C292.179329,114.916543 299.81084,116.494383 305.899258,120.831842 C313.622799,126.647379 315.510222,137.457457 310.214342,145.546165 C308.043707,148.635117 305.102254,151.102021 301.682493,152.701557 C298.12063,154.385746 294.207986,155.194742 290.27028,155.061197 C286.274233,155.118389 282.325321,154.193057 278.770673,152.366546 C275.368098,150.63397 272.498858,148.011384 270.468234,144.777825 C267.878153,140.310288 267.244526,134.972544 268.716711,130.022788 C269.86508,126.605296 271.94775,123.577793 274.728696,121.283378 C277.657416,118.865094 281.143075,117.215508 284.870053,116.483986 Z M287.856018,128.864816 C285.835734,129.709055 284.29982,131.413835 283.67013,133.510922 C283.040439,135.608009 283.383185,137.876893 284.604229,139.694402 C286.772283,142.357667 290.402875,143.332086 293.613104,142.112305 C297.187611,140.324361 298.757735,136.066696 297.199904,132.38607 C296.427181,130.761951 295.043599,129.509267 293.350922,128.901231 C291.586295,128.240561 289.644679,128.22637 287.870584,128.861175 L287.856018,128.864816 Z" id="Path_109"></path>
                    <path d="M408.438025,119.255107 C416.059519,114.197174 426.951008,115.409767 434.871099,119.33886 C433.484839,122.619758 431.914091,125.819609 430.166383,128.923079 C426.985895,126.65656 423.002461,125.823432 419.180217,126.625343 C417.556143,127.317213 418.451932,129.174337 419.908501,129.538479 C423.852159,130.900371 428.567799,130.860315 431.856002,133.544042 C436.134104,137.152088 436.854498,143.471114 433.498283,147.949503 C429.687412,152.871964 423.657706,155.549553 417.450542,155.075763 C411.691541,155.056007 406.011903,153.731339 400.83838,151.201291 C402.043378,147.544411 403.612188,144.017637 405.521247,140.673944 C409.213648,142.440033 413.029857,145.043649 417.490597,144.217046 C417.848341,144.215559 418.199606,144.121471 418.510195,143.94394 C418.806167,143.774058 419.045538,143.520754 419.198424,143.215656 C419.348028,142.928035 419.399194,142.599293 419.344081,142.27981 C419.289234,141.954034 419.133904,141.653558 418.899827,141.420435 C415.211068,139.341184 410.207756,139.927453 406.883139,137.214594 C400.521577,132.713798 402.236686,123.275235 408.438025,119.258748 L408.438025,119.255107 Z" id="Path_110"></path>
                    <path d="M0.118232293,116.822638 C7.98370114,116.822638 15.892867,116.458496 23.7401288,117.106669 C29.0142981,117.07506 33.7937872,120.20734 35.8697013,125.05589 C37.8938513,130.133581 36.753844,135.926243 32.9565647,139.858266 C28.0697781,143.572515 21.3040183,143.051792 15.2847498,143.212014 C15.1900728,146.878925 15.4850279,150.55676 15.0735474,154.212746 C10.1539879,154.099862 5.24171131,154.063448 0.336717539,154.212746 C0.0968935039,153.065809 -0.0154585181,151.895882 0.00170682902,150.724265 C0.129156556,139.38124 -0.103894373,128.107401 0.118232293,116.811714 L0.118232293,116.822638 Z M15.3430125,127.149707 C15.3430125,129.287221 15.3430125,131.432018 15.503235,133.576815 C17.3125305,133.670839 19.1208497,133.374006 20.8051436,132.706515 C21.2098345,132.446435 21.5488366,132.096216 21.7956101,131.683276 C22.2767702,130.878579 22.3057224,129.881797 21.8720799,129.050529 C21.6499422,128.627375 21.3319612,128.262009 20.9435176,127.983593 C19.363141,126.891166 17.1892128,127.331778 15.3357297,127.189763 L15.3430125,127.149707 Z" id="Path_111"></path>
                    <path d="M148.957665,116.826279 C154.055654,116.749809 159.153643,116.771658 164.251632,116.826279 C164.390006,129.170696 164.506531,141.540602 164.186086,153.874094 C159.350279,154.602378 154.168538,153.874094 149.205281,154.238236 C148.820443,151.38837 148.710695,148.508088 148.877553,145.6372 C148.877553,136.034774 148.771952,126.432347 148.943099,116.829921 L148.957665,116.826279 Z" id="Path_112"></path>
                    <path d="M172.57592,116.848128 C177.528252,116.848128 182.487867,116.629643 187.418351,116.848128 C192.137632,123.009412 195.779053,129.79702 200.618501,135.881834 C199.853803,129.560328 200.323546,123.180559 200.163323,116.837204 C205.059022,116.603005 209.963746,116.630962 214.856456,116.920956 C214.718082,129.319994 214.922002,141.729956 214.761779,154.139918 C209.802164,153.874094 204.784286,154.347479 199.857444,153.932357 C195.247405,147.86575 191.631474,141.220157 186.890345,135.237303 C187.323674,141.456849 187.1853,147.705527 187.079699,153.943281 C182.236609,154.008827 177.368029,154.190898 172.535864,153.848604 C172.619617,141.496905 172.535864,129.141564 172.535864,116.789865 L172.57592,116.848128 Z" id="Path_113"></path>
                    <path d="M222.583551,116.822638 C229.97893,116.58984 237.381456,116.750289 244.759803,117.303305 C248.673474,117.709767 252.412964,119.132004 255.607596,121.429035 C258.640975,123.593747 260.97099,126.602505 262.30781,130.081051 C263.225445,133.505482 263.225445,137.111139 262.30781,140.53557 C259.380826,147.995826 252.400641,153.08794 244.402944,153.597346 C237.131906,154.110527 229.838521,154.232084 222.55442,153.961488 L222.55442,116.811714 L222.583551,116.822638 Z M237.67724,128.3623 L237.67724,142.673084 C241.353666,143.272182 245.042839,141.678516 247.126727,138.591051 C248.167065,135.82632 247.626183,132.714854 245.713856,130.4634 C243.451585,128.680148 240.548618,127.920098 237.70273,128.365942 L237.67724,128.3623 Z" id="Path_114"></path>
                    <path d="M319.620131,116.793507 C324.590671,116.877259 329.597624,116.556814 334.549957,116.942805 C339.04347,123.216973 343.034467,129.767889 347.589884,136.02385 C347.225742,129.625873 347.127424,123.216973 347.225742,116.800789 C352.134377,116.848128 357.057578,116.564097 361.940724,116.990143 C361.795067,129.370974 361.882461,141.770012 361.940724,154.161766 C356.886432,154.096221 351.817574,154.161766 346.75964,154.161766 C342.659401,147.818411 338.50454,141.478698 334.040158,135.317414 C334.284133,141.555168 334.291416,147.803846 334.145759,154.041599 C329.302669,154.125352 324.455938,154.147201 319.609207,154.041599 C319.553372,141.62921 319.553372,129.219248 319.609207,116.811714 L319.620131,116.793507 Z" id="Path_115"></path>
                    <path d="M369.686026,116.822638 C379.120947,116.822638 388.577716,116.59687 398.012638,116.964653 C397.907036,120.292912 398.012638,123.581115 397.917961,126.945788 C393.500917,126.898449 389.080233,126.945788 384.659548,126.945788 C384.595343,128.091937 384.595343,129.240781 384.659548,130.38693 C388.559509,130.499814 392.463112,130.518021 396.312094,130.38693 C396.776143,133.55347 396.889712,136.761515 396.650746,139.952943 C392.721653,140.102241 388.785277,140.065827 384.841619,139.952943 C384.507502,141.269107 384.446775,142.639799 384.663189,143.980354 C389.189475,143.980354 393.726685,143.896601 398.252971,143.980354 C398.424683,147.38051 398.340694,150.788761 398.001713,154.176332 C388.639621,154.063448 379.270245,154.023392 369.893587,154.176332 C369.678167,153.051765 369.5695,151.909335 369.5695,150.764321 C369.664177,139.421295 369.5695,128.081911 369.635046,116.738885 L369.686026,116.822638 Z" id="Path_116"></path>
                    <path d="M440.904933,116.869976 C446.086675,116.768017 451.293906,116.626001 456.468365,116.946446 C456.308143,129.13064 456.468365,141.322117 456.384613,153.502669 L456.02047,154.005185 C451.016129,154.242833 446.001826,154.16743 441.006893,153.779417 C440.79569,141.493264 441.006893,129.20711 440.894009,116.917315 L440.904933,116.869976 Z" id="Path_117"></path>
                    <path d="M473.845225,117.019275 C479.586532,116.703685 485.333908,116.653919 491.087352,116.869976 C496.014195,129.298145 501.017507,141.697183 505.853314,154.165408 C500.449445,154.165408 495.034652,154.052524 489.612577,154.223671 C488.990071,152.695282 488.518094,151.10983 488.203347,149.489824 C484.259688,149.489824 480.305106,149.376939 476.383295,149.555369 C476.157527,151.084766 475.818875,152.599597 475.5749,154.128994 C470.181956,154.212746 464.792653,154.027034 459.406992,154.252802 C459.794508,152.008814 460.508517,149.833662 461.526299,147.796563 C465.63018,137.542322 470.010809,127.353627 473.859791,117.022916 L473.845225,117.019275 Z M479.274583,140.488231 C481.295572,140.564701 483.323843,140.571984 485.370322,140.488231 C484.481815,136.28239 482.897797,132.218565 482.18772,127.97631 C481.57078,132.213651 480.581336,136.388326 479.230886,140.451817 L479.274583,140.488231 Z" id="Path_118"></path>
                    <path d="M618.697302,5.14390448 C641.716616,-2.42972347 666.672717,-1.61840511 689.151511,7.43435814 C706.488634,14.360886 721.470333,26.123283 732.313271,41.3214198 C728.762886,41.2231014 725.172445,41.6309405 721.636625,41.3214198 C708.050193,25.0246923 689.202563,13.9801228 668.344432,10.0925953 C664.575938,9.25512119 660.723154,8.85676802 656.863033,8.90549213 C666.761246,15.1220585 675.287273,23.2924728 681.919649,32.9170206 C684.05134,35.8403472 685.941416,38.9324231 687.571134,42.162588 C685.022139,42.413846 682.425806,42.2900377 679.862246,42.3847146 C673.120483,31.7942671 664.702219,22.3699938 654.936721,14.4805073 C654.533788,14.1979662 654.0986,13.9644808 653.640375,13.784996 C653.640375,23.4456852 653.727769,33.1682787 653.589395,42.8580993 C651.748208,43.2519116 649.839741,43.2019844 648.021663,42.7124425 C647.952476,33.0481118 647.930628,23.3874225 648.021663,13.784996 C647.326298,14.0788468 646.683142,14.4834324 646.1172,14.9830234 C637.068216,22.1328403 629.259532,30.7252224 623.005102,40.414706 C622.408821,41.5164521 621.747334,42.5816396 621.024169,43.6045906 C618.373215,43.7793788 615.711337,43.8558486 613.060382,43.7975859 C616.894198,35.5389831 622.200153,28.0477154 628.718492,21.6905204 C633.562228,16.806857 638.950359,12.495131 644.777157,8.83994656 C642.265629,8.68969791 639.745359,8.88450729 637.286755,9.41893246 C621.389044,11.6369822 606.365099,18.0356045 593.749928,27.961047 C587.620723,32.8064741 582.107863,38.3841483 577.334403,44.5695671 C573.853205,44.7734867 570.339234,44.7625624 566.854394,44.7443553 C579.161548,26.0657507 597.428946,12.1030562 618.682736,5.1293388 L618.697302,5.14390448 Z" id="Path_119"></path>
                    <path d="M694.970501,46.7398539 C704.369008,46.412126 713.771156,46.3538633 723.176946,46.1317366 C727.214299,45.7426465 731.281588,45.7841495 735.31016,46.2555449 C742.461801,47.7165873 748.542274,52.3894313 751.794872,58.9240477 C753.814464,63.4679732 754.11722,68.5902367 752.646964,73.3404325 C750.921355,78.5845276 748.29684,83.488551 744.890738,87.8332872 C749.260443,88.1537322 753.630148,87.8332872 757.970722,88.0372067 C764.319658,87.6216569 770.695421,88.1121003 776.90611,89.493775 C782.271087,91.3084866 787.06534,94.5004698 790.809054,98.7502666 C793.835075,102.169561 796.87202,105.592496 800,108.924396 C783.644908,111.061883 767.426033,114.136661 751.423447,118.133549 C717.884264,126.529982 684.794324,136.628576 652.282125,148.390114 C621.381029,159.341081 590.930254,171.357769 560.929803,184.44018 C558.940082,185.457967 556.861998,186.292857 554.72118,186.934553 C556.007329,185.348245 557.412103,183.861912 558.92338,182.488378 C574.551335,167.213885 591.631525,153.499731 609.921478,141.540602 C629.428569,128.555296 649.929768,117.055689 670.656734,106.022184 C672.01376,105.020717 673.625204,104.421316 675.306829,104.292509 C678.240515,104.193053 681.177442,104.253833 684.104501,104.47458 C679.454407,107.537015 674.30908,109.867524 669.502404,112.696908 C649.197842,123.865146 628.813168,135.044307 609.688427,148.01869 C599.878186,154.602584 590.612545,161.96371 581.980856,170.031078 C583.767168,169.644604 585.485547,168.992847 587.078845,168.097484 C622.451606,153.551221 658.387574,140.385058 694.886748,128.598993 C714.605042,122.270203 734.465351,116.280066 754.606049,111.400562 C765.436383,108.534472 776.472605,106.51228 787.615528,105.352162 C787.599403,104.707618 787.385871,104.083547 787.003769,103.564225 C784.699531,100.464226 781.689977,97.9577205 778.224304,96.252252 C774.730288,94.5365768 770.882836,93.663573 766.990521,93.7032574 C755.257863,93.7032574 743.523992,93.7226784 731.788906,93.7615202 C732.490915,92.4973576 733.372852,91.341885 734.407088,90.3313018 C739.326022,84.9560364 743.005429,78.5667973 745.185693,71.6143991 C746.440411,67.8186814 746.016351,63.6679712 744.019984,60.2044026 C742.023617,56.740834 738.644548,54.2933619 734.731174,53.4764823 C731.862512,53.0336386 728.955152,52.8944955 726.05731,53.0613603 C694.376949,53.0613603 662.638326,53.283487 630.925193,53.352674 C589.227283,53.352674 547.536657,53.5638764 505.835106,53.6221391 C507.207922,52.5297129 508.446005,50.8109623 510.445145,51.0148818 C518.904166,50.6762297 527.392317,50.8400936 535.854979,50.3084462 C561.97489,49.8532686 588.102084,49.21602 614.221995,48.5678471 C620.357789,48.3566447 626.515432,48.4622459 632.647585,48.0471239 C646.572378,47.9196742 660.475322,47.4098753 674.403756,47.2532942 C681.242345,46.7507781 688.117347,46.8891521 694.974142,46.7107225 L694.970501,46.7398539 Z" id="Path_120"></path>
                    <path d="M646.769014,58.5089258 C650.330559,58.0409327 653.951009,58.3401537 657.387397,59.3865082 C660.326169,60.472036 662.765459,62.5965375 664.244193,65.3584382 C634.678284,65.2953203 605.112375,65.1630153 575.546466,64.9615234 C547.602203,64.7211896 519.639733,64.7794523 491.706394,64.4590073 C492.32596,63.2738842 493.442307,62.427277 494.750622,62.1503465 C519.952895,61.4220624 545.217072,60.9996576 570.37929,60.2968634 C575.939739,60.1621308 581.518396,60.2021864 587.071562,59.7761402 C606.986492,59.5904277 626.865008,58.8075223 646.769014,58.5089258 Z" id="Path_121"></path>
                    <path d="M479.813514,73.4824479 C541.717667,72.193385 603.630316,70.9468053 665.551463,69.7427088 C668.240145,69.5404385 670.934327,70.0556505 673.358669,71.2356913 C675.759663,72.4057147 677.800252,74.2022377 679.265053,76.4356402 C613.759535,76.2426449 548.264941,75.8857857 482.770347,75.707356 C480.736982,75.7734051 478.701489,75.7186875 476.674609,75.5434921 C477.486646,74.5785156 478.407925,73.3986953 479.820797,73.4751651 L479.813514,73.4824479 Z" id="Path_122"></path>
                    <path d="M619.957233,82.6005655 C627.258282,82.3201761 634.592103,82.5423028 641.896793,82.0397867 C655.34456,82.0397867 668.785044,81.4680837 682.225528,81.3916138 C687.23505,81.0738721 691.966342,83.7194635 694.318687,88.1537322 C616.113107,88.1270285 537.926948,88.1136766 459.76021,88.1136766 C460.51277,87.1363733 461.489462,86.3545201 462.607801,85.8341472 C515.068536,84.7635695 567.53534,83.6784261 620.008213,82.578717 L619.957233,82.6005655 Z" id="Path_123"></path>
                    <path d="M447.568733,97.1189101 C530.411055,95.591941 613.26066,94.0904619 696.117548,92.6144726 C701.491937,92.2260169 706.637606,94.8535627 709.47428,99.4348537 C647.570127,99.5331721 585.611353,99.376591 523.670785,99.4348537 C497.297189,99.4348537 470.927233,99.4190742 444.560919,99.3875153 C445.256834,98.3113078 446.306388,97.5115865 447.528677,97.126193 L447.568733,97.1189101 Z" id="Path_124"></path>
                    <path d="M552.194034,104.445449 C554.826781,104.387186 557.459529,104.328923 560.110483,104.445449 C561.202909,104.299792 560.838767,105.537875 560.99899,106.127785 C562.313516,117.063633 565.754971,127.636643 571.129422,137.251008 C571.406374,137.854526 571.784458,138.406258 572.247338,138.882365 C582.232114,139.144547 592.253304,138.649314 602.230797,139.115416 C599.743707,141.04901 597.056338,142.698574 594.423591,144.391834 C588.32057,144.796032 582.162927,144.30444 576.034416,144.624885 C578.02512,147.849233 580.329167,150.869254 582.91306,153.641043 L582.91306,154.143559 C580.728207,155.804047 578.517865,157.475459 576.176431,158.924745 C567.982918,149.859988 561.57355,139.330489 557.28474,127.888916 C554.48,120.353874 552.763413,112.457573 552.186751,104.438166 L552.194034,104.445449 Z" id="Path_126"></path>
                    <path d="M598.949877,104.430883 C601.524361,104.430883 604.095204,104.430883 606.655123,104.518277 C607.264042,112.863539 608.978353,121.091005 611.753112,128.984983 C612.314211,130.177722 612.707573,131.442363 612.922008,132.742929 C610.737156,133.882694 608.72345,135.342904 606.618709,136.606477 C604.428017,131.52476 602.633518,126.281266 601.251255,120.922878 C599.873278,115.525507 599.08455,109.994643 598.898897,104.427242 L598.949877,104.430883 Z" id="Path_127"></path>
                    <path d="M735.062544,128.223926 C738.320315,127.118809 741.658474,126.266617 745.047319,125.674932 C738.050122,146.333169 724.165488,163.95894 705.719975,175.59881 C692.054073,184.373661 676.453259,189.681013 660.271402,191.060283 C638.2419,193.216948 616.112853,188.091451 597.274823,176.46911 C596.81329,176.188239 596.43593,175.788237 596.182397,175.311138 C599.350433,174.218712 602.398302,172.798558 605.54449,171.669717 C615.563902,177.084778 626.47229,180.661299 637.752856,182.229838 C640.20422,182.747755 642.710929,182.95573 645.214128,182.848879 C638.356604,178.612369 632.022876,173.581565 626.344285,167.860791 C625.353819,166.710102 623.94823,165.75605 623.431149,164.277633 C625.758016,163.476521 627.950152,162.344039 630.349848,161.670376 C635.124685,167.682672 640.59454,173.108523 646.645206,177.834643 C647.06709,178.102645 647.510429,178.335276 647.970683,178.530154 C647.850516,171.862713 647.970683,165.187988 647.91242,158.50234 C647.804901,157.526334 647.877726,156.538877 648.127264,155.589203 C649.947975,154.766242 651.888852,154.321989 653.716845,153.539083 C653.716845,161.772336 653.622168,169.965532 653.775108,178.235199 C654.573324,178.016241 655.302661,177.597686 655.894415,177.018965 C667.407697,167.767052 676.860208,156.210952 683.645682,143.091847 C686.402238,142.017628 689.264395,141.22744 692.061006,140.269746 C693.744254,139.605775 695.502994,139.152024 697.297369,138.918779 C708.010429,138.849592 718.730771,138.995249 729.436548,138.849592 C731.549833,135.432103 733.440029,131.8816 735.095316,128.220285 L735.062544,128.223926 Z M691.474737,144.650375 C688.25618,150.633035 684.55002,156.340253 680.393894,161.714073 C673.70316,170.12799 665.564422,177.280214 656.360517,182.834313 C663.476768,182.553352 670.530115,181.385134 677.356949,179.356757 C696.98322,173.637005 714.054504,161.359871 725.722299,144.573906 C716.618747,144.293516 707.47514,144.573906 698.353381,144.446456 C696.045789,144.355818 693.734753,144.414202 691.434681,144.621244 L691.474737,144.650375 Z" id="Path_129"></path>
                </g>
            </g>
        </g>
    </g>
</svg>