<?xml version="1.0" encoding="UTF-8"?>
<svg width="980px" height="680px" viewBox="0 0 980 680" version="1.1" xmlns="http://www.w3.org/2000/svg" xmlns:xlink="http://www.w3.org/1999/xlink">
    <title>ID Pos Indonesia</title>
    <defs>
        <rect id="path-1" x="0" y="0" width="900" height="600" rx="80"></rect>
        <filter x="-6.7%" y="-10.0%" width="113.3%" height="120.0%" filterUnits="objectBoundingBox" id="filter-2">
            <feMorphology radius="2.5" operator="dilate" in="SourceAlpha" result="shadowSpreadOuter1"></feMorphology>
            <feOffset dx="0" dy="0" in="shadowSpreadOuter1" result="shadowOffsetOuter1"></feOffset>
            <feGaussianBlur stdDeviation="17.5" in="shadowOffsetOuter1" result="shadowBlurOuter1"></feGaussianBlur>
            <feColorMatrix values="0 0 0 0 0   0 0 0 0 0   0 0 0 0 0  0 0 0 0.5 0" type="matrix" in="shadowBlurOuter1"></feColorMatrix>
        </filter>
    </defs>
    <g id="ID-Pos-Indonesia" stroke="none" stroke-width="1" fill="none" fill-rule="evenodd">
        <g transform="translate(40, 40)">
            <g id="Rectangle">
                <use fill="black" fill-opacity="1" filter="url(#filter-2)" xlink:href="#path-1"></use>
                <use fill="#FF6F00" fill-rule="evenodd" xlink:href="#path-1"></use>
            </g>
            <g id="Logo" transform="translate(50, 84)" fill="#FFFFFF" fill-rule="nonzero">
                <g id="Group_6" transform="translate(0, -0)">
                    <path d="M391.935253,11.5775777 C443.745682,-5.46866925 499.91531,-3.64260477 550.509169,16.7327872 C589.530481,32.322582 623.25035,58.7966476 647.654953,93.0036611 C639.663969,92.7823723 631.58283,93.7003111 623.624629,93.0036611 C593.045138,56.3240086 550.624074,31.4655839 503.677902,22.7157808 C495.196011,20.8308466 486.524407,19.9342582 477.836287,20.0439234 C500.114566,34.0357813 519.304413,52.4252376 534.232148,74.0875665 C539.030026,80.6672066 543.284089,87.6266573 546.952157,94.8969098 C541.215039,95.4624256 535.371376,95.1837656 529.601475,95.3968585 C514.427536,71.5605432 495.480237,50.3489796 473.500666,32.5918181 C472.593769,31.9558923 471.614276,31.4303779 470.582932,31.0264047 C470.582932,52.7700785 470.779633,74.6530823 470.46819,96.4623232 C466.324161,97.3486911 462.028703,97.2363181 457.936687,96.1344879 C457.780965,74.3826182 457.73179,52.6389444 457.936687,31.0264047 C456.371602,31.6877858 454.924027,32.5984017 453.650241,33.7228497 C433.283356,49.8152095 415.708059,69.1544044 401.63098,90.9628866 C400.288907,93.4426277 398.800075,95.8400849 397.172421,98.1424789 C391.205819,98.5358812 385.21463,98.7079947 379.248028,98.5768606 C387.876941,79.9889153 399.819251,63.1280395 414.490319,48.8196636 C425.392298,37.82782 437.519563,28.1232574 450.634156,19.8963975 C444.981367,19.5582273 439.308901,19.996692 433.775228,21.1995427 C397.993657,26.1917901 364.178704,40.5934079 335.785268,62.9329716 C321.990037,73.8387552 309.582037,86.3926346 298.838234,100.314387 C291.002971,100.773357 283.093945,100.748769 275.250487,100.70779 C302.950656,58.6671575 344.065772,27.2408002 391.902469,11.5447942 L391.935253,11.5775777 Z" id="Path_119"></path>
                    <path d="M563.606188,105.199133 C584.759758,104.461504 605.921524,104.330369 627.091487,103.830421 C636.178507,102.954681 645.332906,103.048093 654.400164,104.109081 C670.496628,107.397503 684.182175,117.914848 691.50292,132.622553 C696.048491,142.849735 696.729914,154.378605 693.420756,165.070048 C689.536862,176.873128 683.629768,187.910797 675.963528,197.689656 C685.798586,198.410894 695.633644,197.689656 705.403135,198.148626 C719.692922,197.213332 734.043092,198.317191 748.021719,201.426978 C760.096875,205.511417 770.887479,212.695733 779.313595,222.260909 C786.124373,229.956842 792.959738,237.660971 800,245.160202 C763.188984,249.971124 726.684558,256.89164 690.66694,265.887587 C615.179049,284.785751 540.702287,307.515033 467.525868,333.987167 C397.975617,358.634915 329.438924,385.681324 261.915787,415.126394 C257.437449,417.417165 252.760228,419.296283 247.941809,420.740573 C250.836593,417.17021 253.998369,413.824865 257.399857,410.733402 C292.574279,376.35453 331.017299,345.487571 372.183178,318.570714 C416.088516,289.3442 462.231329,263.461606 508.882287,238.628085 C511.936594,236.374047 515.563532,235.024951 519.348427,234.735041 C525.951383,234.511191 532.561636,234.647993 539.149677,235.144835 C528.683537,242.037572 517.102756,247.282936 506.284192,253.651136 C460.583957,278.787905 414.703412,303.949261 371.658642,333.151187 C349.578368,347.969805 328.723843,364.537764 309.296179,382.695291 C313.316699,381.82544 317.184318,380.358507 320.770413,378.343278 C400.385206,345.603463 481.26763,315.969887 563.417683,289.442551 C607.798381,275.198108 652.498719,261.715883 697.83014,250.733402 C722.206377,244.282585 747.046014,239.731163 772.125807,237.120043 C772.089514,235.669343 771.60891,234.264722 770.748899,233.095865 C765.562662,226.118581 758.788948,220.477096 750.988628,216.638535 C743.124516,212.777 734.464912,210.812098 725.704334,210.901418 C699.297203,210.901418 672.887341,210.945129 646.474746,211.032552 C648.054783,208.187254 650.039792,205.586588 652.367585,203.312031 C663.438815,191.213721 671.720192,176.833222 676.627395,161.1852 C679.451435,152.642037 678.496988,143.299878 674.003689,135.504295 C669.510391,127.708712 661.904996,122.200095 653.097019,120.361514 C646.640414,119.364789 640.09671,119.051614 633.574429,119.427183 C562.270259,119.427183 490.834955,119.927132 419.457023,120.082854 C325.605983,120.082854 231.771335,120.558215 137.912099,120.689349 C141.001947,118.230585 143.788546,114.362128 148.288085,114.821098 C167.327118,114.058881 186.431718,114.427696 205.478947,113.231097 C264.268005,112.206612 323.073456,110.772332 381.862514,109.313465 C395.672575,108.838104 409.53181,109.075785 423.333675,108.141454 C454.674726,107.854599 485.966602,106.707175 517.315849,106.354752 C532.707714,105.223721 548.181539,105.535164 563.614384,105.133566 L563.606188,105.199133 Z" id="Path_120"></path>
                    <path d="M455.117304,131.688222 C463.133406,130.634893 471.282087,131.308361 479.016494,133.66343 C485.630897,136.106668 491.121099,140.888362 494.449339,147.104675 C427.904245,146.962613 361.35915,146.66483 294.814056,146.211324 C231.918861,145.670396 168.982686,145.80153 106.112079,145.080293 C107.506559,142.412892 110.019162,140.507401 112.963836,139.884104 C169.687532,138.244927 226.550558,137.294205 283.1841,135.7124 C295.699211,135.409152 308.255302,135.499307 320.754021,134.540389 C365.577297,134.122399 410.318615,132.360284 455.117304,131.688222 Z" id="Path_121"></path>
                    <path d="M79.3443295,165.389687 C218.674316,162.488345 358.023427,159.682622 497.391661,156.972517 C503.443179,156.517259 509.507075,157.676866 514.963631,160.332828 C520.367639,162.966243 524.960468,167.009745 528.257351,172.036547 C380.821637,171.602165 233.410511,170.798969 85.9993853,170.397371 C81.4228145,170.54603 76.8414542,170.422875 72.2794796,170.028556 C74.1071612,167.856648 76.1807192,165.201182 79.3607212,165.373295 L79.3443295,165.389687 Z" id="Path_122"></path>
                    <path d="M394.771028,185.912175 C411.20377,185.281092 427.710276,185.78104 444.151214,184.650009 C474.418605,184.650009 504.669604,183.363255 534.920602,183.191142 C546.195719,182.475989 556.844614,188.43052 562.139125,198.410894 C386.118909,198.350791 210.142403,198.320739 34.2096097,198.320739 C35.9034256,196.121086 38.1017028,194.36134 40.6187891,193.190117 C158.694123,190.780528 276.783116,188.338156 394.88577,185.862999 L394.771028,185.912175 Z" id="Path_123"></path>
                    <path d="M6.76979818,218.589154 C193.226104,215.152348 379.698801,211.772913 566.187891,208.450849 C578.284227,207.576537 589.865776,213.490452 596.250384,223.801735 C456.920398,224.023024 317.467473,223.670601 178.055527,223.801735 C118.695489,223.801735 59.3436465,223.76622 -5.11758414e-13,223.695189 C1.56632115,221.272928 3.92859085,219.472966 6.67964348,218.605546 L6.76979818,218.589154 Z" id="Path_124"></path>
                    <path d="M242.253867,235.079268 C248.17949,234.948134 254.105112,234.817 260.071714,235.079268 C262.530478,234.751433 261.71089,237.538033 262.071509,238.865765 C265.030163,263.479487 272.775974,287.276553 284.872452,308.915965 C285.495797,310.274325 286.346766,311.516129 287.388587,312.58772 C309.861694,313.177824 332.416761,312.063184 354.873476,313.112257 C349.275689,317.46427 343.227128,321.177004 337.301506,324.988089 C323.565208,325.897832 309.705973,324.791388 295.912304,325.512625 C300.392855,332.769785 305.578659,339.567059 311.394324,345.805628 L311.394324,346.93666 C306.476795,350.673982 301.501895,354.435891 296.231943,357.697852 C277.790497,337.295466 263.364693,313.596329 253.71171,287.844354 C247.398976,270.884954 243.535389,253.112455 242.237476,235.062876 L242.253867,235.079268 Z" id="Path_126"></path>
                    <path d="M347.488987,235.046485 C353.283475,235.046485 359.069767,235.046485 364.831472,235.243186 C366.201989,254.026179 370.060452,272.544042 376.305706,290.311314 C377.568592,292.995855 378.453947,295.842229 378.936584,298.769464 C374.019055,301.334775 369.486733,304.621323 364.749513,307.465294 C359.818842,296.027683 355.779895,284.225958 352.668784,272.165632 C349.56732,260.017569 347.7921,247.569047 347.374244,235.038289 L347.488987,235.046485 Z" id="Path_127"></path>
                    <path d="M653.842844,288.598375 C661.175232,286.111046 668.688552,284.192985 676.315951,282.861258 C660.567098,329.357523 629.316435,369.028504 587.80043,395.226794 C557.042076,414.976678 521.928741,426.922133 485.507632,430.026507 C435.925008,434.880593 386.118339,423.344447 343.718881,397.18561 C342.68009,396.553442 341.830752,395.653144 341.260117,394.579319 C348.390534,392.120555 355.250487,388.924161 362.331728,386.383438 C384.882793,398.571317 409.434709,406.621125 434.824301,410.151494 C440.341676,411.317191 445.983619,411.785288 451.617662,411.544794 C436.183178,402.009523 421.92762,390.686505 409.146604,377.810546 C406.917324,375.220647 403.753714,373.073326 402.589899,369.745798 C407.827067,367.942704 412.760988,365.393785 418.162074,363.877547 C428.908978,377.409645 441.220184,389.621811 454.838644,400.259065 C455.788195,400.862267 456.786033,401.385858 457.821944,401.824479 C457.55148,386.81782 457.821944,371.794769 457.69081,356.74713 C457.448812,354.550396 457.612721,352.32789 458.174367,350.190425 C462.272308,348.338156 466.640713,347.338258 470.755046,345.576143 C470.755046,364.107032 470.541953,382.547765 470.88618,401.160612 C472.682754,400.667794 474.324301,399.725738 475.656183,398.423188 C501.569557,377.599562 522.844675,351.589817 538.116996,322.062159 C544.321279,319.644374 550.763241,317.865868 557.057679,315.710351 C560.846228,314.215925 564.804691,313.194653 568.843356,312.669679 C592.95564,312.513957 617.084315,312.841792 641.180207,312.513957 C645.936656,304.822087 650.19099,296.830838 653.916607,288.590179 L653.842844,288.598375 Z M555.738142,325.569997 C548.494015,339.035393 540.152424,351.88084 530.798074,363.975898 C515.738991,382.913414 497.42083,399.011192 476.705256,411.512011 C492.722069,410.87964 508.597298,408.250288 523.962709,403.684944 C568.13629,390.811286 606.559265,363.178681 632.820408,325.397883 C612.330704,324.7668 591.750845,325.397883 571.220162,325.111027 C566.026379,324.907025 560.824844,325.038432 555.647987,325.504429 L555.738142,325.569997 Z" id="Path_129"></path>
                </g>
            </g>
        </g>
    </g>
</svg>