<?xml version="1.0" encoding="UTF-8"?>
<svg width="980px" height="680px" viewBox="0 0 980 680" version="1.1" xmlns="http://www.w3.org/2000/svg" xmlns:xlink="http://www.w3.org/1999/xlink">
    <title>IE An Post</title>
    <defs>
        <rect id="path-1" x="-5.68434189e-14" y="0" width="900" height="600" rx="80"></rect>
        <filter x="-6.7%" y="-10.0%" width="113.3%" height="120.0%" filterUnits="objectBoundingBox" id="filter-2">
            <feMorphology radius="2.5" operator="dilate" in="SourceAlpha" result="shadowSpreadOuter1"></feMorphology>
            <feOffset dx="0" dy="0" in="shadowSpreadOuter1" result="shadowOffsetOuter1"></feOffset>
            <feGaussianBlur stdDeviation="17.5" in="shadowOffsetOuter1" result="shadowBlurOuter1"></feGaussianBlur>
            <feColorMatrix values="0 0 0 0 0   0 0 0 0 0   0 0 0 0 0  0 0 0 0.5 0" type="matrix" in="shadowBlurOuter1"></feColorMatrix>
        </filter>
        <linearGradient x1="32.9858362%" y1="-41.6522681%" x2="61.2622867%" y2="129.838352%" id="linearGradient-3">
            <stop stop-color="#FFFFFF" offset="0%"></stop>
            <stop stop-color="#FFFFFF" stop-opacity="0.88" offset="60%"></stop>
            <stop stop-color="#FFFFFF" stop-opacity="0.15" offset="100%"></stop>
        </linearGradient>
        <linearGradient x1="62.4726962%" y1="133.95074%" x2="40.7998294%" y2="-28.122802%" id="linearGradient-4">
            <stop stop-color="#FFFFFF" offset="0%"></stop>
            <stop stop-color="#FFFFFF" stop-opacity="0.88" offset="60%"></stop>
            <stop stop-color="#FFFFFF" stop-opacity="0.15" offset="100%"></stop>
        </linearGradient>
    </defs>
    <g id="IE-An-Post" stroke="none" stroke-width="1" fill="none" fill-rule="evenodd">
        <g transform="translate(40, 40)">
            <g id="Rectangle">
                <use fill="black" fill-opacity="1" filter="url(#filter-2)" xlink:href="#path-1"></use>
                <use fill="#00B065" fill-rule="evenodd" xlink:href="#path-1"></use>
            </g>
            <g id="Logo" transform="translate(78.8598, 50.0204)">
                <path d="M412.464478,85.4257087 L412.464478,196.341359 L361.829072,196.341359 L361.829072,88.5258349 C361.829072,61.658069 349.773024,48.2241859 327.03876,48.2241859 C309.126915,48.2241859 293.281822,57.5245665 284.670359,77.5031624 L284.670359,196.341359 L234.379411,196.341359 L234.379411,5.51132661 L278.125646,5.51132661 L281.91469,31.0012587 C294.315198,10.3337462 314.982711,0.34444837 339.783726,0.34444837 C384.563336,-1.00842198e-05 412.464478,28.2455904 412.464478,85.4257087 Z" id="Path" fill="#FFFFFF"></path>
                <path d="M199.097008,349.471651 C199.097008,410.440803 157.762032,452.464736 102.304211,452.464736 C79.9143697,452.464736 62.6914216,445.575574 49.9464914,431.108332 L50.2909288,500 L0,500 L0,255.778915 L43.4017662,255.778915 L47.8797011,280.579942 C62.0025468,259.912412 83.7034299,250.267584 109.537811,250.267584 C163.6178,250.267584 199.097008,292.980434 199.097008,349.471651 Z M146.050331,351.193921 C146.050331,319.159252 126.071801,296.769453 96.1038396,296.769453 C75.0919143,296.080537 56.4911337,309.169987 49.601971,328.804122 L49.601971,378.061697 C57.5245288,395.284603 75.4363517,406.307264 94.3815697,405.618347 C124.349448,405.618347 146.050331,383.228589 146.050331,351.193921 Z" id="Shape" fill="#FFFFFF"></path>
                <path d="M528.916069,332.593166 L515.826645,328.459663 C494.470214,321.570492 487.236586,317.43699 487.236586,308.136609 C487.236586,298.836229 495.50359,294.358268 516.171103,294.358268 C532.360654,294.358268 548.205748,297.458395 563.361924,302.969731 L570.251094,258.534579 C551.994792,251.989867 535.116323,250.267574 513.759893,250.267574 C466.224614,250.267574 436.601179,274.724131 436.601179,308.825527 C436.601179,340.171254 454.168565,358.083099 489.992253,369.794689 L501.359385,373.583733 C522.026898,380.472903 530.293903,385.295323 530.293903,393.562328 C530.293903,401.829334 523.404733,408.029587 502.392761,408.029587 C482.414165,408.029587 460.713278,400.107041 445.212643,391.495577 L434.878887,434.897353 C455.546399,445.920027 478.625121,451.775822 502.048302,451.775822 C551.994792,451.775822 580.584851,427.319265 580.584851,392.184493 C581.273767,361.872143 566.46205,344.993674 528.916069,332.593166 Z" id="Path" fill="#FFFFFF"></path>
                <path d="M200.622445,5.51133011 L200.622445,196.685822 L154.809492,196.685822 L154.120576,171.884836 C141.720083,190.830054 123.119303,201.852714 94.5292569,201.852714 C40.7937053,201.852714 1.52543669,157.073116 1.52543669,100.926336 C1.52543669,44.7795987 41.1381634,0 96.2515268,0 C122.085907,0 140.342251,8.95591143 153.087181,27.5566921 L155.842846,5.16689274 L200.622445,5.51133011 Z M150.331516,126.071801 L150.331516,76.1253095 C143.442353,57.8690077 125.874968,46.1574312 106.240833,46.8463475 C76.2729344,46.8463475 54.5720513,69.2361468 54.5720513,101.270774 C54.5720513,133.305442 76.2729344,155.695242 106.240833,155.695242 C125.53053,155.695242 143.097916,143.983665 150.331516,126.071801 Z" id="Shape" fill="#FFFFFF"></path>
                <path d="M294.339801,426.285889 C335.674826,426.285889 369.087305,392.873411 369.087305,351.538386 C369.087305,351.538386 369.087305,351.538386 369.087305,351.538386 C369.087305,378.406152 347.386417,400.451499 320.174192,400.451499 C292.961967,400.451499 271.261079,378.75061 271.261079,351.538386 C271.261079,310.203361 304.673558,276.790882 346.008583,276.790882 C387.343608,276.790882 421.445003,309.858902 421.445003,351.193927 C419.378252,295.391643 372.53189,251.989867 316.729606,254.056618 C264.02745,255.778911 221.659049,298.49177 219.592297,351.193927 C219.592297,392.528953 253.004777,425.941431 294.339801,426.285889 Z" id="Path" fill="url(#linearGradient-3)"></path>
                <path d="M346.353042,276.446424 C305.018016,276.446424 271.605537,309.858902 271.605537,351.193927 C271.605537,324.326161 293.306426,302.280814 320.51865,302.280814 C347.730875,302.280814 369.431764,323.981703 369.431764,351.193927 C369.431764,392.528953 336.019285,425.941431 294.68426,425.941431 C253.349235,425.941431 219.936756,392.528953 219.936756,351.193927 C219.936756,406.996211 265.060825,452.12028 320.863109,452.12028 C376.665393,452.12028 421.789462,406.996211 421.789462,351.193927 C421.445003,309.858902 387.688066,276.446424 346.353042,276.446424 Z" id="Path" fill="url(#linearGradient-4)"></path>
                <path d="M735.935651,398.729206 C726.635273,400.795957 716.645977,401.829334 707.001134,401.829334 C673.588662,401.829334 662.221528,384.950865 662.221528,346.715967 C662.565982,332.248707 663.599354,317.781448 666.010565,303.31419 L735.591197,303.31419 L735.591197,256.123369 L673.933116,256.123369 C677.377699,238.900442 680.477829,224.433184 685.30025,206.521339 L631.56472,206.521339 C627.431217,221.677515 623.642169,238.555984 620.197585,256.123369 L593.329816,256.123369 L586.096187,304.003107 L612.963954,304.003107 C611.241661,319.159283 610.208285,334.659917 610.208285,350.160551 C610.208285,415.263217 639.831724,451.775822 705.623297,451.775822 C717.67935,452.12028 729.735403,450.742446 741.446991,447.29786 L735.935651,398.729206 Z" id="Path" fill="#FFFFFF"></path>
            </g>
        </g>
    </g>
</svg>