<?xml version="1.0" encoding="UTF-8"?>
<svg width="980px" height="680px" viewBox="0 0 980 680" version="1.1" xmlns="http://www.w3.org/2000/svg" xmlns:xlink="http://www.w3.org/1999/xlink">
    <title>IL Israel Post</title>
    <defs>
        <linearGradient x1="50%" y1="0%" x2="50%" y2="100%" id="linearGradient-1">
            <stop stop-color="#FFFFFF" offset="0%"></stop>
            <stop stop-color="#EDEDED" offset="100%"></stop>
        </linearGradient>
        <rect id="path-2" x="0" y="0" width="900" height="600" rx="80"></rect>
        <filter x="-6.7%" y="-10.0%" width="113.3%" height="120.0%" filterUnits="objectBoundingBox" id="filter-3">
            <feMorphology radius="2.5" operator="dilate" in="SourceAlpha" result="shadowSpreadOuter1"></feMorphology>
            <feOffset dx="0" dy="0" in="shadowSpreadOuter1" result="shadowOffsetOuter1"></feOffset>
            <feGaussianBlur stdDeviation="17.5" in="shadowOffsetOuter1" result="shadowBlurOuter1"></feGaussianBlur>
            <feColorMatrix values="0 0 0 0 0   0 0 0 0 0   0 0 0 0 0  0 0 0 0.5 0" type="matrix" in="shadowBlurOuter1"></feColorMatrix>
        </filter>
        <polygon id="path-4" points="0 0 263.238354 0 263.238354 61.5587164 0 61.5587164"></polygon>
        <polygon id="path-6" points="0 0 243.083414 0 243.083414 111.66561 0 111.66561"></polygon>
    </defs>
    <g id="IL-Israel-Post" stroke="none" stroke-width="1" fill="none" fill-rule="evenodd">
        <g transform="translate(40, 40)">
            <g id="Rectangle">
                <use fill="black" fill-opacity="1" filter="url(#filter-3)" xlink:href="#path-2"></use>
                <use fill="url(#linearGradient-1)" fill-rule="evenodd" xlink:href="#path-2"></use>
            </g>
            <g id="Logo" transform="translate(50, 134)">
                <path d="M400.815564,0 C417.570406,20.8971643 442.818422,24.9652634 465.360852,34.0769572 C493.08295,45.2810183 516.508981,62.1825387 535.665451,85.2763352 C539.122098,89.4433976 544.906151,92.1136399 550.107026,94.3155737 C563.815213,100.120832 577.961665,104.908183 591.558518,110.944945 C595.515283,112.701544 600.965334,117.446481 600.808053,120.572662 C600.590687,124.852825 595.909369,140.003048 563.977795,140.003048 C541.442434,140.223949 518.8841,138.371921 497.128076,137.396425 C502.123956,127.713925 508.132443,118.635808 511.629736,108.675858 C516.556695,94.6407389 510.053392,86.1617034 495.408588,86.297778 C486.576112,86.3790693 477.953933,88.0261016 469.192146,87.2573687 C463.56184,86.7625521 458.113556,84.1771355 453.347412,81.0014734 C467.788987,83.7494726 483.16718,77.5200854 493.075881,78.4743745 C504.467266,79.5718069 508.439936,82.3816582 504.14917,76.0992549 C479.765316,46.0886296 465.594122,49.5576472 441.636164,54.7691261 C427.482643,57.8458249 414.580301,54.846883 404.148507,44.7773657 C426.643222,53.2617027 433.501733,45.8694965 443.802754,45.4736433 C446.966045,45.3517063 446.828204,42.794565 445.138758,41.9038951 C422.880849,30.1714407 404.049544,25.8630021 400.815564,0" id="Fill-1" fill="#B11D1B"></path>
                <g id="Group-5" transform="translate(536.7616, 158.4185)">
                    <mask id="mask-5" fill="white">
                        <use xlink:href="#path-4"></use>
                    </mask>
                    <g id="Clip-4"></g>
                    <path d="M0,27.7645115 C2.39632599,18.5238119 4.99234581,7.65905371 7.64138169,0 C9.95995078,0 19.2536664,0.174953003 21.5952091,0.220900257 C89.4840433,1.5463018 197.873614,23.3429719 263.238884,61.5587164 C178.171078,33.8790306 90.268681,28.4272123 0,27.7645115" id="Fill-3" fill="#B11D1B" mask="url(#mask-5)"></path>
                </g>
                <g id="Group-8" transform="translate(0, 220.2211)">
                    <mask id="mask-7" fill="white">
                        <use xlink:href="#path-6"></use>
                    </mask>
                    <g id="Clip-7"></g>
                    <path d="M243.083414,0 C240.208176,10.9972984 237.170356,24.1382129 233.892196,32.4334593 C224.207929,33.7005432 114.660841,61.0320902 61.9310659,83.1698303 C40.9932559,91.9598933 20.7181467,102.324533 -0.000530160617,111.665963 C72.0147208,56.2253006 154.329225,23.3394375 243.083414,0" id="Fill-6" fill="#B11D1B" mask="url(#mask-7)"></path>
                </g>
                <path d="M176.979984,153.952811 L188.5852,153.952811 L188.459729,154.392845 C183.88621,170.525632 179.158944,187.202718 175.414243,199.665027 C172.007078,199.665027 169.282052,199.67563 167.136669,199.682699 L164.683792,199.688 L176.979984,153.952811 Z" id="Fill-9" fill="#B11D1B"></path>
                <path d="M490.591019,232.235091 L487.473674,232.220953 C480.019616,232.190911 472.747579,232.159101 466.673706,232.155567 C467.168523,230.423709 467.654503,228.962233 468.163457,227.426534 C468.725428,225.737089 469.30507,223.992861 469.897083,221.856313 L504.647344,221.852779 L505.50267,221.863382 L518.493372,221.868684 L527.233953,221.863382 L526.679052,224.003464 C526.097642,226.24781 525.408434,228.910984 524.521298,232.238625 C521.126503,232.279271 516.844572,232.293409 512.067825,232.293409 C509.132503,232.293409 502.031885,232.275737 502.031885,232.275737 L501.823355,233.007358 C498.416189,245.004893 494.846441,257.483107 491.81569,267.566762 C488.412059,267.566762 485.6888,267.577365 483.54165,267.584434 L481.085239,267.589735 L490.591019,232.235091 Z" id="Fill-11" fill="#B11D1B"></path>
                <path d="M411.677848,199.6083 C406.759725,199.6083 401.949401,199.263695 400.072632,196.766639 C398.902744,195.211501 398.821453,192.767461 399.823457,189.298443 C400.120346,188.269931 400.848434,185.546673 401.746172,182.183687 C403.555787,175.415304 406.036939,166.142794 407.111398,162.779809 C409.944223,153.899619 412.7311,153.899619 434.421738,153.899619 L468.291933,153.899619 C467.827159,155.594365 467.330575,157.356266 466.833991,159.119933 C466.29146,161.039115 465.750696,162.960063 465.250578,164.792652 L433.363184,164.792652 C432.110238,164.792652 431.069356,164.810324 430.189289,164.835065 L417.122597,164.833298 L417.122597,164.98351 C415.5922,165.421776 414.519509,166.816098 414.519509,168.447226 C414.519509,170.433561 416.136499,172.050551 418.122834,172.050551 L463.306656,172.045249 C462.896665,173.632197 462.552061,175.088371 462.209223,176.544546 C461.818672,178.184509 461.451094,179.739647 461.002224,181.444997 L417.221561,181.462669 C417.057211,181.462669 416.908766,181.478574 416.758554,181.496246 L412.734635,181.505082 L412.734635,181.653527 C411.202471,182.091793 410.131546,183.486115 410.131546,185.115476 C410.131546,187.103578 411.748536,188.720568 413.734871,188.720568 L459.054768,188.686991 C458.582925,190.410013 458.081039,192.191353 457.579154,193.969158 C457.03839,195.884805 456.499394,197.793383 456.006344,199.6083 L411.677848,199.6083 Z" id="Fill-13" fill="#B11D1B"></path>
                <path d="M347.639217,232.20063 C340.591615,232.20063 334.151931,232.557605 332.778815,236.862509 C332.241585,238.546653 331.032819,243.065389 330.150985,246.366522 C329.712719,248.004718 329.357512,249.331887 329.212601,249.832005 C328.585244,252.003897 328.703647,253.624421 329.574877,254.781938 C330.884374,256.522632 333.641209,256.762972 336.42632,256.762972 L350.820181,256.762972 C361.600113,256.762972 363.84446,256.762972 365.560413,251.395979 C366.090574,249.72774 367.301107,245.203703 368.182941,241.899035 C368.622974,240.257305 368.978182,238.926601 369.123092,238.424716 C369.723941,236.344719 369.644417,234.897381 368.87215,233.867102 C367.651013,232.244811 365.118612,232.244811 361.911141,232.244811 L355.029656,232.244811 C353.714858,232.244811 352.417731,232.234207 351.154182,232.221837 C349.950717,232.211234 348.773761,232.20063 347.639217,232.20063 L347.639217,232.20063 Z M327.908406,267.588852 C322.990283,267.588852 318.181726,267.244247 316.301423,264.747191 C315.131535,263.190286 315.050244,260.748012 316.052247,257.278995 C316.342068,256.276991 317.04188,253.665067 317.909577,250.420484 L318.001471,250.077646 C319.80225,243.341072 322.269264,234.11451 323.340189,230.760361 C326.174781,221.88017 328.961658,221.88017 350.652296,221.88017 L370.414917,221.88017 C375.33304,221.88017 380.143364,222.223008 382.020133,224.721831 C383.191788,226.278736 383.273079,228.72101 382.271076,232.190027 C381.981254,233.195565 381.276141,235.823395 380.403143,239.08565 L380.323619,239.386074 C378.524607,246.117347 376.05936,255.33684 374.983134,258.708661 C372.148542,267.588852 369.361665,267.588852 347.671027,267.588852 L327.908406,267.588852 Z" id="Fill-15" fill="#B11D1B"></path>
                <path d="M482.845725,199.6083 C477.908163,199.6083 471.942089,199.217748 469.597012,196.176393 C468.35997,194.570007 468.154975,192.29385 468.967888,189.213617 C469.430895,187.464087 471.180425,180.886561 472.912283,174.572348 C472.912283,174.572348 476.434316,161.413762 478.441858,153.952635 L490.047074,153.952635 L488.979684,157.718542 C486.290002,167.204883 483.785877,176.035591 481.419593,184.192996 L481.32063,184.544669 L481.373646,184.666606 C481.322397,184.807982 481.297656,184.958195 481.297656,185.115476 C481.297656,187.103578 482.914646,188.720568 484.900981,188.720568 L530.222645,188.686991 C529.800284,190.219155 529.356716,191.797267 528.911381,193.377145 L528.775307,193.864893 C528.216871,195.845926 527.670806,197.775711 527.174222,199.6083 L482.845725,199.6083 Z" id="Fill-17" fill="#B11D1B"></path>
                <path d="M189.695533,199.66538 C190.266339,197.666675 192.022938,191.518579 192.685639,189.187639 C197.91479,189.187639 226.02744,189.189407 238.334235,189.224751 C238.604617,189.224751 238.830819,189.205311 239.057021,189.182338 L243.027924,189.187639 C245.044302,189.187639 246.687799,187.574184 246.687799,185.589616 C246.687799,183.960256 245.615108,182.565933 244.084711,182.1259 L244.084711,182.032238 L243.589894,181.986291 L243.088009,181.979222 L204.490549,181.96155 C196.147588,181.959783 192.415257,175.953063 192.417024,169.999359 C192.417024,161.999236 198.936233,153.900149 211.395007,153.900149 C220.605664,153.900149 229.367452,153.907217 238.113335,153.917821 C245.519679,153.924889 252.913652,153.933726 260.56387,153.935493 L257.769924,164.326641 C256.55939,164.337244 254.074704,164.342546 250.246944,164.342546 C244.450522,164.342546 236.395615,164.330175 228.476782,164.319572 L207.249151,164.298366 L207.242082,164.33371 L206.225941,164.33371 L206.225941,164.482155 C204.695544,164.920421 203.62462,166.314743 203.62462,167.945871 C203.62462,169.933973 205.24161,171.550963 207.229712,171.550963 L243.232919,171.543894 C249.812213,171.543894 253.912121,174.657704 255.059036,177.745006 C255.824234,179.810865 256.720206,187.713793 252.655641,193.559697 C249.824583,197.627796 245.21572,199.691888 238.952756,199.691888 L189.695533,199.66538 Z" id="Fill-19" fill="#B11D1B"></path>
                <path d="M388.205517,267.567115 C388.77809,265.557806 390.547059,259.36553 391.193855,257.089374 C396.423006,257.089374 424.535657,257.091141 436.842452,257.126485 C437.10223,257.126485 437.317829,257.108813 437.533428,257.087607 L441.537908,257.089374 C443.554285,257.089374 445.194249,255.475919 445.194249,253.491351 C445.194249,251.86199 444.123324,250.467668 442.59116,250.027635 L442.59116,249.933973 L442.098111,249.888026 L441.597992,249.87919 L402.998765,249.863285 C394.655804,249.861518 390.923474,243.854798 390.925241,237.902861 C390.927008,229.90097 397.446216,221.801883 409.904991,221.801883 C419.115648,221.801883 427.877436,221.808952 436.623319,221.819555 C444.029662,221.826624 451.423636,221.83546 459.072086,221.837227 L456.279907,232.228376 C455.069374,232.238979 452.584688,232.24428 448.756928,232.24428 C442.960505,232.24428 434.905598,232.23191 426.984999,232.221307 L405.826288,232.2001 L405.815685,232.233677 L404.735925,232.233677 L404.735925,232.383889 C403.205528,232.822155 402.136371,234.216478 402.136371,235.847605 C402.136371,237.835708 403.751593,239.452698 405.737928,239.452698 L441.742903,239.445629 C448.323963,239.445629 452.423872,242.559439 453.567252,245.646741 C454.334218,247.7126 455.231956,255.61376 451.165624,261.461432 C448.334567,265.529531 443.725704,267.593623 437.46274,267.593623 L388.205517,267.567115 Z" id="Fill-21" fill="#B11D1B"></path>
                <path d="M300.969708,232.033276 C295.572673,232.033276 288.950967,232.045647 282.597875,232.05625 L262.480047,232.073922 L260.143806,240.280808 L301.736674,240.280808 C303.834342,240.280808 305.400084,238.114219 305.400084,236.1809 C305.400084,234.66464 304.369805,232.828517 302.798762,232.254177 L302.798762,232.134007 L302.300411,232.073922 L301.764949,232.066853 L301.367328,232.033276 L300.969708,232.033276 Z M253.820757,221.686308 L264.8534,221.686308 L264.849865,221.668636 C272.441765,221.666869 276.819125,221.658033 281.120494,221.650964 C285.927284,221.642128 290.636878,221.633292 299.631936,221.633292 C310.59389,221.633292 314.499407,228.31685 314.499407,234.574513 C314.499407,241.834179 309.254351,249.669953 300.782385,249.669953 L257.45059,249.669953 L257.24206,250.394506 C255.467789,256.547903 253.781879,262.317818 252.255016,267.398524 C248.846083,267.398524 246.121058,267.409127 243.975674,267.416196 L241.522798,267.421498 L253.820757,221.686308 Z" id="Fill-23" fill="#B11D1B"></path>
                <path d="M321.001827,164.298896 C315.574749,164.298896 308.912398,164.311266 302.529264,164.321869 L282.512166,164.339541 L280.175925,172.546428 L321.77056,172.546428 C323.866461,172.546428 325.432202,170.379838 325.432202,168.446519 C325.432202,166.93026 324.401924,165.094137 322.830881,164.519796 L322.830881,164.397859 L322.33253,164.339541 L321.208589,164.33424 L321.04424,164.298896 L321.001827,164.298896 Z M321.892497,199.681815 C319.747113,199.674746 317.022088,199.66591 313.613155,199.66591 C312.038578,194.422622 310.354434,188.661543 308.622576,182.661892 L308.414047,181.935572 L277.482709,181.935572 L277.274179,182.661892 C275.499908,188.813523 273.813998,194.585205 272.287135,199.66591 C268.879969,199.66591 266.154944,199.674746 264.009561,199.681815 L261.554917,199.688884 L273.852876,153.953695 L284.908492,153.953695 L284.904958,153.934256 C292.063893,153.932488 296.363496,153.92542 300.436897,153.918351 L301.143777,153.916584 C305.954101,153.907748 310.663695,153.898912 319.664055,153.898912 C330.604803,153.898912 334.515621,160.566565 334.529803,166.804788 C334.547431,174.052084 329.328883,181.896694 320.872821,181.933805 L319.573928,181.939107 L324.345373,199.688884 L321.892497,199.681815 Z" id="Fill-25" fill="#B11D1B"></path>
                <path d="M370.067485,165.65699 C368.545924,167.420658 366.831738,169.382252 365.062769,171.407466 L364.553815,171.988875 C362.470283,174.372831 360.328435,176.822173 358.347401,179.117769 L356.915967,180.775404 L375.966405,180.775404 L371.28332,164.252065 L370.067485,165.65699 Z M330.422074,199.691535 C335.896866,193.140517 362.311235,161.532341 366.245027,156.884599 C368.602475,154.094187 371.753396,152.49487 374.890179,152.49487 C377.885587,152.49487 380.172346,154.030568 380.854486,156.504651 C383.272019,165.236396 389.423649,187.554391 391.970187,196.788022 L392.749523,199.615545 L382.056184,199.615545 L378.744447,190.155713 L349.571476,190.242305 L341.990179,199.691535 L330.422074,199.691535 Z" id="Fill-27" fill="#B11D1B"></path>
            </g>
        </g>
    </g>
</svg>