<?xml version="1.0" encoding="UTF-8"?>
<svg width="980px" height="680px" viewBox="0 0 980 680" version="1.1" xmlns="http://www.w3.org/2000/svg" xmlns:xlink="http://www.w3.org/1999/xlink">
    <title>IN India Post text</title>
    <defs>
        <linearGradient x1="50%" y1="0%" x2="50%" y2="100%" id="linearGradient-1">
            <stop stop-color="#FFFFFF" offset="0%"></stop>
            <stop stop-color="#EDEDED" offset="100%"></stop>
        </linearGradient>
        <rect id="path-2" x="0" y="0" width="900" height="600" rx="80"></rect>
        <filter x="-6.7%" y="-10.0%" width="113.3%" height="120.0%" filterUnits="objectBoundingBox" id="filter-3">
            <feMorphology radius="2.5" operator="dilate" in="SourceAlpha" result="shadowSpreadOuter1"></feMorphology>
            <feOffset dx="0" dy="0" in="shadowSpreadOuter1" result="shadowOffsetOuter1"></feOffset>
            <feGaussianBlur stdDeviation="17.5" in="shadowOffsetOuter1" result="shadowBlurOuter1"></feGaussianBlur>
            <feColorMatrix values="0 0 0 0 0   0 0 0 0 0   0 0 0 0 0  0 0 0 0.5 0" type="matrix" in="shadowBlurOuter1"></feColorMatrix>
        </filter>
    </defs>
    <g id="IN-India-Post-text" stroke="none" stroke-width="1" fill="none" fill-rule="evenodd">
        <g transform="translate(40, 40)">
            <g id="Rectangle">
                <use fill="black" fill-opacity="1" filter="url(#filter-3)" xlink:href="#path-2"></use>
                <use fill="url(#linearGradient-1)" fill-rule="evenodd" xlink:href="#path-2"></use>
            </g>
            <g id="Logo" transform="translate(50, 88)">
                <path d="M551.158526,89.8095908 L120.020003,89.8095908 L117.486248,89.8095908 L117.486248,150.219659 C137.889648,148.352681 136.422737,146.352348 155.892649,155.553882 C193.765628,173.556882 210.568428,185.158816 239.373229,214.230328 C252.975496,227.96595 261.243541,250.50304 291.115186,257.304173 C335.655943,267.439196 394.065678,231.433195 428.471412,208.229327 C464.744124,183.82526 504.350725,155.153815 539.556593,129.282836 L595.565928,89.9429464 L562.76046,89.6762353 C557.95966,92.2099909 520.886814,120.748081 515.819303,124.482036 C500.216703,136.350681 485.014169,147.685904 469.411569,159.554548 C453.675613,171.423193 438.206368,182.091638 422.070345,193.693572 C406.201034,205.028794 389.931655,214.897105 371.795299,224.898772 C355.792632,233.700239 331.655276,244.235328 308.851475,244.235328 C281.780297,244.235328 268.444741,228.499372 257.242874,214.230328 C245.774296,199.561216 230.838473,187.025794 214.835806,175.157149 C203.100517,166.489037 189.764961,158.487704 176.296049,152.486704 C172.96216,151.019793 164.027338,148.486037 161.626938,147.019126 C168.694782,146.485704 194.832472,144.618726 199.899983,146.485704 C207.234539,149.28617 237.906318,172.490038 244.040673,179.291171 C246.84114,182.491705 250.841807,186.492371 253.775629,189.026127 C256.976163,191.826594 259.643274,195.293838 262.843807,198.761083 C276.179363,212.763416 285.247541,229.699573 307.384564,231.033128 C347.791299,233.700239 406.334389,192.22666 439.006501,170.222993 L551.158526,89.8095908 Z M519.686614,388.392688 C522.887148,388.392688 523.020503,388.526044 525.420903,389.059466 L525.554259,416.264 C525.554259,421.198156 524.62077,419.997956 519.81997,419.997956 L519.81997,421.864933 L537.556259,421.864933 L537.556259,419.997956 C529.954992,419.997956 531.288548,422.398356 531.288548,406.128977 C536.889482,406.128977 550.225038,406.929111 550.225038,396.660733 C550.225038,390.793088 545.95766,386.792421 540.090015,386.52571 C533.688948,386.258999 526.354392,386.52571 519.81997,386.52571 L519.81997,388.392688 L519.686614,388.392688 Z M534.889148,404.262 L531.155193,404.262 C531.155193,386.258999 529.554926,388.526044 536.889482,388.526044 C544.490748,388.526044 543.823971,393.72691 543.823971,397.994288 C543.690615,402.795088 539.823304,404.262 534.889148,404.262 Z M458.476413,386.52571 L458.476413,388.392688 C461.010168,388.392688 461.010168,388.526044 462.877146,389.059466 L462.877146,402.261666 L460.343391,399.727911 C453.942324,395.993955 446.474412,401.328177 446.474412,411.729911 C446.474412,416.797422 450.475079,422.531711 455.275879,422.531711 C460.076679,422.531711 460.076679,420.531378 462.877146,418.797756 C463.67728,420.531378 463.410568,419.464533 463.543924,421.998289 L471.811969,421.998289 L471.811969,420.131311 C469.278213,420.131311 467.411235,420.131311 467.411235,417.597556 L467.411235,385.992288 C464.477413,385.858932 460.876813,385.592221 458.476413,386.52571 Z M451.541924,411.196489 C451.541924,395.327177 462.877146,400.394688 462.877146,409.329511 C462.877146,423.865267 451.541924,423.198489 451.541924,411.196489 Z M419.269878,401.061466 C421.136856,401.061466 421.536923,401.328177 423.003834,401.728244 C424.204034,406.795755 423.670612,412.796755 423.670612,418.130978 C423.670612,420.398022 422.070345,419.997956 419.936656,419.997956 L419.936656,421.864933 L431.938656,421.864933 L431.938656,419.997956 C427.271212,419.997956 428.204701,420.798089 428.204701,409.329511 C428.204701,400.261333 439.006501,399.727911 439.006501,406.795755 C439.006501,420.931444 440.073346,419.997956 435.272545,419.997956 L435.272545,421.864933 L447.274546,421.864933 L447.274546,419.997956 C444.74079,419.997956 445.274212,420.264667 443.54059,419.331178 C443.54059,405.195488 445.140857,399.061133 434.739123,399.061133 C431.405234,399.061133 430.605101,401.328177 428.471412,402.795088 C427.671279,401.194822 427.804634,401.594888 427.804634,399.061133 L419.269878,399.061133 L419.269878,401.061466 Z M487.547925,405.4622 C487.547925,408.929444 493.282214,408.929444 493.282214,405.4622 C493.282214,403.461866 492.748791,404.928777 492.082014,402.261666 C495.815969,400.261333 501.550258,399.861266 501.550258,405.4622 L501.550258,408.662733 C485.414236,408.662733 481.813636,421.864933 492.882147,422.931778 C497.816303,423.4652 498.883147,421.198156 501.550258,419.331178 C503.683947,420.931444 502.617103,422.131645 505.684281,422.798422 C508.084681,423.331845 509.818303,422.265 510.351725,419.997956 C508.618103,419.331178 509.551592,419.997956 506.61777,419.997956 C504.617436,411.729911 510.21837,398.527711 497.816303,398.527711 C493.015503,398.527711 487.547925,400.928111 487.547925,405.4622 Z M494.482414,420.664733 C490.215036,420.664733 488.348058,410.796422 501.416903,410.529711 C501.416903,415.0638 501.150192,420.664733 494.482414,420.664733 Z M401.666944,388.392688 C409.401567,388.392688 407.401234,385.058799 407.401234,418.130978 C407.401234,420.931444 404.467411,419.997956 401.666944,419.997956 C401.933656,423.865267 403.133856,422.531711 416.869478,422.531711 C418.603101,422.531711 418.069678,422.265 418.736456,421.331511 C417.669612,419.731244 419.136523,420.131311 413.002167,420.131311 L413.002167,390.393021 C413.002167,385.858932 417.4029,391.193155 418.736456,386.659066 L401.666944,386.659066 L401.666944,388.392688 L401.666944,388.392688 Z M547.557926,407.995955 C547.557926,412.396689 547.15786,416.130644 550.491749,419.597889 C556.492749,425.732245 569.028171,422.531711 569.028171,410.529711 C569.028171,399.061133 557.159527,395.460533 550.891815,401.194822 C549.55826,402.395022 547.557926,405.862266 547.557926,407.995955 Z M551.95866,410.529711 C551.95866,396.260666 563.96066,398.527711 563.96066,407.995955 C563.96066,411.596555 564.227371,420.664733 558.226371,420.664733 C553.425571,420.664733 551.95866,415.463867 551.95866,410.529711 Z M570.895149,404.262 C570.895149,408.396022 570.761794,410.929778 577.16286,412.530044 C581.030172,413.463533 585.430905,413.196822 585.430905,416.930778 C585.430905,419.597889 579.296549,423.4652 574.495749,417.730911 C571.828638,414.663733 574.095683,413.463533 570.228371,413.063466 C570.228371,417.064133 570.761794,419.597889 570.895149,422.531711 C573.162194,421.864933 572.228705,421.864933 574.095683,420.664733 C585.430905,426.665734 591.565261,417.064133 587.564594,411.729911 C584.09735,407.062466 573.56226,409.596222 573.56226,404.262 C573.56226,400.261333 581.296883,399.861266 583.830638,403.461866 C585.830972,406.395689 583.697283,407.062466 587.431239,407.329177 C587.431239,403.728577 586.764461,402.928444 586.764461,399.061133 C583.030505,399.327844 585.697616,400.394688 582.89715,399.727911 C581.563594,399.327844 577.962994,396.927444 573.695616,399.994622 C572.762127,400.661399 570.895149,403.0618 570.895149,404.262 Z M588.498083,401.728244 L592.232039,401.728244 L592.232039,416.930778 C592.232039,423.998622 605.167528,425.732245 605.434239,413.196822 L603.567261,413.196822 C602.767128,422.131645 596.632772,419.997956 596.632772,416.930778 L596.632772,401.728244 L603.567261,401.728244 L603.567261,399.194488 L596.632772,399.194488 L596.632772,391.593221 C596.632772,389.192821 596.766128,391.32651 595.965994,389.726244 C592.632105,390.926444 595.165861,392.393355 593.032172,396.260666 C591.031839,400.394688 588.89815,397.327511 588.498083,401.728244 Z M472.345391,401.728244 C478.613102,401.728244 477.412902,402.128311 477.412902,416.930778 C477.412902,418.6644 477.146191,418.6644 476.746124,420.131311 L473.012169,420.131311 L473.012169,421.998289 L485.680947,421.998289 L485.680947,420.131311 L481.946991,420.131311 L481.946991,399.327844 L472.478746,399.327844 L472.478746,401.728244 L472.345391,401.728244 Z M475.545924,388.392688 C476.212702,389.726244 476.612769,391.593221 478.746458,391.593221 C480.613436,391.593221 479.27988,392.126644 481.946991,389.059466 C481.280213,387.72591 480.880147,385.858932 478.746458,385.858932 C476.87948,385.858932 478.07968,385.458866 475.545924,388.392688 Z M230.438406,16.4640333 L230.438406,20.1979889 L141.356893,20.1979889 L141.356893,23.3985223 C149.891649,23.3985223 148.291382,25.1321446 148.291382,45.5355452 L138.823137,45.5355452 C138.823137,30.8664337 141.223537,20.0646334 128.688115,19.9312778 C123.087181,19.7979222 117.352892,24.0653001 117.352892,31.1331448 C117.352892,38.4677005 125.754292,44.2019896 133.088848,40.6013895 L133.088848,45.6689007 C126.154359,45.6689007 117.352892,46.3356785 117.352892,56.3373455 C117.352892,68.7394125 138.823137,72.7400793 138.823137,56.3373455 L138.823137,48.7360786 L148.291382,48.7360786 C148.291382,68.6060569 149.624937,67.672568 142.023671,67.672568 L142.023671,70.8731014 L160.293382,70.8731014 L160.293382,67.672568 C156.559427,67.672568 154.025671,68.4727014 154.025671,63.9386124 L154.025671,23.5318779 C172.028671,23.5318779 168.561427,18.4643666 168.561427,62.7384123 C168.561427,68.7394125 166.561094,67.8059236 162.293716,67.8059236 L162.293716,71.006457 L180.563427,71.006457 L180.563427,67.8059236 C176.829472,67.8059236 174.295716,68.6060569 174.295716,64.0719679 L174.295716,23.6652335 C189.231539,23.6652335 198.299717,20.5980556 198.299717,38.8677672 C198.299717,52.7367454 188.964827,55.4038566 179.363227,49.0027897 C178.696449,50.3363453 178.429738,50.4697009 178.163027,52.2033231 C180.696783,55.6705677 178.696449,50.8697675 186.297716,63.138479 C197.89965,81.9416129 213.768961,61.8049234 204.967495,65.5388791 C200.30005,67.5392125 196.832805,69.5395458 191.098516,59.6712345 C190.69845,58.8711011 190.298383,58.3376789 189.898316,57.6709011 C189.49825,56.7374122 189.364894,56.2039899 188.964827,55.4038566 C196.69945,55.4038566 204.167361,48.3360119 204.167361,40.8681006 C204.167361,30.466367 204.567428,31.9332781 199.09985,23.798589 L230.705118,23.798589 C233.772295,28.332678 232.572095,33.0001226 232.572095,41.5348784 C227.237873,37.9342783 227.104517,38.334345 221.236873,38.334345 C209.101517,38.334345 203.100517,56.3373455 210.968495,66.8724347 C212.435406,68.872768 218.169695,74.340346 218.703117,68.0726347 C212.702117,65.9389457 210.968495,40.8681006 223.770628,40.8681006 C235.105851,40.8681006 232.572095,58.3376789 232.572095,65.5388791 C232.572095,70.7397459 226.43774,64.6053901 226.304384,71.2731681 L244.574096,71.2731681 L244.574096,68.0726347 C240.573429,68.0726347 238.839807,68.6060569 238.839807,66.2056569 L238.839807,23.9319446 L253.375563,23.9319446 L253.375563,66.2056569 C253.375563,68.6060569 251.775296,68.0726347 247.641274,68.0726347 L247.641274,71.2731681 L265.910985,71.2731681 L265.910985,68.0726347 C263.110518,68.0726347 259.643274,68.7394125 259.643274,65.5388791 L259.643274,23.798589 L275.37923,23.798589 C284.847475,23.798589 287.781297,47.8025897 273.512252,47.8025897 C269.37823,47.8025897 266.577763,46.3356785 264.044007,44.6020563 C263.110518,48.602723 262.710452,47.2691674 265.510918,50.0696342 C269.778296,54.2036565 272.97883,66.0723013 282.980497,66.0723013 C288.848141,66.0723013 293.648941,62.4717012 297.516253,60.3380123 C297.516253,68.4727014 297.649608,67.9392791 291.248541,67.9392791 L291.248541,71.1398126 L309.518253,71.1398126 L309.518253,67.9392791 C305.517586,67.9392791 303.783964,68.4727014 303.783964,66.0723013 L303.783964,23.798589 L313.918986,23.798589 L313.918986,20.5980556 L260.176696,20.5980556 C260.176696,14.8637665 260.443407,9.26283306 256.309385,4.99545516 C247.907985,-4.20607843 230.438406,-0.872189448 230.438406,16.4640333 Z M236.839473,14.5970554 C236.839473,-0.738833888 253.908985,-2.47245616 253.908985,15.2638332 L253.908985,20.3313445 L236.839473,20.3313445 L236.839473,14.5970554 Z M284.180697,23.3985223 C300.316719,23.3985223 297.382897,18.7310778 297.382897,55.0037899 C297.382897,59.0044567 278.179697,68.2059902 274.045674,50.6030564 C276.312719,49.536212 283.913986,49.536212 287.514586,41.9349451 C289.78163,37.2675005 289.514919,33.4001893 287.781297,28.7327447 C286.447741,25.5322113 285.647608,25.6655668 284.180697,23.3985223 Z M128.154692,39.2678339 C120.686781,39.2678339 122.020337,22.1983223 126.954492,22.1983223 C132.288715,22.1983223 133.222204,25.3988557 133.222204,31.666567 C133.222204,35.1338116 131.488581,39.2678339 128.154692,39.2678339 Z M128.154692,65.1388124 C120.553426,65.1388124 122.420403,48.0693008 126.954492,48.0693008 C132.288715,48.0693008 133.222204,51.2698342 133.222204,57.5375455 C133.222204,61.00479 131.488581,65.1388124 128.154692,65.1388124 Z M327.121187,23.3985223 C354.592432,23.3985223 353.658943,20.9981223 353.658943,31.666567 C348.724787,30.466367 345.790965,29.2661669 340.190032,30.7330781 C328.721454,33.6669004 328.854809,48.2026564 344.857476,48.0693008 C353.658943,48.0693008 358.726454,47.9359452 358.726454,56.2039899 C358.726454,59.2711678 357.65961,61.4048567 356.059343,63.0051234 C350.991832,68.0726347 340.856809,67.5392125 334.722454,61.1381456 C331.255209,57.5375455 327.654609,52.3366787 327.654609,46.0689674 L324.587431,46.0689674 C333.122187,82.4750351 364.994166,72.6067237 364.994166,55.5372121 C364.994166,51.936612 363.66061,49.9362786 361.660277,48.0693008 C353.392232,40.3346784 338.456409,50.4697009 338.456409,37.8009227 C338.456409,29.9329447 353.658943,29.9329447 353.658943,38.4677005 L353.658943,41.668234 L359.926654,41.668234 L359.926654,23.3985223 L370.061677,23.3985223 L370.061677,65.1388124 C370.061677,70.3396792 363.927321,64.2053235 363.793966,70.8731014 L382.730455,70.8731014 C382.5971,66.6057235 381.663611,67.672568 376.996166,67.672568 C375.529255,61.4048567 376.329388,32.0666337 376.329388,23.5318779 C383.130522,23.5318779 396.9995,22.8651001 402.867145,24.1986557 C403.267211,26.1989891 404.067345,32.0666337 404.067345,34.3336782 C390.331722,27.132478 381.396899,37.0007894 381.396899,45.1354785 C381.396899,51.0031231 380.863477,53.6702343 384.730788,58.7377455 C389.531589,65.1388124 397.666278,64.2053235 404.067345,60.8714345 C403.533922,63.0051234 403.267211,65.6722346 402.867145,67.8059236 L397.799633,67.8059236 L397.799633,71.006457 L416.069345,71.006457 L416.069345,67.8059236 C408.068011,67.8059236 409.801634,69.5395458 409.801634,47.0024563 C409.801634,29.9329447 426.204367,29.6662336 426.204367,47.6692341 C426.204367,49.2695008 425.270878,54.8704343 424.737456,56.2039899 C422.603767,61.938279 417.936323,61.1381456 414.202367,60.2046567 C413.668945,62.0716345 413.935656,61.2715012 413.002167,62.7384123 C438.339723,68.6060569 436.872812,31.7999226 419.269878,31.7999226 C411.4019,31.7999226 414.202367,32.6000559 409.801634,33.6669004 L409.801634,23.5318779 L430.605101,23.5318779 C432.73879,23.5318779 432.472079,22.4650334 432.472079,20.3313445 L326.987831,20.3313445 L326.987831,23.3985223 L327.121187,23.3985223 Z M395.932655,60.7380789 C386.464411,60.7380789 387.664611,50.4697009 387.664611,43.6685673 C387.664611,31.2665003 403.400567,30.1996559 403.400567,44.8687674 C403.533922,50.3363453 403.800633,60.7380789 395.932655,60.7380789 Z M117.486248,197.02746 L117.486248,367.589221 L605.70095,367.589221 L605.70095,125.548881 C602.900483,126.749081 581.563594,142.618392 577.16286,145.818926 C550.091682,165.555549 520.886814,188.092638 493.948991,208.496039 C460.610102,233.700239 414.869145,266.905774 376.996166,285.308841 C323.520587,311.313175 272.712119,315.847264 230.838473,277.574218 C225.104184,272.373351 214.169028,258.237662 208.434739,251.436529 C206.30105,248.902773 204.300717,247.569217 202.167028,245.035462 C199.899983,242.368351 185.630938,230.766417 182.563761,228.632728 C169.228205,219.031128 132.955493,199.027794 117.486248,197.02746 Z" id="Shape" fill="#AC1D22"></path>
                <path d="M595.565928,89.8095908 L539.556593,129.149481 C504.350725,155.020459 464.744124,183.691905 428.471412,208.095972 C394.065678,231.299839 335.655943,267.439196 291.115186,257.170818 C261.243541,250.369684 252.975496,227.832595 239.373229,214.096972 C210.568428,185.02546 193.765628,173.423527 155.892649,155.420526 C136.422737,146.218992 137.889648,148.219326 117.486248,150.086304 L87.2145358,154.08697 C88.6814469,156.220659 87.4812469,155.020459 94.5490915,156.220659 C98.6831139,157.020793 114.819137,160.354682 117.619603,161.554882 C134.689115,164.355348 170.695116,181.558216 185.89765,190.493038 C232.038673,217.297506 239.239873,243.835262 262.710452,260.237996 C299.249875,285.708907 342.590432,269.70624 376.329388,253.036795 C397.266211,242.768417 418.736456,228.632728 436.472745,215.830594 C455.54259,202.094972 474.745791,188.359349 493.015503,174.490371 C511.685281,160.221326 530.221704,146.352348 548.891482,132.48337 C558.226371,125.548881 567.427905,119.014458 576.762794,111.813258 C580.896816,108.612725 602.233706,93.0101243 605.70095,91.4098576 C607.967995,89.5428797 610.901817,87.4091908 613.302217,85.8089241 L621.570262,80.2079906 C635.305884,71.2731681 652.375396,61.1381456 664.110685,53.2701676 C671.445241,48.3360119 686.78113,39.9346117 694.915819,35.5338782 L727.054509,18.9977889 C729.454909,17.7975888 744.524087,11.6632331 745.724287,9.92961085 C741.056843,10.3296775 708.651442,24.3320113 704.650775,26.3323446 C686.647775,35.5338782 676.646108,39.4011894 657.709618,50.736412 C654.375729,52.7367454 651.441907,54.070301 648.508085,56.0706344 C647.041174,57.0041233 645.840973,57.8042566 644.240707,58.7377455 L639.439907,61.5382123 C637.972995,62.4717012 636.63944,63.2718346 635.172529,64.2053235 L613.168861,78.2076572 C607.167861,81.9416129 600.366728,87.1424797 595.565928,89.8095908 M551.158526,89.8095908 L439.139857,170.222993 C406.467745,192.093305 347.924654,233.700239 307.51792,231.033128 C285.380897,229.566217 276.179363,212.763416 262.977163,198.761083 C259.643274,195.293838 257.109518,191.693238 253.908985,189.026127 C250.975163,186.492371 246.974496,182.358349 244.174029,179.291171 C238.039673,172.490038 207.367895,149.28617 200.033339,146.485704 C194.965828,144.618726 168.828138,146.485704 161.760293,147.019126 C164.160693,148.486037 173.095516,151.019793 176.429405,152.486704 C189.898316,158.487704 203.233872,166.489037 214.969162,175.157149 C230.971829,187.025794 245.774296,199.561216 257.376229,214.230328 C268.578096,228.499372 281.913652,244.235328 308.984831,244.235328 C331.788631,244.235328 355.792632,233.700239 371.928655,224.898772 C390.065011,214.897105 406.334389,205.028794 422.203701,193.693572 C438.339723,182.091638 453.808968,171.423193 469.544924,159.554548 C485.147525,147.685904 500.350058,136.484037 515.952659,124.482036 C521.02017,120.614725 558.093016,92.0766354 562.893816,89.6762353 L574.76246,81.0081239 C575.96266,80.074635 576.496083,79.8079239 577.696283,78.874435 L656.776129,24.0653001 C658.109685,23.1318112 659.043174,22.7317445 659.576596,21.1314778 C654.64244,23.798589 650.241707,26.0656335 645.307551,28.9994558 L617.836306,45.8022563 C615.569262,47.2691674 613.568928,48.2026564 611.168528,49.8029231 L584.497416,67.4058569 C582.097016,69.0061236 580.096683,70.2063236 577.696283,71.9399459 C570.228371,77.0074572 557.826304,84.7420796 551.158526,89.8095908 Z M605.567595,111.813258 L548.491415,152.620059 C520.353392,172.623393 492.615436,194.226994 463.943991,213.963617 C454.209035,220.631394 445.274212,227.165817 435.005834,233.700239 C387.264544,264.505373 317.252875,309.979619 257.776296,276.507374 C234.039007,263.171818 228.171362,244.768751 209.768295,227.299172 C190.031672,208.496039 176.162694,200.361349 151.891982,187.959282 C144.957493,184.358682 118.686448,174.757082 117.619603,173.690238 C113.21887,172.756749 107.751292,171.156482 103.217203,169.689571 C93.2155359,166.355682 84.5474246,164.355348 74.1456909,162.088304 C68.8114686,160.888104 63.4772462,159.421193 58.0096683,160.354682 C52.6754459,161.288171 47.7412902,162.355015 42.9404901,163.688571 L14.1356893,171.556549 C12.5354226,171.956615 12.1353559,172.223326 10.9351559,172.756749 C9.46824471,173.290171 8.40140023,173.423527 7.06784464,173.956949 C4.80080013,174.757082 2.80046674,175.690571 0,176.357349 C1.20020003,177.957616 -0.666777796,177.690904 6.93448908,177.690904 C22.5370895,177.557549 30.9384897,179.02446 46.4077346,181.158149 C49.4749125,181.558216 51.4752459,181.558216 54.2757126,182.091638 C72.4120687,185.425527 78.8131355,186.625727 96.9494916,191.159816 C101.750292,192.360016 114.685781,195.293838 117.486248,197.02746 C133.088848,199.027794 169.228205,219.031128 182.563761,228.632728 C185.630938,230.899773 199.899983,242.368351 202.167028,245.035462 C204.300717,247.569217 206.30105,248.902773 208.434739,251.436529 C214.169028,258.237662 225.23754,272.373351 230.838473,277.574218 C272.578763,315.847264 323.520587,311.313175 376.996166,285.308841 C414.869145,266.905774 460.743457,233.700239 493.948991,208.496039 C520.753459,188.092638 549.958326,165.555549 577.16286,145.818926 C581.563594,142.618392 602.900483,126.749081 605.70095,125.548881 L661.576929,87.5425463 C666.111019,84.2086574 673.978996,80.074635 679.313219,76.8741016 L703.583931,63.2718346 C705.850975,62.0716345 707.584597,61.2715012 709.851642,60.0713011 L728.654776,50.4697009 C729.988331,49.8029231 729.72162,49.8029231 731.588598,49.0027897 L787.197866,23.798589 C789.731622,22.8651001 791.331889,22.0649667 793.865644,20.9981223 C797.066178,19.6645667 798.933156,19.1311444 800,17.6642333 C795.999333,17.6642333 784.3974,21.9316112 779.329888,23.5318779 C764.927488,28.0659669 735.855976,39.8012561 720.920153,46.6023896 L667.311219,73.6735682 L614.10235,106.34568 C612.768795,107.145814 613.035506,107.279169 611.568595,108.212658 C610.101684,109.146147 609.968328,109.012791 608.634772,109.812925 C607.434572,110.479703 606.634439,111.14648 605.567595,111.813258 Z" id="Shape" fill="#FDE600"></path>
                <path d="M117.486248,161.688237 L117.619603,173.690238 C118.686448,174.757082 144.957493,184.358682 151.891982,187.959282 C176.296049,200.361349 190.031672,208.496039 209.768295,227.299172 C228.171362,244.768751 234.172362,263.171818 257.776296,276.507374 C317.386231,309.979619 387.264544,264.505373 435.005834,233.700239 C445.274212,227.165817 454.075679,220.631394 463.943991,213.963617 C492.615436,194.226994 520.353392,172.623393 548.491415,152.620059 L605.567595,111.813258 L605.567595,91.5432131 C602.10035,93.0101243 580.896816,108.612725 576.629438,111.946614 C567.294549,119.147814 557.95966,125.815592 548.758126,132.616725 C530.088348,146.485704 511.551925,160.488037 492.882147,174.623727 C474.612435,188.492705 455.409235,202.228327 436.33939,215.96395 C418.603101,228.766084 397.132855,242.901773 376.196033,253.170151 C342.457076,269.839596 299.116519,285.708907 262.577096,260.371351 C239.106518,244.101973 231.905318,217.564217 185.764294,190.626394 C170.56176,181.824927 134.555759,164.62206 117.486248,161.688237" id="Path" fill="#AE2925"></path>
            </g>
        </g>
    </g>
</svg>