<?xml version="1.0" encoding="UTF-8"?>
<svg width="980px" height="680px" viewBox="0 0 980 680" version="1.1" xmlns="http://www.w3.org/2000/svg" xmlns:xlink="http://www.w3.org/1999/xlink">
    <title>IN India Post</title>
    <defs>
        <linearGradient x1="50%" y1="0%" x2="50%" y2="100%" id="linearGradient-1">
            <stop stop-color="#FFFFFF" offset="0%"></stop>
            <stop stop-color="#EDEDED" offset="100%"></stop>
        </linearGradient>
        <rect id="path-2" x="0" y="0" width="900" height="600" rx="80"></rect>
        <filter x="-6.7%" y="-10.0%" width="113.3%" height="120.0%" filterUnits="objectBoundingBox" id="filter-3">
            <feMorphology radius="2.5" operator="dilate" in="SourceAlpha" result="shadowSpreadOuter1"></feMorphology>
            <feOffset dx="0" dy="0" in="shadowSpreadOuter1" result="shadowOffsetOuter1"></feOffset>
            <feGaussianBlur stdDeviation="17.5" in="shadowOffsetOuter1" result="shadowBlurOuter1"></feGaussianBlur>
            <feColorMatrix values="0 0 0 0 0   0 0 0 0 0   0 0 0 0 0  0 0 0 0.5 0" type="matrix" in="shadowBlurOuter1"></feColorMatrix>
        </filter>
    </defs>
    <g id="IN-India-Post" stroke="none" stroke-width="1" fill="none" fill-rule="evenodd">
        <g transform="translate(40, 40)">
            <g id="Rectangle">
                <use fill="black" fill-opacity="1" filter="url(#filter-3)" xlink:href="#path-2"></use>
                <use fill="url(#linearGradient-1)" fill-rule="evenodd" xlink:href="#path-2"></use>
            </g>
            <g id="Logo" transform="translate(50, 120.9296)">
                <path d="M551.158526,79.87998 L120.020003,79.87998 L117.486248,79.87998 L117.486248,140.290048 C137.889648,138.423071 136.422737,136.422737 155.892649,145.624271 C193.765628,163.627271 210.568428,175.229205 239.373229,204.300717 C252.975496,218.036339 261.243541,240.573429 291.115186,247.374562 C335.655943,257.509585 394.065678,221.503584 428.471412,198.299717 C464.744124,173.895649 504.350725,145.224204 539.556593,119.353226 L595.565928,80.0133356 L562.76046,79.7466244 C557.95966,82.2803801 520.886814,110.81847 515.819303,114.552425 C500.216703,126.42107 485.014169,137.756293 469.411569,149.624937 C453.675613,161.493582 438.206368,172.162027 422.070345,183.763961 C406.201034,195.099183 389.931655,204.967495 371.795299,214.969162 C355.792632,223.770628 331.655276,234.305718 308.851475,234.305718 C281.780297,234.305718 268.444741,218.569762 257.242874,204.300717 C245.774296,189.631605 230.838473,177.096183 214.835806,165.227538 C203.100517,156.559427 189.764961,148.558093 176.296049,142.557093 C172.96216,141.090182 164.027338,138.556426 161.626938,137.089515 C168.694782,136.556093 194.832472,134.689115 199.899983,136.556093 C207.234539,139.356559 237.906318,162.560427 244.040673,169.36156 C246.84114,172.562094 250.841807,176.56276 253.775629,179.096516 C256.976163,181.896983 259.643274,185.364227 262.843807,188.831472 C276.179363,202.833806 285.247541,219.769962 307.384564,221.103517 C347.791299,223.770628 406.334389,182.29705 439.006501,160.293382 L551.158526,79.87998 Z M117.486248,187.09785 L117.486248,357.65961 L605.70095,357.65961 L605.70095,115.61927 C602.900483,116.81947 581.563594,132.688781 577.16286,135.889315 C550.091682,155.625938 520.886814,178.163027 493.948991,198.566428 C460.610102,223.770628 414.869145,256.976163 376.996166,275.37923 C323.520587,301.383564 272.712119,305.917653 230.838473,267.644607 C225.104184,262.443741 214.169028,248.308051 208.434739,241.506918 C206.30105,238.973162 204.300717,237.639607 202.167028,235.105851 C199.899983,232.43874 185.630938,220.836806 182.563761,218.703117 C169.228205,209.101517 132.955493,189.098183 117.486248,187.09785 Z" id="Shape" fill="#AC1D22"></path>
                <path d="M595.565928,79.87998 L539.556593,119.21987 C504.350725,145.090848 464.744124,173.762294 428.471412,198.166361 C394.065678,221.370228 335.655943,257.509585 291.115186,247.241207 C261.243541,240.440073 252.975496,217.902984 239.373229,204.167361 C210.568428,175.095849 193.765628,163.493916 155.892649,145.490915 C136.422737,136.289382 137.889648,138.289715 117.486248,140.156693 L87.2145358,144.15736 C88.6814469,146.291049 87.4812469,145.090848 94.5490915,146.291049 C98.6831139,147.091182 114.819137,150.425071 117.619603,151.625271 C134.689115,154.425738 170.695116,171.628605 185.89765,180.563427 C232.038673,207.367895 239.239873,233.905651 262.710452,250.308385 C299.249875,275.779297 342.590432,259.776629 376.329388,243.107185 C397.266211,232.838806 418.736456,218.703117 436.472745,205.900983 C455.54259,192.165361 474.745791,178.429738 493.015503,164.56076 C511.685281,150.291715 530.221704,136.422737 548.891482,122.553759 C558.226371,115.61927 567.427905,109.084847 576.762794,101.883647 C580.896816,98.6831139 602.233706,83.0805134 605.70095,81.4802467 C607.967995,79.6132689 610.901817,77.4795799 613.302217,75.8793132 L621.570262,70.2783797 C635.305884,61.3435573 652.375396,51.2085348 664.110685,43.3405568 C671.445241,38.4064011 686.78113,30.0050008 694.915819,25.6042674 L727.054509,9.06817803 C729.454909,7.867978 744.524087,1.73362227 745.724287,2.84217094e-14 C741.056843,0.400066678 708.651442,14.4024004 704.650775,16.4027338 C686.647775,25.6042674 676.646108,29.4715786 657.709618,40.8068011 C654.375729,42.8071345 651.441907,44.1406901 648.508085,46.1410235 C647.041174,47.0745124 645.840973,47.8746458 644.240707,48.8081347 L639.439907,51.6086014 C637.972995,52.5420903 636.63944,53.3422237 635.172529,54.2757126 L613.168861,68.2780463 C607.167861,72.012002 600.366728,77.2128688 595.565928,79.87998 M551.158526,79.87998 L439.139857,160.293382 C406.467745,182.163694 347.924654,223.770628 307.51792,221.103517 C285.380897,219.636606 276.179363,202.833806 262.977163,188.831472 C259.643274,185.364227 257.109518,181.763627 253.908985,179.096516 C250.975163,176.56276 246.974496,172.428738 244.174029,169.36156 C238.039673,162.560427 207.367895,139.356559 200.033339,136.556093 C194.965828,134.689115 168.828138,136.556093 161.760293,137.089515 C164.160693,138.556426 173.095516,141.090182 176.429405,142.557093 C189.898316,148.558093 203.233872,156.559427 214.969162,165.227538 C230.971829,177.096183 245.774296,189.631605 257.376229,204.300717 C268.578096,218.569762 281.913652,234.305718 308.984831,234.305718 C331.788631,234.305718 355.792632,223.770628 371.928655,214.969162 C390.065011,204.967495 406.334389,195.099183 422.203701,183.763961 C438.339723,172.162027 453.808968,161.493582 469.544924,149.624937 C485.147525,137.756293 500.350058,126.554426 515.952659,114.552425 C521.02017,110.685114 558.093016,82.1470245 562.893816,79.7466244 L574.76246,71.0785131 C575.96266,70.1450242 576.496083,69.8783131 577.696283,68.9448241 L656.776129,14.1356893 C658.109685,13.2022004 659.043174,12.8021337 659.576596,11.201867 C654.64244,13.8689782 650.241707,16.1360227 645.307551,19.069845 L617.836306,35.8726454 C615.569262,37.3395566 613.568928,38.2730455 611.168528,39.8733122 L584.497416,57.476246 C582.097016,59.0765128 580.096683,60.2767128 577.696283,62.0103351 C570.228371,67.0778463 557.826304,74.8124687 551.158526,79.87998 Z M605.567595,101.883647 L548.491415,142.690448 C520.353392,162.693782 492.615436,184.297383 463.943991,204.034006 C454.209035,210.701784 445.274212,217.236206 435.005834,223.770628 C387.264544,254.575763 317.252875,300.050008 257.776296,266.577763 C234.039007,253.242207 228.171362,234.83914 209.768295,217.369562 C190.031672,198.566428 176.162694,190.431739 151.891982,178.029672 C144.957493,174.429072 118.686448,164.827471 117.619603,163.760627 C113.21887,162.827138 107.751292,161.226871 103.217203,159.75996 C93.2155359,156.426071 84.5474246,154.425738 74.1456909,152.158693 C68.8114686,150.958493 63.4772462,149.491582 58.0096683,150.425071 C52.6754459,151.35856 47.7412902,152.425404 42.9404901,153.75896 L14.1356893,161.626938 C12.5354226,162.027005 12.1353559,162.293716 10.9351559,162.827138 C9.46824471,163.36056 8.40140023,163.493916 7.06784464,164.027338 C4.80080013,164.827471 2.80046674,165.76096 0,166.427738 C1.20020003,168.028005 -0.666777796,167.761294 6.93448908,167.761294 C22.5370895,167.627938 30.9384897,169.094849 46.4077346,171.228538 C49.4749125,171.628605 51.4752459,171.628605 54.2757126,172.162027 C72.4120687,175.495916 78.8131355,176.696116 96.9494916,181.230205 C101.750292,182.430405 114.685781,185.364227 117.486248,187.09785 C133.088848,189.098183 169.228205,209.101517 182.563761,218.703117 C185.630938,220.970162 199.899983,232.43874 202.167028,235.105851 C204.300717,237.639607 206.30105,238.973162 208.434739,241.506918 C214.169028,248.308051 225.23754,262.443741 230.838473,267.644607 C272.578763,305.917653 323.520587,301.383564 376.996166,275.37923 C414.869145,256.976163 460.743457,223.770628 493.948991,198.566428 C520.753459,178.163027 549.958326,155.625938 577.16286,135.889315 C581.563594,132.688781 602.900483,116.81947 605.70095,115.61927 L661.576929,77.6129355 C666.111019,74.2790465 673.978996,70.1450242 679.313219,66.9444907 L703.583931,53.3422237 C705.850975,52.1420237 707.584597,51.3418903 709.851642,50.1416903 L728.654776,40.54009 C729.988331,39.8733122 729.72162,39.8733122 731.588598,39.0731789 L787.197866,13.8689782 C789.731622,12.9354892 791.331889,12.1353559 793.865644,11.0685114 C797.066178,9.73495583 798.933156,9.20153359 800,7.73462244 C795.999333,7.73462244 784.3974,12.0020003 779.329888,13.602267 C764.927488,18.1363561 735.855976,29.8716453 720.920153,36.6727788 L667.311219,63.7439573 L614.10235,96.4160693 C612.768795,97.2162027 613.035506,97.3495583 611.568595,98.2830472 C610.101684,99.2165361 609.968328,99.0831805 608.634772,99.8833139 C607.434572,100.550092 606.634439,101.216869 605.567595,101.883647 Z" id="Shape" fill="#FDE600"></path>
                <path d="M117.486248,151.758626 L117.619603,163.760627 C118.686448,164.827471 144.957493,174.429072 151.891982,178.029672 C176.296049,190.431739 190.031672,198.566428 209.768295,217.369562 C228.171362,234.83914 234.172362,253.242207 257.776296,266.577763 C317.386231,300.050008 387.264544,254.575763 435.005834,223.770628 C445.274212,217.236206 454.075679,210.701784 463.943991,204.034006 C492.615436,184.297383 520.353392,162.693782 548.491415,142.690448 L605.567595,101.883647 L605.567595,81.6136023 C602.10035,83.0805134 580.896816,98.6831139 576.629438,102.017003 C567.294549,109.218203 557.95966,115.885981 548.758126,122.687115 C530.088348,136.556093 511.551925,150.558426 492.882147,164.694116 C474.612435,178.563094 455.409235,192.298716 436.33939,206.034339 C418.603101,218.836473 397.132855,232.972162 376.196033,243.24054 C342.457076,259.909985 299.116519,275.779297 262.577096,250.44174 C239.106518,234.172362 231.905318,207.634606 185.764294,180.696783 C170.56176,171.895316 134.555759,154.692449 117.486248,151.758626" id="Path" fill="#AE2925"></path>
            </g>
        </g>
    </g>
</svg>