<?xml version="1.0" encoding="UTF-8"?>
<svg width="980px" height="680px" viewBox="0 0 980 680" version="1.1" xmlns="http://www.w3.org/2000/svg" xmlns:xlink="http://www.w3.org/1999/xlink">
    <title>IS Pósturinn</title>
    <defs>
        <linearGradient x1="50%" y1="0%" x2="50%" y2="100%" id="linearGradient-1">
            <stop stop-color="#FFFFFF" offset="0%"></stop>
            <stop stop-color="#EDEDED" offset="100%"></stop>
        </linearGradient>
        <rect id="path-2" x="0" y="0" width="900" height="600" rx="80"></rect>
        <filter x="-6.7%" y="-10.0%" width="113.3%" height="120.0%" filterUnits="objectBoundingBox" id="filter-3">
            <feMorphology radius="2.5" operator="dilate" in="SourceAlpha" result="shadowSpreadOuter1"></feMorphology>
            <feOffset dx="0" dy="0" in="shadowSpreadOuter1" result="shadowOffsetOuter1"></feOffset>
            <feGaussianBlur stdDeviation="17.5" in="shadowOffsetOuter1" result="shadowBlurOuter1"></feGaussianBlur>
            <feColorMatrix values="0 0 0 0 0   0 0 0 0 0   0 0 0 0 0  0 0 0 0.5 0" type="matrix" in="shadowBlurOuter1"></feColorMatrix>
        </filter>
    </defs>
    <g id="IS-Pósturinn" stroke="none" stroke-width="1" fill="none" fill-rule="evenodd">
        <g transform="translate(40, 40)">
            <g id="Rectangle">
                <use fill="black" fill-opacity="1" filter="url(#filter-3)" xlink:href="#path-2"></use>
                <use fill="url(#linearGradient-1)" fill-rule="evenodd" xlink:href="#path-2"></use>
            </g>
            <g id="Logo" transform="translate(49.7089, 152)" fill="#D02314" fill-rule="nonzero">
                <path d="M449.115691,73.0320244 C449.115691,73.0320244 446.286503,132.019805 445.881905,170.140922 C452.349478,170.943125 458.81805,171.745328 465.285622,172.146929 C534.815527,173.350733 567.963586,136.031818 567.963586,104.732922 C567.963586,73.4333256 517.432801,39.7262221 455.179665,39.7262221 C392.92553,39.7262221 343.608539,73.4333256 343.608539,104.732922 C343.608539,110.75194 344.416736,114.764952 346.842325,119.980769 C325.416617,110.350339 319.757241,107.54213 301.566318,93.0957861 C284.184592,20.0637616 441.435324,13.6433419 450.328486,13.6433419 C453.96687,13.6433419 458.008854,13.6433419 461.647238,13.6433419 C546.538877,14.0446431 616.876979,53.7708652 616.876979,105.133524 C616.876979,128.408394 598.686056,145.663247 579.282338,162.917101 C581.707928,162.516499 584.133517,161.713297 586.962706,161.312696 C664.982174,139.242628 718.342147,91.4906811 758.766975,43.3377331 C777.362496,56.5797738 784.638266,62.1975911 800,73.8345269 C737.342266,132.822008 629.408525,202.243021 501.667468,202.243021 C483.476545,202.243021 465.69022,201.439819 449.115691,199.834415 C447.902896,199.834415 447.0947,199.834415 445.881905,199.433813 C446.690102,243.172347 449.115691,296.14071 449.115691,296.14071 L409.500059,296.14071 C409.500059,296.14071 412.329248,239.962537 412.733846,195.0192 C410.712854,194.618598 408.691862,194.216997 406.669872,193.414794 C268.822857,168.133917 191.612585,92.2931836 158.464526,63.4013949 L71.9554942,123.993781 C88.1254254,144.057843 221.525859,220.300077 378.372992,223.109285 C378.372992,223.509887 378.372992,224.313089 378.372992,224.313089 C331.076992,227.522899 150.783159,241.567942 0,123.993781 L175.846253,0 C175.846253,0 256.695908,125.599186 406.669872,163.318702 L412.733846,164.522506 C411.925649,126.80299 409.500059,73.0320244 409.500059,73.0320244 L449.115691,73.0320244 Z" id="Path"></path>
            </g>
        </g>
    </g>
</svg>