<?xml version="1.0" encoding="UTF-8"?>
<svg width="980px" height="680px" viewBox="0 0 980 680" version="1.1" xmlns="http://www.w3.org/2000/svg" xmlns:xlink="http://www.w3.org/1999/xlink">
    <title>IS Pósturinn text</title>
    <defs>
        <linearGradient x1="50%" y1="0%" x2="50%" y2="100%" id="linearGradient-1">
            <stop stop-color="#FFFFFF" offset="0%"></stop>
            <stop stop-color="#EDEDED" offset="100%"></stop>
        </linearGradient>
        <rect id="path-2" x="0" y="0" width="900" height="600" rx="80"></rect>
        <filter x="-6.7%" y="-10.0%" width="113.3%" height="120.0%" filterUnits="objectBoundingBox" id="filter-3">
            <feMorphology radius="2.5" operator="dilate" in="SourceAlpha" result="shadowSpreadOuter1"></feMorphology>
            <feOffset dx="0" dy="0" in="shadowSpreadOuter1" result="shadowOffsetOuter1"></feOffset>
            <feGaussianBlur stdDeviation="17.5" in="shadowOffsetOuter1" result="shadowBlurOuter1"></feGaussianBlur>
            <feColorMatrix values="0 0 0 0 0   0 0 0 0 0   0 0 0 0 0  0 0 0 0.5 0" type="matrix" in="shadowBlurOuter1"></feColorMatrix>
        </filter>
    </defs>
    <g id="IS-Pósturinn-text" stroke="none" stroke-width="1" fill="none" fill-rule="evenodd">
        <g transform="translate(40, 40)">
            <g id="Rectangle">
                <use fill="black" fill-opacity="1" filter="url(#filter-3)" xlink:href="#path-2"></use>
                <use fill="url(#linearGradient-1)" fill-rule="evenodd" xlink:href="#path-2"></use>
            </g>
            <g id="Logo" transform="translate(50, 122)" fill="#D02314" fill-rule="nonzero">
                <path d="M436.717778,54.1515556 C436.717778,54.1515556 434.62,97.8896296 434.32,126.155556 C439.115556,126.75037 443.911852,127.345185 448.707407,127.642963 C500.262222,128.535556 524.840741,100.864444 524.840741,77.657037 C524.840741,54.4491111 487.373333,29.4560741 441.214074,29.4560741 C395.054074,29.4560741 358.486667,54.4491111 358.486667,77.657037 C358.486667,82.12 359.085926,85.0955556 360.884444,88.962963 C344.997778,81.8222222 340.801481,79.74 327.313333,69.0283704 C314.425185,14.8768148 431.022963,10.1162222 437.617037,10.1162222 C440.314815,10.1162222 443.311852,10.1162222 446.00963,10.1162222 C508.954815,10.4137778 561.108889,39.8698519 561.108889,77.9540741 C561.108889,95.2118519 547.620741,108.005926 533.233333,120.799259 C535.031852,120.502222 536.83037,119.906667 538.928148,119.60963 C596.777778,103.245185 636.342963,67.8382222 666.317037,32.1339259 C680.105185,41.9525926 685.5,46.1180741 696.89037,54.7465926 C650.431111,98.4844444 570.400741,149.958519 475.683704,149.958519 C462.195556,149.958519 449.007407,149.362963 436.717778,148.172593 C435.818519,148.172593 435.219259,148.172593 434.32,147.875556 C434.919259,180.306667 436.717778,219.581481 436.717778,219.581481 L407.343704,219.581481 C407.343704,219.581481 409.441481,177.926667 409.741481,144.602222 C408.242963,144.305185 406.744444,144.007407 405.245185,143.412593 C303.034815,124.667407 245.785185,68.4332593 221.206667,47.0106667 L157.062222,91.9385185 C169.051852,106.815556 267.965185,163.347407 384.263704,165.43037 C384.263704,165.727407 384.263704,166.322963 384.263704,166.322963 C349.194815,168.702963 215.511111,179.117037 103.708889,91.9385185 L234.094815,0 C234.094815,0 294.042963,93.1288889 405.245185,121.097037 L409.741481,121.98963 C409.142222,94.0214815 407.343704,54.1515556 407.343704,54.1515556 L436.717778,54.1515556 Z" id="Path"></path>
                <path d="M0,354.960741 L16.4855556,354.960741 L16.4855556,326.991852 L41.3637778,326.991852 C63.5443704,326.991852 75.2340741,315.685926 75.2340741,305.56963 C75.2340741,297.833333 70.1386667,291.882963 63.5443704,288.60963 C55.1517778,284.444444 47.6582963,283.551852 39.2656296,283.551852 L0,283.551852 L0,354.960741 Z M16.4855556,293.668148 L40.1648889,293.668148 C44.9606667,293.668148 48.2577778,293.965926 51.8545926,295.751111 C56.050963,297.536296 58.7485926,300.511111 58.7485926,305.271852 C58.7485926,310.925185 52.7538519,316.875556 40.7643704,316.875556 L16.4855556,316.875556 L16.4855556,293.668148 Z" id="Shape"></path>
                <path d="M107.905926,319.256296 C107.905926,304.677037 109.104444,302.594074 113.300741,299.023704 C116.597778,296.345926 122.293333,293.668148 130.085926,293.668148 C137.879259,293.668148 143.574074,296.048148 146.871852,299.023704 C151.068148,302.594074 152.266667,304.677037 152.266667,319.256296 C152.266667,333.835556 151.068148,335.918519 146.871852,339.488889 C143.574074,342.463704 137.879259,344.844444 130.085926,344.844444 C122.293333,344.844444 116.597778,342.463704 113.300741,339.488889 C109.104444,335.918519 107.905926,333.835556 107.905926,319.256296 Z M91.72,319.256296 C91.72,336.513333 92.9185185,338.596296 96.5155556,342.761481 C101.611111,349.00963 113.300741,355.555556 130.385926,355.555556 C147.471111,355.555556 159.160741,349.00963 164.256296,342.761481 C167.853333,338.596296 169.051852,336.513333 169.051852,319.256296 C169.051852,301.999259 167.853333,299.916296 164.256296,295.751111 C159.160741,289.502222 147.471111,282.957037 130.385926,282.957037 C113.300741,282.957037 101.611111,289.502222 96.5155556,295.751111 C92.9185185,299.916296 91.72,301.999259 91.72,319.256296 Z M118.396296,279.981481 L130.985185,279.981481 L152.566667,265.402222 L132.184444,265.402222 L118.396296,279.981481 Z" id="Shape"></path>
                <path d="M183.739259,345.737037 C195.128889,352.282963 208.917037,355.555556 225.102963,355.555556 C248.482222,355.555556 263.16963,347.819259 263.16963,334.728148 C263.16963,324.90963 253.877778,315.685926 233.495556,314.197778 C228.4,313.900741 224.203704,313.305185 221.505926,313.008148 C210.715556,311.817778 206.219259,307.94963 206.219259,303.784444 C206.219259,296.940741 214.312593,293.668148 224.203704,293.668148 C233.795556,293.668148 243.087407,295.751111 250.880741,299.321481 L259.872593,290.394815 C249.981481,286.22963 238.291852,282.957037 224.802963,282.957037 C202.622963,282.957037 189.734074,291.585185 189.734074,303.784444 C189.734074,314.197778 199.625185,322.231852 218.508889,324.017037 C224.203704,324.611852 227.800741,324.90963 232.896296,325.206667 C242.488148,326.099259 246.983704,329.967407 246.983704,334.728148 C246.983704,340.678519 238.891111,344.546667 225.702222,344.546667 C214.312593,344.546667 203.222222,341.868889 195.128889,337.405926 L183.739259,345.737037 Z" id="Path"></path>
                <polygon id="Path" points="303.934074 354.960741 320.12 354.960741 320.12 293.073333 349.794074 293.073333 349.794074 283.551852 274.26 283.551852 274.26 293.073333 303.934074 293.073333"></polygon>
                <path d="M364.780741,330.86 C364.780741,345.737037 381.865926,355.555556 403.147407,355.555556 C424.428889,355.555556 441.513333,345.737037 441.513333,330.86 L441.513333,283.551852 L425.028148,283.551852 L425.028148,329.66963 C425.028148,339.488889 415.436296,344.844444 403.147407,344.844444 C390.857778,344.844444 381.266667,339.488889 381.266667,329.66963 L381.266667,283.551852 L364.780741,283.551852 L364.780741,330.86 Z" id="Path"></path>
                <path d="M467.591111,354.960741 L484.076296,354.960741 L484.076296,324.314074 L505.057778,324.314074 L527.238519,354.960741 L546.721481,354.960741 L521.543704,323.124444 C534.731852,320.148889 542.525185,312.71037 542.525185,303.486667 C542.525185,296.940741 537.72963,291.585185 531.734815,288.312593 C526.04,285.039259 518.845926,283.551852 509.854074,283.551852 L467.591111,283.551852 L467.591111,354.960741 Z M484.076296,293.073333 L509.854074,293.073333 C515.548889,293.073333 518.845926,293.668148 521.843704,295.155556 C525.140741,296.643704 527.238519,299.618519 527.238519,303.188889 C527.238519,309.14 521.243704,314.495556 508.954815,314.495556 L484.076296,314.495556 L484.076296,293.073333 Z" id="Shape"></path>
                <polygon id="Path" points="582.09037 283.551852 565.605185 283.551852 565.605185 354.960741 582.09037 354.960741"></polygon>
                <polygon id="Path" points="609.966667 354.960741 626.451852 354.960741 626.451852 304.081481 626.751852 304.081481 675.608889 354.960741 690.895556 354.960741 690.895556 283.551852 674.70963 283.551852 674.70963 334.133333 674.11037 334.133333 625.552593 283.551852 609.966667 283.551852"></polygon>
                <polygon id="Path" points="719.071111 354.960741 735.257037 354.960741 735.257037 304.081481 735.556296 304.081481 784.414815 354.960741 800 354.960741 800 283.551852 783.511111 283.551852 783.511111 334.133333 783.214815 334.133333 734.357778 283.551852 719.071111 283.551852"></polygon>
            </g>
        </g>
    </g>
</svg>