<?xml version="1.0" encoding="UTF-8"?>
<svg width="980px" height="680px" viewBox="0 0 980 680" version="1.1" xmlns="http://www.w3.org/2000/svg" xmlns:xlink="http://www.w3.org/1999/xlink">
    <title>IT brt red</title>
    <defs>
        <rect id="path-1" x="0" y="0" width="900" height="600" rx="80"></rect>
        <filter x="-6.7%" y="-10.0%" width="113.3%" height="120.0%" filterUnits="objectBoundingBox" id="filter-2">
            <feMorphology radius="2.5" operator="dilate" in="SourceAlpha" result="shadowSpreadOuter1"></feMorphology>
            <feOffset dx="0" dy="0" in="shadowSpreadOuter1" result="shadowOffsetOuter1"></feOffset>
            <feGaussianBlur stdDeviation="17.5" in="shadowOffsetOuter1" result="shadowBlurOuter1"></feGaussianBlur>
            <feColorMatrix values="0 0 0 0 0   0 0 0 0 0   0 0 0 0 0  0 0 0 0.5 0" type="matrix" in="shadowBlurOuter1"></feColorMatrix>
        </filter>
        <polygon id="path-3" points="0 0 90.6801261 0 90.6801261 200.062492 0 200.062492"></polygon>
        <path d="M168.234368,0 C166.028337,0 163.810051,0.465717636 162.131016,1.39715291 L8.50547473,85.1160259 L180.600397,185.306596 C182.193642,186.164497 183.419214,188.247971 183.419214,190.110841 L183.406959,336.260389 C183.406959,338.098748 182.095596,340.206733 180.490096,341.064634 L171.224766,346.21204 C170.452655,346.616479 169.484452,346.824826 168.454971,346.824826 L168.271135,346.824826 C167.16812,346.861593 166.126383,346.64099 165.329761,346.21204 L156.027664,341.064634 C154.446675,340.218989 153.159824,338.098748 153.159824,336.260389 L153.159824,205.982008 C153.074034,205.026061 152.375457,203.861767 151.615602,203.420561 L0,115.167069 L0,288.034102 C0,291.906912 2.72077145,296.67439 6.066585,298.635306 L162.216806,390.724841 C163.871329,391.693044 166.040593,392.183273 168.222113,392.183273 L168.283391,392.183273 C170.489422,392.183273 172.695453,391.717555 174.349976,390.724841 L330.524709,298.635306 C333.858267,296.662134 336.579038,291.906912 336.566824,288.034102 L336.566824,115.167069 L233.814765,175.024041 C232.22152,175.955476 229.745863,175.881942 228.201642,174.925995 L219.095636,169.508964 C218.360293,169.055502 217.673972,168.320158 217.159231,167.42549 L217.061186,167.278422 C216.485166,166.334731 216.154262,165.317505 216.117495,164.410581 L215.884636,153.797122 C215.823357,152.007785 216.999907,149.826266 218.580896,148.894831 L328.061308,85.1160259 L174.448022,1.39715291 C172.756732,0.453461909 170.526189,0 168.295647,0 L168.234368,0 Z" id="path-5"></path>
    </defs>
    <g id="IT-brt-red" stroke="none" stroke-width="1" fill="none" fill-rule="evenodd">
        <g transform="translate(40, 40)">
            <g id="Rectangle">
                <use fill="black" fill-opacity="1" filter="url(#filter-2)" xlink:href="#path-1"></use>
                <use fill="#DC0032" fill-rule="evenodd" xlink:href="#path-1"></use>
            </g>
            <g id="Logo" transform="translate(50, 104)">
                <g id="Group" transform="translate(444.4143, 85.1191)">
                    <path d="M56.8175516,177.193305 C52.037818,177.193305 44.6843816,176.8624 38.3114034,175.60006 L38.3114034,99.6145512 C44.3779884,96.7467111 52.3564669,95.1412108 61.9281899,95.1412108 C85.2263274,95.1412108 100.864635,109.517179 100.864635,134.72721 C100.864635,161.86139 83.9517318,177.193305 56.8175516,177.193305 M65.114679,61.3276593 C55.2243071,61.3276593 44.6843816,62.5777434 38.2991477,65.788744 L38.2991477,0 L0,0 L0,203.359283 C16.9251594,207.832623 38.9487013,210.05091 58.104403,210.05091 C107.249869,210.05091 139.825592,183.884932 139.825592,136.001806 C139.825592,90.6801261 109.492667,61.3276593 65.114679,61.3276593 M216.938628,60.2491553 C179.423847,60.2491553 155.145252,74.1594057 155.145252,117.189264 L155.145252,207.759089 L194.290044,207.759089 L194.290044,119.762967 C194.290044,103.585407 203.028378,95.1902337 219.843236,95.1902337 C229.231123,95.1902337 238.937659,96.4280622 247.026439,99.0140206 L247.026439,62.8351137 C237.087044,61.1928463 227.025092,60.3226896 216.938628,60.2491553" id="Shape" fill="#FFFFFF" fill-rule="nonzero"></path>
                    <g transform="translate(264.9056, 11.1804)" id="Clipped">
                        <mask id="mask-4" fill="white">
                            <use xlink:href="#path-3"></use>
                        </mask>
                        <g id="jxsltin4qa"></g>
                        <path d="M63.8645948,165.574875 C47.2580844,165.574875 38.6423081,157.265492 38.6423081,141.308535 L38.6423081,85.0179801 L89.0378586,85.0179801 L89.0378586,53.1040663 L38.6423081,53.1040663 L38.6423081,0 L0,0 L0,143.869982 C0,186.323822 23.9476911,200.062492 60.9967546,200.062492 C70.237573,200.062492 80.4588495,199.143312 90.6801261,197.513301 L90.6801261,161.800111 C82.7139033,164.349303 73.1299246,165.56262 63.8645948,165.56262" id="Path" fill="#FFFFFF" fill-rule="nonzero" mask="url(#mask-4)"></path>
                    </g>
                </g>
                <g id="Clipped">
                    <mask id="mask-6" fill="white">
                        <use xlink:href="#path-5"></use>
                    </mask>
                    <g id="ttojdb46hc"></g>
                    <path d="M168.234368,0 C166.028337,0 163.810051,0.465717636 162.131016,1.39715291 L8.50547473,85.1160259 L180.600397,185.306596 C182.193642,186.164497 183.419214,188.247971 183.419214,190.110841 L183.406959,336.260389 C183.406959,338.098748 182.095596,340.206733 180.490096,341.064634 L171.224766,346.21204 C170.452655,346.616479 169.484452,346.824826 168.454971,346.824826 L168.271135,346.824826 C167.16812,346.861593 166.126383,346.64099 165.329761,346.21204 L156.027664,341.064634 C154.446675,340.218989 153.159824,338.098748 153.159824,336.260389 L153.159824,205.982008 C153.074034,205.026061 152.375457,203.861767 151.615602,203.420561 L0,115.167069 L0,288.034102 C0,291.906912 2.72077145,296.67439 6.066585,298.635306 L162.216806,390.724841 C163.871329,391.693044 166.040593,392.183273 168.222113,392.183273 L168.283391,392.183273 C170.489422,392.183273 172.695453,391.717555 174.349976,390.724841 L330.524709,298.635306 C333.858267,296.662134 336.579038,291.906912 336.566824,288.034102 L336.566824,115.167069 L233.814765,175.024041 C232.22152,175.955476 229.745863,175.881942 228.201642,174.925995 L219.095636,169.508964 C218.360293,169.055502 217.673972,168.320158 217.159231,167.42549 L217.061186,167.278422 C216.485166,166.334731 216.154262,165.317505 216.117495,164.410581 L215.884636,153.797122 C215.823357,152.007785 216.999907,149.826266 218.580896,148.894831 L328.061308,85.1160259 L174.448022,1.39715291 C172.756732,0.453461909 170.526189,0 168.295647,0 L168.234368,0 Z" id="Path" fill="#FFFFFF" fill-rule="nonzero" mask="url(#mask-6)"></path>
                </g>
            </g>
        </g>
    </g>
</svg>