<?xml version="1.0" encoding="UTF-8"?>
<svg width="980px" height="680px" viewBox="0 0 980 680" version="1.1" xmlns="http://www.w3.org/2000/svg" xmlns:xlink="http://www.w3.org/1999/xlink">
    <title>IT brt alt</title>
    <defs>
        <linearGradient x1="50%" y1="0%" x2="50%" y2="100%" id="linearGradient-1">
            <stop stop-color="#FFFFFF" offset="0%"></stop>
            <stop stop-color="#EDEDED" offset="100%"></stop>
        </linearGradient>
        <rect id="path-2" x="0" y="0" width="900" height="600" rx="80"></rect>
        <filter x="-6.7%" y="-10.0%" width="113.3%" height="120.0%" filterUnits="objectBoundingBox" id="filter-3">
            <feMorphology radius="2.5" operator="dilate" in="SourceAlpha" result="shadowSpreadOuter1"></feMorphology>
            <feOffset dx="0" dy="0" in="shadowSpreadOuter1" result="shadowOffsetOuter1"></feOffset>
            <feGaussianBlur stdDeviation="17.5" in="shadowOffsetOuter1" result="shadowBlurOuter1"></feGaussianBlur>
            <feColorMatrix values="0 0 0 0 0   0 0 0 0 0   0 0 0 0 0  0 0 0 0.5 0" type="matrix" in="shadowBlurOuter1"></feColorMatrix>
        </filter>
        <polygon id="path-4" points="0 0 76.9752457 0 76.9752457 169.826181 0 169.826181"></polygon>
    </defs>
    <g id="IT-brt-alt" stroke="none" stroke-width="1" fill="none" fill-rule="evenodd">
        <g transform="translate(40, 40)">
            <g id="Rectangle">
                <use fill="black" fill-opacity="1" filter="url(#filter-3)" xlink:href="#path-2"></use>
                <use fill="url(#linearGradient-1)" fill-rule="evenodd" xlink:href="#path-2"></use>
            </g>
            <g id="Logo" transform="translate(50, 133)">
                <g transform="translate(0, 0)">
                    <polygon id="path9" fill="#DC0032" points="290.441203 72.6856634 290.784116 72.6856634 290.784116 72.6856634"></polygon>
                    <polygon id="path11" fill="#DC0032" points="282.21304 68.228495 287.698336 74.3999581 290.784068 72.6856634 282.21304 68.228495"></polygon>
                    <polygon id="path13" fill="#DC0032" points="273.984422 63.7713283 284.612605 76.1142545 288.384049 74.0571001 284.26974 69.2570722 273.984422 63.7713283"></polygon>
                    <polygon id="path15" fill="#DC0032" points="265.412956 59.31416 281.527327 77.8285493 285.298317 75.7713949 276.041576 64.7999055 265.412956 59.31416"></polygon>
                    <path d="M257.184339,54.8569917 L278.441595,79.542844 L282.21304,77.4856897 L267.470111,60.3427372 L257.184339,54.8569917 Z M297.984108,98.3996361 L295.584089,99.7710777 L297.984108,102.51395 L297.984108,98.3996409 L297.984108,98.3996361 Z" id="path17" fill="#DC0032"></path>
                    <path d="M248.955721,50.399825 L275.355864,81.2571404 L279.127308,79.199986 L259.241493,55.8855689 L248.955721,50.399825 L248.955721,50.399825 Z M296.612666,99.0853536 L292.841222,101.485368 L297.984108,107.656831 L297.984108,101.142508 L296.612618,99.0853536 L296.612666,99.0853536 Z" id="path19" fill="#DC0032"></path>
                    <path d="M240.38424,45.9426567 L272.270132,82.9714352 L276.384441,80.9142808 L251.012876,51.4284022 L240.38424,45.9426567 Z M293.526935,100.79965 L289.755491,103.199662 L297.984108,112.799717 L297.984108,106.285394 L293.526935,100.79965 Z" id="path21" fill="#DC0032"></path>
                    <path d="M232.155622,41.4856261 L269.527265,84.6857299 L273.298709,82.6285756 L242.441394,46.9712339 L232.155622,41.4856261 L232.155622,41.4856261 Z M290.441203,102.856804 L286.669759,104.913959 L297.984108,118.285462 L297.984108,111.771139 L290.441203,102.856804 Z" id="path23" fill="#DC0032"></path>
                    <path d="M223.927005,37.0285047 L266.441534,86.4000263 L270.212978,84.3428719 L234.212777,42.5142032 L223.927005,37.0285047 Z M287.355472,104.571099 L283.584028,106.628254 L297.984108,123.428348 L297.984108,116.914025 L287.355472,104.571099 Z" id="path25" fill="#DC0032"></path>
                    <path d="M215.355976,32.5713818 L263.355802,88.1143211 L267.127246,86.0571667 L225.984159,38.0570819 L215.355976,32.5713818 L215.355976,32.5713818 Z M284.26974,106.285394 L280.49875,108.342548 L297.984108,128.571234 L297.984108,122.056911 L284.26974,106.285394 L284.26974,106.285394 Z" id="path27" fill="#DC0032"></path>
                    <path d="M207.127359,28.1142151 L260.27007,90.1714754 L264.041515,87.7714615 L217.413131,33.5999589 L207.127359,28.1142151 Z M281.184462,107.99969 L277.413018,110.056845 L297.984108,134.056978 L297.984108,127.542657 L281.184462,107.99969 Z" id="path29" fill="#DC0032"></path>
                    <path d="M198.555893,23.6570921 L257.184339,91.8857702 L260.955783,89.4857578 L209.184513,29.1427922 L198.555893,23.6570921 Z M278.441595,109.713985 L274.327287,111.771139 L297.984108,139.199864 L297.984108,132.685543 L278.441595,109.713985 L278.441595,109.713985 Z" id="path31" fill="#DC0032"></path>
                    <path d="M190.327276,19.1999707 L254.098607,93.5996098 L258.212916,91.2000526 L200.955896,24.6856693 L190.327276,19.1999707 Z M275.355864,111.42828 L271.584419,113.485434 L297.984108,144.685609 L297.984108,137.828428 L275.355864,111.42828 Z" id="path33" fill="#DC0032"></path>
                    <path d="M182.098658,14.7428481 L251.355724,95.3139045 L255.127185,92.9138906 L192.38443,20.2285479 L182.098658,14.7428481 Z M272.270132,113.142576 L268.498688,115.199731 L297.984108,149.828495 L297.984108,143.314172 L272.270132,113.142576 L272.270132,113.142576 Z" id="path35" fill="#DC0032"></path>
                    <path d="M173.527176,9.94282132 L248.269993,97.0281993 L252.041453,94.6281869 L184.155813,15.7713796 L173.527176,9.94282132 Z M269.184401,114.856871 L265.412956,116.914025 L297.984108,154.970924 L297.984108,148.457058 L269.184401,114.856871 L269.184401,114.856871 Z" id="path37" fill="#DC0032"></path>
                    <path d="M165.298561,5.48569917 L245.184261,98.7424957 L248.955721,96.6853413 L175.927195,11.3142576 L165.298561,5.48569917 Z M266.098669,116.571166 L262.327225,118.62832 L297.984108,160.456668 L297.984108,153.599944 L266.098669,116.571166 L266.098669,116.571166 Z" id="path39" fill="#DC0032"></path>
                    <path d="M157.0704,1.37142706 L242.09853,100.45679 L245.86999,98.3996361 L167.355713,6.85713546 L157.0704,1.37142706 C157.0704,1.37142706 157.0704,1.37142706 157.0704,1.37142706 Z M263.012938,118.285462 L259.241493,120.342616 L297.984108,165.599549 L297.984108,159.085233 L263.012938,118.285462 L263.012938,118.285462 Z" id="path41" fill="#DC0032"></path>
                    <path d="M151.584656,0 C151.584656,0 151.584656,0 151.584656,0 L239.012798,102.171085 L242.784258,100.113931 L159.127554,2.39999517 L157.0704,1.37142706 C155.356105,0.34285636 153.64181,0 151.584656,0 Z M259.927206,119.999757 L256.155762,122.056911 L297.984108,170.742435 L297.984108,164.228124 L259.927206,119.999757 L259.927206,119.999757 Z" id="path43" fill="#DC0032"></path>
                    <path d="M151.584656,0 C150.213214,0 148.841783,0.34285636 147.470347,0.68571353 L235.927066,103.885382 L240.041375,101.828227 L152.613233,0 C152.270369,0 151.927521,0 151.584656,0 Z M257.184339,121.714052 L253.412878,123.771206 L297.984108,176.228185 L297.984108,169.37101 L257.184339,121.714052 L257.184339,121.714052 Z" id="path45" fill="#DC0032"></path>
                    <path d="M148.498925,0.34285636 C147.813212,0.68571353 146.784628,1.02856811 146.44177,1.37142706 L144.384616,2.39999517 L233.184199,105.599676 L236.955644,103.542522 L148.498925,0.34285636 L148.498925,0.34285636 Z M254.098607,123.428348 L250.327147,125.82836 L297.984108,181.371071 L297.984108,174.856744 L254.098607,123.428348 L254.098607,123.428348 Z" id="path47" fill="#DC0032"></path>
                    <path d="M145.070333,1.71428164 L141.298884,3.77142223 L230.098468,107.313971 L233.869912,105.256817 L145.070333,1.71428164 Z M251.012876,125.142643 L247.241415,127.542657 L297.984108,186.513957 L297.984108,179.99963 L251.012876,125.142643 L251.012876,125.142643 Z" id="path49" fill="#DC0032"></path>
                    <path d="M141.984602,3.42856312 L138.213153,5.48569917 L227.012736,109.028267 L230.784181,106.971113 L141.984602,3.42856312 Z M247.927144,126.856937 L244.155684,129.256951 L297.984108,191.999707 L297.984108,185.48538 L247.927144,126.856937 Z" id="path51" fill="#DC0032"></path>
                    <path d="M138.89887,5.14284022 L135.127421,7.19999458 L223.927005,110.742562 L227.698449,108.685408 L138.89887,5.14284022 Z M244.841413,128.571234 L241.069952,130.971246 L297.984108,197.142593 L297.984108,190.628266 L244.841413,128.571234 Z" id="path53" fill="#DC0032"></path>
                    <path d="M135.813139,6.85713546 L132.04169,8.91428982 L220.841727,112.456857 L224.612717,110.399703 L135.813139,6.85713546 Z M241.755681,130.285529 L237.984221,132.685543 L297.984108,202.285479 L297.984108,195.771152 L241.755681,130.285529 L241.755681,130.285529 Z" id="path55" fill="#DC0032"></path>
                    <path d="M132.727407,8.57143071 L128.955958,10.6285394 L217.755995,114.171153 L221.526986,112.113999 L132.727407,8.57143071 Z M239.012798,131.999823 L235.241354,134.399837 L297.984108,207.771213 L297.984108,201.256902 L239.012798,131.999823 L239.012798,131.999823 Z" id="path57" fill="#DC0032"></path>
                    <path d="M129.641676,9.94282132 L125.870227,12.3428348 L215.013128,115.885448 L218.784572,113.828294 L129.641676,9.94282132 Z M235.927066,134.056978 L232.155622,136.114132 L297.984108,212.914099 L297.984108,206.399788 L235.927066,134.056978 L235.927066,134.056978 Z" id="path59" fill="#DC0032"></path>
                    <path d="M126.555944,11.6571166 L122.784495,13.7142709 L211.927397,117.599743 L215.698841,115.542589 L126.555944,11.6571166 Z M232.841335,135.771274 L229.069891,137.828428 L297.984108,218.399396 L297.984108,211.542674 L232.841335,135.771274 Z" id="path61" fill="#DC0032"></path>
                    <path d="M123.470213,13.371412 L119.698764,15.4285663 L208.841665,119.656897 L212.613109,117.256885 L123.470213,13.371412 Z M229.755603,137.485569 L225.984159,139.542723 L297.984108,223.542282 L297.984108,217.027955 L229.755603,137.485569 Z" id="path63" fill="#DC0032"></path>
                    <path d="M120.384481,15.0857072 L116.613032,17.1428164 L205.755934,121.371194 L209.527378,118.97118 L120.384481,15.0857072 Z M226.669872,139.199864 L222.898428,141.257018 L297.984108,228.685168 L297.984108,222.17084 L226.669872,139.199864 Z" id="path65" fill="#DC0032"></path>
                    <path d="M117.29875,16.7999568 L113.5273,18.8571111 L202.670202,123.085488 L206.441646,120.685474 L117.29875,16.7999568 Z M223.58414,140.91416 L219.81315,142.971314 L297.984108,234.170902 L297.984108,227.313726 L223.58414,140.91416 L223.58414,140.91416 Z" id="path67" fill="#DC0032"></path>
                    <path d="M114.213018,18.5142515 L110.441569,20.5714059 L199.58447,124.799783 L203.355915,122.399771 L114.213018,18.5142515 Z M220.841727,142.628455 L217.070282,144.685609 L297.984108,239.313788 L297.984108,232.799477 L220.841727,142.628455 L220.841727,142.628455 Z" id="path69" fill="#DC0032"></path>
                    <path d="M111.127287,19.8856883 L107.012978,21.9427973 L196.841587,126.51408 L200.613048,124.114066 L111.127287,19.8856883 Z M217.755995,144.34275 L213.984551,146.399904 L297.984108,244.456674 L297.984108,237.942363 L217.755995,144.34275 L217.755995,144.34275 Z" id="path71" fill="#DC0032"></path>
                    <path d="M108.041555,21.5999734 L103.927246,23.6570921 L194.09872,128.571234 C194.441633,127.885521 194.784384,127.542657 195.47021,127.199792 L197.527365,125.828351 L108.041604,21.5999734 L108.041555,21.5999734 Z M214.670264,146.057046 L210.898819,148.1142 L297.298379,248.913847 C297.641292,247.88527 297.984043,246.856693 297.984043,245.828116 L297.984043,243.085248 L214.670199,146.057046 L214.670264,146.057046 Z" id="path73" fill="#DC0032"></path>
                    <path d="M104.955823,23.3142325 L100.841515,25.3713869 L193.070143,132.685543 L193.070143,131.314101 C193.070143,130.285524 193.755807,128.914087 194.441633,127.88551 L104.955823,23.3142325 Z M211.584532,147.771341 L208.841665,149.485635 C208.498752,149.485635 208.156001,149.8285 207.813088,149.8285 L295.584089,252.342448 C296.612666,250.970958 297.298379,249.599565 297.641244,248.228139 L211.584532,147.771341 L211.584532,147.771341 Z" id="path75" fill="#DC0032"></path>
                    <path d="M101.870092,25.0285289 L97.75624,27.0856832 L193.070143,138.171286 L193.070143,131.314106 L101.870092,25.0285289 Z M201.984473,148.1142 L293.18407,254.742446 C294.212648,254.056782 295.241225,252.685291 296.269802,251.656714 L208.498801,149.485635 C207.12731,150.171348 205.070205,150.171348 203.698779,149.485635 L201.984473,148.1142 Z" id="path77" fill="#DC0032"></path>
                    <path d="M98.7843604,26.7428236 L94.6705084,28.7999326 L290.098339,256.456752 L292.841222,255.085262 C293.184135,254.742348 293.526886,254.399597 293.869799,254.056684 L204.041627,149.485635 C204.041627,149.485635 203.698714,149.485635 203.698714,149.485635 L195.81301,144.685609 C195.127346,144.342745 194.784433,143.657032 194.09872,142.971314 C194.09872,142.971314 194.09872,142.971314 194.09872,142.971314 C193.413056,141.942737 193.413056,141.257018 193.070143,140.5713 L193.070143,136.799851 L98.7843604,26.7428236 Z" id="path79" fill="#DC0032"></path>
                    <polygon id="path81" fill="#DC0032" points="95.6990856 28.457073 91.5847769 30.5142274 287.012607 258.171042 290.784068 256.113887"></polygon>
                    <polygon id="path83" fill="#DC0032" points="92.6133541 29.8285098 88.4990454 31.8856642 284.26974 259.885332 288.041185 257.828177"></polygon>
                    <polygon id="path85" fill="#DC0032" points="89.5276225 31.5428046 85.4133138 33.5999589 281.184462 261.599638 284.955453 259.542483"></polygon>
                    <polygon id="path87" fill="#DC0032" points="86.441891 33.257101 82.3275823 35.3142083 278.098731 263.313928 281.870191 261.256773"></polygon>
                    <polygon id="path89" fill="#DC0032" points="83.0133015 34.9713504 79.2418508 37.0285047 275.012999 265.371082 278.78446 262.971063"></polygon>
                    <polygon id="path91" fill="#DC0032" points="79.92757 36.6856451 76.1561192 38.7427995 271.927268 267.085372 275.698728 264.685369"></polygon>
                    <polygon id="path93" fill="#DC0032" points="76.8418384 38.3999399 73.0703877 40.4570489 269.184401 268.799678 272.955845 266.399659"></polygon>
                    <polygon id="path95" fill="#DC0032" points="73.7561069 39.7713767 69.9846561 41.8284857 266.098669 270.513968 269.870113 268.113949"></polygon>
                    <polygon id="path97" fill="#DC0032" points="70.6703753 41.4856261 66.8989246 43.5427804 263.012938 272.228258 266.784382 270.171103"></polygon>
                    <path d="M67.5846438,43.1999208 L63.8131931,45.2570752 L159.127554,156.342359 L162.212829,158.399514 C163.584271,159.085226 164.955703,160.799528 164.955703,162.513818 L164.955703,162.856731 L259.927206,273.942612 L263.69865,271.885458 L67.5846438,43.1999208 Z" id="path99" fill="#DC0032"></path>
                    <path d="M64.4989123,44.9142172 L60.7274615,46.9712339 L150.213219,151.54279 L161.527112,157.713796 L64.4989123,44.9142172 Z M164.612843,161.485245 C164.612843,161.82811 164.955708,162.170974 164.955708,162.513822 L164.955708,168.342437 L256.841479,275.656859 L260.612924,273.599704 L164.612843,161.485245 L164.612843,161.485245 Z" id="path101" fill="#DC0032"></path>
                    <path d="M61.4131807,46.6283743 L57.64173,48.6855286 L141.298884,146.399904 L152.613233,152.571367 L61.4131807,46.6283743 Z M164.955703,166.970991 L164.955703,173.485318 L254.098607,277.371144 L257.870052,275.313989 L164.955703,166.970991 L164.955703,166.970991 Z" id="path103" fill="#DC0032"></path>
                    <path d="M58.3274492,48.3426707 L54.5559984,50.399825 L132.727407,141.257018 L143.698897,147.428481 L58.3274492,48.3426707 Z M164.955703,172.113877 L164.955703,178.971052 L251.012876,279.084996 L254.78432,277.028295 L164.955703,172.113877 L164.955703,172.113877 Z" id="path105" fill="#DC0032"></path>
                    <path d="M55.2417176,49.7141058 L51.4702669,51.7712602 L123.813072,136.114132 L134.784562,142.628455 L55.2417176,49.7141058 Z M164.955703,177.599627 L164.955703,184.113938 L247.927144,280.799286 L251.698589,278.742132 L164.955703,177.599627 L164.955703,177.599627 Z" id="path107" fill="#DC0032"></path>
                    <path d="M52.1559861,51.4284022 L48.384673,53.4855566 L114.898736,130.971246 L125.870227,137.485569 L52.1559861,51.4284022 Z M164.955703,182.742513 L164.955703,189.256824 L244.841413,282.513576 L248.612857,280.456422 L164.955703,182.742513 L164.955703,182.742513 Z" id="path109" fill="#DC0032"></path>
                    <path d="M49.0703906,53.142697 L45.2989869,55.1998513 L105.984401,126.17122 L116.95589,132.342683 L49.0703906,53.142697 Z M164.955703,187.885399 L164.955703,194.742575 L241.755681,284.57073 L245.527126,282.170728 L164.955703,187.885399 L164.955703,187.885399 Z" id="path111" fill="#DC0032"></path>
                    <path d="M45.9846591,54.8569917 L42.2132553,56.9141461 L97.0705224,121.028334 L108.041555,127.199797 L45.9846591,54.8569917 L45.9846591,54.8569917 Z M164.955703,193.371133 L164.955703,199.88546 L239.012798,286.285036 L242.784258,283.885018 L164.955703,193.371133 L164.955703,193.371133 Z" id="path113" fill="#DC0032"></path>
                    <path d="M42.8989745,56.5712881 L39.1275691,58.6284424 L88.1561874,115.885448 L99.470078,122.056911 L42.8989745,56.5712881 Z M164.955703,198.514019 L164.955703,205.028346 L235.927066,287.999326 L239.698527,285.599308 L164.955703,198.514019 Z" id="path115" fill="#DC0032"></path>
                    <path d="M39.813243,58.2855828 L36.0418376,60.3427372 L79.2418508,110.742562 L90.5561997,117.256885 L39.813243,58.2855828 Z M129.641676,169.37101 L138.556011,179.656781 L138.556011,175.885321 C138.556011,175.199657 137.870298,174.171031 137.184569,173.828167 L129.641676,169.37101 L129.641676,169.37101 Z M164.955703,203.656905 L164.955703,210.514097 L232.841335,289.713616 L236.612795,287.313614 L164.955703,203.656905 L164.955703,203.656905 Z" id="path117" fill="#DB0032"></path>
                    <path d="M36.7275568,59.6570196 L32.956153,61.714174 L70.3275157,105.599676 L81.6418647,112.113999 L36.7275568,59.6570196 Z M120.727341,164.228124 L138.556011,184.799667 L138.556011,178.28534 L132.04169,170.742435 L120.727341,164.228124 L120.727341,164.228124 Z M164.955703,209.142655 L164.955703,215.656983 L229.755603,291.427922 L233.527064,289.370768 L164.955703,209.142655 Z" id="path119" fill="#DC0032"></path>
                    <path d="M33.6418253,61.3713144 L29.8704215,63.4284687 L61.7560387,100.79965 L72.7275297,106.971113 L33.6418253,61.3713144 L33.6418253,61.3713144 Z M111.813004,159.428091 L138.556011,190.285401 L138.556011,183.77109 L123.127353,165.599549 L111.813004,159.428091 Z M164.955703,214.285541 L164.955703,220.799399 L226.669872,293.142212 L230.441332,291.085058 L164.955703,214.285541 Z" id="path121" fill="#DC0032"></path>
                    <path d="M30.5561391,63.0856091 L26.7847353,65.1427635 L52.8417037,95.6567641 L63.8131931,101.828227 L30.5561391,63.0856091 Z M103.241529,154.285663 L138.556011,195.428287 L138.556011,188.913976 L114.213018,160.456668 L103.241529,154.285663 Z M164.955703,219.770822 L164.955703,226.285149 L223.927005,294.856502 L227.698449,292.799348 L164.955703,219.770822 L164.955703,219.770822 Z" id="path123" fill="#DC0032"></path>
                    <path d="M27.4704075,64.7999055 L23.6990038,66.8570599 L43.9275517,90.514335 L54.898858,96.6853413 L27.4704075,64.7999055 Z M94.3276505,149.142777 L138.556011,200.571173 L138.556011,194.056862 L105.298683,155.656642 L94.3276505,149.142777 Z M164.955703,224.913707 L164.955703,231.428035 L220.841727,296.570808 L224.612717,294.513654 L164.955703,224.913707 L164.955703,224.913707 Z" id="path125" fill="#DC0032"></path>
                    <path d="M24.3847214,66.5142003 L20.6133178,68.5713546 L35.0132604,85.3714491 L45.9846591,91.8857702 L24.3847214,66.5142003 Z M85.4133138,143.999892 L138.556011,206.056924 L138.556011,199.542596 L96.3848048,150.514213 L85.4133138,143.999892 Z M164.955703,230.056593 L164.955703,236.570921 L217.755995,298.285098 L221.526986,296.227944 L164.955703,230.056593 L164.955703,230.056593 Z" id="path127" fill="#DC0032"></path>
                    <path d="M21.2989901,68.228495 L17.5275862,70.2856494 L26.0990177,80.2285632 L37.4132744,86.7428843 L21.2989901,68.228495 Z M76.4989788,139.199864 L138.556011,211.199809 L138.556011,204.685482 L87.4704682,145.371327 L76.4989788,139.199864 Z M164.955703,235.542344 L164.955703,242.056671 L214.670264,299.999388 L218.441708,297.942234 L164.955703,235.542344 L164.955703,235.542344 Z" id="path129" fill="#DC0032"></path>
                    <path d="M18.2133043,69.5999318 L14.0990414,71.6570862 L17.1847271,75.4285353 L28.4989847,81.5999984 L18.2133043,69.5999318 Z M67.5846438,134.056978 L138.556011,216.68509 L138.556011,209.828368 L78.8989928,140.228441 L67.5846438,134.056978 Z M164.955703,240.68523 L164.955703,247.199557 L211.584532,302.056542 L215.355976,299.65654 L164.955703,240.68523 Z" id="path131" fill="#DC0032"></path>
                    <path d="M15.1275727,71.3142266 L12.7276051,72.6856682 L19.5847406,76.4571173 L15.1275727,71.3142314 L15.1275727,71.3142266 Z M58.6703072,128.914092 L138.556011,221.827976 L138.556011,215.314118 L69.9846561,135.428415 L58.6703072,128.914092 Z M164.955703,245.828116 L164.955703,252.685291 L208.841665,303.770848 L212.613109,301.37083 L164.955703,245.828116 L164.955703,245.828116 Z" id="path133" fill="#DC0032"></path>
                    <path d="M50.0989678,123.771206 L138.556011,226.970862 L138.556011,220.456551 L61.0703211,130.285529 L50.0989678,123.771206 Z M164.955703,251.313866 L164.955703,257.828177 L205.755934,305.485138 L209.527378,303.08512 L164.955703,251.313866 L164.955703,251.313866 Z" id="path135" fill="#DC0032"></path>
                    <path d="M41.1846781,118.97118 L138.556011,232.456612 L138.556011,225.599436 L52.1559861,125.142643 L41.1846781,118.97118 Z M164.955703,256.456752 L164.955703,262.971063 L202.670202,307.199428 L206.441646,304.799426 L164.955703,256.456752 L164.955703,256.456752 Z" id="path137" fill="#DC0032"></path>
                    <path d="M32.2704338,113.828294 L138.556011,237.599498 L138.556011,231.085171 L43.2418325,119.999757 L32.2704338,113.828294 L32.2704338,113.828294 Z M164.955703,261.599638 L164.955703,268.456813 L199.58447,308.913734 L203.355915,306.85658 L164.955703,261.599638 Z" id="path139" fill="#DC0032"></path>
                    <path d="M23.3561442,108.685408 L138.556011,242.742384 L138.556011,236.228056 L34.3275428,115.199731 L23.3561442,108.685408 Z M164.955703,267.085372 L164.955703,273.599699 L196.498739,310.628024 L200.270183,308.57087 L164.955703,267.085372 L164.955703,267.085372 Z" id="path141" fill="#DB0032"></path>
                    <path d="M14.4419004,103.542522 L138.556011,248.228134 L138.556011,241.713807 L25.4132985,110.056845 L14.4419004,103.542522 Z M164.955703,272.228258 L164.955703,278.742132 L193.755856,312.342314 L197.527316,310.28516 L164.955703,272.228258 L164.955703,272.228258 Z" id="path143" fill="#DA0032"></path>
                    <path d="M5.52760778,98.7424957 L138.556011,253.37102 L138.556011,246.856693 L16.8418682,104.913959 L5.52760778,98.7424957 Z M164.955703,277.371144 L164.955703,284.227882 L190.670124,314.05662 L194.441585,311.999466 L164.955703,277.371144 Z" id="path145" fill="#D90032"></path>
                    <path d="M5.18475149,98.3996361 L5.18475149,103.199662 L138.556011,258.513906 L138.556011,251.999579 L7.9276057,99.7710728 L5.18475149,98.3996361 Z M164.955703,282.85644 L164.955703,286.970749 C164.955703,287.656413 164.612838,288.342239 164.26999,288.685039 L187.584399,315.77091 L191.355859,313.713756 L164.955709,282.85644 L164.955703,282.85644 Z" id="path147" fill="#D80032"></path>
                    <path d="M5.18475149,101.828227 L5.18475149,108.685408 L138.556011,263.99964 L138.556011,257.485329 L5.18475149,101.828227 Z M164.612843,287.999326 C164.269979,289.370817 163.241401,290.742193 162.212829,291.085058 L161.869965,291.427971 L184.498655,317.485249 L188.270115,315.428094 L164.612837,287.999326 L164.612843,287.999326 Z" id="path149" fill="#D70032"></path>
                    <path d="M5.18475149,107.313971 L5.18475149,113.828294 L138.556011,269.142526 L138.556011,262.628215 L5.18475149,107.313971 Z M162.555689,290.742193 C162.555689,291.085106 162.555689,291.085106 162.212824,291.085106 L158.784692,293.142261 L181.412925,319.199555 L185.184385,317.1424 L162.555684,290.742193 L162.555689,290.742193 Z" id="path151" fill="#D60032"></path>
                    <path d="M5.18475149,112.456857 L5.18475149,118.97118 L138.556011,274.285412 L138.556011,267.771101 L5.18475149,112.456857 Z M159.812817,292.4565 L155.698965,294.856502 L178.670062,321.256661 L182.441507,318.856642 L159.812817,292.4565 Z" id="path153" fill="#D50032"></path>
                    <path d="M5.18475149,117.942602 L5.18475149,124.456925 L138.556011,279.770709 L138.556011,273.256835 L5.18475149,117.942602 Z M156.727542,294.170789 L154.327528,295.542231 C153.641815,295.885144 152.956086,295.885144 152.270374,295.885144 L175.584331,322.971015 L179.355775,320.570996 L156.727542,294.170789 L156.727542,294.170789 Z" id="path155" fill="#D40032"></path>
                    <path d="M5.18475149,123.085488 L5.18475149,129.599811 L138.556011,284.913595 L138.556011,278.399267 L5.18475149,123.085488 Z M146.098899,294.170789 L172.498599,324.68524 L176.270044,322.285238 L153.298951,295.885079 C152.956086,295.885079 152.270374,296.227992 151.927509,296.227992 L151.584645,296.227992 C150.556068,296.227992 149.870348,295.885079 149.184631,295.542328 L146.098899,294.170789 L146.098899,294.170789 Z" id="path157" fill="#D30032"></path>
                    <path d="M5.18475149,128.228374 L5.18475149,135.085555 L169.412868,326.399546 L173.184312,323.999528 L148.498925,295.199367 L140.956025,291.085058 C139.584583,290.399394 138.556011,288.685039 138.556011,286.970749 L138.556011,283.542153 L5.18475149,128.228374 Z" id="path159" fill="#D20032"></path>
                    <polygon id="path161" fill="#D10032" points="5.18475149 133.71412 5.18475149 140.228441 166.327138 328.113836 170.09858 326.056682"></polygon>
                    <polygon id="path163" fill="#D00032" points="5.18475149 138.857006 5.18475149 145.371327 163.241406 329.828126 167.012857 327.770972"></polygon>
                    <polygon id="path165" fill="#CF0032" points="5.18475149 143.999892 5.18475149 150.857072 160.498534 331.542432 164.269983 329.485278"></polygon>
                    <polygon id="path167" fill="#CE0032" points="5.18475149 149.485635 5.18475149 155.999501 157.41326 333.256722 161.184252 331.199568"></polygon>
                    <path d="M5.18475149,154.628065 L5.18475149,161.142387 L153.984668,334.628164 C155.013246,334.285251 156.041823,333.9425 157.0704,333.599587 L158.098977,332.913923 L5.18475149,154.628065 Z" id="path169" fill="#CD0032"></path>
                    <path d="M5.18475149,159.77095 L5.18475149,166.628126 L149.527502,334.628164 C150.213214,334.628164 150.898943,334.628164 151.584656,334.628164 C152.613233,334.628164 153.64181,334.628164 154.670388,334.285251 L5.18475149,159.77095 Z" id="path171" fill="#CC0032"></path>
                    <path d="M5.18475149,165.256701 L5.18475149,171.771012 L141.641742,330.856703 L146.44177,333.599587 C147.470347,334.285251 149.184642,334.628164 150.556079,334.628164 L5.18475149,165.256701 Z" id="path173" fill="#CB0032"></path>
                    <polygon id="path175" fill="#CA0032" points="5.18475149 170.399587 5.18475149 176.913898 132.727407 325.713818 144.041756 332.228145"></polygon>
                    <polygon id="path177" fill="#C90032" points="5.18475149 175.885321 5.18475149 182.399648 123.813072 320.570932 135.127421 327.085259"></polygon>
                    <polygon id="path179" fill="#C80033" points="5.18475149 181.028207 5.18475149 187.542534 114.898736 315.428046 125.870227 321.942373"></polygon>
                    <polygon id="path181" fill="#C70033" points="5.18475149 186.171093 5.18475149 192.68542 105.984401 310.28516 116.95589 316.799487"></polygon>
                    <polygon id="path183" fill="#C60033" points="5.18475149 191.656843 5.18475149 198.171171 96.7276628 304.799426 108.041555 311.313737"></polygon>
                    <polygon id="path185" fill="#C50033" points="5.18475149 196.799729 5.18475149 203.314056 87.8133278 299.65654 99.12722 306.170851"></polygon>
                    <polygon id="path187" fill="#C40033" points="5.18475149 201.942615 5.18475149 208.456942 78.8989928 294.513654 90.2133417 301.027965 5.18475149 201.942615"></polygon>
                    <polygon id="path189" fill="#C30033" points="5.18475149 207.428365 5.18475149 213.942677 69.9846561 289.370768 81.2990051 295.885079"></polygon>
                    <polygon id="path191" fill="#C20033" points="5.18475149 212.571251 5.18475149 219.085109 61.0703211 284.227882 72.3846701 290.742193"></polygon>
                    <polygon id="path193" fill="#C10033" points="5.18475149 217.713667 5.18475149 224.570859 52.1559861 279.084996 63.1274755 285.599308"></polygon>
                    <polygon id="path195" fill="#C00033" points="5.18475149 223.199418 5.18475149 229.713745 42.8989745 273.942564 54.2131405 280.456422"></polygon>
                    <polygon id="path197" fill="#BF0033" points="5.18475149 228.342303 5.18475149 234.856631 33.9846832 268.799678 45.2989869 274.971141"></polygon>
                    <polygon id="path199" fill="#BE0033" points="5.18475149 233.485189 5.18475149 240.342365 25.0704406 263.313928 36.3846972 269.828255"></polygon>
                    <polygon id="path201" fill="#BD0033" points="5.18475149 238.97094 5.18475149 245.485251 16.1561499 258.171042 27.4704075 264.685369"></polygon>
                    <path d="M5.18475149,244.113826 L5.18475149,245.828116 C5.18475149,249.256712 7.58474659,253.37102 10.3275916,255.08531 L18.5561634,259.542483 L5.18475149,244.113826 L5.18475149,244.113826 Z" id="path203" fill="#BC0033"></path>
                    <path d="M7.24189217,251.999579 C7.92760489,252.685243 8.27045963,253.371069 8.95617365,253.713869 L7.24189217,251.999579 Z" id="path205" fill="#BB0033"></path>
                </g>
                <g id="Group" transform="translate(498.1555, 92.0713)">
                    <path d="M48.2304688,150.413313 C44.1731171,150.413313 37.9310374,150.132419 32.521235,149.060862 L32.521235,84.5593725 C37.6709507,82.1249614 44.4436072,80.7621073 52.5687142,80.7621073 C72.3457033,80.7621073 85.620526,92.9653731 85.620526,114.365303 C85.620526,137.398577 71.2637428,150.413313 48.2304688,150.413313 M55.2736154,52.0589444 C46.8780182,52.0589444 37.9310374,53.1200979 32.5108316,55.845806 L32.5108316,0 L0,0 L0,172.624713 C14.3671867,176.421978 33.0622153,178.305005 49.3228328,178.305005 C91.0407318,178.305005 118.693145,156.093605 118.693145,115.447263 C118.693145,76.9752457 92.9445661,52.0589444 55.2736154,52.0589444 M184.151753,51.1434393 C152.306744,51.1434393 131.697477,62.9513734 131.697477,99.4779428 L131.697477,176.359557 L164.926148,176.359557 L164.926148,101.662671 C164.926148,87.9300955 172.343819,80.8037212 186.617375,80.8037212 C194.58643,80.8037212 202.825975,81.8544713 209.692263,84.0496026 L209.692263,53.3385707 C201.255052,51.9445062 192.713806,51.2058601 184.151753,51.1434393" id="Shape" fill="#3F3F42" fill-rule="nonzero"></path>
                    <g transform="translate(224.8693, 9.4907)" id="Clipped">
                        <mask id="mask-5" fill="white">
                            <use xlink:href="#path-4"></use>
                        </mask>
                        <g id="jxsltin4qa"></g>
                        <path d="M54.2124618,140.550827 C40.1157653,140.550827 32.8021286,133.497277 32.8021286,119.951964 L32.8021286,72.1688443 L75.5811812,72.1688443 L75.5811812,45.0782186 L32.8021286,45.0782186 L32.8021286,0 L0,0 L0,122.126289 C0,158.163895 20.3283728,169.826181 51.7780508,169.826181 C59.6222642,169.826181 68.2987549,169.045921 76.9752457,167.66226 L76.9752457,137.346559 C70.2129927,139.51048 62.0774822,140.540424 54.2124618,140.540424" id="Path" fill="#3F3F42" fill-rule="nonzero" mask="url(#mask-5)"></path>
                    </g>
                </g>
            </g>
        </g>
    </g>
</svg>