<?xml version="1.0" encoding="UTF-8"?>
<svg width="980px" height="680px" viewBox="0 0 980 680" version="1.1" xmlns="http://www.w3.org/2000/svg" xmlns:xlink="http://www.w3.org/1999/xlink">
    <title>IT Poste Italiane</title>
    <defs>
        <rect id="path-1" x="0" y="0" width="900" height="600" rx="80"></rect>
        <filter x="-6.7%" y="-10.0%" width="113.3%" height="120.0%" filterUnits="objectBoundingBox" id="filter-2">
            <feMorphology radius="2.5" operator="dilate" in="SourceAlpha" result="shadowSpreadOuter1"></feMorphology>
            <feOffset dx="0" dy="0" in="shadowSpreadOuter1" result="shadowOffsetOuter1"></feOffset>
            <feGaussianBlur stdDeviation="17.5" in="shadowOffsetOuter1" result="shadowBlurOuter1"></feGaussianBlur>
            <feColorMatrix values="0 0 0 0 0   0 0 0 0 0   0 0 0 0 0  0 0 0 0.5 0" type="matrix" in="shadowBlurOuter1"></feColorMatrix>
        </filter>
    </defs>
    <g id="IT-Poste-Italiane" stroke="none" stroke-width="1" fill="none" fill-rule="evenodd">
        <g transform="translate(40, 40)">
            <g id="Rectangle">
                <use fill="black" fill-opacity="1" filter="url(#filter-2)" xlink:href="#path-1"></use>
                <use fill="#EEDC00" fill-rule="evenodd" xlink:href="#path-1"></use>
            </g>
            <g id="Logo" transform="translate(50.147, 248)" fill="#0047BB">
                <g id="g10" transform="translate(400, 51.6837) scale(-1, 1) rotate(-180) translate(-400, -51.6837)translate(0, 0)">
                    <g id="g12" transform="translate(0, 0)">
                        <path d="M332.215457,31.7274761 C332.077077,22.684164 334.447288,14.8886126 344.346001,14.8886126 C351.733848,14.8886126 356.334069,18.3728914 357.311832,24.9115942 L381.84968,24.9115942 C381.012118,15.8646469 375.292113,9.32412652 368.602993,5.427714 C362.468303,1.53175587 354.658944,5.16584044e-14 346.4349,5.16584044e-14 C318.413884,5.16584044e-14 307.261558,11.9686887 307.261558,39.3830748 C307.261558,61.5096996 323.849391,74.0363818 344.902252,74.0363818 C373.345235,74.0363818 382.404566,57.752331 382.404566,31.7274761 L332.215457,31.7274761 Z M357.311832,45.9272302 C357.311832,49.6850531 356.191592,53.4424217 354.104059,56.3623455 C352.012884,59.2840869 348.945767,61.0980203 344.902252,60.8140252 C335.700445,60.4005284 333.472711,53.8563729 332.773983,45.9272302 L357.311832,45.9272302" id="path16"></path>
                        <path d="M1.94062145e-14,2.08929502 L1.94062145e-14,102.567664 L46.2862043,102.567664 C70.9610671,102.567664 87.1364918,94.6339771 87.1364918,70.2831028 C87.1364918,45.9272302 70.9610671,37.9930892 46.2862043,37.9930892 L27.8844111,37.9930892 L27.8844111,2.08929502 L1.94062145e-14,2.08929502 Z M42.2426895,57.4769694 C53.2561805,57.8941014 57.858222,62.9033202 57.858222,70.2831028 C57.858222,77.6533432 53.2561805,82.6652884 42.2426895,83.0833292 L27.8844111,83.0833292 L27.8844111,57.4769694 L42.2426895,57.4769694" id="path18"></path>
                        <path d="M169.49164,37.0170549 C169.49164,11.2748319 150.670155,5.16584044e-14 128.779732,5.16584044e-14 C106.894772,5.16584044e-14 88.0719216,11.2748319 88.0719216,37.0170549 C88.0719216,62.7647306 106.894772,74.0363818 128.779732,74.0363818 C150.670155,74.0363818 169.49164,62.7647306 169.49164,37.0170549 L169.49164,37.0170549 Z M128.779732,15.3093797 C139.937521,15.3093797 142.305911,27.1358437 142.305911,37.0170549 C142.305911,46.8982662 139.937521,58.7283653 128.779732,58.7283653 C117.631048,58.7283653 115.260837,46.8982662 115.260837,37.0170549 C115.260837,27.1358437 117.631048,15.3093797 128.779732,15.3093797" id="path20"></path>
                        <path d="M215.640876,50.3807275 C215.640876,52.7467473 215.223005,54.8324072 213.969392,56.2223927 C212.573303,57.752331 210.345569,58.7283653 206.718104,58.7283653 C202.815245,58.7283653 200.446855,56.5045702 200.446855,52.4645698 C200.446855,47.3190333 211.181311,47.5957581 227.770965,42.4447689 C236.135209,39.8038419 241.852028,34.6510351 241.852028,23.2398855 C241.852028,4.73022208 224.422991,5.16584044e-14 208.391408,5.16584044e-14 C191.245049,5.16584044e-14 174.514739,3.47564541 174.654939,24.7716414 L199.747673,24.7716414 C199.330257,22.684164 200.028985,20.3181441 201.561633,18.5096634 C203.096102,16.7007284 205.323836,15.3093797 207.834702,15.3093797 C212.994815,15.3093797 216.755653,17.25645 216.755653,21.7099472 C216.755653,34.0971311 175.35048,26.7223468 175.35048,52.0492554 C175.35048,69.3016158 193.752273,74.0363818 207.692681,74.0363818 C224.285977,74.0363818 239.622018,69.7242005 240.736795,50.3807275 L215.640876,50.3807275" id="path22"></path>
                        <path d="M259.298818,71.9507219 L259.298818,82.5289708 L285.783544,92.5483172 L285.783544,71.9507219 L301.123682,71.9507219 L301.123682,55.2495392 L285.783544,55.2495392 L285.783544,27.5566108 C285.783544,25.7458581 284.67605,16.7007284 290.808463,16.7007284 C294.290265,16.7007284 297.91773,16.7007284 300.984847,17.1160428 L300.984847,1.39498384 C294.988992,0.2771792 290.668263,5.16584044e-14 286.758121,5.16584044e-14 C268.779661,5.16584044e-14 257.902729,2.50460942 259.298818,23.9355599 L259.298818,55.2495392 L245.635625,55.2495392 L245.635625,71.9507219 L259.298818,71.9507219" id="path24"></path>
                        <path d="M393.84139,72.6550297 L407.125858,72.6550297 L407.125858,2.57185946 L393.84139,2.57185946 L393.84139,72.6550297 Z M392.582315,103.367394 L408.386299,103.367394 L408.386299,88.9858829 L392.582315,88.9858829 L392.582315,103.367394" id="path26"></path>
                        <path d="M428.440912,72.6550297 L428.440912,87.5908991 L441.719008,91.7803945 L441.719008,72.6550297 L457.946781,73.0730705 L457.946781,63.1586886 L441.719008,63.3027309 L441.719008,18.0639048 C441.719008,13.0442349 445.642806,10.6713992 450.395063,10.6713992 C452.498073,10.6713992 455.28843,10.9444889 457.39144,11.502028 L457.39144,1.31183008 C454.309757,1.17142291 451.373736,0.470295855 448.296605,0.470295855 C445.082914,0.470295855 442.565675,0.612520592 439.34288,1.17142291 C437.253526,1.58673732 433.753061,2.70863149 431.513492,5.77941351 C429.137364,9.12873791 428.440912,9.40909785 428.440912,18.7613967 L428.440912,63.3027309 L416.409146,63.1586886 L416.409146,73.0730705 L428.440912,72.6550297" id="path28"></path>
                        <path d="M510.107803,45.845894 C510.107803,57.9972484 509.411351,65.1184819 495.282037,65.1184819 C488.572433,65.1184819 482.277059,61.2029849 482.1405,53.9449794 L468.152297,53.9449794 C468.848748,69.3016158 480.879604,74.7497775 494.722145,74.7497775 C509.129129,74.7497775 523.395002,70.4194205 523.395002,50.8760149 L523.395002,17.3682304 C523.395002,14.299266 523.540666,8.43306355 523.954895,2.57185946 L515.005722,2.57185946 C513.740275,2.57185946 511.364146,1.87436754 511.227587,3.54834815 C510.949917,6.75726538 510.667695,9.82622983 510.526584,13.0442349 L510.244362,13.0442349 C505.915438,4.24765764 498.081498,0.470295855 488.431322,0.470295855 C476.263907,0.470295855 463.955381,6.75726538 463.955381,20.4353773 C463.955381,40.1250971 481.444049,45.845894 498.081498,45.845894 L510.107803,45.845894 Z M496.829707,36.6317304 C488.713544,36.2145984 477.943584,33.2842236 477.943584,23.0908449 C477.943584,14.436038 483.956736,10.1084073 491.786124,10.1084073 C507.454004,10.1084073 510.390025,23.6497472 510.107803,36.6317304 L496.829707,36.6317304" id="path30"></path>
                        <polyline id="path32" points="536.609371 103.367394 549.887467 103.367394 549.887467 2.57185946 536.609371 2.57185946 536.609371 103.367394"></polyline>
                        <path d="M566.411117,72.6550297 L579.702869,72.6550297 L579.702869,2.57185946 L566.411117,2.57185946 L566.411117,72.6550297 Z M565.154774,103.367394 L580.959213,103.367394 L580.959213,88.9858829 L565.154774,88.9858829 L565.154774,103.367394" id="path34"></path>
                        <path d="M637.840627,45.845894 C637.840627,57.9972484 637.144176,65.1184819 623.014862,65.1184819 C616.300706,65.1184819 610.009884,61.2029849 609.873325,53.9449794 L595.88057,53.9449794 C596.581573,69.3016158 608.612429,74.7497775 622.454969,74.7497775 C636.857402,74.7497775 651.127827,70.4194205 651.127827,50.8760149 L651.127827,17.3682304 C651.127827,14.299266 651.264386,8.43306355 651.68772,2.57185946 L642.733995,2.57185946 C641.473099,2.57185946 639.096971,1.87436754 638.95586,3.54834815 C638.67819,6.75726538 638.40052,9.82622983 638.259409,13.0442349 L637.977187,13.0442349 C633.648263,4.24765764 625.814323,0.470295855 616.159595,0.470295855 C603.996732,0.470295855 591.688206,6.75726538 591.688206,20.4353773 C591.688206,40.1250971 609.16777,45.845894 625.814323,45.845894 L637.840627,45.845894 Z M624.553428,36.6317304 C616.441817,36.2145984 605.671857,33.2842236 605.671857,23.0908449 C605.671857,14.436038 611.685009,10.1084073 619.518949,10.1084073 C635.182277,10.1084073 638.118298,23.6497472 637.840627,36.6317304 L624.553428,36.6317304" id="path36"></path>
                        <path d="M677.884306,62.3194263 L678.161976,62.3194263 C682.641114,71.1146404 692.427849,74.7497775 699.419675,74.7497775 C704.313043,74.7497775 725.994075,73.4911113 725.994075,51.0146045 L725.994075,2.57185946 L712.706875,2.57185946 L712.706875,46.6833387 C712.706875,58.2721556 707.813507,64.5591252 696.629318,64.5591252 C696.624766,64.5591252 689.350718,64.9762571 683.756347,59.3904147 C681.799,57.4365285 678.161976,54.3602938 678.161976,40.6839994 L678.161976,2.57185946 L664.879328,2.57185946 L664.879328,72.6550297 L677.884306,72.6550297 L677.884306,62.3194263" id="path38"></path>
                        <path d="M750.488224,35.0963394 C749.504999,22.8100306 754.544029,10.1084073 768.1089,10.1084073 C778.455527,10.1084073 783.635669,14.155678 785.174234,24.3490567 L799.157886,24.3490567 C797.063979,8.43306355 784.755453,0.470295855 767.967788,0.470295855 C745.453746,0.470295855 736.504573,16.3867434 736.504573,37.0488624 C736.504573,57.5764813 746.8512,74.7497775 769.087573,74.7497775 C790.067602,74.3271928 800,61.0662128 800,41.6604881 L800,35.0963394 L750.488224,35.0963394 Z M786.011797,44.310503 C786.294019,56.0410903 780.977318,65.1184819 768.1089,65.1184819 C757.061269,65.1184819 750.488224,55.7607303 750.488224,44.310503 L786.011797,44.310503" id="path40"></path>
                    </g>
                </g>
            </g>
        </g>
    </g>
</svg>