<?xml version="1.0" encoding="UTF-8"?>
<svg width="980px" height="680px" viewBox="0 0 980 680" version="1.1" xmlns="http://www.w3.org/2000/svg" xmlns:xlink="http://www.w3.org/1999/xlink">
    <title>JE Jersey Post</title>
    <defs>
        <linearGradient x1="50%" y1="0%" x2="50%" y2="100%" id="linearGradient-1">
            <stop stop-color="#FFFFFF" offset="0%"></stop>
            <stop stop-color="#EDEDED" offset="100%"></stop>
        </linearGradient>
        <rect id="path-2" x="0" y="0" width="900" height="600" rx="80"></rect>
        <filter x="-6.7%" y="-10.0%" width="113.3%" height="120.0%" filterUnits="objectBoundingBox" id="filter-3">
            <feMorphology radius="2.5" operator="dilate" in="SourceAlpha" result="shadowSpreadOuter1"></feMorphology>
            <feOffset dx="0" dy="0" in="shadowSpreadOuter1" result="shadowOffsetOuter1"></feOffset>
            <feGaussianBlur stdDeviation="17.5" in="shadowOffsetOuter1" result="shadowBlurOuter1"></feGaussianBlur>
            <feColorMatrix values="0 0 0 0 0   0 0 0 0 0   0 0 0 0 0  0 0 0 0.5 0" type="matrix" in="shadowBlurOuter1"></feColorMatrix>
        </filter>
    </defs>
    <g id="JE-Jersey-Post" stroke="none" stroke-width="1" fill="none" fill-rule="evenodd">
        <g transform="translate(40, 40)">
            <g id="Rectangle">
                <use fill="black" fill-opacity="1" filter="url(#filter-3)" xlink:href="#path-2"></use>
                <use fill="url(#linearGradient-1)" fill-rule="evenodd" xlink:href="#path-2"></use>
            </g>
            <g id="Logo" transform="translate(88.0476, 49.619)" fill="#EE3D44" fill-rule="nonzero">
                <polygon id="Path" points="-5.05274834e-13 0.529100529 16.9312169 0.529100529 269.312169 252.910053 22.7513228 500 6.34920635 500 252.380952 253.439153"></polygon>
                <polygon id="Path" points="312.169312 252.380952 65.0793651 499.470899 144.973545 499.470899 395.238095 251.851852 145.502646 0.529100529 58.7301587 0.529100529"></polygon>
                <path d="M452.380952,50.7936508 C451.851852,50.7936508 451.322751,50.7936508 450.793651,50.7936508 C449.73545,50.7936508 448.677249,51.3227513 447.619048,51.8518519 C447.089947,52.3809524 446.560847,52.9100529 446.031746,52.9100529 L446.031746,52.9100529 L446.031746,52.9100529 L446.031746,52.9100529 L446.031746,52.9100529 L446.031746,52.9100529 C446.031746,52.9100529 446.031746,52.9100529 446.031746,52.9100529 C446.031746,52.9100529 446.031746,52.9100529 446.031746,52.9100529 C446.031746,52.9100529 445.502646,53.4391534 445.502646,53.968254 C444.973545,54.4973545 444.444444,55.5555556 444.444444,56.6137566 C444.444444,57.1428571 444.444444,58.2010582 444.973545,58.7301587 C445.502646,59.7883598 446.560847,62.962963 446.560847,67.7248677 C446.560847,70.8994709 446.031746,74.0740741 444.444444,78.3068783 L458.201058,62.962963 L458.201058,62.962963 L471.957672,47.6190476 C467.195767,50.2645503 462.433862,50.7936508 459.259259,50.7936508 C455.026455,51.8518519 452.910053,50.7936508 452.380952,50.7936508 Z M472.486772,1.26318709e-13 L195.238095,1.26318709e-13 L452.910053,252.910053 C452.910053,252.910053 452.910053,252.910053 450.793651,255.026455 L205.820106,500 L475.661376,500 L724.338624,251.322751 L472.486772,1.26318709e-13 Z M418.518519,85.7142857 C420.634921,79.3650794 421.164021,69.8412698 414.814815,61.3756614 C407.407407,51.3227513 393.121693,49.2063492 382.539683,56.6137566 C375.661376,61.3756614 371.957672,69.8412698 373.015873,77.7777778 C375.132275,87.8306878 369.84127,88.3597884 369.84127,88.3597884 C364.021164,88.3597884 363.492063,78.8359788 363.492063,78.8359788 C362.962963,67.1957672 367.724868,56.0846561 377.777778,48.6772487 C393.121693,38.0952381 414.285714,41.2698413 424.867725,56.6137566 C429.62963,63.4920635 431.746032,71.4285714 430.687831,79.3650794 C424.867725,117.989418 386.243386,117.989418 386.243386,117.989418 C385.714286,117.989418 385.185185,117.989418 385.185185,117.989418 C359.78836,119.57672 337.037037,97.3544974 337.037037,97.3544974 C333.333333,93.6507937 323.809524,85.7142857 323.809524,85.7142857 C318.518519,81.4814815 313.227513,77.2486772 305.291005,74.0740741 C300.529101,72.4867725 300,72.4867725 300,72.4867725 C298.412698,71.957672 297.883598,70.8994709 297.883598,70.3703704 C297.354497,68.7830688 299.470899,67.1957672 299.470899,67.1957672 L327.513228,47.6190476 L328.571429,46.5608466 L340.21164,38.6243386 C340.21164,38.6243386 342.857143,37.037037 343.915344,38.0952381 C344.444444,38.6243386 344.973545,39.1534392 344.973545,40.7407407 C344.973545,40.7407407 344.444444,41.7989418 344.973545,46.5608466 C344.973545,46.5608466 342.328042,77.7777778 371.957672,98.4126984 C372.486772,98.9417989 406.878307,117.989418 418.518519,85.7142857 Z M480.952381,47.0899471 L462.962963,67.7248677 L462.962963,67.7248677 L462.962963,67.7248677 L462.962963,67.7248677 L444.973545,88.3597884 L444.973545,88.3597884 L444.973545,88.3597884 C443.915344,89.4179894 442.328042,89.9470899 440.740741,89.9470899 L440.740741,89.9470899 C439.68254,89.9470899 438.095238,89.4179894 437.037037,88.3597884 C435.978836,87.3015873 435.449735,85.7142857 435.449735,84.1269841 C435.449735,83.0687831 435.978836,81.4814815 436.507937,80.4232804 C437.566138,78.8359788 438.624339,76.7195767 438.624339,76.7195767 C438.624339,76.7195767 438.624339,76.7195767 438.624339,76.7195767 C440.21164,73.015873 440.740741,70.3703704 440.740741,67.7248677 C440.740741,64.021164 439.68254,61.3756614 439.68254,61.3756614 C439.68254,61.3756614 439.68254,61.3756614 439.68254,61.3756614 L439.68254,61.3756614 L439.68254,61.3756614 C439.153439,59.7883598 438.624339,58.2010582 438.624339,56.6137566 C438.624339,53.968254 439.68254,51.8518519 440.21164,50.2645503 C440.740741,49.2063492 441.269841,48.6772487 441.798942,48.1481481 C442.328042,47.6190476 442.857143,47.0899471 443.915344,46.031746 C445.502646,44.973545 447.619048,43.9153439 450.793651,43.9153439 C451.851852,43.9153439 452.910053,43.9153439 453.968254,44.4444444 L453.968254,44.4444444 L453.968254,44.4444444 L453.968254,44.4444444 C453.968254,44.4444444 453.968254,44.4444444 453.968254,44.4444444 C453.968254,44.4444444 454.497354,44.4444444 455.026455,44.4444444 C455.555556,44.4444444 457.142857,44.973545 458.201058,44.973545 C460.846561,44.973545 464.550265,44.4444444 468.783069,41.7989418 C468.783069,41.7989418 468.783069,41.7989418 468.783069,41.7989418 C468.783069,41.7989418 468.783069,41.7989418 468.783069,41.7989418 C468.783069,41.7989418 469.312169,41.2698413 469.84127,41.2698413 C470.37037,40.7407407 471.428571,40.2116402 472.486772,39.1534392 L472.486772,39.1534392 C473.544974,38.0952381 475.132275,37.5661376 476.719577,37.5661376 C477.777778,37.5661376 479.365079,38.0952381 480.42328,39.1534392 C481.481481,40.2116402 482.010582,41.7989418 482.010582,43.3862434 C482.539683,44.4444444 482.010582,46.031746 480.952381,47.0899471 L480.952381,47.0899471 Z" id="Shape"></path>
            </g>
        </g>
    </g>
</svg>