<?xml version="1.0" encoding="UTF-8"?>
<svg width="980px" height="680px" viewBox="0 0 980 680" version="1.1" xmlns="http://www.w3.org/2000/svg" xmlns:xlink="http://www.w3.org/1999/xlink">
    <title>JE Jersey Post text</title>
    <defs>
        <linearGradient x1="50%" y1="0%" x2="50%" y2="100%" id="linearGradient-1">
            <stop stop-color="#FFFFFF" offset="0%"></stop>
            <stop stop-color="#EDEDED" offset="100%"></stop>
        </linearGradient>
        <rect id="path-2" x="0" y="0" width="900" height="600" rx="80"></rect>
        <filter x="-6.7%" y="-10.0%" width="113.3%" height="120.0%" filterUnits="objectBoundingBox" id="filter-3">
            <feMorphology radius="2.5" operator="dilate" in="SourceAlpha" result="shadowSpreadOuter1"></feMorphology>
            <feOffset dx="0" dy="0" in="shadowSpreadOuter1" result="shadowOffsetOuter1"></feOffset>
            <feGaussianBlur stdDeviation="17.5" in="shadowOffsetOuter1" result="shadowBlurOuter1"></feGaussianBlur>
            <feColorMatrix values="0 0 0 0 0   0 0 0 0 0   0 0 0 0 0  0 0 0 0.5 0" type="matrix" in="shadowBlurOuter1"></feColorMatrix>
        </filter>
    </defs>
    <g id="JE-Jersey-Post-text" stroke="none" stroke-width="1" fill="none" fill-rule="evenodd">
        <g transform="translate(40, 40)">
            <g id="Rectangle">
                <use fill="black" fill-opacity="1" filter="url(#filter-3)" xlink:href="#path-2"></use>
                <use fill="url(#linearGradient-1)" fill-rule="evenodd" xlink:href="#path-2"></use>
            </g>
            <g id="Logo" transform="translate(50, 170)" fill-rule="nonzero">
                <g id="Group" transform="translate(0, 0)" fill="#000000">
                    <path d="M8.57142857,87.3809524 C19.5238095,87.3809524 22.6190476,82.8571429 22.6190476,70.7142857 L22.6190476,-1.58603289e-15 L48.3333333,-1.58603289e-15 L48.3333333,76.9047619 C48.3333333,99.5238095 37.6190476,109.047619 14.047619,109.047619 C9.76190476,109.047619 5.23809524,108.809524 0,107.857143 L0,86.4285714 C3.0952381,87.1428571 5.95238095,87.3809524 8.57142857,87.3809524 Z" id="Path"></path>
                    <path d="M101.904762,94.2857143 C110.238095,94.2857143 116.428571,89.2857143 120.714286,79.7619048 L138.095238,88.3333333 C130.714286,103.333333 117.380952,111.190476 99.047619,111.190476 C75.952381,111.190476 60.952381,95.4761905 60.952381,69.7619048 C60.952381,42.6190476 77.1428571,25.4761905 100.47619,25.4761905 C123.809524,25.4761905 138.809524,41.9047619 138.809524,69.2857143 C138.809524,70.4761905 138.571429,71.9047619 138.571429,73.3333333 L84.2857143,73.3333333 C84.7619048,87.1428571 90.952381,94.2857143 101.904762,94.2857143 Z M115.714286,59.047619 C114.52381,48.3333333 108.809524,42.6190476 100,42.6190476 C91.1904762,42.6190476 85.7142857,48.3333333 84.2857143,59.047619 L115.714286,59.047619 Z" id="Shape"></path>
                    <path d="M150.47619,27.8571429 L172.857143,27.8571429 L172.857143,36.1904762 C180.714286,30.4761905 188.571429,27.6190476 196.190476,27.1428571 L196.190476,48.8095238 C194.761905,48.5714286 193.095238,48.5714286 191.666667,48.5714286 C178.809524,48.5714286 173.571429,52.6190476 173.571429,63.5714286 L173.571429,108.333333 L150.238095,108.333333 L150.238095,27.8571429 L150.47619,27.8571429 Z" id="Path"></path>
                    <path d="M237.142857,93.3333333 C245,93.3333333 249.52381,90.2380952 249.52381,85.7142857 C249.52381,83.3333333 247.619048,80.7142857 244.761905,79.7619048 C239.761905,77.8571429 232.857143,77.6190476 225.714286,75.4761905 C210.47619,70.952381 203.333333,65.2380952 203.333333,53.5714286 C203.333333,36.1904762 216.190476,25.2380952 237.857143,25.2380952 C250.238095,25.2380952 260.952381,28.8095238 270.238095,36.6666667 L256.904762,50.952381 C250.238095,45.4761905 243.333333,42.6190476 235.952381,42.6190476 C230,42.6190476 226.428571,45.7142857 226.428571,49.7619048 C226.428571,55.4761905 232.142857,55.952381 243.095238,58.5714286 C263.333333,63.3333333 272.857143,67.3809524 272.857143,83.3333333 C272.857143,100 258.809524,111.666667 235,111.666667 C217.380952,111.666667 205,105.714286 198.095238,94.7619048 L212.380952,82.3809524 C219.285714,89.7619048 227.380952,93.3333333 237.142857,93.3333333 Z" id="Path"></path>
                    <path d="M321.428571,94.2857143 C329.761905,94.2857143 335.952381,89.2857143 340.238095,79.7619048 L357.619048,88.3333333 C350.238095,103.333333 336.904762,111.190476 318.571429,111.190476 C295.47619,111.190476 280.47619,95.4761905 280.47619,69.7619048 C280.47619,42.6190476 296.666667,25.4761905 320,25.4761905 C343.333333,25.4761905 358.333333,41.9047619 358.333333,69.2857143 C358.333333,70.4761905 358.095238,71.9047619 358.095238,73.3333333 L303.809524,73.3333333 C304.285714,87.1428571 310.714286,94.2857143 321.428571,94.2857143 Z M335.238095,59.047619 C334.047619,48.3333333 328.333333,42.6190476 319.52381,42.6190476 C310.714286,42.6190476 305.238095,48.3333333 303.809524,59.047619 L335.238095,59.047619 Z" id="Shape"></path>
                    <path d="M385.714286,27.8571429 L399.285714,86.1904762 L412.857143,27.8571429 L437.380952,27.8571429 L410.714286,111.190476 C404.761905,129.52381 398.809524,136.904762 381.428571,136.904762 C376.904762,136.904762 372.619048,136.666667 368.571429,135.952381 L368.571429,116.904762 C371.904762,117.142857 374.52381,117.380952 376.190476,117.380952 C383.809524,117.380952 387.142857,115.714286 387.142857,110.714286 C387.142857,108.571429 385.952381,105 384.285714,99.7619048 L360.714286,27.8571429 L385.714286,27.8571429 Z" id="Path"></path>
                </g>
                <g id="Group" transform="translate(103.3333, 147.619)" fill="#000000">
                    <path d="M-1.69176842e-14,0 L45.4761905,0 C77.1428571,0 91.9047619,10.2380952 91.9047619,35.7142857 C91.9047619,60.7142857 76.4285714,73.3333333 45.7142857,73.3333333 L25.7142857,73.3333333 L25.7142857,108.333333 L-1.69176842e-14,108.333333 L-1.69176842e-14,0 Z M25.7142857,53.5714286 L42.8571429,53.5714286 C58.3333333,53.5714286 65.4761905,50 65.4761905,36.9047619 C65.4761905,24.047619 58.3333333,20.2380952 42.8571429,20.2380952 L25.7142857,20.2380952 L25.7142857,53.5714286 Z" id="Shape"></path>
                    <path d="M97.1428571,68.0952381 C97.1428571,42.3809524 113.809524,25 138.809524,25 C163.809524,25 180.47619,42.1428571 180.47619,68.0952381 C180.47619,93.8095238 163.571429,110.952381 138.809524,110.952381 C113.809524,110.952381 97.1428571,94.047619 97.1428571,68.0952381 Z M138.571429,92.3809524 C149.285714,92.3809524 156.428571,83.0952381 156.428571,68.3333333 C156.428571,53.3333333 149.285714,44.2857143 138.571429,44.2857143 C128.095238,44.2857143 120.714286,53.5714286 120.714286,68.3333333 C120.714286,83.0952381 128.095238,92.3809524 138.571429,92.3809524 Z" id="Shape"></path>
                    <path d="M224.52381,93.3333333 C232.380952,93.3333333 236.904762,90.2380952 236.904762,85.7142857 C236.904762,83.3333333 235,80.7142857 232.142857,79.7619048 C227.142857,77.8571429 220.238095,77.6190476 213.095238,75.4761905 C197.857143,70.952381 190.714286,65.2380952 190.714286,53.5714286 C190.714286,36.1904762 203.571429,25.2380952 225.238095,25.2380952 C237.619048,25.2380952 248.333333,28.8095238 257.619048,36.6666667 L244.285714,50.952381 C237.619048,45.4761905 230.714286,42.6190476 223.333333,42.6190476 C217.380952,42.6190476 213.809524,45.7142857 213.809524,49.7619048 C213.809524,55.4761905 219.52381,55.952381 230.47619,58.5714286 C250.714286,63.3333333 260.238095,67.3809524 260.238095,83.3333333 C260.238095,100 246.190476,111.666667 222.380952,111.666667 C204.761905,111.666667 192.380952,105.714286 185.47619,94.7619048 L199.761905,82.3809524 C206.666667,89.7619048 214.761905,93.3333333 224.52381,93.3333333 Z" id="Path"></path>
                    <path d="M306.904762,90.7142857 C308.095238,90.7142857 310.238095,90.4761905 313.095238,90.2380952 L313.095238,108.571429 C307.857143,109.761905 303.095238,110 298.571429,110 C278.571429,110 275.47619,101.190476 275.47619,79.2857143 L275.47619,44.2857143 L263.809524,44.2857143 L263.809524,29.7619048 L275.47619,29.7619048 L275.47619,4.52380952 L299.047619,4.52380952 L299.047619,29.7619048 L313.095238,29.7619048 L313.095238,44.2857143 L299.047619,44.2857143 L299.047619,80 C299.285714,88.0952381 300.47619,90.7142857 306.904762,90.7142857 Z" id="Path"></path>
                </g>
                <polygon id="Path" fill="#EE3D44" points="474.047619 27.8571429 481.666667 27.8571429 595.238095 141.428571 484.285714 252.619048 476.904762 252.619048 587.619048 141.666667"></polygon>
                <polygon id="Path" fill="#EE3D44" points="614.52381 141.190476 503.333333 252.380952 539.285714 252.380952 651.904762 140.952381 539.52381 27.8571429 500.47619 27.8571429"></polygon>
                <path d="M677.619048,50.4761905 C677.380952,50.4761905 677.142857,50.4761905 676.904762,50.4761905 C676.428571,50.4761905 675.952381,50.7142857 675.47619,50.952381 C675.238095,51.1904762 675,51.4285714 674.761905,51.4285714 L674.761905,51.4285714 L674.761905,51.4285714 L674.761905,51.4285714 L674.761905,51.4285714 L674.761905,51.4285714 C674.761905,51.4285714 674.761905,51.4285714 674.761905,51.4285714 C674.761905,51.4285714 674.761905,51.4285714 674.761905,51.4285714 C674.761905,51.4285714 674.52381,51.6666667 674.52381,51.9047619 C674.285714,52.1428571 674.047619,52.6190476 674.047619,53.0952381 C674.047619,53.3333333 674.047619,53.8095238 674.285714,54.047619 C674.52381,54.5238095 675,55.952381 675,58.0952381 C675,59.5238095 674.761905,60.952381 674.047619,62.8571429 L680.238095,55.952381 L680.238095,55.952381 L686.428571,49.047619 C684.285714,50.2380952 682.142857,50.4761905 680.714286,50.4761905 C678.809524,50.952381 677.857143,50.4761905 677.619048,50.4761905 Z M686.666667,27.6190476 L561.904762,27.6190476 L677.857143,141.428571 C677.857143,141.428571 677.857143,141.428571 676.904762,142.380952 L566.666667,252.619048 L688.095238,252.619048 L800,140.714286 L686.666667,27.6190476 Z M662.380952,66.1904762 C663.333333,63.3333333 663.571429,59.047619 660.714286,55.2380952 C657.380952,50.7142857 650.952381,49.7619048 646.190476,53.0952381 C643.095238,55.2380952 641.428571,59.047619 641.904762,62.6190476 C642.857143,67.1428571 640.47619,67.3809524 640.47619,67.3809524 C637.857143,67.3809524 637.619048,63.0952381 637.619048,63.0952381 C637.380952,57.8571429 639.52381,52.8571429 644.047619,49.5238095 C650.952381,44.7619048 660.47619,46.1904762 665.238095,53.0952381 C667.380952,56.1904762 668.333333,59.7619048 667.857143,63.3333333 C665.238095,80.7142857 647.857143,80.7142857 647.857143,80.7142857 C647.619048,80.7142857 647.380952,80.7142857 647.380952,80.7142857 C635.952381,81.4285714 625.714286,71.4285714 625.714286,71.4285714 C624.047619,69.7619048 619.761905,66.1904762 619.761905,66.1904762 C617.380952,64.2857143 615,62.3809524 611.428571,60.952381 C609.285714,60.2380952 609.047619,60.2380952 609.047619,60.2380952 C608.333333,60 608.095238,59.5238095 608.095238,59.2857143 C607.857143,58.5714286 608.809524,57.8571429 608.809524,57.8571429 L621.428571,49.047619 L621.904762,48.5714286 L627.142857,45 C627.142857,45 628.333333,44.2857143 628.809524,44.7619048 C629.047619,45 629.285714,45.2380952 629.285714,45.952381 C629.285714,45.952381 629.047619,46.4285714 629.285714,48.5714286 C629.285714,48.5714286 628.095238,62.6190476 641.428571,71.9047619 C641.666667,72.1428571 657.142857,80.7142857 662.380952,66.1904762 Z M690.47619,48.8095238 L682.380952,58.0952381 L682.380952,58.0952381 L682.380952,58.0952381 L682.380952,58.0952381 L674.285714,67.3809524 L674.285714,67.3809524 L674.285714,67.3809524 C673.809524,67.8571429 673.095238,68.0952381 672.380952,68.0952381 L672.380952,68.0952381 C671.904762,68.0952381 671.190476,67.8571429 670.714286,67.3809524 C670.238095,66.9047619 670,66.1904762 670,65.4761905 C670,65 670.238095,64.2857143 670.47619,63.8095238 C670.952381,63.0952381 671.428571,62.1428571 671.428571,62.1428571 C671.428571,62.1428571 671.428571,62.1428571 671.428571,62.1428571 C672.142857,60.4761905 672.380952,59.2857143 672.380952,58.0952381 C672.380952,56.4285714 671.904762,55.2380952 671.904762,55.2380952 C671.904762,55.2380952 671.904762,55.2380952 671.904762,55.2380952 L671.904762,55.2380952 L671.904762,55.2380952 C671.666667,54.5238095 671.428571,53.8095238 671.428571,53.0952381 C671.428571,51.9047619 671.904762,50.952381 672.142857,50.2380952 C672.380952,49.7619048 672.619048,49.5238095 672.857143,49.2857143 C673.095238,49.047619 673.333333,48.8095238 673.809524,48.3333333 C674.52381,47.8571429 675.47619,47.3809524 676.904762,47.3809524 C677.380952,47.3809524 677.857143,47.3809524 678.333333,47.6190476 L678.333333,47.6190476 L678.333333,47.6190476 L678.333333,47.6190476 C678.333333,47.6190476 678.333333,47.6190476 678.333333,47.6190476 C678.333333,47.6190476 678.571429,47.6190476 678.809524,47.6190476 C679.047619,47.6190476 679.761905,47.8571429 680.238095,47.8571429 C681.428571,47.8571429 683.095238,47.6190476 685,46.4285714 C685,46.4285714 685,46.4285714 685,46.4285714 C685,46.4285714 685,46.4285714 685,46.4285714 C685,46.4285714 685.238095,46.1904762 685.47619,46.1904762 C685.714286,45.952381 686.190476,45.7142857 686.666667,45.2380952 L686.666667,45.2380952 C687.142857,44.7619048 687.857143,44.5238095 688.571429,44.5238095 C689.047619,44.5238095 689.761905,44.7619048 690.238095,45.2380952 C690.714286,45.7142857 690.952381,46.4285714 690.952381,47.1428571 C691.190476,47.6190476 690.952381,48.3333333 690.47619,48.8095238 L690.47619,48.8095238 Z" id="Shape" fill="#EE3D44"></path>
            </g>
        </g>
    </g>
</svg>