<?xml version="1.0" encoding="UTF-8"?>
<svg width="980px" height="680px" viewBox="0 0 980 680" version="1.1" xmlns="http://www.w3.org/2000/svg" xmlns:xlink="http://www.w3.org/1999/xlink">
    <title>KE Posta Kenya </title>
    <defs>
        <linearGradient x1="50%" y1="0%" x2="50%" y2="100%" id="linearGradient-1">
            <stop stop-color="#FFFFFF" offset="0%"></stop>
            <stop stop-color="#EDEDED" offset="100%"></stop>
        </linearGradient>
        <rect id="path-2" x="1.0986696e-09" y="0.0432004179" width="900" height="600" rx="80"></rect>
        <filter x="-6.7%" y="-10.0%" width="113.3%" height="120.0%" filterUnits="objectBoundingBox" id="filter-3">
            <feMorphology radius="2.5" operator="dilate" in="SourceAlpha" result="shadowSpreadOuter1"></feMorphology>
            <feOffset dx="0" dy="0" in="shadowSpreadOuter1" result="shadowOffsetOuter1"></feOffset>
            <feGaussianBlur stdDeviation="17.5" in="shadowOffsetOuter1" result="shadowBlurOuter1"></feGaussianBlur>
            <feColorMatrix values="0 0 0 0 0   0 0 0 0 0   0 0 0 0 0  0 0 0 0.5 0" type="matrix" in="shadowBlurOuter1"></feColorMatrix>
        </filter>
        <path d="M5.40150555e-14,7.97918968 C5.40150555e-14,3.5700626 3.57101284,0 7.98013992,0 C12.3883168,0 15.9593296,3.5700626 15.9593296,7.97918968 C15.9593296,12.3911675 12.3883168,15.9659813 7.98013992,15.9659813 C3.57101284,15.9659813 5.40150555e-14,12.3911675 5.40150555e-14,7.97918968" id="path-4"></path>
        <radialGradient cx="80.5972015%" cy="65.9748839%" fx="80.5972015%" fy="65.9748839%" r="83.9220601%" gradientTransform="translate(0.806, 0.6597), scale(1, 0.9996), translate(-0.806, -0.6597)" id="radialGradient-6">
            <stop stop-color="#F3FAFE" offset="0%"></stop>
            <stop stop-color="#F3FAFE" offset="1.65%"></stop>
            <stop stop-color="#F3FAFE" offset="11.43%"></stop>
            <stop stop-color="#0094DF" offset="84.07%"></stop>
            <stop stop-color="#0094DA" offset="100%"></stop>
        </radialGradient>
        <path d="M13.7715099,45.6297141 C-2.45483799,30.1293518 0.15452903,0 0.15452903,0 L9.27781117,1.740845 C-1.14920424,53.4502132 58.2390769,60.9808882 58.2390769,60.9808882 C56.3632974,61.1851905 54.2623103,61.3248762 51.9912298,61.3248762 C41.4397326,61.3248762 27.1148208,58.3781729 13.7715099,45.6297141" id="path-7"></path>
        <radialGradient cx="80.5874241%" cy="66.0310524%" fx="80.5874241%" fy="66.0310524%" r="87.9850933%" gradientTransform="translate(0.8059, 0.6603), scale(1, 0.9497), translate(-0.8059, -0.6603)" id="radialGradient-9">
            <stop stop-color="#F3FAFE" offset="0%"></stop>
            <stop stop-color="#F3FAFE" offset="28.02%"></stop>
            <stop stop-color="#F3FAFE" offset="55.93%"></stop>
            <stop stop-color="#0094DF" offset="87.36%"></stop>
            <stop stop-color="#0094DA" offset="100%"></stop>
        </radialGradient>
    </defs>
    <g id="KE-Posta-Kenya" stroke="none" stroke-width="1" fill="none" fill-rule="evenodd">
        <g id="KE-Posta-Kenya-" transform="translate(40, 39.9568)">
            <g id="Rectangle">
                <use fill="black" fill-opacity="1" filter="url(#filter-3)" xlink:href="#path-2"></use>
                <use fill="url(#linearGradient-1)" fill-rule="evenodd" xlink:href="#path-2"></use>
            </g>
            <g id="Logo" transform="translate(0, 0)">
                <g id="Group" transform="translate(450, 258.5) scale(-1, 1) rotate(-180) translate(-450, -258.5)translate(0, 0)">
                    <path d="M900,437 C900,481.18278 864.18278,517 820,517 L80,517 C35.81722,517 5.68434189e-14,481.18278 5.68434189e-14,437 L5.68434189e-14,224 L52.9411765,224 L52.9411765,224.069653 L900,224.069653 L900,437 Z" id="Path" fill="#EC2227" fill-rule="nonzero"></path>
                    <g id="Clipped" transform="translate(248.1859, 234.0561)" fill="#FFFFFF" fill-rule="nonzero">
                        <path d="M166.25735,83.1281996 C166.25735,37.2191141 129.039186,0 83.1291499,0 C37.2191141,0 0,37.2191141 0,83.1281996 C0,129.038235 37.2191141,166.256399 83.1291499,166.256399 C129.039186,166.256399 166.25735,129.038235 166.25735,83.1281996" id="Path"></path>
                    </g>
                    <g id="Clipped" transform="translate(328.1988, 315.5324)">
                        <mask id="mask-5" fill="white">
                            <use xlink:href="#path-4"></use>
                        </mask>
                        <g id="Path"></g>
                        <path d="M5.40150555e-14,7.97918968 C5.40150555e-14,3.5700626 3.57101284,0 7.98013992,0 C12.3883168,0 15.9593296,3.5700626 15.9593296,7.97918968 C15.9593296,12.3911675 12.3883168,15.9659813 7.98013992,15.9659813 C3.57101284,15.9659813 5.40150555e-14,12.3911675 5.40150555e-14,7.97918968" id="Path" fill="url(#radialGradient-6)" fill-rule="nonzero" mask="url(#mask-5)"></path>
                    </g>
                    <g id="Clipped" transform="translate(332.4506, 236.8447)">
                        <mask id="mask-8" fill="white">
                            <use xlink:href="#path-7"></use>
                        </mask>
                        <g id="Path"></g>
                        <path d="M13.7715099,45.6297141 C-2.45483799,30.1293518 0.15452903,0 0.15452903,0 L9.27781117,1.740845 C-1.14920424,53.4502132 58.2390769,60.9808882 58.2390769,60.9808882 C56.3632974,61.1851905 54.2623103,61.3248762 51.9912298,61.3248762 C41.4397326,61.3248762 27.1148208,58.3781729 13.7715099,45.6297141" id="Path" fill="url(#radialGradient-9)" fill-rule="nonzero" mask="url(#mask-8)"></path>
                    </g>
                    <g id="Clipped" transform="translate(-0, 0)" fill-rule="nonzero">
                        <g id="Group">
                            <path d="M331.299267,400.420673 C285.297058,400.420673 247.870791,363.080878 247.870791,317.180344 C247.870791,271.287413 285.297058,233.947618 331.299267,233.947618 C377.297675,233.947618 414.725843,271.287413 414.725843,317.180344 C414.725843,363.080878 377.297675,400.420673 331.299267,400.420673 M252.7978,317.182245 C252.7978,322.821936 253.407856,328.31434 254.544347,333.613845 L256.124601,336.068322 C294.363325,362.139187 313.772987,364.45778 316.09158,364.892991 C340.137476,368.223592 354.476642,357.941964 356.071149,357.070591 C359.981399,354.751998 367.658411,349.392628 373.165069,331.431137 C378.666975,313.471546 388.807968,304.055589 388.807968,304.055589 C361.137845,301.736997 347.520864,288.41174 345.207973,285.948711 C327.102994,270.162325 329.129863,240.757059 329.129863,240.757059 L329.410184,238.922139 C286.933376,239.929397 252.7978,274.565751 252.7978,317.182245 M334.665027,238.96205 L335.06508,239.452375 C334.875031,272.862916 345.498747,281.360938 359.308627,290.340733 C373.113756,299.32433 407.106795,298.839706 407.106795,298.839706 L407.299695,299.420304 C384.414045,309.754196 379.680885,332.253097 379.680885,332.253097 C371.375762,359.967882 355.538063,364.988015 353.319246,366.052287 C325.798311,377.737424 306.964497,369.045552 298.278326,365.858438 C279.639312,358.522562 257.621233,343.357636 257.621233,343.357636 L257.203126,343.049757 C267.915215,373.584863 297.034458,395.493663 331.299267,395.493663 C374.651249,395.493663 409.798834,360.432551 409.798834,317.182245 C409.798834,275.059877 376.45386,240.720949 334.665027,238.96205" id="Shape" fill="#EC2227"></path>
                            <g fill="#0094DA">
                                <polygon id="Path" points="900 131.674684 0 131.674684 0 214.687905 900 214.687905"></polygon>
                                <path d="M246.622837,75.8876338 C244.064783,75.8876338 241.600803,75.8876338 241.600803,78.9018043 C241.600803,80.6863605 242.25267,83.4477663 242.609011,85.3511029 C243.947903,92.5929041 243.712243,94.8335768 250.981601,98.0568008 C263.676846,103.860884 278.847474,105.425935 292.645001,105.425935 C298.215325,105.425935 304.009906,105.197876 309.4624,103.958759 C316.371616,102.404162 315.810973,98.9319745 318.706363,91.2473601 C319.722173,88.5904809 316.163513,84.4759292 314.583259,82.0157503 L288.407868,42.3222036 L288.627374,42.1407072 C289.734407,42.5768687 291.201582,42.2357315 291.201582,40.5452494 C291.201582,38.3359346 287.898538,34.3069047 286.520686,32.6430294 C284.524225,30.0859257 280.062835,23.5073941 276.583996,23.5073941 C273.810236,23.5073941 270.57656,25.0724441 270.57656,28.2034945 C270.57656,39.2225113 291.087553,65.2059533 298.317951,74.4290109 L309.4624,88.7092613 C290.298851,88.3595719 271.350058,85.8062692 253.060732,80.1333191 L253.060732,79.906211 C254.629583,79.5641236 261.977812,78.775422 261.977812,76.5433014 C261.977812,74.2171067 257.544929,76.1080901 253.060732,76.0016629 L246.622837,75.8876338 Z" id="Path"></path>
                                <path d="M349.38448,45.0131015 C344.378601,38.6379218 339.494352,35.9791422 331.342218,35.9791422 C326.646118,31.1918184 321.201226,27.634109 314.198886,27.634109 C308.380549,27.634109 303.009776,33.4087351 302.582166,43.5497274 C302.357909,51.9261186 306.473411,57.5049947 312.719358,62.286617 C318.760052,67.1984226 326.767749,70.2002399 333.570538,70.5651332 C336.010762,70.6630082 339.706256,69.5208163 339.706256,66.4999941 C339.706256,64.8437207 338.356911,64.1975555 337.152003,63.5257338 C340.491157,62.6277542 341.145874,60.2816045 341.145874,56.9396002 C341.145874,52.0553516 338.917555,48.1441518 336.799463,43.7891886 C341.710318,42.930169 344.813812,47.151148 348.270795,49.7016 L349.38448,45.0131015 Z M315.399043,50.2508404 C312.96167,47.7916117 310.816971,43.4547031 310.816971,40.023376 C310.816971,36.7706945 312.96167,35.7900438 315.712623,35.7900438 C319.423321,35.7900438 321.750466,37.8853294 324.323724,40.219126 C323.542624,42.0321895 322.97818,43.4547031 322.97818,45.3580396 C322.97818,51.141218 328.21972,58.1549609 327.772156,58.3991733 C323.970234,56.1585005 318.760052,53.4949697 315.399043,50.2508404" id="Shape"></path>
                                <path d="M379.718039,57.9555049 C382.075592,60.0621934 392.993883,70.6631033 395.799,70.6631033 C396.685577,70.6631033 397.905688,70.3172148 398.337099,64.5235838 C398.564207,61.8591027 395.548136,59.2896459 393.778783,57.7397997 C390.208721,54.4804666 382.311252,45.684068 382.311252,40.6895913 C382.311252,38.8926819 383.295704,38.2341636 385.092613,38.2341636 C389.309791,38.2341636 398.89014,46.0328071 402.252099,48.7096414 L402.926772,43.8995118 C397.222464,38.4574707 385.426148,25.6443953 377.163786,25.6443953 C373.045433,25.6443953 370.604259,29.0937771 370.604259,32.989773 C370.604259,36.3431802 371.829123,39.4542755 372.931404,42.3183076 L372.710948,42.5815249 C368.37594,38.8071601 360.918434,28.741237 354.782715,28.741237 C349.321669,28.741237 346.304648,34.9852831 346.304648,39.7678557 C346.304648,50.5759185 354.661084,61.7298697 361.801209,66.413617 C363.338702,67.4094715 364.806827,67.6413308 366.685458,67.6413308 C368.250508,67.6413308 373.939612,68.6428868 373.492048,65.3037333 C373.272542,63.5258288 370.25552,60.4147335 369.039209,59.376118 C365.583176,55.487724 364.908503,54.4804666 360.569694,51.3617694 C357.125064,48.9167944 354.417822,46.4604164 354.417822,41.7814204 C354.417822,41.2473839 354.543254,40.1203958 355.316752,40.1203958 C357.352172,40.1203958 363.476487,43.3502714 368.698072,48.0264168 L379.718039,57.9555049 Z" id="Path"></path>
                                <path d="M413.640951,49.2539405 C411.185523,47.4779365 409.17671,45.7969568 409.17671,42.6868118 C409.17671,40.1249569 411.883001,36.6451674 417.661428,36.6451674 C426.11669,36.6451674 435.811068,44.4637661 442.256566,49.4620437 L443.609711,45.1308366 C436.810723,37.8890354 424.351139,26.8690684 413.738826,26.8690684 C405.163834,26.8690684 401.067337,34.8805663 401.067337,43.1229733 C401.067337,52.479065 404.377983,55.9598047 411.628336,61.4046966 C416.626614,65.2056682 427.352006,71.2045517 433.59035,71.2045517 C437.050185,71.2045517 438.587678,69.4199955 438.587678,66.0846429 C438.587678,59.9441732 429.79603,51.3653803 426.799914,51.3653803 C424.24091,51.3653803 423.123425,54.1619451 423.017948,56.3123448 L413.640951,49.2539405 Z" id="Path"></path>
                                <path d="M448.442267,42.3219185 C453.903313,46.6996876 474.187198,64.5233938 480.295359,64.5233938 C482.975044,64.5233938 485.65758,61.7220777 485.65758,59.1792277 C485.65758,57.0687382 481.177185,52.1502809 479.8668,50.5728777 C472.930977,42.2354464 473.272114,41.8867073 473.272114,40.7967787 C473.272114,39.3324544 474.398152,38.4382758 475.751298,38.4382758 C479.426837,38.4382758 487.548563,44.4609153 490.785091,46.5856585 L491.345734,42.0320945 C486.198268,38.1009396 472.734276,27.1788476 466.602359,27.1788476 C463.260355,27.1788476 461.471998,30.1017948 461.471998,33.0998111 C461.471998,40.1240067 469.165164,48.590671 473.174239,53.813206 L472.930977,54.051717 C453.903313,41.0077326 448.305432,29.1924123 444.759125,29.1924123 C440.863129,29.1924123 440.293934,37.8852344 440.293934,40.4622932 C440.293934,48.1440568 443.205478,53.4948746 447.110026,59.8396465 C460.231931,81.60401 482.436257,101.066885 486.198268,101.066885 C487.979023,101.066885 491.020751,100.294338 491.020751,98.0612669 C491.020751,90.4868807 455.567188,53.7105798 448.442267,46.6996876 L448.442267,42.3219185 Z" id="Path"></path>
                                <path d="M522.106427,42.79704 C517.116702,36.6575206 507.285489,26.6220053 498.807421,26.6220053 C492.272601,26.6220053 489.243227,34.2125456 489.243227,39.8816948 C489.243227,53.4986756 503.169987,66.7517134 509.878701,66.7517134 C511.768735,66.7517134 514.770552,66.0846429 514.770552,63.628265 C514.770552,58.0769459 503.719227,48.1231515 499.050684,44.9122807 C498.179311,40.3530152 499.843186,37.8928364 504.971647,37.8928364 C510.8508,37.8928364 516.658685,43.7928946 521.145732,47.0332229 L522.106427,42.79704 Z M511.416195,73.7578544 C511.416195,78.3598807 516.775565,82.3451995 521.145732,82.3451995 C523.162147,82.3451995 524.798465,80.9017805 524.798465,78.9091211 C524.798465,74.4287258 520.67061,68.9752818 515.866182,68.9752818 C513.214054,68.9752818 511.416195,71.0895723 511.416195,73.7578544" id="Shape"></path>
                                <path d="M573.826058,50.3878654 L574.719286,45.488413 C568.851536,40.2193161 557.372602,26.5120621 549.219518,26.5120621 C544.982385,26.5120621 542.96977,30.0859257 542.96977,33.8916486 C542.96977,40.5604533 549.012365,47.9276865 552.550119,53.0276402 L552.339165,53.2518975 C545.885116,48.4769269 540.160852,42.6870969 535.18253,36.2140422 C533.495849,34.0674435 529.387949,28.6425067 526.403236,28.6425067 C521.45247,28.6425067 520.258965,35.7037618 520.114528,39.4458183 C519.803799,47.1513381 526.830845,58.4031643 533.283944,63.8604093 C534.734965,65.0985758 535.719417,65.1859982 537.630356,65.1859982 C544.331468,64.9626911 543.731865,63.4042927 543.731865,62.7381724 C543.731865,58.4031643 529.733837,47.1513381 529.733837,44.4640511 C529.733837,43.7931796 530.283077,43.242989 530.937795,43.242989 C531.722695,43.242989 532.734704,44.2321919 533.169915,44.7975864 C542.110751,56.1624915 562.589436,69.8621435 565.818361,69.8621435 C566.287781,69.8621435 566.940598,69.3214553 567.599116,67.7630569 C568.27759,66.0915797 568.94466,64.0713632 569.290549,61.7328155 C569.290549,57.3864044 555.583295,48.9168894 555.583295,41.2436779 C555.583295,40.2193161 556.481274,39.2149093 557.594959,39.2149093 C560.247087,39.2149093 565.155092,43.1223081 567.14395,44.7975864 L573.826058,50.3878654 Z" id="Path"></path>
                                <path d="M602.754588,44.4637661 L602.52748,44.7155804 C598.525057,40.21523 586.807611,30.0979938 580.682346,30.0979938 C574.452553,30.0979938 572.323059,38.2187697 572.323059,43.1229733 C572.323059,57.7405599 596.62267,69.5169203 605.175807,70.3132238 C606.75131,70.4396061 611.141432,69.9948924 611.141432,67.5394648 C611.141432,65.5316015 608.874152,63.9589495 607.41933,62.9763983 L594.719334,56.0728836 C587.70084,52.2548076 579.474587,49.1636675 580.466641,41.0039316 C580.58067,40.1249569 581.251541,39.8816948 582.248346,39.8816948 C585.362292,39.5719156 592.197389,42.2354464 596.398413,46.7975626 L608.313509,59.9441732 C609.41199,61.1842402 610.753733,63.0913777 612.562045,63.0913777 C614.794166,63.0913777 616.786825,59.2904061 616.786825,57.3870696 C616.786825,55.7079904 615.229377,53.1461355 614.492939,51.7179204 L606.12795,36.092126 L606.304695,35.8887741 L623.272233,48.0224257 L623.845229,43.3500814 L600.289658,25.7553837 C588.603571,7.14677689 578.811317,0 574.452553,0 C572.918861,0 571.864092,1.204908 571.864092,2.67968499 C571.864092,10.6864317 588.819276,24.7386238 594.927437,29.1924123 L602.754588,44.4637661 Z" id="Path"></path>
                                <path d="M695.708584,44.7810522 C689.608025,38.4581359 679.113542,27.1797028 669.540795,27.1797028 C661.397213,27.1797028 659.616458,35.1113803 659.616458,41.6737579 C659.616458,53.3503427 664.645144,65.9790709 671.894547,74.8875981 C681.702954,87.0212498 692.28771,97.3826985 695.865374,97.3826985 C697.737353,97.3826985 698.172564,94.7191676 698.062336,93.2709974 C697.288838,82.6748388 694.40105,72.8787846 670.227821,49.4657497 C669.188255,47.5785673 668.892729,44.463671 669.438169,41.7687821 C670.438775,39.2154795 672.019979,37.0014135 675.006592,37.0014135 C681.153714,37.0014135 689.713502,44.138688 694.170141,48.1088028 L695.708584,44.7810522 Z M672.671845,59.7255223 C680.564563,67.0813527 687.488983,77.7905902 689.498747,84.1306109 C684.068109,81.474682 677.65872,71.4154106 672.432384,59.9478792 L672.671845,59.7255223 Z" id="Shape"></path>
                                <path d="M725.162408,42.79704 C720.185036,36.6575206 710.352873,26.6220053 701.866253,26.6220053 C695.316229,26.6220053 692.325815,34.2125456 692.325815,39.8816948 C692.325815,53.4986756 706.241172,66.7517134 712.913777,66.7517134 C714.829467,66.7517134 717.830334,66.0846429 717.830334,63.628265 C717.830334,58.0769459 706.78281,48.1231515 702.105715,44.9122807 C701.221038,40.3530152 702.887764,37.8928364 708.026678,37.8928364 C713.911532,37.8928364 719.69376,43.7928946 724.213116,47.0332229 L725.162408,42.79704 Z M714.460773,73.7578544 C714.460773,78.3598807 719.820143,82.3451995 724.213116,82.3451995 C726.213377,82.3451995 727.841143,80.9017805 727.841143,78.9091211 C727.841143,74.4287258 723.730392,68.9752818 718.917412,68.9752818 C716.269085,68.9752818 714.460773,71.0895723 714.460773,73.7578544" id="Shape"></path>
                                <path d="M765.417834,69.8744016 C767.657556,69.8744016 768.744634,68.4262315 768.744634,66.1665538 C768.744634,61.7336707 762.291535,51.2591431 759.513024,47.3469931 C760.737887,46.2570645 761.515186,45.9121263 763.303543,45.9121263 C766.214137,45.9121263 770.29448,48.6887361 772.765112,50.3953723 L773.542411,45.684068 C769.646415,41.2511848 765.535664,37.7865992 759.289717,37.7865992 C756.935015,37.7865992 755.402273,39.3316942 753.51129,40.6705864 C750.38119,37.1318818 739.128413,27.3206238 734.766799,27.3206238 C728.187317,27.3206238 723.749682,35.6609058 723.749682,44.138973 C723.749682,59.5015501 737.445533,70.2041359 741.337728,70.2041359 C742.91038,70.2041359 748.057846,69.9950825 748.057846,67.6413308 C748.057846,62.6364014 737.570965,51.3646201 733.530532,48.0102626 C732.985093,46.2570645 731.875209,43.2476452 731.875209,41.4393329 C731.875209,39.6785328 732.318973,37.1318818 734.551093,37.1318818 C737.787621,37.1318818 746.598273,45.2260509 748.93207,47.4819276 C748.477853,52.5923339 751.498676,56.8494221 754.484339,60.6285382 C756.614783,63.4041977 761.515186,69.8744016 765.417834,69.8744016" id="Path"></path>
                                <path d="M813.471903,44.9156066 C806.677666,37.0019836 794.393876,26.5122522 783.404316,26.5122522 C775.256934,26.5122522 771.463564,33.7578544 771.236456,41.1174857 C770.796494,55.7236694 786.931618,70.6548361 801.408569,70.5649704 C804.986233,70.5649704 809.458076,69.6504294 809.458076,65.1899892 C809.458076,59.7251422 804.028389,51.4741831 782.605162,44.4632909 L782.350497,42.0154652 C782.044519,37.7678794 785.712456,36.3434653 789.293922,36.3434653 C797.190441,36.3434653 806.558885,44.4632909 812.452292,49.1603416 L813.471903,44.9156066 Z M799.65442,62.8352873 C799.65442,63.6277899 799.092827,64.3062633 798.297474,64.0630011 C792.726199,62.6328855 786.284503,57.2887194 783.291238,49.9214862 C793.067337,53.2444856 799.749445,60.9528561 799.65442,62.8352873" id="Shape"></path>
                                <path d="M850.714203,47.4611172 L851.831688,43.2477402 C845.0327,36.4411503 832.895248,26.3039589 823.997173,26.7201653 C816.51306,27.0727055 808.265902,31.3145898 806.272292,39.4458183 C805.606172,38.7825488 804.808918,37.9957477 803.781705,37.9957477 C802.690827,37.9957477 801.906876,39.1084821 801.906876,40.132844 C801.906876,41.5772132 803.695233,43.102353 804.578009,43.9965316 L828.772144,66.1694996 C828.979297,69.8744967 831.086935,73.4521612 835.119766,73.4521612 C838.465572,73.4521612 839.160199,72.4477545 839.482331,69.30055 C839.918493,65.0995261 841.612776,61.2738481 841.612776,56.3743957 C841.612776,47.2387604 834.217986,40.4426231 827.103517,36.1085653 C834.217986,34.8808514 838.583402,38.2228557 844.004537,42.3307558 L850.714203,47.4611172 Z M812.824217,45.1235197 C816.975828,44.9154165 819.415102,41.439428 821.534143,38.5364359 C828.214351,42.6785447 830.012211,44.5818812 830.333393,51.0587369 C830.012211,53.3849315 829.556094,56.3743957 828.870969,60.1953224 L812.824217,45.1235197 Z" id="Shape"></path>
                            </g>
                            <path d="M132.238677,191.978715 L139.951799,191.978715 L139.951799,176.868902 L140.115241,176.868902 C140.879236,178.187839 141.685042,179.406051 142.462341,180.619511 L150.265735,191.978715 L159.818527,191.978715 L148.433667,177.423844 L160.436185,157.791826 L151.33856,157.791826 L142.913706,172.553849 L139.951799,168.954329 L139.951799,157.791826 L132.238677,157.791826 L132.238677,191.978715 Z" id="Path" fill="#FFFFFF"></path>
                            <polygon id="Path" fill="#FFFFFF" points="305.869627 172.2454 293.20954 172.2454 293.20954 164.130326 307.352956 164.130326 307.352956 157.792206 285.396643 157.792206 285.396643 191.974343 306.640274 191.974343 306.640274 185.640024 293.20954 185.640024 293.20954 178.534108 305.869627 178.534108"></polygon>
                            <path d="M438.55651,157.792206 L438.55651,191.974343 L447.640832,191.974343 L454.797111,179.446341 C456.832532,175.852522 458.884106,171.586882 460.413047,167.731746 L460.565086,167.731746 C460.054805,172.2454 459.912269,176.868332 459.912269,182.039554 L459.912269,191.974343 L467.055245,191.974343 L467.055245,157.792206 L458.884106,157.792206 L451.532077,170.979677 C449.480502,174.63241 447.236979,179.039637 445.555999,183.056314 L445.397308,183.000249 C445.606362,178.492297 445.707088,173.666964 445.707088,168.092839 L445.707088,157.792206 L438.55651,157.792206 Z" id="Path" fill="#FFFFFF"></path>
                            <path d="M599.674661,157.792206 L599.674661,171.794035 L588.800081,191.974343 L597.687703,191.974343 L601.217855,183.759494 C602.285928,181.278409 602.99766,179.446341 603.855729,177.221822 L603.966908,177.221822 C604.734704,179.348466 605.550012,181.329722 606.567723,183.759494 L610.051313,191.974343 L618.778344,191.974343 L607.438145,172.042998 L607.438145,157.792206 L599.674661,157.792206 Z" id="Path" fill="#FFFFFF"></path>
                            <path d="M752.938484,166.569029 L750.494459,157.792586 L742.419295,157.792586 L752.938484,191.978525 L763.150744,191.978525 L773.826723,157.792586 L765.455083,157.792586 L762.802955,166.569029 L752.938484,166.569029 Z M761.675017,172.347456 L759.532219,179.603511 C758.923113,181.63323 758.303555,184.169428 757.792324,186.201998 L757.691599,186.201998 C757.181318,184.169428 756.673889,181.588569 756.112295,179.603511 L754.066422,172.347456 L761.675017,172.347456 Z" id="Shape" fill="#FFFFFF"></path>
                            <path d="M169.747806,324.750074 L178.843531,324.750074 C185.134139,324.750074 190.022188,326.152633 193.50958,328.95965 C199.421991,333.682358 202.378197,341.483852 202.378197,352.366984 C202.378197,360.716768 200.446353,367.150863 196.579814,371.668318 C192.713276,376.185772 187.217071,378.44355 180.0931,378.44355 L169.747806,378.44355 L169.747806,324.750074 Z M169.747806,309.041609 L169.747806,260.175367 C169.747806,258.257777 170.277091,255.965791 171.338512,253.297509 L129.726425,253.297509 C130.557888,255.350034 130.975994,257.641069 130.975994,260.175367 L130.975994,386.451247 C130.899025,389.326682 130.480918,391.652876 129.726425,393.431731 L189.190726,393.431731 C203.287579,393.431731 214.618276,390.968701 223.186616,386.040742 C235.465655,378.922472 241.605174,367.663044 241.605174,352.265308 C241.605174,336.111178 234.669351,324.305361 220.796755,316.845004 C215.567568,314.038936 210.091318,312.035824 204.369906,310.838518 C198.645643,309.642162 191.652805,309.041609 183.390443,309.041609 L169.747806,309.041609 Z" id="Shape" fill="#FFFFFF"></path>
                            <path d="M423.862619,262.125456 L430.343275,284.402951 C435.120146,280.844291 438.947725,278.175058 441.828861,276.396204 C450.315481,271.055839 459.223058,268.389457 468.546841,268.389457 C476.279918,268.389457 482.379527,270.269038 486.85232,274.0339 C491.173075,277.730345 493.332977,282.280108 493.332977,287.68889 C493.332977,293.916782 490.414781,298.878951 484.578389,302.574446 C481.774222,304.354251 474.117165,307.707658 461.611018,312.635617 C448.196439,317.906615 438.872656,323.585266 433.641568,329.677274 C427.880246,336.454406 425.00101,344.2559 425.00101,353.084607 C425.00101,361.503759 427.538158,369.100951 432.619107,375.876183 C442.471225,389.08456 458.805901,395.691599 481.623134,395.691599 C494.962644,395.691599 508.378173,393.021416 521.870672,387.682001 L516.07419,367.047477 C503.034957,375.532195 491.552222,379.777881 481.623134,379.777881 C475.784841,379.777881 470.914846,378.202378 467.013149,375.056124 C463.107651,371.906068 461.157752,367.971113 461.157752,363.249356 C461.157752,358.322346 462.993621,354.50522 466.671062,351.80273 C470.347551,349.096438 478.932046,345.179537 492.424545,340.048225 C506.824526,334.640392 516.602525,328.616803 521.757593,321.978406 C527.063749,315.203174 529.718728,307.229686 529.718728,298.056991 C529.718728,288.885246 527.251898,280.60578 522.327739,273.214791 C512.471819,258.429961 495.41876,251.038972 471.160959,251.038972 C462.59547,251.038972 454.847189,251.859031 447.911366,253.502952 C440.975543,255.144971 432.960244,258.020406 423.862619,262.125456" id="Path" fill="#FFFFFF"></path>
                            <path d="M534.021618,393.431636 L652.381974,393.431636 L652.381974,375.158465 C649.12169,375.840739 646.128425,376.186628 643.399328,376.186628 L612.587701,376.186628 L612.587701,260.176223 C612.66182,257.368255 613.079927,255.076269 613.839171,253.297414 L572.566321,253.297414 C573.322714,255.076269 573.739871,257.368255 573.81589,260.176223 L573.81589,376.186628 L544.140755,376.186628 C540.957441,376.186628 537.583128,375.840739 534.021618,375.158465 L534.021618,393.431636 Z" id="Path" fill="#FFFFFF"></path>
                            <path d="M679.240875,308.7343 L718.351922,308.7343 L698.795923,360.990058 L679.240875,308.7343 Z M673.215384,293.130361 L660.253121,259.764482 C659.493877,257.847842 659.11473,256.239081 659.11473,254.939149 C659.11473,254.595161 659.15274,254.049721 659.229709,253.297129 L638.082053,253.297129 C639.597691,255.144401 640.848211,257.300502 641.834563,259.764482 L691.747972,387.374503 C692.503415,389.35956 692.883512,390.968321 692.883512,392.199836 L692.883512,393.431351 L725.857891,393.431351 C725.780921,391.996484 726.199028,390.077944 727.10651,387.682381 L778.27234,259.764482 C779.256791,257.437337 780.65935,255.282187 782.480015,253.297129 L737.908872,253.297129 C737.982991,253.912886 738.022901,254.391809 738.022901,254.733896 C738.022901,256.102246 737.642804,257.778475 736.88451,259.764482 L724.264334,293.130361 L673.215384,293.130361 Z" id="Shape" fill="#FFFFFF"></path>
                        </g>
                    </g>
                </g>
            </g>
        </g>
    </g>
</svg>