<?xml version="1.0" encoding="UTF-8"?>
<svg width="980px" height="680px" viewBox="0 0 980 680" version="1.1" xmlns="http://www.w3.org/2000/svg" xmlns:xlink="http://www.w3.org/1999/xlink">
    <title>KR Korea Post</title>
    <defs>
        <linearGradient x1="50%" y1="0%" x2="50%" y2="100%" id="linearGradient-1">
            <stop stop-color="#FFFFFF" offset="0%"></stop>
            <stop stop-color="#EDEDED" offset="100%"></stop>
        </linearGradient>
        <rect id="path-2" x="-2.84217094e-14" y="0" width="900" height="600" rx="80"></rect>
        <filter x="-6.7%" y="-10.0%" width="113.3%" height="120.0%" filterUnits="objectBoundingBox" id="filter-3">
            <feMorphology radius="2.5" operator="dilate" in="SourceAlpha" result="shadowSpreadOuter1"></feMorphology>
            <feOffset dx="0" dy="0" in="shadowSpreadOuter1" result="shadowOffsetOuter1"></feOffset>
            <feGaussianBlur stdDeviation="17.5" in="shadowOffsetOuter1" result="shadowBlurOuter1"></feGaussianBlur>
            <feColorMatrix values="0 0 0 0 0   0 0 0 0 0   0 0 0 0 0  0 0 0 0.5 0" type="matrix" in="shadowBlurOuter1"></feColorMatrix>
        </filter>
    </defs>
    <g id="KR-Korea-Post" stroke="none" stroke-width="1" fill="none" fill-rule="evenodd">
        <g transform="translate(40, 40)">
            <g id="Rectangle">
                <use fill="black" fill-opacity="1" filter="url(#filter-3)" xlink:href="#path-2"></use>
                <use fill="url(#linearGradient-1)" fill-rule="evenodd" xlink:href="#path-2"></use>
            </g>
            <g id="Logo" transform="translate(50, 107.4382)" fill-rule="nonzero">
                <path d="M1.12925817,190.801733 C-0.310955271,191.541598 -0.383315857,192.879907 0.968189719,193.774296 L124.394495,275.298989 L159.762477,108.925281 L1.12931159,190.801733" id="p1" fill="#EE2722"></path>
                <path d="M731.920995,108.89449 L700.715897,108.89449 C699.094796,108.89449 696.58591,109.507295 695.142367,110.247161 L538.718887,190.851075 C537.27537,191.594216 537.212901,192.92592 538.554323,193.82031 C538.554323,193.82031 538.554323,193.82031 538.554323,193.825679 L659.922181,273.699553 C661.280221,274.587338 663.710208,275.323982 665.344463,275.323982 L696.533132,275.323982 C698.15093,275.323982 698.371252,274.597271 697.036219,273.709486 L573.169328,192.204578 L732.243116,110.245953 C733.689935,109.506114 733.53866,108.89449 731.920834,108.89449" id="p2" fill="#F47216"></path>
                <path d="M665.071684,108.895698 L447.645336,108.895698 L412.313499,275.325298 L629.700411,275.325298 C631.31821,275.325298 631.531955,274.598586 630.193619,273.700868 L506.533896,192.205813 L665.397241,110.247161 C666.840758,109.507295 666.689483,108.895698 665.071684,108.895698" id="p3" fill="#EE2722"></path>
                <path d="M798.67828,108.89449 L767.479731,108.89449 C765.852053,108.89449 763.349718,109.507295 761.909477,110.247161 L605.472869,190.851075 C604.042507,191.594216 603.973433,192.92592 605.315017,193.82031 C605.320386,193.82031 605.320386,193.82031 605.320386,193.825679 L726.681694,273.699553 C728.03313,274.587338 730.472995,275.323982 732.090794,275.323982 L763.295893,275.323982 C764.910443,275.323982 765.130738,274.597271 763.785879,273.709486 L639.920276,192.204578 L799.007192,110.245953 C800.447434,109.506114 800.306038,108.89449 798.678387,108.89449" id="p4" fill="#FAB20B"></path>
                <path d="M655.450396,0 L143.554827,0 C114.983586,0 94.9879683,17.9799451 90.269386,40.1983866 C87.6848386,52.3910838 92.317947,63.2421704 101.709063,70.6801296 L285.635172,192.100578 L285.776648,192.031316 L285.80081,192.100578 L655.780463,1.35806703 C657.216624,0.614899289 657.075201,0 655.450853,0" id="p5" fill="#EE2722"></path>
                <path d="M574.257891,382.599921 C574.257891,382.599921 574.257891,382.599921 574.252522,382.599921 L285.800783,192.100578 L285.751655,192.16984 L285.636487,192.100578 L50.0821726,313.560463 C37.5475237,320.952409 28.3043592,331.820059 25.7132668,344.03885 C20.9618026,366.211466 33.2925656,384.224082 61.8835731,384.224082 L573.765972,384.224082 C575.39365,384.224082 575.607368,383.490928 574.25918,382.599921" id="p6" fill="#EE2722"></path>
            </g>
        </g>
    </g>
</svg>