<?xml version="1.0" encoding="UTF-8"?>
<svg width="980px" height="680px" viewBox="0 0 980 680" version="1.1" xmlns="http://www.w3.org/2000/svg" xmlns:xlink="http://www.w3.org/1999/xlink">
    <title>KZ Kazpost text alt</title>
    <defs>
        <rect id="path-1" x="0" y="0" width="900" height="600" rx="80"></rect>
        <filter x="-6.7%" y="-10.0%" width="113.3%" height="120.0%" filterUnits="objectBoundingBox" id="filter-2">
            <feMorphology radius="2.5" operator="dilate" in="SourceAlpha" result="shadowSpreadOuter1"></feMorphology>
            <feOffset dx="0" dy="0" in="shadowSpreadOuter1" result="shadowOffsetOuter1"></feOffset>
            <feGaussianBlur stdDeviation="17.5" in="shadowOffsetOuter1" result="shadowBlurOuter1"></feGaussianBlur>
            <feColorMatrix values="0 0 0 0 0   0 0 0 0 0   0 0 0 0 0  0 0 0 0.5 0" type="matrix" in="shadowBlurOuter1"></feColorMatrix>
        </filter>
    </defs>
    <g id="KZ-Kazpost-text-alt" stroke="none" stroke-width="1" fill="none" fill-rule="evenodd">
        <g transform="translate(40, 40)">
            <g id="Rectangle">
                <use fill="black" fill-opacity="1" filter="url(#filter-2)" xlink:href="#path-1"></use>
                <use fill="#005AAA" fill-rule="evenodd" xlink:href="#path-1"></use>
            </g>
            <g id="Logo" transform="translate(50.135, 254.135)" fill="#FFFFFF" stroke="#FFFFFF" stroke-width="0.27000001">
                <path d="M365.792554,51.6816917 L392.26103,22.3224463 L385.909114,51.6816917 L365.792554,51.6816917 Z M470.666138,17.1544932 L407.216118,63.1173003 L398.239176,79.1245598 L412.440245,2.1994048 L394.086666,2.1994048 L325.401717,75.6936612 L318.421091,36.1778323 L367.924983,2.1994048 L345.062408,2.1994048 L298.401754,34.6395453 L316.485269,2.1994048 L298.349902,2.1994048 L255.34268,79.1720911 L273.478047,79.1720911 L287.123863,54.7604263 L300.847458,45.6344088 L305.352133,79.1720911 L341.625028,79.1720911 L354.652936,64.7679342 L382.571118,64.7679342 L379.43621,79.1720911 L462.529637,79.1720911 L471.022623,64.2170027 L429.806469,64.2170027 L495.082124,16.1649771 L502.90103,2.1994048 L443.326975,2.1994048 L434.723802,17.1544932 L470.666138,17.1544932 L470.666138,17.1544932 Z M523.754325,17.1544932 L538.043975,17.1544932 C545.078614,17.1544932 548.602414,19.353898 546.117822,26.5008833 C544.246815,31.889209 538.996762,37.8263057 526.465772,37.8263057 L512.176123,37.8263057 L523.754325,17.1544932 L523.754325,17.1544932 Z M514.001758,2.1994048 L470.994536,79.1720911 L489.129904,79.1720911 L503.903509,52.7813941 L521.161707,52.7813941 C552.925606,52.7813941 563.749789,31.1200655 566.497964,23.2017761 C573.031363,4.39880959 558.737393,2.1994048 549.944095,2.1994048 L514.001758,2.1994048 L514.001758,2.1994048 Z M587.647251,66.418568 C575.669353,66.418568 574.433538,57.9493472 578.21444,47.06467 C582.341025,35.1883162 595.193932,14.9550884 614.098442,14.9550884 C628.16988,14.9550884 626.584061,25.8397656 623.6436,34.3089864 C619.594794,45.9649676 606.553922,66.418568 587.647251,66.418568 Z M581.018789,81.3909406 C615.312652,81.3909406 637.440652,50.9125482 644.086398,31.7790227 C651.041097,11.7661675 642.705828,0 621.383701,0 C586.979652,0 564.380659,30.5691341 557.769482,49.5924732 C554.485498,59.0490496 550.352432,81.3909406 581.018789,81.3909406 L581.018789,81.3909406 Z M638.052078,54.2116554 C636.963178,56.0805013 636.165948,58.061694 635.517793,59.9283794 C629.481313,77.3032452 643.779604,81.3909406 659.276982,81.3909406 C683.788031,81.3909406 699.002381,68.287414 704.503054,52.4529957 C708.55186,40.794854 703.122484,36.1778323 685.706569,31.889209 C677.016975,29.6898042 673.89287,27.9311446 675.534862,23.2017761 C678.131801,15.7242319 688.510918,14.9550884 692.579168,14.9550884 C698.403918,14.9550884 703.293165,16.3853497 701.536666,21.4431165 C701.307651,22.1020737 701.117526,22.6530052 700.776164,23.3119624 L718.034362,23.3119624 C718.788382,21.7736754 719.471105,20.125202 720.006913,18.582594 C726.002344,1.32007498 707.776235,9.9475983e-14 698.87275,9.9475983e-14 C674.582074,9.9475983e-14 660.285943,10.7766514 655.167682,25.5113672 C649.971642,40.4664556 660.115262,43.5451903 669.530789,46.1853402 C678.032417,48.6029571 685.892373,49.7026595 683.487719,56.6314327 C682.418264,59.7101674 678.658967,66.418568 664.697716,66.418568 C652.387098,66.418568 654.091745,59.9283794 654.856568,57.7311351 C655.277868,56.5212465 655.768305,55.4193835 656.518004,54.2116554 L638.052078,54.2116554 L638.052078,54.2116554 Z M750.290859,17.1544932 L715.664277,79.1720911 L733.801805,79.1720911 L768.426226,17.1544932 L791.6172,17.1544932 L800,2.1994048 L735.480525,2.1994048 L727.097725,17.1544932 L750.290859,17.1544932 Z M240.88451,2.08921851 L0,2.08921851 L148.461977,92.2086418 L190.205298,92.2086418 L193.344527,87.1746406 L220.651282,38.3037796 L158.726587,38.3037796 L179.782971,55.0261697 L153.733635,55.0261697 L114.44034,29.8323983 L225.382811,29.8323983 L240.88451,2.08921851 L240.88451,2.08921851 Z" id="path42"></path>
            </g>
        </g>
    </g>
</svg>