<?xml version="1.0" encoding="UTF-8"?>
<svg width="980px" height="680px" viewBox="0 0 980 680" version="1.1" xmlns="http://www.w3.org/2000/svg" xmlns:xlink="http://www.w3.org/1999/xlink">
    <title>LB Liban Post text alt</title>
    <defs>
        <rect id="path-1" x="0" y="0" width="900" height="600" rx="80"></rect>
        <filter x="-6.7%" y="-10.0%" width="113.3%" height="120.0%" filterUnits="objectBoundingBox" id="filter-2">
            <feMorphology radius="2.5" operator="dilate" in="SourceAlpha" result="shadowSpreadOuter1"></feMorphology>
            <feOffset dx="0" dy="0" in="shadowSpreadOuter1" result="shadowOffsetOuter1"></feOffset>
            <feGaussianBlur stdDeviation="17.5" in="shadowOffsetOuter1" result="shadowBlurOuter1"></feGaussianBlur>
            <feColorMatrix values="0 0 0 0 0   0 0 0 0 0   0 0 0 0 0  0 0 0 0.5 0" type="matrix" in="shadowBlurOuter1"></feColorMatrix>
        </filter>
    </defs>
    <g id="LB-Liban-Post-text-alt" stroke="none" stroke-width="1" fill="none" fill-rule="evenodd">
        <g transform="translate(40, 40)">
            <g id="Rectangle">
                <use fill="black" fill-opacity="1" filter="url(#filter-2)" xlink:href="#path-1"></use>
                <use fill="#005BC0" fill-rule="evenodd" xlink:href="#path-1"></use>
            </g>
            <g id="Logo" transform="translate(70, 50)">
                <path d="M87.4405995,497.029974 L131.077129,400.54222 L114.597295,400.54222 L70.9607652,497.029974 L87.4405995,497.029974 Z M101.14841,497.029974 L148.1662,497.029974 C164.539418,497.029974 180.790788,486.094188 187.614232,470.939442 C194.589984,455.556232 189.975021,446.570001 177.08968,445.275375 L177.211527,445.001218 C182.237724,444.331059 195.290606,441.239186 203.48483,423.114415 C210.947971,406.63458 202.81467,400.54222 185.497137,400.54222 L144.739247,400.54222 L101.14841,497.029974 Z M123.994761,482.956622 L137.5198,453.104058 L161.356159,453.104058 C172.01779,453.104058 175.551359,458.252102 171.073474,468.091264 C166.869745,477.443036 159.650299,482.956622 146.277568,482.956622 L123.994761,482.956622 Z M154.883027,414.630803 L176.510905,414.630803 C186.974534,414.630803 189.152553,418.560375 185.283904,426.815523 C181.689411,434.522359 174.744121,439.10686 164.265261,439.10686 L143.794931,439.10686 L154.883027,414.630803 Z M176.08444,497.029974 L194.361521,497.029974 L212.333983,475.265018 L250.091385,475.265018 L247.97429,497.029974 L266.327525,497.029974 L273.942976,400.54222 L257.188985,400.54222 L176.08444,497.029974 Z M255.650664,421.911173 L251.35555,461.222127 L223.939929,461.222127 L255.650664,421.911173 Z M349.016084,470.832826 L332.810406,400.54222 L315.523334,400.54222 L271.886804,497.029974 L288.381869,497.029974 L319.879371,427.455221 L336.77044,497.029974 L353.646278,497.029974 L397.282807,400.54222 L380.772511,400.54222 L349.016084,470.832826 Z M366.653467,497.029974 L402.034848,497.029974 L415.742659,466.568174 L439.700865,466.568174 C457.977946,466.568174 472.26453,453.728524 480.824296,434.689899 C491.760083,410.487998 485.393566,400.481296 462.471061,400.481296 L410.335689,400.481296 L366.653467,497.029974 Z M436.715609,420.266236 L442.472889,420.266236 C447.956013,420.266236 449.829414,425.155355 446.768003,431.902644 C442.853662,440.538565 436.989765,446.905081 431.080175,446.905081 L424.637505,446.905081 L436.715609,420.266236 Z M479.849519,448.778482 C461.953211,488.378823 465.974168,500 500.182771,500 C534.391373,500 548.921652,488.394054 566.863653,448.778482 C584.805654,409.16291 580.693311,397.572194 546.499939,397.572194 C512.306568,397.572194 497.791519,409.208602 479.895211,448.778482 L479.849519,448.778482 Z M526.197149,425.673206 C528.405629,420.814549 532.289509,417.570367 537.452784,417.570367 C542.616059,417.570367 543.545144,420.814549 541.397587,425.673206 L520.485561,471.883758 C518.307542,476.772877 514.393201,480.017059 509.229926,480.017059 C504.06665,480.017059 503.137565,476.772877 505.300353,471.883758 L526.197149,425.673206 Z M666.230048,427.013525 C673.388571,411.234312 672.109175,397.572194 638.585963,397.572194 C611.81004,397.572194 593.152187,407.578896 582.658097,430.82125 C566.696113,466.096016 621.999513,452.144511 612.343122,473.467771 C610.226027,478.158889 605.169368,481.844767 600.417327,481.844767 C597.371147,481.844767 596.335445,480.473986 596.259291,478.311198 C596.183136,476.14841 597.386377,472.919459 598.970391,469.172657 L564.304862,469.172657 C550.185817,496.877665 572.133545,499.984769 594.766663,499.984769 C617.399781,499.984769 639.134276,492.019008 650.664067,466.476788 C666.488973,431.445717 612.388814,442.107347 620.506884,424.180578 C622.182283,420.525161 626.264165,417.022054 630.056659,417.022054 C633.849153,417.022054 635.387474,417.96637 635.631169,419.717924 C635.874863,421.469477 635.067625,423.921652 633.666382,426.998294 L666.230048,427.013525 Z M671.972097,423.525649 L692.960278,423.525649 L659.756915,497.029974 L695.153527,497.029974 L728.372121,423.525649 L749.101377,423.525649 L759.488851,400.54222 L682.420495,400.54222 L671.972097,423.525649 Z M60.1163641,400.54222 L43.606068,400.54222 L0,497.029974 L60.7865237,497.029974 L67.1225783,482.956622 L22.8463507,482.956622 L60.1163641,400.54222 Z" id="Shape" fill="#FFFFFF" fill-rule="nonzero"></path>
                <path d="M457.55148,362.449738 C455.504599,364.039982 454.455173,366.59687 454.794687,369.166565 L458.739491,363.850981 C458.952723,362.800049 458.252102,361.992811 457.55148,362.449738" id="Path" fill="#231F20" fill-rule="nonzero"></path>
                <polygon id="Path" fill="#231F20" fill-rule="nonzero" points="601.133179 322.39247 601.270257 320.671378 600.356403 321.021689"></polygon>
                <path d="M305.547094,320.503838 C305.379554,320.625685 305.196783,320.717071 305.044474,320.838918 L305.714634,320.503838 L305.82125,320.503838 C305.755451,320.496545 305.689048,320.496545 305.623248,320.503838 L305.547094,320.503838 Z" id="Path" fill="#231F20" fill-rule="nonzero"></path>
                <path d="M637.839649,320.503838 L637.839649,320.503838 C637.245644,319.254904 636.316559,317.609967 635.47886,317.579505 C633.955769,318.021201 629.858657,318.706592 631.518825,320.519069 C631.582026,320.59761 631.653517,320.669102 631.732058,320.732302 L631.960522,320.519069 L633.590228,319.163519 C635.235165,318.310589 635.372243,319.239673 635.372243,320.519069 C635.22712,321.5992 635.374392,322.698485 635.798708,323.702327 C638.159498,324.829414 636.773486,320.793225 638.18996,321.295845 C638.083343,321.082612 637.976727,320.823687 637.839649,320.519069" id="Path" fill="#231F20" fill-rule="nonzero"></path>
                <path d="M630.269892,322.331546 L631.061898,323.291093 C631.869136,323.504326 631.381747,322.590472 632.432679,322.514317 C631.457902,321.828927 630.802973,321.768003 630.269892,322.331546" id="Path" fill="#231F20" fill-rule="nonzero"></path>
                <path d="M244.318874,324.646643 L245.567808,325.179725 C245.870905,324.338583 246.437056,323.617541 247.182283,323.123553 C247.009287,323.208085 246.806968,323.208085 246.633971,323.123553 C245.689655,322.925551 243.922871,323.032168 244.318874,324.646643" id="Path" fill="#231F20" fill-rule="nonzero"></path>
                <path d="M334.942732,322.133545 L336.922749,324.494334 C336.663824,323.093091 339.679542,323.687096 338.994151,320.747533 C338.263068,322.346777 336.43536,322.194468 334.942732,322.133545" id="Path" fill="#231F20" fill-rule="nonzero"></path>
                <path d="M452.768978,357.682466 L448.854636,357.332155 L449.037407,355.611064 C448.169246,358.26124 444.86414,359.845254 448.428171,362.525893 C448.230169,363.805288 446.295845,363.531132 446.478616,364.947606 C449.189716,366.470696 443.432436,370.034726 447.133545,372.410747 C453.896064,370.080419 446.478616,362.693432 453.774217,360.820032 L451.809431,358.459242 L452.768978,357.682466 Z" id="Path" fill="#231F20" fill-rule="nonzero"></path>
                <path d="M100.219325,325.514804 C99.594858,324.722798 97.4168393,324.738029 97.5691483,326.154502 L100.615328,326.839893 C100.508712,326.200195 101.041794,325.164494 100.280249,325.514804" id="Path" fill="#231F20" fill-rule="nonzero"></path>
                <path d="M282.396125,320.503838 L282.396125,320.503838 C281.845779,320.219266 281.311856,319.903997 280.796881,319.559522 C280.398909,319.828567 280.035694,320.145741 279.715487,320.503838 L279.715487,320.503838 C278.42086,322.148775 279.715487,323.778482 281.162422,325.255879 C281.799915,323.359223 283.459263,321.989227 285.442305,321.72231 C285.198611,321.950774 283.766906,321.265383 282.487511,320.519069" id="Path" fill="#231F20" fill-rule="nonzero"></path>
                <polygon id="Path" fill="#231F20" fill-rule="nonzero" points="383.894846 324.265871 384.839162 323.473864 383.148532 323.321555"></polygon>
                <path d="M372.395516,321.524309 C372.943828,323.550018 376.066163,322.514317 377.162788,321.920312 C375.365542,321.585232 373.720604,319.483368 372.395516,321.524309" id="Path" fill="#231F20" fill-rule="nonzero"></path>
                <path d="M641.464603,323.74802 C642.165225,323.839405 648.059583,325.880346 648.059583,323.016937 C645.180943,322.91032 642.728768,319.559522 641.464603,323.74802" id="Path" fill="#231F20" fill-rule="nonzero"></path>
                <path d="M701.063117,323.321555 C703.560985,321.082612 701.687584,326.672353 704.886073,324.524796 C705.282076,321.661387 701.032655,319.117826 701.063117,323.321555" id="Path" fill="#231F20" fill-rule="nonzero"></path>
                <path d="M684.019739,320.503838 L684.019739,320.503838 C682.390033,319.589984 680.836481,318.980748 682.923114,317.381504 L676.998294,315.980261 C678.018764,319.361521 674.134885,319.026441 673.586572,320.549531 L673.586572,320.549531 C673.525899,320.667247 673.494549,320.797873 673.495177,320.930303 C673.632265,327.174973 680.897405,320.001218 683.288656,323.519556 C683.974047,323.306324 685.22298,323.854636 686.334836,323.367247 C686.334836,322.011697 685.192519,321.189229 684.065432,320.5343" id="Path" fill="#231F20" fill-rule="nonzero"></path>
                <path d="M714.633849,322.331546 C713.750457,321.219691 714.070306,320.808456 714.725235,320.503838 L714.725235,320.503838 C715.360729,320.342464 715.986261,320.144125 716.598635,319.909833 C714.725235,319.239673 714.222615,314.868405 711.252589,316.391495 C711.983672,313.345315 717.223102,315.340563 718.426343,313.985013 C714.786158,309.903131 710.704277,310.634215 706.835628,312.096381 C707.505788,315.051176 706.835628,317.975509 708.358718,320.519069 C708.670198,321.01674 709.038184,321.476723 709.455343,321.88985 L712.638601,325.225417 C714.512002,325.225417 716.888022,323.991714 718.88327,323.58048 C717.36018,320.5343 715.425856,324.844645 714.618618,322.346777" id="Path" fill="#231F20" fill-rule="nonzero"></path>
                <path d="M729.575362,320.503838 L729.575362,320.503838 C728.676739,319.483368 727.732424,319.468137 727.107957,320.503838 L727.107957,320.503838 C727.046188,320.607246 726.990254,320.714029 726.940417,320.823687 C727.835854,321.450163 728.998269,321.548968 729.986597,321.082612 L729.605824,320.519069 L729.575362,320.503838 Z" id="Path" fill="#231F20" fill-rule="nonzero"></path>
                <path d="M652.06531,320.503838 L652.06531,320.503838 C651.532229,319.620446 652.644084,318.493359 651.943463,317.747045 C650.420373,318.858901 647.83112,317.65566 647.374193,319.803217 C647.651912,319.355098 648.141621,319.082464 648.668819,319.082464 C649.196018,319.082464 649.685727,319.355098 649.963446,319.803217 C649.941896,320.079073 650.017311,320.3538 650.176678,320.579993 L650.176678,320.579993 C650.892531,321.55477 653.08578,321.935543 653.222859,321.372 C652.69946,321.289467 652.229234,321.005145 651.913001,320.579993 L652.06531,320.503838 Z" id="Path" fill="#231F20" fill-rule="nonzero"></path>
                <polygon id="Path" fill="#231F20" fill-rule="nonzero" points="721.381138 319.879371 719.751432 320.503838 719.583892 320.579993 723.026075 320.899842 722.43207 320.503838"></polygon>
                <polygon id="Path" fill="#231F20" fill-rule="nonzero" points="52.1201413 308.684659 54.4200073 307.146338 53.2015353 306.186792"></polygon>
                <path d="M705.997929,312.020227 C704.977458,309.994517 700.849884,311.182527 699.174485,310.101133 L699.037407,311.822225 L700.788961,311.548069 C701.870355,312.020227 703.621908,314.335324 701.748507,315.538565 L704.627148,317.549043 C705.952236,314.990252 701.748507,312.111612 705.997929,312.020227" id="Path" fill="#231F20" fill-rule="nonzero"></path>
                <path d="M683.105885,314.792251 C683.34958,311.471914 688.116851,314.091629 689.898867,311.91361 C687.979773,307.00926 677.714146,309.887901 683.105885,314.792251" id="Path" fill="#231F20" fill-rule="nonzero"></path>
                <polygon id="Path" fill="#231F20" fill-rule="nonzero" points="690.675643 312.857926 694.087364 313.558548 692.244425 309.933593"></polygon>
                <path d="M726.81857,312.58377 C724.640551,314.289631 720.726209,311.334836 719.705739,314.10686 C725.950408,311.441452 727.199342,320.86938 733.200317,313.969782 C730.946144,313.969782 728.280736,314.670403 726.81857,312.538077" id="Path" fill="#231F20" fill-rule="nonzero"></path>
                <path d="M316.254417,320.503838 L317.107347,322.316315 L320.640916,320.503838 L320.747533,320.503838 C318.950146,320.627254 317.16086,320.167915 315.645181,319.193981 L316.254417,320.503838 Z" id="Path" fill="#231F20" fill-rule="nonzero"></path>
                <path d="M737.800049,316.528573 C739.551602,315.538565 741.166078,319.376752 742.597782,316.528573 C740.952845,314.472402 738.028512,315.721335 736.688193,314.700865 L737.800049,316.528573 Z" id="Path" fill="#231F20" fill-rule="nonzero"></path>
                <path d="M745.110881,317.15304 L749.375533,317.975509 C749.801998,314.579018 745.293652,316.452419 745.110881,317.15304" id="Path" fill="#231F20" fill-rule="nonzero"></path>
                <path d="M327.64713,321.082612 L326.976971,320.503838 C326.92492,320.484204 326.878036,320.452949 326.839893,320.412453 L326.565737,320.19922 L326.565737,320.19922 C324.924804,318.675635 322.696499,317.951436 320.473376,318.219203 C320.521381,319.12651 321.049703,319.939314 321.859388,320.351529 L321.72231,320.351529 L322.087852,320.458145 L322.087852,320.458145 C323.610942,320.899842 325.758499,320.945534 327.022664,322.712319 C327.022664,321.981236 326.687584,321.082612 327.601438,321.03692" id="Path" fill="#231F20" fill-rule="nonzero"></path>
                <path d="M514.652126,311.776532 L514.317046,315.218716 L515.611673,315.340563 C515.520288,313.817473 515.931522,311.608992 514.652126,311.776532" id="Path" fill="#231F20" fill-rule="nonzero"></path>
                <path d="M502.482637,320.519069 L502.482637,320.519069 C502.473446,320.579646 502.473446,320.641263 502.482637,320.70184 C502.482637,320.70184 502.482637,320.595224 502.482637,320.519069 L502.482637,320.519069 C502.482637,320.107835 502.482637,319.589984 502.482637,319.163519 C502.327066,319.607204 502.327066,320.090615 502.482637,320.5343" id="Path" fill="#231F20" fill-rule="nonzero"></path>
                <path d="M499.634458,319.86414 C499.600052,319.909875 499.574248,319.961484 499.558304,320.016449 C499.878153,319.894602 499.847691,319.86414 499.634458,319.86414" id="Path" fill="#231F20" fill-rule="nonzero"></path>
                <path d="M672.642257,315.173023 L672.033021,316.178262 C672.337639,315.827952 672.642257,315.553796 672.642257,315.173023" id="Path" fill="#231F20" fill-rule="nonzero"></path>
                <path d="M669.672231,319.254904 C669.100503,319.445576 668.660949,319.907964 668.499452,320.488607 L668.499452,320.488607 C668.194834,322.011697 670.296698,323.763251 671.545632,322.011697 L670.4947,320.488607 L669.672231,319.254904 Z" id="Path" fill="#231F20" fill-rule="nonzero"></path>
                <path d="M521.049104,317.99074 L521.47557,317.670891 C521.205922,317.782038 520.925061,317.863743 520.63787,317.914585 C520.768794,317.966116 520.90841,317.991971 521.049104,317.99074" id="Path" fill="#231F20" fill-rule="nonzero"></path>
                <path d="M518.992933,316.513342 L518.033386,317.747045 C518.871366,318.032683 519.7702,318.090503 520.63787,317.914585 C519.724016,317.747045 519.465091,316.772268 518.992933,316.513342" id="Path" fill="#231F20" fill-rule="nonzero"></path>
                <path d="M600.600097,318.432436 L602.321189,318.584745 L602.458267,317.290118 C601.346412,316.909346 599.914707,317.000731 600.600097,318.432436" id="Path" fill="#231F20" fill-rule="nonzero"></path>
                <path d="M462.120751,316.315341 L459.516267,316.086877 C460.064579,316.269648 461.663824,317.929816 462.120751,316.315341" id="Path" fill="#231F20" fill-rule="nonzero"></path>
                <path d="M677.165834,313.391008 C679.587547,314.518094 678.917388,310.009748 680.470939,310.207749 L677.577068,308.684659 L676.571829,310.344828 C674.576581,311.091142 673.89119,310.268673 673.190569,308.745583 C668.30145,307.222493 660.51846,305.410016 657.167662,308.212502 C654.243329,307.466187 651.364689,304.359084 649.049592,306.689411 C645.500792,304.4657 641.114293,309.735592 636.864871,306.917875 C632.295601,304.511393 627.939564,306.521872 623.583526,304.907396 C618.511636,311.121604 616.927623,299.683197 612.921896,307.00926 C612.784818,308.029731 614.048983,308.53235 615.35884,308.943585 L614.719142,311.091142 C614.85622,311.685147 615.632996,311.74607 616.333618,312.522846 L614.079444,313.619471 L620.171805,313.726087 L619.379798,312.797003 C617.38455,313.741318 616.059461,310.268673 617.064701,309.111125 C617.993786,308.258194 619.836725,307.00926 620.979042,309.004508 C621.344584,309.53759 619.836725,310.527598 619.912879,311.532838 C623.385525,312.004996 619.014256,315.081638 623.415986,316.193493 C621.892896,319.468137 619.851956,314.076398 619.395029,317.564274 C617.978555,316.041184 615.465456,318.478128 614.825758,315.873644 L611.078957,318.569514 L614.886682,320.214451 L614.262215,320.625685 L612.571585,321.752772 C612.358353,322.529548 613.287438,322.940782 614.094675,323.626173 C614.160911,322.444279 614.711991,321.342118 615.617765,320.579993 C617.55209,319.056903 620.872426,319.056903 623.613988,318.767516 C624.923845,318.066894 628.259413,319.787986 628.5488,317.015962 C626.52309,317.335811 625.50262,315.188254 624.588766,317.549043 C621.847204,314.853174 626.538321,315.904106 627.040941,314.2744 L625.228464,310.207749 C625.028012,311.309636 624.496749,312.324349 623.705373,313.116851 L622.913367,312.187767 C622.227976,310.756062 621.908127,308.334349 624.1623,307.938345 L625.380773,308.913123 C625.685391,308.334349 626.218472,307.527111 627.208481,307.770805 C625.685391,313.558548 633.300841,308.562812 632.26514,314.731327 C634.8087,315.980261 632.539296,313.406239 635.47886,312.842695 C636.819179,316.604728 642.637383,314.929329 645.531254,317.183502 L643.307542,317.884123 L643.992933,319.68137 C646.231875,318.615207 647.145729,318.036432 646.506031,315.980261 C648.607896,316.117339 650.237602,315.980261 652.598392,316.102108 C652.90301,314.731327 651.836847,314.000244 651.532229,313.391008 C652.979164,310.862678 655.492263,313.116851 657.411356,310.862678 C657.569112,311.407265 658.049129,311.79614 658.614597,311.837456 C659.254295,312.690386 660.137687,314.396247 658.340441,315.279639 C657.015353,315.96503 656.177653,315.279639 655.294261,314.579018 L655.141952,316.330571 C657.091507,318.15828 661.950164,314.563787 665.483733,317.65566 L666.047277,315.96503 C664.828805,315.584257 663.488485,315.873644 663.077251,315.264408 C660.792616,313.040697 660.899232,310.89314 663.168637,309.172048 C663.168637,309.461435 663.914951,309.735592 663.884489,310.573291 C666.1082,311.883149 669.230535,309.766053 670.631778,313.314853 C671.789326,313.040697 671.301937,311.258682 673.007798,310.908371 C674.713659,310.55806 677.059218,310.999756 677.150603,313.451931" id="Path" fill="#231F20" fill-rule="nonzero"></path>
                <path d="M240.891922,229.590593 L242.780553,227.534422 C241.903755,227.942932 241.224618,228.682315 240.891922,229.590593" id="Path" fill="#231F20" fill-rule="nonzero"></path>
                <path d="M295.068234,156.421348 L295.753625,158.645059 C295.586085,157.761667 296.256245,156.2995 295.068234,156.421348" id="Path" fill="#231F20" fill-rule="nonzero"></path>
                <path d="M271.47557,197.422932 C268.42939,198.001706 268.033386,203.073596 266.464603,205.251614 C272.221884,206.150238 267.850615,199.022176 271.47557,197.422932" id="Path" fill="#231F20" fill-rule="nonzero"></path>
                <path d="M692.686122,55.9887901 L694.452906,55.7146338 C693.599976,54.8007798 692.929816,55.0444742 692.686122,55.9887901" id="Path" fill="#231F20" fill-rule="nonzero"></path>
                <path d="M361.596808,92.2687949 C361.655685,91.9678992 361.681224,91.6614315 361.672962,91.3549409 C361.485516,91.6238546 361.456457,91.9725649 361.596808,92.2687949" id="Path" fill="#231F20" fill-rule="nonzero"></path>
                <polygon id="Path" fill="#231F20" fill-rule="nonzero" points="417.692214 32.3352017 416.504204 30.9339588 417.220056 32.7312051"></polygon>
                <path d="M703.515292,66.4981114 C704.67284,65.1120994 707.307786,65.782259 709.185426,66.4981114 C709.379188,59.522359 702.586207,65.1120994 700.43865,61.8374558 C699.052638,60.6646765 698.016937,59.0654319 699.509565,57.831729 L695.03168,59.1720483 C692.625198,57.2834166 688.528086,61.9136103 688.193006,57.6489582 L686.304374,59.1720483 C685.177288,55.3186304 680.212014,56.6284879 677.516145,55.3643231 C672.946875,53.399537 665.849275,61.4566833 665.955891,53.4756915 C661.386621,57.1615694 660.655538,50.033508 657.1372,49.6527355 C655.157183,49.2415012 653.877787,50.3076642 653.877787,51.9830632 C649.887291,44.8397709 639.575972,43.7126843 632.432679,43.5908371 C628.289874,38.3971 617.628244,38.549409 613.66821,39.3414159 L615.1913,37.3004752 C610.420635,36.1134181 605.75468,34.5394224 601.239795,32.594127 C598.543926,32.3047399 595.650055,31.6193493 594.979895,34.6502985 C590.273547,28.3599366 579.398684,28.92348 571.783234,26.2428415 C570.671378,26.4408432 569.925064,27.4460826 569.620446,26.0753016 C563.969782,23.7906665 554.724625,18.6121604 549.013038,23.0291215 C548.89119,19.4650908 545.388083,21.110028 544.443768,21.2775679 L543.743146,19.0690874 L524.52175,15.1852077 L520.927257,16.6169124 C512.565493,14.3170464 501.370781,10.1894724 493.511636,12.0476423 C489.993298,9.39746558 482.545388,12.2304131 480.428293,7.85914463 L479.423053,9.48885098 C472.279761,6.7625198 465.958937,9.24515657 460.780431,3.518338 L460.673815,4.81296454 C459.05934,6.03143658 456.348239,3.83818691 456.104545,2.68063848 C450.849884,6.19897648 447.179237,-0.365541611 441.833191,1.87340076 L442.625198,2.80248568 C440.690874,1.70586085 437.522846,5.45266236 437.979773,1.09662483 C436.912911,0.371076899 435.569685,0.1818801 434.343916,0.5845049 C433.118147,0.987129701 432.148725,1.93595535 431.719873,3.15279639 C431.171561,0.228463507 428.673693,2.61971488 427.409528,2.77202388 C425.886438,2.25417327 421.926404,2.68063848 421.972097,0.106616303 C418.270988,0.502619715 414.356647,1.37078104 411.097234,0.0304618009 L412.20909,2.31509687 C408.538443,1.50785914 407.441818,4.02095772 404.106251,5.52881686 C403.634093,7.92006823 403.512246,10.6311685 405.248568,12.1390277 C401.623614,13.5250396 397.968198,12.8701109 397.358962,17.9876934 C403.908249,17.0890703 404.045327,24.2628244 410.244304,24.7502132 C412.89448,26.2733033 417.600829,27.0957719 418.027294,30.6598026 L420.784087,28.7254783 C423.144876,28.3294748 423.586572,29.6697941 425.353357,31.2842695 C424.028269,34.4827586 419.748386,34.9701474 416.717436,35.335689 C417.28098,38.4580236 414.75265,39.9049592 413.107713,41.9763616 C411.356159,42.7379067 411.356159,40.2248081 411.142927,39.630803 C406.28427,39.783112 405.431339,46.9873279 402.111003,48.3885707 L403.847325,48.5256488 C403.146704,52.1201413 398.592665,53.094919 397.023882,56.6589497 C395.13525,55.2424759 395.622639,54.922627 393.246619,55.0140124 L393.109541,56.7351042 C389.286585,57.6489582 391.510296,63.2843914 388.814427,65.8736444 C387.413184,65.3557938 384.930547,66.3458024 385.052394,64.2439381 L381.869136,66.1478007 C383.392226,73.6870964 377.02571,69.7575241 374.177531,74.1592543 C371.78628,77.5862069 370.841964,82.0488607 366.88193,83.084562 C368.938102,87.8822956 361.155111,89.5729256 363.744365,94.1269648 C363.33313,93.0608018 362.053735,92.9237237 361.749117,92.253564 C361.414037,93.7766541 359.906178,94.705739 358.809553,95.8785183 L357.773852,92.7409528 C350.47825,96.228829 348.330693,104.925673 341.598635,108.718167 C339.81662,108.718167 341.00463,112.571585 338.354454,111.048495 L338.613379,108.002315 C336.10028,107.819544 334.470574,111.581577 333.72426,114.094675 L335.887048,114.323139 C332.061012,117.486181 329.384401,121.822291 328.271597,126.660168 C325.362495,126.980017 322.803704,127.954795 323.047399,131.457902 C326.748507,138.829658 316.376264,138.144267 315.736566,145.592177 C321.752772,147.526502 313.680395,152.918241 315.904106,156.071037 L315.553796,156.406117 C314.655172,158.782137 312.507615,155.842573 311.471914,154.349945 C312.355306,153.009626 313.132082,151.547459 315.157792,152.06531 L315.157792,146.414646 C311.639454,149.262824 304.496162,144.708785 305.48617,152.507006 L310.847447,150.816376 C311.669916,153.862556 308.319118,153.497015 308.288656,155.385646 C307.329109,157.228585 309.720361,157.441818 310.618984,158.614597 C309.948824,160.960156 306.872182,162.54417 306.049714,160.838309 L307.572804,163.153406 C306.400024,162.818326 306.537102,164.904959 305.806019,163.869258 C305.3034,161.736932 300.383819,161.965395 301.373827,159.558913 C303.369075,158.873523 303.018764,155.568417 304.069697,153.710247 C301.023517,153.710247 297.977336,157.198124 299.607043,159.802608 C293.849762,157.213354 296.560863,163.975874 292.646521,164.859266 C291.428049,169.931156 287.437553,173.388571 286.280005,177.77507 C288.046789,175.292433 289.021567,178.856464 291.016815,178.61277 C290.894968,181.202023 287.757402,178.308152 286.919703,180.440478 C287.163397,185.22298 282.609358,188.93932 280.355185,191.102108 C275.130986,188.4367 283.401365,185.679907 281.497502,182.938345 C278.816864,184.964055 278.040088,188.802242 275.191909,190.233947 C274.201901,191.848422 273.988668,194.01121 276.547459,194.68137 C273.501279,197.103083 272.191422,202.220665 271.216644,205.967467 C267.896308,206.622396 265.763982,210.003655 265.718289,214.176922 C263.70781,214.618618 263.799196,212.333983 262.870111,211.739978 L261.011941,212.897527 C260.280858,215.304009 258.879615,216.583404 261.377483,218.989887 C260.707323,221.716218 261.377483,225.676252 260.159011,228.021811 L258.635921,225.280249 L255.391739,227.610576 C249.954307,225.12794 258.574997,223.391617 257.508834,223.422079 L256.290362,222.43207 C254.965274,224.808091 250.868161,226.81857 249.436457,230.991836 C250.746314,233.565858 249.695382,234.342634 247.700134,236.063726 C246.533597,234.571878 245.650808,232.878576 245.09565,231.067991 C244.547338,231.174607 244.257951,231.90569 243.709638,231.799074 L244.501645,232.728159 C245.110881,239.597295 238.515901,243.146095 235.606799,245.004265 C239.155599,249.177531 236.033264,253.792494 236.6425,258.148532 C232.07323,259.427927 236.337882,254.249421 231.205069,255.498355 L231.768612,254.23419 L230.489217,253.685878 C225.919946,256.914829 228.722432,264.027659 222.005605,266.007676 C220.723263,264.758755 219.815837,263.176034 219.38589,261.438406 C217.8628,262.656878 217.162179,265.870598 216.33971,266.388449 L217.619106,266.495065 C223.483002,264.469355 217.116486,271.414646 218.380651,272.66358 C214.512002,272.480809 219.126965,268.216157 214.847082,268.42939 L210.7652,275.481296 L214.542464,277.111003 C214.283538,280.294261 210.323504,279.502254 208.937492,281.406117 L209.348727,276.654076 L201.733276,288.610333 L202.906056,290.011575 C200.651883,290.696966 199.540027,293.057756 198.428171,294.733155 L198.428171,294.733155 C197.682665,296.069804 196.339011,296.965574 194.818448,297.139637 L195.625685,298.083953 C192.960278,302.653223 188.360546,298.083953 185.22298,302.394298 C183.501889,295.205313 175.41428,301.876447 169.99208,298.434263 C167.250518,299.119654 161.843548,297.429024 162.239552,302.546607 C161.37139,301.739369 161.432314,300.871208 161.127696,300.277202 C157.213354,302.028756 153.512246,296.591324 151.989156,300.353357 C148.120507,296.667479 146.186183,303.886926 143.322773,300.048739 C135.006702,302.485683 122.684903,300.74936 113.363592,299.576581 C108.048008,303.79554 101.361643,295.616547 96.8380651,299.439503 C89.0093822,295.296698 84.3639576,297.276715 76.3372731,295.037773 C73.291093,297.18533 71.2196905,301.236749 67.4271963,302.500914 C66.7874985,302.043987 64.9597904,300.795053 66.3305715,300.23151 L64.5942488,300.079201 C63.0711588,301.389058 61.6242232,301.602291 60.7712928,304.100158 C58.5018886,303.61277 57.4966492,303.947849 55.6232484,303.201535 C55.9887901,302.637992 56.765566,302.470452 56.5980261,301.983063 C55.4557085,299.744121 54.8769343,300.353357 53.1101499,302.120141 C51.2824418,306.567564 56.765566,303.643231 58.4257341,306.064945 C56.308639,307.588035 57.0854149,308.486658 56.7046424,310.710369 C53.3690752,311.517607 50.0792007,310.588522 47.7488729,313.756549 C48.3733398,317.427196 52.8055319,314.015475 54.1001584,315.614719 C60.5732911,313.223468 65.9041063,316.48288 70.5038382,320.305836 L70.5038382,320.305836 C72.0269282,321.509078 73.3672475,322.803704 74.661874,323.946022 L76.0783478,322.758011 L77.6014378,324.281101 C78.7285244,321.128305 82.3534787,323.184477 84.759961,322.270623 C86.2068966,319.452906 90.8523212,322.818935 92.1469477,320.36676 L92.1469477,320.36676 C92.2337407,320.218924 92.3003338,320.060125 92.3449494,319.894602 C92.434013,320.059696 92.5358635,320.217564 92.6495674,320.36676 L92.6495674,320.36676 C94.5838918,322.849397 98.7419276,321.493847 101.666261,322.468624 C103.493969,323.184477 103.539661,325.514804 106.235531,325.042647 L104.148897,323.976483 C105.778604,321.20446 106.707689,324.128792 108.291702,321.326307 C109.890947,322.453393 110.028025,324.631412 112.282198,325.560497 C113.317899,324.692336 114.064213,323.138784 115.495918,323.656635 C116.942854,323.824174 119.623492,323.184477 119.227489,325.743268 L120.674424,324.128792 C124.390764,324.463872 128.076642,321.981236 129.56927,326.641891 L129.706348,325.362495 C129.706348,323.184477 132.021445,323.184477 133.361764,323.07786 C136.316559,327.342512 138.844889,320.838918 142.500305,323.839405 C142.497906,322.663878 142.688279,321.495911 143.063848,320.381991 L143.063848,320.381991 C143.165317,319.703197 143.748293,319.20089 144.434629,319.20089 C145.120965,319.20089 145.703941,319.703197 145.80541,320.381991 C145.871823,320.791135 145.98952,321.190282 146.155721,321.570001 L143.505544,321.783234 C143.94724,326.200195 150.191909,321.874619 151.364689,326.809431 C154.060558,324.692336 159.893993,325.10357 159.269526,320.564762 L159.49799,320.397222 L159.49799,320.397222 C159.93828,320.131657 160.489404,320.131657 160.929694,320.397222 L160.929694,320.397222 C161.735197,321.02955 162.430048,321.791313 162.985866,322.651395 L164.387109,321.463385 L167.524674,325.225417 C169.123919,325.057877 168.880224,323.839405 169.047764,322.72755 C170.875472,320.86938 174.302425,319.087364 175.612282,322.453393 C175.598396,321.775442 175.644266,321.097584 175.74936,320.427684 C175.846884,320.184703 176.039462,319.992126 176.282442,319.894602 C176.92214,319.894602 177.805532,319.544291 178.323382,320.397222 C178.352149,320.435623 178.377625,320.476384 178.399537,320.519069 C178.201535,326.611429 187.096381,324.357256 183.913123,331.86609 C186.06068,330.00792 188.482393,330.434385 191.117339,329.017912 C192.899354,329.017912 195.381991,326.367735 196.72231,329.946996 C195.275375,330.388693 194.635677,331.470087 193.828439,332.749482 L201.047886,339.877544 L202.46436,338.719995 L201.337273,336.861825 C202.662361,334.287803 205.068844,336.237358 206.987937,336.481053 C209.759961,336.328744 208.937492,333.008407 210.034117,331.546241 C213.004143,328.698063 213.872304,325.179725 216.811868,323.443402 C219.142196,324.433411 215.578165,325.316803 216.537712,326.489582 C221.106982,325.834653 216.324479,323.016937 220.071281,321.128305 C220.292161,320.862214 220.542536,320.622059 220.817595,320.412453 L220.817595,320.412453 C221.839456,319.619824 223.268379,319.619824 224.29024,320.412453 L224.29024,320.412453 C225.040073,320.956219 225.642158,321.67872 226.041794,322.514317 C228.905203,324.631412 230.946144,323.397709 233.002315,322.681857 C232.337499,322.08514 231.896794,321.278972 231.753381,320.397222 L231.753381,320.397222 C231.664118,319.141666 232.132082,317.910475 233.032777,317.031193 C234.555867,315.508103 235.256488,317.579505 235.500183,318.980748 C237.327891,316.680882 239.323139,320.229682 240.069453,316.772268 C242.536859,316.46765 241.257463,318.599976 241.592543,320.397222 L241.592543,320.397222 C241.631703,320.709629 241.735441,321.010469 241.897161,321.280614 C242.661729,321.804797 243.646392,321.885887 244.486414,321.493847 C244.166565,321.143536 243.831485,320.793225 243.496406,320.381991 C242.290058,319.284206 242.162482,317.431 243.207018,316.178262 C243.846716,315.386256 244.547338,316.863653 245.76581,316.81796 C248.294139,316.528573 246.78628,315.203485 248.613988,314.045936 C252.117095,312.614232 252.010479,316.315341 253.457414,318.371512 L249.741075,320.381991 L247.97429,321.356769 C247.946047,321.939047 247.688725,322.486541 247.258438,322.879859 C249.558304,322.05739 251.52309,328.164981 255.041428,324.966492 C258.392226,324.006945 254.06665,321.006458 257.645912,320.397222 C258.224686,320.808456 258.376995,321.600463 258.28561,322.636164 L260.905325,322.438163 L260.296089,324.555258 C263.997198,318.371512 263.555501,328.134519 266.845376,324.265871 L270.531254,321.966005 C270.714025,327.12928 275.100524,321.097843 276.89777,323.824174 L276.623614,320.321067 L276.501767,318.584745 C276.029609,318.782746 275.252833,318.950286 275.511758,319.803217 L272.298038,316.46765 C273.318509,314.761789 276.39515,315.904106 276.989156,317.762276 L278.405629,316.589497 C281.238577,322.407701 283.797368,313.284391 287.940173,316.9855 C287.361399,318.15828 288.046789,319.17875 289.463263,319.711831 C289.274626,320.010325 288.981304,320.227601 288.640794,320.321067 L288.640794,320.321067 C287.605093,320.777994 286.20385,320.915072 287.468015,322.56001 C289.75265,324.738029 291.047277,322.56001 293.194834,321.737541 C293.819301,322.05739 293.286219,323.001706 293.438528,323.961253 L299.530888,324.052638 C299.544317,322.679923 300.046516,321.356926 300.947362,320.321067 L300.947362,320.321067 C301.120913,320.108235 301.380976,319.984734 301.655599,319.984734 C301.930222,319.984734 302.190285,320.108235 302.363836,320.321067 C302.35644,320.356221 302.35644,320.39253 302.363836,320.427684 C302.363836,320.427684 302.363836,320.427684 302.363836,320.321067 L302.363836,320.321067 C301.937371,318.980748 301.312904,318.066894 303.094919,317.442427 C304.724625,314.563787 307.770805,317.229195 308.166809,319.193981 L305.760327,320.305836 C306.426322,320.045858 307.165734,320.045858 307.831729,320.305836 L307.831729,320.305836 C309.826977,321.082612 311.441452,323.199708 312.629463,320.305836 L312.629463,320.305836 C312.629463,320.107835 312.781772,319.86414 312.888388,319.589984 C311.728633,319.585849 310.643416,319.017672 309.979286,318.066894 L311.837456,316.543804 C314.807481,317.396734 316.178262,315.112099 318.737054,317.594736 C318.737054,316.635189 318.432436,315.62995 319.331059,315.477641 C321.524309,314.94456 322.803704,316.345802 324.326794,318.082125 L326.687584,316.102108 C329.733764,315.995492 333.709029,314.700865 334.699037,318.980748 C336.206096,317.515528 337.262994,315.650103 337.745217,313.60424 C338.354454,316.30011 342.893262,315.401487 343.837578,314.122091 C342.512489,316.635189 349.518704,319.787986 343.334958,320.214451 L343.334958,320.214451 L343.19788,320.214451 C340.974168,323.260631 344.72097,324.326794 345.863287,326.093579 C347.843304,325.530035 348.10223,323.91556 348.802851,322.422932 L350.006092,323.824174 C350.159842,323.058763 350.691384,322.423612 351.417722,322.137385 C352.144061,321.851158 352.966006,321.952944 353.600585,322.407701 C353.448276,321.615694 353.768125,320.884611 353.600585,320.442915 L353.600585,320.442915 C353.546805,320.352281 353.474066,320.274346 353.387352,320.214451 C352.906455,320.265548 352.428565,320.341807 351.955648,320.442915 L351.879493,320.442915 C350.775925,320.701078 349.620637,320.626885 348.559157,320.229682 L348.467771,320.229682 C348.147397,320.003013 347.911611,319.676127 347.797612,319.300597 C349.412087,316.772268 352.656269,318.234434 354.148897,316.376264 C356.311685,316.574266 356.083222,318.569514 356.281223,320.458145 L356.281223,320.458145 C356.418301,321.981236 356.783843,323.306324 358.718167,323.74802 L360.545875,322.590472 C361.337882,321.478616 361.337882,320.854149 360.972341,320.458145 L360.972341,320.458145 C360.043256,319.529061 356.859998,319.970757 356.540149,318.767516 L357.454003,317.99074 C358.892297,316.550694 360.965091,315.94253 362.95343,316.377191 C364.941769,316.811851 366.571722,318.229452 367.277933,320.138297 C367.234967,320.251179 367.178725,320.358549 367.110394,320.458145 C366.074692,321.905081 363.561594,320.732302 364.368831,323.824174 L369.044718,325.10357 C369.577799,323.2454 371.222737,321.859388 371.420738,320.5343 L371.420738,320.5343 C371.496893,319.803217 371.207506,319.01121 370.065188,318.280127 L375.548312,315.233947 L376.614475,317.960278 C379.843426,316.528573 387.062873,322.164006 387.199951,316.269648 C389.575972,316.772268 389.301816,318.813208 390.352748,320.488607 C390.548751,320.828309 390.801123,321.132187 391.099062,321.38723 C390.383209,321.585232 389.911052,322.285854 389.286585,322.103083 L389.149507,323.839405 L390.885829,323.961253 C391.723529,323.443402 391.022907,321.768003 391.144754,320.915072 L391.510296,320.458145 C392.119532,319.818448 392.774461,319.239673 393.840624,319.848909 C394.998172,313.345315 399.338979,319.589984 402.644084,318.874132 C402.263312,319.6966 402.354697,320.092604 402.644084,320.321067 L402.644084,320.321067 C402.765932,320.321067 402.644084,320.412453 402.857317,320.442915 L402.933471,320.442915 C404.25856,320.640916 406.436579,320.442915 405.324723,323.032168 C407.731205,323.260631 407.548434,321.630925 407.959669,320.214451 C408.110484,319.87393 408.366791,319.590924 408.690752,319.407213 C408.907698,319.458405 409.089438,319.605775 409.184349,319.807462 C409.279261,320.00915 409.276975,320.24312 409.178141,320.442915 L409.178141,320.442915 C408.980139,321.158767 408.355672,322.042159 409.269526,322.925551 C411.934934,317.518582 414.661265,326.139271 418.286219,324.144023 C418.118679,322.940782 417.646521,321.630925 417.418058,320.427684 L417.418058,320.427684 C416.986221,319.099741 417.423181,317.643209 418.514683,316.772268 C419.276228,316.894115 421.560863,318.721823 423.236262,317.198733 C423.449494,317.609967 424.271963,318.066894 424.363348,319.026441 L426.998294,314.045936 C428.947849,313.284391 428.765079,315.218716 428.96308,316.391495 C429.80078,315.980261 431.643719,317.213964 432.00926,315.767028 L431.202023,314.853174 C430.120629,314.030705 431.202023,313.330084 431.796028,313.162544 C432.557573,314.304862 435.360058,314.122091 436.456683,314.914098 L435.634215,313.93932 C439.045936,310.360058 439.045936,316.665651 441.863653,317.533813 L445.519069,315.249178 C444.529061,314.548556 443.325819,315.827952 442.472889,314.548556 L443.995979,312.065919 C442.274887,311.091142 441.406726,309.598513 442.15304,308.410503 C443.554283,309.933593 447.346777,307.405264 448.961253,309.933593 C448.291093,310.481906 447.346777,309.933593 446.752772,310.207749 C444.848909,312.690386 448.717558,313.010235 450.316803,314.426709 C451.550506,316.848422 445.747533,316.878884 448.961253,319.955526 C450.484343,316.102108 455.662849,318.310589 457.688559,314.624711 C459.40965,315.142561 461.222127,311.822225 462.927988,314.624711 C463.567686,315.051176 462.821372,315.949799 462.714756,316.787498 C466.461557,316.604728 466.888022,314.152553 470.116973,311.776532 C475.021323,315.051176 466.324479,317.198733 470.985135,320.473376 L470.985135,320.473376 C471.008337,320.506385 471.039868,320.532661 471.07652,320.549531 C460.277812,321.935543 465.593396,332.307786 461.587669,339.298769 C461.507875,338.64806 461.113515,338.078069 460.532719,337.773987 C459.951923,337.469905 459.258807,337.470538 458.678567,337.775679 C457.917022,339.298769 453.500061,340.182162 456.927014,342.832338 C456.424394,341.522481 457.734251,341.309248 458.450104,340.791398 C459.501036,340.258316 460.049348,341.415865 460.93274,342.314488 C460.809907,344.939062 459.824864,347.449852 458.130255,349.45778 L456.287316,345.817595 C454.611917,345.162666 453.545754,346.046058 452.662361,347.26453 L453.454368,348.193615 C450.910808,349.061777 450.834653,351.346412 450.408188,353.570123 L451.748507,353.250274 L451.96174,355.88522 C456.409163,367.308395 457.246862,357.819544 463.643841,356.479225 C465.166931,352.595345 467.025101,351.453028 467.482028,347.218838 C469.629585,345.39113 470.604362,341.766175 474.442549,342.17741 L474.579627,340.898014 C479.849519,339.009382 477.184111,332.353479 481.601072,330.236384 C479.453515,328.713294 481.951383,327.46436 481.936152,326.352504 C483.322164,322.89509 486.353113,325.697575 487.297429,324.631412 C486.907148,323.27688 486.998654,321.828923 487.556354,320.5343 L487.556354,320.5343 C487.955201,319.580659 488.678016,318.798509 489.597295,318.325819 C489.68868,318.599976 490.419764,318.874132 490.343609,319.6966 C492.628244,318.539052 496.237968,321.021689 497.075667,317.259656 L498.248446,318.660899 C496.923358,320.183989 498.933837,319.909833 499.527842,319.925064 C499.83246,319.163519 499.908615,317.670891 501.340319,318.50859 C502.071402,318.143049 502.315097,318.584745 502.37602,319.193981 C502.848178,317.99074 505.010966,318.371512 505.787742,317.137809 C504.73681,313.071159 510.14378,317.031193 510.570245,312.324845 L513.007189,314.304862 L511.819179,312.903619 C513.768734,309.309126 517.683075,306.811259 520.957719,307.603266 C520.592177,308.166809 520.957719,309.126356 520.348483,309.720361 C522.633118,309.720361 524.308517,310.451444 526.075302,308.913123 L524.552212,306.598026 C524.552212,305.074936 526.075302,305.074936 527.263312,305.547094 C533.203363,308.395272 524.049592,307.268186 527.598392,311.639454 C524.780675,311.456683 520.257098,315.919337 518.871086,311.776532 C517.271841,311.776532 516.799683,313.299622 516.464603,314.594249 C519.388936,315.843183 524.399903,314.457171 524.399903,318.34105 C526.669307,319.559522 526.273303,315.386256 528.969173,316.117339 L529.77641,317.031193 C527.324235,317.533813 529.77641,318.721823 529.517485,320.077373 C529.634839,320.246485 529.767391,320.404527 529.913488,320.549531 L529.913488,320.549531 C530.145,320.822377 530.484743,320.979666 530.842573,320.979666 C531.200404,320.979666 531.540146,320.822377 531.771658,320.549531 L531.771658,320.549531 C532.792129,319.68137 533.721214,317.716583 534.924455,317.503351 C533.980139,317.137809 532.959669,317.503351 532.792129,316.878884 C531.96966,314.015475 534.208602,314.548556 535.701231,313.665164 L533.721214,311.304374 C534.787377,310.375289 536.950164,309.354819 538.092482,311.304374 C537.924514,312.080769 537.557043,312.799963 537.026319,313.391008 C538.686487,315.523334 535.229073,319.041672 539.539418,319.68137 C542.42288,319.743765 545.195027,318.568374 547.154868,316.452419 L546.454246,314.228707 C550.277202,312.705617 545.997319,304.648471 553.231997,306.613257 C554.100158,311.304374 553.231997,316.9855 550.764591,319.894602 L552.455221,320.473376 L553.11015,317.929816 C554.252467,319.452906 558.501889,320.975996 559.674668,317.625198 C563.60424,314.411478 562.370537,318.950286 564.045936,320.671378 L564.045936,320.671378 C564.515533,321.132894 565.180136,321.337387 565.827952,321.219691 C566.480188,321.237379 567.120869,321.045175 567.65566,320.671378 L567.65566,320.671378 C568.950286,319.772755 569.529061,317.99074 570.991227,316.894115 C571.72231,315.584257 573.885098,315.782259 574.875107,317.213964 C574.509565,318.737054 574.707567,319.879371 575.590959,320.549531 L575.590959,320.549531 C577.298198,321.505337 579.352986,321.612298 581.150238,320.838918 L581.591934,320.595224 L581.409163,320.595224 C582.521019,319.529061 581.409163,317.076886 583.937492,318.889363 C585.018886,317.503351 587.181674,314.975021 585.232119,313.787011 L589.085537,309.781284 L590.700012,311.212989 L589.740465,312.004996 C592.025101,312.903619 590.867552,316.284879 589.740465,317.198733 L592.619106,319.209212 C590.943707,321.478616 588.735226,319.041672 587.79091,320.732302 C587.79091,320.808456 587.714756,320.915072 587.684294,321.021689 L592.375411,322.301084 C592.601538,321.824899 592.721086,321.305123 592.725722,320.777994 C592.725722,319.331059 592.542951,317.945047 594.903741,318.203972 L593.380651,315.005483 C594.172657,314.2744 593.106494,311.685147 595.330206,312.58377 C595.467284,312.964542 596.183136,313.451931 596.487754,314.44194 L596.152675,313.116851 C596.975143,311.91361 597.401608,309.659437 599.412087,310.771293 L599.168393,313.375777 L604.377361,313.375777 C604.45857,311.968644 605.211001,310.68625 606.399747,309.928952 C607.588493,309.171655 609.068731,309.031715 610.378336,309.552821 C610.774339,308.334349 612.769587,306.506641 611.200804,305.272938 L608.916169,306.369563 C603.52443,303.018764 594.827586,302.013525 591.309248,303.978311 L592.070793,304.892165 C591.400634,304.998782 591.096016,305.729865 590.700012,305.65371 C590.288778,305.227245 589.98416,304.983551 590.349701,304.739856 C587.760448,304.13062 582.734251,304.557085 580.571463,302.150603 C578.901954,302.785591 577.99096,304.587774 578.469599,306.308639 C579.002681,307.496649 577.64713,310.649446 580.723772,310.420982 L578.027903,311.487145 L579.550993,313.802242 C577.235896,315.157792 573.641404,311.365298 572.118314,314.457171 L571.752772,313.558548 C571.478616,311.39576 573.473864,312.340076 574.555258,311.182527 C574.113562,310.101133 572.39247,308.334349 574.037407,307.237724 C574.448641,306.125868 575.560497,306.217254 576.215426,307.420495 C576.001641,306.441998 576.437017,305.436339 577.29682,304.922627 C575.073108,302.714146 571.448154,300.74936 568.84367,301.998294 C558.18204,302.637992 546.271476,300.06397 536.356159,300.475204 L534.421835,302.912148 C530.44657,300.779822 527.263312,297.657488 523.257585,301.069209 C520.516023,298.921652 512.870111,301.861216 510.387474,299.089192 C507.173754,300.795053 505.361277,297.048251 503.990496,295.129158 L504.112343,295.129158 C503.809997,294.707624 503.426878,294.350392 502.985256,294.078226 C504.295114,294.352382 505.315584,291.184355 506.031437,294.337151 C513.494578,293.743146 512.123797,284.711222 516.251371,282.152431 C517.92677,279.106251 516.342756,279.822103 516.251371,276.928232 C517.987693,275.922993 520.729256,274.323748 521.110028,276.471305 C524.003899,270.607408 527.050079,265.535518 531.954429,261.773486 C531.588888,255.833435 542.890216,255.955282 539.569879,249.817229 C542.616059,246.253198 544.215304,239.978068 548.571342,241.470696 C551.465213,239.536371 552.866455,233.108931 555.592787,230.809065 L556.765566,232.210308 L560.238211,227.305958 C558.258194,225.12794 557.192031,226.574875 555.836481,228.219812 C554.861703,228.097965 554.678933,227.321189 555.059705,226.849031 C555.958328,222.873766 560.299135,225.417327 562.126843,225.737176 C560.603753,221.167905 566.909346,218.121725 568.219203,216.248325 L567.442427,215.304009 C569.391982,212.62337 572.011697,208.526258 576.169733,210.003655 C578.180212,207.871329 577.845132,204.33776 578.896064,203.682832 C583.246756,198.069643 588.375295,193.105217 594.126965,188.93932 C596.868527,182.100646 604.940904,178.033995 607.362617,171.819788 C610.332643,168.590837 607.636773,165.864506 610.408797,162.513708 C611.048495,162.239552 612.038504,159.635068 613.074205,161.889241 C612.556354,163.595102 609.875716,167.265749 613.439747,167.981601 L613.576825,166.245278 C616.21177,164.097721 617.171317,159.391373 621.100889,159.528451 C627.406482,150.389911 635.722554,142.42415 643.353235,134.062386 C644.251858,134.47362 647.435116,133.894846 647.023882,131.76252 C650.801145,127.772024 657.82259,124.482149 659.025832,118.892409 C674.911661,105.626295 690.112099,92.0707932 706.241623,76.4895821 C706.470087,71.9964664 698.961253,70.686609 703.621908,66.711344" id="Path" fill="#231F20" fill-rule="nonzero"></path>
                <path d="M240.35884,235.728646 C240.572073,233.474473 240.221762,231.281223 240.891922,229.636286 L238.424516,232.40831 C239.292677,233.626782 240.35884,234.220787 240.35884,235.774339" id="Path" fill="#231F20" fill-rule="nonzero"></path>
                <path d="M240.35884,235.728646 C240.35884,236.109419 240.267455,236.47496 240.206531,236.855733 C240.296125,236.486312 240.347168,236.108597 240.35884,235.728646" id="Path" fill="#231F20" fill-rule="nonzero"></path>
                <path d="M459.957963,360.043256 L459.044109,360.408797 L459.957963,360.043256 Z" id="Path" stroke="#231F20" stroke-width="0.22"></path>
                <path d="M452.768978,357.682466 L451.809431,358.459242 L453.774217,360.820032 C446.478616,362.693432 453.896064,370.080419 447.133545,372.410747 C443.432436,370.034726 449.189716,366.516388 446.478616,364.947606 C446.295845,363.531132 448.230169,363.805288 448.428171,362.525893 C444.86414,359.845254 448.169246,358.26124 449.037407,355.611064 L448.854636,357.332155 L452.768978,357.682466 Z" id="Path" stroke="#231F20" stroke-width="0.22"></path>
                <path d="M100.554405,326.839893 L97.5082247,326.154502 C97.3559157,324.738029 99.5339344,324.722798 100.158401,325.514804 C100.98087,325.164494 100.447788,326.200195 100.554405,326.839893 Z" id="Path" stroke="#231F20" stroke-width="0.22"></path>
                <path d="M461.922749,352.397344 L459.775192,352.214573 L462.090289,350.691483 C462.547216,350.417327 462.379676,352.33642 461.922749,352.397344 Z" id="Path" stroke="#231F20" stroke-width="0.22"></path>
                <polygon id="Path" stroke="#231F20" stroke-width="0.22" points="52.1201413 308.684659 53.2015353 306.186792 54.4200073 307.146338"></polygon>
                <path d="M230.169368,321.72231 L228.478738,321.143536 L230.397831,319.133057 C231.875228,319.666139 230.367369,320.625685 230.169368,321.72231 Z" id="Path" stroke="#231F20" stroke-width="0.22"></path>
                <path d="M44.9616181,301.099671 L46.2867065,300.779822 L44.9616181,301.099671 Z" id="Path" stroke="#231F20" stroke-width="0.22"></path>
                <path d="M285.442305,321.72231 C283.466971,321.998688 281.825943,323.384971 281.223346,325.286341 C279.517485,323.519556 277.963933,321.55477 280.857804,319.574753 C282.030584,320.36676 285.046302,322.042159 285.442305,321.72231 Z" id="Path" stroke="#231F20" stroke-width="0.22"></path>
                <path d="M320.747533,320.458145 L317.092116,322.316315 L315.645181,319.148288 C317.157734,320.12937 318.949442,320.589331 320.747533,320.458145 L320.747533,320.458145 Z" id="Path" stroke="#231F20" stroke-width="0.22"></path>
                <path d="M336.907518,324.479103 L334.942732,322.148775 C336.465822,322.148775 338.263068,322.346777 338.97892,320.762763 C339.664311,323.687096 336.663824,323.07786 336.907518,324.479103 Z" id="Path" stroke="#231F20" stroke-width="0.22"></path>
                <path d="M293.545144,318.082125 C293.545144,319.285366 291.869745,319.833679 290.788351,319.605215 L289.524187,319.483368 L290.529426,317.838431 L288.06202,316.315341 C289.691727,315.706105 291.534666,317.381504 293.545144,318.082125 Z" id="Path" stroke="#231F20" stroke-width="0.22"></path>
                <path d="M327.64713,321.082612 C326.733276,321.082612 327.083587,322.026928 327.068356,322.758011 C324.905568,319.711831 320.975996,322.042159 320.488607,318.188741 C323.519556,317.792738 325.484343,319.270135 327.64713,321.082612 Z" id="Path" stroke="#231F20" stroke-width="0.22"></path>
                <polygon id="Path" stroke="#231F20" stroke-width="0.22" points="383.894846 324.265871 383.148532 323.321555 384.839162 323.473864"></polygon>
                <path d="M377.162788,321.920312 C376.066163,322.514317 372.943828,323.550018 372.395516,321.509078 C373.781528,319.483368 375.380773,321.585232 377.162788,321.920312 Z" id="Path" stroke="#231F20" stroke-width="0.22"></path>
                <path d="M362.236505,318.447667 L362.541123,320.19922 L362.236505,318.447667 Z" id="Path" stroke="#231F20" stroke-width="0.22"></path>
                <path d="M462.120751,316.315341 C461.663824,317.929816 460.064579,316.315341 459.516267,316.086877 L462.120751,316.315341 Z" id="Path" stroke="#231F20" stroke-width="0.22"></path>
                <path d="M510.250396,317.046424 L512.00195,317.198733 L510.250396,317.046424 Z" id="Path" stroke="#231F20" stroke-width="0.22"></path>
                <path d="M521.049104,317.99074 L521.978189,317.213964 C521.47557,318.17351 518.932009,318.15828 518.033386,317.731814 L518.992933,316.513342 C519.526014,316.81796 519.739247,318.112587 521.049104,317.99074 Z" id="Path" stroke="#231F20" stroke-width="0.22"></path>
                <polygon id="Path" stroke="#231F20" stroke-width="0.22" points="600.356403 321.021689 601.285488 320.671378 601.133179 322.39247"></polygon>
                <path d="M632.432679,322.514317 C631.381747,322.590472 631.853905,323.489095 631.061898,323.275862 L630.269892,322.346777 C630.802973,321.72231 631.457902,321.844157 632.432679,322.514317 Z" id="Path" stroke="#231F20" stroke-width="0.22"></path>
                <path d="M515.626904,315.340563 L514.317046,315.218716 L514.652126,311.776532 C515.931522,311.608992 515.520288,313.847935 515.626904,315.340563 Z" id="Path" stroke="#231F20" stroke-width="0.22"></path>
                <path d="M648.059583,323.016937 C648.059583,325.880346 642.165225,323.854636 641.464603,323.74802 C642.728768,319.559522 645.180943,322.91032 648.059583,323.016937 Z" id="Path" stroke="#231F20" stroke-width="0.22"></path>
                <path d="M602.321189,318.584745 L600.600097,318.432436 C599.914707,317.000731 601.346412,316.909346 602.458267,317.290118 L602.321189,318.584745 Z" id="Path" stroke="#231F20" stroke-width="0.22"></path>
                <path d="M638.18996,321.280614 C636.773486,320.777994 638.18996,324.814183 635.798708,323.687096 C634.610698,321.996466 636.621177,317.594736 633.590228,319.117826 L631.732058,320.640916 C629.554039,318.660899 633.833922,317.929816 635.47886,317.503351 C636.484099,317.594736 637.702571,320.092604 638.18996,321.280614 Z" id="Path" stroke="#231F20" stroke-width="0.22"></path>
                <path d="M671.591324,322.042159 C669.839771,324.326794 666.686975,320.519069 669.672231,319.254904 L671.591324,322.042159 Z" id="Path" stroke="#231F20" stroke-width="0.22"></path>
                <path d="M653.42086,321.295845 C653.161935,321.996466 649.87206,321.295845 650.070062,319.772755 C649.049592,318.417205 647.130498,319.315828 647.419885,320.412453 C647.419885,317.366273 650.283295,318.965517 651.989156,317.762276 C652.933471,318.67613 650.603144,320.458145 653.42086,321.295845 Z" id="Path" stroke="#231F20" stroke-width="0.22"></path>
                <path d="M704.886073,324.509565 C701.687584,326.672353 703.560985,321.082612 701.063117,323.321555 C701.032655,319.117826 705.282076,321.72231 704.886073,324.509565 Z" id="Path" stroke="#231F20" stroke-width="0.22"></path>
                <polygon id="Path" stroke="#231F20" stroke-width="0.22" points="719.568661 320.595224 721.381138 319.894602 723.026075 320.899842"></polygon>
                <path d="M682.877422,317.381504 C679.343853,320.03168 686.289143,320.001218 686.289143,323.321555 C685.177288,323.824174 683.943585,323.321555 683.242963,323.489095 C680.851712,319.970757 673.586572,327.144511 673.449494,320.899842 C673.449494,318.980748 678.018764,319.605215 676.952601,315.980261 L682.877422,317.381504 Z" id="Path" stroke="#231F20" stroke-width="0.22"></path>
                <path d="M671.637017,316.81796 L672.642257,315.173023 C672.642257,315.767028 671.865481,316.13257 671.637017,316.81796 Z" id="Path" stroke="#231F20" stroke-width="0.22"></path>
                <path d="M729.971366,321.067382 C728.981318,321.513618 727.831698,321.421648 726.925186,320.823687 C727.6715,319.270135 728.950896,319.391982 729.971366,321.067382 Z" id="Path" stroke="#231F20" stroke-width="0.22"></path>
                <path d="M749.375533,317.975509 L745.110881,317.15304 C745.293652,316.46765 749.817229,314.579018 749.375533,317.975509 Z" id="Path" stroke="#231F20" stroke-width="0.22"></path>
                <path d="M742.55209,316.513342 C741.120385,319.361521 739.50591,315.538565 737.754356,316.513342 L736.6425,314.670403 C737.952358,315.706105 740.846229,314.457171 742.55209,316.513342 Z" id="Path" stroke="#231F20" stroke-width="0.22"></path>
                <polygon id="Path" stroke="#231F20" stroke-width="0.22" points="690.675643 312.857926 692.244425 309.933593 694.087364 313.558548"></polygon>
                <path d="M689.898867,311.91361 C688.116851,314.091629 683.34958,311.487145 683.105885,314.792251 C677.714146,309.887901 687.979773,306.994029 689.898867,311.91361 Z" id="Path" stroke="#231F20" stroke-width="0.22"></path>
                <path d="M733.230779,313.954551 C727.138418,320.86938 725.965639,311.426222 719.72097,314.091629 C720.771902,311.273913 724.655782,314.213476 726.8338,312.568539 C728.280736,314.639942 730.946144,313.908858 733.230779,313.954551 Z" id="Path" stroke="#231F20" stroke-width="0.22"></path>
                <path d="M705.997929,312.020227 C701.748507,312.111612 705.997929,314.990252 704.627148,317.549043 L701.748507,315.538565 C703.621908,314.335324 701.870355,312.020227 700.788961,311.548069 L699.037407,311.822225 L699.174485,310.101133 C700.849884,311.182527 704.977458,309.994517 705.997929,312.020227 Z" id="Path" stroke="#231F20" stroke-width="0.22"></path>
                <path d="M657.167662,308.166809 C660.51846,305.349092 668.286219,307.115877 673.190569,308.69989 C673.89119,310.22298 674.576581,311.045449 676.571829,310.299135 L677.561837,308.638967 L680.470939,310.162057 C678.947849,309.964055 679.587547,314.472402 677.165834,313.345315 C677.165834,310.89314 674.622274,310.679907 673.023029,310.801755 C671.423785,310.923602 671.804557,312.91885 670.631778,313.193006 C669.245766,309.659437 666.138662,311.776532 663.89972,310.466675 C663.89972,309.628975 663.214329,309.354819 663.168637,309.065432 C660.899232,310.786524 660.823078,312.949312 663.06202,315.157792 C663.503716,315.767028 664.844036,315.477641 666.1082,315.843183 L665.544657,317.549043 C662.026319,314.502863 657.152431,318.051663 655.218106,316.223955 L655.370415,314.472402 C656.238577,315.142561 657.045815,315.843183 658.416596,315.173023 C660.152918,314.289631 659.33045,312.58377 658.705983,311.73084 C658.13061,311.693557 657.641786,311.296387 657.487511,310.740831 C655.568417,313.010235 653.07055,310.740831 651.608383,313.284391 C651.913001,313.908858 652.933471,314.624711 652.674546,315.995492 C650.359449,315.812721 648.699281,315.995492 646.582186,315.858414 C647.221884,317.929816 646.292799,318.50859 644.069087,319.589984 L643.368466,317.777507 L645.607408,317.092116 C642.698306,314.822712 636.895333,316.498111 635.555014,312.736079 C632.600219,313.299622 634.884854,315.858414 632.341294,314.624711 C633.361764,308.53235 625.761545,313.4367 627.284635,307.664189 C626.294627,307.420495 625.761545,308.227732 625.456927,308.791276 L624.238455,307.84696 C621.984282,308.227732 622.304131,310.664676 622.989521,312.065919 L623.781528,313.010235 C624.581001,312.223708 625.113691,311.20627 625.304618,310.101133 L627.117095,314.183014 C626.614475,315.812721 621.923358,314.761789 624.66492,317.442427 C625.578774,315.066407 626.599245,317.229195 628.640185,316.909346 C628.350798,319.666139 624.984769,317.960278 623.690143,318.660899 C619.821494,319.102595 614.719142,318.782746 614.125137,323.473864 C613.272207,322.788473 612.343122,322.377239 612.602047,321.600463 L614.901913,320.077373 L611.109419,318.447667 L614.840989,315.736566 C615.556842,318.325819 618.06994,315.934568 619.41026,317.442427 C619.897648,313.954551 621.938589,319.331059 623.446448,316.056415 C619.059949,314.94456 623.446448,311.867918 619.943341,311.39576 C619.943341,310.344828 621.375046,309.385281 621.009504,308.86743 C619.867187,306.887413 617.963324,308.121116 617.095163,308.974047 C616.089923,310.116364 617.415012,313.543317 619.395029,312.659924 L620.202266,313.589009 L614.109906,313.482393 L616.394541,312.385768 C615.678689,311.608992 614.871451,311.532838 614.871451,310.954064 L615.480687,308.806507 C614.17083,308.425734 612.906665,307.892653 613.043743,306.887413 C617.019008,299.546119 618.603022,310.984525 623.705373,304.755087 C628.04618,306.384793 632.371756,304.374315 636.986719,306.780797 C641.251371,309.598513 645.653101,304.328622 649.171439,306.552333 C651.364689,304.328622 654.243329,307.420495 657.167662,308.166809 Z" id="Path" stroke="#231F20" stroke-width="0.22"></path>
                <path d="M718.426343,313.969782 C717.223102,315.325332 711.983672,313.345315 711.252589,316.376264 C714.222615,314.853174 714.725235,319.224443 716.598635,319.894602 C715.48678,320.473376 713.034605,320.275375 714.633849,322.331546 C715.441087,324.829414 717.421104,320.564762 718.898501,323.58048 C716.903253,323.976483 714.527233,325.210186 712.653832,325.210186 L709.470574,321.874619 C706.607165,319.056903 707.627635,315.569026 706.835628,312.08115 C710.704277,310.618984 714.786158,309.887901 718.426343,313.969782 Z" id="Path" stroke="#231F20" stroke-width="0.22"></path>
                <path d="M221.015596,257.371756 L221.24406,259.565005 L221.015596,257.371756 Z" id="Path" stroke="#231F20" stroke-width="0.22"></path>
                <path d="M240.206531,236.855733 C240.86146,234.373096 239.490679,233.809553 238.424516,232.362617 L242.780553,227.519191 C239.323139,229.36213 240.968076,233.07847 240.206531,236.855733 Z" id="Path" stroke="#231F20" stroke-width="0.22"></path>
                <path d="M271.47557,197.422932 C267.850615,199.022176 272.221884,206.150238 266.464603,205.251614 C268.033386,203.073596 268.368466,198.001706 271.47557,197.422932 Z" id="Path" stroke="#231F20" stroke-width="0.22"></path>
                <path d="M295.753625,158.645059 L295.068234,156.421348 C296.256245,156.2995 295.586085,157.746436 295.753625,158.645059 Z" id="Path" stroke="#231F20" stroke-width="0.22"></path>
                <path d="M312.279152,143.520775 L312.614232,144.830632 L312.279152,143.520775 Z" id="Path" stroke="#231F20" stroke-width="0.22"></path>
                <path d="M694.468137,55.7146338 L692.701353,55.9887901 C692.853662,55.0444742 693.630437,54.8007798 694.468137,55.7146338 Z" id="Path" stroke="#231F20" stroke-width="0.22"></path>
                <polygon id="Path" stroke="#231F20" stroke-width="0.22" points="417.220056 32.7312051 416.504204 30.9339588 417.692214 32.3352017"></polygon>
                <path d="M422.520409,32.746436 L421.819788,30.9491897 L422.520409,32.746436 Z" id="Path" stroke="#231F20" stroke-width="0.22"></path>
                <path d="M458.754722,363.850981 L454.809918,369.166565 C454.470404,366.59687 455.519829,364.039982 457.566711,362.449738 C458.282564,361.992811 458.967954,362.845741 458.754722,363.850981 Z" id="Path" stroke="#231F20" stroke-width="0.22"></path>
                <path d="M315.751797,156.086268 C313.528086,152.933471 321.600463,147.541733 315.584257,145.607408 C316.223955,138.159498 326.596198,138.860119 322.89509,131.473133 C322.651395,127.970026 325.225417,126.995248 328.119288,126.675399 C329.229959,121.836646 331.906964,117.499898 335.734739,114.33837 L333.571951,114.109906 C334.318265,111.596808 335.947971,107.834775 338.46107,108.017546 L338.202145,111.063726 C340.852321,112.586816 339.725235,108.718167 341.446326,108.748629 C348.178384,104.879981 350.31071,96.2745217 357.621543,92.7714146 L358.642013,95.9089801 C359.936639,94.4925064 361.870964,93.4720361 361.688193,91.33971 C360.95711,92.9389546 363.028512,92.6952601 363.622517,94.1269648 C361.018033,89.5576947 368.801024,87.8822956 366.668697,83.084562 C370.643962,82.0488607 371.588278,77.570976 373.994761,74.1744852 C376.827708,69.7575241 383.133301,73.6870964 381.610211,66.1478007 L384.793469,64.2439381 C384.671622,66.3305715 387.154259,65.3557938 388.555501,65.8736444 C391.251371,63.2082369 389.027659,57.5880346 392.850615,56.7351042 L392.987693,55.0292433 C395.363714,54.922627 394.876325,55.2424759 396.764957,56.6589497 C398.288047,53.1253808 402.857317,52.0896795 403.5884,48.5408797 L401.852077,48.3885707 C405.172414,46.9873279 406.025344,39.783112 410.884001,39.630803 C411.097234,40.2248081 411.097234,42.6769831 412.848788,41.9763616 C414.493725,39.9811137 417.037285,38.4580236 416.458511,35.335689 C419.504691,34.9853783 423.769343,34.4979895 425.094432,31.2842695 C423.342878,29.6545632 422.916413,28.3294748 420.525161,28.7254783 L417.951139,30.6141099 C417.524674,27.0500792 412.818326,26.1819179 410.168149,24.7045205 C403.969173,24.2171317 403.832095,17.0890703 397.282807,17.9420007 C397.892043,12.8244182 401.547459,13.4793469 405.187645,12.093335 C403.436091,10.5702449 403.557938,7.87437553 404.030096,5.48312416 C407.365663,3.96003412 408.462288,1.46216644 412.132935,2.28463507 L411.02108,0 C414.341416,1.32508834 418.194834,0.472157914 421.911173,0 C421.911173,2.57402218 425.779822,2.14755696 427.333374,2.66540758 C428.582308,2.51309857 431.095406,0.137078104 431.643719,3.06141099 C432.074237,1.84604532 433.042364,0.897923152 434.266452,0.492871925 C435.490541,0.0878206975 436.833125,0.271328219 437.903619,0.990008529 C437.461923,5.36127696 440.614719,1.59924455 442.549043,2.68063848 L441.757037,1.75155355 C447.103083,-0.533081516 450.77373,6.09236018 456.02839,2.57402218 C456.317778,3.74680151 459.07457,5.92482028 460.597661,4.70634824 L460.704277,3.4117217 C465.913245,9.15377117 472.203607,6.6559035 479.346899,9.39746558 L480.352138,7.75252833 C482.469234,12.1237968 489.917144,9.27561837 493.435482,11.9257951 C501.340319,10.0828561 512.535031,14.2104301 520.851103,16.4950652 L524.445595,15.0785914 L543.666992,18.9320093 L544.367613,21.1557207 C545.357622,20.9881808 548.936883,19.3432436 548.936883,22.8920434 C554.648471,18.5360058 563.878396,23.714512 569.544291,25.9382235 C569.848909,27.3090045 570.595224,26.3037651 571.707079,26.1057634 C579.32253,28.7864019 590.212623,28.2228585 594.88851,34.6655294 C595.558669,31.6193493 598.452541,32.3199708 601.14841,32.6093579 C605.663294,34.5546533 610.329249,36.128649 615.099915,37.3157061 L613.576825,39.3414159 C617.536859,38.5646399 628.198489,38.3971 632.341294,43.5908371 C639.484586,43.7279152 649.795906,44.8550018 653.801633,51.9982941 C653.768964,51.1945885 654.142558,50.428307 654.795854,49.9590376 C655.449151,49.4897683 656.294607,49.3803939 657.045815,49.6679664 C660.564153,50.0487389 661.325698,57.1768003 665.849275,53.4909224 C665.75789,61.4719142 672.855489,53.4909224 677.424759,55.379554 C680.059705,56.6437188 685.04021,55.379554 686.212989,59.1872792 L688.101621,57.6641891 C688.4367,61.8831485 692.533813,57.2377239 694.940295,59.1872792 L699.41818,57.8469599 C697.89509,59.0806628 698.961253,60.6951383 700.332034,61.8526867 C702.494821,65.1273303 709.287803,59.5375899 709.094041,66.5133423 C707.216401,65.7670281 704.520531,65.0816376 703.423906,66.5133423 C698.763251,70.4886073 706.272085,71.7984647 706.043621,76.2915804 C689.929329,91.8880224 674.744121,105.443524 658.82783,118.709638 C657.624589,124.284148 650.603144,127.574022 646.82588,131.564518 C647.237115,133.696844 644.053856,134.260387 643.155233,133.864384 C635.539783,142.226148 627.208481,150.20714 620.902888,159.33045 C616.973315,159.193372 616.013769,163.89972 613.378823,166.047277 L613.226514,167.768368 C609.677714,167.052516 612.358353,163.351407 612.876203,161.676008 C611.840502,159.437066 610.850493,162.04155 610.210796,162.315706 C607.499695,165.666504 610.210796,168.408066 607.164616,171.637017 C604.742902,177.835994 596.670525,181.917875 593.928963,188.741318 C588.169894,192.90431 583.040288,197.874898 578.698063,203.500061 C577.64713,204.139759 577.98221,207.658097 575.971731,209.790423 C571.844157,208.267333 569.193981,212.425369 567.244425,215.106007 L568.021201,216.050323 C566.757037,217.984647 560.512367,221.015596 561.928841,225.523943 C560.101133,225.219325 555.760327,222.675765 554.861703,226.65103 C554.480931,227.123188 554.663702,227.899963 555.638479,228.00658 C556.963568,226.376873 558.060193,224.9604 560.04021,227.107957 L556.567564,232.012307 L555.394785,230.611064 C552.668454,232.941391 551.267211,239.33837 548.37334,241.272694 C544.017302,239.749604 542.387596,246.039966 539.371878,249.603997 C542.753138,255.696357 531.451809,255.620202 531.756427,261.560253 C526.836847,265.322286 523.821128,270.394176 520.896795,276.258072 C520.531254,274.110515 517.850615,275.724991 516.053369,276.714999 C516.144754,279.60887 517.728768,278.877787 516.053369,281.939198 C511.910564,284.452297 513.296576,293.484221 505.833435,294.123919 C505.148044,290.986353 504.127574,294.123919 502.787255,293.880224 C504.310345,294.398075 506.077129,301.069209 510.189472,298.89119 C512.672109,301.647983 520.333252,298.723651 523.059583,300.871208 C527.080541,297.459486 530.248568,300.58182 534.208602,302.714146 L536.173389,300.277202 C546.073474,299.89643 558.029731,302.470452 568.645668,301.800292 C571.250152,300.566589 574.875107,302.531376 577.098818,304.739856 C576.243843,305.265161 575.81105,306.270949 576.017424,307.252955 C575.316803,306.034483 574.25064,305.927866 573.839405,307.054953 C572.194468,308.136347 573.839405,309.918362 574.372487,311.014987 C573.275862,312.157305 571.326307,311.212989 571.55477,313.375777 L571.920312,314.2744 C573.443402,311.22822 577.037894,314.975021 579.352991,313.619471 L577.829901,311.319605 L580.525771,310.238211 C577.479591,310.451444 578.804679,307.298647 578.271597,306.125868 C577.791194,304.409182 578.694757,302.608653 580.358231,301.967832 C582.53625,304.374315 587.562447,303.947849 590.1517,304.557085 C589.786158,304.785549 590.1517,305.044474 590.532472,305.470939 C590.898014,305.470939 591.202632,304.831242 591.872792,304.709394 L591.111246,303.780309 C594.629585,301.830754 603.295967,302.835994 608.718167,306.202023 L611.383575,304.96832 C612.906665,306.232484 610.95711,308.0145 610.561106,309.248203 C609.251649,308.719789 607.767588,308.856463 606.576665,309.615147 C605.385742,310.373831 604.634656,311.661072 604.560132,313.071159 L599.351164,313.071159 L599.594858,310.466675 C597.584379,309.354819 597.157914,311.608992 596.335445,312.812233 L596.670525,314.122091 C596.381138,313.162544 595.650055,312.599001 595.512977,312.279152 C593.289265,311.380529 594.370659,313.985013 593.563421,314.700865 L595.086512,317.899354 C591.781406,317.549043 593.563421,320.305836 592.558182,322.026928 L587.867065,320.732302 C588.674302,318.569514 591.035092,321.38723 592.801876,319.01121 L589.923236,317.000731 C591.080785,316.086877 592.238333,312.690386 589.923236,311.806994 L590.882783,310.999756 L589.268308,309.583283 L585.399659,313.573778 C587.364445,314.761789 585.201657,317.305349 584.120263,318.67613 C581.439625,316.757037 582.901791,319.6966 581.333008,320.625685 C577.921287,322.148775 574.235409,320.625685 575.118801,317.000731 C574.128792,315.569026 571.966005,315.355794 571.234921,316.696113 C569.224443,318.219203 568.889363,320.975996 566.071646,321.021689 C561.685147,321.417692 564.761789,313.406239 559.857439,317.427196 C558.69989,320.732302 554.4657,319.270135 553.308152,317.716583 L552.653223,320.275375 L550.962593,319.6966 C553.369075,316.787498 554.29816,311.106373 553.429999,306.415255 C546.195321,304.526624 550.475204,312.629463 546.637017,314.030705 L547.35287,316.269648 C545.394603,318.389591 542.62286,319.570353 539.737419,319.51383 C535.427074,318.858901 538.884489,315.340563 537.224321,313.208237 C537.761088,312.621365 538.129438,311.90045 538.290484,311.121604 C537.148166,309.217741 534.985378,310.238211 533.934446,311.121604 L535.899232,313.482393 C534.376142,314.365785 532.167662,313.847935 532.99013,316.696113 C533.15767,317.305349 534.178141,316.955038 535.122456,317.32058 C533.142439,317.625198 531.923967,322.849397 529.700256,319.879371 C530.020105,318.539052 527.507006,317.366273 529.959181,316.833191 L529.167174,315.919337 C526.501767,315.173023 526.89777,319.361521 524.597904,318.127818 C524.597904,314.259169 519.586938,315.645181 516.662605,314.411478 C516.982454,313.162544 517.469843,311.578531 519.069087,311.5633 C520.455099,315.736566 524.978677,311.258682 527.796393,311.441452 C524.262824,307.054953 533.401365,308.18204 527.461314,305.349092 C526.197149,304.937858 524.750213,304.937858 524.750213,306.400024 L526.273303,308.715121 C524.506519,310.238211 522.83112,309.430974 520.546485,309.522359 C521.14049,308.958816 520.790179,307.999269 521.155721,307.405264 C517.865846,306.598026 513.951505,309.111125 512.01718,312.705617 L513.18996,314.10686 L510.768247,312.142074 C510.341781,316.833191 504.934812,312.873157 505.985744,316.939807 C504.995735,318.462898 501.614475,317.366273 502.634946,320.564762 C502.528329,319.51383 502.863409,317.701353 501.538321,318.310589 C500.015231,317.442427 500.015231,319.193981 499.649689,319.833679 C500.913854,319.34629 496.603509,320.36676 498.446448,318.432436 L497.273669,317.046424 C496.435969,320.793225 492.826246,318.310589 490.541611,319.483368 C490.541611,318.660899 489.886682,318.371512 489.780066,318.097356 C487.663091,319.426983 486.721462,322.025879 487.495431,324.402949 C486.551115,325.484343 483.520166,322.712319 482.134154,326.139271 C482.134154,327.251127 479.651517,328.439137 481.799074,330.023151 C477.382113,332.185939 480.04752,338.811381 474.79286,340.684781 L474.640551,341.964177 C470.802364,341.568174 469.827586,345.177897 467.680029,347.005605 C467.223102,351.239795 465.395394,352.382113 463.841842,356.265992 C457.444864,357.606312 456.607165,367.110394 452.159742,355.656756 L451.946509,353.052272 L450.60619,353.35689 C451.063117,351.133179 451.139271,348.78762 453.65237,347.980383 L452.860363,347.051298 C453.743755,345.832826 454.809918,344.949433 456.470087,345.604362 L458.328256,349.244547 C460.022866,347.236619 461.007909,344.725829 461.130742,342.101255 C460.24735,341.187401 459.699037,340.045083 458.648105,340.578165 C457.962715,341.080785 456.652857,341.294017 457.125015,342.603875 C453.713294,339.938467 458.130255,339.024613 458.8918,337.547216 C459.472898,337.249652 460.162301,337.252775 460.74068,337.555591 C461.319059,337.858407 461.71439,338.423208 461.800902,339.070306 C465.806628,332.048861 460.506275,321.707079 471.289753,320.305836 C466.370172,317.000731 475.249787,314.837943 470.299744,311.532838 C467.070793,313.893627 466.644328,316.361033 462.897527,316.543804 C463.004143,315.706105 463.750457,314.807481 463.110759,314.381016 C461.404898,311.548069 459.57719,314.868405 457.871329,314.381016 C455.84562,318.051663 450.60619,315.904106 449.144023,319.727062 C445.945534,316.680882 451.733276,316.604728 450.499574,314.183014 C448.976483,312.766541 445.03168,312.431461 446.935543,309.964055 C447.529548,309.689899 448.458633,310.238211 449.144023,309.689899 C447.529548,307.222493 443.737054,309.689899 442.335811,308.166809 C441.589497,309.37005 442.442427,310.847447 444.17875,311.806994 L442.65566,314.289631 C443.432436,315.599488 444.635677,314.289631 445.625685,315.005483 L441.970269,317.290118 C439.152553,316.437188 439.152553,310.116364 435.756062,313.695626 L436.91361,315.096869 C436.39576,313.787011 432.801267,314.243938 431.902644,312.903619 C431.278177,313.116851 430.227245,313.787011 431.308639,314.60948 L432.115877,315.538565 C431.689411,316.970269 429.846473,315.736566 429.069697,316.147801 C428.871695,314.975021 429.069697,313.101621 427.10491,313.802242 L424.469965,318.782746 C424.378579,317.8232 423.556111,317.335811 423.342878,316.955038 C421.728403,318.478128 419.382844,316.65042 418.606068,316.528573 C416.184355,318.432436 418.103448,321.311076 418.392835,323.930791 C414.767881,325.910808 412.026319,317.290118 409.360911,322.697088 C407.837821,321.295845 410.396613,319.879371 408.812599,319.133057 C406.680273,320.321067 408.599366,323.093091 405.431339,322.788473 C407.243816,318.630437 401.197149,322.011697 402.765932,318.630437 C399.476057,319.361521 395.150481,313.101621 393.962471,319.605215 C392.652614,318.858901 391.936761,319.894602 391.266602,320.671378 C391.144754,321.463385 391.845376,323.154015 391.007676,323.717558 L389.271354,323.565249 L389.408432,321.844157 C390.017668,322.042159 390.505057,321.326307 391.220909,321.113074 C389.240892,319.34629 390.139515,316.543804 387.337029,316.010723 C387.18472,321.905081 379.965274,316.269648 376.751554,317.701353 L375.67016,314.975021 L370.187035,318.021201 C373.400755,320.275375 369.989034,322.072621 369.166565,324.890338 L364.490679,323.595711 C363.637748,320.290606 366.54685,321.874619 367.399781,319.940295 C366.700095,318.025553 365.069622,316.601751 363.078076,316.16639 C361.086529,315.731029 359.010674,316.34461 357.57585,317.792738 L356.661996,318.554283 C357.103692,320.275375 363.348361,318.645668 360.667723,322.39247 L358.840015,323.534787 C354.423053,322.544779 358.07847,316.559035 354.270744,316.178262 C352.747654,318.036432 349.533934,316.574266 347.919459,319.117826 C348.772389,321.509078 351.696722,320.123066 353.509199,320.016449 C354.072743,320.321067 353.509199,321.280614 353.752894,322.209699 C353.021811,321.326307 350.706714,321.661387 350.14317,323.641404 L348.95516,322.240161 C348.254539,323.763251 347.995614,325.286341 346.015596,325.910808 C344.842817,324.0831 340.867552,323.291093 343.502498,320.001218 C349.686243,319.620446 342.680029,316.498111 344.005118,313.908858 C343.121725,315.188254 338.582917,316.102108 337.912757,313.406239 C337.420809,315.443865 336.365146,317.301832 334.866577,318.767516 C333.876569,314.502863 329.870842,315.721335 326.855124,315.904106 L324.494334,317.868892 C322.971244,316.13257 321.691848,314.746558 319.483368,315.264408 C318.599976,315.431948 318.935055,316.437188 318.889363,317.396734 C316.330571,314.898867 314.975021,317.183502 312.004996,316.345802 L310.146826,317.868892 C310.803789,318.827777 311.893594,319.398355 313.055928,319.391982 C311.350067,324.93603 308.684659,317.960278 305.120629,320.458145 L308.303887,318.935055 C307.907884,316.9855 304.876934,314.365785 303.231997,317.183502 C301.434751,317.8232 302.120141,318.706592 302.546607,320.229682 C301.358596,318.706592 299.698428,321.509078 299.622274,323.885098 L293.529913,323.793713 C293.377604,322.834166 293.910686,321.874619 293.286219,321.570001 C291.123431,322.407701 289.844036,324.616181 287.559401,322.39247 C285.884001,320.19922 288.884489,320.70184 289.554648,319.51383 C288.168637,318.980748 287.483246,317.99074 288.031558,316.772268 C283.888754,313.08639 281.345193,322.209699 278.497015,316.376264 L277.080541,317.549043 C276.486536,315.706105 273.409894,314.502863 272.389424,316.269648 L275.587913,319.605215 C275.328987,318.737054 276.120994,318.584745 276.593152,318.386743 L276.973925,323.626173 C275.161448,320.899842 270.80541,326.931278 270.622639,321.768003 L266.936761,324.052638 C263.646887,327.936518 264.088583,318.188741 260.387474,324.357256 L260.99671,322.240161 L258.376995,322.438163 C258.45315,321.38723 258.376995,320.610454 257.737297,320.19922 C254.158036,320.793225 258.483612,323.808944 255.132813,324.76849 C250.761545,328.758986 248.751066,318.264896 245.567808,324.76849 L244.334105,324.220178 C243.938102,322.590472 245.674424,322.514317 246.603509,322.697088 C247.684903,323.138784 247.989521,321.768003 248.126599,321.082612 L253.609723,318.036432 C252.162788,315.980261 252.269404,312.294383 248.766297,313.695626 C246.938589,314.883636 248.446448,316.193493 245.918119,316.48288 C244.699647,316.48288 243.999025,315.035945 243.359327,315.843183 C241.638236,318.097356 243.252711,319.650908 244.653954,321.158767 C244.273181,321.600463 242.55209,321.432923 242.04947,320.930303 C240.891922,319.01121 243.146095,316.056415 240.252224,316.361033 C239.566833,319.818448 237.571585,316.254417 235.682954,318.569514 C235.439259,317.183502 234.7691,315.157792 233.215548,316.604728 C232.411403,317.326923 231.952067,318.356836 231.952067,319.437675 C231.952067,320.518515 232.411403,321.548428 233.215548,322.270623 C231.159376,322.986475 229.118435,324.220178 226.255026,322.103083 C225.234556,319.955526 222.477763,317.99074 220.284513,320.717071 C216.537712,322.575241 221.396369,325.408188 216.750944,326.063117 C215.806628,324.920799 219.355428,324.022176 217.025101,323.016937 C214.085537,324.76849 213.217375,328.271597 210.24735,331.135007 C209.150725,332.658097 209.957963,335.917509 207.20117,336.069818 C205.282076,335.826124 202.875594,333.861338 201.550506,336.465822 L202.677592,338.308761 L201.261119,339.48154 L194.041672,332.338248 C194.848909,330.997929 195.488607,329.977458 196.935543,329.535762 C195.610454,325.971731 193.112587,328.576215 191.330571,328.606677 C188.741318,330.023151 186.273913,329.596686 184.126356,331.454856 C187.309614,323.946022 178.414768,326.200195 178.61277,320.107835 C178.171073,319.102595 177.165834,319.452906 176.495674,319.483368 C175.627513,319.86414 175.932131,321.006458 175.825515,322.026928 C174.515657,318.67613 171.088705,320.503838 169.260997,322.316315 C169.078226,323.428171 169.260997,324.631412 167.737907,324.814183 L164.600341,321.052151 L163.199098,322.240161 C162.361399,321.189229 161.051541,318.904594 159.452297,320.168758 C160.061533,324.738029 154.243329,324.311563 151.547459,326.428658 C150.37468,321.478616 144.130011,325.804192 143.688315,321.38723 L146.338492,321.173998 C145.912026,320.19922 146.003412,319.34629 145.226636,318.919825 C142.485074,318.478128 142.75923,322.849397 142.652614,323.489095 C139.058121,320.442915 136.560253,326.992202 133.514073,322.712319 C132.158523,322.818935 129.873888,322.818935 129.858657,324.981723 L129.721579,326.276349 C128.198489,321.615694 124.558304,324.0831 120.826733,323.763251 L119.379798,325.377726 C119.775801,322.818935 117.095163,323.458633 115.648227,323.306324 C114.231753,322.773242 113.470208,324.326794 112.434507,325.194956 C110.180334,324.265871 110.043256,322.148775 108.444011,320.945534 C106.920921,323.763251 105.930913,320.838918 104.301206,323.610942 L106.38784,324.661874 C103.69197,325.10357 103.661508,322.818935 101.81857,322.087852 C98.7723894,321.097843 94.2031193,322.666626 92.4667966,319.529061 C91.492019,322.834166 86.3744365,318.919825 84.8513464,321.920312 C82.4448641,322.818935 78.7589862,320.762763 77.6928232,323.91556 L76.0783478,322.39247 L74.6771049,323.58048 C69.2092116,318.782746 62.6294627,312.111612 54.1001584,315.249178 C52.8055319,313.649933 48.3733398,317.061655 47.7488729,313.391008 C50.0792007,310.146826 53.3690752,311.075911 56.7046424,310.344828 C57.0854149,308.121116 56.308639,307.1768 58.4105032,305.699403 C56.765566,303.292921 51.2824418,306.202023 53.1101499,301.7546 C54.8769343,299.987815 55.4557085,299.39381 56.5980261,301.617522 C56.765566,302.10491 55.9887901,302.257219 55.6232484,302.835994 C57.4966492,303.582308 58.5018886,303.247228 60.7560619,303.734617 C61.6242232,301.25198 63.0559279,301.038747 64.5942488,299.713659 L66.3305715,299.850737 C64.9597904,300.429511 66.7874985,301.678445 67.4271963,302.150603 C71.2196905,300.871208 73.3063239,296.819788 76.3372731,294.672231 C84.3639576,296.895942 89.0093822,294.931156 96.8380651,299.073961 C101.407335,295.251005 108.048008,303.44523 113.363592,299.211039 C122.684903,300.39905 135.006702,302.120141 143.338004,299.683197 C146.186183,303.521384 148.120507,296.301937 151.989156,299.987815 C153.512246,296.225783 157.228585,301.663214 161.127696,299.987815 C161.432314,300.566589 161.356159,301.510905 162.239552,302.241989 C161.843548,297.124406 167.250518,298.815036 169.99208,298.114415 C175.475204,301.571829 183.562812,294.900695 185.22298,302.08968 C188.345315,297.840258 192.960278,302.363836 195.625685,297.779335 L194.818448,296.835019 C199.25064,296.393323 198.839405,290.92543 202.845132,289.706957 L201.672353,288.305715 L209.287803,276.349458 L208.861338,281.086268 C210.24735,279.197636 214.222615,279.989643 214.466309,276.806385 L210.704277,275.176678 L214.786158,268.124772 C219.066041,267.896308 214.451078,272.176191 218.334958,272.358962 C217.055562,271.110028 223.422079,264.164737 217.558182,266.190447 L216.278786,266.083831 C217.101255,265.56598 217.801876,262.35226 219.324966,261.133788 C219.745599,262.875139 220.654421,264.460294 221.944681,265.703058 C228.661508,263.738272 225.81333,256.564518 230.428293,253.396491 L231.707689,253.944803 L231.144145,255.208968 C236.276959,253.960034 231.997076,259.13854 236.581577,257.859145 C235.95711,253.503107 239.094675,248.888144 235.545875,244.714878 C238.454977,242.841477 245.049957,239.307908 244.440721,232.438772 L243.648715,231.509687 C244.197027,231.616303 244.486414,230.88522 245.034726,230.763373 C245.589849,232.575648 246.466943,234.273083 247.62398,235.774339 C249.634458,234.053247 250.67016,233.276471 249.375533,230.702449 C250.807238,226.529182 254.90435,224.518704 256.229438,222.157914 L257.44791,223.147923 C258.514073,223.147923 249.83246,224.838552 255.330815,227.321189 L258.574997,224.990861 L260.098087,227.732424 C261.286097,225.386865 260.66163,221.4116 261.33179,218.7005 C258.833922,216.263556 260.235165,214.98416 260.966248,212.608139 L262.824418,211.465822 C263.753503,212.044596 263.662118,214.329231 265.672597,213.887535 C265.672597,209.714268 267.850615,206.272085 271.170952,205.693311 C272.145729,201.916047 273.455587,196.813696 276.501767,194.391982 C273.942976,193.721823 274.156208,191.559035 275.146217,189.94456 C277.979164,188.528086 278.771171,184.674668 281.451809,182.648958 C283.370903,185.405751 275.085293,188.147313 280.309492,190.812721 C282.563665,188.60424 287.117704,184.87267 286.87401,180.151091 C287.71171,178.018764 290.849275,180.912636 290.971122,178.323382 C288.975874,178.582308 288.001097,175.018277 286.234312,177.485683 C287.391861,173.114415 291.382357,169.641769 292.600829,164.554648 C296.576094,163.701718 293.819301,156.939198 299.56135,159.51322 C297.931644,156.863044 301.08444,153.42086 304.024004,153.42086 C302.973072,155.27903 303.323382,158.568905 301.328135,159.269526 C300.338126,161.676008 305.257707,161.462776 305.745096,163.579871 C306.49141,164.600341 306.354332,162.528939 307.527111,162.879249 L306.004021,160.548922 C306.811259,162.254783 309.887901,160.655538 310.573291,158.340441 C309.674668,157.152431 307.283417,156.954429 308.242963,155.096259 C308.242963,153.238089 311.624223,153.573169 310.801755,150.526989 L305.425247,152.202388 C304.480931,144.388936 311.517607,148.927745 315.112099,146.110028 L315.112099,151.775923 C313.08639,151.242841 312.309614,152.705008 311.426222,154.045327 C312.492385,155.568417 314.60948,158.477519 315.508103,156.11673 L315.751797,156.086268 Z" id="Path" stroke="#231F20" stroke-width="0.22"></path>
                <path d="M646.795419,98.4982332 C645.272329,100.767637 644.145242,103.280736 640.703058,103.189351 C636.316559,108.139393 631.016206,114.079444 627.436944,120.704886 C615.145607,129.005727 609.296942,138.601194 597.690995,147.694042 C598.254539,150.466066 595.436822,150.648836 594.644815,152.263312 C593.639576,151.943463 592.893262,150.922993 592.497258,151.638845 L591.964177,152.90301 L593.609114,153.908249 C592.801876,160.244304 586.298282,160.107226 584.668576,166.595589 C579.566224,163.991105 577.053125,170.616547 574.966492,173.144876 C571.500715,176.33792 568.542349,180.041014 566.193493,184.126356 C561.624223,185.344828 559.628975,191.741806 557.816498,195.138297 L557.054953,194.193981 C550.39905,197.712319 551.708907,206.378701 544.870233,208.373949 C543.149141,214.466309 535.35092,216.629097 536.660777,222.843304 C530.568417,221.106982 535.274765,231.189838 529.715487,227.899963 C528.92348,229.02705 527.476544,230.824296 529.304252,232.210308 C528.451322,232.103692 528.192397,231.235531 527.613623,231.631534 C527.613623,236.383575 520.80541,240.02376 518.657853,244.76057 C514.911052,255.163275 502.178019,259.047155 501.157548,270.653101 C495.491653,279.669794 488.972828,283.858292 485.165103,294.458998 C480.489217,304.313391 473.741928,293.392835 467.00987,298.083953 C449.540027,297.916413 435.207749,297.53564 419.291459,296.560863 C416.549896,284.8483 412.559401,273.409894 411.447545,261.956257 C406.010113,258.62069 407.243816,253.183258 403.436091,249.086146 C403.192397,241.303156 393.749238,236.139881 390.444133,228.372121 L387.154259,226.346412 C386.682101,228.661508 383.940539,227.656269 382.706836,227.260266 C382.478372,225.737176 380.726819,225.737176 381.686365,224.1227 C382.3173,223.030596 383.666827,222.585121 384.823931,223.086999 C384.268949,223.646459 384.039047,224.451114 384.214695,225.219325 C391.632143,227.899963 389.987206,215.700012 397.587425,216.400634 C397.983429,212.471061 401.014378,212.745217 403.314244,210.810893 C403.908249,208.313025 405.644572,208.252102 407.106738,207.216401 L407.883514,208.160716 L408.066285,201.215426 L411.828317,202.845132 C414.219569,199.661874 420.342391,197.818935 422.992567,194.6966 C428.308152,192.533813 430.775557,185.771293 437.263921,185.55806 C437.644694,181.674181 442.65566,182.648958 445.488607,181.080175 C454.627148,172.718411 468.548191,167.524674 479.742902,162.330937 C482.377848,161.234312 480.839527,156.436579 484.799561,159.284757 C486.6425,154.715487 492.567321,157.685512 494.440721,153.618862 C501.221981,149.665164 508.361422,146.360622 515.763982,143.749238 C516.357987,140.703058 517.728768,143.581699 519.78494,142.332765 C524.171439,137.078104 530.61411,137.976727 536.264774,132.920068 C541.077739,134.016693 542.357134,126.401243 547.916413,129.158036 C548.342878,125.304618 552.714146,127.406482 554.374315,124.939076 L556.019252,125.959547 C564.396247,116.927623 579.276837,114.749604 590.562934,108.961862 C594.72097,107.07323 598.422079,105.915682 602.305958,103.920434 C605.310075,103.464771 608.135656,102.207203 610.484952,100.280249 C622.669672,94.9646643 635.753016,91.4310954 648.227123,86.1764348 C650.115755,89.968929 653.573169,85.4910442 655.309492,84.6533447 C654.030096,87.6995248 652.537468,97.1731449 646.704033,98.681004" id="Path" fill="#FFCD00" fill-rule="nonzero"></path>
                <path d="M509.900085,126.949555 C509.900085,128.472645 507.600219,127.208481 506.853905,127.558791 C506.853905,125.8377 508.742537,127.086633 509.900085,126.949555" id="Path" fill="#FFCD00" fill-rule="nonzero"></path>
                <path d="M509.900085,126.949555 C509.900085,128.472645 507.600219,127.208481 506.853905,127.558791 C506.869136,125.8377 508.696844,127.086633 509.900085,126.949555 Z" id="Path" stroke="#FFCD00" stroke-width="0.29" stroke-linejoin="round"></path>
                <path d="M315.904106,156.46704 C315.972171,157.808506 316.347352,159.11643 317.000731,160.289996 C312.187767,161.70647 313.847935,172.474717 307.862191,169.915925 C310.634215,173.982576 303.369075,175.185817 303.521384,179.998782 C302.759839,179.587547 302.120141,179.404776 301.861216,178.978311 C299.302425,180.577556 302.637992,182.1768 300.124893,184.03497 C299.302425,181.780797 298.068722,183.623736 296.667479,183.730352 C297.794566,187.949312 293.621299,187.461923 291.763129,189.822712 C289.58511,193.417205 284.147679,196.737541 286.340928,202.007433 C286.736932,202.449129 287.864019,201.916047 288.595102,201.322042 L288.260022,199.996954 L288.442793,203.043134 C283.873523,201.093579 282.929207,206.241623 280.994882,208.480565 C280.568417,211.130742 276.273303,214.222615 273.775436,216.552943 C270.851103,217.558182 271.155721,221.594371 270.942488,224.168393 C263.174729,235.62203 252.345559,245.491653 247.882905,259.199464 C243.313635,261.66687 244.166565,266.951992 239.962837,270.241867 C241.044231,276.56269 230.824296,274.049592 235.134641,280.675034 C229.788595,283.294748 231.677227,290.514195 228.219812,294.855002 C230.473986,300.551359 238.180821,295.67747 242.293164,298.266724 C269.038626,297.063482 293.712684,297.033021 321.981236,296.987328 C329.962227,300.033508 337.745217,292.96637 345.299744,299.043499 C346.106982,295.647009 349.747167,297.383331 351.529182,297.398562 C362.541123,296.545632 377.421713,297.398562 388.921043,297.611795 L391.647374,296.088705 C391.373218,293.925917 387.078104,292.585598 389.164737,289.798343 C394.099549,289.798343 388.52504,298.936883 395.942488,296.895942 C396.226262,292.42595 394.91475,288.000272 392.241379,284.406604 C390.56598,284.086755 388.570732,284.772146 388.570732,286.676008 C387.656878,286.554161 388.18996,285.289996 388.281345,284.924455 C390.626904,284.924455 390.657366,282.030584 392.104301,280.903497 C390.90106,279.380407 391.464603,276.334227 389.058121,276.714999 C388.037651,276.791154 387.276106,277.826855 386.880102,276.532229 L387.870111,275.313757 C387.487501,274.759719 386.891506,274.389981 386.225174,274.293286 C385.722554,274.52175 384.961009,274.674059 385.250396,275.511758 L386.011941,276.456074 L384.625929,277.644084 C384.884854,271.64311 375.487389,271.231875 377.010479,264.804435 C368.359327,263.783965 371.28366,254.249421 365.236993,250.274156 L365.404533,248.568295 C365.800536,248.568295 366.683928,248.187523 367.095163,249.131839 C368.618253,244.684416 363.302668,244.638723 365.221762,240.724382 C362.495431,238.896674 364.840989,238.256976 363.866212,236.261728 C363.33313,236.81004 362.525893,236.261728 362.099427,236.535884 C363.25729,232.346561 364.786437,228.268838 366.668697,224.351164 C367.841477,225.386865 368.801024,222.965152 369.882417,222.462532 C367.21701,220.010357 370.202266,218.319727 371.28366,216.492019 L372.471671,217.893262 C373.431217,212.181674 380.087121,211.481053 381.701596,206.942244 C385.707323,205.099305 386.377483,202.372974 389.317046,199.798952 C397.633118,197.346777 398.455587,187.857926 405.873035,184.70513 L406.040575,182.557573 C409.254295,187.599001 411.676008,179.648471 415.011575,179.420007 L418.423297,175.368588 L419.428537,178.506153 L421.606555,173.479956 L422.809797,174.881199 C427.714146,171.499939 433.273425,167.646521 437.324845,163.107713 C437.675155,164.448032 438.406239,163.412331 439.487633,163.305715 L438.25393,162.315706 C439.167784,158.690752 440.218716,163.838796 442.65566,161.843548 L441.970269,159.604606 C447.05739,159.178141 451.474351,149.567442 455.921774,154.289022 L458.099793,154.487023 C455.906543,149.917753 463.826611,147.511271 467.664798,144.465091 C482.286463,140.413671 492.277933,129.340807 506.655903,126.18801 C511.651639,124.025222 513.052882,121.61874 518.627391,118.968563 C522.267576,120.720117 521.962958,116.562081 525.344218,116.516388 C534.208602,112.206044 543.621299,106.73815 553.490922,103.326429 L554.922627,106.494456 C556.080175,102.062264 559.735592,103.676739 561.974534,100.600097 C561.74607,102.016571 563.497624,101.940417 564.883636,102.123188 C565.690874,101.559644 567.929816,101.422566 568.599976,99.3816254 L568.356281,97.2036067 L572.255392,97.5386865 C571.067382,93.4263434 576.12404,92.8018764 579.292068,91.644328 C578.926526,91.948946 579.566224,94.401121 580.662849,95.6500548 C581.241623,95.1017424 582.55148,95.2083587 582.993177,94.1269648 L581.881321,91.8423297 C585.475813,91.4310954 584.927501,88.6743024 588.323992,87.6233703 L589.740465,91.2178628 C592.17741,90.7152431 593.517729,87.5929085 597.005605,87.9584501 C597.447301,86.4353601 595.558669,86.7856708 595.482515,85.6585841 C597.675765,87.7147557 600.950408,82.612404 602.184111,83.6024126 C606.007067,79.413915 609.616791,86.3592056 612.921896,80.2059218 L610.865724,78.6828317 L616.242232,77.0074327 C615.495918,77.3882052 614.719142,77.7689777 615.221762,78.637139 C616.744852,79.9926892 618.57256,78.5305227 620.110881,77.3120507 C619.848044,77.227494 619.649847,77.0097723 619.590283,76.7401705 C619.53072,76.4705687 619.618745,76.1896119 619.821494,76.0021932 C622.547825,79.0483733 624.923845,74.3115633 626.980017,73.5804801 C631.320824,73.2301694 634.184233,70.229682 637.885342,68.0212014 C634.001462,62.7056172 624.009991,66.0716462 621.131351,60.89314 C617.887169,62.8274644 615.038991,59.7508225 613.058974,58.8674302 C606.357378,56.8112587 598.939929,60.7256001 595.985135,55.1967832 C584.881808,52.3333739 573.991714,47.6879493 562.614232,48.799805 C557.329109,50.6732058 555.608018,43.8954551 550.779822,44.7331546 L551.465213,46.9568661 C549.028269,47.2310223 546.454246,45.6927014 547.3681,44.0020714 C542.555136,46.8959425 538.06202,42.1439015 533.507981,43.2100646 C529.075789,40.6055806 521.719264,43.9716096 520.120019,37.2547825 L518.825393,37.1481662 L519.175704,38.0315584 C516.647374,35.9144633 511.560253,39.4023395 510.265627,35.5184599 C506.214207,40.9711222 498.751066,34.4522968 494.24272,34.5589131 L493.06994,33.1576703 C492.064701,33.4470574 492.415012,34.4522968 492.460704,35.2747654 C489.52114,33.1119776 482.332155,35.5184599 477.808578,33.5536737 C467.253564,31.3756549 453.972219,31.7411965 445.001218,30.6750335 C441.178262,31.1471914 440.873644,38.6255635 436.197758,36.87401 C435.603753,41.6412818 427.622761,39.7526502 428.429999,46.1953211 C428.003534,45.2205434 426.906909,43.3928354 425.947362,44.672231 C423.297185,46.9111734 420.936396,49.2415012 420.479469,52.485683 C406.28427,62.4466918 397.633118,75.8346533 383.11807,86.6181309 C379.858657,91.0046302 376.538321,96.8076033 371.192275,98.6200804 C366.21177,100.584867 367.003777,105.21506 363.394054,108.367857 L362.221275,106.936152 C357.210308,117.841477 346.259291,123.690143 340.288778,133.727306 C331.317778,135.783478 333.55672,145.912026 324.631412,148.958206 C323.162793,152.764346 319.886809,155.58295 315.904106,156.46704" id="Path" fill="#FFCD00" fill-rule="nonzero"></path>
                <path d="M519.876325,132.188985 C519.252673,132.697265 518.453266,132.938182 517.652614,132.859145 C516.038138,131.42744 518.42939,131.625442 519.175704,131.229438 L519.876325,132.188985 Z" id="Path" fill="#FFCD00" fill-rule="nonzero"></path>
                <path d="M519.876325,132.188985 C519.252673,132.697265 518.453266,132.938182 517.652614,132.859145 C516.038138,131.42744 518.42939,131.625442 519.175704,131.229438 L519.876325,132.188985 Z" id="Path" stroke="#FFCD00" stroke-width="0.29" stroke-linejoin="round"></path>
                <path d="M373.781528,236.81004 C374.710613,235.28695 371.908127,234.09894 374.009991,234.220787 L373.781528,236.81004 Z" id="Path" fill="#FFCD00" fill-rule="nonzero"></path>
                <path d="M373.781528,236.81004 C374.710613,235.28695 371.908127,234.09894 374.009991,234.220787 L373.781528,236.81004 Z" id="Path" stroke="#FFCD00" stroke-width="0.29" stroke-linejoin="round"></path>
                <path d="M371.710126,244.897648 L369.973803,244.745339 C368.816254,242.73486 366.851468,240.419764 366.181309,238.33313 L368.207018,235.028025 C364.642988,240.754843 372.852443,240.282686 371.710126,244.897648" id="Path" fill="#FFCD00" fill-rule="nonzero"></path>
                <path d="M371.710126,244.897648 L369.973803,244.745339 C368.816254,242.73486 366.851468,240.419764 366.181309,238.33313 L368.207018,235.028025 C364.642988,240.754843 372.852443,240.282686 371.710126,244.897648 Z" id="Path" stroke="#FFCD00" stroke-width="0.29" stroke-linejoin="round"></path>
            </g>
        </g>
    </g>
</svg>