<?xml version="1.0" encoding="UTF-8"?>
<svg width="980px" height="680px" viewBox="0 0 980 680" version="1.1" xmlns="http://www.w3.org/2000/svg" xmlns:xlink="http://www.w3.org/1999/xlink">
    <title>LB Liban Post alt</title>
    <defs>
        <rect id="path-1" x="0" y="0" width="900" height="600" rx="80"></rect>
        <filter x="-6.7%" y="-10.0%" width="113.3%" height="120.0%" filterUnits="objectBoundingBox" id="filter-2">
            <feMorphology radius="2.5" operator="dilate" in="SourceAlpha" result="shadowSpreadOuter1"></feMorphology>
            <feOffset dx="0" dy="0" in="shadowSpreadOuter1" result="shadowOffsetOuter1"></feOffset>
            <feGaussianBlur stdDeviation="17.5" in="shadowOffsetOuter1" result="shadowBlurOuter1"></feGaussianBlur>
            <feColorMatrix values="0 0 0 0 0   0 0 0 0 0   0 0 0 0 0  0 0 0 0.5 0" type="matrix" in="shadowBlurOuter1"></feColorMatrix>
        </filter>
    </defs>
    <g id="LB-Liban-Post-alt" stroke="none" stroke-width="1" fill="none" fill-rule="evenodd">
        <g transform="translate(40, 40)">
            <g id="Rectangle">
                <use fill="black" fill-opacity="1" filter="url(#filter-2)" xlink:href="#path-1"></use>
                <use fill="#005BC0" fill-rule="evenodd" xlink:href="#path-1"></use>
            </g>
            <g id="Logo" transform="translate(49.8626, 89)">
                <path d="M468.603008,411.557114 C466.278799,413.362816 465.08719,416.26613 465.472704,419.183986 L469.951978,413.148207 C470.194101,411.954887 469.398555,411.038279 468.603008,411.557114" id="Path" fill="#231F20" fill-rule="nonzero"></path>
                <polygon id="Path" fill="#231F20" fill-rule="nonzero" points="631.638219 366.07259 631.793869 364.118312 630.756199 364.516085"></polygon>
                <path d="M296.003941,363.928073 C295.813701,364.066429 295.606167,364.170196 295.433222,364.308552 L296.19418,363.928073 L296.315242,363.928073 C296.240528,363.919791 296.165127,363.919791 296.090413,363.928073 L296.003941,363.928073 Z" id="Path" fill="#231F20" fill-rule="nonzero"></path>
                <path d="M673.317953,363.928073 L673.317953,363.928073 C672.643468,362.509924 671.588504,360.642118 670.637306,360.607529 C668.907857,361.10907 664.255637,361.887322 666.140737,363.945367 C666.2125,364.034549 666.293678,364.115727 666.38286,364.18749 L666.642278,363.945367 L668.492789,362.406157 C670.360594,361.437665 670.516245,362.492629 670.516245,363.945367 C670.351459,365.171842 670.518685,366.420067 671.000491,367.559917 C673.681138,368.839709 672.107338,364.256668 673.715727,364.827386 C673.594665,364.585263 673.473604,364.291257 673.317953,363.945367" id="Path" fill="#231F20" fill-rule="nonzero"></path>
                <path d="M664.722589,366.003412 L665.621903,367.092965 C666.538511,367.335088 665.985087,366.297419 667.178407,366.210946 C666.071559,365.432694 665.327896,365.363516 664.722589,366.003412" id="Path" fill="#231F20" fill-rule="nonzero"></path>
                <path d="M226.480068,368.632175 L227.898217,369.237483 C228.24238,368.282377 228.885237,367.463643 229.731433,366.902726 C229.534998,366.998711 229.305267,366.998711 229.108832,366.902726 C228.036573,366.677897 226.030411,366.798959 226.480068,368.632175" id="Path" fill="#231F20" fill-rule="nonzero"></path>
                <path d="M329.382318,365.778584 L331.630602,368.45923 C331.336596,366.868137 334.760906,367.542622 333.982653,364.204785 C333.152518,366.020707 331.077178,365.847762 329.382318,365.778584" id="Path" fill="#231F20" fill-rule="nonzero"></path>
                <path d="M463.172536,406.143937 L458.727851,405.746163 L458.935385,403.791885 C457.949598,406.801127 454.196693,408.599755 458.243605,411.643586 C458.018776,413.096324 455.822375,412.785023 456.029909,414.393411 C459.10833,416.122861 452.57101,420.169773 456.773573,422.867714 C464.452329,420.221656 456.029909,411.833826 464.313973,409.706603 L462.082983,407.025956 L463.172536,406.143937 Z" id="Path" fill="#231F20" fill-rule="nonzero"></path>
                <path d="M62.8568446,369.617962 C62.1477702,368.718648 59.6746573,368.735942 59.8476023,370.344331 L63.3065014,371.122583 C63.18544,370.396214 63.7907473,369.220188 62.9260225,369.617962" id="Path" fill="#231F20" fill-rule="nonzero"></path>
                <path d="M269.716307,363.928073 L269.716307,363.928073 C269.091396,363.604945 268.485133,363.246961 267.900385,362.855814 C267.448494,363.161311 267.036068,363.521457 266.672476,363.928073 L266.672476,363.928073 C265.202444,365.795878 266.672476,367.646389 268.315453,369.323955 C269.039318,367.170326 270.923487,365.614713 273.175207,365.311632 C272.898495,365.57105 271.272812,364.792797 269.820074,363.945367" id="Path" fill="#231F20" fill-rule="nonzero"></path>
                <polygon id="Path" fill="#231F20" fill-rule="nonzero" points="384.966827 368.199813 386.039085 367.300499 384.119396 367.127554"></polygon>
                <path d="M371.909482,365.086804 C372.532084,367.386972 376.077456,366.210946 377.32266,365.536461 C375.281909,365.155982 373.414104,362.769341 371.909482,365.086804" id="Path" fill="#231F20" fill-rule="nonzero"></path>
                <path d="M677.434043,367.6118 C678.22959,367.715567 684.92256,370.03303 684.92256,366.781664 C681.6539,366.660603 678.869486,362.855814 677.434043,367.6118" id="Path" fill="#231F20" fill-rule="nonzero"></path>
                <path d="M745.107405,367.127554 C747.943702,364.585263 745.816479,370.932343 749.448323,368.493819 C749.89798,365.242454 745.072816,362.354274 745.107405,367.127554" id="Path" fill="#231F20" fill-rule="nonzero"></path>
                <path d="M725.754864,363.928073 L725.754864,363.928073 C723.904353,362.890403 722.140314,362.198623 724.50966,360.382701 L717.782102,358.791607 C718.940833,362.630985 714.530736,362.250507 713.908134,363.979956 L713.908134,363.979956 C713.839241,364.113621 713.803643,364.261945 713.804357,364.412319 C713.960018,371.503062 722.209492,363.357354 724.924728,367.352383 C725.702981,367.11026 727.121129,367.732862 728.383627,367.179438 C728.383627,365.640228 727.08654,364.706325 725.806748,363.962662" id="Path" fill="#231F20" fill-rule="nonzero"></path>
                <path d="M760.5168,366.003412 C759.51372,364.740914 759.876904,364.273963 760.620567,363.928073 L760.620567,363.928073 C761.342164,363.744834 762.052447,363.519623 762.74779,363.253587 C760.620567,362.492629 760.049849,357.529109 756.677422,359.258559 C757.507558,355.79966 763.456865,358.065239 764.82313,356.526028 C760.689745,351.891104 756.05482,352.721239 751.662019,354.381511 C752.422976,357.736643 751.662019,361.057186 753.391468,363.945367 C753.745149,364.510467 754.162993,365.032771 754.636672,365.501872 L758.251221,369.289366 C760.378444,369.289366 763.076386,367.888512 765.341965,367.421561 C763.612515,363.962662 761.416114,368.857004 760.499506,366.020707" id="Path" fill="#231F20" fill-rule="nonzero"></path>
                <path d="M777.482701,363.928073 L777.482701,363.928073 C776.462325,362.769341 775.390067,362.752047 774.680992,363.928073 L774.680992,363.928073 C774.610855,364.045491 774.547342,364.166742 774.490753,364.291257 C775.507511,365.002612 776.827418,365.114804 777.949652,364.585263 L777.51729,363.945367 L777.482701,363.928073 Z" id="Path" fill="#231F20" fill-rule="nonzero"></path>
                <path d="M689.471012,363.928073 L689.471012,363.928073 C688.865705,362.924992 690.128203,361.645199 689.332656,360.797769 C687.603207,362.060267 684.663142,360.694002 684.144307,363.132526 C684.459654,362.623692 685.015712,362.31412 685.61434,362.31412 C686.212967,362.31412 686.769025,362.623692 687.084372,363.132526 C687.059902,363.445757 687.145535,363.757706 687.326495,364.014545 L687.326495,364.014545 C688.139336,365.121393 690.629743,365.553755 690.785394,364.913859 C690.191082,364.820145 689.657146,364.4973 689.298067,364.014545 L689.471012,363.928073 Z" id="Path" fill="#231F20" fill-rule="nonzero"></path>
                <polygon id="Path" fill="#231F20" fill-rule="nonzero" points="768.178262 363.218998 766.327751 363.928073 766.137511 364.014545 770.046067 364.37773 769.371582 363.928073"></polygon>
                <polygon id="Path" fill="#231F20" fill-rule="nonzero" points="8.24082719 350.507544 10.852296 348.7608 9.46873639 347.671247"></polygon>
                <path d="M750.710821,354.295039 C749.55209,351.994871 744.865282,353.343841 742.962887,352.115932 L742.807237,354.07021 L744.796104,353.758909 C746.024013,354.295039 748.01288,356.923802 745.885657,358.290067 L749.154317,360.57294 C750.658938,357.667465 745.885657,354.398806 750.710821,354.295039" id="Path" fill="#231F20" fill-rule="nonzero"></path>
                <path d="M724.717194,357.442637 C724.993906,353.672437 730.407083,356.64709 732.430539,354.173977 C730.251433,348.605149 718.594943,351.873809 724.717194,357.442637" id="Path" fill="#231F20" fill-rule="nonzero"></path>
                <polygon id="Path" fill="#231F20" fill-rule="nonzero" points="733.312559 355.246236 737.186526 356.041783 735.093892 351.925693"></polygon>
                <path d="M774.352397,354.934935 C771.879284,356.871918 767.434599,353.516786 766.275867,356.664384 C773.366611,353.637848 774.784759,364.343141 781.598791,356.508734 C779.039205,356.508734 776.012668,357.304281 774.352397,354.883051" id="Path" fill="#231F20" fill-rule="nonzero"></path>
                <path d="M308.161971,363.928073 L309.130463,365.986118 L313.142786,363.928073 L313.263848,363.928073 C311.222937,364.06821 309.191226,363.546636 307.470191,362.440746 L308.161971,363.928073 Z" id="Path" fill="#231F20" fill-rule="nonzero"></path>
                <path d="M786.821728,359.414209 C788.810595,358.290067 790.643812,362.64828 792.269494,359.414209 C790.401689,357.079452 787.081146,358.497601 785.55923,357.33887 L786.821728,359.414209 Z" id="Path" fill="#231F20" fill-rule="nonzero"></path>
                <path d="M795.123086,360.123284 L799.965545,361.057186 C800.449791,357.200514 795.33062,359.327737 795.123086,360.123284" id="Path" fill="#231F20" fill-rule="nonzero"></path>
                <path d="M321.098254,364.585263 L320.337296,363.928073 C320.278193,363.905778 320.224957,363.870288 320.181646,363.824306 L319.870345,363.582183 L319.870345,363.582183 C318.007086,361.852171 315.476874,361.029852 312.952547,361.333898 C313.007055,362.364134 313.606959,363.287063 314.526346,363.755128 L314.370695,363.755128 L314.785763,363.876189 L314.785763,363.876189 C316.515213,364.37773 318.953737,364.429613 320.38918,366.435775 C320.38918,365.605639 320.008701,364.585263 321.046371,364.53338" id="Path" fill="#231F20" fill-rule="nonzero"></path>
                <path d="M533.440072,354.018327 L533.059593,357.926883 L534.529625,358.065239 C534.425858,356.335789 534.89281,353.828087 533.440072,354.018327" id="Path" fill="#231F20" fill-rule="nonzero"></path>
                <path d="M519.62177,363.945367 L519.62177,363.945367 C519.611334,364.014152 519.611334,364.084117 519.62177,364.152901 C519.62177,364.152901 519.62177,364.03184 519.62177,363.945367 L519.62177,363.945367 C519.62177,363.478416 519.62177,362.890403 519.62177,362.406157 C519.445122,362.909956 519.445122,363.458863 519.62177,363.962662" id="Path" fill="#231F20" fill-rule="nonzero"></path>
                <path d="M516.387699,363.201704 C516.348632,363.253635 516.319331,363.312236 516.301227,363.374649 C516.664411,363.236293 516.629822,363.201704 516.387699,363.201704" id="Path" fill="#231F20" fill-rule="nonzero"></path>
                <path d="M712.835876,357.874999 L712.144096,359.016436 C712.489986,358.618662 712.835876,358.307362 712.835876,357.874999" id="Path" fill="#231F20" fill-rule="nonzero"></path>
                <path d="M709.463449,362.509924 C708.814259,362.726429 708.315151,363.251465 708.131773,363.910778 L708.131773,363.910778 C707.785883,365.640228 710.172523,367.629095 711.590672,365.640228 L710.397352,363.910778 L709.463449,362.509924 Z" id="Path" fill="#231F20" fill-rule="nonzero"></path>
                <path d="M540.70376,361.074481 L541.188006,360.711296 C540.881825,360.837503 540.56291,360.930278 540.236809,360.988008 C540.385471,361.046521 540.544004,361.075879 540.70376,361.074481" id="Path" fill="#231F20" fill-rule="nonzero"></path>
                <path d="M538.369003,359.396915 L537.27945,360.797769 C538.230965,361.122107 539.25158,361.187761 540.236809,360.988008 C539.199139,360.797769 538.905133,359.690921 538.369003,359.396915" id="Path" fill="#231F20" fill-rule="nonzero"></path>
                <path d="M631.032911,361.576021 L632.987189,361.748966 L633.14284,360.278934 C631.880341,359.846572 630.254659,359.950339 631.032911,361.576021" id="Path" fill="#231F20" fill-rule="nonzero"></path>
                <path d="M473.791356,359.172086 L470.833998,358.912669 C471.4566,359.120203 473.272522,361.005303 473.791356,359.172086" id="Path" fill="#231F20" fill-rule="nonzero"></path>
                <path d="M717.972341,355.851543 C720.722166,357.131336 719.961208,352.012165 721.725247,352.236994 L718.439292,350.507544 L717.297856,352.392644 C715.032277,353.240074 714.254024,352.306172 713.458478,350.576722 C707.906944,348.847272 699.069457,346.789227 695.264668,349.971415 C691.944125,349.123984 688.675465,345.595907 686.046702,348.241965 C682.017084,345.716969 677.03627,351.700864 672.211105,348.501382 C667.022757,345.768852 662.076531,348.051726 657.130305,346.218509 C651.371238,353.274663 649.572611,340.286497 645.024158,348.605149 C644.868508,349.763881 646.303951,350.334599 647.791277,350.80155 L647.064909,353.240074 C647.220559,353.91456 648.102578,353.983738 648.898125,354.865757 L646.33854,356.110961 L653.256338,356.232022 L652.357024,355.177058 C650.091445,356.249317 648.586824,352.306172 649.728261,350.99179 C650.783225,350.023298 652.875859,348.605149 654.172946,350.870728 C654.588014,351.476036 652.875859,352.600178 652.962332,353.741615 C656.905477,354.277744 651.941956,357.771232 656.940066,359.03373 C655.210616,362.752047 652.893154,356.629795 652.374319,360.590235 C650.765931,358.860785 647.912339,361.627905 647.18597,358.670546 L642.931524,361.731672 L647.255148,363.599477 L646.546074,364.066429 L644.626385,365.346221 C644.384262,366.228241 645.439226,366.695192 646.355834,367.473444 C646.431044,366.131418 647.056789,364.879929 648.085284,364.014545 C650.281685,362.285096 654.051885,362.285096 657.164894,361.9565 C658.652221,361.160953 662.439715,363.115231 662.768311,359.967633 C660.468143,360.330818 659.309412,357.892294 658.271742,360.57294 C655.158733,357.511815 660.485437,358.705135 661.056156,356.854624 L658.998111,352.236994 C658.770501,353.488172 658.167258,354.640366 657.268661,355.540242 L656.369347,354.485278 C655.591095,352.859595 655.227911,350.109771 657.787496,349.660114 L659.171056,350.766961 C659.516946,350.109771 660.122253,349.193162 661.246395,349.469874 C659.516946,356.041783 668.164193,350.369188 666.988168,357.373459 C669.876348,358.791607 667.299469,355.868838 670.637306,355.228941 C672.159222,359.500682 678.765719,357.598287 682.051673,360.157873 L679.526677,360.953419 L680.304929,362.99417 C682.84722,361.783555 683.88489,361.126364 683.158521,358.791607 C685.545162,358.947258 687.395673,358.791607 690.076319,358.929963 C690.422209,357.373459 689.211595,356.543323 688.865705,355.851543 C690.508682,352.980657 693.362274,355.540242 695.54138,352.980657 C695.720509,353.599028 696.265563,354.040591 696.907645,354.087505 C697.634014,355.055996 698.637095,356.99298 696.596344,357.996061 C695.091723,358.774313 694.140526,357.996061 693.137445,357.200514 L692.9645,359.189381 C695.178196,361.26472 700.69514,357.183219 704.707463,360.694002 L705.347359,358.774313 C703.963799,358.341951 702.441884,358.670546 701.974932,357.978766 C699.380758,355.45377 699.50182,353.015246 702.078699,351.060968 C702.078699,351.389563 702.92613,351.700864 702.891541,352.652061 C705.416537,354.139388 708.961909,351.735453 710.553002,355.765071 C711.867384,355.45377 711.31396,353.430314 713.250944,353.03254 C715.187927,352.634767 717.85128,353.136307 717.955046,355.920721" id="Path" fill="#231F20" fill-rule="nonzero"></path>
                <path d="M222.588807,260.697228 L224.733324,258.362471 C223.73773,258.826329 222.966579,259.665889 222.588807,260.697228" id="Path" fill="#231F20" fill-rule="nonzero"></path>
                <path d="M284.105328,177.614471 L284.88358,180.139467 C284.693341,179.136386 285.454298,177.476115 284.105328,177.614471" id="Path" fill="#231F20" fill-rule="nonzero"></path>
                <path d="M257.316154,224.171253 C253.857255,224.828444 253.407598,230.587511 251.626265,233.060624 C258.163584,234.080999 253.200064,225.987175 257.316154,224.171253" id="Path" fill="#231F20" fill-rule="nonzero"></path>
                <path d="M735.595432,63.5745661 L737.601594,63.2632652 C736.633102,62.2255955 735.872144,62.5023074 735.595432,63.5745661" id="Path" fill="#231F20" fill-rule="nonzero"></path>
                <path d="M359.647685,104.770055 C359.714539,104.428392 359.743539,104.080401 359.734157,103.732385 C359.521315,104.037733 359.488319,104.433689 359.647685,104.770055" id="Path" fill="#231F20" fill-rule="nonzero"></path>
                <polygon id="Path" fill="#231F20" fill-rule="nonzero" points="423.343313 36.7162143 421.994342 35.1251207 422.807183 37.1658712"></polygon>
                <path d="M747.891819,75.5077681 C749.2062,73.933969 752.198148,74.6949268 754.330185,75.5077681 C754.550199,67.5868891 746.836854,73.933969 744.39833,70.2156525 C742.824531,68.8839763 741.648506,67.0680543 743.343366,65.6672001 L738.258784,67.1891157 C735.526254,65.0445983 730.874035,70.3021249 730.493556,65.4596662 L728.349038,67.1891157 C727.069246,62.8136083 721.43124,64.3009349 718.370114,62.8654918 C713.181766,60.6345019 705.122531,69.7832901 705.243592,60.7209743 C700.055243,64.9062423 699.225108,56.8124183 695.230079,56.3800559 C692.981795,55.9131045 691.529057,57.1237192 691.529057,59.0261138 C686.997899,50.9149953 675.289526,49.6352026 667.178407,49.4968466 C662.474304,43.5994236 650.368157,43.7723686 645.871588,44.6716823 L647.601038,42.3542199 C642.184007,41.0063315 636.885874,39.2190792 631.75928,37.0102208 C628.698154,36.6816253 625.4122,35.903373 624.651242,39.3449777 C619.307243,32.202351 606.958973,32.8422473 598.311725,29.7984161 C597.049227,30.0232445 596.201797,31.1646812 595.855907,29.6081766 C589.439649,27.0140023 578.94189,21.1338737 572.456454,26.1492775 C572.318098,22.1023655 568.340364,23.970171 567.268106,24.1604105 L566.472559,21.6527086 L544.646905,17.2426122 L540.565404,18.8682948 C531.070726,16.2568259 518.359272,11.5700176 509.435312,13.6799461 C505.440284,10.6707038 496.983275,13.88748 494.57934,8.92395977 L493.437904,10.7744708 C485.326785,7.67875608 478.149569,10.4977589 472.269441,3.9950285 L472.148379,5.46506064 C470.315163,6.84862029 467.236743,4.35821291 466.960031,3.04383124 C460.99343,7.03885974 456.825456,-0.415067896 450.755088,2.12722297 L451.654402,3.18218721 C449.458001,1.93698352 445.860746,6.19142945 446.379581,1.24520369 C445.168172,0.421353146 443.642956,0.206522563 442.251111,0.663697955 C440.859266,1.12087335 439.758499,2.19825293 439.271543,3.57996061 C438.648941,0.259417435 435.812644,2.97465326 434.377201,3.14759821 C432.647751,2.55958536 428.151182,3.04383124 428.203066,0.12106147 C424.000503,0.570718357 419.555818,1.55650461 415.854796,0.0345889914 L417.117294,2.62876334 C412.949321,1.71215507 411.704117,4.56574686 407.916622,6.27790193 C407.380493,8.99313775 407.242137,12.071558 409.21371,13.7837131 C405.09762,15.3575122 400.946941,14.6138489 400.255161,20.4247994 C407.691794,19.4044242 407.847444,27.5501316 414.886304,28.1035555 C417.895546,29.8330051 423.239546,30.7669078 423.723791,34.8138198 L426.854095,32.6174189 C429.534742,32.167762 430.036282,33.6896776 432.042444,35.5228941 C430.537823,39.1547382 425.678069,39.7081621 422.236465,40.12323 C422.876361,43.6686016 420.005475,45.3115787 418.137669,47.6636301 C416.148802,48.5283549 416.148802,45.6747631 415.906679,45.0002778 C410.389735,45.1732227 409.421244,53.3535192 405.651043,54.9446128 L407.622616,55.1002632 C406.827069,59.1817642 401.656015,60.2886119 399.874682,64.3355239 C397.730164,62.7271358 398.283588,62.3639514 395.585647,62.4677184 L395.429997,64.4219964 C391.089078,65.4596662 393.614074,71.8586296 390.552949,74.7986938 C388.961855,74.210681 386.142852,75.3348232 386.281208,72.9481828 L382.666659,75.1099947 C384.396108,83.6707701 377.167009,79.2087902 373.932938,84.2068995 C371.217703,88.098161 370.145444,93.1654482 365.648875,94.3414739 C367.983632,99.7892401 359.146145,101.708929 362.086209,106.879983 C361.619257,105.669369 360.16652,105.513718 359.82063,104.75276 C359.440151,106.48221 357.727996,107.537174 356.482792,108.86885 L355.306767,105.306184 C347.022703,109.266624 344.584179,119.141781 336.940012,123.44811 C334.916556,123.44811 336.265527,127.823618 333.256285,126.094168 L333.550291,122.635269 C330.696699,122.427735 328.846188,126.699475 327.998758,129.553067 L330.454576,129.812485 C326.11016,133.404079 323.070903,138.327677 321.807328,143.821026 C318.50408,144.18421 315.598604,145.291058 315.875316,149.268792 C320.077879,157.639328 308.300327,156.861076 307.573958,165.318084 C314.405284,167.514485 305.239202,173.636737 307.764198,177.216697 L307.366425,177.597176 C306.346049,180.295117 303.907525,176.95728 302.7315,175.262419 C303.73458,173.740504 304.6166,172.080232 306.916768,172.668245 L306.916768,166.251987 C302.921739,169.486058 294.810621,164.315003 295.934763,173.169785 L302.022425,171.250096 C302.956328,174.708995 299.151539,174.293927 299.11695,176.438445 C298.027397,178.531079 300.742633,178.773202 301.763008,180.104878 C301.00205,182.76823 297.508562,184.566858 296.574659,182.629874 L298.304109,185.258638 C296.972433,184.878159 297.128083,187.247505 296.297947,186.071479 C295.727229,183.65025 290.141107,183.909667 291.265249,181.177137 C293.530828,180.398884 293.133055,176.645979 294.326375,174.53605 C290.867476,174.53605 287.408576,178.49649 289.259088,181.453849 C282.721768,178.513784 285.800188,186.192541 281.355503,187.195621 C279.971943,192.954688 275.440785,196.880539 274.126404,201.861354 C276.132565,199.042351 277.239413,203.089263 279.504992,202.812551 C279.366636,205.752615 275.80397,202.466661 274.852773,204.88789 C275.129485,210.318362 269.95843,214.538219 267.398845,216.994037 C261.466833,213.967501 270.857744,210.837197 268.695932,207.724188 C265.652101,210.024356 264.770082,214.382568 261.536011,216.008251 C260.411869,217.841468 260.169746,220.297286 263.075221,221.058244 C259.616322,223.808069 258.128995,229.619019 257.022148,233.873465 C253.251948,234.617128 250.830718,238.456506 250.778835,243.195198 C248.495961,243.696739 248.599728,241.102564 247.544764,240.428079 L245.434835,241.742461 C244.6047,244.474991 243.013606,245.927729 245.849903,248.660259 C245.088946,251.755974 245.849903,256.252543 244.466344,258.915895 L242.736894,255.802886 L239.053167,258.448943 C232.879032,255.629941 242.667716,253.658368 241.457101,253.692957 L240.073542,252.568815 C238.568921,255.266756 233.916701,257.54963 232.291019,262.288322 C233.778345,265.211091 232.585025,266.093111 230.319446,268.047389 C228.994858,266.353414 227.992462,264.43069 227.362087,262.374794 C226.739486,262.495855 226.41089,263.325991 225.788288,263.20493 L226.687602,264.259894 C227.379382,272.059712 219.890865,276.089329 216.587617,278.199258 C220.617234,282.937949 217.071863,288.178182 217.763642,293.124407 C212.575294,294.577145 217.417752,288.697016 211.589507,290.115165 L212.229404,288.679722 L210.776666,288.05712 C205.588317,291.723553 208.770505,299.800083 201.143632,302.048367 C199.687549,300.630232 198.657178,298.833073 198.168979,296.860018 C196.439529,298.243578 195.643982,301.892717 194.71008,302.480729 L196.162817,302.601791 C202.821198,300.301623 195.592099,308.187913 197.027542,309.606062 C192.63474,309.398528 197.874972,304.556069 193.015219,304.798192 L188.380294,312.805543 L192.669329,314.656054 C192.375323,318.270604 187.878754,317.37129 186.304955,319.533102 L186.771906,314.13722 L178.124658,327.713399 L179.456334,329.304492 C176.896749,330.082745 175.634251,332.763391 174.371753,334.665786 L174.371753,334.665786 C173.52524,336.183535 171.999538,337.20067 170.272957,337.398316 L171.189566,338.470575 C168.163029,343.658924 162.940091,338.470575 159.377425,343.364917 C157.423147,335.201915 148.23977,342.776904 142.082929,338.868348 C138.96992,339.646601 132.830374,337.726912 133.280031,343.537862 C132.294245,342.621254 132.363423,341.635468 132.017533,340.960982 C127.572847,342.949849 123.370285,336.775714 121.640835,341.047455 C117.248033,336.862187 115.051633,345.059778 111.800267,340.701565 C102.357473,343.468684 88.3662257,341.497112 77.7819943,340.165436 C71.7462153,344.956011 64.1539317,335.668867 59.0174665,340.009785 C50.1280957,335.305682 44.8532746,337.553967 35.7390753,335.011676 C32.2801762,337.4502 29.9281248,342.050536 25.6217954,343.485979 C24.8954265,342.967144 22.8200871,341.548995 24.3765917,340.909099 L22.4050192,340.736154 C20.6755696,342.223481 19.0325925,342.465603 18.0641007,345.301901 C15.4872209,344.748477 14.3457842,345.128956 12.2185612,344.281526 C12.6336291,343.641629 13.5156484,343.45139 13.3254089,342.897966 C12.0283217,340.355675 11.3711309,341.047455 9.36496941,343.053616 C7.28962993,348.103609 13.5156484,344.783066 15.4007484,347.532891 C12.9968135,349.26234 13.8788328,350.282716 13.4464704,352.807712 C9.65897584,353.72432 5.92336477,352.669356 3.27730693,356.266611 C3.98638125,360.434585 9.0190795,356.560617 10.4891116,358.37654 C17.8392723,355.661304 23.8923458,359.362326 29.1152835,363.703244 L29.1152835,363.703244 C30.844733,365.069509 32.3666487,366.539541 33.8366808,367.836629 L35.4450689,366.487658 L37.1745185,368.217108 C38.4543111,364.637147 42.5704011,366.971904 45.3029314,365.934234 C46.9459085,362.734752 52.2207297,366.556836 53.6907618,363.772422 L53.6907618,363.772422 C53.7893142,363.604556 53.8649298,363.424242 53.9155903,363.236293 C54.0167209,363.423754 54.1323708,363.603012 54.2614802,363.772422 L54.2614802,363.772422 C56.4578812,366.591425 61.1792785,365.052215 64.4998216,366.159063 C66.5751611,366.971904 66.6270446,369.617962 69.6881703,369.081832 L67.3188244,367.871218 C69.1693355,364.723619 70.2242997,368.044163 72.0229273,364.861975 C73.8388493,366.141768 73.9944998,368.614881 76.5540851,369.669845 C77.7301108,368.684059 78.5775411,366.92002 80.2032237,367.508033 C81.8462008,367.698273 84.8900321,366.971904 84.4403752,369.877379 L86.0833523,368.044163 C90.3032092,368.424642 94.4884772,365.605639 96.1833377,370.897754 L96.3389882,369.445017 C96.3389882,366.971904 98.9677515,366.971904 100.489667,366.850842 C103.844799,371.693301 106.715686,364.308552 110.866365,367.715567 C110.863641,366.38077 111.079807,365.054559 111.506261,363.789717 L111.506261,363.789717 C111.621478,363.018955 112.28344,362.448591 113.062766,362.448591 C113.842091,362.448591 114.504053,363.018955 114.61927,363.789717 C114.694682,364.254295 114.828325,364.70752 115.017044,365.138687 L112.007801,365.38081 C112.509342,370.396214 119.600085,365.484577 120.931761,371.087994 C123.992887,368.684059 130.616679,369.15101 129.907604,363.997251 L130.167022,363.807011 L130.167022,363.807011 C130.666966,363.505465 131.29276,363.505465 131.792704,363.807011 L131.792704,363.807011 C132.707343,364.525012 133.496337,365.389984 134.127461,366.366597 L135.718555,365.017626 L139.281221,369.289366 C141.097143,369.099127 140.820431,367.715567 141.010671,366.453069 C143.08601,364.343141 146.977272,362.319685 148.464598,366.141768 C148.448831,365.371962 148.500916,364.602264 148.620249,363.8416 C148.730986,363.565699 148.949655,363.34703 149.225556,363.236293 C149.951925,363.236293 150.955006,362.838519 151.543018,363.807011 C151.575683,363.850615 151.60461,363.896898 151.629491,363.945367 C151.404662,370.863165 161.504648,368.30358 157.890098,376.829766 C160.328622,374.719838 163.078447,375.204084 166.070395,373.595696 C168.093851,373.595696 170.912854,370.586453 172.434769,374.65066 C170.791792,375.1522 170.065423,376.38011 169.148815,377.832847 L177.346406,385.926671 L178.954794,384.612289 L177.675001,382.502361 C179.179623,379.579591 181.912153,381.793287 184.091259,382.069999 C187.238857,381.897054 186.304955,378.126854 187.550158,376.466582 C190.922585,373.232511 191.908371,369.237483 195.246209,367.26591 C197.892267,368.390053 193.845355,369.393133 194.934908,370.724809 C200.123257,369.981146 194.692785,366.781664 198.947231,364.637147 C199.198038,364.335004 199.482335,364.062311 199.794661,363.824306 L199.794661,363.824306 C200.954971,362.924286 202.577496,362.924286 203.737806,363.824306 L203.737806,363.824306 C204.589232,364.441745 205.272892,365.262137 205.726673,366.210946 C208.978039,368.614881 211.295501,367.214027 213.630258,366.401186 C212.875368,365.723621 212.374953,364.808227 212.212109,363.807011 L212.212109,363.807011 C212.110752,362.381343 212.642119,360.983342 213.664847,359.984928 C215.394296,358.255478 216.189843,360.607529 216.466555,362.198623 C218.541895,359.587154 220.807474,363.616772 221.654904,359.690921 C224.456612,359.345031 223.003875,361.766261 223.384353,363.807011 L223.384353,363.807011 C223.428819,364.161745 223.546613,364.503346 223.730243,364.810092 C224.598401,365.405295 225.716474,365.497371 226.670308,365.052215 C226.307123,364.654441 225.926644,364.256668 225.546165,363.789717 C224.176373,362.543195 224.031512,360.438903 225.21757,359.016436 C225.943939,358.117122 226.739486,359.794688 228.123045,359.742805 C230.993932,359.414209 229.281776,357.909588 231.357116,356.595206 C235.33485,354.969524 235.213789,359.172086 236.856766,361.506843 L232.636909,363.789717 L230.630747,364.896564 C230.598677,365.557734 230.306491,366.179406 229.817906,366.626014 C232.429375,365.692111 234.660365,372.627204 238.655393,368.99536 C242.460182,367.905807 237.548545,364.498791 241.612752,363.807011 C242.269943,364.273963 242.442888,365.173276 242.339121,366.349302 L245.313774,366.124474 L244.621994,368.528408 C248.824557,361.506843 248.323016,372.592615 252.058627,368.199813 L256.243895,365.588344 C256.451429,371.451178 261.432244,364.602558 263.472994,367.698273 L263.161694,363.720539 L263.023338,361.748966 C262.487208,361.973795 261.605189,362.164034 261.899195,363.132526 L258.250057,359.345031 C259.408788,357.408048 262.902276,358.705135 263.576761,360.815063 L265.18515,359.483387 C268.401926,366.089885 271.307401,355.730482 276.011504,359.933044 C275.354313,361.26472 276.132565,362.423452 277.740953,363.028759 C277.526759,363.367695 277.193695,363.614409 276.807051,363.720539 L276.807051,363.720539 C275.631025,364.239374 274.039931,364.395024 275.475374,366.26283 C278.069549,368.735942 279.539581,366.26283 281.978105,365.328927 C282.687179,365.692111 282.081872,366.76437 282.254817,367.853923 L289.172615,367.95769 C289.187863,366.398989 289.758103,364.896743 290.781003,363.720539 L290.781003,363.720539 C290.978068,363.47887 291.273367,363.338636 291.585197,363.338636 C291.897028,363.338636 292.192326,363.47887 292.389391,363.720539 C292.380993,363.760456 292.380993,363.801683 292.389391,363.8416 C292.389391,363.8416 292.389391,363.8416 292.389391,363.720539 L292.389391,363.720539 C291.905145,362.198623 291.196071,361.160953 293.219527,360.451879 C295.070038,357.183219 298.528937,360.209756 298.978594,362.440746 L296.246064,363.703244 C297.002293,363.408042 297.841886,363.408042 298.598115,363.703244 L298.598115,363.703244 C300.863694,364.585263 302.696911,366.989198 304.045881,363.703244 L304.045881,363.703244 C304.045881,363.478416 304.218826,363.201704 304.339888,362.890403 C303.023001,362.885708 301.79075,362.24055 301.036639,361.160953 L303.146568,359.431504 C306.518994,360.399996 308.075499,357.805821 310.980974,360.624824 C310.980974,359.535271 310.635084,358.393834 311.655459,358.220889 C314.145867,357.615582 315.598604,359.206675 317.328054,361.178248 L320.008701,358.929963 C323.4676,358.808902 327.981463,357.33887 329.105606,362.198623 C330.816851,360.534884 332.016945,358.416718 332.564505,356.093666 C333.256285,359.154792 338.410044,358.134417 339.482303,356.681679 C337.977682,359.535271 345.93315,363.115231 338.911585,363.599477 L338.911585,363.599477 L338.755934,363.599477 C336.230938,367.058376 340.485384,368.268991 341.782471,370.275153 C344.030755,369.635256 344.324762,367.80204 345.120309,366.107179 L346.486574,367.698273 C346.661155,366.829157 347.264713,366.107951 348.089462,365.782944 C348.914211,365.457937 349.847518,365.573514 350.568075,366.089885 C350.39513,365.190571 350.758314,364.360435 350.568075,363.858895 L350.568075,363.858895 C350.507008,363.755981 350.424414,363.667487 350.325952,363.599477 C349.779899,363.657498 349.237261,363.744089 348.700269,363.858895 L348.613797,363.858895 C347.360709,364.152036 346.048895,364.067791 344.843597,363.616772 L344.73983,363.616772 C344.376048,363.359392 344.108316,362.988217 343.978872,362.561807 C345.812088,359.690921 349.495816,361.351193 351.190677,359.241264 C353.646495,359.466093 353.387078,361.731672 353.611906,363.876189 L353.611906,363.876189 C353.767556,365.605639 354.182624,367.11026 356.379025,367.6118 L358.454365,366.297419 C359.353679,365.03492 359.353679,364.325846 358.938611,363.876189 L358.938611,363.876189 C357.883646,362.821225 354.269097,363.322765 353.905912,361.9565 L354.943582,361.074481 C356.576748,359.439328 358.930379,358.748765 361.188113,359.242316 C363.445847,359.735867 365.296637,361.345536 366.098532,363.513005 C366.049744,363.641181 365.985882,363.763099 365.908292,363.876189 C364.732267,365.519166 361.878675,364.18749 362.795283,367.698273 L368.104693,369.15101 C368.710001,367.041082 370.577806,365.467283 370.802635,363.962662 L370.802635,363.962662 C370.889107,363.132526 370.560512,362.233212 369.263425,361.403076 L375.489443,357.944177 L376.700058,361.039892 C380.366491,359.414209 388.564082,365.813173 388.719732,359.120203 C391.417674,359.690921 391.106373,362.008384 392.299693,363.910778 C392.522252,364.296506 392.808818,364.641554 393.147123,364.931153 C392.334282,365.155982 391.798152,365.951529 391.089078,365.743995 L390.933428,367.715567 L392.905,367.853923 C393.856197,367.26591 393.060651,365.363516 393.199007,364.395024 L393.614074,363.876189 C394.305854,363.14982 395.049518,362.492629 396.260132,363.184409 C397.574514,355.79966 402.503445,362.890403 406.256351,362.077562 C405.823988,363.011464 405.927755,363.461121 406.256351,363.720539 L406.256351,363.720539 C406.394707,363.720539 406.256351,363.824306 406.498474,363.858895 L406.584946,363.858895 C408.089567,364.083723 410.56268,363.858895 409.300182,366.798959 C412.032712,367.058376 411.825178,365.207865 412.29213,363.599477 C412.463379,363.21282 412.754413,362.89147 413.122266,362.682869 C413.368605,362.740997 413.574968,362.908333 413.68274,363.137347 C413.790511,363.366361 413.787915,363.63203 413.675689,363.858895 L413.675689,363.858895 C413.450861,364.671736 412.741787,365.674817 413.779456,366.677897 C416.805993,360.538351 419.901708,370.327036 424.017798,368.061457 C423.827558,366.695192 423.291429,365.207865 423.032012,363.8416 L423.032012,363.8416 C422.541667,362.333738 423.037829,360.679864 424.277215,359.690921 C425.14194,359.829277 427.736114,361.904617 429.638509,360.175167 C429.880632,360.642118 430.814535,361.160953 430.918302,362.250507 L433.910249,356.595206 C436.123945,355.730482 435.916411,357.926883 436.141239,359.258559 C437.092437,358.791607 439.185071,360.192462 439.600138,358.549484 L438.68353,357.511815 C437.455621,356.577912 438.68353,355.782365 439.358016,355.592126 C440.22274,356.889213 443.404928,356.681679 444.650131,357.580993 L443.716228,356.474145 C447.590195,352.409939 447.590195,359.56986 450.789677,360.555646 L454.940356,357.961472 C453.816214,357.165925 452.449949,358.618662 451.481457,357.165925 L453.210907,354.346922 C451.256629,353.240074 450.270842,351.545214 451.118273,350.196243 C452.709366,351.925693 457.015696,349.054806 458.848912,351.925693 C458.087954,352.548294 457.015696,351.925693 456.34121,352.236994 C454.179398,355.055996 458.5722,355.419181 460.388122,357.027569 C461.788976,359.777394 455.199774,359.811983 458.848912,363.305471 C460.578362,358.929963 466.45849,361.437665 468.758658,357.252397 C470.712936,357.84041 472.770981,354.07021 474.707965,357.252397 C475.434334,357.736643 474.586903,358.757018 474.465842,359.708216 C478.720288,359.500682 479.204534,356.716268 482.870967,354.018327 C488.439794,357.736643 478.564637,360.175167 483.856753,363.893484 L483.856753,363.893484 C483.883099,363.930965 483.918902,363.960801 483.96052,363.979956 C471.698722,365.553755 477.734501,377.331307 473.186049,385.26948 C473.095443,384.530608 472.647653,383.88339 471.988166,383.538109 C471.32868,383.192828 470.541656,383.193546 469.8828,383.540031 C469.018076,385.26948 464.002672,386.272561 467.893933,389.281803 C467.323215,387.794477 468.810542,387.552354 469.623383,386.964341 C470.816703,386.359034 471.439305,387.673415 472.442386,388.69379 C472.30291,391.673961 471.184406,394.524931 469.260199,396.804909 L467.167565,392.671524 C465.26517,391.927861 464.054555,392.930942 463.051475,394.314502 L463.950788,395.369466 C461.062608,396.355252 460.976135,398.949426 460.491889,401.474423 L462.013805,401.111238 L462.255928,404.103186 C467.305921,417.074058 468.257118,406.299587 475.520806,404.777671 C477.250256,400.367575 479.360184,399.070488 479.879019,394.262618 C482.317543,392.187279 483.424391,388.071189 487.782603,388.53814 L487.938254,387.085402 C493.922149,384.940885 490.895613,377.38319 495.911016,374.979255 C493.472493,373.249806 496.30879,371.831657 496.291495,370.569159 C497.865294,366.643308 501.306899,369.825496 502.379158,368.614881 C501.935998,367.076827 502.039903,365.432689 502.673164,363.962662 L502.673164,363.962662 C503.126049,362.879814 503.946797,361.991692 504.990627,361.45496 C505.094394,361.766261 505.924529,362.077562 505.838057,363.011464 C508.432231,361.697083 512.531027,364.516085 513.482224,360.244345 L514.8139,361.835439 C513.309279,363.564888 515.592153,363.253587 516.266638,363.270882 C516.612528,362.406157 516.699,360.711296 518.324683,361.662494 C519.154819,361.247426 519.431531,361.748966 519.500709,362.440746 C520.036838,361.074481 522.492656,361.506843 523.374676,360.105989 C522.181355,355.488359 528.320901,359.984928 528.805147,354.640928 L531.572267,356.889213 L530.223296,355.298119 C532.436991,351.216618 536.881677,348.380321 540.599993,349.279635 C540.184925,349.919531 540.599993,351.009084 539.908213,351.68357 C542.502388,351.68357 544.404782,352.513705 546.410944,350.766961 L544.681494,348.138198 C544.681494,346.408749 546.410944,346.408749 547.759914,346.944878 C554.504768,350.178949 544.110776,348.899156 548.140393,353.862676 C544.940912,353.655142 539.804446,358.722429 538.230647,354.018327 C536.414725,354.018327 535.878596,355.747776 535.498117,357.217808 C538.81866,358.635957 544.508549,357.062158 544.508549,361.472254 C547.085429,362.855814 546.635772,358.117122 549.696898,358.947258 L550.613506,359.984928 C547.829092,360.555646 550.613506,361.904617 550.3195,363.443827 C550.452754,363.635851 550.603265,363.815306 550.769157,363.979956 L550.769157,363.979956 C551.032036,364.289769 551.417809,364.468369 551.824121,364.468369 C552.230433,364.468369 552.616206,364.289769 552.879085,363.979956 L552.879085,363.979956 C554.037816,362.99417 555.092781,360.76318 556.459046,360.521057 C555.386787,360.105989 554.228056,360.521057 554.037816,359.811983 C553.103914,356.560617 555.646205,357.165925 557.341065,356.162844 L555.092781,353.482197 C556.303395,352.427233 558.759214,351.268502 560.056301,353.482197 C559.865575,354.363784 559.448317,355.180419 558.845686,355.851543 C560.730786,358.272773 556.804936,362.267801 561.699278,362.99417 C564.973413,363.065019 568.121151,361.730378 570.346526,359.327737 L569.550979,356.80274 C573.891897,355.073291 569.032144,345.924503 577.24703,348.155493 C578.232816,353.482197 577.24703,359.933044 574.445321,363.236293 L576.36501,363.893484 L577.108674,361.005303 C578.405761,362.734752 583.230925,364.464202 584.562601,360.659413 C589.024581,357.010274 587.623727,362.164034 589.526122,364.118312 L589.526122,364.118312 C590.059342,364.642357 590.813991,364.874557 591.549578,364.740914 C592.290184,364.760999 593.017669,364.542754 593.624917,364.118312 L593.624917,364.118312 C595.094949,363.097937 595.75214,361.074481 597.412412,359.829277 C598.242547,358.341951 600.698366,358.566779 601.822508,360.192462 C601.40744,361.921911 601.632269,363.218998 602.635349,363.979956 L602.635349,363.979956 C604.573898,365.065262 606.907084,365.186715 608.94784,364.308552 L609.449381,364.03184 L609.241847,364.03184 C610.504345,362.821225 609.241847,360.036811 612.112733,362.094856 C613.340642,360.521057 615.79646,357.650171 613.582765,356.3012 L617.958272,351.752748 L619.791489,353.37843 L618.701936,354.277744 C621.29611,355.298119 619.981728,359.137497 618.701936,360.175167 L621.970595,362.45804 C620.068201,365.03492 617.560499,362.267801 616.48824,364.18749 C616.48824,364.273963 616.401768,364.395024 616.367179,364.516085 L621.693884,365.968823 C621.950648,365.42812 622.086393,364.837922 622.091657,364.239374 C622.091657,362.596396 621.884123,361.022597 624.56477,361.316604 L622.83532,357.68476 C623.734634,356.854624 622.524019,353.91456 625.049016,354.934935 C625.204666,355.367297 626.017507,355.920721 626.363397,357.044863 L625.982918,355.540242 C626.916821,354.173977 627.401067,351.614392 629.683941,352.87689 L629.407229,355.834249 L635.321946,355.834249 C635.414158,354.236468 636.268534,352.780325 637.61834,351.920423 C638.968146,351.060521 640.648938,350.901621 642.135977,351.49333 C642.585634,350.109771 644.851213,348.034431 643.06988,346.633577 L640.475706,347.878781 C634.353454,344.073992 624.478297,342.932555 620.483269,345.163545 L621.347994,346.201215 C620.587036,346.322276 620.241146,347.152412 619.791489,347.065939 C619.324538,346.581693 618.978648,346.304982 619.393716,346.02827 C616.453651,345.33649 610.746468,345.820736 608.290649,343.088205 C606.394942,343.809226 605.360521,345.855582 605.904009,347.809603 C606.509316,349.158573 604.970106,352.738534 608.463594,352.479116 L605.402469,353.689731 L607.131918,356.318495 C604.503155,357.857705 600.421654,353.551375 598.692204,357.062158 L598.277136,356.041783 C597.965835,353.585964 600.231414,354.658223 601.459324,353.343841 C600.957783,352.115932 599.003505,350.109771 600.871311,348.864567 C601.338262,347.602069 602.60076,347.705836 603.344424,349.072101 C603.101673,347.96103 603.596038,346.819117 604.572333,346.235804 C602.047336,343.728102 597.931246,341.497112 594.973888,342.91526 C582.867741,343.641629 569.343445,340.718859 558.084728,341.185811 L555.888327,343.95293 C551.374464,341.531701 547.759914,337.986329 543.211462,341.860296 C540.098453,339.421772 531.416616,342.75961 528.597613,339.612012 C524.948475,341.548995 522.89043,337.294549 521.333925,335.115443 L521.472281,335.115443 C521.128971,334.636796 520.693944,334.231163 520.192488,333.922123 C521.679815,334.233424 522.838546,330.636168 523.651387,334.216129 C532.12569,333.541644 530.569186,323.286008 535.255994,320.380533 C537.158389,316.921633 535.359761,317.734475 535.255994,314.44852 C537.227567,313.307084 540.340576,311.491162 540.772938,313.929686 C544.058892,307.271305 547.517792,301.512238 553.086619,297.240497 C552.671551,290.495644 565.504067,290.634 561.733867,283.664318 C565.192766,279.617406 567.008688,272.492074 571.954914,274.186935 C575.240868,271.990534 576.831962,264.692256 579.927676,262.080788 L581.259353,263.671881 L585.202498,258.103054 C582.954213,255.629941 581.743598,257.272918 580.204388,259.140723 C579.097541,259.002367 578.890007,258.120348 579.322369,257.584219 C580.342744,253.070355 585.271676,255.958536 587.347015,256.32172 C585.617566,251.133372 592.777487,247.674473 594.264813,245.54725 L593.382794,244.474991 C595.59649,241.43116 598.571143,236.77894 603.29254,238.456506 C605.575414,236.035277 605.194935,232.022954 606.388255,231.279291 C611.32841,224.905586 617.151802,219.268543 623.682751,214.538219 C626.79576,206.77299 635.961842,202.15536 638.711667,195.099206 C642.084094,191.432773 639.022968,188.337058 642.170566,184.532269 C642.896935,184.220968 644.021077,181.263609 645.197103,183.823195 C644.60909,185.760178 641.565259,189.928152 645.612171,190.740993 L645.767822,188.76942 C648.759769,186.330896 649.849322,180.986897 654.311302,181.142548 C661.471224,170.76585 670.914018,161.720829 679.578561,152.226151 C680.598936,152.693102 684.213485,152.035912 683.746534,149.614682 C688.035569,145.083524 696.008331,141.347913 697.374597,135.000833 C715.412756,119.937328 732.672662,104.545226 750.987533,86.8529573 C751.246951,81.7510811 742.720764,80.2637545 748.01288,75.7498911" id="Path" fill="#231F20" fill-rule="nonzero"></path>
                <path d="M221.983499,267.66691 C222.225622,265.107324 221.827849,262.616917 222.588807,260.749111 L219.787098,263.89671 C220.772885,265.280269 221.983499,265.954755 221.983499,267.718793" id="Path" fill="#231F20" fill-rule="nonzero"></path>
                <path d="M221.983499,267.66691 C221.983499,268.099272 221.879732,268.51434 221.810554,268.946702 C221.912287,268.52723 221.970245,268.098339 221.983499,267.66691" id="Path" fill="#231F20" fill-rule="nonzero"></path>
                <path d="M471.335538,408.824583 L470.297868,409.239651 L471.335538,408.824583 Z" id="Path" stroke="#231F20" stroke-width="0.22"></path>
                <path d="M463.172536,406.143937 L462.082983,407.025956 L464.313973,409.706603 C456.029909,411.833826 464.452329,420.221656 456.773573,422.867714 C452.57101,420.169773 459.10833,416.174744 456.029909,414.393411 C455.822375,412.785023 458.018776,413.096324 458.243605,411.643586 C454.196693,408.599755 457.949598,406.801127 458.935385,403.791885 L458.727851,405.746163 L463.172536,406.143937 Z" id="Path" stroke="#231F20" stroke-width="0.22"></path>
                <path d="M63.2373235,371.122583 L59.7784243,370.344331 C59.6054794,368.735942 62.0785922,368.718648 62.7876666,369.617962 C63.7215693,369.220188 63.116262,370.396214 63.2373235,371.122583 Z" id="Path" stroke="#231F20" stroke-width="0.22"></path>
                <path d="M473.566528,400.142747 L471.128004,399.935213 L473.756767,398.205763 C474.275602,397.894462 474.085363,400.073569 473.566528,400.142747 Z" id="Path" stroke="#231F20" stroke-width="0.22"></path>
                <polygon id="Path" stroke="#231F20" stroke-width="0.22" points="8.24082719 350.507544 9.46873639 347.671247 10.852296 348.7608"></polygon>
                <path d="M210.413482,365.311632 L208.493793,364.654441 L210.672899,362.371568 C212.350465,362.976875 210.63831,364.066429 210.413482,365.311632 Z" id="Path" stroke="#231F20" stroke-width="0.22"></path>
                <path d="M0.112414222,341.894885 L1.61703535,341.531701 L0.112414222,341.894885 Z" id="Path" stroke="#231F20" stroke-width="0.22"></path>
                <path d="M273.175207,365.311632 C270.932239,365.625455 269.068873,367.199563 268.384631,369.358544 C266.447648,367.352383 264.683609,365.121393 267.969563,362.873108 C269.30124,363.772422 272.72555,365.674817 273.175207,365.311632 Z" id="Path" stroke="#231F20" stroke-width="0.22"></path>
                <path d="M313.263848,363.876189 L309.113169,365.986118 L307.470191,362.388863 C309.187676,363.502869 311.222138,364.025149 313.263848,363.876189 L313.263848,363.876189 Z" id="Path" stroke="#231F20" stroke-width="0.22"></path>
                <path d="M331.613307,368.441936 L329.382318,365.795878 C331.111767,365.795878 333.152518,366.020707 333.965359,364.222079 C334.743611,367.542622 331.336596,366.850842 331.613307,368.441936 Z" id="Path" stroke="#231F20" stroke-width="0.22"></path>
                <path d="M282.375878,361.178248 C282.375878,362.544513 280.473484,363.167115 279.245575,362.907697 L277.810131,362.769341 L278.951568,360.901536 L276.14986,359.172086 C278.000371,358.480306 280.093005,360.382701 282.375878,361.178248 Z" id="Path" stroke="#231F20" stroke-width="0.22"></path>
                <path d="M321.098254,364.585263 C320.060584,364.585263 320.458358,365.657522 320.441063,366.487658 C317.985245,363.028759 313.523265,365.674817 312.969841,361.299309 C316.411446,360.849652 318.642436,362.527218 321.098254,364.585263 Z" id="Path" stroke="#231F20" stroke-width="0.22"></path>
                <polygon id="Path" stroke="#231F20" stroke-width="0.22" points="384.966827 368.199813 384.119396 367.127554 386.039085 367.300499"></polygon>
                <path d="M377.32266,365.536461 C376.077456,366.210946 372.532084,367.386972 371.909482,365.069509 C373.483281,362.769341 375.299204,365.155982 377.32266,365.536461 Z" id="Path" stroke="#231F20" stroke-width="0.22"></path>
                <path d="M360.374054,361.593316 L360.719944,363.582183 L360.374054,361.593316 Z" id="Path" stroke="#231F20" stroke-width="0.22"></path>
                <path d="M473.791356,359.172086 C473.272522,361.005303 471.4566,359.172086 470.833998,358.912669 L473.791356,359.172086 Z" id="Path" stroke="#231F20" stroke-width="0.22"></path>
                <path d="M528.441963,360.002222 L530.43083,360.175167 L528.441963,360.002222 Z" id="Path" stroke="#231F20" stroke-width="0.22"></path>
                <path d="M540.70376,361.074481 L541.758724,360.192462 C541.188006,361.282015 538.299825,361.26472 537.27945,360.780474 L538.369003,359.396915 C538.974311,359.742805 539.216434,361.212837 540.70376,361.074481 Z" id="Path" stroke="#231F20" stroke-width="0.22"></path>
                <polygon id="Path" stroke="#231F20" stroke-width="0.22" points="630.756199 364.516085 631.811163 364.118312 631.638219 366.07259"></polygon>
                <path d="M667.178407,366.210946 C665.985087,366.297419 666.521216,367.317794 665.621903,367.075671 L664.722589,366.020707 C665.327896,365.311632 666.071559,365.449988 667.178407,366.210946 Z" id="Path" stroke="#231F20" stroke-width="0.22"></path>
                <path d="M534.54692,358.065239 L533.059593,357.926883 L533.440072,354.018327 C534.89281,353.828087 534.425858,356.370378 534.54692,358.065239 Z" id="Path" stroke="#231F20" stroke-width="0.22"></path>
                <path d="M684.92256,366.781664 C684.92256,370.03303 678.22959,367.732862 677.434043,367.6118 C678.869486,362.855814 681.6539,366.660603 684.92256,366.781664 Z" id="Path" stroke="#231F20" stroke-width="0.22"></path>
                <path d="M632.987189,361.748966 L631.032911,361.576021 C630.254659,359.950339 631.880341,359.846572 633.14284,360.278934 L632.987189,361.748966 Z" id="Path" stroke="#231F20" stroke-width="0.22"></path>
                <path d="M673.715727,364.810092 C672.107338,364.239374 673.715727,368.822415 671.000491,367.542622 C669.65152,365.622933 671.934393,360.624824 668.492789,362.354274 L666.38286,364.083723 C663.909747,361.835439 668.769501,361.005303 670.637306,360.521057 C671.778743,360.624824 673.162303,363.461121 673.715727,364.810092 Z" id="Path" stroke="#231F20" stroke-width="0.22"></path>
                <path d="M711.642556,365.674817 C709.653689,368.268991 706.073728,363.945367 709.463449,362.509924 L711.642556,365.674817 Z" id="Path" stroke="#231F20" stroke-width="0.22"></path>
                <path d="M691.010222,364.827386 C690.716216,365.622933 686.980605,364.827386 687.205433,363.097937 C686.046702,361.558727 683.867595,362.579102 684.196191,363.824306 C684.196191,360.365407 687.447556,362.181329 689.38454,360.815063 C690.456798,361.852733 687.810741,363.876189 691.010222,364.827386 Z" id="Path" stroke="#231F20" stroke-width="0.22"></path>
                <path d="M749.448323,368.476525 C745.816479,370.932343 747.943702,364.585263 745.107405,367.127554 C745.072816,362.354274 749.89798,365.311632 749.448323,368.476525 Z" id="Path" stroke="#231F20" stroke-width="0.22"></path>
                <polygon id="Path" stroke="#231F20" stroke-width="0.22" points="766.120217 364.03184 768.178262 363.236293 770.046067 364.37773"></polygon>
                <path d="M724.457777,360.382701 C720.445454,363.391943 728.331744,363.357354 728.331744,367.127554 C727.069246,367.698273 725.668392,367.127554 724.872845,367.317794 C722.157609,363.322765 713.908134,371.468473 713.752484,364.37773 C713.752484,362.198623 718.940833,362.907697 717.730218,358.791607 L724.457777,360.382701 Z" id="Path" stroke="#231F20" stroke-width="0.22"></path>
                <path d="M711.694439,359.742805 L712.835876,357.874999 C712.835876,358.549484 711.953856,358.964552 711.694439,359.742805 Z" id="Path" stroke="#231F20" stroke-width="0.22"></path>
                <path d="M777.932358,364.567969 C776.808171,365.074665 775.502791,364.970234 774.473458,364.291257 C775.320889,362.527218 776.773626,362.665574 777.932358,364.567969 Z" id="Path" stroke="#231F20" stroke-width="0.22"></path>
                <path d="M799.965545,361.057186 L795.123086,360.123284 C795.33062,359.345031 800.467085,357.200514 799.965545,361.057186 Z" id="Path" stroke="#231F20" stroke-width="0.22"></path>
                <path d="M792.217611,359.396915 C790.591928,362.630985 788.758712,358.290067 786.769845,359.396915 L785.507347,357.304281 C786.994673,358.480306 790.280627,357.062158 792.217611,359.396915 Z" id="Path" stroke="#231F20" stroke-width="0.22"></path>
                <polygon id="Path" stroke="#231F20" stroke-width="0.22" points="733.312559 355.246236 735.093892 351.925693 737.186526 356.041783"></polygon>
                <path d="M732.430539,354.173977 C730.407083,356.64709 724.993906,353.689731 724.717194,357.442637 C718.594943,351.873809 730.251433,348.587855 732.430539,354.173977 Z" id="Path" stroke="#231F20" stroke-width="0.22"></path>
                <path d="M781.63338,356.491439 C774.715581,364.343141 773.383905,353.620553 766.293162,356.64709 C767.486482,353.447608 771.896579,356.785446 774.369691,354.91764 C776.012668,357.269692 779.039205,356.439556 781.63338,356.491439 Z" id="Path" stroke="#231F20" stroke-width="0.22"></path>
                <path d="M750.710821,354.295039 C745.885657,354.398806 750.710821,357.667465 749.154317,360.57294 L745.885657,358.290067 C748.01288,356.923802 746.024013,354.295039 744.796104,353.758909 L742.807237,354.07021 L742.962887,352.115932 C744.865282,353.343841 749.55209,351.994871 750.710821,354.295039 Z" id="Path" stroke="#231F20" stroke-width="0.22"></path>
                <path d="M695.264668,349.919531 C699.069457,346.720049 707.88965,348.726211 713.458478,350.524838 C714.254024,352.254288 715.032277,353.188191 717.297856,352.340761 L718.421998,350.45566 L721.725247,352.18511 C719.995797,351.960282 720.722166,357.079452 717.972341,355.79966 C717.972341,353.015246 715.08416,352.773123 713.268238,352.911479 C711.452316,353.049835 711.884678,355.315414 710.553002,355.626715 C708.979203,351.614392 705.451126,354.018327 702.908835,352.531 C702.908835,351.579803 702.130583,351.268502 702.078699,350.939906 C699.50182,352.894184 699.415347,355.350003 701.957638,357.857705 C702.459178,358.549484 703.981094,358.220889 705.416537,358.635957 L704.776641,360.57294 C700.781612,357.114041 695.247374,361.143659 693.050973,359.068319 L693.223918,357.079452 C694.209704,357.84041 695.126312,358.635957 696.682817,357.874999 C698.654389,356.871918 697.720487,354.934935 697.011412,353.966443 C696.358084,353.924109 695.80303,353.473128 695.627853,352.842301 C693.448746,355.419181 690.612449,352.842301 688.952177,355.730482 C689.298067,356.439556 690.456798,357.252397 690.162792,358.808902 C687.534029,358.601368 685.648929,358.808902 683.244994,358.653251 C683.971362,361.005303 682.916398,361.662494 680.391402,362.890403 L679.595855,360.832358 L682.138146,360.054106 C678.834897,357.477226 672.245694,359.37962 670.723779,355.10788 C667.368647,355.747776 669.962821,358.653251 667.07464,357.252397 C668.233371,350.334599 659.603418,355.903427 661.332868,349.348813 C660.208725,349.072101 659.603418,349.988709 659.257528,350.628605 L657.873968,349.556347 C655.314383,349.988709 655.677568,352.755828 656.45582,354.346922 L657.355134,355.419181 C658.262925,354.52609 658.867788,353.370801 659.084583,352.115932 L661.142628,356.750857 C660.57191,358.601368 655.245205,357.408048 658.358214,360.451879 C659.395884,357.753938 660.554615,360.209756 662.872078,359.846572 C662.543482,362.976875 658.721399,361.039892 657.251367,361.835439 C652.858565,362.336979 647.064909,361.973795 646.390423,367.300499 C645.421932,366.522247 644.366967,366.055296 644.660974,365.173276 L647.272443,363.443827 L642.966113,361.593316 L647.203265,358.514895 C648.016106,361.45496 650.869698,358.739724 652.391613,360.451879 C652.945037,356.491439 655.2625,362.596396 656.974655,358.87808 C651.99384,357.615582 656.974655,354.122094 652.996921,353.585964 C652.996921,352.392644 654.622603,351.303091 654.207535,350.715078 C652.910448,348.466793 650.748636,349.867648 649.76285,350.836139 C648.621413,352.133227 650.126034,356.024488 652.374319,355.021407 L653.290927,356.076372 L646.373129,355.95531 L648.967303,354.710106 C648.154462,353.828087 647.237854,353.741615 647.237854,353.084424 L647.929633,350.6459 C646.442307,350.213538 645.006864,349.60823 645.162514,348.466793 C649.676378,340.130847 651.475005,353.119013 657.268661,346.045564 C662.197592,347.896075 667.109229,345.613202 672.349461,348.345732 C677.19192,351.545214 682.190029,345.561318 686.185058,348.086315 C688.675465,345.561318 691.944125,349.072101 695.264668,349.919531 Z" id="Path" stroke="#231F20" stroke-width="0.22"></path>
                <path d="M764.82313,356.508734 C763.456865,358.047944 757.507558,355.79966 756.677422,359.241264 C760.049849,357.511815 760.620567,362.475335 762.74779,363.236293 C761.485292,363.893484 758.700878,363.668655 760.5168,366.003412 C761.433409,368.839709 763.681693,363.997251 765.359259,367.421561 C763.09368,367.871218 760.395739,369.272072 758.268516,369.272072 L754.653966,365.484577 C751.402601,362.285096 752.561332,358.324656 751.662019,354.364217 C756.05482,352.703945 760.689745,351.873809 764.82313,356.508734 Z" id="Path" stroke="#231F20" stroke-width="0.22"></path>
                <path d="M200.01949,292.242388 L200.278907,294.732795 L200.01949,292.242388 Z" id="Path" stroke="#231F20" stroke-width="0.22"></path>
                <path d="M221.810554,268.946702 C222.554218,266.1277 220.997713,265.487803 219.787098,263.844826 L224.733324,258.345176 C220.807474,260.43781 222.675279,264.657667 221.810554,268.946702 Z" id="Path" stroke="#231F20" stroke-width="0.22"></path>
                <path d="M257.316154,224.171253 C253.200064,225.987175 258.163584,234.080999 251.626265,233.060624 C253.407598,230.587511 253.788077,224.828444 257.316154,224.171253 Z" id="Path" stroke="#231F20" stroke-width="0.22"></path>
                <path d="M284.88358,180.139467 L284.105328,177.614471 C285.454298,177.476115 284.693341,179.119092 284.88358,180.139467 Z" id="Path" stroke="#231F20" stroke-width="0.22"></path>
                <path d="M303.648108,162.966033 L304.028587,164.453359 L303.648108,162.966033 Z" id="Path" stroke="#231F20" stroke-width="0.22"></path>
                <path d="M737.618888,63.2632652 L735.612727,63.5745661 C735.785672,62.5023074 736.667691,62.2255955 737.618888,63.2632652 Z" id="Path" stroke="#231F20" stroke-width="0.22"></path>
                <polygon id="Path" stroke="#231F20" stroke-width="0.22" points="422.807183 37.1658712 421.994342 35.1251207 423.343313 36.7162143"></polygon>
                <path d="M428.825668,37.1831657 L428.030121,35.1424152 L428.825668,37.1831657 Z" id="Path" stroke="#231F20" stroke-width="0.22"></path>
                <path d="M469.969273,413.148207 L465.489999,419.183986 C465.104484,416.26613 466.296094,413.362816 468.620302,411.557114 C469.433144,411.038279 470.211396,412.006771 469.969273,413.148207 Z" id="Path" stroke="#231F20" stroke-width="0.22"></path>
                <path d="M307.591253,177.233992 C305.066257,173.654031 314.232339,167.53178 307.401013,165.335379 C308.127382,156.87837 319.904934,157.673917 315.702371,149.286087 C315.425659,145.308353 318.348429,144.201505 321.634383,143.838321 C322.895535,138.343978 325.935241,133.419654 330.281631,129.829779 L327.825813,129.570362 C328.673243,126.71677 330.523754,122.445029 333.377346,122.652563 L333.08334,126.111463 C336.092582,127.840912 334.812789,123.44811 336.767067,123.482699 C344.411234,119.089897 346.832464,109.318507 355.133822,105.340773 L356.292553,108.903439 C357.762585,107.295051 359.958986,106.13632 359.751452,103.715091 C358.921316,105.531013 361.273368,105.254301 361.947853,106.879983 C358.990494,101.691635 367.827981,99.7892401 365.406752,94.3414739 C369.920615,93.1654482 370.992874,88.0808665 373.725404,84.224194 C376.942181,79.2087902 384.102102,83.6707701 382.372652,75.1099947 L385.987202,72.9481828 C385.848846,75.3175287 388.667849,74.210681 390.258942,74.7986938 C393.320068,71.7721571 390.795072,65.3904882 395.13599,64.4219964 L395.291641,62.4850129 C397.989582,62.3639514 397.436158,62.7271358 399.580675,64.3355239 C401.310125,60.3232009 406.498474,59.1471752 407.32861,55.1175577 L405.357037,54.9446128 C409.127237,53.3535192 410.095729,45.1732227 415.612673,45.0002778 C415.854796,45.6747631 415.854796,48.4591769 417.843663,47.6636301 C419.711468,45.3980512 422.599649,43.6686016 421.942458,40.12323 C425.401358,39.7254566 430.243816,39.1720327 431.748437,35.5228941 C429.75957,33.6723831 429.275325,32.167762 426.560089,32.6174189 L423.637319,34.7619363 C423.153073,30.7150243 417.809074,29.7292381 414.799832,28.051672 C407.760972,27.4982481 407.605321,19.4044242 400.168688,20.3729159 C400.860468,14.5619654 405.011147,15.3056287 409.144532,13.7318296 C407.155665,12.00238 407.294021,8.94125427 407.83015,6.22601845 C411.617644,4.49656888 412.862848,1.66027159 417.030822,2.59417435 L415.768323,0 C419.538523,1.50462112 423.914031,0.536129366 428.133888,0 C428.133888,2.92276977 432.52669,2.43852389 434.290728,3.02653674 C435.708877,2.85359179 438.562469,0.155650461 439.185071,3.47619363 C439.673918,2.09616122 440.773214,1.01958043 442.163152,0.559649865 C443.553089,0.0997192962 445.077575,0.308089776 446.293108,1.12414222 C445.791568,6.08766248 449.371529,1.81592205 451.567929,3.04383124 L450.668616,1.988867 C456.738984,-0.605307349 460.906957,6.91779827 466.873558,2.92276977 C467.202154,4.25444594 470.332457,6.72755882 472.061907,5.34399917 L472.182968,3.87396703 C478.097686,10.3939919 485.240313,7.55769461 493.351431,10.6707038 L494.492868,8.8028983 C496.896803,13.7664186 505.353811,10.5323479 509.34884,13.5415901 C518.324683,11.4489561 531.036137,16.1357645 540.478932,18.7299388 L544.560433,17.1215507 L566.386086,21.4970581 L567.181633,24.0220545 C568.305775,23.831815 572.369982,21.9640095 572.369982,25.993627 C578.855418,21.0474012 589.335882,26.9275298 595.769434,29.4525261 C596.115324,31.0090308 596.962755,29.867594 598.225253,29.6427656 C606.872501,32.6865968 619.238065,32.0467005 624.547475,39.3622722 C625.308433,35.903373 628.594387,36.6989198 631.655513,37.0275153 C636.782107,39.2363737 642.08024,41.023626 647.497271,42.3715144 L645.767822,44.6716823 C650.26439,43.7896631 662.370537,43.5994236 667.07464,49.4968466 C675.185759,49.6524971 686.894132,50.9322898 691.442585,59.0434083 C691.40549,58.1308106 691.829701,57.2607076 692.571511,56.7278582 C693.313321,56.1950088 694.273326,56.0708155 695.126312,56.3973504 C699.121341,56.8297128 699.986065,64.9235368 705.122531,60.7382688 C705.018764,69.8005846 713.077999,60.7382688 718.266347,62.8827863 C721.258295,64.3182294 726.913595,62.8827863 728.245271,67.2064102 L730.389789,65.4769607 C730.770268,70.267536 735.422487,64.9927148 738.155017,67.2064102 L743.239599,65.6844946 C741.51015,67.0853487 742.720764,68.9185653 744.277269,70.232947 C746.733087,73.9512635 754.446432,67.6041836 754.226418,75.5250626 C752.094381,74.6776324 749.033255,73.89938 747.788052,75.5250626 C742.495936,80.038926 751.022122,81.5262526 750.762705,86.6281289 C732.465128,104.337692 715.222516,119.729794 697.149768,134.793299 C695.783503,141.123085 687.810741,144.858696 683.521706,149.389854 C683.988657,151.811083 680.374107,152.450979 679.353732,152.001323 C670.706484,161.496001 661.246395,170.558316 654.086474,180.917719 C649.624494,180.762069 648.534941,186.106068 645.542993,188.544592 L645.370048,190.49887 C641.340431,189.686029 644.384262,185.483466 644.972275,183.581072 C643.796249,181.038781 642.672107,183.99614 641.945738,184.30744 C638.867318,188.11223 641.945738,191.225239 638.486839,194.891672 C635.737014,201.930532 626.570931,206.565456 623.457922,214.31339 C616.918571,219.040416 611.093969,224.684455 606.163426,231.071757 C604.970106,231.798126 605.350585,235.793154 603.067712,238.214384 C598.380903,236.484934 595.371661,241.206331 593.157966,244.250163 L594.039985,245.322421 C592.604542,247.518822 585.513799,250.960427 587.122187,256.079598 C585.046847,255.733708 580.117916,252.845527 579.097541,257.35939 C578.665178,257.89552 578.872712,258.777539 579.97956,258.8986 C581.484181,257.048089 582.729385,255.439701 584.977669,257.878225 L581.034524,263.447053 L579.702848,261.855959 C576.607133,264.502017 575.01604,271.765705 571.730085,273.962106 C566.78386,272.232657 564.933349,279.375283 561.509039,283.422195 C565.348417,290.339994 552.515901,290.253521 552.861791,296.998374 C547.275669,301.270115 543.851358,307.029182 540.530815,313.687563 C540.115747,311.249039 537.071916,313.082255 535.031166,314.206398 C535.134933,317.492352 536.93356,316.662216 535.031166,320.13841 C530.327063,322.992001 531.900862,333.247637 523.426559,333.974006 C522.648307,330.41134 521.489576,333.974006 519.96766,333.697294 C521.697109,334.285307 523.703271,341.860296 528.372785,339.387183 C531.191788,342.517487 539.890919,339.196944 542.986634,341.635468 C547.552381,337.761501 551.149636,341.306872 555.646205,343.728102 L557.877194,340.960982 C569.118617,340.52862 582.694796,343.45139 594.749059,342.690432 C597.706418,341.289578 601.822508,343.520568 604.347504,346.02827 C603.376691,346.624746 602.88526,347.766806 603.119595,348.881861 C602.324048,347.498302 601.113434,347.37724 600.646482,348.657033 C598.778677,349.884942 600.646482,351.908398 601.25179,353.153602 C600.006586,354.450689 597.79289,353.37843 598.052308,355.834249 L598.467376,356.854624 C600.196825,353.395725 604.278326,357.650171 606.90709,356.110961 L605.17764,353.499492 L608.238766,352.271583 C604.779867,352.513705 606.284488,348.933745 605.679181,347.602069 C605.133689,345.652794 606.159673,343.608315 608.048526,342.880671 C610.521639,345.613202 616.228823,345.128956 619.168887,345.820736 C618.753819,346.080153 619.168887,346.37416 619.60125,346.858405 C620.016317,346.858405 620.362207,346.132037 621.123165,345.993681 L620.25844,344.938716 C624.253469,342.725021 634.094037,343.866458 640.250877,347.688541 L643.277414,346.287687 C645.006864,347.72313 642.793168,349.746586 642.343511,351.14744 C640.856639,350.547434 639.171506,350.702625 637.819228,351.564101 C636.466951,352.425578 635.614101,353.887223 635.52948,355.488359 L629.614763,355.488359 L629.891474,352.531 C627.608601,351.268502 627.124355,353.828087 626.190452,355.194352 L626.570931,356.681679 C626.242336,355.592126 625.4122,354.952229 625.25655,354.589045 C622.731553,353.56867 623.959462,356.526028 623.042854,357.33887 L624.772304,360.970714 C621.019398,360.57294 623.042854,363.703244 621.901417,365.657522 L616.574713,364.18749 C617.491321,361.731672 620.171968,364.931153 622.178129,362.233212 L618.90947,359.950339 C620.223851,358.912669 621.538233,355.055996 618.90947,354.052916 L619.999023,353.136307 L618.165806,351.527919 L613.773004,356.059077 C616.003994,357.408048 613.548176,360.296229 612.320267,361.852733 C609.276436,359.673627 610.936707,363.011464 609.155374,364.066429 C605.281407,365.795878 601.096139,364.066429 602.09922,359.950339 C600.975078,358.324656 598.519259,358.082533 597.689124,359.604449 C595.40625,361.333898 595.025771,364.464202 591.826289,364.516085 C586.845475,364.965742 590.338963,355.868838 584.770135,360.434585 C583.455754,364.18749 578.647884,362.527218 577.333502,360.76318 L576.589839,363.668655 L574.67015,363.011464 C577.40268,359.708216 578.457644,353.257369 577.471858,347.930664 C569.256973,345.786147 574.116726,354.986818 569.758513,356.577912 L570.571354,359.120203 C568.347768,361.527371 565.200488,362.868112 561.924106,362.80393 C557.029764,362.060267 560.955615,358.065239 559.070515,355.644009 C559.680007,354.977623 560.098264,354.159034 560.281129,353.274663 C558.984042,351.112851 556.528224,352.271583 555.334904,353.274663 L557.565894,355.95531 C555.836444,356.958391 553.328742,356.370378 554.262645,359.604449 C554.452884,360.296229 555.611616,359.898455 556.683874,360.313523 C554.43559,360.659413 553.05203,366.591425 550.527034,363.218998 C550.890218,361.697083 548.036626,360.365407 550.82104,359.760099 L549.921726,358.722429 C546.89519,357.874999 547.344847,362.630985 544.733378,361.230131 C544.733378,356.837329 539.043489,358.411129 535.722945,357.010274 C536.08613,355.592126 536.639554,353.793498 538.455476,353.776204 C540.029275,358.514895 545.16574,353.430314 548.365222,353.637848 C544.352899,348.657033 554.729596,349.936826 547.984743,346.720049 C546.5493,346.253098 544.906323,346.253098 544.906323,347.91337 L546.635772,350.542133 C544.629611,352.271583 542.727216,351.354974 540.133042,351.458741 C540.807527,350.818845 540.409754,349.729292 540.824822,349.054806 C537.089211,348.138198 532.644525,350.99179 530.448124,355.073291 L531.7798,356.664384 L529.029976,354.433394 C528.54573,359.760099 522.406184,355.26353 523.599504,359.881161 C522.475362,361.61061 518.635984,360.365407 519.794715,363.997251 C519.673653,362.80393 520.054132,360.745885 518.549511,361.437665 C516.820062,360.451879 516.820062,362.440746 516.404994,363.167115 C517.840437,362.613691 512.946095,363.772422 515.038729,361.576021 L513.707052,360.002222 C512.755855,364.256668 508.65706,361.437665 506.062885,362.769341 C506.062885,361.835439 505.319222,361.506843 505.198161,361.195542 C502.794363,362.705317 501.725155,365.656331 502.603986,368.355464 C501.531728,369.583373 498.090123,366.435775 496.516324,370.327036 C496.516324,371.589534 493.697321,372.938505 496.135845,374.737132 C491.120441,377.192951 494.146978,384.716056 488.180377,386.843279 L488.007432,388.296017 C483.649219,387.84636 482.542371,391.945156 480.103847,394.020495 C479.585012,398.828365 477.509673,400.125452 475.745634,404.535548 C468.481946,406.057464 467.530749,416.849229 462.480756,403.843769 L462.238633,400.88641 L460.716718,401.2323 C461.235553,398.707303 461.322025,396.043951 464.175617,395.127343 L463.276303,394.072379 C464.279384,392.688819 465.489999,391.685738 467.375099,392.429402 L469.485027,396.562786 C471.409235,394.282809 472.527739,391.431838 472.667214,388.451668 C471.664133,387.413998 471.041532,386.116911 469.848211,386.722218 C469.069959,387.292936 467.582632,387.535059 468.118762,389.022386 C464.244795,385.995849 469.260199,384.958179 470.124923,383.280613 C470.784753,382.942733 471.567562,382.94628 472.224304,383.290123 C472.881046,383.633967 473.329939,384.275292 473.428172,385.010063 C477.976624,377.0373 471.95814,365.294338 484.202643,363.703244 C478.616521,359.950339 488.699212,357.49452 483.078501,353.741615 C479.412068,356.422262 478.927822,359.22397 474.673376,359.431504 C474.794437,358.480306 475.641867,357.459931 474.915499,356.975685 C472.978515,353.758909 470.903176,357.529109 468.966192,356.975685 C466.666024,361.143659 460.716718,358.705135 459.056446,363.046053 C455.424602,359.587154 461.99651,359.500682 460.595656,356.750857 C458.866207,355.142469 454.386932,354.76199 456.548744,351.960282 C457.22323,351.648981 458.278194,352.271583 459.056446,351.648981 C457.22323,348.847272 452.9169,351.648981 451.325807,349.919531 C450.478376,351.285796 451.446868,352.963362 453.418441,354.052916 L451.688991,356.871918 C452.57101,358.359245 453.937275,356.871918 455.061418,357.68476 L450.910739,360.278934 C447.711257,359.310442 447.711257,352.133227 443.854584,356.197433 L445.168966,357.788527 C444.580953,356.3012 440.499452,356.820035 439.479077,355.298119 C438.770003,355.540242 437.576682,356.3012 438.804592,357.235103 L439.7212,358.290067 C439.236954,359.91575 437.14432,358.514895 436.262301,358.981847 C436.037472,357.650171 436.262301,355.522948 434.031311,356.318495 L431.039363,361.973795 C430.935596,360.884241 430.001693,360.330818 429.75957,359.898455 C427.926354,361.627905 425.263002,359.552565 424.380982,359.414209 C421.631157,361.576021 423.810264,364.844681 424.138859,367.819334 C420.022769,370.067619 416.90976,360.278934 413.883223,366.41848 C412.153774,364.827386 415.059249,363.218998 413.260622,362.371568 C410.839392,363.720539 413.018499,366.868137 409.421244,366.522247 C411.479289,361.80085 404.613374,365.640228 406.394707,361.80085 C402.659096,362.630985 397.747459,355.522948 396.398488,362.907697 C394.911162,362.060267 394.09832,363.236293 393.337363,364.118312 C393.199007,365.017626 393.994553,366.937315 393.043356,367.577211 L391.071784,367.404266 L391.227434,365.449988 C391.919214,365.674817 392.472638,364.861975 393.285479,364.619852 C391.037195,362.613691 392.05757,359.431504 388.875383,358.826196 C388.702438,365.519166 380.504847,359.120203 376.855708,360.745885 L375.627799,357.650171 L369.401781,361.10907 C373.050919,363.668655 369.176952,365.709406 368.243049,368.908887 L362.933639,367.438855 C361.965147,363.68595 365.268396,365.484577 366.236888,363.288176 C365.442404,361.114011 363.591022,359.497302 361.329646,359.002955 C359.06827,358.508607 356.711163,359.205321 355.081938,360.849652 L354.044268,361.714377 C354.545809,363.668655 361.636552,361.818144 358.592721,366.07259 L356.517381,367.369677 C351.501977,366.245535 355.652656,359.448798 351.329033,359.016436 C349.599583,361.126364 345.950444,359.466093 344.117228,362.354274 C345.08572,365.069509 348.406263,363.49571 350.464308,363.374649 C351.104204,363.720539 350.464308,364.810092 350.74102,365.865056 C349.910884,364.861975 347.282121,365.242454 346.642224,367.490739 L345.293254,365.899645 C344.497707,367.629095 344.2037,369.358544 341.955416,370.067619 C340.62374,367.992279 336.109876,367.092965 339.101824,363.357354 C346.123389,362.924992 338.167921,359.37962 339.672542,356.439556 C338.669462,357.892294 333.515702,358.929963 332.754744,355.868838 C332.196143,358.182537 330.99745,360.292235 329.295845,361.9565 C328.171703,357.114041 323.62325,358.497601 320.19894,358.705135 L317.518293,360.936125 C315.788844,358.964552 314.336106,357.390753 311.828404,357.978766 C310.825324,358.169006 311.205803,359.310442 311.153919,360.399996 C308.248444,357.563698 306.709234,360.157873 303.336807,359.206675 L301.226879,360.936125 C301.972852,362.024926 303.210312,362.67281 304.530127,362.665574 C302.593144,368.960771 299.566607,361.039892 295.519695,363.876189 L299.134245,362.14674 C298.684588,359.933044 295.242983,356.958391 293.375177,360.157873 C291.334427,360.884241 292.112679,361.887322 292.596925,363.616772 C291.247955,361.887322 289.362854,365.069509 289.276382,367.767451 L282.358584,367.663684 C282.185639,366.57413 282.790946,365.484577 282.081872,365.138687 C279.626053,366.089885 278.173316,368.597586 275.579141,366.07259 C273.676747,363.582183 277.083763,364.152901 277.84472,362.80393 C276.270921,362.198623 275.492669,361.074481 276.115271,359.690921 C271.411168,355.505653 268.522987,365.865056 265.288917,359.241264 L263.680528,360.57294 C263.006043,358.480306 259.512555,357.114041 258.353824,359.120203 L261.985668,362.907697 C261.691661,361.921911 262.590975,361.748966 263.127105,361.524138 L263.559467,367.473444 C261.501422,364.37773 256.555196,371.22635 256.347662,365.363516 L252.162394,367.95769 C248.426783,372.367787 248.928324,361.299309 244.725761,368.30358 L245.417541,365.899645 L242.442888,366.124474 C242.52936,364.931153 242.442888,364.049134 241.716519,363.582183 C237.652312,364.256668 242.563949,367.680978 238.75916,368.770531 C233.79564,373.301689 231.512766,361.385782 227.898217,368.770531 L226.497363,368.14793 C226.047706,366.297419 228.019278,366.210946 229.074243,366.41848 C230.302152,366.92002 230.648042,365.363516 230.803692,364.585263 L237.029711,361.126364 C235.386733,358.791607 235.507795,354.606339 231.530061,356.197433 C229.454721,357.546404 231.166877,359.03373 228.29599,359.362326 C226.912431,359.362326 226.116884,357.719349 225.390515,358.635957 C223.436237,361.195542 225.269454,362.959581 226.860547,364.671736 C226.428185,365.173276 224.473907,364.983037 223.903188,364.412319 C222.588807,362.233212 225.148392,358.87808 221.862438,359.22397 C221.084186,363.14982 218.818607,359.102908 216.674089,361.731672 C216.397377,360.157873 215.636419,357.857705 213.872381,359.500682 C212.959285,360.320725 212.437714,361.490178 212.437714,362.717458 C212.437714,363.944737 212.959285,365.114191 213.872381,365.934234 C211.537624,366.747075 209.220162,368.14793 205.968796,365.743995 C204.810065,363.305471 201.679761,361.074481 199.189354,364.170196 C194.934908,366.280124 200.451852,369.4969 195.177031,370.240564 C194.104772,368.943476 198.13439,367.923101 195.488332,366.781664 C192.150494,368.770531 191.164708,372.748265 187.792281,375.999631 C186.547078,377.72908 187.463686,381.430102 184.333382,381.603047 C182.154276,381.326335 179.421745,379.095345 177.917124,382.052704 L179.196917,384.145338 L177.588529,385.477014 L169.390938,377.365896 C170.307546,375.84398 171.033915,374.685249 172.676892,374.183709 C171.172271,370.136797 168.335974,373.094155 166.312518,373.128744 C163.372453,374.737132 160.570745,374.252887 158.132221,376.362815 C161.746771,367.836629 151.646785,370.396214 151.871614,363.478416 C151.370073,362.336979 150.228637,362.734752 149.467679,362.769341 C148.481893,363.201704 148.827783,364.498791 148.706721,365.657522 C147.219394,361.852733 143.328133,363.928073 141.252793,365.986118 C141.04526,367.248616 141.252793,368.614881 139.523344,368.822415 L135.960678,364.550674 L134.369584,365.899645 C133.418387,364.706325 131.93106,362.112151 130.115138,363.547594 C130.806918,368.735942 124.200421,368.251697 121.139295,370.655631 C119.807619,365.03492 112.716876,369.946557 112.215335,364.931153 L115.224577,364.68903 C114.740332,363.582183 114.844099,362.613691 113.962079,362.129445 C110.84907,361.627905 111.160371,366.591425 111.03931,367.317794 C106.957809,363.858895 104.121511,371.295528 100.662612,366.435775 C99.123402,366.556836 96.5292276,366.556836 96.5119332,369.012654 L96.3562827,370.482686 C94.6268331,365.190571 90.4934487,367.992279 86.2562972,367.629095 L84.6133201,369.462311 C85.062977,366.556836 82.0191458,367.283205 80.3761687,367.11026 C78.7677806,366.504952 77.9030558,368.268991 76.7270301,369.254777 C74.1674447,368.199813 74.0117943,365.795878 72.1958722,364.429613 C70.4664227,367.629095 69.3422804,364.308552 67.4917694,367.45615 L69.8611153,368.64947 C66.7999896,369.15101 66.7654006,366.556836 64.6727666,365.7267 C61.2138675,364.602558 56.0255188,366.383891 54.0539463,362.821225 C52.9470985,366.57413 47.136148,362.129445 45.4066984,365.536461 C42.6741681,366.556836 38.4889001,364.222079 37.2782854,367.80204 L35.4450689,366.07259 L33.8539753,367.421561 C27.6452513,361.973795 20.1740292,354.398806 10.4891116,357.961472 C9.0190795,356.14555 3.98638125,360.019517 3.27730693,355.851543 C5.92336477,352.167816 9.65897584,353.22278 13.4464704,352.392644 C13.8788328,349.867648 12.9968135,348.795389 15.3834539,347.117823 C13.5156484,344.385293 7.28962993,347.688541 9.36496941,342.638548 C11.3711309,340.632387 12.0283217,339.957902 13.3254089,342.482898 C13.5156484,343.036322 12.6336291,343.209267 12.2185612,343.866458 C14.3457842,344.713888 15.4872209,344.333409 18.0468062,344.886833 C19.0325925,342.06783 20.6582751,341.825707 22.4050192,340.321086 L24.3765917,340.476736 C22.8200871,341.133927 24.8954265,342.552076 25.6217954,343.088205 C29.9281248,341.635468 32.2974707,337.035132 35.7390753,334.596608 C44.8532746,337.121604 50.1280957,334.890614 59.0174665,339.594717 C64.2058152,335.253799 71.7462153,344.558237 77.7819943,339.750368 C88.3662257,341.099338 102.357473,343.053616 111.817562,340.286497 C115.051633,344.64471 117.248033,336.447119 121.640835,340.632387 C123.370285,336.360647 127.590142,342.534781 132.017533,340.632387 C132.363423,341.289578 132.27695,342.361837 133.280031,343.191972 C132.830374,337.381022 138.96992,339.300711 142.082929,338.505164 C148.308948,342.431014 157.492325,334.856025 159.377425,343.019027 C162.922797,338.193863 168.163029,343.330328 171.189566,338.124685 L170.272957,337.052426 C175.305655,336.550886 174.838704,330.342162 179.387156,328.958602 L178.05548,327.367509 L186.702728,313.79133 L186.218482,319.169918 C187.792281,317.0254 192.306145,317.924714 192.582857,314.310165 L188.311116,312.459653 L192.946041,304.452302 C197.805794,304.192885 192.565562,309.052638 196.975659,309.260172 C195.522921,307.842023 202.75202,299.955733 196.093639,302.255901 L194.640902,302.13484 C195.574804,301.546827 196.370351,297.897688 198.099801,296.514128 C198.577423,298.49141 199.60938,300.291334 201.074454,301.702477 C208.701327,299.471487 205.467256,291.32578 210.707488,287.728525 L212.160226,288.351126 L211.520329,289.78657 C217.348574,288.368421 212.488821,294.24855 217.694464,292.795812 C216.98539,287.849586 220.548056,282.609354 216.518439,277.870662 C219.821687,275.743439 227.310204,271.731116 226.618424,263.931299 L225.71911,262.876334 C226.341712,262.997396 226.670308,262.16726 227.292909,262.028904 C227.923244,264.08672 228.919173,266.014136 230.232974,267.718793 C232.515847,265.764515 233.691873,264.882496 232.221841,261.959726 C233.847523,257.221034 238.499743,254.938161 240.004364,252.257514 L241.387923,253.381656 C242.598538,253.381656 232.740676,255.301345 238.983989,258.120348 L242.667716,255.47429 L244.397166,258.587299 C245.746136,255.923947 245.037062,251.410084 245.79802,248.331663 C242.961723,245.564544 244.552816,244.111807 245.382952,241.413865 L247.49288,240.116778 C248.547845,240.773969 248.444078,243.368143 250.726951,242.866603 C250.726951,238.127911 253.200064,234.219355 256.970264,233.562164 C258.077112,229.273129 259.564438,223.479473 263.023338,220.729648 C260.117862,219.968691 260.359985,217.512872 261.484127,215.679656 C264.700904,214.071268 265.600217,209.69576 268.644049,207.395592 C270.823155,210.525896 261.414949,213.638905 267.346961,216.665442 C269.906547,214.15774 275.077601,209.920589 274.800889,204.559295 C275.752086,202.138066 279.314753,205.42402 279.453108,202.483955 C277.18753,202.777962 276.080682,198.73105 274.07452,201.532758 C275.388902,196.569238 279.92006,192.626093 281.30362,186.849731 C285.817483,185.88124 282.687179,178.202484 289.207204,181.125253 C287.356693,178.116011 290.936654,174.207455 294.274491,174.207455 C293.081171,176.317383 293.478944,180.052995 291.213366,180.848541 C290.089223,183.581072 295.675345,183.338949 296.228769,185.742884 C297.0762,186.901615 296.920549,184.549563 298.252225,184.947337 L296.522776,182.301279 C297.439384,184.238262 300.932872,182.42234 301.711124,179.793577 C300.690749,178.444606 297.975513,178.219778 299.065067,176.10985 C299.065067,173.999921 302.904445,174.3804 301.970542,170.921501 L295.865585,172.823895 C294.793326,163.951819 302.783383,169.105579 306.864884,165.906097 L306.864884,172.339649 C304.564716,171.734342 303.682697,173.394614 302.679616,174.916529 C303.890231,176.645979 306.294166,179.949228 307.314541,177.268581 L307.591253,177.233992 Z" id="Path" stroke="#231F20" stroke-width="0.22"></path>
                <path d="M683.487117,111.843504 C681.757667,114.420383 680.477874,117.273975 676.569318,117.170208 C671.588504,122.790919 665.570019,129.535773 661.505813,137.058878 C647.549155,146.484378 640.908068,157.379911 627.729663,167.704725 C628.369559,170.852323 625.170077,171.059857 624.270763,172.893073 C623.129327,172.529889 622.281896,171.371158 621.832239,172.183999 L621.226932,173.619442 L623.094738,174.760879 C622.178129,181.955389 614.79338,181.799739 612.942869,189.167194 C607.149213,186.209835 604.295621,193.732941 601.926275,196.603827 C597.990929,200.229488 594.631742,204.434305 591.964645,209.073158 C586.776297,210.456718 584.510718,217.720406 582.452673,221.577079 L581.587948,220.50482 C574.030253,224.499848 575.51758,234.340416 567.752351,236.605995 C565.798073,243.523794 556.943292,245.979612 558.430618,253.035766 C551.51282,251.064194 556.856819,262.51315 550.544328,258.777539 C549.645015,260.057332 548.002037,262.098082 550.077377,263.671881 C549.108885,263.55082 548.814879,262.565033 548.157688,263.01469 C548.157688,268.410573 540.427048,272.543957 537.988524,277.922546 C533.734078,289.734686 519.27588,294.144783 518.117149,307.323188 C511.683596,317.56153 504.281552,322.317516 499.957928,334.354485 C494.648518,345.544024 486.987057,333.14387 479.34289,338.470575 C459.506103,338.280336 443.231983,337.847973 425.159235,336.741125 C422.046225,323.441658 417.515067,310.453492 416.252569,297.448031 C410.078434,293.660537 411.479289,287.486402 407.155665,282.834182 C406.878953,273.996695 396.156365,268.133861 392.40346,259.313668 L388.667849,257.0135 C388.131719,259.642264 385.01871,258.500827 383.617856,258.05117 C383.358439,256.32172 381.369572,256.32172 382.459125,254.488504 C383.175543,253.248434 384.707915,252.742603 386.021791,253.312478 C385.391616,253.947738 385.130566,254.861414 385.330011,255.733708 C393.75243,258.777539 391.884625,244.924648 400.514578,245.720195 C400.964235,241.258215 404.40584,241.569516 407.017309,239.373115 C407.691794,236.536817 409.663366,236.467639 411.323638,235.291614 L412.205657,236.363872 L412.413191,228.477582 L416.684932,230.328093 C419.400168,226.713544 426.352555,224.62091 429.361797,221.075538 C435.397576,218.61972 438.199284,210.940964 445.566739,210.698841 C445.999102,206.288744 451.688991,207.395592 454.905767,205.614259 C465.282465,196.119581 481.089634,190.222158 493.801088,184.324735 C496.793036,183.079531 495.046292,177.631765 499.542861,180.865836 C501.635494,175.677487 508.363053,179.049914 510.490276,174.432283 C518.190312,169.942909 526.297057,166.190644 534.70257,163.22545 C535.377056,159.766551 536.93356,163.035211 539.268317,161.617062 C544.249132,155.650461 551.564704,156.670836 557.980961,150.929064 C563.446022,152.174268 564.89876,143.52702 571.211251,146.657323 C571.695496,142.281816 576.659017,144.668456 578.544117,141.866748 L580.411922,143.025479 C589.923895,132.769843 606.820617,130.29673 619.635839,123.724822 C624.357236,121.580305 628.559798,120.265923 632.969895,118.000344 C636.381031,117.482944 639.589443,116.054992 642.257039,113.86696 C656.092635,107.831181 670.948607,103.818858 685.112799,97.8522566 C687.257317,102.158586 691.183167,97.0740043 693.15474,96.122807 C691.702002,99.5817061 690.007141,110.338882 683.38335,112.051038" id="Path" fill="#FFCD00" fill-rule="nonzero"></path>
                <path d="M528.044189,144.149622 C528.044189,145.879071 525.432721,144.443628 524.58529,144.841401 C524.58529,142.887123 526.729808,144.305272 528.044189,144.149622" id="Path" fill="#FFCD00" fill-rule="nonzero"></path>
                <path d="M528.044189,144.149622 C528.044189,145.879071 525.432721,144.443628 524.58529,144.841401 C524.602585,142.887123 526.677924,144.305272 528.044189,144.149622 Z" id="Path" stroke="#FFCD00" stroke-width="0.29" stroke-linejoin="round"></path>
                <path d="M307.764198,177.666354 C307.841484,179.189571 308.267498,180.674703 309.009402,182.007273 C303.544341,183.615661 305.429441,195.842869 298.632704,192.937394 C301.780302,197.555024 293.530828,198.921289 293.703773,204.38635 C292.839048,203.919399 292.112679,203.711865 291.818673,203.227619 C288.913198,205.043541 292.700692,206.859463 289.8471,208.969391 C288.913198,206.409806 287.512343,208.50244 285.92125,208.623501 C287.201043,213.414077 282.462351,212.860653 280.352422,215.5413 C277.879309,219.622801 271.705174,223.393001 274.195582,229.376896 C274.645239,229.878437 275.925031,229.273129 276.755167,228.598644 L276.374688,227.094023 L276.582222,230.552922 C271.393873,228.339226 270.321615,234.184766 268.125214,236.727057 C267.640968,239.736299 262.76392,243.247082 259.927623,245.89314 C256.60708,247.034576 256.95297,251.617618 256.710847,254.540387 C247.890654,267.545848 235.594267,278.752681 230.52698,294.317728 C225.338631,297.119436 226.307123,303.120626 221.533842,306.856237 C222.761752,314.033453 211.157145,311.179861 216.051487,318.702966 C209.981119,321.67762 212.125637,329.875211 208.199786,334.804142 C210.759372,341.272283 219.510386,335.738045 224.1799,338.678109 C254.549035,337.311844 282.566118,337.277255 314.664702,337.225371 C323.727017,340.68427 332.564505,332.659624 341.142575,339.560128 C342.059183,335.703456 346.192567,337.675028 348.216023,337.692323 C360.719944,336.723831 377.616666,337.692323 390.67401,337.934446 L393.769725,336.204996 C393.458424,333.749178 388.581376,332.227262 390.950722,329.062369 C396.554139,329.062369 390.224353,339.439067 398.646773,337.121604 C398.968994,332.045984 397.479789,327.020683 394.44421,322.940118 C392.541816,322.576933 390.276237,323.355186 390.276237,325.516998 C389.238567,325.378642 389.843874,323.943199 389.947641,323.528131 C392.610994,323.528131 392.645583,320.242177 394.28856,318.962384 C392.922295,317.232934 393.562191,313.774035 390.829661,314.206398 C389.670929,314.29287 388.806205,315.468896 388.356548,313.998864 L389.48069,312.615304 C389.046242,311.986201 388.369496,311.566368 387.612884,311.456573 C387.042166,311.71599 386.177441,311.888935 386.506037,312.840132 L387.370762,313.912391 L385.796962,315.261362 C386.090969,308.44733 375.420265,307.980379 377.149715,300.682102 C367.326441,299.523371 370.646984,288.697016 363.781069,284.183153 L363.971309,282.24617 C364.420966,282.24617 365.424047,281.813807 365.890998,282.886066 C367.620447,277.836073 361.584668,277.78419 363.763775,273.339504 C360.66806,271.264165 363.331413,270.537796 362.224565,268.272217 C361.619257,268.894819 360.702649,268.272217 360.218403,268.583518 C361.533142,263.826594 363.269469,259.196391 365.406752,254.747921 C366.738428,255.923947 367.827981,253.174122 369.055891,252.603404 C366.029354,249.81899 369.419075,247.899301 370.646984,245.823962 L371.995955,247.415055 C373.085508,240.929619 380.643203,240.134073 382.476419,234.980313 C387.024872,232.887679 387.785829,229.791964 391.123667,226.869194 C400.566462,224.084781 401.500364,213.31031 409.922784,209.730349 L410.113023,207.291825 C413.762162,213.016303 416.511987,203.988577 420.299481,203.729159 L424.173448,199.128823 L425.314885,202.691489 L427.787998,196.984306 L429.154263,198.575399 C434.723091,194.736021 441.035582,190.360514 445.635917,185.206754 C446.033691,186.72867 446.863827,185.552644 448.091736,185.431583 L446.690882,184.30744 C447.728551,180.191351 448.921872,186.03689 451.688991,183.771311 L450.910739,181.22902 C456.6871,180.744774 461.702504,169.831948 466.752497,175.193241 L469.22561,175.41807 C466.735202,170.229721 475.72834,167.497191 480.086553,164.038292 C496.689269,159.437956 508.034458,146.864857 524.360462,143.284897 C530.033056,140.829078 531.62415,138.096548 537.953935,135.087306 C542.08732,137.076173 541.74143,132.354775 545.580808,132.302892 C555.646205,127.40855 566.334203,121.199826 577.541036,117.325859 L579.166719,120.923114 C580.4811,115.890416 584.631779,117.723632 587.17407,114.230144 C586.914653,115.838532 588.90352,115.75206 590.477319,115.959594 C591.393927,115.319697 593.936218,115.164047 594.697176,112.846584 L594.420464,110.373471 L598.847855,110.75395 C597.498884,106.084437 603.240657,105.375362 606.837912,104.060981 C606.422844,104.40687 607.149213,107.191284 608.394416,108.609433 C609.051607,107.986831 610.538934,108.107893 611.040474,106.879983 L609.777976,104.285809 C613.859477,103.818858 613.236875,100.688554 617.093548,99.4952337 L618.701936,103.576735 C621.469055,103.006016 622.990971,99.4606447 626.95141,99.8757126 C627.452951,98.146263 625.308433,98.5440364 625.221961,97.2642437 C627.712368,99.5990006 631.430685,93.8053446 632.831539,94.9294868 C637.172457,90.1735005 641.271253,98.0597905 645.024158,91.0728143 L642.689401,89.3433647 L648.794358,87.4409702 C647.946928,87.8733326 647.064909,88.305695 647.635627,89.2914812 C649.365077,90.8306913 651.440416,89.1704197 653.18716,87.7868601 C652.888712,87.690847 652.663662,87.4436268 652.596028,87.1374973 C652.528395,86.8313679 652.628346,86.512345 652.858565,86.2995335 C655.954279,89.7584326 658.652221,84.3798444 660.986978,83.5497086 C665.915909,83.1519352 669.167274,79.7449196 673.369837,77.2372177 C668.95974,71.2014387 657.614551,75.0235223 654.345891,69.1433937 C650.662164,71.3397947 647.428093,67.8463066 645.179809,66.8432258 C637.570231,64.5084689 629.147811,68.9531543 625.792679,62.6752524 C613.184992,59.4238872 600.819427,54.149066 587.900439,55.4115642 C581.899249,57.5387871 579.944971,49.8427366 574.462616,50.7939338 L575.240868,53.3189302 C572.473749,53.6302311 569.550979,51.883487 570.588649,49.963798 C565.123588,53.2497522 560.021712,47.8538696 554.850658,49.0644842 C549.817959,46.1071255 541.464718,49.929209 539.648796,42.3023364 L538.178764,42.181275 L538.576537,43.1843557 C535.705651,40.7804208 529.929289,44.7408603 528.459257,40.3307639 C523.858921,46.5221934 515.384619,39.1201492 510.265448,39.2412107 L508.933772,37.6501171 C507.792335,37.9787125 508.190108,39.1201492 508.241992,40.054052 C504.904154,37.5982336 496.741152,40.3307639 491.604687,38.099774 C479.619601,35.6266611 464.538801,36.041729 454.352343,34.8311143 C450.011425,35.3672437 449.665535,43.858841 444.356125,41.869974 C443.681639,47.2831512 434.619324,45.1386337 435.535932,52.4542054 C435.051686,51.3473577 433.806482,49.2720182 432.716929,50.7247558 C429.707687,53.2670467 427.02704,55.9131045 426.508205,59.5968321 C410.389735,70.9074323 400.566462,86.109294 384.084807,98.3537969 C380.383785,103.334612 376.613585,109.923815 370.543217,111.98186 C364.887917,114.212849 365.787231,119.470376 361.688435,123.050337 L360.356759,121.424654 C354.66687,133.807513 342.232128,140.448599 335.452685,151.845672 C325.266228,154.180429 327.808518,165.681269 317.673944,169.140168 C316.006345,173.461991 312.286507,176.66248 307.764198,177.666354" id="Path" fill="#FFCD00" fill-rule="nonzero"></path>
                <path d="M539.372084,150.098928 C538.663935,150.676073 537.756218,150.949632 536.847088,150.859886 C535.013871,149.234203 537.729107,149.459032 538.576537,149.009375 L539.372084,150.098928 Z" id="Path" fill="#FFCD00" fill-rule="nonzero"></path>
                <path d="M539.372084,150.098928 C538.663935,150.676073 537.756218,150.949632 536.847088,150.859886 C535.013871,149.234203 537.729107,149.459032 538.576537,149.009375 L539.372084,150.098928 Z" id="Path" stroke="#FFCD00" stroke-width="0.29" stroke-linejoin="round"></path>
                <path d="M373.483281,268.894819 C374.538246,267.165369 371.356059,265.816399 373.742699,265.954755 L373.483281,268.894819 Z" id="Path" fill="#FFCD00" fill-rule="nonzero"></path>
                <path d="M373.483281,268.894819 C374.538246,267.165369 371.356059,265.816399 373.742699,265.954755 L373.483281,268.894819 Z" id="Path" stroke="#FFCD00" stroke-width="0.29" stroke-linejoin="round"></path>
                <path d="M371.13123,278.078196 L369.159658,277.905251 C367.845276,275.622378 365.614286,272.993614 364.853328,270.624268 L367.153496,266.871363 C363.106584,273.374093 372.428317,272.837964 371.13123,278.078196" id="Path" fill="#FFCD00" fill-rule="nonzero"></path>
                <path d="M371.13123,278.078196 L369.159658,277.905251 C367.845276,275.622378 365.614286,272.993614 364.853328,270.624268 L367.153496,266.871363 C363.106584,273.374093 372.428317,272.837964 371.13123,278.078196 Z" id="Path" stroke="#FFCD00" stroke-width="0.29" stroke-linejoin="round"></path>
            </g>
        </g>
    </g>
</svg>