<?xml version="1.0" encoding="UTF-8"?>
<svg width="980px" height="680px" viewBox="0 0 980 680" version="1.1" xmlns="http://www.w3.org/2000/svg" xmlns:xlink="http://www.w3.org/1999/xlink">
    <title>LT Lietuvos Paštas text</title>
    <defs>
        <rect id="path-1" x="0" y="0" width="900" height="600" rx="80"></rect>
        <filter x="-6.7%" y="-10.0%" width="113.3%" height="120.0%" filterUnits="objectBoundingBox" id="filter-2">
            <feMorphology radius="2.5" operator="dilate" in="SourceAlpha" result="shadowSpreadOuter1"></feMorphology>
            <feOffset dx="0" dy="0" in="shadowSpreadOuter1" result="shadowOffsetOuter1"></feOffset>
            <feGaussianBlur stdDeviation="17.5" in="shadowOffsetOuter1" result="shadowBlurOuter1"></feGaussianBlur>
            <feColorMatrix values="0 0 0 0 0   0 0 0 0 0   0 0 0 0 0  0 0 0 0.5 0" type="matrix" in="shadowBlurOuter1"></feColorMatrix>
        </filter>
    </defs>
    <g id="LT-Lietuvos-Paštas-text" stroke="none" stroke-width="1" fill="none" fill-rule="evenodd">
        <g transform="translate(40, 40)">
            <g id="Rectangle">
                <use fill="black" fill-opacity="1" filter="url(#filter-2)" xlink:href="#path-1"></use>
                <use fill="#FEDD00" fill-rule="evenodd" xlink:href="#path-1"></use>
            </g>
            <g id="Logo" transform="translate(50, 181.3984)" fill="#000000" fill-rule="nonzero">
                <path d="M379.795871,52.7379245 C379.727288,51.0096208 379.459812,47.0797873 379.281495,45.3171918 C379.281495,45.3171918 379.103178,41.654834 374.960736,40.3997563 C367.684028,38.1913682 358.109774,37.2517745 351.107401,38.6645942 C348.24747,39.2406954 346.951242,40.4683397 347.589068,44.1787061 C348.384637,48.8560995 348.768704,52.2646985 349.029322,56.413999 C351.779519,98.2979308 336.327661,136.725255 308.914844,163.164187 C315.191689,149.865603 318.442791,135.341047 318.434231,120.635571 C318.434231,64.7057419 272.277548,19.2006023 215.552151,19.2006023 C158.826754,19.2006023 112.67693,64.7057419 112.67693,120.635571 C112.67693,132.13702 114.658992,143.185819 118.252767,153.507633 C99.6254934,128.687271 84.1393434,92.5917852 90.5313238,42.7864614 C91.9029934,32.1285885 93.0620542,18.6862262 95.894552,8.81020498 L95.8534019,8.81020498 L95.8534019,8.75533819 C95.9974272,5.81310686 93.747889,3.71445235 90.929108,3.15892615 C57.9610287,-3.23991261 21.5774921,1.45805583 8.32030528,5.19585553 C5.5426743,5.96399052 3.30685283,7.23278492 2.66216811,11.5055358 C2.66216811,11.5055358 0.63895542,23.2950361 0.241171231,31.4701871 C-1.12799267,58.5191148 3.34446298,85.545659 13.3543328,110.711541 C13.6561001,111.479676 13.9578674,112.254669 14.2733514,113.029663 C14.719144,114.140715 15.1855117,115.244909 15.6587377,116.335386 C45.691444,187.02438 115.756328,236.610237 197.446112,236.610237 C227.760011,236.610237 256.462197,229.772464 282.112419,217.530312 C321.170712,198.875606 345.21608,169.624751 346.9581,167.436938 C372.354563,135.799378 381.537891,98.0030218 379.795871,52.7379245 M263.046212,176.016731 C249.41857,187.46224 232.182607,193.720145 214.386232,193.683993 C195.827542,193.683993 178.873706,187.02438 165.753686,176.044165 L263.046212,176.016731 L263.046212,176.016731 Z M204.757111,110.293182 L222.842575,110.293182 L222.842575,157.643217 L204.757111,157.643217 L204.757111,110.293182 L204.757111,110.293182 Z M268.53289,68.0251824 C281.584326,81.3783861 289.656602,99.4775667 289.656602,119.483368 C289.656602,139.496028 281.57061,157.622642 268.512315,170.962129 L268.53289,68.0251824 Z M214.39309,45.2896236 C234.981851,45.2896236 253.540541,53.5129178 267.12007,66.7083795 L252.395197,66.5437792 L252.395197,157.643217 L238.747084,157.643217 L238.747084,94.8001733 L238.678501,94.8001733 L238.678501,94.7521649 L222.047007,94.7521649 L222.047007,66.8729799 L205.868164,66.8729799 L205.868164,94.7521649 L189.682462,94.7521649 L189.778479,157.430608 L175.57484,157.430608 L175.588557,66.2625869 L162.043319,66.2557286 C176.129366,52.7664579 194.889866,45.2529181 214.39309,45.2896236 M159.972098,68.333808 L160.116123,68.4023915 L160.116123,170.687795 L160.040682,170.70837 C147.112696,157.396316 139.143291,139.379436 139.143291,119.483368 C139.136437,99.6353087 147.09212,81.6390033 159.972098,68.333808 M658.100778,198.505255 L660.521775,186.420845 L678.223171,186.420845 C678.538655,186.420845 686.679515,186.27682 687.783709,180.810717 C688.366668,177.971361 683.257199,174.73422 677.845962,171.339338 C670.075454,166.456194 660.412041,160.386556 662.147203,151.60787 C664.307583,141.306632 675.020323,134.393417 688.819319,134.393417 L706.966508,134.393417 L704.435778,146.539551 L686.830398,146.539551 C686.487481,146.553268 678.284897,146.656143 677.180702,152.06738 C676.604601,154.920453 681.748362,158.13016 687.180174,161.525042 C694.998691,166.401327 704.737545,172.512115 702.906366,181.297659 C700.85572,191.585181 690.197847,198.512113 676.364559,198.512113 L658.100778,198.512113 L658.100778,198.505255 Z M636.222648,198.505255 L635.193895,189.061309 L613.981025,189.061309 L609.193898,198.505255 L594.565041,198.505255 L627.279362,134.393417 L643.849131,134.393417 L650.570312,198.505255 L636.222648,198.505255 Z M634.007401,176.901458 L632.231089,151.230661 L620.153538,176.901458 L634.007401,176.901458 Z M569.367471,198.505255 L579.840168,146.649285 L563.544733,146.649285 L566.068605,134.50315 L612.842539,134.50315 L610.311809,146.649285 L593.90664,146.649285 L583.427084,198.505255 L569.367471,198.505255 Z M509.185466,198.505255 L511.599605,186.420845 L529.321576,186.420845 C529.643918,186.420845 537.764203,186.27682 538.861538,180.810717 C539.465073,177.971361 534.348745,174.73422 528.923792,171.339338 C521.167,166.456194 511.496729,160.386556 513.252466,151.60787 C515.399129,141.306632 526.118727,134.393417 539.904007,134.393417 L558.071771,134.393417 L555.527324,146.539551 L537.928803,146.539551 C537.592744,146.553268 529.369584,146.656143 528.258532,152.06738 C527.709864,154.920453 532.839909,158.13016 538.278579,161.525042 C546.090237,166.401327 555.808516,172.512115 554.004771,181.297659 C551.954125,191.585181 541.289393,198.512113 527.456105,198.512113 L509.185466,198.512113 L509.185466,198.505255 Z M487.307336,198.505255 L486.264867,189.061309 L465.051996,189.061309 L460.292303,198.505255 L445.663446,198.505255 L478.377766,134.393417 L494.933819,134.393417 L501.648142,198.505255 L487.307336,198.505255 Z M485.098948,176.901458 L483.329494,151.230661 L471.238226,176.901458 L485.098948,176.901458 Z M400.000565,198.505255 L413.003992,134.50315 L436.109767,134.50315 C436.528126,134.50315 446.47959,134.551159 452.226885,140.490488 C455.683493,144.049971 456.835695,148.926256 455.608051,154.934169 C451.575342,174.727362 428.654743,174.939971 428.421559,174.939971 L418.854163,174.939971 L414.073895,198.505255 L400.000565,198.505255 L400.000565,198.505255 Z M430.300746,162.807553 C430.698531,162.807553 439.929867,162.663528 441.623879,154.47466 C442.083388,152.087955 441.692463,150.215626 440.409951,148.91254 C438.277005,146.697293 434.196288,146.649285 434.14828,146.649285 L424.539734,146.649285 L421.268302,162.800695 L430.300746,162.800695 L430.300746,162.807553 Z M536.248508,132.006712 L525.919835,117.652189 L537.380135,117.652189 L541.207093,123.001701 L547.228723,117.652189 L559.374857,117.652189 L543.127431,132.006712 L536.248508,132.006712 L536.248508,132.006712 Z M751.127412,105.005395 L753.534692,92.9347026 L771.256663,92.9347026 C771.565289,92.9347026 779.692431,92.783819 780.824059,87.3314322 C781.413877,84.4646427 776.276974,81.2617942 770.865737,77.8531952 C763.108946,72.963193 753.445533,66.9072716 755.187554,58.1354444 C757.334217,47.8204889 768.053815,40.9004157 781.852811,40.9004157 L800,40.9004157 L797.462411,53.0671252 L779.870748,53.0671252 C779.534689,53.0808419 771.31153,53.1700004 770.214194,58.5880954 C769.65181,61.4411682 774.781854,64.6577334 780.213666,68.0526158 C788.025324,72.9357596 797.750462,79.0053976 795.939858,87.8115166 C793.889212,98.1058971 783.224481,105.012254 769.384334,105.012254 L751.127412,105.012254 L751.127412,105.005395 Z M715.175951,105.005395 C708.331319,105.005395 703.118975,103.222225 699.730951,99.7244672 C693.915072,93.7165543 695.602225,84.903577 695.684526,84.5469429 L700.451078,60.8993587 C700.505944,60.707325 704.792412,40.8935573 727.616994,40.8935573 C734.475342,40.8935573 739.694545,42.6835862 743.082569,46.2156354 C748.912165,52.2098317 747.19072,61.0090923 747.122136,61.3931598 L742.355584,85.0064522 C739.211658,97.2929366 727.841435,105.659217 715.175951,105.005395 M725.662365,53.0602668 C720.394007,52.7463664 715.660476,56.2596474 714.435249,61.3931598 L709.661839,85.0064522 C709.661839,85.0476023 708.955429,88.6962435 711.150101,90.95264 C712.370886,92.2282928 714.352949,92.8592608 717.04828,92.8592608 C726.464792,92.8592608 728.302829,84.883002 728.364554,84.5263679 L733.151681,60.906217 C733.151681,60.8719253 733.810083,57.2438592 731.601695,54.973746 C730.367192,53.6912349 728.357696,53.0602668 725.662365,53.0602668 M654.43842,105.005395 L644.692708,40.9964325 L659.287272,40.9964325 L664.616209,79.9244163 L685.733063,40.9964325 L700.540236,40.9964325 L664.787667,105.005395 L654.43842,105.005395 Z M603.405452,105.005395 C596.560821,105.005395 591.362193,103.222225 587.953594,99.7244672 C582.144573,93.7165543 583.838585,84.903577 583.914027,84.5469429 L592.768154,40.9964325 L606.827768,40.9964325 L597.898199,85.0064522 C597.898199,85.0476023 597.191789,88.6962435 599.379602,90.95264 C600.607246,92.2282928 602.589309,92.8592608 605.284639,92.8592608 C614.74916,92.8592608 616.518614,84.883002 616.594055,84.5469429 L625.434466,40.9964325 L639.500938,40.9964325 L630.591944,85.0064522 C630.537077,85.2259194 626.243751,105.005395 603.405452,105.005395 M543.648665,105.005395 L554.121363,53.1357087 L537.819069,53.1357087 L540.363516,40.9964325 L587.103159,40.9964325 L584.579287,53.1357087 L568.187835,53.1357087 L557.715137,105.005395 L543.648665,105.005395 Z M506.599869,105.005395 C501.538408,105.005395 494.590901,103.441692 490.270142,99.0523491 C487.314194,96.0278176 486.024825,92.0225423 486.532342,87.4411658 L486.450042,87.4411658 L486.744951,85.8568874 L492.245346,58.8007042 L492.341363,58.8007042 C495.791112,45.6532509 510.04276,40.9004157 519.047771,40.9004157 L537.31841,40.9004157 L534.780821,53.0671252 L517.086283,53.0671252 C513.513084,53.2385839 507.223979,54.3976447 506.058059,60.2066655 L504.693248,66.8524048 L512.834107,66.8524048 C513.293617,66.9004157 513.581667,66.9072716 513.766843,66.9072716 L526.537087,66.9072716 L524.013215,78.9711059 L502.560302,78.9711059 C502.039067,81.0697604 500.893723,85.6305619 500.777131,86.1860881 C500.393064,88.0927089 500.729123,89.6015454 501.77845,90.6783061 C503.451887,92.3928931 506.778186,92.8592608 508.492773,92.8592608 L526.735979,92.8592608 L524.32184,105.005395 L506.599869,105.005395 L506.599869,105.005395 Z M461.478797,105.005395 L474.482225,40.8935573 L488.541838,40.8935573 L475.558985,105.005395 L461.478797,105.005395 Z M417.784261,105.005395 L430.780831,40.8935573 L444.861019,40.8935573 L434.285447,92.8592608 L457.199188,92.8592608 L454.798766,105.005395 L417.784261,105.005395 L417.784261,105.005395 Z" id="Shape"></path>
            </g>
        </g>
    </g>
</svg>