<?xml version="1.0" encoding="UTF-8"?>
<svg width="980px" height="680px" viewBox="0 0 980 680" version="1.1" xmlns="http://www.w3.org/2000/svg" xmlns:xlink="http://www.w3.org/1999/xlink">
    <title>LT Lietuvos Paštas</title>
    <defs>
        <rect id="path-1" x="0" y="0" width="900" height="600" rx="80"></rect>
        <filter x="-6.7%" y="-10.0%" width="113.3%" height="120.0%" filterUnits="objectBoundingBox" id="filter-2">
            <feMorphology radius="2.5" operator="dilate" in="SourceAlpha" result="shadowSpreadOuter1"></feMorphology>
            <feOffset dx="0" dy="0" in="shadowSpreadOuter1" result="shadowOffsetOuter1"></feOffset>
            <feGaussianBlur stdDeviation="17.5" in="shadowOffsetOuter1" result="shadowBlurOuter1"></feGaussianBlur>
            <feColorMatrix values="0 0 0 0 0   0 0 0 0 0   0 0 0 0 0  0 0 0 0.5 0" type="matrix" in="shadowBlurOuter1"></feColorMatrix>
        </filter>
    </defs>
    <g id="LT-Lietuvos-Paštas" stroke="none" stroke-width="1" fill="none" fill-rule="evenodd">
        <g transform="translate(40, 40)">
            <g id="Rectangle">
                <use fill="black" fill-opacity="1" filter="url(#filter-2)" xlink:href="#path-1"></use>
                <use fill="#FEDD00" fill-rule="evenodd" xlink:href="#path-1"></use>
            </g>
            <g id="Logo" transform="translate(50, 50)" fill="#000000" fill-rule="nonzero">
                <path d="M799.566916,111.026746 C799.42253,107.388227 798.859426,99.1149277 798.484023,95.404216 C798.484023,95.404216 798.10862,87.694021 789.387726,85.0517632 C774.068406,80.4025446 753.912166,78.4244609 739.170389,81.3988057 C733.149506,82.6116454 730.420617,85.1961489 731.763404,93.0074138 C733.438278,102.854517 734.246837,110.030485 734.795503,118.765818 C740.585368,206.942148 708.055276,287.84144 650.344323,343.502117 C663.55868,315.505216 670.403077,284.92733 670.385054,253.968561 C670.385054,136.222046 573.213497,40.4221519 453.792107,40.4221519 C334.370717,40.4221519 237.213598,136.222046 237.213598,253.968561 C237.213598,278.182039 241.386344,301.442571 248.952153,323.172614 C209.737005,270.919439 177.13472,194.92926 190.591465,90.0763846 C193.479178,67.6388511 195.919296,39.3392593 201.882424,18.5477225 L201.795793,18.5477225 L201.795793,18.4322139 C202.099003,12.2380686 197.363153,7.81986702 191.428902,6.65034307 C122.022709,-6.82084017 45.4261095,3.0695784 17.516359,10.9385975 C11.6687393,12.5557171 6.96176635,15.226852 5.60454103,24.2220794 C5.60454103,24.2220794 1.34516369,49.0419765 0.507726787,66.2527487 C-2.37471149,123.197622 7.04094529,180.095372 28.1142674,233.075955 C28.7495643,234.693074 29.3848613,236.324632 30.0490354,237.95619 C30.9875423,240.295238 31.9693648,242.619848 32.965626,244.91558 C96.192112,393.733892 243.696515,498.124734 415.674289,498.124734 C479.492757,498.124734 539.918161,483.729482 593.918402,457.95664 C676.146043,418.683737 726.767659,357.103247 730.435056,352.497344 C783.90107,285.892234 803.234312,206.32129 799.566916,111.026746 M553.779185,370.559992 C525.089532,394.655698 488.803447,407.830181 451.337551,407.754072 C412.266788,407.754072 376.574649,393.733892 348.95367,370.617746 L553.779185,370.559992 L553.779185,370.559992 Z M431.065802,232.195202 L469.140304,232.195202 L469.140304,331.87907 L431.065802,331.87907 L431.065802,232.195202 L431.065802,232.195202 Z M565.330039,143.210312 C592.806633,171.322203 609.800826,209.425582 609.800826,251.542882 C609.800826,293.674621 592.777755,331.835755 565.286723,359.918768 L565.330039,143.210312 Z M451.351989,95.3461778 C494.696568,95.3461778 533.767331,112.658304 562.355694,140.438107 L531.35609,140.091582 L531.35609,331.87907 L502.623341,331.87907 L502.623341,199.578479 L502.478956,199.578479 L502.478956,199.477409 L467.46543,199.477409 L467.46543,140.784633 L433.40485,140.784633 L433.40485,199.477409 L399.329831,199.477409 L399.531971,331.431475 L369.629699,331.431475 L369.658576,139.4996 L341.142405,139.485162 C370.797116,111.086816 410.292741,95.2689034 451.351989,95.3461778 M336.781958,143.860048 L337.085168,144.004433 L337.085168,359.341225 L336.926344,359.384541 C309.709644,331.359282 292.93202,293.429166 292.93202,251.542882 C292.917591,209.757669 309.666329,171.870868 336.781958,143.860048" id="Shape"></path>
            </g>
        </g>
    </g>
</svg>