<?xml version="1.0" encoding="UTF-8"?>
<svg width="980px" height="680px" viewBox="0 0 980 680" version="1.1" xmlns="http://www.w3.org/2000/svg" xmlns:xlink="http://www.w3.org/1999/xlink">
    <title>LU Post Luxembourg</title>
    <defs>
        <linearGradient x1="50%" y1="0%" x2="50%" y2="100%" id="linearGradient-1">
            <stop stop-color="#FFFFFF" offset="0%"></stop>
            <stop stop-color="#EDEDED" offset="100%"></stop>
        </linearGradient>
        <rect id="path-2" x="0" y="0" width="900" height="600" rx="80"></rect>
        <filter x="-6.7%" y="-10.0%" width="113.3%" height="120.0%" filterUnits="objectBoundingBox" id="filter-3">
            <feMorphology radius="2.5" operator="dilate" in="SourceAlpha" result="shadowSpreadOuter1"></feMorphology>
            <feOffset dx="0" dy="0" in="shadowSpreadOuter1" result="shadowOffsetOuter1"></feOffset>
            <feGaussianBlur stdDeviation="17.5" in="shadowOffsetOuter1" result="shadowBlurOuter1"></feGaussianBlur>
            <feColorMatrix values="0 0 0 0 0   0 0 0 0 0   0 0 0 0 0  0 0 0 0.5 0" type="matrix" in="shadowBlurOuter1"></feColorMatrix>
        </filter>
        <path d="M378.05139,125.552403 C459.837756,241.454381 464.510276,395.585445 368.554509,448.970891 C272.59184,502.356338 139.690722,467.101928 57.9319635,351.117129 C-23.819893,235.132329 -18.3329596,90.9881736 69.8651809,28.5268565 C158.05642,-33.9482642 296.126989,9.6504253 378.05139,125.552403 L378.05139,125.552403 Z" id="path-4"></path>
        <path d="M417.405471,204.999057 C419.717575,334.683936 344.073814,441.220167 248.449333,442.952519 C152.817951,444.684872 73.3781986,340.923166 70.9004513,211.238287 C68.422704,81.5465071 144.356341,-24.9828221 239.980821,-26.6737639 C335.605302,-28.3647056 415.217599,75.3072772 417.405471,204.999057 L417.405471,204.999057 Z" id="path-6"></path>
        <path d="M386.009169,304.716307 C313.754193,397.117646 201.938083,430.356729 136.1639,379.034922 C70.3966197,327.713115 75.5591683,211.065742 147.731322,118.664404 C219.903476,26.2561633 331.802408,-7.01742894 397.576591,44.345789 C463.350773,95.7090069 458.188225,212.308067 386.016071,304.716307 L386.009169,304.716307 Z" id="path-8"></path>
        <linearGradient x1="69.3990007%" y1="73.0932411%" x2="25.8602481%" y2="23.1159382%" id="linearGradient-10">
            <stop stop-color="#F9BA00" offset="0%"></stop>
            <stop stop-color="#FABE00" offset="28%"></stop>
            <stop stop-color="#FBCB00" offset="57%"></stop>
            <stop stop-color="#FDDF00" offset="86%"></stop>
            <stop stop-color="#FFEC00" offset="100%"></stop>
        </linearGradient>
        <linearGradient x1="63.7026615%" y1="7.57230115%" x2="47.0458623%" y2="61.4546988%" id="linearGradient-11">
            <stop stop-color="#5EC4EC" offset="0%"></stop>
            <stop stop-color="#009CD1" offset="100%"></stop>
        </linearGradient>
        <linearGradient x1="12676.3914%" y1="8144.05226%" x2="6853.24463%" y2="8555.4846%" id="linearGradient-12">
            <stop stop-color="#5EC4EC" offset="0%"></stop>
            <stop stop-color="#009CD1" offset="100%"></stop>
        </linearGradient>
        <linearGradient x1="-24.3997424%" y1="49.8050467%" x2="451.345213%" y2="49.8050467%" id="linearGradient-13">
            <stop stop-color="#1FA12E" offset="0%"></stop>
            <stop stop-color="#008736" offset="100%"></stop>
        </linearGradient>
        <linearGradient x1="6339.61382%" y1="9981.06315%" x2="13493.1644%" y2="9981.06315%" id="linearGradient-14">
            <stop stop-color="#1FA12E" offset="0%"></stop>
            <stop stop-color="#008736" offset="100%"></stop>
        </linearGradient>
        <linearGradient x1="6339.88904%" y1="9982.04875%" x2="13493.8192%" y2="9982.04875%" id="linearGradient-15">
            <stop stop-color="#1FA12E" offset="0%"></stop>
            <stop stop-color="#008736" offset="100%"></stop>
        </linearGradient>
        <linearGradient x1="6339.48061%" y1="9991.83405%" x2="13492.9184%" y2="9991.83405%" id="linearGradient-16">
            <stop stop-color="#1FA12E" offset="0%"></stop>
            <stop stop-color="#008736" offset="100%"></stop>
        </linearGradient>
        <linearGradient x1="6340.62817%" y1="11527.3377%" x2="13495.3394%" y2="11527.3377%" id="linearGradient-17">
            <stop stop-color="#1FA12E" offset="0%"></stop>
            <stop stop-color="#008736" offset="100%"></stop>
        </linearGradient>
        <linearGradient x1="6340.92664%" y1="11507.0568%" x2="13496.9498%" y2="11507.0568%" id="linearGradient-18">
            <stop stop-color="#1FA12E" offset="0%"></stop>
            <stop stop-color="#008736" offset="100%"></stop>
        </linearGradient>
        <linearGradient x1="6340.20849%" y1="11527.3377%" x2="13494.4527%" y2="11527.3377%" id="linearGradient-19">
            <stop stop-color="#1FA12E" offset="0%"></stop>
            <stop stop-color="#008736" offset="100%"></stop>
        </linearGradient>
        <linearGradient x1="6337.35487%" y1="11527.3377%" x2="13488.3897%" y2="11527.3377%" id="linearGradient-20">
            <stop stop-color="#1FA12E" offset="0%"></stop>
            <stop stop-color="#008736" offset="100%"></stop>
        </linearGradient>
        <linearGradient x1="6338.45463%" y1="11527.3377%" x2="13490.6858%" y2="11527.3377%" id="linearGradient-21">
            <stop stop-color="#1FA12E" offset="0%"></stop>
            <stop stop-color="#008736" offset="100%"></stop>
        </linearGradient>
        <linearGradient x1="6338.19985%" y1="11527.762%" x2="13490.1674%" y2="11527.762%" id="linearGradient-22">
            <stop stop-color="#1FA12E" offset="0%"></stop>
            <stop stop-color="#008736" offset="100%"></stop>
        </linearGradient>
        <linearGradient x1="6340.55985%" y1="11526.8924%" x2="13495.2085%" y2="11526.8924%" id="linearGradient-23">
            <stop stop-color="#1FA12E" offset="0%"></stop>
            <stop stop-color="#008736" offset="100%"></stop>
        </linearGradient>
        <linearGradient x1="6341.9305%" y1="11534.2101%" x2="13496.0232%" y2="11534.2101%" id="linearGradient-24">
            <stop stop-color="#1FA12E" offset="0%"></stop>
            <stop stop-color="#008736" offset="100%"></stop>
        </linearGradient>
        <linearGradient x1="6340.57495%" y1="11530.3955%" x2="13493.1006%" y2="11530.3955%" id="linearGradient-25">
            <stop stop-color="#1FA12E" offset="0%"></stop>
            <stop stop-color="#008736" offset="100%"></stop>
        </linearGradient>
        <linearGradient x1="6339.51353%" y1="11532.797%" x2="13495.0564%" y2="11532.797%" id="linearGradient-26">
            <stop stop-color="#1FA12E" offset="0%"></stop>
            <stop stop-color="#008736" offset="100%"></stop>
        </linearGradient>
    </defs>
    <g id="LU-Post-Luxembourg" stroke="none" stroke-width="1" fill="none" fill-rule="evenodd">
        <g transform="translate(40, 40)">
            <g id="Rectangle">
                <use fill="black" fill-opacity="1" filter="url(#filter-3)" xlink:href="#path-2"></use>
                <use fill="url(#linearGradient-1)" fill-rule="evenodd" xlink:href="#path-2"></use>
            </g>
            <g id="Logo" transform="translate(216, 50)">
                <g id="Clipped" transform="translate(0, 26.6942)">
                    <mask id="mask-5" fill="white">
                        <use xlink:href="#path-4"></use>
                    </mask>
                    <g id="paint0"></g>
                    <mask id="mask-7" fill="white">
                        <use xlink:href="#path-6"></use>
                    </mask>
                    <g id="paint1"></g>
                    <mask id="mask-9" fill="white">
                        <use xlink:href="#path-8"></use>
                    </mask>
                    <g id="paint2"></g>
                    <g id="Group" mask="url(#mask-9)">
                        <g transform="translate(-117.9605, -128.6617)">
                            <path d="M351.991953,703.983906 C546.388136,703.983906 703.983906,546.388136 703.983906,351.991953 C703.983906,157.59577 546.388136,0 351.991953,0 C157.59577,0 0,157.59577 0,351.991953 C0,546.388136 157.59577,703.983906 351.991953,703.983906 Z" id="Path" fill="#FFFFFF" fill-rule="nonzero"></path>
                            <path d="M586.101284,403.817592 C586.14718,369.859314 577.016373,336.519588 559.674107,307.323484 C567.355814,252.405837 552.944849,202.160712 515.537077,172.966085 C500.927279,161.638356 483.754617,154.07954 465.533514,150.956235 C435.558984,119.580639 398.192622,101.415093 357.934405,101.987943 C330.061443,102.765156 303.110294,112.140202 280.772248,128.829055 C247.585889,128.418899 215.096918,138.363173 187.825667,157.278287 C99.6275263,219.670586 94.1820037,364.180537 175.885548,479.785737 C257.602895,595.397839 390.303861,630.949026 486.301039,577.56358 C502.756884,568.412615 516.97245,555.717619 527.918911,540.397371 C565.008904,504.625834 586.003361,455.339913 586.101284,403.81069 L586.101284,403.817592 Z" id="Path" fill="#FFFFFF" fill-rule="nonzero"></path>
                            <g id="for_rsvg" stroke-width="1" fill="none" fill-rule="evenodd" transform="translate(117.9605, 101.9675)">
                                <path d="M378.05139,152.246561 C459.837756,268.148539 464.510276,422.279603 368.554509,475.66505 C272.59184,529.050496 139.690722,493.796086 57.9319635,377.811287 C-23.819893,261.826487 -18.3329596,117.682332 69.8651809,55.2210147 C158.05642,-7.25410607 296.126989,36.3445835 378.05139,152.246561 L378.05139,152.246561 Z" id="paint0" fill="url(#linearGradient-10)" fill-rule="nonzero" style="mix-blend-mode: multiply;"></path>
                                <path d="M417.405471,231.693216 C419.717575,361.378094 344.073814,467.914325 248.449333,469.646677 C152.817951,471.37903 73.3781986,367.617324 70.9004513,237.932445 C68.422704,108.240665 144.356341,1.71133603 239.980821,0.0203942908 C335.605302,-1.67054744 415.217599,102.001435 417.405471,231.693216 L417.405471,231.693216 Z" id="paint1" fill="url(#linearGradient-11)" fill-rule="nonzero" style="mix-blend-mode: multiply;"></path>
                                <path d="M386.009169,331.410465 C313.754193,423.811804 201.938083,457.050887 136.1639,405.72908 C70.3966197,354.407273 75.5591683,237.7599 147.731322,145.358562 C219.903476,52.9503215 331.802408,19.6767292 397.576591,71.0399471 C463.350773,122.403165 458.188225,239.002225 386.016071,331.410465 L386.009169,331.410465 Z" id="paint2" fill="url(#linearGradient-12)" fill-rule="nonzero" style="mix-blend-mode: multiply;"></path>
                            </g>
                        </g>
                    </g>
                </g>
                <g id="for_browser" fill-rule="nonzero">
                    <path d="M378.05139,152.246561 C459.837756,268.148539 464.510276,422.279603 368.554509,475.66505 C272.59184,529.050496 139.690722,493.796086 57.9319635,377.811287 C-23.819893,261.826487 -18.3329596,117.682332 69.8651809,55.2210147 C158.05642,-7.25410607 296.126989,36.3445835 378.05139,152.246561 L378.05139,152.246561 Z" id="paint0" fill="url(#linearGradient-10)" style="mix-blend-mode: multiply;"></path>
                    <path d="M417.405471,231.693216 C419.717575,361.378094 344.073814,467.914325 248.449333,469.646677 C152.817951,471.37903 73.3781986,367.617324 70.9004513,237.932445 C68.422704,108.240665 144.356341,1.71133603 239.980821,0.0203942908 C335.605302,-1.67054744 415.217599,102.001435 417.405471,231.693216 L417.405471,231.693216 Z" id="paint1" fill="url(#linearGradient-11)" style="mix-blend-mode: multiply;"></path>
                    <path d="M386.009169,331.410465 C313.754193,423.811804 201.938083,457.050887 136.1639,405.72908 C70.3966197,354.407273 75.5591683,237.7599 147.731322,145.358562 C219.903476,52.9503215 331.802408,19.6767292 397.576591,71.0399471 C463.350773,122.403165 458.188225,239.002225 386.016071,331.410465 L386.009169,331.410465 Z" id="paint2" fill="url(#linearGradient-12)" style="mix-blend-mode: multiply;"></path>
                </g>
                <path d="M468.14108,301.843141 C468.14108,406.46475 383.337647,491.281835 278.716038,491.290728 C174.094429,491.29962 89.2732246,406.496954 89.2592491,301.875345 C89.2452737,197.253737 174.04382,112.428413 278.665427,112.408804 C328.94728,112.288059 377.205261,132.205923 412.763889,167.75678 C448.322518,203.307637 468.25093,251.561262 468.14108,301.843141 Z" id="Path" fill="#FFFFFF" fill-rule="nonzero"></path>
                <path d="M151.24434,240.93473 C153.142336,240.644854 156.117013,240.313567 160.078648,239.86495 C165.075553,239.32661 170.086262,239.09885 175.110775,239.160966 C179.638358,239.160966 184.152137,239.575075 188.610701,240.403291 C193.00606,241.174985 197.21201,242.784727 200.999438,245.14483 C204.781626,247.546657 207.85983,250.907835 209.916567,254.890175 C212.387413,260.032019 213.553817,265.705301 213.298451,271.40619 C213.468717,276.485937 212.541184,281.542638 210.57914,286.231263 C208.998126,289.914627 206.54686,293.159298 203.435774,295.686733 C200.412785,298.033346 196.941178,299.744993 193.234909,300.725049 C189.390992,301.715701 185.436852,302.214316 181.467335,302.208937 L176.594662,302.208937 C175.443797,302.142726 174.299502,301.99046 173.171368,301.753418 L173.171368,331.072277 C170.962791,331.486385 168.988876,331.769359 167.222014,331.935002 C165.496563,331.935002 163.84013,332.183467 162.349341,332.183467 C158.677374,332.134303 155.016835,331.762475 151.409983,331.072277 L151.24434,240.93473 L151.24434,240.93473 Z M173.005725,283.422229 C173.67736,283.679062 174.391787,283.805551 175.110775,283.794926 C176.166751,283.857043 177.229628,283.857043 178.285604,283.794926 C181.685527,284.052163 185.02214,282.774306 187.380446,280.311779 C189.738752,277.849253 190.871218,274.460532 190.467286,271.074903 C190.531244,268.909383 190.179822,266.751654 189.432016,264.718343 C188.77148,263.133687 187.756175,261.721705 186.464241,260.591065 C185.17448,259.539875 183.664863,258.792143 182.047087,258.403193 C180.304532,258.080798 178.529476,257.969568 176.760306,258.071907 L175.027953,258.071907 C174.354511,258.030549 173.679167,258.030549 173.005725,258.071907 L173.005725,283.422229 L173.005725,283.422229 Z" id="Shape" fill="url(#linearGradient-13)" fill-rule="nonzero"></path>
                <path d="M217.39122,298.909875 C217.337151,294.147955 218.047877,289.408232 219.49627,284.871608 C220.750316,280.856445 222.846847,277.155161 225.645776,274.015071 C228.441007,270.943769 231.89881,268.555745 235.76382,267.037349 C240.209132,265.307123 244.949942,264.463062 249.719265,264.5527 C254.542988,264.455988 259.339353,265.299924 263.840354,267.037349 C267.705364,268.555745 271.163167,270.943769 273.958397,274.00817 C276.753628,277.155392 278.858677,280.854758 280.107904,284.871608 C281.544249,289.410221 282.243309,294.149844 282.178445,298.909875 C282.243415,303.588533 281.544034,308.24641 280.107904,312.699677 C278.851778,316.666587 276.754176,320.315615 273.958397,323.397472 C271.147015,326.417286 267.687648,328.7605 263.840354,330.250962 C259.327501,331.936464 254.535497,332.749184 249.719265,332.645888 C244.957468,332.742434 240.220975,331.929593 235.76382,330.250962 C231.916414,328.760714 228.457002,326.417469 225.645776,323.397472 C222.849998,320.315615 220.752395,316.666587 219.49627,312.699677 C218.04771,308.248526 217.336647,303.590483 217.39122,298.909875 L217.39122,298.909875 Z M260.700034,298.909875 C260.972987,294.606203 260.028172,290.312674 257.973822,286.521139 C256.1722,283.752671 253.015012,282.174077 249.719265,282.39386 C246.417817,282.15493 243.249393,283.737819 241.457807,286.521139 C237.932514,294.317485 237.932514,303.2538 241.457807,311.050146 C243.243127,313.840442 246.416002,315.425555 249.719265,315.177425 C253.016813,315.40619 256.178305,313.825444 257.973822,311.050146 C259.98935,307.333962 260.933161,303.131016 260.700034,298.909875 L260.700034,298.909875 Z" id="Shape" fill="url(#linearGradient-14)" fill-rule="nonzero"></path>
                <path d="M324.376068,290.365443 C326.722681,290.9659 329.020982,291.787214 331.229559,292.801779 C333.196572,293.719719 334.984139,294.975847 336.51634,296.514949 C338.041638,298.102364 339.221846,299.986556 339.981045,302.050195 C340.898985,304.590059 341.333798,307.27486 341.26478,309.980367 C341.278584,313.072375 340.602207,316.136775 339.277061,318.938907 C337.95786,321.752402 335.975519,324.203685 333.500252,326.082273 C330.682898,328.243294 327.491658,329.866989 324.086192,330.872125 C319.893991,332.124492 315.533709,332.722779 311.159115,332.645888 C307.414498,332.665925 303.674681,332.375051 299.978195,331.776261 C296.246018,331.086789 292.582757,330.06588 289.031935,328.725664 C289.535336,322.711399 291.115669,316.836583 293.697554,311.381433 C299.098219,313.857044 304.969621,315.137735 310.910651,315.136014 L314.050971,315.136014 C315.044831,315.080799 316.031788,314.901352 316.984237,314.597673 C317.743436,314.328503 318.433616,313.921296 319.047876,313.403661 C319.578665,312.867496 319.863531,312.135341 319.834682,311.381433 C319.853911,310.302898 319.214188,309.321442 318.21966,308.903686 C317.012838,308.311894 315.756513,307.826915 314.465079,307.454307 L305.920647,305.066283 C301.708656,303.968083 297.870236,301.755627 294.808744,298.66141 C291.747073,295.288931 290.170199,290.826924 290.433001,286.279575 C290.39159,283.187568 291.074869,280.136971 292.413819,277.355544 C293.794179,274.663841 295.761193,272.317228 298.156119,270.460643 C300.757799,268.573111 303.681137,267.174586 306.783372,266.333365 C310.366196,265.29223 314.081542,264.778406 317.812454,264.808066 C321.317452,264.835832 324.812661,265.18235 328.254881,265.843337 C332.050873,266.499008 335.798552,267.46526 339.442704,268.72829 C339.23565,271.654655 338.690408,274.553412 337.834584,277.355544 C337.006368,280.192185 335.94349,282.959808 334.659755,285.617002 C331.973382,284.57021 329.211687,283.728089 326.398296,283.097844 C323.519561,282.391041 320.569414,282.015905 317.605399,281.979752 C313.471219,281.979752 311.697456,283.056433 311.697456,285.244305 C311.690608,286.164494 312.222234,287.00376 313.057111,287.390766 C314.057873,287.915303 315.106947,288.329411 316.197432,288.63309 L324.376068,290.358541 L324.376068,290.365443 Z" id="Path" fill="url(#linearGradient-15)" fill-rule="nonzero"></path>
                <path d="M365.662654,283.801828 L347.041589,283.801828 C346.639599,282.257597 346.362631,280.683499 346.213373,279.094798 L346.213373,274.960618 L346.213373,270.83334 C346.372114,269.273533 346.648186,267.727529 347.041589,266.209132 L405.506762,266.209132 C405.900165,267.727529 406.176237,269.273533 406.334979,270.83334 C406.334979,272.282719 406.542033,273.683785 406.542033,274.96752 C406.542033,276.244354 406.542033,277.728241 406.334979,279.094798 C406.183139,280.682213 405.907067,282.255824 405.506762,283.801828 L386.927109,283.801828 L386.927109,330.996357 C384.739237,331.320742 382.799831,331.569207 380.984656,331.776261 C379.394269,331.952645 377.794906,332.035609 376.194805,332.024726 C374.745426,332.024726 373.220128,332.024726 371.446365,331.776261 C369.665699,331.527796 367.767704,331.320742 365.662654,330.996357 L365.662654,283.801828 L365.662654,283.801828 Z" id="Path" fill="url(#linearGradient-16)" fill-rule="nonzero"></path>
                <polygon id="Path" fill="url(#linearGradient-17)" fill-rule="nonzero" points="151.327162 351.467105 155.45444 351.467105 155.45444 370.046758 164.951321 370.046758 164.951321 373.684009 151.327162 373.684009"></polygon>
                <path d="M170.534879,351.480908 L174.662158,351.480908 L174.662158,365.429452 C174.574587,366.71442 175.064852,367.97146 175.999281,368.857832 C176.933709,369.744204 178.21486,370.167479 179.49342,370.012249 C180.75797,370.122675 182.008785,369.682883 182.925965,368.805351 C183.843145,367.927819 184.337745,366.697646 184.283271,365.429452 L184.283271,351.349774 L188.410549,351.349774 L188.410549,365.429452 C188.11843,370.107469 184.239213,373.752003 179.552085,373.752003 C174.864957,373.752003 170.98574,370.107469 170.693621,365.429452 L170.534879,351.480908 Z" id="Path" fill="url(#linearGradient-18)" fill-rule="nonzero"></path>
                <path d="M201.165081,362.330543 L194.594565,351.467105 L199.177362,351.467105 L202.152039,356.878118 C202.856023,358.154952 203.560007,359.56292 203.560007,359.56292 C203.946508,358.64498 204.388223,357.747745 204.878251,356.871216 L207.93575,351.467105 L212.518547,351.467105 L205.872111,362.330543 L212.891244,373.684009 L208.349858,373.684009 L204.961073,367.734654 C204.215678,366.49233 203.601418,365.132675 203.601418,365.132675 C203.601418,365.132675 202.980255,366.499232 202.234861,367.734654 L198.811566,373.684009 L194.353002,373.684009 L201.165081,362.330543 Z" id="Path" fill="url(#linearGradient-19)" fill-rule="nonzero"></path>
                <polygon id="Path" fill="url(#linearGradient-20)" fill-rule="nonzero" points="219.247805 351.467105 232.423347 351.467105 232.423347 354.938712 223.257752 354.938712 223.257752 360.67411 230.642682 360.67411 230.642682 364.104306 223.257752 364.104306 223.257752 370.046758 232.920277 370.046758 232.920277 373.684009 219.254707 373.684009 219.254707 351.467105"></polygon>
                <path d="M241.257655,351.467105 L245.384933,351.467105 L249.512211,362.371953 C250.009141,363.648787 250.588892,365.588194 250.588892,365.588194 C250.588892,365.588194 251.168644,363.655689 251.658672,362.371953 L255.792852,351.467105 L259.92013,351.467105 L262.439288,373.684009 L258.305108,373.684009 L257.359561,361.295272 L257.359561,357.913389 C257.359561,357.913389 256.696988,360.018439 256.200058,361.295272 L252.693942,369.55673 L249.215434,369.55673 L245.667907,361.295272 C245.129566,360.018439 244.466993,357.871978 244.466993,357.871978 L244.466993,361.295272 L243.521446,373.684009 L239.394168,373.684009 L241.250753,351.467105 L241.257655,351.467105 Z" id="Path" fill="url(#linearGradient-21)" fill-rule="nonzero"></path>
                <path d="M270.362558,351.467105 L278.251319,351.467105 C282.378597,351.467105 285.021988,353.537646 285.021988,357.167994 C285.081012,359.094744 284.061677,360.893883 282.378597,361.833613 C284.601114,362.543817 286.062608,364.66653 285.933026,366.996161 C285.933026,371.413315 282.378597,373.394133 278.33414,373.394133 L270.362558,373.394133 L270.362558,351.467105 L270.362558,351.467105 Z M278.251319,360.467056 C278.998845,360.505086 279.726544,360.219359 280.248491,359.682877 C280.770438,359.146394 281.036074,358.411124 280.977531,357.664924 C281.030085,356.912198 280.747961,356.174613 280.206485,355.649102 C279.665009,355.123591 278.919314,354.863661 278.168497,354.938712 L274.372505,354.938712 L274.372505,360.467056 L278.251319,360.467056 L278.251319,360.467056 Z M278.665427,370.046758 C280.420743,370.046758 281.843707,368.623794 281.843707,366.868478 C281.843707,365.113162 280.420743,363.690198 278.665427,363.690198 L274.538149,363.690198 L274.538149,370.046758 L278.665427,370.046758 L278.665427,370.046758 Z" id="Shape" fill="url(#linearGradient-22)" fill-rule="nonzero"></path>
                <path d="M303.187533,351.101309 C306.195643,351.043404 309.099261,352.204757 311.237731,354.321127 C313.376201,356.437498 314.567654,359.328895 314.540999,362.337444 C314.540999,366.393647 312.377041,370.141734 308.864266,372.169835 C305.351492,374.197937 301.023574,374.197937 297.5108,372.169835 C293.998025,370.141734 291.834067,366.393647 291.834067,362.337444 C291.799687,359.326562 292.988676,356.43063 295.12886,354.312564 C297.269044,352.194498 300.177171,351.035655 303.187533,351.101309 L303.187533,351.101309 Z M303.187533,370.177893 C305.195397,370.124998 307.096394,369.261795 308.457627,367.784851 C309.818859,366.307907 310.52445,364.342951 310.413721,362.337444 C310.653123,359.597358 309.326602,356.956553 306.985527,355.512683 C304.644453,354.068814 301.689202,354.068814 299.348128,355.512683 C297.007053,356.956553 295.680532,359.597358 295.919934,362.337444 C295.807112,364.350465 296.517614,366.32284 297.888227,367.801488 C299.25884,369.280136 301.171749,370.137955 303.187533,370.177893 L303.187533,370.177893 Z" id="Shape" fill="url(#linearGradient-23)" fill-rule="nonzero"></path>
                <path d="M321.35998,351.480908 L325.487258,351.480908 L325.487258,365.429452 C325.404735,366.713038 325.896568,367.966975 326.829754,368.852169 C327.76294,369.737362 329.041075,370.162366 330.318521,370.012249 C331.582515,370.120362 332.831976,369.679797 333.748612,368.802786 C334.665247,367.925774 335.16056,366.696987 335.108372,365.429452 L335.108372,351.349774 L339.23565,351.349774 L339.23565,365.429452 C338.917071,370.085325 335.047397,373.699265 330.380637,373.699265 C325.713877,373.699265 321.844203,370.085325 321.525624,365.429452 L321.35998,351.474007 L321.35998,351.480908 Z" id="Path" fill="url(#linearGradient-24)" fill-rule="nonzero"></path>
                <path d="M347.414287,351.480908 L354.523144,351.480908 C356.013933,351.363578 357.525428,351.570632 358.940298,352.095169 C361.174445,353.264727 362.574523,355.577976 362.574523,358.099737 C362.574523,360.621499 361.174445,362.934747 358.940298,364.104306 C359.237075,364.428691 359.492442,364.794486 359.678791,365.180987 L364.220177,373.442445 L359.761612,373.442445 L355.385869,365.180987 L351.548467,365.180987 L351.548467,373.442445 L347.414287,373.442445 L347.414287,351.474007 L347.414287,351.480908 Z M355.013172,361.799104 C355.957718,361.887814 356.892579,361.550398 357.562745,360.878897 C358.232912,360.207395 358.568466,359.271865 358.477877,358.327497 C358.477877,356.222447 357.573741,354.945613 354.350599,354.945613 L351.334511,354.945613 L351.334511,361.799104 L355.013172,361.799104 L355.013172,361.799104 Z" id="Shape" fill="url(#linearGradient-25)" fill-rule="nonzero"></path>
                <path d="M380.563646,351.101309 C383.579734,350.949469 386.526804,351.957133 388.825105,353.910343 L386.844287,356.878118 C385.193985,355.542341 383.142141,354.800857 381.019165,354.773068 C378.980372,354.650773 376.986889,355.407896 375.543313,356.852792 C374.099736,358.297688 373.344435,360.291862 373.468593,362.330543 C373.320194,364.365341 374.029024,366.369554 375.423705,367.858612 C376.818386,369.34767 378.771964,370.186028 380.812111,370.170991 C382.882652,370.136482 384.849666,369.322069 386.347357,367.900298 L386.347357,365.429452 L382.965474,365.429452 L382.965474,361.999256 L389.936295,361.999256 L389.936295,373.684009 L386.305947,373.684009 L386.305947,372.607327 L386.305947,371.703191 C384.560249,373.26137 382.288803,374.099906 379.949386,374.049804 C376.985599,374.042519 374.154492,372.820023 372.116954,370.667694 C370.079416,368.515365 369.013766,365.621569 369.16877,362.661829 C369.028907,359.584043 370.178776,356.587337 372.341569,354.393104 C374.504362,352.198871 377.484162,351.005877 380.563646,351.101309 L380.563646,351.101309 Z" id="Path" fill="url(#linearGradient-26)" fill-rule="nonzero"></path>
            </g>
        </g>
    </g>
</svg>