<?xml version="1.0" encoding="UTF-8"?>
<svg width="980px" height="680px" viewBox="0 0 980 680" version="1.1" xmlns="http://www.w3.org/2000/svg" xmlns:xlink="http://www.w3.org/1999/xlink">
    <title>LV Latvijas Pasts text</title>
    <defs>
        <linearGradient x1="50%" y1="0%" x2="50%" y2="100%" id="linearGradient-1">
            <stop stop-color="#FFFFFF" offset="0%"></stop>
            <stop stop-color="#EDEDED" offset="100%"></stop>
        </linearGradient>
        <rect id="path-2" x="0" y="0" width="900" height="600" rx="80"></rect>
        <filter x="-6.7%" y="-10.0%" width="113.3%" height="120.0%" filterUnits="objectBoundingBox" id="filter-3">
            <feMorphology radius="2.5" operator="dilate" in="SourceAlpha" result="shadowSpreadOuter1"></feMorphology>
            <feOffset dx="0" dy="0" in="shadowSpreadOuter1" result="shadowOffsetOuter1"></feOffset>
            <feGaussianBlur stdDeviation="17.5" in="shadowOffsetOuter1" result="shadowBlurOuter1"></feGaussianBlur>
            <feColorMatrix values="0 0 0 0 0   0 0 0 0 0   0 0 0 0 0  0 0 0 0.5 0" type="matrix" in="shadowBlurOuter1"></feColorMatrix>
        </filter>
    </defs>
    <g id="LV-Latvijas-Pasts-text" stroke="none" stroke-width="1" fill="none" fill-rule="evenodd">
        <g transform="translate(40, 40)">
            <g id="Rectangle">
                <use fill="black" fill-opacity="1" filter="url(#filter-3)" xlink:href="#path-2"></use>
                <use fill="url(#linearGradient-1)" fill-rule="evenodd" xlink:href="#path-2"></use>
            </g>
            <g id="Logo" transform="translate(50, 209)">
                <path d="M336.99552,108.494513 L320.230603,108.494513 L325.019817,79.7992758 L344.004483,79.7992758 C351.499308,79.7992758 364.027613,79.7992758 361.729111,93.5622578 C359.245074,108.494513 345.311239,108.494513 336.99552,108.494513 M356.889176,54.064595 C356.889176,54.064595 299.901807,54.064595 295.869418,54.064595 C295.131281,58.4186681 277.636236,163.601167 276.896765,167.960579 C280.506027,167.960579 306.72657,167.960579 310.330493,167.960579 C311.012569,163.914842 316.315675,132.100209 316.315675,132.100209 L340.80767,132.100209 C369.971417,132.100209 389.13094,117.565721 393.343526,92.2448237 C395.552597,79.0277693 390.750036,54.064595 356.889176,54.064595 Z" id="Shape" fill="#205E98"></path>
                <path d="M413.362651,130.250195 L432.798475,90.6444149 L436.36369,84.140001 L442.54375,130.248861 L413.362651,130.248861 M424.015581,54.064595 C422.524625,56.8035766 364.931263,161.984741 361.67305,167.960579 C366.82399,167.960579 392.275697,167.960579 394.851834,167.960579 C396.122551,165.393785 403.167553,151.014132 403.167553,151.014132 L445.252032,151.014132 C445.252032,151.014132 447.223511,165.335054 447.590577,167.960579 C450.234789,167.960579 476.793033,167.960579 481.943974,167.960579 C480.707962,162.002093 458.614578,56.8035766 458.023268,54.064595 C455.44446,54.064595 426.595723,54.064595 424.015581,54.064595 Z" id="Shape" fill="#205E98"></path>
                <path d="M550.640088,97.646704 C536.874436,94.3150773 526.014614,91.6908874 526.770104,83.1082111 C527.837933,76.6838845 534.366373,72.838365 544.201078,72.838365 C547.009469,72.838365 552.273866,73.2721706 555.916498,76.1526395 C559.061255,78.4191067 560.293263,81.5745416 559.892827,85.2812433 C563.389967,85.2812433 587.185203,85.2812433 591.082779,85.2812433 C593.402638,55.7944781 565.320068,51.2415219 547.96918,51.2415219 C526.161441,51.2415219 499.075956,60.8866881 494.547026,88.1016469 C490.999164,109.360789 509.397859,114.593151 527.171874,119.655996 L529.143354,120.212602 C549.166484,125.989557 555.900481,127.93968 554.555016,136.065859 C552.934586,145.7484 543.183971,149.182805 534.570595,149.182805 C523.861604,149.182805 517.697561,145.788443 516.225291,139.127859 C515.806168,137.229793 515.762121,135.043413 515.952995,132.755589 C512.656073,132.755589 486.396821,132.755589 482.49791,132.755589 C478.577643,168.826856 519.320661,170.778313 527.708458,170.778313 C540.501051,170.778313 582.67496,168.01931 588.636116,132.260384 C592.021134,111.866183 576.621704,104.67035 561.068774,100.308268 L550.640088,97.646704 Z" id="Shape" fill="#205E98"></path>
                <path d="M613.644673,167.960579 C617.247261,167.960579 643.473143,167.960579 647.082406,167.960579 C647.816538,163.561123 661.763721,79.7992758 661.763721,79.7992758 C661.763721,79.7992758 692.310306,79.7992758 696.121121,79.7992758 C696.708427,76.1646526 699.805132,57.6711877 700.387098,54.064595 C696.324009,54.064595 602.329689,54.064595 598.26126,54.064595 C597.66995,57.6711877 594.578585,76.1646526 593.991279,79.7992758 C597.782072,79.7992758 628.329992,79.7992758 628.329992,79.7992758 C628.329992,79.7992758 614.377471,163.561123 613.644673,167.960579" id="Path" fill="#205E98"></path>
                <path d="M761.777927,100.306933 L751.305193,97.646704 C737.575581,94.3150773 726.718429,91.6908874 727.453896,83.1082111 C728.521725,76.6838845 735.039487,72.838365 744.900888,72.838365 C747.697266,72.838365 752.961663,73.2721706 756.625652,76.1526395 C759.755726,78.4191067 760.998412,81.5745416 760.557932,85.2812433 C764.076429,85.2812433 787.866326,85.2812433 791.766572,85.2812433 C794.08643,55.7944781 766.007865,51.2415219 748.655642,51.2415219 C726.846568,51.2415219 699.758414,60.8866881 695.233488,88.1016469 C691.701644,109.360789 710.084321,114.593151 727.842319,119.655996 L729.809794,120.212602 C749.832924,125.989557 756.582938,127.93968 755.244148,136.065859 C753.623717,145.7484 743.873103,149.182805 735.259726,149.182805 C724.550736,149.182805 718.382688,145.788443 716.914423,139.127859 C716.489961,137.229793 716.455256,135.022057 716.636787,132.755589 C713.342535,132.755589 687.083283,132.755589 683.183037,132.755589 C679.284126,168.826856 720.004453,170.778313 728.413607,170.778313 C741.184843,170.778313 783.380109,168.01931 789.322578,132.260384 C792.731622,111.866183 777.306831,104.669015 761.777927,100.306933 Z" id="Shape" fill="#205E98"></path>
                <path d="M47.5991574,27.6358254 C27.2263134,59.6226454 30.6313534,133.737992 34.7718607,138.513858 C46.3671496,151.905769 172.286889,162.162267 218.379731,146.579971 C227.970171,142.399421 252.016347,56.0120483 241.475539,49.6437827 C235.956198,46.2921341 165.934641,87.5290235 140.95011,89.5432161 C119.034253,91.3158124 94.5382541,59.7200848 61.234,51.9890023 C56.4114169,50.8651122 54.4786463,46.6471873 56.4114169,43.7667184 C58.3441875,40.907606 64.9126711,38.8306785 70.6402394,41.301368 C95.9958408,52.2292638 115.888162,74.6069569 129.852696,74.3373301 C157.676318,73.7793894 214.317976,47.8258037 245.15955,39.7596898 C247.164399,39.2484666 250.439965,38.3221249 250.787009,40.1360995 C261.387882,95.1199535 235.387579,153.124429 231.965187,156.006233 C229.700054,157.901629 215.957094,166.481636 123.746049,167.014216 C102.322728,167.151699 42.4842562,161.964719 23.5503118,153.640991 C19.1682083,151.728242 16.7388971,131.53426 20.7886389,95.7940206 C24.1549701,65.8961412 37.518851,20.0021823 43.4613198,18.8782922 C110.755908,6.43274427 273.183389,12.3284956 272.058164,11.4421974 C252.201883,-4.12274616 34.2352765,-2.78128588 28.8467441,9.28785227 C-0.118119651,74.2572429 -4.46151442,164.683679 3.56455588,168.251563 C48.869874,188.44955 236.562191,185.785316 248.248245,164.05099 C255.202482,151.076867 273.419646,69.2090809 272.2437,28.6916414 C167.373541,12.7836577 51.2804982,21.8335091 47.5991574,27.6358254" id="Path" fill="#F2C317"></path>
                <polyline id="Path" fill="#F2C317" fill-rule="nonzero" points="309.10249 11.538302 304.13308 41.1064892 320.529596 41.1064892 319.661984 46.368217 297.581949 46.368217 303.44967 11.538302 309.10249 11.538302"></polyline>
                <path d="M381.640119,32.5211434 L379.324265,17.5314927 L379.19479,17.5314927 L371.778717,32.5211434 L381.640119,32.5211434 M383.312606,11.538302 L389.88109,46.368217 L383.826499,46.368217 L382.356899,37.1368346 L369.456189,37.1368346 L364.875202,46.368217 L359.044856,46.368217 L377.312742,11.538302 L383.312606,11.538302 Z" id="Shape" fill="#F2C317" fill-rule="nonzero"></path>
                <polyline id="Path" fill="#F2C317" fill-rule="nonzero" points="464.84803 11.538302 463.971076 16.8000298 453.697225 16.8000298 448.73182 46.368217 443.079 46.368217 448.049744 16.8000298 437.837294 16.8000298 438.722257 11.538302 464.84803 11.538302"></polyline>
                <polyline id="Path" fill="#F2C317" fill-rule="nonzero" points="513.79598 11.538302 517.241064 39.1096488 517.331829 39.1096488 530.244552 11.538302 535.989473 11.538302 519.073725 46.368217 512.802899 46.368217 507.910907 11.538302 513.79598 11.538302"></polyline>
                <polyline id="Path" fill="#F2C317" fill-rule="nonzero" points="587.825901 11.538302 581.951506 46.368217 576.306694 46.368217 582.159733 11.538302 587.825901 11.538302"></polyline>
                <path d="M638.485047,47.1957845 C631.657615,47.1957845 629.651431,42.3812101 630.740616,36.0169489 L631.034269,34.1802828 L636.683085,34.1802828 L636.388097,35.9715661 C635.723374,39.9198641 636.326697,42.2263749 639.773116,42.2263749 C643.435769,42.2263749 644.686464,39.8197552 645.420597,35.4816995 L649.452986,11.538302 L655.119154,11.538302 L651.130813,35.1453334 C650.11504,41.2039286 647.739121,47.1957845 638.485047,47.1957845" id="Path" fill="#F2C317" fill-rule="nonzero"></path>
                <path d="M717.924856,32.5211434 L715.604998,17.5314927 L715.478193,17.5314927 L708.058116,32.5211434 L717.924856,32.5211434 M719.600013,11.538302 L726.188518,46.368217 L720.113906,46.368217 L718.640302,37.1368346 L705.746266,37.1368346 L701.158605,46.368217 L695.324254,46.368217 L713.580127,11.538302 L719.600013,11.538302 Z" id="Shape" fill="#F2C317" fill-rule="nonzero"></path>
                <path d="M784.794983,42.2263749 C789.783079,42.2263749 792.064229,39.583498 792.504709,36.9606428 C792.967879,34.2830614 791.782589,33.1938757 790.573273,32.6586264 C788.473654,31.7336195 785.638568,31.1049351 781.428651,29.7821618 C776.180271,28.1897617 775.153821,24.5738255 775.762483,20.9432066 C776.93843,13.9836306 783.468205,10.7120693 789.286539,10.7120693 C796.036553,10.7120693 801.046006,14.5575888 799.812664,21.8348439 L794.161178,21.8348439 C794.641701,17.3566357 792.11762,15.7001659 788.237397,15.7001659 C785.626554,15.7001659 782.130749,16.7039252 781.536769,20.2144133 C781.134998,22.6624115 782.440419,24.0439153 784.632139,24.7153129 C785.107323,24.8754872 791.917403,26.8643189 793.500459,27.3968986 C797.511492,28.7597155 798.892996,32.6586264 798.284333,36.2692235 C796.957556,44.0803932 790.022006,47.1971193 783.599014,47.1971193 C776.237667,47.1971193 770.901192,43.3916434 772.2253,34.7529062 L777.876785,34.7529062 C776.973135,40.1187473 780.287409,42.2263749 784.794983,42.2263749" id="Path" fill="#F2C317" fill-rule="nonzero"></path>
            </g>
        </g>
    </g>
</svg>