<?xml version="1.0" encoding="UTF-8"?>
<svg width="980px" height="680px" viewBox="0 0 980 680" version="1.1" xmlns="http://www.w3.org/2000/svg" xmlns:xlink="http://www.w3.org/1999/xlink">
    <title>MA Poste Maroc text</title>
    <defs>
        <linearGradient x1="50%" y1="0%" x2="50%" y2="100%" id="linearGradient-1">
            <stop stop-color="#FFFFFF" offset="0%"></stop>
            <stop stop-color="#EDEDED" offset="100%"></stop>
        </linearGradient>
        <rect id="path-2" x="-5.68434189e-14" y="0" width="900" height="600" rx="80"></rect>
        <filter x="-6.7%" y="-10.0%" width="113.3%" height="120.0%" filterUnits="objectBoundingBox" id="filter-3">
            <feMorphology radius="2.5" operator="dilate" in="SourceAlpha" result="shadowSpreadOuter1"></feMorphology>
            <feOffset dx="0" dy="0" in="shadowSpreadOuter1" result="shadowOffsetOuter1"></feOffset>
            <feGaussianBlur stdDeviation="17.5" in="shadowOffsetOuter1" result="shadowBlurOuter1"></feGaussianBlur>
            <feColorMatrix values="0 0 0 0 0   0 0 0 0 0   0 0 0 0 0  0 0 0 0.5 0" type="matrix" in="shadowBlurOuter1"></feColorMatrix>
        </filter>
        <polygon id="path-4" points="0 0 432.338964 0 432.338964 94.9998947 0 94.9998947"></polygon>
        <polygon id="path-6" points="0 0 432.338964 0 432.338964 328.550081 0 328.550081"></polygon>
    </defs>
    <g id="MA-Poste-Maroc-text" stroke="none" stroke-width="1" fill="none" fill-rule="evenodd">
        <g transform="translate(40, 40)">
            <g id="Rectangle">
                <use fill="black" fill-opacity="1" filter="url(#filter-3)" xlink:href="#path-2"></use>
                <use fill="url(#linearGradient-1)" fill-rule="evenodd" xlink:href="#path-2"></use>
            </g>
            <g id="Logo" transform="translate(234, 50)">
                <polygon id="Fill-1" fill="#FFE535" points="0 500 432.339377 500 432.339377 420.802436 0 420.802436"></polygon>
                <g id="Group-52">
                    <path d="M53.3965922,447.357995 C52.6343622,445.945081 51.5251005,444.782112 50.0770699,443.887679 C48.8686564,443.119252 47.4763988,442.578048 45.9023627,442.204163 C44.3345236,441.807555 42.4093246,441.636105 40.118503,441.636105 L24.8470479,441.636105 L24.8470479,475.870357 L34.1239456,475.870357 L34.1239456,464.721968 L39.9016083,464.721968 C42.5208704,464.721968 44.7187371,464.377002 46.48488,463.682939 C48.2427602,462.988876 49.8477812,461.972569 51.2854835,460.611296 C52.3307095,459.619777 53.1363185,458.382444 53.7002449,456.919954 C54.2621055,455.45953 54.5409702,453.970186 54.5409702,452.435397 C54.5409702,450.454425 54.1588223,448.770909 53.3965922,447.357995 M44.516302,455.160008 C44.2498313,455.831349 43.8222389,456.426261 43.2273276,456.919954 C42.5394614,457.46529 41.6842765,457.835043 40.6617727,458.035413 C39.6413346,458.206863 38.3461632,458.306015 36.7741927,458.306015 L34.1239456,458.306015 L34.1239456,448.049992 L35.714507,448.049992 C37.2389672,448.049992 38.4597747,448.078912 39.3748639,448.101634 C40.2920188,448.15121 41.225699,448.347448 42.1924298,448.719268 C42.911281,448.994001 43.5495712,449.485629 44.0949065,450.181758 C44.6402419,450.875821 44.9129095,451.716546 44.9129095,452.683277 C44.9129095,453.674796 44.7827727,454.490733 44.516302,455.160008" id="Fill-2" fill="#004594"></path>
                    <path d="M92.3325025,445.697821 C89.0377682,442.502238 84.5160293,440.917874 78.7631547,440.917874 C72.991689,440.917874 68.4658188,442.502238 65.1876098,445.697821 C61.9052695,448.895469 60.2713291,453.25402 60.2713291,458.779672 C60.2713291,464.20204 61.9052695,468.537869 65.1876098,471.75824 C68.4658188,474.97861 72.991689,476.589828 78.7631547,476.589828 C84.5408173,476.589828 89.0811471,474.97861 92.3572905,471.75824 C95.6334338,468.537869 97.2756369,464.20204 97.2756369,458.779672 C97.2756369,453.25402 95.6272369,448.895469 92.3325025,445.697821 M82.1797632,469.502534 C81.1035522,469.948718 79.9695025,470.173875 78.7879426,470.173875 C77.5981201,470.173875 76.4661361,469.948718 75.3878594,469.527322 C74.3095827,469.083205 73.3759025,468.413929 72.5702935,467.521562 C71.7708815,466.604408 71.1201973,465.441439 70.6327005,464.005802 C70.1410725,462.5681 69.9014554,460.808154 69.9014554,458.779672 C69.9014554,456.76978 70.1472695,454.989178 70.6554228,453.479177 C71.1635762,451.965046 71.8204574,450.777289 72.6198695,449.90971 C73.4874484,448.994621 74.4397196,448.32328 75.4746173,447.926672 C76.5095151,447.53213 77.6125797,447.333827 78.7879426,447.333827 C79.9405832,447.333827 81.0539762,447.53213 82.1198589,447.953526 C83.1857416,448.348068 84.1318158,449.017343 84.9498188,449.932432 C85.7554278,450.826865 86.3978494,452.014622 86.9018715,453.452324 C87.3976308,454.914814 87.6434449,456.670629 87.6434449,458.72803 C87.6434449,460.661492 87.4286158,462.345008 86.9927607,463.755857 C86.5610369,465.170837 85.8979587,466.406104 84.9993948,467.474052 C84.1958514,468.389141 83.2539085,469.083205 82.1797632,469.502534" id="Fill-4" fill="#004594"></path>
                    <path d="M134.389012,465.194385 C134.389012,468.588271 132.883142,471.312882 129.879667,473.41986 C126.869994,475.524772 122.796504,476.590654 117.644738,476.590654 C114.657788,476.590654 112.063313,476.342775 109.846856,475.847015 C107.628332,475.34919 105.554406,474.729491 103.62301,473.96313 L103.62301,465.787231 L104.631054,465.787231 C106.545924,467.224933 108.681821,468.315604 111.047007,469.084031 C113.414258,469.87518 115.692685,470.247 117.871961,470.247 C118.435887,470.247 119.173329,470.197424 120.090484,470.125126 C121.005574,470.023908 121.743016,469.87518 122.33173,469.676876 C123.025793,469.379421 123.612442,469.032389 124.071019,468.610994 C124.529597,468.216452 124.752688,467.596753 124.752688,466.803538 C124.752688,466.035111 124.418051,465.392689 123.750841,464.847354 C123.087763,464.299953 122.108638,463.878557 120.825861,463.583167 C119.476982,463.285712 118.051674,462.990322 116.545805,462.717654 C115.042001,462.467709 113.629087,462.124808 112.315324,461.701347 C109.289126,460.76147 107.113982,459.495218 105.789891,457.886065 C104.463735,456.276913 103.800657,454.295941 103.800657,451.916296 C103.800657,448.718648 105.306526,446.120042 108.316199,444.112217 C111.32174,442.106457 115.190729,441.09015 119.916969,441.09015 C122.288351,441.09015 124.628749,441.315308 126.952621,441.736703 C129.262033,442.178755 131.267793,442.72409 132.959572,443.393366 L132.959572,451.247021 L131.97425,451.247021 C130.52622,450.131562 128.75388,449.214407 126.655165,448.448046 C124.560582,447.706472 122.412291,447.334653 120.23095,447.334653 C119.458391,447.334653 118.696161,447.382163 117.927734,447.481315 C117.159307,447.580467 116.430127,447.778771 115.721605,448.049373 C115.097774,448.27453 114.558636,448.644284 114.108321,449.115255 C113.65594,449.584161 113.430783,450.131562 113.430783,450.753327 C113.430783,451.668416 113.790209,452.360414 114.515257,452.833451 C115.240305,453.327145 116.601578,453.775394 118.6156,454.169936 C119.93556,454.41575 121.203877,454.665695 122.412291,454.91564 C123.626901,455.161454 124.932401,455.483698 126.332921,455.927816 C129.088517,456.770607 131.106671,457.935641 132.420434,459.445642 C133.727999,460.908132 134.389012,462.837462 134.389012,465.194385" id="Fill-6" fill="#004594"></path>
                    <polygon id="Fill-8" fill="#004594" points="170.123762 448.225367 158.894812 448.225367 158.894812 475.870151 149.611717 475.870151 149.611717 448.225367 138.384832 448.225367 138.384832 441.637964 170.123762 441.637964"></polygon>
                    <polygon id="Fill-10" fill="#004594" points="202.835413 475.869738 176.880343 475.869738 176.880343 441.637551 202.835413 441.637551 202.835413 448.224954 186.157241 448.224954 186.157241 454.194724 201.585686 454.194724 201.585686 460.80898 186.157241 460.80898 186.157241 469.280269 202.835413 469.280269"></polygon>
                    <polygon id="Fill-12" fill="#004594" points="262.314973 475.869738 257.495779 475.869738 257.495779 446.367922 247.512424 466.40693 244.661807 466.40693 234.754882 446.367922 234.754882 475.869738 230.297179 475.869738 230.297179 441.637551 236.795758 441.637551 246.372177 460.68504 255.636681 441.637551 262.314973 441.637551"></polygon>
                    <path d="M288.460704,441.636931 L282.094327,441.636931 L269.002148,475.869118 L273.872984,475.869118 L277.388744,466.334012 L292.883291,466.334012 L296.388723,475.869118 L301.542555,475.869118 L288.460704,441.636931 Z M278.838841,462.392725 L285.143248,445.722815 L291.410473,462.392725 L278.838841,462.392725 Z" id="Fill-14" fill="#004594"></path>
                    <path d="M324.454489,460.956262 C326.734982,460.115537 328.519716,458.826562 329.829347,457.165768 C331.120387,455.50704 331.775203,453.426916 331.775203,450.974973 C331.775203,449.140663 331.403383,447.630663 330.672138,446.44084 C329.942959,445.251017 328.914258,444.259499 327.625284,443.491072 C326.462315,442.80114 325.160946,442.303315 323.712916,442.032713 C322.275213,441.760045 320.465692,441.636105 318.288482,441.636105 L308.228697,441.636105 L308.228697,475.870357 L313.045826,475.870357 L313.045826,462.3196 L319.773694,462.3196 L331.738021,475.870357 L337.932948,475.870357 L324.454489,460.956262 Z M326.264011,454.515521 C325.916979,455.360378 325.386104,456.101951 324.656924,456.746438 C323.874037,457.438436 322.921766,457.907342 321.804242,458.182075 C320.666061,458.454743 319.354364,458.578683 317.854692,458.578683 L313.045826,458.578683 L313.045826,445.548473 L318.645841,445.548473 C319.922422,445.548473 321.037881,445.647625 321.992217,445.823206 C322.942423,445.994657 323.762492,446.3169 324.442095,446.763084 C325.272492,447.281565 325.877732,447.926053 326.239223,448.69448 C326.598648,449.464972 326.784558,450.32842 326.784558,451.319939 C326.784558,452.608913 326.611042,453.674796 326.264011,454.515521 L326.264011,454.515521 Z" id="Fill-16" fill="#004594"></path>
                    <path d="M365.38046,442.107077 C363.335453,441.313862 361.017778,440.917254 358.454288,440.917254 C355.977557,440.917254 353.686735,441.313862 351.592152,442.107077 C349.5017,442.898226 347.739688,444.063261 346.330905,445.548473 C344.843627,447.134903 343.728169,449.018789 342.949413,451.24764 C342.168592,453.478558 341.796773,455.978011 341.796773,458.779052 C341.796773,461.602815 342.17892,464.127057 342.959741,466.310464 C343.740562,468.510396 344.853955,470.394282 346.306117,471.931136 C347.739688,473.441136 349.5017,474.608236 351.581824,475.401452 C353.637159,476.192601 355.942441,476.589208 358.454288,476.589208 C361.044631,476.589208 363.349912,476.192601 365.366001,475.426239 C367.375892,474.633024 369.131706,473.470056 370.606591,471.931136 C372.046358,470.41907 373.157686,468.566169 373.950901,466.335252 C374.744116,464.104334 375.140723,461.578027 375.140723,458.779052 C375.140723,455.92637 374.744116,453.426916 373.963295,451.198065 C373.182474,448.994001 372.067015,447.085327 370.606591,445.548473 C369.170954,444.063261 367.43373,442.92508 365.38046,442.107077 M366.987547,469.084651 C364.884701,471.487018 362.03615,472.649987 358.493536,472.649987 C354.924068,472.649987 352.075517,471.487018 349.958212,469.084651 C347.840906,466.705005 346.775023,463.261543 346.775023,458.779052 C346.775023,454.319283 347.816118,450.875821 349.898307,448.473454 C351.978431,446.044232 354.826982,444.829622 358.493536,444.829622 C362.08366,444.829622 364.934277,446.044232 367.026795,448.473454 C369.09659,450.875821 370.148013,454.319283 370.148013,458.779052 C370.148013,463.261543 369.09659,466.705005 366.987547,469.084651" id="Fill-18" fill="#004594"></path>
                    <path d="M411.7288,473.517566 C410.836433,473.866663 410.043218,474.209563 409.326432,474.531807 C408.607581,474.85405 407.663573,475.201082 406.515063,475.525391 C405.535939,475.820781 404.470056,476.068661 403.329809,476.266965 C402.16684,476.465269 400.90472,476.589208 399.516593,476.589208 C396.913856,476.589208 394.548671,476.242177 392.404512,475.548114 C390.274812,474.85405 388.430174,473.76338 386.858203,472.253379 C385.323415,470.817743 384.106739,468.960711 383.23916,466.705005 C382.373646,464.476154 381.927463,461.850695 381.927463,458.876138 C381.927463,456.054441 382.348858,453.526068 383.193715,451.295151 C384.03444,449.066299 385.246985,447.184479 386.804496,445.647625 C388.345482,444.185135 390.17566,443.046954 392.344607,442.278527 C394.511489,441.487377 396.913856,441.09077 399.541381,441.09077 C401.472777,441.09077 403.393845,441.313862 405.310781,441.760045 C407.244243,442.204163 409.373943,442.97259 411.7288,444.088049 L411.7288,449.462907 L411.354915,449.462907 C409.388402,447.90333 407.444612,446.787872 405.488428,446.06902 C403.554967,445.350169 401.445924,445.003138 399.24186,445.003138 C397.436469,445.003138 395.798398,445.300593 394.337973,445.845929 C392.889943,446.416052 391.588574,447.258843 390.448328,448.473454 C389.347329,449.6137 388.492144,451.047271 387.86005,452.809283 C387.252745,454.567163 386.930502,456.597711 386.930502,458.900926 C386.930502,461.303294 387.279599,463.360695 387.948874,465.093787 C388.638806,466.851668 389.50845,468.266647 390.597055,469.33253 C391.710448,470.470711 393.024211,471.313502 394.538343,471.856772 C396.033884,472.404173 397.632708,472.649987 399.291436,472.649987 C401.598783,472.649987 403.75327,472.278167 405.75903,471.534528 C407.76479,470.817743 409.634216,469.702284 411.394162,468.192284 L411.7288,468.192284 L411.7288,473.517566 Z" id="Fill-20" fill="#004594"></path>
                    <g id="Group-24" transform="translate(0, 322.2587)">
                        <mask id="mask-5" fill="white">
                            <use xlink:href="#path-4"></use>
                        </mask>
                        <g id="Clip-23"></g>
                        <path d="M432.338964,94.9998947 L-0.000413132832,94.9998947 L-0.000413132832,20.0369423 C-0.000413132832,20.0369423 82.7583557,0 216.88193,0 C351.0117,0 432.338964,20.0369423 432.338964,20.0369423 L432.338964,94.9998947 Z" id="Fill-22" fill="#004594" mask="url(#mask-5)"></path>
                    </g>
                    <g id="Group-27">
                        <mask id="mask-7" fill="white">
                            <use xlink:href="#path-6"></use>
                        </mask>
                        <g id="Clip-26"></g>
                        <path d="M432.338964,22.480623 C432.338964,22.480623 351.0117,0 216.88193,0 C82.7583557,0 -0.000413132832,22.480623 -0.000413132832,22.480623 L-0.000413132832,328.550081 C-0.000413132832,328.550081 82.7583557,308.509008 216.88193,308.509008 C351.0117,308.509008 432.338964,328.550081 432.338964,328.550081 L432.338964,22.480623 Z" id="Fill-25" fill="#FFE535" mask="url(#mask-7)"></path>
                    </g>
                    <path d="M271.814343,61.496268 C271.814343,80.6594344 256.280549,96.1911632 237.121514,96.1911632 C217.958347,96.1911632 202.422487,80.6594344 202.422487,61.496268 C202.422487,42.3351672 217.958347,26.7910444 237.121514,26.7910444 C256.280549,26.7910444 271.814343,42.3351672 271.814343,61.496268" id="Fill-28" fill="#004594"></path>
                    <path d="M91.8553341,81.561923 C108.440552,117.952729 133.050874,158.617393 180.143886,185.36981 C168.89841,217.476428 138.942149,274.742835 78.478093,315.39304 C204.223333,261.36766 337.981284,196.604957 400.048295,46.2493942 C366.346984,73.5368178 314.449238,117.952729 234.718733,120.084494 C154.994425,122.238982 98.271287,87.9778759 91.8553341,81.561923" id="Fill-30" fill="#004594"></path>
                    <path d="M400.048915,46.2489811 C337.981904,196.604544 204.221887,261.367247 78.4787127,315.392627 L78.4353338,316.014392 C102.465205,313.289781 131.5291,310.835772 164.941217,309.524075 C205.461286,284.777418 340.704449,192.878086 400.048915,46.2489811" id="Fill-32" fill="#FEFEFE"></path>
                    <path d="M355.9034,387.009823 C352.868939,380.79424 349.724998,376.012227 346.477774,372.667917 L355.9034,362.287954 C359.55756,367.912758 361.984715,372.444825 363.174537,375.888287 L398.625466,375.888287 C397.359214,371.531802 395.465,368.13585 392.951086,365.706629 L402.723743,353.025516 C407.094689,357.904615 409.278096,363.428201 409.278096,369.647916 C409.278096,374.898834 408.110996,382.38067 403.378559,392.066569 L362.914264,392.066569 C357.229556,400.959253 350.751633,411.609818 340.555515,411.609818 C330.377988,411.609818 318.808203,403.287257 318.808203,403.287257 C332.23502,405.121566 346.702931,398.978281 355.9034,387.009823" id="Fill-34" fill="#FFE535"></path>
                    <polygon id="Fill-36" fill="#FFE535" points="378.906016 404.67497 389.977976 413.966327 398.176597 406.631154 386.957975 397.441014"></polygon>
                    <polygon id="Fill-38" fill="#FFE535" points="301.528302 401.37879 295.717589 396.499691 287.533428 403.708859 298.072446 412.99815 303.622886 408.069476 309.384023 412.99815 317.084819 405.888134 306.892832 396.499691"></polygon>
                    <path d="M304.860838,365.707661 C307.2756,368.112095 309.085121,371.503915 310.285272,375.88932 L294.38379,375.88932 L287.410107,375.88932 L279.145385,375.88932 L267.354574,345.59429 L260.2962,357.955224 L266.736941,375.88932 L246.621503,375.88932 C241.542035,375.88932 238.581938,374.129374 237.741213,370.613614 C235.099228,376.608171 233.789597,381.390184 233.789597,384.95552 C233.789597,388.051951 234.878202,390.111418 237.057478,391.098805 C238.420816,391.745358 240.862431,392.067602 244.367863,392.067602 L269.709431,392.067602 L272.927736,387.110008 L275.803141,392.067602 L287.410107,392.067602 L294.38379,392.067602 L317.692744,392.067602 C322.214483,382.379637 320.836685,374.897801 320.836685,369.671671 C320.836685,363.427168 318.34756,357.905648 314.187312,353.024483 L304.860838,365.707661 Z" id="Fill-40" fill="#FFE535"></path>
                    <path d="M208.217501,379.630858 C208.217501,377.077697 207.492453,371.775137 206.05062,363.750032 C205.003328,358.201658 203.96843,352.678072 202.976911,347.129698 C201.26241,348.071641 200.401028,349.606429 200.401028,351.783639 C200.401028,354.16535 200.896787,357.780262 201.892438,362.661426 C202.673259,366.325915 203.447883,369.992469 204.222507,373.710664 C205.503219,380.965277 206.137377,387.160203 206.137377,392.237606 C207.411892,389.539849 208.105955,387.606387 208.217501,386.517782 C208.242289,386.517782 208.242289,384.212501 208.217501,379.630858" id="Fill-42" fill="#FFE535"></path>
                    <path d="M164.859624,390.110385 C163.640882,390.110385 161.942906,389.213887 159.786352,387.460138 C157.625668,385.673338 156.537063,384.237702 156.537063,383.147031 C158.208185,381.438727 160.090005,380.571148 162.196983,380.571148 C163.967257,380.571148 165.417353,381.312721 166.512155,382.8 C166.846793,383.322613 167.658599,384.857401 168.928982,387.460138 C167.268188,389.213887 165.90485,390.110385 164.859624,390.110385 M116.690401,379.631271 C116.250415,379.282173 115.029607,378.41666 113.030044,376.981024 C113.585708,376.681502 114.781727,376.557562 116.601578,376.557562 C120.379677,376.557562 122.901853,377.673021 124.170171,379.928726 L119.681483,382.923939 C118.906859,381.709329 117.91534,380.595936 116.690401,379.631271 M187.693475,358.150429 L188.114871,357.557583 L189.193147,357.631947 C190.356116,356.268609 190.938634,355.155216 190.938634,354.337213 L190.690754,353.246542 C190.133025,352.653697 188.998975,351.76133 187.278277,350.596295 C185.898413,349.656418 184.758166,348.491383 183.871997,347.128045 C182.541709,347.894407 181.711312,349.235023 181.376674,351.118908 C182.762735,354.560305 184.448317,359.959951 186.449945,367.392211 C188.614761,375.468957 189.686841,380.819028 189.686841,383.421764 C189.686841,385.351095 188.914283,386.344679 187.358838,386.344679 L182.818508,386.344679 L177.078027,386.344679 C174.415386,386.344679 172.364182,385.425459 170.934742,383.568427 C169.986602,381.860122 169.009543,380.149752 168.018024,378.515812 C166.793085,376.656714 165.05173,375.741625 162.7795,375.741625 C160.734492,375.741625 158.790702,376.656714 156.956393,378.515812 C156.128061,379.259451 154.793642,380.96569 152.969661,383.568427 C151.63111,385.425459 150.645789,386.344679 149.976513,386.344679 L145.878236,386.344679 L145.878236,386.26825 L128.642334,386.26825 L128.642334,386.367402 L122.765519,386.367402 C124.033837,386.367402 125.589282,385.450247 127.417395,383.615937 C129.249639,381.785758 130.160597,380.224116 130.160597,378.95993 C130.160597,377.325989 128.227135,375.692049 124.339556,374.031255 C120.850649,372.469613 118.051674,371.703252 115.940565,371.703252 C113.49895,371.703252 111.36925,372.221733 109.537006,373.28555 C107.382518,374.500161 106.298045,376.210531 106.298045,378.367084 L106.298045,380.197263 C110.842506,380.197263 114.335544,382.254664 116.770962,386.367402 L105.827073,386.367402 L95.7135816,386.319891 C90.1156317,386.319891 86.9241806,386.169098 86.1516222,385.89643 C84.6023741,385.351095 82.6585841,383.196607 80.3305806,379.406113 C80.0496503,382.006784 79.9153821,383.196607 79.9153821,382.901217 C79.9153821,384.163338 80.5763947,385.822066 81.908748,387.805104 C83.2411014,389.810864 83.9041796,391.397294 83.9041796,392.560263 C83.9041796,395.388157 81.4935496,398.408158 76.6702237,401.628528 C72.1236969,404.625807 68.2712333,406.11102 65.1148984,406.11102 C62.8963751,406.11102 61.1508889,405.838352 59.8743085,405.295082 C59.3785491,405.069925 57.823104,404.080472 55.2224328,402.295738 C55.5508734,404.503933 57.2116674,406.334111 60.2089461,407.846177 C62.8158142,409.209516 65.3916974,409.901513 67.9427927,409.901513 C71.9894288,409.901513 75.9513726,408.069269 79.8265586,404.353139 C83.7100072,400.63701 85.6496658,396.846516 85.6496658,392.983724 C85.6496658,392.585051 85.5938929,391.866199 85.482347,390.82717 L87.457122,390.82717 L105.827073,390.82717 L113.030044,390.82717 C113.426652,390.82717 114.238458,390.556568 115.481988,389.982314 C116.727583,389.44111 117.551783,388.994926 117.940128,388.672683 C119.04939,390.110385 120.906422,390.82717 123.515356,390.82717 L128.642334,390.82717 L145.878236,390.82717 L149.722433,390.82717 C150.391712,390.82717 151.909975,389.19323 154.293751,385.921218 C156.844847,389.587772 158.127624,391.444804 158.127624,391.49438 C160.01151,393.677787 161.83136,394.741604 163.607831,394.741604 C165.665233,394.741604 167.937463,393.078744 170.432786,389.7365 C170.655877,389.788141 171.14544,389.982314 171.920064,390.331411 C172.698819,390.653655 173.120215,390.82717 173.175988,390.82717 L176.712405,390.82717 L178.47235,390.901534 L181.711312,390.901534 C186.2,390.901534 188.998975,390.604079 190.10204,390.009167 C191.769031,388.994926 192.599428,386.491341 192.599428,382.529397 C192.599428,379.406113 191.936349,375.322295 190.603996,370.290337 C188.943202,364.147052 187.97234,360.083891 187.693475,358.150429" id="Fill-44" fill="#FFE535"></path>
                    <polygon id="Fill-46" fill="#FFE535" points="120.68395 361.967776 114.943469 357.805463 111.871826 361.967776 117.438791 366.030938"></polygon>
                    <polygon id="Fill-48" fill="#FFE535" points="39.790269 399.250536 45.9397512 404.080059 49.3460314 399.250536 43.363868 394.644105"></polygon>
                    <path d="M58.6857253,370.440098 L57.5516757,374.848225 C58.5060125,376.360291 59.4913343,377.820716 60.4993784,379.260484 C61.701595,381.365396 62.3068346,382.974548 62.3068346,384.087941 C62.3068346,385.575219 60.6233183,386.343646 57.25422,386.343646 L34.8541579,386.343646 C32.4393965,386.343646 30.388192,385.602073 28.7046757,384.164371 C27.0190938,382.751456 26.1763028,380.770484 26.1763028,378.291687 C26.1763028,375.616652 26.8848256,372.941617 28.2894772,370.217006 C27.0335534,371.105242 26.0234436,372.794955 25.2736075,375.294409 C24.7158782,377.22787 24.4370136,379.208842 24.4370136,381.264178 C24.4370136,387.630555 28.9711464,390.826138 38.0187554,390.826138 C48.9295935,390.826138 53.3335895,390.850926 51.2162837,390.900502 C58.0102531,390.80135 61.9184897,390.183716 62.9471905,389.117833 C63.9820882,388.027163 64.4943729,386.120555 64.4943729,383.346368 C64.4943729,381.189814 63.9304466,378.814301 62.796397,376.236352 C61.664413,373.660468 60.2948777,371.727007 58.6857253,370.440098" id="Fill-50" fill="#FFE535"></path>
                </g>
            </g>
        </g>
    </g>
</svg>