<?xml version="1.0" encoding="UTF-8"?>
<svg width="980px" height="680px" viewBox="0 0 980 680" version="1.1" xmlns="http://www.w3.org/2000/svg" xmlns:xlink="http://www.w3.org/1999/xlink">
    <title>MD Posta Moldovei alt</title>
    <defs>
        <rect id="path-1" x="0" y="0" width="900" height="600" rx="80"></rect>
        <filter x="-6.7%" y="-10.0%" width="113.3%" height="120.0%" filterUnits="objectBoundingBox" id="filter-2">
            <feMorphology radius="2.5" operator="dilate" in="SourceAlpha" result="shadowSpreadOuter1"></feMorphology>
            <feOffset dx="0" dy="0" in="shadowSpreadOuter1" result="shadowOffsetOuter1"></feOffset>
            <feGaussianBlur stdDeviation="17.5" in="shadowOffsetOuter1" result="shadowBlurOuter1"></feGaussianBlur>
            <feColorMatrix values="0 0 0 0 0   0 0 0 0 0   0 0 0 0 0  0 0 0 0.5 0" type="matrix" in="shadowBlurOuter1"></feColorMatrix>
        </filter>
    </defs>
    <g id="MD-Posta-Moldovei-alt" stroke="none" stroke-width="1" fill="none" fill-rule="evenodd">
        <g transform="translate(40, 40)">
            <g id="Rectangle">
                <use fill="black" fill-opacity="1" filter="url(#filter-2)" xlink:href="#path-1"></use>
                <use fill="#1E4F9C" fill-rule="evenodd" xlink:href="#path-1"></use>
            </g>
            <g id="Logo" transform="translate(210.8739, 60.8739)" fill="#FFD70C">
                <path d="M239.126127,-2.84217094e-14 C107.079164,-2.84217094e-14 0,107.079164 0,239.126127 C0,371.17309 107.079164,478.252254 239.126127,478.252254 C371.17309,478.252254 478.252254,371.17309 478.252254,239.126127 C478.252254,107.079164 371.17309,-2.84217094e-14 239.126127,-2.84217094e-14 Z M443.054592,327.850986 L444.317844,328.470227 L432.899039,353.685723 L431.635787,353.066482 L432.354107,351.481225 C432.998118,350.069355 433.245814,348.830873 433.146735,347.741009 C433.121966,346.97315 432.775191,346.23006 432.13118,345.53651 C431.710096,344.991578 430.322996,344.17418 427.96988,343.034777 L397.156445,328.2473 C394.778559,327.083127 393.218072,326.513425 392.499752,326.488656 C391.781433,326.463886 391.013574,326.711582 390.220945,327.306054 C389.403547,327.875755 388.685227,328.866541 388.090756,330.204102 L387.347667,331.814129 L386.084415,331.194888 L397.47845,305.979392 L398.766472,306.573863 L398.048152,308.18389 C397.404141,309.595759 397.131675,310.834242 397.230754,311.899336 C397.280293,312.691965 397.602299,313.435054 398.246309,314.153374 C398.667393,314.698306 400.079263,315.515704 402.407609,316.630338 L433.221044,331.442584 C435.59893,332.581988 437.159417,333.176459 437.902507,333.201229 C438.620826,333.201229 439.388685,332.928763 440.181314,332.334291 C440.998712,331.764589 441.717032,330.798573 442.336273,329.461013 L443.054592,327.850986 L443.054592,327.850986 Z M371.123551,353.16556 L386.703656,367.73011 L387.397206,366.962251 C389.601704,364.460517 390.419102,361.934014 389.89894,359.382741 C389.378777,356.831467 387.743981,354.007728 385.06886,350.911523 L386.034876,349.821659 L406.073516,368.547508 L405.082731,369.662142 C402.704845,367.853958 400.475577,366.665015 398.419697,366.120083 C396.363817,365.550381 394.679481,365.550381 393.317151,366.095314 C391.97959,366.640246 390.468642,367.853958 388.833845,369.711681 L399.60864,379.792926 C401.714059,381.774497 403.05162,382.889131 403.695631,383.136828 C404.339641,383.384524 405.033191,383.409294 405.776281,383.186367 C406.51937,382.96344 407.361538,382.29466 408.377093,381.155256 L410.457743,378.80214 C413.677796,375.136233 415.461211,371.420787 415.758446,367.631031 C416.080452,363.890815 414.941048,359.927673 412.414545,355.791142 L413.355791,354.726048 L423.957198,367.853958 L393.936392,401.936986 L392.896067,400.9462 L394.06024,399.633409 C395.051025,398.494006 395.670267,397.379372 395.893193,396.339047 C396.066581,395.571188 395.967502,394.778559 395.546418,393.886852 C395.298722,393.267611 394.208858,392.053899 392.276826,390.245715 L367.110869,366.714555 C365.401764,365.079758 364.28713,364.138512 363.816506,363.866046 C362.974339,363.444962 362.15694,363.345883 361.339542,363.519271 C360.150599,363.766967 359.011196,364.534826 357.896562,365.798078 L356.732389,367.110869 L355.692064,366.144853 L384.746854,333.151689 L396.066581,343.728327 L395.100565,344.84296 C391.830972,342.81185 389.155851,341.746755 387.050431,341.647677 C384.969781,341.523828 382.814822,342.143069 380.610324,343.48063 C379.297533,344.248489 377.340731,346.106212 374.715149,349.103339 L371.123551,353.16556 L371.123551,353.16556 Z M353.388487,367.432874 L354.156346,368.646587 C352.744476,369.959378 351.877539,371.767562 351.580303,374.046369 C351.382146,375.755474 351.679382,379.223224 352.47201,384.474388 L359.035966,428.564352 L357.995641,429.257902 L320.742098,403.7204 C316.258793,400.648965 313.484593,398.91509 312.419499,398.593084 C311.329634,398.246309 309.868226,398.543545 308.084811,399.460022 L307.316952,398.246309 L328.073913,384.35054 L328.841772,385.564252 L328.148222,386.034876 C326.265729,387.298127 325.151095,388.387992 324.754781,389.329238 C324.482314,389.973249 324.531854,390.617259 324.952938,391.26127 C325.200634,391.657584 325.572179,392.078668 326.092341,392.499752 C326.587734,392.920836 328.073913,393.985931 330.526107,395.670267 L353.784801,411.720995 L349.871198,386.208263 C349.375805,383.136828 349.00426,381.105717 348.731794,380.139701 C348.459328,379.173685 348.112553,378.405826 347.765778,377.836124 C347.344694,377.167344 346.824532,376.69672 346.155752,376.424254 C345.486971,376.151788 344.743882,376.102249 343.926484,376.275637 C342.78708,376.498563 341.449519,377.142574 339.938571,378.158129 L339.170712,376.919647 L353.388487,367.432874 L353.388487,367.432874 Z M285.693055,402.903002 C293.445953,400.25265 300.55484,400.723274 306.994947,404.314872 C313.435054,407.931239 317.794511,413.529179 320.098088,421.108689 C322.05489,427.598335 321.980581,433.865055 319.800852,439.884078 C316.927574,447.859903 311.057168,453.185376 302.214406,455.810958 C293.346874,458.43654 285.544437,457.371446 278.782324,452.566135 C273.481621,448.77638 269.790944,443.500446 267.735064,436.738333 C265.431487,429.134053 266.025959,422.049936 269.468939,415.51075 C272.936689,408.946795 278.311701,404.760725 285.693055,402.903002 L285.693055,402.903002 Z M286.857228,405.181809 C289.309422,404.43872 291.687308,404.488259 293.966115,405.305657 C296.294462,406.147825 298.548499,408.055088 300.777767,411.052214 C303.007035,414.049341 305.137224,418.928961 307.193104,425.715843 C308.902209,431.388091 309.694838,436.168632 309.57099,440.057466 C309.447142,443.946299 308.580204,447.017735 306.945408,449.271773 C305.632617,451.005647 303.750124,452.268899 301.24839,453.011989 C297.532944,454.101853 294.213812,453.507381 291.266224,451.203805 C287.055385,447.909442 283.612405,441.890419 280.986823,433.171505 C278.757555,425.814921 278.014465,419.894977 278.732785,415.411671 C279.649262,409.937581 282.349153,406.51937 286.857228,405.181809 L286.857228,405.181809 Z M204.101853,462.57307 L204.151392,461.111662 L205.860497,461.18597 C207.371446,461.23551 208.535619,461.037353 209.328247,460.566729 C210.145645,460.120876 210.764887,459.476865 211.161201,458.659467 C211.408897,458.114535 211.607054,456.479738 211.681363,453.730308 L212.870306,418.730804 C212.969385,416.006143 212.870306,414.297038 212.62261,413.603488 C212.374913,412.934707 211.829981,412.315466 210.987813,411.770534 C210.170415,411.225602 209.006242,410.928366 207.569603,410.878827 L205.860497,410.829288 L205.910037,409.367879 L229.020113,410.210047 C235.187754,410.408204 240.116913,411.473298 243.832359,413.331022 C248.340434,415.609829 251.733875,418.928961 253.938373,423.313187 C256.192411,427.697414 257.207966,432.577034 257.009809,438.001585 C256.885961,441.741801 256.192411,445.160012 254.904389,448.256217 C253.641137,451.377192 252.031111,453.928465 250.123848,455.910037 C248.191816,457.916378 246.012088,459.476865 243.535123,460.641038 C241.058159,461.780442 238.061032,462.647379 234.543743,463.192312 C232.983256,463.440008 230.531061,463.514317 227.211929,463.390469 L204.101853,462.57307 L204.101853,462.57307 Z M225.502824,413.108095 C229.738433,413.231943 232.735559,413.727336 234.543743,414.594273 C237.095016,415.857525 239.150897,418.086793 240.686614,421.356386 C242.618647,425.492916 243.485584,430.991776 243.262657,437.828198 C242.965422,446.299415 241.231547,452.491826 238.061032,456.40543 C235.732686,459.303478 232.438324,460.690578 228.202715,460.51719 C226.889924,460.49242 225.923908,460.269494 225.230358,459.82364 C224.759734,459.551174 224.437729,459.15486 224.239572,458.659467 C224.066184,458.164074 224.016645,456.801744 224.090954,454.622015 L225.502824,413.108095 L225.502824,413.108095 Z M197.934212,442.806896 L189.73546,459.873179 L146.685822,444.887546 L147.181215,443.525215 L148.791241,444.070148 C150.178341,444.56554 151.416824,444.689389 152.457149,444.491232 C153.200238,444.342614 153.893788,443.92153 154.537798,443.178441 C155.008422,442.707817 155.701972,441.172099 156.618448,438.645596 L168.606955,405.503815 C169.548202,402.927772 169.994055,401.268206 169.969286,400.525116 C169.919746,399.782027 169.597741,399.038938 168.9785,398.271079 C168.359259,397.52799 167.368473,396.908749 166.006143,396.438125 L164.396116,395.868424 L164.891509,394.481324 L190.751016,403.472704 L190.255623,404.859804 L188.150203,404.116715 C186.713564,403.646091 185.499851,403.497473 184.459526,403.7204 C183.716437,403.869018 183.022887,404.290102 182.354107,405.008422 C181.883484,405.503815 181.165164,407.014763 180.273457,409.541266 L168.656495,441.667492 C167.740018,444.218765 167.269395,445.927871 167.318934,446.720499 C167.343704,447.537898 167.690479,448.256217 168.408798,448.900228 C168.928961,449.346081 170.34083,449.940553 172.619637,450.733181 L176.657089,452.145051 C179.233132,453.036758 181.561478,453.309224 183.617359,452.962449 C185.673239,452.615674 187.67958,451.649658 189.661151,450.039631 C191.667492,448.454374 193.92153,445.878332 196.472803,442.286733 L197.934212,442.806896 L197.934212,442.806896 Z M142.326365,379.49569 C136.332111,374.962846 129.718617,373.451897 122.461112,374.938076 C115.228376,376.424254 109.333201,380.486476 104.800357,387.12474 C100.762905,393.019915 98.9051818,399.261865 99.2024175,405.80105 C99.5987318,414.09888 103.561875,420.860993 111.067076,426.062618 C118.572278,431.264243 126.325176,432.453185 134.35054,429.604677 C140.394333,427.449718 145.323492,423.536114 149.212325,417.863866 C153.74517,411.250372 155.429506,404.290102 154.290102,396.983058 C153.150699,389.676013 149.162786,383.855147 142.326365,379.49569 L142.326365,379.49569 Z M141.26127,381.873576 C137.421976,379.223224 133.087288,379.297533 128.257208,382.071733 C124.294065,384.35054 120.107996,388.734767 115.723769,395.125334 C110.522144,402.754384 107.921332,409.244031 107.945926,414.619043 C107.945926,418.384029 109.531358,421.356386 112.677103,423.536114 C114.782523,424.997523 116.937481,425.691073 119.09244,425.567225 C121.841871,425.418607 124.789458,424.155355 127.910433,421.7527 C131.031408,419.374814 134.301001,415.708907 137.669672,410.754979 C141.731893,404.835034 144.233627,400.079263 145.199643,396.438125 C146.165659,392.772218 146.289508,389.824631 145.521649,387.496285 C144.75379,385.192708 143.317151,383.310215 141.26127,381.873576 L141.26127,381.873576 Z M241.479243,148.147231 C300.951154,148.147231 349.202418,195.432478 349.202418,253.740216 C349.202418,312.023184 300.951154,359.308432 241.479243,359.308432 C182.007332,359.308432 133.780838,312.023184 133.780838,253.740216 C133.780838,195.432478 182.007332,148.147231 241.479243,148.147231 L241.479243,148.147231 Z M99.72258,91.6476766 L101.060141,90.4587338 C103.90865,87.9074606 106.707619,86.7680571 109.457049,87.0652928 C112.20648,87.3377588 115.030219,89.1459427 117.878728,92.5393837 C120.752006,95.9575944 122.139106,99.1033389 122.064797,102.026157 C122.015258,104.924205 120.652928,107.574557 118.027346,109.927673 C117.631031,110.274448 117.086099,110.720301 116.31824,111.339542 L99.72258,91.6476766 L99.72258,91.6476766 Z M118.522739,113.940355 L129.173685,126.572872 C131.254335,129.049837 132.715744,130.461706 133.557911,130.808481 C134.37531,131.204795 135.341326,131.254335 136.40642,130.957099 C137.471515,130.659863 139.007233,129.619538 141.013574,127.836124 L142.053899,129.074606 L119.587833,149.187556 L118.547508,147.949074 C120.603388,146.11612 121.817101,144.679481 122.213415,143.639156 C122.60973,142.598831 122.684038,141.632815 122.461112,140.741108 C122.213415,139.849401 121.074012,138.165065 118.993362,135.71287 L94.0503319,106.162687 C91.969682,103.710492 90.5330427,102.273853 89.6908749,101.902309 C88.848707,101.530764 87.9074606,101.481225 86.842366,101.77846 C85.7772714,102.050926 84.2415536,103.091251 82.2352125,104.899435 L81.1701179,103.660953 L100.4409,86.3965124 C106.781928,80.7242643 112.330328,77.8014465 117.03656,77.6775983 C121.767562,77.5289805 125.606856,79.1885465 128.554444,82.7058357 C131.056178,85.6534232 132.26989,88.9725552 132.26989,92.6880016 C132.26989,96.3786783 131.031408,99.9950461 128.554444,103.561875 C126.894878,105.9893 123.550976,109.457049 118.522739,113.940355 L118.522739,113.940355 Z M167.195086,49.3163579 C169.820668,48.2264936 172.47102,48.0035668 175.170911,48.6723472 C177.870802,49.3411275 180.694541,51.24839 183.642128,54.3693649 C186.564946,57.4903398 189.685921,62.7662737 192.980283,70.1723967 C195.754483,76.4143466 197.33974,81.71505 197.785594,86.1240464 C198.206678,90.5578123 197.686515,94.1246408 196.175567,96.8493015 C194.961855,98.9794907 193.029823,100.614287 190.354701,101.728921 C186.342019,103.413257 182.527494,103.140791 178.886357,100.861984 C173.659962,97.6171604 168.95373,91.2265927 164.693352,81.6655108 C161.126523,73.615377 159.417418,67.0018825 159.566036,61.8497969 C159.788963,55.5335381 162.315466,51.3722382 167.195086,49.3163579 L167.195086,49.3163579 Z M165.53552,46.8889329 C173.858119,43.0000991 181.883484,42.727633 189.636382,46.0219954 C197.36451,49.3658972 203.086297,55.1619935 206.776974,63.5093629 C209.947488,70.6182503 210.740117,77.6775983 209.204399,84.7369464 C207.148519,94.0998712 201.377192,100.787675 191.84088,104.800357 C182.279798,108.813039 173.362727,108.491033 165.114436,103.85911 C158.57525,100.168434 153.670861,94.6448033 150.376499,87.2386803 C146.685822,78.9160805 146.289508,70.8411771 149.187556,63.0387397 C152.110374,55.2115327 157.534925,49.8365204 165.53552,46.8889329 L165.53552,46.8889329 Z M268.329535,32.8445457 L268.849698,52.9327257 L266.892896,52.9327257 C265.976419,47.9044883 263.697612,43.8422669 260.081244,40.7708313 C256.464877,37.6993956 252.576043,36.1636778 248.365204,36.1636778 C245.12038,36.1636778 242.544338,36.981076 240.637075,38.5911027 C238.729813,40.2011295 237.788566,42.0836223 237.788566,44.1890419 C237.788566,45.501833 238.135341,46.7155454 238.804122,47.7311008 C239.720598,49.1429704 241.206777,50.5053007 243.237888,51.867631 C244.748836,52.8584167 248.191816,54.5922917 253.616368,57.0692559 C261.195878,60.5617755 266.298425,63.8313683 268.948776,66.9028039 C271.574358,69.9990092 272.86238,73.5162984 272.86238,77.5042108 C272.86238,82.5324482 270.75696,86.8919053 266.546121,90.5082731 C262.632518,93.8769444 257.728128,95.6851283 251.832954,95.9328247 C251.510948,95.982364 249.058754,96.0071337 248.58813,95.9080551 C247.2258,95.8337462 245.913009,95.6603587 244.674527,95.3878926 C242.866343,94.9915783 240.587536,94.2732587 237.838106,93.2081641 C236.302388,92.6136927 235.039136,92.316457 234.07312,92.316457 C233.230952,92.316457 232.364015,92.6136927 231.447538,93.2081641 C230.506291,93.8026355 229.763202,94.6943426 229.1935,95.9328247 L227.434856,95.9328247 L227.434856,73.1447538 L229.1935,73.1447538 C230.60537,79.5600912 233.280491,84.414941 237.293173,87.7836124 C241.305856,91.1770534 245.591004,92.8613891 250.222927,92.8613891 C253.789755,92.8613891 256.638264,91.9449123 258.743684,90.1367284 C260.873873,88.3285445 261.938968,86.2231249 261.938968,83.8204696 C261.938968,82.3838304 261.517884,80.9967304 260.700485,79.6839394 C259.883087,78.3463787 258.669375,77.0831269 257.009809,75.8694144 C255.350243,74.6804716 252.427425,73.1199841 248.216586,71.187952 C242.321411,68.488061 238.085802,66.1844843 235.509759,64.2772218 C232.908947,62.394729 230.952145,60.2645398 229.565045,57.9114238 C228.177945,55.5830774 227.459625,53.0070346 227.459625,50.1832954 C227.459625,45.3779847 229.366888,41.2909938 233.156643,37.8975528 C236.971168,34.5288814 241.726939,32.8445457 247.498266,32.8445457 C249.603686,32.8445457 251.634796,33.0674725 253.616368,33.5380957 C255.102546,33.9096403 256.9355,34.553651 259.065689,35.5196671 C261.220648,36.4856831 262.756366,36.981076 263.598534,36.981076 C264.415932,36.981076 265.084712,36.7333796 265.555335,36.2627564 C266.050728,35.7921332 266.471812,34.6527296 266.892896,32.8445457 L268.329535,32.8445457 L268.329535,32.8445457 Z M345.858516,56.9454077 L340.136728,72.2035074 L338.749628,71.6585753 C339.245021,67.794511 339.269791,64.8964629 338.823937,62.9644308 C338.402853,61.0323987 337.461607,59.2489844 336.049737,57.6389577 C335.257109,56.7472506 333.622312,55.8060042 331.170118,54.8647578 L327.231745,53.3042703 L310.982859,96.7254533 C309.917765,99.5987318 309.372833,101.456455 309.422372,102.273853 C309.447142,103.140791 309.793917,103.982958 310.462697,104.874666 C311.131477,105.766373 312.196572,106.509462 313.70752,107.103933 L315.441395,107.797483 L314.871693,109.308432 L287.278312,98.3850193 L287.848013,96.8493015 L289.606658,97.5428515 C291.142376,98.1620925 292.479937,98.33548 293.61934,98.1373229 C294.436738,98.0134747 295.229367,97.5428515 295.972456,96.7502229 C296.492619,96.2300604 297.310017,94.5457248 298.350342,91.7219855 L314.599227,48.2760329 L310.784702,46.7650847 C307.242643,45.3779847 304.344595,45.1302883 302.140097,46.121074 C299.043892,47.4586347 296.41831,50.1089864 294.28812,54.0225899 L292.801942,53.4281185 L298.523729,38.1947885 L345.858516,56.9454077 L345.858516,56.9454077 Z M363.618349,119.042901 L350.713366,107.871792 L370.207074,97.6171604 L363.618349,119.042901 L363.618349,119.042901 Z M362.627564,122.485881 L347.542851,109.457049 L342.09353,112.404637 C340.285346,113.395423 338.972555,114.361439 338.179927,115.352224 C337.114832,116.640246 336.817596,118.027346 337.312989,119.463985 C337.560686,120.306153 338.749628,121.792331 340.830278,123.897751 L339.789953,125.161003 L325.596948,112.90003 L326.612504,111.612008 C328.346379,112.701873 330.179332,113.098187 332.086595,112.825721 C333.969087,112.553255 337.090062,111.290003 341.39998,109.011196 L386.703656,85.3314178 L387.298127,85.8515803 L371.841871,137.075201 C370.380462,141.930051 369.761221,145.224413 369.934608,146.983058 C370.083226,148.295849 370.752006,149.58387 371.965719,150.847122 L370.950163,152.085604 L350.292282,134.226692 L351.307837,132.96344 L352.150005,133.706529 C353.809571,135.118399 355.196671,135.886258 356.261766,135.985336 C357.004855,136.010106 357.698405,135.688101 358.243337,134.994551 C358.565342,134.598236 358.862578,134.127613 359.085505,133.582681 C359.184583,133.334985 359.580898,132.220351 360.200139,130.18924 L362.627564,122.485881 L362.627564,122.485881 Z M5.4988606,235.162984 C5.27593382,242.445259 5.74655702,249.529377 6.16764094,256.613495 L6.19241058,256.663034 C15.0847122,376.449024 117.110869,474.536808 238.95274,472.902011 C365.476073,473.793718 470.003963,370.727237 472.555236,247.126721 L472.604776,247.077182 C472.580006,240.612306 472.381849,234.271277 471.985535,228.078867 C437.753889,258.917071 358.961657,335.009412 330.798573,353.264639 C306.970177,373.823442 275.710889,386.307342 241.479243,386.307342 C218.83979,386.307342 197.513128,380.85802 178.762509,371.19786 C153.893788,358.416724 130.16447,334.885564 107.624096,317.86882 C73.0952145,291.761617 37.1792331,264.688398 5.4988606,235.162984 L5.4988606,235.162984 Z M447.612206,133.805608 C409.590806,57.7380363 329.262855,5.25116417 238.779352,5.49798764 C120.083226,5.22639453 20.2863371,95.8585158 7.08411771,211.037353 C39.4828099,235.608838 114.609135,299.88606 113.345883,296.244922 C108.73873,282.894085 106.236996,268.602001 106.236996,253.740216 C106.236996,180.521153 166.798771,121.148321 241.479243,121.148321 C314.40107,121.148321 373.872981,177.771723 376.622412,248.6129 C376.69672,250.272466 444.070148,138.833845 447.612206,133.805608 L447.612206,133.805608 Z M72.8475181,359.184583 L108.565342,349.920737 L121.098781,367.309026 L119.959378,368.200733 L118.943822,366.788864 C118.052115,365.550381 117.110869,364.683444 116.144853,364.26236 C115.476073,363.965124 114.683444,363.915585 113.791737,364.088973 C113.122957,364.23759 111.760626,365.104528 109.704746,366.665015 L82.3342911,387.570593 C80.2288715,389.18062 78.9903894,390.320024 78.6188447,390.939265 C78.2473001,391.583276 78.1234519,392.425443 78.2473001,393.440999 C78.3463787,394.456554 78.8417715,395.571188 79.708709,396.760131 L80.6994947,398.147231 L79.5848608,399.014168 L63.5093629,376.671951 L64.6239968,375.829783 L65.6395522,377.216883 C66.5560289,378.480135 67.4972753,379.297533 68.4632914,379.743387 C69.1073021,380.040622 69.9247003,380.114931 70.8411771,379.892004 C71.4851878,379.743387 72.8475181,378.876449 74.9529377,377.291192 L105.716833,353.809571 L56.0537006,366.31824 L55.5087685,365.550381 L81.1205786,320.197166 L51.867631,342.514614 C49.8365204,344.075102 48.6228079,345.090657 48.2264936,345.56128 C47.4090954,346.601605 46.9880115,347.840087 47.0127811,349.227187 C47.0375508,350.639057 47.7311008,352.323392 49.1429704,354.280194 L48.0283365,355.147132 L37.4764688,340.508273 L38.6158724,339.641336 L38.9378777,340.087189 C39.5818884,341.053205 40.374517,341.821064 41.2909938,342.390766 C42.1827009,342.960468 43.074408,343.257703 43.8918062,343.282473 C44.733974,343.307243 45.6999901,343.059546 46.8393936,342.564153 C47.0870901,342.440305 48.1521847,341.672446 50.0099079,340.235807 L76.2657287,320.172397 C78.3711483,318.58714 79.5848608,317.472506 79.9564054,316.828495 C80.3031804,316.209254 80.4270286,315.367086 80.3031804,314.351531 C80.1793322,313.335975 79.708709,312.221342 78.8417715,311.032399 L77.8509858,309.670068 L78.9903894,308.803131 L91.5733677,326.290498 L72.8475181,359.184583 L72.8475181,359.184583 Z" id="path17"></path>
            </g>
        </g>
    </g>
</svg>