<?xml version="1.0" encoding="UTF-8"?>
<svg width="980px" height="680px" viewBox="0 0 980 680" version="1.1" xmlns="http://www.w3.org/2000/svg" xmlns:xlink="http://www.w3.org/1999/xlink">
    <title>MD Posta Moldovei</title>
    <defs>
        <linearGradient x1="50%" y1="0%" x2="50%" y2="100%" id="linearGradient-1">
            <stop stop-color="#FFFFFF" offset="0%"></stop>
            <stop stop-color="#EDEDED" offset="100%"></stop>
        </linearGradient>
        <rect id="path-2" x="0" y="0" width="900" height="600" rx="80"></rect>
        <filter x="-6.7%" y="-10.0%" width="113.3%" height="120.0%" filterUnits="objectBoundingBox" id="filter-3">
            <feMorphology radius="2.5" operator="dilate" in="SourceAlpha" result="shadowSpreadOuter1"></feMorphology>
            <feOffset dx="0" dy="0" in="shadowSpreadOuter1" result="shadowOffsetOuter1"></feOffset>
            <feGaussianBlur stdDeviation="17.5" in="shadowOffsetOuter1" result="shadowBlurOuter1"></feGaussianBlur>
            <feColorMatrix values="0 0 0 0 0   0 0 0 0 0   0 0 0 0 0  0 0 0 0.5 0" type="matrix" in="shadowBlurOuter1"></feColorMatrix>
        </filter>
    </defs>
    <g id="MD-Posta-Moldovei" stroke="none" stroke-width="1" fill="none" fill-rule="evenodd">
        <g transform="translate(40, 40)">
            <g id="Rectangle">
                <use fill="black" fill-opacity="1" filter="url(#filter-3)" xlink:href="#path-2"></use>
                <use fill="url(#linearGradient-1)" fill-rule="evenodd" xlink:href="#path-2"></use>
            </g>
            <g id="Logo" transform="translate(200, 50)">
                <path d="M250.297236,0 C388.115526,0.173387496 499.826613,111.884474 500,249.702764 L500,250.297236 C499.826613,388.214604 387.942138,500 250,500 C111.958783,500 0,388.041217 0,250 C0,112.057862 111.785396,0.173387496 249.702764,0 L250.297236,0 Z" id="path15" fill="#1E4F9C"></path>
                <path d="M250,10.873873 C117.953037,10.873873 10.873873,117.953037 10.873873,250 C10.873873,382.046963 117.953037,489.126127 250,489.126127 C382.046963,489.126127 489.126127,382.046963 489.126127,250 C489.126127,117.953037 382.046963,10.873873 250,10.873873 Z M453.928465,338.724859 L455.191717,339.3441 L443.772912,364.559596 L442.50966,363.940355 L443.22798,362.355098 C443.87199,360.943228 444.119687,359.704746 444.020608,358.614882 C443.995839,357.847023 443.649064,357.103933 443.005053,356.410383 C442.583969,355.865451 441.196869,355.048053 438.843753,353.90865 L408.030318,339.121173 C405.652432,337.957 404.091945,337.387298 403.373625,337.362528 C402.655306,337.337759 401.887447,337.585455 401.094818,338.179927 C400.27742,338.749628 399.5591,339.740414 398.964629,341.077975 L398.22154,342.688002 L396.958288,342.068761 L408.352323,316.853265 L409.640345,317.447736 L408.922025,319.057763 C408.278014,320.469632 408.005548,321.708115 408.104627,322.773209 C408.154166,323.565838 408.476172,324.308927 409.120182,325.027247 C409.541266,325.572179 410.953136,326.389577 413.281482,327.504211 L444.094917,342.316457 C446.472803,343.45586 448.03329,344.050332 448.77638,344.075102 C449.494699,344.075102 450.262558,343.802635 451.055187,343.208164 C451.872585,342.638462 452.590905,341.672446 453.210146,340.334886 L453.928465,338.724859 L453.928465,338.724859 Z M381.997424,364.039433 L397.577529,378.603983 L398.271079,377.836124 C400.475577,375.33439 401.292975,372.807887 400.772813,370.256613 C400.25265,367.70534 398.617854,364.881601 395.942733,361.785396 L396.908749,360.695532 L416.947389,379.421381 L415.956604,380.536015 C413.578718,378.727831 411.34945,377.538888 409.29357,376.993956 C407.237689,376.424254 405.553354,376.424254 404.191023,376.969187 C402.853463,377.514119 401.342515,378.727831 399.707718,380.585554 L410.482513,390.666799 C412.587932,392.64837 413.925493,393.763004 414.569504,394.0107 C415.213514,394.258397 415.907064,394.283167 416.650154,394.06024 C417.393243,393.837313 418.235411,393.168533 419.250966,392.029129 L421.331616,389.676013 C424.551669,386.010106 426.335084,382.29466 426.632319,378.504904 C426.954325,374.764688 425.814921,370.801546 423.288418,366.665015 L424.229664,365.599921 L434.831071,378.727831 L404.810265,412.810859 L403.76994,411.820073 L404.934113,410.507282 C405.924898,409.367879 406.54414,408.253245 406.767066,407.21292 C406.940454,406.445061 406.841375,405.652432 406.420291,404.760725 C406.172595,404.141484 405.082731,402.927772 403.150699,401.119588 L377.984742,377.588428 C376.275637,375.953631 375.161003,375.012385 374.690379,374.739919 C373.848212,374.318835 373.030813,374.219756 372.213415,374.393144 C371.024472,374.64084 369.885069,375.408699 368.770435,376.671951 L367.606262,377.984742 L366.565937,377.018726 L395.620727,344.025562 L406.940454,354.6022 L405.974438,355.716833 C402.704845,353.685723 400.029724,352.620628 397.924304,352.52155 C395.843654,352.397701 393.688695,353.016942 391.484197,354.354503 C390.171406,355.122362 388.214604,356.980085 385.589022,359.977212 L381.997424,364.039433 L381.997424,364.039433 Z M364.26236,378.306747 L365.030219,379.52046 C363.618349,380.833251 362.751412,382.641435 362.454176,384.920242 C362.256019,386.629347 362.553255,390.097097 363.345883,395.348261 L369.909839,439.438225 L368.869514,440.131774 L331.615971,414.594273 C327.132666,411.522838 324.358466,409.788963 323.293372,409.466957 C322.203507,409.120182 320.742098,409.417418 318.958684,410.333895 L318.190825,409.120182 L338.947786,395.224413 L339.715645,396.438125 L339.022095,396.908749 C337.139602,398.172 336.024968,399.261865 335.628654,400.203111 C335.356187,400.847122 335.405727,401.491132 335.826811,402.135143 C336.074507,402.531457 336.446052,402.952541 336.966214,403.373625 C337.461607,403.794709 338.947786,404.859804 341.39998,406.54414 L364.658674,422.594868 L360.745071,397.082136 C360.249678,394.0107 359.878133,391.97959 359.605667,391.013574 C359.333201,390.047558 358.986426,389.279699 358.639651,388.709997 C358.218567,388.041217 357.698405,387.570593 357.029624,387.298127 C356.360844,387.025661 355.617755,386.976122 354.800357,387.14951 C353.660953,387.372436 352.323392,388.016447 350.812444,389.032002 L350.044585,387.79352 L364.26236,378.306747 L364.26236,378.306747 Z M296.566928,413.776875 C304.319826,411.126523 311.428713,411.597147 317.86882,415.188745 C324.308927,418.805112 328.668384,424.403052 330.971961,431.982562 C332.928763,438.472208 332.854454,444.738928 330.674725,450.757951 C327.801447,458.733776 321.931041,464.059249 313.088279,466.684831 C304.220747,469.310413 296.41831,468.245319 289.656197,463.440008 C284.355494,459.650253 280.664817,454.374319 278.608937,447.612206 C276.30536,440.007926 276.899832,432.923809 280.342812,426.384623 C283.810562,419.820668 289.185574,415.634598 296.566928,413.776875 L296.566928,413.776875 Z M297.731101,416.055682 C300.183295,415.312593 302.561181,415.362132 304.839988,416.17953 C307.168334,417.021698 309.422372,418.928961 311.65164,421.926087 C313.880908,424.923214 316.011097,429.802834 318.066977,436.589716 C319.776082,442.261964 320.568711,447.042505 320.444863,450.931339 C320.321015,454.820172 319.454077,457.891608 317.819281,460.145645 C316.50649,461.87952 314.623997,463.142772 312.122263,463.885861 C308.406817,464.975726 305.087685,464.381254 302.140097,462.077678 C297.929258,458.783315 294.486278,452.764292 291.860696,444.045378 C289.631428,436.688794 288.888338,430.76885 289.606658,426.285544 C290.523135,420.811453 293.223026,417.393243 297.731101,416.055682 L297.731101,416.055682 Z M214.975726,473.446943 L215.025265,471.985535 L216.73437,472.059843 C218.245319,472.109383 219.409492,471.911226 220.20212,471.440602 C221.019518,470.994749 221.63876,470.350738 222.035074,469.53334 C222.28277,468.988408 222.480927,467.353611 222.555236,464.604181 L223.744179,429.604677 C223.843258,426.880016 223.744179,425.170911 223.496483,424.477361 C223.248786,423.80858 222.703854,423.189339 221.861686,422.644407 C221.044288,422.099475 219.880115,421.802239 218.443476,421.7527 L216.73437,421.703161 L216.78391,420.241752 L239.893986,421.08392 C246.061627,421.282077 250.990786,422.347171 254.706232,424.204894 C259.214307,426.483702 262.607748,429.802834 264.812246,434.18706 C267.066284,438.571287 268.081839,443.450907 267.883682,448.875458 C267.759834,452.615674 267.066284,456.033885 265.778262,459.13009 C264.51501,462.251065 262.904984,464.802338 260.997721,466.78391 C259.065689,468.790251 256.885961,470.350738 254.408996,471.514911 C251.932032,472.654315 248.934905,473.521252 245.417616,474.066184 C243.857129,474.313881 241.404934,474.38819 238.085802,474.264342 L214.975726,473.446943 L214.975726,473.446943 Z M236.376697,423.981968 C240.612306,424.105816 243.609432,424.601209 245.417616,425.468146 C247.968889,426.731398 250.02477,428.960666 251.560487,432.230259 C253.49252,436.366789 254.359457,441.865649 254.13653,448.702071 C253.839295,457.173288 252.10542,463.365699 248.934905,467.279302 C246.606559,470.177351 243.312197,471.564451 239.076588,471.391063 C237.763797,471.366293 236.797781,471.143367 236.104231,470.697513 C235.633607,470.425047 235.311602,470.028733 235.113445,469.53334 C234.940057,469.037947 234.890518,467.675617 234.964827,465.495888 L236.376697,423.981968 L236.376697,423.981968 Z M208.808085,453.680769 L200.609333,470.747052 L157.559695,455.761419 L158.055088,454.399088 L159.665114,454.944021 C161.052214,455.439413 162.290697,455.563262 163.331022,455.365105 C164.074111,455.216487 164.767661,454.795403 165.411671,454.052313 C165.882295,453.58169 166.575845,452.045972 167.492321,449.519469 L179.480828,416.377688 C180.422075,413.801645 180.867928,412.142079 180.843159,411.398989 C180.793619,410.6559 180.471614,409.912811 179.852373,409.144952 C179.233132,408.401863 178.242346,407.782622 176.880016,407.311998 L175.269989,406.742297 L175.765382,405.355197 L201.624889,414.346577 L201.129496,415.733677 L199.024076,414.990588 C197.587437,414.519964 196.373724,414.371346 195.333399,414.594273 C194.59031,414.742891 193.89676,415.163975 193.22798,415.882295 C192.757357,416.377688 192.039037,417.888636 191.14733,420.415139 L179.530368,452.541365 C178.613891,455.092638 178.143268,456.801744 178.192807,457.594372 C178.217577,458.411771 178.564352,459.13009 179.282671,459.774101 C179.802834,460.219954 181.214703,460.814426 183.49351,461.607054 L187.530962,463.018924 C190.107005,463.910631 192.435351,464.183097 194.491232,463.836322 C196.547112,463.489547 198.553453,462.523531 200.535024,460.913504 C202.541365,459.328247 204.795403,456.752204 207.346676,453.160606 L208.808085,453.680769 L208.808085,453.680769 Z M153.200238,390.369563 C147.205984,385.836719 140.59249,384.32577 133.334985,385.811949 C126.102249,387.298127 120.207074,391.360349 115.67423,397.998613 C111.636778,403.893788 109.779055,410.135738 110.07629,416.674923 C110.472605,424.972753 114.435748,431.734866 121.940949,436.936491 C129.446151,442.138116 137.199049,443.327058 145.224413,440.478549 C151.268206,438.323591 156.197365,434.409987 160.086198,428.737739 C164.619043,422.124245 166.303379,415.163975 165.163975,407.856931 C164.024571,400.549886 160.036659,394.72902 153.200238,390.369563 L153.200238,390.369563 Z M152.135143,392.747449 C148.295849,390.097097 143.961161,390.171406 139.131081,392.945606 C135.167938,395.224413 130.981869,399.60864 126.597642,405.999207 C121.396017,413.628257 118.795205,420.117903 118.819799,425.492916 C118.819799,429.257902 120.405231,432.230259 123.550976,434.409987 C125.656396,435.871396 127.811354,436.564946 129.966313,436.441098 C132.715744,436.29248 135.663331,435.029228 138.784306,432.626573 C141.905281,430.248687 145.174874,426.58278 148.543545,421.628852 C152.605766,415.708907 155.1075,410.953136 156.073516,407.311998 C157.039532,403.646091 157.163381,400.698504 156.395522,398.370158 C155.627663,396.066581 154.191023,394.184088 152.135143,392.747449 L152.135143,392.747449 Z M252.353116,159.021104 C311.825027,159.021104 360.07629,206.306351 360.07629,264.614089 C360.07629,322.897057 311.825027,370.182305 252.353116,370.182305 C192.881205,370.182305 144.654711,322.897057 144.654711,264.614089 C144.654711,206.306351 192.881205,159.021104 252.353116,159.021104 L252.353116,159.021104 Z M110.596453,102.52155 L111.934014,101.332607 C114.782523,98.7813336 117.581492,97.6419301 120.330922,97.9391658 C123.080353,98.2116318 125.904092,100.019816 128.752601,103.413257 C131.625879,106.831467 133.012979,109.977212 132.93867,112.90003 C132.889131,115.798078 131.526801,118.44843 128.901219,120.801546 C128.504904,121.148321 127.959972,121.594174 127.192113,122.213415 L110.596453,102.52155 L110.596453,102.52155 Z M129.396612,124.814228 L140.047558,137.446745 C142.128208,139.92371 143.589617,141.335579 144.431784,141.682354 C145.249183,142.078668 146.215199,142.128208 147.280293,141.830972 C148.345388,141.533736 149.881106,140.493411 151.887447,138.709997 L152.927772,139.948479 L130.461706,160.061429 L129.421381,158.822947 C131.477261,156.989993 132.690974,155.553354 133.087288,154.513029 C133.483602,153.472704 133.557911,152.506688 133.334985,151.614981 C133.087288,150.723274 131.947885,149.038938 129.867235,146.586743 L104.924205,117.03656 C102.843555,114.584365 101.406916,113.147726 100.564748,112.776182 C99.72258,112.404637 98.7813336,112.355098 97.716239,112.652333 C96.6511444,112.924799 95.1154265,113.965124 93.1090855,115.773308 L92.0439909,114.534826 L111.314773,97.2703854 C117.655801,91.5981373 123.204201,88.6753195 127.910433,88.5514713 C132.641435,88.4028535 136.480729,90.0624195 139.428317,93.5797087 C141.930051,96.5272961 143.143763,99.8464282 143.143763,103.561875 C143.143763,107.252551 141.905281,110.868919 139.428317,114.435748 C137.768751,116.863172 134.424849,120.330922 129.396612,124.814228 L129.396612,124.814228 Z M178.068959,60.1902309 C180.694541,59.1003666 183.344892,58.8774398 186.044784,59.5462202 C188.744675,60.2150005 191.568414,62.122263 194.516001,65.2432379 C197.438819,68.3642128 200.559794,73.6401466 203.854156,81.0462697 C206.628356,87.2882196 208.213613,92.588923 208.659467,96.9979194 C209.080551,101.431685 208.560388,104.998514 207.04944,107.723174 C205.835728,109.853364 203.903696,111.48816 201.228574,112.602794 C197.215892,114.28713 193.401367,114.014664 189.76023,111.735857 C184.533835,108.491033 179.827603,102.100466 175.567225,92.5393837 C172.000396,84.48925 170.291291,77.8757555 170.439909,72.7236699 C170.662836,66.4074111 173.189339,62.2461112 178.068959,60.1902309 L178.068959,60.1902309 Z M176.409393,57.7628059 C184.731992,53.8739721 192.757357,53.601506 200.510255,56.8958684 C208.238383,60.2397701 213.96017,66.0358664 217.650847,74.3832359 C220.821361,81.4921233 221.61399,88.5514713 220.078272,95.6108194 C218.022392,104.973744 212.251065,111.661548 202.714753,115.67423 C193.153671,119.686912 184.2366,119.364906 175.988309,114.732983 C169.449123,111.042307 164.544734,105.518676 161.250372,98.1125533 C157.559695,89.7899534 157.163381,81.71505 160.061429,73.9126127 C162.984247,66.0854057 168.408798,60.7103933 176.409393,57.7628059 L176.409393,57.7628059 Z M279.203408,43.7184187 L279.723571,63.8065986 L277.766769,63.8065986 C276.850292,58.7783612 274.571485,54.7161399 270.955117,51.6447043 C267.33875,48.5732686 263.449916,47.0375508 259.239077,47.0375508 C255.994253,47.0375508 253.418211,47.854949 251.510948,49.4649757 C249.603686,51.0750025 248.662439,52.9574953 248.662439,55.0629149 C248.662439,56.3757059 249.009214,57.5894184 249.677995,58.6049737 C250.594471,60.0168434 252.08065,61.3791737 254.111761,62.741504 C255.622709,63.7322897 259.065689,65.4661647 264.490241,67.9431289 C272.069751,71.4356485 277.172298,74.7052413 279.822649,77.7766769 C282.448231,80.8728822 283.736253,84.3901714 283.736253,88.3780838 C283.736253,93.4063212 281.630833,97.7657783 277.419994,101.382146 C273.506391,104.750817 268.602001,106.559001 262.706827,106.806698 C262.384821,106.856237 259.932627,106.881007 259.462003,106.781928 C258.099673,106.707619 256.786882,106.534232 255.5484,106.261766 C253.740216,105.865451 251.461409,105.147132 248.711979,104.082037 C247.176261,103.487566 245.913009,103.19033 244.946993,103.19033 C244.104825,103.19033 243.237888,103.487566 242.321411,104.082037 C241.380164,104.676508 240.637075,105.568216 240.067373,106.806698 L238.308729,106.806698 L238.308729,84.0186268 L240.067373,84.0186268 C241.479243,90.4339641 244.154364,95.288814 248.167046,98.6574854 C252.179729,102.050926 256.464877,103.735262 261.0968,103.735262 C264.663628,103.735262 267.512137,102.818785 269.617557,101.010601 C271.747746,99.2024175 272.812841,97.0969979 272.812841,94.6943426 C272.812841,93.2577034 272.391757,91.8706034 271.574358,90.5578123 C270.75696,89.2202517 269.543248,87.9569999 267.883682,86.7432874 C266.224116,85.5543446 263.301298,83.9938571 259.090459,82.061825 C253.195284,79.361934 248.959675,77.0583573 246.383632,75.1510948 C243.78282,73.268602 241.826018,71.1384128 240.438918,68.7852967 C239.051818,66.4569504 238.333498,63.8809076 238.333498,61.0571683 C238.333498,56.2518577 240.240761,52.1648667 244.030516,48.7714257 C247.845041,45.4027544 252.600812,43.7184187 258.372139,43.7184187 C260.477559,43.7184187 262.508669,43.9413455 264.490241,44.4119687 C265.976419,44.7835133 267.809373,45.427524 269.939562,46.3935401 C272.094521,47.3595561 273.630239,47.854949 274.472407,47.854949 C275.289805,47.854949 275.958585,47.6072526 276.429208,47.1366293 C276.924601,46.6660061 277.345685,45.5266026 277.766769,43.7184187 L279.203408,43.7184187 L279.203408,43.7184187 Z M356.732389,67.8192807 L351.010601,83.0773804 L349.623501,82.5324482 C350.118894,78.668384 350.143664,75.7703359 349.69781,73.8383038 C349.276726,71.9062717 348.33548,70.1228574 346.92361,68.5128307 C346.130982,67.6211236 344.496185,66.6798771 342.043991,65.7386307 L338.105618,64.1781433 L321.856732,107.599326 C320.791638,110.472605 320.246706,112.330328 320.296245,113.147726 C320.321015,114.014664 320.66779,114.856831 321.33657,115.748539 C322.00535,116.640246 323.070445,117.383335 324.581393,117.977806 L326.315268,118.671356 L325.745566,120.182305 L298.152185,109.258892 L298.721886,107.723174 L300.480531,108.416724 C302.016249,109.035966 303.35381,109.209353 304.493213,109.011196 C305.310611,108.887348 306.10324,108.416724 306.846329,107.624096 C307.366492,107.103933 308.18389,105.419598 309.224215,102.595859 L325.4731,59.1499059 L321.658575,57.6389577 C318.116516,56.2518577 315.218468,56.0041613 313.01397,56.994947 C309.917765,58.3325077 307.292183,60.9828594 305.161993,64.8964629 L303.675815,64.3019915 L309.397602,49.0686614 L356.732389,67.8192807 L356.732389,67.8192807 Z M374.492222,129.916774 L361.587239,118.745665 L381.080947,108.491033 L374.492222,129.916774 L374.492222,129.916774 Z M373.501437,133.359754 L358.416724,120.330922 L352.967403,123.27851 C351.159219,124.269296 349.846428,125.235312 349.0538,126.226097 C347.988705,127.514119 347.691469,128.901219 348.186862,130.337858 C348.434559,131.180026 349.623501,132.666204 351.704151,134.771624 L350.663826,136.034876 L336.470821,123.773903 L337.486377,122.485881 C339.220252,123.575746 341.053205,123.97206 342.960468,123.699594 C344.84296,123.427128 347.963935,122.163876 352.273853,119.885069 L397.577529,96.2052908 L398.172,96.7254533 L382.715744,147.949074 C381.254335,152.803924 380.635094,156.098286 380.808481,157.856931 C380.957099,159.169722 381.625879,160.457743 382.839592,161.720995 L381.824036,162.959477 L361.166155,145.100565 L362.18171,143.837313 L363.023878,144.580402 C364.683444,145.992272 366.070544,146.760131 367.135639,146.859209 C367.878728,146.883979 368.572278,146.561974 369.11721,145.868424 C369.439215,145.472109 369.736451,145.001486 369.959378,144.456554 C370.058456,144.208858 370.454771,143.094224 371.074012,141.063113 L373.501437,133.359754 L373.501437,133.359754 Z M16.3727336,246.036857 C16.1498068,253.319132 16.62043,260.40325 17.0415139,267.487367 L17.0662836,267.536907 C25.9585852,387.322897 127.984742,485.410681 249.826613,483.775884 C376.349946,484.667591 480.877836,381.60111 483.429109,258.000594 L483.478649,257.951055 C483.453879,251.486179 483.255722,245.14515 482.859408,238.95274 C448.627762,269.790944 369.83553,345.883285 341.672446,364.138512 C317.84405,384.697315 286.584762,397.181215 252.353116,397.181215 C229.713663,397.181215 208.387001,391.731893 189.636382,382.071733 C164.767661,369.290597 141.038343,345.759437 118.497969,328.742693 C83.9690875,302.63549 48.0531061,275.562271 16.3727336,246.036857 L16.3727336,246.036857 Z M458.486079,144.679481 C420.464678,68.6119092 340.136728,16.1250372 249.653225,16.3718606 C130.957099,16.1002675 31.16021,106.732389 17.9579907,221.911226 C50.3566828,246.482711 125.483008,310.759933 124.219756,307.118795 C119.612603,293.767958 117.110869,279.475874 117.110869,264.614089 C117.110869,191.395026 177.672644,132.022194 252.353116,132.022194 C325.274943,132.022194 384.746854,188.645596 387.496285,259.486773 C387.570593,261.146339 454.944021,149.707718 458.486079,144.679481 L458.486079,144.679481 Z M83.7213911,370.058456 L119.439215,360.79461 L131.972654,378.182899 L130.833251,379.074606 L129.817695,377.662737 C128.925988,376.424254 127.984742,375.557317 127.018726,375.136233 C126.349946,374.838997 125.557317,374.789458 124.66561,374.962846 C123.996829,375.111463 122.634499,375.978401 120.578619,377.538888 L93.2081641,398.444466 C91.1027445,400.054493 89.8642624,401.193897 89.4927177,401.813138 C89.1211731,402.457149 88.9973249,403.299316 89.1211731,404.314872 C89.2202517,405.330427 89.7156445,406.445061 90.582582,407.634004 L91.5733677,409.021104 L90.4587338,409.888041 L74.3832359,387.545824 L75.4978698,386.703656 L76.5134251,388.090756 C77.4299019,389.354008 78.3711483,390.171406 79.3371644,390.617259 C79.9811751,390.914495 80.7985733,390.988804 81.71505,390.765877 C82.3590607,390.617259 83.7213911,389.750322 85.8268107,388.165065 L116.590706,364.683444 L66.9275736,377.192113 L66.3826414,376.424254 L91.9944516,331.071039 L62.741504,353.388487 C60.7103933,354.948975 59.4966809,355.96453 59.1003666,356.435153 C58.2829684,357.475478 57.8618845,358.71396 57.8866541,360.10106 C57.9114238,361.51293 58.6049737,363.197265 60.0168434,365.154067 L58.9022095,366.021005 L48.3503418,351.382146 L49.4897454,350.515209 L49.8117507,350.961062 C50.4557614,351.927078 51.24839,352.694937 52.1648667,353.264639 C53.0565739,353.834341 53.948281,354.131576 54.7656792,354.156346 C55.607847,354.181116 56.5738631,353.933419 57.7132666,353.438026 C57.960963,353.314178 59.0260577,352.546319 60.8837808,351.10968 L87.1396017,331.04627 C89.2450213,329.461013 90.4587338,328.346379 90.8302784,327.702368 C91.1770534,327.083127 91.3009016,326.240959 91.1770534,325.225404 C91.0532052,324.209848 90.582582,323.095215 89.7156445,321.906272 L88.7248588,320.543941 L89.8642624,319.677004 L102.447241,337.164371 L83.7213911,370.058456 L83.7213911,370.058456 Z" id="path17" fill="#FFD70C"></path>
            </g>
        </g>
    </g>
</svg>