<?xml version="1.0" encoding="UTF-8"?>
<svg width="980px" height="680px" viewBox="0 0 980 680" version="1.1" xmlns="http://www.w3.org/2000/svg" xmlns:xlink="http://www.w3.org/1999/xlink">
    <title>ME Pošta Crne Gore</title>
    <defs>
        <linearGradient x1="50%" y1="0%" x2="50%" y2="100%" id="linearGradient-1">
            <stop stop-color="#FFFFFF" offset="0%"></stop>
            <stop stop-color="#EDEDED" offset="100%"></stop>
        </linearGradient>
        <rect id="path-2" x="0" y="0" width="900" height="600" rx="80"></rect>
        <filter x="-6.7%" y="-10.0%" width="113.3%" height="120.0%" filterUnits="objectBoundingBox" id="filter-3">
            <feMorphology radius="2.5" operator="dilate" in="SourceAlpha" result="shadowSpreadOuter1"></feMorphology>
            <feOffset dx="0" dy="0" in="shadowSpreadOuter1" result="shadowOffsetOuter1"></feOffset>
            <feGaussianBlur stdDeviation="17.5" in="shadowOffsetOuter1" result="shadowBlurOuter1"></feGaussianBlur>
            <feColorMatrix values="0 0 0 0 0   0 0 0 0 0   0 0 0 0 0  0 0 0 0.5 0" type="matrix" in="shadowBlurOuter1"></feColorMatrix>
        </filter>
    </defs>
    <g id="ME-Pošta-Crne-Gore" stroke="none" stroke-width="1" fill="none" fill-rule="evenodd">
        <g transform="translate(40, 40)">
            <g id="Rectangle">
                <use fill="black" fill-opacity="1" filter="url(#filter-3)" xlink:href="#path-2"></use>
                <use fill="url(#linearGradient-1)" fill-rule="evenodd" xlink:href="#path-2"></use>
            </g>
            <g id="Logo" transform="translate(67, 50.0458)" fill="#FDB813" fill-rule="nonzero">
                <g id="g3183" transform="translate(383.3842, 250) scale(-1, 1) rotate(-180) translate(-383.3842, -250)translate(0, 0)">
                    <path d="M764.831794,219.595688 C764.831794,237.779759 750.041947,252.528834 731.908841,252.528834 C713.72477,252.528834 699.006274,237.779759 699.006274,219.595688 L699.006274,126.280012 C699.006274,125.291305 699.179552,124.465682 699.322252,123.527939 L699.148974,123.456589 C699.801317,112.886588 697.548694,106.995112 692.635733,99.9110715 C687.692194,93.0512736 679.191345,86.1405113 669.263494,80.6873287 C659.396801,75.1322175 648.541401,71.0448787 640.417687,68.5985912 C636.432277,67.3142903 633.048246,66.4478968 630.795623,65.979025 C630.663116,65.8669035 630.601959,65.8669035 630.438873,65.8669035 L128.226238,65.8669035 C110.490653,65.979025 100.236631,70.1275209 92.4492826,75.3870391 C84.7434769,80.6771358 79.1170156,87.9344555 74.9073625,96.4556904 C70.7079022,104.956539 68.241229,114.272818 66.9976995,121.203966 C66.4065133,124.74089 66.0905345,127.564313 65.8866772,129.388836 C65.8866772,130.25523 65.8255201,130.948344 65.8051343,131.305095 L65.8051343,131.32548 L65.8051343,371.724194 C65.8051343,372.152294 65.7235914,372.376537 65.6726271,372.702709 L65.8051343,372.702709 C65.601277,385.65784 68.6591364,393.55731 73.7861474,401.161187 C78.9437369,408.581592 87.0368714,415.22734 96.1289067,420.568401 C105.251521,425.817727 115.158985,429.609472 122.548812,431.739781 C126.218243,432.901767 129.245524,433.696811 131.263711,434.114718 C131.324868,434.165683 131.426797,434.165683 131.50834,434.165683 L627.513521,434.165683 C662.964304,433.696811 678.182251,423.035074 688.110101,412.679124 L378.532415,289.263918 L239.685213,353.682823 L239.685213,353.540123 C235.485753,355.568503 230.868385,356.761068 225.935038,356.761068 C207.710196,356.761068 193.032471,341.950836 193.032471,323.756573 C193.032471,310.587391 200.81982,299.324276 212.103321,294.023986 L212.103321,293.942443 L363.681412,223.632063 L363.71199,223.69322 C368.003186,221.756576 372.589975,220.574203 377.502936,220.574203 C381.814518,220.574203 385.932435,221.491561 389.724181,222.97972 L389.724181,222.928755 L390.335753,223.12242 L390.335753,223.234541 L745.985187,364.833817 L745.944415,364.925553 C758.114696,369.797742 766.768438,381.560308 766.768438,395.402218 C766.768438,397.481563 766.493231,399.387628 766.156866,401.344658 L766.20783,401.344658 C766.156866,401.45678 766.156866,401.640252 766.095709,401.95623 C766.06513,402.007195 766.06513,402.109123 766.06513,402.272209 C764.831794,407.705006 759.90864,429.395422 740.929526,452.329368 C721.033054,477.016486 682.585569,500.521232 627.513521,499.991203 L128.226238,499.991203 C126.381329,499.991203 124.648542,499.685417 122.824019,499.450981 L122.824019,499.522331 C122.671126,499.491752 122.232833,499.450981 121.774154,499.328667 C121.682418,499.328667 121.570297,499.267509 121.458175,499.206352 C115.301685,498.034173 90.3801311,493.090633 63.2059538,477.597479 C48.2530214,468.831615 32.3419596,456.691914 19.8251218,438.823822 C7.48156267,421.363445 -0.61157188,398.123713 0.0407714587,372.009594 C0.0407714587,371.928051 0,371.836315 0,371.724194 L0,130.836223 C0,130.642558 0.0407714587,130.408123 0.0407714587,130.234844 L0,130.234844 C0.203857293,127.676435 0.315978805,99.3708496 15.9518332,67.2531331 C23.8207247,51.3420713 36.1438981,34.1670943 55.1637836,21.1406133 C74.040969,7.99181786 99.1765733,-0.0809309602 128.226238,0 L633.965604,0 C636.01437,0 638.083521,0.367555085 640.030359,0.622376702 L640.030359,0.612183838 C640.122094,0.612183838 640.274987,0.714112484 640.417687,0.714112484 L640.855981,0.83642686 C645.850484,1.85571333 672.637333,7.24773874 701.34044,23.2199577 C716.752051,31.8431212 732.979091,43.6362656 745.842487,61.1883786 C758.30836,77.955641 766.472845,101.083251 764.831794,126.371748 L764.831794,219.595688 Z" id="path3185"></path>
                </g>
            </g>
        </g>
    </g>
</svg>