<?xml version="1.0" encoding="UTF-8"?>
<svg width="980px" height="680px" viewBox="0 0 980 680" version="1.1" xmlns="http://www.w3.org/2000/svg" xmlns:xlink="http://www.w3.org/1999/xlink">
    <title>ME Pošta Crne Gore text</title>
    <defs>
        <linearGradient x1="50%" y1="0%" x2="50%" y2="100%" id="linearGradient-1">
            <stop stop-color="#FFFFFF" offset="0%"></stop>
            <stop stop-color="#EDEDED" offset="100%"></stop>
        </linearGradient>
        <rect id="path-2" x="0" y="0" width="900" height="600" rx="80"></rect>
        <filter x="-6.7%" y="-10.0%" width="113.3%" height="120.0%" filterUnits="objectBoundingBox" id="filter-3">
            <feMorphology radius="2.5" operator="dilate" in="SourceAlpha" result="shadowSpreadOuter1"></feMorphology>
            <feOffset dx="0" dy="0" in="shadowSpreadOuter1" result="shadowOffsetOuter1"></feOffset>
            <feGaussianBlur stdDeviation="17.5" in="shadowOffsetOuter1" result="shadowBlurOuter1"></feGaussianBlur>
            <feColorMatrix values="0 0 0 0 0   0 0 0 0 0   0 0 0 0 0  0 0 0 0.5 0" type="matrix" in="shadowBlurOuter1"></feColorMatrix>
        </filter>
    </defs>
    <g id="ME-Pošta-Crne-Gore-text" stroke="none" stroke-width="1" fill="none" fill-rule="evenodd">
        <g transform="translate(40, 40)">
            <g id="Rectangle">
                <use fill="black" fill-opacity="1" filter="url(#filter-3)" xlink:href="#path-2"></use>
                <use fill="url(#linearGradient-1)" fill-rule="evenodd" xlink:href="#path-2"></use>
            </g>
            <g id="Logo" transform="translate(50, 191)" fill-rule="nonzero">
                <g id="g3183" transform="translate(165.135, 110.7282) scale(-1, 1) rotate(-180) translate(-165.135, -110.7282)translate(-0, 3.0458)" fill="#FDB813">
                    <path d="M329.435783,94.5863889 C329.435783,102.418809 323.065356,108.771674 315.254888,108.771674 C307.422469,108.771674 301.082775,102.418809 301.082775,94.5863889 L301.082775,54.3925541 C301.082775,53.9666882 301.157411,53.6110683 301.218876,53.2071543 L301.14424,53.1764217 C301.425224,48.6236083 300.454952,46.0859746 298.338794,43.0346676 C296.209465,40.0799488 292.547896,37.1032781 288.271676,34.7544303 C284.021798,32.3616788 279.346054,30.6011406 275.84693,29.5474518 C274.130295,28.9942652 272.672692,28.6210838 271.702421,28.4191268 C271.645346,28.3708327 271.619004,28.3708327 271.548758,28.3708327 L55.2308511,28.3708327 C47.5916078,28.4191268 43.1748959,30.2060073 39.8206534,32.4714381 C36.5015339,34.75004 34.0780498,37.8759832 32.2648271,41.5463323 C30.4559948,45.2079006 29.3935253,49.2206986 28.8579002,52.20615 C28.6032588,53.7296083 28.4671573,54.9457407 28.3793499,55.7316169 C28.3793499,56.1047983 28.3530077,56.4033434 28.3442269,56.5570064 L28.3442269,56.5657871 L28.3442269,160.112657 C28.3442269,160.297053 28.309104,160.393641 28.2871521,160.534133 L28.3442269,160.534133 C28.2564195,166.114292 29.5735305,169.516829 31.7818864,172.792045 C34.0034135,175.988234 37.4893671,178.850755 41.4055769,181.151309 C45.3349578,183.412349 49.6023971,185.045567 52.7854152,185.963154 C54.3659483,186.463656 55.6698881,186.806105 56.5391813,186.98611 C56.5655235,187.008062 56.6094272,187.008062 56.6445502,187.008062 L270.288722,187.008062 C285.558428,186.806105 292.11325,182.213778 296.38947,177.753163 L163.04516,124.594566 L103.239544,152.341703 L103.239544,152.280237 C101.430712,153.153921 99.4418742,153.667594 97.3169353,153.667594 C89.4669542,153.667594 83.1448218,147.288387 83.1448218,139.451577 C83.1448218,133.779219 86.4990643,128.927861 91.3592036,126.644869 L91.3592036,126.609746 L156.648392,96.3249753 L156.661563,96.3513176 C158.509909,95.5171473 160.485575,95.0078644 162.601733,95.0078644 C164.458859,95.0078644 166.232569,95.4029977 167.865786,96.0439917 L167.865786,96.0220398 L168.129209,96.1054568 L168.129209,96.1537509 L321.317989,157.144767 L321.300428,157.18428 C326.542529,159.282877 330.269953,164.349364 330.269953,170.311486 C330.269953,171.207121 330.151413,172.02812 330.006531,172.871071 L330.028483,172.871071 C330.006531,172.919366 330.006531,172.998392 329.980188,173.134494 C329.967017,173.156446 329.967017,173.200349 329.967017,173.270595 C329.435783,175.610662 327.315234,184.953369 319.140366,194.831701 C310.570364,205.465176 294.009889,215.589369 270.288722,215.36107 L55.2308511,215.36107 C54.4361942,215.36107 53.6898314,215.229359 52.9039552,215.12838 L52.9039552,215.159113 C52.8380996,215.145942 52.6493137,215.12838 52.4517471,215.075696 C52.4122338,215.075696 52.3639397,215.049353 52.3156456,215.023011 C49.6638623,214.518119 38.9294083,212.388789 27.2246827,205.715427 C20.7840103,201.939709 13.9306431,196.710779 8.53926911,189.014461 C3.22253138,181.493758 -0.263422183,171.483715 0.0175614789,160.235587 C0.0175614789,160.200464 0,160.160951 0,160.112657 L0,56.3550494 C0,56.2716323 0.0175614789,56.1706538 0.0175614789,56.0960176 L0,56.0960176 C0.0878073945,54.9940348 0.136101461,42.801978 6.87092862,28.967923 C10.260294,22.1145559 15.568251,14.7167829 23.7606809,9.1058904 C31.8916457,3.44231345 42.7182974,-0.0348593696 55.2308511,0 L273.067826,0 C273.95029,0 274.841535,0.158316898 275.680096,0.268076141 L275.680096,0.263685772 C275.719609,0.263685772 275.785465,0.307589469 275.84693,0.307589469 L276.035716,0.360273906 C278.186997,0.799310878 289.724888,3.12181646 302.08817,10.0015258 C308.726409,13.7157786 315.715877,18.7954364 321.256524,26.355653 C326.625946,33.5778112 330.142632,43.5395601 329.435783,54.4320674 L329.435783,94.5863889 Z" id="path3185"></path>
                </g>
                <g id="g3187" transform="translate(437.0038, 62.3481) scale(-1, 1) rotate(-180) translate(-437.0038, -62.3481)translate(394.8475, 3.5413)" fill="#000000">
                    <path d="M43.4866121,117.613615 C52.1663731,117.613615 59.8978141,115.980397 66.7336198,112.6964 C73.5782062,109.394842 78.3637092,105.09667 81.0857384,99.7009061 C83.2106774,95.556397 84.3126602,91.0957814 84.3126602,86.3322303 C84.3126602,78.8993343 81.9682027,72.3971967 77.3539242,66.8258176 C72.7352552,61.1841925 66.8653309,57.2504212 59.7704934,55.015723 C55.1474341,53.4703129 50.2829044,52.6756559 45.1769045,52.6756559 L38.6133017,53.2200618 C37.4279019,53.4703129 36.4400687,53.6898314 35.6893155,53.852275 C34.9297815,54.0234995 33.7443817,54.4844883 32.1901908,55.1957282 C38.5123232,55.8015992 44.1012639,57.3470093 48.9789646,59.8539104 C54.6557127,62.9666826 58.7343662,66.7819139 61.2588288,71.3347273 C63.17303,74.7723868 64.0950076,78.6139603 64.0950076,82.802373 C64.0950076,90.2220978 61.7461598,95.7539637 57.0089509,99.3979706 C52.3332071,103.050758 46.1910799,104.872762 38.6835476,104.872762 C34.5302579,104.872762 30.3857489,104.490799 26.1885554,103.792731 L26.1885554,23.0757833 L26.1885554,16.1082665 L27.0929716,10.0276044 C28.2871521,5.99285467 31.0399139,2.80983662 35.4039415,0.544405846 L0,0 C2.38836113,1.54541014 4.09182458,3.08642992 5.12795184,4.63184006 C6.1772502,6.19920205 6.97190712,8.29779878 7.58655888,10.8881169 C7.81046774,12.670607 7.95974031,15.0370163 7.95974031,18.0663714 C7.95974031,21.0210902 7.9904729,23.3655477 8.12218399,25.05584 L8.12218399,92.4216731 L8.12218399,102.774165 C8.12218399,104.925446 7.9026655,106.747449 7.48997075,108.209443 C7.03776267,109.715339 6.31335166,111.238798 5.33429921,112.775427 C3.85913499,114.922318 2.12054858,116.357969 0.15366294,117.091161 L43.4866121,117.613615 Z" id="path3189"></path>
                </g>
                <g id="g3191" transform="translate(529.6503, 80.2191) scale(-1, 1) rotate(-180) translate(-529.6503, -80.2191)translate(483.7643, 36.8071)" fill="#000000">
                    <path d="M45.1769045,0 C36.1239621,0 27.7690885,2.34006706 20.0859415,7.05971452 C12.4071848,11.7530198 6.91044195,17.8512433 3.57376096,25.3587755 C1.20735167,30.5877059 0,36.3786035 0,42.7007359 C0,47.7101478 0.781485811,52.3815012 2.32689595,56.7762613 C3.87669647,61.1929732 5.83919173,65.0696697 8.20999138,68.4019603 C13.3379432,75.4046 20.2878985,80.4710867 29.0993705,83.5970299 C35.065883,85.73514 41.098251,86.8239517 47.3281856,86.8239517 C53.1542062,86.8239517 58.5631417,85.9283162 63.5725536,84.2336335 C68.5424521,82.4730953 73.0864848,79.8300927 77.1431864,76.2431606 C81.7969783,72.1908494 85.3619585,67.3833945 87.9171537,61.7022561 C90.4811296,56.0035562 91.7718983,50.2390008 91.7718983,44.2856594 C91.7718983,34.8814875 89.0674306,26.504662 83.7550832,19.1200601 C78.3944418,11.7222872 71.4883902,6.40115906 63.0149766,3.21375064 C57.0791968,1.07125021 51.1390265,0 45.1769045,0 M46.0725399,11.7091161 C50.1292415,11.7091161 53.8566654,12.4159656 57.3206671,13.834055 C60.7495459,15.4760533 63.6471899,17.6185537 66.0223799,20.1254548 C71.1503317,25.6002459 73.7099173,32.4097093 73.7099173,40.5318933 C73.7099173,47.0998864 72.3840256,53.3210403 69.776146,59.1426706 C66.6897161,65.1135734 62.7120411,69.4117453 57.8167789,72.0723094 C54.1464298,74.1006602 49.99314,75.1236163 45.3569096,75.1236163 C41.5460687,75.1236163 37.8318159,74.2938365 34.2185416,72.6869612 C30.5964866,71.0713051 27.7120137,68.9946602 25.5563422,66.4789784 C20.5688822,60.9032088 18.1014944,54.0234995 18.1014944,45.8881444 C18.1014944,39.5440601 19.4668994,33.4765691 22.2723456,27.6373774 C25.0514496,21.7981857 28.9676594,17.4780619 33.9551194,14.7384712 C37.6254685,12.70573 41.6909509,11.7091161 46.0725399,11.7091161" id="path3193"></path>
                </g>
                <g id="g3195" transform="translate(616.3605, 61.8164) scale(-1, 1) rotate(-180) translate(-616.3605, -61.8164)translate(581.6327, 0)" fill="#000000">
                    <path d="M59.6080497,84.4970557 L59.6080497,69.4336972 C52.7371211,73.2225863 45.4710592,75.1236163 37.7879122,75.1236163 L32.8092329,75.1236163 L27.2949286,73.8635802 C23.2777403,72.2830471 21.2625606,69.9693223 21.2625606,66.8302079 C21.2625606,64.5823386 22.4040567,62.4617901 24.6299742,60.5300274 C26.5441754,58.9846172 29.4418194,57.4962819 33.3448581,56.060631 C37.4191212,54.8620601 41.2431332,53.6239758 44.9266534,52.2805227 C48.5882217,50.9941443 52.3858915,49.387269 56.2889302,47.6223404 C61.6320102,44.6149371 65.3023593,41.1465451 67.3219293,37.203993 C68.7531899,34.3019587 69.455649,31.2857747 69.455649,28.0237299 C69.455649,23.8309269 68.4195218,19.9981341 66.3428769,16.5560842 C64.266232,13.0569596 61.4915184,10.1198022 58.0494685,7.73144108 C50.6736474,2.56836629 41.1860584,0 29.5427979,0 C21.1396302,0 13.4125795,1.44443164 6.40115906,4.31573344 L0,21.9518486 C5.34747032,18.5317506 10.7081118,15.9502132 16.0643628,14.2160172 C18.904932,13.276478 21.6620842,12.6091418 24.3533809,12.2359604 C27.0183353,11.862779 30.0740326,11.7091161 33.5248632,11.7091161 L39.6055253,12.2359604 L46.0286362,14.000889 C50.7965777,16.3058332 53.1498159,19.3747016 53.1498159,23.2996921 C53.1498159,26.0612347 52.1136886,28.3486173 50.0370437,30.196963 C47.9603989,32.0409182 44.957386,33.8014565 41.0806895,35.4741874 C31.931159,38.6923284 27.2071212,40.3343267 26.8515012,40.4879896 C22.9133396,42.2529182 20.0025245,43.4997832 18.1541788,44.2110231 C12.789147,47.0032983 9.10562681,50.2433911 7.10800858,54.0586224 C5.68552879,56.8333361 4.98746001,59.7309801 4.98746001,62.8437522 C4.98746001,67.6907204 6.2650576,71.9142561 8.88610832,75.3343541 C11.4895976,78.8115269 14.9799415,81.436968 19.3878727,83.2106774 C21.635742,84.3126602 24.6650971,85.1556112 28.4408151,85.7966051 C32.2560464,86.4639413 36.0317643,86.828342 39.8382149,86.828342 L49.8306964,86.2619843 L59.6080497,84.4970557 Z M35.7815133,96.0173859 L6.40115906,123.632811 C8.78073945,123.632811 11.3271539,123.356218 14.0447927,122.728395 C16.7843835,122.122524 19.3878727,121.341038 21.8859931,120.348815 C26.5222235,118.50925 31.1321117,115.949664 35.7815133,112.661277 C40.7689733,115.853076 45.3130059,118.403881 49.4970283,120.348815 C54.813766,122.557171 59.801226,123.632811 64.4418468,123.632811 L35.7815133,96.0173859 Z" id="path3197"></path>
                </g>
                <g id="g3199" transform="translate(683.9533, 68.0086) scale(-1, 1) rotate(-180) translate(-683.9533, -68.0086)translate(657.6989, 12.3848)" fill="#000000">
                    <path d="M28.3442269,72.9503833 L28.3442269,37.2566775 L28.3442269,31.6984694 L28.8754617,24.7397334 L30.4911177,20.0771607 C31.7818864,17.8249011 33.1736336,16.1477798 34.5917231,15.0853104 C37.1161856,13.0569596 40.7162888,12.0340034 45.3525192,12.0340034 L48.9306706,12.5696285 L52.5088219,13.8384454 L43.0607463,0.891245054 C41.2475236,0.32049699 39.3377127,0 37.3093619,0 C31.966282,0 27.5188374,1.0580791 23.927515,3.14350472 C20.3581444,5.23332071 17.6756285,8.01242475 15.888748,11.4632553 C14.8218882,13.3686758 13.9218624,15.7570369 13.2413551,18.5273602 C12.4906019,21.3591487 12.1393723,24.1997179 12.1393723,27.0798005 L11.9637575,35.6629733 L12.1393723,72.9503833 L0,72.9503833 L0,79.3734942 C5.94895098,80.4710867 10.6817695,82.7496886 14.119429,86.3278399 C17.0829286,89.6513498 19.1156698,94.107575 20.1781393,99.6745638 C20.9069406,103.476624 21.2889028,107.335759 21.2889028,111.247578 L28.3442269,111.247578 L28.3442269,84.6814512 L45.1330008,84.6814512 L48.7067617,84.6814512 L51.9073412,85.6956266 L52.438576,69.4336972 C50.550717,71.176674 48.6935906,72.1908494 46.893539,72.506956 C45.1330008,72.8494048 43.5392966,72.9503833 42.1651108,72.9503833 L39.0699002,72.9503833 L28.3442269,72.9503833 Z" id="path3201"></path>
                </g>
                <g id="g3203" transform="translate(756.8989, 80.2191) scale(-1, 1) rotate(-180) translate(-756.8989, -80.2191)translate(714.5011, 36.8071)" fill="#000000">
                    <path d="M84.7956008,11.7091161 L76.9851331,0 L68.445864,1.26442648 C65.3594341,2.00200859 62.8042389,2.93276698 60.7539362,4.11377643 C55.9025777,7.23093894 53.4703129,12.064736 53.4703129,18.6239484 L53.4703129,46.9550042 C50.515594,45.5017918 47.6925863,44.4393223 45.075926,43.7061306 L36.2995769,41.3441117 L29.841343,39.7504075 C29.0071728,39.3947875 28.0500722,38.9777024 26.908576,38.5781788 C25.7846414,38.165484 24.7836371,37.7088856 23.9406861,37.239116 C20.0025245,34.7234341 18.0663714,31.0750369 18.0663714,26.4080739 C18.0663714,21.3020739 20.1210644,17.4297678 24.3094772,14.9096956 C27.8612863,12.7715855 32.2779982,11.7091161 37.5113189,11.7091161 L43.912478,12.4159656 L50.3443696,14.1765038 L39.7943112,0.891245054 C38.3806121,0.504892518 36.9098383,0.289764402 35.4171126,0.16683405 C33.9287772,0.0702459156 32.3175115,0 30.5262407,0 C23.962638,0 18.0663714,1.47516423 12.8418314,4.47378675 C7.83680996,7.5558263 4.263049,11.3798383 2.15128116,15.9150902 C0.706849526,19.3703112 0,22.847484 0,26.3114858 C0,32.1287256 1.71224419,36.8791057 5.1762459,40.6021392 C7.91583661,43.5524677 12.0340034,45.9364384 17.5263559,47.7233189 L45.9627806,54.5240016 C48.3555321,55.3537815 50.0809474,56.4425932 51.1829302,57.7289715 C52.7151693,59.3007239 53.4703129,61.2807806 53.4703129,63.660361 C53.4703129,66.4087324 52.2410093,68.8366069 49.7165468,71.0098399 C47.8330781,72.6518382 45.1330008,73.8591899 41.6821702,74.5836009 L36.2995769,75.1236163 C32.2428753,75.1236163 27.9929974,74.3157883 23.5279914,72.79233 C19.0322528,71.2469199 16.683405,70.4039689 16.4243731,70.2986 C14.4355357,69.2580824 12.9384196,68.4590351 11.9769286,68.0024367 L23.9406861,85.73514 L35.5927274,86.8239517 L45.9627806,86.0688081 C49.3301942,85.5990385 52.284913,84.892189 54.9235252,83.9219173 C60.7539362,81.7003902 64.8281993,78.0476026 67.0980205,73.0162389 C68.884901,69.2097883 69.7805364,64.7535631 69.7805364,59.6124401 L69.7805364,32.8048426 L69.7805364,23.6816543 C70.1185949,21.0518228 70.7112948,19.0278624 71.4181443,17.57465 C73.5650351,14.3784608 78.0256507,12.4159656 84.7956008,11.7091161" id="path3205"></path>
                </g>
                <g id="g3207" transform="translate(416.0261, 183.6896) scale(-1, 1) rotate(-180) translate(-416.0261, -183.6896)translate(388.7993, 151.2491)" fill="#000000">
                    <path d="M49.9624075,62.5188649 L49.9624075,51.714165 C47.2096456,53.4088477 44.4568838,54.7215682 41.7172931,55.6611074 C38.569398,56.5962561 35.5488237,57.0660257 32.5941048,57.0660257 C27.7778692,57.0660257 23.5543336,55.8279414 19.9586208,53.3693344 C16.3716887,50.871214 13.7725898,47.5433137 12.2271797,43.3373395 C11.1778813,40.6021392 10.6378658,37.4718056 10.6378658,33.9595098 C10.6378658,28.7876543 11.9242442,23.9933705 14.4882201,19.581049 C17.0478056,15.1204333 20.4371711,11.9198538 24.6255838,9.97931038 C27.5583508,8.54804985 30.8423473,7.82802922 34.4863542,7.82802922 C37.8537678,7.82802922 41.2343524,8.35048322 44.6105468,9.44807565 C48.0043026,10.5237162 51.2663473,11.9198538 54.4537557,13.6628306 L49.9624075,2.81861736 C47.9208855,1.9142012 45.6642355,1.17661909 43.2890455,0.706849526 C40.8392192,0.263422183 38.3850025,0 35.8166362,0 C29.6306053,0 24.1163009,0.965881339 19.2078675,2.93276698 C14.3433379,4.88209113 10.4095666,7.5558263 7.40216335,10.9188495 C5.33868958,13.2940395 3.6835202,15.9853362 2.44104557,19.0103009 C0.825389508,22.8606552 0,27.4002974 0,32.5633722 C0,37.7001048 1.00539467,42.4812174 2.99862252,46.8891487 C4.97867927,51.3497643 7.84998107,55.0684074 11.5203302,57.9792226 C13.9657661,59.8890334 16.683405,61.3641976 19.6908082,62.5188649 C23.7475098,64.0774461 28.1510507,64.8808838 32.9058211,64.8808838 C34.6444075,64.8808838 36.2249406,64.7799053 37.6298589,64.6350231 C39.0391676,64.4506275 40.3518881,64.3101357 41.5109457,64.1872054 L49.9624075,62.5188649 Z" id="path3209"></path>
                </g>
                <g id="g3211" transform="translate(460.0041, 192.4808) scale(-1, 1) rotate(-180) translate(-460.0041, -192.4808)translate(446.7254, 170.2546)" fill="#000000">
                    <path d="M6.20359242,43.2451418 L9.29002234,43.473441 C10.5061547,43.7500343 11.3359346,44.1056542 11.7705812,44.4524935 L12.0340034,37.3005812 C13.0481788,39.447472 14.5496853,41.1684969 16.6307205,42.5207308 C18.6634617,43.8027187 20.8586466,44.4524935 23.1635907,44.4524935 L26.5573465,44.2022424 L26.5573465,35.50492 C25.6046362,36.5366568 24.1689853,37.0547205 22.2328323,37.0547205 C18.6634617,37.0547205 16.0555821,35.9834703 14.439926,33.8892639 C12.8418314,31.812619 12.0340034,28.3881306 12.0340034,23.6114084 L12.0340034,10.4490799 L12.0340034,7.35825966 L12.0340034,4.63184006 C12.5081633,2.80544625 13.6760017,1.35223387 15.5594703,0.302935511 L0,0 C1.47516423,1.15027687 2.44104557,2.22152708 2.88886328,3.27082544 C3.33229062,4.29378159 3.52546689,5.66357694 3.52546689,7.35825966 L3.52546689,10.4490799 L3.52546689,32.9365537 L3.52546689,36.0010317 L3.52546689,38.6484247 C3.02057437,40.5275029 1.9581049,41.9675442 0.241470335,42.98611 L6.20359242,43.2451418 Z" id="path3213"></path>
                </g>
                <g id="g3215" transform="translate(503.2984, 192.4808) scale(-1, 1) rotate(-180) translate(-503.2984, -192.4808)translate(480.5277, 170.2546)" fill="#000000">
                    <path d="M5.56259844,43.2451418 L8.78952019,43.473441 C9.14514014,43.508564 9.63247117,43.6139328 10.1461444,43.7500343 C10.6817695,43.9256491 11.2700791,44.2022424 11.8891212,44.4524935 L12.0559553,37.2083834 C13.9043009,39.6011349 15.7745984,41.3441117 17.6712381,42.5207308 C19.9278882,43.8027187 22.5313774,44.4524935 25.4465829,44.4524935 C28.2783714,44.4524935 31.0223525,43.9256491 33.7268202,42.784153 C36.3917746,41.6646087 38.4332966,40.0489526 39.8426052,38.0074307 C40.4616474,37.1030145 41.0016629,36.0010317 41.3880154,34.6751401 C41.8094909,33.2790025 42.0026671,32.1550679 42.0026671,31.2374806 L42.0026671,27.4485915 L42.0026671,24.0065417 L42.0026671,10.3656629 L42.0026671,7.24850041 L42.0026671,4.63184006 C42.4724367,2.80544625 43.6314943,1.35223387 45.5413051,0.302935511 L29.876466,0 C31.408705,1.15027687 32.4053189,2.22152708 32.8531366,3.27082544 C33.261441,4.29378159 33.5073017,5.66357694 33.5073017,7.35825966 L33.5073017,10.3656629 L33.5073017,23.0318796 C33.5073017,28.2432484 32.6950833,32.0540894 31.0530851,34.4424505 C29.2442527,37.0152071 26.2368495,38.2752433 22.074779,38.2752433 C19.1332313,38.2752433 16.7887738,37.5947359 15.0940911,36.2205502 C13.6891728,35.0131985 12.8550026,33.5292536 12.5432863,31.8433516 C12.2271797,30.1223267 12.0559553,28.5242321 12.0559553,26.9919931 L12.0559553,10.3656629 L12.0559553,7.24850041 L12.0559553,4.63184006 C12.5432863,2.80544625 13.6891728,1.35223387 15.6165451,0.302935511 L0,0 C1.50589682,1.15027687 2.47177815,2.22152708 2.90642476,3.27082544 C3.34107136,4.29378159 3.58254169,5.66357694 3.58254169,7.35825966 L3.58254169,10.4490799 L3.58254169,32.8224041 L3.58254169,35.9132243 L3.30155803,38.6484247 C2.78788477,40.5275029 1.69907308,41.9675442 0,42.98611 L5.56259844,43.2451418 Z" id="path3217"></path>
                </g>
                <g id="g3219" transform="translate(553.2256, 193.0916) scale(-1, 1) rotate(-180) translate(-553.2256, -193.0916)translate(530.9138, 170.2572)" fill="#000000">
                    <path d="M44.6237179,24.2524024 L10.0758985,24.2524024 C10.0758985,20.1474067 11.1251969,16.6438916 13.1798899,13.6891728 C15.2477541,10.7388443 18.0356388,8.63585725 21.4864694,7.41094409 C23.7431195,6.62067754 26.2061169,6.21676353 28.9018039,6.21676353 C31.5974909,6.21676353 34.3283009,6.62067754 37.0678916,7.41094409 C39.8557764,8.34609285 42.2924316,9.60173859 44.3120016,11.1647102 L39.9260223,2.34445743 C37.9108426,1.52345829 35.790294,0.9571006 33.5424247,0.561967325 C31.2638228,0.215128116 29.0730283,0 26.9524797,0 C21.1220687,0 15.9546036,1.26881685 11.4939879,3.83718314 C6.99824934,6.34847462 3.80206018,9.74662079 1.95371453,14.0184505 C0.63221324,16.9512175 0,20.0025245 0,23.1284677 C0,27.9798263 1.20735167,32.2209234 3.75376611,35.957128 C6.24749612,39.697723 9.61930007,42.3714582 13.8867394,44.0046757 C16.885362,45.1461719 20.0727704,45.6686259 23.4665262,45.6686259 C28.0983662,45.6686259 32.1814101,44.4963972 35.7507807,42.1519397 C39.2762476,39.8030919 41.7963198,36.6508065 43.2978262,32.7653293 C43.7851573,31.5184642 44.1407772,30.1662304 44.3120016,28.7700928 C44.5403009,27.3520034 44.6237179,25.8461066 44.6237179,24.2524024 M34.7848993,29.757926 C34.1921994,33.1033877 32.8838692,35.5619948 30.8642992,37.1293568 C28.8008254,38.7274513 26.0875769,39.495766 22.6543078,39.495766 C19.581049,39.495766 16.9248753,38.6133017 14.7209097,36.8791057 C12.4949922,35.1053963 11.103245,32.7038641 10.5456681,29.757926 L34.7848993,29.757926 Z" id="path3221"></path>
                </g>
                <g id="g3223" transform="translate(635.9653, 183.6904) scale(-1, 1) rotate(-180) translate(-635.9653, -183.6904)translate(605.6564, 151.25)" fill="#000000">
                    <path d="M53.5800721,63.2915699 L53.5800721,52.4868701 C52.5439449,53.3693344 51.6351383,54.0717935 50.8141392,54.6205897 C49.9975304,55.1079208 48.9921358,55.6611074 47.7891744,56.1572191 C45.848631,57.0396835 43.5963714,57.59287 41.0411762,57.8255596 L36.4839724,58.115324 C30.9872295,58.115324 26.0744058,56.8026035 21.8245279,54.2254565 C17.5351367,51.6044057 14.4970008,48.0965003 12.58719,43.6534462 C11.2700791,40.4396955 10.5983525,37.0327686 10.5983525,33.379981 C10.5983525,31.8740842 10.6905503,30.5481925 10.9144591,29.3935253 C11.0681221,28.2169062 11.3930094,26.8515012 11.8364368,25.3017007 C12.6354841,22.91773 13.7945417,20.5776629 15.2082407,18.3297936 C18.1761307,13.9964987 22.1274634,10.8442132 27.1061427,8.80708167 C30.4384333,7.43728631 33.902435,6.76116937 37.5420515,6.76116937 C39.7504075,6.76116937 41.9499827,6.87531899 44.1495579,7.23971967 C46.3447428,7.50753223 48.496024,7.97730179 50.669257,8.54804985 L50.669257,22.0352656 L50.669257,25.1963318 L50.1380222,28.2783714 C49.5101994,30.4208718 48.1930885,31.8609131 46.2218125,32.6072759 L60.6178348,32.8750885 C60.3631933,32.1375064 60.2095304,31.4218761 60.2095304,30.7501495 L60.2095304,28.5900876 L60.2095304,7.06849526 L60.2095304,4.89526224 L60.5563696,2.81861736 C56.3591761,1.9142012 52.5263834,1.17661909 49.0360394,0.706849526 C45.528134,0.267812553 41.9192501,0 38.1435322,0 C31.729202,0 25.8417162,0.970271709 20.5820533,2.93276698 C15.282877,4.88209113 11.0022665,7.63485295 7.77973515,11.1866621 C5.58894066,13.5618521 3.84596388,16.1565606 2.61666036,19.0981083 C0.842950987,22.9791951 0,27.3124901 0,32.0760412 C0,37.5947359 1.13710576,42.5778056 3.49034393,47.047202 C5.85236284,51.5429406 9.1934342,55.1825571 13.513558,57.9792226 C16.3541272,59.9592793 19.5239742,61.4827376 23.0977351,62.6242337 C27.988607,64.1169594 33.2175373,64.8808838 38.7801358,64.8808838 C43.4997832,64.8808838 48.4126069,64.3101357 53.5800721,63.2915699" id="path3225"></path>
                </g>
                <g id="g3227" transform="translate(693.7566, 193.0911) scale(-1, 1) rotate(-180) translate(-693.7566, -193.0911)translate(669.6622, 170.2546)" fill="#000000">
                    <path d="M23.7167772,0 C18.9444454,0 14.5672467,1.22052278 10.5237162,3.740595 C6.50652793,6.21676353 3.61766465,9.41734306 1.85273602,13.3598951 C0.605871022,16.1126569 0,19.1639638 0,22.4830834 C0,25.0953533 0.399523645,27.6022545 1.1897902,29.8808563 C2.03713155,32.2253138 3.04252622,34.2668357 4.29817196,36.0142028 C6.97629749,39.7108942 10.6466466,42.3714582 15.2565348,44.0046757 C18.3912588,45.1461719 21.5830576,45.6730162 24.8055889,45.6730162 C27.8920189,45.6730162 30.7281977,45.2164178 33.3448581,44.3339535 C35.992251,43.4514892 38.3542699,42.0421805 40.49238,40.1631022 C42.9334255,38.0074307 44.838846,35.4873585 46.1471762,32.4711745 C47.49941,29.4901134 48.1886981,26.4783198 48.1886981,23.321644 C48.1886981,18.3693069 46.7837798,13.9745468 43.9432106,10.0715081 C41.1684969,6.19481168 37.5200997,3.36741358 33.0726551,1.71224419 C29.9686637,0.566357694 26.8207686,0 23.7167772,0 M24.1865468,6.21676353 C26.2763628,6.21676353 28.2432484,6.57238348 30.0301289,7.30557522 C31.8389612,8.19682027 33.3448581,9.28563197 34.6136749,10.6422562 C37.2698486,13.5091676 38.6089114,17.0917093 38.6089114,21.350368 C38.6089114,24.7924178 37.9327944,28.0544625 36.5629991,31.1540636 C34.9297815,34.2668357 32.8531366,36.5015339 30.3418452,37.8976715 C28.3969114,38.9908735 26.2061169,39.495766 23.8001943,39.495766 C21.8201375,39.495766 19.8752037,39.0611194 17.9741737,38.2313396 C16.0775339,37.3927789 14.5672467,36.3215287 13.4784351,34.982466 C10.8617747,32.0453086 9.54466378,28.4364247 9.54466378,24.164595 C9.54466378,20.8454754 10.2910266,17.6361152 11.7530198,14.5804179 C13.2062321,11.4939879 15.2433637,9.24611864 17.8380722,7.77534478 C19.7698349,6.7436079 21.8816027,6.21676353 24.1865468,6.21676353" id="path3229"></path>
                </g>
                <g id="g3231" transform="translate(736.7567, 192.4808) scale(-1, 1) rotate(-180) translate(-736.7567, -192.4808)translate(723.4583, 170.2546)" fill="#000000">
                    <path d="M6.20359242,43.2451418 L9.31197418,43.473441 C10.5237162,43.7500343 11.3578865,44.1056542 11.7837523,44.4524935 L12.0603456,37.3005812 C13.0393981,39.447472 14.5716371,41.1684969 16.5999879,42.5207308 C18.6678521,43.8027187 20.8410851,44.4524935 23.1899329,44.4524935 L26.5968598,44.2022424 L26.5968598,35.50492 C25.6178073,36.5366568 24.1953275,37.0547205 22.2372227,37.0547205 C18.6371195,37.0547205 16.0775339,35.9834703 14.4443164,33.8892639 C12.8462218,31.812619 12.0603456,28.3881306 12.0603456,23.6114084 L12.0603456,10.4490799 L12.0603456,7.35825966 L12.0603456,4.63184006 C12.4949922,2.80544625 13.6891728,1.35223387 15.5989836,0.302935511 L0,0 C1.50589682,1.15027687 2.44982631,2.22152708 2.89764402,3.27082544 C3.31033877,4.29378159 3.52985726,5.66357694 3.52985726,7.35825966 L3.52985726,10.4490799 L3.52985726,32.9365537 L3.52985726,36.0010317 L3.52985726,38.6484247 C3.04691659,40.5275029 1.93615305,41.9675442 0.263422183,42.98611 L6.20359242,43.2451418 Z" id="path3233"></path>
                </g>
                <g id="g3235" transform="translate(777.6706, 193.0916) scale(-1, 1) rotate(-180) translate(-777.6706, -193.0916)translate(755.3412, 170.2572)" fill="#000000">
                    <path d="M44.6588408,24.2524024 L10.1022407,24.2524024 C10.1022407,20.1474067 11.1471487,16.6438916 13.2237936,13.6891728 C15.2784866,10.7388443 18.0224677,8.63585725 21.468908,7.41094409 C23.7782424,6.62067754 26.2368495,6.21676353 28.9413172,6.21676353 C31.6238331,6.21676353 34.3458624,6.62067754 37.1117953,7.41094409 C39.8645571,8.34609285 42.2880412,9.60173859 44.351515,11.1647102 L39.934803,2.34445743 C37.9459655,1.52345829 35.8122458,0.9571006 33.5555958,0.561967325 C31.290165,0.215128116 29.1125416,0 26.9612605,0 C21.1659724,0 15.9941169,1.26881685 11.5115494,3.83718314 C7.02459156,6.34847462 3.85035425,9.74662079 1.99761822,14.0184505 C0.649774719,16.9512175 0,20.0025245 0,23.1284677 C0,27.9798263 1.24247463,32.2209234 3.76254685,35.957128 C6.28261908,39.697723 9.67637487,42.3714582 13.9262528,44.0046757 C16.9204849,45.1461719 20.103503,45.6686259 23.5060395,45.6686259 C28.1334892,45.6686259 32.2253138,44.4963972 35.7815133,42.1519397 C39.2981994,39.8030919 41.822662,36.6508065 43.3285588,32.7653293 C43.8378417,31.5184642 44.1759002,30.1662304 44.351515,28.7700928 C44.5446912,27.3520034 44.6588408,25.8461066 44.6588408,24.2524024 M34.7717282,29.757926 C34.2404935,33.1033877 32.9277729,35.5619948 30.8774703,37.1293568 C28.8359483,38.7274513 26.1051384,39.495766 22.6674789,39.495766 C19.6205623,39.495766 16.9775597,38.6133017 14.7560326,36.8791057 C12.5476767,35.1053963 11.103245,32.7038641 10.580791,29.757926 L34.7717282,29.757926 Z" id="path3237"></path>
                </g>
            </g>
        </g>
    </g>
</svg>