<?xml version="1.0" encoding="UTF-8"?>
<svg width="980px" height="680px" viewBox="0 0 980 680" version="1.1" xmlns="http://www.w3.org/2000/svg" xmlns:xlink="http://www.w3.org/1999/xlink">
    <title>MK Makedonska Pošta</title>
    <defs>
        <rect id="path-1" x="0" y="0" width="900" height="600" rx="80"></rect>
        <filter x="-6.7%" y="-10.0%" width="113.3%" height="120.0%" filterUnits="objectBoundingBox" id="filter-2">
            <feMorphology radius="2.5" operator="dilate" in="SourceAlpha" result="shadowSpreadOuter1"></feMorphology>
            <feOffset dx="0" dy="0" in="shadowSpreadOuter1" result="shadowOffsetOuter1"></feOffset>
            <feGaussianBlur stdDeviation="17.5" in="shadowOffsetOuter1" result="shadowBlurOuter1"></feGaussianBlur>
            <feColorMatrix values="0 0 0 0 0   0 0 0 0 0   0 0 0 0 0  0 0 0 0.5 0" type="matrix" in="shadowBlurOuter1"></feColorMatrix>
        </filter>
    </defs>
    <g id="MK-Makedonska-Pošta" stroke="none" stroke-width="1" fill="none" fill-rule="evenodd">
        <g transform="translate(40, 40)">
            <g id="Rectangle">
                <use fill="black" fill-opacity="1" filter="url(#filter-2)" xlink:href="#path-1"></use>
                <use fill="#FFDD00" fill-rule="evenodd" xlink:href="#path-1"></use>
            </g>
            <g id="Logo" transform="translate(50.0058, 87.2185)" fill-rule="nonzero">
                <path d="M642.350917,241.176546 L650.174813,220.050038 C654.675087,203.39894 657.040878,186.243399 657.215325,168.99576 C657.100605,151.743769 654.733762,134.580602 650.174813,117.941482 C647.533689,111.781345 644.892564,104.738346 642.350917,98.5782097 C639.709793,94.1763356 637.068668,89.7744616 634.524534,84.4922128 C595.73333,18.1159314 517.315312,-14.094844 443.067883,5.85534444 C368.817967,25.8030459 317.102165,92.9726594 316.798759,169.856239 C317.074965,187.158111 319.74132,204.338776 324.722132,220.910517 C328.243631,228.734413 329.124006,231.472528 336.164518,237.635151 L344.968266,243.797775 L364.331538,256.120535 C373.135286,262.280672 376.656785,261.400297 370.494161,252.599036 C368.733412,249.077537 366.092287,245.556038 364.331538,242.037025 C350.902,220.04782 343.890014,194.740927 344.087891,168.975864 C344.087891,92.3956906 406.584554,29.9189225 482.264458,29.9189225 C559.297253,29.7025592 621.930698,91.9430685 622.204261,168.975864 C622.204261,245.556038 562.346235,308.915667 487.546706,308.915667 C340.566392,308.035293 220.872722,184.820124 217.351223,37.0191204 C217.351223,33.4976212 216.473335,30.8564968 212.071461,33.4976212 L2.49500504,153.1515 C-1.90686899,155.792624 -0.146119378,160.194498 5.13364253,158.433749 L146.834195,123.22373 C194.366974,249.957912 336.945415,351.166197 473.361232,352.086363 C552.562635,352.964251 606.258037,309.833346 634.425057,257.038214 C637.417565,251.933936 640.064621,246.634839 642.34843,241.176546 L642.350917,241.176546 Z M794.610994,29.9189225 L789.328745,29.9189225 C785.809733,29.9189225 784.048983,31.6796721 784.048983,36.959434 C780.527484,125.844959 728.592831,208.587756 659.075552,258.741764 C654.673678,262.260776 652.032553,264.021526 650.271803,267.545512 C649.391429,269.303775 648.511054,270.18415 647.630679,271.944899 L642.350917,280.748647 L637.068668,287.786672 L634.427544,291.310658 L630.906045,295.712532 C626.504171,302.750557 623.865533,308.035293 634.427544,302.750557 L635.307919,301.872669 C637.46731,300.354972 639.841125,299.168065 642.350917,298.35117 C644.989555,296.59042 647.630679,295.710045 650.174813,293.949296 C738.197372,242.01713 793.633629,145.287813 799.793765,36.0790592 C800.773618,31.6995676 798.132493,29.936331 794.610994,29.936331 L794.610994,29.9189225 L794.610994,29.9189225 Z" id="Shape" fill="#231F20"></path>
                <path d="M681.060052,297.49069 C523.617204,442.710256 266.527865,410.064267 71.1343968,216.528538 C67.6153845,212.126664 64.0938852,214.767789 67.6153845,219.169663 C267.40824,478.800649 553.445496,478.800649 683.778272,301.909973 C688.983426,295.729941 688.103051,291.330554 681.060052,297.49069 L681.060052,297.49069 Z" id="Path" fill="#EC1C24"></path>
            </g>
        </g>
    </g>
</svg>