<?xml version="1.0" encoding="UTF-8"?>
<svg width="980px" height="680px" viewBox="0 0 980 680" version="1.1" xmlns="http://www.w3.org/2000/svg" xmlns:xlink="http://www.w3.org/1999/xlink">
    <title>MK Makedonska Pošta text</title>
    <defs>
        <rect id="path-1" x="0" y="0" width="900" height="600" rx="80"></rect>
        <filter x="-6.7%" y="-10.0%" width="113.3%" height="120.0%" filterUnits="objectBoundingBox" id="filter-2">
            <feMorphology radius="2.5" operator="dilate" in="SourceAlpha" result="shadowSpreadOuter1"></feMorphology>
            <feOffset dx="0" dy="0" in="shadowSpreadOuter1" result="shadowOffsetOuter1"></feOffset>
            <feGaussianBlur stdDeviation="17.5" in="shadowOffsetOuter1" result="shadowBlurOuter1"></feGaussianBlur>
            <feColorMatrix values="0 0 0 0 0   0 0 0 0 0   0 0 0 0 0  0 0 0 0.5 0" type="matrix" in="shadowBlurOuter1"></feColorMatrix>
        </filter>
    </defs>
    <g id="MK-Makedonska-Pošta-text" stroke="none" stroke-width="1" fill="none" fill-rule="evenodd">
        <g transform="translate(40, 40)">
            <g id="Rectangle">
                <use fill="black" fill-opacity="1" filter="url(#filter-2)" xlink:href="#path-1"></use>
                <use fill="#FFDD00" fill-rule="evenodd" xlink:href="#path-1"></use>
            </g>
            <g id="Logo" transform="translate(212.0058, 50.2742)" fill-rule="nonzero">
                <path d="M381.829948,390.305796 L386.480673,377.747655 C389.155752,367.849813 390.562039,357.652117 390.665735,347.399675 C390.597543,337.144647 389.19063,326.942418 386.480673,317.051696 C384.910721,313.389952 383.340768,309.203412 381.829948,305.541668 C380.259995,302.925081 378.690043,300.308493 377.177744,297.168588 C354.119252,257.712815 307.50556,238.5659 263.370974,250.424806 C219.23491,262.282234 188.493703,302.209584 188.313351,347.911166 C188.477535,358.195846 190.062485,368.408476 193.023208,378.259146 C195.116478,382.909871 195.639796,384.537477 199.824857,388.2007 L205.058032,391.863922 L216.56806,399.188888 C221.801235,402.850633 223.894505,402.327315 220.231282,397.095618 C219.184647,395.002349 217.614695,392.909079 216.56806,390.817287 C208.585197,377.746336 204.417092,362.703267 204.534714,347.387849 C204.534714,301.866619 241.684343,264.728817 286.670429,264.728817 C332.460709,264.600205 369.691643,301.597569 369.854256,347.387849 C369.854256,392.909079 334.273102,430.571676 289.810333,430.571676 C202.441445,430.048359 131.292441,356.806085 129.199171,268.949358 C129.199171,266.856088 128.677332,265.286136 126.060744,266.856088 L1.48309533,337.981439 C-1.1334921,339.551391 -0.0868571257,342.167979 3.05156949,341.121344 L87.2820318,320.191601 C115.536741,395.525666 200.289043,455.686481 281.378122,456.233451 C328.457478,456.75529 360.375409,431.117168 377.118612,399.73438 C378.897436,396.700266 380.470914,393.550346 381.82847,390.305796 L381.829948,390.305796 Z M472.337263,264.728817 L469.197359,264.728817 C467.105567,264.728817 466.058932,265.775452 466.058932,268.913879 C463.965662,321.749727 433.094365,370.934179 391.771502,400.747015 C389.154914,402.838806 387.584962,403.885441 386.538327,405.980189 C386.015009,407.025346 385.491692,407.548664 384.968375,408.595298 L381.829948,413.828473 L378.690043,418.012057 L377.120091,420.106805 L375.026821,422.723392 C372.410233,426.906976 370.841759,430.048359 377.120091,426.906976 L377.643408,426.385136 C378.927006,425.482978 380.338063,424.77745 381.829948,424.291866 C383.398422,423.245231 384.968375,422.721914 386.480673,421.675279 C438.803552,390.805461 471.756292,333.307061 475.418036,268.390561 C476.000486,265.787279 474.430533,264.739165 472.337263,264.739165 L472.337263,264.728817 L472.337263,264.728817 Z" id="Shape" fill="#231F20"></path>
                <path d="M404.839656,423.780375 C311.251567,510.102629 158.431035,490.697012 42.2841196,375.654385 C40.192328,373.037797 38.099058,374.60775 40.192328,377.224337 C158.954353,531.55569 328.982273,531.55569 406.455436,426.407311 C409.549513,422.73374 409.026196,420.118631 404.839656,423.780375 L404.839656,423.780375 Z" id="Path" fill="#EC1C24"></path>
                <path d="M111.35168,71.6897104 C109.647944,71.2286298 107.879806,71.051816 106.118505,71.1663929 C95.1317941,71.1663929 85.1902402,71.6897104 76.2953212,72.2130279 L76.2953212,177.371755 L100.363491,177.371755 L100.363491,142.315396 L111.35168,142.315396 C134.89801,140.222126 147.397144,124.002241 147.397144,105.176116 C147.442846,84.7711692 134.89801,72.7363454 111.35168,71.6897104 Z M111.35168,121.385654 C109.139451,122.028043 106.853044,122.379875 104.550031,122.432289 C103.503396,122.432289 101.933443,121.908971 100.363491,121.908971 L100.363491,91.0495007 L105.596666,91.0495007 C107.688457,91.0495007 109.781727,91.5728182 111.35168,91.5728182 C119.201442,93.6660882 122.339868,98.8977847 122.339868,106.222751 C122.339868,114.072513 118.153329,118.780893 111.35168,121.39748 L111.35168,121.385654 L111.35168,121.385654 Z M213.893819,69.5964404 L211.800549,69.5964404 C184.069157,71.1663929 161.57094,92.0961357 161.57094,126.094033 C161.57094,159.058599 177.267508,179.46506 210.232075,179.46506 C210.798263,179.467981 211.349668,179.284672 211.800549,178.941707 C240.04491,178.41839 261.496492,156.965329 261.496492,122.967432 C261.496492,86.3396434 241.613384,69.5964404 213.895297,69.5964404 L213.893819,69.5964404 Z M211.800549,156.988982 L211.253579,156.988982 C195.035172,156.988982 187.197236,143.907523 187.197236,124.024415 C187.197236,101.52472 199.23206,92.1079621 211.790201,92.1079621 C227.486769,92.1079621 236.381688,103.619468 236.381688,124.547733 C236.381688,148.07041 223.300229,156.442012 211.800549,156.988982 Z M303.879295,100.015378 C303.879295,94.2588857 308.530021,90.0723458 318.529228,90.0723458 C324.630164,90.2275671 330.654228,91.4678591 336.319066,93.7355682 L338.935654,72.2825079 C332.584881,70.8394615 326.08831,70.1370223 319.575863,70.1892379 C293.414424,70.1892379 278.241173,83.2706968 278.241173,103.153805 C278.241173,138.73348 320.099181,128.734273 320.099181,147.093255 C320.099181,154.4197 313.297532,158.081444 305.972565,158.081444 C297.903166,158.006061 289.918332,156.428946 282.426235,153.430719 L279.856953,176.32512 C287.18192,178.41839 295.553521,178.941707 305.437421,178.941707 C330.028908,178.941707 346.772111,163.82611 346.772111,143.895697 C346.772111,110.409291 303.879295,116.687623 303.879295,99.9444197 L303.879295,100.0139 L303.879295,100.015378 Z M355.155539,72.2825079 L355.155539,92.6889332 L380.271822,92.6889332 L380.271822,177.441235 L404.863309,177.441235 L404.863309,92.6194532 L429.454796,92.6194532 L429.454796,72.2130279 L355.155539,72.2825079 Z M104.550031,0.54070687 L86.2368752,50.2366501 L93.5618417,50.2366501 L97.7469032,38.726622 L118.676646,38.726622 L122.863186,50.2366501 L130.71147,50.2366501 L112.421967,0.54070687 L104.550031,0.54070687 Z M99.3168557,32.9819561 L106.119983,15.1344645 C106.6433,12.5178771 107.688457,9.90128968 108.211775,7.80801974 L108.735092,7.80801974 C108.803862,10.3258795 109.336068,12.8095062 110.305045,15.1344645 L117.072693,32.9819561 L99.3168557,32.9819561 L99.3168557,32.9819561 Z M157.907718,45.0153016 C145.874372,45.0153016 140.641197,37.6918134 140.641197,25.1321938 C140.641197,14.6688007 145.874372,5.77388172 157.3844,5.77388172 C160.955968,5.96606046 164.480231,6.6697303 167.85075,7.86715166 L169.419224,1.58734184 C165.669253,0.553100645 161.797691,0.0255896898 157.907718,0.0188676824 C141.164515,0.0188676824 133.350232,11.5288958 133.350232,26.7021462 C133.350232,40.3069226 140.153359,50.771794 155.849927,50.771794 C160.67889,50.7623846 165.465976,49.8757945 169.978021,48.1552065 L168.408068,42.4001925 C165.177932,44.1253003 161.569622,45.0203928 157.907718,45.0049535 L157.907718,45.0167799 L157.907718,45.0153016 Z M180.407413,50.2484765 L205.510391,50.2484765 L205.510391,45.0153016 L187.209062,45.0153016 L187.209062,27.2284203 L204.9989,27.2284203 L204.9989,21.9952455 L187.209062,21.9952455 L187.209062,6.29719921 L205.510391,6.29719921 L205.510391,0.54070687 L180.407413,0.54070687 L180.407413,50.2484765 Z M66.8770848,0.54070687 L56.4107351,32.4586386 C55.2070769,35.5433481 54.1596068,38.6867452 53.2723085,41.876875 C52.2256735,38.2136526 51.702356,34.5519085 50.6557211,31.9353211 L39.6704888,0.54070687 L31.8325529,0.54070687 L24.5075864,50.2366501 L31.3092354,50.2366501 L34.4491403,21.9819408 C35.4272262,17.6886372 35.9534083,13.3047768 36.0190928,8.90196025 L36.5424102,8.90196025 C37.1698296,12.6230207 38.0474658,16.2975358 39.1693458,19.9004972 L49.1108997,50.2499548 L56.4373445,50.2499548 L66.9022159,18.3320231 C68.1243854,15.3005134 69.0020863,12.1412861 69.5188033,8.91378663 L70.0406425,8.91378663 C70.0406425,12.0522132 71.0872775,16.2387531 71.6105949,21.4704497 L75.7971348,50.2484765 L82.5973055,50.2484765 L75.2146854,0.54070687 L66.8770848,0.54070687 Z M469.18701,0.54070687 L469.18701,13.0988482 C469.18701,21.9937672 469.18701,35.5985435 469.710328,41.876875 C467.988785,38.4526419 466.066612,35.1330169 463.953836,31.9353211 L445.117363,0.54070687 L436.222444,0.54070687 L436.222444,50.2366501 L442.500775,50.2366501 L442.500775,36.6451785 C442.500775,27.7502595 442.500775,13.6221657 441.978936,8.39046915 C443.404015,11.8615128 445.157277,15.1906399 447.210633,18.3320231 L466.570423,50.2484765 L475.987181,50.2484765 L475.987181,0.54070687 L469.18701,0.54070687 Z M403.269704,0.54070687 L384.968375,50.2366501 L392.294819,50.2366501 L396.479881,38.726622 L417.409624,38.726622 L421.594685,50.2366501 L429.444448,50.2366501 L411.131292,0.54070687 L403.271182,0.54070687 L403.269704,0.54070687 Z M398.038007,32.9819561 L404.839656,15.1344645 C405.362973,12.5178771 406.409608,9.90128968 406.932926,7.80801974 L407.456243,7.80801974 C407.478599,10.3945326 408.202035,12.9265582 409.549513,15.1344645 L415.827845,32.9243024 L398.038007,32.9819561 L398.038007,32.9819561 Z M350.958651,13.0988482 C350.958651,21.9937672 351.481969,35.5985435 351.481969,41.876875 C350.435334,38.7369701 347.818746,35.075226 346.248794,31.9353211 L327.412321,0.54070687 L317.995563,0.54070687 L317.995563,50.2366501 L324.795734,50.2366501 L324.795734,36.6451785 C324.795734,27.7502595 324.795734,13.6221657 324.273894,8.39046915 C325.700452,11.8615128 327.452235,15.1906399 329.507069,18.3320231 L348.865381,50.2484765 L357.7603,50.2484765 L357.7603,0.54070687 L350.958651,0.54070687 L350.958651,13.0988482 Z M371.888394,50.2366501 L378.166725,50.2366501 L378.166725,0.54070687 L371.888394,0.54070687 L371.888394,50.2366501 L371.888394,50.2366501 Z M286.612775,0.0188676824 L286.089457,0.0188676824 C273.531316,0.0188676824 263.577936,9.9589433 263.577936,25.5978576 C263.577936,40.7149328 270.381063,50.702314 285.554314,50.702314 L286.077631,50.702314 C298.635772,50.702314 308.577326,40.76076 308.577326,25.1218457 C308.577326,8.39046915 300.216073,0.0188676824 286.612775,0.0188676824 Z M286.089457,45.0034752 C275.623108,45.0034752 270.391411,37.1566696 270.391411,25.1218457 C270.391411,12.5637043 277.717856,5.76205534 286.089457,5.76205534 C296.031011,5.76205534 301.786025,12.5637043 301.786025,25.6451632 C301.774199,38.2136526 293.936263,45.0049535 286.089457,45.0049535 L286.089457,45.0034752 Z M236.905005,0.54070687 C235.393487,0.114852956 233.822589,-0.0614111298 232.25428,0.0188676824 C226.497788,0.0188676824 220.742774,0.54070687 217.079551,0.54070687 L217.079551,50.2366501 L229.637692,50.2366501 C232.091667,50.3416092 234.548598,50.1671701 236.962659,49.7133326 C249.5208,47.0967452 256.845767,39.2499395 256.845767,25.1218457 C256.786635,9.9589433 249.463147,2.11065933 236.903527,0.54070687 L236.905005,0.54070687 Z M236.905005,43.9701449 C234.692694,44.6121579 232.406336,44.9639817 230.103356,45.0167799 C227.996519,45.1018243 225.887248,44.9260518 223.823547,44.4934624 L223.823547,5.77388172 L231.149991,5.77388172 C233.082127,5.68666214 235.018697,5.8625796 236.905005,6.29719921 C245.799924,7.86715166 249.986464,14.6688007 249.986464,25.1336721 C249.986464,36.062729 244.753289,42.4001925 236.903527,43.9701449 L236.905005,43.9701449 Z" id="Shape" fill="#231F20"></path>
            </g>
        </g>
    </g>
</svg>