<?xml version="1.0" encoding="UTF-8"?>
<svg width="980px" height="680px" viewBox="0 0 980 680" version="1.1" xmlns="http://www.w3.org/2000/svg" xmlns:xlink="http://www.w3.org/1999/xlink">
    <title>MT Malta Post</title>
    <defs>
        <rect id="path-1" x="0" y="0" width="900" height="600" rx="80"></rect>
        <filter x="-6.7%" y="-10.0%" width="113.3%" height="120.0%" filterUnits="objectBoundingBox" id="filter-2">
            <feMorphology radius="2.5" operator="dilate" in="SourceAlpha" result="shadowSpreadOuter1"></feMorphology>
            <feOffset dx="0" dy="0" in="shadowSpreadOuter1" result="shadowOffsetOuter1"></feOffset>
            <feGaussianBlur stdDeviation="17.5" in="shadowOffsetOuter1" result="shadowBlurOuter1"></feGaussianBlur>
            <feColorMatrix values="0 0 0 0 0   0 0 0 0 0   0 0 0 0 0  0 0 0 0.5 0" type="matrix" in="shadowBlurOuter1"></feColorMatrix>
        </filter>
    </defs>
    <g id="MT-Malta-Post" stroke="none" stroke-width="1" fill="none" fill-rule="evenodd">
        <g transform="translate(40, 40)">
            <g id="Rectangle">
                <use fill="black" fill-opacity="1" filter="url(#filter-2)" xlink:href="#path-1"></use>
                <use fill="#FB2E23" fill-rule="evenodd" xlink:href="#path-1"></use>
            </g>
            <g id="Logo" transform="translate(140.4165, 50.0119)" fill-rule="nonzero">
                <path d="M0.080633742,336.927308 C-0.461514708,332.13833 1.85767588,327.680665 3.22810669,323.057343 C18.9805311,269.836437 34.943791,216.66071 50.5004396,163.424744 C54.7924482,148.696378 63.4517637,139.66057 78.4813235,135.850471 C104.278554,129.299511 130.316739,125.850844 156.927192,127.401991 C164.006724,127.881057 170.955525,129.545715 177.483654,132.326507 C190.781351,137.823289 196.835342,148.651199 196.052239,162.144671 C193.853526,199.793869 183.718362,235.153996 159.171085,264.776385 C145.918567,280.769764 127.545758,287.365904 107.079654,287.953231 C94.6493504,288.48454 82.2082998,287.190711 70.1533209,284.113013 C65.6354172,298.856439 61.373528,313.133015 57.0212807,327.379471 C53.5123754,338.885066 52.5033769,339.65311 40.4556336,339.668169 C29.8335399,339.668169 19.2064263,339.668169 8.57429279,339.668169 C5.50211824,339.668169 2.38476466,340.255497 0.080633742,336.927308 Z M105.347791,165.93971 L80.333664,249.822123 C108.118772,255.288787 115.513075,249.822123 123.464585,231.313778 C129.285941,217.523404 133.916125,203.260018 137.30443,188.679826 C138.357498,183.894792 138.992397,179.027234 139.20195,174.132176 C139.608561,167.295082 136.295432,163.228968 129.232442,163.033192 C121.35623,162.822357 113.434839,162.491044 105.347791,165.93971 Z" id="Shape" fill="#FFFFFF"></path>
                <path d="M302.840424,127.221275 C316.770627,126.814664 330.550233,127.612827 343.591916,133.425863 C356.347464,139.118422 363.606229,148.982512 363.487228,162.641641 C363.139379,198.784871 352.868678,231.916165 330.459875,260.529555 C318.50249,275.769951 301.15374,282.968477 282.449618,285.935234 C262.465424,289.097767 242.330633,289.609796 222.512095,284.113013 C205.253703,279.339095 194.335435,267.35159 195.07336,250.063078 C196.579328,213.121685 206.277761,178.574781 232.165349,150.669196 C247.119611,134.52522 267.269462,129.706122 288.157237,127.356812 C293.04531,127.038788 297.947313,126.993539 302.840424,127.221275 L302.840424,127.221275 Z M266.591776,251.825061 C274.995077,252.547925 283.157423,249.761885 287.404253,241.599539 C298.232162,220.997898 304.481929,198.784871 307.584223,175.788741 C308.683579,167.671574 304.572287,163.740997 296.47018,162.867536 C282.494797,161.466986 274.317391,165.563218 268.549534,178.770557 C260.464983,196.897834 254.682256,215.966162 251.336321,235.530488 C249.363503,247.728828 253.294079,251.85518 266.576716,251.825061 L266.591776,251.825061 Z" id="Shape" fill="#FFFFFF"></path>
                <path d="M506.176212,134.841473 C503.721484,145.624203 498.510835,154.23834 493.827275,162.972954 C492.230949,165.984889 487.999179,164.960831 484.716169,164.328325 C474.573582,162.238217 464.2269,161.30358 453.873946,161.542284 C448.347044,161.73806 443.015918,162.6567 438.66367,166.406561 C435.238804,169.250757 433.50135,173.645492 434.055408,178.062752 C434.582497,182.85173 438.573312,184.704071 442.579187,185.788368 C450.184325,187.866603 458.030418,189.146676 465.545198,191.526105 C479.400102,195.893412 485.755287,204.537668 484.445095,219.130497 C481.086786,256.779695 458.964118,281.402271 418.182507,286.899054 C396.722464,289.745333 375.262421,287.561679 354.208989,281.974538 C347.341776,280.152317 345.007525,277.155441 348.787505,270.348466 C352.070515,264.414953 354.721019,258.120007 357.46188,251.900359 C359.284101,247.743888 361.979784,246.343338 366.497688,247.382455 C376.77577,250.05459 387.266671,251.828268 397.85194,252.683462 C406.074525,253.195492 414.312169,253.27079 420.742652,246.780068 C428.995356,238.437006 426.871941,229.913228 415.66754,226.825993 C408.860565,224.958593 401.827695,223.814058 395.050839,221.886419 C381.918799,218.091379 375.247361,208.965214 375.172063,195.456682 C375.021466,161.768179 397.264612,135.217965 431.931994,128.802542 C453.331798,124.826786 474.776781,126.332754 495.95069,131.21209 C499.420308,132.242271 502.833504,133.45373 506.176212,134.841473 Z" id="Path" fill="#FFFFFF"></path>
                <path d="M593.552471,91.0780453 L582.257711,130.233211 L618.190106,130.233211 C620.991206,137.657633 617.256406,143.018879 615.614901,148.455423 C609.319955,169.282959 609.139238,169.23778 587.49848,169.222721 L570.601519,169.222721 C563.643948,191.616463 555.978571,213.678893 550.557087,236.419009 C548.749925,243.948849 552.394367,247.924604 560.872967,248.346275 C568.402806,248.737827 576.053123,248.421573 584.878095,248.421573 C585.158736,258.083159 584.048003,267.734872 581.580026,277.080143 C580.977638,279.444512 578.56809,280.619167 575.947706,281.296853 C555.707497,286.627979 535.286572,289.007409 514.624692,284.308789 C497.547016,280.393272 489.324431,268.556364 492.035173,251.177495 C495.679616,228.241603 504.233513,206.615904 510.573638,184.402877 C518.404671,156.934022 527.139285,129.706122 534.970319,102.237268 C537.289509,94.1652795 541.189966,90.4907178 550.029998,90.8672098 C563.764425,91.514776 577.574151,91.0780453 593.552471,91.0780453 Z" id="Path" fill="#FFFFFF"></path>
                <path d="M272.49517,333.267806 C303.292214,332.093151 332.402574,359.396349 332.312216,392.557763 C332.786376,414.084143 321.640284,434.200299 303.137358,445.211731 C284.634432,456.223162 261.637608,456.426084 242.943251,445.742877 C224.248894,435.059671 212.749558,415.143336 212.843133,393.61194 C212.693184,359.727662 238.821728,333.343104 272.49517,333.267806 Z M273.278274,392.964374 C287.389193,399.214141 299.451996,404.665745 313.126185,409.183648 C309.978712,401.653809 302.358514,399.680991 300.521233,393.009553 C302.960901,386.789906 309.963652,384.139402 313.276781,376.760159 C299.406817,381.232884 287.283775,386.910383 273.278274,392.949314 L273.278274,392.964374 Z M272.675886,392.301748 L289.030698,352.243001 C281.500858,355.556131 278.488923,362.348046 271.877723,365.299743 L257.887281,352.755031 C260.628143,366.444279 266.335762,378.416724 272.675886,392.286688 L272.675886,392.301748 Z M245.131733,393.114971 C241.924022,398.852709 235.177285,401.729107 232.029812,409.786036 L271.862664,393.039672 L230.975635,375.721041 C234.740555,383.521955 241.487291,387.015801 245.131733,393.039672 L245.131733,393.114971 Z M256.245776,432.616509 C264.634018,430.041304 266.621895,422.556644 273.127677,420.689243 L288.322893,434.800163 L289.467429,434.077298 L272.404812,393.250508 L256.245776,432.616509 Z" id="Shape" fill="#FFFFFF"></path>
                <path d="M193.64269,109.360496 L164.035361,109.360496 C162.920945,96.0778588 167.318371,83.5783251 167.935818,70.7324187 C168.161713,65.8681424 169.26107,61.0339853 169.878516,56.1847686 C171.384484,44.5888157 168.071355,41.3058056 156.324805,42.6310574 C154.728479,42.8117735 153.162273,43.2033252 151.159335,43.5798172 L142.861452,109.270138 L112.877631,109.270138 C114.835389,92.4785955 116.67267,76.1388436 118.675607,59.7388529 C120.783962,42.5406993 118.856323,40.6130604 100.603992,43.5346381 L92.26093,109.345436 L62.6234813,109.345436 C61.8855571,101.529463 63.8884944,94.1201005 64.656538,86.7559174 C66.3884011,70.1902703 68.7979498,53.820399 70.6804097,37.34511 C71.2225582,32.7217885 73.1803164,29.5441962 77.6982202,28.474959 C97.2758031,23.8365778 117.034102,19.0777192 136.988177,26.7430959 C140.000113,27.8725718 142.244005,26.8635733 144.81921,26.2009474 C157.589818,22.8727583 170.511023,21.5173872 183.582824,24.0474133 C196.654626,26.5774394 202.332125,33.8060854 201.353246,47.013424 C200.931575,52.7059828 200.103293,58.3834818 199.380428,64.0459212 C197.573266,78.8194664 195.630568,93.6532504 193.64269,109.360496 Z" id="Path" fill="#201C1D"></path>
                <path d="M512.907889,94.3459957 C513.615694,99.1048543 515.001184,103.291445 513.76629,108.441855 C504.043812,112.493961 493.166869,112.810401 483.225261,109.330376 C479.785049,107.973652 475.958041,107.973652 472.517829,109.330376 C462.894694,112.989878 452.714351,113.110356 442.684605,112.026059 C428.152014,110.520091 420.561936,102.839655 419.628236,90.0841065 C418.589118,75.882829 425.832824,63.9856825 438.874506,60.4918369 C448.015731,58.0371092 457.578627,57.1335284 466.960807,55.5522621 C469.370356,55.1456508 471.779905,54.7992782 474.099095,54.4378459 C476.764659,45.9592465 475.047855,43.1581462 466.82527,42.3901025 C455.846764,41.3961637 445.470645,45.1309641 434.582497,47.013424 C432.684978,41.3961637 432.474142,36.0650373 432.188008,29.6345543 C452.940246,22.932997 473.707544,18.9120627 495.00193,26.1407087 C503.480529,29.0171074 506.853898,36.4264696 506.161152,45.0857851 C505.182273,57.2841252 503.631126,69.4222266 502.275755,81.5904474 C500.860145,93.4725343 500.860145,93.5026536 512.907889,94.3459957 Z M471.237756,92.3731777 L472.608187,71.0637317 C467.005986,71.9522527 462.201949,72.4793415 457.548508,73.5184594 C451.118025,75.0244273 449.160267,79.9037633 449.386162,85.7619785 C449.627117,91.9063276 453.904066,93.8791456 459.32555,93.9845634 C463.331425,94.0598618 467.397538,94.4062344 471.267876,92.358118 L471.237756,92.3731777 Z" id="Shape" fill="#201C1D"></path>
                <path d="M220.4188,46.0345449 C220.087487,45.5526352 219.831472,45.3417996 219.801353,45.1159045 C217.301446,28.8062719 217.301446,28.8062719 233.686377,25.2672473 C247.390685,22.2553115 261.185351,21.1258355 274.995077,24.1227117 C287.494611,26.8334539 292.840797,33.309116 292.102873,46.0496046 C291.410127,58.2479447 289.452369,70.3860461 288.187356,82.5542669 C287.07294,93.2165197 287.600028,93.7586682 297.915909,94.1502198 C303.171737,107.402738 301.12362,110.715867 287.118119,111.273075 C280.326203,111.52909 273.353572,112.041119 267.148984,108.532213 C264.51354,107.026246 262.63108,107.990065 260.29683,108.848467 C250.387561,112.553148 240.026502,113.004938 229.680502,112.026059 C214.620823,110.610449 206.895208,103.472161 205.931388,90.9425082 C204.741674,75.3858596 211.774544,63.8350857 225.644508,60.2358223 C234.574898,57.9316914 243.85166,56.9979913 252.962766,55.4468444 L260.733561,54.1667716 C263.248527,46.2754998 260.251651,42.8870719 252.902528,42.3298638 C244.062496,41.6672379 235.614016,43.8358317 227.105297,45.6128739 C225.072241,46.0496046 223.114482,47.5254531 220.4188,46.0345449 Z M258.91134,71.0336123 C253.429616,71.8769543 248.911713,72.4341625 244.423928,73.2775045 C237.044686,74.662995 234.95139,80.1748376 235.478479,86.5450819 C235.975448,92.5689535 240.884904,94.0749214 246.155791,94.0749214 C249.860472,94.0749214 253.685631,94.3008166 257.119238,92.4334164 L258.91134,71.0336123 Z" id="Shape" fill="#201C1D"></path>
                <path d="M411.300233,107.29732 C399.555228,111.629384 386.803577,112.450889 374.599795,109.661689 C363.696587,107.086484 358.666655,100.866837 359.540116,89.541958 C361.046084,70.295688 363.681528,51.1247164 365.91036,31.9386852 C367.100075,21.713163 368.470506,11.5027005 369.810817,0.795268655 C379.945981,-0.469744396 389.3884,0.0874637338 399.086833,0.358537959 C400.758458,8.59618247 397.219433,16.2163801 398.032656,24.7702779 L417.790955,24.7702779 C418.558999,32.1495207 417.218687,38.4745859 416.013913,45.0556657 C409.297296,47.0586031 402.460202,45.0556657 394.689407,46.5616337 C393.183439,58.187706 391.436516,70.1752106 390.171503,82.1928346 C389.614295,87.1926481 392.67141,89.8280919 397.550746,89.9033903 C401.6018,89.9033903 405.652854,89.5720774 409.959922,89.3763015 C412.008038,95.1893377 411.285174,100.881896 411.300233,107.29732 Z" id="Path" fill="#201C1D"></path>
                <path d="M317.839864,0.569373467 L347.959223,0.569373467 C346.453255,13.4755185 345.158122,25.8093958 343.652154,38.1131536 C342.146186,50.8084632 340.323965,63.488713 338.742699,76.1689629 C337.071075,89.496779 337.116254,89.5118387 349.901921,90.0690468 C350.157936,90.4907178 350.594666,90.9274485 350.654905,91.3942986 C352.77832,108.999064 352.537365,109.465914 341.167307,110.745986 C320.083756,113.095296 308.66852,107.28226 307.584223,93.0809826 C306.560165,79.6778682 309.782936,66.5458279 311.258784,53.3083699 C313.246662,35.7939631 315.626091,18.3096755 317.839864,0.569373467 Z" id="Path" fill="#201C1D"></path>
                <path d="M576.414556,302.892433 C574.275157,302.538949 572.106067,302.397706 569.938894,302.470762 C537.510384,302.470762 505.086895,302.470762 472.668426,302.470762 C449.767674,302.470762 426.876961,302.470762 403.996289,302.470762 C400.457264,302.470762 396.315852,302.169568 396.165256,307.25974 C396.014659,312.003539 399.960295,311.657166 403.198126,312.018598 C403.889722,312.216305 404.54189,312.532199 405.125765,312.952299 C407.143762,315.346788 406.390778,317.876814 406.014286,320.211064 C402.189127,344.607744 395.156257,368.010486 382.686843,389.485588 C358.86243,430.462975 325.023331,456.230086 276.034195,458.579396 C239.137981,460.371498 207.316879,430.734049 207.015685,394.169148 C206.714492,356.51995 237.31576,325.722906 274.528227,327.484889 C301.951903,328.795081 322.086694,342.544568 332.748947,367.980366 C343.140125,392.798717 338.652341,415.900265 321.363829,436.532026 C319.315713,438.956634 316.16824,440.718617 314.707451,445.567833 C325.038391,440.688497 332.553171,434.664626 340.052891,428.490157 C344.3,425.05233 347.25253,420.273054 348.426073,414.936446 C355.338465,385.555012 349.404952,359.381289 328.938848,336.80683 C322.628842,329.834199 314.918287,324.593431 307.523984,318.961111 C326.303404,325.180758 339.074012,338.2375 348.185118,355.224818 C357.296224,372.212136 358.87749,390.359049 355.910733,409.906513 C363.545991,401.714048 363.817065,400.539393 362.235798,384.305058 C358.718663,345.345451 330.366487,313.15449 292.163111,304.744773 C254.513913,296.160756 214.801539,312.711344 195.269135,346.264309 C175.887328,379.53114 178.131221,412.707613 198.281071,445.055804 C198.868879,446.046749 199.507248,447.006816 200.193651,447.932203 C198.818839,447.703938 197.490927,447.251125 196.263074,446.591892 C157.800654,426.562518 132.229318,395.298624 116.22088,355.435653 C114.579374,351.324361 118.434652,349.938871 118.133459,346.866696 L92.5320042,346.866696 C94.3112114,348.713096 95.9663675,350.675135 97.4866386,352.739971 C98.5016346,354.687463 99.3870581,356.699789 100.137142,358.763843 C119.202696,401.488152 145.436657,438.790978 182.965378,467.31401 C222.963885,497.704443 267.118865,507.779368 316.1833,493.834105 C349.585668,484.301328 379.976101,468.789859 408.996102,450.266453 C465.289183,414.123223 514.338558,369.561633 560.782609,321.82245 C565.164975,317.304546 568.508224,310.949361 576.489854,311.581868 C578.477732,311.747524 579.772864,309.910243 579.923461,307.71153 C580.122552,306.603732 579.860473,305.462683 579.197951,304.552782 C578.53543,303.642882 577.529971,303.043106 576.414556,302.892433 Z M214.635883,441.230646 C195.208897,420.147095 191.29338,388.717544 202.497781,363.221508 C205.329001,356.821144 208.401176,350.481019 214.545525,345.75228 C194.13966,377.66374 193.461974,409.09329 215.870777,440.08611 L214.635883,441.230646 Z M312.689454,478.367815 L310.53592,478.066621 L311.95153,477.268458 C391.481695,448.037621 438.558253,387.452531 471.433532,311.747524 L487.713045,311.747524 C452.985425,393.702298 400.095832,454.076552 312.704514,478.428053 L312.689454,478.367815 Z" id="Shape" fill="#201C1D"></path>
            </g>
        </g>
    </g>
</svg>