<?xml version="1.0" encoding="UTF-8"?>
<svg width="980px" height="680px" viewBox="0 0 980 680" version="1.1" xmlns="http://www.w3.org/2000/svg" xmlns:xlink="http://www.w3.org/1999/xlink">
    <title>MX Correos</title>
    <defs>
        <linearGradient x1="50%" y1="0%" x2="50%" y2="100%" id="linearGradient-1">
            <stop stop-color="#FFFFFF" offset="0%"></stop>
            <stop stop-color="#EDEDED" offset="100%"></stop>
        </linearGradient>
        <rect id="path-2" x="0" y="0" width="900" height="600" rx="80"></rect>
        <filter x="-6.7%" y="-10.0%" width="113.3%" height="120.0%" filterUnits="objectBoundingBox" id="filter-3">
            <feMorphology radius="2.5" operator="dilate" in="SourceAlpha" result="shadowSpreadOuter1"></feMorphology>
            <feOffset dx="0" dy="0" in="shadowSpreadOuter1" result="shadowOffsetOuter1"></feOffset>
            <feGaussianBlur stdDeviation="17.5" in="shadowOffsetOuter1" result="shadowBlurOuter1"></feGaussianBlur>
            <feColorMatrix values="0 0 0 0 0   0 0 0 0 0   0 0 0 0 0  0 0 0 0.5 0" type="matrix" in="shadowBlurOuter1"></feColorMatrix>
        </filter>
    </defs>
    <g id="MX-Correos" stroke="none" stroke-width="1" fill="none" fill-rule="evenodd">
        <g transform="translate(40, 40)">
            <g id="Rectangle">
                <use fill="black" fill-opacity="1" filter="url(#filter-3)" xlink:href="#path-2"></use>
                <use fill="url(#linearGradient-1)" fill-rule="evenodd" xlink:href="#path-2"></use>
            </g>
            <g id="Logo" transform="translate(50.3691, 59)">
                <polygon id="Fill-1" fill="#75B61C" points="82.6997715 443.421871 228.403922 325.169403 195.575031 295.544989 46.9480092 416.169255 46.9480092 95.4084342 3.2506016 55.9690962 3.2506016 482.74711 800 482.74711 800 55.9690962 756.302592 95.4084342 756.302592 419.145534 603.616567 295.231824 581.226501 315.441875 570.787676 324.865949 716.870537 443.421871"></polygon>
                <g id="Group-9" fill="#E30079">
                    <path d="M504.756038,214.996101 L434.459047,157.946707 C480.280634,120.755358 520.822118,100.851189 576.087201,82.3793238 C609.137007,71.3311626 640.315107,65.2426572 674.967151,60.8510677 C618.240633,112.040153 561.009167,164.224568 504.756038,214.996101 L504.756038,214.996101 Z M445.089656,93.0463466 L399.780299,129.81286 L354.480653,93.0463466 L399.780299,56.282261 L445.089656,93.0463466 Z M402.217643,312.330735 C361.744133,312.472879 323.61329,298.448439 291.835564,273.696285 L376.140002,205.278283 L341.470964,177.142007 L294.586073,215.187884 C237.585233,163.741469 180.581965,112.297482 123.590834,60.8510677 C210.075287,71.8142617 295.222113,101.259032 363.356082,156.526542 C412.098113,196.050847 460.803729,235.604284 509.526338,275.14801 C477.721908,299.310249 444.218135,312.188846 402.217643,312.330735 L402.217643,312.330735 Z M254.768024,303.777095 C295.93341,338.645198 347.758535,357.488491 401.620446,357.488491 C469.936487,357.488491 534.353749,327.094517 577.604472,274.123548 L539.094917,242.867764 C625.664337,164.727088 711.978855,86.3048076 798.557986,8.17384285 C680.883295,5.5665642 598.686043,17.9790556 484.623671,68.8549762 C456.346593,45.9065543 428.069515,22.9484219 399.780299,0 C371.34057,23.0819417 342.903268,46.1638835 314.453828,69.2531081 C206.081829,18.3504836 116.638091,5.58598527 0,8.17384285 C86.7393541,86.4553209 173.299063,165.003839 260.249621,243.057119 L224.184694,272.322244 C233.336874,283.768537 243.576633,294.30204 254.768024,303.777095 L254.768024,303.777095 Z" id="Fill-7"></path>
                </g>
            </g>
        </g>
    </g>
</svg>