<?xml version="1.0" encoding="UTF-8"?>
<svg width="980px" height="680px" viewBox="0 0 980 680" version="1.1" xmlns="http://www.w3.org/2000/svg" xmlns:xlink="http://www.w3.org/1999/xlink">
    <title>MX Correos text</title>
    <defs>
        <linearGradient x1="50%" y1="0%" x2="50%" y2="100%" id="linearGradient-1">
            <stop stop-color="#FFFFFF" offset="0%"></stop>
            <stop stop-color="#EDEDED" offset="100%"></stop>
        </linearGradient>
        <rect id="path-2" x="0" y="0" width="900" height="600" rx="80"></rect>
        <filter x="-6.7%" y="-10.0%" width="113.3%" height="120.0%" filterUnits="objectBoundingBox" id="filter-3">
            <feMorphology radius="2.5" operator="dilate" in="SourceAlpha" result="shadowSpreadOuter1"></feMorphology>
            <feOffset dx="0" dy="0" in="shadowSpreadOuter1" result="shadowOffsetOuter1"></feOffset>
            <feGaussianBlur stdDeviation="17.5" in="shadowOffsetOuter1" result="shadowBlurOuter1"></feGaussianBlur>
            <feColorMatrix values="0 0 0 0 0   0 0 0 0 0   0 0 0 0 0  0 0 0 0.5 0" type="matrix" in="shadowBlurOuter1"></feColorMatrix>
        </filter>
        <polygon id="path-4" points="0 0 800 0 800 115.738347 0 115.738347"></polygon>
    </defs>
    <g id="MX-Correos-text" stroke="none" stroke-width="1" fill="none" fill-rule="evenodd">
        <g transform="translate(40, 40)">
            <g id="Rectangle">
                <use fill="black" fill-opacity="1" filter="url(#filter-3)" xlink:href="#path-2"></use>
                <use fill="url(#linearGradient-1)" fill-rule="evenodd" xlink:href="#path-2"></use>
            </g>
            <g id="Logo" transform="translate(50, 59)">
                <polygon id="Fill-1" fill="#75B61C" points="229.727917 237.844173 307.881219 174.415501 290.272343 158.525454 210.551262 223.226319 210.551262 51.1755093 187.112694 30.0208994 187.112694 258.937582 614.47592 258.937582 614.47592 30.0208994 591.037352 51.1755093 591.037352 224.822746 509.139088 158.357477 497.129426 169.197815 491.530213 174.252733 569.886648 237.844173"></polygon>
                <g id="Group-4" transform="translate(0, 307.9411)">
                    <mask id="mask-5" fill="white">
                        <use xlink:href="#path-4"></use>
                    </mask>
                    <g id="Clip-3"></g>
                    <path d="M784.115161,34.2072881 C783.774,33.7801853 782.578633,32.9806697 780.529061,31.8113456 C778.479488,30.6368129 775.915569,29.4101945 772.843814,28.1340947 C769.770758,26.8566927 766.408625,25.7381521 762.766532,24.7771708 C759.125741,23.8148874 755.47844,23.337001 751.836347,23.337001 C741.816359,23.337001 736.805714,26.4803735 736.805714,32.7671183 C736.805714,34.690383 737.350009,36.2868099 738.428184,37.5642119 C739.511566,38.8455203 741.104087,39.9901037 743.209651,41.0031707 C745.320425,42.0149356 747.965077,42.9459676 751.154024,43.8001732 C754.339065,44.6543788 758.042359,45.6114536 762.253488,46.6792106 C768.062347,48.1688619 773.300867,49.7926338 777.965142,51.5518285 C782.634625,53.3123254 786.591837,55.4934144 789.838079,58.1081169 C793.083018,60.7176108 795.585736,63.8870261 797.35014,67.6202692 C799.114543,71.3483036 800,75.8250702 800,81.0479644 C800,87.4427871 798.718692,92.8492835 796.154773,97.2739643 C793.596062,101.694739 790.209189,105.265214 785.996758,107.981484 C781.78042,110.702962 776.94296,112.671801 771.475263,113.897118 C766.012774,115.122434 760.375798,115.738347 754.568242,115.738347 C750.126633,115.738347 745.574343,115.41802 740.904859,114.777366 C736.235375,114.136712 731.683085,113.20568 727.242778,111.979062 C722.802471,110.753745 718.504098,109.288835 714.348961,107.58433 C710.192522,105.881127 706.347294,103.907079 702.817186,101.668696 L715.117225,78.8108833 C715.569069,79.3395532 717.049605,80.3565267 719.557532,81.84748 C722.06025,83.3371312 725.163256,84.8280846 728.865248,86.3229444 C732.563333,87.8138978 736.69373,89.1459897 741.24602,90.3218246 C745.80352,91.4911487 750.411803,92.0758107 755.081286,92.0758107 C764.98929,92.0758107 769.938734,89.2527654 769.938734,83.6066748 C769.938734,81.4711608 769.201721,79.7158725 767.721185,78.3277884 C766.240649,76.9436107 764.191076,75.6922516 761.571165,74.573711 C758.952556,73.4538683 755.84955,72.4173628 752.26345,71.4550793 C748.677349,70.494098 744.776129,69.4315496 740.565,68.2557148 C734.984016,66.6592879 730.147858,64.9300424 726.047411,63.0627698 C721.948266,61.1954972 718.560091,59.0391489 715.88549,56.5872143 C713.209586,54.1352796 711.216006,51.3135364 709.908655,48.1141719 C708.596095,44.9187137 707.945024,41.1906793 707.945024,36.9287663 C707.945024,30.95714 709.140391,25.68216 711.531124,21.0986178 C713.921858,16.5163777 717.166798,12.6555247 721.265943,9.51215225 C725.36639,6.36357126 730.116607,3.99367159 735.524405,2.39594252 C740.93611,0.799515603 746.652517,0 752.690552,0 C756.902984,0 761.058121,0.371110663 765.157266,1.1198427 C769.257714,1.86206403 773.183674,2.82304532 776.94296,3.99367159 C780.702246,5.16820428 784.201103,6.50029624 787.447345,7.9912496 C790.692284,9.48220296 793.683306,10.9770628 796.413899,12.466714 L784.115161,34.2072881 Z M603.076963,57.8698248 C603.076963,62.2385135 603.757984,66.4756857 605.126536,70.576133 C606.495088,74.6804867 608.514711,78.3277884 611.189312,81.5271529 C613.865215,84.7265175 617.196096,87.2800193 621.179351,89.2019819 C625.167814,91.120038 629.720104,92.0758107 634.841432,92.0758107 C640.198447,92.0758107 644.862722,91.0640459 648.849882,89.039214 C652.833137,87.0143822 656.139277,84.374939 658.75398,81.1247908 C661.372589,77.8746427 663.33622,74.2026004 664.64878,70.0969445 C665.956131,65.9925908 666.612411,61.8114107 666.612411,57.5494977 C666.612411,53.1795069 665.930088,48.9423346 664.561536,44.8379809 C663.194286,40.7375336 661.143411,37.1110663 658.412818,33.9676938 C655.680923,30.8243214 652.350042,28.3216032 648.42278,26.4556327 C644.495517,24.5883601 639.969269,23.6573281 634.841432,23.6573281 C629.490927,23.6573281 624.851393,24.6443523 620.925433,26.613192 C616.99817,28.5859382 613.69203,31.1706914 611.016127,34.3700559 C608.341526,37.5642119 606.351852,41.2167221 605.040594,45.3158673 C603.733243,49.420221 603.076963,53.6066097 603.076963,57.8698248 L603.076963,57.8698248 Z M634.673455,115.41802 C625.680858,115.41802 617.481265,113.764299 610.081189,110.463367 C602.67981,107.157227 596.357907,102.813279 591.123293,97.4315236 C585.884773,92.05107 581.815578,85.8958416 578.910497,78.9684426 C576.006719,72.0397414 574.556132,64.898791 574.556132,57.5494977 C574.556132,50.086918 576.062711,42.895184 579.078474,35.9664828 C582.099445,29.0390838 586.311876,22.9398475 591.718373,17.6609611 C597.130078,12.3859811 603.534015,8.18006029 610.935394,5.03538573 C618.335471,1.88810688 626.419173,0.315118528 635.187802,0.315118528 C644.180399,0.315118528 652.379991,1.96883973 659.78137,5.27497998 C667.181447,8.57591166 673.499443,12.9459025 678.737963,18.3823482 C683.977785,23.8148874 688.01573,30.0000651 690.864818,36.9287663 C693.707396,43.8509567 695.13194,50.8851315 695.13194,58.0273841 C695.13194,65.4886616 693.626663,72.6816977 690.60439,79.6090968 C687.588627,86.5364958 683.407447,92.6357321 678.056943,97.9107121 C672.705136,103.189598 666.327241,107.421562 658.925863,110.620927 C651.525786,113.820291 643.443386,115.41802 634.673455,115.41802 L634.673455,115.41802 Z M567.038862,91.4403651 L567.038862,114.457039 L481.814926,114.457039 L481.814926,0.957074867 L565.502334,0.957074867 L565.502334,23.9776552 L509.825318,23.9776552 L509.825318,46.0385564 L557.649112,46.0385564 L557.649112,67.2999421 L509.825318,67.2999421 L509.825318,91.4403651 L567.038862,91.4403651 Z M395.395623,54.9907873 L421.015281,54.9907873 C424.316212,54.9907873 427.165301,53.5258768 429.556034,50.5960558 C431.946768,47.6610262 433.142135,43.9069489 433.142135,39.3247088 C433.142135,34.6343909 431.773583,30.9063564 429.041688,28.1340947 C426.311095,25.3618329 423.350022,23.9776552 420.161075,23.9776552 L395.395623,23.9776552 L395.395623,54.9907873 Z M367.38393,114.457039 L367.38393,0.957074867 L422.037463,0.957074867 C427.73043,0.957074867 432.9989,2.07561543 437.83636,4.31399868 C442.67382,6.55238194 446.860208,9.48220296 450.390317,13.1086703 C453.920426,16.7299291 456.682271,20.8342828 458.675851,25.417825 C460.665525,30.0000651 461.661664,34.6343909 461.661664,39.3247088 C461.661664,42.8391919 461.208519,46.226065 460.293112,49.4762131 C459.382915,52.7263612 458.075563,55.7890008 456.367152,58.6680383 C454.657439,61.5418671 452.583126,64.1305268 450.136399,66.4196936 C447.684465,68.7088604 444.927829,70.6568659 441.849563,72.2545949 L468.492705,114.457039 L436.896213,114.457039 L413.671196,77.8485999 L395.395623,77.8485999 L395.395623,114.457039 L367.38393,114.457039 Z M280.964627,54.9907873 L306.584284,54.9907873 C309.886518,54.9907873 312.734304,53.5258768 315.125038,50.5960558 C317.515772,47.6610262 318.711139,43.9069489 318.711139,39.3247088 C318.711139,34.6343909 317.342587,30.9063564 314.610692,28.1340947 C311.880099,25.3618329 308.919026,23.9776552 305.730079,23.9776552 L280.964627,23.9776552 L280.964627,54.9907873 Z M252.958143,114.457039 L252.958143,0.957074867 L307.607769,0.957074867 C313.304643,0.957074867 318.569206,2.07561543 323.405364,4.31399868 C328.248032,6.55238194 332.429212,9.48220296 335.959321,13.1086703 C339.48943,16.7299291 342.251274,20.8342828 344.244855,25.417825 C346.234529,30.0000651 347.230668,34.6343909 347.230668,39.3247088 C347.230668,42.8391919 346.778825,46.226065 345.867325,49.4762131 C344.957127,52.7263612 343.644567,55.7890008 341.936156,58.6680383 C340.231651,61.5418671 338.152129,64.1305268 335.705403,66.4196936 C333.258677,68.7088604 330.496833,70.6568659 327.418567,72.2545949 L354.061709,114.457039 L322.470425,114.457039 L299.2402,77.8485999 L280.964627,77.8485999 L280.964627,114.457039 L252.958143,114.457039 Z M144.677166,57.8698248 C144.677166,62.2385135 145.358187,66.4756857 146.72153,70.576133 C148.090082,74.6804867 150.108403,78.3277884 152.784307,81.5271529 C155.465418,84.7265175 158.791091,87.2800193 162.779554,89.2019819 C166.762808,91.120038 171.320308,92.0758107 176.441635,92.0758107 C181.792139,92.0758107 186.461623,91.0640459 190.444877,89.039214 C194.43334,87.0143822 197.734272,84.374939 200.352881,81.1247908 C202.972792,77.8746427 204.936423,74.2026004 206.243774,70.0969445 C207.556334,65.9925908 208.207405,61.8114107 208.207405,57.5494977 C208.207405,53.1795069 207.525083,48.9423346 206.156531,44.8379809 C204.794489,40.7375336 202.743615,37.1110663 200.013021,33.9676938 C197.275918,30.8243214 193.948943,28.3216032 190.017774,26.4556327 C186.090512,24.5883601 181.564264,23.6573281 176.441635,23.6573281 C171.09113,23.6573281 166.451596,24.6443523 162.520427,26.613192 C158.593165,28.5859382 155.292233,31.1706914 152.61633,34.3700559 C149.941729,37.5642119 147.946847,41.2167221 146.639495,45.3158673 C145.328238,49.420221 144.677166,53.6066097 144.677166,57.8698248 L144.677166,57.8698248 Z M176.26845,115.41802 C167.275852,115.41802 159.07626,113.764299 151.676183,110.463367 C144.274804,107.157227 137.956808,102.813279 132.718288,97.4315236 C127.479768,92.05107 123.410572,85.8958416 120.505492,78.9684426 C117.606922,72.0397414 116.151127,64.898791 116.151127,57.5494977 C116.151127,50.086918 117.661612,42.895184 120.678677,35.9664828 C123.694439,29.0390838 127.906871,22.9398475 133.318576,17.6609611 C138.725072,12.3859811 145.12901,8.18006029 152.530389,5.03538573 C159.930466,1.88810688 168.012865,0.315118528 176.782796,0.315118528 C185.775393,0.315118528 193.974986,1.96883973 201.376365,5.27497998 C208.776442,8.57591166 215.099646,12.9459025 220.332958,18.3823482 C225.57278,23.8148874 229.615933,30.0000651 232.459813,36.9287663 C235.307599,43.8509567 236.732143,50.8851315 236.732143,58.0273841 C236.732143,65.4886616 235.221657,72.6816977 232.204593,79.6090968 C229.18883,86.5364958 225.002442,92.6357321 219.651937,97.9107121 C214.300131,103.189598 207.922236,107.421562 200.520857,110.620927 C193.12078,113.820291 185.038381,115.41802 176.26845,115.41802 L176.26845,115.41802 Z M-0.156257121,56.7499821 C-0.156257121,49.9293588 1.21229483,43.1334761 3.94288802,36.3688449 C6.67478336,29.5990052 10.6580378,23.5505524 15.8965578,18.2195803 C21.1363799,12.8951189 27.5090662,8.57591166 35.027638,5.27497998 C42.5396991,1.96883973 51.0804529,0.315118528 60.6472951,0.315118528 C72.0319285,0.315118528 81.9086807,2.60949392 90.2762496,7.19303614 C98.6438184,11.7752762 104.87978,17.741694 108.978925,25.0974979 L87.4584128,39.1658474 C86.0898609,36.1800342 84.3554068,33.7033589 82.2498421,31.7293106 C80.1442774,29.761773 77.8394849,28.1588354 75.3328602,26.9335191 C72.830142,25.7069007 70.2662231,24.8579037 67.646312,24.3748087 C65.0277031,23.8969224 62.4689927,23.6573281 59.9610659,23.6573281 C54.6105617,23.6573281 49.941078,24.6703951 45.9578236,26.6939249 C41.9706627,28.7187567 38.6684289,31.3334592 36.04982,34.5276152 C33.4299089,37.7269797 31.4975292,41.3482385 30.2461701,45.3979022 C28.9896024,49.4462638 28.3632718,53.5506175 28.3632718,57.707057 C28.3632718,62.1825213 29.1067952,66.5017286 30.5860293,70.6568659 C32.0665655,74.8120032 34.2033817,78.4905562 36.989967,81.6847122 C39.7778545,84.8840767 43.1399868,87.4167443 47.0672492,89.2788083 C50.9932093,91.1447787 55.4087751,92.0758107 60.3022273,92.0758107 C62.808852,92.0758107 65.3988137,91.7867351 68.0734148,91.1955623 C70.749318,90.6109002 73.3132369,89.7059111 75.759963,88.4805948 C78.2066891,87.2539764 80.4541874,85.6575495 82.5037599,83.6835012 C84.5546347,81.7146615 86.2070537,79.2887697 87.4584128,76.4097322 L110.342268,89.039214 C108.521873,93.1956534 105.821229,96.9288965 102.235128,100.229828 C98.6438184,103.535968 94.5186304,106.303022 89.8491468,108.541405 C85.1796631,110.778486 80.2302188,112.488199 74.9916988,113.657523 C69.7531789,114.833358 64.6305496,115.41802 59.6199046,115.41802 C50.8512758,115.41802 42.7988255,113.739558 35.4547408,110.382635 C28.1093539,107.025711 21.7913577,102.574987 16.4968456,97.0356722 C11.2023334,91.4911487 7.10188615,85.2044038 4.19810799,78.1702291 C1.29302768,71.1347522 -0.156257121,63.9938018 -0.156257121,56.7499821 L-0.156257121,56.7499821 Z" id="Fill-2" fill="#565757" mask="url(#mask-5)"></path>
                </g>
                <g id="Group-9" transform="translate(110.5871, 0)">
                    <path d="M559.737748,469.55916 C559.737748,470.521443 559.880984,471.452475 560.159643,472.352256 C560.439603,473.252036 560.857591,474.05676 561.407095,474.758615 C561.955297,475.46047 562.642829,476.024298 563.461877,476.447494 C564.280924,476.86418 565.215863,477.077731 566.274505,477.077731 C567.373513,477.077731 568.334494,476.853763 569.153542,476.411034 C569.97259,475.963097 570.648402,475.383644 571.187489,474.671372 C571.726576,473.953891 572.128938,473.150469 572.398482,472.250689 C572.668025,471.345699 572.80475,470.428991 572.80475,469.494052 C572.80475,468.531769 572.662817,467.602039 572.382856,466.700956 C572.102895,465.795967 571.681001,465.00166 571.117173,464.310222 C570.557252,463.618785 569.871023,463.069281 569.06109,462.663012 C568.257668,462.250233 567.326636,462.047099 566.274505,462.047099 C565.170288,462.047099 564.219724,462.26065 563.411093,462.692961 C562.60116,463.130481 561.925348,463.695611 561.370635,464.397466 C560.821131,465.099321 560.414863,465.902743 560.145319,466.802524 C559.875776,467.708815 559.737748,468.624221 559.737748,469.55916 L559.737748,469.55916 Z M566.238045,482.204267 C564.3877,482.204267 562.704029,481.843574 561.177918,481.115676 C559.657016,480.38908 558.360082,479.437214 557.281907,478.252264 C556.202431,477.072523 555.36906,475.719597 554.768772,474.198694 C554.173693,472.672583 553.872898,471.106105 553.872898,469.494052 C553.872898,467.850748 554.18411,466.273854 554.80393,464.747742 C555.425052,463.22684 556.294883,461.889539 557.403007,460.72933 C558.517641,459.570423 559.834107,458.6446 561.35501,457.95186 C562.875912,457.265631 564.540051,456.919261 566.340914,456.919261 C568.191259,456.919261 569.874929,457.281256 571.40104,458.007852 C572.921943,458.730541 574.218877,459.691522 575.297051,460.886889 C576.376528,462.082256 577.20469,463.440391 577.790655,464.961294 C578.375317,466.482196 578.669601,468.029142 578.669601,469.59562 C578.669601,471.233715 578.359691,472.814516 577.738569,474.335419 C577.118749,475.86153 576.259335,477.200133 575.155118,478.35904 C574.056109,479.519249 572.744852,480.450281 571.223949,481.152136 C569.703046,481.853991 568.038908,482.204267 566.238045,482.204267 L566.238045,482.204267 Z M530.821066,467.733556 L530.821066,481.990716 L525.057783,481.990716 L525.057783,457.057288 L529.555383,457.057288 L541.177007,471.701184 L541.177007,457.057288 L546.94029,457.057288 L546.94029,481.990716 L542.302058,481.990716 L530.821066,467.733556 Z M510.221169,472.438197 L507.306974,463.623993 L504.32116,472.438197 L510.221169,472.438197 Z M504.707897,457.057288 L509.90605,457.057288 L519.000215,481.990716 L513.100206,481.990716 L511.166525,476.411034 L503.409661,476.411034 L501.512439,481.990716 L495.61243,481.990716 L504.707897,457.057288 Z M469.081273,469.315659 C469.081273,467.815591 469.361234,466.324637 469.921155,464.838892 C470.484983,463.349241 471.304031,462.021056 472.382205,460.851732 C473.456473,459.682407 474.76773,458.730541 476.314676,458.007852 C477.860319,457.281256 479.615607,456.919261 481.579239,456.919261 C483.924398,456.919261 485.953136,457.42319 487.671964,458.431048 C489.397303,459.437605 490.678612,460.744956 491.518494,462.362217 L487.092511,465.449597 C486.81255,464.798526 486.457065,464.25423 486.024754,463.81671 C485.592442,463.384399 485.119765,463.034123 484.60021,462.764579 C484.087165,462.495036 483.557193,462.311433 483.023315,462.204658 C482.484228,462.097882 481.955558,462.047099 481.441212,462.047099 C480.338297,462.047099 479.381222,462.271067 478.562174,462.713796 C477.744428,463.156524 477.062106,463.730769 476.523019,464.432624 C475.983932,465.134479 475.586778,465.932692 475.33286,466.823358 C475.073734,467.714023 474.946124,468.613804 474.946124,469.524002 C474.946124,470.511026 475.093266,471.456381 475.399269,472.37309 C475.703971,473.283288 476.141491,474.091918 476.715736,474.793773 C477.291283,475.495628 477.982721,476.050341 478.791351,476.461818 C479.594773,476.874597 480.506273,477.077731 481.512829,477.077731 C482.027176,477.077731 482.561054,477.011322 483.110558,476.883712 C483.65876,476.757404 484.188733,476.55427 484.687453,476.284727 C485.19008,476.019089 485.653643,475.663604 486.075537,475.231293 C486.497432,474.798982 486.838593,474.265103 487.092511,473.633564 L491.802361,476.411034 C491.426042,477.321232 490.872631,478.14028 490.134316,478.868178 C489.397303,479.594773 488.547004,480.20027 487.586023,480.693782 C486.625042,481.187294 485.608068,481.558404 484.528592,481.818833 C483.455626,482.077959 482.403495,482.204267 481.370896,482.204267 C479.570032,482.204267 477.911103,481.833156 476.400617,481.096144 C474.890132,480.357829 473.593198,479.381222 472.504606,478.166323 C471.416015,476.950121 470.572227,475.567246 469.977147,474.0203 C469.37686,472.474657 469.081273,470.908179 469.081273,469.315659 L469.081273,469.315659 Z M456.385382,481.990716 L462.143457,481.990716 L462.143457,457.057288 L456.385382,457.057288 L456.385382,481.990716 Z M433.536685,457.057288 L438.979641,465.663149 L444.422597,457.057288 L450.642933,457.057288 L442.000612,469.702395 L450.357764,481.990716 L444.142637,481.990716 L438.979641,473.74034 L433.816645,481.990716 L427.565058,481.990716 L435.927419,469.702395 L427.2864,457.057288 L433.536685,457.057288 Z M422.809633,476.935798 L422.809633,481.990716 L405.286699,481.990716 L405.286699,457.057288 L422.494515,457.057288 L422.494515,462.118716 L411.044774,462.118716 L411.044774,466.960083 L420.877254,466.960083 L420.877254,471.634775 L411.044774,471.634775 L411.044774,476.935798 L422.809633,476.935798 Z M391.146732,481.990716 L391.146732,467.066859 L385.738933,477.92152 L382.651553,477.92152 L377.239848,467.066859 L377.239848,481.990716 L371.481773,481.990716 L371.481773,457.057288 L377.73336,457.057288 L384.19329,470.089132 L390.693586,457.057288 L396.908713,457.057288 L396.908713,481.990716 L391.146732,481.990716 Z M335.438464,481.990716 L335.438464,457.057288 L341.196539,457.057288 L341.196539,476.935798 L353.277819,476.935798 L353.277819,481.990716 L335.438464,481.990716 Z M320.60185,472.438197 L317.687655,463.623993 L314.701842,472.438197 L320.60185,472.438197 Z M315.087276,457.057288 L320.286732,457.057288 L329.380896,481.990716 L323.480888,481.990716 L321.547206,476.411034 L313.785133,476.411034 L311.887912,481.990716 L305.987903,481.990716 L315.087276,457.057288 Z M304.355016,462.118716 L296.771337,462.118716 L296.771337,481.990716 L291.013262,481.990716 L291.013262,462.118716 L283.389217,462.118716 L283.389217,457.057288 L304.355016,457.057288 L304.355016,462.118716 Z M275.2964,464.361006 C275.224782,464.269856 274.981282,464.096671 274.558085,463.837545 C274.136191,463.578418 273.607521,463.308875 272.977284,463.028914 C272.345745,462.748953 271.654307,462.505453 270.906877,462.290599 C270.154239,462.082256 269.405507,461.975481 268.658077,461.975481 C266.598087,461.975481 265.565488,462.666918 265.565488,464.045888 C265.565488,464.467782 265.677472,464.81936 265.901441,465.099321 C266.125409,465.383188 266.450945,465.633199 266.883256,465.857168 C267.315568,466.081137 267.859863,466.284271 268.516143,466.471779 C269.172423,466.66059 269.935479,466.868933 270.800102,467.103319 C271.995469,467.428854 273.073643,467.789548 274.029415,468.176284 C274.990397,468.56302 275.804236,469.040907 276.470933,469.615152 C277.13763,470.18549 277.655883,470.882137 278.017878,471.701184 C278.378572,472.525441 278.562174,473.507256 278.562174,474.65184 C278.562174,476.060758 278.297839,477.245708 277.773076,478.217106 C277.244406,479.188505 276.547759,479.972395 275.683137,480.57138 C274.813305,481.167762 273.821073,481.600073 272.697323,481.869616 C271.572272,482.13916 270.413365,482.275885 269.217998,482.275885 C268.3078,482.275885 267.37156,482.204267 266.410579,482.062334 C265.448295,481.925609 264.513357,481.715964 263.601857,481.44642 C262.686451,481.182085 261.802296,480.856549 260.946788,480.485439 C260.092582,480.10912 259.304786,479.676808 258.576888,479.183296 L261.109556,474.163536 C261.202008,474.279427 261.506709,474.503395 262.021056,474.828931 C262.5341,475.154467 263.174754,475.485211 263.932601,475.810747 C264.695657,476.141491 265.545956,476.431869 266.480894,476.690995 C267.417135,476.950121 268.363793,477.077731 269.324774,477.077731 C271.363929,477.077731 272.382205,476.456609 272.382205,475.215667 C272.382205,474.748198 272.228552,474.361462 271.923851,474.05676 C271.619149,473.750757 271.195953,473.476005 270.656866,473.232504 C270.122987,472.987701 269.482333,472.758524 268.74532,472.544973 C268.007006,472.33663 267.208792,472.103546 266.338961,471.843118 C265.194377,471.492841 264.196936,471.111314 263.353148,470.703743 C262.513266,470.292266 261.816619,469.819588 261.267115,469.280501 C260.713704,468.741414 260.306134,468.120292 260.03659,467.418437 C259.767047,466.716582 259.63553,465.897534 259.63553,464.961294 C259.63553,463.648734 259.879031,462.489827 260.372543,461.481969 C260.860847,460.475412 261.527544,459.630322 262.371332,458.938884 C263.216423,458.247446 264.19303,457.729193 265.306362,457.377615 C266.415787,457.02213 267.595528,456.848945 268.831262,456.848945 C269.701093,456.848945 270.555299,456.929678 271.395181,457.092446 C272.238969,457.255213 273.0476,457.468765 273.821073,457.729193 C274.594545,457.983111 275.312026,458.277395 275.977421,458.602931 C276.649326,458.933675 277.260031,459.259211 277.823859,459.584747 L275.2964,464.361006 Z M234.466414,469.55916 C234.466414,470.521443 234.60965,471.452475 234.889611,472.352256 C235.173478,473.252036 235.586257,474.05676 236.135761,474.758615 C236.689172,475.46047 237.371495,476.024298 238.190543,476.447494 C239.00959,476.86418 239.949737,477.077731 241.003171,477.077731 C242.102179,477.077731 243.06316,476.853763 243.882208,476.411034 C244.701256,475.963097 245.377068,475.383644 245.916155,474.671372 C246.455242,473.953891 246.862813,473.150469 247.127148,472.250689 C247.396691,471.345699 247.534718,470.428991 247.534718,469.494052 C247.534718,468.531769 247.391483,467.602039 247.111522,466.700956 C246.831561,465.795967 246.409667,465.00166 245.851048,464.310222 C245.285918,463.618785 244.599689,463.069281 243.794965,462.663012 C242.986334,462.250233 242.056604,462.047099 241.003171,462.047099 C239.898954,462.047099 238.94839,462.26065 238.139759,462.692961 C237.331128,463.130481 236.654014,463.695611 236.10451,464.397466 C235.549797,465.099321 235.143529,465.902743 234.873985,466.802524 C234.604442,467.708815 234.466414,468.624221 234.466414,469.55916 L234.466414,469.55916 Z M240.968013,482.204267 C239.116366,482.204267 237.432696,481.843574 235.911793,481.115676 C234.385682,480.38908 233.088748,479.437214 232.010573,478.252264 C230.932399,477.072523 230.097726,475.719597 229.502647,474.198694 C228.902359,472.672583 228.601564,471.106105 228.601564,469.494052 C228.601564,467.850748 228.912776,466.273854 229.532596,464.747742 C230.153718,463.22684 231.023549,461.889539 232.131673,460.72933 C233.246307,459.570423 234.564075,458.6446 236.084978,457.95186 C237.60588,457.265631 239.268717,456.919261 241.074789,456.919261 C242.921227,456.919261 244.608804,457.281256 246.129706,458.007852 C247.650609,458.730541 248.947543,459.691522 250.027019,460.886889 C251.105194,462.082256 251.933356,463.440391 252.519321,464.961294 C253.103983,466.482196 253.398267,468.029142 253.398267,469.59562 C253.398267,471.233715 253.088357,472.814516 252.468537,474.335419 C251.847415,475.86153 250.988001,477.200133 249.883784,478.35904 C248.784775,479.519249 247.473518,480.450281 245.952615,481.152136 C244.431712,481.853991 242.767574,482.204267 240.968013,482.204267 L240.968013,482.204267 Z M210.325991,468.928923 L215.031935,468.928923 C215.707747,468.928923 216.292409,468.638545 216.785921,468.048674 C217.279433,467.464012 217.524236,466.609806 217.524236,465.486057 C217.524236,464.900093 217.44741,464.397466 217.295059,463.979478 C217.142708,463.557584 216.938272,463.207308 216.679146,462.922138 C216.425228,462.642178 216.129641,462.439043 215.804106,462.311433 C215.473361,462.179917 215.147826,462.118716 214.818384,462.118716 L210.325991,462.118716 L210.325991,468.928923 Z M204.56401,481.990716 L204.56401,457.057288 L215.203818,457.057288 C216.399185,457.057288 217.492985,457.305997 218.490426,457.794301 C219.482659,458.287813 220.342073,458.933675 221.054345,459.727982 C221.765315,460.526196 222.330445,461.425976 222.738015,462.433835 C223.149492,463.440391 223.352627,464.458667 223.352627,465.486057 C223.352627,466.588972 223.15991,467.642406 222.773173,468.648962 C222.386437,469.65682 221.84735,470.556601 221.161121,471.349606 C220.468381,472.149121 219.629801,472.779358 218.647985,473.24813 C217.66617,473.715599 216.577578,473.949985 215.382211,473.949985 L210.325991,473.949985 L210.325991,481.990716 L204.56401,481.990716 Z M165.850006,469.55916 C165.850006,470.521443 165.99194,471.452475 166.2719,472.352256 C166.55707,473.252036 166.968547,474.05676 167.518051,474.758615 C168.072764,475.46047 168.755086,476.024298 169.572832,476.447494 C170.39188,476.86418 171.32812,477.077731 172.386762,477.077731 C173.484469,477.077731 174.446752,476.853763 175.2658,476.411034 C176.083545,475.963097 176.76066,475.383644 177.299747,474.671372 C177.838834,473.953891 178.246404,473.150469 178.510739,472.250689 C178.780283,471.345699 178.917008,470.428991 178.917008,469.494052 C178.917008,468.531769 178.775074,467.602039 178.495114,466.700956 C178.215153,465.795967 177.793259,465.00166 177.228129,464.310222 C176.66951,463.618785 175.981978,463.069281 175.178556,462.663012 C174.369926,462.250233 173.438894,462.047099 172.386762,462.047099 C171.282545,462.047099 170.330679,462.26065 169.522049,462.692961 C168.713418,463.130481 168.037606,463.695611 167.482893,464.397466 C166.933389,465.099321 166.52712,465.902743 166.257577,466.802524 C165.988033,467.708815 165.850006,468.624221 165.850006,469.55916 L165.850006,469.55916 Z M172.350302,482.204267 C170.498656,482.204267 168.814985,481.843574 167.294082,481.115676 C165.769273,480.38908 164.471037,479.437214 163.392863,478.252264 C162.314689,477.072523 161.481318,475.719597 160.88103,474.198694 C160.285951,472.672583 159.985156,471.106105 159.985156,469.494052 C159.985156,467.850748 160.295066,466.273854 160.916188,464.747742 C161.53731,463.22684 162.407141,461.889539 163.515264,460.72933 C164.629898,459.570423 165.946365,458.6446 167.467267,457.95186 C168.98817,457.265631 170.652308,456.919261 172.45187,456.919261 C174.303516,456.919261 175.992395,457.281256 177.513298,458.007852 C179.034201,458.730541 180.331135,459.691522 181.409309,460.886889 C182.487483,462.082256 183.316948,463.440391 183.90161,464.961294 C184.487574,466.482196 184.781859,468.029142 184.781859,469.59562 C184.781859,471.233715 184.471949,472.814516 183.850827,474.335419 C183.231007,475.86153 182.371592,477.200133 181.267375,478.35904 C180.168367,479.519249 178.855807,480.450281 177.334905,481.152136 C175.814002,481.853991 174.151166,482.204267 172.350302,482.204267 L172.350302,482.204267 Z M147.289264,481.990716 L153.052548,481.990716 L153.052548,457.057288 L147.289264,457.057288 L147.289264,481.990716 Z M118.087413,469.315659 C118.087413,467.815591 118.372582,466.324637 118.932503,464.838892 C119.496331,463.349241 120.315379,462.021056 121.389647,460.851732 C122.467821,459.682407 123.779078,458.730541 125.326024,458.007852 C126.867761,457.281256 128.626956,456.919261 130.590587,456.919261 C132.935746,456.919261 134.964484,457.42319 136.684615,458.431048 C138.408651,459.437605 139.684751,460.744956 140.529842,462.362217 L136.103859,465.449597 C135.823898,464.798526 135.468413,464.25423 135.036102,463.81671 C134.598582,463.384399 134.125904,463.034123 133.611558,462.764579 C133.098514,462.495036 132.568542,462.311433 132.029454,462.204658 C131.495576,462.097882 130.966906,462.047099 130.45256,462.047099 C129.349645,462.047099 128.39257,462.271067 127.574824,462.713796 C126.750568,463.156524 126.073454,463.730769 125.534367,464.432624 C124.99528,465.134479 124.598126,465.932692 124.339,466.823358 C124.085082,467.714023 123.952263,468.613804 123.952263,469.524002 C123.952263,470.511026 124.104614,471.456381 124.410618,472.37309 C124.715319,473.283288 125.152839,474.091918 125.728386,474.793773 C126.302631,475.495628 126.994069,476.050341 127.797491,476.461818 C128.606121,476.874597 129.517621,477.077731 130.518969,477.077731 C131.038524,477.077731 131.567194,477.011322 132.121907,476.883712 C132.671411,476.757404 133.194872,476.55427 133.698801,476.284727 C134.201428,476.019089 134.664991,475.663604 135.086885,475.231293 C135.50878,474.798982 135.849941,474.265103 136.103859,473.633564 L140.809803,476.411034 C140.43739,477.321232 139.878771,478.14028 139.145664,478.868178 C138.408651,479.594773 137.559654,480.20027 136.597371,480.693782 C135.63639,481.187294 134.619416,481.558404 133.541242,481.818833 C132.466974,482.077959 131.409635,482.204267 130.382244,482.204267 C128.576172,482.204267 126.923753,481.833156 125.411965,481.096144 C123.90148,480.357829 122.604546,479.381222 121.510746,478.166323 C120.427363,476.950121 119.583575,475.567246 118.983287,474.0203 C118.388208,472.474657 118.087413,470.908179 118.087413,469.315659 L118.087413,469.315659 Z M105.391522,481.990716 L111.154805,481.990716 L111.154805,457.057288 L105.391522,457.057288 L105.391522,481.990716 Z M81.7394022,457.057288 L87.6042528,474.758615 L93.3974856,457.057288 L99.4758876,457.057288 L90.0314467,481.990716 L85.1835696,481.990716 L75.6310509,457.057288 L81.7394022,457.057288 Z M57.3502699,468.928923 L62.6200413,468.928923 C63.2958533,468.928923 63.8805154,468.608595 64.3740275,467.962733 C64.8675395,467.322078 65.1123424,466.492614 65.1123424,465.486057 C65.1123424,464.458667 64.8323817,463.639619 64.2672518,463.028914 C63.7086326,462.418209 63.0979276,462.118716 62.4416477,462.118716 L57.3502699,462.118716 L57.3502699,468.928923 Z M51.592195,481.990716 L51.592195,457.057288 L62.8283841,457.057288 C63.9977082,457.057288 65.0810909,457.305997 66.0785322,457.794301 C67.0707649,458.287813 67.9301791,458.933675 68.6567747,459.727982 C69.3846725,460.526196 69.9498024,461.425976 70.3612795,462.433835 C70.7727566,463.440391 70.977193,464.458667 70.977193,465.486057 C70.977193,466.258228 70.8795323,467.001751 70.6972323,467.71793 C70.5084216,468.430202 70.2388781,469.107316 69.8886017,469.737553 C69.5370232,470.369092 69.1099204,470.938129 68.6059912,471.442058 C68.1033641,471.945987 67.5330256,472.37309 66.9027885,472.723366 L72.3809028,481.990716 L65.8858151,481.990716 L61.1095558,473.949985 L57.3502699,473.949985 L57.3502699,481.990716 L51.592195,481.990716 Z M44.4759852,476.935798 L44.4759852,481.990716 L26.9530512,481.990716 L26.9530512,457.057288 L44.1608667,457.057288 L44.1608667,462.118716 L32.7111262,462.118716 L32.7111262,466.960083 L42.5488141,466.960083 L42.5488141,471.634775 L32.7111262,471.634775 L32.7111262,476.935798 L44.4759852,476.935798 Z M16.7143034,464.361006 C16.6478941,464.269856 16.3991849,464.096671 15.9759885,463.837545 C15.5593028,463.578418 15.0306329,463.308875 14.3990937,463.028914 C13.7636481,462.748953 13.0774189,462.505453 12.3247804,462.290599 C11.5773505,462.082256 10.8286185,461.975481 10.0811886,461.975481 C8.01599031,461.975481 6.98859974,462.666918 6.98859974,464.045888 C6.98859974,464.467782 7.10058401,464.81936 7.32455255,465.099321 C7.54331252,465.383188 7.87405676,465.633199 8.30636813,465.857168 C8.7386795,466.081137 9.28297514,466.284271 9.93925504,466.471779 C10.595535,466.66059 11.353382,466.868933 12.2232133,467.103319 C13.4133717,467.428854 14.4915458,467.789548 15.4525271,468.176284 C16.4135084,468.56302 17.2273476,469.040907 17.8940447,469.615152 C18.5607417,470.18549 19.0737859,470.882137 19.4409901,471.701184 C19.8016837,472.525441 19.9852858,473.507256 19.9852858,474.65184 C19.9852858,476.060758 19.7196487,477.245708 19.1909788,478.217106 C18.6675174,479.188505 17.9708711,479.972395 17.1010398,480.57138 C16.236417,481.167762 15.2389757,481.600073 14.1204352,481.869616 C12.9953839,482.13916 11.8364769,482.275885 10.6411099,482.275885 C9.72570365,482.275885 8.78946306,482.204267 7.83238819,482.062334 C6.8714069,481.925609 5.93516632,481.715964 5.01976002,481.44642 C4.10956228,481.182085 3.22410527,480.856549 2.36989967,480.485439 C1.51569407,480.10912 0.726595613,479.676808 0,479.183296 L2.52745893,474.163536 C2.62381749,474.279427 2.92461245,474.503395 3.44286523,474.828931 C3.95721159,475.154467 4.59265722,475.485211 5.35571283,475.810747 C6.11876843,476.141491 6.96385903,476.431869 7.89879747,476.690995 C8.84024663,476.950121 9.78560221,477.077731 10.7478856,477.077731 C12.7818325,477.077731 13.8001081,476.456609 13.8001081,475.215667 C13.8001081,474.748198 13.6464552,474.361462 13.3469624,474.05676 C13.0409589,473.750757 12.6190647,473.476005 12.0799776,473.232504 C11.5408905,472.987701 10.9054449,472.758524 10.16713,472.544973 C9.43011726,472.33663 8.62669523,472.103546 7.76207249,471.843118 C6.61228051,471.492841 5.62004779,471.111314 4.77625933,470.703743 C3.93116874,470.292266 3.23452241,469.819588 2.6850182,469.280501 C2.13681613,468.741414 1.7240369,468.120292 1.45970194,467.418437 C1.19015841,466.716582 1.05213128,465.897534 1.05213128,464.961294 C1.05213128,463.648734 1.29693411,462.489827 1.79044618,461.481969 C2.28395825,460.475412 2.94935316,459.630322 3.79444376,458.938884 C4.63302364,458.247446 5.61483922,457.729193 6.72426478,457.377615 C7.83759677,457.02213 9.0134316,456.848945 10.2543736,456.848945 C11.1189963,456.848945 11.9732019,456.929678 12.8182925,457.092446 C13.662081,457.255213 14.4707116,457.468765 15.2389757,457.729193 C16.0124485,457.983111 16.7338355,458.277395 17.4005326,458.602931 C18.0672296,458.933675 18.6831431,459.259211 19.2469709,459.584747 L16.7143034,464.361006 Z" id="Fill-5" fill="#6E6F70"></path>
                    <path d="M345.524861,115.32036 L307.818716,84.7200068 C332.396659,64.771181 354.142441,54.0949132 383.785719,44.1869096 C401.51309,38.2608582 418.236508,34.9950844 436.823293,32.6395083 C406.396125,60.0964888 375.698111,88.0873477 345.524861,115.32036 L345.524861,115.32036 Z M313.520798,49.9085245 L289.217608,69.6294753 L264.919625,49.9085245 L289.217608,30.1888758 L313.520798,49.9085245 Z M290.524959,167.529051 C268.815636,167.605295 248.362881,160.082816 231.317833,146.80617 L276.537342,110.107883 L257.941443,95.0160489 L232.793161,115.423229 C202.218851,87.8282213 171.643239,60.2345159 141.074137,32.6395083 C187.46297,38.5199846 233.134323,54.3136731 269.680259,83.9582533 C295.82468,105.158438 321.949568,126.374249 348.083572,147.584851 C331.0242,160.545077 313.053329,167.452944 290.524959,167.529051 L290.524959,167.529051 Z M211.435417,162.941019 C233.51585,181.643695 261.313992,191.750926 290.204632,191.750926 C326.848229,191.750926 361.400585,175.4481 384.599559,147.035347 L363.943669,130.27026 C410.378077,88.3568913 456.67576,46.2924743 503.115376,4.38431439 C439.996614,2.98581316 395.907366,9.64366866 334.726192,36.9326727 C319.558834,24.623518 304.391476,12.3091547 289.217608,0 C273.963006,12.3807726 258.709707,24.7615451 243.449897,37.1462241 C185.320946,9.84289649 137.344801,2.9962303 74.7820539,4.38431439 C121.307612,46.3732071 167.736811,88.5053355 214.375655,130.371827 L195.031024,146.069157 C199.940101,152.20876 205.432539,157.858757 211.435417,162.941019 L211.435417,162.941019 Z" id="Fill-7" fill="#E30079"></path>
                </g>
            </g>
        </g>
    </g>
</svg>