<?xml version="1.0" encoding="UTF-8"?>
<svg width="980px" height="680px" viewBox="0 0 980 680" version="1.1" xmlns="http://www.w3.org/2000/svg" xmlns:xlink="http://www.w3.org/1999/xlink">
    <title>MY Pos Malaysia</title>
    <defs>
        <linearGradient x1="50%" y1="0%" x2="50%" y2="100%" id="linearGradient-1">
            <stop stop-color="#FFFFFF" offset="0%"></stop>
            <stop stop-color="#EDEDED" offset="100%"></stop>
        </linearGradient>
        <rect id="path-2" x="0" y="0" width="900" height="600" rx="80"></rect>
        <filter x="-6.7%" y="-10.0%" width="113.3%" height="120.0%" filterUnits="objectBoundingBox" id="filter-3">
            <feMorphology radius="2.5" operator="dilate" in="SourceAlpha" result="shadowSpreadOuter1"></feMorphology>
            <feOffset dx="0" dy="0" in="shadowSpreadOuter1" result="shadowOffsetOuter1"></feOffset>
            <feGaussianBlur stdDeviation="17.5" in="shadowOffsetOuter1" result="shadowBlurOuter1"></feGaussianBlur>
            <feColorMatrix values="0 0 0 0 0   0 0 0 0 0   0 0 0 0 0  0 0 0 0.5 0" type="matrix" in="shadowBlurOuter1"></feColorMatrix>
        </filter>
        <ellipse id="path-4" cx="145.057232" cy="152.549428" rx="145.057232" ry="152.549428"></ellipse>
        <linearGradient x1="95.8561812%" y1="49.9955995%" x2="57.0060588%" y2="49.9955995%" id="linearGradient-6">
            <stop stop-color="#FFFFFF" offset="0.561798%"></stop>
            <stop stop-color="#FDF5F5" offset="2.436039%"></stop>
            <stop stop-color="#F4C3C8" offset="12.26%"></stop>
            <stop stop-color="#EC989F" offset="22.59%"></stop>
            <stop stop-color="#E5737D" offset="33.25%"></stop>
            <stop stop-color="#DF5562" offset="44.33%"></stop>
            <stop stop-color="#DB3D4C" offset="55.97%"></stop>
            <stop stop-color="#D72D3D" offset="68.39%"></stop>
            <stop stop-color="#D62334" offset="82.17%"></stop>
            <stop stop-color="#D52031" offset="100%"></stop>
        </linearGradient>
        <ellipse id="path-7" cx="145.057232" cy="152.549428" rx="145.057232" ry="152.549428"></ellipse>
        <linearGradient x1="94.6965728%" y1="24.9578639%" x2="72.9114443%" y2="37.1525242%" id="linearGradient-9">
            <stop stop-color="#FFFFFF" offset="0.561798%"></stop>
            <stop stop-color="#FEFAFA" offset="6.879969%"></stop>
            <stop stop-color="#FCEDED" offset="14.07%"></stop>
            <stop stop-color="#F8D7D6" offset="21.68%"></stop>
            <stop stop-color="#F3B7B6" offset="29.59%"></stop>
            <stop stop-color="#EC8F8D" offset="37.73%"></stop>
            <stop stop-color="#E45E5B" offset="45.96%"></stop>
            <stop stop-color="#E35A57" offset="46.63%"></stop>
            <stop stop-color="#D42030" offset="100%"></stop>
        </linearGradient>
        <path d="M158.792924,0 C250.156087,0 318.418314,66.1810614 318.418314,155.046826 C318.418314,242.872008 250.156087,309.05307 158.792924,309.05307 C68.2622268,309.05307 0,242.872008 0,155.046826 C0,66.1810614 68.2622268,0 158.792924,0 Z" id="path-10"></path>
        <linearGradient x1="16.951604%" y1="20.5987691%" x2="48.1293309%" y2="51.7025113%" id="linearGradient-12">
            <stop stop-color="#D52031" offset="0%"></stop>
            <stop stop-color="#D52031" offset="22.47%"></stop>
            <stop stop-color="#FFFFFF" offset="99.44%"></stop>
        </linearGradient>
        <linearGradient x1="22.3445448%" y1="78.9382311%" x2="52.8513165%" y2="41.2223821%" id="linearGradient-13">
            <stop stop-color="#D52031" offset="0%"></stop>
            <stop stop-color="#D52031" offset="6.74157%"></stop>
            <stop stop-color="#D72B3B" offset="9.741256%"></stop>
            <stop stop-color="#E36B76" offset="28.36%"></stop>
            <stop stop-color="#EDA0A7" offset="46.15%"></stop>
            <stop stop-color="#F5C9CD" offset="62.63%"></stop>
            <stop stop-color="#FAE7E8" offset="77.5%"></stop>
            <stop stop-color="#FEF9F9" offset="90.27%"></stop>
            <stop stop-color="#FFFFFF" offset="99.44%"></stop>
        </linearGradient>
    </defs>
    <g id="MY-Pos-Malaysia" stroke="none" stroke-width="1" fill="none" fill-rule="evenodd">
        <g transform="translate(40, 40)">
            <g id="Rectangle">
                <use fill="black" fill-opacity="1" filter="url(#filter-3)" xlink:href="#path-2"></use>
                <use fill="url(#linearGradient-1)" fill-rule="evenodd" xlink:href="#path-2"></use>
            </g>
            <g id="Logo" transform="translate(50, 65)">
                <g id="Group" transform="translate(-0, 391.2591)" fill="#10529F" fill-rule="nonzero">
                    <polygon id="Path" points="64.3080125 25.8064516 40.5827263 56.6077003 38.0853278 56.6077003 14.5681582 25.8064516 14.5681582 77.2112383 -2.95751399e-14 77.2112383 -2.95751399e-14 1.04058273 13.1113424 1.04058273 39.5421436 34.9635796 65.9729448 1.04058273 79.0842872 1.04058273 79.0842872 77.2112383 64.516129 77.2112383 64.516129 25.8064516"></polygon>
                    <path d="M121.540062,1.66493236 L139.854318,1.66493236 L168.990635,77.8355879 L153.173777,77.8355879 L147.346514,62.6430801 L113.007284,62.6430801 L107.180021,77.8355879 L91.3631634,77.8355879 L121.540062,1.66493236 Z M116.961498,50.9885536 L143.3923,50.9885536 L130.489074,17.2736733 L116.961498,50.9885536 Z" id="Shape"></path>
                    <polygon id="Path" points="180.645161 77.2112383 180.645161 1.04058273 196.253902 1.04058273 196.253902 63.4755463 235.379813 63.4755463 235.379813 77.2112383"></polygon>
                    <path d="M272.840791,1.04058273 L291.155047,1.04058273 L320.291363,77.2112383 L304.474506,77.2112383 L298.647242,62.0187305 L264.308012,62.0187305 L258.480749,77.2112383 L242.663892,77.2112383 L272.840791,1.04058273 Z M268.262227,50.364204 L294.693028,50.364204 L281.789802,16.6493236 L268.262227,50.364204 Z" id="Shape"></path>
                    <polygon id="Path" points="341.935484 47.0343392 312.382934 2.08116545 312.382934 1.04058273 329.656608 1.04058273 349.635796 32.6742976 369.614984 1.04058273 386.888658 1.04058273 386.888658 2.08116545 357.336108 46.8262227 357.336108 77.0031217 341.727367 77.0031217 341.727367 47.0343392"></polygon>
                    <path d="M395.005203,56.6077003 C400.416233,60.1456816 409.157128,64.0998959 418.938606,64.0998959 C428.095734,64.0998959 433.71488,61.1862643 433.71488,55.5671176 C433.71488,51.4047867 431.009365,49.1155047 423.100937,47.0343392 L410.613944,43.9125911 C397.086368,40.5827263 391.259105,33.2986472 391.259105,22.89282 C391.259105,10.1977107 400.62435,-5.91502798e-14 420.811655,-5.91502798e-14 C431.633715,-5.91502798e-14 442.039542,3.12174818 447.866805,6.03537981 L443.704475,20.3954214 C438.085328,17.0655567 428.720083,14.3600416 420.395421,14.3600416 C411.238293,14.3600416 407.492196,17.0655567 407.492196,21.4360042 C407.492196,25.5983351 410.197711,27.0551509 415.608741,28.7200832 L429.552549,32.6742976 C443.288241,36.4203954 449.947971,43.2882414 449.947971,54.1103018 C449.947971,68.4703434 436.836629,78.251821 418.522373,78.251821 C407.492196,78.251821 396.045786,74.5057232 391.259105,71.5920916 L395.005203,56.6077003 Z" id="Path"></path>
                    <polygon id="Path" points="464.724246 1.04058273 480.332986 1.04058273 480.332986 77.2112383 464.724246 77.2112383"></polygon>
                    <path d="M525.91051,1.04058273 L544.224766,1.04058273 L573.361082,77.2112383 L557.544225,77.2112383 L551.716961,62.0187305 L517.377732,62.0187305 L511.550468,77.2112383 L495.733611,77.2112383 L525.91051,1.04058273 Z M521.540062,50.364204 L547.970864,50.364204 L535.067638,16.6493236 L521.540062,50.364204 Z" id="Shape"></path>
                </g>
                <path d="M242.663892,73.2570239 C223.309053,101.352758 212.278876,135.691988 212.278876,173.985432 C212.278876,192.924037 214.984391,210.82206 220.187305,227.679501 C253.485952,208.116545 276.170656,171.0718 276.170656,120.49948 C276.170656,35.1716961 205.202914,6.03537981 142.559834,6.03537981 L3.43464242e-14,6.03537981 L3.43464242e-14,339.438085 L87.8251821,339.438085 L87.8251821,243.496358 L160.041623,243.496358 C176.274714,243.496358 191.883455,240.37461 206.243496,234.547347 C202.705515,220.187305 200.832466,205.202914 200.832466,189.594173 C200.832466,144.224766 216.233091,104.058273 242.663892,73.2570239 L242.663892,73.2570239 Z M146.097815,172.528616 L88.0332986,172.528616 L88.0332986,87.2008325 L146.097815,87.2008325 C168.574402,87.2008325 185.431842,104.266389 185.431842,130.280957 C185.431842,155.463059 168.574402,172.528616 146.097815,172.528616 Z" id="Shape" fill="#D52031" fill-rule="nonzero"></path>
                <path d="M388.761707,1.45681582 C490.530697,1.45681582 566.28512,75.1300728 566.28512,173.777315 C566.28512,271.383975 490.322581,345.057232 388.761707,345.057232 C288.033299,345.057232 212.27845,271.383975 212.27845,173.777315 C212.07076,75.1300728 288.033299,1.45681582 388.761707,1.45681582 Z" id="Path" fill="#D52031" fill-rule="nonzero"></path>
                <path d="M705.306972,142.976067 L648.491155,128.199792 L648.283039,128.616025 C626.014568,122.164412 611.44641,114.672216 611.44641,101.768991 C611.44641,76.3787721 641.623309,69.094693 674.08949,75.7544225 C711.134235,83.2466181 715.296566,93.8605619 743.184183,109.261186 L787.721124,43.0801249 C761.498439,30.5931322 717.377732,-1.03039273e-13 665.140479,-1.03039273e-13 C572.528616,-1.03039273e-13 516.961498,45.1612903 516.961498,105.723205 C516.961498,139.229969 530.69719,166.28512 565.868887,185.639958 C566.077003,181.685744 566.28512,177.73153 566.28512,173.777315 C566.28512,148.387097 561.498439,124.869927 552.549428,103.64204 C566.077003,128.824142 573.569199,157.752341 573.569199,189.386056 L573.569199,189.594173 C584.391259,194.797086 597.086368,199.37565 611.654527,203.121748 L611.862643,202.913632 L651.19667,212.695109 C682.830385,220.603538 705.515088,228.30385 705.515088,244.120708 C705.515088,269.510926 675.338189,276.795005 642.872008,270.135276 C606.243496,262.851197 593.756504,254.526535 566.493236,239.334027 C559.209157,265.140479 546.305931,288.033299 528.824142,307.388137 C555.254943,320.291363 601.040583,345.889698 651.82102,345.889698 C744.432882,345.889698 800,300.728408 800,240.166493 C800,195.005203 775.026015,161.290323 705.306972,142.976067 L705.306972,142.976067 Z" id="Path" fill="#D52031" fill-rule="nonzero"></path>
                <g id="Clipped" transform="translate(266.3892, 21.436)">
                    <mask id="mask-5" fill="white">
                        <use xlink:href="#path-4"></use>
                    </mask>
                    <g id="Oval"></g>
                    <path d="M120.291363,-9.78147763 C217.898023,-9.78147763 290.738814,60.1456816 290.738814,153.798127 C290.738814,246.618106 217.898023,316.545265 120.291363,316.545265 C23.5171696,316.545265 -49.3236212,246.618106 -49.3236212,153.798127 C-49.3236212,60.1456816 23.5171696,-9.78147763 120.291363,-9.78147763 Z" id="Path" fill="url(#linearGradient-6)" fill-rule="nonzero" mask="url(#mask-5)"></path>
                </g>
                <g id="Clipped" transform="translate(266.3892, 21.436)">
                    <mask id="mask-8" fill="white">
                        <use xlink:href="#path-7"></use>
                    </mask>
                    <g id="Oval"></g>
                    <path d="M120.291363,-9.78147763 C217.898023,-9.78147763 290.738814,60.1456816 290.738814,153.798127 C290.738814,246.618106 217.898023,316.545265 120.291363,316.545265 C23.5171696,316.545265 -49.3236212,246.618106 -49.3236212,153.798127 C-49.3236212,60.1456816 23.5171696,-9.78147763 120.291363,-9.78147763 Z" id="Path" fill="url(#linearGradient-9)" fill-rule="nonzero" mask="url(#mask-8)"></path>
                </g>
                <g id="Clipped" transform="translate(229.9688, 18.9386)">
                    <mask id="mask-11" fill="white">
                        <use xlink:href="#path-10"></use>
                    </mask>
                    <g id="Path"></g>
                    <g id="Group" mask="url(#mask-11)" fill-rule="nonzero">
                        <g transform="translate(47.6587, -4.5786)" id="Path">
                            <path d="M217.48179,136.108221 L95.1092612,-2.95751399e-14 C72.0083247,2.08116545 23.9334027,9.15712799 0,33.0905307 L92.6118626,136.108221 C98.855359,142.351717 101.977107,150.260146 102.39334,158.376691 L227.055151,158.376691 C226.847034,150.260146 223.725286,142.1436 217.48179,136.108221 L217.48179,136.108221 Z" fill="url(#linearGradient-12)"></path>
                            <path d="M102.601457,158.168574 C103.01769,167.117586 99.6878252,176.274714 92.8199792,183.350676 L8.94901145,278.876171 C22.0603538,288.865765 57.0239334,312.591051 97.3985432,320.291363 L217.689906,183.350676 C224.557752,176.48283 227.887617,167.325702 227.471384,158.168574 L102.601457,158.168574 Z" fill="url(#linearGradient-13)"></path>
                        </g>
                    </g>
                </g>
                <polygon id="Path" fill="#FFFFFF" fill-rule="nonzero" points="380.228928 172.320499 504.890739 172.320499 504.890739 172.944849 380.228928 172.944849"></polygon>
            </g>
        </g>
    </g>
</svg>