<?xml version="1.0" encoding="UTF-8"?>
<svg width="980px" height="680px" viewBox="0 0 980 680" version="1.1" xmlns="http://www.w3.org/2000/svg" xmlns:xlink="http://www.w3.org/1999/xlink">
    <title>NL PostNL alt4</title>
    <defs>
        <rect id="path-1" x="0" y="0" width="900" height="600" rx="80"></rect>
        <filter x="-6.7%" y="-10.0%" width="113.3%" height="120.0%" filterUnits="objectBoundingBox" id="filter-2">
            <feMorphology radius="2.5" operator="dilate" in="SourceAlpha" result="shadowSpreadOuter1"></feMorphology>
            <feOffset dx="0" dy="0" in="shadowSpreadOuter1" result="shadowOffsetOuter1"></feOffset>
            <feGaussianBlur stdDeviation="17.5" in="shadowOffsetOuter1" result="shadowBlurOuter1"></feGaussianBlur>
            <feColorMatrix values="0 0 0 0 0   0 0 0 0 0   0 0 0 0 0  0 0 0 0.5 0" type="matrix" in="shadowBlurOuter1"></feColorMatrix>
        </filter>
    </defs>
    <g id="NL-PostNL-alt4" stroke="none" stroke-width="1" fill="none" fill-rule="evenodd">
        <g transform="translate(40, 40)">
            <g id="Rectangle">
                <use fill="black" fill-opacity="1" filter="url(#filter-2)" xlink:href="#path-1"></use>
                <use fill="#F26F23" fill-rule="evenodd" xlink:href="#path-1"></use>
            </g>
            <g id="Logo" transform="translate(50, 71)" fill="#FFFFFF" fill-rule="nonzero">
                <path d="M684.684685,381.981982 L683.243243,291.171171 C683.243243,270.990991 676.036036,262.342342 660.18018,262.342342 C654.414414,262.342342 647.207207,263.783784 641.441441,268.108108 C634.234234,272.432432 629.90991,275.315315 627.027027,276.756757 L625.585586,278.198198 L625.585586,380.540541 C625.585586,380.540541 625.585586,381.981982 624.144144,381.981982 L583.783784,381.981982 C583.783784,381.981982 582.342342,381.981982 582.342342,380.540541 L582.342342,236.396396 C582.342342,233.513514 583.783784,232.072072 586.666667,232.072072 L622.702703,232.072072 C622.702703,232.072072 624.144144,232.072072 624.144144,233.513514 L624.144144,245.045045 C624.144144,245.045045 624.144144,246.486486 625.585586,246.486486 L627.027027,246.486486 L628.468468,245.045045 C632.792793,242.162162 640,237.837838 644.324324,236.396396 C654.414414,232.072072 664.504505,230.630631 673.153153,230.630631 C706.306306,230.630631 723.603604,249.369369 723.603604,285.405405 L723.603604,381.981982 C723.603604,381.981982 723.603604,383.423423 722.162162,383.423423 L684.684685,381.981982 M759.63964,381.981982 C758.198198,381.981982 758.198198,381.981982 759.63964,381.981982 L758.198198,160 C758.198198,158.558559 758.198198,158.558559 759.63964,158.558559 C762.522523,158.558559 784.144144,172.972973 791.351351,180.18018 C797.117117,185.945946 800,194.594595 800,201.801802 L800,379.099099 C800,379.099099 800,380.540541 798.558559,380.540541 L759.63964,380.540541" id="Shape"></path>
                <path d="M317.117117,307.027027 C317.117117,360.36036 282.522523,384.864865 239.279279,384.864865 C196.036036,384.864865 161.441441,360.36036 161.441441,307.027027 C161.441441,253.693694 196.036036,229.189189 239.279279,229.189189 C282.522523,229.189189 317.117117,253.693694 317.117117,307.027027 M273.873874,307.027027 C273.873874,278.198198 259.459459,266.666667 240.720721,266.666667 C221.981982,266.666667 207.567568,279.63964 207.567568,307.027027 C207.567568,332.972973 221.981982,347.387387 240.720721,347.387387 C259.459459,348.828829 273.873874,334.414414 273.873874,307.027027 Z M520.36036,191.711712 C520.36036,190.27027 520.36036,190.27027 518.918919,190.27027 C516.036036,190.27027 492.972973,204.684685 487.207207,211.891892 C481.441441,217.657658 478.558559,226.306306 478.558559,233.513514 L478.558559,330.09009 C478.558559,371.891892 503.063063,384.864865 529.009009,384.864865 C543.423423,384.864865 553.513514,383.423423 559.279279,379.099099 C560.720721,379.099099 562.162162,377.657658 562.162162,374.774775 L562.162162,347.387387 C562.162162,345.945946 562.162162,345.945946 560.720721,345.945946 C559.279279,345.945946 549.189189,350.27027 543.423423,350.27027 C530.45045,350.27027 521.801802,344.504505 521.801802,322.882883 L521.801802,268.108108 C521.801802,266.666667 521.801802,266.666667 523.243243,266.666667 L559.279279,266.666667 C560.720721,266.666667 560.720721,266.666667 560.720721,265.225225 L560.720721,236.396396 C560.720721,233.513514 559.279279,232.072072 556.396396,232.072072 L523.243243,232.072072 C521.801802,232.072072 521.801802,232.072072 521.801802,230.630631 L520.36036,191.711712 M0,237.837838 C0,234.954955 2.88288288,233.513514 4.32432432,233.513514 L60.5405405,233.513514 C116.756757,233.513514 145.585586,266.666667 145.585586,309.90991 C145.585586,353.153153 113.873874,383.423423 60.5405405,383.423423 L43.2432432,383.423423 C41.8018018,383.423423 41.8018018,383.423423 41.8018018,384.864865 L41.8018018,455.495495 C41.8018018,456.936937 41.8018018,456.936937 40.3603604,456.936937 C37.4774775,456.936937 14.4144144,442.522523 8.64864865,435.315315 C2.88288288,429.54955 0,420.900901 0,413.693694 L0,237.837838 M103.783784,307.027027 C103.783784,288.288288 92.2522523,270.990991 60.5405405,270.990991 L43.2432432,270.990991 C41.8018018,270.990991 41.8018018,270.990991 41.8018018,272.432432 L41.8018018,341.621622 C41.8018018,343.063063 41.8018018,343.063063 43.2432432,343.063063 L60.5405405,343.063063 C98.018018,343.063063 103.783784,317.117117 103.783784,307.027027 Z M438.198198,301.261261 C429.54955,295.495495 418.018018,292.612613 407.927928,291.171171 C406.486486,291.171171 399.279279,289.72973 397.837838,288.288288 C384.864865,285.405405 374.774775,282.522523 374.774775,275.315315 C374.774775,268.108108 381.981982,263.783784 392.072072,263.783784 C405.045045,263.783784 423.783784,266.666667 443.963964,273.873874 C445.405405,273.873874 446.846847,273.873874 446.846847,272.432432 L446.846847,243.603604 C446.846847,242.162162 445.405405,239.279279 443.963964,239.279279 C436.756757,236.396396 415.135135,230.630631 397.837838,230.630631 C377.657658,230.630631 361.801802,234.954955 350.27027,243.603604 C338.738739,252.252252 332.972973,263.783784 332.972973,278.198198 C332.972973,311.351351 360.36036,317.117117 386.306306,322.882883 C390.630631,324.324324 389.189189,324.324324 390.630631,324.324324 C402.162162,327.207207 415.135135,330.09009 415.135135,338.738739 C415.135135,341.621622 413.693694,344.504505 412.252252,345.945946 C409.369369,348.828829 403.603604,350.27027 394.954955,350.27027 C379.099099,350.27027 347.387387,343.063063 338.738739,340.18018 C337.297297,340.18018 337.297297,341.621622 337.297297,341.621622 L337.297297,370.45045 C337.297297,371.891892 338.738739,374.774775 340.18018,374.774775 C340.18018,374.774775 367.567568,383.423423 392.072072,383.423423 C436.756757,383.423423 459.81982,366.126126 459.81982,334.414414 C455.495495,320 449.72973,308.468468 438.198198,301.261261" id="Shape"></path>
                <path d="M174.414414,194.594595 C171.531532,194.594595 168.648649,193.153153 168.648649,188.828829 L168.648649,171.531532 C168.648649,167.207207 171.531532,164.324324 175.855856,164.324324 L304.144144,164.324324 C308.468468,164.324324 311.351351,167.207207 311.351351,171.531532 L311.351351,187.387387 C311.351351,191.711712 309.90991,193.153153 305.585586,193.153153 L174.414414,193.153153 M289.72973,148.468468 C288.288288,148.468468 286.846847,148.468468 286.846847,147.027027 L286.846847,144.144144 C291.171171,131.171171 305.585586,90.8108108 305.585586,90.8108108 C307.027027,87.9279279 305.585586,85.045045 302.702703,83.6036036 L295.495495,80.7207207 L294.054054,80.7207207 C292.612613,80.7207207 291.171171,80.7207207 291.171171,82.1621622 C288.288288,89.3693694 286.846847,93.6936937 283.963964,100.900901 C283.963964,102.342342 282.522523,102.342342 281.081081,102.342342 L266.666667,102.342342 C265.225225,102.342342 265.225225,102.342342 263.783784,100.900901 L263.783784,98.018018 C268.108108,85.045045 270.990991,74.954955 276.756757,63.4234234 C278.198198,61.981982 279.63964,57.6576577 285.405405,57.6576577 L288.288288,57.6576577 C292.612613,59.0990991 298.378378,60.5405405 304.144144,61.981982 C308.468468,63.4234234 312.792793,64.8648649 318.558559,66.3063063 C332.972973,72.0720721 332.972973,82.1621622 330.09009,92.2522523 C328.648649,98.018018 320,122.522523 314.234234,136.936937 C312.792793,139.81982 312.792793,142.702703 311.351351,144.144144 C311.351351,145.585586 309.90991,147.027027 307.027027,147.027027 L289.72973,147.027027 L289.72973,148.468468 Z M230.630631,148.468468 C227.747748,148.468468 227.747748,145.585586 227.747748,144.144144 C227.747748,142.702703 226.306306,67.7477477 226.306306,57.6576577 C226.306306,56.2162162 226.306306,54.7747748 227.747748,54.7747748 C227.747748,54.7747748 229.189189,53.3333333 230.630631,53.3333333 L250.810811,53.3333333 C252.252252,53.3333333 252.252252,53.3333333 253.693694,54.7747748 C255.135135,56.2162162 255.135135,57.6576577 255.135135,57.6576577 C255.135135,67.7477477 253.693694,142.702703 253.693694,144.144144 C253.693694,144.144144 253.693694,148.468468 250.810811,148.468468 L230.630631,148.468468 Z M171.531532,148.468468 C168.648649,148.468468 168.648649,147.027027 167.207207,145.585586 C167.207207,144.144144 165.765766,141.261261 164.324324,138.378378 C158.558559,123.963964 151.351351,100.900901 148.468468,93.6936937 C145.585586,83.6036036 145.585586,72.0720721 160,67.7477477 C164.324324,66.3063063 170.09009,64.8648649 174.414414,63.4234234 C180.18018,61.981982 185.945946,60.5405405 190.27027,59.0990991 L193.153153,59.0990991 C197.477477,59.0990991 200.36036,61.981982 201.801802,64.8648649 C207.567568,76.3963964 210.45045,86.4864865 214.774775,99.4594595 L214.774775,102.342342 C214.774775,102.342342 213.333333,103.783784 211.891892,103.783784 L197.477477,103.783784 C196.036036,103.783784 194.594595,103.783784 194.594595,102.342342 C191.711712,95.1351351 190.27027,89.3693694 187.387387,83.6036036 C187.387387,83.6036036 185.945946,82.1621622 184.504505,82.1621622 L183.063063,82.1621622 L175.855856,85.045045 C172.972973,86.4864865 171.531532,89.3693694 172.972973,92.2522523 C172.972973,92.2522523 187.387387,132.612613 191.711712,145.585586 L191.711712,148.468468 C191.711712,148.468468 190.27027,149.90991 188.828829,149.90991 C188.828829,148.468468 171.531532,148.468468 171.531532,148.468468 L171.531532,148.468468 Z M239.279279,38.9189189 C237.837838,38.9189189 237.837838,38.9189189 236.396396,37.4774775 C230.630631,33.1531532 224.864865,27.3873874 220.540541,21.6216216 C220.540541,21.6216216 219.099099,20.1801802 220.540541,17.2972973 C224.864865,10.0900901 232.072072,5.76576577 237.837838,0 L240.720721,0 C246.486486,4.32432432 252.252252,10.0900901 258.018018,17.2972973 C259.459459,18.7387387 259.459459,20.1801802 258.018018,21.6216216 C253.693694,27.3873874 247.927928,33.1531532 242.162162,37.4774775 C240.720721,38.9189189 240.720721,38.9189189 239.279279,38.9189189 L239.279279,38.9189189 Z" id="Shape"></path>
            </g>
        </g>
    </g>
</svg>