<?xml version="1.0" encoding="UTF-8"?>
<svg width="980px" height="680px" viewBox="0 0 980 680" version="1.1" xmlns="http://www.w3.org/2000/svg" xmlns:xlink="http://www.w3.org/1999/xlink">
    <title>NL PostNL</title>
    <defs>
        <linearGradient x1="50%" y1="0%" x2="50%" y2="100%" id="linearGradient-1">
            <stop stop-color="#FFFFFF" offset="0%"></stop>
            <stop stop-color="#EDEDED" offset="100%"></stop>
        </linearGradient>
        <rect id="path-2" x="0" y="0" width="900" height="600" rx="80"></rect>
        <filter x="-6.7%" y="-10.0%" width="113.3%" height="120.0%" filterUnits="objectBoundingBox" id="filter-3">
            <feMorphology radius="2.5" operator="dilate" in="SourceAlpha" result="shadowSpreadOuter1"></feMorphology>
            <feOffset dx="0" dy="0" in="shadowSpreadOuter1" result="shadowOffsetOuter1"></feOffset>
            <feGaussianBlur stdDeviation="17.5" in="shadowOffsetOuter1" result="shadowBlurOuter1"></feGaussianBlur>
            <feColorMatrix values="0 0 0 0 0   0 0 0 0 0   0 0 0 0 0  0 0 0 0.5 0" type="matrix" in="shadowBlurOuter1"></feColorMatrix>
        </filter>
        <radialGradient cx="26.6114286%" cy="37.5358255%" fx="26.6114286%" fy="37.5358255%" r="71.1327489%" gradientTransform="translate(0.2661, 0.3754), scale(0.9869, 1), translate(-0.2661, -0.3754)" id="radialGradient-4">
            <stop stop-color="#FFC429" offset="0%"></stop>
            <stop stop-color="#F26F23" offset="100%"></stop>
        </radialGradient>
    </defs>
    <g id="NL-PostNL" stroke="none" stroke-width="1" fill="none" fill-rule="evenodd">
        <g transform="translate(40, 40)">
            <g id="Rectangle">
                <use fill="black" fill-opacity="1" filter="url(#filter-3)" xlink:href="#path-2"></use>
                <use fill="url(#linearGradient-1)" fill-rule="evenodd" xlink:href="#path-2"></use>
            </g>
            <g id="Logo" transform="translate(197, 50)" fill-rule="nonzero">
                <path d="M110.661269,0 C171.390013,0 269.230769,38.4615385 334.008097,74.2240216 C405.533063,114.035088 506.072874,194.331984 506.072874,249.662618 C506.072874,308.367072 402.834008,386.639676 334.008097,425.101215 C271.255061,459.51417 175.438596,500 112.68556,500 C95.8164642,500 82.3211876,497.300945 72.1997301,491.902834 C22.9419703,464.237517 0,346.82861 0,249.662618 C0,200.404858 6.07287449,148.448043 17.5438596,105.263158 C31.0391363,53.9811066 49.9325236,20.242915 72.1997301,7.42240216 C81.6464238,2.69905533 94.4669366,0 110.661269,0" id="Path" fill="#A6ACB2"></path>
                <path d="M489.203779,251.012146 C489.203779,209.176788 410.25641,135.62753 325.910931,89.0688259 C228.070175,35.7624831 117.408907,4.72334683 80.9716599,24.291498 C39.8110661,47.2334683 16.8690958,161.94332 16.8690958,251.012146 C16.8690958,340.755735 38.4615385,454.116059 80.9716599,477.732794 C120.107962,499.325236 226.045884,467.611336 325.236167,412.280702 C411.605938,365.721997 489.203779,295.546559 489.203779,251.012146" id="Path" fill="url(#radialGradient-4)"></path>
                <path d="M378.54251,293.522267 L377.867746,251.012146 C377.867746,241.565452 374.493927,237.516869 367.071525,237.516869 C364.37247,237.516869 360.99865,238.191633 358.299595,240.215924 C354.925776,242.240216 352.901484,243.589744 351.551957,244.264507 L350.877193,244.939271 L350.877193,292.847503 C350.877193,292.847503 350.877193,293.522267 350.202429,293.522267 L331.309042,293.522267 C331.309042,293.522267 330.634278,293.522267 330.634278,292.847503 L330.634278,225.37112 C330.634278,224.021592 331.309042,223.346829 332.65857,223.346829 L349.527665,223.346829 C349.527665,223.346829 350.202429,223.346829 350.202429,224.021592 L350.202429,229.419703 C350.202429,229.419703 350.202429,230.094467 350.877193,230.094467 L351.551957,230.094467 L352.226721,229.419703 C354.251012,228.070175 357.624831,226.045884 359.649123,225.37112 C364.37247,223.346829 369.095816,222.672065 373.144399,222.672065 C388.663968,222.672065 396.761134,231.443995 396.761134,248.31309 L396.761134,293.522267 C396.761134,293.522267 396.761134,294.197031 396.08637,294.197031 L378.54251,293.522267 M413.630229,293.522267 C412.955466,293.522267 412.955466,293.522267 413.630229,293.522267 L412.955466,189.608637 C412.955466,188.933873 412.955466,188.933873 413.630229,188.933873 C414.979757,188.933873 425.101215,195.681511 428.475034,199.055331 C431.174089,201.754386 432.523617,205.802969 432.523617,209.176788 L432.523617,292.17274 C432.523617,292.17274 432.523617,292.847503 431.848853,292.847503 L413.630229,292.847503" id="Shape" fill="#FFFFFF"></path>
                <path d="M206.477733,258.434548 C206.477733,283.40081 190.283401,294.871795 170.040486,294.871795 C149.797571,294.871795 133.603239,283.40081 133.603239,258.434548 C133.603239,233.468286 149.797571,221.997301 170.040486,221.997301 C190.283401,221.997301 206.477733,233.468286 206.477733,258.434548 M186.234818,258.434548 C186.234818,244.939271 179.487179,239.541161 170.71525,239.541161 C161.94332,239.541161 155.195682,245.614035 155.195682,258.434548 C155.195682,270.580297 161.94332,277.327935 170.71525,277.327935 C179.487179,278.002699 186.234818,271.255061 186.234818,258.434548 Z M301.619433,204.453441 C301.619433,203.778677 301.619433,203.778677 300.944669,203.778677 C299.595142,203.778677 288.79892,210.526316 286.099865,213.900135 C283.40081,216.59919 282.051282,220.647773 282.051282,224.021592 L282.051282,269.230769 C282.051282,288.79892 293.522267,294.871795 305.668016,294.871795 C312.415655,294.871795 317.139001,294.197031 319.838057,292.17274 C320.512821,292.17274 321.187584,291.497976 321.187584,290.148448 L321.187584,277.327935 C321.187584,276.653171 321.187584,276.653171 320.512821,276.653171 C319.838057,276.653171 315.11471,278.677463 312.415655,278.677463 C306.34278,278.677463 302.294197,275.978408 302.294197,265.85695 L302.294197,240.215924 C302.294197,239.541161 302.294197,239.541161 302.968961,239.541161 L319.838057,239.541161 C320.512821,239.541161 320.512821,239.541161 320.512821,238.866397 L320.512821,225.37112 C320.512821,224.021592 319.838057,223.346829 318.488529,223.346829 L302.968961,223.346829 C302.294197,223.346829 302.294197,223.346829 302.294197,222.672065 L301.619433,204.453441 M58.0296896,226.045884 C58.0296896,224.696356 59.3792173,224.021592 60.0539811,224.021592 L86.3697706,224.021592 C112.68556,224.021592 126.180837,239.541161 126.180837,259.784076 C126.180837,280.026991 111.336032,294.197031 86.3697706,294.197031 L78.2726046,294.197031 C77.5978408,294.197031 77.5978408,294.197031 77.5978408,294.871795 L77.5978408,327.935223 C77.5978408,328.609987 77.5978408,328.609987 76.9230769,328.609987 C75.5735493,328.609987 64.7773279,321.862348 62.0782726,318.488529 C59.3792173,315.789474 58.0296896,311.740891 58.0296896,308.367072 L58.0296896,226.045884 M106.612686,258.434548 C106.612686,249.662618 101.214575,241.565452 86.3697706,241.565452 L78.2726046,241.565452 C77.5978408,241.565452 77.5978408,241.565452 77.5978408,242.240216 L77.5978408,274.62888 C77.5978408,275.303644 77.5978408,275.303644 78.2726046,275.303644 L86.3697706,275.303644 C103.91363,275.303644 106.612686,263.157895 106.612686,258.434548 Z M263.157895,255.735493 C259.109312,253.036437 253.711201,251.68691 248.987854,251.012146 C248.31309,251.012146 244.939271,250.337382 244.264507,249.662618 C238.191633,248.31309 233.468286,246.963563 233.468286,243.589744 C233.468286,240.215924 236.842105,238.191633 241.565452,238.191633 C247.638327,238.191633 256.410256,239.541161 265.85695,242.91498 C266.531714,242.91498 267.206478,242.91498 267.206478,242.240216 L267.206478,228.744939 C267.206478,228.070175 266.531714,226.720648 265.85695,226.720648 C262.483131,225.37112 252.361673,222.672065 244.264507,222.672065 C234.817814,222.672065 227.395412,224.696356 221.997301,228.744939 C216.59919,232.793522 213.900135,238.191633 213.900135,244.939271 C213.900135,260.458839 226.720648,263.157895 238.866397,265.85695 C240.890688,266.531714 240.215924,266.531714 240.890688,266.531714 C246.288799,267.881242 252.361673,269.230769 252.361673,273.279352 C252.361673,274.62888 251.68691,275.978408 251.012146,276.653171 C249.662618,278.002699 246.963563,278.677463 242.91498,278.677463 C235.492578,278.677463 220.647773,275.303644 216.59919,273.954116 C215.924426,273.954116 215.924426,274.62888 215.924426,274.62888 L215.924426,288.124157 C215.924426,288.79892 216.59919,290.148448 217.273954,290.148448 C217.273954,290.148448 230.094467,294.197031 241.565452,294.197031 C262.483131,294.197031 273.279352,286.099865 273.279352,271.255061 C271.255061,264.507422 268.556005,259.109312 263.157895,255.735493" id="Shape" fill="#383792"></path>
                <path d="M139.676113,205.802969 C138.326586,205.802969 136.977058,205.128205 136.977058,203.103914 L136.977058,195.006748 C136.977058,192.982456 138.326586,191.632928 140.350877,191.632928 L200.404858,191.632928 C202.42915,191.632928 203.778677,192.982456 203.778677,195.006748 L203.778677,202.42915 C203.778677,204.453441 203.103914,205.128205 201.079622,205.128205 L139.676113,205.128205 M193.65722,184.210526 C192.982456,184.210526 192.307692,184.210526 192.307692,183.535762 L192.307692,182.186235 C194.331984,176.11336 201.079622,157.219973 201.079622,157.219973 C201.754386,155.870445 201.079622,154.520918 199.730094,153.846154 L196.356275,152.496626 L195.681511,152.496626 C195.006748,152.496626 194.331984,152.496626 194.331984,153.17139 C192.982456,156.545209 192.307692,158.569501 190.958165,161.94332 C190.958165,162.618084 190.283401,162.618084 189.608637,162.618084 L182.860999,162.618084 C182.186235,162.618084 182.186235,162.618084 181.511471,161.94332 L181.511471,160.593792 C183.535762,154.520918 184.88529,149.797571 187.584345,144.39946 C188.259109,143.724696 188.933873,141.700405 191.632928,141.700405 L192.982456,141.700405 C195.006748,142.375169 197.705803,143.049933 200.404858,143.724696 C202.42915,144.39946 204.453441,145.074224 207.152497,145.748988 C213.900135,148.448043 213.900135,153.17139 212.550607,157.894737 C211.875843,160.593792 207.82726,172.064777 205.128205,178.812416 C204.453441,180.161943 204.453441,181.511471 203.778677,182.186235 C203.778677,182.860999 203.103914,183.535762 201.754386,183.535762 L193.65722,183.535762 L193.65722,184.210526 Z M165.991903,184.210526 C164.642375,184.210526 164.642375,182.860999 164.642375,182.186235 C164.642375,181.511471 163.967611,146.423752 163.967611,141.700405 C163.967611,141.025641 163.967611,140.350877 164.642375,140.350877 C164.642375,140.350877 165.317139,139.676113 165.991903,139.676113 L175.438596,139.676113 C176.11336,139.676113 176.11336,139.676113 176.788124,140.350877 C177.462888,141.025641 177.462888,141.700405 177.462888,141.700405 C177.462888,146.423752 176.788124,181.511471 176.788124,182.186235 C176.788124,182.186235 176.788124,184.210526 175.438596,184.210526 L165.991903,184.210526 Z M138.326586,184.210526 C136.977058,184.210526 136.977058,183.535762 136.302294,182.860999 C136.302294,182.186235 135.62753,180.836707 134.952767,179.487179 C132.253711,172.739541 128.879892,161.94332 127.530364,158.569501 C126.180837,153.846154 126.180837,148.448043 132.928475,146.423752 C134.952767,145.748988 137.651822,145.074224 139.676113,144.39946 C142.375169,143.724696 145.074224,143.049933 147.098516,142.375169 L148.448043,142.375169 C150.472335,142.375169 151.821862,143.724696 152.496626,145.074224 C155.195682,150.472335 156.545209,155.195682 158.569501,161.268556 L158.569501,162.618084 C158.569501,162.618084 157.894737,163.292848 157.219973,163.292848 L150.472335,163.292848 C149.797571,163.292848 149.122807,163.292848 149.122807,162.618084 C147.773279,159.244265 147.098516,156.545209 145.748988,153.846154 C145.748988,153.846154 145.074224,153.17139 144.39946,153.17139 L143.724696,153.17139 L140.350877,154.520918 C139.00135,155.195682 138.326586,156.545209 139.00135,157.894737 C139.00135,157.894737 145.748988,176.788124 147.773279,182.860999 L147.773279,184.210526 C147.773279,184.210526 147.098516,184.88529 146.423752,184.88529 C146.423752,184.210526 138.326586,184.210526 138.326586,184.210526 L138.326586,184.210526 Z M170.040486,132.928475 C169.365722,132.928475 169.365722,132.928475 168.690958,132.253711 C165.991903,130.22942 163.292848,127.530364 161.268556,124.831309 C161.268556,124.831309 160.593792,124.156545 161.268556,122.807018 C163.292848,119.433198 166.666667,117.408907 169.365722,114.709852 L170.71525,114.709852 C173.414305,116.734143 176.11336,119.433198 178.812416,122.807018 C179.487179,123.481781 179.487179,124.156545 178.812416,124.831309 C176.788124,127.530364 174.089069,130.22942 171.390013,132.253711 C170.71525,132.928475 170.71525,132.928475 170.040486,132.928475 L170.040486,132.928475 Z" id="Shape" fill="#FFFFFF"></path>
            </g>
        </g>
    </g>
</svg>