<?xml version="1.0" encoding="UTF-8"?>
<svg width="980px" height="680px" viewBox="0 0 980 680" version="1.1" xmlns="http://www.w3.org/2000/svg" xmlns:xlink="http://www.w3.org/1999/xlink">
    <title>NL TNT express</title>
    <defs>
        <linearGradient x1="50%" y1="0%" x2="50%" y2="100%" id="linearGradient-1">
            <stop stop-color="#FFFFFF" offset="0%"></stop>
            <stop stop-color="#EDEDED" offset="100%"></stop>
        </linearGradient>
        <rect id="path-2" x="0" y="0" width="900" height="600" rx="80"></rect>
        <filter x="-6.7%" y="-10.0%" width="113.3%" height="120.0%" filterUnits="objectBoundingBox" id="filter-3">
            <feMorphology radius="2.5" operator="dilate" in="SourceAlpha" result="shadowSpreadOuter1"></feMorphology>
            <feOffset dx="0" dy="0" in="shadowSpreadOuter1" result="shadowOffsetOuter1"></feOffset>
            <feGaussianBlur stdDeviation="17.5" in="shadowOffsetOuter1" result="shadowBlurOuter1"></feGaussianBlur>
            <feColorMatrix values="0 0 0 0 0   0 0 0 0 0   0 0 0 0 0  0 0 0 0.5 0" type="matrix" in="shadowBlurOuter1"></feColorMatrix>
        </filter>
    </defs>
    <g id="NL-TNT-express" stroke="none" stroke-width="1" fill="none" fill-rule="evenodd">
        <g transform="translate(40, 40)">
            <g id="Rectangle">
                <use fill="black" fill-opacity="1" filter="url(#filter-3)" xlink:href="#path-2"></use>
                <use fill="url(#linearGradient-1)" fill-rule="evenodd" xlink:href="#path-2"></use>
            </g>
            <g id="Logo" transform="translate(50, 65)" fill-rule="nonzero">
                <g id="TNT" fill="#FF6600">
                    <path d="M455.392058,79.6611546 C456.464645,79.6502152 457.496553,80.0713723 458.255027,80.8298467 C459.013502,81.5883211 459.434659,82.6202293 459.424,83.692816 L459.424,206.087494 C459.439811,207.076073 459.054288,208.028958 458.355163,208.728084 C457.656037,209.427209 456.703152,209.812731 455.714574,209.796424 L430.397097,209.796424 C428.762055,209.570836 427.239113,208.837567 426.043136,207.700073 C426.043136,207.700073 380.568434,145.2933 379.117113,143.680722 C377.881885,141.866324 376.854155,139.919047 376.053215,137.87544 L376.053215,206.087494 C376.059754,207.101499 375.648671,208.073499 374.916557,208.775109 C374.184442,209.476719 373.195837,209.846087 372.183028,209.796424 L343.801653,209.796424 C342.788844,209.846087 341.800239,209.476719 341.068124,208.775109 C340.336009,208.073499 339.924927,207.101499 339.931389,206.087494 L339.931389,83.692816 C339.924927,82.6788112 340.336009,81.7068114 341.068124,81.0052014 C341.800239,80.3035915 342.788844,79.9342238 343.801653,79.9838864 L369.119129,79.9838864 C370.716723,80.177948 372.198026,80.9185995 373.311832,82.0802379 C373.311832,82.0802379 418.302762,143.358206 420.237855,146.099589 C421.497863,147.925987 422.577961,149.870163 423.463011,151.90487 L423.463011,83.692816 C423.446704,82.7042377 423.832226,81.7513524 424.531352,81.0522268 C425.230478,80.3531013 426.183363,79.967579 427.171941,79.9838864 C427.171941,79.6611546 453.618222,79.6611546 455.392058,79.6611546 Z M655.351744,256.883705 C593.75126,256.883705 543.600081,206.571268 543.600081,144.809526 C543.600081,82.8865269 593.75126,32.5740899 655.351744,32.5740899 C716.79097,32.5740899 766.942149,82.8865269 766.942149,144.809526 C766.942149,206.571268 716.79097,256.883705 655.351744,256.883705 Z M399.758113,256.883705 C338.15763,256.883705 288.00645,206.571268 288.00645,144.809526 C288.00645,82.8865269 338.15763,32.5740899 399.758113,32.5740899 C461.197339,32.5740899 511.348518,82.8865269 511.348518,144.809526 C511.348518,206.571268 461.197339,256.883705 399.758113,256.883705 Z M144.164483,256.883705 C82.5639992,256.883705 32.41282,206.571268 32.41282,144.809526 C32.41282,82.8865269 82.5639992,32.5740899 144.164483,32.5740899 C205.603709,32.5740899 255.754888,82.8865269 255.754888,144.809526 C255.59363,206.571268 205.442451,256.883705 144.164483,256.883705 Z M655.351744,-9.47963215e-15 C599.879057,-9.47963215e-15 551.662971,31.7678009 527.313042,78.0487926 C502.678927,30.1266454 453.318543,-9.47963215e-15 399.435598,-9.47963215e-15 C345.552652,-9.47963215e-15 296.192268,30.1266454 271.558154,78.0487926 C246.82517,30.1423879 197.43367,0.0347229216 143.519452,-9.47963215e-15 C64.6643822,-9.47963215e-15 0,64.9869099 0,144.809526 C0,224.470885 64.6643822,289.457783 144.164483,289.457783 C199.475912,289.457783 247.853255,257.689994 272.041927,211.409002 C296.737599,259.273894 346.059205,289.376866 399.919371,289.457783 C455.392058,289.457783 503.608144,257.689994 527.958073,211.409002 C552.6214,259.303988 601.963373,289.419392 655.835517,289.457783 C735.335618,289.457783 800,224.470885 800,144.809526 C799.516227,64.9869099 734.690587,-9.47963215e-15 655.351744,-9.47963215e-15 Z M89.9818585,82.0797404 C88.9932779,82.063923 88.0403882,82.4494429 87.341261,83.1485701 C86.6421338,83.8476973 86.256614,84.800587 86.2724313,85.7891675 L86.2724313,110.139097 C86.256614,111.127678 86.6421338,112.080567 87.341261,112.779694 C88.0403882,113.478822 88.9932779,113.864342 89.9818585,113.848027 L119.33078,113.848027 C121.221741,113.831691 123.108646,113.669957 124.974803,113.364253 L124.974803,209.312651 C124.958496,210.301229 125.344018,211.254114 126.043144,211.95324 C126.742269,212.652365 127.695155,213.037888 128.683733,213.022077 L158.838944,213.022077 C159.827522,213.037888 160.780407,212.652365 161.479533,211.95324 C162.178658,211.254114 162.564181,210.301229 162.547873,209.312651 L162.547873,113.364253 C164.902183,113.657002 167.27096,113.818509 169.643217,113.848027 L197.702076,113.848027 C198.690655,113.864334 199.64354,113.478812 200.342665,112.779686 C201.041791,112.080561 201.427313,111.127675 201.411503,110.139097 L201.411503,85.7891675 C201.427313,84.8005892 201.041791,83.8477039 200.342665,83.1485784 C199.64354,82.4494528 198.690655,82.0639306 197.702076,82.0797404 L89.9818585,82.0797404 Z M709.37311,82.0797404 C710.361689,82.0639306 711.314574,82.4494528 712.013699,83.1485784 C712.712825,83.8477039 713.098347,84.8005892 713.082537,85.7891675 L713.082537,110.139097 C713.098347,111.127675 712.712825,112.080561 712.013699,112.779686 C711.314574,113.478812 710.361689,113.864334 709.37311,113.848027 L681.475509,113.848027 C679.049494,113.82272 676.626813,113.661208 674.218907,113.364253 L674.218907,209.312651 C674.235222,210.301231 673.849703,211.254121 673.150575,211.953248 C672.451448,212.652375 671.498558,213.037895 670.509978,213.022078 L640.354767,213.022078 C639.366189,213.037888 638.413304,212.652365 637.714178,211.95324 C637.015052,211.254114 636.62953,210.301229 636.645838,209.312651 L636.645838,113.364253 C634.779679,113.669954 632.892775,113.831689 631.001814,113.848027 L601.652893,113.848027 C600.664312,113.864342 599.711422,113.478822 599.012295,112.779694 C598.313168,112.080567 597.927648,111.127678 597.943465,110.139097 L597.943465,85.7891675 C597.927648,84.800587 598.313168,83.8476973 599.012295,83.1485701 C599.711422,82.4494429 600.664312,82.063923 601.652893,82.0797404 L709.37311,82.0797404 Z" id="Shape"></path>
                </g>
                <path d="M167.62,417.62 C179.14,417.62 188.5,415.1 199.12,408.08 L199.12,392.42 C190.48,398.72 180.22,402.32 169.78,402.32 C154.66,402.32 144.76,392.24 143.68,376.94 L200.56,376.94 L200.56,375.32 C200.56,348.86 185.44,333.56 165.28,333.56 C142.06,333.56 127.48,351.56 127.48,374.96 C127.48,401.6 146.02,417.62 167.62,417.62 Z M184.72,367.4 L144.04,367.4 C144.94,356.24 153.58,347.42 165.1,347.42 C177.16,347.42 184,354.98 184.72,367.4 Z M227.38,416 L251.32,387.02 L276.7,416 L297.22,416 L261.58,374.96 L294.88,335.18 L274.36,335.18 L251.32,362.9 L227.38,335.18 L207.22,335.18 L241.24,374.96 L207.22,416 L227.38,416 Z M324.94,457.4 L324.94,414.02 C333.4,417.26 336.1,417.62 342.4,417.62 C366.16,417.62 382.54,399.26 382.54,375.68 C382.54,349.4 365.26,335.18 338.98,335.18 L308.92,335.18 L308.92,457.4 L324.94,457.4 Z M340.78,403.58 C334.66,403.58 328.72,401.96 324.94,399.8 L324.94,349.22 L338.26,349.22 C356.98,349.22 366.16,358.94 366.16,375.68 C366.16,392.24 355.54,403.58 340.78,403.58 Z M415.66,416 L415.66,372.98 C415.66,357.86 426.82,348.86 434.74,348.86 C439.24,348.86 445.54,352.28 450.22,356.78 L458.68,342.74 C453.28,337.34 446.44,333.56 439.78,333.56 C432.22,333.56 424.84,338.6 415.66,353.72 L415.66,335.18 L399.64,335.18 L399.64,416 L415.66,416 Z M501.52,417.62 C513.04,417.62 522.4,415.1 533.02,408.08 L533.02,392.42 C524.38,398.72 514.12,402.32 503.68,402.32 C488.56,402.32 478.66,392.24 477.58,376.94 L534.46,376.94 L534.46,375.32 C534.46,348.86 519.34,333.56 499.18,333.56 C475.96,333.56 461.38,351.56 461.38,374.96 C461.38,401.6 479.92,417.62 501.52,417.62 Z M518.62,367.4 L477.94,367.4 C478.84,356.24 487.48,347.42 499,347.42 C511.06,347.42 517.9,354.98 518.62,367.4 Z M575.5,417.62 C596.02,417.62 603.22,404.12 603.22,394.58 C603.22,381.44 591.34,374.06 581.62,368.48 C567.427,360.443 565.74265,357.9293 565.609698,354.302818 L565.603261,354.072235 C565.600972,353.956142 565.6,353.8388 565.6,353.72 C565.6,350.66 568.48,347.6 575.86,347.6 C583.24,347.6 590.08,350.66 599.26,356.24 L599.26,340.22 C591.16,335.72 583.06,333.56 574.78,333.56 C559.84,333.56 549.04,342.38 549.04,354.62 C549.04,365.78 556.78,372.44 567.4,378.92 C585.22,389.36 586.66,390.98 586.66,396.02 C586.66,399.8 583.24,403.58 574.24,403.58 C566.68,403.58 556.06,398.9 548.5,392.96 L548.5,410.24 C560.56,416.18 566.68,417.62 575.5,417.62 Z M644.8,417.62 C665.32,417.62 672.52,404.12 672.52,394.58 C672.52,381.44 660.64,374.06 650.92,368.48 C636.727,360.443 635.04265,357.9293 634.909697,354.302818 L634.903261,354.072235 C634.900972,353.956142 634.9,353.8388 634.9,353.72 C634.9,350.66 637.78,347.6 645.16,347.6 C652.54,347.6 659.38,350.66 668.56,356.24 L668.56,340.22 C660.46,335.72 652.36,333.56 644.08,333.56 C629.14,333.56 618.34,342.38 618.34,354.62 C618.34,365.78 626.08,372.44 636.7,378.92 C654.52,389.36 655.96,390.98 655.96,396.02 C655.96,399.8 652.54,403.58 643.54,403.58 C635.98,403.58 625.36,398.9 617.8,392.96 L617.8,410.24 C629.86,416.18 635.98,417.62 644.8,417.62 Z" id="express" fill="#000000"></path>
            </g>
        </g>
    </g>
</svg>