<?xml version="1.0" encoding="UTF-8"?>
<svg width="980px" height="680px" viewBox="0 0 980 680" version="1.1" xmlns="http://www.w3.org/2000/svg" xmlns:xlink="http://www.w3.org/1999/xlink">
    <title>NO Posten Norge text</title>
    <defs>
        <linearGradient x1="50%" y1="0%" x2="50%" y2="100%" id="linearGradient-1">
            <stop stop-color="#FFFFFF" offset="0%"></stop>
            <stop stop-color="#EDEDED" offset="100%"></stop>
        </linearGradient>
        <rect id="path-2" x="0" y="0" width="900" height="600" rx="80"></rect>
        <filter x="-6.7%" y="-10.0%" width="113.3%" height="120.0%" filterUnits="objectBoundingBox" id="filter-3">
            <feMorphology radius="2.5" operator="dilate" in="SourceAlpha" result="shadowSpreadOuter1"></feMorphology>
            <feOffset dx="0" dy="0" in="shadowSpreadOuter1" result="shadowOffsetOuter1"></feOffset>
            <feGaussianBlur stdDeviation="17.5" in="shadowOffsetOuter1" result="shadowBlurOuter1"></feGaussianBlur>
            <feColorMatrix values="0 0 0 0 0   0 0 0 0 0   0 0 0 0 0  0 0 0 0.5 0" type="matrix" in="shadowBlurOuter1"></feColorMatrix>
        </filter>
    </defs>
    <g id="NO-Posten-Norge-text" stroke="none" stroke-width="1" fill="none" fill-rule="evenodd">
        <g transform="translate(40, 40)">
            <g id="Rectangle">
                <use fill="black" fill-opacity="1" filter="url(#filter-3)" xlink:href="#path-2"></use>
                <use fill="url(#linearGradient-1)" fill-rule="evenodd" xlink:href="#path-2"></use>
            </g>
            <g id="Logo" transform="translate(50, 178)" fill-rule="nonzero">
                <path d="M483.713983,153.072861 C473.955002,152.47961 467.570136,152.47961 467.963165,141.511879 C468.163091,135.127013 469.809659,130.551564 489.149647,131.144815 C502.304992,131.545259 506.428088,134.33354 506.428088,143.706908 L527.162216,143.706908 C527.162216,120.577528 513.072501,113.399189 488.949425,113.00616 C463.031765,112.605716 445.842312,117.98947 445.441868,142.112546 C444.841201,172.01982 467.169692,171.218931 488.897516,172.412849 C500.065469,173.0061 506.835948,173.206323 506.442919,184.767305 C506.242993,191.752837 503.95868,196.13548 484.618691,195.542229 C468.675066,195.141785 465.753304,191.15217 465.753304,182.779913 L445.004345,182.779913 C445.004345,206.702767 460.295394,213.080217 484.818914,213.480661 C510.936796,213.881106 528.370965,207.703878 528.77141,183.773609 C529.372076,152.679832 506.042474,154.474417 483.713983,153.072861 M578.938211,195.141785 C567.97048,194.934147 566.643081,189.387248 566.643081,181.979024 L566.643081,134.222305 L610.944112,134.222305 L610.944112,114.778498 L566.643081,114.778498 L566.643081,83.3361865 L544.114368,83.3361865 L544.114368,114.778498 L531.003517,114.778498 L531.003517,134.222305 L544.114368,134.222305 L544.114368,181.979024 C544.114368,203.714264 557.06949,213.480661 579.605619,213.480661 C598.938191,213.480661 611.211075,206.109515 611.211075,182.779913 L590.751325,182.779913 C590.521737,188.986804 589.105053,195.334591 578.938211,195.141785 M762.304731,113.00616 C748.54872,113.00616 739.783434,117.388803 734.199457,122.372113 L734.199457,114.778498 L714.659247,114.778498 L714.659247,211.886299 L737.18796,211.886299 L737.18796,166.62865 C737.18796,149.683914 735.38596,132.9394 759.716673,132.9394 C779.249468,132.9394 777.454883,141.912324 777.454883,160.651645 L777.454883,211.886299 L799.991012,211.886299 L799.991012,158.85706 C799.991012,137.722487 801.585374,113.00616 762.304731,113.00616 M639.153205,153.473306 C639.153205,140.518183 641.140596,131.545259 660.881029,131.545259 C681.815379,131.545259 683.001882,139.524488 683.001882,153.473306 L639.153205,153.473306 L639.153205,153.473306 Z M660.881029,113.00616 C621.800608,113.00616 616.224047,135.327236 616.224047,164.433621 C616.224047,192.746533 622.408691,213.480661 661.47428,213.480661 C679.813157,213.480661 704.14387,208.897796 704.14387,182.779913 L682.34189,182.779913 C682.149083,193.747644 670.439788,194.941562 662.275169,194.941562 C642.927765,194.941562 638.745345,188.36389 638.745345,171.812182 L705.337788,171.812182 C705.337788,137.930125 703.342981,113.00616 660.881029,113.00616 M392.501617,193.547422 C370.766377,193.547422 368.778985,185.175165 368.778985,163.239703 C368.778985,141.311657 370.766377,132.9394 392.501617,132.9394 C414.229441,132.9394 416.231663,141.311657 416.231663,163.239703 C416.231663,185.175165 414.229441,193.547422 392.501617,193.547422 M392.501617,113.00616 C376.750798,113.00616 364.989594,115.794441 356.617337,123.973891 C348.044857,132.138511 346.250272,144.700604 346.250272,163.239703 C346.250272,181.786218 348.044857,194.340895 356.617337,202.51293 C364.989594,210.692381 376.750798,213.480661 392.501617,213.480661 C408.052213,213.480661 420.013639,210.692381 428.393312,202.51293 C436.958376,194.340895 438.745545,181.786218 438.745545,163.239703 C438.745545,144.700604 436.958376,132.138511 428.393312,123.973891 C420.013639,115.794441 408.052213,113.00616 392.501617,113.00616 M295.245503,193.547422 C275.905515,193.547422 270.521761,187.763223 270.521761,163.447341 C270.521761,139.116627 275.905515,132.9394 295.245503,132.9394 C311.990018,132.9394 315.579187,140.71099 315.579187,163.447341 C315.579187,186.168861 311.990018,193.547422 295.245503,193.547422 M298.834673,113.00616 C288.460193,112.805642 276.706404,115.193774 268.526954,122.372113 L268.526954,114.778498 L248.19327,114.778498 L248.19327,243.350857 L270.721983,243.350857 L270.721983,204.900766 C277.299656,211.886299 285.671913,213.480661 296.239199,213.480661 C333.903232,213.480661 338.085653,186.962334 338.085653,163.447341 C338.085653,132.538955 333.502788,113.399189 298.834673,113.00616" id="path32" fill="#E32D22"></path>
                <path d="M211.583029,114.77482 C209.33609,143.184135 185.583796,165.542289 156.596061,165.542289 C127.608326,165.542289 103.856032,143.184135 101.609094,114.77482 L0,114.77482 C2.32109519,173.677245 50.7748843,220.722063 110.248314,220.722063 C169.714328,220.722063 218.175532,173.677245 220.496628,114.77482 L211.583029,114.77482 Z" id="path36" fill="#E32D22"></path>
                <path d="M101.609094,105.947243 C103.856032,77.5379275 127.608326,55.1797742 156.596061,55.1797742 C185.583796,55.1797742 209.33609,77.5379275 211.583029,105.947243 L220.496628,105.947243 C218.175532,47.0448175 169.714328,0 110.248314,0 C50.7748843,0 2.32109519,47.0448175 8.43060614e-14,105.947243 L101.609094,105.947243 L101.609094,105.947243 Z" id="path40" fill="#BCBDBF"></path>
            </g>
        </g>
    </g>
</svg>