<?xml version="1.0" encoding="UTF-8"?>
<svg width="980px" height="680px" viewBox="0 0 980 680" version="1.1" xmlns="http://www.w3.org/2000/svg" xmlns:xlink="http://www.w3.org/1999/xlink">
    <title>NZ Air New Zealand alt</title>
    <defs>
        <rect id="path-1" x="0" y="0" width="900" height="600" rx="80"></rect>
        <filter x="-6.7%" y="-10.0%" width="113.3%" height="120.0%" filterUnits="objectBoundingBox" id="filter-2">
            <feMorphology radius="2.5" operator="dilate" in="SourceAlpha" result="shadowSpreadOuter1"></feMorphology>
            <feOffset dx="0" dy="0" in="shadowSpreadOuter1" result="shadowOffsetOuter1"></feOffset>
            <feGaussianBlur stdDeviation="17.5" in="shadowOffsetOuter1" result="shadowBlurOuter1"></feGaussianBlur>
            <feColorMatrix values="0 0 0 0 0   0 0 0 0 0   0 0 0 0 0  0 0 0 0.5 0" type="matrix" in="shadowBlurOuter1"></feColorMatrix>
        </filter>
    </defs>
    <g id="NZ-Air-New-Zealand-alt" stroke="none" stroke-width="1" fill="none" fill-rule="evenodd">
        <g transform="translate(40, 40)">
            <g id="Rectangle">
                <use fill="black" fill-opacity="1" filter="url(#filter-2)" xlink:href="#path-1"></use>
                <use fill="#231F20" fill-rule="evenodd" xlink:href="#path-1"></use>
            </g>
            <g id="Logo" transform="translate(200, 50)" fill="#FFFFFF" fill-rule="nonzero">
                <path d="M309.073724,0 C252.400756,0 199.943289,40.2646503 170.132325,69.4706994 C64.0831758,172.911153 8.03402647,242.911153 8.03402647,242.911153 L480.623819,242.911153 L501.890359,195.652174 L120.510397,195.652174 C120.510397,195.652174 149.300567,156.219282 211.247637,97.826087 C226.805293,83.2703214 267.542533,46.7863894 309.073724,46.7863894 C336.351607,46.7863894 357.750473,63.8374291 357.750473,86.9565217 C357.750473,109.829868 338.374291,116.257089 338.374291,116.257089 C340.396975,106.483932 333.837429,79.8676749 308.128544,79.8676749 C281.47448,79.8676749 270.321361,100.20794 270.321361,113.89414 C270.321361,142.022684 295.916824,162.098299 325.614367,162.098299 C382.722117,162.098299 409.26276,121.493384 409.26276,82.2306238 C409.26276,42.6086957 370.642722,0 309.073724,0 Z M0,267.485822 C0,267.485822 24.8015123,338.809074 57.6559546,406.899811 C85.5009452,464.914934 131.68242,500 188.090737,500 C241.096408,500 276.937618,459.678639 276.937618,421.077505 C276.937618,377.391304 243.705104,348.771267 204.15879,348.771267 C161.984877,348.771267 153.119093,380.47259 153.119093,388.468809 C153.119093,406.899811 168.544423,423.913043 188.090737,423.913043 C218.865784,423.913043 221.172023,399.338374 221.172023,399.338374 C221.172023,399.338374 230.623819,405.387524 230.623819,421.077505 C230.623819,436.162571 217.844991,455.57656 188.090737,455.57656 C164.347826,455.57656 129.451796,443.062382 105.387524,392.249527 C77.0888469,332.759924 75.1417769,315.217391 75.1417769,315.217391 L448.015123,315.217391 L469.281664,267.485822 L0,267.485822 Z" id="koru"></path>
            </g>
        </g>
    </g>
</svg>