<?xml version="1.0" encoding="UTF-8"?>
<svg width="980px" height="680px" viewBox="0 0 980 680" version="1.1" xmlns="http://www.w3.org/2000/svg" xmlns:xlink="http://www.w3.org/1999/xlink">
    <title>NZ Air New Zealand text</title>
    <defs>
        <linearGradient x1="50%" y1="0%" x2="50%" y2="100%" id="linearGradient-1">
            <stop stop-color="#FFFFFF" offset="0%"></stop>
            <stop stop-color="#EDEDED" offset="100%"></stop>
        </linearGradient>
        <rect id="path-2" x="0" y="0" width="900" height="600" rx="80"></rect>
        <filter x="-6.7%" y="-10.0%" width="113.3%" height="120.0%" filterUnits="objectBoundingBox" id="filter-3">
            <feMorphology radius="2.5" operator="dilate" in="SourceAlpha" result="shadowSpreadOuter1"></feMorphology>
            <feOffset dx="0" dy="0" in="shadowSpreadOuter1" result="shadowOffsetOuter1"></feOffset>
            <feGaussianBlur stdDeviation="17.5" in="shadowOffsetOuter1" result="shadowBlurOuter1"></feGaussianBlur>
            <feColorMatrix values="0 0 0 0 0   0 0 0 0 0   0 0 0 0 0  0 0 0 0.5 0" type="matrix" in="shadowBlurOuter1"></feColorMatrix>
        </filter>
    </defs>
    <g id="NZ-Air-New-Zealand-text" stroke="none" stroke-width="1" fill="none" fill-rule="evenodd">
        <g transform="translate(40, 40)">
            <g id="Rectangle">
                <use fill="black" fill-opacity="1" filter="url(#filter-3)" xlink:href="#path-2"></use>
                <use fill="url(#linearGradient-1)" fill-rule="evenodd" xlink:href="#path-2"></use>
            </g>
            <g id="Logo" transform="translate(50, 238)" fill="#231F20" fill-rule="nonzero">
                <path d="M35.1764706,62.5882353 L0,113.294118 L6.35294118,113.294118 L15.0588235,100.941176 L35.8823529,100.941176 L36.8235294,106.705882 C37.4964706,111.270588 38.6870588,113.294118 44,113.294118 L49.2941176,113.294118 L40.8235294,62.5882353 L35.1764706,62.5882353 Z M65.7647059,66.7058824 L55.2941176,113.294118 L66.5882353,113.294118 L77.0588235,66.7058824 L65.7647059,66.7058824 Z M86,66.7058824 L88.2352941,70.7058824 L78.7058824,113.294118 L90,113.294118 L99.4117647,70.9411765 L102.941176,70.9411765 C109.44,70.9411765 112.150588,74.7247059 111.647059,80.3529412 C111.228235,85.3929412 107.505882,90.9176471 96.1176471,92.1176471 L105.294118,108.235294 C107.656471,112.338824 108.696471,113.294118 114.941176,113.294118 L120.941176,113.294118 L108.352941,93.5294118 C115.101176,92.4941176 122.451765,88.2588235 123.294118,80.7058824 C124.305882,72.0423529 118.075294,66.7058824 107.529412,66.7058824 L86,66.7058824 Z M154.470588,66.7058824 L157.411765,72.1176471 L148.235294,113.294118 L154.117647,113.294118 L161.882353,79.0588235 L179.411765,108.235294 C181.341176,111.524706 183.068235,113.294118 188.470588,113.294118 L198.941176,66.7058824 L193.058824,66.7058824 L185.764706,98.9411765 L169.882353,71.6470588 C167.595294,67.7035294 166.423529,66.7058824 161.529412,66.7058824 L154.470588,66.7058824 Z M209.411765,66.7058824 L198.941176,113.294118 L234.941176,113.294118 C234.268235,110.084706 232.837647,108.823529 228.705882,108.823529 L211.411765,108.823529 L215.294118,91.6470588 L233.058824,91.6470588 L234.117647,86.9411765 L216.235294,86.9411765 L219.764706,71.1764706 L236.235294,71.1764706 C240.367059,71.1764706 241.792941,69.9105882 242.470588,66.7058824 L209.411765,66.7058824 Z M246.588235,66.7058824 L253.764706,113.294118 L259.176471,113.294118 L275.294118,85.5294118 L279.176471,113.294118 L284.588235,113.294118 L312.588235,66.7058824 L306.588235,66.7058824 L287.176471,99.2941176 L283.411765,68.7058824 C283.246871,67.2705882 282.028235,66.7058824 280.588235,66.7058824 L272.823529,66.7058824 L274.352941,77.7647059 L262.117647,99.2941176 L257.529412,68.7058824 C257.355482,67.2705882 256.141176,66.7058824 254.705882,66.7058824 L246.588235,66.7058824 Z M336.588235,66.7058824 C337.261176,69.9152941 338.682353,71.1764706 342.823529,71.1764706 L363.764706,71.1764706 L330.588235,104.588235 C327.722353,107.491765 325.816471,109.364706 325.647059,113.294118 L368.705882,113.294118 C368.032941,110.108235 366.654118,108.837647 362.588235,108.823529 L362.470776,108.823529 L340.706071,108.823529 L372.706071,75.8823529 C376.748424,71.5529412 377.661365,69.3458824 378.000188,66.7058824 L336.588424,66.7058824 L336.588235,66.7058824 Z M386.705882,66.7058824 L376.352941,113.294118 L412.235294,113.294118 C411.548235,110.084706 410.131765,108.823529 406,108.823529 L388.705882,108.823529 L392.588235,91.6470588 L410.352941,91.6470588 L411.411765,86.9411765 L393.529412,86.9411765 L397.058824,71.1764706 L413.529412,71.1764706 C417.665882,71.1764706 419.091765,69.9152941 419.764706,66.7058824 L386.705882,66.7058824 Z M446.588235,66.7058824 L415.058824,113.294118 L421.411765,113.294118 L429.764706,100.941176 L448.705882,100.941176 L449.882353,106.705882 C450.903529,111.218824 451.976471,113.294118 457.294118,113.294118 L462.705882,113.294118 L452.235294,66.7058824 L446.588235,66.7058824 Z M479.176471,66.7058824 L468.705882,113.294118 L500,113.294118 C499.327059,110.089412 497.778824,108.823529 493.647059,108.823529 L481.058824,108.823529 L490.470588,66.7058824 L479.176471,66.7058824 Z M534.235294,66.7058824 L502.823529,113.294118 L509.058824,113.294118 L517.411765,100.941176 L536.352941,100.941176 L537.647059,106.705882 C538.654118,111.218824 539.741176,113.294118 545.058824,113.294118 L550.470588,113.294118 L539.882353,66.7058824 L534.235294,66.7058824 Z M562.705882,66.7058824 L565.764706,72.1176471 L556.470588,113.294118 L562.470588,113.294118 L570.117647,79.0588235 L587.647059,108.235294 C589.6,111.524706 591.416471,113.294118 596.823529,113.294118 L607.176471,66.7058824 L601.294118,66.7058824 L594.117647,98.9411765 L578.117647,71.6470588 C575.844706,67.7035294 574.658824,66.7058824 569.764706,66.7058824 L562.705882,66.7058824 Z M616.235294,66.7058824 L618.352941,70.7058824 L608.823529,113.294118 L626,113.294118 C641.355294,113.294118 655.675294,104.767059 658.117647,90 C660.56,75.4023529 650.047059,66.7058824 635.176471,66.7058824 L622.588235,66.7058824 L619.294118,66.7058824 L616.235294,66.7058824 Z M629.647059,71.0588235 L632.705882,71.0588235 C643.411765,71.0588235 648.324706,78.1176471 646.470588,90 C644.602353,102.032941 634.941176,109.058824 624.235294,109.058824 L621.058824,109.058824 L629.647059,71.0588235 Z M32.1176471,76.7058824 L35.1764706,96.1176471 L18.4705882,96.1176471 L32.1176471,76.7058824 Z M443.882353,79.7647059 L447.529412,96.1176471 L432.941176,96.1176471 L443.882353,79.7647059 Z M531.647059,79.7647059 L535.294118,96.1176471 L520.705882,96.1176471 L531.647059,79.7647059 Z" id="AirNewZealand"></path>
                <path d="M752,0 C737.891765,0 724.832941,10.0235294 717.411765,17.2941176 C691.011765,43.0447059 677.058824,60.4705882 677.058824,60.4705882 L794.705882,60.4705882 L800,48.7058824 L705.058824,48.7058824 C705.058824,48.7058824 712.225882,38.8894118 727.647059,24.3529412 C731.52,20.7294118 741.661176,11.6470588 752,11.6470588 C758.790588,11.6470588 764.117647,15.8917647 764.117647,21.6470588 C764.117647,27.3411765 759.294118,28.9411765 759.294118,28.9411765 C759.797647,26.5082353 758.164706,19.8823529 751.764706,19.8823529 C745.129412,19.8823529 742.352941,24.9458824 742.352941,28.3529412 C742.352941,35.3552941 748.724706,40.3529412 756.117647,40.3529412 C770.334118,40.3529412 776.941176,30.2447059 776.941176,20.4705882 C776.941176,10.6070588 767.327059,0 752,0 Z M675.058824,66.5882353 C675.058824,66.5882353 681.232941,84.3435294 689.411765,101.294118 C696.343529,115.736471 707.84,124.470588 721.882353,124.470588 C735.077647,124.470588 744,114.432941 744,104.823529 C744,93.9482353 735.727059,86.8235294 725.882353,86.8235294 C715.383529,86.8235294 713.176471,94.7152941 713.176471,96.7058824 C713.176471,101.294118 717.016471,105.529412 721.882353,105.529412 C729.543529,105.529412 730.117647,99.4117647 730.117647,99.4117647 C730.117647,99.4117647 732.470588,100.917647 732.470588,104.823529 C732.470588,108.578824 729.289412,113.411765 721.882353,113.411765 C715.971765,113.411765 707.284706,110.296471 701.294118,97.6470588 C694.249412,82.8376471 693.764706,78.4705882 693.764706,78.4705882 L786.588235,78.4705882 L791.882353,66.5882353 L675.058824,66.5882353 Z" id="koru"></path>
            </g>
        </g>
    </g>
</svg>