<?xml version="1.0" encoding="UTF-8"?>
<svg width="980px" height="680px" viewBox="0 0 980 680" version="1.1" xmlns="http://www.w3.org/2000/svg" xmlns:xlink="http://www.w3.org/1999/xlink">
    <title>NZ fastway</title>
    <defs>
        <linearGradient x1="50%" y1="0%" x2="50%" y2="100%" id="linearGradient-1">
            <stop stop-color="#FFFFFF" offset="0%"></stop>
            <stop stop-color="#EDEDED" offset="100%"></stop>
        </linearGradient>
        <rect id="path-2" x="0" y="0" width="900" height="600" rx="80"></rect>
        <filter x="-6.7%" y="-10.0%" width="113.3%" height="120.0%" filterUnits="objectBoundingBox" id="filter-3">
            <feMorphology radius="2.5" operator="dilate" in="SourceAlpha" result="shadowSpreadOuter1"></feMorphology>
            <feOffset dx="0" dy="0" in="shadowSpreadOuter1" result="shadowOffsetOuter1"></feOffset>
            <feGaussianBlur stdDeviation="17.5" in="shadowOffsetOuter1" result="shadowBlurOuter1"></feGaussianBlur>
            <feColorMatrix values="0 0 0 0 0   0 0 0 0 0   0 0 0 0 0  0 0 0 0.5 0" type="matrix" in="shadowBlurOuter1"></feColorMatrix>
        </filter>
    </defs>
    <g id="NZ-fastway" stroke="none" stroke-width="1" fill="none" fill-rule="evenodd">
        <g transform="translate(40, 40)">
            <g id="Rectangle">
                <use fill="black" fill-opacity="1" filter="url(#filter-3)" xlink:href="#path-2"></use>
                <use fill="url(#linearGradient-1)" fill-rule="evenodd" xlink:href="#path-2"></use>
            </g>
            <g id="Logo" transform="translate(50, 174)" fill-rule="nonzero">
                <path d="M82.5453549,40.8059428 L80.1450054,53.8745128 L111.34955,53.8745128 L102.281563,88.6795816 L74.0107787,88.6795816 L57.7417426,181.359746 C54.4079238,200.029132 47.206875,212.297585 29.337606,230.033501 L27.0706091,232.167145 L3.79011324e-14,207.096827 L2.40034958,204.696478 C14.0020392,192.828083 15.3355667,187.093914 17.2025053,176.158988 L32.8047776,88.5462289 L15.6022723,88.5462289 L21.6031462,53.74116 L38.8056515,53.74116 L41.2060011,40.6725901 C46.0067002,14.9355085 55.0746875,0 87.6127596,0 C98.4143327,0 110.282728,2.00029132 119.484068,5.33411017 L122.284476,6.40093221 L113.483194,40.0058263 L110.149375,38.8056515 C105.08197,36.938713 95.8806304,35.3384799 90.8132257,35.3384799 C84.0122352,35.3384799 83.3454715,36.8053602 82.5453549,40.8059428 M267.905683,85.21241 C275.773496,85.21241 288.442008,87.0793486 297.243289,89.4796982 L300.577108,90.4131674 L307.511451,58.1418009 L304.711044,57.2083316 C294.042823,53.74116 279.240668,51.3408104 268.039036,51.3408104 C234.434142,51.3408104 224.432686,58.5418592 219.365281,86.6792903 C216.031462,105.615381 217.36499,116.150249 243.902188,130.152288 C257.504169,137.353337 258.704343,139.353628 258.170932,142.154036 C257.370816,147.088088 257.10411,148.554968 248.169476,148.554968 C235.500964,148.554968 225.63286,145.75456 216.831579,142.554094 L213.49776,141.35392 L205.229889,172.958522 L207.763591,174.025344 C218.565164,178.826044 234.434142,182.159862 246.169185,182.159862 C284.174719,182.159862 292.976001,169.624704 298.043406,141.620625 C301.910636,120.017479 295.509704,114.016605 268.172389,99.347802 C257.370816,93.6136335 257.504169,93.2135753 258.03758,89.7464037 C258.971049,85.6124683 258.971049,85.21241 267.905683,85.21241 M366.186663,88.1461706 L392.590509,88.1461706 L401.125085,53.8745128 L372.32089,53.8745128 L378.321764,19.6028549 L335.915588,25.4703761 L331.114889,53.8745128 L313.512325,53.8745128 L307.511451,88.1461706 L325.247368,88.1461706 L314.045736,151.088671 C313.779031,152.822256 313.512325,154.689195 313.512325,156.689486 C313.512325,173.091875 324.447251,182.559921 343.516695,182.559921 C356.718618,182.559921 371.520774,178.692691 383.122463,172.291759 L385.38946,171.091584 L376.854884,141.087214 L373.521065,142.420742 C367.653544,144.821091 361.385964,147.088088 356.051854,147.088088 L355.918501,147.088088 C356.051854,146.554677 356.185207,145.75456 356.31856,145.221149 L366.186663,88.1461706 Z M219.498634,60.0087395 L198.695604,180.026218 L163.757182,180.026218 L163.890535,163.890535 C153.355667,170.691526 140.687156,182.426568 127.618586,182.426568 C115.883544,182.426568 107.749026,179.492807 102.548268,173.225228 C96.2806886,165.757474 94.8138083,153.889079 97.8809217,136.019809 L103.481737,103.881796 C108.9492,72.5438984 122.284476,51.6075159 170.024762,51.6075159 C184.160154,51.6075159 201.229306,54.4079238 216.698226,59.0752702 L219.498634,60.0087395 Z M138.553512,145.354502 C138.686865,145.487855 139.220276,146.021266 141.887331,146.021266 C148.688321,146.021266 157.089545,142.287389 165.224063,135.753104 L173.491933,88.2795234 C169.624704,87.7461124 165.890826,87.6127596 163.757182,87.6127596 C148.688321,87.6127596 146.821383,93.7469863 144.554386,105.348676 L138.420159,140.953861 C137.886748,144.28768 138.420159,145.221149 138.553512,145.354502 M406.725901,215.097993 C404.192198,214.297876 400.458321,213.764465 398.324677,213.764465 C391.790392,213.764465 389.656748,215.631404 388.589926,221.898983 L385.922871,237.23455 C385.789518,237.767961 385.789518,238.301372 385.789518,238.834783 C385.789518,240.568369 386.589635,241.768544 389.25669,241.768544 C392.857214,241.768544 398.858088,240.168311 402.458613,238.834783 L403.525435,247.769418 C399.391499,249.769709 393.790684,251.236589 388.189868,251.236589 C378.58847,251.236589 374.587887,247.236007 374.587887,240.034958 C374.587887,238.568078 374.72124,237.23455 374.987945,235.634317 L377.655,220.432103 C379.921997,207.896944 385.922871,204.29642 398.45803,204.29642 C401.925202,204.29642 406.592548,205.096536 409.259603,206.163358 L406.725901,215.097993 Z M411.259894,236.567786 C411.259894,235.367611 411.393247,234.167437 411.5266,232.967262 L413.526891,222.165689 C415.527183,211.09741 420.994645,204.429772 436.196859,204.429772 C447.798549,204.429772 453.266012,210.964057 453.266012,218.83187 C453.266012,219.898692 453.132659,220.965514 452.999306,222.032336 L450.865662,234.034084 C448.998724,244.568951 444.064672,251.236589 428.195694,251.236589 C416.327299,251.369942 411.259894,244.568951 411.259894,236.567786 M441.797675,221.498925 C441.931028,220.965514 441.931028,220.032045 441.931028,219.498634 C441.931028,215.764757 439.664031,213.764465 434.463274,213.764465 C428.595752,213.764465 425.528639,216.43152 424.461817,222.032336 L422.328173,234.167437 C422.19482,234.700848 422.19482,235.500964 422.19482,236.167728 C422.19482,239.768252 424.195112,242.035249 429.662574,242.035249 C435.530096,242.035249 438.597209,239.501547 439.530678,234.167437 L441.797675,221.498925 Z M468.468226,237.501255 C468.334873,238.168019 468.334873,238.568078 468.334873,238.70143 C468.334873,239.901605 468.868284,240.701722 470.60187,240.701722 C473.535631,240.701722 479.80321,237.901314 484.070498,235.367611 L489.137903,206.163358 L500.60624,204.563125 L492.605075,250.436473 L483.137029,250.436473 L483.270382,245.769126 C477.402861,248.969592 470.335165,251.369942 465.001054,251.369942 C458.733475,251.369942 456.733184,247.236007 456.733184,242.435307 C456.733184,240.701722 456.866536,239.501547 457.266595,238.034666 L462.86741,206.296711 L474.335747,204.696478 L468.468226,237.501255 Z M531.410726,214.564582 C526.076616,217.498342 522.742797,219.631986 517.942098,222.565747 L513.008046,250.436473 L501.939767,250.436473 L509.674227,206.163358 L519.408978,204.429772 L519.00892,210.964057 C522.209386,208.697061 526.74338,205.896653 530.610609,204.29642 L531.410726,214.564582 Z M538.87848,206.163358 L550.346817,204.563125 L542.345652,250.436473 L531.277373,250.436473 L538.87848,206.163358 Z M542.345652,186.827209 L553.813989,185.226976 L551.546992,197.895487 L540.078655,199.629073 L542.345652,186.827209 Z M564.482209,237.23455 C563.948798,239.768252 563.948798,242.035249 567.949381,242.035249 C572.75008,242.035249 579.417718,239.768252 585.285239,236.834492 L587.685588,245.369068 C582.218125,248.702887 573.816902,251.369942 566.349148,251.369942 C554.3474,251.369942 551.94705,244.702304 553.680636,235.234259 L556.080986,221.498925 C558.081277,210.830705 563.015329,204.29642 576.61731,204.29642 C585.285239,204.29642 591.019407,208.697061 591.019407,216.031462 C591.019407,224.032627 585.685297,228.699974 573.416844,232.567204 C567.949381,234.300789 566.882559,234.567495 564.748915,235.100906 L564.482209,237.23455 Z M580.48454,216.564873 C580.48454,214.564582 578.750954,213.097701 575.817193,213.097701 C570.749789,213.097701 568.216086,216.298168 567.41597,220.565456 L566.615853,225.232802 C568.216086,224.832744 568.88285,224.566038 573.416844,223.232511 C578.350896,221.498925 580.48454,219.631986 580.48454,216.564873 M623.824185,214.564582 C618.490075,217.498342 615.156256,219.631986 610.355557,222.565747 L605.421505,250.436473 L594.353226,250.436473 L602.087686,206.163358 L611.822437,204.429772 L611.289026,210.964057 C614.489492,208.697061 619.023486,205.896653 622.890715,204.29642 L623.824185,214.564582 Z M623.024068,248.436181 L625.157712,240.034958 C628.624884,241.235133 633.158878,242.301955 637.826224,242.301955 C642.760276,242.301955 643.693745,241.501838 644.360509,238.301372 C644.760567,235.500964 644.360509,234.434142 637.692871,231.100323 C628.091473,226.432977 627.158004,222.965805 628.358178,216.031462 C629.958411,206.963475 633.558936,204.163067 645.427331,204.163067 C649.694619,204.163067 655.295435,205.229889 658.895959,206.430064 L657.029021,214.96464 C653.561849,213.897818 648.494444,213.231054 645.293978,213.231054 C640.893337,213.231054 639.55981,213.364407 639.026399,216.698226 C638.492988,219.765339 639.293104,220.432103 644.227156,223.099158 C654.628671,228.699974 656.49561,230.566912 655.295435,237.634608 C653.561849,247.769418 650.094677,251.236589 637.426166,251.236589 C633.025525,251.369942 626.891298,250.169767 623.024068,248.436181" id="Shape" fill="#00498F"></path>
                <path d="M567.41597,73.6107204 C567.41597,82.8120604 565.282326,92.1467532 560.348274,104.948618 L535.01125,179.759513 L489.938019,179.759513 L480.870032,131.752521 L454.866245,179.759513 L410.859836,179.759513 L410.859836,176.559047 C410.593131,125.484942 407.526017,93.6136335 402.992024,61.4756197 L402.591965,58.2751536 L442.064381,52.1409269 L442.597792,55.341393 C446.198316,75.8777172 447.798549,94.4137501 447.798549,113.616547 C447.798549,116.950366 447.798549,120.150832 447.665196,123.217945 L470.068459,79.7449471 L465.401113,58.5418592 L503.940059,52.674338 L516.341865,121.484359 L525.676558,85.6124683 C526.610027,80.6784164 527.010085,77.3445975 527.010085,74.0107787 C527.010085,70.2769015 526.476674,66.5430244 525.143147,61.875678 L524.209677,58.5418592 L564.215504,50.9407522 L564.882267,54.0078655 C566.349148,61.0755615 567.41597,67.0764354 567.41597,73.6107204 M683.699571,59.7420339 L662.896542,179.759513 L627.95812,179.759513 L628.091473,163.62383 C617.556605,170.42482 604.888094,182.159862 591.819524,182.159862 C580.084481,182.159862 571.949963,179.226102 566.749206,172.958522 C560.481626,165.490768 559.014746,153.622373 562.08186,135.753104 L567.682675,103.61509 C573.150138,72.2771928 586.485414,51.3408104 634.2257,51.3408104 C648.361092,51.3408104 665.430244,54.0078655 680.899164,58.8085647 L683.699571,59.7420339 Z M602.75445,145.087797 C602.887802,145.221149 603.421213,145.75456 606.088268,145.75456 C612.889259,145.75456 621.290482,142.020683 629.425,135.486398 L637.692871,88.0128179 C633.825641,87.4794068 630.091764,87.3460541 627.95812,87.3460541 C612.889259,87.3460541 611.02232,93.4802808 608.755324,105.08197 L602.621097,140.687156 C602.087686,144.020975 602.487744,144.954444 602.75445,145.087797 M798.249587,53.74116 L797.449471,50.9407522 L757.443645,56.8082733 L758.243761,60.275445 C759.043878,63.6092638 759.443936,66.8097299 759.443936,69.8768433 C759.443936,74.5441897 758.510467,78.9448306 756.776881,83.8788825 L736.640615,131.752521 L728.506097,51.8742214 L687.300096,57.7417426 L704.635954,179.759513 L711.970355,179.759513 C704.902659,188.160736 695.567967,194.16161 681.965986,199.229015 L679.032225,200.295837 L689.833798,233.634026 L692.900912,232.700556 C730.639741,220.565456 743.1749,206.030005 757.310292,177.892574 L795.849238,92.1467532 C799.316409,84.0122352 799.983173,75.2109534 799.983173,69.2100795 C800.116526,63.4759111 799.449762,57.8750954 798.249587,53.74116" id="Shape" fill="#CD1343"></path>
            </g>
        </g>
    </g>
</svg>