<?xml version="1.0" encoding="UTF-8"?>
<svg width="980px" height="680px" viewBox="0 0 980 680" version="1.1" xmlns="http://www.w3.org/2000/svg" xmlns:xlink="http://www.w3.org/1999/xlink">
    <title>NZ New Zealand Post text</title>
    <defs>
        <linearGradient x1="50%" y1="0%" x2="50%" y2="100%" id="linearGradient-1">
            <stop stop-color="#FFFFFF" offset="0%"></stop>
            <stop stop-color="#EDEDED" offset="100%"></stop>
        </linearGradient>
        <rect id="path-2" x="0" y="0" width="900" height="600" rx="80"></rect>
        <filter x="-6.7%" y="-10.0%" width="113.3%" height="120.0%" filterUnits="objectBoundingBox" id="filter-3">
            <feMorphology radius="2.5" operator="dilate" in="SourceAlpha" result="shadowSpreadOuter1"></feMorphology>
            <feOffset dx="0" dy="0" in="shadowSpreadOuter1" result="shadowOffsetOuter1"></feOffset>
            <feGaussianBlur stdDeviation="17.5" in="shadowOffsetOuter1" result="shadowBlurOuter1"></feGaussianBlur>
            <feColorMatrix values="0 0 0 0 0   0 0 0 0 0   0 0 0 0 0  0 0 0 0.5 0" type="matrix" in="shadowBlurOuter1"></feColorMatrix>
        </filter>
    </defs>
    <g id="NZ-New-Zealand-Post-text" stroke="none" stroke-width="1" fill="none" fill-rule="evenodd">
        <g transform="translate(40, 40)">
            <g id="Rectangle">
                <use fill="black" fill-opacity="1" filter="url(#filter-3)" xlink:href="#path-2"></use>
                <use fill="url(#linearGradient-1)" fill-rule="evenodd" xlink:href="#path-2"></use>
            </g>
            <g id="Logo" transform="translate(50, 178)" fill="#D8291C">
                <path d="M368.619603,64.7306839 L378.384329,64.7306839 L378.384329,179.544963 L367.989621,179.544963 L302.628955,78.2753039 L302.628955,78.2753039 L302.628955,179.544963 L292.864228,179.544963 L292.864228,64.7306839 L306.881335,64.7306839 L369.09209,160.015511 L369.09209,160.015511 L368.462107,64.7306839 L368.619603,64.7306839 Z M404.056109,169.780237 L476.031589,169.780237 L476.031589,179.544963 L390.511489,179.544963 L390.511489,171.040201 L461.3845,74.6529055 L391.771454,74.6529055 L391.771454,64.8881795 L474.771625,64.8881795 L474.771625,73.3929408 L403.898613,169.780237 L404.056109,169.780237 Z M533.989963,64.7306839 C560.921708,64.7306839 576.041284,78.1178083 576.041284,101.899641 C576.041284,126.311456 560.13423,139.698581 534.46245,139.698581 L511.940582,139.698581 L511.940582,180.017449 L488.158749,180.017449 L488.158749,64.7306839 L533.989963,64.7306839 Z M531.470034,120.956606 C546.747105,120.956606 552.259451,113.081827 552.259451,102.057137 C552.259451,91.0324459 546.747105,83.1576669 531.470034,83.1576669 L511.3106,83.1576669 L511.3106,120.956606 L531.470034,120.956606 Z M577.301248,138.123625 C577.301248,112.451845 594.940753,94.8123399 619.982551,94.8123399 C645.024348,94.8123399 662.663853,113.081827 662.663853,138.123625 C662.663853,163.165422 645.496835,181.43491 619.982551,181.43491 C594.310771,181.43491 577.301248,163.165422 577.301248,138.123625 Z M640.141985,138.123625 C640.141985,122.216571 631.637224,112.451845 619.982551,112.451845 C608.327878,112.451845 599.823116,122.216571 599.823116,138.123625 C599.823116,154.030678 608.327878,163.795404 619.982551,163.795404 C631.637224,163.795404 640.141985,154.030678 640.141985,138.123625 Z M667.546216,154.030678 L688.965615,154.030678 C690.22558,161.432971 695.107943,166.315334 704.872669,166.315334 C712.747448,166.315334 718.259793,163.322918 718.259793,156.550608 C718.259793,151.668245 714.637395,149.148315 707.235103,147.415864 L694.477961,144.423448 C677.940925,140.80105 669.436163,133.398757 669.436163,120.011633 C669.436163,103.474597 684.083252,94.3398531 704.242687,94.3398531 C725.032103,94.3398531 737.789245,105.364544 737.789245,120.011633 L716.999829,120.011633 C716.369846,113.869305 711.487483,109.616925 702.982722,109.616925 C695.58043,109.616925 691.328049,112.609341 691.328049,118.121686 C691.328049,123.634031 694.950447,125.996465 702.982722,127.886412 L715.267377,130.406341 C732.434396,134.02874 740.309175,140.80105 740.309175,153.558192 C740.309175,170.72521 726.292068,180.962423 704.242687,180.962423 C681.090836,181.592405 668.806181,169.30775 667.546216,154.030678 L667.546216,154.030678 Z M781.730513,179.702458 C764.091007,179.702458 756.058733,171.827679 756.058733,155.290643 L756.058733,113.71181 L743.774078,113.71181 L743.774078,96.5447913 L752.278839,96.5447913 C753.538804,96.5447913 755.271255,95.914809 755.901237,95.2848266 C757.161202,94.024862 757.791184,92.7648973 757.161202,91.0324459 L757.161202,75.1253922 L778.580601,75.1253922 L778.580601,96.5447913 L800,96.5447913 L800,113.71181 L778.580601,113.71181 L778.580601,155.290643 C778.580601,160.173006 781.10053,162.062953 785.352911,162.062953 L800,162.062953 L800,179.702458 L781.730513,179.702458 Z" id="Shape" fill-rule="nonzero"></path>
                <path d="M31.7365549,146.470891 C31.7365549,142.21851 31.7365549,129.303872 39.6113339,118.436677 C47.486113,108.041969 59.7707683,101.899641 73.1578927,101.899641 C89.6949287,101.899641 101.822088,110.404402 112.846779,129.933854 C120.721558,143.320979 130.486284,155.605634 148.283285,155.605634 C157.418029,155.605634 165.92279,151.983236 172.6951,145.840908 C179.46741,139.698581 182.459826,130.563837 182.459826,121.429093 C182.459826,112.294349 178.837428,103.789588 172.6951,97.6472604 C170.175171,95.1273311 167.812737,93.3948797 164.820321,91.5049327 C161.827905,89.6149857 158.677993,88.9850034 155.055595,88.5125166 C149.54325,87.8825343 144.030904,87.252552 139.148541,87.252552 L4.80481046,87.252552 C-6.84986255,128.201403 2.91486349,172.14267 31.7365549,203.799282 L31.7365549,146.470891 Z" id="Path" fill-rule="nonzero"></path>
                <path d="M94.5772918,144.108457 C108.594398,170.410219 127.493868,179.544963 147.653303,179.544963 C180.569879,179.544963 206.241659,153.243201 206.241659,122.216571 C206.241659,106.9395 200.099331,91.6624283 189.07464,80.6377376 C184.82226,76.3853569 180.569879,73.2354453 175.057534,70.8730115 C170.175171,68.3530822 164.662825,66.6206309 159.15048,65.3606662 C152.37817,64.1007016 145.133373,63.4707192 138.361063,64.1007016 L14.4120409,64.1007016 C12.5220939,67.0931176 11.4196249,70.2430292 9.5296779,73.8654276 L137.731081,73.8654276 C146.235842,73.8654276 151.118205,73.8654276 156.630551,75.1253922 C161.512914,75.7553746 165.765294,77.6453215 170.017675,79.3777729 C174.270056,81.2677199 177.892454,84.2601359 181.672348,87.252552 C190.807092,96.3872957 196.319437,108.671951 196.319437,122.059075 C196.319437,148.360838 175.53002,169.622741 146.865825,169.622741 C129.22632,169.622741 115.051717,161.747962 101.034611,136.706164 C91.2698845,119.066659 81.5051585,115.286765 73.0003971,115.286765 C63.2356711,115.286765 55.8333788,118.909164 50.9510158,126.311456 C45.4386704,134.186235 45.4386704,142.848492 45.4386704,146.470891 L45.4386704,217.343902 C48.4310865,219.706336 51.5809981,222.226265 54.5734141,224.116212 L54.5734141,146.628386 C54.5734141,141.746023 55.2033965,136.86366 57.5658302,133.241262 C60.5582462,128.358899 65.4406092,125.838969 72.2129192,125.838969 C81.3476629,125.208987 86.230026,130.09135 94.2623006,144.108457 L94.5772918,144.108457 Z" id="Path" fill-rule="nonzero"></path>
                <path d="M121.981523,0 C82.9226187,0 46.2261483,18.8994697 23.0742979,50.7135772 L137.888577,50.7135772 C145.763356,50.7135772 153.79563,51.3435595 161.670409,52.6035241 C168.442719,53.8634888 175.057534,56.2259225 181.199861,59.3758341 C187.342189,62.3682502 193.484517,66.7781264 198.36688,71.6604895 C211.754004,85.0476139 219.786279,103.474597 219.786279,123.004049 C219.786279,162.062953 187.972171,193.87706 147.180816,193.87706 C117.886638,193.87706 95.8372564,177.970007 81.1901674,148.675829 C77.567769,141.273536 76.3078043,139.541085 73.3153883,139.541085 C70.795459,139.541085 69.0630076,141.431032 69.0630076,144.423448 L69.0630076,232.305982 C114.264239,254.355364 167.970233,245.693107 205.13919,211.516566 C242.308147,177.340024 253.96282,124.264014 235.693333,77.1728348 C217.423845,30.7116383 172.222613,0.314991162 122.139018,0.314991162 L122.139018,0.314991162 L121.981523,0 Z" id="Path"></path>
            </g>
        </g>
    </g>
</svg>