<?xml version="1.0" encoding="UTF-8"?>
<svg width="980px" height="680px" viewBox="0 0 980 680" version="1.1" xmlns="http://www.w3.org/2000/svg" xmlns:xlink="http://www.w3.org/1999/xlink">
    <title>NZ New Zealand Post</title>
    <defs>
        <linearGradient x1="50%" y1="0%" x2="50%" y2="100%" id="linearGradient-1">
            <stop stop-color="#FFFFFF" offset="0%"></stop>
            <stop stop-color="#EDEDED" offset="100%"></stop>
        </linearGradient>
        <rect id="path-2" x="0" y="0" width="900" height="600" rx="80"></rect>
        <filter x="-6.7%" y="-10.0%" width="113.3%" height="120.0%" filterUnits="objectBoundingBox" id="filter-3">
            <feMorphology radius="2.5" operator="dilate" in="SourceAlpha" result="shadowSpreadOuter1"></feMorphology>
            <feOffset dx="0" dy="0" in="shadowSpreadOuter1" result="shadowOffsetOuter1"></feOffset>
            <feGaussianBlur stdDeviation="17.5" in="shadowOffsetOuter1" result="shadowBlurOuter1"></feGaussianBlur>
            <feColorMatrix values="0 0 0 0 0   0 0 0 0 0   0 0 0 0 0  0 0 0 0.5 0" type="matrix" in="shadowBlurOuter1"></feColorMatrix>
        </filter>
    </defs>
    <g id="NZ-New-Zealand-Post" stroke="none" stroke-width="1" fill="none" fill-rule="evenodd">
        <g transform="translate(40, 40)">
            <g id="Rectangle">
                <use fill="black" fill-opacity="1" filter="url(#filter-3)" xlink:href="#path-2"></use>
                <use fill="url(#linearGradient-1)" fill-rule="evenodd" xlink:href="#path-2"></use>
            </g>
            <g id="Logo" transform="translate(200, 50)" fill="#D8291C">
                <path d="M64.9192993,299.616251 C64.9192993,290.917715 64.9192993,264.499938 81.0276999,242.270345 C97.1361005,221.007256 122.265205,208.442704 149.649486,208.442704 C183.477128,208.442704 208.284064,225.839776 230.835825,265.78861 C246.944226,293.172891 266.918643,318.301996 303.323628,318.301996 C322.009373,318.301996 339.406445,310.892131 353.25967,298.327579 C367.112894,285.763026 373.234086,267.077282 373.234086,248.391537 C373.234086,229.705792 365.824222,212.30872 353.25967,199.744167 C348.104982,194.589479 343.272461,191.045631 337.151269,187.179615 C331.030077,183.313599 324.586717,182.024927 317.176852,181.058423 C305.900972,179.769751 294.625092,178.481078 284.637883,178.481078 L9.8285693,178.481078 C-14.0118636,262.244761 5.96255316,352.129637 64.9192993,416.885407 L64.9192993,299.616251 Z" id="Path" fill-rule="nonzero"></path>
                <path d="M193.464336,294.783731 C222.137289,348.585789 260.79745,367.271533 302.034956,367.271533 C369.36807,367.271533 421.881456,313.469475 421.881456,250.002377 C421.881456,218.75208 409.316904,187.501783 386.765143,164.950022 C378.066607,156.251486 369.36807,149.808125 358.09219,144.975605 C348.104982,139.820917 336.829101,136.277069 325.553221,133.699725 C311.699996,131.122381 296.880268,129.833709 283.027043,131.122381 L29.480818,131.122381 C25.6148019,137.243573 23.3596258,143.686933 19.4936096,151.096797 L281.738371,151.096797 C299.135444,151.096797 309.122652,151.096797 320.398533,153.674142 C330.385741,154.962814 339.084277,158.82883 347.782814,162.372678 C356.48135,166.238694 363.891214,172.359886 371.623246,178.481078 C390.308991,197.166823 401.584871,222.295928 401.584871,249.680209 C401.584871,303.482267 359.058694,346.974949 300.424116,346.974949 C264.341299,346.974949 235.346177,330.866548 206.673224,279.641834 C186.698808,243.559017 166.724391,235.826985 149.327318,235.826985 C129.352902,235.826985 114.211005,243.236849 104.223797,258.378745 C92.9479163,274.487146 92.9479163,292.206387 92.9479163,299.616251 L92.9479163,444.591856 C99.0691085,449.424376 105.512469,454.579064 111.633661,458.445081 L111.633661,299.938419 C111.633661,289.95121 112.922333,279.964002 117.754853,272.554138 C123.876045,262.566929 133.863254,257.412241 147.716478,257.412241 C166.402223,256.123569 176.389431,266.110778 192.82,294.783731 L193.464336,294.783731 Z" id="Path" fill-rule="nonzero"></path>
                <path d="M249.52157,0 C169.623903,0 94.5587564,38.6601614 47.2000586,103.7381 L282.060539,103.7381 C298.16894,103.7381 314.599508,105.026772 330.707909,107.604116 C344.561133,110.18146 358.09219,115.01398 370.656742,121.45734 C383.221295,127.578533 395.785847,136.599237 405.773056,146.586445 C433.157337,173.970726 449.587905,211.664384 449.587905,251.613217 C449.587905,331.510884 384.509967,396.588822 301.068452,396.588822 C241.145202,396.588822 196.04168,364.049853 166.080055,304.126603 C158.670191,288.984706 156.092847,285.440858 149.971654,285.440858 C144.816966,285.440858 141.273118,289.306874 141.273118,295.428067 L141.273118,475.197817 C233.735337,520.301339 343.594629,502.582098 419.62628,432.67164 C495.657931,362.761181 519.498364,254.190561 482.126874,157.862326 C444.755385,62.8227623 352.293166,0.644336023 249.843738,0.644336023 L249.843738,0.644336023 L249.52157,0 Z" id="Path"></path>
            </g>
        </g>
    </g>
</svg>