<?xml version="1.0" encoding="UTF-8"?>
<svg width="980px" height="680px" viewBox="0 0 980 680" version="1.1" xmlns="http://www.w3.org/2000/svg" xmlns:xlink="http://www.w3.org/1999/xlink">
    <title>PE Serpost alt</title>
    <defs>
        <rect id="path-1" x="0" y="0" width="900" height="600" rx="80"></rect>
        <filter x="-6.7%" y="-10.0%" width="113.3%" height="120.0%" filterUnits="objectBoundingBox" id="filter-3">
            <feMorphology radius="2.5" operator="dilate" in="SourceAlpha" result="shadowSpreadOuter1"></feMorphology>
            <feOffset dx="0" dy="0" in="shadowSpreadOuter1" result="shadowOffsetOuter1"></feOffset>
            <feGaussianBlur stdDeviation="17.5" in="shadowOffsetOuter1" result="shadowBlurOuter1"></feGaussianBlur>
            <feColorMatrix values="0 0 0 0 0   0 0 0 0 0   0 0 0 0 0  0 0 0 0.5 0" type="matrix" in="shadowBlurOuter1"></feColorMatrix>
        </filter>
    </defs>
    <g id="PE-Serpost-alt" stroke="none" stroke-width="1" fill="none" fill-rule="evenodd">
        <g transform="translate(40, 40)">
            <mask id="mask-2" fill="white">
                <use xlink:href="#path-1"></use>
            </mask>
            <g id="Rectangle">
                <use fill="black" fill-opacity="1" filter="url(#filter-3)" xlink:href="#path-1"></use>
                <use fill="#252C7A" fill-rule="evenodd" xlink:href="#path-1"></use>
            </g>
            <g id="Logo" mask="url(#mask-2)">
                <g transform="translate(50.2665, 96.2117)" id="Shape">
                    <path d="M141.894469,248.696758 L244.32295,165.899555 C173.121424,319.593134 342.886205,331.392244 488.442467,287.959313 C334.748887,343.089638 177.190083,335.25747 141.691036,248.595041 L141.894469,248.696758 Z M0,354.685315 C169.459631,472.879847 642.339479,287.654164 800,129.993643 C563.509218,346.75143 31.5321043,445.314685 110.362365,267.92117 C70.9980928,299.86014 35.0921805,327.425302 0,354.685315 Z" fill="#EC1C27"></path>
                    <path d="M469.014622,3.96694215 L472.472982,3.96694215 L472.472982,7.83216783 L468.607756,3.96694215 L469.014622,3.96694215 Z M484.780674,0 C488.6459,3.96694215 492.612842,3.96694215 500.546726,7.83216783 L504.411952,7.83216783 L504.411952,15.7660521 L508.378894,15.7660521 L512.345836,11.79911 L520.178004,11.79911 L516.312778,15.7660521 L516.312778,19.7329943 L496.579784,19.7329943 L492.612842,27.5651621 L488.6459,35.4990464 L496.579784,27.5651621 L500.546726,27.5651621 L504.411952,31.5321043 L512.345836,31.5321043 L508.378894,39.3642721 L504.411952,43.3312142 L504.411952,43.3312142 L504.411952,39.3642721 L500.546726,39.3642721 L496.579784,43.3312142 L492.612842,47.2981564 L492.612842,51.1633821 L488.6459,59.0972664 L484.780674,63.0642085 L484.780674,70.8963764 C488.6459,82.6954863 480.813732,90.6293706 476.84679,102.428481 L484.780674,118.194533 L480.813732,122.161475 L469.014622,106.395423 L465.04768,98.4615385 L449.281627,98.4615385 L445.314685,102.428481 L429.548633,106.395423 L425.581691,114.227591 L429.548633,122.161475 L429.548633,130.909091 L437.482517,146.675143 L441.347743,150.642085 L449.281627,146.675143 L453.24857,138.842975 L461.080737,130.909091 C460.701874,140.29628 462.046392,149.673434 465.04768,158.575969 L476.84679,154.609027 L480.813732,158.575969 L480.813732,166.408137 L484.780674,178.207247 L492.612842,182.174189 L500.546726,178.207247 L508.378894,178.207247 L508.378894,174.240305 L512.345836,166.408137 L516.312778,166.408137 L516.312778,174.240305 L520.178004,174.240305 L520.178004,166.408137 L528.111888,162.441195 L531.977114,166.408137 C535.944056,162.441195 543.87794,162.441195 547.743166,158.575969 L555.67705,162.441195 L555.67705,166.408137 L559.643992,166.408137 L563.509218,170.375079 L563.509218,178.207247 L571.443102,178.207247 C574.900445,175.518878 579.525942,174.870254 583.589366,176.504001 C587.65279,178.137749 590.541942,181.807727 591.176097,186.141132 L591.176097,186.141132 L591.176097,190.006357 L587.209154,193.973299 L587.209154,201.907184 L591.176097,201.907184 L591.176097,197.940242 L595.041322,193.973299 L610.807374,193.973299 L614.774317,197.940242 C620.333644,198.527089 625.920776,197.121294 630.540369,193.973299 C631.600889,193.945004 632.62642,194.353855 633.376588,195.104023 C634.126755,195.85419 634.535607,196.879722 634.507311,197.940242 C654.240305,186.141132 677.838525,174.240305 697.571519,162.441195 C698.098823,158.110912 696.640818,153.77428 693.604577,150.642085 C677.838525,56.0457724 583.242212,-7.01843611 484.780674,0.915448188 L484.780674,0 Z M705.403687,224.589955 C697.357877,304.421395 643.447566,372.206852 567.47616,398.017906 C568.53668,398.044825 569.562211,397.635973 570.312379,396.885806 C571.062547,396.135638 571.471398,395.110107 571.443102,394.049587 L567.47616,390.082645 L571.443102,386.217419 L571.443102,382.250477 L575.410045,378.283535 L571.443102,374.316592 L571.443102,370.451367 L575.410045,370.451367 L575.410045,358.55054 C579.27527,354.685315 583.242212,354.685315 591.176097,350.718373 L595.041322,342.784488 L591.176097,342.784488 L587.209154,338.919263 L595.041322,342.784488 L602.975207,342.784488 L610.807374,338.919263 L610.807374,334.95232 L610.807374,334.95232 L614.774317,330.985378 L614.774317,319.186268 L618.741259,311.252384 L614.876033,303.827082 L618.842975,299.86014 L630.642085,284.094088 L638.575969,280.228862 L638.575969,268.328036 L642.441195,256.528926 C664.585606,248.432772 685.741834,237.854658 705.505404,224.996821 L705.403687,224.589955 Z M551.710108,401.983471 L551.710108,401.983471 C497.683777,413.837678 441.164448,404.168458 394.151303,375.028608 C449.281627,355.39733 500.546726,335.664336 551.710108,311.964399 L551.710108,327.730451 C554.94155,335.189843 556.303278,343.325291 555.67705,351.430388 L555.67705,375.028608 L559.643992,378.99555 L559.643992,398.728544 L551.710108,402.695486 L551.710108,401.983471 Z M315.321043,275.855054 C310.88277,267.280463 308.186286,257.911912 307.387158,248.289892 C292.425283,190.582611 305.584341,129.198809 342.886205,82.6954863 C342.290357,88.2554468 343.696923,93.8456477 346.853147,98.4615385 C346.853147,106.395423 354.685315,110.362365 362.619199,114.227591 L366.484425,122.161475 L370.451367,126.128417 L370.451367,130.909091 L378.385251,134.876033 L386.217419,146.675143 L390.184361,146.675143 L390.184361,142.809917 L386.217419,138.842975 L382.250477,134.876033 L378.385251,130.909091 L374.418309,123.076923 L370.451367,119.109981 L370.451367,110.565798 L374.418309,114.431024 L378.385251,122.364908 L382.250477,122.364908 L386.217419,126.33185 L394.151303,134.164018 L401.983471,138.13096 C406.132752,142.470354 408.864315,147.968955 409.815639,153.897012 L417.749523,157.863954 C425.581691,157.863954 429.548633,161.72918 437.482517,161.72918 L441.347743,157.863954 L445.314685,161.72918 L449.281627,165.696122 L453.24857,165.696122 L465.04768,169.663064 L469.014622,165.696122 L469.014622,169.663064 L472.879847,173.52829 C480.813732,177.495232 484.780674,181.462174 492.612842,181.462174 L492.612842,177.495232 L496.579784,173.52829 L500.546726,177.495232 L500.546726,177.495232 C500.546726,181.462174 504.411952,185.429116 504.411952,193.261284 L504.411952,197.228226 L500.546726,205.060394 L496.579784,212.994278 L496.579784,220.826446 L500.546726,220.826446 L496.579784,228.760331 L496.579784,232.625556 L500.546726,232.625556 C504.411952,236.490782 508.378894,240.457724 508.378894,244.424666 C433.515575,279.923713 354.685315,291.722823 315.11761,275.956771 L315.321043,275.855054 Z M417.749523,19.7329943 C429.548633,15.7660521 437.482517,11.79911 449.281627,7.83216783 L453.24857,7.83216783 L457.113795,15.7660521 L457.113795,19.7329943 L461.080737,23.59822 L465.04768,27.5651621 L449.281627,27.5651621 L445.314685,19.7329943 L433.515575,23.59822 L421.614749,23.59822 L417.647807,19.7329943 L417.749523,19.7329943 Z" fill="#FFFFFF"></path>
                </g>
            </g>
        </g>
    </g>
</svg>