<?xml version="1.0" encoding="UTF-8"?>
<svg width="980px" height="680px" viewBox="0 0 980 680" version="1.1" xmlns="http://www.w3.org/2000/svg" xmlns:xlink="http://www.w3.org/1999/xlink">
    <title>PE Serpost text</title>
    <defs>
        <rect id="path-1" x="0" y="0" width="900" height="600" rx="80"></rect>
        <filter x="-6.7%" y="-10.0%" width="113.3%" height="120.0%" filterUnits="objectBoundingBox" id="filter-3">
            <feMorphology radius="2.5" operator="dilate" in="SourceAlpha" result="shadowSpreadOuter1"></feMorphology>
            <feOffset dx="0" dy="0" in="shadowSpreadOuter1" result="shadowOffsetOuter1"></feOffset>
            <feGaussianBlur stdDeviation="17.5" in="shadowOffsetOuter1" result="shadowBlurOuter1"></feGaussianBlur>
            <feColorMatrix values="0 0 0 0 0   0 0 0 0 0   0 0 0 0 0  0 0 0 0.5 0" type="matrix" in="shadowBlurOuter1"></feColorMatrix>
        </filter>
    </defs>
    <g id="PE-Serpost-text" stroke="none" stroke-width="1" fill="none" fill-rule="evenodd">
        <g transform="translate(40, 40)">
            <mask id="mask-2" fill="white">
                <use xlink:href="#path-1"></use>
            </mask>
            <g id="Rectangle">
                <use fill="black" fill-opacity="1" filter="url(#filter-3)" xlink:href="#path-1"></use>
                <use fill="#252C7A" fill-rule="evenodd" xlink:href="#path-1"></use>
            </g>
            <g id="Logo" mask="url(#mask-2)">
                <g transform="translate(49.8, 205.52)" id="Shape">
                    <path d="M327.707911,187.789047 L335.557809,150.081136 L363.955375,150.081136 L362.373225,156.369168 L341.845842,156.369168 L340.283976,165.010142 L359.918864,165.010142 L358.356998,171.298174 L338.701826,171.298174 L336.348884,181.440162 L358.356998,181.440162 L356.774848,187.728195 L327.707911,187.789047 Z M363.06288,187.789047 L370.141988,187.789047 L377.991886,150.081136 L370.933063,150.081136 L363.06288,187.789047 L363.06288,187.789047 Z M419.655172,173.590264 L427.505071,175.15213 C425.943205,179.087221 423.56998,183.022312 420.425963,184.584178 C417.251981,186.906566 413.354004,188.021301 409.432049,187.728195 C405.397619,187.90351 401.453766,186.499149 398.438134,183.813387 C395.8585,180.428725 394.474527,176.28394 394.503043,172.028398 C394.450799,167.971843 395.25247,163.949665 396.855984,160.223124 C398.11745,156.79292 400.65304,153.981248 403.935091,152.373225 C407.01118,150.519184 410.491656,149.440236 414.077079,149.229209 C417.718977,149.07764 421.301506,150.188224 424.219067,152.373225 C426.535703,154.778326 428.161334,157.763321 428.924949,161.014199 L421.075051,161.805274 C420.655822,160.12476 419.904033,158.545312 418.864097,157.160243 C417.422993,156.297837 415.809137,155.764503 414.137931,155.598377 C411.967849,155.75447 409.840806,156.2828 407.849899,157.160243 C405.914282,158.954753 404.319893,161.085187 403.144016,163.448276 C402.236137,166.252743 401.704117,169.165209 401.561866,172.109533 C401.365571,174.686623 402.221778,177.23329 403.935091,179.168357 C405.370079,180.668679 407.355958,181.517266 409.432049,181.517266 C411.50814,181.517266 413.494019,180.668679 414.929006,179.168357 C418.073022,178.377282 418.864097,176.815416 419.655172,173.6714 L419.655172,173.590264 Z M431.440162,175.943205 C431.279726,171.671104 432.670228,167.485188 435.35497,164.158215 C438.152736,161.042067 442.183437,159.319925 446.369168,159.452333 C449.813311,159.145561 453.229966,160.284446 455.801217,162.596349 C457.971987,164.934604 459.105816,168.050805 458.945233,171.237323 C458.964609,175.491406 457.581593,179.633324 455.010142,183.022312 C451.985414,186.277596 447.660171,188.004716 443.225152,187.728195 C440.7973,187.588112 438.407447,187.060838 436.146045,186.166329 C433.793103,185.375254 433.002028,183.813387 431.440162,181.440162 C432.210953,180.669371 431.440162,178.296146 431.440162,175.943205 L431.440162,175.943205 Z M452.738337,170.507099 C452.718481,168.282459 451.373921,166.284003 449.320717,165.427398 C447.267514,164.570792 444.901317,165.021105 443.306288,166.572008 C441.856525,167.505004 440.752234,168.887149 440.162272,170.507099 C439.515478,172.263533 439.245934,174.136516 439.371197,176.004057 C439.411943,177.702593 439.963265,179.34949 440.953347,180.730223 C442.030556,181.70058 443.418825,182.254449 444.868154,182.292089 C446.96243,182.350224 448.977644,181.490794 450.385396,179.939148 C452.081212,177.095352 452.899736,173.814201 452.738337,170.507099 L452.738337,170.507099 Z M468.458418,160.365112 L475.517241,160.365112 L474.74645,165.882353 C477.099391,161.947262 480.243408,159.59432 483.387424,159.59432 C484.492906,159.481754 485.603377,159.753999 486.53144,160.365112 L483.387424,166.653144 L480.933063,166.653144 C479.371197,166.653144 478.580122,167.444219 477.018256,168.235294 C475.564397,169.163744 474.458863,170.547444 473.874239,172.170385 C472.742755,174.670151 471.951398,177.310284 471.521298,180.020284 L469.939148,188.661258 L462.880325,188.661258 L468.397566,160.365112 L468.458418,160.365112 Z M488.884381,160.365112 L483.387424,187.870183 L490.446247,187.870183 L492.028398,179.229209 C492.589465,176.550784 493.376598,173.924748 494.381339,171.37931 C494.903017,169.730962 495.950341,168.298906 497.363083,167.302231 C498.945233,166.511156 499.716024,165.740365 501.298174,165.740365 L503.651116,165.740365 L506.795132,159.452333 C505.841916,158.899345 504.752532,158.625242 503.651116,158.661258 C500.507099,158.661258 498.154158,161.014199 495.010142,164.94929 L495.801217,159.452333 L488.72211,159.452333 L488.884381,160.365112 Z M531.318458,176.085193 L512.454361,176.085193 L512.454361,176.876268 C512.618826,178.544414 513.1598,180.153466 514.036511,181.58215 C515.464696,182.938921 517.487148,183.471838 519.398482,182.995032 C521.309815,182.518227 522.844985,181.097817 523.46856,179.229209 L529.756592,180.020284 C528.349958,182.459468 526.474922,184.596458 524.239351,186.308316 C522.174149,187.77989 519.715633,188.599395 517.180527,188.661258 C513.245436,188.661258 510.10142,187.870183 508.51927,185.517241 C506.221146,182.938945 505.090689,179.525549 505.395538,176.085193 C505.23647,172.445511 506.339984,168.862673 508.51927,165.943205 C511.439976,161.927591 516.13042,159.582369 521.095335,159.655172 C524.239351,159.655172 527.383367,160.425963 528.965517,162.799189 C531.257088,165.06179 532.411289,168.23398 532.109533,171.440162 C531.465232,172.920571 531.193616,174.53634 531.318458,176.146045 L531.318458,176.085193 Z M524.94929,171.359026 L524.94929,171.359026 C525.023332,169.407613 524.476488,167.483005 523.387424,165.862069 C522.208407,165.146801 520.816166,164.866917 519.452333,165.070994 C517.995971,165.103824 516.599708,165.658011 515.517241,166.63286 C513.818083,167.930833 512.924829,170.02536 513.1643,172.150101 L524.94929,172.150101 L524.94929,171.359026 Z M534.381339,176.064909 C534.217318,171.788906 535.616183,167.599522 538.31643,164.279919 C541.109573,161.169282 545.13162,159.447668 549.310345,159.574037 C552.754487,159.267264 556.171143,160.40615 558.742394,162.718053 C560.913164,165.056308 562.046993,168.172509 561.88641,171.359026 C561.905785,175.613109 560.522769,179.755028 557.951318,183.144016 C554.92659,186.3993 550.601347,188.12642 546.166329,187.849899 C543.738762,187.707753 541.349233,187.180551 539.087221,186.288032 C536.73428,185.496957 535.943205,183.935091 534.381339,181.561866 C535.172414,180.791075 534.381339,178.41785 534.381339,176.064909 L534.381339,176.064909 Z M555.598377,170.567951 C555.578521,168.343311 554.233961,166.344855 552.180758,165.48825 C550.127554,164.631644 547.761358,165.081957 546.166329,166.63286 C544.727406,167.57781 543.626326,168.955935 543.022312,170.567951 C542.375519,172.324385 542.105975,174.197368 542.231237,176.064909 C542.271984,177.763445 542.823306,179.410342 543.813387,180.791075 C544.895854,181.765924 546.292117,182.320111 547.748479,182.352941 C549.835742,182.405117 551.842349,181.5462 553.245436,180 C554.941253,177.156204 555.759777,173.875053 555.598377,170.567951 L555.598377,170.567951 Z M605.902637,187.849899 L598.782961,187.849899 L599.574037,184.705882 C598.468709,185.988898 597.134302,187.055048 595.638945,187.849899 C594.151417,188.494303 592.529072,188.765854 590.912779,188.640974 C588.163768,188.950727 585.462559,187.747602 583.853955,185.496957 C582.271805,183.935091 581.501014,180.791075 581.501014,176.855984 C581.474293,172.604008 582.850259,168.461849 585.415822,165.070994 C587.425344,161.407689 591.391502,159.258032 595.557809,159.574037 C599.072039,159.486155 602.366112,161.28011 604.198783,164.279919 L607.342799,150.081136 L614.421907,150.081136 L605.780933,187.789047 L605.902637,187.849899 Z M588.640974,176.004057 C588.68172,177.702593 589.233042,179.34949 590.223124,180.730223 C591.300333,181.70058 592.688602,182.254449 594.137931,182.292089 C595.720081,182.292089 596.511156,181.501014 598.073022,180.730223 C599.305037,179.576754 600.363976,178.251372 601.217039,176.795132 C601.863832,175.038698 602.133376,173.165716 602.008114,171.298174 C602.110875,169.577579 601.543911,167.883955 600.425963,166.572008 C599.655172,165.010142 598.073022,165.010142 596.511156,165.010142 C594.137931,165.010142 592.576065,166.572008 590.993915,168.945233 C589.522341,171.010435 588.702836,173.468951 588.640974,176.004057 L588.640974,176.004057 Z M639.736308,176.004057 L620.872211,176.004057 L620.872211,176.795132 C621.0291,178.461932 621.563205,180.071182 622.434077,181.501014 C623.513596,182.483235 624.910181,183.044749 626.369168,183.083164 C628.843637,183.048639 631.035813,181.479332 631.866126,179.148073 L638.154158,179.939148 C636.754796,182.377407 634.886561,184.514501 632.657201,186.227181 C631.866126,187.789047 629.513185,188.580122 626.369168,188.580122 C622.434077,188.580122 619.290061,187.789047 617.728195,185.436105 C615.416292,182.864855 614.277406,179.448199 614.584178,176.004057 C614.422471,172.360846 615.53409,168.774978 617.728195,165.862069 C620.644335,161.841069 625.337775,159.494349 630.30426,159.574037 C633.448276,159.574037 636.592292,160.344828 638.154158,162.718053 C640.445729,164.980654 641.59993,168.152844 641.298174,171.359026 C640.507099,172.920892 640.507099,174.503043 639.736308,176.064909 L639.736308,176.004057 Z M633.448276,171.298174 L633.448276,171.298174 C633.526372,169.343315 632.971488,167.41545 631.866126,165.801217 C631.075051,165.010142 630.30426,165.010142 628.72211,165.010142 C626.947396,165.109335 625.285585,165.912434 624.105162,167.241361 C622.924739,168.570289 622.323253,170.315224 622.434077,172.089249 L633.448276,172.089249 L633.448276,171.298174 Z M642.860041,187.789047 L650.730223,150.081136 L657.809331,150.081136 L649.89858,187.789047 L642.860041,187.789047 Z M679.79716,187.789047 L671.947262,187.789047 L679.79716,150.081136 L695.517241,150.081136 C697.64391,149.905245 699.784053,150.167585 701.805274,150.851927 C703.424485,151.443204 704.80625,152.547191 705.740365,153.995943 C706.724244,155.671194 707.262,157.570798 707.302231,159.513185 C707.424467,161.378955 707.162114,163.249946 706.53144,165.010142 L704.158215,169.716024 C703.387424,171.298174 701.805274,171.298174 701.014199,172.089249 C699.452333,172.860041 697.870183,172.860041 696.308316,173.651116 L684.523327,173.651116 L679.79716,187.849899 L679.79716,187.789047 Z M684.523327,166.572008 L686.876268,166.572008 C690.811359,166.572008 693.955375,166.572008 694.726166,165.801217 C695.914415,165.215424 696.981164,164.410201 697.870183,163.427992 C698.860594,162.361737 699.423795,160.968176 699.452333,159.513185 C699.560849,158.643209 699.270056,157.77083 698.661258,157.139959 L697.099391,155.578093 C695.54949,155.179891 693.968318,154.915231 692.373225,154.787018 L686.876268,154.787018 L684.523327,166.572008 L684.523327,166.572008 Z M734.036511,176.004057 L715.172414,176.004057 L715.172414,176.795132 C715.338828,178.459916 715.872248,180.067103 716.73428,181.501014 C717.813799,182.483235 719.210384,183.044749 720.669371,183.083164 C723.14384,183.048639 725.336016,181.479332 726.166329,179.148073 L732.454361,179.939148 C731.054999,182.377407 729.186764,184.514501 726.957404,186.227181 C724.88481,187.699238 722.419715,188.518582 719.878296,188.580122 C715.963489,188.580122 712.819473,187.789047 711.237323,185.436105 C708.934015,182.859861 707.796407,179.447037 708.093306,176.004057 C707.941737,172.362159 709.052321,168.779629 711.237323,165.862069 C714.158029,161.846455 718.848472,159.501233 723.813387,159.574037 C726.957404,159.574037 730.10142,160.344828 731.663286,162.718053 C733.917971,164.997901 735.027771,168.170887 734.685598,171.359026 C734.806332,172.96662 734.542098,174.579836 733.914807,176.064909 L734.036511,176.004057 Z M727.748479,171.298174 L727.748479,171.298174 C727.826575,169.343315 727.271691,167.41545 726.166329,165.801217 C723.974934,163.691532 720.507825,163.691532 718.31643,165.801217 C716.623896,167.095282 715.731419,169.180294 715.963489,171.298174 L727.748479,171.298174 Z M741.947262,160.283976 L748.884381,160.283976 L748.093306,165.801217 C750.446247,161.866126 753.590264,159.513185 756.73428,159.513185 C757.839879,159.398928 758.95091,159.67131 759.878296,160.283976 L756.73428,166.572008 L754.381339,166.572008 C752.799189,166.572008 752.028398,167.363083 750.446247,168.154158 C748.997496,169.088273 747.893508,170.470038 747.302231,172.089249 C746.189382,174.595951 745.398767,177.233606 744.94929,179.939148 L743.387424,188.580122 L736.308316,188.580122 L741.805274,160.283976 L741.947262,160.283976 Z M763.1643,160.283976 L760.020284,175.212982 C759.508703,177.007911 759.242592,178.863861 759.229209,180.730223 C759.278151,182.667644 759.822867,184.560184 760.811359,186.227181 C762.373225,187.789047 763.955375,187.789047 766.308316,187.789047 C770.200521,187.717296 773.882359,186.008923 776.450304,183.083164 L775.659229,187.018256 L782.738337,187.018256 L788.235294,159.513185 L781.135903,159.513185 L778.782961,172.860041 C778.597565,174.186269 778.333407,175.500289 777.991886,176.795132 C777.200811,177.586207 777.200811,178.356998 776.43002,179.148073 C775.659229,179.939148 775.638945,180.730223 774.84787,180.730223 C774.438984,181.169452 773.883349,181.443662 773.286004,181.501014 L771.703854,181.501014 C770.836046,181.633756 769.956872,181.345519 769.336102,180.72475 C768.715333,180.10398 768.427096,179.224806 768.559838,178.356998 C768.568785,177.013276 768.837405,175.683954 769.350913,174.442191 L772.494929,157.931034 L763.083164,157.931034 L763.1643,160.283976 Z M777.363083,148.498986 L785.233266,148.498986 L776.592292,156.369168 L771.866126,156.369168 L777.363083,148.498986 Z M668.762677,83.2860041 L689.188641,66.7748479 C674.989858,97.4239351 708.843813,99.7768763 737.870183,91.1156187 C707.221095,102.109533 675.801217,100.547667 668.72211,83.2657201 L668.762677,83.2860041 Z M640.466531,104.421907 C674.259635,127.991886 768.559838,91.0547667 800,59.6146045 C752.839757,102.839757 646.754564,122.494929 662.474645,87.1196755 C654.624746,93.4888438 647.464503,98.9858012 640.466531,104.421907 Z" fill="#EC1C27"></path>
                    <path d="M640.466531,35.3346856 L616.125761,35.3346856 L618.478702,30.6288032 L618.478702,30.6288032 L623.204868,20.4868154 L601.967546,20.4868154 L597.241379,30.6288032 L597.241379,30.6288032 L594.888438,35.3346856 L572.109533,35.3346856 L565.821501,50.2636917 L588.640974,50.2636917 C586.288032,54.989858 583.935091,60.4056795 581.58215,65.2129817 L581.58215,65.2129817 L564.300203,104.421907 L564.300203,104.421907 C561.947262,112.271805 565.091278,119.350913 572.941176,120.912779 L602.839757,120.912779 L609.89858,104.421907 L586.247465,104.421907 L600.446247,70.6288032 L600.446247,70.6288032 L602.819473,65.1318458 L602.819473,65.1318458 C605.172414,60.4056795 606.73428,54.989858 609.107505,50.1825558 L634.239351,50.1825558 L640.527383,35.2535497 L640.466531,35.3346856 Z M499.79716,104.421907 L459.716024,104.421907 L452.738337,120.993915 L506.085193,120.993915 C517.870183,120.993915 535.943205,104.503043 528.884381,91.1359026 L502.941176,63.6308316 C500.588235,61.2778905 497.444219,58.1338742 498.235294,54.198783 C499.79716,50.2636917 506.085193,49.4929006 516.308316,50.2636917 L551.663286,50.2636917 L557.951318,36.0649087 L506.876268,36.0649087 C496.73428,36.0649087 488.01217,40.7910751 484.868154,47.0588235 C483.097862,49.7220775 481.769075,52.6536289 480.933063,55.7403651 L480.933063,55.7403651 C480.933063,58.8843813 480.933063,62.7991886 484.077079,65.8823529 L507.667343,91.8255578 L507.667343,91.8255578 C510.32389,93.070251 511.663135,96.0770726 510.811359,98.8843813 C510.811359,101.257606 506.085193,105.172414 499.79716,104.401623 L499.79716,104.421907 Z M403.935091,50.2636917 C407.079108,40.851927 421.217039,35.3346856 426.713996,35.3346856 L458.945233,35.3346856 C464.442191,35.3346856 471.521298,42.4137931 469.939148,50.2636917 L469.939148,50.2636917 L445.598377,104.503043 L445.598377,104.503043 C441.753427,113.763369 432.841523,119.913615 422.819473,120.223124 L385.801217,120.223124 C383.427992,120.223124 377.139959,113.935091 378.72211,103.711968 L378.72211,103.711968 L381.075051,98.9858012 L381.075051,98.9858012 L385.801217,88.8438134 L385.801217,88.8438134 L388.154158,84.1176471 L388.154158,84.1176471 C393.651116,73.1237323 399.148073,62.1298174 403.874239,50.3245436 L403.935091,50.2636917 Z M425.943205,104.421907 L428.296146,99.6957404 L428.296146,99.6957404 L449.513185,50.1825558 L424.340771,50.1825558 L421.98783,54.9087221 L421.98783,54.9087221 C414.901961,71.392833 407.829615,87.8972279 400.770791,104.421907 L425.943205,104.421907 Z M275.841785,157.058824 L296.267748,157.058824 L301.764706,144.503043 L301.764706,144.503043 C304.908722,136.63286 308.843813,128.782961 311.906694,120.912779 L311.906694,120.912779 L315.841785,112.271805 C317.609585,116.634738 321.395462,119.860305 325.983773,120.912779 L344.84787,120.912779 C353.488844,120.141988 361.359026,113.853955 365.273834,105.983773 L365.273834,105.983773 C374.705882,88.7018256 381.78499,68.2555781 389.614604,50.1825558 L389.614604,50.1825558 C390.40568,44.6855984 391.98783,40.040568 383.326572,35.9837728 L363.691684,35.9837728 C357.213858,36.6112043 351.127878,39.3723698 346.389452,43.8336714 L349.533469,35.9837728 L329.269777,35.9837728 C310.40568,75.2738337 293.914807,116.146045 275.841785,156.997972 L275.841785,157.058824 Z M344.989858,104.421907 L319.066937,104.421907 C326.916836,86.3488844 334.766734,67.484787 342.636917,49.4117647 L368.559838,49.4117647 C361.501014,68.2555781 352.839757,86.3488844 344.989858,104.421907 Z M315.131846,35.2535497 L308.843813,49.4523327 L263.26572,49.4523327 C260.121704,56.5111562 256.977688,63.6511156 253.833671,69.8782961 L253.833671,69.8782961 L247.545639,84.0770791 L247.545639,84.0770791 L245.192698,88.8032454 L245.192698,88.8032454 L240.466531,98.9452333 L240.466531,98.9452333 L238.904665,104.462475 L238.904665,104.462475 L231.825558,120.953347 L211.359026,120.953347 C216.064909,110.811359 220,100.527383 224.705882,90.3042596 L224.705882,90.3042596 C231.78499,74.5841785 238.073022,58.8843813 245.15213,43.1643002 L245.15213,43.1643002 L248.296146,35.2941176 L268.762677,35.2941176 L265.618661,42.3732252 C270.441187,37.5764947 276.894423,34.7735738 283.691684,34.5233266 L315.131846,34.5233266 L315.131846,35.2535497 Z M204.320487,104.421907 L158.742394,104.421907 C161.952399,98.0201244 164.836412,91.4600124 167.383367,84.7667343 L200.385396,84.7667343 C213.752535,83.2048682 216.896552,76.1257606 219.249493,70.5679513 L219.249493,70.5679513 L228.681542,50.1217039 L228.681542,50.1217039 C230.263692,45.4158215 225.537525,35.9229209 219.249493,35.9229209 L180.709939,35.9229209 C174.421907,37.505071 168.133874,39.8580122 161.845842,50.1217039 L161.845842,50.1217039 C153.204868,68.1947262 145.334686,86.2880325 137.505071,104.361055 L137.505071,104.361055 C135.922921,109.066937 136.713996,116.93712 143.793103,120.081136 L196.53144,120.081136 L204.381339,104.361055 L204.320487,104.421907 Z M207.464503,50.1825558 L201.967546,62.7586207 L201.176471,65.1318458 L201.176471,65.1318458 L198.032454,70.6288032 L172.819473,70.6288032 L181.48073,50.1825558 L207.464503,50.1825558 Z M93.5091278,104.421907 C102.170385,105.192698 111.58215,99.6957404 106.085193,89.4929006 L106.085193,89.4929006 L78.5801217,54.989858 L78.5801217,54.989858 L60.5070994,30.6490872 L60.5070994,30.6490872 C56.7343028,25.296958 56.4252973,18.2373719 59.7160243,12.5760649 C62.0892495,7.84989858 67.5862069,0.791075051 87.2210953,0 L172.109533,0 L165.030426,15.7200811 L104.523327,15.7200811 C100.588235,15.7200811 73.8742394,14.137931 77.0182556,23.5699797 L124.137931,84.8478702 L124.137931,84.8478702 C133.56998,99.7768763 115.496957,120.993915 100.567951,120.993915 L0,120.993915 L7.07910751,104.421907 L93.5091278,104.421907 Z M733.995943,34.4827586 L734.685598,34.4827586 L734.685598,35.2535497 L733.914807,34.4827586 L733.995943,34.4827586 Z M737.139959,33.6916836 C737.910751,34.4827586 738.701826,34.4827586 740.283976,35.2535497 L741.054767,35.2535497 L741.054767,36.8356998 L741.845842,36.8356998 L742.636917,36.0446247 L744.198783,36.0446247 L743.427992,36.8356998 L743.427992,37.6267748 L739.492901,37.6267748 L738.701826,39.188641 L737.910751,40.7707911 L739.492901,39.188641 L740.283976,39.188641 L741.054767,39.979716 L742.636917,39.979716 L741.845842,41.5415822 L741.054767,42.3326572 L741.054767,42.3326572 L741.054767,41.5415822 L740.283976,41.5415822 L739.492901,42.3326572 L738.701826,43.1237323 L738.701826,43.8945233 L737.910751,45.4766734 L737.139959,46.2677485 L737.139959,47.8296146 C737.910751,50.1825558 736.348884,51.7647059 735.557809,54.1176471 L737.139959,57.2616633 L736.348884,58.0527383 L733.995943,54.9087221 L733.204868,53.326572 L730.060852,53.326572 L729.269777,54.1176471 L726.125761,54.9087221 L725.334686,56.4705882 L726.125761,58.0527383 L726.125761,59.7971602 L727.707911,62.9411765 L728.478702,63.7322515 L730.060852,62.9411765 L730.851927,61.3793103 L732.413793,59.7971602 C732.338241,61.6691238 732.606361,63.5390862 733.204868,65.3144016 L735.557809,64.5233266 L736.348884,65.3144016 L736.348884,66.8762677 L737.139959,69.2292089 L738.701826,70.020284 L740.283976,69.2292089 L741.845842,69.2292089 L741.845842,68.4381339 L742.636917,66.8762677 L743.427992,66.8762677 L743.427992,68.4381339 L744.198783,68.4381339 L744.198783,66.8762677 L745.780933,66.0851927 L746.551724,66.8762677 C747.342799,66.0851927 748.924949,66.0851927 749.69574,65.3144016 L751.27789,66.0851927 L751.27789,66.8762677 L752.068966,66.8762677 L752.839757,67.6673428 L752.839757,69.2292089 L754.421907,69.2292089 C755.111359,68.6931027 756.033761,68.5637562 756.844076,68.889553 C757.654391,69.2153499 758.230537,69.9472052 758.356998,70.811359 L758.356998,70.811359 L758.356998,71.5821501 L757.565923,72.3732252 L757.565923,73.9553753 L758.356998,73.9553753 L758.356998,73.1643002 L759.127789,72.3732252 L762.271805,72.3732252 L763.06288,73.1643002 C764.171504,73.2813274 765.285672,73.0009883 766.206897,72.3732252 C766.418382,72.3675825 766.62289,72.4491144 766.772486,72.5987104 C766.922082,72.7483065 767.003614,72.9528147 766.997972,73.1643002 C770.933063,70.811359 775.638945,68.4381339 779.574037,66.0851927 C779.67919,65.2216614 779.388439,64.3568639 778.782961,63.7322515 C775.638945,44.8681542 756.774848,32.2920892 737.139959,33.8742394 L737.139959,33.6916836 Z M781.135903,78.4787018 C779.531433,94.398435 768.780809,107.915996 753.630832,113.063155 C753.842317,113.068523 754.046825,112.986991 754.196421,112.837395 C754.346017,112.687799 754.427549,112.483291 754.421907,112.271805 L753.630832,111.48073 L754.421907,110.709939 L754.421907,109.918864 L755.212982,109.127789 L754.421907,108.336714 L754.421907,107.565923 L755.212982,107.565923 L755.212982,105.192698 C755.983773,104.421907 756.774848,104.421907 758.356998,103.630832 L759.127789,102.048682 L758.356998,102.048682 L757.565923,101.27789 L759.127789,102.048682 L760.709939,102.048682 L762.271805,101.27789 L762.271805,100.486815 L762.271805,100.486815 L763.06288,99.6957404 L763.06288,97.3427992 L763.853955,95.7606491 L763.083164,94.2799189 L763.874239,93.4888438 L766.227181,90.3448276 L767.809331,89.5740365 L767.809331,87.2008114 L768.580122,84.8478702 C772.99609,83.2333608 777.214998,81.1239069 781.156187,78.5598377 L781.135903,78.4787018 Z M750.486815,113.853955 L750.486815,113.853955 C739.713055,116.217884 728.44215,114.289678 719.066937,108.478702 C730.060852,104.563895 740.283976,100.628803 750.486815,95.9026369 L750.486815,99.0466531 C751.131219,100.534181 751.402771,102.156527 751.27789,103.772819 L751.27789,108.478702 L752.068966,109.269777 L752.068966,113.204868 L750.486815,113.995943 L750.486815,113.853955 Z M703.346856,88.7018256 C702.46179,86.9919078 701.924065,85.1236609 701.764706,83.2048682 C698.781056,71.6970648 701.405194,59.4561011 708.843813,50.1825558 C708.724991,51.2913055 709.005484,52.4060857 709.634888,53.326572 C709.634888,54.9087221 711.196755,55.6997972 712.778905,56.4705882 L713.549696,58.0527383 L714.340771,58.8438134 L714.340771,59.7971602 L715.922921,60.5882353 L717.484787,62.9411765 L718.275862,62.9411765 L718.275862,62.1703854 L717.484787,61.3793103 L716.693712,60.5882353 L715.922921,59.7971602 L715.131846,58.2352941 L714.340771,57.4442191 L714.340771,55.7403651 L715.131846,56.5111562 L715.922921,58.0933063 L716.693712,58.0933063 L717.484787,58.8843813 L719.066937,60.4462475 L720.628803,61.2373225 C721.45624,62.1026708 722.000959,63.1991844 722.190669,64.3813387 L723.772819,65.1724138 C725.334686,65.1724138 726.125761,65.9432049 727.707911,65.9432049 L728.478702,65.1724138 L729.269777,65.9432049 L730.060852,66.7342799 L730.851927,66.7342799 L733.204868,67.525355 L733.995943,66.7342799 L733.995943,67.525355 L734.766734,68.296146 C736.348884,69.0872211 737.139959,69.8782961 738.701826,69.8782961 L738.701826,69.0872211 L739.492901,68.296146 L740.283976,69.0872211 L740.283976,69.0872211 C740.283976,69.8782961 741.054767,70.6693712 741.054767,72.2312373 L741.054767,73.0223124 L740.283976,74.5841785 L739.492901,76.1663286 L739.492901,77.7281947 L740.283976,77.7281947 L739.492901,79.3103448 L739.492901,80.0811359 L740.283976,80.0811359 C741.054767,80.851927 741.845842,81.643002 741.845842,82.4340771 C726.916836,89.5131846 711.196755,91.8661258 703.306288,88.7221095 L703.346856,88.7018256 Z M723.772819,37.6267748 C726.125761,36.8356998 727.707911,36.0446247 730.060852,35.2535497 L730.851927,35.2535497 L731.622718,36.8356998 L731.622718,37.6267748 L732.413793,38.3975659 L733.204868,39.188641 L730.060852,39.188641 L729.269777,37.6267748 L726.916836,38.3975659 L724.543611,38.3975659 L723.752535,37.6267748 L723.772819,37.6267748 Z" fill="#FFFFFF"></path>
                </g>
            </g>
        </g>
    </g>
</svg>