<?xml version="1.0" encoding="UTF-8"?>
<svg width="980px" height="680px" viewBox="0 0 980 680" version="1.1" xmlns="http://www.w3.org/2000/svg" xmlns:xlink="http://www.w3.org/1999/xlink">
    <title>PE Serpost</title>
    <defs>
        <rect id="path-1" x="0" y="0" width="900" height="600" rx="80"></rect>
        <filter x="-6.7%" y="-10.0%" width="113.3%" height="120.0%" filterUnits="objectBoundingBox" id="filter-3">
            <feMorphology radius="2.5" operator="dilate" in="SourceAlpha" result="shadowSpreadOuter1"></feMorphology>
            <feOffset dx="0" dy="0" in="shadowSpreadOuter1" result="shadowOffsetOuter1"></feOffset>
            <feGaussianBlur stdDeviation="17.5" in="shadowOffsetOuter1" result="shadowBlurOuter1"></feGaussianBlur>
            <feColorMatrix values="0 0 0 0 0   0 0 0 0 0   0 0 0 0 0  0 0 0 0.5 0" type="matrix" in="shadowBlurOuter1"></feColorMatrix>
        </filter>
    </defs>
    <g id="PE-Serpost" stroke="none" stroke-width="1" fill="none" fill-rule="evenodd">
        <g transform="translate(40, 40)">
            <mask id="mask-2" fill="white">
                <use xlink:href="#path-1"></use>
            </mask>
            <g id="Rectangle">
                <use fill="black" fill-opacity="1" filter="url(#filter-3)" xlink:href="#path-1"></use>
                <use fill="#252C7A" fill-rule="evenodd" xlink:href="#path-1"></use>
            </g>
            <g id="Logo" mask="url(#mask-2)">
                <g transform="translate(49.8, 221.52)" id="Shape">
                    <path d="M668.762677,83.2860041 L689.188641,66.7748479 C674.989858,97.4239351 708.843813,99.7768763 737.870183,91.1156187 C707.221095,102.109533 675.801217,100.547667 668.72211,83.2657201 L668.762677,83.2860041 Z M640.466531,104.421907 C674.259635,127.991886 768.559838,91.0547667 800,59.6146045 C752.839757,102.839757 646.754564,122.494929 662.474645,87.1196755 C654.624746,93.4888438 647.464503,98.9858012 640.466531,104.421907 Z" fill="#EC1C27"></path>
                    <path d="M640.466531,35.3346856 L616.125761,35.3346856 L618.478702,30.6288032 L618.478702,30.6288032 L623.204868,20.4868154 L601.967546,20.4868154 L597.241379,30.6288032 L597.241379,30.6288032 L594.888438,35.3346856 L572.109533,35.3346856 L565.821501,50.2636917 L588.640974,50.2636917 C586.288032,54.989858 583.935091,60.4056795 581.58215,65.2129817 L581.58215,65.2129817 L564.300203,104.421907 L564.300203,104.421907 C561.947262,112.271805 565.091278,119.350913 572.941176,120.912779 L602.839757,120.912779 L609.89858,104.421907 L586.247465,104.421907 L600.446247,70.6288032 L600.446247,70.6288032 L602.819473,65.1318458 L602.819473,65.1318458 C605.172414,60.4056795 606.73428,54.989858 609.107505,50.1825558 L634.239351,50.1825558 L640.527383,35.2535497 L640.466531,35.3346856 Z M499.79716,104.421907 L459.716024,104.421907 L452.738337,120.993915 L506.085193,120.993915 C517.870183,120.993915 535.943205,104.503043 528.884381,91.1359026 L502.941176,63.6308316 C500.588235,61.2778905 497.444219,58.1338742 498.235294,54.198783 C499.79716,50.2636917 506.085193,49.4929006 516.308316,50.2636917 L551.663286,50.2636917 L557.951318,36.0649087 L506.876268,36.0649087 C496.73428,36.0649087 488.01217,40.7910751 484.868154,47.0588235 C483.097862,49.7220775 481.769075,52.6536289 480.933063,55.7403651 L480.933063,55.7403651 C480.933063,58.8843813 480.933063,62.7991886 484.077079,65.8823529 L507.667343,91.8255578 L507.667343,91.8255578 C510.32389,93.070251 511.663135,96.0770726 510.811359,98.8843813 C510.811359,101.257606 506.085193,105.172414 499.79716,104.401623 L499.79716,104.421907 Z M403.935091,50.2636917 C407.079108,40.851927 421.217039,35.3346856 426.713996,35.3346856 L458.945233,35.3346856 C464.442191,35.3346856 471.521298,42.4137931 469.939148,50.2636917 L469.939148,50.2636917 L445.598377,104.503043 L445.598377,104.503043 C441.753427,113.763369 432.841523,119.913615 422.819473,120.223124 L385.801217,120.223124 C383.427992,120.223124 377.139959,113.935091 378.72211,103.711968 L378.72211,103.711968 L381.075051,98.9858012 L381.075051,98.9858012 L385.801217,88.8438134 L385.801217,88.8438134 L388.154158,84.1176471 L388.154158,84.1176471 C393.651116,73.1237323 399.148073,62.1298174 403.874239,50.3245436 L403.935091,50.2636917 Z M425.943205,104.421907 L428.296146,99.6957404 L428.296146,99.6957404 L449.513185,50.1825558 L424.340771,50.1825558 L421.98783,54.9087221 L421.98783,54.9087221 C414.901961,71.392833 407.829615,87.8972279 400.770791,104.421907 L425.943205,104.421907 Z M275.841785,157.058824 L296.267748,157.058824 L301.764706,144.503043 L301.764706,144.503043 C304.908722,136.63286 308.843813,128.782961 311.906694,120.912779 L311.906694,120.912779 L315.841785,112.271805 C317.609585,116.634738 321.395462,119.860305 325.983773,120.912779 L344.84787,120.912779 C353.488844,120.141988 361.359026,113.853955 365.273834,105.983773 L365.273834,105.983773 C374.705882,88.7018256 381.78499,68.2555781 389.614604,50.1825558 L389.614604,50.1825558 C390.40568,44.6855984 391.98783,40.040568 383.326572,35.9837728 L363.691684,35.9837728 C357.213858,36.6112043 351.127878,39.3723698 346.389452,43.8336714 L349.533469,35.9837728 L329.269777,35.9837728 C310.40568,75.2738337 293.914807,116.146045 275.841785,156.997972 L275.841785,157.058824 Z M344.989858,104.421907 L319.066937,104.421907 C326.916836,86.3488844 334.766734,67.484787 342.636917,49.4117647 L368.559838,49.4117647 C361.501014,68.2555781 352.839757,86.3488844 344.989858,104.421907 Z M315.131846,35.2535497 L308.843813,49.4523327 L263.26572,49.4523327 C260.121704,56.5111562 256.977688,63.6511156 253.833671,69.8782961 L253.833671,69.8782961 L247.545639,84.0770791 L247.545639,84.0770791 L245.192698,88.8032454 L245.192698,88.8032454 L240.466531,98.9452333 L240.466531,98.9452333 L238.904665,104.462475 L238.904665,104.462475 L231.825558,120.953347 L211.359026,120.953347 C216.064909,110.811359 220,100.527383 224.705882,90.3042596 L224.705882,90.3042596 C231.78499,74.5841785 238.073022,58.8843813 245.15213,43.1643002 L245.15213,43.1643002 L248.296146,35.2941176 L268.762677,35.2941176 L265.618661,42.3732252 C270.441187,37.5764947 276.894423,34.7735738 283.691684,34.5233266 L315.131846,34.5233266 L315.131846,35.2535497 Z M204.320487,104.421907 L158.742394,104.421907 C161.952399,98.0201244 164.836412,91.4600124 167.383367,84.7667343 L200.385396,84.7667343 C213.752535,83.2048682 216.896552,76.1257606 219.249493,70.5679513 L219.249493,70.5679513 L228.681542,50.1217039 L228.681542,50.1217039 C230.263692,45.4158215 225.537525,35.9229209 219.249493,35.9229209 L180.709939,35.9229209 C174.421907,37.505071 168.133874,39.8580122 161.845842,50.1217039 L161.845842,50.1217039 C153.204868,68.1947262 145.334686,86.2880325 137.505071,104.361055 L137.505071,104.361055 C135.922921,109.066937 136.713996,116.93712 143.793103,120.081136 L196.53144,120.081136 L204.381339,104.361055 L204.320487,104.421907 Z M207.464503,50.1825558 L201.967546,62.7586207 L201.176471,65.1318458 L201.176471,65.1318458 L198.032454,70.6288032 L172.819473,70.6288032 L181.48073,50.1825558 L207.464503,50.1825558 Z M93.5091278,104.421907 C102.170385,105.192698 111.58215,99.6957404 106.085193,89.4929006 L106.085193,89.4929006 L78.5801217,54.989858 L78.5801217,54.989858 L60.5070994,30.6490872 L60.5070994,30.6490872 C56.7343028,25.296958 56.4252973,18.2373719 59.7160243,12.5760649 C62.0892495,7.84989858 67.5862069,0.791075051 87.2210953,0 L172.109533,0 L165.030426,15.7200811 L104.523327,15.7200811 C100.588235,15.7200811 73.8742394,14.137931 77.0182556,23.5699797 L124.137931,84.8478702 L124.137931,84.8478702 C133.56998,99.7768763 115.496957,120.993915 100.567951,120.993915 L0,120.993915 L7.07910751,104.421907 L93.5091278,104.421907 Z M733.995943,34.4827586 L734.685598,34.4827586 L734.685598,35.2535497 L733.914807,34.4827586 L733.995943,34.4827586 Z M737.139959,33.6916836 C737.910751,34.4827586 738.701826,34.4827586 740.283976,35.2535497 L741.054767,35.2535497 L741.054767,36.8356998 L741.845842,36.8356998 L742.636917,36.0446247 L744.198783,36.0446247 L743.427992,36.8356998 L743.427992,37.6267748 L739.492901,37.6267748 L738.701826,39.188641 L737.910751,40.7707911 L739.492901,39.188641 L740.283976,39.188641 L741.054767,39.979716 L742.636917,39.979716 L741.845842,41.5415822 L741.054767,42.3326572 L741.054767,42.3326572 L741.054767,41.5415822 L740.283976,41.5415822 L739.492901,42.3326572 L738.701826,43.1237323 L738.701826,43.8945233 L737.910751,45.4766734 L737.139959,46.2677485 L737.139959,47.8296146 C737.910751,50.1825558 736.348884,51.7647059 735.557809,54.1176471 L737.139959,57.2616633 L736.348884,58.0527383 L733.995943,54.9087221 L733.204868,53.326572 L730.060852,53.326572 L729.269777,54.1176471 L726.125761,54.9087221 L725.334686,56.4705882 L726.125761,58.0527383 L726.125761,59.7971602 L727.707911,62.9411765 L728.478702,63.7322515 L730.060852,62.9411765 L730.851927,61.3793103 L732.413793,59.7971602 C732.338241,61.6691238 732.606361,63.5390862 733.204868,65.3144016 L735.557809,64.5233266 L736.348884,65.3144016 L736.348884,66.8762677 L737.139959,69.2292089 L738.701826,70.020284 L740.283976,69.2292089 L741.845842,69.2292089 L741.845842,68.4381339 L742.636917,66.8762677 L743.427992,66.8762677 L743.427992,68.4381339 L744.198783,68.4381339 L744.198783,66.8762677 L745.780933,66.0851927 L746.551724,66.8762677 C747.342799,66.0851927 748.924949,66.0851927 749.69574,65.3144016 L751.27789,66.0851927 L751.27789,66.8762677 L752.068966,66.8762677 L752.839757,67.6673428 L752.839757,69.2292089 L754.421907,69.2292089 C755.111359,68.6931027 756.033761,68.5637562 756.844076,68.889553 C757.654391,69.2153499 758.230537,69.9472052 758.356998,70.811359 L758.356998,70.811359 L758.356998,71.5821501 L757.565923,72.3732252 L757.565923,73.9553753 L758.356998,73.9553753 L758.356998,73.1643002 L759.127789,72.3732252 L762.271805,72.3732252 L763.06288,73.1643002 C764.171504,73.2813274 765.285672,73.0009883 766.206897,72.3732252 C766.418382,72.3675825 766.62289,72.4491144 766.772486,72.5987104 C766.922082,72.7483065 767.003614,72.9528147 766.997972,73.1643002 C770.933063,70.811359 775.638945,68.4381339 779.574037,66.0851927 C779.67919,65.2216614 779.388439,64.3568639 778.782961,63.7322515 C775.638945,44.8681542 756.774848,32.2920892 737.139959,33.8742394 L737.139959,33.6916836 Z M781.135903,78.4787018 C779.531433,94.398435 768.780809,107.915996 753.630832,113.063155 C753.842317,113.068523 754.046825,112.986991 754.196421,112.837395 C754.346017,112.687799 754.427549,112.483291 754.421907,112.271805 L753.630832,111.48073 L754.421907,110.709939 L754.421907,109.918864 L755.212982,109.127789 L754.421907,108.336714 L754.421907,107.565923 L755.212982,107.565923 L755.212982,105.192698 C755.983773,104.421907 756.774848,104.421907 758.356998,103.630832 L759.127789,102.048682 L758.356998,102.048682 L757.565923,101.27789 L759.127789,102.048682 L760.709939,102.048682 L762.271805,101.27789 L762.271805,100.486815 L762.271805,100.486815 L763.06288,99.6957404 L763.06288,97.3427992 L763.853955,95.7606491 L763.083164,94.2799189 L763.874239,93.4888438 L766.227181,90.3448276 L767.809331,89.5740365 L767.809331,87.2008114 L768.580122,84.8478702 C772.99609,83.2333608 777.214998,81.1239069 781.156187,78.5598377 L781.135903,78.4787018 Z M750.486815,113.853955 L750.486815,113.853955 C739.713055,116.217884 728.44215,114.289678 719.066937,108.478702 C730.060852,104.563895 740.283976,100.628803 750.486815,95.9026369 L750.486815,99.0466531 C751.131219,100.534181 751.402771,102.156527 751.27789,103.772819 L751.27789,108.478702 L752.068966,109.269777 L752.068966,113.204868 L750.486815,113.995943 L750.486815,113.853955 Z M703.346856,88.7018256 C702.46179,86.9919078 701.924065,85.1236609 701.764706,83.2048682 C698.781056,71.6970648 701.405194,59.4561011 708.843813,50.1825558 C708.724991,51.2913055 709.005484,52.4060857 709.634888,53.326572 C709.634888,54.9087221 711.196755,55.6997972 712.778905,56.4705882 L713.549696,58.0527383 L714.340771,58.8438134 L714.340771,59.7971602 L715.922921,60.5882353 L717.484787,62.9411765 L718.275862,62.9411765 L718.275862,62.1703854 L717.484787,61.3793103 L716.693712,60.5882353 L715.922921,59.7971602 L715.131846,58.2352941 L714.340771,57.4442191 L714.340771,55.7403651 L715.131846,56.5111562 L715.922921,58.0933063 L716.693712,58.0933063 L717.484787,58.8843813 L719.066937,60.4462475 L720.628803,61.2373225 C721.45624,62.1026708 722.000959,63.1991844 722.190669,64.3813387 L723.772819,65.1724138 C725.334686,65.1724138 726.125761,65.9432049 727.707911,65.9432049 L728.478702,65.1724138 L729.269777,65.9432049 L730.060852,66.7342799 L730.851927,66.7342799 L733.204868,67.525355 L733.995943,66.7342799 L733.995943,67.525355 L734.766734,68.296146 C736.348884,69.0872211 737.139959,69.8782961 738.701826,69.8782961 L738.701826,69.0872211 L739.492901,68.296146 L740.283976,69.0872211 L740.283976,69.0872211 C740.283976,69.8782961 741.054767,70.6693712 741.054767,72.2312373 L741.054767,73.0223124 L740.283976,74.5841785 L739.492901,76.1663286 L739.492901,77.7281947 L740.283976,77.7281947 L739.492901,79.3103448 L739.492901,80.0811359 L740.283976,80.0811359 C741.054767,80.851927 741.845842,81.643002 741.845842,82.4340771 C726.916836,89.5131846 711.196755,91.8661258 703.306288,88.7221095 L703.346856,88.7018256 Z M723.772819,37.6267748 C726.125761,36.8356998 727.707911,36.0446247 730.060852,35.2535497 L730.851927,35.2535497 L731.622718,36.8356998 L731.622718,37.6267748 L732.413793,38.3975659 L733.204868,39.188641 L730.060852,39.188641 L729.269777,37.6267748 L726.916836,38.3975659 L724.543611,38.3975659 L723.752535,37.6267748 L723.772819,37.6267748 Z" fill="#FFFFFF"></path>
                </g>
            </g>
        </g>
    </g>
</svg>