<?xml version="1.0" encoding="UTF-8"?>
<svg width="980px" height="680px" viewBox="0 0 980 680" version="1.1" xmlns="http://www.w3.org/2000/svg" xmlns:xlink="http://www.w3.org/1999/xlink">
    <title>PF OPT</title>
    <defs>
        <rect id="path-1" x="0" y="0" width="900" height="600" rx="80"></rect>
        <filter x="-6.7%" y="-10.0%" width="113.3%" height="120.0%" filterUnits="objectBoundingBox" id="filter-3">
            <feMorphology radius="2.5" operator="dilate" in="SourceAlpha" result="shadowSpreadOuter1"></feMorphology>
            <feOffset dx="0" dy="0" in="shadowSpreadOuter1" result="shadowOffsetOuter1"></feOffset>
            <feGaussianBlur stdDeviation="17.5" in="shadowOffsetOuter1" result="shadowBlurOuter1"></feGaussianBlur>
            <feColorMatrix values="0 0 0 0 0   0 0 0 0 0   0 0 0 0 0  0 0 0 0.5 0" type="matrix" in="shadowBlurOuter1"></feColorMatrix>
        </filter>
    </defs>
    <g id="PF-OPT" stroke="none" stroke-width="1" fill="none" fill-rule="evenodd">
        <g transform="translate(40, 40)">
            <mask id="mask-2" fill="white">
                <use xlink:href="#path-1"></use>
            </mask>
            <g id="Rectangle">
                <use fill="black" fill-opacity="1" filter="url(#filter-3)" xlink:href="#path-1"></use>
                <use fill="#E01322" fill-rule="evenodd" xlink:href="#path-1"></use>
            </g>
            <g id="Logo" mask="url(#mask-2)">
                <polygon id="Fill-1" fill="#25378C" points="0 600 900 600 900 300 0 300"></polygon>
                <polygon id="Fill-2" fill="#FCD205" points="0 300 900 300 900 0 0 0"></polygon>
                <path d="M345.966157,409.897281 L616.950641,409.897281 L530.948586,377.949397 L345.966157,409.897281 Z M416.959291,389.23447 L515.106017,371.692166 L383.8696,321.339136 L416.959291,389.23447 Z M345.385522,487.381197 L616.370006,487.381197 L530.393902,519.374493 L345.411472,487.381197 L345.385522,487.381197 Z M416.375412,508.044007 L514.522139,525.586311 L383.288966,575.939342 L416.375412,508.044007 Z M719.051522,448.358653 L634.749203,416.410769 L326.445153,416.410769 L213.289506,443.823863 L181.318917,416.410769 L195.18603,452.87398 L181.318917,484.286641 L213.289506,461.622425 L326.701411,480.027572 L634.749203,480.027572 L719.051522,448.358653 Z" id="Fill-3" fill="#FFFFFF"></path>
                <path d="M580.325566,32.8798183 L721.238147,32.8798183 L711.769584,107.87252 L675.098773,107.87252 L655.08796,269.357085 L588.029518,269.357085 L608.017624,107.87252 L570.788885,107.87252 L580.32881,32.8798183 L580.325566,32.8798183 Z M471.500351,97.4729956 L477.851652,97.4729956 C488.857761,97.4729956 502.468617,98.4493702 500.188247,116.948586 C497.813808,136.07385 484.783587,138.587771 473.034654,138.587771 L466.423853,138.587771 L471.497108,97.4729956 L471.500351,97.4729956 Z M385.641023,269.357085 L450.256907,269.357085 L459.054009,198.15635 L493.327675,198.15635 C530.76726,198.15635 557.966265,168.093096 563.947775,119.741472 C571.207331,61.1038547 542.866519,32.8798183 499.821701,32.8798183 L414.89009,32.8798183 L385.644267,269.357085 L385.641023,269.357085 Z M287.306158,106.896145 C308.572309,106.896145 319.205385,127.883332 316.114073,153.016057 C312.740553,179.958804 296.265448,198.480727 275.998378,198.480727 C255.640482,198.480727 243.748824,179.958804 247.076931,153.016057 C250.194194,127.883332 266.014056,106.896145 287.306158,106.896145 L287.306158,106.896145 Z M296.86879,29.0878521 C240.865113,29.0878521 188.880467,77.3908201 179.668162,151.757474 C170.313132,227.658431 210.474239,273.149051 266.737417,273.149051 C323.046007,273.149051 374.398119,227.658431 383.798562,151.757474 C392.968698,77.3908201 352.943829,29.0878521 296.86879,29.0878521 L296.86879,29.0878521 Z" id="Fill-4" fill="#231F20"></path>
            </g>
        </g>
    </g>
</svg>