<?xml version="1.0" encoding="UTF-8"?>
<svg width="980px" height="680px" viewBox="0 0 980 680" version="1.1" xmlns="http://www.w3.org/2000/svg" xmlns:xlink="http://www.w3.org/1999/xlink">
    <title>PH PHLPost</title>
    <defs>
        <linearGradient x1="50%" y1="0%" x2="50%" y2="100%" id="linearGradient-1">
            <stop stop-color="#FFFFFF" offset="0%"></stop>
            <stop stop-color="#EDEDED" offset="100%"></stop>
        </linearGradient>
        <rect id="path-2" x="-5.68434189e-14" y="0" width="900" height="600" rx="80"></rect>
        <filter x="-6.7%" y="-10.0%" width="113.3%" height="120.0%" filterUnits="objectBoundingBox" id="filter-3">
            <feMorphology radius="2.5" operator="dilate" in="SourceAlpha" result="shadowSpreadOuter1"></feMorphology>
            <feOffset dx="0" dy="0" in="shadowSpreadOuter1" result="shadowOffsetOuter1"></feOffset>
            <feGaussianBlur stdDeviation="17.5" in="shadowOffsetOuter1" result="shadowBlurOuter1"></feGaussianBlur>
            <feColorMatrix values="0 0 0 0 0   0 0 0 0 0   0 0 0 0 0  0 0 0 0.5 0" type="matrix" in="shadowBlurOuter1"></feColorMatrix>
        </filter>
    </defs>
    <g id="PH-PHLPost" stroke="none" stroke-width="1" fill="none" fill-rule="evenodd">
        <g transform="translate(40, 40)">
            <g id="Rectangle">
                <use fill="black" fill-opacity="1" filter="url(#filter-3)" xlink:href="#path-2"></use>
                <use fill="url(#linearGradient-1)" fill-rule="evenodd" xlink:href="#path-2"></use>
            </g>
            <g id="Group" transform="translate(208, 54)" fill="#FFBE0A" fill-rule="nonzero">
                <path d="M426.813196,1.35577927 C431.29009,0.805546476 435.917048,-0.77012015 440.468973,0.455398337 C446.196397,3.00647764 445.195973,9.90939809 445.296016,15.0365673 C444.64574,41.6728364 446.371471,68.3091056 445.546121,94.9203642 C445.646164,99.8974699 439.843709,101.423115 435.942058,102.07339 C402.502911,107.850835 369.163806,114.353586 335.674637,119.930946 C330.772564,121.256506 327.62123,116.379443 326.370701,112.402761 C317.416913,86.9419887 308.68822,61.3811745 299.63439,35.9454133 C298.909083,32.7190483 296.808194,28.8674188 298.834051,25.7410961 C301.059993,21.5393184 306.262194,21.6393608 310.313908,20.6389375 C349.155341,14.3112604 387.996774,7.95857275 426.813196,1.35577927 M330.547468,33.5193869 C344.228256,41.6728364 358.284203,49.1510003 372.265118,56.7792276 C384.945483,44.1989051 398.626271,32.6940377 411.431688,20.2387682 C384.445271,24.6406305 357.583907,29.567715 330.547468,33.5193869 M378.042562,73.061116 C373.765753,76.6626398 368.288436,73.3362324 364.261732,71.1603119 C349.780605,62.8818094 335.099394,55.0034763 320.568246,46.8750374 C327.471167,65.4829099 333.323643,84.4659411 340.551701,102.948761 C370.139219,97.2963694 399.851789,92.2692425 429.489328,86.7669146 C429.364275,66.7834601 429.58937,46.8000056 429.364275,26.8165511 C411.50672,41.3476989 395.399906,57.9547249 378.042562,73.061116 Z" id="Shape"></path>
                <path d="M227.578905,124.582914 C247.312253,118.780459 268.421184,120.906358 288.204554,125.508305 C291.856099,132.011056 292.78149,140.76476 297.983691,145.91694 C312.764945,145.591802 327.546199,144.691421 342.377473,145.09159 C342.802653,148.192902 343.277854,151.269204 343.803076,154.370516 C331.04768,161.373479 318.16723,168.201368 305.511876,175.354394 C313.165114,188.009748 315.816236,203.391256 312.664903,217.872382 C307.83786,241.757487 285.153263,260.640476 260.742936,260.765529 C242.260116,261.941027 223.677254,252.762143 213.197821,237.58072 C205.044371,226.726128 202.893461,212.995319 202.668366,199.764721 C196.665826,188.309875 191.113477,176.604923 185.436075,164.975003 C192.213943,145.94195 208.02063,130.160273 227.578905,124.582914 Z" id="Path"></path>
                <path d="M348.480055,154.745675 C352.58179,133.361628 379.293091,121.806739 398.101049,132.361204 C417.159112,141.61512 422.111207,168.651558 408.780567,184.783383 C411.656784,184.333193 414.583022,183.933023 417.53427,183.507843 C427.088312,223.824901 414.257884,269.744328 382.519456,297.055883 C365.812388,312.687496 346.704304,325.793041 325.8955,335.347083 C319.967992,348.12749 313.915432,360.882886 308.087966,373.713315 C329.296939,366.510267 354.382552,364.559442 374.06588,377.014711 C385.570747,383.692537 392.873837,395.247425 399.076461,406.65225 C414.007778,393.171547 432.59064,381.466595 453.324412,381.26651 C465.179428,381.041415 475.858946,387.594187 483.487173,396.272859 C453.149338,420.258007 423.361736,444.893429 393.098932,468.928598 C376.742012,450.245694 355.908198,434.213911 331.122712,429.111752 C305.511876,423.159234 278.800575,432.513191 258.416952,448.019752 C241.009587,461.675529 223.177042,474.931137 203.993927,486.010825 C184.935864,497.065502 162.301287,501.117216 140.49206,499.741634 C118.457738,498.190978 96.6235008,487.93664 83.4429244,469.879 C70.1122845,452.646709 64.4598931,431.062578 60.8583694,409.953647 C41.825317,407.577642 20.4662805,404.101171 7.33572527,388.694653 C-4.89444901,374.038452 0.107667259,353.104596 8.28612737,337.773109 C46.3522322,354.505188 84.7434746,370.536971 122.784569,387.319071 C123.985077,402.425462 127.511569,418.857414 139.041447,429.611964 C152.94733,440.991779 175.481864,440.716662 188.66244,428.186361 C200.192318,417.756948 203.468704,401.825208 207.57044,387.494145 C212.597567,366.735362 216.799344,343.750638 207.545429,323.542088 C202.718387,312.687496 191.863795,305.659523 180.408948,303.708697 C168.103742,300.782459 156.098663,306.759988 145.669251,312.612464 C144.293669,311.56202 141.542505,309.461131 140.166923,308.410687 C141.067304,318.339888 141.442463,329.19448 135.214828,337.648056 C124.53531,354.655252 98.6743684,357.831595 83.8430937,344.525966 C69.9872316,333.046109 68.2865121,310.311491 79.8163901,296.655713 C86.1190566,288.502264 96.2233315,284.300486 106.377627,283.950338 C104.226717,282.199597 102.100818,280.448857 100.02494,278.698116 C111.479786,257.013942 136.790494,245.959265 160.650589,247.4599 C197.816313,250.010979 231.705651,267.543397 267.970994,274.446317 C290.430496,278.973232 314.040485,274.196211 334.174003,263.841831 C356.558473,249.285672 359.159573,219.748176 358.309214,195.487912 C360.435113,195.287827 364.711922,194.912668 366.837822,194.712584 C353.307097,186.684187 344.078193,170.602383 348.480055,154.745675 Z" id="Path"></path>
            </g>
        </g>
    </g>
</svg>