<?xml version="1.0" encoding="UTF-8"?>
<svg width="980px" height="680px" viewBox="0 0 980 680" version="1.1" xmlns="http://www.w3.org/2000/svg" xmlns:xlink="http://www.w3.org/1999/xlink">
    <title>PH PHLPost text</title>
    <defs>
        <linearGradient x1="50%" y1="0%" x2="50%" y2="100%" id="linearGradient-1">
            <stop stop-color="#FFFFFF" offset="0%"></stop>
            <stop stop-color="#EDEDED" offset="100%"></stop>
        </linearGradient>
        <rect id="path-2" x="5.68434189e-14" y="0" width="900" height="600" rx="80"></rect>
        <filter x="-6.7%" y="-10.0%" width="113.3%" height="120.0%" filterUnits="objectBoundingBox" id="filter-3">
            <feMorphology radius="2.5" operator="dilate" in="SourceAlpha" result="shadowSpreadOuter1"></feMorphology>
            <feOffset dx="0" dy="0" in="shadowSpreadOuter1" result="shadowOffsetOuter1"></feOffset>
            <feGaussianBlur stdDeviation="17.5" in="shadowOffsetOuter1" result="shadowBlurOuter1"></feGaussianBlur>
            <feColorMatrix values="0 0 0 0 0   0 0 0 0 0   0 0 0 0 0  0 0 0 0.5 0" type="matrix" in="shadowBlurOuter1"></feColorMatrix>
        </filter>
    </defs>
    <g id="PH-PHLPost-text" stroke="none" stroke-width="1" fill="none" fill-rule="evenodd">
        <g transform="translate(40, 40)">
            <g id="Rectangle">
                <use fill="black" fill-opacity="1" filter="url(#filter-3)" xlink:href="#path-2"></use>
                <use fill="url(#linearGradient-1)" fill-rule="evenodd" xlink:href="#path-2"></use>
            </g>
            <g id="Group" transform="translate(54, 216)" fill-rule="nonzero">
                <path d="M782.085363,0.428561645 C783.500509,0.254633133 784.96309,-0.243434877 786.401953,0.143951353 C788.21239,0.950347179 787.896157,3.13235941 787.92778,4.75305691 C787.722228,13.172778 788.267731,21.5924991 788.006839,30.0043144 C788.038462,31.5775769 786.204307,32.0598332 784.970995,32.2653851 C774.400885,34.0916344 763.862399,36.1471532 753.276477,37.9101559 C751.726932,38.3291655 750.730796,36.7875264 750.335504,35.5304976 C747.505213,27.482351 744.746074,19.4025811 741.88416,11.3623403 C741.65489,10.3424868 740.9908,9.12498722 741.631173,8.13675704 C742.334793,6.80857568 743.979208,6.84019904 745.259954,6.52396539 C757.537726,4.5237875 769.815497,2.51570378 782.085363,0.428561645 M751.65578,10.5954737 C755.980275,13.172778 760.423358,15.5366246 764.842723,17.9479063 C768.850985,13.971268 773.17548,10.334581 777.223271,6.39747192 C768.692868,7.78890001 760.201994,9.34635078 751.65578,10.5954737 M766.668973,23.094609 C765.317074,24.2330502 763.585694,23.1815733 762.312854,22.4937651 C757.735372,19.8769316 753.094643,17.3865915 748.501349,14.817193 C750.683361,20.6991391 752.533328,26.6996727 754.818116,32.5420895 C764.170727,30.7553694 773.562866,29.1662952 782.931288,27.4270101 C782.891759,21.1102428 782.962912,14.7934755 782.891759,8.47670822 C777.246988,13.0700021 772.155626,18.3194808 766.668973,23.094609 Z" id="Shape" fill="#FFBE0A"></path>
                <path d="M719.107431,39.3806424 C725.345139,37.5464872 732.01767,38.2184837 738.27119,39.6731585 C739.425443,41.7286773 739.717959,44.4957218 741.362374,46.1243251 C746.034726,46.0215492 750.707079,45.7369389 755.395243,45.8634323 C755.529642,46.8437567 755.679853,47.8161752 755.845876,48.7964995 C751.813896,51.0101351 747.742388,53.1684298 743.742032,55.4295005 C746.16122,59.4298562 746.999239,64.2919487 746.003103,68.8694309 C744.477276,76.4195095 737.306677,82.3884197 729.590576,82.4279489 C723.748159,82.7995235 717.874119,79.8980797 714.561572,75.0992339 C711.984267,71.6680988 711.304365,67.3277918 711.233212,63.1456017 C709.33581,59.5247263 707.580714,55.8247925 705.786088,52.1485763 C707.928571,46.1322309 712.925063,41.143645 719.107431,39.3806424 Z" id="Path" fill="#FFBE0A"></path>
                <path d="M757.324268,48.9150871 C758.620826,42.1555927 767.064265,38.503094 773.009457,41.839359 C779.033709,44.7645204 780.599065,53.310735 776.385252,58.4100027 C777.294423,58.2676975 778.219407,58.1412041 779.152296,58.0068048 C782.172328,70.7510212 778.116631,85.266146 768.084118,93.8993249 C762.803016,98.8404757 756.762953,102.983137 750.185293,106.003168 C748.311609,110.043053 746.398395,114.075032 744.556334,118.130729 C751.260488,115.853847 759.190047,115.237191 765.411944,119.1743 C769.048631,121.28516 771.357137,124.937658 773.317785,128.542722 C778.037573,124.281473 783.911613,120.58154 790.465555,120.518293 C794.212924,120.44714 797.588718,122.518471 800,125.261798 C790.410214,132.8435 780.994357,140.630754 771.428289,148.228267 C766.257869,142.322604 759.672303,137.254959 751.837614,135.642168 C743.742032,133.760577 735.298594,136.717362 728.855333,141.618984 C723.352867,145.935573 717.716002,150.125669 711.652222,153.627957 C705.627971,157.122339 698.473184,158.403085 691.579291,157.968264 C684.614244,157.478102 677.712445,154.236707 673.546066,148.528689 C669.332253,143.081564 667.545533,136.258823 666.407092,129.586293 C660.390746,128.835238 653.639158,127.736326 649.488591,122.866328 C645.622634,118.233505 647.203803,111.616315 649.789013,106.770035 C661.821704,112.059043 673.95717,117.126687 685.981955,122.431507 C686.361435,127.206635 687.476159,132.400773 691.120752,135.800284 C695.5164,139.397442 702.639563,139.310478 706.805941,135.349651 C710.450534,132.052916 711.486199,127.016895 712.782757,122.486847 C714.371831,115.924999 715.700013,108.659531 712.774852,102.271611 C711.249024,98.8404757 707.817889,96.6189343 704.197014,96.0022787 C700.30734,95.0772952 696.512536,96.9667913 693.2158,98.8167582 C692.780979,98.4847129 691.911336,97.8206222 691.476515,97.4885769 C691.761125,100.627196 691.879713,104.058331 689.911158,106.730505 C686.535364,112.106478 678.360724,113.11052 673.67256,108.904612 C669.292724,105.275831 668.755126,98.0894208 672.399719,93.7728314 C674.391991,91.1955271 677.585951,89.8673457 680.795723,89.7566639 C680.115821,89.203255 679.443824,88.6498461 678.787639,88.0964372 C682.408515,81.2420727 690.409226,77.7476908 697.951399,78.2220413 C709.699479,79.0284371 720.411894,84.570432 731.875364,86.7524442 C738.97481,88.1834015 746.437924,86.6733858 752.802127,83.4003674 C759.877855,78.7991677 760.700062,69.462369 760.431264,61.7937028 C761.10326,61.7304561 762.455159,61.6118685 763.127156,61.5486217 C758.850095,59.0108466 755.93284,53.9273906 757.324268,48.9150871 Z" id="Path" fill="#FFBE0A"></path>
                <path d="M30.9750867,45.4286111 C51.7200146,45.4286111 72.4649425,45.4127994 93.2019646,45.4365169 C98.5463134,45.7448447 104.428259,45.7764681 108.918777,49.0890156 C113.069344,52.409469 112.666146,58.4258144 111.48027,63.0744491 C82.2919034,63.1060725 53.1035369,63.1060725 23.9072645,63.0744491 C26.1129942,57.1292564 28.6112401,51.3105571 30.9750867,45.4286111 Z" id="Path" fill="#00246C"></path>
                <path d="M126.098171,45.4365169 C133.853801,45.4127994 141.617338,45.4286111 149.380874,45.4286111 C146.937969,51.2789337 144.637369,57.1925031 142.273522,63.0744491 C134.525798,63.0744491 126.770167,63.0902608 119.022443,63.0665433 C121.307231,57.1608797 123.765948,51.3263688 126.098171,45.4365169 Z" id="Path" fill="#00246C"></path>
                <path d="M190.499155,45.3969877 C198.302221,45.4681403 206.105286,45.381176 213.916257,45.4444227 C211.599846,51.3500863 209.180658,57.2004089 206.808906,63.0744491 C198.997935,63.0586374 191.186963,63.1218842 183.375992,63.0428258 C185.731933,57.1529739 187.993003,51.2235928 190.499155,45.3969877 Z" id="Path" fill="#00246C"></path>
                <path d="M221.102667,45.4365169 C228.945262,45.4127994 236.779951,45.4207052 244.61464,45.4286111 C242.290322,51.3342746 239.973911,57.2399382 237.5231,63.0902608 C229.688411,63.0586374 221.853722,63.0981666 214.026939,63.0744491 C216.327539,57.1687856 218.794162,51.3342746 221.102667,45.4365169 Z" id="Path" fill="#00246C"></path>
                <path d="M23.0376219,65.1853088 C30.761629,65.2011205 38.4856361,65.1615913 46.2096432,65.2090263 C45.7273868,66.4581493 45.221413,67.7072722 44.723345,68.9563951 C36.9598087,68.9722068 29.1962724,68.9959244 21.440642,68.9405835 C21.9624275,67.6835547 22.4921189,66.4344317 23.0376219,65.1853088 Z" id="Path" fill="#00246C"></path>
                <path d="M84.2920813,65.2011205 C93.130812,65.2011205 101.969543,65.1457796 110.808273,65.224838 C110.333923,66.4581493 109.851667,67.6835547 109.385222,68.9247718 C101.439851,69.0275477 93.5023866,68.9563951 85.5570159,68.9563951 C85.1617239,67.6914605 84.7348084,66.4423376 84.2920813,65.2011205 Z" id="Path" fill="#00246C"></path>
                <path d="M118.129083,65.2011205 C125.900525,65.1694971 133.671967,65.2090263 141.435503,65.1774029 C140.921623,66.4502434 140.391932,67.715178 139.854335,68.9801127 C132.098704,68.9484893 124.35098,68.9880185 116.595349,68.9563951 C117.109229,67.7072722 117.623109,66.4581493 118.129083,65.2011205 Z" id="Path" fill="#00246C"></path>
                <path d="M182.545879,65.1615913 C190.341038,65.2406497 198.144104,65.1220621 205.947169,65.2327438 C205.43329,66.4660551 204.91941,67.7072722 204.413436,68.9484893 C196.618276,68.9959244 188.815211,68.9563951 181.020051,68.9722068 C181.510213,67.6993664 182.016187,66.4265259 182.545879,65.1615913 Z" id="Path" fill="#00246C"></path>
                <path d="M213.070332,65.2485555 C220.928739,65.1062504 228.795051,65.2406497 236.661363,65.1774029 C236.187013,66.4344317 235.712662,67.6993664 235.238312,68.9563951 C227.371999,68.9880185 219.497781,68.964301 211.623563,68.964301 C212.113726,67.7309897 212.588076,66.4897726 213.070332,65.2485555 Z" id="Path" fill="#00246C"></path>
                <path d="M20.539376,71.1384074 C28.2950065,71.1463132 36.0585428,71.1225957 43.8141732,71.1463132 C43.3081993,72.4191537 42.8022255,73.6840883 42.2883458,74.9411171 C34.5643387,74.9332113 26.8403317,74.949023 19.1163246,74.9332113 C19.5906751,73.6682766 20.0650255,72.403342 20.539376,71.1384074 Z" id="Path" fill="#00246C"></path>
                <path d="M81.2878616,74.9173996 C82.6239488,73.7236175 83.9284126,72.4903063 85.106383,71.1384074 C92.8778251,71.1384074 100.657173,71.1305015 108.428615,71.1463132 C107.764525,72.3638128 107.653843,74.1030979 106.420531,74.8778704 C98.0482454,75.0122697 89.6601476,74.9173996 81.2878616,74.9173996 Z" id="Path" fill="#00246C"></path>
                <path d="M114.231503,74.9253054 C114.808629,73.7078058 114.974652,72.1740726 115.923353,71.1937483 C123.639454,71.0514431 131.363461,71.1858424 139.079562,71.1384074 C138.439189,72.3084719 138.455001,74.1030979 137.31656,74.8620587 C129.624176,75.0517989 121.923887,74.8857762 114.231503,74.9253054 Z" id="Path" fill="#00246C"></path>
                <path d="M180.16622,71.1225957 C187.945568,71.1621249 195.724916,71.1146899 203.504264,71.1463132 C202.990385,72.4665887 202.468599,73.7710526 201.946813,75.0834223 C194.12003,75.0992339 186.285342,75.0834223 178.458559,75.0913281 C179.019873,73.7631467 179.573282,72.4349654 180.16622,71.1225957 Z" id="Path" fill="#00246C"></path>
                <path d="M210.785544,71.1146899 C218.636045,71.1700307 226.478639,71.1225957 234.32914,71.1384074 C233.81526,72.4112479 233.293475,73.6761825 232.779595,74.949023 C224.929094,74.9332113 217.070688,74.9332113 209.220188,74.949023 C209.718256,73.6603708 210.240041,72.3796245 210.785544,71.1146899 Z" id="Path" fill="#00246C"></path>
                <path d="M18.1280944,77.241717 C25.5991145,77.3049637 33.0780405,77.2021878 40.5490607,77.289152 C41.3159273,78.6331451 42.928719,78.1429829 44.1541244,78.2694764 C52.3366703,78.1746063 60.527122,78.388064 68.701762,78.1587946 C72.39379,78.1587946 75.9988537,77.1073177 79.6987874,77.241717 C88.3556838,77.289152 97.020486,77.2259053 105.685288,77.2733403 C102.467611,84.0249289 97.0679211,89.9780275 90.0475339,92.8241304 C83.2880395,95.5753632 75.880266,95.7651034 68.6859503,95.8599735 C57.1197043,95.8204443 45.5455525,95.8836911 33.9793065,95.8204443 C30.3189019,104.556399 26.7928966,113.355601 23.2747972,122.146896 C15.5191667,122.162708 7.75563044,122.13899 0,122.162708 C6.00843949,107.173233 12.0801257,92.2153806 18.1280944,77.241717 Z" id="Path" fill="#00246C"></path>
                <path d="M113.17212,77.3523987 C142.479074,77.1468469 171.793934,77.3049637 201.100888,77.2654345 C195.068731,92.2311923 189.04448,107.19695 182.972794,122.146896 C175.146011,122.162708 167.319228,122.131085 159.492445,122.162708 C163.469083,112.209254 167.437816,102.247893 171.509324,92.3339683 C157.832218,92.3023449 144.155113,92.3734975 130.478007,92.3023449 C126.335346,102.21627 122.485201,112.248783 118.358352,122.170614 C110.634345,122.099461 102.910338,122.218049 95.178425,122.107367 C101.131524,107.165327 107.282268,92.3102507 113.17212,77.3523987 Z" id="Path" fill="#00246C"></path>
                <path d="M198.310126,102.002812 C201.53571,93.7174905 204.943127,85.4954154 208.287298,77.2575286 C216.137799,77.2654345 223.988299,77.2654345 231.8388,77.2575286 C229.609353,83.273874 226.905555,89.1083849 224.763072,95.1642595 C224.004111,97.6150703 223.632536,101.014582 226.028006,102.698526 C228.328606,104.216448 231.206333,104.398282 233.878507,104.493152 C250.970936,104.501058 268.063365,104.493152 285.155794,104.493152 C283.005406,110.469968 280.538783,116.328197 278.072161,122.170614 C257.034717,122.099461 235.997272,122.218049 214.967734,122.115273 C209.402022,121.767416 203.077349,121.411653 198.863535,117.276898 C195.155696,112.999838 196.641994,106.825376 198.310126,102.002812 Z" id="Path" fill="#00246C"></path>
                <path d="M316.431303,45.4444227 C337.4055,45.4286111 358.387604,45.3969877 379.361801,45.4602344 C384.793114,45.8159973 390.935953,45.9187732 395.213013,49.7610122 C398.517655,53.3265466 397.995869,58.694613 396.952298,63.0744491 C367.763932,63.0902608 338.575565,63.0349199 309.379293,63.1060725 C311.60874,57.1687856 314.083268,51.3263688 316.431303,45.4444227 Z" id="Path" fill="#AD0002"></path>
                <path d="M421.278572,48.3300549 C428.559852,45.6104454 436.457788,45.3258351 444.150171,45.4286111 C452.316906,45.4286111 460.491546,45.4286111 468.666186,45.4286111 C473.710113,45.3890818 478.833098,45.4127994 483.79006,46.527523 C486.936585,47.3102013 490.423061,48.7253469 491.814489,51.911401 C493.537963,55.4136888 492.945025,59.390327 492.162346,63.0586374 C462.997697,63.0665433 433.840954,63.1060725 404.676305,63.0349199 C408.281369,56.4098248 414.084257,50.8520183 421.278572,48.3300549 Z" id="Path" fill="#AD0002"></path>
                <path d="M518.457175,47.523659 C524.576296,45.5946337 531.05118,45.3495526 537.415383,45.4286111 C557.867795,45.4286111 578.312301,45.4365169 598.764712,45.4207052 C596.464112,51.3263688 594.029113,57.1687856 591.657361,63.0428258 C561.085472,63.0902608 530.521489,63.0902608 499.957506,63.0428258 C503.111937,55.1211726 510.488087,49.8716939 518.457175,47.523659 Z" id="Path" fill="#AD0002"></path>
                <path d="M606.125051,45.4365169 C635.392476,45.4444227 664.659901,45.381176 693.927326,45.4681403 C691.595102,51.3500863 689.207538,57.2083148 686.835786,63.0744491 C657.568361,63.0665433 628.308842,63.0744491 599.049323,63.0665433 C601.365734,57.1766914 603.800733,51.3263688 606.125051,45.4365169 Z" id="Path" fill="#AD0002"></path>
                <path d="M308.454309,65.1932146 C316.20994,65.2090263 323.957664,65.1615913 331.713295,65.2169322 C331.223132,66.4107142 330.740876,67.6124021 330.242808,68.8061842 C322.510895,68.7113141 314.786888,68.81409 307.054975,68.7508433 C307.505608,67.5570612 307.979959,66.3790908 308.454309,65.1932146 Z" id="Path" fill="#AD0002"></path>
                <path d="M369.756204,65.1774029 C378.579123,65.2169322 387.402042,65.1615913 396.224961,65.2090263 C395.798045,66.3949025 395.37113,67.5807787 394.960026,68.766655 C386.959315,68.766655 378.958603,68.766655 370.965797,68.766655 C370.578411,67.5649671 370.175213,66.371185 369.756204,65.1774029 Z" id="Path" fill="#AD0002"></path>
                <path d="M403.593205,65.2011205 C412.669111,65.1615913 421.745017,65.2485555 430.820923,65.1536854 C429.255566,66.3632792 427.753456,67.6519313 426.322499,69.011736 C418.211106,68.8931484 410.099712,69.011736 401.988319,68.9484893 C402.510105,67.6993664 403.047702,66.4502434 403.593205,65.2011205 Z" id="Path" fill="#AD0002"></path>
                <path d="M464.974158,65.1615913 C473.789171,65.224838 482.604184,65.1932146 491.419197,65.1774029 C490.936941,66.4344317 490.462591,67.6993664 489.98824,68.964301 C481.940093,68.9563951 473.884041,68.9722068 465.827989,68.9563951 C465.598719,67.6756488 465.322015,66.4107142 464.974158,65.1615913 Z" id="Path" fill="#AD0002"></path>
                <path d="M498.898123,65.1853088 C507.183445,65.1853088 515.468767,65.224838 523.761995,65.1615913 C523.611784,65.8256819 523.469479,66.4976785 523.335079,67.1617691 C524.386556,67.6993664 525.438033,68.2527753 526.48951,68.8299017 C516.789043,69.1066061 507.080669,68.9168659 497.380202,68.9405835 C497.870364,67.6835547 498.376338,66.4265259 498.898123,65.1853088 Z" id="Path" fill="#AD0002"></path>
                <path d="M629.79514,65.2169322 C637.534959,65.1615913 645.274777,65.2169322 653.022502,65.1853088 C652.524434,66.4581493 652.026366,67.715178 651.528298,68.9801127 C643.780573,68.9405835 636.040755,68.9801127 628.300936,68.964301 C628.791098,67.715178 629.289166,66.4660551 629.79514,65.2169322 Z" id="Path" fill="#AD0002"></path>
                <path d="M306.035122,71.2649008 C313.743317,71.3044301 321.451512,71.2965242 329.167614,71.2649008 C328.724887,72.4270595 328.297971,73.5813124 327.855244,74.7355652 C320.123331,74.6802243 312.383512,74.7197535 304.643694,74.7118477 C305.102232,73.5575949 305.568677,72.4112479 306.035122,71.2649008 Z" id="Path" fill="#AD0002"></path>
                <path d="M370.412388,71.3360534 C378.199642,71.2411833 385.986896,71.3360534 393.77415,71.2886184 C393.339329,72.4349654 392.888696,73.5734065 392.453874,74.7276594 C383.963001,74.7039419 375.480033,74.7039419 366.989159,74.7197535 C368.175035,73.6445591 369.329288,72.5298355 370.412388,71.3360534 Z" id="Path" fill="#AD0002"></path>
                <path d="M401.031712,71.1700307 C409.016612,71.0909723 417.001512,71.1700307 424.986412,71.1305015 C424.322321,72.355907 423.705666,73.5971241 423.152257,74.8699645 C415.325474,74.996458 407.498691,74.9094937 399.679813,74.9173996 C400.106729,73.6603708 400.573174,72.4191537 401.031712,71.1700307 Z" id="Path" fill="#AD0002"></path>
                <path d="M465.36945,71.1384074 C473.283197,71.1384074 481.196944,71.1384074 489.110692,71.1384074 C488.573094,72.403342 488.043403,73.6761825 487.521618,74.9411171 C479.773893,74.9332113 472.026168,74.9015879 464.278444,74.9569288 C464.634207,73.6840883 464.997875,72.4112479 465.36945,71.1384074 Z" id="Path" fill="#AD0002"></path>
                <path d="M496.605429,71.1542191 C507.333656,71.106784 518.069789,71.1700307 528.805921,71.1225957 C533.051358,70.608716 536.608987,73.3678547 540.34845,74.9094937 C525.659397,74.9569288 510.970343,74.9173996 496.273384,74.9253054 C496.368254,73.6682766 496.478936,72.4112479 496.605429,71.1542191 Z" id="Path" fill="#AD0002"></path>
                <path d="M627.470823,71.1146899 C635.186924,71.1779366 642.903025,71.1146899 650.627032,71.1463132 C650.160587,72.3796245 649.678331,73.6129357 649.219792,74.8541529 C641.440444,75.0122697 633.653191,74.9173996 625.873843,74.9015879 C626.387722,73.6366533 626.917414,72.3717186 627.470823,71.1146899 Z" id="Path" fill="#AD0002"></path>
                <path d="M303.497347,77.4630805 C310.320088,77.4630805 317.134923,77.4709864 323.957664,77.4472688 C325.878784,77.3049637 327.594351,78.4829341 329.531282,78.2694764 C340.291133,77.9927719 351.130041,78.9019437 361.826645,77.4314572 C371.598265,77.5026097 381.377791,77.439363 391.149411,77.4709864 C387.757805,84.0881756 382.524138,90.0808034 375.464221,92.8399421 C366.910101,96.2473598 357.517961,95.7967268 348.48949,95.8441618 C338.789023,95.8283502 329.096461,95.8678794 319.395994,95.8204443 C315.79093,104.588022 312.320266,113.410942 308.667767,122.154802 C300.959572,122.123179 293.251376,122.17852 285.543181,122.131085 C291.440938,107.204856 297.544248,92.3576858 303.497347,77.4630805 Z" id="Path" fill="#AD0002"></path>
                <path d="M398.557184,77.3286812 C406.423496,77.1942819 414.297714,77.2970579 422.164026,77.2733403 C419.997826,82.5623482 417.910684,87.8750737 415.776107,93.1719874 C414.764159,95.8204443 413.799646,98.9590634 415.270133,101.623332 C416.803866,103.710474 419.642063,104.121578 422.053345,104.382471 C426.528051,104.659175 431.026475,104.422 435.509087,104.508964 C440.015416,104.493152 444.751015,104.595928 448.9253,102.643185 C452.767539,100.52442 455.265785,96.6426518 456.96554,92.7055428 C459.092212,87.5667459 461.124013,82.3805139 463.274402,77.2496228 C471.045844,77.2970579 478.80938,77.2259053 486.580822,77.289152 C483.299898,85.3293927 480.050597,93.393351 476.753862,101.433592 C473.718018,108.786024 468.278799,115.387402 460.981708,118.786914 C455.218349,121.364218 448.822524,122.004591 442.576909,122.146896 C431.508731,122.154802 420.440553,122.13899 409.372375,122.154802 C403.387653,122.115273 396.96811,121.996685 391.702819,118.786914 C388.848811,117.15831 387.125337,113.90901 387.204396,110.651803 C386.951409,104.722422 389.726359,99.3227321 391.85303,93.9546657 C394.074572,88.4047651 396.414701,82.9102053 398.557184,77.3286812 Z" id="Path" fill="#AD0002"></path>
                <path d="M496.79517,77.2970579 C513.19979,77.2970579 529.612317,77.1310352 546.001127,77.3761163 C554.167861,80.8546865 562.223913,84.5941495 570.36693,88.1280606 C572.841458,89.0767616 575.513633,90.5235306 576.122382,93.3538218 C577.150142,99.5994365 575.402951,106.406366 571.173326,111.173588 C566.991136,115.798506 561.828621,119.909543 555.646253,121.364218 C551.226888,122.471036 546.657311,122.091555 542.150982,122.146896 C520.046249,122.123179 497.933611,122.202237 475.828878,122.099461 C478.137384,116.217515 480.54076,110.367193 482.904606,104.501058 C503.214713,104.485247 523.532725,104.540587 543.850738,104.477341 C545.771857,104.856821 546.941922,102.896172 546.404324,101.212228 C545.392377,100.121222 543.842832,99.8208001 542.55418,99.1804269 C528.782204,93.2194225 515.010228,87.2347005 501.246158,81.2499786 C499.317133,80.5226412 497.894081,78.9889079 496.79517,77.2970579 Z" id="Path" fill="#AD0002"></path>
                <path d="M606.797047,122.059932 C612.955698,107.165327 618.853455,92.1600397 624.980482,77.2496228 C632.720301,77.289152 640.46012,77.2496228 648.199939,77.2654345 C642.397051,91.5750075 636.594164,105.876675 630.870334,120.209965 C630.443419,120.953114 630.293208,122.399883 629.09152,122.13899 C621.660029,122.115273 614.220632,122.241766 606.797047,122.059932 Z" id="Path" fill="#AD0002"></path>
                <path d="M331.34172,145.453317 C332.495973,145.453317 333.650226,145.453317 334.812385,145.453317 C336.274965,148.987228 337.611052,152.57648 339.366149,155.975992 C342.19644,152.521139 344.844897,148.916075 347.667283,145.445411 C348.924311,145.445411 350.18134,145.453317 351.446275,145.461223 C347.967705,150.038705 344.109654,154.331577 340.686425,158.948588 C339.540078,161.842126 339.334526,165.012369 338.551847,168.016588 C337.753358,168.000777 336.148472,167.969153 335.349982,167.953342 C335.998261,164.972839 336.559575,161.984431 337.239478,159.011835 C335.270923,154.489694 333.191687,150.022893 331.34172,145.453317 Z" id="Path" fill="#6F6870"></path>
                <path d="M395.65574,145.943479 C398.699489,144.623203 402.454764,144.599486 405.419454,146.164843 C407.688431,147.36653 408.542262,149.999176 408.71619,152.410457 C407.656807,152.410457 406.597425,152.418363 405.545948,152.418363 C405.182279,151.200864 404.810705,149.983364 404.447036,148.765864 C402.225494,147.722293 399.513791,147.247943 397.236908,148.386384 C395.513435,149.224403 394.34337,151.722649 396.011503,153.224759 C398.746924,155.691381 403.213725,154.845456 405.830558,157.596689 C407.498691,159.098799 407.364291,161.557516 407.055963,163.589317 C405.957052,166.838618 402.351988,168.498845 399.102687,168.585809 C396.114279,168.680679 392.619897,168.206328 390.714589,165.621118 C389.433843,164.205973 389.584054,162.229512 389.552431,160.474416 C390.58019,160.474416 391.623761,160.474416 392.659426,160.474416 C391.947901,166.419608 400.913125,167.684543 403.672263,163.4312 C404.194049,162.008149 404.170331,160.063312 402.707751,159.193669 C399.616567,157.351608 395.228825,157.84177 392.896601,154.726869 C390.785742,151.738461 392.414345,147.334907 395.65574,145.943479 Z" id="Path" fill="#6F6870"></path>
                <path d="M459.946043,145.453317 C460.657568,145.453317 462.072714,145.453317 462.78424,145.453317 C461.313753,152.95596 459.621903,160.419075 458.111887,167.913812 C457.47942,167.977059 456.222391,168.103553 455.589924,168.166799 C455.542489,167.826848 455.447619,167.131134 455.400184,166.791183 C452.40387,169.194559 447.288791,169.139218 445.059343,165.7318 C443.067071,161.905373 444.268759,157.011657 447.043709,153.880944 C449.842377,150.726513 455.281596,150.315409 458.325345,153.351252 C458.88666,150.718607 459.376822,148.078056 459.946043,145.453317 M450.791078,154.473882 C447.850105,156.276414 446.284749,160.284675 447.359943,163.573505 C447.93707,165.739706 450.609244,166.237774 452.482928,165.621118 C456.008934,164.348278 457.66916,160.031688 457.028787,156.561024 C456.420037,153.825603 452.941467,153.398687 450.791078,154.473882 Z" id="Shape" fill="#6F6870"></path>
                <path d="M482.058681,145.453317 C483.118064,145.445411 484.185352,145.445411 485.260547,145.453317 C485.347511,151.532909 485.782332,157.612501 486.011602,163.692093 C488.881422,157.707371 491.664278,151.667308 494.273206,145.556093 C495.506517,145.48494 496.747734,145.445411 498.004763,145.405882 C498.336809,151.564532 499.072052,157.715277 499.032523,163.897645 C502.234388,157.944546 504.416401,151.509191 507.32575,145.421693 C508.432568,145.429599 509.547292,145.445411 510.669921,145.453317 C507.183445,152.99549 503.791839,160.569286 500.234211,168.071929 C499.135299,168.0324 498.052198,167.992871 496.969098,167.961247 C496.312913,161.786785 496.241761,155.564888 495.443271,149.414143 C492.454863,155.612323 489.869652,162.000243 486.715222,168.119364 C485.61631,168.048212 484.541115,167.984965 483.458015,167.921718 C482.928324,160.434886 482.446067,152.948054 482.058681,145.453317 Z" id="Path" fill="#6F6870"></path>
                <path d="M537.257266,145.445411 C542.285381,145.840703 548.839324,143.911678 552.333706,148.702618 C555.772747,155.311901 552.792244,165.304885 545.23426,167.534332 C541.075787,168.530468 536.73548,167.771507 532.505855,168.0324 C533.96053,160.482321 535.581228,152.95596 537.257266,145.445411 M539.897817,148.20455 C538.514295,153.865132 537.494441,159.604773 536.221601,165.296979 C538.704035,165.35232 541.249716,165.605307 543.692621,165.004463 C549.582473,163.257272 552.23093,155.311901 549.282051,150.157292 C546.973545,147.461401 543.012719,148.441725 539.897817,148.20455 Z" id="Shape" fill="#6F6870"></path>
                <path d="M575.592691,145.48494 C576.604639,145.461223 577.616586,145.445411 578.644346,145.429599 C576.984119,152.932243 575.474103,160.46651 573.869218,167.977059 C573.157692,167.992871 571.73464,168.024494 571.015209,168.0324 C572.367108,160.482321 574.177545,153.019207 575.592691,145.48494 Z" id="Path" fill="#6F6870"></path>
                <path d="M582.526114,145.445411 C583.530156,145.445411 584.550009,145.445411 585.569863,145.445411 C585.285253,146.655005 585.000642,147.864598 584.747655,149.074192 C584.03613,149.066286 582.613078,149.034663 581.901553,149.018851 C582.099199,147.825069 582.30475,146.639193 582.526114,145.445411 Z" id="Path" fill="#6F6870"></path>
                <path d="M351.130041,151.936107 C354.36353,150.758136 358.988448,150.963688 360.806791,154.3632 C362.743722,159.15414 360.838414,165.739706 355.841923,167.818942 C352.418693,169.289429 347.422202,168.324916 346.007056,164.506395 C344.370547,159.881477 346.544653,153.967908 351.130041,151.936107 M351.991778,154.529223 C348.418338,156.695423 346.489312,163.75534 351.145853,165.708083 C356.197686,167.04417 359.76322,160.600909 358.26111,156.331755 C357.383562,153.809791 354.094732,153.382876 351.991778,154.529223 Z" id="Shape" fill="#6F6870"></path>
                <path d="M365.874435,151.770084 C366.585961,151.770084 368.016919,151.77799 368.728444,151.785896 C368.016919,155.802063 366.870571,159.739172 366.285539,163.779057 C367.004971,167.131134 371.685229,165.945258 373.155715,163.771151 C375.487939,160.292581 375.448409,155.825781 376.420828,151.857048 C377.42487,151.809613 378.436818,151.770084 379.456671,151.738461 C378.397288,157.17768 377.211412,162.593181 376.049253,168.008682 C375.321916,168.000777 373.867241,167.984965 373.139904,167.977059 C373.250586,167.534332 373.479855,166.640972 373.590537,166.198245 C371.179255,168.664867 367.384451,169.028536 364.332796,167.597579 C363.265508,165.700177 363.312943,163.462824 363.763576,161.391493 C364.435572,158.181722 365.123381,154.964044 365.874435,151.770084 Z" id="Path" fill="#6F6870"></path>
                <path d="M415.135733,151.87286 C417.894872,150.932065 421.610618,150.916253 423.579172,153.406593 C425.38961,155.438395 425.089188,158.403085 424.828295,160.909237 C420.725163,160.885519 416.629937,160.925048 412.526806,160.853896 C412.408218,162.656428 412.827228,164.696135 414.740441,165.391849 C417.301934,166.783277 420.053167,165.083521 421.389254,162.846168 C422.084968,162.846168 423.484302,162.854074 424.180016,162.854074 C423.049481,169.099689 413.135556,170.672951 410.281547,165.02818 C408.629226,160.340016 410.376417,154.039061 415.135733,151.87286 M413.103932,158.213345 C416.179304,158.284497 419.262583,158.268686 422.337955,158.213345 C422.148215,156.640082 421.452501,155.248654 420.432647,154.062778 C417.262405,153.351252 413.894516,154.924515 413.103932,158.213345 Z" id="Shape" fill="#6F6870"></path>
                <path d="M429.358342,151.722649 C430.504689,151.888672 432.070046,151.445945 432.694607,152.821561 C434.813373,151.287828 437.699005,150.860912 440.149816,151.793802 C441.944442,152.592292 442.197429,154.718963 441.960253,156.450342 C441.462185,160.37164 440.363273,164.182255 439.572689,168.048212 C438.861164,168.040306 437.430206,168.016588 436.718681,168.000777 C437.540888,163.85021 438.465871,159.715455 439.34342,155.572794 C437.121878,152.276058 432.386279,154.600375 431.26365,157.683654 C430.156832,160.996201 429.698293,164.490583 429.002579,167.905906 C427.990632,167.929624 426.978684,167.961247 425.974642,167.984965 C427.105177,162.561558 428.298959,157.153962 429.358342,151.722649 Z" id="Path" fill="#6F6870"></path>
                <path d="M512.432924,151.904483 C515.342274,150.88463 519.405876,150.892536 521.263749,153.778168 C522.757953,155.809969 522.410096,158.45052 522.425907,160.814367 C518.243717,160.972484 514.053621,160.838084 509.879337,160.932954 C509.847714,162.82245 510.503899,165.051898 512.583135,165.581589 C515.02604,166.546102 517.595438,165.075615 518.69435,162.846168 C519.421688,162.846168 520.860551,162.854074 521.587888,162.854074 C520.417824,169.147124 510.606675,170.609704 507.64989,165.02818 C505.95804,160.355828 507.760572,154.133931 512.432924,151.904483 M510.385311,158.213345 C513.52393,158.284497 516.662549,158.300309 519.801168,158.158004 C519.382158,156.28432 518.552045,153.675392 516.10914,153.975814 C513.357907,153.56471 511.3182,155.912745 510.385311,158.213345 Z" id="Shape" fill="#6F6870"></path>
                <path d="M555.725312,165.913634 C552.262553,160.055406 556.800506,150.18101 564.318961,151.343169 C569.188959,151.35898 570.762222,156.877258 569.876768,160.853896 C565.726201,160.956672 561.567728,160.814367 557.417162,160.972484 C557.037681,163.62094 559.203882,166.166621 561.939303,165.842482 C563.923669,166.048034 565.338815,164.403619 566.216363,162.846168 C567.212499,162.838262 568.208635,162.846168 569.212677,162.854074 C567.884496,168.712302 559.393622,170.467399 555.725312,165.913634 M557.899418,158.221251 C561.06966,158.181722 564.295244,158.569108 567.433863,157.857582 C566.840925,156.039238 565.939659,153.604239 563.536283,153.967908 C560.753427,153.588428 558.895554,155.96018 557.899418,158.221251 Z" id="Shape" fill="#6F6870"></path>
                <path d="M581.142592,151.888672 C582.154539,151.825425 583.166487,151.770084 584.186341,151.722649 C583.119052,157.161868 581.92527,162.569464 580.810546,168.000777 C580.091115,167.992871 578.63644,167.992871 577.909103,167.984965 C578.928956,162.608993 580.241326,157.288361 581.142592,151.888672 Z" id="Path" fill="#6F6870"></path>
                <path d="M586.289295,151.77799 C587.32496,151.77799 588.368531,151.77799 589.427914,151.77799 C589.744147,156.118297 590.392426,160.419075 590.629601,164.767287 C593.072506,160.513945 595.222895,156.094579 597.539307,151.770084 C598.606595,151.770084 599.673884,151.77799 600.756984,151.785896 C597.816011,157.209303 594.716921,162.545746 591.799666,167.984965 C590.756095,168.008682 589.712524,168.0324 588.676859,168.064023 C587.823028,162.640616 587.103596,157.201397 586.289295,151.77799 Z" id="Path" fill="#6F6870"></path>
                <path d="M605.682324,151.944013 C608.425651,150.955782 612.149302,150.845101 614.212726,153.272194 C616.03107,155.311901 615.722742,158.221251 615.754366,160.75112 C611.56427,161.03573 607.374174,160.822273 603.191983,160.909237 C602.915279,163.233554 604.456918,165.708083 606.947258,165.818764 C609.192517,166.261491 610.908085,164.55383 612.03862,162.854074 C612.734334,162.854074 614.133668,162.846168 614.829382,162.846168 C613.82534,169.012724 604.33833,170.570175 601.175994,165.391849 C599.175816,160.703685 600.986254,154.299953 605.682324,151.944013 M603.690051,158.213345 C606.77333,158.276592 609.848702,158.252874 612.939886,158.252874 C613.003133,156.213167 611.785633,153.722827 609.405975,153.967908 C606.670554,153.635863 604.591317,155.873216 603.690051,158.213345 Z" id="Shape" fill="#6F6870"></path>
                <path d="M620.015614,151.833331 C620.964315,151.793802 621.928828,151.770084 622.89334,151.746367 C622.671977,152.544857 622.466425,153.351252 622.252967,154.157648 C623.984346,152.220717 626.31657,151.066464 628.957121,151.145523 C628.791098,151.920295 628.466959,153.477746 628.300936,154.252518 C625.272999,153.991626 622.498048,156.047144 621.652123,158.909059 C620.853633,161.936996 620.30813,165.012369 619.596604,168.056117 C618.877173,168.048212 617.454121,168.024494 616.742596,168.016588 C617.794073,162.608993 618.956231,157.233021 620.015614,151.833331 Z" id="Path" fill="#6F6870"></path>
                <path d="" id="Path" fill="#6F6870"></path>
                <path d="M463.306025,164.427336 C464.57096,164.427336 465.8438,164.427336 467.124547,164.427336 C466.847842,165.613212 466.563232,166.799089 466.302339,167.984965 C465.069028,168.008682 463.843622,168.024494 462.618217,168.048212 C462.839581,166.838618 463.06885,165.63693 463.306025,164.427336 Z" id="Path" fill="#6F6870"></path>
                <path d="M624.90933,168.056117 C625.146505,166.830712 625.431115,165.613212 625.70782,164.395713 C626.925319,164.403619 628.142819,164.41943 629.37613,164.435242 C629.115238,165.613212 628.870156,166.799089 628.61717,167.977059 C627.375952,168.008682 626.134735,168.0324 624.90933,168.056117 Z" id="Path" fill="#6F6870"></path>
            </g>
        </g>
    </g>
</svg>