<?xml version="1.0" encoding="UTF-8"?>
<svg width="980px" height="680px" viewBox="0 0 980 680" version="1.1" xmlns="http://www.w3.org/2000/svg" xmlns:xlink="http://www.w3.org/1999/xlink">
    <title>PL Poczta Polska text alt3</title>
    <defs>
        <rect id="path-1" x="0" y="0" width="900" height="600" rx="80"></rect>
        <filter x="-6.7%" y="-10.0%" width="113.3%" height="120.0%" filterUnits="objectBoundingBox" id="filter-2">
            <feMorphology radius="2.5" operator="dilate" in="SourceAlpha" result="shadowSpreadOuter1"></feMorphology>
            <feOffset dx="0" dy="0" in="shadowSpreadOuter1" result="shadowOffsetOuter1"></feOffset>
            <feGaussianBlur stdDeviation="17.5" in="shadowOffsetOuter1" result="shadowBlurOuter1"></feGaussianBlur>
            <feColorMatrix values="0 0 0 0 0   0 0 0 0 0   0 0 0 0 0  0 0 0 0.5 0" type="matrix" in="shadowBlurOuter1"></feColorMatrix>
        </filter>
    </defs>
    <g id="PL-Poczta-Polska-text-alt3" stroke="none" stroke-width="1" fill="none" fill-rule="evenodd">
        <g transform="translate(40, 40)">
            <g id="Rectangle">
                <use fill="black" fill-opacity="1" filter="url(#filter-2)" xlink:href="#path-1"></use>
                <use fill="#D52B1E" fill-rule="evenodd" xlink:href="#path-1"></use>
            </g>
            <g id="Logo" transform="translate(108.7699, 241.1806)" fill-rule="nonzero">
                <g id="#ffffffff" transform="translate(-0, 0)">
                    <path d="M86.1456513,5.32667499 C91.9583854,2.81980857 98.0074906,0.456096546 104.376196,0 C106.656679,0.113191844 109.639617,0.978776529 109.839367,3.69870995 C110.115689,10.3537245 105.917603,16.0599251 102.724927,21.5630462 C97.2118186,29.9392426 93.5563878,39.5871827 92.5443196,49.5813566 C91.4490221,59.525593 93.8526841,70.411985 100.710778,78.0058261 C106.876404,84.7973367 116.497711,87.6437786 125.369954,87.3108614 C135.707033,86.9646275 145.917603,83.8451935 154.919684,78.7515605 C168.669164,70.9812734 179.672077,59.1027882 188.22139,45.9625468 C189.230129,44.3012901 191.360799,42.6699958 193.334998,43.7353308 C195.305868,44.667499 194.819809,47.1643779 194.596754,48.9022056 C185.095298,67.292551 172.051602,84.4377861 154.500208,95.8002497 C143.390762,102.904702 130.303787,107.57886 117.010404,107.13608 C106.593425,107.595506 96.2596754,104.915522 86.7182688,100.860591 C78.4019975,97.2883895 70.8148148,92.2979609 62.7515605,88.2263837 C48.7990012,80.9121931 32.9821057,75.6154806 17.1352476,77.2134831 C13.1968373,77.8526841 9.1951727,78.0324594 5.20349563,77.7794424 C2.9230129,77.4665002 0.166458593,76.3412401 0,73.6779026 C0.0466084062,70.1656263 2.14731586,67.0828132 4.19142738,64.3562214 C8.9588015,57.9908448 15.071161,52.8406159 20.8073242,47.4074074 C18.8997087,51.4057428 18.0008323,56.3795256 20.2879734,60.4244694 C22.6949646,64.8622555 27.9550562,66.7066167 32.7324178,66.9396588 C35.3558052,67.7020391 37.9825218,66.4902206 40.6358718,66.5268414 C52.7407407,64.3961715 63.9067832,58.4336246 73.3915938,50.7432376 C80.0499376,45.0503537 86.1889305,38.062422 88.715772,29.5064503 C89.9675406,25.1585518 89.2417811,19.8884727 85.5497295,16.9121931 C81.3649605,13.5430712 75.4923013,12.7174365 70.3287557,13.5630462 C75.2858926,10.2804827 80.7590512,7.83354141 86.1456513,5.32667499 Z" id="Path" fill="#F7EB00"></path>
                    <path d="M562.586767,21.6063254 C564.321265,21.656263 567.184353,20.8838951 568.069913,22.7948398 C568.146484,42.7598835 568.083229,62.7349147 568.103204,82.7066167 C568.176446,84.570953 565.712859,84.3179359 564.454432,84.4011652 C563.156055,84.3046192 560.582605,84.6275489 560.699126,82.6966292 C560.692468,62.8214732 560.675822,42.9463171 560.705784,23.071161 C560.56263,21.985851 561.741157,21.6695797 562.586767,21.6063254 Z" id="Path" fill="#FFFFFF"></path>
                    <path d="M611.695381,23.0744902 C611.595506,21.4831461 613.612984,21.6196421 614.704952,21.5230961 C616.113192,21.6196421 618.044112,21.2034956 619.006242,22.5018727 C619.152726,34.8397836 619.009571,47.1943404 619.076155,59.5389097 C624.166459,54.0391178 629.176862,48.4660841 634.227216,42.9296712 C636.151477,40.5393258 639.620474,41.0986267 642.300458,41.4348731 C644.014981,41.7844361 643.106117,43.835206 642.223887,44.6042447 C637.290054,49.588015 632.3196,54.5384935 627.352476,59.4856429 C632.958801,66.8331253 638.67499,74.0973783 644.248023,81.4681648 C645.170204,82.3537245 645.126925,84.1548065 643.568872,84.2213899 C641.00541,84.3345818 637.446525,85.1602164 635.851852,82.5334998 C630.262172,75.21598 624.715772,67.8651685 619.072826,60.590928 C619.049521,67.9583854 619.079484,75.3291719 619.059509,82.6999584 C619.172701,84.5942572 616.655847,84.3146067 615.387432,84.397836 C614.172285,84.2713275 611.911777,84.6575114 611.695381,83.0062422 C611.695381,63.031211 611.705368,43.0495214 611.695381,23.0744902 Z" id="Path" fill="#FFFFFF"></path>
                    <path d="M225.098627,28.8372867 C225.002081,26.8397836 227.072826,25.6712443 228.870578,25.9409072 C235.302538,26.1573034 241.837703,25.3682896 248.176446,26.7598835 C253.203496,27.8818144 257.834374,31.3641282 259.642114,36.2846442 C262.535164,44.0982106 260.198086,54.1922597 252.817312,58.6866417 C246.878069,62.5251769 239.533916,62.0357886 232.779026,62.0258011 C232.735747,69.0903038 232.848939,76.1614648 232.725759,83.2226384 C231.913442,84.7607158 229.649605,84.2480233 228.188098,84.377861 C227.029546,84.2846442 224.902206,84.3545568 225.078652,82.6600083 C225.08531,64.7191011 225.038702,46.7781939 225.098627,28.8372867 M232.775697,32.3129422 C232.779026,40.1131918 232.76571,47.9101124 232.785685,55.710362 C238.129005,55.4640033 244.291303,56.7024553 248.749064,52.9604661 C253.716188,48.7091136 254.142322,40.0233042 249.60799,35.3158552 C245.070329,31.1011236 238.388681,32.6158968 232.775697,32.3129422 Z" id="Shape" fill="#FFFFFF"></path>
                    <path d="M473.974199,29.0703288 C473.811069,27.1094465 475.695381,25.6878901 477.553059,25.9442364 C484.524345,26.2072409 491.685393,25.1785268 498.486891,27.1427382 C503.410737,28.6608406 507.65876,32.5593009 509.000416,37.6129838 C510.804827,44.2746567 509.323346,52.1747815 504.059925,56.9155223 C498.034124,62.488556 489.315023,62.1190179 481.674573,62.0391178 C481.681232,68.8139825 481.671244,75.5888473 481.681232,82.363712 C481.694548,83.0262172 481.64794,83.8684977 480.848939,84.0216396 C478.904702,84.5476488 476.78402,84.5376613 474.839784,84.0382855 C473.874324,83.8751561 473.927591,82.7798585 473.947566,82.034124 C473.977528,64.3795256 473.924261,46.7249272 473.974199,29.0703288 M481.674573,32.3129422 C481.68789,40.0998752 481.664586,47.8901373 481.68789,55.6803995 C486.498543,55.5006242 491.725343,56.4694132 496.136496,54.0291303 C503.713691,49.841032 503.610487,36.2313774 495.087807,33.1918435 C490.763213,31.8102372 486.138993,32.4694132 481.674573,32.3129422 Z" id="Shape" fill="#FFFFFF"></path>
                    <path d="M59.545568,29.2367873 C63.1377445,28.3312526 69.0470246,29.3033708 68.8006658,34.0807324 C67.7686226,40.968789 61.4997919,45.6096546 55.7369954,48.6924677 C51.9550562,50.5068664 47.6570953,51.9184353 43.4323762,51.0661673 C41.3449854,50.6766542 39.4806492,48.928839 39.4471435,46.7249272 C39.4240533,43.5888473 41.3083645,40.8456097 43.2725759,38.5584686 C47.5705368,33.9076155 53.2967124,30.4519351 59.545568,29.2367873 Z" id="Path" fill="#FFFFFF"></path>
                    <path d="M387.275905,31.3275073 C388.011652,30.082397 389.769455,30.4452767 390.997919,30.3287557 C392.169788,30.43196 394.020807,30.1523096 394.516854,31.5272576 C394.656679,34.8131502 394.526841,38.1090304 394.57345,41.3982522 C398.262172,41.4015814 401.950895,41.3649605 405.639617,41.4182272 C406.698294,43.1127757 406.904702,45.8060757 405.563046,47.3774449 C401.920932,47.7003745 398.225551,47.4207241 394.566792,47.5172701 C394.596754,55.2409488 394.536829,62.9646275 394.596754,70.6883063 C394.699958,73.0786517 394.873075,75.8851436 396.78402,77.5896796 C398.99459,79.1510612 401.937578,78.6982938 404.281315,77.676238 C404.910529,77.3666251 406.099043,77.0436954 406.212235,78.082397 C406.581773,80.1131918 406.928007,83.3424886 404.361215,84.0349563 C400.103204,85.3000416 394.992926,85.4465252 391.220974,82.7831877 C387.941739,80.3162713 387.272576,75.8951311 387.212651,72.0565959 C387.149397,63.8734915 387.222638,55.6937162 387.17603,47.5106117 C385.055347,47.3574698 382.868082,47.7602996 380.790678,47.2975447 C379.662089,45.7062006 379.692052,43.1227632 380.833958,41.5613816 C382.908032,41.1718685 385.068664,41.491469 387.179359,41.4015814 C387.265918,38.0457761 387.05618,34.673325 387.275905,31.3275073 Z" id="Path" fill="#FFFFFF"></path>
                    <path d="M141.153558,33.2550978 C146.566792,32.3995006 152.888889,33.6645859 156.38119,38.2621723 C158.861423,41.3383271 159.174365,45.4997919 158.601748,49.2617561 C156.098211,60.2846442 144.80566,68.2580108 133.679567,67.7519767 C129.434873,67.5522264 125.017062,65.841032 122.476904,62.2788181 C119.470662,58.1173533 119.583854,52.4011652 121.617978,47.8501873 C125.057012,40.0998752 132.764045,34.3603829 141.153558,33.2550978 Z" id="Path" fill="#F7EB00"></path>
                    <path d="M328.865585,40.5891933 C332.977112,40.5792759 337.275073,41.6346234 340.497711,44.2946317 C342.428631,45.7894299 342.295464,48.5992509 341.739492,50.7199334 C340.967124,52.4344569 339.205993,50.9296712 338.287141,50.1772784 C334.19226,46.7948398 327.843529,45.3965876 323.225968,48.5293383 C319.07449,51.6088223 318.145651,57.2051602 318.059093,62.0491053 C317.979193,66.556804 318.438618,71.4640033 321.321681,75.1327507 C324.521015,79.1077819 330.65335,79.4839784 334.971286,77.2434457 C337.131918,76.3279234 338.756554,74.5168539 340.857262,73.5247607 C342.172285,73.3416563 342.125676,75.1427382 342.225551,76.0249688 C342.438618,77.9558885 342.145651,80.1897628 340.321265,81.2750728 C333.369954,86.0990429 322.866417,86.6017478 316.334582,80.7790262 C311.806908,76.5276737 310.415314,70.0224719 310.335414,64.0366209 C310.212235,57.937578 311.284228,51.4057428 315.275905,46.5717853 C318.535164,42.5468165 323.785268,40.6092385 328.865585,40.5891933 Z" id="Path" fill="#FFFFFF"></path>
                    <path d="M530.673325,40.6791511 C536.246359,40.1697878 542.355389,41.0387016 546.723263,44.8106533 C551.240949,48.7324178 552.995422,54.91469 553.148564,60.7141074 C553.424886,66.8264669 552.253017,73.3416563 548.331253,78.2155639 C545.138577,82.2305452 540.121515,84.4644195 535.07449,84.8772368 C529.538077,85.3499792 523.472326,84.454432 519.151061,80.6991261 C515.029546,77.1602164 513.268414,71.6570953 512.865585,66.3936746 C512.389513,60.1980857 513.151893,53.5497295 516.764045,48.3196005 C519.860175,43.7519767 525.236787,41.0753225 530.673325,40.6791511 M530.942988,46.8447774 C523.741989,47.5072826 520.352892,55.2709114 520.499376,61.6995422 C520.512692,65.6812318 520.739076,69.8959634 522.766542,73.4315439 C526.79484,80.7490637 539.116105,80.5493134 543.097794,73.2817312 C545.548065,68.8905535 545.671244,63.6171452 545.128589,58.7399084 C544.709114,55.1377445 543.497295,51.312526 540.531003,49.0020807 C537.870995,46.8547649 534.235539,46.4386184 530.942988,46.8447774 Z" id="Shape" fill="#FFFFFF"></path>
                    <path d="M588.923845,40.6625052 C593.178527,40.3162713 597.849355,40.8456097 601.358302,43.4590096 C602.456929,44.920516 602.183937,47.0778194 601.777778,48.7590512 C601.298377,49.8343737 600.109863,49.0686642 599.424053,48.6758219 C595.638785,46.4186434 590.721598,45.3499792 586.566792,47.2043279 C583.167707,48.7390762 582.545152,53.9991677 585.584686,56.213067 C590.401998,59.9750312 597.220141,60.3478985 601.558052,64.8555972 C606.421973,70.2521848 604.277986,79.923429 597.706201,82.9463171 C591.464003,85.9725343 583.766958,85.5763629 577.617978,82.5002081 C575.087807,81.3849355 575.280899,78.062422 575.886808,75.8285476 C576.476072,74.6167291 577.894299,75.6554307 578.699958,76.0882231 C583.071161,78.8148148 588.803995,80.2297129 593.671244,77.985851 C597.133583,76.4843945 598.082397,71.1210986 595.062838,68.7240949 C590.698294,65.1019559 584.48273,64.7523928 580.224719,60.9238452 C575.550562,57.0952975 575.344153,49.3682896 579.352476,44.997087 C581.806076,42.3570537 585.384935,40.9754474 588.923845,40.6625052 Z" id="Path" fill="#FFFFFF"></path>
                    <path d="M653.150229,44.2147316 C658.426966,41.0120682 664.88556,40.0233042 670.957969,40.8189763 C674.33042,41.2917187 677.812734,42.6400333 679.926758,45.4365377 C682.267166,48.5459842 682.679983,52.610903 682.656679,56.3828548 C682.620058,65.3583021 682.719933,74.3370787 682.610071,83.3091968 C681.811069,84.900541 679.454016,84.3112776 677.979193,84.3312526 C675.21598,84.2180608 676.650853,80.7390762 676.317936,78.9912609 C671.996671,83.7652934 665.168539,86.2022472 658.859759,84.4877237 C653.832709,83.5422389 649.644611,79.1543903 649.474823,73.9508947 C648.852268,69.0869746 651.422389,64.0499376 655.903454,61.9525593 C661.86933,58.8830628 668.78402,59.2592593 675.29588,59.2459426 C675.289222,56.2363712 675.528922,53.0237203 674.133999,50.2505202 C672.838951,47.7802747 669.959218,46.6583437 667.29588,46.5984186 C662.808156,46.1256762 658.463587,47.8102372 654.63504,49.9941739 C653.819392,50.3903454 652.537661,51.2292967 651.885144,50.1606325 C651.006242,48.2397004 651.046192,45.3366625 653.150229,44.2147316 M660.324594,66.3537245 C656.539326,68.3112776 655.926758,73.9575531 658.683313,77.0070745 C660.957137,79.4140658 664.705784,79.6204744 667.725343,78.7615481 C670.724927,77.7861007 673.168539,75.5788598 675.202663,73.2384519 C675.45901,70.3687058 675.225968,67.4590096 675.312526,64.5759467 C670.318768,64.7523928 664.902206,63.8801498 660.324594,66.3537245 Z" id="Shape" fill="#FFFFFF"></path>
                    <path d="M279.933417,40.9088639 C285.879318,39.9866833 292.534332,40.6059093 297.401581,44.454432 C301.762797,47.9167707 303.740325,53.5497295 304.149813,58.9463171 C304.689139,65.2684145 303.856846,72.0599251 300.104869,77.3533084 C297.052018,81.7311694 291.891802,84.3179359 286.645027,84.8272992 C280.799001,85.4298793 274.297129,84.4777362 269.846026,80.3262588 C265.588015,76.357886 264.076571,70.3520599 263.866833,64.7191011 C263.603829,57.8876404 265.091968,50.3770287 270.285476,45.5330836 C272.938826,43.0661673 276.371203,41.511444 279.933417,40.9088639 M281.917603,46.8647524 C278.365377,47.2908864 275.162713,49.6113192 273.621307,52.8372867 C271.227632,57.7145235 271.264253,63.4140658 272.166459,68.6608406 C272.808989,72.639201 275.249272,76.5742821 279.171036,77.9891802 C284.048273,79.6604245 290.320433,78.7948398 293.483146,74.3736995 C296.702455,69.8593425 296.815647,63.9367457 296.229713,58.6333749 C295.80025,55.0411985 294.568456,51.2226384 291.582189,48.948814 C288.882231,46.8148148 285.230129,46.4286309 281.917603,46.8647524 Z" id="Shape" fill="#FFFFFF"></path>
                    <path d="M413.929255,45.0270495 C418.836454,41.5214315 425.211819,40.406159 431.141074,40.8888889 C435.322514,41.2118186 439.850187,42.789846 442.094049,46.585102 C444.034956,49.8110695 444.218061,53.7128589 444.214732,57.3816063 C444.164794,66.1073658 444.294632,74.8464419 444.151477,83.5688722 C443.235955,85.1468997 440.868914,84.5742821 439.330836,84.5409904 C436.810653,84.2080732 438.178943,80.968789 437.846026,79.2575947 C432.579276,85.2168123 423.19434,87.1610487 416.259675,83.0395339 C411.036205,79.9833541 409.681232,72.7490637 412.094881,67.4856429 C413.646275,64.2030795 416.895547,62.082397 420.26134,60.9937578 C425.598002,59.21598 431.297545,59.4956305 436.840616,59.4789846 C436.917187,56.4327923 437.040366,53.1668747 435.612151,50.3836871 C434.223887,47.7702871 431.091136,46.798169 428.307948,46.7915106 C423.710362,46.4153142 419.402414,48.4028298 415.480649,50.5634623 C412.387849,52.0649189 412.224719,46.4186434 413.929255,45.0270495 M421.636288,66.7132751 C417.148564,69.2367873 417.594673,77.0237203 422.51186,78.8014981 C427.895131,80.9554723 433.681232,77.6063254 436.787349,73.2684145 C436.923845,70.4552643 436.807324,67.6321265 436.837287,64.8156471 C431.770287,64.9821057 426.237203,64.076571 421.636288,66.7132751 Z" id="Shape" fill="#FFFFFF"></path>
                    <path d="M349.826051,41.4814815 C357.436538,41.2650853 365.073658,41.4648356 372.697462,41.3849355 C373.716188,41.3649605 375.131086,41.3416563 375.507283,42.5434873 C376.043279,44.8672493 375.826883,47.4739908 374.481898,49.5047857 C368.466084,58.9995839 362.357054,68.4344569 356.344569,77.9292551 C362.350395,77.9126092 368.356221,77.9359134 374.365377,77.9159384 C377.984186,77.1269247 377.990845,84.9637953 374.362047,84.1548065 C366.475239,84.1315023 358.588431,84.1548065 350.704952,84.144819 C349.712859,84.2213899 348.610903,83.6853933 348.414482,82.6400333 C348.054931,80.4294632 348.18144,78.0158136 349.476488,76.1081981 C355.542239,66.5934249 361.691219,57.1252601 367.7603,47.6104869 C361.824386,47.5139409 355.855181,47.7636288 349.939243,47.4873075 C348.401165,46.1556388 348.411153,42.8997087 349.826051,41.4814815 Z" id="Path" fill="#FFFFFF"></path>
                </g>
            </g>
        </g>
    </g>
</svg>