<?xml version="1.0" encoding="UTF-8"?>
<svg width="980px" height="680px" viewBox="0 0 980 680" version="1.1" xmlns="http://www.w3.org/2000/svg" xmlns:xlink="http://www.w3.org/1999/xlink">
    <title>PL Poczta Polska text alt</title>
    <defs>
        <rect id="path-1" x="0" y="0" width="900" height="600" rx="80"></rect>
        <filter x="-6.7%" y="-10.0%" width="113.3%" height="120.0%" filterUnits="objectBoundingBox" id="filter-2">
            <feMorphology radius="2.5" operator="dilate" in="SourceAlpha" result="shadowSpreadOuter1"></feMorphology>
            <feOffset dx="0" dy="0" in="shadowSpreadOuter1" result="shadowOffsetOuter1"></feOffset>
            <feGaussianBlur stdDeviation="17.5" in="shadowOffsetOuter1" result="shadowBlurOuter1"></feGaussianBlur>
            <feColorMatrix values="0 0 0 0 0   0 0 0 0 0   0 0 0 0 0  0 0 0 0.5 0" type="matrix" in="shadowBlurOuter1"></feColorMatrix>
        </filter>
    </defs>
    <g id="PL-Poczta-Polska-text-alt" stroke="none" stroke-width="1" fill="none" fill-rule="evenodd">
        <g transform="translate(40, 40)">
            <g id="Rectangle">
                <use fill="black" fill-opacity="1" filter="url(#filter-2)" xlink:href="#path-1"></use>
                <use fill="#D52B1E" fill-rule="evenodd" xlink:href="#path-1"></use>
            </g>
            <g id="Logo" transform="translate(49.8375, 29.1806)" fill="#FFFFFF" fill-rule="nonzero">
                <g id="#ffffffff">
                    <g id="Group-2" transform="translate(81.9324, 0)">
                        <path d="M281.292662,17.3932702 C300.273068,9.20756241 320.025301,1.48929876 340.821129,0 C348.267623,0.369606992 358.007855,3.1960134 358.660102,12.077452 C359.562378,33.8081689 345.854307,52.4407096 335.429216,70.4101319 C317.427181,97.7610493 305.491049,129.26461 302.186328,161.898733 C298.609837,194.369794 306.45855,229.91729 328.852385,254.713571 C348.985096,276.889991 380.40169,286.184519 409.372356,285.09744 C443.126171,283.966877 476.466895,273.780944 505.861522,257.148629 C550.757901,231.776196 586.685874,192.989204 614.602073,150.08218 C617.895924,144.657654 624.853232,139.330965 631.299612,142.809619 C637.735122,145.853441 636.147986,154.006537 635.419643,159.681091 C604.394398,219.731356 561.802627,275.715945 504.491802,312.817964 C468.215963,336.016239 425.482872,351.278833 382.075792,349.833018 C348.061078,351.333187 314.318134,342.582198 283.162439,329.341571 C256.007196,317.677209 231.232656,301.381889 204.903594,288.086908 C159.344097,264.203774 107.696955,246.908341 55.951976,252.126322 C43.0918269,254.213515 30.0251327,254.800538 16.9910508,253.974357 C9.54455702,252.952503 0.543539693,249.278174 0,240.581539 C0.152191114,229.112852 7.01166205,219.046496 13.6863295,210.143316 C29.2533063,189.358358 49.2120838,172.54124 67.9424617,154.800105 C61.7134968,167.855928 58.7783825,184.096894 66.2466178,197.304909 C74.1062018,211.795677 91.2820561,217.818097 106.881645,218.579052 C115.447831,221.068464 124.024887,217.111495 132.68891,217.231074 C172.215116,210.273766 208.675759,190.804174 239.646651,165.69264 C261.388239,147.103583 281.433982,124.285786 289.684915,96.3478461 C293.772334,82.1505893 291.4025,64.9421226 279.34679,55.2236329 C265.682202,44.2223895 246.506122,41.5264326 229.645521,44.2876142 C245.832133,33.5690115 263.703718,25.578978 281.292662,17.3932702 Z" id="Path"></path>
                        <path d="M194.435019,95.4673118 C206.164606,92.5104558 225.460265,95.6847276 224.655826,111.284317 C221.28588,133.775989 200.816175,148.929876 181.998831,158.996231 C169.649609,164.920814 155.615414,169.53003 141.820377,166.747107 C135.004389,165.475224 128.916745,159.768058 128.807338,152.571592 C128.731941,142.331304 134.88481,133.37377 141.298579,125.905535 C155.332774,110.719036 174.030539,99.4351515 194.435019,95.4673118 Z" id="Path"></path>
                        <path d="M460.910789,108.58836 C478.5867,105.794566 499.230338,109.925468 510.6338,124.938034 C518.732542,134.982647 519.754397,148.57114 517.88462,160.855137 C509.709783,196.848335 472.83605,222.883887 436.505857,221.231526 C422.645595,220.579278 408.220051,214.99169 399.925636,203.359941 C390.109309,189.771449 390.478916,171.106296 397.120971,156.24592 C408.350501,130.938712 433.516389,112.197464 460.910789,108.58836 Z" id="Path"></path>
                    </g>
                    <g id="Group-3" transform="translate(0, 382.4932)">
                        <path d="M590.073805,0.197695836 C593.106173,0.285000089 598.111617,-1.06530569 599.659812,2.27553706 C599.793679,37.1797775 599.683093,72.1014788 599.718015,107.01736 C599.846061,110.276719 595.539051,109.834377 593.338984,109.979884 C591.069074,109.811096 586.569994,110.375663 586.773704,106.999899 C586.762064,72.2528062 586.732962,37.5057134 586.785345,2.7586206 C586.535073,0.861208161 588.595453,0.308281223 590.073805,0.197695836 Z" id="Path"></path>
                        <path d="M675.928808,2.76444088 C675.754199,-0.0176546557 679.281291,0.22097697 681.190344,0.0521887469 C683.652324,0.22097697 687.028089,-0.506558474 688.71015,1.76335211 C688.966243,23.333323 688.715971,44.9323952 688.832376,66.5140066 C697.73159,56.8988982 706.491117,47.1557435 715.320487,37.476612 C718.684611,33.2976484 724.749346,34.275456 729.434674,34.8633047 C732.43212,35.4744344 730.843183,39.0597291 729.300808,40.4042146 C720.675148,49.1171791 711.985464,57.7719407 703.301601,66.4208821 C713.102959,79.2662479 723.096386,91.9661066 732.83954,104.852214 C734.451759,106.40041 734.376095,109.549183 731.652202,109.665589 C727.170584,109.863479 720.948701,111.306909 718.160785,106.714705 C708.388529,93.9217219 698.691937,81.0705358 688.826556,68.3532162 C688.785814,81.2335037 688.838197,94.1196115 688.803275,107.005719 C689.001165,110.317461 684.60103,109.828557 682.383502,109.974064 C680.259099,109.752893 676.307126,110.428046 675.928808,107.541185 C675.928808,72.6194841 675.946269,37.6861422 675.928808,2.76444088 Z" id="Path"></path>
                        <path d="M0.0542006716,12.8393517 C-0.114587551,9.34718158 3.50562882,7.30426205 6.64858194,7.77570502 C17.8933698,8.15402345 29.3185864,6.77461625 40.4004062,9.20749477 C49.1890344,11.1689303 57.2850488,17.2569469 60.4454628,25.859326 C65.5032892,39.5195315 61.4174502,57.1666312 48.5138815,65.024014 C38.1304957,71.734801 25.2909501,70.8792193 13.4815948,70.8617584 C13.4059311,83.2124001 13.6038208,95.5746824 13.3884703,107.919504 C11.9683211,110.608475 8.01052829,109.712151 5.45542381,109.939142 C3.42996513,109.776174 -0.289196058,109.8984 0.0192789703,106.935876 C0.0309195374,75.5703678 -0.0505644323,44.2048598 0.0542006716,12.8393517 M13.4757745,18.9157277 C13.4815948,32.5526521 13.4583137,46.1837562 13.4932354,59.8206805 C22.8347905,59.3899796 33.6081353,61.555125 41.401495,55.0131263 C50.0853581,47.5806242 50.8303544,32.3955044 42.9031282,24.1656235 C34.9700817,16.7971445 23.2887726,19.4453735 13.4757745,18.9157277 Z" id="Shape"></path>
                        <path d="M435.155318,13.2467716 C434.870124,9.81862455 438.164404,7.33336347 441.412123,7.7815253 C453.599796,8.2413277 466.119226,6.44286009 478.010066,9.87682738 C486.618265,12.5308767 494.044947,19.3464287 496.390521,28.1816192 C499.545115,39.8280065 496.955089,53.6395394 487.75322,61.9276232 C477.218507,71.6707778 461.975184,71.0247264 448.617634,70.8850396 C448.629274,82.7293166 448.611813,94.5735936 448.629274,106.417871 C448.652555,107.576107 448.571071,109.048639 447.174203,109.316372 C443.775158,110.235977 440.067637,110.218516 436.668592,109.345473 C434.980709,109.060279 435.073834,107.145406 435.108756,105.841663 C435.161138,74.9766989 435.068014,44.1117352 435.155318,13.2467716 M448.617634,18.9157277 C448.640915,32.529371 448.600173,46.1488345 448.640915,59.768298 C457.051225,59.4540027 466.18907,61.1477052 473.900945,56.8814373 C487.147911,49.5595206 486.967482,25.7662015 472.067556,20.4522826 C464.507008,18.0368649 456.422634,19.1892811 448.617634,18.9157277 Z" id="Shape"></path>
                        <path d="M283.583494,17.1929238 C284.869776,15.0161378 287.942886,15.6505487 290.090571,15.4468387 C292.13931,15.6272675 295.375388,15.1383637 296.24261,17.5421408 C296.487062,23.2867607 296.260071,29.0488414 296.341555,34.7992815 C302.790429,34.8051018 309.239303,34.7410787 315.688178,34.8342032 C317.539028,37.7967276 317.899885,42.505337 315.554311,45.2525108 C309.186921,45.8170783 302.726406,45.3281745 296.329915,45.4969627 C296.382297,59.0000206 296.277532,72.5030784 296.382297,86.0061362 C296.562726,90.1850998 296.865381,95.0915989 300.206223,98.071584 C304.070892,100.801297 309.216022,100.009738 313.313502,98.2229114 C314.413536,97.681625 316.491377,97.1170575 316.689266,98.932986 C317.335318,102.483359 317.940627,108.129034 313.453189,109.339653 C306.009046,111.551361 297.074911,111.807453 290.48053,107.151226 C284.74755,102.838396 283.577673,95.1090597 283.472908,88.3982728 C283.362323,74.0920158 283.490369,59.7915791 283.408885,45.4853221 C279.701364,45.2175891 275.877438,45.9218434 272.245581,45.112824 C270.272505,42.3307285 270.324888,37.8141884 272.321245,35.0844754 C275.947282,34.4035023 279.724646,34.9622495 283.414705,34.8051018 C283.566033,28.938256 283.199355,23.0423088 283.583494,17.1929238 Z" id="Path"></path>
                        <path d="M181.466619,33.38483 C188.654669,33.3674918 196.168655,35.2125217 201.802689,39.8629282 C205.178454,42.4762356 204.945643,47.3885549 203.973655,51.0960755 C202.623349,54.0935215 199.544419,51.4627534 197.938021,50.1473693 C190.779072,44.2339612 179.679792,41.7894421 171.607058,47.2663289 C164.349165,52.6500912 162.725306,62.4339878 162.573978,70.9025004 C162.434291,78.7831643 163.237491,87.3622623 168.277856,93.7762148 C173.871149,100.725633 184.592111,101.383325 192.141019,97.4662745 C195.918383,95.8656966 198.758681,92.6994623 202.43128,90.9650178 C204.730292,90.6449022 204.648808,93.7936756 204.823417,95.3360508 C205.195915,98.7118152 204.68373,102.617225 201.494214,104.514638 C189.341462,112.948229 170.978468,113.827092 159.559071,103.647416 C151.643486,96.2149136 149.210607,84.8420795 149.07092,74.3772097 C148.85557,63.7144502 150.729701,52.2950539 157.708221,43.8440022 C163.406279,36.8072794 172.584866,33.4198743 181.466619,33.38483 Z" id="Path"></path>
                        <path d="M534.280567,33.5421003 C544.023722,32.6515969 554.703942,34.1706909 562.340154,40.7650722 C570.238279,47.6213662 573.305568,58.4296328 573.573301,68.5685667 C574.056385,79.2546073 572.007645,90.6449022 565.151351,99.1657973 C559.569699,106.185059 550.798532,110.09047 541.974982,110.812185 C532.29585,111.638665 521.691294,110.073009 514.136566,103.507729 C506.931055,97.3207675 503.852125,87.6998387 503.14787,78.4979705 C502.31557,67.6664228 503.648415,56.0433165 509.963422,46.8996511 C515.376286,38.914222 524.776044,34.234714 534.280567,33.5421003 M534.75201,44.3212654 C522.162737,45.4795019 516.237688,59.0524031 516.49378,70.2913706 C516.517062,77.2524298 516.912841,84.6209087 520.457394,90.8020499 C527.499937,103.595033 549.040806,103.245816 556.001865,90.5401371 C560.285594,82.8631831 560.500944,73.643854 559.552238,65.1171386 C558.818882,58.8195918 556.700299,52.132086 551.514427,48.0928092 C546.86402,44.3387263 540.50827,43.6111908 534.75201,44.3212654 Z" id="Shape"></path>
                        <path d="M636.118068,33.5129989 C643.556391,32.9076894 651.722248,33.8331145 657.856827,38.4020371 C659.777521,40.9571415 659.300258,44.7286853 658.590183,47.6679285 C657.752062,49.5478801 655.674221,48.2092149 654.475243,47.5224214 C647.85758,43.5762691 639.261021,41.7079581 631.997308,44.9498561 C626.054798,47.6330068 624.966405,56.8290548 630.280324,60.6995434 C638.702274,67.2764638 650.622215,67.9283355 658.206044,75.8089995 C666.709479,85.2436791 662.961216,102.151603 651.471976,107.43642 C640.558945,112.727058 627.102449,112.034444 616.352385,106.656502 C611.92897,104.706707 612.266546,98.8980643 613.325838,94.992654 C614.356028,92.8740708 616.835469,94.6899993 618.243978,95.4466362 C625.88601,100.213448 635.908538,102.687069 644.417793,98.7641978 C650.470888,96.1392499 652.129668,86.7627731 646.850671,82.5721689 C639.220279,76.2397004 628.35381,75.6285707 620.909667,68.9352446 C612.737989,62.2419185 612.377132,48.7330404 619.384753,41.0910081 C623.674302,36.4755232 629.931107,34.0601055 636.118068,33.5129989 Z" id="Path"></path>
                        <path d="M748.402979,39.7232414 C757.628128,34.1241287 768.919478,32.3955044 779.535675,33.7865522 C785.431623,34.6130325 791.519639,36.9702473 795.215519,41.8592855 C799.307178,47.2954303 800.028894,54.4019965 799.988152,60.9963778 C799.924129,76.6878623 800.098737,92.385167 799.906668,108.070831 C798.5098,110.852927 794.389039,109.822737 791.810653,109.857658 C786.979818,109.659769 789.48836,103.577572 788.906332,100.521923 C781.351604,108.86821 769.414202,113.128658 758.384765,110.131212 C749.596137,108.478251 742.27422,100.807117 741.977386,91.7100141 C740.888992,83.2065798 745.382251,74.4004908 753.216353,70.7337122 C763.646301,65.3674108 775.73503,66.0251028 787.119505,66.0018217 C787.107864,60.7402853 787.526925,55.1237117 785.088226,50.2754155 C782.824135,45.9567651 777.78959,43.9953296 773.133363,43.8905645 C765.287621,43.0640842 757.692151,46.0091477 750.998825,49.8272537 C749.572856,50.5198674 747.332046,51.9865789 746.191271,50.1182679 C744.654716,46.7599642 744.724559,41.684677 748.402979,39.7232414 M760.94569,78.428127 C754.328027,81.8504538 753.257095,91.7216547 758.07629,97.0530344 C762.051543,101.261099 768.605183,101.621957 773.88418,100.120324 C779.128255,98.4149808 783.400344,94.5561328 786.956537,90.4644734 C787.404699,85.447389 786.997279,80.3604612 787.148606,75.3200956 C778.418181,75.6285707 768.948579,74.1036564 760.94569,78.428127 Z" id="Shape"></path>
                        <path d="M95.920091,33.9436999 C106.315117,32.3314813 117.949864,33.4140541 126.459119,40.1423018 C134.08369,46.1953967 137.540939,56.0433165 138.256834,65.4779961 C139.19972,76.5307146 137.744649,88.4040931 131.185189,97.6583439 C125.847989,105.312017 116.82655,109.834377 107.653783,110.72488 C97.4333648,111.778352 86.066351,110.113751 78.2846319,102.855857 C70.8404892,95.9180791 68.1980805,85.4182876 67.8314026,75.5703678 C67.3716002,63.627146 69.973267,50.4965863 79.0529093,42.0280737 C83.6916753,37.7152436 89.6923876,34.9971712 95.920091,33.9436999 M99.38898,44.3561871 C93.1787375,45.1011834 87.5796247,49.1579211 84.8848334,54.7977758 C80.7000496,63.3244912 80.7640727,73.2888167 82.3413695,82.4615835 C83.4646842,89.4168224 87.7309521,96.2963976 94.5872461,98.7700181 C103.113962,101.6918 114.079376,100.178527 119.608645,92.4491901 C125.236859,84.5568856 125.434749,74.2026012 124.410379,64.9308895 C123.659562,58.6508035 121.506058,51.9749383 116.285263,47.9996846 C111.565013,44.2688829 105.180162,43.59373 99.38898,44.3561871 Z" id="Shape"></path>
                        <path d="M330.180684,41.1433906 C338.759782,35.014632 349.905625,33.064837 360.27155,33.9087782 C367.581826,34.4733457 375.497411,37.2321601 379.420283,43.8672833 C382.813508,49.5071381 383.133623,56.3285104 383.127803,62.7424629 C383.040499,77.9974261 383.26749,93.2756704 383.017218,108.524813 C381.41664,111.283628 377.278418,110.282539 374.589447,110.224336 C370.183493,109.642308 372.575629,103.979172 371.993601,100.987546 C362.785912,111.405854 346.378533,114.804899 334.254882,107.599388 C325.122857,102.256368 322.754002,89.6088918 326.973707,80.4070235 C329.68596,74.6682239 335.366556,70.9607033 341.250863,69.0574705 C350.580778,65.9494391 360.545103,66.4383429 370.235875,66.4092415 C370.369742,61.0836821 370.585092,55.3739839 368.08819,50.5082269 C365.661132,45.9393043 360.184245,44.2397815 355.318488,44.2281409 C347.280677,43.5704489 339.74923,47.0451581 332.892936,50.8225222 C327.485892,53.44747 327.200699,43.5762691 330.180684,41.1433906 M343.65464,79.0567177 C335.808898,83.4684926 336.588816,97.0821358 345.185375,100.190167 C354.596773,103.955891 364.712426,98.1006855 370.142751,90.516856 C370.381382,85.5987164 370.177672,80.6631159 370.230055,75.739156 C361.371583,76.0301702 351.698272,74.4470531 343.65464,79.0567177 Z" id="Shape"></path>
                        <path d="M218.111124,34.9447886 C231.416292,34.5664702 244.768023,34.9156872 258.096472,34.7760004 C259.877479,34.7410787 262.351099,34.7003367 263.008791,36.8014591 C263.945857,40.864017 263.567538,45.421299 261.216144,48.971672 C250.698892,65.5711207 240.018671,82.0658043 229.507239,98.665253 C240.007031,98.6361515 250.506822,98.6768935 261.012434,98.6419718 C267.339082,97.2625646 267.350723,110.963512 261.006614,109.549183 C247.218362,109.508441 233.43011,109.549183 219.647679,109.531722 C217.913234,109.665589 215.98672,108.728523 215.643324,106.900954 C215.014733,103.036286 215.235904,98.8165803 217.499994,95.4815579 C228.104551,78.8471875 238.854614,62.294301 249.464991,45.6599307 C239.087426,45.4911424 228.651657,45.9276637 218.309014,45.4445802 C215.620043,43.1164667 215.637503,37.4242294 218.111124,34.9447886 Z" id="Path"></path>
                    </g>
                </g>
            </g>
        </g>
    </g>
</svg>