<?xml version="1.0" encoding="UTF-8"?>
<svg width="980px" height="680px" viewBox="0 0 980 680" version="1.1" xmlns="http://www.w3.org/2000/svg" xmlns:xlink="http://www.w3.org/1999/xlink">
    <title>PT ctt alt</title>
    <defs>
        <rect id="path-1" x="0" y="0" width="900" height="600" rx="80"></rect>
        <filter x="-6.7%" y="-10.0%" width="113.3%" height="120.0%" filterUnits="objectBoundingBox" id="filter-2">
            <feMorphology radius="2.5" operator="dilate" in="SourceAlpha" result="shadowSpreadOuter1"></feMorphology>
            <feOffset dx="0" dy="0" in="shadowSpreadOuter1" result="shadowOffsetOuter1"></feOffset>
            <feGaussianBlur stdDeviation="17.5" in="shadowOffsetOuter1" result="shadowBlurOuter1"></feGaussianBlur>
            <feColorMatrix values="0 0 0 0 0   0 0 0 0 0   0 0 0 0 0  0 0 0 0.5 0" type="matrix" in="shadowBlurOuter1"></feColorMatrix>
        </filter>
    </defs>
    <g id="PT-ctt-alt" stroke="none" stroke-width="1" fill="none" fill-rule="evenodd">
        <g transform="translate(40, 40)">
            <g id="Rectangle">
                <use fill="black" fill-opacity="1" filter="url(#filter-2)" xlink:href="#path-1"></use>
                <use fill="#DF0024" fill-rule="evenodd" xlink:href="#path-1"></use>
            </g>
            <g id="Logo" transform="translate(58, 50)" fill="#FFFFFF" fill-rule="nonzero">
                <path d="M313.705073,481.538905 C277.894133,492.307533 237.419395,499.997941 198.495809,499.997941 C68.5092335,499.997941 -7.44570386e-14,420.005354 -7.44570386e-14,299.995881 C-7.44570386e-14,180.768835 68.5092335,99.9938229 198.495809,99.9938229 C237.419395,99.9938229 277.894133,107.694525 313.705073,118.463154 L298.131502,198.455741 C263.10648,187.687112 239.756465,183.074928 211.73231,183.074928 C144.78457,183.074928 116.760416,232.305886 116.760416,299.995881 C116.760416,367.696172 144.78457,416.927132 211.73231,416.927132 C239.756465,416.927132 263.10648,412.304651 298.131502,401.536023 L313.705073,481.538905 Z" id="Fill-58"></path>
                <path d="M482.093013,190.767394 L482.093013,385.385138 C482.093013,411.544876 499.993312,419.235282 517.128377,419.235282 C524.90482,419.235282 541.253968,418.463153 550.591905,416.157062 L550.591905,493.843556 C528.017467,497.693907 489.104223,500 470.418006,500 C389.46853,500 370.782313,456.925484 370.782313,396.153767 L370.782313,190.767394 L370.782313,107.686289 L370.782313,57.5390697 L482.093013,-1.57848922e-11 L482.093013,107.686289 L550.591905,107.686289 L550.591905,190.767394 L482.093013,190.767394 Z" id="Fill-60"></path>
                <path d="M715.834109,190.767394 L715.834109,385.385138 C715.834109,411.544876 733.734408,419.235282 750.869472,419.235282 C758.645916,419.235282 774.995064,418.463153 784.333001,416.157062 L784.333001,493.843556 C761.758563,497.693907 722.834977,500 704.159101,500 C623.199284,500 604.523409,456.925484 604.523409,396.153767 L604.523409,57.5390697 L715.834109,-1.57848922e-11 L715.834109,107.686289 L784.333001,107.686289 L784.333001,190.767394 L715.834109,190.767394 Z" id="Fill-62"></path>
            </g>
        </g>
    </g>
</svg>