<?xml version="1.0" encoding="UTF-8"?>
<svg width="980px" height="680px" viewBox="0 0 980 680" version="1.1" xmlns="http://www.w3.org/2000/svg" xmlns:xlink="http://www.w3.org/1999/xlink">
    <title>QA Qatar Post</title>
    <defs>
        <rect id="path-1" x="-5.68434189e-14" y="0" width="900" height="600" rx="80"></rect>
        <filter x="-6.7%" y="-10.0%" width="113.3%" height="120.0%" filterUnits="objectBoundingBox" id="filter-2">
            <feMorphology radius="2.5" operator="dilate" in="SourceAlpha" result="shadowSpreadOuter1"></feMorphology>
            <feOffset dx="0" dy="0" in="shadowSpreadOuter1" result="shadowOffsetOuter1"></feOffset>
            <feGaussianBlur stdDeviation="17.5" in="shadowOffsetOuter1" result="shadowBlurOuter1"></feGaussianBlur>
            <feColorMatrix values="0 0 0 0 0   0 0 0 0 0   0 0 0 0 0  0 0 0 0.5 0" type="matrix" in="shadowBlurOuter1"></feColorMatrix>
        </filter>
    </defs>
    <g id="QA-Qatar-Post" stroke="none" stroke-width="1" fill="none" fill-rule="evenodd">
        <g transform="translate(40, 40)">
            <g id="Rectangle">
                <use fill="black" fill-opacity="1" filter="url(#filter-2)" xlink:href="#path-1"></use>
                <use fill="#FDB71C" fill-rule="evenodd" xlink:href="#path-1"></use>
            </g>
            <g id="Group" transform="translate(92, 46.0007)" fill="#06306E" fill-rule="nonzero">
                <path d="M759.513418,339.421261 C699.878677,329.710448 705.479899,330.38777 662.047603,330.38777 C626.659453,330.18229 613.341332,331.01943 599.482876,333.979858 C550.989694,344.32233 506.210366,360.364958 459.665436,384.010331 L431.507122,398.36346 L429.163133,391.399985 C423.29555,372.610019 410.388388,359.101639 392.793247,353.401483 C364.437065,344.32233 341.956076,355.509552 326.704925,386.544579 C318.683611,402.800297 316.537491,423.485241 321.621208,434.489815 C330.03065,451.590282 355.053497,453.69835 390.053519,440.18997 C400.806951,435.966224 410.00026,433.218885 410.388388,433.645065 C411.758252,435.121474 411.370123,446.947966 409.80239,449.474603 C407.64866,453.066691 390.015468,461.932754 378.128093,465.311752 C365.023062,469.116929 339.018479,469.535499 324.353326,466.156501 C305.974319,462.145844 282.907333,448.652685 269.414174,434.063635 C229.147786,390.768326 230.913388,331.049871 274.124983,279.938727 L285.464412,266.848917 L288.782527,272.122893 C290.548129,275.075711 297.975836,283.736295 305.213283,291.331429 C333.949983,321.734797 366.606016,335.037697 380.685173,322.153366 L385.966759,317.29796 L390.654737,321.947886 C396.910449,328.279702 403.950027,329.337541 411.575603,324.900704 C417.443187,321.734797 418.813051,321.734797 423.501029,324.482135 C436.803929,331.864179 469.452352,324.900704 496.826799,308.644986 C513.059686,298.934173 542.192124,267.480577 552.161689,248.9037 C572.709647,210.692108 572.108429,170.372448 550.791825,150.311553 C525.571109,126.24761 466.514755,128.355679 408.843486,155.380049 C375.403586,171.004108 345.297022,192.533802 316.354843,220.829101 C310.099131,226.917385 304.231547,232.023933 303.417239,232.023933 C300.289383,232.023933 287.580091,176.468342 287.580091,163.203494 C287.580091,160.243066 291.887552,148.629664 297.161528,137.236963 C321.796246,84.4591517 332.930196,23.8426749 321.605987,4.4438803 C318.112835,-1.26388587 312.024551,-1.46936545 304.033678,3.80461049 C291.917993,11.8259245 280.182826,30.8289807 272.359381,55.7376723 C265.129544,78.7513855 263.561811,98.3556597 264.749026,143.134988 L265.9058,184.931057 L259.056481,196.963028 C248.300512,216.384654 233.840838,236.016833 215.677458,255.859565 C171.080778,304.847419 120.829605,333.135108 50.0456938,349.809396 L26.5829696,355.304072 L0,355.403007 L0,385.083391 C28.9193486,385.083391 27.3972776,384.64199 45.1598459,380.425853 C71.537336,374.086428 84.2618494,369.862681 106.750448,359.96922 C165.411064,333.576509 213.120378,288.827622 253.980374,221.689071 L268.645528,197.815388 L273.143247,221.247671 C275.487237,234.124391 278.424834,247.632771 279.596828,251.224858 C281.55269,257.556674 281.156951,258.614513 274.315242,267.480577 C242.443076,308.858076 227.587663,340.539983 223.287813,376.620676 C217.024491,432.351305 249.292395,481.331549 302.275686,495.897768 C353.881503,510.045418 402.975902,486.818615 424.657803,438.264551 L432.671507,420.319334 L473.927241,401.110798 C540.015563,370.715041 574.627457,359.520209 619.011046,354.246233 C652.839074,350.441055 661.33223,350.692197 759.490587,367.579574 M305.403542,42.6174205 C308.341139,54.6493915 306.385278,85.6844188 301.491819,104.261295 C295.236108,127.09236 287.420273,146.270454 285.464412,142.899067 C282.922554,138.8808 283.310682,60.9888172 285.85254,47.8990067 C289.566393,27.6630731 300.905822,24.4971654 305.403542,42.6174205 Z M516.3778,171.232418 C529.67309,177.777323 540.624391,189.596205 544.924241,201.628176 C549.8177,215.136556 548.052097,243.850425 541.994255,253.561237 C537.108407,261.171592 517.747664,277.62518 501.712646,288.180742 C470.434088,308.660207 436.408191,309.931136 427.222493,290.92808 L423.896768,283.949384 L419.787176,289.192919 C417.641056,291.940257 414.315331,296.803274 412.557339,299.535391 L409.437093,304.634329 L404.353376,298.721083 C401.415779,295.342086 399.07179,290.912859 399.07179,288.827622 C399.07179,282.914376 394.57407,286.080284 388.516228,296.209666 C383.234641,305.28882 383.234641,305.50191 375.023068,303.393841 C354.47511,298.538435 327.701882,277.21422 313.432466,254.832167 L307.176755,245.121354 L316.590764,236.68147 C351.195047,205.433353 401.065703,179.261343 446.02768,168.49269 C470.236219,162.769704 501.522388,164.033022 516.3778,171.232418 Z M381.27878,388.447168 C393.402076,394.992073 405.129632,408.074273 401.826738,411.278232 C398.698883,414.23105 382.039816,417.815527 371.324436,417.815527 C352.74756,417.610047 340.236136,408.530894 337.298539,392.906836 C336.126545,387.20668 336.712542,385.943361 340.624264,384.253862 C343.166123,383.196023 350.593829,382.138183 357.245279,382.138183 C366.819106,381.902262 371.491864,383.165581 381.27878,388.447168 Z" id="Shape"></path>
            </g>
        </g>
    </g>
</svg>