<?xml version="1.0" encoding="UTF-8"?>
<svg width="980px" height="680px" viewBox="0 0 980 680" version="1.1" xmlns="http://www.w3.org/2000/svg" xmlns:xlink="http://www.w3.org/1999/xlink">
    <title>RO Poșta Română</title>
    <defs>
        <rect id="path-1" x="0" y="0" width="900" height="600" rx="80"></rect>
        <filter x="-6.7%" y="-10.0%" width="113.3%" height="120.0%" filterUnits="objectBoundingBox" id="filter-2">
            <feMorphology radius="2.5" operator="dilate" in="SourceAlpha" result="shadowSpreadOuter1"></feMorphology>
            <feOffset dx="0" dy="0" in="shadowSpreadOuter1" result="shadowOffsetOuter1"></feOffset>
            <feGaussianBlur stdDeviation="17.5" in="shadowOffsetOuter1" result="shadowBlurOuter1"></feGaussianBlur>
            <feColorMatrix values="0 0 0 0 0   0 0 0 0 0   0 0 0 0 0  0 0 0 0.5 0" type="matrix" in="shadowBlurOuter1"></feColorMatrix>
        </filter>
    </defs>
    <g id="RO-Poșta-Română" stroke="none" stroke-width="1" fill="none" fill-rule="evenodd">
        <g transform="translate(40, 40)">
            <g id="Rectangle">
                <use fill="black" fill-opacity="1" filter="url(#filter-2)" xlink:href="#path-1"></use>
                <use fill="#CC0000" fill-rule="evenodd" xlink:href="#path-1"></use>
            </g>
            <g id="Logo" transform="translate(50.3814, 139.7032)" stroke="#FFF500" stroke-width="0.2117">
                <g id="_88469632">
                    <g id="Group">
                        <path d="M68.1243211,74.3525009 L66.4354042,80.2695501 L1.03738559e-14,282.051906 L52.9801325,282.051906 L79.4701987,194.634688 C194.811778,297.114336 349.893129,334.690985 449.338332,315.313992 C590.067393,287.894204 692.385858,243.246529 800,54.2373368 L593.377483,50.2638269 C590.560286,49.7732701 597.477137,90.0456459 583.788266,128.942127 C565.030309,182.242289 542.658584,212.58673 501.872292,232.493991 C574.586823,133.819663 535.940292,63.6887308 486.847238,27.8640699 C460.228693,8.44269325 429.494143,1.06098168 414.146723,0.206011287 C319.009075,-5.10368188 244.596283,93.2272571 274.237593,179.221861 C276.727753,186.444726 284.632725,200.056508 295.702956,212.061134 C317.768667,235.986289 347.746359,258.486493 339.780651,245.991311 C325.979654,224.348413 285.887149,181.380311 297.5624,135.260965 C322.753659,35.7106424 482.231333,55.0105478 482.002406,152.921009 C481.855239,214.647069 433.691907,261.378442 377.721714,272.71264 C311.851618,286.051112 245.068152,267.968255 191.160634,239.899063 C160.918976,224.154526 136.022052,209.606014 111.874978,187.993483 C108.137403,184.648353 175.631008,190.717242 220.201595,165.960476 C255.984209,146.088254 274.394104,99.2914733 243.612834,72.7032957 C198.712872,33.9189421 77.127206,55.2534902 14.3896656,64.7889796 L14.5812163,73.8082165 L68.1243211,74.3525009 Z" id="_88078360" fill="#FFF500"></path>
                        <path d="M663.396288,51.6116901 C634.911291,152.353365 563.068082,238.18445 469.703447,251.562634 C527.549435,216.167795 516.191878,227.553384 534.564397,210.629175 C550.799491,195.674201 562.544822,177.28533 569.300489,163.986569 C586.00278,131.114593 594.81645,101.900768 593.008398,50.5207852 L663.396288,51.6116901 L663.396288,51.6116901 Z" id="_88458752" fill="#0062A6"></path>
                        <path d="M517.056192,299.480688 C575.217539,264.688532 626.111637,231.874956 652.540967,201.049302 C696.592966,149.671655 698.340283,137.293272 728.507189,52.8637779 L800,54.2373368 C750.874242,131.236064 725.012556,174.332645 666.645643,223.217796 C630.44956,253.536541 573.089457,283.705784 517.056192,299.480688 L517.056192,299.480688 Z" id="_87362304" fill="#CC0000"></path>
                    </g>
                    <path d="M87.4032026,165.369472 L112.699581,72.3902738 C245.687188,50.0629322 261.693355,176.304216 87.4032026,165.369472 Z" id="_88459040" fill="#CC0000"></path>
                </g>
            </g>
        </g>
    </g>
</svg>