<?xml version="1.0" encoding="UTF-8"?>
<svg width="980px" height="680px" viewBox="0 0 980 680" version="1.1" xmlns="http://www.w3.org/2000/svg" xmlns:xlink="http://www.w3.org/1999/xlink">
    <title>RO Poșta Română text</title>
    <defs>
        <rect id="path-1" x="0" y="0" width="900" height="600" rx="80"></rect>
        <filter x="-6.7%" y="-10.0%" width="113.3%" height="120.0%" filterUnits="objectBoundingBox" id="filter-2">
            <feMorphology radius="2.5" operator="dilate" in="SourceAlpha" result="shadowSpreadOuter1"></feMorphology>
            <feOffset dx="0" dy="0" in="shadowSpreadOuter1" result="shadowOffsetOuter1"></feOffset>
            <feGaussianBlur stdDeviation="17.5" in="shadowOffsetOuter1" result="shadowBlurOuter1"></feGaussianBlur>
            <feColorMatrix values="0 0 0 0 0   0 0 0 0 0   0 0 0 0 0  0 0 0 0.5 0" type="matrix" in="shadowBlurOuter1"></feColorMatrix>
        </filter>
    </defs>
    <g id="RO-Poșta-Română-text" stroke="none" stroke-width="1" fill="none" fill-rule="evenodd">
        <g transform="translate(40, 40)">
            <g id="Rectangle">
                <use fill="black" fill-opacity="1" filter="url(#filter-2)" xlink:href="#path-1"></use>
                <use fill="#CC0000" fill-rule="evenodd" xlink:href="#path-1"></use>
            </g>
            <g id="Logo" transform="translate(50.3814, 74.7032)">
                <g id="_88469632" stroke="#FFF500" stroke-width="0.2117">
                    <g id="Group">
                        <path d="M68.1243211,74.3525009 L66.4354042,80.2695501 L1.03738559e-14,282.051906 L52.9801325,282.051906 L79.4701987,194.634688 C194.811778,297.114336 349.893129,334.690985 449.338332,315.313992 C590.067393,287.894204 692.385858,243.246529 800,54.2373368 L593.377483,50.2638269 C590.560286,49.7732701 597.477137,90.0456459 583.788266,128.942127 C565.030309,182.242289 542.658584,212.58673 501.872292,232.493991 C574.586823,133.819663 535.940292,63.6887308 486.847238,27.8640699 C460.228693,8.44269325 429.494143,1.06098168 414.146723,0.206011287 C319.009075,-5.10368188 244.596283,93.2272571 274.237593,179.221861 C276.727753,186.444726 284.632725,200.056508 295.702956,212.061134 C317.768667,235.986289 347.746359,258.486493 339.780651,245.991311 C325.979654,224.348413 285.887149,181.380311 297.5624,135.260965 C322.753659,35.7106424 482.231333,55.0105478 482.002406,152.921009 C481.855239,214.647069 433.691907,261.378442 377.721714,272.71264 C311.851618,286.051112 245.068152,267.968255 191.160634,239.899063 C160.918976,224.154526 136.022052,209.606014 111.874978,187.993483 C108.137403,184.648353 175.631008,190.717242 220.201595,165.960476 C255.984209,146.088254 274.394104,99.2914733 243.612834,72.7032957 C198.712872,33.9189421 77.127206,55.2534902 14.3896656,64.7889796 L14.5812163,73.8082165 L68.1243211,74.3525009 Z" id="_88078360" fill="#FFF500"></path>
                        <path d="M663.396288,51.6116901 C634.911291,152.353365 563.068082,238.18445 469.703447,251.562634 C527.549435,216.167795 516.191878,227.553384 534.564397,210.629175 C550.799491,195.674201 562.544822,177.28533 569.300489,163.986569 C586.00278,131.114593 594.81645,101.900768 593.008398,50.5207852 L663.396288,51.6116901 L663.396288,51.6116901 Z" id="_88458752" fill="#0062A6"></path>
                        <path d="M517.056192,299.480688 C575.217539,264.688532 626.111637,231.874956 652.540967,201.049302 C696.592966,149.671655 698.340283,137.293272 728.507189,52.8637779 L800,54.2373368 C750.874242,131.236064 725.012556,174.332645 666.645643,223.217796 C630.44956,253.536541 573.089457,283.705784 517.056192,299.480688 L517.056192,299.480688 Z" id="_87362304" fill="#CC0000"></path>
                    </g>
                    <path d="M87.4032026,165.369472 L112.699581,72.3902738 C245.687188,50.0629322 261.693355,176.304216 87.4032026,165.369472 Z" id="_88459040" fill="#CC0000"></path>
                </g>
                <path d="M43.4890267,425.782708 L29.8048285,425.782708 L43.7202892,359.375335 L70.7172641,359.375335 C75.5107046,359.375335 79.3136877,359.947651 82.0958455,361.075932 C84.8943551,362.204213 87.1065326,364.075336 88.7440578,366.689303 C90.3675672,369.300934 91.1874978,372.424146 91.1874978,376.042586 C91.1874978,379.39706 90.5380941,382.66043 89.2392866,385.830362 C87.9404791,389.000293 86.3473376,391.534836 84.4621979,393.436328 C82.5747223,395.340155 80.5354077,396.793138 78.3699499,397.767243 C76.1904762,398.741349 73.2681594,399.498208 69.5726316,400.007453 C67.4398776,400.318139 63.419648,400.455962 57.5282946,400.455962 L48.7917119,400.455962 L43.4890267,425.782708 L43.4890267,425.782708 Z M51.0506091,389.448802 L55.2717334,389.448802 C62.4759102,389.448802 67.2997185,389.000293 69.7127907,388.086923 C72.1235269,387.189905 74.0413703,385.736922 75.4172653,383.741991 C76.8095121,381.749396 77.5032996,379.567587 77.5032996,377.170866 C77.5032996,375.580061 77.1482299,374.264901 76.4380906,373.244076 C75.7256152,372.209235 74.7374937,371.466392 73.4527022,371.001531 C72.1702466,370.522654 69.3086653,370.291392 64.8726304,370.291392 L55.0848546,370.291392 L51.0506091,389.448802 Z M96.0276581,399.72947 C96.0276581,395.819032 96.6303421,391.674995 97.8053424,387.330064 C99.3377483,381.501782 101.687749,376.444375 104.841328,372.146163 C107.994908,367.864303 111.984769,364.477126 116.77821,361.989302 C121.585666,359.48279 127.044863,358.247055 133.181494,358.247055 C141.39248,358.247055 148.024341,360.79795 153.081748,365.89974 C158.153171,371.001531 160.673698,377.775886 160.673698,386.185431 C160.673698,393.205065 159.033837,399.977085 155.740098,406.534194 C152.44636,413.088967 147.979957,418.130022 142.336218,421.655023 C136.676127,425.194039 130.291881,426.957708 123.162456,426.957708 C116.979105,426.957708 111.783875,425.551445 107.579102,422.752935 C103.388346,419.938074 100.419309,416.459793 98.6556408,412.299404 C96.9106603,408.157703 96.0276581,403.966947 96.0276581,399.72947 L96.0276581,399.72947 Z M109.527314,399.46784 C109.527314,404.027682 110.917224,407.847017 113.701718,410.923509 C116.483876,414.000001 120.132684,415.546423 124.662158,415.546423 C128.34367,415.546423 131.882687,414.324703 135.283881,411.897615 C138.68741,409.470527 141.48592,405.791351 143.712113,400.843735 C145.921955,395.910135 147.036219,391.102679 147.036219,386.416694 C147.036219,381.191096 145.627621,377.093779 142.829111,374.124742 C140.016585,371.14169 136.444865,369.65834 132.083582,369.65834 C125.421353,369.65834 119.992525,372.765199 115.804104,378.99527 C111.6297,385.211326 109.527314,392.030065 109.527314,399.46784 L109.527314,399.46784 Z M165.976383,404.261281 L178.978474,403.579173 C179.149001,407.72321 179.85914,410.52172 181.097212,411.960686 C183.092143,414.324703 186.787671,415.499703 192.151091,415.499703 C196.61983,415.499703 199.852833,414.696124 201.845428,413.105319 C203.840359,411.495825 204.847168,409.563966 204.847168,407.305069 C204.847168,405.342842 204.027238,403.672613 202.387376,402.313069 C201.242744,401.322612 198.089165,399.699103 192.940654,397.472909 C187.792144,395.230364 184.035881,393.375592 181.669528,391.87589 C179.303176,390.376188 177.432052,388.444328 176.072509,386.061624 C174.71063,383.664904 174.030858,380.882746 174.030858,377.682447 C174.030858,372.085428 176.056157,367.462514 180.106754,363.766986 C184.159688,360.08781 190.018337,358.247055 197.687375,358.247055 C205.48022,358.247055 211.509396,360.071459 215.777241,363.720267 C220.045085,367.385427 222.395085,372.239603 222.827242,378.315499 L209.731712,378.904167 C209.390658,375.734236 208.248362,373.290796 206.283799,371.606551 C204.319236,369.91997 201.429623,369.069672 197.593936,369.069672 C193.821321,369.069672 191.11625,369.735427 189.509093,371.064602 C187.885583,372.393778 187.079669,374.064007 187.079669,376.089305 C187.079669,377.990797 187.822512,379.567587 189.308198,380.805659 C190.775197,382.074098 194.054919,383.805063 199.126342,386.014904 C206.779028,389.308643 211.633204,391.969329 213.721574,394.024996 C216.828434,397.054768 218.391207,400.937174 218.391207,405.667543 C218.391207,411.526193 216.071575,416.53688 211.432309,420.680917 C206.793043,424.83897 200.345726,426.910988 192.059988,426.910988 C186.353178,426.910988 181.405562,425.953234 177.231157,424.035391 C173.042737,422.117548 170.087716,419.459197 168.373103,416.041651 C166.656155,412.624106 165.852576,408.713667 165.976383,404.261281 L165.976383,404.261281 Z M184.126984,430.713971 L198.089165,430.713971 L196.729621,437.331816 C194.905217,446.005327 189.476389,450.614225 180.41744,451.200557 L181.870423,444.136539 C185.519231,443.671678 187.560882,441.971081 187.976687,439.002045 L182.412371,439.002045 L184.126984,430.713971 Z M254.664377,425.782708 L240.980179,425.782708 L252.576007,370.475934 L233.110247,370.475934 L235.413528,359.375335 L287.737248,359.375335 L285.431632,370.475934 L266.213486,370.475934 L254.664377,425.782708 Z M319.046451,411.110388 L292.715232,411.110388 L284.75186,425.782708 L270.714928,425.782708 L308.254202,359.375335 L323.438102,359.375335 L334.214,425.782708 L321.258629,425.782708 L319.046451,411.110388 Z M317.362206,400.054172 L313.510167,373.321164 L297.478305,400.054172 L317.362206,400.054172 L317.362206,400.054172 Z M378.819627,425.782708 L365.151781,425.782708 L379.053225,359.375335 L408.538024,359.375335 C413.609447,359.375335 417.566605,359.900932 420.381466,360.938109 C423.210344,361.989302 425.499609,363.890794 427.230573,366.672951 C428.961538,369.441093 429.828188,372.811919 429.828188,376.769077 C429.828188,382.412816 428.143943,387.082449 424.756766,390.747609 C421.369588,394.410433 416.253781,396.683346 409.402338,397.566349 C411.149655,399.126786 412.805868,401.198805 414.335938,403.766052 C417.396078,408.961282 420.783256,416.305618 424.539519,425.782708 L409.850847,425.782708 C408.675847,422.04046 406.372566,416.195826 402.924653,408.248807 C401.053529,403.966947 399.058598,401.074998 396.942196,399.605663 C395.643389,398.724997 393.384491,398.29284 390.153825,398.29284 L384.587173,398.29284 L378.819627,425.782708 Z M386.659192,388.320521 L393.910088,388.320521 C401.254424,388.320521 406.124952,387.886028 408.521672,387.005362 C410.918392,386.138712 412.805868,384.762817 414.165411,382.891693 C415.510938,381.006553 416.19071,379.058342 416.19071,377.002676 C416.19071,374.573251 415.216604,372.765199 413.254377,371.559831 C412.046673,370.83334 409.435042,370.475934 405.414812,370.475934 L390.385087,370.475934 L386.659192,388.320521 Z M436.165715,399.72947 C436.165715,395.819032 436.768399,391.674995 437.943399,387.330064 C439.475805,381.501782 441.825806,376.444375 444.979385,372.146163 C448.132964,367.864303 452.122826,364.477126 456.916267,361.989302 C461.723723,359.48279 467.182919,358.247055 473.319551,358.247055 C481.530537,358.247055 488.162398,360.79795 493.219804,365.89974 C498.291227,371.001531 500.811755,377.775886 500.811755,386.185431 C500.811755,393.205065 499.171893,399.977085 495.878155,406.534194 C492.584417,413.088967 488.118014,418.130022 482.474275,421.655023 C476.814184,425.194039 470.429938,426.957708 463.300513,426.957708 C457.117161,426.957708 451.921931,425.551445 447.717159,422.752935 C443.526402,419.938074 440.557366,416.459793 438.793698,412.299404 C437.048717,408.157703 436.165715,403.966947 436.165715,399.72947 L436.165715,399.72947 Z M449.66537,399.46784 C449.66537,404.027682 451.055281,407.847017 453.839775,410.923509 C456.621933,414.000001 460.270741,415.546423 464.800215,415.546423 C468.481727,415.546423 472.020744,414.324703 475.421937,411.897615 C478.825467,409.470527 481.623977,405.791351 483.85017,400.843735 C486.060011,395.910135 487.174276,391.102679 487.174276,386.416694 C487.174276,381.191096 485.765677,377.093779 482.967168,374.124742 C480.154642,371.14169 476.582922,369.65834 472.221638,369.65834 C465.55941,369.65834 460.130582,372.765199 455.942161,378.99527 C451.767756,385.211326 449.66537,392.030065 449.66537,399.46784 L449.66537,399.46784 Z M542.217083,425.782708 L529.259376,425.782708 L526.862656,370.291392 L516.304005,425.782708 L503.97935,425.782708 L517.848091,359.375335 L537.316187,359.375335 L539.355502,405.898806 L562.007545,359.375335 L581.72092,359.375335 L567.805459,425.782708 L555.342981,425.782708 L568.438511,370.693181 L542.217083,425.782708 L542.217083,425.782708 Z M624.796477,411.110388 L598.465258,411.110388 L590.501886,425.782708 L576.464954,425.782708 L614.004228,359.375335 L629.188129,359.375335 L639.964026,425.782708 L627.008655,425.782708 L624.796477,411.110388 Z M623.112232,400.054172 L619.260194,373.321164 L603.228331,400.054172 L623.112232,400.054172 Z M623.296775,347.377718 L615.319388,355.432193 L604.634594,355.432193 L618.085193,341.794714 L630.22297,341.794714 L635.759253,355.432193 L626.791408,355.432193 L623.296775,347.377718 Z M701.391079,425.782708 L688.650618,425.782708 L670.717264,381.160728 L661.392013,425.782708 L648.667905,425.782708 L662.52263,359.375335 L675.293458,359.375335 L693.273532,403.812772 L702.566079,359.375335 L715.245804,359.375335 L701.391079,425.782708 L701.391079,425.782708 Z M758.783886,411.110388 L732.452667,411.110388 L724.489295,425.782708 L710.452363,425.782708 L747.991637,359.375335 L763.175538,359.375335 L773.951435,425.782708 L760.996064,425.782708 L758.783886,411.110388 L758.783886,411.110388 Z M757.099641,400.054172 L753.247603,373.321164 L737.21574,400.054172 L757.099641,400.054172 L757.099641,400.054172 Z M741.605055,343.387856 L747.898198,343.387856 C748.594321,345.831296 749.521707,347.531893 750.682692,348.505998 C751.84134,349.463752 753.327026,349.944965 755.104711,349.944965 C758.690447,349.944965 761.675835,347.763155 764.025836,343.387856 L770.008293,343.387856 C768.772557,347.548245 766.761274,350.778912 763.979116,353.082192 C761.196959,355.371457 758.104115,356.51609 754.702921,356.51609 C751.161568,356.51609 748.255603,355.418177 745.949987,353.236367 C743.663058,351.042878 742.210075,347.763155 741.605055,343.387856 L741.605055,343.387856 Z" id="Shape" fill="#FFFFFF" fill-rule="nonzero"></path>
            </g>
        </g>
    </g>
</svg>