<?xml version="1.0" encoding="UTF-8"?>
<svg width="980px" height="680px" viewBox="0 0 980 680" version="1.1" xmlns="http://www.w3.org/2000/svg" xmlns:xlink="http://www.w3.org/1999/xlink">
    <title>RO Poșta Română alt</title>
    <defs>
        <linearGradient x1="50%" y1="0%" x2="50%" y2="100%" id="linearGradient-1">
            <stop stop-color="#FFFFFF" offset="0%"></stop>
            <stop stop-color="#EDEDED" offset="100%"></stop>
        </linearGradient>
        <rect id="path-2" x="0" y="0" width="900" height="600" rx="80"></rect>
        <filter x="-6.7%" y="-10.0%" width="113.3%" height="120.0%" filterUnits="objectBoundingBox" id="filter-3">
            <feMorphology radius="2.5" operator="dilate" in="SourceAlpha" result="shadowSpreadOuter1"></feMorphology>
            <feOffset dx="0" dy="0" in="shadowSpreadOuter1" result="shadowOffsetOuter1"></feOffset>
            <feGaussianBlur stdDeviation="17.5" in="shadowOffsetOuter1" result="shadowBlurOuter1"></feGaussianBlur>
            <feColorMatrix values="0 0 0 0 0   0 0 0 0 0   0 0 0 0 0  0 0 0 0.5 0" type="matrix" in="shadowBlurOuter1"></feColorMatrix>
        </filter>
    </defs>
    <g id="RO-Poșta-Română-alt" stroke="none" stroke-width="1" fill="none" fill-rule="evenodd">
        <g transform="translate(40, 40)">
            <g id="Rectangle">
                <use fill="black" fill-opacity="1" filter="url(#filter-3)" xlink:href="#path-2"></use>
                <use fill="url(#linearGradient-1)" fill-rule="evenodd" xlink:href="#path-2"></use>
            </g>
            <g id="Logo" transform="translate(50.3814, 139.7032)" stroke="#FFF500" stroke-width="0.2117">
                <g id="_88469632" transform="translate(0, 0)">
                    <g id="Group" transform="translate(0, 0)">
                        <path d="M274.237593,179.221861 C244.596283,93.2272571 319.009075,-5.10368188 414.146723,0.206011287 L414.611742,0.233623934 L414.611742,0.233623934 L415.56901,0.300729673 L415.56901,0.300729673 L416.561802,0.383896521 C417.40367,0.459967862 418.281569,0.553045171 419.19306,0.663817564 L420.302817,0.80528218 C420.865601,0.880305411 421.440128,0.961798105 422.02587,1.04990911 L423.212152,1.23499964 L423.212152,1.23499964 L424.427406,1.43800363 C424.632311,1.47334511 424.838384,1.50944402 425.045605,1.54630586 L426.302562,1.77667618 C426.726038,1.85654742 427.153953,1.93951449 427.58615,2.02562151 L428.895433,2.29340645 C429.115736,2.33962195 429.337071,2.38663345 429.559418,2.43444648 L430.905489,2.73098703 C431.131807,2.7820282 431.359097,2.83388192 431.587341,2.8865537 L432.968094,3.21244524 C433.200074,3.26841132 433.432969,3.32520649 433.66676,3.38283626 L435.080087,3.73867419 L435.080087,3.73867419 L436.513961,4.11480716 C437.235879,4.3079915 437.96515,4.50888572 438.701249,4.71763865 L440.182393,5.14566692 C454.585102,9.38541631 471.408482,16.5996714 486.847238,27.8640699 C535.940292,63.6887308 574.586823,133.819663 501.872292,232.493991 C542.658584,212.58673 565.030309,182.242289 583.788266,128.942127 C589.811369,111.827675 591.845205,94.4468504 592.474235,80.3892062 L592.551547,78.49319 C592.563062,78.1807327 592.573912,77.8700762 592.584128,77.5612627 L592.638048,75.7308337 L592.638048,75.7308337 L592.678194,73.9466579 L592.678194,73.9466579 L592.706023,72.2107578 L592.706023,72.2107578 L592.72299,70.5251561 L592.72299,70.5251561 L592.730551,68.8918756 L592.730551,68.8918756 L592.730164,67.3129388 L592.730164,67.3129388 L592.723284,65.7903685 L592.723284,65.7903685 L592.711367,64.3261873 L592.711367,64.3261873 L592.6691,60.9344602 L592.6691,60.9344602 L592.620883,57.4072833 L592.620883,57.4072833 L592.611728,56.3719336 L592.611728,56.3719336 L592.608459,55.410143 L592.608459,55.410143 L592.612533,54.5239341 C592.613904,54.3826435 592.615643,54.2445864 592.617778,54.1098049 L592.635595,53.3407611 C592.697106,51.3965966 592.875769,50.312575 593.295857,50.2612969 L800,54.2373368 C692.385858,243.246529 590.067393,287.894204 449.338332,315.313992 C350.887581,334.497215 197.907841,297.860173 82.9422726,197.689614 L79.4701987,194.634688 L52.9801325,282.051906 L2.84217094e-13,282.051906 L66.4354042,80.2695501 L68.1243211,74.3525009 L14.5812163,73.8082165 L14.3896656,64.7889796 L18.2234515,64.2032667 L18.2234515,64.2032667 L30.507166,62.3107422 L30.507166,62.3107422 L37.0488454,61.3096851 L37.0488454,61.3096851 L41.5431385,60.6299302 L41.5431385,60.6299302 L46.1363806,59.944296 C111.877478,50.205801 205.447867,39.7365952 243.612834,72.7032957 C274.394104,99.2914733 255.984209,146.088254 220.201595,165.960476 C195.242066,179.824265 163.093879,184.021128 140.292017,185.617797 L137.885478,185.779241 C137.490599,185.804597 137.09889,185.829205 136.710443,185.853104 L134.41967,185.988321 C134.044651,186.009547 133.673083,186.030146 133.30506,186.050157 L131.140221,186.163491 L131.140221,186.163491 L128.062386,186.311271 L128.062386,186.311271 L125.201416,186.43818 L125.201416,186.43818 L120.191084,186.655459 L120.191084,186.655459 L118.072229,186.758866 L118.072229,186.758866 L116.813093,186.830294 C113.026145,187.06218 111.164839,187.357909 111.874978,187.993483 C132.363404,206.331388 153.391668,219.583718 177.766538,232.796095 L180.391065,234.211784 L180.391065,234.211784 L183.041971,235.628546 L183.041971,235.628546 L185.720023,237.04776 L185.720023,237.04776 L188.425988,238.470806 L188.425988,238.470806 L191.160634,239.899063 L191.160634,239.899063 C245.068152,267.968255 311.851618,286.051112 377.721714,272.71264 C433.691907,261.378442 481.855239,214.647069 482.002406,152.921009 C482.231333,55.0105478 322.753659,35.7106424 297.5624,135.260965 C289.389724,167.544507 306.583249,198.28394 322.368646,221.245595 L323.717608,223.194543 L323.717608,223.194543 L325.055925,225.104525 L325.055925,225.104525 L326.379852,226.974666 L326.379852,226.974666 L327.685641,228.804095 L327.685641,228.804095 L330.22782,232.337327 L330.22782,232.337327 L333.236779,236.509321 L333.236779,236.509321 L334.375837,238.099239 L334.375837,238.099239 L335.472403,239.642775 C335.651415,239.896117 335.8285,240.14749 336.003581,240.396877 L337.029384,241.869203 C338.029882,243.317392 338.952591,244.692737 339.780651,245.991311 C343.683848,252.11395 338.476835,249.834197 329.554451,243.10158 L328.443711,242.255191 L328.443711,242.255191 L327.298035,241.365904 C326.523094,240.759104 325.72633,240.12478 324.910675,239.465079 L323.673394,238.456764 C323.256489,238.114494 322.835229,237.766148 322.40998,237.411995 L321.122633,236.332385 C320.906204,236.149636 320.688868,235.965503 320.470674,235.780018 L319.151557,234.651166 C318.930107,234.460412 318.707889,234.268374 318.484949,234.075085 L317.139014,232.900618 L317.139014,232.900618 L315.777951,231.697754 L315.777951,231.697754 L314.403961,230.468106 L314.403961,230.468106 L313.019246,229.213283 C312.787688,229.002138 312.555776,228.790011 312.323554,228.576936 L310.926877,227.287375 L310.926877,227.287375 L309.524978,225.976669 C307.887237,224.435804 306.243328,222.855058 304.608977,221.245945 L303.210812,219.860027 L303.210812,219.860027 L301.819531,218.461826 C299.738871,216.356119 297.68887,214.214397 295.702956,212.061134 C291.470221,207.47113 287.700226,202.64617 284.518718,198.033215 L283.795027,196.972653 C282.963043,195.740197 282.174416,194.525601 281.431601,193.337586 L280.806178,192.326001 C280.70383,192.158556 280.602431,191.991705 280.501989,191.825472 L279.910868,190.835705 L279.910868,190.835705 L279.343044,189.86201 C279.250367,189.701135 279.158675,189.54098 279.067975,189.381571 L278.53574,188.434271 L278.53574,188.434271 L278.02766,187.506094 C277.945012,187.35306 277.863385,187.200873 277.782786,187.049559 L277.311583,186.152355 L277.311583,186.152355 L276.865395,185.277327 C276.793133,185.133404 276.721929,184.990457 276.651788,184.848509 L276.243764,184.009031 L276.243764,184.009031 L275.861612,183.194779 C275.677061,182.794163 275.502342,182.403465 275.337646,182.023371 L275.021678,181.277525 C274.71919,180.546225 274.457313,179.859173 274.237593,179.221861 Z M87.4032026,165.369472 C259.950454,176.194869 245.988282,52.5740403 116.654041,71.7647384 L112.699581,72.3902738 L87.4032026,165.369472 Z" id="Shape" fill="#FFF500"></path>
                        <path d="M663.396288,51.6116901 C634.911291,152.353365 563.068082,238.18445 469.703447,251.562634 C527.549435,216.167795 516.191878,227.553384 534.564397,210.629175 C550.799491,195.674201 562.544822,177.28533 569.300489,163.986569 C586.00278,131.114593 594.81645,101.900768 593.008398,50.5207852 L663.396288,51.6116901 L663.396288,51.6116901 Z" id="_88458752" fill="#0062A6"></path>
                        <path d="M517.056192,299.480688 C575.217539,264.688532 626.111637,231.874956 652.540967,201.049302 C696.592966,149.671655 698.340283,137.293272 728.507189,52.8637779 L800,54.2373368 C750.874242,131.236064 725.012556,174.332645 666.645643,223.217796 C630.44956,253.536541 573.089457,283.705784 517.056192,299.480688 L517.056192,299.480688 Z" id="_87362304" fill="#CC0000"></path>
                    </g>
                </g>
            </g>
        </g>
    </g>
</svg>