<?xml version="1.0" encoding="UTF-8"?>
<svg width="980px" height="680px" viewBox="0 0 980 680" version="1.1" xmlns="http://www.w3.org/2000/svg" xmlns:xlink="http://www.w3.org/1999/xlink">
    <title>RS Pošta Srbije text alt</title>
    <defs>
        <rect id="path-1" x="0" y="0" width="900" height="600" rx="80"></rect>
        <filter x="-6.7%" y="-10.0%" width="113.3%" height="120.0%" filterUnits="objectBoundingBox" id="filter-2">
            <feMorphology radius="2.5" operator="dilate" in="SourceAlpha" result="shadowSpreadOuter1"></feMorphology>
            <feOffset dx="0" dy="0" in="shadowSpreadOuter1" result="shadowOffsetOuter1"></feOffset>
            <feGaussianBlur stdDeviation="17.5" in="shadowOffsetOuter1" result="shadowBlurOuter1"></feGaussianBlur>
            <feColorMatrix values="0 0 0 0 0   0 0 0 0 0   0 0 0 0 0  0 0 0 0.5 0" type="matrix" in="shadowBlurOuter1"></feColorMatrix>
        </filter>
    </defs>
    <g id="RS-Pošta-Srbije-text-alt" stroke="none" stroke-width="1" fill="none" fill-rule="evenodd">
        <g transform="translate(40, 40)">
            <g id="Rectangle">
                <use fill="black" fill-opacity="1" filter="url(#filter-2)" xlink:href="#path-1"></use>
                <use fill="#005397" fill-rule="evenodd" xlink:href="#path-1"></use>
            </g>
            <g id="Logo" transform="translate(50, 244)">
                <path d="M168.838755,0 C169.579554,0 169.949954,0 170.690754,0.740799584 L172.542752,2.22239875 C173.283552,2.96319834 172.913152,3.33359813 172.913152,4.07439771 L166.986756,13.7047923 L141.42917,20.7423883 L221.805925,20.7423883 C222.917124,20.7423883 223.287524,20.7423883 223.657924,21.4831879 L225.509923,23.3351869 C225.880323,23.7055867 225.880323,24.0759865 225.509923,24.8167861 L219.583526,34.4471806 L191.803542,41.8551765 L274.032295,41.8551765 C274.773095,41.8551765 275.143495,41.8551765 275.513895,42.2255763 L277.365894,44.0775752 C277.736293,44.447975 277.736293,45.1887746 277.736293,45.5591744 L272.921096,53.33757 L189.210743,76.3023571 L34.3836301,14.8159917 C29.5684328,12.9639927 29.9388326,12.2231931 31.050032,10.0007944 L36.2356291,1.11119938 C36.9764286,0.740799584 36.9764286,0 38.4580278,0 L168.838755,0 Z" id="Path" fill="#FFFFFF"></path>
                <path d="M259.216304,67.0423623 C259.957103,67.0423623 260.327503,66.6719625 261.068303,67.4127621 L263.290702,69.6351609 C264.031501,70.3759605 264.031501,70.7463603 263.661101,71.4871598 L240.696314,110.008738 L109.204388,110.008738 C108.463588,110.008738 108.093189,110.008738 107.352389,109.267939 L105.50039,107.41594 C104.759591,106.67514 105.12999,106.30474 105.87079,105.563941 L115.501185,89.2663499 L56.6076176,89.2663499 C56.2372178,89.2663499 55.1260184,89.2663499 54.7556186,88.8959501 L52.9036197,87.0439511 C52.1628201,86.3031515 52.5332199,85.5623519 53.2740195,84.4511526 L62.9044141,68.5239615 L4.01084715,68.5239615 C3.27004757,68.5239615 2.89964778,68.5239615 2.15884819,67.7831619 L0.306849235,65.931163 C-0.433950349,65.1903634 0.306849235,64.079164 1.04764882,62.9679646 L24.7532355,23.7055867 C25.1236353,22.9647871 26.2348347,22.5943873 26.9756343,22.9647871 L188.099544,86.3031515 L259.216304,67.0423623 Z" id="Path" fill="#FBB900"></path>
                <path d="M400.709024,98.8967444 C398.486626,89.6367496 401.079424,78.8951557 408.85782,66.3015628 C416.636215,54.0783696 427.00741,43.3367757 440.712202,34.0767809 C454.416994,24.8167861 468.862586,20.0015888 484.419377,20.0015888 L485.530577,20.0015888 C501.087368,20.0015888 509.606563,24.8167861 511.828962,34.0767809 C514.051361,43.3367757 511.088162,54.0783696 503.680166,66.3015628 C495.901771,78.5247559 485.530577,89.2663499 471.825784,98.5263447 C458.120992,107.786339 443.6754,112.601537 428.118609,112.601537 L426.63701,112.601537 C411.821018,112.971937 403.301823,108.156739 400.709024,98.8967444 M443.305,91.8591484 L446.638599,91.1183488 C451.453796,90.0071494 456.639393,87.7847507 462.19539,83.710353 C467.751387,80.0063551 472.936984,74.0799584 477.752181,66.6719625 C482.567378,59.2639667 484.419377,53.7079698 483.308178,49.6335721 C482.196979,45.9295742 480.34498,43.3367757 477.011381,42.2255763 L474.788983,41.4847767 L472.566584,41.1143769 L469.603386,41.4847767 L466.269787,42.2255763 C461.82499,43.3367757 457.009793,45.9295742 451.453796,49.6335721 C445.527399,53.7079698 440.341802,59.2639667 435.897005,66.6719625 C431.081807,74.0799584 429.229808,79.6359553 430.341008,83.3399532 C431.081807,87.0439511 433.304206,89.6367496 436.267404,90.747949 L438.489803,91.4887486 L441.082602,91.8591484 L443.305,91.8591484 Z" id="Shape" fill="#FBB900"></path>
                <polygon id="Path" fill="#FBB900" points="369.225042 110.008738 344.408256 110.008738 384.411433 42.9663759 355.52025 42.9663759 315.146672 110.008738 290.329886 110.008738 342.926657 22.5943873 421.821812 22.5943873"></polygon>
                <polygon id="Path" fill="#FBB900" points="569.611329 22.5943873 529.237752 90.0071494 549.98014 90.0071494 590.353718 22.5943873 615.170504 22.5943873 574.796927 90.0071494 595.909715 90.0071494 636.283292 22.5943873 661.470478 22.5943873 608.873707 110.008738 492.197773 110.008738 544.794543 22.5943873"></polygon>
                <polygon id="Path" fill="#FBB900" points="739.624834 22.5943873 727.031241 42.9663759 709.252051 42.9663759 668.878474 110.008738 644.061688 110.008738 684.064865 42.9663759 662.581677 42.9663759 675.17527 22.5943873"></polygon>
                <path d="M777.776012,110.008738 L755.552025,110.008738 L759.626423,94.4519469 L724.808842,94.4519469 L710.73365,110.008738 L684.435265,110.008738 L769.256817,22.2239875 L800,22.2239875 L777.776012,110.008738 Z M764.81202,74.4503582 L772.220016,45.9295742 L744.440031,74.4503582 L764.81202,74.4503582 Z" id="Shape" fill="#FBB900"></path>
            </g>
        </g>
    </g>
</svg>