<?xml version="1.0" encoding="UTF-8"?>
<svg width="980px" height="680px" viewBox="0 0 980 680" version="1.1" xmlns="http://www.w3.org/2000/svg" xmlns:xlink="http://www.w3.org/1999/xlink">
    <title>RS Pošta Srbije alt</title>
    <defs>
        <rect id="path-1" x="0" y="0" width="900" height="600" rx="80"></rect>
        <filter x="-6.7%" y="-10.0%" width="113.3%" height="120.0%" filterUnits="objectBoundingBox" id="filter-2">
            <feMorphology radius="2.5" operator="dilate" in="SourceAlpha" result="shadowSpreadOuter1"></feMorphology>
            <feOffset dx="0" dy="0" in="shadowSpreadOuter1" result="shadowOffsetOuter1"></feOffset>
            <feGaussianBlur stdDeviation="17.5" in="shadowOffsetOuter1" result="shadowBlurOuter1"></feGaussianBlur>
            <feColorMatrix values="0 0 0 0 0   0 0 0 0 0   0 0 0 0 0  0 0 0 0.5 0" type="matrix" in="shadowBlurOuter1"></feColorMatrix>
        </filter>
    </defs>
    <g id="RS-Pošta-Srbije-alt" stroke="none" stroke-width="1" fill="none" fill-rule="evenodd">
        <g transform="translate(40, 40)">
            <g id="Rectangle">
                <use fill="black" fill-opacity="1" filter="url(#filter-2)" xlink:href="#path-1"></use>
                <use fill="#005397" fill-rule="evenodd" xlink:href="#path-1"></use>
            </g>
            <g id="Logo" transform="translate(50, 142)">
                <path d="M486.328243,0 C488.462065,0 489.528975,0 491.662797,2.13382147 L496.997351,6.40146442 C499.131172,8.5352859 498.064261,9.60219664 498.064261,11.7360181 L480.99369,39.4756973 L407.376849,59.7470013 L638.896479,59.7470013 C642.097211,59.7470013 643.164122,59.7470013 644.231032,61.8808228 L649.565586,67.2153764 C650.632497,68.2822872 650.632497,69.3491979 649.565586,71.4830194 L632.495014,99.2226986 L552.476709,120.560913 L789.330893,120.560913 C791.464714,120.560913 792.531625,120.560913 793.598536,121.627824 L798.933089,126.962378 C800,128.029288 800,130.16311 800,131.230021 L786.13016,153.635146 L545.008334,219.783612 L99.0396456,42.6764295 C85.169806,37.3418758 86.2367168,35.2080543 89.437449,28.8065899 L104.374199,3.20073221 C106.508021,2.13382147 106.508021,0 110.775664,0 L486.328243,0 Z" id="Path" fill="#FFFFFF"></path>
                <path d="M746.654463,193.110843 C748.788285,193.110843 749.855195,192.043933 751.989017,194.177754 L758.390481,200.579219 C760.524303,202.71304 760.524303,203.779951 759.457392,205.913772 L693.308926,316.872489 L314.555615,316.872489 C312.421793,316.872489 311.354882,316.872489 309.221061,314.738667 L303.886507,309.404114 C301.752686,307.270292 302.819596,306.203382 304.953418,304.06956 L332.693097,257.125488 L163.05429,257.125488 C161.987379,257.125488 158.786647,257.125488 157.719736,256.058577 L152.385182,250.724023 C150.251361,248.590202 151.318272,246.45638 153.452093,243.255648 L181.191772,197.378486 L11.5529652,197.378486 C9.41914369,197.378486 8.35223296,197.378486 6.21841148,195.244665 L0.883857794,189.910111 C-1.24996368,187.77629 0.883857794,184.575558 3.01767927,181.374825 L71.2999665,68.2822872 C72.3668772,66.1484657 75.5676094,65.081555 77.7014309,66.1484657 L541.807602,248.590202 L746.654463,193.110843 Z" id="Path" fill="#FBB900"></path>
            </g>
        </g>
    </g>
</svg>