<?xml version="1.0" encoding="UTF-8"?>
<svg width="980px" height="680px" viewBox="0 0 980 680" version="1.1" xmlns="http://www.w3.org/2000/svg" xmlns:xlink="http://www.w3.org/1999/xlink">
    <title>SA Saudi Post</title>
    <defs>
        <linearGradient x1="50%" y1="0%" x2="50%" y2="100%" id="linearGradient-1">
            <stop stop-color="#FFFFFF" offset="0%"></stop>
            <stop stop-color="#EDEDED" offset="100%"></stop>
        </linearGradient>
        <rect id="path-2" x="0" y="0" width="900" height="600" rx="80"></rect>
        <filter x="-6.7%" y="-10.0%" width="113.3%" height="120.0%" filterUnits="objectBoundingBox" id="filter-3">
            <feMorphology radius="2.5" operator="dilate" in="SourceAlpha" result="shadowSpreadOuter1"></feMorphology>
            <feOffset dx="0" dy="0" in="shadowSpreadOuter1" result="shadowOffsetOuter1"></feOffset>
            <feGaussianBlur stdDeviation="17.5" in="shadowOffsetOuter1" result="shadowBlurOuter1"></feGaussianBlur>
            <feColorMatrix values="0 0 0 0 0   0 0 0 0 0   0 0 0 0 0  0 0 0 0.5 0" type="matrix" in="shadowBlurOuter1"></feColorMatrix>
        </filter>
    </defs>
    <g id="SA-Saudi-Post" stroke="none" stroke-width="1" fill="none" fill-rule="evenodd">
        <g transform="translate(40, 40)">
            <g id="Rectangle">
                <use fill="black" fill-opacity="1" filter="url(#filter-3)" xlink:href="#path-2"></use>
                <use fill="url(#linearGradient-1)" fill-rule="evenodd" xlink:href="#path-2"></use>
            </g>
            <g id="Logo" transform="translate(50, 71)" fill-rule="nonzero">
                <path d="M133.609565,390.797687 C77.8648901,390.797687 50.5666816,362.892852 50.5666816,307.765636 L50.5666816,255.44407 L101.209191,286.197885 L101.209191,309.813002 C101.209191,333.243964 112.215136,344.163248 135.548605,344.163248 L137.715129,344.163248 C161.135259,344.163248 172.065375,333.157303 172.065375,309.813002 L172.065375,270.815561 C172.065375,248.067054 165.565801,237.234431 149.392696,227.376745 L94.1463216,193.795615 C60.0018957,173.2028 50.6533425,146.532884 50.6533425,109.593641 L50.6533425,84.2561374 C50.6533425,27.8723375 78.5040148,0 134.90948,0 L140.845757,0 C196.590432,0 223.888641,27.8723375 223.888641,83.0428836 L223.888641,115.854897 L173.343624,85.1335798 L173.343624,81.082179 C173.343624,57.6512166 162.316015,46.7319332 138.982546,46.7319332 L136.816021,46.7319332 C113.385059,46.7319332 102.465776,57.7378776 102.465776,81.082179 L102.465776,109.00868 C100.5353,126.933193 109.846497,144.194653 125.885905,152.42583 L180.438992,185.335337 C215.634182,206.556445 223.769482,230.637364 223.769482,269.537312 L223.769482,306.563215 C223.769482,362.892852 195.897144,390.819352 139.513344,390.819352 L133.609565,390.797687 Z M487.727993,319.746517 L487.727993,3.86724621 L539.572924,3.86724621 L539.572924,267.901586 L562.375594,267.901586 L562.375594,319.746517 L487.727993,319.746517 Z M614.24219,319.746517 L614.24219,267.87992 L800,267.87992 L768.509567,319.724851 L614.24219,319.746517 Z M327.535172,319.746517 L275.690241,319.746517 L275.690241,3.96473981 L379.358438,3.96473981 C396.235664,3.96473981 427.541943,15.4148217 437.789603,58.3228392 L437.843767,58.5611569 C437.995423,59.1569512 438.14708,59.7852433 438.287904,60.4568659 C438.721209,62.4284031 439.143681,64.6382581 439.490325,66.8481131 L439.641982,67.9313753 C439.728643,68.5596674 439.826136,69.2096248 439.912797,69.8379169 C440.216111,72.3402527 440.465261,74.799258 440.649416,77.1391044 L440.649416,79.3056289 C440.855236,82.7504028 440.941897,85.5993825 440.941897,88.2425424 L440.941897,133.089599 C440.941897,135.743592 440.855236,138.592572 440.649416,142.026513 L440.649416,144.193037 C440.443596,146.673708 440.205278,149.132713 439.912797,151.47256 C439.826136,152.111684 439.728643,152.750809 439.641982,153.379101 L439.490325,154.462363 C439.143681,156.683051 438.753707,158.795412 438.331235,160.961937 C438.266239,161.26525 438.19041,161.568564 438.114582,161.88271 L438.038754,162.240186 L437.832934,163.095963 C427.585273,205.993148 396.289827,217.44323 379.401768,217.44323 L327.546005,217.44323 L327.546005,319.84401 L327.546005,319.84401 L327.535172,319.746517 Z M327.535172,170.667967 L354.844213,170.667967 C364.271798,171.473829 373.624775,168.434306 380.777511,162.240186 C386.97261,155.096581 390.012683,145.749725 389.205292,136.328553 L389.205292,84.9169273 C389.205292,61.4751324 378.286008,50.5558489 354.833381,50.5558489 L327.52434,50.5558489 L327.535172,170.667967 Z" id="Shape" fill="#00C8E1"></path>
                <path d="M318.27328,423.208894 L353.392642,388.100364 L388.522837,423.208894 L353.392642,458.349921 L318.27328,423.208894 Z M133.522904,437.399629 C52.3540643,437.399629 0,393.484178 0,307.765636 L0,224.722753 L50.5666816,255.44407 L50.5666816,307.830632 C50.5666816,363.001178 77.8648901,390.873516 133.609565,390.873516 L139.545842,390.873516 C195.875479,390.873516 223.80198,363.001178 223.80198,306.606546 L223.80198,115.854897 L275.690241,147.269502 L275.690241,319.735684 L327.513507,319.735684 L327.513507,217.334904 L379.358438,217.334904 L379.358438,319.735684 L435.872229,319.735684 L435.872229,238.122707 L487.71716,238.122707 L487.71716,319.735684 L562.364761,319.735684 L562.364761,238.122707 L614.209692,238.122707 L614.209692,319.735684 L631.693545,319.735684 L712.418248,319.649023 C701.76978,350.846976 675.641494,366.315961 633.632585,366.315961 L264.608468,366.315961 C246.247173,408.465694 204.779895,437.399629 139.470014,437.399629 L133.522904,437.399629 Z M666.076289,267.890753 L666.076289,217.334904 L717.92122,185.822805 L717.92122,267.87992 L666.076289,267.890753 Z" id="Shape-2" fill="#153C3F"></path>
            </g>
        </g>
    </g>
</svg>