<?xml version="1.0" encoding="UTF-8"?>
<svg width="980px" height="680px" viewBox="0 0 980 680" version="1.1" xmlns="http://www.w3.org/2000/svg" xmlns:xlink="http://www.w3.org/1999/xlink">
    <title>SG Singapore Post</title>
    <defs>
        <linearGradient x1="50%" y1="0%" x2="50%" y2="100%" id="linearGradient-1">
            <stop stop-color="#FFFFFF" offset="0%"></stop>
            <stop stop-color="#EDEDED" offset="100%"></stop>
        </linearGradient>
        <rect id="path-2" x="0" y="0" width="900" height="600" rx="80"></rect>
        <filter x="-6.7%" y="-10.0%" width="113.3%" height="120.0%" filterUnits="objectBoundingBox" id="filter-3">
            <feMorphology radius="2.5" operator="dilate" in="SourceAlpha" result="shadowSpreadOuter1"></feMorphology>
            <feOffset dx="0" dy="0" in="shadowSpreadOuter1" result="shadowOffsetOuter1"></feOffset>
            <feGaussianBlur stdDeviation="17.5" in="shadowOffsetOuter1" result="shadowBlurOuter1"></feGaussianBlur>
            <feColorMatrix values="0 0 0 0 0   0 0 0 0 0   0 0 0 0 0  0 0 0 0.5 0" type="matrix" in="shadowBlurOuter1"></feColorMatrix>
        </filter>
        <polygon id="path-4" points="0 0 800 0 800 254.485826 0 254.485826"></polygon>
    </defs>
    <g id="SG-Singapore-Post" stroke="none" stroke-width="1" fill="none" fill-rule="evenodd">
        <g transform="translate(40, 40)">
            <g id="Rectangle">
                <use fill="black" fill-opacity="1" filter="url(#filter-3)" xlink:href="#path-2"></use>
                <use fill="url(#linearGradient-1)" fill-rule="evenodd" xlink:href="#path-2"></use>
            </g>
            <g id="Group-16" transform="translate(50, 164)">
                <path d="M474.246342,171.455669 C464.541437,171.196871 454.06014,171.279216 444.319945,171.420378 C439.567482,171.514486 436.132534,173.443704 433.568087,175.7023 C430.615443,178.266747 429.780233,180.560634 428.227448,185.266042 C423.275006,200.311585 418.487253,215.204202 413.511284,230.508543 C411.064471,238.072487 408.547078,245.448214 406.206137,253.000395 C405.265056,255.964802 402.900588,261.834799 402.980835,264.858024 C403.077041,269.516378 406.488462,271.986717 410.970363,272.16317 C420.61645,272.527839 431.050693,272.16317 440.767361,272.16317 L740.19602,272.16317 C748.383431,272.16317 756.406152,273.233651 761.982061,264.269848 C763.946569,261.07017 784.909163,194.676859 787.920624,185.571894 C789.320483,181.325263 790.885031,177.384483 787.603009,173.843663 C784.615075,170.69104 779.933193,171.420378 774.957224,171.420378 L520.253472,171.420378 C510.56033,171.420378 499.996689,171.090999 490.585872,171.432142 C489.503628,172.243824 477.375438,189.053896 475.140369,192.088884 C471.693658,196.85311 462.706328,210.110598 458.330298,211.416349 C452.801443,213.027951 448.684211,207.487333 450.91928,202.26433 C454.483627,193.91223 473.164098,174.925907 474.246342,171.455669" id="Fill-1" fill="#CF271E"></path>
                <g id="Group-5" transform="translate(0, -0)">
                    <mask id="mask-5" fill="white">
                        <use xlink:href="#path-4"></use>
                    </mask>
                    <g id="Clip-4"></g>
                    <path d="M474.246342,171.455669 C473.164098,174.925907 454.483627,193.91223 450.91928,202.26433 C448.684211,207.487333 452.801443,213.027951 458.330298,211.416349 C462.706328,210.110598 471.693658,196.85311 475.140369,192.088884 C477.375438,189.053896 489.503628,172.243824 490.585872,171.432142 C491.526954,169.444107 494.373726,165.844469 495.902983,163.879961 C503.808069,153.657462 522.076817,126.966033 529.287855,119.990265 C535.981299,113.496802 541.674843,106.826885 551.638545,103.638971 C567.872204,98.4630219 549.991652,122.837037 540.604363,129.53048 C529.558416,137.435566 527.193949,133.483023 520.829884,135.588694 C519.582951,140.15294 521.747439,143.376144 525.723509,144.117246 C539.898551,146.752275 585.352796,115.273093 594.798903,114.049687 C594.234254,115.378965 591.187502,118.190446 589.999386,119.660886 C585.176343,125.601464 581.212036,136.259214 588.54071,141.258711 C597.269242,147.211052 612.79709,136.282741 618.408289,132.459597 C622.749028,129.471663 626.525119,126.754289 630.560006,123.660483 C638.041605,117.919885 661.792154,100.6628 669.238463,99.4982117 L673.826236,102.791998 C676.531846,105.67406 670.614795,109.803056 668.544415,111.661692 C662.556783,117.014094 651.604945,124.28395 651.604945,134.671139 C651.628472,154.128002 686.801399,137.023843 696.918027,134.882882 C698.047325,136.294505 698.894299,138.353121 700.023597,139.764743 C715.574971,159.421587 781.909465,147.258106 797.119697,138.070796 C802.483863,134.824065 799.778253,131.212664 793.743567,131.459698 C790.661524,131.624387 784.179824,133.718294 780.897802,134.588794 C764.111258,139.129513 743.642732,144.234881 726.009214,143.423198 C717.104229,143.035002 706.246499,140.18823 706.48177,131.118556 C709.952008,128.824669 723.985888,123.942808 736.314058,115.202512 C740.748906,112.038125 745.136699,108.344379 747.94818,103.791897 C752.041886,97.110217 750.030324,91.6048893 744.560286,88.4993198 C730.044102,80.2413282 708.893291,99.9452255 701.776361,110.802955 C698.282595,116.120067 696.953318,120.719603 696.047527,128.165912 C691.353882,130.589197 683.0606,133.424206 677.496454,134.847592 C674.932007,135.494585 669.379625,137.023843 667.097502,135.37695 C660.486403,130.612724 678.849259,117.496399 681.896011,115.073113 C684.178134,113.285058 686.754345,111.12057 688.30713,108.709049 C690.448091,105.427026 689.812861,101.592118 686.883744,99.6864281 C684.648675,98.1924609 679.766814,97.2043252 678.461063,95.6750675 C675.802507,92.6047885 680.484389,89.5580367 680.060902,85.7231289 C679.190401,78.5826717 668.685577,80.7236325 666.509326,89.0404417 C665.415318,93.2988363 666.191711,92.0871936 660.851072,95.7809392 C653.369473,100.980415 645.687894,106.450453 637.72399,110.826482 C638.300403,108.944319 639.241485,107.438588 638.582727,105.027067 C638.041605,102.96845 636.371185,102.839052 635.512448,101.003942 C635.747719,98.6277112 638.018078,98.2748056 636.230023,95.710358 C631.171709,88.5110833 602.751043,102.780234 597.775074,105.062357 C591.08163,108.167927 584.16468,111.732273 577.988832,115.084877 C575.012661,116.720006 560.425895,125.08387 558.261407,125.507356 C559.814192,122.989963 564.107877,119.449143 566.978176,114.731971 C569.236772,111.08528 572.189416,104.674161 569.53086,99.5923199 C564.131404,89.2874757 544.204,102.121477 540.933741,102.250876 C540.616126,100.086388 547.58013,91.2284566 549.062334,89.0286782 C550.226923,87.3582583 552.39141,84.393851 553.144276,82.4763971 C554.450027,79.2296654 552.026741,76.6064002 548.638847,76.7240355 C545.215663,76.8181436 537.28705,83.3586612 535.146089,85.0761352 C518.935957,97.7219201 503.761015,111.355841 486.70391,123.131125 C484.692348,124.530984 482.504333,126.036715 480.304555,127.401283 C478.422391,128.624689 475.222714,130.942103 472.658266,130.13042 C471.470151,125.730863 477.328384,118.943312 479.375237,116.190648 C480.351609,114.931951 483.221908,111.344077 483.56305,109.697184 C484.139463,106.826885 481.433853,104.43889 478.35181,105.23881 C475.81089,105.87404 473.611111,108.250271 472.093617,109.603076 C462.823963,117.884595 452.860261,126.660181 441.014395,131.742022 C430.521335,136.200397 433.826884,127.401283 437.144197,122.872328 C444.590506,112.661592 463.894443,99.2511778 479.057622,101.686227 C482.09261,102.180294 486.939181,103.16843 485.8687,98.5571301 C485.351105,96.4161693 482.069083,94.9104386 479.434054,94.2516815 C456.753986,88.6757726 437.273596,108.61494 420.757612,119.27269 C417.922604,121.084272 397.312915,134.471159 394.419089,135.34166 C397.501132,128.177675 401.524256,121.766557 403.853433,113.414457 C404.876859,109.873637 406.18261,102.415565 401.383094,102.450855 C398.806883,102.462619 397.936382,104.344782 396.783557,105.627006 C389.819553,113.379166 385.290597,118.672751 376.762045,125.31914 C373.891746,127.530682 360.987163,137.788472 355.96414,135.788673 C353.329111,127.836533 372.350724,113.849707 377.538437,110.473577 C386.372841,104.791796 397.054118,99.6040834 408.135355,99.615847 C410.311606,99.6276105 411.887918,100.274604 413.440703,98.8747451 C415.581663,94.5222424 406.535516,92.7459508 402.818243,92.4636263 C387.960916,91.3225648 374.797537,99.1217791 362.528184,105.768168 C354.52899,110.132435 347.506168,114.355539 339.930461,118.966839 C337.224851,120.613732 318.956103,132.153746 316.332838,130.36569 C315.191777,129.306973 316.450473,127.118959 317.109231,125.942607 C319.791313,120.954874 328.555136,111.367604 327.202331,106.038729 C326.414176,103.156667 323.367424,100.992179 319.438408,101.274503 C311.121598,101.862679 292.158803,117.484635 287.182834,118.108102 C288.00628,113.261531 302.322485,103.509572 301.840181,93.5341067 C301.040261,76.8416707 253.350948,108.967846 250.280669,110.955881 C246.857484,113.214477 228.906352,125.436775 225.518458,125.013288 C225.518458,118.943312 255.738942,99.8393538 252.6569,89.8050706 C250.739446,83.6527492 242.175603,87.2523866 237.928972,88.6757726 C227.694709,92.1107207 217.554554,96.0632637 207.602615,100.192259 L178.087942,112.508666 C176.617501,102.439092 174.782392,88.1464142 177.758563,78.159185 C178.229104,76.5593462 177.899725,77.1357587 178.887861,76.441711 C184.357898,72.6068032 191.063105,68.8777671 196.721359,65.1840215 C215.378303,53.0793586 242.081495,36.8339364 258.621005,22.800056 C263.161724,18.9533847 276.207469,9.1543719 268.808214,2.33152983 C259.197418,-6.54992839 226.859499,12.4363942 219.119102,17.3417824 C209.449488,23.4705767 200.038671,30.2228377 192.61589,37.3515313 C182.781586,46.8329291 173.147263,56.8789758 167.32432,69.8423758 C166.736144,71.2069442 166.206786,72.4303504 165.6539,73.8772634 C163.54823,79.559044 163.430595,78.159185 156.701861,82.2881808 C154.196231,83.8527291 151.878817,85.2761151 149.490822,86.7818457 C139.92708,92.9106401 130.528027,98.6041842 120.976048,104.697688 C102.154415,116.696479 83.2622003,128.69527 65.6404461,142.340955 C63.5230124,143.96432 61.4055786,145.446524 59.1469827,147.187525 L21.6213513,179.184302 C19.5509716,181.242918 18.1040585,183.089791 15.9278072,185.195461 C14.4926576,186.583556 12.0576088,189.489146 10.6812769,191.300728 C5.83470632,197.68832 -1.51749418,206.534488 0.270560979,215.815906 C1.42338602,221.74472 6.57580813,226.026642 14.0338803,225.250249 C17.257085,224.920871 20.4214721,223.368086 22.5153788,221.897646 C23.9740554,220.885983 28.1971594,217.509853 26.1032527,215.145385 C24.2093258,214.016087 21.6919324,216.745224 19.8921137,217.56867 C11.8341019,221.238889 12.1046629,211.969234 18.3040384,202.487836 C23.2447171,194.900366 29.4558561,188.006942 35.0905826,182.360452 C36.749239,180.772377 38.1020439,179.407809 39.7842274,177.84326 C70.0517664,149.587283 104.530646,124.413349 139.421249,101.521537 C143.279684,98.9923804 146.867557,96.7690749 150.608357,94.286972 C153.102223,92.6753697 160.066228,87.8640897 162.489513,87.0524067 C162.27777,92.5577345 162.324824,98.0160081 162.642439,103.474282 C162.901236,108.591413 163.98348,113.967342 164.077588,118.731568 C162.924763,119.684413 157.678233,121.872428 155.960759,122.719402 C153.32573,123.966335 150.608357,125.260322 147.620423,126.766053 C125.763801,137.506147 97.1313914,152.692853 78.4156297,167.844268 C77.3569129,168.703005 76.2276149,169.714667 75.0865534,170.585168 C70.7458142,174.043643 62.8524917,182.313398 62.6995659,188.959788 C62.4995861,195.947319 68.4872182,200.652727 73.4396604,202.970141 C85.8148843,208.710739 101.907381,206.769758 115.117815,203.146594 C128.175323,199.535193 139.174215,193.771068 148.420342,187.171732 C156.995949,181.007647 166.218549,171.679175 171.582715,161.350804 C179.087841,146.964018 179.440746,137.859053 178.676118,119.813812 C184.969601,117.131729 230.235629,95.5339052 234.811639,98.0395352 C235.376288,99.615847 233.776449,101.192159 232.894185,102.086186 L222.977537,112.026361 C218.507399,116.296519 214.025498,120.331407 209.931792,125.236795 C207.096784,128.589399 199.638712,136.106289 203.885343,142.411536 C208.143737,148.669729 217.213412,141.376346 221.213009,138.600155 C236.576167,128.02475 252.174596,116.802351 268.290619,106.920993 C271.313844,105.050594 282.195101,97.5925214 286.312333,98.9923804 C287.665138,103.509572 272.784284,118.719805 269.878695,122.390023 C267.008395,125.977897 258.044593,135.682802 259.37387,141.22342 C259.97381,143.834922 262.738237,145.411233 265.490901,143.870212 C272.9725,139.694162 303.981141,110.073617 312.980235,111.379368 C313.591938,114.449647 303.616472,127.330702 301.581383,130.683305 C295.770204,140.341156 297.099482,147.834519 310.121699,142.011576 C320.861794,137.223823 330.343191,131.212664 340.271603,125.35443 C342.20082,124.201605 348.517831,120.178481 350.305886,119.707941 C349.353041,121.966536 347.259134,124.154551 345.835748,126.695472 C341.106813,135.247551 342.530199,148.375641 356.258228,144.152537 C364.257422,141.741015 371.739021,136.365086 378.067795,131.60086 C379.58529,130.424508 383.243745,127.048377 384.937692,127.02485 C385.172962,131.059738 379.573526,140.423501 377.303167,144.270172 C375.585693,147.140471 376.020943,146.822856 373.091826,148.599148 C365.974896,152.963414 359.281453,157.068883 352.246867,161.468439 C328.837461,176.125786 303.722344,192.065357 283.642014,210.581139 L274.901718,218.909712 C273.13719,220.486023 272.466669,221.615321 270.996229,223.168106 C269.690478,224.579729 268.431781,226.179567 267.196612,227.849987 C256.938822,241.354509 254.92726,258.188108 275.407549,253.765024 C283.453798,252.012259 292.594053,247.024526 298.569922,243.248436 C305.416291,238.88417 312.533221,233.955255 318.179711,229.167502 C329.719725,219.356725 340.812725,209.651821 350.835245,198.347077 L360.493095,187.042334 C363.069306,183.85442 365.480828,180.784141 367.880586,177.443301 C372.70363,170.914547 376.985552,164.456374 381.573325,157.398261 C383.726049,154.080948 385.690557,150.693054 387.831518,147.046363 C389.290194,144.552496 395.171955,141.635143 397.806983,139.976487 C400.606701,138.211959 417.134448,127.86006 419.393044,127.648317 C418.934267,133.530077 418.757814,137.435566 422.68683,140.329392 C430.580152,146.175862 445.731567,136.141579 452.801443,131.777313 C454.377755,130.800941 456.589297,129.154048 458.142082,128.601162 C452.942605,142.176265 465.75308,143.140874 475.046261,138.435466 C491.644589,130.095129 529.064349,96.2632435 535.21667,96.3102976 C534.804947,99.3805765 529.946613,104.027167 528.087976,106.344581 C523.135534,112.379267 475.81089,170.761621 474.246342,171.455669 M183.357999,65.4192919 C187.334069,57.1260098 195.415608,49.926735 200.415104,44.4096438 C201.685564,42.9980213 202.944261,42.1981019 204.34412,40.9158781 C211.366942,34.3283064 221.860003,26.8819978 230.353265,21.8825014 C232.400117,20.6473317 248.704357,11.189461 251.257041,13.4833476 C256.680024,18.3181546 224.365632,39.174877 220.036657,42.0451761 C213.96668,46.1153543 207.908467,49.8443904 201.767909,53.9498592 C198.674103,55.9967118 195.55677,57.9494562 192.474728,59.8551466 C190.074969,61.3491137 185.73423,64.4664468 183.357999,65.4192919 M708.258061,122.401787 C710.622529,113.943815 722.02138,103.862478 729.161838,99.1923602 C730.291136,98.4512584 737.631573,93.8517218 739.490209,95.686831 C741.795859,98.0042446 735.678828,104.615343 734.961253,105.321155 C732.64384,107.709149 729.891176,109.767765 726.950296,111.849909 C723.644746,114.22614 712.504692,121.154854 708.258061,122.401787 M625.701672,105.203519 C632.924474,102.93316 630.089465,110.261833 628.254356,113.226241 C626.336902,116.33181 623.184279,119.754995 620.960973,121.884192 C606.51537,136.01218 590.716961,139.95296 599.480784,127.013087 C601.457056,124.107497 604.574389,120.519623 606.809458,118.390426 C610.714947,114.66139 618.949411,107.30919 625.701672,105.203519 M164.81869,126.460201 C165.089251,140.423501 163.7835,149.951953 158.066429,160.609702 C148.467396,178.572599 131.092676,190.512572 111.718157,196.500204 C104.236558,198.864672 83.097511,203.052485 76.8040274,197.829482 C63.6994652,186.936462 105.024714,160.386195 111.953428,155.986639 C117.611681,152.398765 158.454625,127.965932 164.81869,126.460201 M366.751288,160.23327 C366.104295,161.750764 363.186942,165.573908 362.057644,167.009058 C360.37546,169.173546 358.822675,171.373324 357.187546,173.478994 C353.752598,177.972659 350.388231,181.995783 347.035628,186.348286 C336.107317,200.370403 315.285885,220.650713 300.746173,231.931929 C298.593449,233.614113 275.336968,251.929914 271.50206,247.530358 C266.820179,242.201483 287.100489,221.874119 288.723855,220.297807 C303.604709,205.522825 321.28528,190.889005 339.130542,178.819633 C343.612443,175.796408 348.259034,172.584967 352.787989,169.444107 C355.270092,167.75016 364.692672,161.150824 366.751288,160.23327" id="Fill-3" fill="#0056A3" mask="url(#mask-5)"></path>
                </g>
                <path d="M609.171573,232.798901 C607.948166,237.586654 605.066104,243.609576 609.006883,248.044424 C612.065399,251.444081 618.253011,251.879331 624.075954,251.491135 C636.039454,250.679452 642.368228,245.197651 645.861994,235.786835 C651.02618,221.764718 639.121497,219.306142 632.910358,213.51849 C628.746071,209.589474 630.875269,203.766531 635.063082,201.637334 C637.098171,200.602144 640.909552,200.049259 642.321174,201.99024 C643.862196,204.178254 642.250593,207.177952 642.015323,209.401258 L653.755317,209.318913 C655.966858,204.76643 656.90794,198.214149 653.284776,194.932127 C648.12059,190.262009 623.346615,188.568062 617.78247,209.130697 C614.194596,222.317604 627.922625,224.752652 632.380999,231.046136 C635.686549,235.692727 631.298755,241.503906 627.40503,242.562623 C624.840582,243.280198 621.335053,242.939055 620.417499,240.880439 C619.347018,238.433627 620.970384,235.03397 621.405634,232.798901 L609.171573,232.798901 Z M586.879701,208.083743 C588.655992,198.214149 585.468078,193.155835 576.18666,192.214754 C558.435507,190.391408 550.542185,200.061022 545.189783,215.000694 C542.966477,221.188306 540.143232,228.999283 539.002171,235.775071 C537.26117,245.72701 540.80199,250.420655 549.82461,251.432318 C566.787607,253.314481 575.657302,243.644867 580.680325,228.846358 C582.844813,222.482293 585.668058,215.024221 586.879701,208.083743 L586.879701,208.083743 Z M568.210993,200.907996 C579.680426,198.437656 572.551732,215.82414 570.422535,222.458766 C568.19923,229.458061 564.846626,241.303926 558.012021,242.703785 C546.189682,245.080016 553.094869,228.493452 555.529918,221.058907 C558.012021,213.400855 560.91761,202.507834 568.210993,200.907996 L568.210993,200.907996 Z M489.14837,227.140647 C497.465179,227.140647 504.499764,227.740587 510.581505,223.670408 C515.016352,220.717765 518.592462,215.141856 520.392281,208.613102 C522.744985,200.131603 521.274545,194.202789 512.793047,193.132308 C507.711206,192.508842 493.712616,192.63824 488.254342,193.014673 C487.525004,194.155735 469.609162,248.691417 469.397418,250.632398 L481.478554,250.585344 L489.14837,227.140647 Z M497.359307,201.943185 C504.41742,201.766733 510.29918,200.79036 507.652388,209.7424 C506.358401,214.083139 503.076378,218.294479 497.841612,218.294479 L494.289028,218.294479 L492.112777,218.188608 L497.359307,201.943185 Z M723.101272,192.944092 L684.034619,192.944092 L681.023158,202.648997 L694.351227,202.684287 L678.799852,250.620635 L690.880988,250.620635 L706.573525,202.648997 L720.136864,202.613706 L723.101272,192.944092 Z" id="Fill-10" fill="#FEFEFE"></path>
                <path d="M272.638416,49.4785449 C268.90938,50.7842957 264.074573,54.5250953 262.027721,57.0660158 C259.157422,60.6656532 259.416219,69.6647466 266.050845,65.359298 L276.62625,57.8424082 C278.414305,56.5837115 280.543502,55.0779808 278.861319,51.8430126 C277.802602,49.843214 275.485189,48.4786456 272.638416,49.4785449" id="Fill-14" fill="#006FB3"></path>
            </g>
        </g>
    </g>
</svg>