<?xml version="1.0" encoding="UTF-8"?>
<svg width="980px" height="680px" viewBox="0 0 980 680" version="1.1" xmlns="http://www.w3.org/2000/svg" xmlns:xlink="http://www.w3.org/1999/xlink">
    <title>SI Pošta Slovenije text alt</title>
    <defs>
        <rect id="path-1" x="0" y="0" width="900" height="600" rx="80"></rect>
        <filter x="-6.7%" y="-10.0%" width="113.3%" height="120.0%" filterUnits="objectBoundingBox" id="filter-2">
            <feMorphology radius="2.5" operator="dilate" in="SourceAlpha" result="shadowSpreadOuter1"></feMorphology>
            <feOffset dx="0" dy="0" in="shadowSpreadOuter1" result="shadowOffsetOuter1"></feOffset>
            <feGaussianBlur stdDeviation="17.5" in="shadowOffsetOuter1" result="shadowBlurOuter1"></feGaussianBlur>
            <feColorMatrix values="0 0 0 0 0   0 0 0 0 0   0 0 0 0 0  0 0 0 0.5 0" type="matrix" in="shadowBlurOuter1"></feColorMatrix>
        </filter>
    </defs>
    <g id="SI-Pošta-Slovenije-text-alt" stroke="none" stroke-width="1" fill="none" fill-rule="evenodd">
        <g transform="translate(40, 40)">
            <g id="Rectangle">
                <use fill="black" fill-opacity="1" filter="url(#filter-2)" xlink:href="#path-1"></use>
                <use fill="#FFD541" fill-rule="evenodd" xlink:href="#path-1"></use>
            </g>
            <g id="Logo" transform="translate(50, 252)" fill="#000000" fill-rule="nonzero">
                <path d="M723.975969,23.7393046 L708.683779,23.7393046 L708.683779,73.1112325 L723.975969,73.1112325 L723.975969,23.7393046 Z M25.0500637,43.4006918 C25.0500637,40.9248134 25.1957036,38.448935 25.6326233,35.9730566 C20.8265065,27.3803022 17.4767886,17.3311487 16.0203896,6.40815583 L16.0203896,6.40815583 C15.8747497,5.09739669 14.7096304,3.93227744 13.2532314,3.93227744 L13.2532314,3.93227744 L13.2532314,3.93227744 L2.7671582,3.93227744 L2.7671582,3.93227744 L2.7671582,3.93227744 C1.16511924,3.93227744 0,5.24303659 0,6.69943565 C0,6.69943565 0,6.84507555 0,6.84507555 C2.91279811,32.7689787 15.2921901,55.0518842 32.7689787,68.0138358 C27.671582,60.8774804 25.0500637,52.4303659 25.0500637,43.4006918 M140.105589,6.99071546 C140.105589,6.84507555 140.105589,6.84507555 140.105589,6.69943565 C140.105589,5.09739669 138.79483,3.93227744 137.338431,3.93227744 L132.241034,3.93227744 L124.376479,3.93227744 L106.608411,3.93227744 C105.006372,3.93227744 103.841253,5.24303659 103.841253,6.69943565 L103.841253,16.3116694 C103.841253,17.9137084 105.152012,19.0788276 106.608411,19.0788276 L121.463681,19.0788276 C113.744766,47.1873293 92.9182596,67.2856363 68.4507555,67.2856363 C55.1975241,67.2856363 44.2745312,56.5082833 44.2745312,43.109412 C44.2745312,29.8561806 55.0518842,18.9331877 68.4507555,18.9331877 C81.7039869,18.9331877 92.6269798,29.7105407 92.6269798,43.109412 C92.6269798,49.9544875 89.7141817,56.0713636 85.1993446,60.4405607 C90.1511014,58.2559621 94.8115784,55.1975241 99.1807755,51.2652467 C102.676133,48.0611688 105.880211,44.2745312 108.647369,40.050974 C107.04533,19.2244675 89.7141817,2.91279811 68.5963954,2.91279811 C46.4591298,2.91279811 28.3997815,20.9721464 28.3997815,43.109412 C28.3997815,65.2466776 46.4591298,83.3060259 68.5963954,83.3060259 C105.152012,83.5973057 135.299472,50.2457673 140.105589,6.99071546 M210.158383,26.6521027 C210.158383,33.9340979 205.934826,37.5750956 197.633352,37.5750956 L191.516476,37.5750956 L191.516476,16.0203896 L197.633352,16.0203896 C206.080466,16.0203896 210.158383,19.5157473 210.158383,26.6521027 M219.042418,42.9637721 C223.994174,38.5945749 226.615693,33.0602585 226.615693,26.0695431 C226.615693,11.3599126 217.877298,4.07791735 200.40051,4.07791735 L175.933006,4.07791735 L175.933006,73.2568724 L191.516476,73.2568724 L191.516476,49.3719279 L198.944111,49.3719279 C207.391225,49.3719279 214.090661,47.1873293 219.042418,42.9637721 M264.336428,48.0611688 C264.336428,57.8190424 260.695431,62.6251593 253.413435,62.6251593 C245.69452,62.6251593 241.907883,57.8190424 241.907883,48.3524486 C241.907883,43.8376115 242.927362,40.3422538 244.966321,37.8663754 C247.005279,35.390497 249.772438,34.0797378 253.413435,34.0797378 C260.549791,34.2253778 264.336428,38.8858547 264.336428,48.0611688 M272.637903,67.2856363 C277.44402,62.4795194 279.919898,56.0713636 279.919898,47.7698889 C279.919898,40.1966139 277.58966,34.0797378 272.929183,29.4192609 C268.268706,24.7587839 261.86055,22.4285454 253.559075,22.4285454 C245.257601,22.4285454 238.558165,24.7587839 233.752048,29.4192609 C228.800291,34.0797378 226.470053,40.4878937 226.470053,48.6437284 C226.470053,56.5082833 228.800291,62.7707992 233.606408,67.4312762 C238.266885,72.0917531 244.820681,74.4219916 252.976516,74.4219916 C261.27799,74.4219916 267.831786,72.0917531 272.637903,67.2856363 M305.989441,16.0203896 L317.494994,0.291279811 L307.59148,0.291279811 L300.018205,9.32095394 L292.59057,0.291279811 L282.687056,0.291279811 L294.046969,16.0203896 L305.989441,16.0203896 Z M319.533952,58.1103222 C319.533952,56.0713636 319.242672,54.1780448 318.660113,52.7216457 C318.077553,51.2652467 317.203714,49.9544875 315.892955,48.7893683 C314.727835,47.624249 313.271436,46.7504096 311.669397,45.8765702 C310.067358,45.0027307 308.17404,44.2745312 306.135081,43.5463317 C304.969962,43.109412 303.804843,42.8181322 302.785363,42.3812125 C301.620244,41.9442927 300.600765,41.6530129 299.726925,41.0704533 C298.853086,40.6335336 297.979246,40.050974 297.396687,39.4684143 C296.814127,38.8858547 296.522847,38.0120153 296.522847,37.1381759 C296.522847,36.4099763 296.668487,35.8274167 297.105407,35.390497 C297.542327,34.8079374 297.979246,34.3710177 298.707446,34.0797378 C299.435645,33.788458 300.163845,33.4971782 301.037684,33.3515383 C301.911524,33.2058984 302.931003,33.0602585 303.804843,33.0602585 C305.989441,33.0602585 308.0284,33.3515383 310.358638,33.9340979 C312.543237,34.5166576 314.582196,35.390497 316.621154,36.4099763 L316.621154,24.613144 C314.436556,24.0305844 312.251957,23.4480248 309.921719,23.1567449 C307.73712,22.8654651 305.406881,22.7198252 303.222283,22.7198252 C300.455125,22.7198252 297.687967,23.011105 295.066448,23.5936647 C292.44493,24.1762243 290.114691,25.0500637 288.221373,26.3608229 C286.182414,27.671582 284.580375,29.273621 283.415256,31.3125796 C282.250137,33.3515383 281.667577,35.6817768 281.667577,38.448935 C281.667577,40.4878937 281.958857,42.2355725 282.395776,43.6919716 C282.978336,45.1483707 283.706536,46.4591298 284.726015,47.624249 C285.745494,48.7893683 287.056253,49.8088476 288.512652,50.5370472 C289.969052,51.4108866 291.71673,52.1390861 293.755689,52.8672856 C294.920808,53.3042054 296.231567,53.7411251 297.542327,54.1780448 C298.853086,54.6149645 300.018205,55.0518842 301.183324,55.4888039 C302.348443,55.9257236 303.222283,56.5082833 303.950482,57.2364828 C304.678682,57.8190424 304.969962,58.6928818 304.969962,59.7123612 C304.969962,61.1687602 304.241762,62.3338795 302.639723,63.062079 C301.037684,63.7902785 298.998726,64.2271983 296.231567,64.2271983 C294.046969,64.2271983 291.71673,63.7902785 289.095212,63.062079 C286.619334,62.3338795 284.143455,61.1687602 281.521937,59.7123612 L281.521937,72.0917531 C286.182414,73.6937921 291.134171,74.5676315 296.668487,74.5676315 C299.581285,74.5676315 302.494083,74.2763517 305.261242,73.6937921 C308.0284,73.1112325 310.504278,72.0917531 312.543237,70.780994 C314.582196,69.4702348 316.329874,67.722556 317.640634,65.6835973 C318.805753,63.4989987 319.533952,61.0231203 319.533952,58.1103222 M343.564537,74.4219916 C348.079374,74.4219916 351.429092,73.839432 353.75933,72.6743128 L353.75933,61.3144001 C352.011651,62.1882396 350.409612,62.7707992 348.807573,62.7707992 C344.729656,62.7707992 342.690697,60.1492809 342.690697,55.0518842 L342.690697,35.0992172 L353.75933,35.0992172 L353.75933,23.8849445 L342.690697,23.8849445 L342.690697,8.73839432 L327.544147,13.1075915 L327.544147,23.7393046 L319.533952,23.7393046 L319.533952,34.9535773 L327.544147,34.9535773 L327.544147,57.5277626 C327.398507,68.8876752 332.787184,74.4219916 343.564537,74.4219916 M385.654469,53.1585654 C385.654469,56.2170035 384.78063,58.6928818 382.887311,60.7318405 C381.139632,62.7707992 378.809394,63.6446386 375.896596,63.6446386 C373.857637,63.6446386 372.255598,63.062079 370.944839,62.0425997 C369.77972,60.8774804 369.19716,59.5667213 369.19716,57.8190424 C369.19716,54.0324049 371.673038,51.7021664 376.624795,51.1196068 L385.654469,49.9544875 L385.654469,53.1585654 L385.654469,53.1585654 Z M385.508829,73.2568724 L399.92718,73.2568724 L399.92718,43.6919716 C399.92718,29.5649008 392.936465,22.5741853 378.809394,22.5741853 C375.750956,22.5741853 372.401238,23.011105 368.76024,23.8849445 C365.119243,24.7587839 362.206445,25.6326233 360.021846,26.7977426 L360.021846,38.3032951 C365.264883,34.8079374 370.944839,33.0602585 376.770435,33.0602585 C382.596031,33.0602585 385.508829,35.8274167 385.508829,41.2160932 L372.109958,42.9637721 C360.750046,44.4201711 355.070089,49.9544875 355.070089,59.5667213 C355.070089,64.0815583 356.380848,67.722556 359.148007,70.4897142 C361.915165,73.2568724 365.701802,74.5676315 370.507919,74.5676315 C377.061715,74.5676315 381.867832,71.8004733 385.21755,66.2661569 L385.36319,66.2661569 L385.36319,73.2568724 L385.508829,73.2568724 Z M472.747133,63.4989987 C474.203532,60.8774804 474.931731,57.6734025 474.931731,53.7411251 C474.931731,50.9739669 474.494812,48.4980885 473.620972,46.3134899 C472.747133,44.2745312 471.582013,42.3812125 469.979975,40.6335336 C468.377936,39.0314946 466.484617,37.5750956 464.300018,36.2643364 C462.11542,34.9535773 459.639541,33.788458 456.872383,32.6233388 C454.833424,31.7494994 453.085745,31.0212998 451.483707,30.1474604 C449.881668,29.4192609 448.570908,28.5454214 447.405789,27.671582 C446.24067,26.7977426 445.366831,25.9239031 444.784271,25.0500637 C444.201711,24.1762243 443.910431,23.1567449 443.910431,21.9916257 C443.910431,20.9721464 444.201711,19.952667 444.784271,19.0788276 C445.366831,18.2049882 446.09503,17.4767886 447.114509,16.894229 C448.133989,16.3116694 449.299108,15.8747497 450.755507,15.43783 C452.211906,15.1465502 453.813945,15.0009102 455.561624,15.0009102 C456.872383,15.0009102 458.183142,15.1465502 459.639541,15.2921901 C461.09594,15.43783 462.552339,15.7291098 464.008738,16.1660295 C465.465137,16.6029492 466.921537,17.0398689 468.232296,17.6224285 C469.543055,18.2049882 470.853814,18.9331877 472.018933,19.8070271 L472.018933,5.5343164 C469.688695,4.66047697 467.067176,3.93227744 464.300018,3.49535773 C461.53286,3.05843801 458.328782,2.91279811 454.687784,2.91279811 C451.046787,2.91279811 447.551429,3.34971782 444.201711,4.07791735 C440.851993,4.80611688 438.084835,6.11687602 435.608957,7.71891498 C433.133078,9.32095394 431.09412,11.5055525 429.637721,14.1270708 C428.181322,16.7485891 427.453122,19.8070271 427.453122,23.4480248 C427.453122,28.1085017 428.763881,32.0407792 431.3854,35.2448571 C434.006918,38.448935 438.084835,41.2160932 443.473512,43.5463317 C445.65811,44.4201711 447.551429,45.2940106 449.444748,46.16785 C451.338067,47.0416894 452.794466,47.9155289 454.250865,48.7893683 C455.561624,49.6632077 456.581103,50.6826871 457.454943,51.7021664 C458.183142,52.7216457 458.620062,54.0324049 458.620062,55.343164 C458.620062,56.3626434 458.328782,57.2364828 457.891862,58.1103222 C457.454943,58.9841617 456.726743,59.7123612 455.707264,60.2949208 C454.687784,60.8774804 453.522665,61.4600401 452.066266,61.7513199 C450.609867,62.0425997 448.862188,62.3338795 446.968869,62.3338795 C443.619152,62.3338795 440.269434,61.7513199 437.065356,60.5862006 C433.715638,59.4210814 430.80284,57.6734025 427.890042,55.343164 L427.890042,70.780994 C430.36592,72.0917531 433.424358,72.9655926 436.774076,73.6937921 C440.269434,74.2763517 443.764792,74.7132714 447.551429,74.7132714 C451.192427,74.7132714 454.833424,74.4219916 458.037502,73.6937921 C461.38722,72.9655926 464.300018,71.8004733 466.775897,70.1984344 C469.397415,68.3051156 471.290734,66.120517 472.747133,63.4989987 M480.466048,73.2568724 L495.758238,73.2568724 L495.758238,1.03483377e-14 L480.466048,1.03483377e-14 L480.466048,73.2568724 Z M538.57637,48.0611688 C538.57637,57.8190424 534.935372,62.6251593 527.653377,62.6251593 C519.934462,62.6251593 516.147825,57.8190424 516.147825,48.3524486 C516.147825,43.8376115 517.167304,40.3422538 519.206263,37.8663754 C521.245221,35.390497 524.012379,34.0797378 527.653377,34.0797378 C534.935372,34.2253778 538.57637,38.8858547 538.57637,48.0611688 M554.15984,47.7698889 C554.15984,40.1966139 551.829601,34.0797378 547.169124,29.4192609 C542.508647,24.7587839 536.100492,22.4285454 527.799017,22.4285454 C519.497542,22.4285454 512.798107,24.7587839 507.99199,29.4192609 C503.040233,34.0797378 500.709995,40.4878937 500.709995,48.6437284 C500.709995,56.5082833 503.040233,62.7707992 507.84635,67.4312762 C512.506827,72.0917531 519.060623,74.4219916 527.216457,74.4219916 C535.517932,74.4219916 542.217368,72.0917531 547.023484,67.2856363 C551.683961,62.4795194 554.15984,56.0713636 554.15984,47.7698889 M586.491899,73.2568724 L604.842527,23.8849445 L588.967777,23.8849445 L580.229383,54.6149645 C579.209904,57.9646823 578.627344,60.8774804 578.481704,63.062079 L578.336064,63.062079 C578.190424,60.5862006 577.607865,57.6734025 576.588385,54.3236847 L567.995631,23.8849445 L551.683961,23.8849445 L569.16075,73.2568724 L586.491899,73.2568724 Z M617.076279,43.5463317 C617.513199,40.4878937 618.532678,38.0120153 620.280357,35.9730566 C622.028036,33.9340979 624.212634,32.9146186 626.688513,32.9146186 C632.368469,32.9146186 635.281267,36.4099763 635.281267,43.5463317 L617.076279,43.5463317 L617.076279,43.5463317 Z M617.076279,52.8672856 L649.262698,52.8672856 L649.262698,46.4591298 C649.262698,39.1771345 647.223739,33.3515383 643.291462,28.9823412 C639.359184,24.7587839 633.824868,22.5741853 626.542873,22.5741853 C619.552157,22.5741853 613.726561,24.9044238 608.920444,29.7105407 C604.114327,34.5166576 601.784089,41.0704533 601.784089,49.226288 C601.784089,57.0908429 603.968687,63.3533588 608.337885,67.722556 C612.707082,72.0917531 618.969598,74.4219916 626.979792,74.4219916 C634.261788,74.4219916 640.233024,73.2568724 644.747861,70.780994 L644.747861,59.7123612 C640.669944,62.3338795 635.863827,63.6446386 630.47515,63.6446386 C622.173676,63.6446386 617.658839,60.003641 617.076279,52.8672856 M686.400874,73.2568724 L701.547424,73.2568724 L701.547424,42.9637721 C701.547424,29.4192609 696.013108,22.5741853 685.090115,22.5741853 C678.099399,22.5741853 672.856363,25.6326233 669.215365,31.6038595 L669.069725,31.6038595 L669.069725,23.7393046 L653.777535,23.7393046 L653.777535,73.1112325 L669.069725,73.1112325 L669.069725,45.0027307 C669.069725,41.9442927 669.943565,39.3227744 671.691243,37.2838158 C673.438922,35.2448571 675.623521,34.2253778 678.245039,34.2253778 C683.779356,34.2253778 686.400874,38.0120153 686.400874,45.7309303 L686.400874,73.2568724 Z M722.81085,13.6901511 C724.412889,12.233752 725.286729,10.3404333 725.286729,8.01019479 C725.286729,5.67995631 724.412889,3.78663754 722.81085,2.47587839 C721.208811,1.01947934 719.024213,0.291279811 716.402694,0.291279811 C713.781176,0.291279811 711.742217,1.01947934 710.140178,2.47587839 C708.538139,3.93227744 707.6643,5.82559621 707.6643,8.01019479 C707.6643,10.1947934 708.538139,12.0881121 710.140178,13.6901511 C711.742217,15.2921901 713.926816,16.0203896 716.402694,16.0203896 C719.169853,16.0203896 721.208811,15.2921901 722.81085,13.6901511 M732.423084,73.5481522 C732.423084,81.1214273 730.092845,84.9080648 725.286729,84.9080648 C723.68469,84.9080648 721.791371,84.3255052 719.606772,83.1603859 L719.606772,95.1028582 C722.228291,96.1223375 724.704169,96.5592572 726.888768,96.5592572 C733.588203,96.5592572 738.83124,94.3746587 742.326597,90.0054615 C745.967595,85.6362643 747.715274,79.8106681 747.715274,72.5286729 L747.715274,23.7393046 L732.423084,23.7393046 L732.423084,73.5481522 L732.423084,73.5481522 Z M746.550155,13.6901511 C748.152194,12.233752 749.026033,10.3404333 749.026033,8.01019479 C749.026033,5.67995631 748.152194,3.78663754 746.550155,2.47587839 C744.948116,1.01947934 742.763517,0.291279811 740.141999,0.291279811 C737.520481,0.291279811 735.481522,1.01947934 733.879483,2.47587839 C732.277444,3.93227744 731.403605,5.82559621 731.403605,8.01019479 C731.403605,10.1947934 732.277444,12.0881121 733.879483,13.6901511 C735.481522,15.2921901 737.666121,16.0203896 740.141999,16.0203896 C742.763517,16.0203896 744.948116,15.2921901 746.550155,13.6901511 M785.872929,43.5463317 L767.667941,43.5463317 C768.104861,40.4878937 769.12434,38.0120153 770.872019,35.9730566 C772.619698,33.9340979 774.804296,32.9146186 777.280175,32.9146186 C782.960131,32.9146186 785.872929,36.4099763 785.872929,43.5463317 M800,52.8672856 L800,46.4591298 C800,39.1771345 797.961041,33.3515383 794.028764,28.9823412 C790.096486,24.7587839 784.56217,22.5741853 777.280175,22.5741853 C770.289459,22.5741853 764.463863,24.9044238 759.657746,29.7105407 C754.851629,34.5166576 752.521391,41.0704533 752.521391,49.226288 C752.521391,57.0908429 754.705989,63.3533588 759.075187,67.722556 C763.444384,72.0917531 769.7069,74.4219916 777.717094,74.4219916 C784.99909,74.4219916 790.970326,73.2568724 795.485163,70.780994 L795.485163,59.7123612 C791.407246,62.3338795 786.601129,63.6446386 781.212452,63.6446386 C772.619698,63.6446386 768.104861,60.003641 767.667941,52.8672856 L800,52.8672856 L800,52.8672856 Z" id="Shape"></path>
            </g>
        </g>
    </g>
</svg>