<?xml version="1.0" encoding="UTF-8"?>
<svg width="980px" height="680px" viewBox="0 0 980 680" version="1.1" xmlns="http://www.w3.org/2000/svg" xmlns:xlink="http://www.w3.org/1999/xlink">
    <title>SK Slovenská Pošta</title>
    <defs>
        <linearGradient x1="50%" y1="0%" x2="50%" y2="100%" id="linearGradient-1">
            <stop stop-color="#FFFFFF" offset="0%"></stop>
            <stop stop-color="#EDEDED" offset="100%"></stop>
        </linearGradient>
        <rect id="path-2" x="0" y="0" width="900" height="600" rx="80"></rect>
        <filter x="-6.7%" y="-10.0%" width="113.3%" height="120.0%" filterUnits="objectBoundingBox" id="filter-3">
            <feMorphology radius="2.5" operator="dilate" in="SourceAlpha" result="shadowSpreadOuter1"></feMorphology>
            <feOffset dx="0" dy="0" in="shadowSpreadOuter1" result="shadowOffsetOuter1"></feOffset>
            <feGaussianBlur stdDeviation="17.5" in="shadowOffsetOuter1" result="shadowBlurOuter1"></feGaussianBlur>
            <feColorMatrix values="0 0 0 0 0   0 0 0 0 0   0 0 0 0 0  0 0 0 0.5 0" type="matrix" in="shadowBlurOuter1"></feColorMatrix>
        </filter>
    </defs>
    <g id="SK-Slovenská-Pošta" stroke="none" stroke-width="1" fill="none" fill-rule="evenodd">
        <g transform="translate(40, 40)">
            <g id="Rectangle">
                <use fill="black" fill-opacity="1" filter="url(#filter-3)" xlink:href="#path-2"></use>
                <use fill="url(#linearGradient-1)" fill-rule="evenodd" xlink:href="#path-2"></use>
            </g>
            <g id="Logo" transform="translate(134.9372, 49.705)">
                <g id="Group" transform="translate(-0, -0)">
                    <rect id="Rectangle" fill="#003973" x="0" y="0" width="630.58678" height="500"></rect>
                    <path d="M315.242295,161.76518 C351.234336,161.76518 380.809982,191.071909 380.809982,227.241435 C380.809982,263.31415 351.234336,292.798365 315.242295,292.798365 C279.16958,292.798365 249.776798,263.31415 249.776798,227.241435 C249.776798,191.071909 279.16958,161.76518 315.242295,161.76518 M27.3436239,28.4139192 C29.3927822,85.247136 51.5731727,146.178669 82.6655193,202.033023 C150.895498,325.138493 233.561018,369.235734 315.242295,369.235734 C393.368472,369.235734 457.241973,305.448287 457.241973,227.150003 C457.241973,148.760286 393.368472,85.0642715 315.16162,85.0642715 C274.269887,85.0642715 236.502985,102.533211 210.756736,130.317862 C214.231162,155.709138 219.130856,177.62061 225.552627,197.214005 C237.922874,160.431345 274.183833,133.62018 315.16162,133.62018 C366.648739,133.62018 408.777497,175.485398 408.777497,227.150003 C408.777497,278.814608 366.648739,320.954123 315.16162,320.954123 C204.609262,321.034798 174.597967,161.324154 174.146184,28.4139192 L27.3436239,28.4139192 Z M206.572366,96.2082504 C235.79304,71.7044049 274.183833,56.1178938 315.16162,56.1178938 C389.625128,56.1178938 453.22971,104.576991 477.636745,173.968698 C491.351584,158.828591 524.401657,87.1188082 530.194159,28.4139192 L203.275426,28.4139192 C202.742968,52.3745496 203.990749,75.1788307 206.572366,96.2082504 M603.32921,28.4139192 L558.699511,28.4139192 C549.082988,108.944226 514.252676,181.089657 485.386974,215.570376 C485.386974,218.06056 485.56446,224.923358 485.56446,227.241435 C485.56446,257.709891 477.459259,286.564836 463.647609,310.97725 C534.023557,250.755661 601.721078,124.616791 603.32921,28.4139192 M602.350347,149.744528 C570.725542,236.594417 519.501963,307.319959 457.419459,350.793309 L602.350347,437.379659 L602.350347,149.744528 Z M28.4139192,150.454472 L28.4139192,437.648577 L173.253375,350.970795 C111.348357,307.68031 59.9526704,236.94939 28.4139192,150.454472 M428.822675,368.428979 L602.350347,471.586081 L28.4139192,471.586081 L201.850159,368.256871 C237.035443,387.317808 275.426236,397.649653 315.242295,397.649653 C355.24122,397.649653 393.63739,387.140322 428.822675,368.428979" id="Shape" fill="#FABB00" fill-rule="nonzero"></path>
                </g>
            </g>
        </g>
    </g>
</svg>