<?xml version="1.0" encoding="UTF-8"?>
<svg width="980px" height="680px" viewBox="0 0 980 680" version="1.1" xmlns="http://www.w3.org/2000/svg" xmlns:xlink="http://www.w3.org/1999/xlink">
    <title>SK Slovenská Pošta text</title>
    <defs>
        <linearGradient x1="50%" y1="0%" x2="50%" y2="100%" id="linearGradient-1">
            <stop stop-color="#FFFFFF" offset="0%"></stop>
            <stop stop-color="#EDEDED" offset="100%"></stop>
        </linearGradient>
        <rect id="path-2" x="0" y="0" width="900" height="600" rx="80"></rect>
        <filter x="-6.7%" y="-10.0%" width="113.3%" height="120.0%" filterUnits="objectBoundingBox" id="filter-3">
            <feMorphology radius="2.5" operator="dilate" in="SourceAlpha" result="shadowSpreadOuter1"></feMorphology>
            <feOffset dx="0" dy="0" in="shadowSpreadOuter1" result="shadowOffsetOuter1"></feOffset>
            <feGaussianBlur stdDeviation="17.5" in="shadowOffsetOuter1" result="shadowBlurOuter1"></feGaussianBlur>
            <feColorMatrix values="0 0 0 0 0   0 0 0 0 0   0 0 0 0 0  0 0 0 0.5 0" type="matrix" in="shadowBlurOuter1"></feColorMatrix>
        </filter>
    </defs>
    <g id="SK-Slovenská-Pošta-text" stroke="none" stroke-width="1" fill="none" fill-rule="evenodd">
        <g transform="translate(40, 40)">
            <g id="Rectangle">
                <use fill="black" fill-opacity="1" filter="url(#filter-3)" xlink:href="#path-2"></use>
                <use fill="url(#linearGradient-1)" fill-rule="evenodd" xlink:href="#path-2"></use>
            </g>
            <g id="Logo" transform="translate(174.3539, 50.6699)">
                <g id="Group" transform="translate(0, 0)">
                    <polygon id="Path" fill="#003973" fill-rule="nonzero" points="-1.80808712e-14 7.78757393 14.7090394 22.6224581 14.7090394 33.1675143 -1.97245868e-14 23.481164"></polygon>
                    <path d="M66.631134,16.6781408 C68.7778987,16.6781408 70.7988185,15.7602138 72.6420751,15.1457949 L72.6420751,1.31497245e-14 L70.7988185,1.31497245e-14 C69.8808916,3.43482348 64.9174236,3.00547055 62.6485154,3.00547055 L34.2668058,3.00547055 C22.2523263,3.00547055 18.9396463,15.5122255 18.9396463,25.1356533 C18.9396463,38.8675446 23.4145403,47.939476 37.3907186,49.4126008 L37.3907186,35.6177871 C31.2613353,34.0262201 30.0361989,31.6351684 30.0361989,26.4866345 C30.0361989,21.6416087 31.0762694,16.8632067 36.3469468,16.8632067 C38.4344904,16.8632067 40.0297586,18.761983 40.2111232,22.0709617 L42.1136009,35.2513565 C43.5830243,44.7526409 48.9758452,51.1300125 59.0323273,51.1300125 C68.9000422,51.1300125 74.0485761,43.8347139 74.0485761,34.4555731 C74.0485761,26.608778 72.0276563,22.1338841 66.631134,16.6781408 M64.2400823,30.0991213 C64.2400823,33.9632977 62.1007203,36.6652602 58.2365439,36.6652602 C52.7178781,36.6652602 50.9412453,32.8010837 50.263904,26.7309216 C49.77533,22.0709617 48.4872712,18.5139947 47.3842783,16.8632067 C52.3477463,16.9816489 55.5345814,15.878656 59.5246027,18.761983 C63.0778683,21.0308912 64.2400823,26.2423475 64.2400823,30.0991213" id="Shape" fill="#003973" fill-rule="nonzero"></path>
                    <polygon id="Path" fill="#003973" fill-rule="nonzero" points="56.3340662 89.3202159 72.6420751 89.3202159 72.6420751 103.725747 2.13936204 103.725747 2.13936204 89.3202159 40.5183326 89.3202159 20.5312132 71.6686284 20.5312132 53.9504171 40.8255421 73.3823388 72.6420751 53.5210642 72.6420751 70.6211553 50.5711134 83.5609644 56.3340662 89.3202159"></polygon>
                    <path d="M36.3469468,115.988215 L36.3469468,130.086537 C30.6469164,131.685506 29.4847025,134.195 29.4847025,140.261461 C29.4847025,146.024414 31.2613353,149.089106 34.7553799,149.089106 C36.3469468,149.089106 37.9459163,147.253252 38.7416998,143.329854 C39.7225492,139.343534 40.8255421,135.297993 41.6213255,130.886022 C43.5238032,122.239742 46.9549253,114.392947 56.3340662,114.392947 C69.0851081,114.392947 74.0485761,124.815859 74.0485761,138.669894 C74.0485761,150.806517 70.0659575,165.030684 56.3340662,165.030684 L56.3340662,150.503009 C61.0532472,150.503009 63.6922872,146.335325 63.6922872,138.118398 C63.6922872,135.17585 63.2592329,128.617113 58.354986,128.617113 C56.6375743,128.617113 55.0460074,130.886022 54.2465226,134.687276 C53.147231,138.917883 52.1663817,143.329854 51.3668969,147.438318 C49.1609111,155.773687 45.9111536,162.824698 36.5949351,162.946842 C24.0918815,163.009764 18.9396463,152.035355 18.9396463,140.879581 C18.9396463,125.367356 24.7025991,116.846921 36.3469468,115.988215" id="Path" fill="#003973" fill-rule="nonzero"></path>
                    <path d="M36.5949351,174.346902 L72.6420751,174.346902 L72.6420751,188.693213 L41.010608,188.693213 C35.4290198,188.693213 30.4618505,190.103415 30.4618505,198.257419 C30.4618505,205.552718 35.6770082,209.720402 42.6021749,209.720402 L72.6420751,209.720402 L72.6420751,223.944569 L20.5312132,223.944569 L20.5312132,210.516186 L28.1966436,210.516186 L28.1966436,210.153457 C22.1264815,206.348501 18.9396463,200.833537 18.9396463,193.601161 C18.9396463,182.867337 25.2577968,174.346902 36.5949351,174.346902" id="Path" fill="#003973" fill-rule="nonzero"></path>
                    <path d="M74.0485761,258.947937 C74.0485761,246.933458 69.6366046,238.3501 57.5629039,234.978199 L57.5629039,249.509575 C61.7305884,250.978999 63.0778683,254.776551 63.2037132,258.947937 C63.2592329,266.243236 60.0723978,271.576836 50.5711134,271.576836 L50.5711134,234.178714 C38.5566339,233.567997 18.9396463,237.550616 18.9396463,260.054631 C18.9396463,276.969657 29.6660671,285.982367 45.4225795,285.982367 C64.8545012,285.982367 74.0485761,276.481083 74.0485761,258.947937 M41.6213255,270.840273 C34.2668058,269.981567 30.4618505,266.916876 30.4618505,260.110151 C30.4618505,253.37005 35.1847328,250.549646 41.6213255,249.509575 L41.6213255,270.840273 Z" id="Shape" fill="#003973" fill-rule="nonzero"></path>
                    <polygon id="Path" fill="#003973" fill-rule="nonzero" points="20.5312132 288.924915 72.6420751 308.849112 72.6420751 323.991206 20.5312132 343.545271 20.5312132 327.548173 56.0897792 316.203632 20.5312132 304.433439 20.5312132 288.924915"></polygon>
                    <path d="M74.0485761,374.136667 C74.0485761,357.647294 64.4880707,345.814179 46.5884948,345.814179 C28.6852177,345.814179 18.9396463,357.769437 18.9396463,374.136667 C18.9396463,390.503897 29.1737917,402.029803 46.5884948,402.029803 C64.0550164,402.029803 74.0485761,390.629742 74.0485761,374.136667 M62.6485154,374.136667 C62.6485154,385.23322 54.0688593,387.131996 46.5884948,387.131996 C39.1710527,387.131996 30.4618505,384.678022 30.4618505,374.136667 C30.4618505,363.595313 39.2302738,360.652765 46.5884948,360.652765 C53.9430145,360.652765 62.6485154,363.16596 62.6485154,374.136667" id="Shape" fill="#003973" fill-rule="nonzero"></path>
                    <rect id="Rectangle" fill="#003973" x="2.13936204" y="412.389793" width="70.4990117" height="14.3463102"></rect>
                    <path d="M51.3668969,498.523174 L51.3668969,483.932577 C60.4425296,483.932577 62.8335813,475.167855 62.6485154,468.238987 C62.5263719,462.228046 61.5455225,452.726761 53.7579486,452.726761 C49.8937722,452.726761 46.5255724,455.550867 44.811862,466.210664 C43.7088691,473.080311 41.8063914,479.761191 39.5374833,486.567915 C36.8429234,494.658998 29.7882106,497.357259 22.3115474,497.357259 C6.49211249,497.357259 0.547795125,483.318158 0.547795125,469.219836 C0.547795125,448.377712 12.5030536,440.834425 23.4737614,440.345851 L23.4737614,455.180735 C14.7719618,455.913596 12.5622747,462.538956 12.5622747,470.385751 C12.5622747,476.267146 14.6498183,483.133092 21.330698,483.133092 C26.4200108,483.133092 27.8302131,479.642749 28.6852177,475.289998 L32.8529022,457.449644 C35.8583728,444.513536 40.1482008,437.832656 51.8591722,437.832656 C67.9821152,437.832656 74.662995,451.32026 74.662995,467.010149 C74.662995,483.318158 69.0221857,498.523174 51.3668969,498.523174" id="Path" fill="#003973" fill-rule="nonzero"></path>
                    <path d="M559.565317,496.202447 L524.743314,396.892373 L501.269552,396.892373 L466.443847,496.202447 L487.719026,496.202447 L494.703413,475.482467 L531.057763,475.482467 L537.250068,496.202447 L559.565317,496.202447 Z M525.113445,458.504519 L500.222079,458.504519 L512.669613,419.881262 L513.039745,419.881262 L525.113445,458.504519 Z" id="Shape" fill="#003973" fill-rule="nonzero"></path>
                    <polygon id="Path" fill="#003973" fill-rule="nonzero" points="446.401208 414.732728 446.401208 496.202447 428.072279 496.202447 428.072279 414.732728 397.543805 414.732728 397.543805 396.892373 476.011755 397.199582 476.011755 414.917794 446.401208 414.732728"></polygon>
                    <path d="M375.047192,379.973647 L358.431973,379.973647 L348.993612,391.070199 L339.488626,379.973647 L322.814186,379.973647 L336.486857,395.848601 C321.526128,398.854072 308.775086,407.618794 308.775086,425.459149 C308.775086,438.5174 314.600961,446.056985 324.102245,449.613952 C333.910739,453.226439 343.045593,454.947552 353.401882,457.090616 C370.753662,460.521738 372.65614,464.57098 372.65614,469.660293 C372.65614,477.810596 365.175776,482.226269 350.463035,482.226269 C335.750294,482.226269 328.088565,475.730455 328.088565,466.284691 L307.183519,466.284691 C307.183519,491.853398 329.865198,499.148697 352.058303,499.148697 C369.528526,499.148697 393.864695,492.523337 393.864695,467.084175 C393.864695,450.161748 385.832834,444.953993 365.912338,440.297734 L340.288111,434.408936 C334.095805,432.81737 329.191558,431.285024 329.191558,423.926803 C329.191558,414.732728 339.240638,411.727257 347.398343,411.727257 C361.744653,411.727257 368.177545,417.49021 369.099173,426.928572 L390.433572,426.928572 C390.433572,419.144699 385.040752,400.079208 361.744653,395.848601 L375.047192,379.973647 L375.047192,379.973647 Z" id="Path" fill="#003973" fill-rule="nonzero"></path>
                    <path d="M298.355874,447.407967 C298.355874,414.791949 276.351536,393.827681 251.09374,393.827681 C225.835943,393.827681 203.70576,416.81657 203.70576,447.407967 C203.70576,477.995662 226.021009,500.003701 251.09374,500.003701 C276.044327,500.003701 298.355874,479.835217 298.355874,447.407967 M278.983174,447.345044 C278.983174,464.508058 269.300525,482.5927 250.78653,482.5927 C232.209613,482.5927 223.196903,464.937411 223.196903,447.345044 C223.196903,429.626833 232.394679,411.238683 250.78653,411.238683 C269.17468,411.238683 278.983174,430.119108 278.983174,447.345044" id="Shape" fill="#003973" fill-rule="nonzero"></path>
                    <path d="M195.796043,429.256701 C195.796043,409.765558 185.006699,396.892373 166.370561,396.892373 L123.705464,396.892373 L123.705464,496.202447 L141.482896,496.202447 L141.482896,460.710505 L165.574778,460.710505 C183.107923,460.710505 195.796043,448.140828 195.796043,429.256701 M179.432514,428.708906 C179.432514,440.297734 169.864606,443.603011 163.920288,443.603011 L141.482896,443.603011 L141.482896,413.992464 L163.983211,413.992464 C169.313109,413.992464 179.432514,417.120078 179.432514,428.708906" id="Shape" fill="#003973" fill-rule="nonzero"></path>
                    <rect id="Rectangle" fill="#003973" x="123.58332" y="3.0350811" width="433.961077" height="344.093066"></rect>
                    <path d="M340.528696,114.359635 C365.297919,114.359635 385.651469,134.528119 385.651469,159.419485 C385.651469,184.244228 365.297919,204.534855 340.528696,204.534855 C315.703954,204.534855 295.476249,184.244228 295.476249,159.419485 C295.476249,134.528119 315.703954,114.359635 340.528696,114.359635 M142.400823,22.5891463 C143.811025,61.7009779 159.075263,103.633214 180.472584,142.071406 C227.42751,226.790883 284.316774,257.137993 340.528696,257.137993 C394.294048,257.137993 438.250905,213.240356 438.250905,159.356563 C438.250905,105.409847 394.294048,61.5751331 340.473177,61.5751331 C312.332053,61.5751331 286.341395,73.5970153 268.623184,92.7180262 C271.014235,110.19195 274.386136,125.271122 278.805511,138.755025 C287.318543,113.441708 312.272832,94.9906357 340.473177,94.9906357 C375.905898,94.9906357 404.898325,123.801698 404.898325,159.356563 C404.898325,194.911427 375.905898,223.911257 340.473177,223.911257 C264.392577,223.966777 243.73922,114.056127 243.428309,22.5891463 L142.400823,22.5891463 Z M265.743558,69.2442648 C285.852821,52.3810581 312.272832,41.6546374 340.473177,41.6546374 C391.71793,41.6546374 435.489721,75.0035163 452.286304,122.757926 C461.724666,112.338715 484.469268,62.9890367 488.455588,22.5891463 L263.47465,22.5891463 C263.108219,39.0785198 263.966925,54.7721098 265.743558,69.2442648 M538.786116,22.5891463 L508.072575,22.5891463 C501.454618,78.0089868 477.48488,127.658472 457.619904,151.387624 C457.619904,153.101335 457.742048,157.824217 457.742048,159.419485 C457.742048,180.387454 452.164161,200.245027 442.659175,217.045312 C491.090927,175.601649 537.679421,88.7946286 538.786116,22.5891463 M538.112476,106.087188 C516.348723,165.856078 481.097367,214.528415 438.373048,244.446172 L538.112476,304.033697 L538.112476,106.087188 Z M143.137386,106.575762 L143.137386,304.218763 L242.81389,244.568315 C200.211715,214.776403 164.841917,166.100365 143.137386,106.575762 M418.693138,256.582795 L538.112476,327.574082 L143.137386,327.574082 L262.4938,256.464353 C286.707825,269.581825 313.127836,276.692058 340.528696,276.692058 C368.055401,276.692058 394.479113,269.459682 418.693138,256.582795" id="Shape" fill="#FABB00" fill-rule="nonzero"></path>
                </g>
            </g>
        </g>
    </g>
</svg>