<?xml version="1.0" encoding="UTF-8"?>
<svg width="980px" height="680px" viewBox="0 0 980 680" version="1.1" xmlns="http://www.w3.org/2000/svg" xmlns:xlink="http://www.w3.org/1999/xlink">
    <title>SM Poste San Marino</title>
    <defs>
        <linearGradient x1="50%" y1="0%" x2="50%" y2="100%" id="linearGradient-1">
            <stop stop-color="#FFFFFF" offset="0%"></stop>
            <stop stop-color="#EDEDED" offset="100%"></stop>
        </linearGradient>
        <rect id="path-2" x="0" y="0" width="900" height="600" rx="80"></rect>
        <filter x="-6.7%" y="-10.0%" width="113.3%" height="120.0%" filterUnits="objectBoundingBox" id="filter-3">
            <feMorphology radius="2.5" operator="dilate" in="SourceAlpha" result="shadowSpreadOuter1"></feMorphology>
            <feOffset dx="0" dy="0" in="shadowSpreadOuter1" result="shadowOffsetOuter1"></feOffset>
            <feGaussianBlur stdDeviation="17.5" in="shadowOffsetOuter1" result="shadowBlurOuter1"></feGaussianBlur>
            <feColorMatrix values="0 0 0 0 0   0 0 0 0 0   0 0 0 0 0  0 0 0 0.5 0" type="matrix" in="shadowBlurOuter1"></feColorMatrix>
        </filter>
    </defs>
    <g id="SM-Poste-San-Marino" stroke="none" stroke-width="1" fill="none" fill-rule="evenodd">
        <g transform="translate(40, 40)">
            <g id="Rectangle">
                <use fill="black" fill-opacity="1" filter="url(#filter-3)" xlink:href="#path-2"></use>
                <use fill="url(#linearGradient-1)" fill-rule="evenodd" xlink:href="#path-2"></use>
            </g>
            <g id="Logo" transform="translate(50.0303, 175.4219)" fill="#0B6FAE" fill-rule="nonzero">
                <g id="g3688" transform="translate(400, 124.4344) scale(-1, 1) rotate(-180) translate(-400, -124.4344)translate(0, 0)">
                    <g id="g3933" transform="translate(0, 0)">
                        <g id="g3698" transform="translate(3.9763, 141.0083)">
                            <polygon id="path3700" points="0 0 247.212657 0 247.212657 105.586433 0 105.586433"></polygon>
                        </g>
                        <g id="g3702" transform="translate(306.9321, 140.9341)">
                            <g id="g3704-Clipped" transform="translate(0, -0)">
                                <g id="g3704" transform="translate(-0, -0)">
                                    <g id="g3710" transform="translate(-0, 0)">
                                        <path d="M41.0619973,53.2135535 C46.0405325,53.2135535 49.9600371,54.4472695 52.7768399,56.9474549 C55.5936427,59.4258047 57.0129619,62.7884995 57.0129619,67.0355393 L57.0129619,67.3521567 C57.0129619,71.9158139 55.5936427,75.3876871 52.7768399,77.7677763 C49.9600371,80.1478655 46.0077789,81.3269923 40.9200654,81.3269923 L27.8514106,81.3269923 L27.8514106,53.2135535 L41.0619973,53.2135535 Z M0,105.826626 L43.0708799,105.826626 C49.3923094,105.826626 55.1460113,104.99687 60.3101497,103.337358 C65.4742882,101.666929 69.8850956,99.2650038 73.5207365,96.0660766 C77.1563773,92.899903 79.9622622,88.9913161 81.9274735,84.3621519 C83.8926847,79.7329876 84.8643725,74.4815064 84.8643725,68.6404618 L84.8643725,68.3347623 C84.8643725,62.0788398 83.7944242,56.5871662 81.6436096,51.8488235 C79.4818772,47.1213987 76.490389,43.136387 72.6582271,39.9156241 C68.836983,36.6839433 64.2624079,34.2601828 58.9454197,32.6552603 C53.6393493,31.0394199 47.8638118,30.2314997 41.6406428,30.2314997 L27.8514106,30.2314997 L27.8514106,0 L0,0 L0,105.826626 Z" id="path3712"></path>
                                    </g>
                                </g>
                            </g>
                        </g>
                        <g id="g3714" transform="translate(400.1357, 138.817)">
                            <g id="g3716-Clipped" transform="translate(0, 0)">
                                <g id="g3716" transform="translate(0, 0)">
                                    <g id="g3722" transform="translate(-0, 0)">
                                        <path d="M54.2179948,26.453927 C58.0610746,26.453927 61.5657013,27.2181758 64.731875,28.7248378 C67.8980487,30.2314997 70.5947553,32.2731359 72.800159,34.8497462 C75.0055627,37.4154386 76.7305815,40.4178447 77.9752153,43.8569644 C79.2307669,47.2633306 79.8530838,50.8989714 79.8530838,54.7311333 L79.8530838,55.0368329 C79.8530838,58.858077 79.2307669,62.4827999 77.9752153,65.9219196 C76.7305815,69.3392036 74.9509735,72.3743632 72.6582271,74.9837271 C70.3545628,77.6040087 67.603267,79.7002341 64.4480112,81.2614852 C61.2709197,82.8227364 57.7662929,83.597903 53.9232131,83.597903 C50.0910512,83.597903 46.6082602,82.8554899 43.4966757,81.3488279 C40.3741734,79.8203303 37.6774668,77.7786942 35.4174739,75.2130017 C33.1683988,72.6363914 31.4324622,69.6449032 30.2424176,66.2276191 C29.0414551,62.7994173 28.4409739,59.1637765 28.4409739,55.3316145 L28.4409739,55.0368329 C28.4409739,51.1937531 29.052373,47.5690301 30.2970068,44.1408283 C31.5634763,40.7126264 33.3103307,37.6993025 35.5703236,35.0790208 C37.8193987,32.4587392 40.537941,30.3625138 43.7041146,28.8012627 C46.8702883,27.2400115 50.3858329,26.453927 54.2179948,26.453927 M53.999638,0 C46.2479714,0 39.0749504,1.44115492 32.4587392,4.30162907 C25.8534458,7.18393891 20.1543332,11.0816079 15.3723191,16.0273895 C10.5684694,20.9622533 6.81273234,26.7596265 4.09419011,33.4085913 C1.36473004,40.0684738 0,47.1759879 0,54.7311333 L0,55.0368329 C0,62.5919783 1.36473004,69.721328 4.09419011,76.424882 C6.81273234,83.1284359 10.6230586,88.9694805 15.514251,93.9589335 C20.3945256,98.9483865 26.1482275,102.878809 32.742603,105.750201 C39.3478964,108.632511 46.5318353,110.05183 54.2944197,110.05183 C62.0460863,110.05183 69.2300252,108.632511 75.8353186,105.750201 C82.440612,102.878809 88.1397246,98.9702221 92.9217386,94.0353583 C97.7146705,89.1004945 101.45949,83.2922035 104.199868,76.6541566 C106.929328,70.0051919 108.294058,62.8976779 108.294058,55.3316145 L108.294058,55.0368329 C108.294058,47.4598517 106.929328,40.3414198 104.199868,33.6487837 C101.45949,26.9233941 97.6600813,21.0932674 92.7798067,16.1038144 C87.8995321,11.1034436 82.1567481,7.18393891 75.5405369,4.30162907 C68.9461614,1.44115492 61.7513046,0 53.999638,0" id="path3724"></path>
                                    </g>
                                </g>
                            </g>
                        </g>
                        <g id="g3726" transform="translate(515.3155, 139.1131)">
                            <g id="g3728-Clipped" transform="translate(0, 0)">
                                <g id="g3734" transform="translate(-0, -0)">
                                    <path d="M47.1213987,0 C38.1032626,0 29.5655115,1.48482628 21.4753918,4.41080747 C13.3852722,7.36954219 6.22316896,11.7694318 0,17.6432299 L15.5251689,37.1970818 C25.5695819,28.7248378 36.432833,24.4996336 48.12584,24.4996336 C51.8488235,24.4996336 54.6983798,25.1219505 56.6635911,26.38842 C58.6288023,27.6330538 59.6223258,29.4235796 59.6223258,31.7381617 L59.6223258,32.0438612 C59.6223258,33.1465631 59.3602976,34.1400866 58.8908305,34.9916781 C58.3995277,35.8432696 57.5261004,36.6730255 56.2377953,37.4700278 C54.9494901,38.277948 53.2135535,39.0531147 51.062739,39.8064457 C48.9010066,40.5706945 46.1060395,41.3458611 42.656002,42.1537813 C37.2953424,43.4639222 32.3168072,44.8941592 27.7313143,46.4663282 C23.1349036,48.0057437 19.1280562,50.0255442 15.7435257,52.4820582 C12.3371595,54.960408 9.64045297,58.0283211 7.68615956,61.6967154 C5.71003047,65.3651098 4.74926052,69.9178492 4.74926052,75.3549336 L4.74926052,75.6606331 C4.74926052,80.5845791 5.62268774,85.1154828 7.40229571,89.2424265 C9.17098584,93.3584522 11.758514,96.9395039 15.1539623,99.9637456 C18.5603285,102.97707 22.6545186,105.30257 27.4365326,106.962081 C32.2294645,108.621593 37.6337954,109.473185 43.6713611,109.473185 C52.2855371,109.473185 59.9607788,108.272222 66.718922,105.881215 C73.4770651,103.501126 79.56922,99.9855813 85.0281401,95.3127457 L71.1078938,74.5360956 C66.4896473,77.9642974 61.794976,80.5627434 56.9583727,82.3205157 C52.1217695,84.078288 47.4489339,84.9735509 42.9617015,84.9735509 C39.5880889,84.9735509 37.0769856,84.3184805 35.4174739,83.0083397 C33.7252086,81.6981988 32.8954528,80.0932763 32.8954528,78.1717364 L32.8954528,77.8769547 C32.8954528,76.6650745 33.1574809,75.6169618 33.6815373,74.6998632 C34.2165114,73.8046003 35.1117743,72.9748444 36.4109973,72.2105956 C37.7102203,71.4572646 39.4789105,70.7039337 41.7279856,69.9506027 C43.9770607,69.1972717 46.826617,68.422105 50.2766545,67.6141849 C56.0303563,66.2931262 61.2054126,64.7646285 65.8564126,63.0068563 C70.4964947,61.2600018 74.437835,59.1091873 77.7022693,56.598084 C80.9667035,54.0869808 83.4559711,51.0409033 85.170072,47.4707695 C86.9060086,43.9006358 87.7576002,39.6426781 87.7576002,34.7187321 L87.7576002,34.4130326 C87.7576002,28.9868659 86.7749946,24.1502627 84.8097833,19.9250585 C82.8554899,15.6998543 80.0932763,12.096967 76.5558961,9.12731448 C73.0185158,6.16857976 68.7496403,3.90858682 63.7820229,2.33641782 C58.8034878,0.7860845 53.2463071,0 47.1213987,0" id="path3736"></path>
                                </g>
                            </g>
                        </g>
                        <g id="g3738" transform="translate(610.958, 140.9406)">
                            <g id="g3740" transform="translate(0, 0)">
                                <g id="g3746" transform="translate(-0, 0)">
                                    <polygon id="path3748" points="30.1769105 80.1260298 0 80.1260298 0 105.826626 88.1943138 105.826626 88.1943138 80.1260298 58.0283211 80.1260298 58.0283211 0 30.1769105 0"></polygon>
                                </g>
                            </g>
                        </g>
                        <g id="g3750" transform="translate(711.3607, 140.9407)">
                            <g id="g3758" transform="translate(-0, 0)">
                                <polygon id="path3760" points="0 105.826626 80.7155932 105.826626 80.7155932 80.8793608 27.4365326 80.8793608 27.4365326 64.8519713 75.6933867 64.8519713 75.6933867 41.7279856 27.4365326 41.7279856 27.4365326 24.9363472 81.4361707 24.9363472 81.4361707 0 0 0"></polygon>
                            </g>
                        </g>
                        <g id="g3762" transform="translate(-0, 0.2544)">
                            <g id="g3764-Clipped" transform="translate(0, 0)">
                                <g id="g3764" transform="translate(0, 0)">
                                    <g id="g3770" transform="translate(0, -0)">
                                        <path d="M34.7733213,0 C27.8732462,0 21.6391594,1.22279811 16.0928966,3.63564081 C10.5357159,6.0703192 5.18597413,9.69504217 0,14.5425633 L4.19245067,19.5975233 C6.58345769,17.2611055 8.94171119,15.2740586 11.278129,13.5708755 C13.6254647,11.8895281 16.0273895,10.4920445 18.4948214,9.433014 C20.9513355,8.34122997 23.5388636,7.52239195 26.2574059,6.9655821 C28.9759481,6.38693656 31.9346828,6.11399056 35.13361,6.11399056 C38.3434551,6.11399056 41.3021898,6.56162201 44.020732,7.47872059 C46.7174386,8.3739835 49.0320207,9.62953513 50.9208071,11.2453755 C52.8095934,12.8393802 54.2835019,14.7500022 55.3534502,16.9444881 C56.4233986,19.1498919 56.9583727,21.5408989 56.9583727,24.1502627 L56.9583727,24.4122909 C56.9583727,26.8251336 56.6090019,28.9977838 55.8993422,30.897488 C55.2115183,32.7971922 53.9450488,34.522211 52.089016,36.0834621 C50.243901,37.6447133 47.7546334,39.0531147 44.6321311,40.2977485 C41.5096287,41.5533001 37.4700278,42.6996733 32.5460819,43.747786 C27.3601077,44.8614057 22.9274646,46.1824644 19.2263167,47.7000442 C15.5360867,49.217624 12.5227628,50.9863141 10.1645093,53.0279502 C7.82809148,55.0586685 6.11399056,57.416922 5.06587789,60.0917929 C3.9850117,62.7666638 3.45003753,65.8454947 3.45003753,69.3064501 L3.45003753,69.5575604 C3.45003753,72.9311731 4.14877931,76.0755111 5.5571807,78.9687388 C6.94374642,81.8619664 8.87620415,84.3949054 11.3436361,86.5566377 C13.8219858,88.7183701 16.7261313,90.4215532 20.099744,91.6225156 C23.4624388,92.8343959 27.1635866,93.445795 31.1813518,93.445795 C37.4372743,93.445795 42.8416053,92.5396142 47.4052625,90.7163349 C51.9689197,88.9039734 56.4233986,86.130842 60.7796168,82.4187763 L56.7072624,77.0908702 C52.6021545,80.8138538 48.464293,83.4559711 44.3264315,85.0063044 C40.1776522,86.5566377 35.7122556,87.3427222 30.9411594,87.3427222 C27.7422322,87.3427222 24.8490045,86.884173 22.2505585,85.9670744 C19.6739482,85.0827293 17.4467088,83.8380955 15.5906759,82.2877622 C13.7455609,80.726511 12.3262417,78.9141496 11.3436361,76.8288421 C10.3501126,74.7544524 9.85880977,72.5490487 9.85880977,70.2126308 L9.85880977,69.9615205 C9.85880977,67.5268421 10.2190985,65.3432741 10.9178403,63.3998985 C11.6056642,61.4565229 12.8939694,59.6878328 14.7390844,58.0719925 C16.5841994,56.4889056 19.1498919,55.025915 22.4361618,53.7376099 C25.7115139,52.4383869 29.9148824,51.2265066 35.0135138,50.1019691 C45.047009,47.9402367 52.2746193,44.8941592 56.7072624,40.9528189 C61.1508234,37.0114786 63.367145,31.716326 63.367145,25.0564434 L63.367145,24.7944153 C63.367145,21.1587745 62.6356497,17.8069975 61.2054126,14.7500022 C59.7751755,11.6711713 57.7881286,9.05088959 55.298861,6.90007506 C52.7877578,4.72742484 49.7853517,3.0351596 46.2916428,1.83419717 C42.7979339,0.622316896 38.9548541,0 34.7733213,0" id="path3772"></path>
                                    </g>
                                </g>
                            </g>
                        </g>
                        <g id="g3774" transform="translate(74.5798, 1.5669)">
                            <g id="g3782" transform="translate(0, 0)">
                                <path d="M65.8454947,31.5307227 L43.1473048,84.0892058 L20.3399364,31.5307227 L65.8454947,31.5307227 Z M40.1885701,91.4805837 L46.3680677,91.4805837 L86.5457199,0 L79.5255486,0 L68.5422013,25.42765 L17.6323121,25.42765 L6.67080041,0 L0,0 L40.1885701,91.4805837 Z" id="path3784"></path>
                            </g>
                        </g>
                        <g id="g3794" transform="translate(179.3683, 1.5624)">
                            <polygon id="path3796" points="0 90.8364311 6.03756568 90.8364311 65.5725487 11.8021853 65.5725487 90.8364311 71.7520463 90.8364311 71.7520463 0 66.9372788 0 6.16857976 80.7155932 6.16857976 0 0 0"></polygon>
                        </g>
                        <g id="g3798" transform="translate(307.0873, 1.5624)">
                            <g id="g3806" transform="translate(0, 0)">
                                <polygon id="path3808" points="0 90.8364311 6.03756568 90.8364311 40.6798729 37.1097391 75.3221801 90.8364311 81.3706636 90.8364311 81.3706636 0 74.9509735 0 74.9509735 78.8923139 40.7890513 26.6067768 40.3086663 26.6067768 6.16857976 78.8923139 6.16857976 0 0 0"></polygon>
                            </g>
                        </g>
                        <g id="g3810" transform="translate(404.2178, 1.5669)">
                            <g id="g3812-Clipped" transform="translate(0, 0)">
                                <g id="g3812" transform="translate(0, 0)">
                                    <g id="g3818" transform="translate(0, 0)">
                                        <path d="M65.8345769,31.5307227 L43.1582226,84.0892058 L20.3399364,31.5307227 L65.8345769,31.5307227 Z M40.1885701,91.4805837 L46.3571498,91.4805837 L86.5457199,0 L79.5255486,0 L68.5531191,25.42765 L17.6323121,25.42765 L6.67080041,0 L0,0 L40.1885701,91.4805837 Z" id="path3820"></path>
                                    </g>
                                </g>
                            </g>
                        </g>
                        <g id="g3822" transform="translate(504.0855, 1.5646)">
                            <g id="g3824-Clipped" transform="translate(0, -0)">
                                <g id="g3824" transform="translate(0, -0)">
                                    <g id="g3830" transform="translate(0, -0)">
                                        <path d="M35.5048166,43.7259503 C39.1186217,43.7259503 42.4594809,44.2063353 45.5383118,45.1561874 C48.6280606,46.1169573 51.2810958,47.4816874 53.4864995,49.2612953 C55.713739,51.0299855 57.4605934,53.2135535 58.7379807,55.7683282 C60.0044502,58.3340206 60.6486028,61.2600018 60.6486028,64.5571896 L60.6486028,64.8192177 C60.6486028,70.9877975 58.4977882,75.8353186 54.1634056,79.3945345 C49.8617766,82.9428326 43.7587038,84.7333584 35.8760232,84.7333584 L6.3978544,84.7333584 L6.3978544,43.7259503 L35.5048166,43.7259503 Z M0,90.8364311 L36.2363119,90.8364311 C41.5751358,90.8364311 46.3134785,90.0394288 50.4185864,88.4235884 C54.5346122,86.8295838 57.897307,84.6460157 60.5285065,81.8728843 C62.5810605,79.7111519 64.1750652,77.1782129 65.3214384,74.2849853 C66.4787295,71.3808398 67.057375,68.3020088 67.057375,65.0157389 L67.057375,64.7427929 C67.057375,60.9433844 66.4241403,57.5479361 65.146753,54.5673657 C63.8802835,51.5758775 62.1115934,49.010185 59.8516004,46.8484526 C57.5916075,44.6758024 54.9058188,42.928948 51.8269878,41.5860536 C48.7481569,40.2431593 45.4072977,39.3151429 41.7934926,38.8020044 L70.2563022,0 L62.1225112,0 L34.6204715,37.6337954 L34.380279,37.6337954 L6.3978544,37.6337954 L6.3978544,0 L0,0 L0,90.8364311 Z" id="path3832"></path>
                                    </g>
                                </g>
                            </g>
                        </g>
                        <g id="g3834" transform="translate(591.8092, 1.5657)">
                            <g id="g3836-Clipped" transform="translate(-0, -0)">
                                <g id="g3836" transform="translate(0, -0)">
                                    <polygon id="path3842" points="2.25453402 90.8364311 8.66330626 90.8364311 8.66330626 0 2.25453402 0"></polygon>
                                </g>
                            </g>
                        </g>
                        <g id="g3844" transform="translate(626.981, 1.5624)">
                            <g id="g3846-Clipped" transform="translate(-0, -0)">
                                <g id="g3852" transform="translate(0, -0)">
                                    <polygon id="path3854" points="0 90.8364311 6.04848352 90.8364311 65.5834666 11.8021853 65.5834666 90.8364311 71.7520463 90.8364311 71.7520463 0 66.9372788 0 6.16857976 80.7155932 6.16857976 0 0 0"></polygon>
                                </g>
                            </g>
                        </g>
                        <g id="g3856" transform="translate(713.1568, -0)">
                            <g id="g3858-Clipped" transform="translate(-0, -0)">
                                <g id="g3858" transform="translate(-0, -0)">
                                    <g id="g3864" transform="translate(0, 0)">
                                        <path d="M43.5185114,6.11399056 C48.8573353,6.11399056 53.7703634,7.16210322 58.2466779,9.28016424 C62.7229924,11.3982253 66.57699,14.3023708 69.8305064,17.9816829 C73.073105,21.6500773 75.6060439,25.9626242 77.4184054,30.897488 C79.2307669,35.821434 80.1369477,41.1056687 80.1369477,46.7174386 L80.1369477,46.9794667 C80.1369477,52.5912366 79.2089312,57.897307 77.3638162,62.8758422 C75.5077834,67.8434595 72.9639266,72.1887599 69.7104102,75.8462364 C66.4678116,79.5364664 62.5810605,82.4515298 58.0610746,84.6023443 C53.5410887,86.7749946 48.6171428,87.8558607 43.267401,87.8558607 C37.9285771,87.8558607 33.015549,86.8077481 28.5392345,84.6678514 C24.0520021,82.5497904 20.1980045,79.6565627 16.955406,75.9881684 C13.7018896,72.3088562 11.1798684,68.0072271 9.36750696,63.0723633 C7.55514547,58.1374995 6.65988257,52.8641826 6.65988257,47.2414949 L6.65988257,46.9794667 C6.65988257,41.3676968 7.57698116,36.0616264 9.433014,31.0830913 C11.278129,26.1045561 13.8219858,21.7920092 17.0755022,18.1017792 C20.3071829,14.4333849 24.1939341,11.5074037 28.7248378,9.35658912 C33.2448237,7.19485675 38.1687696,6.11399056 43.5185114,6.11399056 M43.267401,0 C36.6839433,0 30.7555561,1.27738731 25.4604035,3.83216194 C20.1543332,6.38693656 15.6125116,9.79330273 11.8349389,14.0949318 C8.04644829,18.3747252 5.13138493,23.3205068 3.07883096,28.9541124 C1.01535915,34.5658823 0,40.4942696 0,46.7174386 L0,46.9794667 C0,53.2026357 1.04811267,59.1528586 3.144338,64.8301356 C5.24056333,70.4855769 8.17746237,75.4968655 11.9550351,79.8094125 C15.7435257,84.143795 20.2853472,87.5719969 25.635089,90.1267715 C30.9848307,92.6815461 36.9459715,93.9480156 43.5185114,93.9480156 C50.0146263,93.9480156 55.9211779,92.6815461 61.2600018,90.1267715 C66.5988257,87.5719969 71.1734008,84.1547129 74.9509735,79.8749195 C78.7285463,75.5951261 81.6545275,70.6384266 83.6961636,65.0157389 C85.7596354,59.3930511 86.7859124,53.4755817 86.7859124,47.2414949 C86.8623373,47.1541522 86.8623373,47.0668095 86.7859124,46.9794667 C86.7859124,40.7453799 85.7377997,34.795157 83.6415744,29.1397157 C81.5453491,23.4733566 78.60845,18.4729858 74.8308773,14.149521 C71.0423867,9.82605625 66.4678116,6.38693656 61.0743985,3.83216194 C55.7028211,1.27738731 49.763516,0 43.267401,0" id="path3866"></path>
                                    </g>
                                </g>
                            </g>
                        </g>
                    </g>
                </g>
            </g>
        </g>
    </g>
</svg>