<?xml version="1.0" encoding="UTF-8"?>
<svg width="980px" height="680px" viewBox="0 0 980 680" version="1.1" xmlns="http://www.w3.org/2000/svg" xmlns:xlink="http://www.w3.org/1999/xlink">
    <title>SV Correo El Salvador</title>
    <defs>
        <linearGradient x1="50%" y1="0%" x2="50%" y2="100%" id="linearGradient-1">
            <stop stop-color="#FFFFFF" offset="0%"></stop>
            <stop stop-color="#EDEDED" offset="100%"></stop>
        </linearGradient>
        <rect id="path-2" x="0" y="0" width="900" height="600" rx="80"></rect>
        <filter x="-6.7%" y="-10.0%" width="113.3%" height="120.0%" filterUnits="objectBoundingBox" id="filter-3">
            <feMorphology radius="2.5" operator="dilate" in="SourceAlpha" result="shadowSpreadOuter1"></feMorphology>
            <feOffset dx="0" dy="0" in="shadowSpreadOuter1" result="shadowOffsetOuter1"></feOffset>
            <feGaussianBlur stdDeviation="17.5" in="shadowOffsetOuter1" result="shadowBlurOuter1"></feGaussianBlur>
            <feColorMatrix values="0 0 0 0 0   0 0 0 0 0   0 0 0 0 0  0 0 0 0.5 0" type="matrix" in="shadowBlurOuter1"></feColorMatrix>
        </filter>
    </defs>
    <g id="SV-Correo-El-Salvador" stroke="none" stroke-width="1" fill="none" fill-rule="evenodd">
        <g transform="translate(40, 40)">
            <g id="Rectangle">
                <use fill="black" fill-opacity="1" filter="url(#filter-3)" xlink:href="#path-2"></use>
                <use fill="url(#linearGradient-1)" fill-rule="evenodd" xlink:href="#path-2"></use>
            </g>
            <g id="Logo" transform="translate(200, 50)">
                <polygon id="Fill-1" fill="#B52472" points="288.303576 250.00035 394.151438 355.848212 500.001051 250.00035 394.151438 144.152488"></polygon>
                <polygon id="Fill-2" fill="#D45C3A" points="355.849438 317.545512 394.152313 355.848387 355.849438 394.151262 317.546563 355.848387"></polygon>
                <polygon id="Fill-3" fill="#FFB400" points="144.151788 394.152138 249.99965 500 355.849263 394.152138 249.99965 288.304276"></polygon>
                <polygon id="Fill-4" fill="#5C356B" points="355.849438 105.848037 394.152313 144.150912 355.849438 182.453787 317.546563 144.150912"></polygon>
                <polygon id="Fill-5" fill="#B4AB2A" points="144.151963 317.545512 182.454838 355.848387 144.151963 394.151262 105.849088 355.848387"></polygon>
                <polygon id="Fill-6" fill="#227B57" points="144.151963 105.848037 182.454838 144.150912 144.151963 182.453787 105.849088 144.150912"></polygon>
                <polygon id="Fill-7" fill="#025586" points="250.00035 0 144.152488 105.847862 250.00035 211.697475 355.848212 105.847862"></polygon>
                <polygon id="Fill-8" fill="#6DAB24" points="0 250.00035 105.847862 355.848212 211.697475 250.00035 105.847862 144.152488"></polygon>
                <path d="M423.394775,249.999825 L250.000175,76.6052247 L76.605575,249.999825 C110.998993,284.391491 145.388907,318.783157 179.780573,353.174823 C203.188275,376.580773 226.594225,399.986723 250.000175,423.394425 C307.797791,365.596809 365.597159,307.797441 423.394775,249.999825" id="Fill-9" fill="#FFFFFF"></path>
                <g id="Group-15" transform="translate(76.6068, 162.4979)">
                    <path d="M288.578219,97.3866585 C284.201097,87.1978975 284.903469,87.7373746 280.89067,78.7151454 C279.060301,74.6025082 276.925163,70.20612 272.653134,61.4168468 C267.214575,50.2279513 266.093583,48.2889865 265.238827,46.8649771 C262.790162,42.7856193 260.632253,39.7974766 256.316436,33.8229427 C252.825599,28.9921704 251.033764,26.5259893 248.765508,24.0755721 C246.05411,21.1469821 243.845407,19.286837 239.429752,15.5630437 C235.465996,12.2228396 233.428945,10.5203339 230.64223,8.97371605 C227.682112,7.32901147 224.975969,6.3341316 222.81806,5.54067987 C221.912509,5.20788555 219.943768,4.50551437 215.267132,3.20761651 C209.868858,1.71004206 207.171472,0.960379054 204.969775,0.599559945 C198.648435,-0.437357104 193.574197,0.112629304 190.554526,0.461187569 C186.380585,0.944615112 184.014242,1.66099868 178.199099,3.20761651 C167.251918,6.11869106 171.599262,4.65089294 155.546315,8.83534367 C144.590376,11.6938718 145.287492,11.6675985 136.051574,14.0532084 C132.038775,15.0901254 126.274427,16.4983709 114.908625,19.2693215 C88.2640607,25.7693201 91.6638175,24.8357444 91.432613,24.8988002 C83.1810653,27.1670562 78.5779944,28.7679721 71.1146438,29.0184436 C66.8688888,29.1585675 63.3482752,28.8082577 60.9556592,28.4684572 L59.9940587,27.5068568 L0,87.5026671 L103.514798,191.017466 L103.51655,191.017466 L111.820644,199.323311 L118.059662,193.084293 L118.049153,193.073784 C121.091593,190.082138 124.783859,186.381115 128.91226,182.093323 C141.646022,168.870879 144.091184,165.054254 156.782909,151.75299 C167.138067,140.89864 174.527852,133.987028 179.983928,129.100206 C189.104244,120.930981 195.020977,116.445264 201.263497,112.488515 C207.392168,108.603579 212.653821,105.976255 217.463575,103.975986 C220.159209,102.856746 223.741127,101.381942 228.720781,100.133087 C233.896608,98.833438 237.961954,98.4323332 241.762815,98.0732657 C246.752978,97.602099 249.7744,97.3165965 253.981621,97.6616517 C258.328966,98.0172161 261.455481,98.8439473 266.337048,100.133087 C270.68089,101.2786 273.101531,101.931928 276.222791,103.427751 C278.151247,104.350818 278.953456,104.928829 284.046961,108.23225 C293.615674,114.436237 294.431896,114.760274 294.894305,114.409964 C296.102873,113.492152 293.54386,108.946882 288.578219,97.3866585" id="Fill-11" fill="#0A4470"></path>
                    <path d="M217.034971,62.5141922 C221.089807,58.4593561 221.088055,51.887544 217.034971,47.8327079 C212.980135,43.7796234 206.408323,43.7796234 202.353486,47.8327079 C198.300402,51.887544 198.300402,58.4593561 202.353486,62.5141922 C206.408323,66.5690283 212.980135,66.5690283 217.034971,62.5141922" id="Fill-13" fill="#DFB73E"></path>
                </g>
            </g>
        </g>
    </g>
</svg>