<?xml version="1.0" encoding="UTF-8"?>
<svg width="980px" height="680px" viewBox="0 0 980 680" version="1.1" xmlns="http://www.w3.org/2000/svg" xmlns:xlink="http://www.w3.org/1999/xlink">
    <title>TH Thailand Post text</title>
    <defs>
        <linearGradient x1="50%" y1="0%" x2="50%" y2="100%" id="linearGradient-1">
            <stop stop-color="#FFFFFF" offset="0%"></stop>
            <stop stop-color="#EDEDED" offset="100%"></stop>
        </linearGradient>
        <rect id="path-2" x="0" y="0" width="900" height="600" rx="80"></rect>
        <filter x="-6.7%" y="-10.0%" width="113.3%" height="120.0%" filterUnits="objectBoundingBox" id="filter-3">
            <feMorphology radius="2.5" operator="dilate" in="SourceAlpha" result="shadowSpreadOuter1"></feMorphology>
            <feOffset dx="0" dy="0" in="shadowSpreadOuter1" result="shadowOffsetOuter1"></feOffset>
            <feGaussianBlur stdDeviation="17.5" in="shadowOffsetOuter1" result="shadowBlurOuter1"></feGaussianBlur>
            <feColorMatrix values="0 0 0 0 0   0 0 0 0 0   0 0 0 0 0  0 0 0 0.5 0" type="matrix" in="shadowBlurOuter1"></feColorMatrix>
        </filter>
        <polygon id="path-4" points="0 5.28373934e-14 111.592109 5.28373934e-14 111.592109 135.776897 0 135.776897"></polygon>
    </defs>
    <g id="TH-Thailand-Post-text" stroke="none" stroke-width="1" fill="none" fill-rule="evenodd">
        <g transform="translate(40, 40)">
            <g id="Rectangle">
                <use fill="black" fill-opacity="1" filter="url(#filter-3)" xlink:href="#path-2"></use>
                <use fill="url(#linearGradient-1)" fill-rule="evenodd" xlink:href="#path-2"></use>
            </g>
            <g id="Logo" transform="translate(50, 78)">
                <path d="M528.510956,93.8969231 C535.002761,86.2450712 530.79387,75.5666851 526.324713,68.0040676 C513.006475,45.1451825 499.561822,22.3234785 485.388421,0 L7.40422637,0 C170.53219,33.3439299 333.94273,65.3493435 497.152492,98.4032615 C507.459068,100.068971 520.61371,102.604716 528.510956,93.8969231" id="Fill-1" fill="#2E358E"></path>
                <g id="Group-5" transform="translate(0, 231.8102)">
                    <mask id="mask-5" fill="white">
                        <use xlink:href="#path-4"></use>
                    </mask>
                    <g id="Clip-4"></g>
                    <path d="M92.3026014,18.671587 C93.7303522,6.70673795 111.004649,12.00875 111.592109,0.0662095353 C74.4036631,5.28373934e-14 37.2003443,-0.0527696972 -0.00297448081,0.0959543434 C26.0237326,5.00384769 52.4817395,7.17521868 78.5456276,11.9046432 C65.9412652,49.1897602 53.091508,86.393079 40.2863681,123.596398 C38.992469,128.861229 33.4971157,130.274107 29.0874479,131.917508 C28.5074241,133.196535 27.9348366,134.490434 27.3548128,135.776897 C38.0926885,135.732279 48.8231281,135.791769 59.56844,135.762024 C59.456897,135.100202 59.2561195,133.798867 59.1594489,133.129609 C55.9693182,130.378214 54.9208137,126.340356 56.7203746,122.458659 C68.5513721,87.865447 80.4195505,53.2424903 92.3026014,18.671587" id="Fill-3" fill="#2E358E" mask="url(#mask-5)"></path>
                </g>
                <path d="M615.948051,248.942479 C618.706882,238.769755 633.928787,243.387636 635.036781,231.891268 C597.483961,231.720235 559.931141,231.876395 522.37832,231.831778 C548.457081,236.60582 574.840726,239.557992 601.001285,243.781755 C588.813349,280.880967 575.911539,317.794274 563.366666,354.774506 C562.005841,360.292168 556.30971,361.97275 551.66952,363.79462 C551.401817,365.266988 551.14155,366.739356 550.881283,368.211724 C561.492743,367.371433 573.450156,370.925937 583.191581,366.382418 C579.428863,362.523029 577.019533,357.76386 580.150174,352.640316 C592.405035,318.188392 603.670881,283.379531 615.948051,248.942479" id="Fill-6" fill="#2E358E"></path>
                <path d="M82.4444283,325.925761 C79.3509683,335.60026 72.7104399,346.486859 78.0868139,356.540604 C84.9578646,366.683584 98.5586781,368.163388 109.817088,367.732089 C122.815569,367.940302 136.178424,362.905993 144.744929,352.911738 C150.641837,346.003506 152.664484,336.909031 155.60922,328.565612 C163.848532,304.70284 171.805268,280.75827 180.052016,256.925242 C181.472331,251.288601 186.789215,248.760292 191.756598,246.893805 C191.89045,246.008897 192.165589,244.239081 192.299441,243.354173 C181.569001,243.019544 170.82369,242.915437 160.115559,243.495461 C160.167612,244.335752 160.301464,245.994025 160.375826,246.819443 C163.424668,249.065176 166.466075,252.255307 164.495482,256.315473 C155.036633,284.513552 144.93827,312.518288 135.405059,340.716367 C131.315148,356.562913 110.293005,364.950949 96.1865297,357.321406 C89.902939,354.108966 90.8547728,346.241465 93.0856334,340.753548 C99.8228325,322.876918 105.742049,304.687968 112.516429,286.833647 C113.929308,281.65805 119.32799,280.252608 123.752531,278.691005 C123.975617,277.471468 124.228448,276.244495 124.451534,275.017522 C113.817765,274.749818 103.17656,275.017522 92.5204821,275.166246 C92.2750874,276.095771 91.7842981,277.962258 91.5389034,278.906655 C93.3087195,279.494115 95.0785356,280.096448 96.8706603,280.669035 C94.5505652,296.418911 87.144108,310.800526 82.4444283,325.925761" id="Fill-8" fill="#2E358E"></path>
                <path d="M469.573106,255.601598 C443.561272,260.524364 416.902487,261.914934 390.927834,267.179765 C417.17019,268.451355 443.472037,267.328489 469.729266,267.89364 C474.956917,267.767225 482.556715,268.785984 484.326531,262.279307 C486.572264,255.504927 490.788591,249.570838 498.239665,248.128215 C498.410698,246.492251 498.604039,244.826541 498.775072,243.198013 C488.000015,244.551402 474.934608,239.286571 465.788079,246.633538 C468.836922,248.425663 476.377231,253.400482 469.573106,255.601598" id="Fill-10" fill="#2E358E"></path>
                <path d="M556.970789,252.369825 C552.181875,255.835095 551.371329,262.230229 549.333809,267.390953 C557.10464,267.324027 564.994451,268.142009 572.735537,266.915036 C573.49403,264.899825 573.984819,262.765635 574.564843,260.683499 C572.423217,259.344982 569.842854,258.385712 568.496902,256.125107 C574.103798,254.63043 579.703258,253.254733 585.362208,251.938525 C575.947976,251.395682 566.184243,249.908442 556.970789,252.369825" id="Fill-12" fill="#2E358E"></path>
                <path d="M163.447721,361.760075 C178.007804,369.233458 195.943924,369.739119 211.158393,363.946318 C224.930239,358.926882 235.675551,345.177344 235.288869,330.267759 C234.716281,319.90913 224.803824,313.283474 215.516007,311.193901 C207.879028,309.624862 200.242048,307.565034 193.735372,303.05126 C189.965217,277.619449 237.668453,271.209442 238.806192,297.897972 C239.743154,297.994642 241.661694,298.210292 242.613528,298.321835 C244.227183,292.804173 246.391118,287.346001 246.718311,281.530891 C242.84405,276.667615 235.928382,275.931431 230.217379,274.525989 C213.062061,271.521763 192.158897,274.235977 181.220244,289.338903 C175.858742,295.823271 172.378599,306.776797 179.353757,313.357836 C189.429811,320.682495 202.993443,320.972507 213.02488,328.468198 C217.204025,331.591403 218.914352,337.555237 216.765289,342.381332 C210.437081,357.856069 189.27365,365.03944 174.728439,357.223991 C166.526308,353.208442 174.074053,337.242917 163.284124,337.711397 C162.830516,345.407866 153.282433,357.350407 163.447721,361.760075" id="Fill-14" fill="#2E358E"></path>
                <path d="M346.280877,318.918628 C341.454781,331.537862 338.115927,344.722249 332.925458,357.200196 C331.341547,362.056036 325.927992,362.688113 321.756282,364.056374 C321.562941,365.216421 321.3696,366.383905 321.183695,367.543953 C331.869517,367.491899 342.540467,367.603442 353.211417,367.566261 C353.099874,366.911875 352.854479,365.573359 352.713191,364.918973 C350.935939,362.45759 348.110182,359.914409 349.604859,356.605299 C353.256034,344.261204 358.483684,332.437643 362.313328,320.145601 C364.484699,312.15912 372.15886,308.024592 376.68007,301.636894 C375.222575,297.792378 371.541655,295.360739 369.273613,291.999576 C371.326005,285.686241 378.695281,284.057712 384.331922,282.503546 C392.221733,280.979125 401.078249,279.305979 408.603686,282.979463 C413.905698,287.270152 411.816125,295.115345 410.425555,300.811476 C405.547407,315.557464 400.074362,330.117548 395.196213,344.878409 C393.418961,350.738136 391.946593,357.415845 394.779786,363.201211 C397.43451,368.153721 403.889134,368.785798 408.878825,368.086795 C418.493834,367.194451 425.669769,360.219294 433.626506,355.512178 C430.138927,359.386439 428.279876,364.517418 424.137912,367.819092 C435.128618,368.76349 446.156506,368.570148 457.169521,368.004997 C457.169521,366.421086 457.154649,364.859484 457.169521,363.275573 C454.358637,363.082231 451.555189,362.844273 448.774049,362.621187 C452.521895,343.063976 460.917367,324.726301 466.977872,305.793731 C469.967225,298.298039 471.209071,290.01411 475.395652,283.02408 C478.994774,280.599878 483.649837,279.432395 485.583249,275.156579 C474.919735,274.636044 464.226477,274.91862 453.562963,274.926056 C453.1391,276.52484 452.692928,278.108751 452.298809,279.707534 C454.105806,280.443718 455.920239,281.187338 457.734673,281.938395 C455.005586,296.47617 448.930209,310.054675 444.669266,324.153714 C440.029076,337.814017 431.893871,353.355679 416.738891,357.051472 C411.578167,358.903086 409.072166,353.697744 410.789929,349.39962 C415.437555,332.26661 422.449894,315.832604 427.305734,298.759084 C429.01606,292.802686 429.149912,285.470591 424.398179,280.822964 C417.482511,274.056021 407.094137,273.3124 397.955044,273.706519 C385.789418,274.420395 373.229673,276.338935 362.566159,282.570472 C358.714206,285.039291 354.207868,288.482253 354.311975,293.53887 C356.542835,297.071066 360.320426,299.13833 363.577482,301.555096 C358.974473,308.597179 349.05458,310.515719 346.280877,318.918628" id="Fill-16" fill="#2E358E"></path>
                <path d="M298.642335,311.928598 C303.483303,307.935357 308.554793,304.187511 314.265796,301.555096 C313.209855,305.117037 312.205968,308.708722 311.365677,312.352461 C307.127042,312.218609 302.888407,312.092194 298.642335,311.928598 M249.013123,361.409086 C265.305842,370.927425 286.536199,369.29146 302.94046,360.866243 C316.652817,352.872326 318.779571,335.523667 323.865933,321.885672 C327.755066,321.781565 331.651636,321.647714 335.548206,321.484117 C336.433114,318.487328 337.318022,315.475666 338.20293,312.47144 C334.715351,312.337589 331.205464,312.211173 327.717885,312.092194 C331.421114,302.722579 333.309909,292.624217 338.083951,283.723083 C341.616147,280.681677 346.397625,279.134947 349.037477,275.015291 C338.455761,274.368341 327.695577,273.609849 317.151042,274.985546 C313.447814,277.878228 317.954152,281.693 321.040176,282.674579 C305.044905,293.211677 289.109124,303.956989 272.347925,313.200188 C271.366346,315.825167 270.39964,318.420402 269.432934,321.023073 C282.230638,321.387447 295.006033,321.119743 307.7963,321.194105 C304.658223,330.87604 302.167095,340.907477 297.311255,349.897845 C289.733765,360.479561 272.920513,364.056374 262.130583,356.464012 C256.300601,352.262557 258.784293,344.476854 260.487183,338.803032 C266.205622,321.96747 272.124839,305.176526 277.902768,288.355837 C279.456934,281.484786 287.361617,280.369356 291.15408,275.201196 C279.858489,275.66224 267.67799,272.494418 256.969859,276.948703 C260.256661,279.514193 264.019379,282.830739 261.900061,287.441184 C256.79139,304.075968 250.693705,320.42074 245.131426,336.891928 C242.603117,344.781738 240.684577,356.292979 249.013123,361.409086" id="Fill-18" fill="#2E358E"></path>
                <path d="M505.498142,321.619456 C516.183964,318.771391 527.13749,316.823106 538.143069,315.886144 C534.469585,327.813812 531.160475,339.972003 526.133603,351.401445 C521.90984,360.324888 510.770409,360.971837 502.203904,360.637208 C494.671032,360.674389 486.201198,355.930092 485.420396,347.80976 C484.111625,335.480537 494.232296,324.802151 505.498142,321.619456 M467.729672,350.47192 C467.900704,360.622336 477.054669,369.478852 487.227393,369.129351 C505.170949,370.95122 523.188867,361.120561 540.753176,367.604929 C544.746416,362.704472 539.831087,356.621659 542.418885,351.304775 C549.825342,330.989071 556.52536,310.450281 563.775657,290.097396 C565.203408,284.936671 569.85847,282.110915 574.379681,279.880054 C574.758928,278.102802 575.160483,276.36273 575.57691,274.600351 C565.500856,274.302903 555.387621,274.354956 545.281823,274.459063 C545.043864,275.938867 544.813342,277.418671 544.575384,278.905912 C546.151858,280.712909 549.565075,282.088606 548.918126,284.996161 C547.326778,293.354452 543.549188,301.095538 541.147294,309.223307 C528.081887,310.316429 511.908148,318.816008 500.612557,308.858933 C495.719536,293.43625 514.213371,279.010018 528.379336,286.498274 C529.189882,284.438446 529.933502,282.341437 530.409419,280.170066 C513.149994,266.234623 485.732717,282.490161 484.542925,303.081004 C484.133933,308.680465 488.699761,312.4878 492.194776,316.146411 C477.999067,321.121231 466.532443,334.937694 467.729672,350.47192" id="Fill-20" fill="#2E358E"></path>
                <path d="M601.823729,354.036835 C600.210073,361.391239 591.554334,362.357945 587.628019,368.002023 C598.797194,367.667394 611.468483,371.563963 621.663516,365.815779 C618.689035,363.912112 614.569379,361.986135 616.688696,357.80699 C621.447866,343.581535 624.972625,328.329885 634.55789,316.379908 C643.868015,304.586092 654.82154,293.62513 667.872075,286.077385 C673.679749,282.009782 684.469678,284.969391 682.149583,293.498714 C676.126259,314.37957 667.968746,334.658093 661.194366,355.330734 C659.714561,361.926646 651.623974,362.357945 648.485896,367.845862 C659.707125,367.570723 672.237126,371.236771 682.558574,365.771162 C679.829488,363.34696 675.367767,360.982248 677.524265,356.654378 C684.105304,335.052211 692.069476,313.829291 698.553845,292.204815 C701.543198,283.318554 694.523423,273.346607 684.893541,274.090227 C664.272953,271.85193 650.701885,289.41624 636.617718,301.276982 C638.223938,295.246222 639.279878,288.918014 642.432828,283.452406 C645.935279,280.66383 650.292893,278.938631 653.364045,275.517978 C642.343593,274.699996 631.285961,274.900773 620.287818,274.952827 C620.161403,275.778245 619.938317,277.421646 619.811901,278.232192 C622.823563,280.715883 625.887278,283.928322 623.849759,288.085159 C616.770495,310.155807 609.0071,332.010805 601.823729,354.036835" id="Fill-22" fill="#2E358E"></path>
                <path d="M729.125558,321.852209 C739.93036,318.79593 751.092099,317.03355 762.201785,315.501693 C758.70677,327.466542 755.018414,339.446263 750.318734,350.972376 C746.228823,360.513024 734.345772,360.944323 725.459511,360.61713 C717.547392,360.73611 709.263463,354.787148 709.159356,346.413985 C708.93627,334.806073 718.335629,324.848999 729.125558,321.852209 M692.353539,341.729177 C689.267516,351.753178 693.796163,364.208816 704.125047,367.82281 C724.507677,373.652793 745.381096,360.334555 765.525767,367.688959 C766.604017,361.829231 764.291358,355.709237 766.864284,350.109777 C774.01791,330.351788 780.465097,310.333532 787.522053,290.560671 C789.247252,283.347555 798.245056,281.860315 800,274.654635 C789.641371,274.201027 779.312486,274.334878 768.94642,274.632326 C768.805132,275.576724 768.582046,277.487828 768.455631,278.447098 C770.143649,280.484617 773.556866,282.284178 772.776064,285.370202 C771.236771,293.550024 767.474052,301.090333 765.213447,309.076814 C753.211417,311.032535 740.792959,315.464512 728.679386,311.999242 C721.786027,310.10301 723.176597,301.424962 725.459511,296.420398 C729.713018,286.09895 742.213274,282.14289 752.192657,286.299727 C753.181672,284.18041 754.170687,282.075965 755.189447,279.956647 C737.483849,267.181252 711.234056,281.153875 708.616513,301.737283 C707.560573,307.649063 711.999985,312.140529 715.725522,315.985046 C704.682762,320.71447 694.89672,329.600732 692.353539,341.729177" id="Fill-24" fill="#2E358E"></path>
                <path d="M69.6199543,382.921275 C78.1269694,383.352575 86.3514089,387.338379 87.9353199,396.49978 C88.5302161,390.25337 90.0025841,384.096195 90.4933734,377.827476 C73.9403877,377.857221 57.3279123,378.905726 40.8492886,377.098729 C37.2576031,383.597969 33.5246296,390.022848 30.2155197,396.678249 C37.3914547,389.071014 46.4041316,382.936147 57.2907313,383.092307 C53.2008202,398.738077 47.1626242,413.744332 42.5149979,429.211632 C41.2434073,434.275686 37.7483924,438.246618 33.9708018,441.652398 C40.6113302,441.585473 47.2518586,441.704452 53.9072594,441.734197 C52.6802861,438.202001 51.8548676,434.387229 53.4164701,430.80298 C58.9787492,414.90438 64.0353666,398.819875 69.6199543,382.921275" id="Fill-26" fill="#2E358E"></path>
                <path d="M778.884161,383.011996 C787.577081,383.175593 795.875882,387.280376 797.415176,396.61281 C798.091871,390.106133 799.646037,383.703563 799.861687,377.137397 C783.449989,379.301332 766.837513,377.167142 750.410943,378.111539 C745.65921,383.309445 743.52502,390.232549 740.297708,396.352543 C747.153887,388.611457 756.226053,382.811219 766.934184,383.361498 C762.591442,397.839783 757.482771,412.072674 753.013614,426.498906 C751.377649,432.180164 748.2247,437.266526 744.261204,441.616705 C750.924041,441.616705 757.572006,441.676194 764.227406,441.705939 C762.628623,438.396829 761.200872,434.730782 762.79222,431.101915 C767.886018,414.987665 773.723436,399.111374 778.884161,383.011996" id="Fill-28" fill="#2E358E"></path>
                <path d="M88.072146,423.402471 C86.3469472,430.124798 83.1865613,436.453006 78.501754,441.606294 C84.6589293,441.606294 90.8086684,441.658347 96.9807161,441.702965 C92.7420809,427.641107 103.21969,414.523646 105.993393,401.004631 C115.467114,401.093865 124.918527,401.019503 134.399685,401.056684 C129.506664,414.746732 127.90788,430.526353 117.794646,441.61373 C123.966693,441.591422 130.138741,441.658347 136.310789,441.710401 C134.964836,437.746905 134.117109,433.404163 135.790254,429.39605 C140.289157,415.84729 144.973964,402.335711 149.286961,388.697717 C150.58086,383.358523 155.243359,379.714784 160.359466,378.29447 C152.105282,377.86317 143.851097,378.108565 135.589477,377.92266 C143.285946,381.558963 138.727554,389.523135 136.838759,395.412607 C127.246058,395.672874 117.638485,395.7398 108.045785,395.390298 C109.50328,388.050767 112.626485,379.461954 121.215298,378.368832 C112.693411,377.625212 104.208704,377.86317 95.7239979,378.792695 C97.0402057,379.305793 99.665185,380.279936 100.973957,380.778161 C98.6018081,395.52415 92.1174399,409.102655 88.072146,423.402471" id="Fill-30" fill="#2E358E"></path>
                <path d="M191.565488,386.533782 C191.922426,395.672874 191.751393,404.797094 191.974479,413.943622 C187.230182,411.095557 182.039713,409.147272 176.745137,407.652596 C181.191986,400.238702 186.19655,393.263545 191.565488,386.533782 M172.692407,414.605444 C180.857357,412.679468 190.271589,419.572827 192.554503,427.603926 C194.30201,433.552887 189.059488,437.77665 185.504983,441.591422 C192.152948,441.643475 198.778604,441.702965 205.426568,441.643475 C202.585939,431.307154 203.991381,420.584151 203.463411,410.03218 C203.604699,399.324049 199.68582,387.150987 207.040224,377.944968 C200.221227,378.116001 193.379921,378.011894 186.538615,377.959841 C186.270912,382.399253 185.08112,386.823794 182.14382,390.266755 C169.427914,407.198987 158.057961,425.157415 144.605872,441.539368 C149.491457,441.561677 154.391914,441.61373 159.277499,441.755018 C156.511231,430.823801 166.669083,422.40602 172.692407,414.605444" id="Fill-32" fill="#2E358E"></path>
                <path d="M232.362723,441.69181 C231.492687,437.297015 230.741631,432.679133 232.511447,428.41819 C237.382159,414.668652 241.561305,400.666284 246.491507,386.953927 C247.882077,382.395535 252.35867,380.261345 256.173442,378.089974 C248.082854,378.142028 240.029447,377.978431 231.968604,377.889197 C233.842527,380.744698 236.355964,383.890212 234.838978,387.511642 C231.024207,400.510123 225.922972,413.10705 222.1082,426.112967 C220.546598,431.816534 217.631607,437.014439 214.010176,441.669502 C220.130171,441.617448 226.242729,441.654629 232.362723,441.69181" id="Fill-34" fill="#2E358E"></path>
                <path d="M285.320379,441.920845 C291.849365,435.109284 296.363139,426.587397 301.1,418.444756 C292.540932,427.249219 282.435133,436.618833 269.473833,437.183985 C265.495465,437.697083 260.88502,435.02005 262.580474,430.461658 C266.201904,416.511343 271.734438,403.096435 275.839222,389.272535 C277.15543,383.561532 282.234356,379.977282 287.506623,378.244647 C279.356545,378.028997 271.206468,377.976944 263.071263,377.947199 C264.707227,381.19682 267.146302,384.699271 265.62188,388.514042 C261.219649,402.464357 256.348936,416.265948 251.775672,430.179082 C250.318176,435.711617 245.782093,439.3851 240.970871,441.987771 C255.761476,441.541599 270.574391,442.38189 285.320379,441.920845" id="Fill-36" fill="#2E358E"></path>
                <path d="M342.388025,413.740614 C337.725526,410.914857 332.572238,409.063243 327.285098,407.724727 C331.791437,400.704952 336.282903,393.70005 341.964161,387.557747 C342.715218,396.265539 342.425206,405.010513 342.388025,413.740614 M336.803437,377.965046 C336.803437,382.530874 335.695443,387.089266 332.616855,390.599153 C319.796843,407.390098 308.791264,425.601356 294.93762,441.574318 C299.800896,441.566882 304.671608,441.611499 309.549757,441.70817 C307.601472,430.479505 317.513929,422.009671 323.842137,414.008317 C332.386333,413.606762 341.309775,419.674703 343.324986,428.107356 C344.693247,433.937339 339.391235,437.915707 335.821858,441.566882 C342.566494,441.641244 349.303693,441.737915 356.048328,441.611499 C352.240992,425.013896 354.73212,407.895759 353.527455,391.082507 C352.702037,385.958963 355.044441,381.42288 358.584073,377.927865 C351.32634,378.17326 344.068606,377.987355 336.803437,377.965046" id="Fill-38" fill="#2E358E"></path>
                <path d="M371.160178,427.542205 C369.717554,432.970633 366.519988,437.677748 362.623418,441.656117 C367.999792,441.55201 373.383602,441.574318 378.759976,441.737915 C377.012469,438.741125 374.722118,435.424579 376.335774,431.818021 C381.303157,416.692786 386.33003,401.567551 391.639478,386.538987 C400.116748,395.849112 409.553289,404.713065 416.022785,415.51043 C415.494814,424.954407 411.486701,433.967084 406.050838,441.641244 C410.378707,441.566882 414.684268,441.611499 418.997265,441.775096 C418.372624,437.491843 417.91158,433.007814 419.532672,428.90303 C424.135681,415.398887 428.79818,401.879872 433.088868,388.264186 C434.315842,383.311675 438.770127,380.426429 442.964144,378.158387 C435.951806,378.009663 428.946904,377.935301 421.934565,378.240186 C424.03901,379.44485 426.07653,380.783367 428.032251,382.22599 C426.210381,388.591379 424.31415,394.949332 421.867639,401.121379 C416.773841,393.781848 403.708434,387.974174 406.697787,377.823758 C398.05692,377.875812 389.401181,378.188132 380.775187,378.359165 C382.916813,380.694132 386.11438,383.177824 384.456107,386.724892 C380.462866,400.437249 375.22778,413.80754 371.160178,427.542205" id="Fill-40" fill="#2E358E"></path>
                <path d="M461.839456,395.36799 C463.43824,390.898832 464.858554,384.8532 470.242364,383.633663 C480.221748,380.993811 489.546745,390.051105 490.840644,399.480209 C492.223778,420.725439 470.725718,442.156573 449.108678,435.95478 C452.373171,422.116008 457.898269,408.976239 461.839456,395.36799 M439.396998,429.745552 C438.058482,434.779861 434.206529,438.408727 430.272778,441.554241 C441.620423,441.598858 452.975503,441.948359 464.315711,441.650911 C485.67992,441.093196 503.839125,420.27183 502.299831,399.115836 C501.623137,388.370524 492.223778,379.335538 481.642062,378.398577 C471.038038,377.379817 460.352216,378.465503 449.718447,377.892915 C451.956744,380.80047 455.087385,384.087271 453.146536,388.013586 C448.684815,401.963901 443.784358,415.765492 439.396998,429.745552" id="Fill-42" fill="#2E358E"></path>
                <path d="M574.036129,385.811727 C579.769441,382.562106 587.287441,382.881863 593.117423,385.811727 C594.574919,400.089234 576.497512,404.015549 565.930669,407.480819 C568.213583,400.178469 569.031565,391.879667 574.036129,385.811727 M548.418413,426.301847 C546.908864,432.020286 544.001309,437.247936 540.037813,441.642731 C546.135499,441.60555 552.240621,441.642731 558.323434,441.702221 C554.583024,431.886434 561.097137,422.509384 563.536212,413.23644 C578.207838,409.094475 594.961601,404.729424 604.152747,391.530166 C608.339329,386.495857 604.546866,378.420142 598.069934,378.308599 C584.751696,377.393946 571.35166,378.494504 557.988805,377.892171 C559.736312,380.524587 562.673612,383.179311 561.342532,386.674326 C557.676484,400.05949 552.240621,412.931555 548.418413,426.301847" id="Fill-44" fill="#2E358E"></path>
                <path d="M640.794633,383.509478 C647.472342,382.646879 655.28779,385.911372 657.578141,392.670879 C664.434319,411.804227 651.011974,435.369551 630.688834,438.314287 C623.089036,439.846145 615.630525,434.083088 614.180465,426.721248 C610.269023,408.636405 621.579486,386.536013 640.794633,383.509478 M670.881506,409.513877 C673.365197,401.215075 673.365197,391.146458 667.148533,384.468748 C660.158503,376.987929 648.810858,376.534321 639.359446,378.058742 C619.370934,381.538885 601.999967,398.984215 600.401183,419.49326 C599.434477,429.14545 605.130608,439.370228 614.648946,442.255474 C638.125036,448.6283 664.501245,432.744572 670.881506,409.513877" id="Fill-46" fill="#2E358E"></path>
                <path d="M680.753808,430.373911 C677.920615,426.581448 677.957796,421.614065 677.124941,417.137471 C676.879547,417.122599 676.366449,417.085418 676.12849,417.070545 C674.789974,424.856249 674.254567,432.723751 673.347351,440.546635 C680.582775,441.230766 687.706657,442.636208 694.919773,443.328315 C707.821583,443.402137 720.076444,435.794902 727.059038,425.190878 C730.792011,419.60629 731.49845,411.374415 726.434397,406.347542 C718.410735,398.784925 705.538669,400.73321 697.433209,393.259826 C697.336538,384.157915 709.561654,382.120396 716.566557,383.808414 C723.489661,384.656141 726.932622,391.043838 729.42375,396.77715 C730.360712,390.724082 731.944623,384.745375 732.294124,378.573327 C722.515518,379.792865 712.573316,376.76633 702.988052,379.443363 C694.31744,381.607298 685.007315,388.939393 685.587339,398.636201 C690.986022,411.738789 709.777304,407.938889 717.533263,418.267774 C719.548474,436.389798 690.577031,444.539876 680.753808,430.373911" id="Fill-48" fill="#2E358E"></path>
                <path d="M537.83521,49.7809109 C622.756637,33.0122753 707.730118,16.5336516 792.68129,0.00297448081 L494.296247,0.00297448081 C504.357428,15.7305418 513.585755,31.9860794 523.54283,47.7880088 C526.271916,53.6179911 533.016551,50.3981157 537.83521,49.7809109" id="Fill-50" fill="#EB2126"></path>
                <path d="M44.2320169,22.4142002 C209.494171,83.3761844 374.533239,144.947937 539.884627,205.657091 C522.171594,172.558555 504.815499,139.296424 486.968614,106.272251 C340.557232,75.9771634 193.945072,46.663655 47.4593286,16.7255056 C35.1301056,14.5541346 23.0165325,11.2747695 10.6129475,9.67598609 C21.5664731,14.5913156 33.1000225,17.9599152 44.2320169,22.4142002" id="Fill-52" fill="#BBBCBF"></path>
                <path d="M731.659816,19.8910968 C740.940196,23.0068655 749.923128,19.0954232 758.184749,15.0278207 C749.25387,16.0837614 740.337864,17.5115122 731.659816,19.8910968" id="Fill-54" fill="#BBBCBF"></path>
                <path d="M703.890063,34.8720694 C710.657007,35.3554226 716.449808,31.4737251 722.153375,28.4100099 C700.759422,27.3020158 679.105202,27.9192205 658.551539,34.5894938 C673.661902,35.0728469 688.772264,34.6638558 703.890063,34.8720694" id="Fill-56" fill="#BBBCBF"></path>
                <path d="M648.357994,49.555594 C664.20454,48.306312 682.096042,53.7867929 695.47377,42.6399261 C668.948837,43.1827688 642.409032,42.5358193 615.884099,42.9373742 C604.120028,44.1717837 592.705458,47.6370539 581.023184,49.5630302 C581.052929,49.8307335 581.104982,50.3587038 581.134727,50.6264071 C603.540004,50.1281815 625.989898,51.102324 648.357994,49.555594" id="Fill-58" fill="#BBBCBF"></path>
                <path d="M538.663603,65.3210859 C576.603106,65.3805755 614.557481,65.3433945 652.489547,65.3433945 C658.899554,65.8564925 663.822319,61.3947712 668.759958,58.0484803 C627.243642,57.1635723 585.697581,58.0187355 544.181265,57.6097444 C540.143407,57.8700115 535.042173,57.2751153 532.171799,60.7106406 C533.629294,63.0009909 535.503217,65.804439 538.663603,65.3210859" id="Fill-60" fill="#BBBCBF"></path>
                <path d="M630.839045,79.9941998 C637.27136,80.5147339 642.030529,75.584532 647.072274,72.4167099 C611.043875,72.5728701 574.985732,72.4390185 538.964769,72.3349117 C539.507612,74.7888583 540.072763,77.242805 540.600734,79.6893155 C570.680171,80.3437013 600.759608,79.7785499 630.839045,79.9941998" id="Fill-62" fill="#BBBCBF"></path>
                <path d="M616.659695,95.5708122 C619.589559,93.0053225 622.645838,90.558812 625.731862,88.1643549 C597.310698,88.2535894 568.882097,88.2015359 540.438624,88.1866635 C539.576025,90.7149722 538.728298,93.2135361 537.84339,95.7046638 C564.130364,95.4964501 590.387593,95.7715896 616.659695,95.5708122" id="Fill-64" fill="#BBBCBF"></path>
                <path d="M601.94717,110.352495 C604.326754,107.891112 606.74352,105.459474 609.19003,103.035272 C585.676759,102.879112 562.178361,103.035272 538.679963,102.923729 C532.351755,102.574227 527.124105,106.679011 521.152834,107.980346 C513.91741,109.631183 506.421718,108.880127 499.067314,109.437842 C533.266408,111.542287 567.673714,109.73529 601.94717,110.352495" id="Fill-66" fill="#BBBCBF"></path>
                <path d="M511.59434,125.024865 C535.553783,125.136408 559.535535,125.069482 583.50985,125.069482 C588.417744,125.411547 591.221192,120.734176 594.545174,117.923292 C564.413683,117.484556 534.274757,117.63328 504.158138,117.834057 C506.42618,120.340058 507.489557,125.359494 511.59434,125.024865" id="Fill-68" fill="#BBBCBF"></path>
                <path d="M519.705749,139.973862 C536.890812,140.048224 554.127929,140.05566 571.327864,139.973862 C575.841639,140.286182 577.670944,135.318799 580.310796,132.567405 C557.526273,132.240212 534.734314,132.240212 511.957227,132.567405 C514.083981,135.318799 515.340699,140.479523 519.705749,139.973862" id="Fill-70" fill="#BBBCBF"></path>
                <path d="M526.456334,154.693824 C537.796542,154.797931 549.151622,154.783058 560.49183,154.693824 C565.340234,155.44488 567.124923,150.209794 569.8317,147.27993 C553.003575,146.930429 536.145705,147.012227 519.339888,147.235313 C521.422025,149.860292 522.217699,155.162304 526.456334,154.693824" id="Fill-72" fill="#BBBCBF"></path>
                <path d="M556.197424,169.076182 C557.959804,167.187387 559.290884,164.971399 560.718635,162.852081 C549.698183,162.747974 538.662859,162.636431 527.627536,162.948752 C528.757838,164.941654 529.813779,166.979173 531.196912,168.830787 C539.428788,169.975962 547.906058,169.678514 556.197424,169.076182" id="Fill-74" fill="#BBBCBF"></path>
                <path d="M553.71745,178.352844 C547.939521,178.382589 542.198773,178.375153 536.443153,178.41977 C537.655254,180.628322 538.874791,182.829438 540.109201,185.045426 C543.968589,185.03799 547.827978,185.000809 551.70224,184.933883 C552.371498,182.747639 553.025884,180.539087 553.71745,178.352844" id="Fill-76" fill="#BBBCBF"></path>
                <path d="M543.271074,192.567888 C545.226795,194.568226 546.706599,196.880885 547.145335,199.691769 C547.76254,197.193206 548.416926,194.71695 549.09362,192.218386 C547.628688,192.307621 544.706261,192.48609 543.271074,192.567888" id="Fill-78" fill="#BBBCBF"></path>
            </g>
        </g>
    </g>
</svg>