<?xml version="1.0" encoding="UTF-8"?>
<svg width="980px" height="680px" viewBox="0 0 980 680" version="1.1" xmlns="http://www.w3.org/2000/svg" xmlns:xlink="http://www.w3.org/1999/xlink">
    <title>TH Thailand Post</title>
    <defs>
        <linearGradient x1="50%" y1="0%" x2="50%" y2="100%" id="linearGradient-1">
            <stop stop-color="#FFFFFF" offset="0%"></stop>
            <stop stop-color="#EDEDED" offset="100%"></stop>
        </linearGradient>
        <rect id="path-2" x="0" y="0" width="900" height="600" rx="80"></rect>
        <filter x="-6.7%" y="-10.0%" width="113.3%" height="120.0%" filterUnits="objectBoundingBox" id="filter-3">
            <feMorphology radius="2.5" operator="dilate" in="SourceAlpha" result="shadowSpreadOuter1"></feMorphology>
            <feOffset dx="0" dy="0" in="shadowSpreadOuter1" result="shadowOffsetOuter1"></feOffset>
            <feGaussianBlur stdDeviation="17.5" in="shadowOffsetOuter1" result="shadowBlurOuter1"></feGaussianBlur>
            <feColorMatrix values="0 0 0 0 0   0 0 0 0 0   0 0 0 0 0  0 0 0 0.5 0" type="matrix" in="shadowBlurOuter1"></feColorMatrix>
        </filter>
    </defs>
    <g id="TH-Thailand-Post" stroke="none" stroke-width="1" fill="none" fill-rule="evenodd">
        <g transform="translate(40, 40)">
            <g id="Rectangle">
                <use fill="black" fill-opacity="1" filter="url(#filter-3)" xlink:href="#path-2"></use>
                <use fill="url(#linearGradient-1)" fill-rule="evenodd" xlink:href="#path-2"></use>
            </g>
            <g id="Logo" transform="translate(50, 195)">
                <path d="M530.876812,95.6573698 C537.490329,87.8620555 533.202528,76.9834634 528.649579,69.2790565 C515.081642,45.9915967 501.384918,22.7420151 486.945784,0 L8.68637399e-14,0 C166.186404,33.9690858 332.660681,66.5745597 498.930417,100.248196 C509.430228,101.945135 522.831502,104.528422 530.876812,95.6573698" id="Fill-1" fill="#2E358E"></path>
                <path d="M540.375883,50.714239 C626.889478,33.6312131 713.456103,16.8436363 800,0.00303024851 L496.020621,0.00303024851 C506.270436,16.0254692 515.671782,32.5857773 525.815539,48.6839725 C528.595792,54.6232596 535.466881,51.3430156 540.375883,50.714239" id="Fill-50" fill="#EB2126"></path>
                <path d="M37.5182643,22.8344376 C205.878871,84.9393808 374.01221,147.665525 542.463725,209.512897 C524.418595,175.793807 506.737095,141.908053 488.555604,108.264719 C339.399196,77.4016377 190.038247,47.5385386 40.806084,17.0390874 C28.2457039,14.827006 15.9050169,11.486157 3.26888058,9.8573984 C14.4277707,14.8648841 26.1775593,18.2966405 37.5182643,22.8344376" id="Fill-52" fill="#BBBCBF"></path>
                <path d="M737.834452,20.2640293 C747.288827,23.4382147 756.440178,19.4534379 764.856693,15.309573 C755.758372,16.3853112 746.675202,17.8398305 737.834452,20.2640293" id="Fill-54" fill="#BBBCBF"></path>
                <path d="M709.544052,35.525876 C716.437867,36.0182913 722.339276,32.063817 728.149778,28.9426611 C706.354715,27.8138935 684.294506,28.4426701 663.355489,35.2380023 C678.749151,35.7304177 694.142814,35.3137586 709.544052,35.525876" id="Fill-56" fill="#BBBCBF"></path>
                <path d="M652.970827,50.4846977 C669.114476,49.2119933 687.341421,54.7952262 700.969964,43.4393699 C673.947723,43.9923903 646.91033,43.3333112 619.888089,43.7423948 C607.903456,44.9999479 596.274878,48.5301874 584.373577,50.4922733 C584.403879,50.7649957 584.456908,51.3028648 584.487211,51.5755872 C607.312558,51.0680206 630.183358,52.0604269 652.970827,50.4846977" id="Fill-58" fill="#BBBCBF"></path>
                <path d="M541.219808,66.5457724 C579.870627,66.6063773 618.536598,66.5684992 657.179842,66.5684992 C663.710028,67.0912171 668.725089,62.5458443 673.755302,59.1368148 C631.460608,58.2353158 589.135612,59.1065123 546.840919,58.6898531 C542.727356,58.9549999 537.53048,58.3489502 534.60629,61.8488872 C536.091112,64.1821785 538.000169,67.0381878 541.219808,66.5457724" id="Fill-60" fill="#BBBCBF"></path>
                <path d="M635.123421,81.4939883 C641.676333,82.0242818 646.524731,77.0016449 651.661002,73.7744302 C614.957117,73.9335182 578.22293,73.7971571 541.52662,73.6910984 C542.079641,76.1910534 542.655388,78.6910084 543.193257,81.1833878 C573.836645,81.8500425 604.480033,81.2742953 635.123421,81.4939883" id="Fill-62" fill="#BBBCBF"></path>
                <path d="M620.678226,97.3626421 C623.663021,94.7490528 626.776602,92.2566734 629.920484,89.8173234 C600.96646,89.9082308 572.00486,89.8552015 543.028108,89.8400502 C542.149336,92.4157615 541.285716,94.9611702 540.384217,97.4990033 C567.164038,97.2868859 593.913556,97.5671839 620.678226,97.3626421" id="Fill-64" fill="#BBBCBF"></path>
                <path d="M605.68986,112.421462 C608.114059,109.913931 610.576135,107.436703 613.068515,104.967051 C589.1144,104.807963 565.175437,104.967051 541.236474,104.853416 C534.78962,104.497362 529.463959,108.679105 523.380735,110.004839 C516.009655,111.686627 508.373429,110.921489 500.881139,111.489661 C535.721422,113.633562 570.773821,111.792686 605.68986,112.421462" id="Fill-66" fill="#BBBCBF"></path>
                <path d="M513.643031,127.36892 C538.051683,127.482555 562.483061,127.414374 586.906864,127.414374 C591.906774,127.762853 594.762784,122.997787 598.149086,120.134202 C567.452669,119.68724 536.748676,119.838753 506.06741,120.043295 C508.377974,122.596279 509.461288,127.709823 513.643031,127.36892" id="Fill-68" fill="#BBBCBF"></path>
                <path d="M521.906519,142.598192 C539.413779,142.673948 556.97407,142.681524 574.496482,142.598192 C579.094884,142.916368 580.958487,137.855853 583.647832,135.052873 C560.436129,134.719546 537.216849,134.719546 514.012721,135.052873 C516.179349,137.855853 517.459629,143.113334 521.906519,142.598192" id="Fill-70" fill="#BBBCBF"></path>
                <path d="M528.783668,157.594134 C540.33649,157.700193 551.904464,157.685042 563.457286,157.594134 C568.396591,158.359272 570.21474,153.026035 572.972267,150.04124 C555.828636,149.685186 538.654702,149.768517 521.533798,149.995786 C523.654972,152.66998 524.465564,158.071398 528.783668,157.594134" id="Fill-72" fill="#BBBCBF"></path>
                <path d="M559.082365,172.246143 C560.877787,170.321935 562.233823,168.0644 563.688343,165.905348 C552.461272,165.79929 541.21905,165.685655 529.976828,166.003831 C531.128323,168.034098 532.204061,170.109818 533.613126,171.996148 C541.999339,173.162793 550.635547,172.859769 559.082365,172.246143" id="Fill-74" fill="#BBBCBF"></path>
                <path d="M556.555895,181.696731 C550.669638,181.727033 544.821258,181.719458 538.957727,181.764911 C540.192553,184.014871 541.434955,186.257255 542.692508,188.51479 C546.624256,188.507214 550.556003,188.469336 554.502902,188.401156 C555.184708,186.173923 555.851363,183.923963 556.555895,181.696731" id="Fill-76" fill="#BBBCBF"></path>
                <path d="M545.913663,196.178288 C547.906051,198.216131 549.4136,200.572149 549.860561,203.435734 C550.489338,200.890325 551.155992,198.367643 551.845374,195.822234 C550.352977,195.913142 547.375757,196.094957 545.913663,196.178288" id="Fill-78" fill="#BBBCBF"></path>
            </g>
        </g>
    </g>
</svg>