<?xml version="1.0" encoding="UTF-8"?>
<svg width="980px" height="680px" viewBox="0 0 980 680" version="1.1" xmlns="http://www.w3.org/2000/svg" xmlns:xlink="http://www.w3.org/1999/xlink">
    <title>TR Ptt</title>
    <defs>
        <linearGradient x1="50%" y1="0%" x2="50%" y2="100%" id="linearGradient-1">
            <stop stop-color="#FFFFFF" offset="0%"></stop>
            <stop stop-color="#EDEDED" offset="100%"></stop>
        </linearGradient>
        <rect id="path-2" x="0" y="0" width="900" height="600" rx="80"></rect>
        <filter x="-6.7%" y="-10.0%" width="113.3%" height="120.0%" filterUnits="objectBoundingBox" id="filter-3">
            <feMorphology radius="2.5" operator="dilate" in="SourceAlpha" result="shadowSpreadOuter1"></feMorphology>
            <feOffset dx="0" dy="0" in="shadowSpreadOuter1" result="shadowOffsetOuter1"></feOffset>
            <feGaussianBlur stdDeviation="17.5" in="shadowOffsetOuter1" result="shadowBlurOuter1"></feGaussianBlur>
            <feColorMatrix values="0 0 0 0 0   0 0 0 0 0   0 0 0 0 0  0 0 0 0.5 0" type="matrix" in="shadowBlurOuter1"></feColorMatrix>
        </filter>
    </defs>
    <g id="TR-Ptt" stroke="none" stroke-width="1" fill="none" fill-rule="evenodd">
        <g transform="translate(40, 40)">
            <g id="Rectangle">
                <use fill="black" fill-opacity="1" filter="url(#filter-3)" xlink:href="#path-2"></use>
                <use fill="url(#linearGradient-1)" fill-rule="evenodd" xlink:href="#path-2"></use>
            </g>
            <g id="Logo" transform="translate(50, 177)" fill-rule="nonzero">
                <path d="M203.925134,245.375635 C203.925134,245.375635 79.750621,236.526254 0,152.421737 L126.581545,79.4674408 C126.581545,79.4674408 129.094769,194.084623 246.260573,218.544312 C371.426217,244.703082 379.603045,122.581625 379.603045,122.581625 L400.381391,156.280067 C400.381391,156.280067 352.984107,264.03013 226.190177,228.314028 C127.431085,200.526972 101.555496,126.156775 101.555496,126.156775 L46.0167809,157.200403 C46.0167809,157.200403 100.77675,219.464647 203.925134,245.375635" id="Path" fill="#00A6CE"></path>
                <path d="M260.207197,128.953179 C260.207197,128.953179 207.641874,138.050343 163.111789,86.6531381 C179.182137,90.8116378 195.587277,93.5478019 212.13736,94.8299661 C212.13736,94.8299661 175.430128,76.6710364 159.607435,53.4502608 C159.607435,53.4502608 172.350543,59.2200572 210.721459,61.8040764 C203.862647,56.4084918 196.403286,51.8235982 188.491814,48.1406323 C149.165165,24.4950864 137.483982,0 137.483982,0 C156.457055,16.4598485 180.987539,7.39808246 254.472798,31.3268085 C347.249708,61.5916913 354.718585,94.759171 356.028294,113.980026 C357.868965,140.882144 331.250027,168.916983 331.250027,168.916983 C331.250027,168.916983 346.258577,100.458172 288.772999,70.157892 C249.877681,50.0126658 208.810445,34.3719629 166.368362,23.5393533 C166.368362,23.5393533 169.908114,29.3799447 185.624614,38.5479034 C185.624614,38.5479034 192.704119,42.4770285 196.243872,44.2469047 C217.482386,54.1228138 230.260892,58.7952869 235.181148,70.1932896 C219.476851,73.3537023 203.226514,72.464441 187.960851,67.6092703 C202.667545,81.2551806 218.919122,93.1349884 236.384664,103.006794 C221.598342,106.547703 206.112193,105.835978 191.712989,100.953738 C209.818665,119.169384 234.525702,129.282032 260.207197,128.988576" id="Path" fill="#FFC629"></path>
                <path d="M691.384434,245.375635 C682.351234,245.223041 673.409773,243.535295 664.942483,240.384584 C646.76175,233.857139 632.419068,219.592265 625.792822,201.447308 C621.876094,191.092432 619.942791,180.093018 620.093821,169.023176 L620.093821,18.3713148 C619.905725,14.8020825 621.1845,11.3110272 623.633573,8.70779084 C626.225936,6.26424462 629.703895,4.98558321 633.2617,5.16803847 L649.863138,5.16803847 C653.422208,4.97720992 656.903362,6.2570459 659.491265,8.70779084 C661.940338,11.3110272 663.219113,14.8020825 663.031017,18.3713148 L663.031017,60.5297656 L687.313718,60.5297656 C690.873423,60.3347101 694.356196,61.6151414 696.941845,64.069518 C699.381824,66.6640868 700.659906,70.1404701 700.481597,73.6976444 L700.481597,87.6796663 C700.669693,91.2488986 699.390918,94.7399539 696.941845,97.3431903 C694.356196,99.7975668 690.873423,101.077998 687.313718,100.882943 L663.031017,100.882943 L663.031017,167.076312 C663.031017,180.137998 665.827422,190.155498 671.314038,197.199605 C676.391927,204.092834 684.525287,208.060327 693.083515,207.818862 L693.86226,207.818862 C697.025906,207.573862 700.139316,208.719316 702.389838,210.95624 C704.640361,213.193164 705.804662,216.299574 705.578841,219.464647 L705.578841,233.800644 C705.791597,236.927795 704.639303,239.993783 702.41957,242.206727 C700.199838,244.419672 697.130334,245.562571 694.00385,245.340237 L691.384434,245.375635 Z" id="Path" fill="#00A6CE"></path>
                <path d="M785.825027,245.375635 C776.791125,245.229937 767.848507,243.541973 759.383077,240.384584 C741.202343,233.857139 726.859661,219.592265 720.233415,201.447308 C716.304613,191.094757 714.359289,180.09527 714.499017,169.023176 L714.499017,18.3713148 C714.310921,14.8020825 715.589696,11.3110272 718.038769,8.70779084 C720.624418,6.25341431 724.107191,4.97298295 727.666895,5.16803847 L744.232937,5.16803847 C747.792641,4.97298295 751.275414,6.25341431 753.861063,8.70779084 C756.310136,11.3110272 757.588911,14.8020825 757.400815,18.3713148 L757.400815,60.5297656 L781.683517,60.5297656 C785.263719,60.2863592 788.774315,61.6027817 791.311745,64.1402112 C793.849174,66.6776408 795.165597,70.1882368 794.922191,73.7684395 L794.922191,87.7504613 C795.176339,91.3365873 793.864674,94.856992 791.325936,97.4025178 C788.787198,99.9480436 785.270308,101.269105 781.683517,101.024533 L757.507008,101.024533 L757.507008,167.217902 C757.507008,180.279588 760.303412,190.297088 765.754631,197.341195 C770.836515,204.22963 778.967199,208.195818 787.524108,207.960452 L788.338251,207.960452 C791.460832,207.753338 794.522572,208.893656 796.748914,211.09293 C798.975256,213.292204 800.15294,216.339767 799.984036,219.464647 L799.984036,233.800644 C800.130868,236.917748 798.977128,239.955931 796.798259,242.189857 C794.55152,244.344911 791.518951,245.483724 788.409046,245.340237 L785.825027,245.375635 Z" id="Path" fill="#00A6CE"></path>
                <path d="M564.625901,82.0160625 C564.625901,90.2273173 561.361577,98.1017443 555.552025,103.904658 C549.742472,109.707571 541.864317,112.962893 533.653068,112.953519 L490.468089,112.953519 L490.468089,51.0432292 L533.653068,51.0432292 C550.758891,51.0432292 564.625901,64.910239 564.625901,82.0160625 M600.80217,53.4856584 C598.05402,46.1092182 594.21168,39.1882337 589.404168,32.9550946 C584.913144,27.2846256 579.618502,22.3000302 573.687667,18.1589297 C567.455043,13.8626009 560.57033,10.5995336 553.298694,8.4954057 C545.548556,6.16078198 537.499495,4.96832861 529.405365,4.95565332 L459.566051,4.95565332 C456.010758,4.78962936 452.539017,6.06600466 449.937924,8.4954057 C447.488851,11.0986421 446.210076,14.5896973 446.398172,18.1589297 L446.398172,232.136961 C446.154765,235.717163 447.471188,239.227759 450.008618,241.765189 C452.546047,244.302618 456.056643,245.619041 459.636846,245.375635 L477.335608,245.375635 C480.921734,245.629783 484.442138,244.318118 486.987664,241.77938 C489.53319,239.240642 490.854251,235.723752 490.609679,232.136961 L490.609679,154.722576 L529.546955,154.722576 C540.755455,154.72084 551.85093,152.48249 562.183472,148.138637 C572.398133,144.031564 581.391385,137.37802 588.306845,128.811589 C594.419247,121.400131 598.992123,112.844038 601.757904,103.64395 C604.00411,96.11632 605.195377,88.3135181 605.297656,80.4585715 C605.434971,71.2549605 603.850252,62.1068092 600.625183,53.4856584" id="Shape" fill="#00A6CE"></path>
            </g>
        </g>
    </g>
</svg>