<?xml version="1.0" encoding="UTF-8"?>
<svg width="980px" height="680px" viewBox="0 0 980 680" version="1.1" xmlns="http://www.w3.org/2000/svg" xmlns:xlink="http://www.w3.org/1999/xlink">
    <title>TW Chunghwa Post</title>
    <defs>
        <linearGradient x1="50%" y1="0%" x2="50%" y2="100%" id="linearGradient-1">
            <stop stop-color="#FFFFFF" offset="0%"></stop>
            <stop stop-color="#EDEDED" offset="100%"></stop>
        </linearGradient>
        <rect id="path-2" x="0" y="0" width="900" height="600" rx="80"></rect>
        <filter x="-6.7%" y="-10.0%" width="113.3%" height="120.0%" filterUnits="objectBoundingBox" id="filter-3">
            <feMorphology radius="2.5" operator="dilate" in="SourceAlpha" result="shadowSpreadOuter1"></feMorphology>
            <feOffset dx="0" dy="0" in="shadowSpreadOuter1" result="shadowOffsetOuter1"></feOffset>
            <feGaussianBlur stdDeviation="17.5" in="shadowOffsetOuter1" result="shadowBlurOuter1"></feGaussianBlur>
            <feColorMatrix values="0 0 0 0 0   0 0 0 0 0   0 0 0 0 0  0 0 0 0.5 0" type="matrix" in="shadowBlurOuter1"></feColorMatrix>
        </filter>
    </defs>
    <g id="TW-Chunghwa-Post" stroke="none" stroke-width="1" fill="none" fill-rule="evenodd">
        <g transform="translate(40, 40)">
            <g id="Rectangle">
                <use fill="black" fill-opacity="1" filter="url(#filter-3)" xlink:href="#path-2"></use>
                <use fill="url(#linearGradient-1)" fill-rule="evenodd" xlink:href="#path-2"></use>
            </g>
            <g id="Logo" transform="translate(200, 50)" fill-rule="nonzero" stroke-width="0.5">
                <path d="M0,0 L500,0 L500,500 L0,500 L0,0 M244.631579,5.89473684 C212.842105,6.84210526 180.842105,12.3157895 151.578947,25.1578947 C115.052632,41.2631579 82.5263158,66.5263158 58,97.8947368 C34.2105263,126.947368 17.3684211,161.578947 9.89473684,198.315789 C2.84210526,229.789474 4.63157895,262.421053 9.15789474,294.105263 C16.3157895,341.368421 39.8947368,385.368421 72.9473684,419.684211 C97.4736842,443.894737 125.894737,464.842105 158.105263,477.684211 C186,488.947368 216.105263,495.473684 246.315789,494.842105 C289.052632,495.157895 332,485.052632 369.263158,464 C394.526316,449.684211 417.368421,430.947368 435.789474,408.421053 C458,381.894737 475.578947,351.157895 485.052632,317.789474 C503.052632,250.842105 494.210526,175.368421 455.578947,117.052632 C432.631579,81.6842105 400.421053,52.5263158 363.473684,32.3157895 C327.052632,13.5789474 285.684211,3.47368421 244.631579,5.89473684 Z" id="Shape" stroke="#FEFEFE" fill="#FEFEFE" opacity="0"></path>
                <path d="M244.631579,5.89473684 C285.684211,3.47368421 327.052632,13.5789474 363.473684,32.3157895 C400.421053,52.5263158 432.631579,81.6842105 455.578947,117.052632 C494.210526,175.368421 503.052632,250.842105 485.052632,317.789474 C475.578947,351.157895 458,381.894737 435.789474,408.421053 C417.368421,430.947368 394.526316,449.684211 369.263158,464 C332,485.052632 289.052632,495.157895 246.315789,494.842105 C216.105263,495.473684 186,488.947368 158.105263,477.684211 C125.894737,464.842105 97.4736842,443.894737 72.9473684,419.684211 C39.8947368,385.368421 16.3157895,341.368421 9.15789474,294.105263 C4.63157895,262.421053 2.84210526,229.789474 9.89473684,198.315789 C17.3684211,161.578947 34.2105263,126.947368 58,97.8947368 C82.5263158,66.5263158 115.052632,41.2631579 151.578947,25.1578947 C180.842105,12.3157895 212.842105,6.84210526 244.631579,5.89473684 M234.105263,34.2105263 C209.894737,36.1052632 185.684211,40.9473684 163.368421,50.7368421 C132.842105,64.2105263 105.368421,84.7368421 84.2105263,110.526316 C63.6842105,134.210526 48,162.210526 39.8947368,192.526316 C30.2105263,225.894737 31.3684211,261.473684 37.3684211,295.368421 C42.4210526,321.368421 52,346.736842 67.3684211,368.421053 C87.5789474,399.368421 116.631579,423.684211 148.421053,442 C178.947368,458.421053 213.684211,467.894737 248.421053,466.421053 C279.263158,466.631579 310.421053,460.842105 338.631579,448.105263 C403.578947,418.736842 452.947368,355.789474 464,285.157895 C473.894737,218.736842 453.789474,146.526316 405.052632,99.1578947 C380.842105,74.1052632 350.631579,54.6315789 317.578947,43.6842105 C290.842105,34.3157895 262.210526,32 234.105263,34.2105263 Z" id="Shape" stroke="#2147A5" fill="#2147A5"></path>
                <path d="M234.105263,34.2105263 C262.210526,32 290.842105,34.3157895 317.578947,43.6842105 C350.631579,54.6315789 380.842105,74.1052632 405.052632,99.1578947 C453.789474,146.526316 473.894737,218.736842 464,285.157895 C452.947368,355.789474 403.578947,418.736842 338.631579,448.105263 C310.421053,460.842105 279.263158,466.631579 248.421053,466.421053 C213.684211,467.894737 178.947368,458.421053 148.421053,442 C116.631579,423.684211 87.5789474,399.368421 67.3684211,368.421053 C52,346.736842 42.4210526,321.368421 37.3684211,295.368421 C31.3684211,261.473684 30.2105263,225.894737 39.8947368,192.526316 C48,162.210526 63.6842105,134.210526 84.2105263,110.526316 C105.368421,84.7368421 132.842105,64.2105263 163.368421,50.7368421 C185.684211,40.9473684 209.894737,36.1052632 234.105263,34.2105263 M156.842105,107.368421 C156.842105,129.473684 156.842105,151.684211 156.736842,173.789474 C148,166.947368 138.947368,160.421053 130.315789,153.368421 C117.894737,163.684211 107.263158,176.105263 94.7368421,186.526316 C100.526316,194.631579 106.421053,202.631579 112.105263,210.842105 C119.473684,205.263158 126.526316,199.263158 133.789474,193.473684 C139.157895,197.789474 144.315789,202.631579 149.368421,207.368421 C151.894737,205.578947 154.315789,203.894737 156.842105,202.105263 C156.947368,215.894737 156.842105,229.684211 156.736842,243.368421 C147.052632,236.421053 137.368421,229.368421 127.473684,222.631579 C116.631579,233.263158 105.684211,243.894737 95.7894737,255.473684 C102,260.631579 107.894737,266.210526 113.684211,271.894737 C118.736842,267.052632 123.684211,262.105263 128.736842,257.368421 C135.052632,262.842105 141.368421,268.421053 147.578947,274.105263 C151.052632,271.578947 154.421053,268.947368 157.894737,266.315789 C157.894737,274.736842 157.894737,283.157895 157.894737,291.578947 C140.736842,291.578947 123.473684,291.578947 106.315789,291.578947 C106.315789,302.105263 106.315789,312.631579 106.315789,323.157895 C123.473684,323.157895 140.736842,323.157895 157.894737,323.157895 C157.894737,334 157.894737,344.947368 157.894737,355.789474 C140.736842,355.789474 123.473684,355.789474 106.315789,355.789474 C106.315789,366.315789 106.315789,376.842105 106.315789,387.368421 C150.526316,387.368421 194.736842,387.368421 238.947368,387.368421 C238.947368,376.526316 238.947368,365.578947 238.947368,354.736842 C221.473684,354.736842 204,354.842105 186.526316,354.421053 C186.315789,344.105263 186.421053,333.684211 186.631579,323.368421 C203.684211,323.052632 220.842105,323.157895 237.894737,323.157895 C237.894737,312.315789 237.894737,301.368421 237.894737,290.526316 C220.421053,290.526316 202.947368,290.631579 185.473684,290.210526 C185.368421,285.368421 185.263158,280.631579 185.263158,275.894737 C195.263158,269.052632 205.368421,262.421053 215.578947,255.789474 C220,262.315789 224.526316,268.736842 228.947368,275.263158 C235.368421,269.473684 241.368421,263.368421 247.789474,257.578947 C237.157895,244.947368 226.210526,232.526316 215.473684,219.894737 C205.263158,226.631579 195.684211,234 185.368421,240.526316 C185.263158,230.526316 185.263158,220.526316 185.263158,210.631579 C194.631579,204.315789 204.105263,198.210526 213.684211,192.105263 C218.421053,196.842105 223.157895,201.578947 227.789474,206.421053 C234.421053,200 240.631579,193.263158 246.631579,186.315789 C235.894737,175.578947 226,164 215.052632,153.473684 C205.263158,159.894737 195.684211,166.631579 185.684211,172.631579 C185.263158,161.157895 185.263158,149.684211 185.578947,138.210526 C201.894737,137.789474 218.315789,137.894737 234.736842,137.894737 C234.736842,127.684211 234.736842,117.578947 234.736842,107.368421 C208.736842,107.368421 182.842105,107.368421 156.842105,107.368421 M260,107.368421 C260.526316,138.947368 258.315789,170.526316 258.947368,202.105263 C299.263158,202.105263 339.684211,202.105263 380,202.105263 C380,170.526316 380,138.947368 380,107.368421 C340,107.368421 300,107.368421 260,107.368421 M260,225.263158 C260,236.526316 260,247.684211 260,258.947368 C270.526316,258.947368 281.052632,258.947368 291.578947,258.947368 C291.578947,268.736842 291.578947,278.631579 291.578947,288.421053 C281.368421,288.421053 271.263158,288.421053 261.052632,288.421053 C261.052632,321.368421 261.052632,354.421053 261.052632,387.368421 C300.736842,387.368421 340.315789,387.368421 380,387.368421 C380,376.842105 380,366.315789 380,355.789474 C350.842105,355.789474 321.789474,355.789474 292.631579,355.789474 C292.631579,344.947368 292.631579,334 292.631579,323.157895 C322.421053,323.157895 352.315789,323.157895 382.105263,323.157895 C382.105263,290.526316 382.105263,257.894737 382.105263,225.263158 C341.368421,225.263158 300.736842,225.263158 260,225.263158 Z" id="Shape" stroke="#FEFEFE" fill="#FEFEFE" opacity="0"></path>
                <path d="M156.842105,107.368421 C182.842105,107.368421 208.736842,107.368421 234.736842,107.368421 C234.736842,117.578947 234.736842,127.684211 234.736842,137.894737 C218.315789,137.894737 201.894737,137.789474 185.578947,138.210526 C185.263158,149.684211 185.263158,161.157895 185.684211,172.631579 C195.684211,166.631579 205.263158,159.894737 215.052632,153.473684 C226,164 235.894737,175.578947 246.631579,186.315789 C240.631579,193.263158 234.421053,200 227.789474,206.421053 C223.157895,201.578947 218.421053,196.842105 213.684211,192.105263 C204.105263,198.210526 194.631579,204.315789 185.263158,210.631579 C185.263158,220.526316 185.263158,230.526316 185.368421,240.526316 C195.684211,234 205.263158,226.631579 215.473684,219.894737 C226.210526,232.526316 237.157895,244.947368 247.789474,257.578947 C241.368421,263.368421 235.368421,269.473684 228.947368,275.263158 C224.526316,268.736842 220,262.315789 215.578947,255.789474 C205.368421,262.421053 195.263158,269.052632 185.263158,275.894737 C185.263158,280.631579 185.368421,285.368421 185.473684,290.210526 C202.947368,290.631579 220.421053,290.526316 237.894737,290.526316 C237.894737,301.368421 237.894737,312.315789 237.894737,323.157895 C220.842105,323.157895 203.684211,323.052632 186.631579,323.368421 C186.421053,333.684211 186.315789,344.105263 186.526316,354.421053 C204,354.842105 221.473684,354.736842 238.947368,354.736842 C238.947368,365.578947 238.947368,376.526316 238.947368,387.368421 C194.736842,387.368421 150.526316,387.368421 106.315789,387.368421 C106.315789,376.842105 106.315789,366.315789 106.315789,355.789474 C123.473684,355.789474 140.736842,355.789474 157.894737,355.789474 C157.894737,344.947368 157.894737,334 157.894737,323.157895 C140.736842,323.157895 123.473684,323.157895 106.315789,323.157895 C106.315789,312.631579 106.315789,302.105263 106.315789,291.578947 C123.473684,291.578947 140.736842,291.578947 157.894737,291.578947 C157.894737,283.157895 157.894737,274.736842 157.894737,266.315789 C154.421053,268.947368 151.052632,271.578947 147.578947,274.105263 C141.368421,268.421053 135.052632,262.842105 128.736842,257.368421 C123.684211,262.105263 118.736842,267.052632 113.684211,271.894737 C107.894737,266.210526 102,260.631579 95.7894737,255.473684 C105.684211,243.894737 116.631579,233.263158 127.473684,222.631579 C137.368421,229.368421 147.052632,236.421053 156.736842,243.368421 C156.842105,229.684211 156.947368,215.894737 156.842105,202.105263 C154.315789,203.894737 151.894737,205.578947 149.368421,207.368421 C144.315789,202.631579 139.157895,197.789474 133.789474,193.473684 C126.526316,199.263158 119.473684,205.263158 112.105263,210.842105 C106.421053,202.631579 100.526316,194.631579 94.7368421,186.526316 C107.263158,176.105263 117.894737,163.684211 130.315789,153.368421 C138.947368,160.421053 148,166.947368 156.736842,173.789474 C156.842105,151.684211 156.842105,129.473684 156.842105,107.368421 Z" id="Path" stroke="#FF0000" fill="#FF0000"></path>
                <path d="M260,107.368421 C300,107.368421 340,107.368421 380,107.368421 C380,138.947368 380,170.526316 380,202.105263 C339.684211,202.105263 299.263158,202.105263 258.947368,202.105263 C258.315789,170.526316 260.526316,138.947368 260,107.368421 M286.315789,137.894737 C286.315789,148.421053 286.315789,158.947368 286.315789,169.473684 C308.105263,169.473684 329.789474,169.473684 351.578947,169.473684 C351.578947,158.947368 351.578947,148.421053 351.578947,137.894737 C329.789474,137.894737 308.105263,137.894737 286.315789,137.894737 Z" id="Shape" stroke="#FF0000" fill="#FF0000"></path>
                <path d="M286.315789,137.894737 C308.105263,137.894737 329.789474,137.894737 351.578947,137.894737 C351.578947,148.421053 351.578947,158.947368 351.578947,169.473684 C329.789474,169.473684 308.105263,169.473684 286.315789,169.473684 C286.315789,158.947368 286.315789,148.421053 286.315789,137.894737 Z" id="Path" stroke="#FEFEFE" fill="#FEFEFE" opacity="0"></path>
                <path d="M260,225.263158 C300.736842,225.263158 341.368421,225.263158 382.105263,225.263158 C382.105263,257.894737 382.105263,290.526316 382.105263,323.157895 C352.315789,323.157895 322.421053,323.157895 292.631579,323.157895 C292.631579,334 292.631579,344.947368 292.631579,355.789474 C321.789474,355.789474 350.842105,355.789474 380,355.789474 C380,366.315789 380,376.842105 380,387.368421 C340.315789,387.368421 300.736842,387.368421 261.052632,387.368421 C261.052632,354.421053 261.052632,321.368421 261.052632,288.421053 C271.263158,288.421053 281.368421,288.421053 291.578947,288.421053 C291.578947,278.631579 291.578947,268.736842 291.578947,258.947368 C281.052632,258.947368 270.526316,258.947368 260,258.947368 C260,247.684211 260,236.526316 260,225.263158 M321.052632,256.842105 C321.052632,267.684211 321.052632,278.631579 321.052632,289.473684 C330.736842,289.473684 340.421053,289.894737 350.105263,289.157895 C350.421053,288.842105 350.947368,288.315789 351.263158,288.105263 C352,277.684211 351.578947,267.263158 351.578947,256.842105 C341.473684,256.842105 331.263158,256.842105 321.052632,256.842105 Z" id="Shape" stroke="#FF0000" fill="#FF0000"></path>
                <path d="M321.052632,256.842105 C331.263158,256.842105 341.473684,256.842105 351.578947,256.842105 C351.578947,267.263158 352,277.684211 351.263158,288.105263 C350.947368,288.315789 350.421053,288.842105 350.105263,289.157895 C340.421053,289.894737 330.736842,289.473684 321.052632,289.473684 C321.052632,278.631579 321.052632,267.684211 321.052632,256.842105 Z" id="Path" stroke="#FEFEFE" fill="#FEFEFE" opacity="0"></path>
            </g>
        </g>
    </g>
</svg>