<?xml version="1.0" encoding="UTF-8"?>
<svg width="980px" height="680px" viewBox="0 0 980 680" version="1.1" xmlns="http://www.w3.org/2000/svg" xmlns:xlink="http://www.w3.org/1999/xlink">
    <title>UA Ukrposhta text</title>
    <defs>
        <linearGradient x1="50%" y1="0%" x2="50%" y2="100%" id="linearGradient-1">
            <stop stop-color="#FFFFFF" offset="0%"></stop>
            <stop stop-color="#EDEDED" offset="100%"></stop>
        </linearGradient>
        <rect id="path-2" x="0" y="0" width="900" height="600" rx="80"></rect>
        <filter x="-6.7%" y="-10.0%" width="113.3%" height="120.0%" filterUnits="objectBoundingBox" id="filter-3">
            <feMorphology radius="2.5" operator="dilate" in="SourceAlpha" result="shadowSpreadOuter1"></feMorphology>
            <feOffset dx="0" dy="0" in="shadowSpreadOuter1" result="shadowOffsetOuter1"></feOffset>
            <feGaussianBlur stdDeviation="17.5" in="shadowOffsetOuter1" result="shadowBlurOuter1"></feGaussianBlur>
            <feColorMatrix values="0 0 0 0 0   0 0 0 0 0   0 0 0 0 0  0 0 0 0.5 0" type="matrix" in="shadowBlurOuter1"></feColorMatrix>
        </filter>
        <polygon id="path-4" points="0 0 800 0 800 204.614642 0 204.614642"></polygon>
    </defs>
    <g id="UA-Ukrposhta-text" stroke="none" stroke-width="1" fill="none" fill-rule="evenodd">
        <g transform="translate(40, 40)">
            <g id="Rectangle">
                <use fill="black" fill-opacity="1" filter="url(#filter-3)" xlink:href="#path-2"></use>
                <use fill="url(#linearGradient-1)" fill-rule="evenodd" xlink:href="#path-2"></use>
            </g>
            <g id="Logo" transform="translate(50, 198)">
                <g id="g16-Clipped" transform="translate(400, 102.3073) scale(-1, 1) rotate(-180) translate(-400, -102.3073)translate(0, 0)">
                    <mask id="mask-5" fill="white">
                        <use xlink:href="#path-4"></use>
                    </mask>
                    <g id="path20"></g>
                    <g id="g16" mask="url(#mask-5)" fill-rule="nonzero">
                        <g transform="translate(0.0001, 0)">
                            <path d="M134.495313,87.176817 C134.488991,87.1781478 66.7286067,102.512601 66.7286067,102.512601 C46.5283172,107.083326 33.8605083,127.162843 38.4302353,147.361802 C42.9996296,167.560761 63.0791465,180.229568 83.279436,175.658843 C103.477064,171.089115 116.147202,151.009931 111.574813,130.810973 C109.287454,120.698351 103.107759,112.480828 94.9774048,107.361469 C94.9774048,107.361469 94.9564443,107.346165 94.9474612,107.340841 C94.7095759,107.169165 94.5535364,106.889691 94.5535364,106.575283 C94.5535364,106.134779 94.8589612,105.764477 95.2685232,105.665663 C95.2685232,105.665663 125.414748,98.8478366 125.420071,98.8478366 C126.136056,98.685143 126.879323,98.961955 127.32149,99.5441918 C127.32515,99.5495151 127.32149,99.5455226 127.32149,99.5455226 C135.628512,110.534161 140.615453,124.245338 140.615453,139.076739 C140.615453,174.00163 113.328178,202.541879 78.9126601,204.571723 C78.6072353,204.58603 76.7394197,204.658892 76.1092731,204.669206 C60.8736336,204.907092 45.4233982,200.537654 31.9852733,191.128375 C-1.94171087,167.371118 -10.1879005,120.608853 13.5694564,86.6804185 L73.8581793,0.578337464 C74.1130327,0.227436328 74.5275853,0 74.995371,0 C75.4644875,0 75.8803709,0.231335318 76.1352242,0.583537671 C76.1352242,0.583537671 135.337393,85.0132251 135.344048,85.0208773 C135.494764,85.2457871 135.583264,85.515945 135.583264,85.8070634 C135.583264,86.4751385 135.117807,87.0340858 134.495313,87.176817" id="path22" fill="#FABC26"></path>
                            <path d="M189.998781,70.6103505 L189.998781,52.8654368 C189.998781,47.4496365 192.17302,44.9583285 197.586158,44.9583285 C203.278438,44.9583285 205.176197,47.6875218 205.176197,52.8654368 L205.176197,70.6103505 L208.932123,70.6103505 L208.932123,53.8515795 C208.932123,45.9474656 206.126075,41.8754679 197.586158,41.8754679 C189.446488,41.8754679 186.244186,45.6693228 186.244186,53.4579875 L186.244186,70.6103505 L189.998781,70.6103505" id="path24" fill="#617171"></path>
                            <polyline id="path26" fill="#617171" points="230.160144 59.3063065 242.491254 42.4693494 237.748852 42.4693494 227.551723 56.775739 222.887507 52.3520703 222.887507 42.4693494 219.171839 42.4693494 219.171839 70.6103505 222.887507 70.6103505 222.887507 56.6576281 237.156301 70.6103505 242.016814 70.6103505 230.160144 59.3063065"></polyline>
                            <path d="M253.665542,57.6065077 L260.664028,57.6065077 C264.300513,57.6065077 268.055108,57.962504 268.055108,62.587793 C268.055108,66.77524 264.970917,67.4473076 261.651835,67.4473076 L253.665542,67.4473076 L253.665542,57.6065077 Z M262.32357,70.6103505 C267.619595,70.6103505 271.769446,68.8689635 271.769446,62.8230167 C271.769446,59.5415301 269.831762,56.8173274 266.94786,55.9868914 C270.901082,55.1564553 271.058452,52.4701812 271.215822,49.0689202 C271.336595,46.8168283 271.336595,43.9705222 272.837768,42.4693494 L268.568475,42.4693494 C267.659853,43.8926688 267.697449,47.0533828 267.619595,48.6753281 C267.38171,53.4177299 266.15502,54.641758 261.058951,54.641758 L253.665542,54.641758 L253.665542,42.4693494 L249.953533,42.4693494 L249.953533,70.6103505 L262.32357,70.6103505" id="path28" fill="#617171"></path>
                            <path d="M292.196975,67.052052 L287.336462,54.0505382 L296.979634,54.0505382 L292.196975,67.052052 Z M305.35719,42.4693494 L301.208669,42.4693494 L298.084553,51.0861211 L286.26681,51.0861211 L283.067169,42.4693494 L279.114946,42.4693494 L290.178776,70.6103505 L294.369882,70.6103505 L305.35719,42.4693494" id="path30" fill="#617171"></path>
                            <polygon id="path32" fill="#617171" points="312.781873 42.4693494 316.494947 42.4693494 316.494947 70.6103505 312.781873 70.6103505"></polygon>
                            <polyline id="path34" fill="#617171" points="330.898753 70.6103505 345.758767 47.7653752 345.758767 70.6103505 349.355326 70.6103505 349.355326 42.4693494 345.166549 42.4693494 330.385386 65.0365146 330.385386 42.4693494 326.827088 42.4693494 326.827088 70.6103505 330.898753 70.6103505"></polyline>
                            <polyline id="path36" fill="#617171" points="379.209102 67.3704523 363.438802 67.3704523 363.438802 58.5577163 378.181038 58.5577163 378.181038 55.4332673 363.438802 55.4332673 363.438802 45.7109111 379.408726 45.7109111 379.408726 42.4693494 359.725795 42.4693494 359.725795 70.6103505 379.209102 70.6103505 379.209102 67.3704523"></polyline>
                            <polyline id="path38" fill="#617171" points="388.474984 58.9892369 388.079063 69.9775423 390.647559 69.9775423 390.291563 58.9892369 388.474984 58.9892369"></polyline>
                            <path d="M417.826373,62.3499077 C417.393854,66.4219054 414.98173,68.0801158 410.82955,68.0801158 C406.800471,68.0801158 404.471524,66.3816479 404.471524,63.4155673 C404.471524,60.2548534 407.748686,59.5817876 412.097163,58.6744964 C416.685188,57.7232878 422.527519,56.3039609 422.527519,50.373796 C422.527519,44.1292233 416.958008,41.8352104 411.581467,41.8352104 C404.864118,41.8352104 399.923423,44.9583285 399.923423,51.7568579 L403.516656,51.7568579 C403.676355,46.6581272 407.392689,44.8804751 411.900866,44.8804751 C415.181354,44.8804751 418.897688,46.0266498 418.897688,50.0191306 C418.897688,53.6542844 415.337726,54.364946 410.713103,55.4332673 C406.168329,56.4600003 400.911562,57.212583 400.911562,63.1400862 C400.911562,68.9105518 406.051881,71.1643072 411.109024,71.1643072 C417.077782,71.1643072 421.186711,68.3971853 421.422932,62.3499077 L417.826373,62.3499077" id="path40" fill="#617171"></path>
                            <polyline id="path42" fill="#617171" points="449.922591 70.6103505 464.781274 47.7653752 464.781274 70.6103505 468.381161 70.6103505 468.381161 42.4693494 464.189056 42.4693494 449.406896 65.0365146 449.406896 42.4693494 445.850261 42.4693494 445.850261 70.6103505 449.922591 70.6103505"></polyline>
                            <path d="M488.772757,67.052052 L483.911911,54.0505382 L493.55708,54.0505382 L488.772757,67.052052 Z M501.934635,42.4693494 L497.785782,42.4693494 L494.664993,51.0861211 L482.843923,51.0861211 L479.643284,42.4693494 L475.690728,42.4693494 L486.759881,70.6103505 L490.945332,70.6103505 L501.934635,42.4693494" id="path44" fill="#617171"></path>
                            <polyline id="path46" fill="#617171" points="525.746456 67.3704523 516.300912 67.3704523 516.300912 42.4693494 512.584578 42.4693494 512.584578 67.3704523 503.139034 67.3704523 503.139034 70.6103505 525.746456 70.6103505 525.746456 67.3704523"></polyline>
                            <polygon id="path48" fill="#617171" points="533.358787 42.4693494 537.075753 42.4693494 537.075753 70.6103505 533.358787 70.6103505"></polygon>
                            <path d="M549.807808,56.5797748 C549.807808,49.54336 553.643916,44.998586 559.612675,44.998586 C565.498257,44.998586 569.334366,49.5822867 569.334366,56.5797748 C569.334366,63.5353418 565.498257,68.0411891 559.529498,68.0411891 C552.891999,68.0411891 549.807808,62.587793 549.807808,56.5797748 L549.807808,56.5797748 Z M573.047373,56.775739 C573.047373,48.5152962 568.505926,41.7989453 559.57275,41.7989453 C550.559725,41.7989453 546.0948,48.6753281 546.0948,56.8565868 C546.0948,65.6290653 551.351567,71.2824181 559.529498,71.2824181 C568.269704,71.2824181 573.047373,65.1559563 573.047373,56.775739" id="path50" fill="#617171"></path>
                            <polyline id="path52" fill="#617171" points="586.032917 70.6103505 600.8916 47.7653752 600.8916 70.6103505 604.491487 70.6103505 604.491487 42.4693494 600.302709 42.4693494 585.517221 65.0365146 585.517221 42.4693494 581.960586 42.4693494 581.960586 70.6103505 586.032917 70.6103505"></polyline>
                            <path d="M624.883082,67.052052 L620.022237,54.0505382 L629.667405,54.0505382 L624.883082,67.052052 Z M638.044961,42.4693494 L633.896108,42.4693494 L630.775319,51.0861211 L618.954248,51.0861211 L615.75361,42.4693494 L611.801054,42.4693494 L622.870207,70.6103505 L627.058984,70.6103505 L638.044961,42.4693494" id="path54" fill="#617171"></path>
                            <polyline id="path56" fill="#617171" points="664.059301 42.4693494 645.407761 42.4693494 645.407761 70.6103505 649.120768 70.6103505 649.120768 45.7109111 664.059301 45.7109111 664.059301 42.4693494"></polyline>
                            <path d="M690.110238,57.1347296 L697.263433,57.1347296 C700.856666,57.1347296 703.628113,58.1208724 703.628113,62.2707235 C703.628113,66.77524 700.42082,67.409379 696.747737,67.409379 L690.110238,67.409379 L690.110238,57.1347296 L690.110238,57.1347296 Z M697.972098,70.6103505 C703.348639,70.6103505 707.34112,68.3582586 707.34112,62.5059471 C707.34112,56.1442616 703.232192,54.0102806 697.735876,54.0102806 L690.110238,54.0102806 L690.110238,42.4693494 L686.393904,42.4693494 L686.393904,70.6103505 L697.972098,70.6103505" id="path58" fill="#617171"></path>
                            <path d="M718.283844,56.5797748 C718.283844,49.54336 722.119953,44.998586 728.085385,44.998586 C733.970967,44.998586 737.807076,49.5822867 737.807076,56.5797748 C737.807076,63.5353418 733.970967,68.0411891 728.005535,68.0411891 C721.368036,68.0411891 718.283844,62.587793 718.283844,56.5797748 L718.283844,56.5797748 Z M741.52341,56.775739 C741.52341,48.5152962 736.978636,41.7989453 728.048787,41.7989453 C719.035762,41.7989453 714.56751,48.6753281 714.56751,56.8565868 C714.56751,65.6290653 719.824277,71.2824181 728.005535,71.2824181 C736.742414,71.2824181 741.52341,65.1559563 741.52341,56.775739" id="path60" fill="#617171"></path>
                            <path d="M766.682693,62.3499077 C766.250174,66.4219054 763.834724,68.0801158 759.685871,68.0801158 C755.656792,68.0801158 753.321191,66.3816479 753.321191,63.4155673 C753.321191,60.2548534 756.605006,59.5817876 760.953483,58.6744964 C765.534855,57.7232878 771.387166,56.3039609 771.387166,50.373796 C771.387166,44.1292233 765.814329,41.8352104 760.437788,41.8352104 C753.717112,41.8352104 748.779744,44.9583285 748.779744,51.7568579 L752.376304,51.7568579 C752.532676,46.6581272 756.24901,44.8804751 760.753859,44.8804751 C764.034348,44.8804751 767.750682,46.0266498 767.750682,50.0191306 C767.750682,53.6542844 764.19072,54.364946 759.566096,55.4332673 C755.024649,56.4600003 749.764556,57.212583 749.764556,63.1400862 C749.764556,68.9105518 754.904875,71.1643072 759.965344,71.1643072 C765.930776,71.1643072 770.039704,68.3971853 770.279253,62.3499077 L766.682693,62.3499077" id="path62" fill="#617171"></path>
                            <polyline id="path64" fill="#617171" points="799.580735 67.3704523 790.131864 67.3704523 790.131864 42.4693494 786.41553 42.4693494 786.41553 67.3704523 776.969985 67.3704523 776.969985 70.6103505 799.580735 70.6103505 799.580735 67.3704523"></polyline>
                            <path d="M178.756953,162.679287 C178.756953,163.763246 179.357489,164.36478 180.442778,164.36478 L191.033499,164.36478 C192.117458,164.36478 192.717661,163.763246 192.717661,162.679287 L192.717661,127.772362 C192.717661,118.02106 198.13579,111.039542 208.124977,111.039542 C217.877277,111.039542 223.653066,117.661072 223.653066,127.772362 L223.653066,162.679287 C223.653066,163.763246 224.253269,164.36478 225.338558,164.36478 L235.93194,164.36478 C237.015899,164.36478 237.617433,163.763246 237.617433,162.679287 L237.617433,127.650259 C237.617433,110.678223 226.301744,97.7988122 208.124977,97.7988122 C190.070313,97.7988122 178.756953,110.678223 178.756953,127.650259 L178.756953,162.679287" id="path66" fill="#2C2E2C"></path>
                            <path d="M264.801902,164.36478 C265.885861,164.36478 266.486396,163.763246 266.486396,162.679287 L266.486396,136.678921 L293.573382,163.401926 C294.294691,164.003793 295.375987,164.36478 296.701491,164.36478 L311.386168,164.36478 C312.471458,164.36478 312.830116,163.401926 311.986704,162.558515 L283.221878,135.596294 L313.792969,100.568263 C314.636713,99.7261824 314.155619,98.7633291 313.071661,98.7633291 L298.628861,98.7633291 C297.303358,98.7633291 296.338841,99.1233178 295.616534,99.9667293 L273.58902,127.409712 L266.486396,121.873472 L266.486396,100.447491 C266.486396,99.3648628 265.885861,98.7633291 264.801902,98.7633291 L254.211181,98.7633291 C253.128553,98.7633291 252.52702,99.3648628 252.52702,100.447491 L252.52702,162.679287 C252.52702,163.763246 253.128553,164.36478 254.211181,164.36478 L264.801902,164.36478" id="path68" fill="#2C2E2C"></path>
                            <path d="M354.22948,129.456856 C361.811867,129.456856 366.027261,134.271788 366.027261,140.411226 C366.027261,146.549665 361.811867,151.124382 354.22948,151.124382 L336.895459,151.124382 L336.895459,129.456856 L354.22948,129.456856 Z M354.22948,164.36478 C368.795381,164.36478 379.987636,154.011944 379.987636,140.411226 C379.987636,131.744215 375.293143,124.281603 368.432731,120.308419 L378.783237,100.447491 C379.268989,99.6067406 378.663463,98.7633291 377.70194,98.7633291 L365.904159,98.7633291 C364.93931,98.7633291 364.220663,99.1233178 363.741566,99.9667293 L355.673427,116.336899 C354.831679,116.216126 354.22948,116.216126 353.750382,116.216126 L336.895459,116.216126 L336.895459,100.447491 C336.895459,99.3648628 336.296587,98.7633291 335.211963,98.7633291 L324.618913,98.7633291 C323.536618,98.7633291 322.934752,99.3648628 322.934752,100.447491 L322.934752,162.679287 C322.934752,163.763246 323.536618,164.36478 324.618913,164.36478 L354.22948,164.36478" id="path70" fill="#2C2E2C"></path>
                            <path d="M424.437255,129.456856 C431.780093,129.456856 435.99216,134.031574 435.99216,140.411226 C435.99216,146.669107 431.780093,151.124382 424.437255,151.124382 L406.98346,151.124382 L406.98346,129.456856 L424.437255,129.456856 Z M424.437255,164.36478 C439.003156,164.36478 449.955862,153.892502 449.955862,140.411226 C449.955862,126.448189 439.003156,116.216126 424.437255,116.216126 L406.98346,116.216126 L406.98346,100.447491 C406.98346,99.3648628 406.381261,98.7633291 405.296637,98.7633291 L394.706582,98.7633291 C393.625285,98.7633291 393.023085,99.3648628 393.023085,100.447491 L393.023085,162.679287 C393.023085,163.763246 393.625285,164.36478 394.706582,164.36478 L424.437255,164.36478" id="path72" fill="#2C2E2C"></path>
                            <path d="M472.510052,131.503668 C472.510052,119.586113 480.934186,110.921431 492.971516,110.921431 C504.889071,110.921431 513.313206,119.586113 513.313206,131.503668 C513.313206,143.66044 504.889071,152.206677 492.971516,152.206677 C480.934186,152.206677 472.510052,143.66044 472.510052,131.503668 Z M492.971516,165.326635 C511.872586,165.326635 527.400009,150.761732 527.400009,131.503668 C527.400009,112.124832 511.872586,97.7988122 492.971516,97.7988122 C473.953999,97.7988122 458.426576,112.124832 458.426576,131.503668 C458.426576,150.761732 473.953999,165.326635 492.971516,165.326635" id="path74" fill="#2C2E2C"></path>
                            <path d="M592.044928,155.33645 C592.886676,154.734583 593.00645,154.011944 592.404251,153.171194 L586.385586,145.707251 C585.663612,144.86384 584.821864,144.744398 583.857015,145.58781 C578.443876,149.919319 571.460362,152.327783 563.152675,152.327783 C554.971416,152.327783 550.516473,150.040424 550.516473,146.309118 C550.516473,142.457039 554.126341,140.529669 565.082374,139.448372 C581.93397,137.883652 594.087747,132.224976 594.087747,118.504816 C594.087747,105.384859 581.814196,97.7988122 565.321923,97.7988122 C553.284593,97.7988122 543.895609,100.689368 535.228598,107.911433 C534.38685,108.511636 534.38685,109.355381 535.108824,110.318234 L540.768166,117.901619 C541.490139,118.864805 542.331887,118.985577 543.173635,118.261607 C549.794499,113.087685 556.052713,110.800326 565.564799,110.800326 C575.672429,110.800326 580.247147,113.808993 580.247147,118.261607 C580.247147,122.956099 575.672429,125.004242 563.515325,126.08687 C547.385703,127.409712 536.672546,132.224976 536.672546,145.828357 C536.672546,157.74325 548.111003,165.326635 563.877975,165.326635 C574.468031,165.326635 584.33944,161.716434 592.044928,155.33645" id="path76" fill="#2C2E2C"></path>
                            <path d="M618.601579,164.36478 C619.686203,164.36478 620.285075,163.763246 620.285075,162.679287 L620.285075,139.448372 L650.138851,139.448372 L650.138851,162.679287 C650.138851,163.763246 650.74105,164.36478 651.822347,164.36478 L662.419056,164.36478 C663.500353,164.36478 664.102552,163.763246 664.102552,162.679287 L664.102552,100.447491 C664.102552,99.3648628 663.500353,98.7633291 662.419056,98.7633291 L651.822347,98.7633291 C650.74105,98.7633291 650.138851,99.3648628 650.138851,100.447491 L650.138851,126.207642 L620.285075,126.207642 L620.285075,100.447491 C620.285075,99.3648628 619.686203,98.7633291 618.601579,98.7633291 L608.011524,98.7633291 C606.9269,98.7633291 606.328028,99.3648628 606.328028,100.447491 L606.328028,162.679287 C606.328028,163.763246 606.9269,164.36478 608.011524,164.36478 L618.601579,164.36478" id="path78" fill="#2C2E2C"></path>
                            <path d="M730.301212,164.36478 C731.385836,164.36478 731.988035,163.763246 731.988035,162.679287 L731.988035,152.809875 C731.988035,151.724585 731.385836,151.124382 730.301212,151.124382 L709.353996,151.124382 L709.353996,100.447491 C709.353996,99.3648628 708.755123,98.7633291 707.670499,98.7633291 L697.080444,98.7633291 C695.99582,98.7633291 695.393621,99.3648628 695.393621,100.447491 L695.393621,151.124382 L674.449732,151.124382 C673.365108,151.124382 672.762909,151.724585 672.762909,152.809875 L672.762909,162.679287 C672.762909,163.763246 673.365108,164.36478 674.449732,164.36478 L730.301212,164.36478" id="path80" fill="#2C2E2C"></path>
                            <path d="M752.349687,124.401045 L775.216621,124.401045 L764.623238,151.363266 L763.302393,151.363266 L752.349687,124.401045 Z M780.030887,111.764843 L747.292545,111.764843 L742.717827,100.207276 C742.358504,99.2440903 741.633203,98.7633291 740.671681,98.7633291 L728.754125,98.7633291 C727.553054,98.7633291 727.190404,99.3648628 727.553054,100.447491 L755.959555,163.401926 C756.199104,164.003793 756.681529,164.36478 757.526604,164.36478 L771.24743,164.36478 C772.089178,164.36478 772.568275,164.003793 772.811151,163.401926 L799.89348,100.689368 C800.25613,99.7261824 799.653931,98.7633291 798.569307,98.7633291 L787.134176,98.7633291 C785.933105,98.7633291 785.091357,99.3648628 784.605605,100.447491 L780.030887,111.764843" id="path82" fill="#2C2E2C"></path>
                        </g>
                    </g>
                </g>
            </g>
        </g>
    </g>
</svg>