<?xml version="1.0" encoding="UTF-8"?>
<svg width="980px" height="680px" viewBox="0 0 980 680" version="1.1" xmlns="http://www.w3.org/2000/svg" xmlns:xlink="http://www.w3.org/1999/xlink">
    <title>UK DPD local alt</title>
    <defs>
        <rect id="path-1" x="0" y="0" width="900" height="600" rx="80"></rect>
        <filter x="-6.7%" y="-10.0%" width="113.3%" height="120.0%" filterUnits="objectBoundingBox" id="filter-2">
            <feMorphology radius="2.5" operator="dilate" in="SourceAlpha" result="shadowSpreadOuter1"></feMorphology>
            <feOffset dx="0" dy="0" in="shadowSpreadOuter1" result="shadowOffsetOuter1"></feOffset>
            <feGaussianBlur stdDeviation="17.5" in="shadowOffsetOuter1" result="shadowBlurOuter1"></feGaussianBlur>
            <feColorMatrix values="0 0 0 0 0   0 0 0 0 0   0 0 0 0 0  0 0 0 0.5 0" type="matrix" in="shadowBlurOuter1"></feColorMatrix>
        </filter>
    </defs>
    <g id="UK-DPD-local-alt" stroke="none" stroke-width="1" fill="none" fill-rule="evenodd">
        <g transform="translate(40, 40)">
            <g id="Rectangle">
                <use fill="black" fill-opacity="1" filter="url(#filter-2)" xlink:href="#path-1"></use>
                <use fill="#0C99D6" fill-rule="evenodd" xlink:href="#path-1"></use>
            </g>
            <g id="Group" transform="translate(50, 130)" fill="#FFFFFF" fill-rule="nonzero">
                <path d="M202.436626,151.539986 C201.063092,152.338552 198.914948,152.27866 197.573356,151.448151 L189.687511,146.760565 C189.044665,146.365274 188.457718,145.726421 188.010521,144.959797 C187.986564,144.915876 187.958614,144.871955 187.934657,144.828034 C187.43156,144.00551 187.144076,143.139065 187.116127,142.344492 L186.916485,133.15299 C186.856592,131.603771 187.878758,129.715161 189.256285,128.912602 L284.034159,73.6957162 L151.032896,1.20982836 C149.567526,0.395290454 147.634995,0 145.702464,0 C143.76594,0 141.833409,0.399283287 140.364047,1.20982836 L7.36677664,73.6957162 L156.363328,160.432025 C157.744848,161.18667 158.794963,162.979452 158.794963,164.596549 L158.794963,291.129423 C158.794963,292.71857 157.657006,294.543295 156.2675,295.285962 L148.249891,299.73797 C147.583088,300.093332 146.736608,300.280996 145.850199,300.280996 L145.698471,300.280996 C144.736199,300.30096 143.841804,300.113297 143.139065,299.73797 L135.093507,295.285962 C133.723965,294.559266 132.609965,292.726556 132.609965,291.129423 L132.609965,178.331894 C132.538094,177.505378 131.935176,176.499184 131.272366,176.119865 L0,99.7090223 L0,249.380362 C0,252.730349 2.35976422,256.858938 5.25456805,258.551899 L140.447896,338.284779 C141.893302,339.131259 143.797883,339.550507 145.698471,339.546542 C147.603053,339.542521 149.503641,339.143238 150.949046,338.284779 L286.162339,258.551899 C289.045164,256.838974 291.400935,252.730349 291.396948,249.380362 L291.396948,99.7090223 L202.432633,151.539986 L202.436626,151.539986 Z" id="Path"></path>
                <path d="M498.744753,251.560449 C484.103035,255.43749 465.029272,257.354049 448.447038,257.354049 C405.883439,257.354049 377.698032,234.702709 377.698032,193.245125 C377.698032,154.007556 403.950908,128.593175 442.369946,128.593175 C450.934572,128.593175 460.046217,129.683219 465.580283,132.458237 L465.580283,75.5044695 L498.744753,75.5044695 L498.744753,251.564442 L498.744753,251.560449 Z M465.580283,161.745667 C460.329708,159.258132 453.422107,157.876611 445.117015,157.876611 C424.957202,157.876611 411.40952,170.318279 411.40952,192.147096 C411.40952,215.640925 426.051238,228.913101 449.545067,228.913101 C453.69362,228.913101 460.046217,228.625617 465.576291,227.531581 L465.576291,161.749659 L465.580283,161.745667 Z M770.872284,251.560449 C756.214595,255.43749 737.148818,257.354049 720.566583,257.354049 C678.01097,257.354049 649.809592,234.702709 649.809592,193.245125 C649.809592,154.007556 676.074446,128.593175 714.493484,128.593175 C723.058111,128.593175 732.177741,129.683219 737.707814,132.458237 L737.707814,75.5044695 L770.872284,75.5044695 L770.872284,251.564442 L770.872284,251.560449 Z M737.707814,161.745667 C732.449254,159.258132 725.53766,157.876611 717.252532,157.876611 C697.08074,157.876611 683.541044,170.318279 683.541044,192.147096 C683.541044,215.640925 698.186755,228.913101 721.676591,228.913101 C725.817158,228.913101 732.177741,228.625617 737.707814,227.531581 L737.707814,161.749659 L737.707814,161.745667 Z M550.895143,161.474154 C556.417231,159.258132 564.143363,158.435608 570.779451,158.435608 C591.234734,158.435608 605.329434,170.318279 605.329434,191.588099 C605.329434,216.683054 589.717457,228.030685 568.842927,228.322162 L568.842927,257.334085 C569.393938,257.334085 569.948942,257.354049 570.511931,257.354049 C613.343049,257.354049 639.048907,233.321188 639.048907,190.486077 C639.048907,151.520022 611.694009,128.589182 571.34244,128.589182 C550.899136,128.589182 530.711373,133.288747 517.451175,138.810835 L517.451175,304.357678 L550.899136,304.357678 L550.899136,161.474154 L550.895143,161.474154 Z" id="Shape"></path>
                <path d="M651.446653,268.378261 L651.446653,306.681507 C651.446653,309.66016 652.800224,311.081609 654.964339,311.081609 C656.521544,311.081609 657.807236,310.606461 659.092928,309.863794 L659.635953,315.48171 C658.078749,316.224377 655.371608,317.106793 652.392955,317.106793 C647.589577,317.106793 644.407289,314.671165 644.407289,308.30659 L644.407289,268.378261 L651.446653,268.378261 L651.446653,268.378261 Z M681.832111,280.085247 C692.932187,280.085247 700.782096,288.070913 700.782096,298.831597 C700.782096,309.592282 692.932187,317.374313 681.832111,317.374313 C670.732036,317.374313 662.950005,309.456526 662.950005,298.831597 C662.950005,288.206669 670.867792,280.085247 681.832111,280.085247 Z M681.832111,310.877974 C689.07511,310.877974 694.014244,305.667327 694.014244,298.831597 C694.014244,291.995867 689.07511,286.581586 681.832111,286.581586 C674.589113,286.581586 669.785735,291.860111 669.785735,298.831597 C669.785735,305.803083 674.656991,310.877974 681.832111,310.877974 Z M725.825144,280.085247 C731.239425,280.085247 735.843162,281.981843 739.157213,284.956503 L735.639527,290.16715 C733.475412,288.138791 730.361002,286.581586 726.096657,286.581586 C718.921536,286.581586 714.05028,291.656477 714.05028,298.695841 C714.05028,305.735205 718.921536,310.877974 726.096657,310.877974 C730.361002,310.877974 733.471419,309.320769 735.639527,307.29241 L739.157213,312.503057 C735.843162,315.48171 731.239425,317.374313 725.825144,317.374313 C714.65719,317.374313 706.875159,309.320769 706.875159,298.695841 C706.875159,288.070913 714.65719,280.085247 725.825144,280.085247 Z M747.075,282.860266 C750.460923,281.438817 755.467935,280.424638 759.9998,280.424638 C770.081703,280.424638 774.278171,286.314066 774.278171,293.892463 L774.278171,316.428012 L767.238806,316.428012 L767.238806,312.570935 C764.7353,314.938685 761.149736,317.106793 755.935097,317.106793 C748.3567,317.106793 743.88872,312.978204 743.88872,306.481865 C743.88872,298.021052 750.72445,293.960341 760.538833,293.960341 C763.042339,293.960341 765.278325,294.231854 767.238806,294.639123 L767.238806,294.231854 C767.238806,288.953329 764.667422,286.449823 759.456775,286.449823 C755.735455,286.449823 751.403231,287.464002 748.3567,288.953329 L747.071008,282.864259 L747.075,282.860266 Z M758.107198,311.488877 C762.303665,311.488877 765.418075,309.528397 767.242799,307.903314 L767.242799,299.714013 C765.889229,299.374623 763.924755,299.10311 761.964274,299.10311 C755.739448,299.10311 750.932077,301.135462 750.932077,305.735205 C750.932077,309.592282 753.774974,311.488877 758.107198,311.488877 Z M791.8107,268.378261 L791.8107,306.681507 C791.8107,309.66016 793.16427,311.081609 795.328386,311.081609 C796.88559,311.081609 798.171283,310.606461 799.456975,309.863794 L800,315.48171 C798.442795,316.224377 795.735655,317.106793 792.757001,317.106793 C787.953623,317.106793 784.771335,314.671165 784.771335,308.30659 L784.771335,268.378261 L791.8107,268.378261 L791.8107,268.378261 Z" id="Shape"></path>
            </g>
        </g>
    </g>
</svg>