<?xml version="1.0" encoding="UTF-8"?>
<svg width="980px" height="680px" viewBox="0 0 980 680" version="1.1" xmlns="http://www.w3.org/2000/svg" xmlns:xlink="http://www.w3.org/1999/xlink">
    <title>UK Parcel Force</title>
    <defs>
        <rect id="path-1" x="0.2" y="0" width="900" height="600" rx="80"></rect>
        <filter x="-6.7%" y="-10.0%" width="113.3%" height="120.0%" filterUnits="objectBoundingBox" id="filter-2">
            <feMorphology radius="2.5" operator="dilate" in="SourceAlpha" result="shadowSpreadOuter1"></feMorphology>
            <feOffset dx="0" dy="0" in="shadowSpreadOuter1" result="shadowOffsetOuter1"></feOffset>
            <feGaussianBlur stdDeviation="17.5" in="shadowOffsetOuter1" result="shadowBlurOuter1"></feGaussianBlur>
            <feColorMatrix values="0 0 0 0 0   0 0 0 0 0   0 0 0 0 0  0 0 0 0.5 0" type="matrix" in="shadowBlurOuter1"></feColorMatrix>
        </filter>
    </defs>
    <g id="UK-Parcel-Force" stroke="none" stroke-width="1" fill="none" fill-rule="evenodd">
        <g transform="translate(39.8, 40)">
            <g id="Rectangle">
                <use fill="black" fill-opacity="1" filter="url(#filter-2)" xlink:href="#path-1"></use>
                <use fill="#E50012" fill-rule="evenodd" xlink:href="#path-1"></use>
            </g>
            <g id="Logo" transform="translate(0, 117.9)" fill-rule="nonzero">
                <path d="M900.003036,311.427 L900.003036,407.757699 C897.100525,449.300365 862.480645,482.1 820.2,482.1 L80.2,482.1 C36.01722,482.1 0.2,446.28278 0.2,402.1 L0.2,311.427 L900.003036,311.427 Z" id="Path" fill="#004A97"></path>
                <rect id="Rectangle" fill="#E50012" x="0" y="0" width="900" height="311.747953"></rect>
                <rect id="Rectangle" fill="#004A97" x="0" y="311.427554" width="900" height="34.6030616"></rect>
                <g id="Group" transform="translate(0.3204, 30.7583)">
                    <path d="M671.876112,241.901032 C634.069064,226.842293 594.339623,214.667141 553.008188,205.05518 C587.61125,207.938768 631.185475,213.385546 678.284087,229.405482 C679.245283,231.327875 679.565682,232.929868 679.245283,233.891064 C678.604486,236.774653 676.041296,239.337843 671.876112,241.901032 M637.273051,251.512994 C608.437166,234.531862 578.960484,220.11392 549.163403,207.938768 C590.494838,217.230331 629.90388,229.405482 667.39053,244.143823 C660.341759,247.347811 649.768601,249.911 637.273051,251.512994 M591.135635,253.114988 C574.154503,236.133855 556.532574,221.075116 538.910644,207.938768 C569.98932,220.11392 600.747597,234.531862 630.544678,251.833393 C619.330723,253.114988 605.873977,253.755785 591.135635,253.114988 M543.075828,248.629405 C538.910644,232.929868 534.425062,218.832325 529.619082,206.016376 C548.522606,219.152723 567.42613,234.852261 585.688857,252.794589 C572.232111,252.153791 558.134567,250.872197 543.075828,248.629405 M517.44393,243.823425 C509.433962,242.221431 501.744393,240.299039 494.054824,238.376646 C504.627981,225.240299 514.88074,214.026344 524.492702,204.414382 C529.619082,217.230331 533.784265,231.648273 538.269847,247.988608 C531.541474,246.707013 524.813101,245.425418 517.44393,243.823425 M489.88964,237.095052 C475.471698,233.250267 462.335351,228.764685 449.839801,223.958704 C473.869705,214.98754 497.258811,208.259167 519.686721,203.773585 C510.395158,213.385546 499.822001,224.599502 489.88964,237.095052 M409.149163,205.375578 C443.111428,201.851193 476.753293,200.569598 510.07476,202.171591 C488.608046,206.977572 466.820933,213.385546 444.393022,222.036312 C431.256675,216.589534 419.401922,211.142755 409.149163,205.375578 M380.313279,184.229263 C420.04272,185.831257 460.09256,190.316839 500.462798,198.006408 C468.743325,197.045212 436.062656,198.647205 403.702385,202.171591 C393.449626,195.763617 385.439658,189.676041 380.313279,184.229263 M272.979708,228.764685 C265.610538,216.589534 262.40655,204.414382 264.96974,193.520826 C265.290139,191.918832 265.930936,190.316839 266.892132,188.394446 C302.45639,184.229263 338.661445,182.627269 375.507298,183.588466 C379.99288,189.355643 387.682449,195.763617 397.935208,202.49199 C355.962976,207.938768 314.311143,216.589534 272.979708,228.764685 M155.07298,206.977572 C160.840157,202.49199 168.529726,198.006408 178.782485,194.482022 C210.822357,184.229263 243.503026,176.219295 276.824493,170.452118 C271.377714,174.617302 266.571734,180.06408 263.688145,185.190459 C226.842293,189.676041 190.316839,196.724813 155.07298,206.977572 M145.461018,209.540762 C131.683873,213.705945 118.227127,218.191527 104.770381,222.997508 C120.790317,215.628337 136.810253,208.899964 153.150587,203.132787 C149.9466,205.375578 147.38341,207.297971 145.461018,209.540762 M346.030616,162.44215 C354.040584,162.762549 363.011748,163.403346 372.62371,164.684941 C371.342115,165.966536 370.380918,167.56853 370.06052,169.170523 C369.419722,172.374511 370.380918,176.219295 372.62371,180.384478 C337.700249,179.423282 303.097188,181.025276 269.134923,184.870061 C273.620506,177.821289 280.669277,170.772517 288.999644,168.850125 C307.58277,165.646137 326.806693,163.403346 346.030616,162.44215 M373.584906,169.811321 C373.905304,168.529726 375.186899,166.927732 377.42969,165.325739 C415.557138,170.772517 460.733357,182.306871 495.01602,192.880028 C455.606978,185.831257 416.197935,181.345675 377.109292,180.384478 C376.788893,180.06408 376.468494,179.743681 376.148095,179.423282 C373.905304,175.578498 372.944108,172.374511 373.584906,169.811321 M389.284443,160.840157 C405.304379,160.840157 421.644713,161.480954 437.664649,162.44215 C460.412958,168.209327 487.006052,179.743681 510.395158,193.520826 C476.112496,182.306871 425.809897,168.529726 382.876468,162.121752 C384.798861,161.801353 387.041652,161.160555 389.284443,160.840157 M508.152367,171.092916 C512.958348,178.141687 518.084728,189.035244 520.968316,195.763617 C500.462798,182.627269 477.073692,171.413314 455.286579,164.044144 C472.908508,165.646137 490.530438,168.209327 508.152367,171.092916 M530.900676,175.578498 C536.667853,176.860093 542.755429,178.141687 548.522606,179.423282 C540.192239,185.510858 530.259879,193.841225 526.094696,197.686009 C523.851905,192.55963 518.405126,180.704877 513.278747,172.054112 C519.045924,173.015308 525.133499,174.296903 530.900676,175.578498 M603.631185,194.802421 C581.523674,192.880028 556.212175,194.161623 531.541474,198.006408 C536.988252,193.200427 546.279815,185.190459 553.648985,180.704877 C570.309719,184.870061 587.290851,189.676041 603.631185,194.802421 M664.186543,217.871129 C668.031328,219.793521 671.235315,221.715913 673.478106,223.638305 C623.495906,207.297971 577.999288,203.132787 543.075828,200.249199 C569.98932,196.724813 596.902812,196.404414 619.330723,199.9288 C634.389462,205.375578 649.127803,211.463154 664.186543,217.871129 M743.645425,258.561766 C755.179779,265.610538 766.714133,272.979708 777.928088,280.669277 L784.656461,280.669277 C708.721965,227.48309 624.136703,190.957636 531.861873,171.733713 C414.91634,147.38341 295.407618,153.791385 184.229263,188.394446 L184.229263,188.394446 C182.947668,188.714845 181.666073,189.355643 180.384478,189.676041 C139.693841,202.812389 100.284799,219.473122 62.4777501,239.97864 C62.4777501,239.97864 62.4777501,239.97864 62.1573514,239.97864 L62.1573514,239.97864 C41.011036,251.512994 20.1851193,264.008544 4.55313964e-14,278.106088 L4.55313964e-14,280.669277 L3.20398718,280.669277 C22.748309,267.212531 43.253827,254.716981 63.759345,243.503026 C88.750445,232.289071 114.702741,222.997508 140.975436,214.98754 C135.849057,221.715913 133.606266,228.764685 132.004272,235.813457 C129.120684,249.911 130.402278,264.96974 136.169455,280.989676 L141.295835,280.989676 C135.208259,265.290139 133.926664,250.551798 136.810253,237.095052 C138.412246,229.405482 141.616234,220.754717 148.985404,212.744749 C185.831257,201.851193 223.638305,194.161623 261.765753,189.355643 C261.124956,190.637237 260.804557,191.918832 260.484158,192.880028 C257.920968,204.734781 260.804557,217.230331 268.494126,230.366679 C225.240299,243.503026 182.627269,260.484158 141.295835,280.989676 L149.9466,280.989676 C189.355643,262.086152 229.725881,246.066216 270.416518,233.891064 C280.669277,249.590602 297.650409,265.610538 320.719117,280.989676 L329.049484,280.989676 C304.058384,264.96974 285.475258,248.629405 274.9021,232.60947 C317.194731,220.11392 360.128159,211.463154 402.741189,206.336775 C412.993948,212.42435 425.169099,218.511926 439.266643,224.279103 C403.381986,238.376646 366.215735,257.280171 329.369883,280.989676 L337.059452,280.989676 C373.264507,258.241367 409.469562,239.97864 444.713421,226.521894 C457.849769,231.648273 471.947312,236.454254 487.646849,240.939836 C478.034888,253.114988 467.782129,266.571734 457.849769,281.310075 L463.937344,281.310075 C473.869705,266.892132 482.840869,254.076184 492.132431,242.221431 C500.142399,244.464222 508.472766,246.386614 517.123532,248.309007 C524.813101,249.911 532.182271,251.192595 539.871841,252.47419 C542.114632,261.445354 544.037024,271.377714 546.279815,281.310075 L551.726593,281.310075 C549.804201,271.377714 546.600214,262.086152 544.357423,253.114988 C560.05696,255.357779 575.436098,256.959772 589.854041,257.60057 C597.54361,265.290139 604.91278,273.300107 612.281951,281.630473 L617.40833,281.630473 C610.03916,273.300107 602.669989,265.290139 595.300819,257.920968 C610.359559,258.241367 624.457102,257.920968 636.632253,256.318975 C650.089,264.328943 663.225347,272.659309 676.682093,281.630473 L683.410466,281.630473 C669.95372,272.338911 656.496974,263.688145 642.719829,255.357779 C655.215379,253.435386 665.468138,250.551798 672.51691,246.707013 C698.148807,256.959772 722.819509,268.494126 746.529014,281.310075 L754.538982,281.310075 C729.547882,267.53293 703.275187,255.03738 676.361695,244.143823 C679.88608,241.580634 682.128871,238.376646 683.090068,235.172659 C683.410466,234.211463 683.410466,232.929868 683.090068,231.648273 C697.828409,236.774653 712.887148,243.182627 727.945888,250.872197 C727.625489,249.911 740.12104,256.639373 743.645425,258.561766" id="Shape" fill="#FFFFFF"></path>
                    <path d="M185.510858,65.6817373 L195.443218,48.7006052 L201.210395,48.7006052 C201.210395,48.7006052 206.016376,49.0210039 205.05518,53.8269847 L205.05518,53.8269847 C204.734781,54.7881808 204.093984,56.3901744 203.453186,57.6717693 C201.530794,61.1961552 197.365611,64.4001424 193.841225,65.3613386 C193.520826,65.3613386 193.520826,65.3613386 193.200427,65.3613386 C189.99644,66.002136 185.510858,65.6817373 185.510858,65.6817373 M181.666073,72.4101104 C181.666073,72.4101104 189.676041,72.7305091 194.802421,71.4489142 C200.249199,69.8469206 206.977572,64.7205411 209.861161,59.2737629 C210.822357,57.3513706 213.385546,52.5453898 211.783553,47.4190103 C211.783553,47.4190103 211.783553,47.4190103 211.783553,47.4190103 C210.181559,41.3314347 204.093984,41.9722321 204.093984,41.9722321 L190.637237,42.6130295 L164.044144,88.1096476 L171.413314,88.4300463 L172.374511,88.4300463 L181.666073,72.4101104" id="Shape" fill="#FFFFFF"></path>
                    <polygon id="Path" fill="#FFFFFF" points="672.196511 165.966536 672.51691 163.723745 665.468138 162.762549 660.341759 162.44215 663.225347 135.849057 663.545746 133.285867 657.778569 132.965468 653.613386 167.56853 659.060164 167.888928 671.876112 169.170523"></polygon>
                    <path d="M549.163403,63.1185475 C553.648985,48.0598078 564.862941,38.1274475 582.805269,37.4866501 C594.019224,37.1662513 600.1068,42.6130295 602.990388,49.3414026 C605.873977,56.0697757 605.553578,64.0797437 604.271983,69.2061232 C602.349591,76.254895 594.339623,92.2748309 571.591314,92.9156283 C565.503738,93.2360271 559.736561,91.9544322 555.571378,88.750445 C548.843005,84.5852617 545.318619,76.254895 549.163403,63.1185475 M571.270915,107.653969 C607.47597,104.770381 617.40833,85.5464578 621.573514,65.6817373 C623.175507,58.3125667 621.893912,49.9822001 618.369527,42.9334283 C612.922748,32.6806693 601.708793,24.9911 584.086864,25.6318975 C568.707725,26.2726949 556.852973,33.001068 548.843005,41.011036 C546.279815,43.253827 544.357423,45.8170167 542.43503,48.0598078 C538.910644,52.8657885 536.667853,57.6717693 535.386258,60.8757565 C534.745461,62.7981488 534.425062,64.4001424 534.104664,66.002136 C533.143467,70.487718 532.823069,74.3325027 532.823069,77.8568886 C533.143467,87.1484514 537.308651,94.1972232 542.755429,99.003204 C550.765397,105.731577 561.658953,108.294767 571.270915,107.653969" id="Shape" fill="#FFFFFF"></path>
                    <polygon id="Path" fill="#FFFFFF" points="507.191171 70.1673193 529.619082 70.1673193 530.580278 66.002136 532.823069 58.3125667 520.00712 58.3125667 510.395158 58.3125667 515.201139 41.011036 539.551442 40.0498398 540.512638 37.1662513 542.43503 29.1562834 503.987184 30.4378782 492.132431 72.4101104 491.491634 74.9733001 483.802065 102.52759 493.093628 102.847989 497.899608 103.168387"></polygon>
                    <polygon id="Path" fill="#FFFFFF" points="373.264507 41.9722321 375.827697 35.5642577 364.93414 35.8846565 362.050552 42.6130295 358.526166 51.5841937 352.43859 65.6817373 348.593806 74.6529014 341.545034 91.9544322 339.94304 96.1196155 344.108224 96.1196155 348.914204 96.4400142 372.62371 97.4012104 374.225703 93.2360271 376.468494 86.8280527 365.254539 86.1872553 356.283375 85.8668565"></polygon>
                    <polygon id="Path" fill="#FFFFFF" points="337.700249 91.6340335 340.263439 85.5464578 329.369883 85.2260591 321.039516 84.9056604 328.729085 68.244927 345.06942 68.244927 346.030616 65.6817373 348.593806 59.2737629 340.904236 59.2737629 332.253471 59.2737629 338.341047 45.496618 356.283375 44.8558206 357.244571 42.6130295 360.128159 35.8846565 331.292275 37.1662513 305.339979 94.5176219 310.466358 94.8380206 313.670345 94.8380206 336.098256 95.7992168"></polygon>
                    <path d="M303.417586,91.9544322 L304.058384,90.6728373 L308.223567,80.740477 C299.252403,85.2260591 293.485226,85.5464578 289.96084,84.2648629 C286.116056,82.9832681 284.514062,79.7792809 284.193663,77.5364899 C283.232467,73.6917052 285.795657,66.6429334 290.601638,59.9145603 C292.203631,57.6717693 294.446422,55.4289783 296.689213,53.1861873 C296.689213,53.1861873 297.009612,52.8657885 297.009612,52.8657885 C297.650409,52.2249911 298.291207,51.5841937 298.932004,50.9433962 C300.213599,49.9822001 301.174795,49.3414026 302.135991,48.7006052 C314.631541,41.3314347 322.321111,50.6229975 322.321111,50.6229975 L325.525098,43.5742257 L326.806693,40.6906372 C324.243503,36.8458526 306.621574,32.3602706 290.601638,46.7782129 C288.999644,48.3802065 287.39765,49.9822001 285.795657,51.9045924 C280.02848,58.9533642 274.9021,67.9245283 273.620506,75.2936988 C273.300107,77.5364899 272.979708,79.7792809 273.300107,81.7016732 C274.581702,88.1096476 277.46529,91.6340335 280.989676,93.5564258 C289.96084,98.3624066 303.417586,91.9544322 303.417586,91.9544322" id="Path" fill="#FFFFFF"></path>
                    <polygon id="Path" fill="#FFFFFF" points="400.177999 67.2837309 399.537202 66.002136 412.993948 55.1085796 373.584906 65.0409398 367.817729 66.3225347 372.303311 67.9245283 382.876468 71.4489142 405.304379 79.1384834"></polygon>
                    <polygon id="Path" fill="#FFFFFF" points="442.150231 50.6229975 442.47063 47.739409 448.237807 0 419.401922 49.6618014 434.140263 38.1274475 435.742257 40.3702385 439.587042 46.4578142"></polygon>
                    <polygon id="Path" fill="#FFFFFF" points="423.567106 88.4300463 416.197935 93.8768245 413.634745 95.7992168 412.993948 94.8380206 408.187967 85.2260591 406.906372 82.3424706 406.585974 84.5852617 398.255607 137.45105 409.149163 118.867925 430.615878 83.3036668"></polygon>
                    <polygon id="Path" fill="#FFFFFF" points="489.88964 66.3225347 449.199003 55.1085796 446.635813 54.4677821 443.752225 53.506586 451.121396 66.6429334 444.713421 72.0897116 434.781061 80.0996796 440.868637 78.497686 457.52937 74.3325027 479.316483 68.8857245"></polygon>
                    <polygon id="Path" fill="#FFFFFF" points="778.568886 102.847989 778.889284 115.663937 780.811677 115.663937 786.899252 115.984336 841.367035 118.547526 841.046636 111.819153 840.405838 101.566394 807.084372 100.284799 799.074404 99.9644001 798.433606 72.7305091 833.997864 73.0509078 833.036668 57.0309719 797.47241 57.0309719 797.152011 34.6030616 833.357067 33.6418654 833.036668 28.5154859 832.39587 17.9423282 777.928088 19.8647205 777.928088 34.6030616 778.248487 51.2637949"></polygon>
                    <polygon id="Path" fill="#FFFFFF" points="421.324315 64.0797437 429.654681 50.3025988 411.391954 64.4001424 409.149163 66.002136"></polygon>
                    <path d="M223.958704,69.2061232 L214.026344,69.2061232 L228.764685,51.2637949 L223.958704,69.2061232 Z M236.774653,46.1374155 L238.056248,40.6906372 L228.444286,41.011036 L217.230331,54.4677821 L217.230331,54.4677821 L199.288003,76.5752937 L198.647205,77.2160911 L188.714845,89.3912424 L197.045212,89.7116412 L198.006408,89.7116412 L208.259167,76.5752937 L222.036312,77.2160911 L220.754717,82.3424706 L218.832325,90.993236 L224.599502,91.3136347 L227.48309,91.3136347 L236.774653,46.1374155" id="Shape" fill="#FFFFFF"></path>
                    <path d="M257.920968,65.3613386 C253.755785,66.3225347 250.231399,66.002136 249.911,65.6817373 L259.522962,47.4190103 L267.212531,47.0986116 C271.698113,47.739409 272.338911,49.9822001 272.018512,52.8657885 C271.377714,55.749377 269.455322,58.9533642 268.173727,60.2349591 C264.96974,63.4389462 261.124956,64.7205411 257.920968,65.3613386 M259.202563,72.7305091 C274.261303,70.487718 279.067284,58.6329655 280.348879,54.4677821 C281.630473,50.9433962 281.630473,48.0598078 280.989676,46.1374155 C279.387682,39.0886436 270.09612,39.4090424 270.09612,39.4090424 L254.396582,40.0498398 L227.803489,90.993236 L232.60947,91.3136347 L235.493058,91.3136347 L236.454254,91.3136347 L249.590602,66.002136 L255.03738,92.2748309 L258.882164,92.2748309 L264.96974,92.5952296 L259.202563,72.7305091" id="Shape" fill="#FFFFFF"></path>
                    <path d="M692.061232,78.8180847 C693.663225,86.507654 698.148807,93.8768245 704.556782,100.284799 C719.295123,114.702741 744.92702,122.712709 772.48131,109.89676 L772.48131,105.731577 L772.48131,91.3136347 C768.316127,94.1972232 757.102172,98.6828053 746.849413,98.6828053 C736.596654,99.003204 727.305091,95.7992168 720.256319,90.0320399 C713.848345,84.5852617 709.683161,76.8956924 708.401566,67.6041296 C706.479174,51.2637949 724.741901,38.4478462 732.43147,36.2050552 C755.820577,29.4766821 771.520114,41.6518334 771.520114,41.6518334 L771.520114,32.6806693 L771.520114,24.9911 C768.956924,23.0687077 751.975792,19.2239231 740.441438,19.8647205 C733.713065,20.1851193 710.00356,24.6707013 698.148807,43.8946244 C693.663225,51.2637949 690.779637,60.5553578 691.100036,72.7305091 C691.100036,74.9733001 691.420434,76.8956924 692.061232,78.8180847" id="Path" fill="#FFFFFF"></path>
                    <path d="M618.689925,108.294767 L631.185475,108.935564 L635.671057,109.255963 L644.96262,38.1274475 C644.96262,38.1274475 656.496974,37.4866501 661.943752,37.4866501 C666.108936,37.4866501 671.235315,40.6906372 672.837309,46.4578142 C673.157707,48.0598078 673.478106,49.9822001 673.157707,51.9045924 C671.235315,61.8369527 661.623354,65.6817373 653.613386,66.9633321 C647.205411,67.9245283 641.438234,67.6041296 641.438234,67.6041296 L651.370595,82.6628693 L669.95372,110.537558 L675.400498,110.857957 L691.100036,111.498754 L666.429334,77.8568886 C679.565682,72.7305091 688.536846,65.6817373 690.138839,54.1473834 C691.420434,45.1762193 689.818441,39.0886436 686.934852,34.6030616 C679.565682,23.0687077 663.866145,24.0299039 663.866145,24.0299039 L630.224279,25.3114988 L620.612318,94.5176219 L618.689925,108.294767" id="Path" fill="#FFFFFF"></path>
                    <polygon id="Path" fill="#FFFFFF" points="845.532218 184.549662 845.211819 180.384478 831.114276 179.102884 825.667497 178.462086 825.0267 166.286935 843.609826 167.888928 843.289427 165.966536 843.289427 161.801353 830.153079 160.840157 824.706301 160.199359 824.065504 149.626201 843.930224 150.907796 843.930224 148.985404 843.609826 144.820221 817.657529 143.218227 819.259523 184.549662 825.0267 184.870061 845.852617 187.112852"></polygon>
                    <path d="M786.578854,174.9377 L786.258455,147.38341 L787.219651,147.38341 C794.268423,147.703809 798.113208,148.985404 800.996796,151.548594 C801.637593,152.189391 802.278391,152.830189 802.919188,153.470986 C804.521182,155.393378 805.482378,158.276967 805.802777,162.121752 C806.123176,167.56853 804.200783,170.452118 801.317195,172.694909 C800.0356,173.656105 797.792809,175.258099 792.346031,175.578498 C791.064436,175.578498 789.462442,175.578498 787.860449,175.258099 C787.860449,174.9377 787.219651,174.9377 786.578854,174.9377 M811.569954,162.762549 C811.569954,156.034176 809.327163,151.228195 806.123176,148.024208 C801.317195,143.218227 793.948024,141.616234 788.821645,141.295835 L779.530082,140.655037 L779.850481,180.384478 L785.617658,181.025276 L788.180847,181.345675 C796.831613,181.986472 811.569954,179.102884 811.569954,162.762549" id="Shape" fill="#FFFFFF"></path>
                    <polygon id="Path" fill="#FFFFFF" points="771.840513 143.859025 771.840513 140.01424 765.752937 139.693841 765.752937 178.782485 771.199715 179.423282 772.160911 179.423282"></polygon>
                    <polygon id="Path" fill="#FFFFFF" points="585.04806 127.839089 578.640085 127.51869 572.55251 139.373443 569.98932 144.179423 566.785333 132.004272 565.183339 125.596298 556.852973 139.373443 553.969384 144.499822 550.444998 127.51869 550.1246 125.916696 544.357423 125.596298 551.406194 156.995372 562.940548 139.053044 568.066928 158.917764 583.766465 130.08188"></polygon>
                    <path d="M591.456034,153.150587 C589.533642,150.907796 588.892844,148.344607 589.533642,145.461018 C590.174439,142.257031 591.456034,139.693841 594.019224,137.771449 C596.582414,135.528658 599.466002,134.567462 602.669989,134.567462 C605.553578,134.567462 607.796369,135.528658 609.398362,137.130651 C609.718761,137.45105 610.03916,137.45105 610.03916,137.771449 C611.961552,140.01424 612.60235,142.57743 611.961552,145.781417 C611.641153,148.985404 610.03916,151.548594 607.47597,153.470986 C604.91278,155.393378 602.029192,156.354575 598.825205,156.354575 C597.864009,156.354575 596.902812,156.034176 596.262015,156.034176 C594.660021,155.713777 593.058028,154.752581 591.456034,153.150587 M611.641153,157.956568 C615.485938,155.07298 617.728729,150.907796 618.049128,146.422214 C618.689925,141.936632 617.40833,137.771449 614.524742,134.567462 C613.883944,133.926664 613.243147,133.285867 612.60235,132.645069 C610.03916,130.402278 606.835173,129.441082 603.310787,129.441082 C598.825205,129.441082 594.660021,131.043076 590.815237,133.926664 C586.970452,137.130651 584.727661,140.655037 583.766465,145.140619 C583.125667,149.626201 584.086864,153.791385 586.970452,156.995372 C588.572446,158.917764 590.494838,160.199359 593.058028,160.840157 C594.660021,161.480954 596.582414,161.801353 598.504806,161.801353 C603.310787,162.121752 607.796369,160.840157 611.641153,157.956568" id="Shape" fill="#FFFFFF"></path>
                    <path d="M639.195443,153.150587 L639.195443,153.150587 C644.001424,152.189391 646.885012,148.665005 647.52581,143.218227 C647.846209,139.693841 647.205411,137.130651 645.283019,134.88786 C643.360627,132.645069 640.477038,131.363475 636.632253,131.363475 L626.059096,130.722677 L621.893912,164.364543 L626.379494,164.684941 L627.661089,164.684941 L631.505874,136.489854 L637.273051,136.810253 C639.515842,136.810253 641.117836,137.771449 641.758633,139.693841 C642.079032,140.655037 642.39943,141.616234 642.079032,142.897828 C641.438234,146.742613 637.59345,147.703809 634.389462,147.703809 C632.146671,147.703809 630.224279,147.38341 630.224279,147.38341 L633.748665,153.470986 L640.477038,165.646137 L643.040228,165.966536 L647.52581,166.286935 L639.195443,153.150587" id="Path" fill="#FFFFFF"></path>
                    <path d="M686.614454,140.334639 L688.536846,140.334639 C692.38163,140.655037 697.50801,141.295835 700.711997,144.820221 C702.313991,146.742613 703.595586,149.626201 703.275187,153.470986 C702.313991,163.082948 696.226415,165.00534 689.818441,164.684941 C688.857245,164.684941 687.57565,164.684941 686.614454,164.364543 L684.692061,164.044144 L686.614454,140.334639 Z M708.721965,154.432182 C709.362763,147.703809 707.119972,143.218227 703.915984,140.334639 C699.750801,136.489854 693.983624,135.208259 689.177643,134.88786 L680.847277,134.247063 L677.643289,169.811321 L682.769669,170.452118 L685.332859,170.772517 C694.304023,171.733713 707.44037,170.452118 708.721965,154.432182" id="Shape" fill="#FFFFFF"></path>
                    <polygon id="Path" fill="#FFFFFF" points="758.704165 139.373443 752.61659 139.053044 745.888216 156.354575 743.645425 161.160555 737.55785 143.538626 734.99466 136.810253 725.0623 159.558562 718.654325 140.01424 717.693129 136.810253 711.285155 136.169455 724.101104 174.9377 726.343895 170.131719 734.353863 151.228195 737.237451 159.558562 743.325027 177.180491 745.247419 172.054112 757.42257 142.897828"></polygon>
                    <polygon id="Path" fill="#9EABD3" points="418.761125 79.1384834 421.324315 64.0797437 409.149163 66.002136 410.751157 69.5265219 418.120328 83.3036668"></polygon>
                    <polygon id="Path" fill="#9EABD3" points="426.450694 65.0409398 439.266643 67.2837309 434.460662 58.6329655 431.256675 53.1861873 429.654681 50.6229975 429.654681 50.3025988 421.324315 64.0797437"></polygon>
                    <polygon id="Path" fill="#004A97" points="421.324315 64.0797437 418.761125 79.1384834 418.120328 83.3036668 420.04272 81.7016732 439.266643 67.2837309 426.450694 65.0409398"></polygon>
                </g>
            </g>
        </g>
    </g>
</svg>