<?xml version="1.0" encoding="UTF-8"?>
<svg width="980px" height="680px" viewBox="0 0 980 680" version="1.1" xmlns="http://www.w3.org/2000/svg" xmlns:xlink="http://www.w3.org/1999/xlink">
    <title>UK Royal Mail</title>
    <defs>
        <linearGradient x1="50%" y1="0%" x2="50%" y2="100%" id="linearGradient-1">
            <stop stop-color="#FFFFFF" offset="0%"></stop>
            <stop stop-color="#EDEDED" offset="100%"></stop>
        </linearGradient>
        <rect id="path-2" x="0" y="0" width="900" height="600" rx="80"></rect>
        <filter x="-6.7%" y="-10.0%" width="113.3%" height="120.0%" filterUnits="objectBoundingBox" id="filter-3">
            <feMorphology radius="2.5" operator="dilate" in="SourceAlpha" result="shadowSpreadOuter1"></feMorphology>
            <feOffset dx="0" dy="0" in="shadowSpreadOuter1" result="shadowOffsetOuter1"></feOffset>
            <feGaussianBlur stdDeviation="17.5" in="shadowOffsetOuter1" result="shadowBlurOuter1"></feGaussianBlur>
            <feColorMatrix values="0 0 0 0 0   0 0 0 0 0   0 0 0 0 0  0 0 0 0.5 0" type="matrix" in="shadowBlurOuter1"></feColorMatrix>
        </filter>
    </defs>
    <g id="UK-Royal-Mail" stroke="none" stroke-width="1" fill="none" fill-rule="evenodd">
        <g transform="translate(40, 40)">
            <g id="Rectangle">
                <use fill="black" fill-opacity="1" filter="url(#filter-3)" xlink:href="#path-2"></use>
                <use fill="url(#linearGradient-1)" fill-rule="evenodd" xlink:href="#path-2"></use>
            </g>
            <g id="Logo" transform="translate(76, 50)">
                <g id="Group-4" transform="translate(247.3142, -0)">
                    <polygon id="Fill-2" fill="#FFFFFE" points="5.68821747e-14 500 254.629112 500 254.629112 0 5.68821747e-14 0"></polygon>
                    <polygon id="Stroke-3" stroke="#EE2722" stroke-width="6.8" points="5.68821747e-14 500 254.629112 500 254.629112 0 5.68821747e-14 0"></polygon>
                </g>
                <path d="M368.198867,51.3742187 L380.819466,51.3742187 C380.291106,50.9939596 379.838798,50.533646 379.322446,50.0252996 C377.136957,47.8117915 377.493199,45.294076 378.385808,44.3894597 C379.282418,43.4848434 381.776118,44.5375606 383.965609,46.7510687 C384.513983,47.2914369 384.986305,47.8558215 385.386577,48.420206 L385.386577,32.7655399 C384.998313,33.2979026 384.566018,33.806249 384.041661,34.3386117 C381.852169,36.5521198 379.35847,37.6048371 378.461859,36.7002208 C377.565248,35.7956044 378.60996,33.2658808 380.799452,31.0643809 C381.335818,30.52001 381.840161,30.0436854 382.388535,29.6514182 L366.990043,29.6514182 C367.494387,30.0196691 368.018744,30.4879881 368.515082,30.988329 C370.704574,33.189829 371.745283,35.7235553 370.852675,36.6241689 C369.956064,37.5287853 367.462365,36.476068 365.272873,34.2665626 C364.736508,33.7221917 364.252178,33.1818235 363.863913,32.6254445 L363.863913,48.2160669 C364.24017,47.6957124 364.692478,47.187366 365.200824,46.6750169 C367.390316,44.4655115 369.884015,43.4127943 370.776623,44.3134079 C371.673234,45.2180242 372.03348,47.7357396 369.839985,49.9492478 C369.291611,50.5056269 368.759249,50.9819514 368.198867,51.3742187" id="Fill-5" fill="#EE2722"></path>
                <path d="M361.802509,68.4858774 C362.999324,74.4419355 368.222883,78.9410009 374.47114,78.9410009 C380.735408,78.9410009 385.954965,74.4539437 387.155783,68.4858774 L361.802509,68.4858774" id="Fill-6" fill="#EE2722"></path>
                <path d="M387.147777,63.2302966 C386.09506,58.0947976 382.064314,54.0360323 376.956834,53.0353505 L376.956834,63.2302966 L387.147777,63.2302966" id="Fill-7" fill="#EE2722"></path>
                <path d="M371.853357,53.0673723 C366.809921,54.1120841 362.83121,58.1268194 361.802509,63.2302966 L371.853357,63.2302966 L371.853357,53.0673723" id="Fill-8" fill="#EE2722"></path>
                <path d="M370.568481,84.5328108 C370.568481,82.3633326 372.31367,80.5981299 374.47114,80.5981299 C376.62861,80.5981299 378.377802,82.3633326 378.377802,84.5328108 C378.377802,86.7142971 376.62861,88.4794998 374.47114,88.4794998 C372.31367,88.4794998 370.568481,86.7142971 370.568481,84.5328108" id="Fill-9" fill="#EE2722"></path>
                <path d="M370.568481,94.4235497 C370.568481,92.2540715 372.31367,90.4888689 374.47114,90.4888689 C376.62861,90.4888689 378.377802,92.2540715 378.377802,94.4235497 C378.377802,96.605036 376.62861,98.3702387 374.47114,98.3702387 C372.31367,98.3702387 370.568481,96.605036 370.568481,94.4235497" id="Fill-10" fill="#EE2722"></path>
                <path d="M370.568481,104.326297 C370.568481,102.14481 372.31367,100.379608 374.47114,100.379608 C376.62861,100.379608 378.377802,102.14481 378.377802,104.326297 C378.377802,106.491772 376.62861,108.260978 374.47114,108.260978 C372.31367,108.260978 370.568481,106.491772 370.568481,104.326297" id="Fill-11" fill="#EE2722"></path>
                <path d="M370.568481,114.217036 C370.568481,112.035549 372.31367,110.270347 374.47114,110.270347 C376.62861,110.270347 378.377802,112.035549 378.377802,114.217036 C378.377802,116.394519 376.62861,118.151717 374.47114,118.151717 C372.31367,118.151717 370.568481,116.394519 370.568481,114.217036" id="Fill-12" fill="#EE2722"></path>
                <path d="M370.168209,136.228033 C370.168209,133.826396 372.09352,131.889076 374.47114,131.889076 C376.84876,131.889076 378.778075,133.826396 378.778075,136.228033 C378.778075,138.633672 376.84876,140.578997 374.47114,140.578997 C372.09352,140.578997 370.168209,138.633672 370.168209,136.228033" id="Fill-13" fill="#EE2722"></path>
                <path d="M439.363354,148.808604 C440.880387,149.320953 442.805699,147.639808 443.670288,145.046041 C444.534877,142.460279 444.006517,139.938561 442.493486,139.430214 C440.976453,138.921868 439.047138,140.599011 438.186552,143.184772 C437.321963,145.77854 437.850323,148.28825 439.363354,148.808604" id="Fill-14" fill="#EE2722"></path>
                <path d="M309.578927,148.808604 C308.061893,149.320953 306.140584,147.639808 305.271993,145.046041 C304.411406,142.460279 304.939766,139.938561 306.452797,139.430214 C307.969831,138.921868 309.895142,140.599011 310.755729,143.184772 C311.624321,145.77854 311.095961,148.28825 309.578927,148.808604" id="Fill-15" fill="#EE2722"></path>
                <path d="M388.977024,74.5059791 C388.977024,71.3158056 391.534766,68.7220383 394.700924,68.7220383 C397.863078,68.7220383 400.420821,71.3158056 400.420821,74.5059791 C400.420821,77.6961527 397.863078,80.2779118 394.700924,80.2779118 C391.534766,80.2779118 388.977024,77.6961527 388.977024,74.5059791" id="Fill-16" fill="#EE2722"></path>
                <path d="M402.346133,68.6780083 C402.346133,65.4878348 404.903875,62.902073 408.058024,62.902073 C411.220179,62.902073 413.785927,65.4878348 413.785927,68.6780083 C413.785927,71.8761874 411.220179,74.4659519 408.058024,74.4659519 C404.903875,74.4659519 402.346133,71.8761874 402.346133,68.6780083" id="Fill-17" fill="#EE2722"></path>
                <path d="M416.071484,63.7306375 C416.071484,60.5324585 418.629227,57.9466967 421.795384,57.9466967 C424.953536,57.9466967 427.515281,60.5324585 427.515281,63.7306375 C427.515281,66.9208111 424.953536,69.5105756 421.795384,69.5105756 C418.629227,69.5105756 416.071484,66.9208111 416.071484,63.7306375" id="Fill-18" fill="#EE2722"></path>
                <path d="M430.533338,63.2302966 C430.533338,60.0441258 433.103088,57.4463558 436.257237,57.4463558 C439.415389,57.4463558 441.977135,60.0441258 441.977135,63.2302966 C441.977135,66.4244729 439.415389,69.0182402 436.257237,69.0182402 C433.103088,69.0182402 430.533338,66.4244729 430.533338,63.2302966" id="Fill-19" fill="#EE2722"></path>
                <path d="M443.774359,68.9341829 C443.774359,65.7440093 446.332102,63.1462394 449.502262,63.1462394 C452.656411,63.1462394 455.218156,65.7440093 455.218156,68.9341829 C455.218156,72.1243565 452.656411,74.7101182 449.502262,74.7101182 C446.332102,74.7101182 443.774359,72.1243565 443.774359,68.9341829" id="Fill-20" fill="#EE2722"></path>
                <path d="M453.048678,80.3539636 C453.048678,77.1557846 455.606421,74.5700228 458.764572,74.5700228 C461.922724,74.5700228 464.492475,77.1557846 464.492475,80.3539636 C464.492475,83.5441372 461.922724,86.1298989 458.764572,86.1298989 C455.606421,86.1298989 453.048678,83.5441372 453.048678,80.3539636" id="Fill-21" fill="#EE2722"></path>
                <path d="M456.42698,94.4435633 C456.42698,91.2533897 458.984722,88.6596225 462.142874,88.6596225 C465.313034,88.6596225 467.866774,91.2533897 467.866774,94.4435633 C467.866774,97.6377396 465.313034,100.219499 462.142874,100.219499 C458.984722,100.219499 456.42698,97.6377396 456.42698,94.4435633" id="Fill-22" fill="#EE2722"></path>
                <path d="M455.670464,108.909419 C455.670464,105.719246 458.228207,103.137487 461.386359,103.137487 C464.540508,103.137487 467.110259,105.719246 467.110259,108.909419 C467.110259,112.099593 464.540508,114.69336 461.386359,114.69336 C458.228207,114.69336 455.670464,112.099593 455.670464,108.909419" id="Fill-23" fill="#EE2722"></path>
                <path d="M451.89189,122.754853 C451.89189,119.564679 454.449633,116.98292 457.61579,116.98292 C460.773942,116.98292 463.331684,119.564679 463.331684,122.754853 C463.331684,125.945026 460.773942,128.538794 457.61579,128.538794 C454.449633,128.538794 451.89189,125.945026 451.89189,122.754853" id="Fill-24" fill="#EE2722"></path>
                <path d="M348.557484,74.5059791 C348.557484,71.3158056 351.115227,68.7220383 354.273379,68.7220383 C357.431531,68.7220383 359.997279,71.3158056 359.997279,74.5059791 C359.997279,77.6961527 357.431531,80.2779118 354.273379,80.2779118 C351.115227,80.2779118 348.557484,77.6961527 348.557484,74.5059791" id="Fill-25" fill="#EE2722"></path>
                <path d="M335.188376,68.6780083 C335.188376,65.4878348 337.758127,62.902073 340.916278,62.902073 C344.07443,62.902073 346.632173,65.4878348 346.632173,68.6780083 C346.632173,71.8761874 344.07443,74.4659519 340.916278,74.4659519 C337.758127,74.4659519 335.188376,71.8761874 335.188376,68.6780083" id="Fill-26" fill="#EE2722"></path>
                <path d="M321.463024,63.7306375 C321.463024,60.5324585 324.020767,57.9466967 327.178919,57.9466967 C330.349078,57.9466967 332.906821,60.5324585 332.906821,63.7306375 C332.906821,66.9208111 330.349078,69.5105756 327.178919,69.5105756 C324.020767,69.5105756 321.463024,66.9208111 321.463024,63.7306375" id="Fill-27" fill="#EE2722"></path>
                <path d="M307.001171,63.2302966 C307.001171,60.0441258 309.558913,57.4463558 312.717065,57.4463558 C315.875217,57.4463558 318.444968,60.0441258 318.444968,63.2302966 C318.444968,66.4244729 315.875217,69.0182402 312.717065,69.0182402 C309.558913,69.0182402 307.001171,66.4244729 307.001171,63.2302966" id="Fill-28" fill="#EE2722"></path>
                <path d="M293.760149,68.9341829 C293.760149,65.7440093 296.317892,63.1462394 299.476044,63.1462394 C302.634195,63.1462394 305.203946,65.7440093 305.203946,68.9341829 C305.203946,72.1243565 302.634195,74.7101182 299.476044,74.7101182 C296.317892,74.7101182 293.760149,72.1243565 293.760149,68.9341829" id="Fill-29" fill="#EE2722"></path>
                <path d="M284.48583,80.3539636 C284.48583,77.1557846 287.055581,74.5700228 290.20973,74.5700228 C293.371885,74.5700228 295.929627,77.1557846 295.929627,80.3539636 C295.929627,83.5441372 293.371885,86.1298989 290.20973,86.1298989 C287.055581,86.1298989 284.48583,83.5441372 284.48583,80.3539636" id="Fill-30" fill="#EE2722"></path>
                <path d="M281.107528,94.4435633 C281.107528,91.2533897 283.665271,88.6596225 286.823423,88.6596225 C289.98958,88.6596225 292.547323,91.2533897 292.547323,94.4435633 C292.547323,97.6377396 289.98958,100.219499 286.823423,100.219499 C283.665271,100.219499 281.107528,97.6377396 281.107528,94.4435633" id="Fill-31" fill="#EE2722"></path>
                <path d="M281.864044,108.909419 C281.864044,105.719246 284.421787,103.137487 287.591947,103.137487 C290.750098,103.137487 293.303838,105.719246 293.303838,108.909419 C293.303838,112.099593 290.750098,114.69336 287.591947,114.69336 C284.421787,114.69336 281.864044,112.099593 281.864044,108.909419" id="Fill-32" fill="#EE2722"></path>
                <path d="M285.642618,122.754853 C285.642618,119.564679 288.200361,116.98292 291.358513,116.98292 C294.528673,116.98292 297.086415,119.564679 297.086415,122.754853 C297.086415,125.945026 294.528673,128.538794 291.358513,128.538794 C288.200361,128.538794 285.642618,125.945026 285.642618,122.754853" id="Fill-33" fill="#EE2722"></path>
                <path d="M324.56914,127.55012 C322.863979,128.718916 321.158817,135.323416 327.307006,140.366852 C328.503821,137.580954 329.884762,137.300763 331.169638,137.580954 C332.45051,137.857143 333.4632,138.549614 334.159675,141.171401 L342.801563,140.502945 C342.937655,138.229396 343.950345,136.736379 345.96772,136.188005 C347.808974,135.847773 349.462101,136.736379 350.843042,138.873835 C352.107904,135.12328 352.328054,130.295991 351.039175,127.562128 L359.905216,127.55012 L359.905216,146.266872 C364.116085,139.057961 370.09616,138.229396 370.64053,144.269511 C371.12486,149.545106 364.660456,155.413104 358.504262,155.413104 C352.348067,155.413104 348.117184,152.79532 343.790236,146.014701 L335.144346,146.683156 C333.587285,151.882699 325.49377,156.986176 317.956635,154.300346 C314.318156,152.99946 311.760413,151.042126 312.621,148.724547 C313.63369,146.034714 316.999983,148.224206 319.525704,149.192866 C319.525704,149.192866 315.939261,137.208701 314.190069,132.093215 C313.725752,133.486164 311.612312,138.60165 308.854433,137.01657 C307.357413,136.167992 308.318068,132.645592 310.031235,127.570134 L324.56914,127.55012 Z M331.04155,127.55012 C331.557902,128.859012 332.178325,130.187917 332.914827,131.536836 C331.157629,129.391374 329.684626,128.178548 328.44378,127.570134 L331.04155,127.55012 Z M343.726193,127.55012 C342.597424,128.742933 341.768859,130.135882 341.368586,131.07252 C341.628764,129.815664 341.852916,128.646867 342.029036,127.562128 L343.726193,127.55012 Z M368.671189,127.55012 C369.67187,129.263287 369.924042,130.752302 369.179535,131.464787 C367.974714,132.601562 364.640442,131.272656 361.714449,128.486758 C361.37822,128.16654 361.074012,127.862333 360.789819,127.55012 L368.671189,127.55012 Z M388.188486,127.55012 C387.904293,127.862333 387.596083,128.16654 387.259854,128.486758 C384.337863,131.272656 380.999588,132.601562 379.79877,131.464787 C379.05026,130.752302 379.302432,129.263287 380.303114,127.562128 L388.188486,127.55012 Z M397.903105,127.55012 C396.61823,130.295991 396.842383,135.12328 398.103242,138.873835 C399.48018,136.736379 401.133306,135.847773 402.974561,136.188005 C404.999941,136.736379 406.008628,138.229396 406.144721,140.502945 L414.786609,141.171401 C415.479081,138.549614 416.491771,137.857143 417.776646,137.580954 C419.061521,137.300763 420.43846,137.580954 421.639278,140.366852 C427.783464,135.323416 426.082305,128.718916 424.37314,127.55012 L438.943067,127.55012 C440.660237,132.645592 441.616889,136.167992 440.123872,137.01657 C437.365993,138.60165 435.24855,133.486164 434.784234,132.093215 C433.039045,137.208701 429.452601,149.192866 429.452601,149.192866 C431.974319,148.224206 435.332607,146.034714 436.353303,148.724547 C437.217892,151.042126 434.660149,152.99946 431.017668,154.300346 C423.480532,156.986176 415.387018,151.882699 413.817949,146.683156 L405.176061,146.014701 C400.861121,152.79532 396.630238,155.413104 390.470041,155.413104 C384.313847,155.413104 377.853445,149.545106 378.337775,144.269511 C378.882146,138.229396 384.86222,139.057961 389.073089,146.266872 L389.073089,127.55012 L397.903105,127.55012 Z M406.913244,127.55012 C407.093367,128.646867 407.313517,129.815664 407.577697,131.07252 C407.177424,130.135882 406.344857,128.742933 405.220091,127.562128 L406.913244,127.55012 Z M420.502503,127.55012 C419.261658,128.178548 417.788654,129.391374 416.027454,131.536836 C416.767959,130.187917 417.388381,128.859012 417.904733,127.562128 L420.502503,127.55012 L420.502503,127.55012 Z" id="Fill-34" fill="#EE2722"></path>
                <path d="M310.031235,127.55012 C310.403489,126.457375 310.823775,125.264563 311.244062,124.011709 L302.001764,126.837635 C302.001764,126.837635 294.820872,116.93889 294.152416,99.775196 C293.139726,74.3138482 310.50756,70.0389356 318.136758,69.9548783 C326.326338,69.8588129 330.092904,71.9962692 337.630039,74.9742982 C345.179183,77.9403191 350.410747,82.3953545 365.304895,84.0764999 L364.296208,91.4975561 C349.221937,91.4975561 335.064291,80.6741818 320.990702,80.5781163 C305.452115,80.4740454 303.334673,96.1487251 303.526803,100.976014 C303.706926,105.803303 303.979112,110.918788 307.201307,117.703411 C307.841743,113.800752 310.663666,101.99671 314.834508,99.9553187 C326.50646,95.1280297 338.190421,99.2108114 338.190421,99.2108114 C351.611565,95.0319642 362.915267,95.0319642 362.915267,95.0319642 L362.967302,79.6094563 L368.210875,77.4319727 L368.210875,119.372548 L380.76743,119.372548 L380.76743,77.4319727 L386.011003,79.6094563 L386.063038,95.0319642 C386.063038,95.0319642 397.36674,95.0319642 410.787884,99.2108114 C410.787884,99.2108114 422.471845,95.1280297 434.143797,99.9553187 C438.650868,101.99671 441.132559,113.800752 441.776998,117.703411 C444.995191,110.918788 445.271379,105.803303 445.447499,100.976014 C445.635627,96.1487251 443.522187,80.4740454 427.9836,80.5781163 C413.914014,80.6741818 399.756368,91.4975561 384.682097,91.4975561 L383.669407,84.0764999 C398.567558,82.3953545 403.79512,77.9403191 411.344263,74.9742982 C418.881399,71.9962692 422.647965,69.8588129 430.829539,69.9548783 C438.470746,70.0389356 455.838579,74.3138482 454.825889,99.775196 C454.145425,116.93889 446.972538,126.837635 446.972538,126.837635 L437.734244,124.011709 C438.15453,125.264563 438.566811,126.457375 438.943067,127.570134 L424.37314,127.55012 C424.325108,127.50609 424.269069,127.478071 424.217034,127.458057 C423.248374,126.985735 422.051559,126.805613 420.502503,127.570134 L417.904733,127.55012 C421.198978,119.160404 419.73398,112.055563 413.914014,107.388383 C406.713108,114.07694 405.24811,117.683397 406.913244,127.562128 L405.220091,127.55012 C403.999259,126.309275 402.438195,125.308593 400.672993,125.404658 C399.396123,125.476707 398.491506,126.297266 397.903105,127.562128 L389.073089,127.55012 L389.073089,126.489397 C388.796901,126.849643 388.504702,127.201883 388.188486,127.55012 L380.303114,127.55012 C380.915531,126.529425 381.808139,125.404658 382.912892,124.347938 C383.641388,123.659469 384.313847,123.051055 385.054351,122.562722 L363.923954,122.562722 C364.660456,123.051055 365.336917,123.659469 366.061411,124.347938 C367.166163,125.404658 368.062774,126.517416 368.671189,127.562128 L360.789819,127.55012 C360.473603,127.201883 360.177402,126.849643 359.905216,126.489397 L359.905216,127.55012 L351.039175,127.55012 C350.454777,126.297266 349.546158,125.476707 348.273291,125.404658 C346.504085,125.308593 344.947025,126.309275 343.726193,127.562128 L342.029036,127.55012 C343.694171,117.683397 342.233176,114.07694 335.032269,107.388383 C329.212304,112.055563 327.747306,119.160404 331.04155,127.562128 L328.44378,127.55012 C326.894725,126.805613 325.705915,126.985735 324.729249,127.458057 C324.673211,127.478071 324.625179,127.50609 324.56914,127.55012 L310.031235,127.55012" id="Fill-35" fill="#EE2722"></path>
                <path d="M435.892989,166.132407 L436.997742,155.317039 C436.997742,155.317039 432.999017,159.635981 426.006253,159.455858 C419.017491,159.263728 412.721201,154.200278 409.967325,150.117496 C409.406943,149.192866 408.630414,149.14083 408.030005,150.157523 C403.79512,155.92145 400.032556,160.14833 389.733539,160.14833 C379.438525,160.14833 375.579896,153.647901 374.291018,151.786633 C372.998137,153.647901 369.135505,160.14833 358.840491,160.14833 C348.545476,160.14833 344.77891,155.92145 340.548027,150.157523 C339.947618,149.14083 339.167086,149.192866 338.610707,150.117496 C335.852828,154.200278 329.556538,159.263728 322.567777,159.455858 C315.579015,159.635981 311.580291,155.317039 311.580291,155.317039 L312.685043,166.132407 L435.892989,166.132407" id="Fill-36" fill="#EE2722"></path>
                <path d="M314.894549,196.240921 C310.487546,196.240921 306.905105,192.834601 306.905105,188.63574 C306.905105,184.432876 310.487546,181.034561 314.894549,181.034561 L433.679481,181.034561 C438.102495,181.034561 441.680933,184.432876 441.680933,188.63574 C441.680933,192.834601 438.102495,196.240921 433.679481,196.240921 L314.894549,196.240921" id="Fill-37" fill="#EE2722"></path>
                <polyline id="Fill-38" fill="#EE2722" points="323.260249 177.98048 323.260249 169.334589 312.685043 169.334589 309.01054 173.609502 312.685043 177.98048 323.260249 177.98048"></polyline>
                <path d="M332.882805,173.661537 C332.882805,171.055762 337.053647,168.938319 342.18114,168.938319 C347.312636,168.938319 351.483478,171.055762 351.483478,173.661537 C351.483478,176.267313 347.312636,178.37675 342.18114,178.37675 C337.053647,178.37675 332.882805,176.267313 332.882805,173.661537" id="Fill-39" fill="#EE2722"></path>
                <polyline id="Fill-40" fill="#EE2722" points="425.309779 177.98048 425.309779 169.334589 435.892989 169.334589 439.56349 173.609502 435.892989 177.98048 425.309779 177.98048"></polyline>
                <path d="M397.10256,173.661537 C397.10256,171.055762 401.261394,168.938319 406.396893,168.938319 C411.532392,168.938319 415.691225,171.055762 415.691225,173.661537 C415.691225,176.267313 411.532392,178.37675 406.396893,178.37675 C401.261394,178.37675 397.10256,176.267313 397.10256,173.661537" id="Fill-41" fill="#EE2722"></path>
                <polygon id="Fill-42" fill="#EE2722" points="362.607057 177.972475 385.96297 177.972475 385.96297 169.334589 362.607057 169.334589"></polygon>
                <polygon id="Fill-43" fill="#EE2722" points="0 416.266833 748.858223 416.266833 748.858223 230.664375 0 230.664375"></polygon>
                <path d="M662.231201,261.461358 C657.375893,261.461358 653.441212,265.440069 653.441212,270.351416 C653.441212,275.254756 657.375893,279.245475 662.231201,279.245475 C667.094515,279.245475 671.029196,275.254756 671.029196,270.351416 C671.029196,265.440069 667.094515,261.461358 662.231201,261.461358 Z M662.231201,273.07327 C660.74619,273.07327 659.533363,271.852438 659.533363,270.351416 C659.533363,268.842387 660.74619,267.629561 662.231201,267.629561 C663.724219,267.629561 664.937045,268.842387 664.937045,270.351416 C664.937045,271.852438 663.724219,273.07327 662.231201,273.07327 L662.231201,273.07327 Z" id="Fill-44" fill="#FFF200"></path>
                <path d="M187.960064,297.121655 C180.478967,289.560503 170.53219,285.389662 159.940973,285.389662 C138.102094,285.389662 120.333988,303.349899 120.333988,325.416934 C120.333988,336.108218 124.448791,346.155063 131.933891,353.716215 C139.414988,361.277367 149.365768,365.448208 159.940973,365.448208 C170.53219,365.448208 180.478967,361.277367 187.960064,353.716215 C195.449166,346.155063 199.56397,336.108218 199.56397,325.416934 C199.56397,314.729652 195.449166,304.678804 187.960064,297.121655 Z M183.120767,348.832888 C176.93255,355.08915 168.702943,358.52349 159.940973,358.52349 C151.195014,358.52349 142.965407,355.08915 136.777191,348.832888 C130.584972,342.584631 127.174649,334.262961 127.174649,325.416934 C127.174649,307.156492 141.880668,292.310377 159.940973,292.310377 C168.702943,292.310377 176.93255,295.74872 183.120767,302.012988 C189.308983,308.265248 192.719306,316.570907 192.719306,325.416934 C192.719306,334.262961 189.308983,342.584631 183.120767,348.832888 L183.120767,348.832888 Z" id="Fill-45" fill="#FFF200"></path>
                <path d="M181.267504,303.882261 C175.575626,298.130342 168.006469,294.964185 159.940973,294.964185 C151.891489,294.964185 144.322332,298.130342 138.630454,303.882261 C132.934573,309.638183 129.796435,317.283392 129.796435,325.416934 C129.796435,333.554478 132.934573,341.199687 138.630454,346.951606 C144.322332,352.703525 151.891489,355.877688 159.940973,355.877688 C176.572305,355.877688 190.101523,342.212377 190.101523,325.416934 C190.101523,317.283392 186.963385,309.638183 181.267504,303.882261 Z M159.940973,348.964978 C153.724738,348.964978 147.868748,346.515309 143.469751,342.072281 C139.070754,337.617246 136.637096,331.701215 136.637096,325.416934 C136.637096,319.132652 139.070754,313.220624 143.469751,308.765588 C147.868748,304.318559 153.724738,301.872892 159.940973,301.872892 C166.17322,301.872892 172.025207,304.318559 176.428207,308.765588 C180.827204,313.220624 183.256859,319.132652 183.256859,325.416934 C183.256859,338.405783 172.797733,348.964978 159.940973,348.964978 L159.940973,348.964978 Z" id="Fill-46" fill="#FFF200"></path>
                <path d="M266.369487,287.695232 L266.369487,357.618874 C266.369487,364.571611 263.68766,371.104062 258.824346,376.015408 C253.961033,380.930757 247.500631,383.644606 240.611937,383.644606 C233.743258,383.644606 227.278853,380.930757 222.403531,376.015408 C218.921159,372.497011 216.579563,368.138041 215.518841,363.394809 L208.542087,363.394809 C209.698875,369.987301 212.784978,376.071446 217.57224,380.910743 C223.732437,387.130982 231.910008,390.553313 240.611937,390.553313 C249.329877,390.553313 257.507449,387.130982 263.663643,380.910743 C269.82384,374.686503 273.21415,366.424874 273.21415,357.618874 L273.21415,287.695232 L266.369487,287.695232" id="Fill-47" fill="#FFF200"></path>
                <path d="M240.611937,359.063858 C246.391875,359.063858 251.971677,357.418738 256.899034,354.388673 L256.899034,357.618874 C256.899034,366.689054 249.594057,374.074085 240.611937,374.074085 C236.264976,374.074085 232.182194,372.368924 229.100094,369.254802 C227.434959,367.573656 226.214128,365.564287 225.405577,363.394809 L218.224684,363.394809 C219.233371,367.425556 221.278765,371.128078 224.268802,374.146135 C228.635778,378.55714 234.435729,380.994801 240.611937,380.994801 C253.372632,380.994801 263.747701,370.507656 263.747701,357.618874 L263.747701,336.71263 C262.402784,339.594593 260.60556,342.264412 258.340016,344.54997 C253.488711,349.45331 247.192421,352.155151 240.611937,352.155151 C233.743258,352.155151 227.278853,349.45331 222.403531,344.537961 C217.540218,339.614607 214.866396,333.086159 214.866396,326.141427 L214.866396,287.695232 L208.025735,287.695232 L208.025735,326.141427 C208.025735,334.939422 211.416045,343.201051 217.57224,349.417286 C223.732437,355.641527 231.910008,359.063858 240.611937,359.063858" id="Fill-48" fill="#FFF200"></path>
                <path d="M224.268802,342.65668 C228.635778,347.071688 234.435729,349.505346 240.611937,349.505346 C253.152482,349.505346 263.747701,338.349745 263.747701,325.152754 L263.747701,287.695232 L256.899034,287.695232 L256.899034,325.152754 C256.899034,334.447086 249.297855,342.592636 240.611937,342.592636 C236.264976,342.592636 232.182194,340.883472 229.100094,337.773352 C226.025999,334.659231 224.332846,330.532419 224.332846,326.141427 L224.332846,287.695232 L217.488182,287.695232 L217.488182,326.141427 C217.488182,332.381679 219.901827,338.245674 224.268802,342.65668" id="Fill-49" fill="#FFF200"></path>
                <polygon id="Fill-50" fill="#FFF200" points="383.621375 363.382801 390.462036 363.382801 390.462036 263.278597 383.621375 263.278597"></polygon>
                <polygon id="Fill-51" fill="#FFF200" points="374.146919 363.382801 380.98758 363.382801 380.98758 263.278597 374.146919 263.278597"></polygon>
                <polygon id="Fill-52" fill="#FFF200" points="663.504069 363.394809 670.344729 363.394809 670.344729 287.623183 663.504069 287.623183"></polygon>
                <polygon id="Fill-53" fill="#FFF200" points="654.029613 363.394809 660.870274 363.394809 660.870274 287.623183 654.029613 287.623183"></polygon>
                <polygon id="Fill-54" fill="#FFF200" points="694.505191 363.382801 701.345852 363.382801 701.345852 263.278597 694.505191 263.278597"></polygon>
                <polygon id="Fill-55" fill="#FFF200" points="685.038741 363.382801 691.879402 363.382801 691.879402 263.278597 685.038741 263.278597"></polygon>
                <path d="M301.749593,305.499363 C296.233835,311.071159 293.191762,318.48421 293.191762,326.36558 C293.191762,334.242947 296.233835,341.655998 301.749593,347.231797 C307.265351,352.815601 314.598347,355.877688 322.399662,355.877688 C338.506636,355.877688 351.611565,342.636666 351.611565,326.36558 L351.611565,296.853472 L322.399662,296.853472 C314.598347,296.853472 307.265351,299.915559 301.749593,305.499363 Z M344.766902,326.36558 C344.766902,338.830072 334.736067,348.964978 322.399662,348.964978 C316.431596,348.964978 310.811767,346.611374 306.58889,342.34847 C302.370015,338.073557 300.032423,332.405695 300.032423,326.36558 C300.032423,320.325465 302.370015,314.657603 306.58889,310.38269 C310.811767,306.115783 316.431596,303.766182 322.399662,303.766182 L344.766902,303.766182 L344.766902,326.36558 L344.766902,326.36558 Z" id="Fill-56" fill="#FFF200"></path>
                <path d="M322.399662,287.282952 C301.077134,287.282952 283.729315,304.818899 283.729315,326.36558 C283.729315,336.804692 287.752056,346.611374 295.05303,353.992403 C302.358007,361.373432 312.072626,365.448208 322.399662,365.448208 C330.537207,365.448208 338.274478,362.886463 344.766902,358.21528 L344.766902,363.394809 L351.611565,363.394809 L351.611565,339.138282 C350.042496,342.816789 347.800969,346.195091 344.915003,349.113079 C338.894901,355.181213 330.905458,358.52349 322.399662,358.52349 C313.905875,358.52349 305.908426,355.181213 299.89633,349.113079 C293.884234,343.028933 290.569976,334.959435 290.569976,326.36558 C290.569976,308.625493 304.851706,294.203667 322.399662,294.203667 L354.229349,294.203667 L354.229349,363.394809 L361.082018,363.394809 L361.082018,287.282952 L322.399662,287.282952" id="Fill-57" fill="#FFF200"></path>
                <path d="M581.043886,305.499363 C575.528128,311.071159 572.486055,318.48421 572.486055,326.36558 C572.486055,334.242947 575.528128,341.655998 581.043886,347.231797 C586.559644,352.815601 593.896643,355.877688 601.693955,355.877688 C617.80093,355.877688 630.905858,342.636666 630.905858,326.36558 L630.905858,296.853472 L601.693955,296.853472 C593.896643,296.853472 586.559644,299.915559 581.043886,305.499363 Z M624.065198,326.36558 C624.065198,338.830072 614.034363,348.964978 601.693955,348.964978 C595.725889,348.964978 590.10606,346.611374 585.887186,342.34847 C581.6523,338.073557 579.330718,332.405695 579.330718,326.36558 C579.330718,320.325465 581.6523,314.657603 585.887186,310.38269 C590.10606,306.115783 595.725889,303.766182 601.693955,303.766182 L624.065198,303.766182 L624.065198,326.36558 L624.065198,326.36558 Z" id="Fill-58" fill="#FFF200"></path>
                <path d="M601.693955,287.282952 C580.371427,287.282952 563.023608,304.818899 563.023608,326.36558 C563.023608,336.804692 567.046349,346.611374 574.347323,353.992403 C581.6523,361.373432 591.366919,365.448208 601.693955,365.448208 C609.8315,365.448208 617.568771,362.886463 624.065198,358.21528 L624.065198,363.394809 L630.905858,363.394809 L630.905858,339.138282 C629.336789,342.816789 627.083254,346.195091 624.20129,349.113079 C618.189194,355.181213 610.203753,358.52349 601.693955,358.52349 C593.200168,358.52349 585.198716,355.181213 579.190623,349.113079 C573.178527,343.028933 569.864269,334.959435 569.864269,326.36558 C569.864269,308.625493 584.145999,294.203667 601.693955,294.203667 L633.523642,294.203667 L633.523642,363.394809 L640.368305,363.394809 L640.368305,287.282952 L601.693955,287.282952" id="Fill-59" fill="#FFF200"></path>
                <path d="M95.2809182,327.662464 C98.9874436,326.109405 102.377754,323.799832 105.375796,320.781776 C111.884231,314.209297 115.766876,304.826905 115.766876,295.692681 C115.766876,287.026777 112.248479,278.508974 106.132312,272.320757 C100.116213,266.24862 92.2708674,263.026425 83.4488566,263.026425 L48.7612227,263.026425 L48.7612227,363.242706 L55.6018835,363.242706 L55.6018835,269.94714 L83.4488566,269.94714 C90.4176047,269.94714 96.58981,272.45685 101.293014,277.21209 C106.072271,282.039379 108.922213,288.952089 108.922213,295.692681 C108.922213,302.925609 105.70402,310.666884 100.536499,315.88644 C95.9333628,320.537609 90.1133974,323.003289 83.6850175,323.071335 L111.796171,363.214687 L120.185887,363.214687 L95.2809182,327.662464" id="Fill-60" fill="#FFF200"></path>
                <path d="M78.6295731,320.429536 L83.4488566,320.429536 C98.3550127,320.429536 106.304429,306.063748 106.304429,295.692681 C106.304429,289.632552 103.734678,283.42032 99.4397518,279.085366 C95.240891,274.838473 89.7051193,272.596945 83.4488566,272.596945 L58.2196671,272.596945 L58.2196671,363.242706 L65.0723361,363.242706 L65.0723361,279.509655 L83.4488566,279.509655 C87.9159002,279.509655 91.6704583,281.006675 94.5964519,283.972696 C97.6425273,287.046791 99.45176,291.429777 99.45176,295.692681 C99.45176,303.169776 93.8919719,313.520828 83.4488566,313.520828 L65.4005597,313.520828 L100.20027,363.214687 L108.585983,363.214687 L78.6295731,320.429536" id="Fill-61" fill="#FFF200"></path>
                <polyline id="Fill-62" fill="#FFF200" points="541.120685 263.29861 534.179956 263.29861 551.843991 363.54291 558.792725 363.54291 541.120685 263.29861"></polyline>
                <polyline id="Fill-63" fill="#FFF200" points="495.889867 323.023303 468.511213 263.29861 460.994092 263.29861 495.889867 339.48652 530.793648 263.29861 523.268521 263.29861 495.889867 323.023303"></polyline>
                <polyline id="Fill-64" fill="#FFF200" points="432.987009 363.54291 439.943749 363.54291 457.603782 263.29861 450.627028 263.29861 432.987009 363.54291"></polyline>
                <polyline id="Fill-65" fill="#FFF200" points="495.889867 345.790815 459.669189 266.704931 442.605563 363.54291 449.554297 363.54291 462.595182 289.560503 495.889867 362.254032 529.192558 289.560503 542.221435 363.54291 549.182177 363.54291 532.118551 266.704931 495.889867 345.790815"></polyline>
            </g>
        </g>
    </g>
</svg>