<?xml version="1.0" encoding="UTF-8"?>
<svg width="980px" height="680px" viewBox="0 0 980 680" version="1.1" xmlns="http://www.w3.org/2000/svg" xmlns:xlink="http://www.w3.org/1999/xlink">
    <title>US FedEx Freight alt</title>
    <defs>
        <linearGradient x1="50%" y1="0%" x2="50%" y2="100%" id="linearGradient-1">
            <stop stop-color="#FFFFFF" offset="0%"></stop>
            <stop stop-color="#EDEDED" offset="100%"></stop>
        </linearGradient>
        <rect id="path-2" x="0" y="0" width="900" height="600" rx="80"></rect>
        <filter x="-6.7%" y="-10.0%" width="113.3%" height="120.0%" filterUnits="objectBoundingBox" id="filter-3">
            <feMorphology radius="2.5" operator="dilate" in="SourceAlpha" result="shadowSpreadOuter1"></feMorphology>
            <feOffset dx="0" dy="0" in="shadowSpreadOuter1" result="shadowOffsetOuter1"></feOffset>
            <feGaussianBlur stdDeviation="17.5" in="shadowOffsetOuter1" result="shadowBlurOuter1"></feGaussianBlur>
            <feColorMatrix values="0 0 0 0 0   0 0 0 0 0   0 0 0 0 0  0 0 0 0.5 0" type="matrix" in="shadowBlurOuter1"></feColorMatrix>
        </filter>
    </defs>
    <g id="US-FedEx-Freight-alt" stroke="none" stroke-width="1" fill="none" fill-rule="evenodd">
        <g transform="translate(40, 40)">
            <g id="Rectangle">
                <use fill="black" fill-opacity="1" filter="url(#filter-3)" xlink:href="#path-2"></use>
                <use fill="url(#linearGradient-1)" fill-rule="evenodd" xlink:href="#path-2"></use>
            </g>
            <g id="Logo" transform="translate(51, 117)" fill-rule="nonzero">
                <polygon id="polygon10" fill="#FF5900" points="645.178648 83.6418424 677.227723 118.962548 708.082221 83.6418424 773.966853 83.6418424 709.578132 156.048214 774.849333 229.046492 706.3065 229.046492 674.55876 193.445975 643.101593 229.046492 576.915626 229.046492 641.616444 156.349548 576.915626 83.6418424"></polygon>
                <polygon id="polygon12" fill="#FF5900" points="576.915626 83.6418424 576.915626 132.770125 503.637538 132.770125 503.637538 177.851916 576.915626 177.851916 576.915626 229.046492 449.784761 229.046492 449.784761 0 576.915626 0 576.915626 51.0546707 503.637538 51.0546707 503.637538 83.6418424"></polygon>
                <path d="M396.157985,0 L396.157985,93.7365476 L395.566078,93.7365476 C383.68489,80.0904003 368.854929,75.3443823 351.646578,75.3443823 C316.390443,75.3443823 289.829961,99.3219974 280.510116,131.005166 C269.866552,96.0934137 242.445114,74.6879036 201.786483,74.6879036 C168.768833,74.6879036 142.692639,89.5071029 129.089539,113.656909 L129.089539,83.6418424 L60.8372794,83.6418424 L60.8372794,51.0546707 L135.320706,51.0546707 L135.320706,0 L0,0 L0,229.046492 L60.8372794,229.046492 L60.8372794,132.770125 L121.480844,132.770125 C119.672837,139.840723 118.704262,147.417133 118.704262,155.413259 C118.704262,203.185536 155.208782,236.719759 201.786483,236.719759 C240.959966,236.719759 266.777873,218.327594 280.424021,184.804133 L228.282393,184.804133 C221.233319,194.888076 215.884632,197.869135 201.786483,197.869135 C185.439087,197.869135 171.340938,183.609557 171.340938,166.70254 L277.507533,166.70254 C282.113646,204.649161 311.676711,237.376238 352.238485,237.376238 C369.737409,237.376238 385.761946,228.766681 395.555316,214.238054 L396.147223,214.238054 L396.147223,229.068015 L449.773999,229.068015 L449.773999,0 L396.157985,0 Z M173.041326,133.448127 C176.420577,118.897977 187.709858,109.395179 201.797245,109.395179 C217.305209,109.395179 228.013345,118.607404 230.832975,133.448127 C232.016789,133.448127 173.041326,133.448127 173.041326,133.448127 Z M363.603099,194.177787 C343.833405,194.177787 331.543263,175.753336 331.543263,156.521739 C331.543263,135.966423 342.229875,116.196728 363.603099,116.196728 C385.761946,116.196728 394.586741,135.966423 394.586741,156.521739 C394.586741,176.011623 385.23461,194.177787 363.603099,194.177787 Z" id="path14" fill="#2A007C"></path>
                <g id="Group" transform="translate(491.77, 264)" fill="#2A007C">
                    <polygon id="Path" points="0 82.7884615 0 0 46.4423077 0 46.4423077 6.88396293 7.40658447 6.88396293 7.40658447 36.124143 45.0630203 36.124143 45.0630203 43.0081059 7.40658447 43.0081059 7.40658447 82.7884615"></polygon>
                    <path d="M62.1881155,83.7980769 L55.1061352,83.7980769 L55.1061352,39.0100565 C55.2430796,34.5169147 54.7539925,29.9090543 54.5192308,25.9895051 L61.8261911,25.9895051 L62.1783338,34.5264746 L62.4033138,34.5264746 C64.5161698,28.6471507 69.827655,24.4981644 75.716263,24.2782872 C78.0736625,24.1635687 80.4212803,24.2782872 82.7884615,24.3930057 L82.7884615,31.0753592 C81.3701091,30.9510808 79.8441576,30.6164852 78.4258052,30.6164852 C67.9593426,30.6164852 62.4033138,37.9775899 62.1783338,49.0288069 L62.1783338,83.7980769 L62.1881155,83.7980769 Z" id="Path"></path>
                    <path d="M92.1863767,56.643725 C92.4033968,69.0436992 97.9798706,79.4539101 111.972951,79.4539101 C120.031003,79.4539101 126.739756,73.5519069 128.44761,65.5640165 L135.599838,65.5640165 C132.080338,79.4539101 123.550503,85.8173077 109.80275,85.8173077 C92.7619518,85.8173077 84.8076923,70.8796644 84.8076923,55.0288447 C84.8076923,39.2645364 93.337527,24.2307692 110.255661,24.2307692 C129.353433,24.2307692 136.298077,38.4570962 136.298077,56.643725 L92.1863767,56.643725 L92.1863767,56.643725 Z M128.900521,50.2803274 C128.107926,39.053064 122.201204,30.6037792 110.378325,30.6037792 C99.2253774,30.6037792 93.3280913,40.0815889 92.4128325,50.2803274 L128.900521,50.2803274 Z" id="Shape"></path>
                    <path d="M152.451923,8.61289317 L144.375,8.61289317 L144.375,-2.1649349e-14 L152.451923,-2.1649349e-14 L152.451923,4.31120509 L152.451923,8.61289317 Z M151.886634,25.2391079 L151.886634,57.5398366 L151.886634,82.7884615 L144.959451,82.7884615 L144.959451,25.2391079 L151.886634,25.2391079 Z" id="Shape"></path>
                    <path d="M206.018672,25.9428234 L213.028846,25.9428234 C212.812715,29.8114984 212.465025,34.3706703 212.465025,38.806877 L212.465025,73.1047141 C212.465025,84.4931851 213.028846,96.4586468 200.465036,102.389354 C195.945071,104.555433 193.624008,105 188.2959,105 C178.006168,105 165.038286,101.462385 165.038286,89.6293477 L172.386753,89.6293477 C173.185499,96.4586468 181.219947,98.7382327 188.45565,98.7382327 C197.288845,98.7382327 205.445454,92.4764654 205.661586,82.8946373 L205.661586,72.1872044 L205.445454,72.1872044 C202.156499,78.912456 194.356976,82.8946373 186.999112,82.8946373 C169.90594,82.8946373 162.548077,69.7941121 162.548077,54.0734819 C162.548077,38.5798643 169.445487,24.2307692 186.764187,24.2307692 C195.024164,24.2307692 200.906696,28.2129505 205.436057,34.8152369 L205.652189,34.3612115 L206.018672,25.9428234 Z M187.459566,30.4925365 C175.121284,30.4925365 169.915337,43.0255299 169.915337,53.5154089 C169.915337,63.9863702 175.234048,76.63287 187.685094,76.63287 C200.709358,76.63287 205.68038,64.4498545 205.68038,53.2789374 C205.670983,42.3444918 199.675687,30.4925365 187.459566,30.4925365" id="Shape"></path>
                    <path d="M231.020954,33.9437453 L231.240022,33.9437453 C235.259434,26.8312691 241.79336,23.5083049 249.260704,23.5083049 C268.081459,23.5083049 269.567308,40.1421684 269.567308,46.7785752 L269.567308,82.7884615 L262.680969,82.7884615 L262.680969,45.6455301 C262.680969,35.6480736 256.937591,29.8209847 247.527213,29.8209847 C236.183327,29.8209847 231.020954,39.3423718 231.020954,49.6540341 L231.020954,82.7884615 L224.134615,82.7884615 L224.134615,0 L231.020954,0 L231.020954,33.9437453 Z" id="Path"></path>
                    <path d="M287.122569,31.7040899 L275.625,31.7040899 L275.625,25.3858683 L287.122569,25.3858683 L287.122569,13.0739259 L294.030652,10.0961538 L294.030652,25.3858683 L307.12166,25.3858683 L307.12166,31.7040899 L294.030652,31.7040899 L294.030652,70.3292299 C293.897071,75.6262283 296.66412,78.4894707 301.959681,78.4894707 C304.020656,78.4894707 306.091173,78.374941 307.932692,77.8022926 L307.932692,83.776925 C305.747677,84.3495735 303.219166,84.8076923 300.919652,84.8076923 C286.33062,84.8076923 287.132111,75.5021545 287.132111,67.6855027 L287.132111,31.7040899 L287.122569,31.7040899 Z" id="Path"></path>
                </g>
            </g>
        </g>
    </g>
</svg>