<?xml version="1.0" encoding="UTF-8"?>
<svg width="980px" height="680px" viewBox="0 0 980 680" version="1.1" xmlns="http://www.w3.org/2000/svg" xmlns:xlink="http://www.w3.org/1999/xlink">
    <title>US FedEx</title>
    <defs>
        <linearGradient x1="50%" y1="0%" x2="50%" y2="100%" id="linearGradient-1">
            <stop stop-color="#FFFFFF" offset="0%"></stop>
            <stop stop-color="#EDEDED" offset="100%"></stop>
        </linearGradient>
        <rect id="path-2" x="0" y="0" width="900" height="600" rx="80"></rect>
        <filter x="-6.7%" y="-10.0%" width="113.3%" height="120.0%" filterUnits="objectBoundingBox" id="filter-3">
            <feMorphology radius="2.5" operator="dilate" in="SourceAlpha" result="shadowSpreadOuter1"></feMorphology>
            <feOffset dx="0" dy="0" in="shadowSpreadOuter1" result="shadowOffsetOuter1"></feOffset>
            <feGaussianBlur stdDeviation="17.5" in="shadowOffsetOuter1" result="shadowBlurOuter1"></feGaussianBlur>
            <feColorMatrix values="0 0 0 0 0   0 0 0 0 0   0 0 0 0 0  0 0 0 0.5 0" type="matrix" in="shadowBlurOuter1"></feColorMatrix>
        </filter>
    </defs>
    <g id="US-FedEx" stroke="none" stroke-width="1" fill="none" fill-rule="evenodd">
        <g transform="translate(40, 40)">
            <g id="Rectangle">
                <use fill="black" fill-opacity="1" filter="url(#filter-3)" xlink:href="#path-2"></use>
                <use fill="url(#linearGradient-1)" fill-rule="evenodd" xlink:href="#path-2"></use>
            </g>
            <g id="Logo" transform="translate(51, 117)" fill-rule="nonzero">
                <polygon id="polygon10" fill="#FF5900" points="645.178648 83.6418424 677.227723 118.962548 708.082221 83.6418424 773.966853 83.6418424 709.578132 156.048214 774.849333 229.046492 706.3065 229.046492 674.55876 193.445975 643.101593 229.046492 576.915626 229.046492 641.616444 156.349548 576.915626 83.6418424"></polygon>
                <polygon id="polygon12" fill="#FF5900" points="576.915626 83.6418424 576.915626 132.770125 503.637538 132.770125 503.637538 177.851916 576.915626 177.851916 576.915626 229.046492 449.784761 229.046492 449.784761 0 576.915626 0 576.915626 51.0546707 503.637538 51.0546707 503.637538 83.6418424"></polygon>
                <path d="M396.157985,0 L396.157985,93.7365476 L395.566078,93.7365476 C383.68489,80.0904003 368.854929,75.3443823 351.646578,75.3443823 C316.390443,75.3443823 289.829961,99.3219974 280.510116,131.005166 C269.866552,96.0934137 242.445114,74.6879036 201.786483,74.6879036 C168.768833,74.6879036 142.692639,89.5071029 129.089539,113.656909 L129.089539,83.6418424 L60.8372794,83.6418424 L60.8372794,51.0546707 L135.320706,51.0546707 L135.320706,0 L0,0 L0,229.046492 L60.8372794,229.046492 L60.8372794,132.770125 L121.480844,132.770125 C119.672837,139.840723 118.704262,147.417133 118.704262,155.413259 C118.704262,203.185536 155.208782,236.719759 201.786483,236.719759 C240.959966,236.719759 266.777873,218.327594 280.424021,184.804133 L228.282393,184.804133 C221.233319,194.888076 215.884632,197.869135 201.786483,197.869135 C185.439087,197.869135 171.340938,183.609557 171.340938,166.70254 L277.507533,166.70254 C282.113646,204.649161 311.676711,237.376238 352.238485,237.376238 C369.737409,237.376238 385.761946,228.766681 395.555316,214.238054 L396.147223,214.238054 L396.147223,229.068015 L449.773999,229.068015 L449.773999,0 L396.157985,0 Z M173.041326,133.448127 C176.420577,118.897977 187.709858,109.395179 201.797245,109.395179 C217.305209,109.395179 228.013345,118.607404 230.832975,133.448127 C232.016789,133.448127 173.041326,133.448127 173.041326,133.448127 Z M363.603099,194.177787 C343.833405,194.177787 331.543263,175.753336 331.543263,156.521739 C331.543263,135.966423 342.229875,116.196728 363.603099,116.196728 C385.761946,116.196728 394.586741,135.966423 394.586741,156.521739 C394.586741,176.011623 385.23461,194.177787 363.603099,194.177787 Z" id="path14" fill="#2A007C"></path>
                <polygon id="path16" fill="#2A007C" points="449.795523 343.575118 449.795523 261.493758 495.146362 261.493758 495.146362 267.617305 457.275075 267.617305 457.275075 297.879897 493.542833 297.879897 493.542833 304.003444 457.275075 304.003444 457.275075 337.430047 496.835988 337.430047 496.835988 343.564356 449.795523 343.564356"></polygon>
                <polygon id="path18" fill="#2A007C" points="502.249247 343.575118 524.365045 314.098149 503.390013 286.213947 511.89195 286.213947 529.014206 308.996987 545.792079 286.213947 554.294016 286.213947 532.985364 314.098149 555.19802 343.575118 546.588463 343.575118 528.217822 319.188549 510.761946 343.575118 502.249247 343.575118"></polygon>
                <path d="M569.586741,365.09901 L562.66681,365.09901 L562.66681,303.336203 C562.66681,297.664658 562.66681,291.896255 562.322428,286.213947 L569.13474,286.213947 L569.36074,294.834266 C573.654757,288.021954 579.326302,284.857942 587.839001,284.857942 C605.520878,284.857942 613.10805,299.472665 613.10805,314.883771 C613.10805,330.316401 605.520878,344.931124 587.839001,344.931124 C579.896685,344.931124 573.665519,341.874731 569.586741,335.28842 L569.586741,365.09901 L569.586741,365.09901 Z M605.746879,314.883771 C605.746879,302.647439 600.634955,290.626345 587.042617,290.626345 C574.235902,290.626345 569.586741,301.173052 569.586741,314.883771 C569.586741,328.605252 574.235902,339.141197 587.042617,339.141197 C600.645717,339.141197 605.746879,327.130865 605.746879,314.883771 Z" id="path20" fill="#2A007C"></path>
                <path d="M648.665519,291.530349 C637.214808,291.530349 633.232889,301.173052 633.232889,311.138614 L633.232889,343.575118 L626.312957,343.575118 L626.312957,303.088678 C626.312957,297.535514 626.205338,291.885493 625.979337,286.213947 L632.802411,286.213947 L633.24365,294.489884 C636.644425,287.925097 642.326733,284.857942 649.913904,284.857942 C650.936289,284.857942 652.066294,284.965562 653.088678,285.083943 L653.088678,292.003874 C651.49591,291.75635 650.247525,291.530349 648.665519,291.530349 Z" id="path22" fill="#2A007C"></path>
                <path d="M661.55833,316.132157 C661.55833,329.046492 667.671115,339.700818 680.25183,339.700818 C689.99139,339.700818 694.532932,333.24365 696.233319,326.786483 L702.808868,326.786483 C699.741713,338.796814 692.36978,344.931124 679.337064,344.931124 C661.881188,344.931124 654.164873,332.006027 654.164873,315.916918 C654.164873,299.483427 662.214808,284.857942 680.241068,284.857942 C698.493328,284.857942 703.368489,300.82867 703.368489,316.132157 L661.55833,316.132157 L661.55833,316.132157 Z M661.773569,310.923375 L696.007318,310.923375 C696.007318,299.698666 690.690917,290.066712 679.799828,290.066712 C669.941885,290.055962 663.129574,297.535514 661.773569,310.923375 Z" id="path24" fill="#2A007C"></path>
                <path d="M730.370211,344.931124 C718.58588,344.931124 709.750323,339.367198 709.750323,326.786483 L716.670254,326.786483 C716.670254,335.39604 722.331037,339.700818 730.725355,339.700818 C738.54929,339.700818 744.662075,335.955661 744.662075,328.271632 C744.662075,321.3517 737.526905,319.532932 730.047353,317.380542 C720.985794,314.776152 711.11709,311.934998 711.11709,300.82867 C711.11709,288.484718 721.427034,284.857942 731.069737,284.857942 C742.165303,284.857942 750.452002,289.151959 750.785622,301.054671 L743.865691,301.054671 C743.532071,294.263883 738.656909,290.411106 731.284976,290.411106 C725.505811,290.411106 718.478261,292.671115 718.478261,300.150667 C718.478261,306.962979 725.505811,308.889367 732.985364,310.923375 C742.068446,313.409384 752.034008,316.132157 752.034008,327.249247 C752.023246,340.163582 742.057684,344.931124 730.370211,344.931124 Z" id="path26" fill="#2A007C"></path>
                <path d="M778.325441,344.931124 C766.530349,344.931124 757.694791,339.367198 757.694791,326.786483 L764.614722,326.786483 C764.614722,335.39604 770.275506,339.700818 778.680585,339.700818 C786.50452,339.700818 792.617305,335.955661 792.617305,328.271632 C792.617305,321.3517 785.471373,319.532932 777.991821,317.380542 C768.930263,314.776152 759.07232,311.934998 759.07232,300.82867 C759.07232,288.484718 769.382264,284.857942 779.024968,284.857942 C790.120534,284.857942 798.407232,289.151959 798.740852,301.054671 L791.820921,301.054671 C791.487301,294.263883 786.612139,290.411106 779.240207,290.411106 C773.461042,290.411106 766.433491,292.671115 766.433491,300.150667 C766.433491,306.962979 773.461042,308.889367 780.951356,310.923375 C790.023676,313.409384 800,316.132157 800,327.249247 C799.978476,340.163582 790.002152,344.931124 778.325441,344.931124 L778.325441,344.931124 Z" id="path28" fill="#2A007C"></path>
            </g>
        </g>
    </g>
</svg>