<?xml version="1.0" encoding="UTF-8"?>
<svg width="980px" height="680px" viewBox="0 0 980 680" version="1.1" xmlns="http://www.w3.org/2000/svg" xmlns:xlink="http://www.w3.org/1999/xlink">
    <title>US FedEx Ground alt</title>
    <defs>
        <linearGradient x1="50%" y1="0%" x2="50%" y2="100%" id="linearGradient-1">
            <stop stop-color="#FFFFFF" offset="0%"></stop>
            <stop stop-color="#EDEDED" offset="100%"></stop>
        </linearGradient>
        <rect id="path-2" x="0" y="0" width="900" height="600" rx="80"></rect>
        <filter x="-6.7%" y="-10.0%" width="113.3%" height="120.0%" filterUnits="objectBoundingBox" id="filter-3">
            <feMorphology radius="2.5" operator="dilate" in="SourceAlpha" result="shadowSpreadOuter1"></feMorphology>
            <feOffset dx="0" dy="0" in="shadowSpreadOuter1" result="shadowOffsetOuter1"></feOffset>
            <feGaussianBlur stdDeviation="17.5" in="shadowOffsetOuter1" result="shadowBlurOuter1"></feGaussianBlur>
            <feColorMatrix values="0 0 0 0 0   0 0 0 0 0   0 0 0 0 0  0 0 0 0.5 0" type="matrix" in="shadowBlurOuter1"></feColorMatrix>
        </filter>
    </defs>
    <g id="US-FedEx-Ground-alt" stroke="none" stroke-width="1" fill="none" fill-rule="evenodd">
        <g transform="translate(40, 40)">
            <g id="Rectangle">
                <use fill="black" fill-opacity="1" filter="url(#filter-3)" xlink:href="#path-2"></use>
                <use fill="url(#linearGradient-1)" fill-rule="evenodd" xlink:href="#path-2"></use>
            </g>
            <g id="Logo" transform="translate(51, 117)" fill-rule="nonzero">
                <polygon id="polygon10" fill="#FF5900" points="645.178648 83.6418424 677.227723 118.962548 708.082221 83.6418424 773.966853 83.6418424 709.578132 156.048214 774.849333 229.046492 706.3065 229.046492 674.55876 193.445975 643.101593 229.046492 576.915626 229.046492 641.616444 156.349548 576.915626 83.6418424"></polygon>
                <polygon id="polygon12" fill="#FF5900" points="576.915626 83.6418424 576.915626 132.770125 503.637538 132.770125 503.637538 177.851916 576.915626 177.851916 576.915626 229.046492 449.784761 229.046492 449.784761 0 576.915626 0 576.915626 51.0546707 503.637538 51.0546707 503.637538 83.6418424"></polygon>
                <path d="M396.157985,0 L396.157985,93.7365476 L395.566078,93.7365476 C383.68489,80.0904003 368.854929,75.3443823 351.646578,75.3443823 C316.390443,75.3443823 289.829961,99.3219974 280.510116,131.005166 C269.866552,96.0934137 242.445114,74.6879036 201.786483,74.6879036 C168.768833,74.6879036 142.692639,89.5071029 129.089539,113.656909 L129.089539,83.6418424 L60.8372794,83.6418424 L60.8372794,51.0546707 L135.320706,51.0546707 L135.320706,0 L0,0 L0,229.046492 L60.8372794,229.046492 L60.8372794,132.770125 L121.480844,132.770125 C119.672837,139.840723 118.704262,147.417133 118.704262,155.413259 C118.704262,203.185536 155.208782,236.719759 201.786483,236.719759 C240.959966,236.719759 266.777873,218.327594 280.424021,184.804133 L228.282393,184.804133 C221.233319,194.888076 215.884632,197.869135 201.786483,197.869135 C185.439087,197.869135 171.340938,183.609557 171.340938,166.70254 L277.507533,166.70254 C282.113646,204.649161 311.676711,237.376238 352.238485,237.376238 C369.737409,237.376238 385.761946,228.766681 395.555316,214.238054 L396.147223,214.238054 L396.147223,229.068015 L449.773999,229.068015 L449.773999,0 L396.157985,0 Z M173.041326,133.448127 C176.420577,118.897977 187.709858,109.395179 201.797245,109.395179 C217.305209,109.395179 228.013345,118.607404 230.832975,133.448127 C232.016789,133.448127 173.041326,133.448127 173.041326,133.448127 Z M363.603099,194.177787 C343.833405,194.177787 331.543263,175.753336 331.543263,156.521739 C331.543263,135.966423 342.229875,116.196728 363.603099,116.196728 C385.761946,116.196728 394.586741,135.966423 394.586741,156.521739 C394.586741,176.011623 385.23461,194.177787 363.603099,194.177787 Z" id="path14" fill="#2A007C"></path>
                <g id="g376" transform="translate(625.387, 305.7461) scale(1, -1) translate(-625.387, -305.7461)translate(449.7741, 262.9014)" fill="#2A007C">
                    <g id="g398" transform="translate(0, 0.0035)">
                        <path d="M39.2845321,6.18291011 C46.2831607,6.18291011 51.7685724,7.21142479 57.17123,9.05565801 L57.17123,35.9625479 L36.8846645,35.9625479 L36.8846645,42.145458 L64.725493,42.145458 L64.725493,4.57511704 C56.0244952,1.83241122 49.2623067,0 39.0599139,0 C13.8553932,0 0,19.4708469 0,42.8311344 C0,66.215066 10.8880692,85.6859129 36.080768,85.6859129 C49.711543,85.6859129 60.7178323,78.4626661 63.6851563,65.7540077 L55.4452168,65.7540077 C53.7310257,74.5732255 44.6753677,79.4911808 36.3172081,79.4911808 C15.5695843,79.4911808 7.90892325,60.5996122 7.90892325,42.8311344 C7.90892325,25.0744786 18.5487303,6.18291011 39.2845321,6.18291011" id="path400"></path>
                    </g>
                    <g id="g402" transform="translate(79.4971, 1.3643)">
                        <path d="M22.8992292,52.5961129 C11.3373055,52.5961129 7.32964487,42.8547785 7.32964487,32.7706058 L7.32964487,0 L0.342838228,0 L0.342838228,40.8923252 C0.342838228,46.5196009 0.224618149,52.2532747 0,57.9633045 L6.85676455,57.9633045 L7.32964487,49.6169669 C10.7580271,56.2609354 16.4798789,59.3464794 24.164184,59.3464794 C25.1926987,59.3464794 26.3394335,59.2282593 27.3679482,59.1218613 L27.3679482,52.1232326 C25.7719771,52.3596728 24.5070223,52.5961129 22.8992292,52.5961129" id="path404"></path>
                    </g>
                    <g id="g406" transform="translate(109.5593, 0.0118)">
                        <path d="M27.14333,5.26079349 C40.9987232,5.26079349 46.8506171,17.8512319 46.8506171,30.3470942 C46.8506171,42.8311344 40.9987232,55.4333948 27.14333,55.4333948 C13.2761148,55.4333948 7.43604294,42.8311344 7.43604294,30.3470942 C7.43604294,17.8512319 13.2761148,5.26079349 27.14333,5.26079349 M27.14333,0 C9.4930723,0 0,13.618953 0,30.3470942 C0,47.0634133 9.4930723,60.7060103 27.14333,60.7060103 C44.7699437,60.7060103 54.28666,47.0634133 54.28666,30.3470942 C54.28666,13.618953 44.7699437,0 27.14333,0" id="path408"></path>
                    </g>
                    <g id="g410" transform="translate(177.7013, 0.0035)">
                        <path d="M39.6391923,1.3595309 L39.4145742,10.0723507 C35.4069135,3.32198421 29.0939613,0 20.6294037,0 C5.16621743,0 0,8.47637963 0,23.0292713 L0,59.3346574 L6.98680664,59.3346574 L6.98680664,25.7601551 C6.98680664,15.002128 9.51671632,5.82824987 21.7643165,5.82824987 C34.8394571,5.82824987 39.189956,17.4019956 39.189956,28.8693432 L39.189956,59.3346574 L46.1885847,59.3346574 L46.1885847,18.6787724 C46.1885847,12.9332766 46.2831607,7.09320471 46.5196009,1.3595309 L39.6391923,1.3595309 Z" id="path412"></path>
                    </g>
                    <g id="g414" transform="translate(239.5836, 1.3607)">
                        <path d="M6.88040857,57.9751265 L7.10502672,49.2623067 C11.1126874,56.0244952 17.4138176,59.3583014 25.8901972,59.3583014 C41.3533835,59.3583014 46.5077789,50.8700998 46.5077789,36.3290301 L46.5077789,0 L39.5327942,0 L39.5327942,33.5745023 C39.5327942,44.3325294 37.0028846,53.5182295 24.7552844,53.5182295 C11.6801438,53.5182295 7.34146687,41.9326618 7.34146687,30.4889582 L7.34146687,0 L0.342838228,0 L0.342838228,40.679529 C0.342838228,46.4132028 0.236440157,52.2532747 0,57.9751265 L6.88040857,57.9751265 Z" id="path416"></path>
                    </g>
                    <g id="g418" transform="translate(299.9066, 0)">
                        <path d="M7.45968695,30.3589162 C7.45968695,17.9694519 12.6022604,5.82824987 26.3512555,5.82824987 C39.3081761,5.82824987 43.9896912,16.491701 43.9896912,30.3589162 C43.9896912,44.2024874 39.3081761,54.8777604 26.3512555,54.8777604 C12.6022604,54.8777604 7.45968695,42.7247364 7.45968695,30.3589162 M43.9896912,84.31456 L50.9883199,84.31456 L50.9883199,18.6787724 C50.9883199,12.9332766 50.9883199,7.09320471 51.3193361,1.3595309 L44.4507495,1.3595309 L44.2379534,10.0723507 C39.8756325,3.21558614 34.1419587,0 25.559181,0 C7.6843051,0 0,14.7656878 0,30.3589162 C0,45.9285005 7.6843051,60.7178323 25.559181,60.7178323 C33.5626803,60.7178323 39.8756325,57.6204663 43.9896912,50.9764978 L43.9896912,84.31456 Z" id="path420"></path>
                    </g>
                </g>
            </g>
        </g>
    </g>
</svg>