<?xml version="1.0" encoding="UTF-8"?>
<svg width="980px" height="680px" viewBox="0 0 980 680" version="1.1" xmlns="http://www.w3.org/2000/svg" xmlns:xlink="http://www.w3.org/1999/xlink">
    <title>US USPS</title>
    <defs>
        <linearGradient x1="50%" y1="0%" x2="50%" y2="100%" id="linearGradient-1">
            <stop stop-color="#FFFFFF" offset="0%"></stop>
            <stop stop-color="#EDEDED" offset="100%"></stop>
        </linearGradient>
        <rect id="path-2" x="0" y="0" width="900" height="600" rx="80"></rect>
        <filter x="-6.7%" y="-10.0%" width="113.3%" height="120.0%" filterUnits="objectBoundingBox" id="filter-3">
            <feMorphology radius="2.5" operator="dilate" in="SourceAlpha" result="shadowSpreadOuter1"></feMorphology>
            <feOffset dx="0" dy="0" in="shadowSpreadOuter1" result="shadowOffsetOuter1"></feOffset>
            <feGaussianBlur stdDeviation="17.5" in="shadowOffsetOuter1" result="shadowBlurOuter1"></feGaussianBlur>
            <feColorMatrix values="0 0 0 0 0   0 0 0 0 0   0 0 0 0 0  0 0 0 0.5 0" type="matrix" in="shadowBlurOuter1"></feColorMatrix>
        </filter>
    </defs>
    <g id="US-USPS" stroke="none" stroke-width="1" fill="none" fill-rule="evenodd">
        <g transform="translate(40, 40)">
            <g id="Rectangle">
                <use fill="black" fill-opacity="1" filter="url(#filter-3)" xlink:href="#path-2"></use>
                <use fill="url(#linearGradient-1)" fill-rule="evenodd" xlink:href="#path-2"></use>
            </g>
            <path d="M825.5,0 C866.645214,0 900,33.3547861 900,74.5 C900,75.336957 899.986199,76.1706904 899.958811,77.0009852 L900,77 L900,520 C900,564.18278 864.18278,600 820,600 L713,600 C711.297594,600 709.607608,599.946824 707.931611,599.842044 L74.9136406,599.840918 C56.1220936,598.661892 39.0902049,590.995369 26.0318102,579.055184 L94.103015,552.725538 L147.550072,532.036006 L224.454444,502.240135 L279.128108,481.036668 L335.217216,459.263533 L372.842738,444.644105 L410.266984,430.090207 L447.157809,415.729324 L474.276064,405.162019 L500.767314,394.828779 L526.491437,384.783388 L551.308307,375.079628 L575.077802,365.771282 L597.659798,356.912134 L611.985543,351.282149 L632.276987,343.291182 L651.007269,335.892834 L662.557614,331.316395 L682.748745,323.279006 L694.622433,318.519087 L700.672019,316.079062 L708.695197,312.819329 L713.852243,310.70225 L716.866172,309.452454 L720.341691,307.993016 L722.860576,306.915051 L724.354264,306.261547 L725.588312,305.707038 L726.202263,305.422561 L726.871313,305.100289 L727.259691,304.901837 L727.464072,304.790336 L727.624489,304.695604 C727.670603,304.666834 727.709342,304.640876 727.740659,304.61775 L728.235399,303.856142 L728.972563,302.701333 L729.629435,301.658035 L730.408551,300.405709 L731.541161,298.559036 L732.834339,296.415023 L733.973127,294.496654 L734.45852,293.670432 L735.467987,291.935774 L736.525196,290.095188 L737.346665,288.647893 L738.190459,287.145368 L739.054637,285.58948 L739.937258,283.982093 L741.139421,281.76203 C758.761234,248.952802 784.184145,189.712267 754.287587,164.73314 L753.865536,164.382988 L753.027181,163.697853 L752.193491,163.032751 L751.56912,162.546932 L750.630365,161.838875 L750.000848,161.380474 L749.366617,160.932871 L748.726152,160.495966 L748.09073,160.07792 L747.446426,159.669972 L747.120497,159.469756 L746.460188,159.076781 L745.787421,158.693674 C743.635755,157.496029 741.275171,156.445424 738.501217,155.528708 L737.611252,155.243654 C737.008464,155.056565 736.3864,154.875349 735.743154,154.699883 L734.76216,154.44098 C733.099895,154.016614 731.299277,153.627802 729.330498,153.272627 L728.128813,153.063544 L726.885338,152.862442 L726.247482,152.764855 L726.247482,152.764855 L724.912005,152.571845 L723.529299,152.386897 L722.097846,152.209914 L720.616127,152.040797 L719.082624,151.87945 C717.782706,151.748204 716.427265,151.62495 715.012346,151.509432 L713.285641,151.374508 C712.115134,151.287013 710.90555,151.204404 709.654863,151.126552 L707.747752,151.013325 L706.770603,150.959356 L704.768166,150.856647 L702.700279,150.760828 L700.565424,150.671802 L698.362084,150.589472 L696.088739,150.513738 L693.743871,150.444504 L690.709895,150.366953 L686.698386,150.282784 L683.170131,150.223832 L679.500777,150.175537 L675.686726,150.137668 L671.724379,150.109995 L669.68647,150.099909 L665.49493,150.087094 L661.146097,150.083896 L658.91157,150.085831 L654.320048,150.096623 L649.562234,150.116453 L649.571513,150.011347 L649.574308,149.8817 L649.568046,149.702201 L649.546858,149.474007 L649.510174,149.227954 C648.750137,144.899216 639.53673,125.49931 537.961985,107.570577 L537.586983,107.500618 L536.170105,107.223406 L530.782027,106.143073 L519.591076,103.875143 L500.293668,99.9450696 L440.514924,87.7280823 L376.064477,74.5310509 L47.1054895,7.05409881 C56.4455183,2.83566639 66.7405903,0.358359381 77.5768874,0.0359960272 L825.5,0 Z M424.164888,138.647691 L427.448911,138.652948 L433.227036,138.676676 L436.865035,138.701375 L441.004692,138.738894 L445.279049,138.788371 C446.002132,138.797681 446.730427,138.807538 447.463733,138.817969 L451.922103,138.887634 L456.491123,138.972259 C457.261313,138.987677 458.035713,139.003768 458.814122,139.020557 L463.531083,139.129875 L465.610556,139.182964 L469.815499,139.299735 L471.939384,139.363615 L476.226023,139.502857 L478.387193,139.578416 L482.741277,139.741909 L487.132407,139.922557 L489.09671,140.008668 L493.041329,140.191831 L497.003575,140.390046 C559.855131,143.650556 627.656313,152.780913 620.644396,177.741143 L620.316743,178.767919 L254.464688,178.767919 L311.706942,356.220729 C362.434328,329.471539 538.641202,259.293599 630.59369,254.970242 L632.387085,254.884819 L635.021202,254.766792 L637.587459,254.661867 L639.260213,254.599735 L641.711644,254.519073 L643.307128,254.474128 L644.871302,254.436625 L646.403934,254.406887 L648.643239,254.377547 L650.096011,254.368638 L651.516436,254.368628 L652.904285,254.377839 L654.592933,254.402814 L656.229871,254.443337 L657.501887,254.487374 L658.125305,254.513377 L659.346815,254.573554 L660.31817,254.630899 L661.266801,254.69585 L662.192583,254.768583 L662.646868,254.807922 L663.538144,254.892657 L664.406261,254.985612 L665.251094,255.086964 L666.072518,255.196888 L666.870409,255.31556 C668.704604,255.602805 670.345597,255.962929 671.786273,256.405978 L672.391421,256.600962 C676.640123,258.035156 678.989519,260.265185 679.244171,263.582167 C679.287475,264.453757 678.808912,265.304338 677.749195,266.142201 L677.483682,266.343048 L677.342515,266.443297 L677.043276,266.643459 C676.939761,266.710108 676.832472,266.776686 676.721384,266.843197 L676.376705,267.042536 C676.257999,267.108918 676.135473,267.175239 676.009105,267.241501 L675.618448,267.440118 L675.204602,267.638412 L674.76743,267.836409 L674.306799,268.034134 L673.571573,268.330268 L673.051705,268.527425 L672.507908,268.7244 L671.940046,268.921217 L671.042839,269.216204 L670.414228,269.41274 L669.761081,269.609209 L669.083266,269.805634 L668.380646,270.002043 L667.653088,270.19846 L666.514697,270.493158 L665.319438,270.788018 L664.066858,271.083126 L663.199735,271.280046 L662.306799,271.477139 L660.918703,271.773162 L659.471772,272.069719 L657.450227,272.46611 L655.864251,272.76425 L654.217928,273.063212 C652.369756,273.392731 650.467932,273.748529 648.518613,274.128351 L646.157026,274.595523 C644.567963,274.914466 642.950078,275.248205 641.306526,275.595587 L638.822341,276.126746 L637.566549,276.399728 L635.029045,276.959956 C634.603346,277.054876 634.176289,277.150559 633.747923,277.246986 L631.162419,277.834333 L628.547871,278.438678 L625.281556,279.207396 C623.091432,279.727717 620.877139,280.263358 618.644618,280.812141 L615.282908,281.644901 L611.898314,282.495742 L610.198828,282.927432 L606.788265,283.80233 L603.365959,284.691226 L599.936368,285.592485 L595.645925,286.733958 L591.359767,287.889006 L587.939776,288.820677 L584.532557,289.757361 L581.142565,290.697425 L577.774259,291.639237 L572.772207,293.051658 L569.477612,293.990692 L566.2203,294.925756 L561.41399,296.317337 L556.71664,297.6908 L552.143291,299.040631 L549.170709,299.924668 L544.837456,301.222863 L540.668317,302.482728 L536.678334,303.698749 L532.882549,304.865415 L528.149586,306.334664 L524.865427,307.364728 L520.86923,308.631834 L517.343068,309.765463 L514.322596,310.752548 L512.122536,311.485764 L511.843469,311.580023 C456.12607,330.555261 397.756431,355.688213 343.888946,380.985511 L338.3328,383.602813 L332.810535,386.219814 L330.062658,387.52774 L324.594513,390.141523 L319.164648,392.751318 L313.774824,395.355651 L308.4268,397.953046 C307.539044,398.385285 306.653103,398.817174 305.769013,399.248682 L300.48699,401.832907 L292.651131,405.688867 L287.48791,408.24377 L279.838503,412.048835 L272.308889,415.816727 L267.358631,418.305547 L260.04187,422.000429 L255.239015,424.435967 L250.4982,426.847612 L245.821187,429.23389 L238.929145,432.762517 L235.216006,434.666565 L232.619401,435.98555 L229.534217,437.542664 L227.216033,438.708122 L220.549608,442.04612 L211.015161,446.799255 L193.913042,455.292269 L169.164468,467.543177 L149.0423,477.484051 L110.801546,496.346025 L38.6822531,531.854054 L5.16109852,548.339364 C1.82669158,539.529179 9.09494702e-13,529.977913 9.09494702e-13,520 L9.09494702e-13,138.74 L396.531909,138.740816 L396.835279,138.752157 L397.663311,138.762025 L402.071487,138.744114 L416.08458,138.658889 L421.282558,138.647691 L424.164888,138.647691 Z M630.83054,181.445468 L682.749493,181.446702 L684.649948,181.45692 L686.528015,181.478227 C716.082375,181.908207 736.90028,186.85113 733.897949,212.576063 C733.371793,217.084258 731.826794,222.620119 729.714073,228.511673 L729.19635,229.932131 L728.658213,231.364183 L728.101047,232.805765 L727.526239,234.254813 L726.935173,235.709262 L726.329235,237.167048 L725.674039,238.709478 L725.3413,239.480464 L724.666568,241.020454 L723.980857,242.555769 C723.865748,242.81113 723.75025,243.066194 723.634397,243.320912 L722.93529,244.844642 L722.583053,245.602621 L721.874233,247.109279 L721.518061,247.85735 L720.803213,249.341449 L720.086392,250.80746 L719.011044,252.967227 L718.296455,254.377348 L717.585623,255.760845 L716.880187,257.11528 L716.181783,258.438213 L715.492048,259.727206 L714.812621,260.97982 L714.145137,262.193616 L713.491235,263.366155 L712.539429,265.042273 L711.926643,266.101001 L711.333169,267.109936 L710.760644,268.066641 L709.944717,269.398428 L709.266579,270.47232 L708.945417,270.968574 L708.487424,271.660058 L708.269557,271.981335 L707.857109,272.573437 L707.47707,273.096236 L707.131078,273.547294 L706.894913,273.83704 L706.67951,274.08403 L706.542018,274.232189 L706.261513,274.520794 C706.214179,274.568021 706.166564,274.614807 706.118682,274.661143 L705.828314,274.933696 L705.532275,275.19507 L705.382355,275.321446 L705.079166,275.565333 L704.772117,275.797085 L704.61737,275.908291 L704.305886,276.121121 L704.14933,276.222651 L703.83504,276.415698 C703.625111,276.539884 703.414539,276.654958 703.204288,276.76041 L702.889273,276.911309 C702.784429,276.959161 702.679785,277.004544 702.575464,277.047393 L702.263585,277.168279 L701.95436,277.273585 L701.800969,277.320275 L701.497082,277.401492 L701.197658,277.466172 C698.030187,278.066529 695.748042,275.77919 698.304637,268.513928 L699.536969,265.02299 L701.36273,259.922706 L703.709492,253.399181 L704.551157,251.040764 L705.36625,248.733139 L706.151142,246.478136 L706.902207,244.277582 L707.382331,242.841698 L707.844733,241.431369 L708.288339,240.047136 L708.712072,238.689541 L708.916151,238.020902 L709.308061,236.70428 L709.671446,235.436894 L709.90108,234.607262 L710.120262,233.790042 L710.328688,232.985385 L710.526057,232.193446 L710.712066,231.414375 L710.969116,230.270233 L711.125398,229.524003 L711.26926,228.791177 L711.400399,228.071907 C711.421178,227.953167 711.441415,227.834998 711.461102,227.717403 L711.572588,227.018754 C711.590054,226.90347 711.606959,226.788766 711.623295,226.674646 L711.714447,225.996961 L711.791664,225.333442 L711.854644,224.684242 L711.903084,224.049514 L711.93668,223.429411 C712.171346,217.914752 710.565778,214.195527 706.126525,212.77246 C702.129114,211.500943 696.572962,210.910866 689.887028,210.808966 L688.487751,210.794785 L687.776286,210.7928 L686.330231,210.798803 C685.843144,210.802989 685.351035,210.809338 684.854045,210.817787 L683.348573,210.849371 L682.585118,210.869769 L681.0373,210.919539 L679.462305,210.980959 L677.86098,211.053647 L675.411466,211.182977 L673.748005,211.282173 L672.061168,211.391307 L670.351798,211.509998 L668.62074,211.637866 L666.868838,211.77453 L665.096936,211.91961 L663.305879,212.072726 L660.585224,212.316635 L657.826217,212.576484 L655.031709,212.850991 L652.204548,213.138871 L649.347585,213.43884 L645.496864,213.855387 L639.645712,214.50957 L635.704745,214.960831 L615.696693,217.293234 L610.809853,217.852416 L605.949954,218.395881 L601.129466,218.918009 L597.547465,219.292224 L595.178276,219.532107 L592.825953,219.763496 L589.332505,220.093116 L587.02917,220.300197 L583.61651,220.590063 L581.371905,220.768446 L579.153519,220.934121 L576.962912,221.086386 C576.600212,221.110607 576.238735,221.13424 575.878512,221.15727 L573.732495,221.288103 L571.618153,221.40377 C567.771848,221.601495 564.093098,221.719218 560.625124,221.737466 L559.118475,221.739178 L557.48026,221.727458 L556.437298,221.711875 L555.43286,221.690113 L554.466237,221.662204 L553.536727,221.628178 L552.643621,221.588066 L551.786216,221.541901 L550.963806,221.489713 L550.175684,221.431534 L549.421145,221.367395 L548.699484,221.297326 L548.350763,221.260078 L547.677095,221.181175 L547.034542,221.096421 L546.274028,220.982298 L545.55965,220.859144 L545.020438,220.754158 L544.509164,220.643462 L544.025123,220.527087 L543.56761,220.405064 L543.135919,220.277425 L542.729343,220.144201 C542.597926,220.098865 542.470577,220.052604 542.347179,220.005423 L541.988719,219.861122 L541.653258,219.711329 C541.004867,219.406274 540.490238,219.068458 540.083971,218.699006 L539.88975,218.511649 C539.704324,218.321666 539.54493,218.123821 539.408393,217.918254 L539.279357,217.710119 C539.218531,217.604769 539.163154,217.497501 539.112831,217.388332 L539.018803,217.167464 C538.960452,217.018536 538.910613,216.86625 538.868346,216.710646 L538.797738,216.415011 L538.743497,216.111663 L538.710964,215.863471 L538.687317,215.610413 L538.671853,215.35252 L538.662648,215.089824 L538.662648,214.822354 L538.667496,214.550143 C538.672727,214.432157 538.679742,214.316175 538.688619,214.202154 L538.720907,213.865929 L538.76482,213.54121 L538.820817,213.227736 C539.13177,211.688049 539.913043,210.560326 541.422634,209.698398 L541.73434,209.529514 C541.948719,209.419229 542.176353,209.313496 542.417851,209.211968 L542.790574,209.062788 C542.918333,209.014084 543.049634,208.966388 543.184554,208.919656 L543.70762,208.748852 L544.265511,208.586584 L544.498619,208.523954 L544.982212,208.402417 L545.489354,208.28563 L545.7519,208.228937 L546.295227,208.118786 L546.86325,208.012735 L547.456429,207.910524 L548.075222,207.811893 L548.720087,207.716582 L549.391484,207.624331 L550.08987,207.53488 L550.815705,207.44797 L551.956927,207.3218 L553.162488,207.199884 L554.872661,207.042431 L557.372283,206.82804 L560.297364,206.56321 L562.843202,206.318492 L564.176278,206.185056 L565.545369,206.044175 L567.659826,205.818795 L569.105538,205.659104 L571.320548,205.405296 L573.58209,205.134226 L575.879811,204.845742 L577.426613,204.643669 L578.981828,204.433743 L581.323714,204.104029 L582.886541,203.874271 L584.447047,203.636501 L586.002163,203.390674 L587.548823,203.136744 L589.083961,202.874665 L589.84625,202.740556 L591.358351,202.46617 L592.851263,202.183523 C593.345361,202.087925 593.835749,201.990943 594.321917,201.892568 L595.767246,201.593261 L597.033819,201.318928 C597.242907,201.272646 597.450962,201.226084 597.657936,201.179241 L598.886466,200.894805 C599.088941,200.846835 599.290245,200.798583 599.490333,200.750048 L600.675908,200.455437 C604.57676,199.462045 607.954851,198.354922 610.446342,197.128684 C611.220964,196.738684 611.938949,196.362596 612.606961,195.997523 L613.385014,195.564535 L614.11765,195.141007 L614.467737,194.932443 L615.137046,194.521017 L615.767334,194.116268 C616.277026,193.781449 616.748737,193.452425 617.189129,193.126297 L617.702992,192.736148 C618.452517,192.152452 619.109202,191.57438 619.711904,190.985023 L620.106133,190.59026 L620.29805,190.391278 L620.673083,189.989413 L621.038518,189.58142 L621.396912,189.166188 L621.750823,188.742602 L622.102809,188.309548 L622.811244,187.410587 C625.810063,183.354807 628.048554,181.546939 630.610157,181.449632 L630.83054,181.445468 Z" id="Logo" fill="#15569C"></path>
        </g>
    </g>
</svg>