<?xml version="1.0" encoding="UTF-8"?>
<svg width="980px" height="680px" viewBox="0 0 980 680" version="1.1" xmlns="http://www.w3.org/2000/svg" xmlns:xlink="http://www.w3.org/1999/xlink">
    <title>US UPS</title>
    <defs>
        <rect id="path-1" x="0" y="0" width="900" height="600" rx="80"></rect>
        <filter x="-6.7%" y="-10.0%" width="113.3%" height="120.0%" filterUnits="objectBoundingBox" id="filter-2">
            <feMorphology radius="2.5" operator="dilate" in="SourceAlpha" result="shadowSpreadOuter1"></feMorphology>
            <feOffset dx="0" dy="0" in="shadowSpreadOuter1" result="shadowOffsetOuter1"></feOffset>
            <feGaussianBlur stdDeviation="17.5" in="shadowOffsetOuter1" result="shadowBlurOuter1"></feGaussianBlur>
            <feColorMatrix values="0 0 0 0 0   0 0 0 0 0   0 0 0 0 0  0 0 0 0.5 0" type="matrix" in="shadowBlurOuter1"></feColorMatrix>
        </filter>
    </defs>
    <g id="US-UPS" stroke="none" stroke-width="1" fill="none" fill-rule="evenodd">
        <g transform="translate(40, 40)">
            <g id="Rectangle">
                <use fill="black" fill-opacity="1" filter="url(#filter-2)" xlink:href="#path-1"></use>
                <use fill="#330000" fill-rule="evenodd" xlink:href="#path-1"></use>
            </g>
            <g id="Logo" transform="translate(240, 50)" fill-rule="nonzero">
                <path d="M62.5196957,413.111663 C27.0095889,384.038841 8.25292995,342.188984 8.25292995,292.206239 L8.25292995,54.6118883 C64.3278376,24.8863351 132.226943,9.82098664 210.074581,9.82098664 C287.922218,9.82098664 355.828826,24.8863351 411.896231,54.6118883 L411.896231,292.206239 C411.896231,342.188984 393.139572,384.008831 357.629465,413.111663 C325.142932,439.738616 221.921286,485.032196 210.067078,490.186526 C198.227875,485.032196 95.0062291,439.746118 62.5196957,413.111663 Z" id="Path" fill="#330000"></path>
                <path d="M400.844808,51.8208974 C374.900597,49.4125424 347.951029,47.8219777 320.498783,47.8219777 C218.687638,47.8219777 109.538888,69.7072474 19.3043534,152.46913 L19.3043534,293.931852 C19.3043534,340.005709 36.3429024,378.479368 68.7168958,404.866235 C97.3020441,428.124493 185.270775,467.963636 210.074581,478.910022 C234.563275,468.128695 322.306925,428.814738 351.394752,404.866235 C383.971317,378.021705 400.844808,340.440863 400.844808,293.931852 L400.844808,51.8208974 M37.9559751,279.211626 L37.9559751,164.323338 L74.4864441,164.323338 L74.4864441,280.832201 C74.4864441,291.200882 76.9923338,306.551332 93.7457816,306.551332 C99.8171217,306.796739 105.824141,305.22969 111.001908,302.049734 L111.001908,164.323338 L147.487361,164.323338 L147.487361,322.88463 C131.009555,333.169036 111.828314,338.28055 92.4178101,337.55984 C56.2549716,337.55984 37.9184618,317.932872 37.9184618,279.211626 M202.842013,411.821205 L166.289036,411.821205 L166.289036,173.626641 C181.075072,164.545094 198.209694,160.02266 215.551525,160.624525 C259.179514,160.624525 283.150524,193.726277 283.150524,247.002691 C283.150524,300.279105 259.892267,336.929617 219.302857,336.929617 C213.74712,337.029583 208.205901,336.329667 202.849516,334.851379 L202.842013,411.821205 Z M202.842013,304.983275 C206.636984,306.404804 210.651425,307.151322 214.703724,307.189058 C235.711182,307.189058 245.779757,287.884705 245.779757,247.918016 C245.779757,206.975981 236.994138,190.041384 215.769102,190.041384 C211.315972,190.005719 206.904586,190.90282 202.819505,192.675904 L202.842013,304.983275 Z M291.433465,208.258936 C291.910179,181.60235 313.811681,160.327467 340.470874,160.624525 C354.806105,159.864588 368.966946,164.055095 380.580113,172.493739 L380.580113,204.282524 C371.972712,195.301769 360.268023,189.936338 347.845992,189.277197 C337.484814,189.187165 326.703486,193.741282 326.350861,206.735895 C325.998236,220.038118 336.757055,225.289982 350.359384,233.287822 C380.887723,251.234193 386.792319,267.36492 386.087068,288.679987 C385.389321,312.050784 369.281102,337.574846 333.170782,337.574846 C319.010551,337.416034 305.146221,333.5014 292.994019,326.230818 L292.994019,292.566367 C302.64792,301.289582 314.947146,306.525206 327.92642,307.436646 C341.33368,307.50417 350.156813,299.821442 349.841701,287.074417 C349.564102,275.602844 343.089303,269.368131 327.011095,259.922277 C296.872896,242.246002 291.455973,227.698337 291.403454,208.258936 M56.4875542,419.766525 C19.5069253,389.478272 0,345.955321 0,293.931852 L0,46.6215516 C58.3632201,15.6805669 129.045814,0 210.074581,0 C291.103347,0 361.785941,15.6805669 420.149161,46.6215516 L420.149161,293.931852 C420.149161,345.955321 400.642236,389.478272 363.661607,419.774028 C329.854605,447.488867 222.40896,494.628103 210.074581,499.992507 C197.740202,494.628103 90.2945563,447.488867 56.4875542,419.766525 Z" id="Shape" fill="#FFBE00"></path>
            </g>
        </g>
    </g>
</svg>