<?xml version="1.0" encoding="UTF-8"?>
<svg width="980px" height="680px" viewBox="0 0 980 680" version="1.1" xmlns="http://www.w3.org/2000/svg" xmlns:xlink="http://www.w3.org/1999/xlink">
    <title>US USPS text</title>
    <defs>
        <linearGradient x1="50%" y1="0%" x2="50%" y2="100%" id="linearGradient-1">
            <stop stop-color="#FFFFFF" offset="0%"></stop>
            <stop stop-color="#EDEDED" offset="100%"></stop>
        </linearGradient>
        <rect id="path-2" x="0" y="0" width="900" height="600" rx="80"></rect>
        <filter x="-6.7%" y="-10.0%" width="113.3%" height="120.0%" filterUnits="objectBoundingBox" id="filter-3">
            <feMorphology radius="2.5" operator="dilate" in="SourceAlpha" result="shadowSpreadOuter1"></feMorphology>
            <feOffset dx="0" dy="0" in="shadowSpreadOuter1" result="shadowOffsetOuter1"></feOffset>
            <feGaussianBlur stdDeviation="17.5" in="shadowOffsetOuter1" result="shadowBlurOuter1"></feGaussianBlur>
            <feColorMatrix values="0 0 0 0 0   0 0 0 0 0   0 0 0 0 0  0 0 0 0.5 0" type="matrix" in="shadowBlurOuter1"></feColorMatrix>
        </filter>
    </defs>
    <g id="US-USPS-text" stroke="none" stroke-width="1" fill="none" fill-rule="evenodd">
        <g transform="translate(40, 40)">
            <g id="Rectangle">
                <use fill="black" fill-opacity="1" filter="url(#filter-3)" xlink:href="#path-2"></use>
                <use fill="url(#linearGradient-1)" fill-rule="evenodd" xlink:href="#path-2"></use>
            </g>
            <g id="Logo" transform="translate(56.4454, 234.2069)" fill-rule="nonzero">
                <g id="Group" transform="translate(396.7773, 65.9288) scale(-1, 1) rotate(-180) translate(-396.7773, -65.9288)translate(0, 0)">
                    <path d="M213.982791,0.000883355647 L27.7979214,0.00949607321 L27.6857749,0.630583429 C27.6857749,0.630583429 137.142373,23.1044761 139.311011,23.4909442 C164.459263,27.9298064 163.681027,32.7816372 163.681027,32.7816372 C181.303972,32.6933017 183.469077,33.4062139 186.54978,35.9734662 C195.813972,43.7138701 180.752758,66.5199045 180.752758,66.5199045 C178.599579,68.1099447 15.7772575,130.9872 15.7772575,130.9872 L186.12356,130.9872 L213.978414,0.00322424811 L213.982791,0.000883355647 Z M249.679193,0.000883355647 C249.679193,0.000883355647 246.840044,13.3598708 242.605281,33.2905826 C240.071154,44.7909898 247.827679,50.000138 260.746756,50.000138 C273.7153,50.000138 283.571782,44.7905481 286.039878,33.2905826 C293.234368,-0.000883355647 285.963291,33.2923078 293.234368,0.000883355647 L282.390736,0.000883355647 C282.390736,0.000883355647 276.913489,25.611572 275.963882,29.9952244 C274.329674,37.6751184 270.278605,42.2619426 262.334146,42.2619426 C254.035903,42.1956909 252.335002,37.6031249 254.035461,29.9952244 C253.842227,30.7626396 260.487933,0.000883355647 260.487933,0.000883355647 L249.678751,0.000883355647 L249.679193,0.000883355647 Z M303.621305,0.000883355647 L293.200359,49.1110406 L302.801551,49.1110406 L310.384276,12.6637866 L310.599948,12.6637866 L322.728862,49.1110406 L336.358598,49.1110406 L346.762319,0.000883355647 L337.178352,0.000883355647 L329.440157,36.8535976 L329.310745,36.8535976 L317.656192,0.000883355647 L303.620996,0.000883355647 L303.621305,0.000883355647 Z M357.157074,0.000883355647 L346.762187,49.1110406 L357.57976,49.1110406 L367.991873,0.000883355647 L357.157074,0.000883355647 Z M375.246873,0.000883355647 L373.530204,7.81637244 L388.80784,7.81637244 L380.034793,49.1114822 L390.8612,49.1114822 L399.625855,7.81637244 L414.894657,7.81637244 L416.542336,0.000883355647 L375.247226,0.000883355647 L375.246873,0.000883355647 Z M423.813767,0.000441677824 L413.332752,49.1110406 L448.925801,49.1110406 L450.582093,41.2955515 L425.867127,41.2955515 L428.679378,27.8725207 L450.245623,27.8725207 L451.806998,20.6175208 L430.249145,20.6175208 L432.975136,7.81593077 L457.716161,7.81593077 L459.346571,0.000441677824 L423.814032,0.000441677824 L423.813767,0.000441677824 Z M467.23953,0.000883355647 L456.844643,49.1110406 L479.023494,49.1110406 C492.726549,49.1110406 505.874414,40.076079 508.827914,22.4032242 C510.936926,9.870616 505.937,0 491.074674,0 L467.23953,0 L467.23953,0.000883355647 Z M548.649587,0.000883355647 C535.923965,0.000883355647 529.597372,4.51924749 528.653507,11.5860927 C527.080029,23.3515065 547.897409,30.3432665 546.329453,37.3880278 C545.363283,41.5066735 540.300992,41.2958607 536.193389,41.2958607 L522.848093,41.2958607 L521.191801,49.1113497 L537.771945,49.1113497 C551.336754,49.1113497 557.223878,44.2449435 558.311731,37.5261404 C560.288239,25.473636 539.140705,19.2495121 540.791255,11.4481567 C541.33231,9.04653352 543.992712,7.81637244 549.883634,7.81637244 L561.460452,7.81637244 L563.159896,0.000883355647 L548.649896,0.000883355647 L548.649587,0.000883355647 Z M568.723402,0.000883355647 L567.023958,7.81637244 L582.292761,7.81637244 L573.528106,49.1114822 L584.345679,49.1114822 L593.110334,7.81637244 L608.38797,7.81637244 L610.035649,0.000883355647 L568.723314,0.000883355647 L568.723402,0.000883355647 Z M621.499485,0.000441677824 L593.359749,49.1110406 L604.186156,49.1110406 L625.752401,9.73943769 L630.074307,41.2951098 L614.581132,41.2951098 L610.345486,49.1110406 L642.108305,49.1110406 L634.447845,0.000441677824 L621.499618,0.000441677824 L621.499485,0.000441677824 Z M646.395539,0.000883355647 L644.687483,7.81637244 L659.956285,7.81637244 L651.19163,49.1114822 L662.009203,49.1114822 L670.773858,7.81637244 L686.034269,7.81637244 L687.690561,0.000883355647 L646.395451,0.000883355647 L646.395539,0.000883355647 Z M694.909431,0.000441677824 L684.419583,49.1110406 L720.029857,49.1110406 L721.686149,41.2955515 L696.945124,41.2955515 L699.757331,27.8725207 L721.332409,27.8725207 L722.902442,20.6175208 L701.336197,20.6175208 L704.079414,7.81593077 L728.79438,7.81593077 L730.442059,0.000441677824 L694.90952,0.000441677824 L694.909431,0.000441677824 Z M754.253264,0.000883355647 C741.510858,0.000883355647 735.208999,4.51924749 734.24835,11.5860927 C732.674873,23.3515065 753.492253,30.3432665 751.924296,37.3880278 C750.958126,41.5066735 745.887002,41.2958607 741.779398,41.2958607 L728.425711,41.2958607 L726.786645,49.1113497 L743.349563,49.1113497 C756.914372,49.1113497 762.811213,44.2449435 763.915408,37.5261404 C765.886351,25.473636 744.734665,19.2495121 746.368873,11.4481567 C746.92097,9.04653352 749.596213,7.81637244 755.48687,7.81637244 L767.037628,7.81637244 L768.771523,0.000883355647 L754.253131,0.000883355647 L754.253264,0.000883355647 Z M476.486497,7.81637244 L487.528443,7.81637244 C496.489202,7.81637244 499.692692,14.464507 498.32879,22.2658624 C496.418534,33.2967661 489.361847,41.2959932 477.11633,41.2959932 L469.378134,41.2959932 L476.486497,7.81637244 Z M117.234589,30.2889401 C112.298398,30.250205 108.824601,30.3210501 108.427091,30.2975528 L21.4033098,30.2975528 L21.3860402,30.2975528 L2.84217094e-14,131.022181 C2.84217094e-14,131.022181 65.505238,98.8751018 73.5172737,94.7564561 C89.930905,86.3257098 112.630053,75.1843867 133.607542,68.0402479 C137.604726,66.6876096 154.726808,61.4071303 164.697685,59.6293771 C168.562366,58.9392555 170.208058,58.2822597 170.159248,57.5590123 C170.009082,55.4941685 166.119888,55.35822 159.538888,55.6784365 C139.459331,56.6225228 100.981242,71.9471974 89.9039627,77.7883866 L77.4040386,39.0382245 L157.294723,39.0382245 C159.984541,31.500109 132.044002,30.4051897 117.234545,30.2890284 L117.234589,30.2889401 Z M159.590609,39.6229176 C159.010907,39.6229176 158.513003,40.0145533 157.839445,40.9255138 C157.226617,41.7150129 156.729376,42.2471022 155.139336,43.0476432 C152.671461,44.2622572 146.220094,44.9416902 143.200342,45.195655 C140.301832,45.4385778 139.514762,45.7311894 139.465073,46.8519468 C139.437247,47.8512429 139.897078,48.421979 144.054547,48.421979 C153.622172,48.421979 170.843191,44.8129853 176.032905,46.4637562 C178.771308,47.3415909 176.571884,52.2205849 174.324849,58.6359553 C173.452535,61.1148721 175.159885,60.9399235 176.15366,59.8522919 C177.147435,58.7591393 181.611473,50.5836828 182.097318,46.4208693 C182.78744,40.5076866 177.714019,39.6229176 170.718814,39.6229176 L159.590741,39.6229176 L159.590609,39.6229176 Z M301.135101,80.9869291 C285.936084,80.9869291 273.272297,88.9291797 269.562203,106.392238 C266.630567,120.360299 275.124252,131.857614 290.257018,131.857614 C305.600022,131.857614 317.924158,124.269147 321.761014,106.392238 C324.902447,91.8115692 316.201615,80.9869291 301.135101,80.9869291 Z M734.624218,80.9869291 C719.551962,80.9869291 705.047704,88.7856344 701.34291,106.392238 C697.583128,123.987799 708.737039,131.857614 723.815036,131.857614 C727.983371,131.857614 731.979893,131.386609 735.943951,130.779302 L738.609565,122.33398 C734.711758,123.30015 730.585604,124.059262 725.445358,124.059262 C715.651152,124.059262 710.120904,117.489304 712.445012,106.392149 C714.774863,95.2949939 723.123899,88.7855461 732.907063,88.7855461 C737.920106,88.7855461 741.334276,89.4697934 744.414978,90.364191 L745.381149,82.0827318 C741.897415,81.4699038 738.267927,80.9869291 734.624085,80.9869291 L734.624218,80.9869291 Z M348.226791,81.8668397 C335.479085,81.8668397 329.168392,86.3909456 328.213485,93.452049 C326.640008,105.233805 347.454738,112.215406 345.897823,119.27121 C344.937174,123.378813 339.860529,123.170386 335.752925,123.170386 L322.399238,123.170386 L320.742946,130.977483 L337.331924,130.977483 C350.891433,130.977483 356.778557,126.114168 357.871709,119.400665 C359.859259,107.353903 338.702892,101.115203 340.3424,93.3142897 C340.888976,90.9126665 343.561834,89.6825054 349.46923,89.6825054 L361.019989,89.6825054 L362.745271,81.8668397 L348.226879,81.8668397 L348.226791,81.8668397 Z M368.292214,81.8668397 L366.584158,89.6823287 L381.85296,89.6823287 L373.088305,130.977439 L383.905878,130.977439 L392.687759,89.6823287 L407.948169,89.6823287 L409.578579,81.8668397 L368.291861,81.8668397 L368.292214,81.8668397 Z M526.36429,81.8668397 C513.616585,81.8668397 507.308984,86.3909456 506.359377,93.452049 C504.774857,105.233805 525.591796,112.215406 524.035323,119.27121 C523.074674,123.378813 517.998029,123.170386 513.890425,123.170386 L500.536738,123.170386 L498.889059,130.977483 L515.469203,130.977483 C529.023412,130.977483 534.915836,126.114168 536.008988,119.400665 C537.996538,107.353903 516.845029,101.115203 518.462453,93.3142897 C519.014551,90.9126665 521.69845,89.6825054 527.589284,89.6825054 L539.157268,89.6825054 L540.865324,81.8668397 L526.364158,81.8668397 L526.36429,81.8668397 Z M550.242277,81.866398 L539.761262,130.976997 L575.379929,130.976997 L577.018951,123.1699 L552.295593,123.1699 L555.1078,109.738477 L576.682878,109.738477 L578.25291,102.475085 L556.686665,102.475085 L559.412613,89.6818871 L584.144804,89.6818871 L585.775214,81.866398 L550.242674,81.866398 L550.242277,81.866398 Z M593.642423,81.8668397 L583.23031,130.977218 L594.047883,130.977218 L602.812538,89.6129853 L612.53475,89.6129853 C618.558353,89.6129853 619.09985,92.9621399 618.486801,96.0482312 C617.332917,101.867337 612.260027,104.191887 606.71167,104.191887 C605.684769,104.191887 603.960503,104.26366 602.596823,104.053863 L611.508114,130.977218 L623.352147,130.977218 L615.269001,109.8076 C622.46305,108.78622 628.63638,103.653703 629.304197,94.4005521 C629.933588,86.1796028 626.098588,81.8661771 616.519833,81.8661771 L593.642246,81.8661771 L593.642423,81.8668397 Z M754.121644,81.866398 L743.666246,130.976997 L779.276521,130.976997 L780.915543,123.1699 L756.200577,123.1699 L759.004215,109.738477 L780.579294,109.738477 L782.149326,102.475085 L760.583081,102.475085 L763.326298,89.6818871 L788.041264,89.6818871 L789.680286,81.866398 L754.121688,81.866398 L754.121644,81.866398 Z M232.323463,81.8756732 L221.91135,130.976997 L232.737757,130.976997 L241.502411,89.6818871 L250.327134,89.6818871 C254.313277,89.6818871 257.036662,91.6614871 255.882558,97.0057887 C255.275251,99.9484672 252.592411,105.020033 245.194396,105.020033 C243.554667,105.020033 241.77899,104.813018 240.415442,104.67495 L240.958927,111.80893 C242.526883,111.946954 244.383299,112.205734 246.100498,112.205734 C255.822711,112.205734 264.379777,106.598192 266.372627,97.273048 C267.670056,91.1169425 266.433711,81.874834 255.822269,81.874834 L232.323684,81.874834 L232.323463,81.8756732 Z M421.140732,81.8756732 L393.018222,130.976997 L403.81857,130.976997 L425.410874,91.5970021 L429.706897,123.1699 L414.23934,123.1699 L409.995081,130.976997 L441.7579,130.976997 L434.106273,81.8756732 L421.140821,81.8756732 L421.140732,81.8756732 Z M457.811917,81.8756732 L447.408196,130.976997 L480.628993,130.976997 L482.33705,123.1699 L459.942659,123.1699 L468.707314,81.8747899 L457.812005,81.8747899 L457.811917,81.8756732 Z M635.052811,81.8756732 L642.445614,130.976997 L655.238812,130.976997 L683.19746,81.8756732 L672.509299,81.8756732 L650.943054,121.264502 L645.870826,81.8756732 L635.052811,81.8756732 L635.052811,81.8756732 Z M689.719275,81.8756732 L679.315554,130.976997 L690.133127,130.976997 L700.54524,81.8756732 L689.718833,81.8756732 L689.719275,81.8756732 Z M299.426249,88.7879312 C309.424952,88.7879312 312.786562,96.4514831 310.666508,106.394534 C308.320095,117.49169 301.753008,124.061647 291.964103,124.061647 C281.822296,124.061647 278.465545,115.912691 280.585599,106.394534 C283.119725,95.2973789 289.637344,88.7879312 299.425808,88.7879312 L299.426249,88.7879312 Z" id="Shape" fill="#15569C" transform="translate(394.8401, 65.9288) scale(-1, 1) rotate(-180) translate(-394.8401, -65.9288)"></path>
                    <polygon id="Path" fill="#ED192D" points="236.173789 68.1738554 235.406374 64.5300134 792.803787 64.5300134 793.55464 68.1738554 236.212436 68.1738554"></polygon>
                </g>
            </g>
        </g>
    </g>
</svg>