<?xml version="1.0" encoding="UTF-8"?>
<svg width="980px" height="680px" viewBox="0 0 980 680" version="1.1" xmlns="http://www.w3.org/2000/svg" xmlns:xlink="http://www.w3.org/1999/xlink">
    <title>US UPS Express</title>
    <defs>
        <rect id="path-1" x="0" y="0" width="900" height="600" rx="80"></rect>
        <filter x="-6.7%" y="-10.0%" width="113.3%" height="120.0%" filterUnits="objectBoundingBox" id="filter-2">
            <feMorphology radius="2.5" operator="dilate" in="SourceAlpha" result="shadowSpreadOuter1"></feMorphology>
            <feOffset dx="0" dy="0" in="shadowSpreadOuter1" result="shadowOffsetOuter1"></feOffset>
            <feGaussianBlur stdDeviation="17.5" in="shadowOffsetOuter1" result="shadowBlurOuter1"></feGaussianBlur>
            <feColorMatrix values="0 0 0 0 0   0 0 0 0 0   0 0 0 0 0  0 0 0 0.5 0" type="matrix" in="shadowBlurOuter1"></feColorMatrix>
        </filter>
    </defs>
    <g id="US-UPS-Express" stroke="none" stroke-width="1" fill="none" fill-rule="evenodd">
        <g transform="translate(40, 40)">
            <g id="Rectangle">
                <use fill="black" fill-opacity="1" filter="url(#filter-2)" xlink:href="#path-1"></use>
                <use fill="#330000" fill-rule="evenodd" xlink:href="#path-1"></use>
            </g>
            <g id="Logo" transform="translate(148.7, 50)" fill-rule="nonzero">
                <path d="M195.314855,297.444855 C169.747195,276.512109 156.242199,246.379761 156.242199,210.391645 L156.242199,39.3211488 C196.616737,17.9184298 245.504826,7.07121635 301.555965,7.07121635 C357.607104,7.07121635 406.500594,17.9184298 446.869731,39.3211488 L446.869731,210.391645 C446.869731,246.379761 433.364734,276.490501 407.797074,297.444855 C384.406419,316.616548 310.085721,349.228415 301.550563,352.939588 C293.026209,349.228415 218.70551,316.62195 195.314855,297.444855 Z" id="Path" fill="#330000"></path>
                <path d="M438.912587,37.3116053 C420.232475,35.5775637 400.828496,34.43234 381.062582,34.43234 C307.757459,34.43234 229.169182,50.1899703 164.199343,109.779418 L164.199343,211.634105 C164.199343,244.807779 176.467282,272.509228 199.776906,291.508058 C220.358522,308.254254 283.696957,336.938867 301.555965,344.820384 C319.188089,337.057711 382.364464,308.751238 403.308013,291.508058 C426.763491,272.179706 438.912587,245.121095 438.912587,211.634105 L438.912587,37.3116053 M177.628712,201.035383 L177.628712,118.314576 L203.931043,118.314576 L203.931043,202.202215 C203.931043,209.667777 205.735311,220.720266 217.797974,220.720266 C222.169405,220.896962 226.494523,219.76867 230.222571,217.479067 L230.222571,118.314576 L256.492491,118.314576 L256.492491,232.480418 C244.628294,239.885301 230.817593,243.565646 216.84182,243.046727 C190.804187,243.046727 177.601702,228.915099 177.601702,201.035383 M296.348438,296.515711 L270.0299,296.515711 L270.0299,125.013055 C280.676006,118.474243 293.013118,115.218042 305.499424,115.651391 C336.912046,115.651391 354.171432,139.485009 354.171432,177.844603 C354.171432,216.204196 337.425236,242.592959 308.200423,242.592959 C304.200233,242.664937 300.210496,242.160989 296.35384,241.096606 L296.348438,296.515711 Z M296.348438,219.591249 C299.080858,220.614765 301.971299,221.152266 304.888998,221.179436 C320.014594,221.179436 327.264077,207.280094 327.264077,178.503646 C327.264077,149.024939 320.938336,136.831847 305.656082,136.831847 C302.44978,136.806168 299.273535,137.45209 296.332232,138.72873 L296.348438,219.591249 Z M360.135239,149.948681 C360.478479,130.755652 376.247796,115.437506 395.442703,115.651391 C405.764224,115.104228 415.960182,118.121439 424.321788,124.197353 L424.321788,147.085622 C418.124366,140.619381 409.696864,136.756213 400.752868,136.281624 C393.292707,136.2168 385.530035,139.495813 385.276141,148.852075 C385.022247,158.429819 392.768713,162.211218 402.562537,167.969749 C424.54327,180.89133 428.794643,192.505627 428.286855,207.852706 C427.784469,224.679932 416.186378,243.057531 390.186558,243.057531 C379.991039,242.943185 370.008571,240.124606 361.258855,234.889709 L361.258855,210.650941 C368.209768,216.93175 377.065343,220.701456 386.410561,221.357702 C396.063933,221.40632 402.416683,215.874674 402.189799,206.696678 C401.989925,198.437022 397.328,193.947961 385.751517,187.146844 C364.051688,174.419735 360.151445,163.94526 360.113631,149.948681 M190.971649,302.236427 C164.345197,280.428559 150.3,249.091564 150.3,211.634105 L150.3,33.5680202 C192.322148,11.2901774 243.214378,0 301.555965,0 C359.897551,0 410.789781,11.2901774 452.811929,33.5680202 L452.811929,211.634105 C452.811929,249.091564 438.766733,280.428559 412.140281,302.241829 C387.798875,322.196813 310.436851,356.137571 301.555965,360 C292.675079,356.137571 215.313055,322.196813 190.971649,302.236427 Z" id="Shape" fill="#FFBE00"></path>
                <g id="Express" transform="translate(0, 357)" fill="#FFBE00">
                    <polygon id="Path" points="-5.68434189e-14 0 84 0 84 22.4 24 22.4 24 44.8 72 44.8 72 65.6 24 65.6 24 89.6 84 89.6 84 112 -5.68434189e-14 112"></polygon>
                    <polygon id="Path" points="114.4 70.4 92 30.4 116.8 30.4 132 60.8 136 60.8 151.2 30.4 176 30.4 153.6 70.4 177.6 112 152.8 112 136 80 132 80 115.2 112 90.4 112"></polygon>
                    <path d="M186.4,30.4 L208.8,30.4 L208.8,40.8 L209.6,40.8 C211.306667,38.4533333 213.386667,36.32 215.84,34.4 C217.973333,32.8 220.613333,31.3333333 223.76,30 C226.906667,28.6666667 230.72,28 235.2,28 C240.426667,28 245.306667,29.0133333 249.84,31.04 C254.373333,33.0666667 258.346667,35.9466667 261.76,39.68 C265.173333,43.4133333 267.866667,47.9466667 269.84,53.28 C271.813333,58.6133333 272.8,64.5866667 272.8,71.2 C272.8,77.8133333 271.813333,83.7866667 269.84,89.12 C267.866667,94.4533333 265.173333,98.9866667 261.76,102.72 C258.346667,106.453333 254.373333,109.333333 249.84,111.36 C245.306667,113.386667 240.426667,114.4 235.2,114.4 C230.72,114.4 226.906667,113.733333 223.76,112.4 C220.613333,111.066667 217.973333,109.6 215.84,108 C213.386667,106.08 211.306667,103.946667 209.6,101.6 L208.8,101.6 L208.8,142.4 L186.4,142.4 L186.4,30.4 Z M229.6,95.2 C235.253333,95.2 240,93.12 243.84,88.96 C247.68,84.8 249.6,78.88 249.6,71.2 C249.6,63.52 247.68,57.6 243.84,53.44 C240,49.28 235.253333,47.2 229.6,47.2 C223.52,47.2 218.533333,49.28 214.64,53.44 C210.746667,57.6 208.8,63.52 208.8,71.2 C208.8,78.88 210.746667,84.8 214.64,88.96 C218.533333,93.12 223.52,95.2 229.6,95.2 Z" id="Shape"></path>
                    <path d="M286.4,30.4 L308.8,30.4 L308.8,42.4 L309.6,42.4 C310.56,39.84 312,37.6 313.92,35.68 C315.52,33.9733333 317.653333,32.4 320.32,30.96 C322.986667,29.52 326.346667,28.8 330.4,28.8 L340,28.8 L340,50.4 L328,50.4 C321.92,50.4 317.2,52.0533333 313.84,55.36 C310.48,58.6666667 308.8,63.1466667 308.8,68.8 L308.8,112 L286.4,112 L286.4,30.4 Z" id="Path"></path>
                    <path d="M390.4,114.4 C384.213333,114.4 378.426667,113.28 373.04,111.04 C367.653333,108.8 362.986667,105.733333 359.04,101.84 C355.093333,97.9466667 352,93.36 349.76,88.08 C347.52,82.8 346.4,77.1733333 346.4,71.2 C346.4,65.2266667 347.52,59.6 349.76,54.32 C352,49.04 355.093333,44.4533333 359.04,40.56 C362.986667,36.6666667 367.653333,33.6 373.04,31.36 C378.426667,29.12 384.213333,28 390.4,28 C396.8,28 402.64,29.12 407.92,31.36 C413.2,33.6 417.76,36.6933333 421.6,40.64 C425.44,44.5866667 428.4,49.1733333 430.48,54.4 C432.56,59.6266667 433.6,65.2266667 433.6,71.2 L433.6,76 L369.6,76 C370.026667,78.56 370.853333,81.0133333 372.08,83.36 C373.306667,85.7066667 374.853333,87.76 376.72,89.52 C378.586667,91.28 380.693333,92.6666667 383.04,93.68 C385.386667,94.6933333 387.84,95.2 390.4,95.2 C394.026667,95.2 396.986667,94.6933333 399.28,93.68 C401.573333,92.6666667 403.466667,91.5733333 404.96,90.4 C406.56,89.0133333 407.84,87.4133333 408.8,85.6 L432.8,85.6 C431.093333,90.9333333 428.426667,95.7333333 424.8,100 C423.2,101.813333 421.333333,103.573333 419.2,105.28 C417.066667,106.986667 414.613333,108.533333 411.84,109.92 C409.066667,111.306667 405.893333,112.4 402.32,113.2 C398.746667,114 394.773333,114.4 390.4,114.4 Z M409.6,62.4 C409.173333,60.3733333 408.426667,58.4533333 407.36,56.64 C406.293333,54.8266667 404.933333,53.2266667 403.28,51.84 C401.626667,50.4533333 399.706667,49.3333333 397.52,48.48 C395.333333,47.6266667 392.96,47.2 390.4,47.2 C385.173333,47.2 380.826667,48.72 377.36,51.76 C373.893333,54.8 371.573333,58.3466667 370.4,62.4 L409.6,62.4 Z" id="Shape"></path>
                    <path d="M482.4,114.4 C478.026667,114.4 474.08,114 470.56,113.2 C467.04,112.4 463.92,111.306667 461.2,109.92 C458.48,108.533333 456.08,106.986667 454,105.28 C451.92,103.573333 450.186667,101.813333 448.8,100 C445.386667,95.7333333 442.986667,90.9333333 441.6,85.6 L464.8,85.6 C465.653333,87.6266667 466.826667,89.3866667 468.32,90.88 C469.6,92.16 471.36,93.3333333 473.6,94.4 C475.84,95.4666667 478.773333,96 482.4,96 C487.626667,96 491.2,95.28 493.12,93.84 C495.04,92.4 496,90.4533333 496,88 C496,85.8666667 494.746667,84.2666667 492.24,83.2 C489.733333,82.1333333 486.613333,81.1733333 482.88,80.32 C479.146667,79.4666667 475.12,78.56 470.8,77.6 C466.48,76.64 462.453333,75.2 458.72,73.28 C454.986667,71.36 451.866667,68.8 449.36,65.6 C446.853333,62.4 445.6,58.1333333 445.6,52.8 C445.6,49.6 446.346667,46.5066667 447.84,43.52 C449.333333,40.5333333 451.52,37.8933333 454.4,35.6 C457.28,33.3066667 460.853333,31.4666667 465.12,30.08 C469.386667,28.6933333 474.346667,28 480,28 C484.266667,28 488.106667,28.3733333 491.52,29.12 C494.933333,29.8666667 497.946667,30.88 500.56,32.16 C503.173333,33.44 505.44,34.88 507.36,36.48 C509.28,38.08 510.88,39.68 512.16,41.28 C515.253333,45.12 517.333333,49.4933333 518.4,54.4 L496,54.4 C495.36,52.9066667 494.4,51.5733333 493.12,50.4 C491.946667,49.44 490.32,48.5333333 488.24,47.68 C486.16,46.8266667 483.413333,46.4 480,46.4 C475.946667,46.4 473.066667,47.0666667 471.36,48.4 C469.653333,49.7333333 468.8,51.2 468.8,52.8 C468.8,54.9333333 470.053333,56.5333333 472.56,57.6 C475.066667,58.6666667 478.186667,59.6266667 481.92,60.48 C485.653333,61.3333333 489.68,62.24 494,63.2 C498.32,64.16 502.346667,65.6 506.08,67.52 C509.813333,69.44 512.933333,72 515.44,75.2 C517.946667,78.4 519.2,82.6666667 519.2,88 C519.2,91.4133333 518.4,94.6933333 516.8,97.84 C515.2,100.986667 512.853333,103.786667 509.76,106.24 C506.666667,108.693333 502.826667,110.666667 498.24,112.16 C493.653333,113.653333 488.373333,114.4 482.4,114.4 Z" id="Path"></path>
                    <path d="M567.2,114.4 C562.826667,114.4 558.88,114 555.36,113.2 C551.84,112.4 548.72,111.306667 546,109.92 C543.28,108.533333 540.88,106.986667 538.8,105.28 C536.72,103.573333 534.986667,101.813333 533.6,100 C530.186667,95.7333333 527.786667,90.9333333 526.4,85.6 L549.6,85.6 C550.453333,87.6266667 551.626667,89.3866667 553.12,90.88 C554.4,92.16 556.16,93.3333333 558.4,94.4 C560.64,95.4666667 563.573333,96 567.2,96 C572.426667,96 576,95.28 577.92,93.84 C579.84,92.4 580.8,90.4533333 580.8,88 C580.8,85.8666667 579.546667,84.2666667 577.04,83.2 C574.533333,82.1333333 571.413333,81.1733333 567.68,80.32 C563.946667,79.4666667 559.92,78.56 555.6,77.6 C551.28,76.64 547.253333,75.2 543.52,73.28 C539.786667,71.36 536.666667,68.8 534.16,65.6 C531.653333,62.4 530.4,58.1333333 530.4,52.8 C530.4,49.6 531.146667,46.5066667 532.64,43.52 C534.133333,40.5333333 536.32,37.8933333 539.2,35.6 C542.08,33.3066667 545.653333,31.4666667 549.92,30.08 C554.186667,28.6933333 559.146667,28 564.8,28 C569.066667,28 572.906667,28.3733333 576.32,29.12 C579.733333,29.8666667 582.746667,30.88 585.36,32.16 C587.973333,33.44 590.24,34.88 592.16,36.48 C594.08,38.08 595.68,39.68 596.96,41.28 C600.053333,45.12 602.133333,49.4933333 603.2,54.4 L580.8,54.4 C580.16,52.9066667 579.2,51.5733333 577.92,50.4 C576.746667,49.44 575.12,48.5333333 573.04,47.68 C570.96,46.8266667 568.213333,46.4 564.8,46.4 C560.746667,46.4 557.866667,47.0666667 556.16,48.4 C554.453333,49.7333333 553.6,51.2 553.6,52.8 C553.6,54.9333333 554.853333,56.5333333 557.36,57.6 C559.866667,58.6666667 562.986667,59.6266667 566.72,60.48 C570.453333,61.3333333 574.48,62.24 578.8,63.2 C583.12,64.16 587.146667,65.6 590.88,67.52 C594.613333,69.44 597.733333,72 600.24,75.2 C602.746667,78.4 604,82.6666667 604,88 C604,91.4133333 603.2,94.6933333 601.6,97.84 C600,100.986667 597.653333,103.786667 594.56,106.24 C591.466667,108.693333 587.626667,110.666667 583.04,112.16 C578.453333,113.653333 573.173333,114.4 567.2,114.4 Z" id="Path"></path>
                </g>
            </g>
        </g>
    </g>
</svg>