<?xml version="1.0" encoding="UTF-8"?>
<svg width="980px" height="680px" viewBox="0 0 980 680" version="1.1" xmlns="http://www.w3.org/2000/svg" xmlns:xlink="http://www.w3.org/1999/xlink">
    <title>VN Vietnam Post alt</title>
    <defs>
        <rect id="path-1" x="0" y="0" width="900" height="600" rx="80"></rect>
        <filter x="-6.7%" y="-10.0%" width="113.3%" height="120.0%" filterUnits="objectBoundingBox" id="filter-2">
            <feMorphology radius="2.5" operator="dilate" in="SourceAlpha" result="shadowSpreadOuter1"></feMorphology>
            <feOffset dx="0" dy="0" in="shadowSpreadOuter1" result="shadowOffsetOuter1"></feOffset>
            <feGaussianBlur stdDeviation="17.5" in="shadowOffsetOuter1" result="shadowBlurOuter1"></feGaussianBlur>
            <feColorMatrix values="0 0 0 0 0   0 0 0 0 0   0 0 0 0 0  0 0 0 0.5 0" type="matrix" in="shadowBlurOuter1"></feColorMatrix>
        </filter>
    </defs>
    <g id="VN-Vietnam-Post-alt" stroke="none" stroke-width="1" fill="none" fill-rule="evenodd">
        <g transform="translate(40, 40)">
            <g id="Rectangle">
                <use fill="black" fill-opacity="1" filter="url(#filter-2)" xlink:href="#path-1"></use>
                <use fill="#1E376D" fill-rule="evenodd" xlink:href="#path-1"></use>
            </g>
            <g id="Logo" transform="translate(50, 103)" fill="#F7A81B">
                <path d="M485.151016,47.3974074 C484.575597,45.0957347 487.260882,43.7530923 488.795331,42.0268378 C493.398676,36.6562683 498.002021,30.9020866 502.988979,25.147905 C511.620251,14.9821841 517.758045,2.32298444 532.910723,0.596729949 C543.651862,-0.745912436 555.92745,0.596729949 567.244007,0.596729949 C636.102381,0.596729949 702.083664,0.596729949 772.668292,0.596729949 C782.066789,0.596729949 798.562109,-1.70494271 799.904752,7.30994187 C800.671976,12.4887054 796.644049,15.3657962 793.575152,18.8183052 C787.629164,25.7233232 783.793043,31.0938927 777.463443,38.3825228 C775.161771,41.0678076 770.942038,46.6301832 769.023977,47.2056013 C765.187856,48.3564376 757.515614,47.2056013 751.186014,47.2056013 C663.338841,47.3974074 572.614577,47.3974074 485.151016,47.3974074 Z" id="Path"></path>
                <path d="M466.354022,68.3042674 C561.298019,68.3042674 656.242017,68.3042674 751.186014,68.3042674 C752.145044,69.6469098 749.076147,71.5649703 747.541699,73.2912248 C740.061263,82.3061094 732.964439,90.7455758 724.716778,100.527685 C722.2233,103.596581 718.387178,109.926181 715.318282,110.693406 C711.48216,111.844242 703.809918,110.693406 697.480318,110.693406 C610.016757,110.693406 516.990821,110.693406 431.44532,110.693406 C430.869902,108.583539 433.363381,107.240897 434.514217,105.706448 C444.871744,93.8144727 455.804689,80.0044367 466.354022,68.3042674 Z" id="Path"></path>
                <path d="M304.661518,257.233232 C399.221903,258.192262 495.508543,257.425038 590.836152,257.616844 C591.41157,259.918516 587.959061,263.371025 585.849194,265.672698 C561.873438,294.2518 537.514069,322.639096 512.771088,351.601811 C503.948009,361.959338 496.083961,374.426731 486.110046,382.866198 C480.739476,387.469543 471.34098,392.264694 461.175259,393.031919 C442.570071,394.758173 422.814048,393.031919 404.592472,393.031919 C368.149322,393.031919 329.404499,393.031919 291.810512,393.031919 C269.177398,393.031919 239.063847,396.676234 223.527557,388.620379 C214.12906,383.633422 204.538757,375.769374 194.948454,369.056162 C139.132892,329.544114 83.7009424,289.840261 27.3099623,249.177377 C18.8704958,243.23139 4.29323565,235.175535 1.41614483,227.311487 C-4.33803682,211.391584 8.70477492,205.829209 17.9114656,199.307803 C56.6562887,171.687731 91.9486028,146.752944 129.734396,119.516484 C136.063995,114.913139 146.03791,105.898254 154.669183,107.432703 C161.574201,108.775345 168.479219,114.913139 174.808819,119.516484 C212.019193,146.177526 248.078732,171.304119 286.631749,198.348773 C292.577736,202.568506 301.017203,208.130881 303.127069,213.501451 C307.922221,224.818008 302.551651,243.423196 304.661518,257.233232 Z M98.2782026,222.132723 C98.2782026,226.352457 101.922518,227.695099 105.375027,230.188578 C145.462492,258.192262 183.248285,285.620528 222.952138,313.624212 C227.74729,316.884915 236.95398,326.667023 242.516356,325.132575 C248.078732,323.789933 246.544283,309.404479 246.544283,301.156818 C246.544283,277.564673 246.544283,268.166177 246.544283,244.574032 C246.544283,234.791923 248.270538,221.365499 244.818029,217.91299 C242.708162,215.803124 233.885084,216.186736 228.70632,216.186736 C197.250127,216.186736 169.438249,216.186736 139.516504,216.186736 C129.158977,216.186736 111.51282,214.460481 102.881548,216.570348 C98.8536208,217.337572 98.2782026,219.447439 98.2782026,222.132723 Z" id="Shape"></path>
                <path d="M412.840133,131.600266 C507.78413,131.600266 602.728127,131.600266 697.672125,131.600266 C698.055737,133.901938 695.370452,135.052775 694.027809,136.587223 C686.547373,145.602108 679.642355,154.041574 671.202889,163.823683 C668.517604,166.89258 665.065095,173.222179 661.804392,173.989404 C657.968271,175.14024 650.296029,173.989404 643.966429,173.989404 C556.502868,173.989404 463.476931,173.989404 377.931431,173.989404 C377.739625,171.879537 379.849491,170.536895 381.000328,169.002446 C390.974243,157.110471 402.674412,143.492241 412.840133,131.600266 Z" id="Path"></path>
                <path d="M359.901662,194.512652 C454.653853,194.512652 549.406044,194.512652 644.158235,194.512652 C644.925459,196.622518 642.240175,198.348773 641.089338,199.883221 C631.115423,211.967003 619.798866,225.777039 609.057727,237.285402 C514.497342,237.285402 419.745151,237.285402 325.184766,237.285402 C324.417541,235.367341 326.719214,233.257475 327.87005,231.914832 C337.843965,220.022857 349.735941,206.596433 359.901662,194.512652 Z" id="Path"></path>
            </g>
        </g>
    </g>
</svg>