<?xml version="1.0" encoding="UTF-8"?>
<svg width="980px" height="680px" viewBox="0 0 980 680" version="1.1" xmlns="http://www.w3.org/2000/svg" xmlns:xlink="http://www.w3.org/1999/xlink">
    <title>WW 17track</title>
    <defs>
        <rect id="path-1" x="0" y="0" width="900" height="600" rx="80"></rect>
        <filter x="-6.7%" y="-10.0%" width="113.3%" height="120.0%" filterUnits="objectBoundingBox" id="filter-2">
            <feMorphology radius="2.5" operator="dilate" in="SourceAlpha" result="shadowSpreadOuter1"></feMorphology>
            <feOffset dx="0" dy="0" in="shadowSpreadOuter1" result="shadowOffsetOuter1"></feOffset>
            <feGaussianBlur stdDeviation="17.5" in="shadowOffsetOuter1" result="shadowBlurOuter1"></feGaussianBlur>
            <feColorMatrix values="0 0 0 0 0   0 0 0 0 0   0 0 0 0 0  0 0 0 0.5 0" type="matrix" in="shadowBlurOuter1"></feColorMatrix>
        </filter>
    </defs>
    <g id="WW-17track" stroke="none" stroke-width="1" fill="none" fill-rule="evenodd">
        <g transform="translate(40, 40)">
            <g id="Rectangle">
                <use fill="black" fill-opacity="1" filter="url(#filter-2)" xlink:href="#path-1"></use>
                <use fill="#003A9B" fill-rule="evenodd" xlink:href="#path-1"></use>
            </g>
            <g id="Logo" transform="translate(50, 235)" fill-rule="nonzero">
                <polygon id="Path" fill="#FF8C00" points="32.2162162 32.4324324 0 32.4324324 15 0 64.4324324 0 64.4324324 129.72973 32.2162162 129.72973"></polygon>
                <polygon id="Path" fill="#FF8C00" points="150.324324 0 75.1621622 0 75.1621622 32.4324324 135.324324 32.4324324 90.2432432 129.72973 122.459459 129.72973 182.540541 0"></polygon>
                <g id="Group" transform="translate(141.8108, 0)" fill="#FFFFFF">
                    <path d="M277.108108,45.5675676 C277.108108,32.4054054 273.135135,22.1081081 265.351351,14.4864865 C256.324324,5.40540541 242.324324,0 222.054054,0 L172.27027,0 C170.777609,0 169.567568,1.21004122 169.567568,2.7027027 L169.567568,127.027027 C169.567568,128.519689 170.777609,129.72973 172.27027,129.72973 L199.108108,129.72973 C200.60077,129.72973 201.810811,128.519689 201.810811,127.027027 L201.810811,93.0540541 L222.054054,93.0540541 C226.183077,93.0647946 230.308578,92.8120287 234.405405,92.2972973 L244.054054,127.027027 C244.48951,128.533428 245.81481,129.610908 247.378378,129.72973 L274.405405,129.72973 C275.088986,129.794623 275.756166,129.494447 276.161025,128.939845 C276.565884,128.385244 276.648484,127.658324 276.378378,127.027027 L263.324324,80.4054054 C263.972973,79.8108108 264.621622,79.2162162 265.243243,78.5675676 C273,70.9459459 277,60.6486486 277,47.4864865 L277,47.1081081 C277,46.9189189 277,46.7297297 277,46.5405405 C277,46.3513514 277,46.1621622 277,45.972973 L277.108108,45.5675676 Z M202.135135,65.0540541 L202.135135,32.4324324 L225,32.4324324 C237.189189,32.4324324 244.675676,37.8378378 244.675676,47.8918919 L244.675676,49.7297297 C244.675676,59.1621622 237.486486,65.0810811 224.972973,65.0810811 L202.135135,65.0540541 Z" id="Shape"></path>
                    <path d="M410.486486,127.027027 L376.027027,2.7027027 C375.58143,1.16976525 374.215699,0.0858520865 372.621622,0 L326.324324,0 C324.730247,0.0858520865 323.364516,1.16976525 322.918919,2.7027027 L288.432432,127.027027 C288.162327,127.658324 288.244927,128.385244 288.649786,128.939845 C289.054645,129.494447 289.721825,129.794623 290.405405,129.72973 L317.243243,129.72973 C318.837321,129.643878 320.203051,128.559964 320.648649,127.027027 L325.918919,108.108108 L373,108.108108 L378.27027,127.027027 C378.715867,128.559964 380.081598,129.643878 381.675676,129.72973 L408.513514,129.72973 C409.197094,129.794623 409.864274,129.494447 410.269133,128.939845 C410.673992,128.385244 410.756592,127.658324 410.486486,127.027027 L410.486486,127.027027 Z M334.810811,75.6756757 L348.648649,25.6486486 C349.054054,24.2162162 349.702703,24.2162162 350.081081,25.6486486 L364.027027,75.6756757 L334.810811,75.6756757 Z" id="Shape"></path>
                    <path d="M156.189189,0 L60.1351351,0 L45.1351351,32.4324324 L89.0540541,32.4324324 L89.0540541,127.027027 C89.0540541,128.519689 90.2640953,129.72973 91.7567568,129.72973 L118.594595,129.72973 C120.087256,129.72973 121.297297,128.519689 121.297297,127.027027 L121.297297,32.4324324 L156.189189,32.4324324 C157.681851,32.4324324 158.891892,31.2223912 158.891892,29.7297297 L158.891892,2.7027027 C158.891892,1.21004122 157.681851,0 156.189189,0 L156.189189,0 Z" id="Path"></path>
                    <path d="M618.378378,129.72973 L658.189189,129.72973 L611.351351,64.8648649 L658.189189,0 L618.243243,0 L577.702703,56.2432432 L577.702703,2.7027027 C577.702703,1.21004122 576.492661,0 575,0 L548.162162,0 C546.669501,0 545.459459,1.21004122 545.459459,2.7027027 L545.459459,127.027027 C545.459459,128.519689 546.669501,129.72973 548.162162,129.72973 L575,129.72973 C576.492661,129.72973 577.702703,128.519689 577.702703,127.027027 L577.702703,111.513514 L591.486486,92.4054054 L618.378378,129.72973 Z" id="Path"></path>
                    <polygon id="Path" points="0 129.72973 30 129.72973 30 64.972973"></polygon>
                    <path d="M497.108108,-4.80096443e-15 L448.783784,-4.80096443e-15 C430.108108,-4.80096443e-15 416.567568,10.2162162 416.567568,24.3243243 L416.567568,52.6756757 L416.567568,77.2432432 L416.567568,105.405405 C416.567568,119.486486 430.081081,129.72973 448.783784,129.72973 L497.108108,129.72973 C515.783784,129.72973 529.324324,119.486486 529.324324,105.405405 L529.324324,78.3783784 C529.324324,76.8857169 528.114283,75.6756757 526.621622,75.6756757 L499.810811,75.6756757 C498.318149,75.6756757 497.108108,76.8857169 497.108108,78.3783784 L497.108108,97.2972973 L454.162162,97.2972973 C451.176839,97.2972973 448.756757,94.8772149 448.756757,91.8918919 L448.756757,75.4054054 L448.756757,54.3243243 L448.756757,37.8378378 C448.756757,34.8525149 451.176839,32.4324324 454.162162,32.4324324 L497.108108,32.4324324 L497.108108,51.6216216 C497.108108,53.1142831 498.318149,54.3243243 499.810811,54.3243243 L526.648649,54.3243243 C528.14131,54.3243243 529.351351,53.1142831 529.351351,51.6216216 L529.351351,24.3243243 C529.324324,10.2162162 515.783784,-4.80096443e-15 497.108108,-4.80096443e-15 L497.108108,-4.80096443e-15 Z" id="Path"></path>
                    <path d="M491.756757,97.2972973 L497.162162,97.2972973 L497.162162,91.8918919 C497.162162,94.8772149 494.74208,97.2972973 491.756757,97.2972973 Z" id="Path"></path>
                    <path d="M497.108108,32.4324324 L491.702703,32.4324324 C494.688026,32.4324324 497.108108,34.8525149 497.108108,37.8378378 L497.108108,32.4324324 Z" id="Path"></path>
                </g>
            </g>
        </g>
    </g>
</svg>