<?xml version="1.0" encoding="UTF-8"?>
<svg width="980px" height="680px" viewBox="0 0 980 680" version="1.1" xmlns="http://www.w3.org/2000/svg" xmlns:xlink="http://www.w3.org/1999/xlink">
    <title>WW Amazon Logistics</title>
    <defs>
        <linearGradient x1="50%" y1="0%" x2="50%" y2="100%" id="linearGradient-1">
            <stop stop-color="#FFFFFF" offset="0%"></stop>
            <stop stop-color="#EDEDED" offset="100%"></stop>
        </linearGradient>
        <rect id="path-2" x="0" y="0" width="900" height="600" rx="80"></rect>
        <filter x="-6.7%" y="-10.0%" width="113.3%" height="120.0%" filterUnits="objectBoundingBox" id="filter-3">
            <feMorphology radius="2.5" operator="dilate" in="SourceAlpha" result="shadowSpreadOuter1"></feMorphology>
            <feOffset dx="0" dy="0" in="shadowSpreadOuter1" result="shadowOffsetOuter1"></feOffset>
            <feGaussianBlur stdDeviation="17.5" in="shadowOffsetOuter1" result="shadowBlurOuter1"></feGaussianBlur>
            <feColorMatrix values="0 0 0 0 0   0 0 0 0 0   0 0 0 0 0  0 0 0 0.5 0" type="matrix" in="shadowBlurOuter1"></feColorMatrix>
        </filter>
    </defs>
    <g id="WW-Amazon-Logistics" stroke="none" stroke-width="1" fill="none" fill-rule="evenodd">
        <g transform="translate(40, 40)">
            <g id="Rectangle">
                <use fill="black" fill-opacity="1" filter="url(#filter-3)" xlink:href="#path-2"></use>
                <use fill="url(#linearGradient-1)" fill-rule="evenodd" xlink:href="#path-2"></use>
            </g>
            <g id="Logo" transform="translate(50, 179.0002)">
                <path d="M496.304353,188.53437 C449.815001,222.800706 382.431513,241.083034 324.415617,241.083034 C243.067929,241.083034 169.834153,210.995538 114.429969,160.954178 C110.077041,157.019098 113.977249,151.656298 119.200793,154.720746 C178.992713,189.509434 252.923001,210.438354 329.290913,210.438354 C380.794817,210.438354 437.452641,199.782346 489.548585,177.66945 C497.418689,174.32637 504.000329,182.823322 496.304353,188.53437" id="path8" fill="#00A8E1"></path>
                <path d="M515.631393,166.421466 C509.711377,158.829946 476.350481,162.834642 461.376393,164.610642 C456.814497,165.167826 456.118057,161.197938 460.227201,158.342394 C486.797529,139.642186 530.396553,145.039834 535.480777,151.30805 C540.564993,157.611114 534.157489,201.31461 509.189033,222.173858 C505.358449,225.37761 501.701985,223.671282 503.408345,219.422802 C509.014921,205.423754 521.586217,174.04781 515.631393,166.421466" id="path10" fill="#00A8E1"></path>
                <path d="M462.421097,26.3265551 L462.421097,8.14869752 C462.421097,5.3976432 464.510505,3.55200001 467.017801,3.55200001 L548.400273,3.55200001 C551.012049,3.55200001 553.101457,5.4324712 553.101457,8.14869752 L553.101457,23.7147983 C553.066657,26.3265551 550.872753,29.7392567 546.972505,35.1368959 L504.801273,95.3467141 C520.471857,94.9636821 537.013017,97.2968261 551.221001,105.306234 C554.424753,107.11705 555.295345,109.763634 555.539105,112.375418 L555.539105,131.772106 C555.539105,134.418682 552.613929,137.517946 549.549465,135.916082 C524.511369,122.787618 491.254937,121.359858 463.570265,136.055386 C460.749569,137.587626 457.789577,134.523162 457.789577,131.876562 L457.789577,113.454946 C457.789577,110.494954 457.824377,105.445522 460.784369,100.953298 L509.641737,30.8884367 L467.122265,30.8884367 C464.510505,30.8884367 462.421097,29.0428087 462.421097,26.3265551" id="path12" fill="#000000"></path>
                <path d="M165.550849,139.746658 L140.791353,139.746658 C138.423369,139.572562 136.542897,137.796562 136.368769,135.53301 L136.368769,8.46213352 C136.368769,5.9200184 138.493009,3.90024001 141.139585,3.90024001 L164.227553,3.90024001 C166.630401,4.00464001 168.545665,5.8503496 168.719801,8.14869752 L168.719801,24.7595231 L169.172505,24.7595231 C175.196961,8.70587432 186.514585,1.21882401 201.767281,1.21882401 C217.263729,1.21882401 226.944665,8.70587432 233.909361,24.7595231 C239.899001,8.70587432 253.514977,1.21882401 268.106033,1.21882401 C278.483433,1.21882401 289.835889,5.5021128 296.765769,15.1133967 C304.601049,25.8042063 302.999161,41.3354798 302.999161,54.9514814 L302.964361,135.149978 C302.964361,137.692082 300.840121,139.746658 298.193545,139.746658 L273.468849,139.746658 C270.996401,139.572562 269.011465,137.587626 269.011465,135.149978 L269.011465,67.8013414 C269.011465,62.4385294 269.498961,49.0663078 268.314985,43.9820638 C266.469345,35.4503327 260.932417,33.0474879 253.758753,33.0474879 C247.769113,33.0474879 241.500897,37.0521919 238.958777,43.4597286 C236.416657,49.867251 236.660425,60.5928622 236.660425,67.8013414 L236.660425,135.149978 C236.660425,137.692082 234.536193,139.746658 231.889601,139.746658 L207.164945,139.746658 C204.657649,139.572562 202.707529,137.587626 202.707529,135.149978 L202.672729,67.8013414 C202.672729,53.6281886 205.005873,32.7689055 187.420041,32.7689055 C169.625217,32.7689055 170.321689,53.1058142 170.321689,67.8013414 L170.321689,135.149978 C170.321689,137.692082 168.197449,139.746658 165.550873,139.746658" id="path14" fill="#000000"></path>
                <path d="M623.16632,1.21882401 C659.905104,1.21882401 679.789296,32.7689055 679.789296,72.8855718 C679.789296,111.644106 657.815656,142.393242 623.16632,142.393242 C587.089176,142.393242 567.44872,110.843162 567.44872,71.5274518 C567.44872,31.9679615 587.332936,1.21882401 623.16632,1.21882401 M623.375248,27.1623399 C605.127752,27.1623399 603.978414,52.0262878 603.978414,67.5227598 C603.978414,83.0540342 603.7348,116.205986 623.16632,116.205986 C642.354056,116.205986 643.25948,89.4615701 643.25948,73.1641406 C643.25948,62.4385294 642.806768,49.6234838 639.568168,39.4550095 C636.782288,30.6098687 631.245376,27.1623399 623.375248,27.1623399" id="path16" fill="#000000"></path>
                <path d="M727.42784,139.746658 L702.772816,139.746658 C700.300336,139.572562 698.3154,137.587626 698.3154,135.149978 L698.2806,8.04422792 C698.489544,5.7110528 700.544144,3.90024001 703.051424,3.90024001 L726.00012,3.90024001 C728.159152,4.00464001 729.935152,5.4672984 730.422704,7.4522376 L730.422704,26.8837311 L730.875384,26.8837311 C737.80528,9.50681832 747.521,1.21882401 764.619336,1.21882401 C775.728032,1.21882401 786.558144,5.2235312 793.52284,16.1929231 C800,26.3613823 800,43.4597286 800,55.7523982 L800,135.741978 C799.721424,137.970658 797.666824,139.746658 795.229208,139.746658 L770.400048,139.746658 C768.136504,139.572562 766.256032,137.901034 766.012296,135.741978 L766.012296,66.7218174 C766.012296,52.8272454 767.614168,32.4903103 750.515824,32.4903103 C744.491376,32.4903103 738.954432,36.5298567 736.203376,42.658771 C732.72104,50.4244286 732.268328,58.155243 732.268328,66.7218174 L732.268328,135.149978 C732.233528,137.692082 730.074456,139.746658 727.42788,139.746658" id="path18" fill="#000000"></path>
                <path d="M397.544929,79.049327 C397.544929,88.6954261 397.788689,96.7396501 392.913401,105.306234 C388.978353,112.270954 382.710129,116.554234 375.780265,116.554234 C366.273449,116.554234 360.701689,109.31093 360.701689,98.6201221 C360.701689,77.5170958 379.610833,73.6865166 397.544929,73.6865166 L397.544929,79.049327 M422.513377,139.398426 C420.876689,140.86101 418.508665,140.965474 416.663033,139.990434 C408.444673,133.165034 406.947273,129.996106 402.455049,123.484114 C388.873881,137.34385 379.227761,141.487834 361.641905,141.487834 C340.782633,141.487834 324.589729,128.637962 324.589729,102.903434 C324.589729,82.8102662 335.454673,69.124635 350.985945,62.4385294 C364.427801,56.5185158 383.197633,55.4738302 397.544929,53.8371286 L397.544929,50.6333678 C397.544929,44.7481798 397.997641,37.7834807 394.515289,32.6992775 C391.520473,28.1373823 385.739753,26.2569135 380.620713,26.2569135 C371.183537,26.2569135 362.791097,31.0973767 360.736497,41.1265398 C360.318617,43.3552582 358.681929,45.5491374 356.418377,45.653607 L332.425009,43.076651 C330.405233,42.6239702 328.141721,40.9872422 328.733721,37.8879767 C334.235833,8.77554312 360.562401,0 384.103057,0 C396.151993,0 411.892201,3.20376801 421.399017,12.3275151 C433.447929,23.5755007 432.298769,38.5844247 432.298769,54.9166542 L432.298769,93.5010741 C432.298769,105.097314 437.104409,110.181514 441.631457,116.44977 C443.198537,118.67845 443.546769,121.359858 441.526889,123.031386 C436.477489,127.24505 427.493017,135.08033 422.548089,139.468082 L422.513289,139.398322" id="path28" fill="#000000"></path>
                <path d="M72.955212,79.049327 C72.955212,88.6954261 73.198952,96.7396501 68.3236872,105.306234 C64.3886112,112.270954 58.1552128,116.554234 51.1905136,116.554234 C41.6836992,116.554234 36.1467752,109.31093 36.1467752,98.6201221 C36.1467752,77.5170958 55.0559216,73.6865166 72.955212,73.6865166 L72.955212,79.049327 M97.9236415,139.398426 C96.2869455,140.86101 93.9189215,140.965474 92.0732815,139.990434 C83.8549615,133.165034 82.3923535,129.996106 77.8653039,123.484114 C64.2841408,137.34385 54.6728832,141.487834 37.0521752,141.487834 C16.2277201,141.487834 1.13686837e-14,128.637962 1.13686837e-14,102.903434 C1.13686837e-14,82.8102662 10.8997489,69.124635 26.3961945,62.4385294 C39.8380576,56.5185158 58.6079192,55.4738302 72.955212,53.8371286 L72.955212,50.6333678 C72.955212,44.7481798 73.4079192,37.7834807 69.9603904,32.6992775 C66.9307264,28.1373823 61.150048,26.2569135 56.065804,26.2569135 C46.6286592,26.2569135 38.2013568,31.0973767 36.1467752,41.1265398 C35.728884,43.3552582 34.0921816,45.5491374 31.8634896,45.653607 L7.83528506,43.076651 C5.81551858,42.6239702 3.58681275,40.9872422 4.14398922,37.8879767 C9.68092649,8.77554312 35.9726504,0 59.5133464,0 C71.5622512,0 87.3024655,3.20376801 96.8092815,12.3275151 C108.858217,23.5755007 107.709025,38.5844247 107.709025,54.9166542 L107.709025,93.5010741 C107.709025,105.097314 112.514689,110.181514 117.041745,116.44977 C118.643617,118.67845 118.991849,121.359858 116.972065,123.031386 C111.922665,127.24505 102.938217,135.08033 97.9932575,139.468082 L97.9236575,139.398322" id="path30" fill="#000000"></path>
            </g>
        </g>
    </g>
</svg>