<?xml version="1.0" encoding="UTF-8"?>
<svg width="980px" height="680px" viewBox="0 0 980 680" version="1.1" xmlns="http://www.w3.org/2000/svg" xmlns:xlink="http://www.w3.org/1999/xlink">
    <title>WW EMS</title>
    <defs>
        <linearGradient x1="50%" y1="0%" x2="50%" y2="100%" id="linearGradient-1">
            <stop stop-color="#FFFFFF" offset="0%"></stop>
            <stop stop-color="#EDEDED" offset="100%"></stop>
        </linearGradient>
        <rect id="path-2" x="0" y="0" width="900" height="600" rx="80"></rect>
        <filter x="-6.7%" y="-10.0%" width="113.3%" height="120.0%" filterUnits="objectBoundingBox" id="filter-3">
            <feMorphology radius="2.5" operator="dilate" in="SourceAlpha" result="shadowSpreadOuter1"></feMorphology>
            <feOffset dx="0" dy="0" in="shadowSpreadOuter1" result="shadowOffsetOuter1"></feOffset>
            <feGaussianBlur stdDeviation="17.5" in="shadowOffsetOuter1" result="shadowBlurOuter1"></feGaussianBlur>
            <feColorMatrix values="0 0 0 0 0   0 0 0 0 0   0 0 0 0 0  0 0 0 0.5 0" type="matrix" in="shadowBlurOuter1"></feColorMatrix>
        </filter>
    </defs>
    <g id="WW-EMS" stroke="none" stroke-width="1" fill="none" fill-rule="evenodd">
        <g transform="translate(40, 40)">
            <g id="Rectangle">
                <use fill="black" fill-opacity="1" filter="url(#filter-3)" xlink:href="#path-2"></use>
                <use fill="url(#linearGradient-1)" fill-rule="evenodd" xlink:href="#path-2"></use>
            </g>
            <g id="Logo" transform="translate(50, 185)" fill-rule="nonzero">
                <path d="M0,0 L21.6402878,25.323741 L250.935252,25.323741 L257.841727,0 L0,0 Z M34.5323741,40.5179856 L56.1726619,65.8417266 L240.115108,65.8417266 L247.021583,40.5179856 L34.5323741,40.5179856 Z M68.8345324,81.0359712 L90.4748201,106.359712 L229.064748,106.359712 L235.971223,81.0359712 L68.8345324,81.0359712 Z M103.366906,121.323741 L125.007194,146.647482 L218.244604,146.647482 L225.151079,121.323741 L103.366906,121.323741 Z M137.899281,161.841727 L159.539568,187.165468 L207.42446,187.165468 L214.330935,161.841727 L137.899281,161.841727 Z M172.431655,202.359712 L195.913669,229.985612 L203.280576,202.359712 L172.431655,202.359712 Z" id="Shape" fill="#FF8400"></path>
                <path d="M393.899281,58.2446043 C397.352518,44.8920863 405.410072,15.6546763 409.553957,0 L293.064748,0 L231.827338,227.683453 L348.316547,227.683453 C353.611511,207.884892 359.136691,186.935252 363.971223,169.438849 L310.791367,169.438849 L318.158273,141.582734 L371.338129,141.582734 C377.784173,117.179856 383.079137,97.6115108 386.302158,86.1007194 L333.122302,86.1007194 L340.489209,58.2446043 L393.899281,58.2446043 L393.899281,58.2446043 Z M789.179856,68.3741007 L800,27.8561151 L767.539568,0 L702.158273,0 L660.489209,27.8561151 L637.007194,115.107914 L662.330935,139.05036 L711.597122,139.05036 L702.848921,171.971223 L680.057554,171.971223 L683.510791,159.309353 L625.266187,159.309353 L614.446043,198.906475 L646.906475,227.683453 L714.589928,227.683453 L756.258993,199.827338 L779.510791,113.266187 L747.741007,85.8705036 L705.841727,85.8705036 L713.899281,55.4820144 L734.158273,55.4820144 L730.705036,68.1438849 L789.179856,68.3741007 L789.179856,68.3741007 Z M642.76259,0 L581.52518,227.683453 L523.280576,227.683453 L558.733813,95.5395683 C543.769784,124.776978 507.165468,197.52518 491.741007,227.683453 L466.877698,227.683453 L471.942446,97.8417266 L437.179856,227.683453 L378.935252,227.683453 L439.942446,0 L515.453237,0 L514.992806,95.7697842 L566.561151,0 L642.76259,0 Z" id="Shape" fill="#0033A1"></path>
            </g>
        </g>
    </g>
</svg>