<?xml version="1.0" encoding="UTF-8"?>
<svg width="980px" height="680px" viewBox="0 0 980 680" version="1.1" xmlns="http://www.w3.org/2000/svg" xmlns:xlink="http://www.w3.org/1999/xlink">
    <title>WW EMS alt2</title>
    <defs>
        <linearGradient x1="50%" y1="0%" x2="50%" y2="100%" id="linearGradient-1">
            <stop stop-color="#FFFFFF" offset="0%"></stop>
            <stop stop-color="#EDEDED" offset="100%"></stop>
        </linearGradient>
        <rect id="path-2" x="0" y="0" width="900" height="600" rx="80"></rect>
        <filter x="-6.7%" y="-10.0%" width="113.3%" height="120.0%" filterUnits="objectBoundingBox" id="filter-3">
            <feMorphology radius="2.5" operator="dilate" in="SourceAlpha" result="shadowSpreadOuter1"></feMorphology>
            <feOffset dx="0" dy="0" in="shadowSpreadOuter1" result="shadowOffsetOuter1"></feOffset>
            <feGaussianBlur stdDeviation="17.5" in="shadowOffsetOuter1" result="shadowBlurOuter1"></feGaussianBlur>
            <feColorMatrix values="0 0 0 0 0   0 0 0 0 0   0 0 0 0 0  0 0 0 0.5 0" type="matrix" in="shadowBlurOuter1"></feColorMatrix>
        </filter>
    </defs>
    <g id="WW-EMS-alt2" stroke="none" stroke-width="1" fill="none" fill-rule="evenodd">
        <g transform="translate(40, 40)">
            <g id="Rectangle">
                <use fill="black" fill-opacity="1" filter="url(#filter-3)" xlink:href="#path-2"></use>
                <use fill="url(#linearGradient-1)" fill-rule="evenodd" xlink:href="#path-2"></use>
            </g>
            <g id="Logo" transform="translate(50, 214)" fill-rule="nonzero">
                <path d="M623.50349,5.32907052e-15 L623.365488,18.86388 L800.365488,18.86388 L800.365488,5.32907052e-15 L623.50349,5.32907052e-15 Z M615.449524,30.0107181 L615.305466,48.8745981 L800.305466,48.8745981 L800.305466,30.0107181 L615.449524,30.0107181 Z M607.229224,60.0214362 L607.073955,78.8853162 L800.073955,78.8853162 L800.073955,60.0214362 L607.229224,60.0214362 Z M0,0 L16.1200429,18.86388 L186.923901,18.86388 L192.068596,0 L0,0 Z M25.7234727,30.1822079 L41.8435155,49.0460879 L178.86388,49.0460879 L184.008574,30.1822079 L25.7234727,30.1822079 Z M51.2754555,60.3644159 L67.3954984,79.2282958 L170.632369,79.2282958 L175.777063,60.3644159 L51.2754555,60.3644159 Z M76.9989282,90.375134 L93.1189711,109.239014 L162.572347,109.239014 L167.717042,90.375134 L76.9989282,90.375134 Z M102.722401,120.557342 L118.842444,139.421222 L154.512326,139.421222 L159.65702,120.557342 L102.722401,120.557342 Z M128.445874,150.73955 L145.937835,171.318328 L151.425509,150.73955 L128.445874,150.73955 Z" id="Shape" fill="#FF8400"></path>
                <path d="M293.419078,43.3869239 C295.991426,33.4405145 301.993569,11.6613076 305.080386,0 L218.306538,0 L172.690247,169.60343 L259.464094,169.60343 C263.40836,154.855305 267.524116,139.249732 271.125402,126.216506 L231.511254,126.216506 L236.998928,105.466238 L276.613076,105.466238 C281.414791,87.2883173 285.359057,72.7116827 287.759914,64.1371919 L248.145766,64.1371919 L253.633441,43.3869239 L293.419078,43.3869239 L293.419078,43.3869239 Z M587.867095,50.9324759 L595.927117,20.750268 L571.747053,0 L523.043944,0 L492.004287,20.750268 L474.512326,85.7449089 L493.376206,103.57985 L530.075027,103.57985 L523.558414,128.102894 L506.580922,128.102894 L509.153269,118.670954 L465.766345,118.670954 L457.706324,148.167203 L481.886388,169.60343 L532.304394,169.60343 L563.344051,148.853162 L580.664523,84.3729904 L556.998928,63.965702 L525.787781,63.965702 L531.789925,41.3290461 L546.881029,41.3290461 L544.308682,50.7609861 L587.867095,50.9324759 L587.867095,50.9324759 Z M478.799571,0 L433.18328,169.60343 L389.796356,169.60343 L416.205788,71.1682744 C405.05895,92.9474812 377.792069,147.138264 366.302251,169.60343 L347.78135,169.60343 L351.554126,72.8831726 L325.659164,169.60343 L282.27224,169.60343 L327.717042,0 L383.965702,0 L383.622722,71.3397642 L422.036442,0 L478.799571,0 Z" id="Shape" fill="#0033A1"></path>
            </g>
        </g>
    </g>
</svg>