<?xml version="1.0" encoding="UTF-8"?>
<svg width="980px" height="680px" viewBox="0 0 980 680" version="1.1" xmlns="http://www.w3.org/2000/svg" xmlns:xlink="http://www.w3.org/1999/xlink">
    <title>WW Pickup text alt</title>
    <defs>
        <linearGradient x1="50%" y1="0%" x2="50%" y2="100%" id="linearGradient-1">
            <stop stop-color="#FFFFFF" offset="0%"></stop>
            <stop stop-color="#EDEDED" offset="100%"></stop>
        </linearGradient>
        <rect id="path-2" x="0" y="0" width="900" height="600" rx="80"></rect>
        <filter x="-6.7%" y="-10.0%" width="113.3%" height="120.0%" filterUnits="objectBoundingBox" id="filter-4">
            <feMorphology radius="2.5" operator="dilate" in="SourceAlpha" result="shadowSpreadOuter1"></feMorphology>
            <feOffset dx="0" dy="0" in="shadowSpreadOuter1" result="shadowOffsetOuter1"></feOffset>
            <feGaussianBlur stdDeviation="17.5" in="shadowOffsetOuter1" result="shadowBlurOuter1"></feGaussianBlur>
            <feColorMatrix values="0 0 0 0 0   0 0 0 0 0   0 0 0 0 0  0 0 0 0.5 0" type="matrix" in="shadowBlurOuter1"></feColorMatrix>
        </filter>
    </defs>
    <g id="WW-Pickup-text-alt" stroke="none" stroke-width="1" fill="none" fill-rule="evenodd">
        <g transform="translate(40, 40)">
            <mask id="mask-3" fill="white">
                <use xlink:href="#path-2"></use>
            </mask>
            <g id="Rectangle">
                <use fill="black" fill-opacity="1" filter="url(#filter-4)" xlink:href="#path-2"></use>
                <use fill="url(#linearGradient-1)" fill-rule="evenodd" xlink:href="#path-2"></use>
            </g>
            <g id="Logo" mask="url(#mask-3)">
                <g transform="translate(0, 20)">
                    <rect id="Rectangle" stroke="#979797" fill="#FF6600" x="0" y="422" width="900" height="158"></rect>
                    <g id="shopping-basket" stroke="none" fill="none">
                        <g id="Abholung" transform="translate(215, 461.9993)" fill="#FFFFFF" fill-rule="nonzero">
                            <path d="M18.5,0 L50,0 L68.5,70 L53,70 L49,54.5 L19.5,54.5 L15.5,70 L0,70 L18.5,0 Z M45.5,40.5 L38.5,14 L30,14 L23,40.5 L45.5,40.5 Z" id="Shape"></path>
                            <path d="M105,71.5 C102.2,71.5 99.8166667,71.0833333 97.85,70.25 C95.8833333,69.4166667 94.2333333,68.5 92.9,67.5 C91.3666667,66.3 90.0666667,64.9666667 89,63.5 L88.5,63.5 L88.5,70 L74.5,70 L74.5,0 L88.5,0 L88.5,25.5 L89,25.5 C90.0666667,24.0333333 91.3666667,22.7 92.9,21.5 C94.2333333,20.5 95.8833333,19.5833333 97.85,18.75 C99.8166667,17.9166667 102.2,17.5 105,17.5 C108.266667,17.5 111.316667,18.1333333 114.15,19.4 C116.983333,20.6666667 119.466667,22.4666667 121.6,24.8 C123.733333,27.1333333 125.416667,29.9666667 126.65,33.3 C127.883333,36.6333333 128.5,40.3666667 128.5,44.5 C128.5,48.6333333 127.883333,52.3666667 126.65,55.7 C125.416667,59.0333333 123.733333,61.8666667 121.6,64.2 C119.466667,66.5333333 116.983333,68.3333333 114.15,69.6 C111.316667,70.8666667 108.266667,71.5 105,71.5 Z M101.5,59.5 C105.033333,59.5 108,58.2 110.4,55.6 C112.8,53 114,49.3 114,44.5 C114,39.7 112.8,36 110.4,33.4 C108,30.8 105.033333,29.5 101.5,29.5 C97.7,29.5 94.5833333,30.8 92.15,33.4 C89.7166667,36 88.5,39.7 88.5,44.5 C88.5,49.3 89.7166667,53 92.15,55.6 C94.5833333,58.2 97.7,59.5 101.5,59.5 Z" id="Shape"></path>
                            <path d="M137,0 L151,0 L151,26 L151.5,26 C152.433333,24.4 153.666667,23 155.2,21.8 C156.533333,20.7333333 158.183333,19.75 160.15,18.85 C162.116667,17.95 164.566667,17.5 167.5,17.5 C173.766667,17.5 178.666667,19.3166667 182.2,22.95 C185.733333,26.5833333 187.5,31.9333333 187.5,39 L187.5,70 L173.5,70 L173.5,41 C173.5,37.2 172.566667,34.3333333 170.7,32.4 C168.833333,30.4666667 166.266667,29.5 163,29.5 C161.4,29.5 159.866667,29.8333333 158.4,30.5 C156.933333,31.1666667 155.65,32.0833333 154.55,33.25 C153.45,34.4166667 152.583333,35.8333333 151.95,37.5 C151.316667,39.1666667 151,41 151,43 L151,70 L137,70 L137,0 Z" id="Path"></path>
                            <path d="M223,71.5 C219,71.5 215.283333,70.8 211.85,69.4 C208.416667,68 205.45,66.0833333 202.95,63.65 C200.45,61.2166667 198.5,58.35 197.1,55.05 C195.7,51.75 195,48.2333333 195,44.5 C195,40.7666667 195.7,37.25 197.1,33.95 C198.5,30.65 200.45,27.7833333 202.95,25.35 C205.45,22.9166667 208.416667,21 211.85,19.6 C215.283333,18.2 219,17.5 223,17.5 C227,17.5 230.7,18.2 234.1,19.6 C237.5,21 240.45,22.9166667 242.95,25.35 C245.45,27.7833333 247.416667,30.65 248.85,33.95 C250.283333,37.25 251,40.7666667 251,44.5 C251,48.2333333 250.283333,51.75 248.85,55.05 C247.416667,58.35 245.45,61.2166667 242.95,63.65 C240.45,66.0833333 237.5,68 234.1,69.4 C230.7,70.8 227,71.5 223,71.5 Z M223,59.5 C224.866667,59.5 226.616667,59.1333333 228.25,58.4 C229.883333,57.6666667 231.316667,56.65 232.55,55.35 C233.783333,54.05 234.75,52.4833333 235.45,50.65 C236.15,48.8166667 236.5,46.7666667 236.5,44.5 C236.5,42.2333333 236.15,40.1833333 235.45,38.35 C234.75,36.5166667 233.783333,34.95 232.55,33.65 C231.316667,32.35 229.883333,31.3333333 228.25,30.6 C226.616667,29.8666667 224.866667,29.5 223,29.5 C221.133333,29.5 219.383333,29.8666667 217.75,30.6 C216.116667,31.3333333 214.683333,32.35 213.45,33.65 C212.216667,34.95 211.25,36.5166667 210.55,38.35 C209.85,40.1833333 209.5,42.2333333 209.5,44.5 C209.5,46.7666667 209.85,48.8166667 210.55,50.65 C211.25,52.4833333 212.216667,54.05 213.45,55.35 C214.683333,56.65 216.116667,57.6666667 217.75,58.4 C219.383333,59.1333333 221.133333,59.5 223,59.5 Z" id="Shape"></path>
                            <polygon id="Path" points="259 0 273 0 273 58 284.5 58 284.5 70 259 70"></polygon>
                            <path d="M311,71.5 C304.733333,71.5 299.833333,69.6833333 296.3,66.05 C292.766667,62.4166667 291,57.0666667 291,50 L291,19 L305,19 L305,48 C305,51.8 305.933333,54.6666667 307.8,56.6 C309.666667,58.5333333 312.233333,59.5 315.5,59.5 C317.1,59.5 318.633333,59.1666667 320.1,58.5 C321.566667,57.8333333 322.85,56.9166667 323.95,55.75 C325.05,54.5833333 325.916667,53.1666667 326.55,51.5 C327.183333,49.8333333 327.5,48 327.5,46 L327.5,19 L341.5,19 L341.5,70 L327.5,70 L327.5,63 L327,63 C326.066667,64.6666667 324.833333,66.1 323.3,67.3 C321.966667,68.3666667 320.3,69.3333333 318.3,70.2 C316.3,71.0666667 313.866667,71.5 311,71.5 Z" id="Path"></path>
                            <path d="M352.5,19 L366.5,19 L366.5,26 L367,26 C367.933333,24.4 369.166667,23 370.7,21.8 C372.033333,20.7333333 373.683333,19.75 375.65,18.85 C377.616667,17.95 380.066667,17.5 383,17.5 C389.266667,17.5 394.166667,19.3166667 397.7,22.95 C401.233333,26.5833333 403,31.9333333 403,39 L403,70 L389,70 L389,41 C389,37.2 388.066667,34.3333333 386.2,32.4 C384.333333,30.4666667 381.766667,29.5 378.5,29.5 C376.9,29.5 375.366667,29.8333333 373.9,30.5 C372.433333,31.1666667 371.15,32.0833333 370.05,33.25 C368.95,34.4166667 368.083333,35.8333333 367.45,37.5 C366.816667,39.1666667 366.5,41 366.5,43 L366.5,70 L352.5,70 L352.5,19 Z" id="Path"></path>
                            <path d="M418.5,77 L451,77 L451,62.4 L450.5,62.4 C449.433333,63.9333333 448.133333,65.3 446.6,66.5 C445.266667,67.5 443.616667,68.4166667 441.65,69.25 C439.683333,70.0833333 437.3,70.5 434.5,70.5 C431.233333,70.5 428.183333,69.8666667 425.35,68.6 C422.516667,67.3333333 420.033333,65.5333333 417.9,63.2 C415.766667,60.8666667 414.083333,58.0833333 412.85,54.85 C411.616667,51.6166667 411,48 411,44 C411,40 411.616667,36.3833333 412.85,33.15 C414.083333,29.9166667 415.766667,27.1333333 417.9,24.8 C420.033333,22.4666667 422.516667,20.6666667 425.35,19.4 C428.183333,18.1333333 431.233333,17.5 434.5,17.5 C437.3,17.5 439.683333,17.9333333 441.65,18.8 C443.616667,19.6666667 445.266667,20.6 446.6,21.6 C448.133333,22.8 449.433333,24.1333333 450.5,25.6 L451,25.6 L451,19 L465,19 L465,89 L418.5,89 L418.5,77 Z M438.5,58.5 C442.033333,58.5 445,57.2166667 447.4,54.65 C449.8,52.0833333 451,48.5333333 451,44 C451,39.4666667 449.8,35.9166667 447.4,33.35 C445,30.7833333 442.033333,29.5 438.5,29.5 C434.7,29.5 431.583333,30.7833333 429.15,33.35 C426.716667,35.9166667 425.5,39.4666667 425.5,44 C425.5,48.5333333 426.716667,52.0833333 429.15,54.65 C431.583333,57.2166667 434.7,58.5 438.5,58.5 Z" id="Shape"></path>
                        </g>
                        <path d="M557.600559,147.279979 L463.971024,6.83567606 C457.900322,-2.27855869 442.813563,-2.27855869 436.742861,6.83567606 L343.113326,147.279979 L254,147.279979 L319.452314,360 L581.261571,360 L646.713885,147.279979 L557.600559,147.279979 Z M450.356942,45.4198152 L518.263718,147.279979 L382.450166,147.279979 L450.356942,45.4198152 Z M384.904628,294.547686 C384.904628,303.547379 377.541243,310.910764 368.54155,310.910764 C359.541857,310.910764 352.178471,303.547379 352.178471,294.547686 L352.178471,212.732293 C352.178471,203.7326 359.541857,196.369215 368.54155,196.369215 C377.541243,196.369215 384.904628,203.7326 384.904628,212.732293 L384.904628,294.547686 Z M466.720021,294.547686 C466.720021,303.547379 459.356636,310.910764 450.356942,310.910764 C441.357249,310.910764 433.993864,303.547379 433.993864,294.547686 L433.993864,212.732293 C433.993864,203.7326 441.357249,196.369215 450.356942,196.369215 C459.356636,196.369215 466.720021,203.7326 466.720021,212.732293 L466.720021,294.547686 Z M548.535414,294.547686 C548.535414,303.547379 541.172028,310.910764 532.172335,310.910764 C523.172642,310.910764 515.809257,303.547379 515.809257,294.547686 L515.809257,212.732293 C515.809257,203.7326 523.172642,196.369215 532.172335,196.369215 C541.172028,196.369215 548.535414,203.7326 548.535414,212.732293 L548.535414,294.547686 Z" id="Shape" fill="#FF6600" fill-rule="nonzero"></path>
                    </g>
                </g>
            </g>
        </g>
    </g>
</svg>