<?xml version="1.0" encoding="UTF-8"?>
<svg width="980px" height="680px" viewBox="0 0 980 680" version="1.1" xmlns="http://www.w3.org/2000/svg" xmlns:xlink="http://www.w3.org/1999/xlink">
    <title>WW Pickup</title>
    <defs>
        <linearGradient x1="50%" y1="0%" x2="50%" y2="100%" id="linearGradient-1">
            <stop stop-color="#FFFFFF" offset="0%"></stop>
            <stop stop-color="#EDEDED" offset="100%"></stop>
        </linearGradient>
        <rect id="path-2" x="0" y="0" width="900" height="600" rx="80"></rect>
        <filter x="-6.7%" y="-10.0%" width="113.3%" height="120.0%" filterUnits="objectBoundingBox" id="filter-4">
            <feMorphology radius="2.5" operator="dilate" in="SourceAlpha" result="shadowSpreadOuter1"></feMorphology>
            <feOffset dx="0" dy="0" in="shadowSpreadOuter1" result="shadowOffsetOuter1"></feOffset>
            <feGaussianBlur stdDeviation="17.5" in="shadowOffsetOuter1" result="shadowBlurOuter1"></feGaussianBlur>
            <feColorMatrix values="0 0 0 0 0   0 0 0 0 0   0 0 0 0 0  0 0 0 0.5 0" type="matrix" in="shadowBlurOuter1"></feColorMatrix>
        </filter>
    </defs>
    <g id="WW-Pickup" stroke="none" stroke-width="1" fill="none" fill-rule="evenodd">
        <g transform="translate(40, 40)">
            <mask id="mask-3" fill="white">
                <use xlink:href="#path-2"></use>
            </mask>
            <g id="Rectangle">
                <use fill="black" fill-opacity="1" filter="url(#filter-4)" xlink:href="#path-2"></use>
                <use fill="url(#linearGradient-1)" fill-rule="evenodd" xlink:href="#path-2"></use>
            </g>
            <g id="Logo" mask="url(#mask-3)" fill="#FF6600" fill-rule="nonzero">
                <g transform="translate(0, 50)" id="Shape">
                    <path d="M658.333333,166.666667 L554.166667,166.666667 L554.166667,125 L616.666667,125 C639.583333,125 658.333333,106.25 658.333333,83.3333333 L658.333333,41.6666667 C658.333333,18.75 639.583333,0 616.666667,0 L450,0 C427.083333,0 408.333333,18.75 408.333333,41.6666667 L408.333333,83.3333333 C408.333333,106.25 427.083333,125 450,125 L512.5,125 L512.5,166.666667 L241.666667,166.666667 L200,375 L700,375 L658.333333,166.666667 Z M325,333.333333 C313.5,333.333333 304.166667,324 304.166667,312.5 C304.166667,301 313.5,291.666667 325,291.666667 C336.5,291.666667 345.833333,301 345.833333,312.5 C345.833333,324 336.5,333.333333 325,333.333333 Z M325,250 C313.5,250 304.166667,240.666667 304.166667,229.166667 C304.166667,217.666667 313.5,208.333333 325,208.333333 C336.5,208.333333 345.833333,217.666667 345.833333,229.166667 C345.833333,240.666667 336.5,250 325,250 Z M408.333333,333.333333 C396.833333,333.333333 387.5,324 387.5,312.5 C387.5,301 396.833333,291.666667 408.333333,291.666667 C419.833333,291.666667 429.166667,301 429.166667,312.5 C429.166667,324 419.833333,333.333333 408.333333,333.333333 Z M408.333333,250 C396.833333,250 387.5,240.666667 387.5,229.166667 C387.5,217.666667 396.833333,208.333333 408.333333,208.333333 C419.833333,208.333333 429.166667,217.666667 429.166667,229.166667 C429.166667,240.666667 419.833333,250 408.333333,250 Z M491.666667,333.333333 C480.166667,333.333333 470.833333,324 470.833333,312.5 C470.833333,301 480.166667,291.666667 491.666667,291.666667 C503.166667,291.666667 512.5,301 512.5,312.5 C512.5,324 503.166667,333.333333 491.666667,333.333333 Z M491.666667,250 C480.166667,250 470.833333,240.666667 470.833333,229.166667 C470.833333,217.666667 480.166667,208.333333 491.666667,208.333333 C503.166667,208.333333 512.5,217.666667 512.5,229.166667 C512.5,240.666667 503.166667,250 491.666667,250 Z M450,83.3333333 L450,41.6666667 L616.666667,41.6666667 L616.666667,83.3333333 L450,83.3333333 Z M575,333.333333 C563.5,333.333333 554.166667,324 554.166667,312.5 C554.166667,301 563.5,291.666667 575,291.666667 C586.5,291.666667 595.833333,301 595.833333,312.5 C595.833333,324 586.5,333.333333 575,333.333333 Z M575,250 C563.5,250 554.166667,240.666667 554.166667,229.166667 C554.166667,217.666667 563.5,208.333333 575,208.333333 C586.5,208.333333 595.833333,217.666667 595.833333,229.166667 C595.833333,240.666667 586.5,250 575,250 Z M200,458.333333 C200,481.333333 218.666667,500 241.666667,500 L658.333333,500 C681.333333,500 700,481.333333 700,458.333333 L700,416.666667 L200,416.666667 L200,458.333333 Z"></path>
                </g>
            </g>
        </g>
    </g>
</svg>