<?xml version="1.0" encoding="UTF-8"?>
<svg width="980px" height="680px" viewBox="0 0 980 680" version="1.1" xmlns="http://www.w3.org/2000/svg" xmlns:xlink="http://www.w3.org/1999/xlink">
    <title>WW Worlds text</title>
    <defs>
        <linearGradient x1="50%" y1="0%" x2="50%" y2="100%" id="linearGradient-1">
            <stop stop-color="#FFFFFF" offset="0%"></stop>
            <stop stop-color="#EDEDED" offset="100%"></stop>
        </linearGradient>
        <rect id="path-2" x="0" y="0" width="900" height="600" rx="80"></rect>
        <filter x="-6.7%" y="-10.0%" width="113.3%" height="120.0%" filterUnits="objectBoundingBox" id="filter-4">
            <feMorphology radius="2.5" operator="dilate" in="SourceAlpha" result="shadowSpreadOuter1"></feMorphology>
            <feOffset dx="0" dy="0" in="shadowSpreadOuter1" result="shadowOffsetOuter1"></feOffset>
            <feGaussianBlur stdDeviation="17.5" in="shadowOffsetOuter1" result="shadowBlurOuter1"></feGaussianBlur>
            <feColorMatrix values="0 0 0 0 0   0 0 0 0 0   0 0 0 0 0  0 0 0 0.5 0" type="matrix" in="shadowBlurOuter1"></feColorMatrix>
        </filter>
    </defs>
    <g id="WW-Worlds-text" stroke="none" stroke-width="1" fill="none" fill-rule="evenodd">
        <g transform="translate(40, 40)">
            <mask id="mask-3" fill="white">
                <use xlink:href="#path-2"></use>
            </mask>
            <g id="Rectangle">
                <use fill="black" fill-opacity="1" filter="url(#filter-4)" xlink:href="#path-2"></use>
                <use fill="url(#linearGradient-1)" fill-rule="evenodd" xlink:href="#path-2"></use>
            </g>
            <rect id="Rectangle" stroke="#979797" fill="#FF6600" mask="url(#mask-3)" x="0" y="442" width="900" height="158"></rect>
            <g id="Logo" mask="url(#mask-3)">
                <g transform="translate(101.5, 21)">
                    <g id="world" transform="translate(60.5, 0)">
                        <path d="M180,0 C80.595,0 0,80.595 0,180 C0,279.405 80.595,360 180,360 C279.405,360 360,279.405 360,180 C360,80.595 279.405,0 180,0 Z M300.75,120 L249.81,120 C245.235,94.275 237.855,71.7 228.435,54.135 C259.98,66.315 285.765,89.97 300.75,120 L300.75,120 Z M180,45 C189.66,45 209.64,70.98 219.39,120 L140.61,120 C150.36,70.98 170.34,45 180,45 L180,45 Z M48.48,210 C46.275,200.34 45,190.32 45,180 C45,169.68 46.275,159.66 48.48,150 L106.305,150 C105.48,159.735 105,169.74 105,180 C105,190.26 105.48,200.265 106.29,210 L48.48,210 Z M59.25,240 L110.19,240 C114.765,265.725 122.145,288.3 131.565,305.865 C100.02,293.685 74.235,270.03 59.25,240 L59.25,240 Z M110.19,120 L59.25,120 C74.235,89.97 100.035,66.315 131.565,54.135 C122.145,71.7 114.765,94.275 110.19,120 Z M180,315 C170.34,315 150.36,289.02 140.61,240 L219.39,240 C209.64,289.02 189.66,315 180,315 L180,315 Z M223.665,210 L136.335,210 C135.48,200.595 135,190.605 135,180 C135,169.395 135.48,159.405 136.335,150 L223.68,150 C224.52,159.405 225,169.395 225,180 C225,190.605 224.52,200.595 223.665,210 L223.665,210 Z M228.435,305.865 C237.855,288.3 245.235,265.725 249.81,240 L300.75,240 C285.765,270.03 259.98,293.685 228.435,305.865 L228.435,305.865 Z M253.71,210 C254.52,200.265 255,190.26 255,180 C255,169.74 254.52,159.735 253.71,150 L311.535,150 C313.725,159.66 315,169.68 315,180 C315,190.32 313.725,200.34 311.52,210 L253.71,210 Z" id="Shape" fill="#FFE0CC" fill-rule="nonzero"></path>
                    </g>
                    <g id="world-copy" transform="translate(132.5, 0)">
                        <path d="M180,0 C80.595,0 0,80.595 0,180 C0,279.405 80.595,360 180,360 C279.405,360 360,279.405 360,180 C360,80.595 279.405,0 180,0 Z M300.75,120 L249.81,120 C245.235,94.275 237.855,71.7 228.435,54.135 C259.98,66.315 285.765,89.97 300.75,120 L300.75,120 Z M180,45 C189.66,45 209.64,70.98 219.39,120 L140.61,120 C150.36,70.98 170.34,45 180,45 L180,45 Z M48.48,210 C46.275,200.34 45,190.32 45,180 C45,169.68 46.275,159.66 48.48,150 L106.305,150 C105.48,159.735 105,169.74 105,180 C105,190.26 105.48,200.265 106.29,210 L48.48,210 Z M59.25,240 L110.19,240 C114.765,265.725 122.145,288.3 131.565,305.865 C100.02,293.685 74.235,270.03 59.25,240 L59.25,240 Z M110.19,120 L59.25,120 C74.235,89.97 100.035,66.315 131.565,54.135 C122.145,71.7 114.765,94.275 110.19,120 Z M180,315 C170.34,315 150.36,289.02 140.61,240 L219.39,240 C209.64,289.02 189.66,315 180,315 L180,315 Z M223.665,210 L136.335,210 C135.48,200.595 135,190.605 135,180 C135,169.395 135.48,159.405 136.335,150 L223.68,150 C224.52,159.405 225,169.395 225,180 C225,190.605 224.52,200.595 223.665,210 L223.665,210 Z M228.435,305.865 C237.855,288.3 245.235,265.725 249.81,240 L300.75,240 C285.765,270.03 259.98,293.685 228.435,305.865 L228.435,305.865 Z M253.71,210 C254.52,200.265 255,190.26 255,180 C255,169.74 254.52,159.735 253.71,150 L311.535,150 C313.725,159.66 315,169.68 315,180 C315,190.32 313.725,200.34 311.52,210 L253.71,210 Z" id="Shape" fill="#FFB27F" fill-rule="nonzero"></path>
                    </g>
                    <g id="world-copy-2" transform="translate(204.5, 0)">
                        <path d="M180,0 C80.595,0 0,80.595 0,180 C0,279.405 80.595,360 180,360 C279.405,360 360,279.405 360,180 C360,80.595 279.405,0 180,0 Z M300.75,120 L249.81,120 C245.235,94.275 237.855,71.7 228.435,54.135 C259.98,66.315 285.765,89.97 300.75,120 L300.75,120 Z M180,45 C189.66,45 209.64,70.98 219.39,120 L140.61,120 C150.36,70.98 170.34,45 180,45 L180,45 Z M48.48,210 C46.275,200.34 45,190.32 45,180 C45,169.68 46.275,159.66 48.48,150 L106.305,150 C105.48,159.735 105,169.74 105,180 C105,190.26 105.48,200.265 106.29,210 L48.48,210 Z M59.25,240 L110.19,240 C114.765,265.725 122.145,288.3 131.565,305.865 C100.02,293.685 74.235,270.03 59.25,240 L59.25,240 Z M110.19,120 L59.25,120 C74.235,89.97 100.035,66.315 131.565,54.135 C122.145,71.7 114.765,94.275 110.19,120 Z M180,315 C170.34,315 150.36,289.02 140.61,240 L219.39,240 C209.64,289.02 189.66,315 180,315 L180,315 Z M223.665,210 L136.335,210 C135.48,200.595 135,190.605 135,180 C135,169.395 135.48,159.405 136.335,150 L223.68,150 C224.52,159.405 225,169.395 225,180 C225,190.605 224.52,200.595 223.665,210 L223.665,210 Z M228.435,305.865 C237.855,288.3 245.235,265.725 249.81,240 L300.75,240 C285.765,270.03 259.98,293.685 228.435,305.865 L228.435,305.865 Z M253.71,210 C254.52,200.265 255,190.26 255,180 C255,169.74 254.52,159.735 253.71,150 L311.535,150 C313.725,159.66 315,169.68 315,180 C315,190.32 313.725,200.34 311.52,210 L253.71,210 Z" id="Shape" fill="#FF8C40" fill-rule="nonzero"></path>
                    </g>
                    <g id="world-copy-3" transform="translate(276.5, 0)">
                        <path d="M180,0 C80.595,0 0,80.595 0,180 C0,279.405 80.595,360 180,360 C279.405,360 360,279.405 360,180 C360,80.595 279.405,0 180,0 Z M300.75,120 L249.81,120 C245.235,94.275 237.855,71.7 228.435,54.135 C259.98,66.315 285.765,89.97 300.75,120 L300.75,120 Z M180,45 C189.66,45 209.64,70.98 219.39,120 L140.61,120 C150.36,70.98 170.34,45 180,45 L180,45 Z M48.48,210 C46.275,200.34 45,190.32 45,180 C45,169.68 46.275,159.66 48.48,150 L106.305,150 C105.48,159.735 105,169.74 105,180 C105,190.26 105.48,200.265 106.29,210 L48.48,210 Z M59.25,240 L110.19,240 C114.765,265.725 122.145,288.3 131.565,305.865 C100.02,293.685 74.235,270.03 59.25,240 L59.25,240 Z M110.19,120 L59.25,120 C74.235,89.97 100.035,66.315 131.565,54.135 C122.145,71.7 114.765,94.275 110.19,120 Z M180,315 C170.34,315 150.36,289.02 140.61,240 L219.39,240 C209.64,289.02 189.66,315 180,315 L180,315 Z M223.665,210 L136.335,210 C135.48,200.595 135,190.605 135,180 C135,169.395 135.48,159.405 136.335,150 L223.68,150 C224.52,159.405 225,169.395 225,180 C225,190.605 224.52,200.595 223.665,210 L223.665,210 Z M228.435,305.865 C237.855,288.3 245.235,265.725 249.81,240 L300.75,240 C285.765,270.03 259.98,293.685 228.435,305.865 L228.435,305.865 Z M253.71,210 C254.52,200.265 255,190.26 255,180 C255,169.74 254.52,159.735 253.71,150 L311.535,150 C313.725,159.66 315,169.68 315,180 C315,190.32 313.725,200.34 311.52,210 L253.71,210 Z" id="Shape" fill="#FF6600" fill-rule="nonzero"></path>
                    </g>
                    <g id="Versandzonen" transform="translate(0, 460.9993)">
                        <polygon id="Path" fill="#FFFFFF" fill-rule="nonzero" points="0 0 15.5 0 29.5 56 38 56 52 0 67.5 0 49.5 70 18 70"></polygon>
                        <path d="M95.5,71.5 C91.6333333,71.5 88.0166667,70.8 84.65,69.4 C81.2833333,68 78.3666667,66.0833333 75.9,63.65 C73.4333333,61.2166667 71.5,58.35 70.1,55.05 C68.7,51.75 68,48.2333333 68,44.5 C68,40.7666667 68.7,37.25 70.1,33.95 C71.5,30.65 73.4333333,27.7833333 75.9,25.35 C78.3666667,22.9166667 81.2833333,21 84.65,19.6 C88.0166667,18.2 91.6333333,17.5 95.5,17.5 C99.5,17.5 103.15,18.2 106.45,19.6 C109.75,21 112.6,22.9333333 115,25.4 C117.4,27.8666667 119.25,30.7333333 120.55,34 C121.85,37.2666667 122.5,40.7666667 122.5,44.5 L122.5,47.5 L82.5,47.5 C82.7666667,49.1 83.2833333,50.6333333 84.05,52.1 C84.8166667,53.5666667 85.7833333,54.85 86.95,55.95 C88.1166667,57.05 89.4333333,57.9166667 90.9,58.55 C92.3666667,59.1833333 93.9,59.5 95.5,59.5 C97.7666667,59.5 99.6166667,59.1833333 101.05,58.55 C102.483333,57.9166667 103.666667,57.2333333 104.6,56.5 C105.6,55.6333333 106.4,54.6333333 107,53.5 L122,53.5 C120.933333,56.8333333 119.266667,59.8333333 117,62.5 C116,63.6333333 114.833333,64.7333333 113.5,65.8 C112.166667,66.8666667 110.633333,67.8333333 108.9,68.7 C107.166667,69.5666667 105.183333,70.25 102.95,70.75 C100.716667,71.25 98.2333333,71.5 95.5,71.5 Z M107.5,39 C107.233333,37.7333333 106.766667,36.5333333 106.1,35.4 C105.433333,34.2666667 104.583333,33.2666667 103.55,32.4 C102.516667,31.5333333 101.316667,30.8333333 99.95,30.3 C98.5833333,29.7666667 97.1,29.5 95.5,29.5 C92.2333333,29.5 89.5166667,30.45 87.35,32.35 C85.1833333,34.25 83.7333333,36.4666667 83,39 L107.5,39 Z" id="Shape" fill="#FFFFFF" fill-rule="nonzero"></path>
                        <path d="M131,19 L145,19 L145,26.5 L145.5,26.5 C146.1,24.9 147,23.5 148.2,22.3 C149.2,21.2333333 150.533333,20.25 152.2,19.35 C153.866667,18.45 155.966667,18 158.5,18 L164.5,18 L164.5,31.5 L157,31.5 C153.2,31.5 150.25,32.5333333 148.15,34.6 C146.05,36.6666667 145,39.4666667 145,43 L145,70 L131,70 L131,19 Z" id="Path" fill="#FFFFFF" fill-rule="nonzero"></path>
                        <path d="M193.5,71.5 C190.766667,71.5 188.3,71.25 186.1,70.75 C183.9,70.25 181.95,69.5666667 180.25,68.7 C178.55,67.8333333 177.05,66.8666667 175.75,65.8 C174.45,64.7333333 173.366667,63.6333333 172.5,62.5 C170.366667,59.8333333 168.866667,56.8333333 168,53.5 L182.5,53.5 C183.033333,54.7666667 183.766667,55.8666667 184.7,56.8 C185.5,57.6 186.6,58.3333333 188,59 C189.4,59.6666667 191.233333,60 193.5,60 C196.766667,60 199,59.55 200.2,58.65 C201.4,57.75 202,56.5333333 202,55 C202,53.6666667 201.216667,52.6666667 199.65,52 C198.083333,51.3333333 196.133333,50.7333333 193.8,50.2 C191.466667,49.6666667 188.95,49.1 186.25,48.5 C183.55,47.9 181.033333,47 178.7,45.8 C176.366667,44.6 174.416667,43 172.85,41 C171.283333,39 170.5,36.3333333 170.5,33 C170.5,31 170.966667,29.0666667 171.9,27.2 C172.833333,25.3333333 174.2,23.6833333 176,22.25 C177.8,20.8166667 180.033333,19.6666667 182.7,18.8 C185.366667,17.9333333 188.466667,17.5 192,17.5 C194.666667,17.5 197.066667,17.7333333 199.2,18.2 C201.333333,18.6666667 203.216667,19.3 204.85,20.1 C206.483333,20.9 207.9,21.8 209.1,22.8 C210.3,23.8 211.3,24.8 212.1,25.8 C214.033333,28.2 215.333333,30.9333333 216,34 L202,34 C201.6,33.0666667 201,32.2333333 200.2,31.5 C199.466667,30.9 198.45,30.3333333 197.15,29.8 C195.85,29.2666667 194.133333,29 192,29 C189.466667,29 187.666667,29.4166667 186.6,30.25 C185.533333,31.0833333 185,32 185,33 C185,34.3333333 185.783333,35.3333333 187.35,36 C188.916667,36.6666667 190.866667,37.2666667 193.2,37.8 C195.533333,38.3333333 198.05,38.9 200.75,39.5 C203.45,40.1 205.966667,41 208.3,42.2 C210.633333,43.4 212.583333,45 214.15,47 C215.716667,49 216.5,51.6666667 216.5,55 C216.5,57.1333333 216,59.1833333 215,61.15 C214,63.1166667 212.533333,64.8666667 210.6,66.4 C208.666667,67.9333333 206.266667,69.1666667 203.4,70.1 C200.533333,71.0333333 197.233333,71.5 193.5,71.5 Z" id="Path" fill="#FFFFFF" fill-rule="nonzero"></path>
                        <path d="M245.5,71.5 C242.233333,71.5 239.183333,70.8666667 236.35,69.6 C233.516667,68.3333333 231.033333,66.5333333 228.9,64.2 C226.766667,61.8666667 225.083333,59.0333333 223.85,55.7 C222.616667,52.3666667 222,48.6333333 222,44.5 C222,40.3666667 222.616667,36.6333333 223.85,33.3 C225.083333,29.9666667 226.766667,27.1333333 228.9,24.8 C231.033333,22.4666667 233.516667,20.6666667 236.35,19.4 C239.183333,18.1333333 242.233333,17.5 245.5,17.5 C248.3,17.5 250.683333,17.9166667 252.65,18.75 C254.616667,19.5833333 256.266667,20.5 257.6,21.5 C259.133333,22.7 260.433333,24.0333333 261.5,25.5 L262,25.5 L262,19 L276,19 L276,70 L262,70 L262,63.5 L261.5,63.5 C260.433333,64.9666667 259.133333,66.3 257.6,67.5 C256.266667,68.5 254.616667,69.4166667 252.65,70.25 C250.683333,71.0833333 248.3,71.5 245.5,71.5 Z M249,59.5 C252.8,59.5 255.916667,58.2 258.35,55.6 C260.783333,53 262,49.3 262,44.5 C262,39.7 260.783333,36 258.35,33.4 C255.916667,30.8 252.8,29.5 249,29.5 C245.466667,29.5 242.5,30.8 240.1,33.4 C237.7,36 236.5,39.7 236.5,44.5 C236.5,49.3 237.7,53 240.1,55.6 C242.5,58.2 245.466667,59.5 249,59.5 Z" id="Shape" fill="#FFFFFF" fill-rule="nonzero"></path>
                        <path d="M287,19 L301,19 L301,26 L301.5,26 C302.433333,24.4 303.666667,23 305.2,21.8 C306.533333,20.7333333 308.183333,19.75 310.15,18.85 C312.116667,17.95 314.566667,17.5 317.5,17.5 C323.766667,17.5 328.666667,19.3166667 332.2,22.95 C335.733333,26.5833333 337.5,31.9333333 337.5,39 L337.5,70 L323.5,70 L323.5,41 C323.5,37.2 322.566667,34.3333333 320.7,32.4 C318.833333,30.4666667 316.266667,29.5 313,29.5 C311.4,29.5 309.866667,29.8333333 308.4,30.5 C306.933333,31.1666667 305.65,32.0833333 304.55,33.25 C303.45,34.4166667 302.583333,35.8333333 301.95,37.5 C301.316667,39.1666667 301,41 301,43 L301,70 L287,70 L287,19 Z" id="Path" fill="#FFFFFF" fill-rule="nonzero"></path>
                        <path d="M369,71.5 C365.733333,71.5 362.683333,70.8666667 359.85,69.6 C357.016667,68.3333333 354.533333,66.5333333 352.4,64.2 C350.266667,61.8666667 348.583333,59.0333333 347.35,55.7 C346.116667,52.3666667 345.5,48.6333333 345.5,44.5 C345.5,40.3666667 346.116667,36.6333333 347.35,33.3 C348.583333,29.9666667 350.266667,27.1333333 352.4,24.8 C354.533333,22.4666667 357.016667,20.6666667 359.85,19.4 C362.683333,18.1333333 365.733333,17.5 369,17.5 C371.8,17.5 374.183333,17.9166667 376.15,18.75 C378.116667,19.5833333 379.766667,20.5 381.1,21.5 C382.633333,22.7 383.933333,24.0333333 385,25.5 L385.5,25.5 L385.5,0 L399.5,0 L399.5,70 L385.5,70 L385.5,63.5 L385,63.5 C383.933333,64.9666667 382.633333,66.3 381.1,67.5 C379.766667,68.5 378.116667,69.4166667 376.15,70.25 C374.183333,71.0833333 371.8,71.5 369,71.5 Z M372.5,59.5 C376.3,59.5 379.416667,58.2 381.85,55.6 C384.283333,53 385.5,49.3 385.5,44.5 C385.5,39.7 384.283333,36 381.85,33.4 C379.416667,30.8 376.3,29.5 372.5,29.5 C368.966667,29.5 366,30.8 363.6,33.4 C361.2,36 360,39.7 360,44.5 C360,49.3 361.2,53 363.6,55.6 C366,58.2 368.966667,59.5 372.5,59.5 Z" id="Shape" fill="#FFFFFF" fill-rule="nonzero"></path>
                        <polygon id="Path" fill="#FFFFFF" fill-rule="nonzero" points="407.5 58 433 32 433 31 408.5 31 408.5 19 451.5 19 451.5 31 426 57 426 58 452.5 58 452.5 70 407.5 70"></polygon>
                        <path d="M485.5,71.5 C481.5,71.5 477.783333,70.8 474.35,69.4 C470.916667,68 467.95,66.0833333 465.45,63.65 C462.95,61.2166667 461,58.35 459.6,55.05 C458.2,51.75 457.5,48.2333333 457.5,44.5 C457.5,40.7666667 458.2,37.25 459.6,33.95 C461,30.65 462.95,27.7833333 465.45,25.35 C467.95,22.9166667 470.916667,21 474.35,19.6 C477.783333,18.2 481.5,17.5 485.5,17.5 C489.5,17.5 493.2,18.2 496.6,19.6 C500,21 502.95,22.9166667 505.45,25.35 C507.95,27.7833333 509.916667,30.65 511.35,33.95 C512.783333,37.25 513.5,40.7666667 513.5,44.5 C513.5,48.2333333 512.783333,51.75 511.35,55.05 C509.916667,58.35 507.95,61.2166667 505.45,63.65 C502.95,66.0833333 500,68 496.6,69.4 C493.2,70.8 489.5,71.5 485.5,71.5 Z M485.5,59.5 C487.366667,59.5 489.116667,59.1333333 490.75,58.4 C492.383333,57.6666667 493.816667,56.65 495.05,55.35 C496.283333,54.05 497.25,52.4833333 497.95,50.65 C498.65,48.8166667 499,46.7666667 499,44.5 C499,42.2333333 498.65,40.1833333 497.95,38.35 C497.25,36.5166667 496.283333,34.95 495.05,33.65 C493.816667,32.35 492.383333,31.3333333 490.75,30.6 C489.116667,29.8666667 487.366667,29.5 485.5,29.5 C483.633333,29.5 481.883333,29.8666667 480.25,30.6 C478.616667,31.3333333 477.183333,32.35 475.95,33.65 C474.716667,34.95 473.75,36.5166667 473.05,38.35 C472.35,40.1833333 472,42.2333333 472,44.5 C472,46.7666667 472.35,48.8166667 473.05,50.65 C473.75,52.4833333 474.716667,54.05 475.95,55.35 C477.183333,56.65 478.616667,57.6666667 480.25,58.4 C481.883333,59.1333333 483.633333,59.5 485.5,59.5 Z" id="Shape" fill="#FFFFFF" fill-rule="nonzero"></path>
                        <path d="M521.5,19 L535.5,19 L535.5,26 L536,26 C536.933333,24.4 538.166667,23 539.7,21.8 C541.033333,20.7333333 542.683333,19.75 544.65,18.85 C546.616667,17.95 549.066667,17.5 552,17.5 C558.266667,17.5 563.166667,19.3166667 566.7,22.95 C570.233333,26.5833333 572,31.9333333 572,39 L572,70 L558,70 L558,41 C558,37.2 557.066667,34.3333333 555.2,32.4 C553.333333,30.4666667 550.766667,29.5 547.5,29.5 C545.9,29.5 544.366667,29.8333333 542.9,30.5 C541.433333,31.1666667 540.15,32.0833333 539.05,33.25 C537.95,34.4166667 537.083333,35.8333333 536.45,37.5 C535.816667,39.1666667 535.5,41 535.5,43 L535.5,70 L521.5,70 L521.5,19 Z" id="Path" fill="#FFFFFF" fill-rule="nonzero"></path>
                        <path d="M607,71.5 C603.133333,71.5 599.516667,70.8 596.15,69.4 C592.783333,68 589.866667,66.0833333 587.4,63.65 C584.933333,61.2166667 583,58.35 581.6,55.05 C580.2,51.75 579.5,48.2333333 579.5,44.5 C579.5,40.7666667 580.2,37.25 581.6,33.95 C583,30.65 584.933333,27.7833333 587.4,25.35 C589.866667,22.9166667 592.783333,21 596.15,19.6 C599.516667,18.2 603.133333,17.5 607,17.5 C611,17.5 614.65,18.2 617.95,19.6 C621.25,21 624.1,22.9333333 626.5,25.4 C628.9,27.8666667 630.75,30.7333333 632.05,34 C633.35,37.2666667 634,40.7666667 634,44.5 L634,47.5 L594,47.5 C594.266667,49.1 594.783333,50.6333333 595.55,52.1 C596.316667,53.5666667 597.283333,54.85 598.45,55.95 C599.616667,57.05 600.933333,57.9166667 602.4,58.55 C603.866667,59.1833333 605.4,59.5 607,59.5 C609.266667,59.5 611.116667,59.1833333 612.55,58.55 C613.983333,57.9166667 615.166667,57.2333333 616.1,56.5 C617.1,55.6333333 617.9,54.6333333 618.5,53.5 L633.5,53.5 C632.433333,56.8333333 630.766667,59.8333333 628.5,62.5 C627.5,63.6333333 626.333333,64.7333333 625,65.8 C623.666667,66.8666667 622.133333,67.8333333 620.4,68.7 C618.666667,69.5666667 616.683333,70.25 614.45,70.75 C612.216667,71.25 609.733333,71.5 607,71.5 Z M619,39 C618.733333,37.7333333 618.266667,36.5333333 617.6,35.4 C616.933333,34.2666667 616.083333,33.2666667 615.05,32.4 C614.016667,31.5333333 612.816667,30.8333333 611.45,30.3 C610.083333,29.7666667 608.6,29.5 607,29.5 C603.733333,29.5 601.016667,30.45 598.85,32.35 C596.683333,34.25 595.233333,36.4666667 594.5,39 L619,39 Z" id="Shape" fill="#FFFFFF" fill-rule="nonzero"></path>
                        <path d="M642.5,19 L656.5,19 L656.5,26 L657,26 C657.933333,24.4 659.166667,23 660.7,21.8 C662.033333,20.7333333 663.683333,19.75 665.65,18.85 C667.616667,17.95 670.066667,17.5 673,17.5 C679.266667,17.5 684.166667,19.3166667 687.7,22.95 C691.233333,26.5833333 693,31.9333333 693,39 L693,70 L679,70 L679,41 C679,37.2 678.066667,34.3333333 676.2,32.4 C674.333333,30.4666667 671.766667,29.5 668.5,29.5 C666.9,29.5 665.366667,29.8333333 663.9,30.5 C662.433333,31.1666667 661.15,32.0833333 660.05,33.25 C658.95,34.4166667 658.083333,35.8333333 657.45,37.5 C656.816667,39.1666667 656.5,41 656.5,43 L656.5,70 L642.5,70 L642.5,19 Z" id="Path" fill="#FFFFFF" fill-rule="nonzero"></path>
                    </g>
                </g>
            </g>
        </g>
    </g>
</svg>