<?xml version="1.0" encoding="UTF-8"?>
<svg width="980px" height="680px" viewBox="0 0 980 680" version="1.1" xmlns="http://www.w3.org/2000/svg" xmlns:xlink="http://www.w3.org/1999/xlink">
    <title>WW Weight text</title>
    <defs>
        <linearGradient x1="50%" y1="0%" x2="50%" y2="100%" id="linearGradient-1">
            <stop stop-color="#FFFFFF" offset="0%"></stop>
            <stop stop-color="#EDEDED" offset="100%"></stop>
        </linearGradient>
        <rect id="path-2" x="0" y="0" width="900" height="600" rx="80"></rect>
        <filter x="-6.7%" y="-10.0%" width="113.3%" height="120.0%" filterUnits="objectBoundingBox" id="filter-4">
            <feMorphology radius="2.5" operator="dilate" in="SourceAlpha" result="shadowSpreadOuter1"></feMorphology>
            <feOffset dx="0" dy="0" in="shadowSpreadOuter1" result="shadowOffsetOuter1"></feOffset>
            <feGaussianBlur stdDeviation="17.5" in="shadowOffsetOuter1" result="shadowBlurOuter1"></feGaussianBlur>
            <feColorMatrix values="0 0 0 0 0   0 0 0 0 0   0 0 0 0 0  0 0 0 0.5 0" type="matrix" in="shadowBlurOuter1"></feColorMatrix>
        </filter>
    </defs>
    <g id="WW-Weight-text" stroke="none" stroke-width="1" fill="none" fill-rule="evenodd">
        <g transform="translate(40, 40)">
            <mask id="mask-3" fill="white">
                <use xlink:href="#path-2"></use>
            </mask>
            <g id="Rectangle">
                <use fill="black" fill-opacity="1" filter="url(#filter-4)" xlink:href="#path-2"></use>
                <use fill="url(#linearGradient-1)" fill-rule="evenodd" xlink:href="#path-2"></use>
            </g>
            <rect id="Rectangle" stroke="#979797" fill="#FF6600" mask="url(#mask-3)" x="0" y="442" width="900" height="158"></rect>
            <g id="Logo" mask="url(#mask-3)">
                <g transform="translate(50, 20)">
                    <g id="weight">
                        <path d="M118.810992,338.004975 L101.557247,275.945274 C100.363216,271.636816 96.4378398,268.656716 91.9651995,268.656716 L76.8557349,268.656716 C78.567179,265.721393 79.6169311,262.348259 79.6169311,258.706468 C79.6169311,247.716418 70.7015012,238.80597 59.7014925,238.80597 C48.7014839,238.80597 39.786054,247.716418 39.786054,258.706468 C39.786054,262.348259 40.8358061,265.721393 42.5472502,268.656716 L27.4377856,268.656716 C22.9651452,268.656716 19.039769,271.636816 17.8457382,275.945274 L0.591993324,338.004975 C-2.23387954,348.159204 5.41289264,358.208955 15.9601646,358.208955 L103.44282,358.208955 C113.990092,358.208955 121.636865,348.159204 118.810992,338.004975 Z M59.7014925,268.656716 C54.2089509,268.656716 49.7412857,264.19403 49.7412857,258.706468 C49.7412857,253.218905 54.2089509,248.756219 59.7014925,248.756219 C65.1940342,248.756219 69.6616994,253.218905 69.6616994,258.706468 C69.6616994,264.19403 65.1940342,268.656716 59.7014925,268.656716 Z" id="Shape" fill="#FF6600" fill-rule="nonzero"></path>
                        <path d="M398.816013,317.800995 L364.308524,193.681592 C361.920462,185.064677 354.06971,179.104478 345.124429,179.104478 L314.9055,179.104478 C318.328388,173.233831 320.427892,166.487562 320.427892,159.20398 C320.427892,137.223881 302.597032,119.402985 280.597015,119.402985 C258.596998,119.402985 240.766138,137.223881 240.766138,159.20398 C240.766138,166.487562 242.865642,173.233831 246.28853,179.104478 L216.069601,179.104478 C207.12432,179.104478 199.273568,185.064677 196.885506,193.681592 L162.378016,317.800995 C156.726271,338.109453 172.019815,358.208955 193.114359,358.208955 L368.079671,358.208955 C389.174215,358.208955 404.467759,338.109453 398.816013,317.800995 Z M280.597015,179.104478 C269.611932,179.104478 260.676601,170.179104 260.676601,159.20398 C260.676601,148.228856 269.611932,139.303483 280.597015,139.303483 C291.582098,139.303483 300.517429,148.228856 300.517429,159.20398 C300.517429,170.179104 291.582098,179.104478 280.597015,179.104478 Z" id="Shape" fill="#FF6600" fill-rule="nonzero"></path>
                        <path d="M798.22402,297.597015 L746.462785,111.41791 C742.880693,98.4925373 731.104564,89.5522388 717.686643,89.5522388 L672.358249,89.5522388 C677.492582,80.7462687 680.641838,70.6268657 680.641838,59.7014925 C680.641838,26.7313433 653.895548,0 620.895522,0 C587.895496,0 561.149207,26.7313433 561.149207,59.7014925 C561.149207,70.6268657 564.298463,80.7462687 569.432795,89.5522388 L524.104402,89.5522388 C510.686481,89.5522388 498.910352,98.4925373 495.328259,111.41791 L443.567025,297.597015 C435.089406,328.059701 458.029723,358.208955 489.671539,358.208955 L752.119506,358.208955 C783.761322,358.208955 806.701639,328.059701 798.22402,297.597015 Z M620.895522,89.5522388 C604.417897,89.5522388 591.014902,76.1641791 591.014902,59.7014925 C591.014902,43.238806 604.417897,29.8507463 620.895522,29.8507463 C637.373147,29.8507463 650.776143,43.238806 650.776143,59.7014925 C650.776143,76.1641791 637.373147,89.5522388 620.895522,89.5522388 Z" id="Shape" fill="#FF6600" fill-rule="nonzero"></path>
                    </g>
                    <g id="Nach-Gewicht" transform="translate(57.75, 459.4993)">
                        <polygon id="Path" fill="#FFFFFF" fill-rule="nonzero" points="0 2.5 19.5 2.5 47 52 48 52 47 43.5 47 2.5 62 2.5 62 72.5 42.5 72.5 15 23 14 23 15 31.5 15 72.5 0 72.5"></polygon>
                        <path d="M95,74 C91.7333333,74 88.6833333,73.3666667 85.85,72.1 C83.0166667,70.8333333 80.5333333,69.0333333 78.4,66.7 C76.2666667,64.3666667 74.5833333,61.5333333 73.35,58.2 C72.1166667,54.8666667 71.5,51.1333333 71.5,47 C71.5,42.8666667 72.1166667,39.1333333 73.35,35.8 C74.5833333,32.4666667 76.2666667,29.6333333 78.4,27.3 C80.5333333,24.9666667 83.0166667,23.1666667 85.85,21.9 C88.6833333,20.6333333 91.7333333,20 95,20 C97.8,20 100.183333,20.4166667 102.15,21.25 C104.116667,22.0833333 105.766667,23 107.1,24 C108.633333,25.2 109.933333,26.5333333 111,28 L111.5,28 L111.5,21.5 L125.5,21.5 L125.5,72.5 L111.5,72.5 L111.5,66 L111,66 C109.933333,67.4666667 108.633333,68.8 107.1,70 C105.766667,71 104.116667,71.9166667 102.15,72.75 C100.183333,73.5833333 97.8,74 95,74 Z M98.5,62 C102.3,62 105.416667,60.7 107.85,58.1 C110.283333,55.5 111.5,51.8 111.5,47 C111.5,42.2 110.283333,38.5 107.85,35.9 C105.416667,33.3 102.3,32 98.5,32 C94.9666667,32 92,33.3 89.6,35.9 C87.2,38.5 86,42.2 86,47 C86,51.8 87.2,55.5 89.6,58.1 C92,60.7 94.9666667,62 98.5,62 Z" id="Shape" fill="#FFFFFF" fill-rule="nonzero"></path>
                        <path d="M161,74 C157.133333,74 153.516667,73.3 150.15,71.9 C146.783333,70.5 143.866667,68.5833333 141.4,66.15 C138.933333,63.7166667 137,60.85 135.6,57.55 C134.2,54.25 133.5,50.7333333 133.5,47 C133.5,43.2666667 134.2,39.75 135.6,36.45 C137,33.15 138.933333,30.2833333 141.4,27.85 C143.866667,25.4166667 146.783333,23.5 150.15,22.1 C153.516667,20.7 157.133333,20 161,20 C163.733333,20 166.2,20.2833333 168.4,20.85 C170.6,21.4166667 172.566667,22.1666667 174.3,23.1 C176.033333,24.0333333 177.55,25.1 178.85,26.3 C180.15,27.5 181.266667,28.7333333 182.2,30 C184.4,32.9333333 186,36.2666667 187,40 L172.5,40 C171.9,38.5333333 171.1,37.2 170.1,36 C169.166667,35 167.983333,34.0833333 166.55,33.25 C165.116667,32.4166667 163.266667,32 161,32 C159.266667,32 157.616667,32.3666667 156.05,33.1 C154.483333,33.8333333 153.1,34.85 151.9,36.15 C150.7,37.45 149.75,39.0166667 149.05,40.85 C148.35,42.6833333 148,44.7333333 148,47 C148,49.2666667 148.35,51.3166667 149.05,53.15 C149.75,54.9833333 150.7,56.55 151.9,57.85 C153.1,59.15 154.483333,60.1666667 156.05,60.9 C157.616667,61.6333333 159.266667,62 161,62 C163.266667,62 165.116667,61.5833333 166.55,60.75 C167.983333,59.9166667 169.166667,59 170.1,58 C171.1,56.8 171.9,55.4666667 172.5,54 L187,54 C186.133333,57.7333333 184.6,61.0666667 182.4,64 C181.466667,65.2666667 180.35,66.5 179.05,67.7 C177.75,68.9 176.233333,69.9666667 174.5,70.9 C172.766667,71.8333333 170.783333,72.5833333 168.55,73.15 C166.316667,73.7166667 163.8,74 161,74 Z" id="Path" fill="#FFFFFF" fill-rule="nonzero"></path>
                        <path d="M195,2.5 L209,2.5 L209,28.5 L209.5,28.5 C210.433333,26.9 211.666667,25.5 213.2,24.3 C214.533333,23.2333333 216.183333,22.25 218.15,21.35 C220.116667,20.45 222.566667,20 225.5,20 C231.766667,20 236.666667,21.8166667 240.2,25.45 C243.733333,29.0833333 245.5,34.4333333 245.5,41.5 L245.5,72.5 L231.5,72.5 L231.5,43.5 C231.5,39.7 230.566667,36.8333333 228.7,34.9 C226.833333,32.9666667 224.266667,32 221,32 C219.4,32 217.866667,32.3333333 216.4,33 C214.933333,33.6666667 213.65,34.5833333 212.55,35.75 C211.45,36.9166667 210.583333,38.3333333 209.95,40 C209.316667,41.6666667 209,43.5 209,45.5 L209,72.5 L195,72.5 L195,2.5 Z" id="Path" fill="#FFFFFF" fill-rule="nonzero"></path>
                        <path d="M320.5,74.5 C314.9,74.5 309.733333,73.55 305,71.65 C300.266667,69.75 296.2,67.15 292.8,63.85 C289.4,60.55 286.75,56.65 284.85,52.15 C282.95,47.65 282,42.7666667 282,37.5 C282,32.2333333 282.95,27.35 284.85,22.85 C286.75,18.35 289.4,14.45 292.8,11.15 C296.2,7.85 300.266667,5.25 305,3.35 C309.733333,1.45 314.9,0.5 320.5,0.5 C324.233333,0.5 327.616667,0.866666667 330.65,1.6 C333.683333,2.33333333 336.383333,3.31666667 338.75,4.55 C341.116667,5.78333333 343.183333,7.18333333 344.95,8.75 C346.716667,10.3166667 348.233333,11.9 349.5,13.5 C352.5,17.3 354.666667,21.6333333 356,26.5 L340.5,26.5 C339.566667,24.2333333 338.233333,22.2333333 336.5,20.5 C334.966667,18.9666667 332.916667,17.5833333 330.35,16.35 C327.783333,15.1166667 324.5,14.5 320.5,14.5 C317.166667,14.5 314.116667,15.05 311.35,16.15 C308.583333,17.25 306.216667,18.8166667 304.25,20.85 C302.283333,22.8833333 300.75,25.3166667 299.65,28.15 C298.55,30.9833333 298,34.1 298,37.5 C298,41.0333333 298.533333,44.2166667 299.6,47.05 C300.666667,49.8833333 302.183333,52.3 304.15,54.3 C306.116667,56.3 308.483333,57.8333333 311.25,58.9 C314.016667,59.9666667 317.1,60.5 320.5,60.5 C324.633333,60.5 328.016667,59.8166667 330.65,58.45 C333.283333,57.0833333 335.366667,55.5333333 336.9,53.8 C338.7,51.8 340.066667,49.5333333 341,47 L330,47 L330,34.5 L364.5,34.5 L364.5,47 L356.5,47 C355.033333,52.1333333 352.733333,56.7333333 349.6,60.8 C348.266667,62.5333333 346.7,64.2166667 344.9,65.85 C343.1,67.4833333 341,68.95 338.6,70.25 C336.2,71.55 333.5,72.5833333 330.5,73.35 C327.5,74.1166667 324.166667,74.5 320.5,74.5 Z" id="Path" fill="#FFFFFF" fill-rule="nonzero"></path>
                        <path d="M395,74 C391.133333,74 387.516667,73.3 384.15,71.9 C380.783333,70.5 377.866667,68.5833333 375.4,66.15 C372.933333,63.7166667 371,60.85 369.6,57.55 C368.2,54.25 367.5,50.7333333 367.5,47 C367.5,43.2666667 368.2,39.75 369.6,36.45 C371,33.15 372.933333,30.2833333 375.4,27.85 C377.866667,25.4166667 380.783333,23.5 384.15,22.1 C387.516667,20.7 391.133333,20 395,20 C399,20 402.65,20.7 405.95,22.1 C409.25,23.5 412.1,25.4333333 414.5,27.9 C416.9,30.3666667 418.75,33.2333333 420.05,36.5 C421.35,39.7666667 422,43.2666667 422,47 L422,50 L382,50 C382.266667,51.6 382.783333,53.1333333 383.55,54.6 C384.316667,56.0666667 385.283333,57.35 386.45,58.45 C387.616667,59.55 388.933333,60.4166667 390.4,61.05 C391.866667,61.6833333 393.4,62 395,62 C397.266667,62 399.116667,61.6833333 400.55,61.05 C401.983333,60.4166667 403.166667,59.7333333 404.1,59 C405.1,58.1333333 405.9,57.1333333 406.5,56 L421.5,56 C420.433333,59.3333333 418.766667,62.3333333 416.5,65 C415.5,66.1333333 414.333333,67.2333333 413,68.3 C411.666667,69.3666667 410.133333,70.3333333 408.4,71.2 C406.666667,72.0666667 404.683333,72.75 402.45,73.25 C400.216667,73.75 397.733333,74 395,74 Z M407,41.5 C406.733333,40.2333333 406.266667,39.0333333 405.6,37.9 C404.933333,36.7666667 404.083333,35.7666667 403.05,34.9 C402.016667,34.0333333 400.816667,33.3333333 399.45,32.8 C398.083333,32.2666667 396.6,32 395,32 C391.733333,32 389.016667,32.95 386.85,34.85 C384.683333,36.75 383.233333,38.9666667 382.5,41.5 L407,41.5 Z" id="Shape" fill="#FFFFFF" fill-rule="nonzero"></path>
                        <polygon id="Path" fill="#FFFFFF" fill-rule="nonzero" points="426.5 21.5 441 21.5 448 58.5 449.5 58.5 457 21.5 475 21.5 482.5 58.5 484 58.5 491 21.5 505.5 21.5 494.5 72.5 473.5 72.5 466.5 37.5 465.5 37.5 458.5 72.5 437.5 72.5"></polygon>
                        <path d="M512.5,21.5 L526.5,21.5 L526.5,72.5 L512.5,72.5 L512.5,21.5 Z M519.5,15 C517.233333,15 515.333333,14.25 513.8,12.75 C512.266667,11.25 511.5,9.5 511.5,7.5 C511.5,5.5 512.266667,3.75 513.8,2.25 C515.333333,0.75 517.233333,0 519.5,0 C521.766667,0 523.666667,0.75 525.2,2.25 C526.733333,3.75 527.5,5.5 527.5,7.5 C527.5,9.5 526.733333,11.25 525.2,12.75 C523.666667,14.25 521.766667,15 519.5,15 Z" id="Shape" fill="#FFFFFF" fill-rule="nonzero"></path>
                        <path d="M562,74 C558.133333,74 554.516667,73.3 551.15,71.9 C547.783333,70.5 544.866667,68.5833333 542.4,66.15 C539.933333,63.7166667 538,60.85 536.6,57.55 C535.2,54.25 534.5,50.7333333 534.5,47 C534.5,43.2666667 535.2,39.75 536.6,36.45 C538,33.15 539.933333,30.2833333 542.4,27.85 C544.866667,25.4166667 547.783333,23.5 551.15,22.1 C554.516667,20.7 558.133333,20 562,20 C564.733333,20 567.2,20.2833333 569.4,20.85 C571.6,21.4166667 573.566667,22.1666667 575.3,23.1 C577.033333,24.0333333 578.55,25.1 579.85,26.3 C581.15,27.5 582.266667,28.7333333 583.2,30 C585.4,32.9333333 587,36.2666667 588,40 L573.5,40 C572.9,38.5333333 572.1,37.2 571.1,36 C570.166667,35 568.983333,34.0833333 567.55,33.25 C566.116667,32.4166667 564.266667,32 562,32 C560.266667,32 558.616667,32.3666667 557.05,33.1 C555.483333,33.8333333 554.1,34.85 552.9,36.15 C551.7,37.45 550.75,39.0166667 550.05,40.85 C549.35,42.6833333 549,44.7333333 549,47 C549,49.2666667 549.35,51.3166667 550.05,53.15 C550.75,54.9833333 551.7,56.55 552.9,57.85 C554.1,59.15 555.483333,60.1666667 557.05,60.9 C558.616667,61.6333333 560.266667,62 562,62 C564.266667,62 566.116667,61.5833333 567.55,60.75 C568.983333,59.9166667 570.166667,59 571.1,58 C572.1,56.8 572.9,55.4666667 573.5,54 L588,54 C587.133333,57.7333333 585.6,61.0666667 583.4,64 C582.466667,65.2666667 581.35,66.5 580.05,67.7 C578.75,68.9 577.233333,69.9666667 575.5,70.9 C573.766667,71.8333333 571.783333,72.5833333 569.55,73.15 C567.316667,73.7166667 564.8,74 562,74 Z" id="Path" fill="#FFFFFF" fill-rule="nonzero"></path>
                        <path d="M596,2.5 L610,2.5 L610,28.5 L610.5,28.5 C611.433333,26.9 612.666667,25.5 614.2,24.3 C615.533333,23.2333333 617.183333,22.25 619.15,21.35 C621.116667,20.45 623.566667,20 626.5,20 C632.766667,20 637.666667,21.8166667 641.2,25.45 C644.733333,29.0833333 646.5,34.4333333 646.5,41.5 L646.5,72.5 L632.5,72.5 L632.5,43.5 C632.5,39.7 631.566667,36.8333333 629.7,34.9 C627.833333,32.9666667 625.266667,32 622,32 C620.4,32 618.866667,32.3333333 617.4,33 C615.933333,33.6666667 614.65,34.5833333 613.55,35.75 C612.45,36.9166667 611.583333,38.3333333 610.95,40 C610.316667,41.6666667 610,43.5 610,45.5 L610,72.5 L596,72.5 L596,2.5 Z" id="Path" fill="#FFFFFF" fill-rule="nonzero"></path>
                        <polygon id="Path" fill="#FFFFFF" fill-rule="nonzero" points="659.5 33.5 653 33.5 653 21.5 659.5 21.5 659.5 10.5 673.5 10.5 673.5 21.5 688 21.5 688 33.5 673.5 33.5 673.5 60.5 688.5 60.5 688.5 72.5 659.5 72.5"></polygon>
                    </g>
                </g>
            </g>
        </g>
    </g>
</svg>