<?xml version="1.0" encoding="UTF-8"?>
<svg width="980px" height="680px" viewBox="0 0 980 680" version="1.1" xmlns="http://www.w3.org/2000/svg" xmlns:xlink="http://www.w3.org/1999/xlink">
    <title>WW World</title>
    <defs>
        <linearGradient x1="50%" y1="0%" x2="50%" y2="100%" id="linearGradient-1">
            <stop stop-color="#FFFFFF" offset="0%"></stop>
            <stop stop-color="#EDEDED" offset="100%"></stop>
        </linearGradient>
        <rect id="path-2" x="0" y="0" width="900" height="600" rx="80"></rect>
        <filter x="-6.7%" y="-10.0%" width="113.3%" height="120.0%" filterUnits="objectBoundingBox" id="filter-3">
            <feMorphology radius="2.5" operator="dilate" in="SourceAlpha" result="shadowSpreadOuter1"></feMorphology>
            <feOffset dx="0" dy="0" in="shadowSpreadOuter1" result="shadowOffsetOuter1"></feOffset>
            <feGaussianBlur stdDeviation="17.5" in="shadowOffsetOuter1" result="shadowBlurOuter1"></feGaussianBlur>
            <feColorMatrix values="0 0 0 0 0   0 0 0 0 0   0 0 0 0 0  0 0 0 0.5 0" type="matrix" in="shadowBlurOuter1"></feColorMatrix>
        </filter>
    </defs>
    <g id="WW-World" stroke="none" stroke-width="1" fill="none" fill-rule="evenodd">
        <g transform="translate(40, 40)">
            <g id="Rectangle">
                <use fill="black" fill-opacity="1" filter="url(#filter-3)" xlink:href="#path-2"></use>
                <use fill="url(#linearGradient-1)" fill-rule="evenodd" xlink:href="#path-2"></use>
            </g>
            <g id="Logo" transform="translate(200, 50)" fill="#FF6600" fill-rule="nonzero">
                <path d="M250,0 C111.9375,0 0,111.9375 0,250 C0,388.0625 111.9375,500 250,500 C388.0625,500 500,388.0625 500,250 C500,111.9375 388.0625,0 250,0 Z M417.708333,166.666667 L346.958333,166.666667 C340.604167,130.9375 330.354167,99.5833333 317.270833,75.1875 C361.083333,92.1041667 396.895833,124.958333 417.708333,166.666667 L417.708333,166.666667 Z M250,62.5 C263.416667,62.5 291.166667,98.5833333 304.708333,166.666667 L195.291667,166.666667 C208.833333,98.5833333 236.583333,62.5 250,62.5 L250,62.5 Z M67.3333333,291.666667 C64.2708333,278.25 62.5,264.333333 62.5,250 C62.5,235.666667 64.2708333,221.75 67.3333333,208.333333 L147.645833,208.333333 C146.5,221.854167 145.833333,235.75 145.833333,250 C145.833333,264.25 146.5,278.145833 147.625,291.666667 L67.3333333,291.666667 Z M82.2916667,333.333333 L153.041667,333.333333 C159.395833,369.0625 169.645833,400.416667 182.729167,424.8125 C138.916667,407.895833 103.104167,375.041667 82.2916667,333.333333 L82.2916667,333.333333 Z M153.041667,166.666667 L82.2916667,166.666667 C103.104167,124.958333 138.9375,92.1041667 182.729167,75.1875 C169.645833,99.5833333 159.395833,130.9375 153.041667,166.666667 Z M250,437.5 C236.583333,437.5 208.833333,401.416667 195.291667,333.333333 L304.708333,333.333333 C291.166667,401.416667 263.416667,437.5 250,437.5 L250,437.5 Z M310.645833,291.666667 L189.354167,291.666667 C188.166667,278.604167 187.5,264.729167 187.5,250 C187.5,235.270833 188.166667,221.395833 189.354167,208.333333 L310.666667,208.333333 C311.833333,221.395833 312.5,235.270833 312.5,250 C312.5,264.729167 311.833333,278.604167 310.645833,291.666667 L310.645833,291.666667 Z M317.270833,424.8125 C330.354167,400.416667 340.604167,369.0625 346.958333,333.333333 L417.708333,333.333333 C396.895833,375.041667 361.083333,407.895833 317.270833,424.8125 L317.270833,424.8125 Z M352.375,291.666667 C353.5,278.145833 354.166667,264.25 354.166667,250 C354.166667,235.75 353.5,221.854167 352.375,208.333333 L432.6875,208.333333 C435.729167,221.75 437.5,235.666667 437.5,250 C437.5,264.333333 435.729167,278.25 432.666667,291.666667 L352.375,291.666667 Z" id="Shape"></path>
            </g>
        </g>
    </g>
</svg>