<?xml version="1.0" encoding="UTF-8"?>
<svg width="980px" height="680px" viewBox="0 0 980 680" version="1.1" xmlns="http://www.w3.org/2000/svg" xmlns:xlink="http://www.w3.org/1999/xlink">
    <title>WW Worlds text</title>
    <defs>
        <linearGradient x1="50%" y1="0%" x2="50%" y2="100%" id="linearGradient-1">
            <stop stop-color="#FFFFFF" offset="0%"></stop>
            <stop stop-color="#EDEDED" offset="100%"></stop>
        </linearGradient>
        <rect id="path-2" x="0" y="0" width="900" height="600" rx="80"></rect>
        <filter x="-6.7%" y="-10.0%" width="113.3%" height="120.0%" filterUnits="objectBoundingBox" id="filter-4">
            <feMorphology radius="2.5" operator="dilate" in="SourceAlpha" result="shadowSpreadOuter1"></feMorphology>
            <feOffset dx="0" dy="0" in="shadowSpreadOuter1" result="shadowOffsetOuter1"></feOffset>
            <feGaussianBlur stdDeviation="17.5" in="shadowOffsetOuter1" result="shadowBlurOuter1"></feGaussianBlur>
            <feColorMatrix values="0 0 0 0 0   0 0 0 0 0   0 0 0 0 0  0 0 0 0.5 0" type="matrix" in="shadowBlurOuter1"></feColorMatrix>
        </filter>
    </defs>
    <g id="WW-Worlds-text" stroke="none" stroke-width="1" fill="none" fill-rule="evenodd">
        <g transform="translate(40, 40)">
            <mask id="mask-3" fill="white">
                <use xlink:href="#path-2"></use>
            </mask>
            <g id="Rectangle">
                <use fill="black" fill-opacity="1" filter="url(#filter-4)" xlink:href="#path-2"></use>
                <use fill="url(#linearGradient-1)" fill-rule="evenodd" xlink:href="#path-2"></use>
            </g>
            <rect id="Rectangle" stroke="#979797" fill="#FF6600" mask="url(#mask-3)" x="0" y="442" width="900" height="158"></rect>
            <g id="Logo" mask="url(#mask-3)">
                <g transform="translate(0, 21)">
                    <g id="world" stroke-width="1" fill-rule="evenodd" transform="translate(162, 0)">
                        <path d="M180,0 C80.595,0 0,80.595 0,180 C0,279.405 80.595,360 180,360 C279.405,360 360,279.405 360,180 C360,80.595 279.405,0 180,0 Z M300.75,120 L249.81,120 C245.235,94.275 237.855,71.7 228.435,54.135 C259.98,66.315 285.765,89.97 300.75,120 L300.75,120 Z M180,45 C189.66,45 209.64,70.98 219.39,120 L140.61,120 C150.36,70.98 170.34,45 180,45 L180,45 Z M48.48,210 C46.275,200.34 45,190.32 45,180 C45,169.68 46.275,159.66 48.48,150 L106.305,150 C105.48,159.735 105,169.74 105,180 C105,190.26 105.48,200.265 106.29,210 L48.48,210 Z M59.25,240 L110.19,240 C114.765,265.725 122.145,288.3 131.565,305.865 C100.02,293.685 74.235,270.03 59.25,240 L59.25,240 Z M110.19,120 L59.25,120 C74.235,89.97 100.035,66.315 131.565,54.135 C122.145,71.7 114.765,94.275 110.19,120 Z M180,315 C170.34,315 150.36,289.02 140.61,240 L219.39,240 C209.64,289.02 189.66,315 180,315 L180,315 Z M223.665,210 L136.335,210 C135.48,200.595 135,190.605 135,180 C135,169.395 135.48,159.405 136.335,150 L223.68,150 C224.52,159.405 225,169.395 225,180 C225,190.605 224.52,200.595 223.665,210 L223.665,210 Z M228.435,305.865 C237.855,288.3 245.235,265.725 249.81,240 L300.75,240 C285.765,270.03 259.98,293.685 228.435,305.865 L228.435,305.865 Z M253.71,210 C254.52,200.265 255,190.26 255,180 C255,169.74 254.52,159.735 253.71,150 L311.535,150 C313.725,159.66 315,169.68 315,180 C315,190.32 313.725,200.34 311.52,210 L253.71,210 Z" id="Shape" fill="#FFE0CC" fill-rule="nonzero"></path>
                    </g>
                    <g id="world-copy" stroke-width="1" fill-rule="evenodd" transform="translate(234, 0)">
                        <path d="M180,0 C80.595,0 0,80.595 0,180 C0,279.405 80.595,360 180,360 C279.405,360 360,279.405 360,180 C360,80.595 279.405,0 180,0 Z M300.75,120 L249.81,120 C245.235,94.275 237.855,71.7 228.435,54.135 C259.98,66.315 285.765,89.97 300.75,120 L300.75,120 Z M180,45 C189.66,45 209.64,70.98 219.39,120 L140.61,120 C150.36,70.98 170.34,45 180,45 L180,45 Z M48.48,210 C46.275,200.34 45,190.32 45,180 C45,169.68 46.275,159.66 48.48,150 L106.305,150 C105.48,159.735 105,169.74 105,180 C105,190.26 105.48,200.265 106.29,210 L48.48,210 Z M59.25,240 L110.19,240 C114.765,265.725 122.145,288.3 131.565,305.865 C100.02,293.685 74.235,270.03 59.25,240 L59.25,240 Z M110.19,120 L59.25,120 C74.235,89.97 100.035,66.315 131.565,54.135 C122.145,71.7 114.765,94.275 110.19,120 Z M180,315 C170.34,315 150.36,289.02 140.61,240 L219.39,240 C209.64,289.02 189.66,315 180,315 L180,315 Z M223.665,210 L136.335,210 C135.48,200.595 135,190.605 135,180 C135,169.395 135.48,159.405 136.335,150 L223.68,150 C224.52,159.405 225,169.395 225,180 C225,190.605 224.52,200.595 223.665,210 L223.665,210 Z M228.435,305.865 C237.855,288.3 245.235,265.725 249.81,240 L300.75,240 C285.765,270.03 259.98,293.685 228.435,305.865 L228.435,305.865 Z M253.71,210 C254.52,200.265 255,190.26 255,180 C255,169.74 254.52,159.735 253.71,150 L311.535,150 C313.725,159.66 315,169.68 315,180 C315,190.32 313.725,200.34 311.52,210 L253.71,210 Z" id="Shape" fill="#FFB27F" fill-rule="nonzero"></path>
                    </g>
                    <g id="world-copy-2" stroke-width="1" fill-rule="evenodd" transform="translate(306, 0)">
                        <path d="M180,0 C80.595,0 0,80.595 0,180 C0,279.405 80.595,360 180,360 C279.405,360 360,279.405 360,180 C360,80.595 279.405,0 180,0 Z M300.75,120 L249.81,120 C245.235,94.275 237.855,71.7 228.435,54.135 C259.98,66.315 285.765,89.97 300.75,120 L300.75,120 Z M180,45 C189.66,45 209.64,70.98 219.39,120 L140.61,120 C150.36,70.98 170.34,45 180,45 L180,45 Z M48.48,210 C46.275,200.34 45,190.32 45,180 C45,169.68 46.275,159.66 48.48,150 L106.305,150 C105.48,159.735 105,169.74 105,180 C105,190.26 105.48,200.265 106.29,210 L48.48,210 Z M59.25,240 L110.19,240 C114.765,265.725 122.145,288.3 131.565,305.865 C100.02,293.685 74.235,270.03 59.25,240 L59.25,240 Z M110.19,120 L59.25,120 C74.235,89.97 100.035,66.315 131.565,54.135 C122.145,71.7 114.765,94.275 110.19,120 Z M180,315 C170.34,315 150.36,289.02 140.61,240 L219.39,240 C209.64,289.02 189.66,315 180,315 L180,315 Z M223.665,210 L136.335,210 C135.48,200.595 135,190.605 135,180 C135,169.395 135.48,159.405 136.335,150 L223.68,150 C224.52,159.405 225,169.395 225,180 C225,190.605 224.52,200.595 223.665,210 L223.665,210 Z M228.435,305.865 C237.855,288.3 245.235,265.725 249.81,240 L300.75,240 C285.765,270.03 259.98,293.685 228.435,305.865 L228.435,305.865 Z M253.71,210 C254.52,200.265 255,190.26 255,180 C255,169.74 254.52,159.735 253.71,150 L311.535,150 C313.725,159.66 315,169.68 315,180 C315,190.32 313.725,200.34 311.52,210 L253.71,210 Z" id="Shape" fill="#FF8C40" fill-rule="nonzero"></path>
                    </g>
                    <g id="world-copy-3" stroke-width="1" fill-rule="evenodd" transform="translate(378, 0)">
                        <path d="M180,0 C80.595,0 0,80.595 0,180 C0,279.405 80.595,360 180,360 C279.405,360 360,279.405 360,180 C360,80.595 279.405,0 180,0 Z M300.75,120 L249.81,120 C245.235,94.275 237.855,71.7 228.435,54.135 C259.98,66.315 285.765,89.97 300.75,120 L300.75,120 Z M180,45 C189.66,45 209.64,70.98 219.39,120 L140.61,120 C150.36,70.98 170.34,45 180,45 L180,45 Z M48.48,210 C46.275,200.34 45,190.32 45,180 C45,169.68 46.275,159.66 48.48,150 L106.305,150 C105.48,159.735 105,169.74 105,180 C105,190.26 105.48,200.265 106.29,210 L48.48,210 Z M59.25,240 L110.19,240 C114.765,265.725 122.145,288.3 131.565,305.865 C100.02,293.685 74.235,270.03 59.25,240 L59.25,240 Z M110.19,120 L59.25,120 C74.235,89.97 100.035,66.315 131.565,54.135 C122.145,71.7 114.765,94.275 110.19,120 Z M180,315 C170.34,315 150.36,289.02 140.61,240 L219.39,240 C209.64,289.02 189.66,315 180,315 L180,315 Z M223.665,210 L136.335,210 C135.48,200.595 135,190.605 135,180 C135,169.395 135.48,159.405 136.335,150 L223.68,150 C224.52,159.405 225,169.395 225,180 C225,190.605 224.52,200.595 223.665,210 L223.665,210 Z M228.435,305.865 C237.855,288.3 245.235,265.725 249.81,240 L300.75,240 C285.765,270.03 259.98,293.685 228.435,305.865 L228.435,305.865 Z M253.71,210 C254.52,200.265 255,190.26 255,180 C255,169.74 254.52,159.735 253.71,150 L311.535,150 C313.725,159.66 315,169.68 315,180 C315,190.32 313.725,200.34 311.52,210 L253.71,210 Z" id="Shape" fill="#FF6600" fill-rule="nonzero"></path>
                    </g>
                    <text id="Versandzonen" font-family="Helvetica-Bold, Helvetica" font-size="100" font-weight="bold">
                        <tspan x="110.986328" y="530.999268" fill="#FFFFFF">Versandzonen</tspan>
                    </text>
                </g>
            </g>
        </g>
    </g>
</svg>