<?xml version="1.0" encoding="UTF-8"?>
<svg width="980px" height="680px" viewBox="0 0 980 680" version="1.1" xmlns="http://www.w3.org/2000/svg" xmlns:xlink="http://www.w3.org/1999/xlink">
    <title>WW Weight</title>
    <defs>
        <linearGradient x1="50%" y1="0%" x2="50%" y2="100%" id="linearGradient-1">
            <stop stop-color="#FFFFFF" offset="0%"></stop>
            <stop stop-color="#EDEDED" offset="100%"></stop>
        </linearGradient>
        <rect id="path-2" x="0" y="0" width="900" height="600" rx="80"></rect>
        <filter x="-6.7%" y="-10.0%" width="113.3%" height="120.0%" filterUnits="objectBoundingBox" id="filter-3">
            <feMorphology radius="2.5" operator="dilate" in="SourceAlpha" result="shadowSpreadOuter1"></feMorphology>
            <feOffset dx="0" dy="0" in="shadowSpreadOuter1" result="shadowOffsetOuter1"></feOffset>
            <feGaussianBlur stdDeviation="17.5" in="shadowOffsetOuter1" result="shadowBlurOuter1"></feGaussianBlur>
            <feColorMatrix values="0 0 0 0 0   0 0 0 0 0   0 0 0 0 0  0 0 0 0.5 0" type="matrix" in="shadowBlurOuter1"></feColorMatrix>
        </filter>
    </defs>
    <g id="WW-Weight" stroke="none" stroke-width="1" fill="none" fill-rule="evenodd">
        <g transform="translate(40, 40)">
            <g id="Rectangle">
                <use fill="black" fill-opacity="1" filter="url(#filter-3)" xlink:href="#path-2"></use>
                <use fill="url(#linearGradient-1)" fill-rule="evenodd" xlink:href="#path-2"></use>
            </g>
            <g id="Logo" transform="translate(50, 121)" fill="#FF6600" fill-rule="nonzero">
                <path d="M118.810992,338.004975 L101.557247,275.945274 C100.363216,271.636816 96.4378398,268.656716 91.9651995,268.656716 L76.8557349,268.656716 C78.567179,265.721393 79.6169311,262.348259 79.6169311,258.706468 C79.6169311,247.716418 70.7015012,238.80597 59.7014925,238.80597 C48.7014839,238.80597 39.786054,247.716418 39.786054,258.706468 C39.786054,262.348259 40.8358061,265.721393 42.5472502,268.656716 L27.4377856,268.656716 C22.9651452,268.656716 19.039769,271.636816 17.8457382,275.945274 L0.591993324,338.004975 C-2.23387954,348.159204 5.41289264,358.208955 15.9601646,358.208955 L103.44282,358.208955 C113.990092,358.208955 121.636865,348.159204 118.810992,338.004975 Z M59.7014925,268.656716 C54.2089509,268.656716 49.7412857,264.19403 49.7412857,258.706468 C49.7412857,253.218905 54.2089509,248.756219 59.7014925,248.756219 C65.1940342,248.756219 69.6616994,253.218905 69.6616994,258.706468 C69.6616994,264.19403 65.1940342,268.656716 59.7014925,268.656716 Z" id="Shape"></path>
                <path d="M398.816013,317.800995 L364.308524,193.681592 C361.920462,185.064677 354.06971,179.104478 345.124429,179.104478 L314.9055,179.104478 C318.328388,173.233831 320.427892,166.487562 320.427892,159.20398 C320.427892,137.223881 302.597032,119.402985 280.597015,119.402985 C258.596998,119.402985 240.766138,137.223881 240.766138,159.20398 C240.766138,166.487562 242.865642,173.233831 246.28853,179.104478 L216.069601,179.104478 C207.12432,179.104478 199.273568,185.064677 196.885506,193.681592 L162.378016,317.800995 C156.726271,338.109453 172.019815,358.208955 193.114359,358.208955 L368.079671,358.208955 C389.174215,358.208955 404.467759,338.109453 398.816013,317.800995 Z M280.597015,179.104478 C269.611932,179.104478 260.676601,170.179104 260.676601,159.20398 C260.676601,148.228856 269.611932,139.303483 280.597015,139.303483 C291.582098,139.303483 300.517429,148.228856 300.517429,159.20398 C300.517429,170.179104 291.582098,179.104478 280.597015,179.104478 Z" id="Shape"></path>
                <path d="M798.22402,297.597015 L746.462785,111.41791 C742.880693,98.4925373 731.104564,89.5522388 717.686643,89.5522388 L672.358249,89.5522388 C677.492582,80.7462687 680.641838,70.6268657 680.641838,59.7014925 C680.641838,26.7313433 653.895548,0 620.895522,0 C587.895496,0 561.149207,26.7313433 561.149207,59.7014925 C561.149207,70.6268657 564.298463,80.7462687 569.432795,89.5522388 L524.104402,89.5522388 C510.686481,89.5522388 498.910352,98.4925373 495.328259,111.41791 L443.567025,297.597015 C435.089406,328.059701 458.029723,358.208955 489.671539,358.208955 L752.119506,358.208955 C783.761322,358.208955 806.701639,328.059701 798.22402,297.597015 Z M620.895522,89.5522388 C604.417897,89.5522388 591.014902,76.1641791 591.014902,59.7014925 C591.014902,43.238806 604.417897,29.8507463 620.895522,29.8507463 C637.373147,29.8507463 650.776143,43.238806 650.776143,59.7014925 C650.776143,76.1641791 637.373147,89.5522388 620.895522,89.5522388 Z" id="Shape"></path>
            </g>
        </g>
    </g>
</svg>